%TF.GenerationSoftware,KiCad,Pcbnew,6.0.10+dfsg-1~bpo11+1*%
%TF.CreationDate,2023-02-09T00:40:40+00:00*%
%TF.ProjectId,USB232R02,55534232-3332-4523-9032-2e6b69636164,rev?*%
%TF.SameCoordinates,PX7f790e8PY698c050*%
%TF.FileFunction,Legend,Bot*%
%TF.FilePolarity,Positive*%
%FSLAX46Y46*%
G04 Gerber Fmt 4.6, Leading zero omitted, Abs format (unit mm)*
G04 Created by KiCad (PCBNEW 6.0.10+dfsg-1~bpo11+1) date 2023-02-09 00:40:40*
%MOMM*%
%LPD*%
G01*
G04 APERTURE LIST*
%ADD10C,0.150000*%
%ADD11C,0.304800*%
%ADD12C,0.120000*%
G04 APERTURE END LIST*
D10*
%TO.C,U2*%
X22437380Y12191905D02*
X23246904Y12191905D01*
X23342142Y12144286D01*
X23389761Y12096667D01*
X23437380Y12001429D01*
X23437380Y11810953D01*
X23389761Y11715715D01*
X23342142Y11668096D01*
X23246904Y11620477D01*
X22437380Y11620477D01*
X22532619Y11191905D02*
X22485000Y11144286D01*
X22437380Y11049048D01*
X22437380Y10810953D01*
X22485000Y10715715D01*
X22532619Y10668096D01*
X22627857Y10620477D01*
X22723095Y10620477D01*
X22865952Y10668096D01*
X23437380Y11239524D01*
X23437380Y10620477D01*
%TO.C,U1*%
X12324404Y17552620D02*
X12324404Y16743096D01*
X12276785Y16647858D01*
X12229166Y16600239D01*
X12133928Y16552620D01*
X11943452Y16552620D01*
X11848214Y16600239D01*
X11800595Y16647858D01*
X11752976Y16743096D01*
X11752976Y17552620D01*
X10752976Y16552620D02*
X11324404Y16552620D01*
X11038690Y16552620D02*
X11038690Y17552620D01*
X11133928Y17409762D01*
X11229166Y17314524D01*
X11324404Y17266905D01*
%TO.C,D1*%
X-182620Y7850096D02*
X-1182620Y7850096D01*
X-1182620Y7612000D01*
X-1135000Y7469143D01*
X-1039762Y7373905D01*
X-944524Y7326286D01*
X-754048Y7278667D01*
X-611191Y7278667D01*
X-420715Y7326286D01*
X-325477Y7373905D01*
X-230239Y7469143D01*
X-182620Y7612000D01*
X-182620Y7850096D01*
X-182620Y6326286D02*
X-182620Y6897715D01*
X-182620Y6612000D02*
X-1182620Y6612000D01*
X-1039762Y6707239D01*
X-944524Y6802477D01*
X-896905Y6897715D01*
D11*
%TO.C,F1*%
X2413000Y14713858D02*
X2921000Y14713858D01*
X2921000Y13915572D02*
X2921000Y15439572D01*
X2195285Y15439572D01*
X816428Y13915572D02*
X1687285Y13915572D01*
X1251857Y13915572D02*
X1251857Y15439572D01*
X1397000Y15221858D01*
X1542142Y15076715D01*
X1687285Y15004143D01*
D10*
%TO.C,JP1*%
X21655380Y6914334D02*
X22369666Y6914334D01*
X22512523Y6961953D01*
X22607761Y7057191D01*
X22655380Y7200048D01*
X22655380Y7295286D01*
X22655380Y6438143D02*
X21655380Y6438143D01*
X21655380Y6057191D01*
X21703000Y5961953D01*
X21750619Y5914334D01*
X21845857Y5866715D01*
X21988714Y5866715D01*
X22083952Y5914334D01*
X22131571Y5961953D01*
X22179190Y6057191D01*
X22179190Y6438143D01*
X22655380Y4914334D02*
X22655380Y5485762D01*
X22655380Y5200048D02*
X21655380Y5200048D01*
X21798238Y5295286D01*
X21893476Y5390524D01*
X21941095Y5485762D01*
%TO.C,R3*%
X7556500Y22733000D02*
X7556500Y24257000D01*
D12*
X5651500Y22733000D02*
X6413500Y22733000D01*
D10*
X4508500Y24257000D02*
X4508500Y22733000D01*
D12*
X5651500Y24257000D02*
X6413500Y24257000D01*
D10*
%TO.C,C3*%
X16764000Y17081500D02*
X15240000Y17081500D01*
D12*
X16764000Y15176500D02*
X16764000Y15938500D01*
X15240000Y15176500D02*
X15240000Y15938500D01*
D10*
X15240000Y14033500D02*
X16764000Y14033500D01*
%TO.C,FB1*%
X-1397000Y9588500D02*
X127000Y9588500D01*
D12*
X-1397000Y11493500D02*
X-1397000Y10731500D01*
D10*
X127000Y12636500D02*
X-1397000Y12636500D01*
D12*
X127000Y11493500D02*
X127000Y10731500D01*
D10*
%TO.C,C1*%
X-3111500Y15367000D02*
X-3111500Y13843000D01*
D12*
X-1206500Y13843000D02*
X-1968500Y13843000D01*
X-1206500Y15367000D02*
X-1968500Y15367000D01*
D10*
X-63500Y13843000D02*
X-63500Y15367000D01*
D12*
%TO.C,R2*%
X25590500Y17145000D02*
X26352500Y17145000D01*
X25590500Y15621000D02*
X26352500Y15621000D01*
D10*
X27495500Y15621000D02*
X27495500Y17145000D01*
X24447500Y17145000D02*
X24447500Y15621000D01*
D12*
%TO.C,U2*%
X17575000Y10045000D02*
X17575000Y9320000D01*
X21795000Y12815000D02*
X21795000Y13540000D01*
X21795000Y13540000D02*
X21070000Y13540000D01*
X17575000Y9320000D02*
X18300000Y9320000D01*
X17575000Y12815000D02*
X17575000Y13540000D01*
X17575000Y13540000D02*
X18300000Y13540000D01*
X21795000Y10045000D02*
X21795000Y9320000D01*
%TO.C,R1*%
X22034500Y17145000D02*
X22796500Y17145000D01*
X22034500Y15621000D02*
X22796500Y15621000D01*
D10*
X23939500Y15621000D02*
X23939500Y17145000D01*
X20891500Y17145000D02*
X20891500Y15621000D01*
%TO.C,C4*%
X17335500Y17145000D02*
X17335500Y15621000D01*
X20383500Y15621000D02*
X20383500Y17145000D01*
D12*
X19240500Y15621000D02*
X18478500Y15621000D01*
X19240500Y17145000D02*
X18478500Y17145000D01*
%TO.C,U1*%
X11562500Y16165000D02*
X13362500Y16165000D01*
X11562500Y13045000D02*
X12362500Y13045000D01*
X11562500Y13045000D02*
X10762500Y13045000D01*
X11562500Y16165000D02*
X10762500Y16165000D01*
D10*
%TO.C,C2*%
X-2413000Y12636500D02*
X-3937000Y12636500D01*
D12*
X-2413000Y10731500D02*
X-2413000Y11493500D01*
X-3937000Y10731500D02*
X-3937000Y11493500D01*
D10*
X-3937000Y9588500D02*
X-2413000Y9588500D01*
D12*
%TO.C,C5*%
X25273000Y9779000D02*
X24511000Y9779000D01*
X25273000Y8255000D02*
X24511000Y8255000D01*
D10*
X26416000Y8255000D02*
X26416000Y9779000D01*
X23368000Y9779000D02*
X23368000Y8255000D01*
D12*
%TO.C,D1*%
X2670000Y5335000D02*
X-2730000Y5335000D01*
X2670000Y8635000D02*
X-2730000Y8635000D01*
X2670000Y8635000D02*
X2670000Y5335000D01*
D10*
%TO.C,F1*%
X4908000Y13208000D02*
X2622000Y13208000D01*
X4908000Y9652000D02*
X2622000Y9652000D01*
D12*
%TO.C,JP1*%
X23003000Y6781000D02*
X23003000Y5381000D01*
X24303000Y7481000D02*
X23703000Y7481000D01*
X23703000Y4681000D02*
X24303000Y4681000D01*
X25003000Y5381000D02*
X25003000Y6781000D01*
X24303000Y4681000D02*
G75*
G03*
X25003000Y5381000I0J700000D01*
G01*
X23003000Y5381000D02*
G75*
G03*
X23703000Y4681000I700000J0D01*
G01*
X25003000Y6781000D02*
G75*
G03*
X24303000Y7481000I-699999J1D01*
G01*
X23703000Y7481000D02*
G75*
G03*
X23003000Y6781000I-1J-699999D01*
G01*
%TO.C,R4*%
X7216000Y-2164000D02*
X6454000Y-2164000D01*
D10*
X8359000Y-3688000D02*
X8359000Y-2164000D01*
X5311000Y-2164000D02*
X5311000Y-3688000D01*
D12*
X7216000Y-3688000D02*
X6454000Y-3688000D01*
%TD*%
M02*
