%TF.GenerationSoftware,KiCad,Pcbnew,6.0.10+dfsg-1~bpo11+1*%
%TF.CreationDate,2023-02-15T12:41:18+00:00*%
%TF.ProjectId,USB232R02,55534232-3332-4523-9032-2e6b69636164,rev?*%
%TF.SameCoordinates,PX7f790e8PY698c050*%
%TF.FileFunction,Copper,L1,Top*%
%TF.FilePolarity,Positive*%
%FSLAX46Y46*%
G04 Gerber Fmt 4.6, Leading zero omitted, Abs format (unit mm)*
G04 Created by KiCad (PCBNEW 6.0.10+dfsg-1~bpo11+1) date 2023-02-15 12:41:18*
%MOMM*%
%LPD*%
G01*
G04 APERTURE LIST*
%TA.AperFunction,ComponentPad*%
%ADD10R,1.700000X1.700000*%
%TD*%
%TA.AperFunction,ComponentPad*%
%ADD11C,1.700000*%
%TD*%
%TA.AperFunction,ComponentPad*%
%ADD12C,3.500000*%
%TD*%
%TA.AperFunction,ComponentPad*%
%ADD13R,1.524000X1.524000*%
%TD*%
%TA.AperFunction,ComponentPad*%
%ADD14C,6.000000*%
%TD*%
%TA.AperFunction,ViaPad*%
%ADD15C,0.800000*%
%TD*%
%TA.AperFunction,Conductor*%
%ADD16C,0.400000*%
%TD*%
%TA.AperFunction,Conductor*%
%ADD17C,0.250000*%
%TD*%
G04 APERTURE END LIST*
D10*
%TO.P,J1,1,VBUS*%
%TO.N,/VBUS*%
X10414000Y8763000D03*
D11*
%TO.P,J1,2,D-*%
%TO.N,/D-*%
X10414000Y11263000D03*
%TO.P,J1,3,D+*%
%TO.N,/D+*%
X8414000Y11263000D03*
%TO.P,J1,4,GND*%
%TO.N,GND*%
X8414000Y8763000D03*
D12*
%TO.P,J1,5,Shield*%
X5704000Y3993000D03*
X5704000Y16033000D03*
%TD*%
D13*
%TO.P,J17,1*%
%TO.N,GND*%
X29210000Y5080000D03*
%TO.P,J17,2*%
X31750000Y5080000D03*
%TD*%
%TO.P,J6,1*%
%TO.N,/RXD*%
X29210000Y12700000D03*
%TO.P,J6,2*%
X31750000Y12700000D03*
%TD*%
%TO.P,J5,1*%
%TO.N,/TXD*%
X29210000Y15240000D03*
%TO.P,J5,2*%
X31750000Y15240000D03*
%TD*%
%TO.P,J12,1*%
%TO.N,/#RI*%
X15240000Y19050000D03*
%TO.P,J12,2*%
X15240000Y21590000D03*
%TD*%
%TO.P,J3,1*%
%TO.N,GND*%
X20320000Y-1270000D03*
%TO.P,J3,2*%
X20320000Y1270000D03*
%TO.P,J3,3*%
%TO.N,+3V3*%
X22860000Y-1270000D03*
%TO.P,J3,4*%
X22860000Y1270000D03*
%TO.P,J3,5*%
%TO.N,GND*%
X25400000Y-1270000D03*
%TO.P,J3,6*%
X25400000Y1270000D03*
%TD*%
%TO.P,J14,1*%
%TO.N,/RXLED{slash}CBUS1*%
X10160000Y21590000D03*
%TD*%
%TO.P,J13,1*%
%TO.N,/CBUS0*%
X12700000Y21590000D03*
%TD*%
%TO.P,J8,1*%
%TO.N,/#CTS*%
X29210000Y10160000D03*
%TO.P,J8,2*%
X31750000Y10160000D03*
%TD*%
%TO.P,J15,1*%
%TO.N,/TXLED{slash}CBUS2*%
X10160000Y19050000D03*
%TD*%
%TO.P,J10,1*%
%TO.N,/#DSR*%
X17780000Y19050000D03*
%TO.P,J10,2*%
X17780000Y21590000D03*
%TD*%
%TO.P,J7,1*%
%TO.N,/#RTS*%
X29210000Y7620000D03*
%TO.P,J7,2*%
X31750000Y7620000D03*
%TD*%
%TO.P,J16,1*%
%TO.N,/CBUS3*%
X12700000Y19050000D03*
%TD*%
%TO.P,J4,1*%
%TO.N,/VCCIO*%
X25400000Y19050000D03*
%TO.P,J4,2*%
X25400000Y21590000D03*
%TD*%
%TO.P,J11,1*%
%TO.N,/#DCD*%
X20320000Y19050000D03*
%TO.P,J11,2*%
X20320000Y21590000D03*
%TD*%
%TO.P,J9,1*%
%TO.N,/#DTR*%
X22860000Y19050000D03*
%TO.P,J9,2*%
X22860000Y21590000D03*
%TD*%
%TO.P,J2,1*%
%TO.N,GND*%
X11430000Y-1270000D03*
%TO.P,J2,2*%
X11430000Y1270000D03*
%TO.P,J2,3*%
%TO.N,+5V*%
X13970000Y-1270000D03*
%TO.P,J2,4*%
X13970000Y1270000D03*
%TO.P,J2,5*%
%TO.N,GND*%
X16510000Y-1270000D03*
%TO.P,J2,6*%
X16510000Y1270000D03*
%TD*%
D14*
%TO.P,H3,1,1*%
%TO.N,GND*%
X0Y0D03*
%TD*%
%TO.P,H4,1,1*%
%TO.N,GND*%
X30480000Y0D03*
%TD*%
%TO.P,H1,1,1*%
%TO.N,GND*%
X30480000Y20320000D03*
%TD*%
%TO.P,H2,1,1*%
%TO.N,GND*%
X0Y20320000D03*
%TD*%
D15*
%TO.N,GND*%
X23749000Y13716000D03*
X26416000Y6604000D03*
X11557000Y16599000D03*
X13589000Y12192000D03*
X14605000Y4445000D03*
X15835000Y23974000D03*
X9144000Y6223000D03*
X27178000Y3048000D03*
X14635000Y23974000D03*
X22535000Y6574000D03*
X10287000Y6223000D03*
X26416000Y4191000D03*
X13970000Y5715000D03*
X13208000Y4699000D03*
X14351000Y16730010D03*
X18510092Y16288119D03*
X15240000Y5334000D03*
X9779000Y5080000D03*
X14605000Y6604000D03*
%TO.N,+5V*%
X9135000Y17274000D03*
X3937000Y6985000D03*
X13589000Y17399000D03*
%TO.N,+3V3*%
X24003000Y4318000D03*
X16133652Y13720653D03*
X16129000Y9144000D03*
%TO.N,/VCCIO*%
X24257000Y10205000D03*
%TO.N,/D-*%
X9335000Y15574000D03*
%TO.N,/RXD*%
X21341186Y8007223D03*
%TO.N,/#CTS*%
X26598966Y11256339D03*
X16986495Y9658497D03*
%TO.N,/#DTR*%
X24638000Y11655000D03*
%TO.N,/#DSR*%
X18868108Y7547892D03*
%TO.N,/#DCD*%
X18161000Y8255000D03*
%TO.N,/#RI*%
X20701000Y7239000D03*
%TO.N,/RXLED{slash}CBUS1*%
X20631821Y15216383D03*
%TO.N,/TXLED{slash}CBUS2*%
X4445000Y-3175000D03*
X12827000Y10922000D03*
X10160000Y16510000D03*
%TO.N,/CBUS3*%
X22987000Y12827000D03*
X17399000Y14859000D03*
%TO.N,Net-(R1-Pad2)*%
X23241000Y14732000D03*
X18460000Y14732000D03*
%TD*%
D16*
%TO.N,+5V*%
X3937000Y9176000D02*
X8535000Y13774000D01*
X9135000Y17274000D02*
X9260000Y17399000D01*
X8535000Y16074000D02*
X9135000Y16674000D01*
X10924000Y17399000D02*
X13589000Y17399000D01*
X9260000Y17399000D02*
X10924000Y17399000D01*
X8535000Y13774000D02*
X8535000Y16074000D01*
X3937000Y6985000D02*
X3937000Y9176000D01*
X9135000Y16674000D02*
X9135000Y17274000D01*
%TO.N,+3V3*%
X22860000Y2399000D02*
X22860000Y1270000D01*
X24003000Y4318000D02*
X24003000Y3542000D01*
X16133652Y13720653D02*
X16133652Y9148652D01*
X16133652Y9148652D02*
X16129000Y9144000D01*
X24003000Y3542000D02*
X22860000Y2399000D01*
D17*
%TO.N,/VCCIO*%
X25400000Y11343998D02*
X24261002Y10205000D01*
X24261002Y10205000D02*
X24257000Y10205000D01*
X25400000Y19050000D02*
X25400000Y11343998D01*
D16*
%TO.N,/D-*%
X9335000Y15574000D02*
X9335000Y12342000D01*
X9335000Y12342000D02*
X10414000Y11263000D01*
D17*
%TO.N,/RXD*%
X24638000Y8128000D02*
X24765000Y8255000D01*
X21341186Y8007223D02*
X24517223Y8007223D01*
X24765000Y8255000D02*
X29210000Y12700000D01*
X24517223Y8007223D02*
X24765000Y8255000D01*
%TO.N,/#CTS*%
X25756627Y10414000D02*
X25756627Y10389627D01*
X25756627Y10389627D02*
X24765000Y9398000D01*
X17386494Y9258498D02*
X24625498Y9258498D01*
X24625498Y9258498D02*
X24765000Y9398000D01*
X25756627Y10414000D02*
X26598966Y11256339D01*
X16986495Y9658497D02*
X17386494Y9258498D01*
%TO.N,/#DTR*%
X24638000Y11655000D02*
X24638000Y17272000D01*
X24638000Y17272000D02*
X22860000Y19050000D01*
%TO.N,/#DSR*%
X14953989Y8668011D02*
X14953989Y9879599D01*
X16510000Y16891000D02*
X16319500Y16700500D01*
X15430500Y7937500D02*
X14953989Y8414011D01*
X17780000Y19050000D02*
X16510000Y17780000D01*
X14953989Y8414011D02*
X14953989Y8668011D01*
X15838001Y7529999D02*
X15430500Y7937500D01*
X18850215Y7529999D02*
X15838001Y7529999D01*
X16319500Y16700500D02*
X14953989Y15334989D01*
X14953989Y9879599D02*
X14953989Y15334989D01*
X18868108Y7547892D02*
X18850215Y7529999D01*
X16510000Y17780000D02*
X16510000Y16891000D01*
%TO.N,/#DCD*%
X15403999Y15076001D02*
X17282498Y16954500D01*
X15403999Y8799999D02*
X15403999Y10065999D01*
X17282498Y16954500D02*
X18224500Y16954500D01*
X15403999Y10065999D02*
X15403999Y15076001D01*
X18161000Y8255000D02*
X15948998Y8255000D01*
X15948998Y8255000D02*
X15530999Y8672999D01*
X18224500Y16954500D02*
X20320000Y19050000D01*
X15530999Y8672999D02*
X15403999Y8799999D01*
%TO.N,/#RI*%
X16002000Y17907000D02*
X16002000Y17145000D01*
X14503979Y9693199D02*
X14503979Y8610021D01*
X20231992Y6769992D02*
X15961599Y6769991D01*
X14503979Y15646979D02*
X14503979Y9693199D01*
X14503979Y8227611D02*
X14503979Y8610021D01*
X15240000Y19050000D02*
X15240000Y18669000D01*
X20701000Y7239000D02*
X20231992Y6769992D01*
X14986000Y16129000D02*
X14503979Y15646979D01*
X16002000Y17145000D02*
X14986000Y16129000D01*
X15961599Y6769991D02*
X14503979Y8227611D01*
X15240000Y18669000D02*
X16002000Y17907000D01*
%TO.N,/RXLED{slash}CBUS1*%
X21590000Y19763636D02*
X21033636Y20320000D01*
X11430000Y20320000D02*
X11247010Y20502990D01*
X11247010Y20502990D02*
X10160000Y21590000D01*
X21033636Y20320000D02*
X11430000Y20320000D01*
X20631821Y15216383D02*
X20631821Y16821821D01*
X20631821Y16821821D02*
X21590000Y17780000D01*
X21590000Y17780000D02*
X21590000Y19763636D01*
%TO.N,/TXLED{slash}CBUS2*%
X10160000Y16510000D02*
X10160000Y14351000D01*
X9398000Y2667000D02*
X12827000Y6096000D01*
X9398000Y-1778000D02*
X9398000Y2667000D01*
X4445000Y-3175000D02*
X8001000Y-3175000D01*
X10160000Y14351000D02*
X10160000Y13589000D01*
X10160000Y13589000D02*
X12827000Y10922000D01*
X8001000Y-3175000D02*
X9398000Y-1778000D01*
X12827000Y6096000D02*
X12827000Y10922000D01*
%TO.N,/CBUS3*%
X17399000Y14859000D02*
X17399000Y14293315D01*
X17399000Y14293315D02*
X18865315Y12827000D01*
X18865315Y12827000D02*
X22987000Y12827000D01*
%TO.N,Net-(R1-Pad2)*%
X18859999Y14332001D02*
X22841001Y14332001D01*
X22841001Y14332001D02*
X23241000Y14732000D01*
X18460000Y14732000D02*
X18859999Y14332001D01*
%TD*%
%TA.AperFunction,Conductor*%
%TO.N,GND*%
G36*
X34764691Y24626593D02*
G01*
X34800655Y24577093D01*
X34805500Y24546500D01*
X34805500Y-4226500D01*
X34786593Y-4284691D01*
X34737093Y-4320655D01*
X34706500Y-4325500D01*
X-4226500Y-4325500D01*
X-4284691Y-4306593D01*
X-4320655Y-4257093D01*
X-4325500Y-4226500D01*
X-4325500Y0D01*
X4740539Y0D01*
X4740844Y-3875D01*
X4757558Y-216243D01*
X4760354Y-251775D01*
X4761260Y-255548D01*
X4817018Y-487794D01*
X4819312Y-497351D01*
X4915960Y-730680D01*
X5047919Y-946017D01*
X5211939Y-1138061D01*
X5403983Y-1302081D01*
X5619320Y-1434040D01*
X5852649Y-1530688D01*
X5856423Y-1531594D01*
X5856426Y-1531595D01*
X5987470Y-1563056D01*
X6098225Y-1589646D01*
X6102090Y-1589950D01*
X6102095Y-1589951D01*
X6234601Y-1600379D01*
X6286964Y-1604500D01*
X6413036Y-1604500D01*
X6465399Y-1600379D01*
X6597905Y-1589951D01*
X6597910Y-1589950D01*
X6601775Y-1589646D01*
X6712530Y-1563056D01*
X6843574Y-1531595D01*
X6843577Y-1531594D01*
X6847351Y-1530688D01*
X7080680Y-1434040D01*
X7296017Y-1302081D01*
X7488061Y-1138061D01*
X7652081Y-946017D01*
X7784040Y-730680D01*
X7880688Y-497351D01*
X7882983Y-487794D01*
X7938740Y-255548D01*
X7939646Y-251775D01*
X7942443Y-216243D01*
X7959156Y-3875D01*
X7959461Y0D01*
X7942924Y210127D01*
X7939951Y247905D01*
X7939950Y247910D01*
X7939646Y251775D01*
X7885293Y478169D01*
X7881595Y493574D01*
X7881594Y493577D01*
X7880688Y497351D01*
X7784040Y730680D01*
X7652081Y946017D01*
X7488061Y1138061D01*
X7296017Y1302081D01*
X7080680Y1434040D01*
X6847351Y1530688D01*
X6843577Y1531594D01*
X6843574Y1531595D01*
X6712530Y1563056D01*
X6601775Y1589646D01*
X6597910Y1589950D01*
X6597905Y1589951D01*
X6465399Y1600379D01*
X6413036Y1604500D01*
X6286964Y1604500D01*
X6234601Y1600379D01*
X6102095Y1589951D01*
X6102090Y1589950D01*
X6098225Y1589646D01*
X5987470Y1563056D01*
X5856426Y1531595D01*
X5856423Y1531594D01*
X5852649Y1530688D01*
X5619320Y1434040D01*
X5403983Y1302081D01*
X5211939Y1138061D01*
X5047919Y946017D01*
X4915960Y730680D01*
X4819312Y497351D01*
X4818406Y493577D01*
X4818405Y493574D01*
X4814707Y478169D01*
X4760354Y251775D01*
X4760050Y247910D01*
X4760049Y247905D01*
X4757076Y210127D01*
X4740539Y0D01*
X-4325500Y0D01*
X-4325500Y2373274D01*
X4449313Y2373274D01*
X4449767Y2370403D01*
X4451962Y2367649D01*
X4493637Y2332804D01*
X4499082Y2328848D01*
X4730157Y2183894D01*
X4736073Y2180721D01*
X4984684Y2068470D01*
X4990994Y2066123D01*
X5252529Y1988653D01*
X5259091Y1987187D01*
X5528726Y1945926D01*
X5535432Y1945363D01*
X5808175Y1941079D01*
X5814880Y1941430D01*
X6085685Y1974201D01*
X6092284Y1975460D01*
X6356143Y2044682D01*
X6362505Y2046823D01*
X6614512Y2151208D01*
X6620547Y2154203D01*
X6856051Y2291821D01*
X6861617Y2295604D01*
X6950487Y2365287D01*
X6957926Y2376358D01*
X6957850Y2378433D01*
X6955192Y2382598D01*
X5715086Y3622704D01*
X5703203Y3628758D01*
X5698172Y3627962D01*
X4455367Y2385157D01*
X4449313Y2373274D01*
X-4325500Y2373274D01*
X-4325500Y4011148D01*
X3649517Y4011148D01*
X3665219Y3738829D01*
X3666062Y3732161D01*
X3718576Y3464489D01*
X3720318Y3457990D01*
X3808670Y3199934D01*
X3811281Y3193723D01*
X3933843Y2950036D01*
X3937268Y2944245D01*
X4074523Y2744539D01*
X4085106Y2736417D01*
X4085502Y2736407D01*
X4092154Y2740364D01*
X5333704Y3981914D01*
X5338946Y3992203D01*
X6068242Y3992203D01*
X6069038Y3987172D01*
X7311500Y2744710D01*
X7323383Y2738656D01*
X7324605Y2738849D01*
X7329444Y2742959D01*
X7436925Y2889277D01*
X7440523Y2894946D01*
X7570680Y3134667D01*
X7573481Y3140785D01*
X7669901Y3395950D01*
X7671843Y3402384D01*
X7732739Y3668270D01*
X7733792Y3674920D01*
X7758168Y3948055D01*
X7758359Y3951899D01*
X7758770Y3991062D01*
X7758658Y3994936D01*
X7740008Y4268502D01*
X7739095Y4275171D01*
X7683780Y4542275D01*
X7681971Y4548753D01*
X7590918Y4805879D01*
X7588248Y4812050D01*
X7463145Y5054433D01*
X7459653Y5060199D01*
X7332779Y5240723D01*
X7322111Y5248732D01*
X7321433Y5248742D01*
X7315199Y5244989D01*
X6074296Y4004086D01*
X6068242Y3992203D01*
X5338946Y3992203D01*
X5339758Y3993797D01*
X5338962Y3998828D01*
X4095994Y5241796D01*
X4084111Y5247850D01*
X4083164Y5247700D01*
X4077996Y5243262D01*
X3959619Y5078525D01*
X3956070Y5072800D01*
X3828435Y4831740D01*
X3825695Y4825586D01*
X3731956Y4569431D01*
X3730082Y4562983D01*
X3671969Y4296454D01*
X3670989Y4289817D01*
X3649588Y4017881D01*
X3649517Y4011148D01*
X-4325500Y4011148D01*
X-4325500Y5609830D01*
X4449949Y5609830D01*
X4450060Y5607481D01*
X4452485Y5603725D01*
X5692914Y4363296D01*
X5704797Y4357242D01*
X5709828Y4358038D01*
X6952176Y5600386D01*
X6958230Y5612269D01*
X6957819Y5614867D01*
X6955313Y5617978D01*
X6896914Y5665778D01*
X6891419Y5669682D01*
X6658851Y5812200D01*
X6652894Y5815315D01*
X6403118Y5924959D01*
X6396791Y5927236D01*
X6134467Y6001962D01*
X6127868Y6003364D01*
X5857833Y6041796D01*
X5851117Y6042290D01*
X5578339Y6043717D01*
X5571645Y6043296D01*
X5301207Y6007692D01*
X5294594Y6006359D01*
X5031506Y5934386D01*
X5025140Y5932169D01*
X4774250Y5825156D01*
X4768247Y5822097D01*
X4534201Y5682023D01*
X4528668Y5678178D01*
X4457273Y5620980D01*
X4449949Y5609830D01*
X-4325500Y5609830D01*
X-4325500Y6991904D01*
X3277729Y6991904D01*
X3278384Y6985971D01*
X3278384Y6985967D01*
X3286051Y6916527D01*
X3295113Y6834447D01*
X3302464Y6814359D01*
X3347501Y6691287D01*
X3347503Y6691283D01*
X3349553Y6685681D01*
X3437908Y6554195D01*
X3442319Y6550181D01*
X3442321Y6550179D01*
X3550661Y6451598D01*
X3555076Y6447581D01*
X3590309Y6428451D01*
X3689047Y6374840D01*
X3689049Y6374839D01*
X3694293Y6371992D01*
X3700067Y6370477D01*
X3700070Y6370476D01*
X3841743Y6333309D01*
X3847522Y6331793D01*
X3853491Y6331699D01*
X3853493Y6331699D01*
X3911502Y6330788D01*
X4005916Y6329305D01*
X4016779Y6331793D01*
X4154509Y6363337D01*
X4154512Y6363338D01*
X4160332Y6364671D01*
X4174889Y6371992D01*
X4231614Y6400522D01*
X4301855Y6435849D01*
X4422314Y6538731D01*
X4514755Y6667376D01*
X4517626Y6674516D01*
X4571618Y6808826D01*
X4571619Y6808828D01*
X4573842Y6814359D01*
X4575807Y6828167D01*
X4595706Y6967986D01*
X4595706Y6967992D01*
X4596162Y6971193D01*
X4596307Y6985000D01*
X4577276Y7142267D01*
X4572645Y7154524D01*
X4523390Y7284870D01*
X4521280Y7290454D01*
X4508570Y7308947D01*
X4434933Y7416091D01*
X4434930Y7416094D01*
X4431553Y7421008D01*
X4424644Y7427164D01*
X4423609Y7428934D01*
X4423151Y7429454D01*
X4423253Y7429544D01*
X4393773Y7479988D01*
X4391500Y7501082D01*
X4391500Y7789160D01*
X7805199Y7789160D01*
X7805206Y7789115D01*
X7810729Y7782900D01*
X7859141Y7750552D01*
X7867091Y7746236D01*
X8052929Y7666394D01*
X8061540Y7663596D01*
X8258826Y7618956D01*
X8267785Y7617776D01*
X8469911Y7609834D01*
X8478938Y7610308D01*
X8679115Y7639332D01*
X8687914Y7641444D01*
X8879450Y7706462D01*
X8887714Y7710142D01*
X9064194Y7808974D01*
X9071646Y7814096D01*
X9160400Y7887912D01*
X9217230Y7910585D01*
X9276533Y7895524D01*
X9315657Y7848482D01*
X9320803Y7831111D01*
X9322364Y7823264D01*
X9324266Y7813699D01*
X9380516Y7729516D01*
X9464699Y7673266D01*
X9474262Y7671364D01*
X9474264Y7671363D01*
X9499247Y7666394D01*
X9538933Y7658500D01*
X10413819Y7658500D01*
X11289066Y7658501D01*
X11293832Y7659449D01*
X11293833Y7659449D01*
X11353738Y7671364D01*
X11363301Y7673266D01*
X11447484Y7729516D01*
X11503734Y7813699D01*
X11507198Y7831111D01*
X11511794Y7854219D01*
X11518500Y7887933D01*
X11518499Y9638066D01*
X11503734Y9712301D01*
X11447484Y9796484D01*
X11363301Y9852734D01*
X11353738Y9854636D01*
X11353736Y9854637D01*
X11322819Y9860786D01*
X11289067Y9867500D01*
X10414181Y9867500D01*
X9538934Y9867499D01*
X9534168Y9866551D01*
X9534167Y9866551D01*
X9487116Y9857193D01*
X9464699Y9852734D01*
X9380516Y9796484D01*
X9324266Y9712301D01*
X9322364Y9702738D01*
X9322364Y9702737D01*
X9321023Y9695997D01*
X9291126Y9642614D01*
X9235560Y9616998D01*
X9175551Y9628935D01*
X9156724Y9642614D01*
X9120405Y9676186D01*
X9113240Y9681685D01*
X8942163Y9789626D01*
X8934110Y9793729D01*
X8746229Y9868686D01*
X8737571Y9871251D01*
X8539177Y9910714D01*
X8530184Y9911659D01*
X8327924Y9914308D01*
X8318909Y9913598D01*
X8119559Y9879343D01*
X8110823Y9877002D01*
X7921050Y9806991D01*
X7912887Y9803098D01*
X7813646Y9744056D01*
X7805389Y9734641D01*
X7810085Y9726125D01*
X8703206Y8833004D01*
X8730983Y8778487D01*
X8721412Y8718055D01*
X8703206Y8692996D01*
X7811253Y7801043D01*
X7805199Y7789160D01*
X4391500Y7789160D01*
X4391500Y8788704D01*
X7259766Y8788704D01*
X7272995Y8586856D01*
X7274408Y8577935D01*
X7324200Y8381879D01*
X7327220Y8373351D01*
X7411903Y8189661D01*
X7416424Y8181830D01*
X7431058Y8161123D01*
X7441745Y8153143D01*
X7442494Y8153133D01*
X7448625Y8156835D01*
X8043704Y8751914D01*
X8049758Y8763797D01*
X8048962Y8768828D01*
X7449717Y9368073D01*
X7439360Y9373350D01*
X7431485Y9365577D01*
X7349098Y9208983D01*
X7345643Y9200642D01*
X7285658Y9007462D01*
X7283777Y8998612D01*
X7260002Y8797737D01*
X7259766Y8788704D01*
X4391500Y8788704D01*
X4391500Y8946732D01*
X4410407Y9004923D01*
X4420496Y9016736D01*
X7258498Y11854738D01*
X7313015Y11882515D01*
X7373447Y11872944D01*
X7416712Y11829679D01*
X7426283Y11769247D01*
X7416116Y11738638D01*
X7391906Y11692622D01*
X7389203Y11687485D01*
X7378962Y11654504D01*
X7352325Y11568717D01*
X7329007Y11493622D01*
X7328473Y11489112D01*
X7328473Y11489111D01*
X7306812Y11306092D01*
X7305148Y11292036D01*
X7309270Y11229148D01*
X7317020Y11110903D01*
X7318424Y11089478D01*
X7319540Y11085085D01*
X7319540Y11085083D01*
X7361779Y10918768D01*
X7368392Y10892731D01*
X7370294Y10888606D01*
X7370294Y10888605D01*
X7424305Y10771447D01*
X7453377Y10708384D01*
X7570533Y10542611D01*
X7715938Y10400965D01*
X7884720Y10288188D01*
X8071228Y10208058D01*
X8142499Y10191931D01*
X8264790Y10164259D01*
X8264795Y10164258D01*
X8269216Y10163258D01*
X8370634Y10159273D01*
X8467520Y10155466D01*
X8467521Y10155466D01*
X8472053Y10155288D01*
X8572499Y10169852D01*
X8668451Y10183764D01*
X8668455Y10183765D01*
X8672945Y10184416D01*
X8726740Y10202677D01*
X8860868Y10248207D01*
X8860871Y10248209D01*
X8865165Y10249666D01*
X8890768Y10264004D01*
X9038317Y10346636D01*
X9042276Y10348853D01*
X9198345Y10478655D01*
X9208775Y10491195D01*
X9282432Y10579758D01*
X9328147Y10634724D01*
X9330364Y10638684D01*
X9332936Y10642425D01*
X9334053Y10641657D01*
X9374790Y10679312D01*
X9435552Y10686502D01*
X9488935Y10656604D01*
X9497078Y10646549D01*
X9517447Y10617727D01*
X9567917Y10546313D01*
X9570533Y10542611D01*
X9715938Y10400965D01*
X9884720Y10288188D01*
X10071228Y10208058D01*
X10142499Y10191931D01*
X10264790Y10164259D01*
X10264795Y10164258D01*
X10269216Y10163258D01*
X10370634Y10159273D01*
X10467520Y10155466D01*
X10467521Y10155466D01*
X10472053Y10155288D01*
X10572499Y10169852D01*
X10668451Y10183764D01*
X10668455Y10183765D01*
X10672945Y10184416D01*
X10726740Y10202677D01*
X10860868Y10248207D01*
X10860871Y10248209D01*
X10865165Y10249666D01*
X10890768Y10264004D01*
X11038317Y10346636D01*
X11042276Y10348853D01*
X11198345Y10478655D01*
X11208775Y10491195D01*
X11282432Y10579758D01*
X11328147Y10634724D01*
X11427334Y10811835D01*
X11431110Y10822957D01*
X11491125Y10999757D01*
X11492584Y11004055D01*
X11493610Y11011125D01*
X11521292Y11202048D01*
X11521292Y11202054D01*
X11521712Y11204947D01*
X11522282Y11226686D01*
X11523156Y11260087D01*
X11523156Y11260092D01*
X11523232Y11263000D01*
X11522966Y11265892D01*
X11522966Y11265901D01*
X11505179Y11459476D01*
X11518683Y11519152D01*
X11564685Y11559494D01*
X11625613Y11565093D01*
X11673768Y11538538D01*
X12146664Y11065642D01*
X12174441Y11011125D01*
X12174813Y10982717D01*
X12170867Y10952743D01*
X12167729Y10928904D01*
X12168384Y10922971D01*
X12168384Y10922967D01*
X12175433Y10859122D01*
X12185113Y10771447D01*
X12191849Y10753039D01*
X12237501Y10628287D01*
X12237503Y10628283D01*
X12239553Y10622681D01*
X12327908Y10491195D01*
X12332319Y10487181D01*
X12332321Y10487179D01*
X12415128Y10411831D01*
X12445443Y10358683D01*
X12447500Y10338607D01*
X12447500Y6294202D01*
X12428593Y6236011D01*
X12418504Y6224198D01*
X9165746Y2971440D01*
X9149445Y2958277D01*
X9139060Y2951571D01*
X9133996Y2945147D01*
X9117288Y2923953D01*
X9111852Y2917835D01*
X9110249Y2915943D01*
X9107362Y2913056D01*
X9104987Y2909732D01*
X9095773Y2896839D01*
X9092973Y2893109D01*
X9060844Y2852353D01*
X9058317Y2845156D01*
X9056927Y2842481D01*
X9052486Y2836266D01*
X9050142Y2828428D01*
X9037615Y2786541D01*
X9036174Y2782106D01*
X9021209Y2739490D01*
X9018982Y2733149D01*
X9018500Y2727584D01*
X9018500Y2725441D01*
X9018452Y2724327D01*
X9018232Y2721726D01*
X9016287Y2715222D01*
X9016608Y2707046D01*
X9016608Y2707044D01*
X9018424Y2660830D01*
X9018500Y2656943D01*
X9018500Y-1579798D01*
X8999593Y-1637989D01*
X8989504Y-1649802D01*
X7872802Y-2766504D01*
X7818285Y-2794281D01*
X7802798Y-2795500D01*
X5030476Y-2795500D01*
X4972285Y-2776593D01*
X4948892Y-2752580D01*
X4939553Y-2738992D01*
X4821275Y-2633611D01*
X4816004Y-2630820D01*
X4686548Y-2562276D01*
X4686545Y-2562275D01*
X4681274Y-2559484D01*
X4604453Y-2540188D01*
X4533423Y-2522346D01*
X4533420Y-2522346D01*
X4527633Y-2520892D01*
X4447693Y-2520473D01*
X4375187Y-2520093D01*
X4375185Y-2520093D01*
X4369221Y-2520062D01*
X4215184Y-2557043D01*
X4142024Y-2594804D01*
X4079720Y-2626961D01*
X4079718Y-2626963D01*
X4074414Y-2629700D01*
X3955039Y-2733838D01*
X3863950Y-2863444D01*
X3806406Y-3011037D01*
X3785729Y-3168096D01*
X3803113Y-3325553D01*
X3805165Y-3331160D01*
X3855501Y-3468713D01*
X3855503Y-3468717D01*
X3857553Y-3474319D01*
X3945908Y-3605805D01*
X3950319Y-3609819D01*
X3950321Y-3609821D01*
X4058661Y-3708402D01*
X4063076Y-3712419D01*
X4077536Y-3720270D01*
X4197047Y-3785160D01*
X4197049Y-3785161D01*
X4202293Y-3788008D01*
X4208067Y-3789523D01*
X4208070Y-3789524D01*
X4349743Y-3826691D01*
X4355522Y-3828207D01*
X4361491Y-3828301D01*
X4361493Y-3828301D01*
X4419502Y-3829212D01*
X4513916Y-3830695D01*
X4524779Y-3828207D01*
X4662509Y-3796663D01*
X4662512Y-3796662D01*
X4668332Y-3795329D01*
X4682889Y-3788008D01*
X4804518Y-3726835D01*
X4809855Y-3724151D01*
X4887972Y-3657432D01*
X4925774Y-3625147D01*
X4925776Y-3625145D01*
X4930314Y-3621269D01*
X4948666Y-3595730D01*
X4997974Y-3559507D01*
X5029061Y-3554500D01*
X7949953Y-3554500D01*
X7970791Y-3556718D01*
X7974876Y-3557598D01*
X7974879Y-3557598D01*
X7982876Y-3559320D01*
X8017804Y-3555186D01*
X8025969Y-3554705D01*
X8028446Y-3554500D01*
X8032524Y-3554500D01*
X8044597Y-3552490D01*
X8052182Y-3551228D01*
X8056801Y-3550570D01*
X8085398Y-3547185D01*
X8108341Y-3544470D01*
X8115223Y-3541165D01*
X8118092Y-3540258D01*
X8125626Y-3539004D01*
X8171304Y-3514358D01*
X8175454Y-3512243D01*
X8216615Y-3492478D01*
X8222232Y-3489781D01*
X8226508Y-3486186D01*
X8228009Y-3484685D01*
X8228854Y-3483910D01*
X8230842Y-3482232D01*
X8236814Y-3479010D01*
X8273747Y-3439056D01*
X8276440Y-3436254D01*
X9630254Y-2082440D01*
X9641153Y-2073639D01*
X10368000Y-2073639D01*
X10368346Y-2079485D01*
X10370234Y-2095353D01*
X10374128Y-2109519D01*
X10412770Y-2196514D01*
X10422946Y-2211321D01*
X10489108Y-2277367D01*
X10503931Y-2287517D01*
X10590980Y-2326000D01*
X10605185Y-2329873D01*
X10620580Y-2331668D01*
X10626292Y-2332000D01*
X11160320Y-2332000D01*
X11173005Y-2327878D01*
X11176000Y-2323757D01*
X11176000Y-2316320D01*
X11684000Y-2316320D01*
X11688122Y-2329005D01*
X11692243Y-2332000D01*
X12233639Y-2332000D01*
X12239485Y-2331654D01*
X12255353Y-2329766D01*
X12269519Y-2325872D01*
X12356514Y-2287230D01*
X12371321Y-2277054D01*
X12437367Y-2210892D01*
X12447517Y-2196069D01*
X12486000Y-2109020D01*
X12489873Y-2094815D01*
X12491668Y-2079420D01*
X12492000Y-2073708D01*
X12492000Y-1539680D01*
X12487878Y-1526995D01*
X12483757Y-1524000D01*
X11699680Y-1524000D01*
X11686995Y-1528122D01*
X11684000Y-1532243D01*
X11684000Y-2316320D01*
X11176000Y-2316320D01*
X11176000Y-1539680D01*
X11171878Y-1526995D01*
X11167757Y-1524000D01*
X10383680Y-1524000D01*
X10370995Y-1528122D01*
X10368000Y-1532243D01*
X10368000Y-2073639D01*
X9641153Y-2073639D01*
X9646555Y-2069277D01*
X9656940Y-2062571D01*
X9678712Y-2034953D01*
X9684160Y-2028822D01*
X9685757Y-2026937D01*
X9688638Y-2024056D01*
X9691010Y-2020737D01*
X9700242Y-2007819D01*
X9703041Y-2004092D01*
X9730088Y-1969782D01*
X9735156Y-1963353D01*
X9737685Y-1956152D01*
X9739074Y-1953478D01*
X9743513Y-1947266D01*
X9758383Y-1897547D01*
X9759824Y-1893113D01*
X9774955Y-1850025D01*
X9774956Y-1850021D01*
X9777018Y-1844149D01*
X9777500Y-1838584D01*
X9777500Y-1836441D01*
X9777548Y-1835327D01*
X9777768Y-1832726D01*
X9779713Y-1826222D01*
X9777576Y-1771830D01*
X9777500Y-1767943D01*
X9777500Y-1000320D01*
X10368000Y-1000320D01*
X10372122Y-1013005D01*
X10376243Y-1016000D01*
X11160320Y-1016000D01*
X11173005Y-1011878D01*
X11176000Y-1007757D01*
X11176000Y-1000320D01*
X11684000Y-1000320D01*
X11688122Y-1013005D01*
X11692243Y-1016000D01*
X12476320Y-1016000D01*
X12489005Y-1011878D01*
X12492000Y-1007757D01*
X12492000Y-482933D01*
X12953500Y-482933D01*
X12953501Y-2057066D01*
X12968266Y-2131301D01*
X13024516Y-2215484D01*
X13108699Y-2271734D01*
X13118262Y-2273636D01*
X13118264Y-2273637D01*
X13149181Y-2279786D01*
X13182933Y-2286500D01*
X13969838Y-2286500D01*
X14757066Y-2286499D01*
X14761832Y-2285551D01*
X14761833Y-2285551D01*
X14821738Y-2273636D01*
X14831301Y-2271734D01*
X14915484Y-2215484D01*
X14971734Y-2131301D01*
X14978885Y-2095353D01*
X14983190Y-2073708D01*
X14983204Y-2073639D01*
X15448000Y-2073639D01*
X15448346Y-2079485D01*
X15450234Y-2095353D01*
X15454128Y-2109519D01*
X15492770Y-2196514D01*
X15502946Y-2211321D01*
X15569108Y-2277367D01*
X15583931Y-2287517D01*
X15670980Y-2326000D01*
X15685185Y-2329873D01*
X15700580Y-2331668D01*
X15706292Y-2332000D01*
X16240320Y-2332000D01*
X16253005Y-2327878D01*
X16256000Y-2323757D01*
X16256000Y-2316320D01*
X16764000Y-2316320D01*
X16768122Y-2329005D01*
X16772243Y-2332000D01*
X17313639Y-2332000D01*
X17319485Y-2331654D01*
X17335353Y-2329766D01*
X17349519Y-2325872D01*
X17436514Y-2287230D01*
X17451321Y-2277054D01*
X17517367Y-2210892D01*
X17527517Y-2196069D01*
X17566000Y-2109020D01*
X17569873Y-2094815D01*
X17571668Y-2079420D01*
X17572000Y-2073708D01*
X17572000Y-2073639D01*
X19258000Y-2073639D01*
X19258346Y-2079485D01*
X19260234Y-2095353D01*
X19264128Y-2109519D01*
X19302770Y-2196514D01*
X19312946Y-2211321D01*
X19379108Y-2277367D01*
X19393931Y-2287517D01*
X19480980Y-2326000D01*
X19495185Y-2329873D01*
X19510580Y-2331668D01*
X19516292Y-2332000D01*
X20050320Y-2332000D01*
X20063005Y-2327878D01*
X20066000Y-2323757D01*
X20066000Y-2316320D01*
X20574000Y-2316320D01*
X20578122Y-2329005D01*
X20582243Y-2332000D01*
X21123639Y-2332000D01*
X21129485Y-2331654D01*
X21145353Y-2329766D01*
X21159519Y-2325872D01*
X21246514Y-2287230D01*
X21261321Y-2277054D01*
X21327367Y-2210892D01*
X21337517Y-2196069D01*
X21376000Y-2109020D01*
X21379873Y-2094815D01*
X21381668Y-2079420D01*
X21382000Y-2073708D01*
X21382000Y-1539680D01*
X21377878Y-1526995D01*
X21373757Y-1524000D01*
X20589680Y-1524000D01*
X20576995Y-1528122D01*
X20574000Y-1532243D01*
X20574000Y-2316320D01*
X20066000Y-2316320D01*
X20066000Y-1539680D01*
X20061878Y-1526995D01*
X20057757Y-1524000D01*
X19273680Y-1524000D01*
X19260995Y-1528122D01*
X19258000Y-1532243D01*
X19258000Y-2073639D01*
X17572000Y-2073639D01*
X17572000Y-1539680D01*
X17567878Y-1526995D01*
X17563757Y-1524000D01*
X16779680Y-1524000D01*
X16766995Y-1528122D01*
X16764000Y-1532243D01*
X16764000Y-2316320D01*
X16256000Y-2316320D01*
X16256000Y-1539680D01*
X16251878Y-1526995D01*
X16247757Y-1524000D01*
X15463680Y-1524000D01*
X15450995Y-1528122D01*
X15448000Y-1532243D01*
X15448000Y-2073639D01*
X14983204Y-2073639D01*
X14986500Y-2057067D01*
X14986499Y-1000320D01*
X15448000Y-1000320D01*
X15452122Y-1013005D01*
X15456243Y-1016000D01*
X16240320Y-1016000D01*
X16253005Y-1011878D01*
X16256000Y-1007757D01*
X16256000Y-1000320D01*
X16764000Y-1000320D01*
X16768122Y-1013005D01*
X16772243Y-1016000D01*
X17556320Y-1016000D01*
X17569005Y-1011878D01*
X17572000Y-1007757D01*
X17572000Y-1000320D01*
X19258000Y-1000320D01*
X19262122Y-1013005D01*
X19266243Y-1016000D01*
X20050320Y-1016000D01*
X20063005Y-1011878D01*
X20066000Y-1007757D01*
X20066000Y-1000320D01*
X20574000Y-1000320D01*
X20578122Y-1013005D01*
X20582243Y-1016000D01*
X21366320Y-1016000D01*
X21379005Y-1011878D01*
X21382000Y-1007757D01*
X21382000Y-482933D01*
X21843500Y-482933D01*
X21843501Y-2057066D01*
X21858266Y-2131301D01*
X21914516Y-2215484D01*
X21998699Y-2271734D01*
X22008262Y-2273636D01*
X22008264Y-2273637D01*
X22039181Y-2279786D01*
X22072933Y-2286500D01*
X22859838Y-2286500D01*
X23647066Y-2286499D01*
X23651832Y-2285551D01*
X23651833Y-2285551D01*
X23711738Y-2273636D01*
X23721301Y-2271734D01*
X23805484Y-2215484D01*
X23861734Y-2131301D01*
X23868885Y-2095353D01*
X23873190Y-2073708D01*
X23873204Y-2073639D01*
X24338000Y-2073639D01*
X24338346Y-2079485D01*
X24340234Y-2095353D01*
X24344128Y-2109519D01*
X24382770Y-2196514D01*
X24392946Y-2211321D01*
X24459108Y-2277367D01*
X24473931Y-2287517D01*
X24560980Y-2326000D01*
X24575185Y-2329873D01*
X24590580Y-2331668D01*
X24596292Y-2332000D01*
X25130320Y-2332000D01*
X25143005Y-2327878D01*
X25146000Y-2323757D01*
X25146000Y-2316320D01*
X25654000Y-2316320D01*
X25658122Y-2329005D01*
X25662243Y-2332000D01*
X26203639Y-2332000D01*
X26209485Y-2331654D01*
X26225353Y-2329766D01*
X26239519Y-2325872D01*
X26326514Y-2287230D01*
X26341321Y-2277054D01*
X26407367Y-2210892D01*
X26417517Y-2196069D01*
X26456000Y-2109020D01*
X26459873Y-2094815D01*
X26461668Y-2079420D01*
X26462000Y-2073708D01*
X26462000Y-1539680D01*
X26457878Y-1526995D01*
X26453757Y-1524000D01*
X25669680Y-1524000D01*
X25656995Y-1528122D01*
X25654000Y-1532243D01*
X25654000Y-2316320D01*
X25146000Y-2316320D01*
X25146000Y-1539680D01*
X25141878Y-1526995D01*
X25137757Y-1524000D01*
X24353680Y-1524000D01*
X24340995Y-1528122D01*
X24338000Y-1532243D01*
X24338000Y-2073639D01*
X23873204Y-2073639D01*
X23876500Y-2057067D01*
X23876499Y-1000320D01*
X24338000Y-1000320D01*
X24342122Y-1013005D01*
X24346243Y-1016000D01*
X25130320Y-1016000D01*
X25143005Y-1011878D01*
X25146000Y-1007757D01*
X25146000Y-1000320D01*
X25654000Y-1000320D01*
X25658122Y-1013005D01*
X25662243Y-1016000D01*
X26446320Y-1016000D01*
X26459005Y-1011878D01*
X26462000Y-1007757D01*
X26462000Y-466361D01*
X26461654Y-460515D01*
X26459766Y-444647D01*
X26455872Y-430481D01*
X26417230Y-343486D01*
X26407054Y-328679D01*
X26340891Y-262632D01*
X26326069Y-252483D01*
X26239020Y-214000D01*
X26224815Y-210127D01*
X26209420Y-208332D01*
X26203708Y-208000D01*
X25669680Y-208000D01*
X25656995Y-212122D01*
X25654000Y-216243D01*
X25654000Y-1000320D01*
X25146000Y-1000320D01*
X25146000Y-223680D01*
X25141878Y-210995D01*
X25137757Y-208000D01*
X24596361Y-208000D01*
X24590515Y-208346D01*
X24574647Y-210234D01*
X24560481Y-214128D01*
X24473486Y-252770D01*
X24458679Y-262946D01*
X24392633Y-329108D01*
X24382483Y-343931D01*
X24344000Y-430980D01*
X24340127Y-445185D01*
X24338332Y-460580D01*
X24338000Y-466292D01*
X24338000Y-1000320D01*
X23876499Y-1000320D01*
X23876499Y-482934D01*
X23861734Y-408699D01*
X23805484Y-324516D01*
X23721301Y-268266D01*
X23711738Y-266364D01*
X23711736Y-266363D01*
X23680819Y-260214D01*
X23647067Y-253500D01*
X22860163Y-253500D01*
X22072934Y-253501D01*
X22068168Y-254449D01*
X22068167Y-254449D01*
X22062642Y-255548D01*
X21998699Y-268266D01*
X21914516Y-324516D01*
X21858266Y-408699D01*
X21856364Y-418262D01*
X21856363Y-418264D01*
X21850214Y-449181D01*
X21843500Y-482933D01*
X21382000Y-482933D01*
X21382000Y-466361D01*
X21381654Y-460515D01*
X21379766Y-444647D01*
X21375872Y-430481D01*
X21337230Y-343486D01*
X21327054Y-328679D01*
X21260891Y-262632D01*
X21246069Y-252483D01*
X21159020Y-214000D01*
X21144815Y-210127D01*
X21129420Y-208332D01*
X21123708Y-208000D01*
X20589680Y-208000D01*
X20576995Y-212122D01*
X20574000Y-216243D01*
X20574000Y-1000320D01*
X20066000Y-1000320D01*
X20066000Y-223680D01*
X20061878Y-210995D01*
X20057757Y-208000D01*
X19516361Y-208000D01*
X19510515Y-208346D01*
X19494647Y-210234D01*
X19480481Y-214128D01*
X19393486Y-252770D01*
X19378679Y-262946D01*
X19312633Y-329108D01*
X19302483Y-343931D01*
X19264000Y-430980D01*
X19260127Y-445185D01*
X19258332Y-460580D01*
X19258000Y-466292D01*
X19258000Y-1000320D01*
X17572000Y-1000320D01*
X17572000Y-466361D01*
X17571654Y-460515D01*
X17569766Y-444647D01*
X17565872Y-430481D01*
X17527230Y-343486D01*
X17517054Y-328679D01*
X17450891Y-262632D01*
X17436069Y-252483D01*
X17349020Y-214000D01*
X17334815Y-210127D01*
X17319420Y-208332D01*
X17313708Y-208000D01*
X16779680Y-208000D01*
X16766995Y-212122D01*
X16764000Y-216243D01*
X16764000Y-1000320D01*
X16256000Y-1000320D01*
X16256000Y-223680D01*
X16251878Y-210995D01*
X16247757Y-208000D01*
X15706361Y-208000D01*
X15700515Y-208346D01*
X15684647Y-210234D01*
X15670481Y-214128D01*
X15583486Y-252770D01*
X15568679Y-262946D01*
X15502633Y-329108D01*
X15492483Y-343931D01*
X15454000Y-430980D01*
X15450127Y-445185D01*
X15448332Y-460580D01*
X15448000Y-466292D01*
X15448000Y-1000320D01*
X14986499Y-1000320D01*
X14986499Y-482934D01*
X14971734Y-408699D01*
X14915484Y-324516D01*
X14831301Y-268266D01*
X14821738Y-266364D01*
X14821736Y-266363D01*
X14790819Y-260214D01*
X14757067Y-253500D01*
X13970163Y-253500D01*
X13182934Y-253501D01*
X13178168Y-254449D01*
X13178167Y-254449D01*
X13172642Y-255548D01*
X13108699Y-268266D01*
X13024516Y-324516D01*
X12968266Y-408699D01*
X12966364Y-418262D01*
X12966363Y-418264D01*
X12960214Y-449181D01*
X12953500Y-482933D01*
X12492000Y-482933D01*
X12492000Y-466361D01*
X12491654Y-460515D01*
X12489766Y-444647D01*
X12485872Y-430481D01*
X12447230Y-343486D01*
X12437054Y-328679D01*
X12370891Y-262632D01*
X12356069Y-252483D01*
X12269020Y-214000D01*
X12254815Y-210127D01*
X12239420Y-208332D01*
X12233708Y-208000D01*
X11699680Y-208000D01*
X11686995Y-212122D01*
X11684000Y-216243D01*
X11684000Y-1000320D01*
X11176000Y-1000320D01*
X11176000Y-223680D01*
X11171878Y-210995D01*
X11167757Y-208000D01*
X10626361Y-208000D01*
X10620515Y-208346D01*
X10604647Y-210234D01*
X10590481Y-214128D01*
X10503486Y-252770D01*
X10488679Y-262946D01*
X10422633Y-329108D01*
X10412483Y-343931D01*
X10374000Y-430980D01*
X10370127Y-445185D01*
X10368332Y-460580D01*
X10368000Y-466292D01*
X10368000Y-1000320D01*
X9777500Y-1000320D01*
X9777500Y466361D01*
X10368000Y466361D01*
X10368346Y460515D01*
X10370234Y444647D01*
X10374128Y430481D01*
X10412770Y343486D01*
X10422946Y328679D01*
X10489108Y262633D01*
X10503931Y252483D01*
X10590980Y214000D01*
X10605185Y210127D01*
X10620580Y208332D01*
X10626292Y208000D01*
X11160320Y208000D01*
X11173005Y212122D01*
X11176000Y216243D01*
X11176000Y223680D01*
X11684000Y223680D01*
X11688122Y210995D01*
X11692243Y208000D01*
X12233639Y208000D01*
X12239485Y208346D01*
X12255353Y210234D01*
X12269519Y214128D01*
X12356514Y252770D01*
X12371321Y262946D01*
X12437367Y329108D01*
X12447517Y343931D01*
X12486000Y430980D01*
X12489873Y445185D01*
X12491668Y460580D01*
X12492000Y466292D01*
X12492000Y1000320D01*
X12487878Y1013005D01*
X12483757Y1016000D01*
X11699680Y1016000D01*
X11686995Y1011878D01*
X11684000Y1007757D01*
X11684000Y223680D01*
X11176000Y223680D01*
X11176000Y1000320D01*
X11171878Y1013005D01*
X11167757Y1016000D01*
X10383680Y1016000D01*
X10370995Y1011878D01*
X10368000Y1007757D01*
X10368000Y466361D01*
X9777500Y466361D01*
X9777500Y1539680D01*
X10368000Y1539680D01*
X10372122Y1526995D01*
X10376243Y1524000D01*
X11160320Y1524000D01*
X11173005Y1528122D01*
X11176000Y1532243D01*
X11176000Y1539680D01*
X11684000Y1539680D01*
X11688122Y1526995D01*
X11692243Y1524000D01*
X12476320Y1524000D01*
X12489005Y1528122D01*
X12492000Y1532243D01*
X12492000Y2057067D01*
X12953500Y2057067D01*
X12953501Y482934D01*
X12968266Y408699D01*
X13024516Y324516D01*
X13108699Y268266D01*
X13118262Y266364D01*
X13118264Y266363D01*
X13149181Y260214D01*
X13182933Y253500D01*
X13969838Y253500D01*
X14757066Y253501D01*
X14761832Y254449D01*
X14761833Y254449D01*
X14821738Y266364D01*
X14831301Y268266D01*
X14915484Y324516D01*
X14971734Y408699D01*
X14978885Y444647D01*
X14983190Y466292D01*
X14983204Y466361D01*
X15448000Y466361D01*
X15448346Y460515D01*
X15450234Y444647D01*
X15454128Y430481D01*
X15492770Y343486D01*
X15502946Y328679D01*
X15569108Y262633D01*
X15583931Y252483D01*
X15670980Y214000D01*
X15685185Y210127D01*
X15700580Y208332D01*
X15706292Y208000D01*
X16240320Y208000D01*
X16253005Y212122D01*
X16256000Y216243D01*
X16256000Y223680D01*
X16764000Y223680D01*
X16768122Y210995D01*
X16772243Y208000D01*
X17313639Y208000D01*
X17319485Y208346D01*
X17335353Y210234D01*
X17349519Y214128D01*
X17436514Y252770D01*
X17451321Y262946D01*
X17517367Y329108D01*
X17527517Y343931D01*
X17566000Y430980D01*
X17569873Y445185D01*
X17571668Y460580D01*
X17572000Y466292D01*
X17572000Y466361D01*
X19258000Y466361D01*
X19258346Y460515D01*
X19260234Y444647D01*
X19264128Y430481D01*
X19302770Y343486D01*
X19312946Y328679D01*
X19379108Y262633D01*
X19393931Y252483D01*
X19480980Y214000D01*
X19495185Y210127D01*
X19510580Y208332D01*
X19516292Y208000D01*
X20050320Y208000D01*
X20063005Y212122D01*
X20066000Y216243D01*
X20066000Y223680D01*
X20574000Y223680D01*
X20578122Y210995D01*
X20582243Y208000D01*
X21123639Y208000D01*
X21129485Y208346D01*
X21145353Y210234D01*
X21159519Y214128D01*
X21246514Y252770D01*
X21261321Y262946D01*
X21327367Y329108D01*
X21337517Y343931D01*
X21376000Y430980D01*
X21379873Y445185D01*
X21381668Y460580D01*
X21382000Y466292D01*
X21382000Y1000320D01*
X21377878Y1013005D01*
X21373757Y1016000D01*
X20589680Y1016000D01*
X20576995Y1011878D01*
X20574000Y1007757D01*
X20574000Y223680D01*
X20066000Y223680D01*
X20066000Y1000320D01*
X20061878Y1013005D01*
X20057757Y1016000D01*
X19273680Y1016000D01*
X19260995Y1011878D01*
X19258000Y1007757D01*
X19258000Y466361D01*
X17572000Y466361D01*
X17572000Y1000320D01*
X17567878Y1013005D01*
X17563757Y1016000D01*
X16779680Y1016000D01*
X16766995Y1011878D01*
X16764000Y1007757D01*
X16764000Y223680D01*
X16256000Y223680D01*
X16256000Y1000320D01*
X16251878Y1013005D01*
X16247757Y1016000D01*
X15463680Y1016000D01*
X15450995Y1011878D01*
X15448000Y1007757D01*
X15448000Y466361D01*
X14983204Y466361D01*
X14986500Y482933D01*
X14986499Y1539680D01*
X15448000Y1539680D01*
X15452122Y1526995D01*
X15456243Y1524000D01*
X16240320Y1524000D01*
X16253005Y1528122D01*
X16256000Y1532243D01*
X16256000Y1539680D01*
X16764000Y1539680D01*
X16768122Y1526995D01*
X16772243Y1524000D01*
X17556320Y1524000D01*
X17569005Y1528122D01*
X17572000Y1532243D01*
X17572000Y1539680D01*
X19258000Y1539680D01*
X19262122Y1526995D01*
X19266243Y1524000D01*
X20050320Y1524000D01*
X20063005Y1528122D01*
X20066000Y1532243D01*
X20066000Y1539680D01*
X20574000Y1539680D01*
X20578122Y1526995D01*
X20582243Y1524000D01*
X21366320Y1524000D01*
X21379005Y1528122D01*
X21382000Y1532243D01*
X21382000Y2057067D01*
X21843500Y2057067D01*
X21843501Y482934D01*
X21858266Y408699D01*
X21914516Y324516D01*
X21998699Y268266D01*
X22008262Y266364D01*
X22008264Y266363D01*
X22039181Y260214D01*
X22072933Y253500D01*
X22859838Y253500D01*
X23647066Y253501D01*
X23651832Y254449D01*
X23651833Y254449D01*
X23711738Y266364D01*
X23721301Y268266D01*
X23805484Y324516D01*
X23861734Y408699D01*
X23868885Y444647D01*
X23873190Y466292D01*
X23873204Y466361D01*
X24338000Y466361D01*
X24338346Y460515D01*
X24340234Y444647D01*
X24344128Y430481D01*
X24382770Y343486D01*
X24392946Y328679D01*
X24459108Y262633D01*
X24473931Y252483D01*
X24560980Y214000D01*
X24575185Y210127D01*
X24590580Y208332D01*
X24596292Y208000D01*
X25130320Y208000D01*
X25143005Y212122D01*
X25146000Y216243D01*
X25146000Y223680D01*
X25654000Y223680D01*
X25658122Y210995D01*
X25662243Y208000D01*
X26203639Y208000D01*
X26209485Y208346D01*
X26225353Y210234D01*
X26239519Y214128D01*
X26326514Y252770D01*
X26341321Y262946D01*
X26407367Y329108D01*
X26417517Y343931D01*
X26456000Y430980D01*
X26459873Y445185D01*
X26461668Y460580D01*
X26462000Y466292D01*
X26462000Y1000320D01*
X26457878Y1013005D01*
X26453757Y1016000D01*
X25669680Y1016000D01*
X25656995Y1011878D01*
X25654000Y1007757D01*
X25654000Y223680D01*
X25146000Y223680D01*
X25146000Y1000320D01*
X25141878Y1013005D01*
X25137757Y1016000D01*
X24353680Y1016000D01*
X24340995Y1011878D01*
X24338000Y1007757D01*
X24338000Y466361D01*
X23873204Y466361D01*
X23876500Y482933D01*
X23876499Y1539680D01*
X24338000Y1539680D01*
X24342122Y1526995D01*
X24346243Y1524000D01*
X25130320Y1524000D01*
X25143005Y1528122D01*
X25146000Y1532243D01*
X25146000Y1539680D01*
X25654000Y1539680D01*
X25658122Y1526995D01*
X25662243Y1524000D01*
X26446320Y1524000D01*
X26459005Y1528122D01*
X26462000Y1532243D01*
X26462000Y2073639D01*
X26461654Y2079485D01*
X26459766Y2095353D01*
X26455872Y2109519D01*
X26417230Y2196514D01*
X26407054Y2211321D01*
X26340891Y2277368D01*
X26326069Y2287517D01*
X26239020Y2326000D01*
X26224815Y2329873D01*
X26209420Y2331668D01*
X26203708Y2332000D01*
X25669680Y2332000D01*
X25656995Y2327878D01*
X25654000Y2323757D01*
X25654000Y1539680D01*
X25146000Y1539680D01*
X25146000Y2316320D01*
X25141878Y2329005D01*
X25137757Y2332000D01*
X24596361Y2332000D01*
X24590515Y2331654D01*
X24574647Y2329766D01*
X24560481Y2325872D01*
X24473486Y2287230D01*
X24458679Y2277054D01*
X24392633Y2210892D01*
X24382483Y2196069D01*
X24344000Y2109020D01*
X24340127Y2094815D01*
X24338332Y2079420D01*
X24338000Y2073708D01*
X24338000Y1539680D01*
X23876499Y1539680D01*
X23876499Y2057066D01*
X23861734Y2131301D01*
X23805484Y2215484D01*
X23721301Y2271734D01*
X23711738Y2273636D01*
X23711736Y2273637D01*
X23680819Y2279786D01*
X23647067Y2286500D01*
X23629268Y2286500D01*
X23571077Y2305407D01*
X23535113Y2354907D01*
X23535113Y2416093D01*
X23559264Y2455504D01*
X24301145Y3197385D01*
X24309858Y3205127D01*
X24332248Y3222778D01*
X24338059Y3227359D01*
X24371978Y3276437D01*
X24373782Y3278960D01*
X24404812Y3320971D01*
X24409209Y3326924D01*
X24411604Y3333743D01*
X24411656Y3333845D01*
X24415764Y3339789D01*
X24433750Y3396661D01*
X24434735Y3399613D01*
X24452040Y3448888D01*
X24452040Y3448890D01*
X24454493Y3455874D01*
X24454731Y3461937D01*
X24455272Y3464712D01*
X24456975Y3470097D01*
X24457500Y3476768D01*
X24457500Y3530464D01*
X24457576Y3534350D01*
X24459568Y3585043D01*
X24459568Y3585046D01*
X24459858Y3592437D01*
X24458048Y3599265D01*
X24457500Y3609216D01*
X24457500Y3800681D01*
X24476407Y3858872D01*
X24483625Y3867690D01*
X24483780Y3867858D01*
X24488314Y3871731D01*
X24502985Y3892148D01*
X24577271Y3995527D01*
X24577272Y3995529D01*
X24580755Y4000376D01*
X24585086Y4011148D01*
X24637618Y4141826D01*
X24637619Y4141828D01*
X24639842Y4147359D01*
X24640714Y4153486D01*
X24658201Y4276361D01*
X28148000Y4276361D01*
X28148346Y4270515D01*
X28150234Y4254647D01*
X28154128Y4240481D01*
X28192770Y4153486D01*
X28202946Y4138679D01*
X28269108Y4072633D01*
X28283931Y4062483D01*
X28370980Y4024000D01*
X28385185Y4020127D01*
X28400580Y4018332D01*
X28406292Y4018000D01*
X28940320Y4018000D01*
X28953005Y4022122D01*
X28956000Y4026243D01*
X28956000Y4033680D01*
X29464000Y4033680D01*
X29468122Y4020995D01*
X29472243Y4018000D01*
X30013639Y4018000D01*
X30019485Y4018346D01*
X30035353Y4020234D01*
X30049519Y4024128D01*
X30136514Y4062770D01*
X30151321Y4072946D01*
X30217367Y4139108D01*
X30227517Y4153931D01*
X30266000Y4240980D01*
X30269873Y4255185D01*
X30271668Y4270580D01*
X30272000Y4276292D01*
X30272000Y4276361D01*
X30688000Y4276361D01*
X30688346Y4270515D01*
X30690234Y4254647D01*
X30694128Y4240481D01*
X30732770Y4153486D01*
X30742946Y4138679D01*
X30809108Y4072633D01*
X30823931Y4062483D01*
X30910980Y4024000D01*
X30925185Y4020127D01*
X30940580Y4018332D01*
X30946292Y4018000D01*
X31480320Y4018000D01*
X31493005Y4022122D01*
X31496000Y4026243D01*
X31496000Y4033680D01*
X32004000Y4033680D01*
X32008122Y4020995D01*
X32012243Y4018000D01*
X32553639Y4018000D01*
X32559485Y4018346D01*
X32575353Y4020234D01*
X32589519Y4024128D01*
X32676514Y4062770D01*
X32691321Y4072946D01*
X32757367Y4139108D01*
X32767517Y4153931D01*
X32806000Y4240980D01*
X32809873Y4255185D01*
X32811668Y4270580D01*
X32812000Y4276292D01*
X32812000Y4810320D01*
X32807878Y4823005D01*
X32803757Y4826000D01*
X32019680Y4826000D01*
X32006995Y4821878D01*
X32004000Y4817757D01*
X32004000Y4033680D01*
X31496000Y4033680D01*
X31496000Y4810320D01*
X31491878Y4823005D01*
X31487757Y4826000D01*
X30703680Y4826000D01*
X30690995Y4821878D01*
X30688000Y4817757D01*
X30688000Y4276361D01*
X30272000Y4276361D01*
X30272000Y4810320D01*
X30267878Y4823005D01*
X30263757Y4826000D01*
X29479680Y4826000D01*
X29466995Y4821878D01*
X29464000Y4817757D01*
X29464000Y4033680D01*
X28956000Y4033680D01*
X28956000Y4810320D01*
X28951878Y4823005D01*
X28947757Y4826000D01*
X28163680Y4826000D01*
X28150995Y4821878D01*
X28148000Y4817757D01*
X28148000Y4276361D01*
X24658201Y4276361D01*
X24661706Y4300986D01*
X24661706Y4300992D01*
X24662162Y4304193D01*
X24662307Y4318000D01*
X24643276Y4475267D01*
X24638645Y4487524D01*
X24589390Y4617870D01*
X24587280Y4623454D01*
X24579733Y4634435D01*
X24500933Y4749091D01*
X24500930Y4749094D01*
X24497553Y4754008D01*
X24417215Y4825586D01*
X24383729Y4855421D01*
X24383727Y4855422D01*
X24379275Y4859389D01*
X24374004Y4862180D01*
X24244548Y4930724D01*
X24244545Y4930725D01*
X24239274Y4933516D01*
X24162454Y4952812D01*
X24091423Y4970654D01*
X24091420Y4970654D01*
X24085633Y4972108D01*
X24005693Y4972527D01*
X23933187Y4972907D01*
X23933185Y4972907D01*
X23927221Y4972938D01*
X23773184Y4935957D01*
X23700024Y4898196D01*
X23637720Y4866039D01*
X23637718Y4866037D01*
X23632414Y4863300D01*
X23513039Y4759162D01*
X23421950Y4629556D01*
X23364406Y4481963D01*
X23343729Y4324904D01*
X23344384Y4318971D01*
X23344384Y4318967D01*
X23353050Y4240481D01*
X23361113Y4167447D01*
X23374624Y4130526D01*
X23413501Y4024287D01*
X23413503Y4024283D01*
X23415553Y4018681D01*
X23503908Y3887195D01*
X23516127Y3876077D01*
X23546443Y3822929D01*
X23548500Y3802852D01*
X23548500Y3771268D01*
X23529593Y3713077D01*
X23519504Y3701264D01*
X22561855Y2743615D01*
X22553143Y2735874D01*
X22524941Y2713641D01*
X22520734Y2707554D01*
X22491027Y2664571D01*
X22489223Y2662047D01*
X22453791Y2614076D01*
X22451396Y2607257D01*
X22451344Y2607155D01*
X22447236Y2601211D01*
X22445005Y2594155D01*
X22445004Y2594154D01*
X22429250Y2544339D01*
X22428267Y2541393D01*
X22408507Y2485126D01*
X22408269Y2479063D01*
X22407728Y2476288D01*
X22406025Y2470903D01*
X22405500Y2464232D01*
X22405500Y2410536D01*
X22405424Y2406648D01*
X22404440Y2381611D01*
X22383262Y2324208D01*
X22332387Y2290216D01*
X22305516Y2286499D01*
X22072934Y2286499D01*
X22068168Y2285551D01*
X22068167Y2285551D01*
X22027025Y2277368D01*
X21998699Y2271734D01*
X21914516Y2215484D01*
X21858266Y2131301D01*
X21856364Y2121738D01*
X21856363Y2121736D01*
X21850214Y2090819D01*
X21843500Y2057067D01*
X21382000Y2057067D01*
X21382000Y2073639D01*
X21381654Y2079485D01*
X21379766Y2095353D01*
X21375872Y2109519D01*
X21337230Y2196514D01*
X21327054Y2211321D01*
X21260891Y2277368D01*
X21246069Y2287517D01*
X21159020Y2326000D01*
X21144815Y2329873D01*
X21129420Y2331668D01*
X21123708Y2332000D01*
X20589680Y2332000D01*
X20576995Y2327878D01*
X20574000Y2323757D01*
X20574000Y1539680D01*
X20066000Y1539680D01*
X20066000Y2316320D01*
X20061878Y2329005D01*
X20057757Y2332000D01*
X19516361Y2332000D01*
X19510515Y2331654D01*
X19494647Y2329766D01*
X19480481Y2325872D01*
X19393486Y2287230D01*
X19378679Y2277054D01*
X19312633Y2210892D01*
X19302483Y2196069D01*
X19264000Y2109020D01*
X19260127Y2094815D01*
X19258332Y2079420D01*
X19258000Y2073708D01*
X19258000Y1539680D01*
X17572000Y1539680D01*
X17572000Y2073639D01*
X17571654Y2079485D01*
X17569766Y2095353D01*
X17565872Y2109519D01*
X17527230Y2196514D01*
X17517054Y2211321D01*
X17450891Y2277368D01*
X17436069Y2287517D01*
X17349020Y2326000D01*
X17334815Y2329873D01*
X17319420Y2331668D01*
X17313708Y2332000D01*
X16779680Y2332000D01*
X16766995Y2327878D01*
X16764000Y2323757D01*
X16764000Y1539680D01*
X16256000Y1539680D01*
X16256000Y2316320D01*
X16251878Y2329005D01*
X16247757Y2332000D01*
X15706361Y2332000D01*
X15700515Y2331654D01*
X15684647Y2329766D01*
X15670481Y2325872D01*
X15583486Y2287230D01*
X15568679Y2277054D01*
X15502633Y2210892D01*
X15492483Y2196069D01*
X15454000Y2109020D01*
X15450127Y2094815D01*
X15448332Y2079420D01*
X15448000Y2073708D01*
X15448000Y1539680D01*
X14986499Y1539680D01*
X14986499Y2057066D01*
X14971734Y2131301D01*
X14915484Y2215484D01*
X14831301Y2271734D01*
X14821738Y2273636D01*
X14821736Y2273637D01*
X14790819Y2279786D01*
X14757067Y2286500D01*
X13970163Y2286500D01*
X13182934Y2286499D01*
X13178168Y2285551D01*
X13178167Y2285551D01*
X13137025Y2277368D01*
X13108699Y2271734D01*
X13024516Y2215484D01*
X12968266Y2131301D01*
X12966364Y2121738D01*
X12966363Y2121736D01*
X12960214Y2090819D01*
X12953500Y2057067D01*
X12492000Y2057067D01*
X12492000Y2073639D01*
X12491654Y2079485D01*
X12489766Y2095353D01*
X12485872Y2109519D01*
X12447230Y2196514D01*
X12437054Y2211321D01*
X12370891Y2277368D01*
X12356069Y2287517D01*
X12269020Y2326000D01*
X12254815Y2329873D01*
X12239420Y2331668D01*
X12233708Y2332000D01*
X11699680Y2332000D01*
X11686995Y2327878D01*
X11684000Y2323757D01*
X11684000Y1539680D01*
X11176000Y1539680D01*
X11176000Y2316320D01*
X11171878Y2329005D01*
X11167757Y2332000D01*
X10626361Y2332000D01*
X10620515Y2331654D01*
X10604647Y2329766D01*
X10590481Y2325872D01*
X10503486Y2287230D01*
X10488679Y2277054D01*
X10422633Y2210892D01*
X10412483Y2196069D01*
X10374000Y2109020D01*
X10370127Y2094815D01*
X10368332Y2079420D01*
X10368000Y2073708D01*
X10368000Y1539680D01*
X9777500Y1539680D01*
X9777500Y2468798D01*
X9796407Y2526989D01*
X9806496Y2538802D01*
X12617374Y5349680D01*
X28148000Y5349680D01*
X28152122Y5336995D01*
X28156243Y5334000D01*
X28940320Y5334000D01*
X28953005Y5338122D01*
X28956000Y5342243D01*
X28956000Y5349680D01*
X29464000Y5349680D01*
X29468122Y5336995D01*
X29472243Y5334000D01*
X30256320Y5334000D01*
X30269005Y5338122D01*
X30272000Y5342243D01*
X30272000Y5349680D01*
X30688000Y5349680D01*
X30692122Y5336995D01*
X30696243Y5334000D01*
X31480320Y5334000D01*
X31493005Y5338122D01*
X31496000Y5342243D01*
X31496000Y5349680D01*
X32004000Y5349680D01*
X32008122Y5336995D01*
X32012243Y5334000D01*
X32796320Y5334000D01*
X32809005Y5338122D01*
X32812000Y5342243D01*
X32812000Y5883639D01*
X32811654Y5889485D01*
X32809766Y5905353D01*
X32805872Y5919519D01*
X32767230Y6006514D01*
X32757054Y6021321D01*
X32690892Y6087367D01*
X32676069Y6097517D01*
X32589020Y6136000D01*
X32574815Y6139873D01*
X32559420Y6141668D01*
X32553708Y6142000D01*
X32019680Y6142000D01*
X32006995Y6137878D01*
X32004000Y6133757D01*
X32004000Y5349680D01*
X31496000Y5349680D01*
X31496000Y6126320D01*
X31491878Y6139005D01*
X31487757Y6142000D01*
X30946361Y6142000D01*
X30940515Y6141654D01*
X30924647Y6139766D01*
X30910481Y6135872D01*
X30823486Y6097230D01*
X30808679Y6087054D01*
X30742633Y6020892D01*
X30732483Y6006069D01*
X30694000Y5919020D01*
X30690127Y5904815D01*
X30688332Y5889420D01*
X30688000Y5883708D01*
X30688000Y5349680D01*
X30272000Y5349680D01*
X30272000Y5883639D01*
X30271654Y5889485D01*
X30269766Y5905353D01*
X30265872Y5919519D01*
X30227230Y6006514D01*
X30217054Y6021321D01*
X30150892Y6087367D01*
X30136069Y6097517D01*
X30049020Y6136000D01*
X30034815Y6139873D01*
X30019420Y6141668D01*
X30013708Y6142000D01*
X29479680Y6142000D01*
X29466995Y6137878D01*
X29464000Y6133757D01*
X29464000Y5349680D01*
X28956000Y5349680D01*
X28956000Y6126320D01*
X28951878Y6139005D01*
X28947757Y6142000D01*
X28406361Y6142000D01*
X28400515Y6141654D01*
X28384647Y6139766D01*
X28370481Y6135872D01*
X28283486Y6097230D01*
X28268679Y6087054D01*
X28202633Y6020892D01*
X28192483Y6006069D01*
X28154000Y5919020D01*
X28150127Y5904815D01*
X28148332Y5889420D01*
X28148000Y5883708D01*
X28148000Y5349680D01*
X12617374Y5349680D01*
X13059254Y5791560D01*
X13075555Y5804723D01*
X13085940Y5811429D01*
X13107712Y5839047D01*
X13113160Y5845178D01*
X13114757Y5847063D01*
X13117638Y5849944D01*
X13120010Y5853263D01*
X13129242Y5866181D01*
X13132041Y5869908D01*
X13159088Y5904218D01*
X13164156Y5910647D01*
X13166685Y5917848D01*
X13168074Y5920522D01*
X13172513Y5926734D01*
X13187383Y5976453D01*
X13188824Y5980887D01*
X13203955Y6023975D01*
X13203956Y6023979D01*
X13206018Y6029851D01*
X13206500Y6035416D01*
X13206500Y6037559D01*
X13206548Y6038673D01*
X13206768Y6041274D01*
X13208713Y6047778D01*
X13206576Y6102170D01*
X13206500Y6106057D01*
X13206500Y10339718D01*
X13225407Y10397909D01*
X13241205Y10414998D01*
X13307776Y10471855D01*
X13307777Y10471856D01*
X13312314Y10475731D01*
X13389586Y10583266D01*
X13401271Y10599527D01*
X13401272Y10599529D01*
X13404755Y10604376D01*
X13414368Y10628287D01*
X13461618Y10745826D01*
X13461619Y10745828D01*
X13463842Y10751359D01*
X13466701Y10771447D01*
X13485706Y10904986D01*
X13485706Y10904992D01*
X13486162Y10908193D01*
X13486307Y10922000D01*
X13476571Y11002454D01*
X13467993Y11073345D01*
X13467992Y11073348D01*
X13467276Y11079267D01*
X13411280Y11227454D01*
X13376645Y11277849D01*
X13324933Y11353091D01*
X13324930Y11353094D01*
X13321553Y11358008D01*
X13259151Y11413606D01*
X13207729Y11459421D01*
X13207727Y11459422D01*
X13203275Y11463389D01*
X13154695Y11489111D01*
X13068548Y11534724D01*
X13068545Y11534725D01*
X13063274Y11537516D01*
X12975776Y11559494D01*
X12915423Y11574654D01*
X12915420Y11574654D01*
X12909633Y11576108D01*
X12751221Y11576938D01*
X12751234Y11579430D01*
X12701380Y11589476D01*
X12679966Y11605728D01*
X10568496Y13717198D01*
X10540719Y13771715D01*
X10539500Y13787202D01*
X10539500Y15927718D01*
X10558407Y15985909D01*
X10574205Y16002998D01*
X10640776Y16059855D01*
X10640777Y16059856D01*
X10645314Y16063731D01*
X10704361Y16145903D01*
X10734271Y16187527D01*
X10734272Y16187529D01*
X10737755Y16192376D01*
X10747408Y16216387D01*
X10794618Y16333826D01*
X10794619Y16333828D01*
X10796842Y16339359D01*
X10797683Y16345266D01*
X10818706Y16492986D01*
X10818706Y16492992D01*
X10819162Y16496193D01*
X10819307Y16510000D01*
X10802750Y16646822D01*
X10800993Y16661345D01*
X10800992Y16661348D01*
X10800276Y16667267D01*
X10794781Y16681810D01*
X10746150Y16810506D01*
X10743268Y16871623D01*
X10776860Y16922762D01*
X10838759Y16944500D01*
X13077649Y16944500D01*
X13135840Y16925593D01*
X13144277Y16918723D01*
X13202656Y16865602D01*
X13202660Y16865599D01*
X13207076Y16861581D01*
X13240939Y16843195D01*
X13341047Y16788840D01*
X13341049Y16788839D01*
X13346293Y16785992D01*
X13352067Y16784477D01*
X13352070Y16784476D01*
X13493743Y16747309D01*
X13499522Y16745793D01*
X13505491Y16745699D01*
X13505493Y16745699D01*
X13563502Y16744788D01*
X13657916Y16743305D01*
X13668779Y16745793D01*
X13806509Y16777337D01*
X13806512Y16777338D01*
X13812332Y16778671D01*
X13826889Y16785992D01*
X13948518Y16847165D01*
X13953855Y16849849D01*
X14074314Y16952731D01*
X14145402Y17051660D01*
X14163271Y17076527D01*
X14163272Y17076529D01*
X14166755Y17081376D01*
X14169935Y17089285D01*
X14223618Y17222826D01*
X14223619Y17222828D01*
X14225842Y17228359D01*
X14228270Y17245418D01*
X14247706Y17381986D01*
X14247706Y17381992D01*
X14248162Y17385193D01*
X14248307Y17399000D01*
X14235861Y17501853D01*
X14229993Y17550345D01*
X14229992Y17550348D01*
X14229276Y17556267D01*
X14218209Y17585556D01*
X14175390Y17698870D01*
X14173280Y17704454D01*
X14161205Y17722023D01*
X14086933Y17830091D01*
X14086930Y17830094D01*
X14083553Y17835008D01*
X14023848Y17888203D01*
X13969729Y17936421D01*
X13969727Y17936422D01*
X13965275Y17940389D01*
X13960004Y17943180D01*
X13830548Y18011724D01*
X13830545Y18011725D01*
X13825274Y18014516D01*
X13819486Y18015970D01*
X13819483Y18015971D01*
X13768980Y18028656D01*
X13756069Y18031899D01*
X13704237Y18064412D01*
X13681415Y18121182D01*
X13694625Y18170739D01*
X13692585Y18171584D01*
X13696316Y18180590D01*
X13701734Y18188699D01*
X13704862Y18204421D01*
X13715552Y18258169D01*
X13716500Y18262933D01*
X13716499Y19837066D01*
X13717696Y19837066D01*
X13729648Y19891555D01*
X13775382Y19932200D01*
X13815062Y19940500D01*
X14124937Y19940500D01*
X14183128Y19921593D01*
X14219092Y19872093D01*
X14222887Y19837067D01*
X14223500Y19837067D01*
X14223501Y18262934D01*
X14238266Y18188699D01*
X14294516Y18104516D01*
X14378699Y18048266D01*
X14388262Y18046364D01*
X14388264Y18046363D01*
X14410391Y18041962D01*
X14452933Y18033500D01*
X14546762Y18033500D01*
X15297797Y18033501D01*
X15355988Y18014594D01*
X15367801Y18004505D01*
X15593504Y17778802D01*
X15621281Y17724285D01*
X15622500Y17708798D01*
X15622500Y17343202D01*
X15603593Y17285011D01*
X15593504Y17273198D01*
X14271725Y15951419D01*
X14255424Y15938256D01*
X14245039Y15931550D01*
X14239975Y15925126D01*
X14223267Y15903932D01*
X14217831Y15897814D01*
X14216228Y15895922D01*
X14213341Y15893035D01*
X14210966Y15889711D01*
X14201752Y15876818D01*
X14198952Y15873088D01*
X14166823Y15832332D01*
X14164296Y15825135D01*
X14162906Y15822460D01*
X14158465Y15816245D01*
X14156121Y15808407D01*
X14143594Y15766520D01*
X14142153Y15762085D01*
X14128890Y15724316D01*
X14124961Y15713128D01*
X14124479Y15707563D01*
X14124479Y15705420D01*
X14124431Y15704306D01*
X14124211Y15701705D01*
X14122266Y15695201D01*
X14122587Y15687025D01*
X14122587Y15687023D01*
X14124403Y15640809D01*
X14124479Y15636922D01*
X14124479Y8278658D01*
X14122261Y8257821D01*
X14119659Y8245735D01*
X14120621Y8237611D01*
X14123793Y8210809D01*
X14124274Y8202642D01*
X14124479Y8200165D01*
X14124479Y8196087D01*
X14125150Y8192058D01*
X14127751Y8176429D01*
X14128409Y8171810D01*
X14129674Y8161123D01*
X14134509Y8120270D01*
X14137814Y8113388D01*
X14138721Y8110519D01*
X14139975Y8102985D01*
X14164618Y8057314D01*
X14166732Y8053164D01*
X14189198Y8006379D01*
X14192793Y8002103D01*
X14194294Y8000602D01*
X14195069Y7999757D01*
X14196747Y7997769D01*
X14199969Y7991797D01*
X14239922Y7954865D01*
X14242725Y7952171D01*
X15657159Y6537737D01*
X15670322Y6521436D01*
X15677028Y6511051D01*
X15683452Y6505987D01*
X15704646Y6489279D01*
X15710764Y6483843D01*
X15712656Y6482240D01*
X15715543Y6479353D01*
X15730036Y6468996D01*
X15731760Y6467764D01*
X15735490Y6464964D01*
X15767500Y6439730D01*
X15776246Y6432835D01*
X15783443Y6430308D01*
X15786118Y6428918D01*
X15792333Y6424477D01*
X15800171Y6422133D01*
X15842058Y6409606D01*
X15846493Y6408165D01*
X15889577Y6393035D01*
X15889580Y6393034D01*
X15895450Y6390973D01*
X15901015Y6390491D01*
X15903158Y6390491D01*
X15904272Y6390443D01*
X15906873Y6390223D01*
X15913377Y6388278D01*
X15921553Y6388599D01*
X15921555Y6388599D01*
X15967769Y6390415D01*
X15971656Y6390491D01*
X16629895Y6390491D01*
X20180945Y6390492D01*
X20201783Y6388274D01*
X20205868Y6387394D01*
X20205871Y6387394D01*
X20213868Y6385672D01*
X20248796Y6389806D01*
X20256961Y6390287D01*
X20259438Y6390492D01*
X20263516Y6390492D01*
X20275589Y6392502D01*
X20283174Y6393764D01*
X20287793Y6394422D01*
X20316390Y6397807D01*
X20339333Y6400522D01*
X20346215Y6403827D01*
X20349084Y6404734D01*
X20356618Y6405988D01*
X20402296Y6430634D01*
X20406446Y6432749D01*
X20453224Y6455211D01*
X20457500Y6458806D01*
X20459001Y6460307D01*
X20459846Y6461082D01*
X20461834Y6462760D01*
X20467806Y6465982D01*
X20480166Y6479353D01*
X20504751Y6505948D01*
X20507444Y6508749D01*
X20542270Y6543576D01*
X20555263Y6556569D01*
X20609778Y6584346D01*
X20626817Y6585553D01*
X20769916Y6583305D01*
X20775732Y6584637D01*
X20918509Y6617337D01*
X20918512Y6617338D01*
X20924332Y6618671D01*
X20934298Y6623683D01*
X21035368Y6674516D01*
X21065855Y6689849D01*
X21186314Y6792731D01*
X21278755Y6921376D01*
X21298782Y6971193D01*
X21335618Y7062826D01*
X21335619Y7062828D01*
X21337842Y7068359D01*
X21347518Y7136345D01*
X21359706Y7221986D01*
X21359706Y7221992D01*
X21360162Y7225193D01*
X21360307Y7239000D01*
X21359918Y7242211D01*
X21359918Y7242219D01*
X21359109Y7248906D01*
X21370890Y7308947D01*
X21415713Y7350595D01*
X21435288Y7357296D01*
X21463824Y7363832D01*
X21558696Y7385560D01*
X21558700Y7385562D01*
X21564518Y7386894D01*
X21706041Y7458072D01*
X21798826Y7537318D01*
X21821960Y7557076D01*
X21821962Y7557078D01*
X21826500Y7560954D01*
X21844852Y7586493D01*
X21894160Y7622716D01*
X21925247Y7627723D01*
X24466176Y7627723D01*
X24487014Y7625505D01*
X24491099Y7624625D01*
X24491102Y7624625D01*
X24499099Y7622903D01*
X24534027Y7627037D01*
X24542192Y7627518D01*
X24544669Y7627723D01*
X24548747Y7627723D01*
X24560820Y7629733D01*
X24568405Y7630995D01*
X24573024Y7631653D01*
X24601621Y7635038D01*
X24624564Y7637753D01*
X24631446Y7641058D01*
X24634315Y7641965D01*
X24641849Y7643219D01*
X24687527Y7667865D01*
X24691677Y7669980D01*
X24738455Y7692442D01*
X24742731Y7696037D01*
X24744232Y7697538D01*
X24745077Y7698313D01*
X24747065Y7699991D01*
X24753037Y7703213D01*
X24789970Y7743167D01*
X24792663Y7745969D01*
X25453761Y8407067D01*
X28193500Y8407067D01*
X28193501Y6832934D01*
X28194449Y6828169D01*
X28194449Y6828167D01*
X28201497Y6792731D01*
X28208266Y6758699D01*
X28264516Y6674516D01*
X28348699Y6618266D01*
X28358262Y6616364D01*
X28358264Y6616363D01*
X28389181Y6610214D01*
X28422933Y6603500D01*
X29209838Y6603500D01*
X29997066Y6603501D01*
X30001832Y6604449D01*
X30001833Y6604449D01*
X30061738Y6616364D01*
X30071301Y6618266D01*
X30155484Y6674516D01*
X30211734Y6758699D01*
X30217733Y6788855D01*
X30225552Y6828169D01*
X30226500Y6832933D01*
X30226499Y8407066D01*
X30226499Y8407067D01*
X30733500Y8407067D01*
X30733501Y6832934D01*
X30734449Y6828169D01*
X30734449Y6828167D01*
X30741497Y6792731D01*
X30748266Y6758699D01*
X30804516Y6674516D01*
X30888699Y6618266D01*
X30898262Y6616364D01*
X30898264Y6616363D01*
X30929181Y6610214D01*
X30962933Y6603500D01*
X31749838Y6603500D01*
X32537066Y6603501D01*
X32541832Y6604449D01*
X32541833Y6604449D01*
X32601738Y6616364D01*
X32611301Y6618266D01*
X32695484Y6674516D01*
X32751734Y6758699D01*
X32757733Y6788855D01*
X32765552Y6828169D01*
X32766500Y6832933D01*
X32766499Y8407066D01*
X32751734Y8481301D01*
X32695484Y8565484D01*
X32611301Y8621734D01*
X32601738Y8623636D01*
X32601736Y8623637D01*
X32570819Y8629786D01*
X32537067Y8636500D01*
X31750163Y8636500D01*
X30962934Y8636499D01*
X30958168Y8635551D01*
X30958167Y8635551D01*
X30952883Y8634500D01*
X30888699Y8621734D01*
X30804516Y8565484D01*
X30748266Y8481301D01*
X30746364Y8471738D01*
X30746363Y8471736D01*
X30741719Y8448385D01*
X30733500Y8407067D01*
X30226499Y8407067D01*
X30211734Y8481301D01*
X30155484Y8565484D01*
X30071301Y8621734D01*
X30061738Y8623636D01*
X30061736Y8623637D01*
X30030819Y8629786D01*
X29997067Y8636500D01*
X29210163Y8636500D01*
X28422934Y8636499D01*
X28418168Y8635551D01*
X28418167Y8635551D01*
X28412883Y8634500D01*
X28348699Y8621734D01*
X28264516Y8565484D01*
X28208266Y8481301D01*
X28206364Y8471738D01*
X28206363Y8471736D01*
X28201719Y8448385D01*
X28193500Y8407067D01*
X25453761Y8407067D01*
X28024496Y10977802D01*
X28079013Y11005579D01*
X28139445Y10996008D01*
X28182710Y10952743D01*
X28193500Y10907798D01*
X28193501Y10137261D01*
X28193501Y9372934D01*
X28208266Y9298699D01*
X28264516Y9214516D01*
X28348699Y9158266D01*
X28358262Y9156364D01*
X28358264Y9156363D01*
X28389181Y9150214D01*
X28422933Y9143500D01*
X29209838Y9143500D01*
X29997066Y9143501D01*
X30001832Y9144449D01*
X30001833Y9144449D01*
X30061738Y9156364D01*
X30071301Y9158266D01*
X30155484Y9214516D01*
X30211734Y9298699D01*
X30216238Y9321339D01*
X30219786Y9339181D01*
X30226500Y9372933D01*
X30226499Y10947066D01*
X30226499Y10947067D01*
X30733500Y10947067D01*
X30733501Y9372934D01*
X30748266Y9298699D01*
X30804516Y9214516D01*
X30888699Y9158266D01*
X30898262Y9156364D01*
X30898264Y9156363D01*
X30929181Y9150214D01*
X30962933Y9143500D01*
X31749838Y9143500D01*
X32537066Y9143501D01*
X32541832Y9144449D01*
X32541833Y9144449D01*
X32601738Y9156364D01*
X32611301Y9158266D01*
X32695484Y9214516D01*
X32751734Y9298699D01*
X32756238Y9321339D01*
X32759786Y9339181D01*
X32766500Y9372933D01*
X32766499Y10947066D01*
X32751734Y11021301D01*
X32695484Y11105484D01*
X32611301Y11161734D01*
X32601738Y11163636D01*
X32601736Y11163637D01*
X32570819Y11169786D01*
X32537067Y11176500D01*
X31750163Y11176500D01*
X30962934Y11176499D01*
X30958168Y11175551D01*
X30958167Y11175551D01*
X30916593Y11167282D01*
X30888699Y11161734D01*
X30804516Y11105484D01*
X30748266Y11021301D01*
X30746364Y11011738D01*
X30746363Y11011736D01*
X30743235Y10996008D01*
X30733500Y10947067D01*
X30226499Y10947067D01*
X30211734Y11021301D01*
X30155484Y11105484D01*
X30071301Y11161734D01*
X30061738Y11163636D01*
X30061736Y11163637D01*
X30030819Y11169786D01*
X29997067Y11176500D01*
X29823761Y11176500D01*
X28462201Y11176499D01*
X28404010Y11195406D01*
X28368046Y11244906D01*
X28368046Y11306092D01*
X28392197Y11345503D01*
X28701198Y11654504D01*
X28755715Y11682281D01*
X28771202Y11683500D01*
X29862833Y11683501D01*
X29997066Y11683501D01*
X30001832Y11684449D01*
X30001833Y11684449D01*
X30061738Y11696364D01*
X30071301Y11698266D01*
X30155484Y11754516D01*
X30211734Y11838699D01*
X30214925Y11854738D01*
X30220325Y11881891D01*
X30226500Y11912933D01*
X30226499Y13487066D01*
X30226499Y13487067D01*
X30733500Y13487067D01*
X30733501Y11912934D01*
X30748266Y11838699D01*
X30804516Y11754516D01*
X30888699Y11698266D01*
X30898262Y11696364D01*
X30898264Y11696363D01*
X30922734Y11691496D01*
X30962933Y11683500D01*
X31749838Y11683500D01*
X32537066Y11683501D01*
X32541832Y11684449D01*
X32541833Y11684449D01*
X32601738Y11696364D01*
X32611301Y11698266D01*
X32695484Y11754516D01*
X32751734Y11838699D01*
X32754925Y11854738D01*
X32760325Y11881891D01*
X32766500Y11912933D01*
X32766499Y13487066D01*
X32751734Y13561301D01*
X32695484Y13645484D01*
X32611301Y13701734D01*
X32601738Y13703636D01*
X32601736Y13703637D01*
X32569348Y13710079D01*
X32537067Y13716500D01*
X31750163Y13716500D01*
X30962934Y13716499D01*
X30958168Y13715551D01*
X30958167Y13715551D01*
X30914401Y13706846D01*
X30888699Y13701734D01*
X30804516Y13645484D01*
X30748266Y13561301D01*
X30733500Y13487067D01*
X30226499Y13487067D01*
X30211734Y13561301D01*
X30155484Y13645484D01*
X30071301Y13701734D01*
X30061738Y13703636D01*
X30061736Y13703637D01*
X30029348Y13710079D01*
X29997067Y13716500D01*
X29210163Y13716500D01*
X28422934Y13716499D01*
X28418168Y13715551D01*
X28418167Y13715551D01*
X28374401Y13706846D01*
X28348699Y13701734D01*
X28264516Y13645484D01*
X28208266Y13561301D01*
X28193500Y13487067D01*
X28193500Y13482209D01*
X28193501Y12261203D01*
X28174594Y12203012D01*
X28164505Y12191199D01*
X27388156Y11414850D01*
X27333639Y11387073D01*
X27273207Y11396644D01*
X27229942Y11439909D01*
X27225543Y11449859D01*
X27185355Y11556212D01*
X27185355Y11556213D01*
X27183246Y11561793D01*
X27172837Y11576938D01*
X27096899Y11687430D01*
X27096896Y11687433D01*
X27093519Y11692347D01*
X27029824Y11749097D01*
X26979695Y11793760D01*
X26979693Y11793761D01*
X26975241Y11797728D01*
X26969970Y11800519D01*
X26840514Y11869063D01*
X26840511Y11869064D01*
X26835240Y11871855D01*
X26758420Y11891151D01*
X26687389Y11908993D01*
X26687386Y11908993D01*
X26681599Y11910447D01*
X26601659Y11910866D01*
X26529153Y11911246D01*
X26529151Y11911246D01*
X26523187Y11911277D01*
X26369150Y11874296D01*
X26318714Y11848264D01*
X26233686Y11804378D01*
X26233684Y11804376D01*
X26228380Y11801639D01*
X26109005Y11697501D01*
X26017916Y11567895D01*
X25984758Y11482849D01*
X25970737Y11446887D01*
X25931984Y11399539D01*
X25872801Y11384013D01*
X25815795Y11406239D01*
X25782741Y11457727D01*
X25779500Y11482849D01*
X25779500Y16027067D01*
X28193500Y16027067D01*
X28193501Y14452934D01*
X28208266Y14378699D01*
X28264516Y14294516D01*
X28348699Y14238266D01*
X28358262Y14236364D01*
X28358264Y14236363D01*
X28389181Y14230214D01*
X28422933Y14223500D01*
X29209838Y14223500D01*
X29997066Y14223501D01*
X30001832Y14224449D01*
X30001833Y14224449D01*
X30061738Y14236364D01*
X30071301Y14238266D01*
X30155484Y14294516D01*
X30211734Y14378699D01*
X30217493Y14407649D01*
X30221579Y14428195D01*
X30226500Y14452933D01*
X30226499Y16027066D01*
X30226499Y16027067D01*
X30733500Y16027067D01*
X30733501Y14452934D01*
X30748266Y14378699D01*
X30804516Y14294516D01*
X30888699Y14238266D01*
X30898262Y14236364D01*
X30898264Y14236363D01*
X30929181Y14230214D01*
X30962933Y14223500D01*
X31749838Y14223500D01*
X32537066Y14223501D01*
X32541832Y14224449D01*
X32541833Y14224449D01*
X32601738Y14236364D01*
X32611301Y14238266D01*
X32695484Y14294516D01*
X32751734Y14378699D01*
X32757493Y14407649D01*
X32761579Y14428195D01*
X32766500Y14452933D01*
X32766499Y16027066D01*
X32751734Y16101301D01*
X32695484Y16185484D01*
X32611301Y16241734D01*
X32601738Y16243636D01*
X32601736Y16243637D01*
X32570819Y16249786D01*
X32537067Y16256500D01*
X31750163Y16256500D01*
X30962934Y16256499D01*
X30958168Y16255551D01*
X30958167Y16255551D01*
X30911116Y16246193D01*
X30888699Y16241734D01*
X30804516Y16185484D01*
X30748266Y16101301D01*
X30733500Y16027067D01*
X30226499Y16027067D01*
X30211734Y16101301D01*
X30155484Y16185484D01*
X30071301Y16241734D01*
X30061738Y16243636D01*
X30061736Y16243637D01*
X30030819Y16249786D01*
X29997067Y16256500D01*
X29210163Y16256500D01*
X28422934Y16256499D01*
X28418168Y16255551D01*
X28418167Y16255551D01*
X28371116Y16246193D01*
X28348699Y16241734D01*
X28264516Y16185484D01*
X28208266Y16101301D01*
X28193500Y16027067D01*
X25779500Y16027067D01*
X25779500Y17934501D01*
X25798407Y17992692D01*
X25847907Y18028656D01*
X25878500Y18033501D01*
X26187066Y18033501D01*
X26191832Y18034449D01*
X26191833Y18034449D01*
X26251738Y18046364D01*
X26261301Y18048266D01*
X26345484Y18104516D01*
X26401734Y18188699D01*
X26404862Y18204421D01*
X26415552Y18258169D01*
X26416500Y18262933D01*
X26416499Y19837066D01*
X26401734Y19911301D01*
X26345484Y19995484D01*
X26261301Y20051734D01*
X26251738Y20053636D01*
X26251736Y20053637D01*
X26220819Y20059786D01*
X26187067Y20066500D01*
X25400163Y20066500D01*
X24612934Y20066499D01*
X24608168Y20065551D01*
X24608167Y20065551D01*
X24602642Y20064452D01*
X24538699Y20051734D01*
X24454516Y19995484D01*
X24398266Y19911301D01*
X24383500Y19837067D01*
X24383500Y19832209D01*
X24383501Y18302201D01*
X24364594Y18244010D01*
X24315094Y18208046D01*
X24253908Y18208046D01*
X24214497Y18232197D01*
X23905496Y18541198D01*
X23877719Y18595715D01*
X23876500Y18611202D01*
X23876499Y19832206D01*
X23876499Y19837066D01*
X23861734Y19911301D01*
X23805484Y19995484D01*
X23721301Y20051734D01*
X23711738Y20053636D01*
X23711736Y20053637D01*
X23680819Y20059786D01*
X23647067Y20066500D01*
X22860163Y20066500D01*
X22072934Y20066499D01*
X22068168Y20065551D01*
X22068167Y20065551D01*
X22062642Y20064452D01*
X21998699Y20051734D01*
X21990592Y20046317D01*
X21970280Y20032745D01*
X21911391Y20016136D01*
X21853988Y20037314D01*
X21845274Y20045056D01*
X21338076Y20552254D01*
X21324913Y20568555D01*
X21318207Y20578940D01*
X21313419Y20582714D01*
X21288698Y20637470D01*
X21301107Y20697384D01*
X21304784Y20703332D01*
X21321734Y20728699D01*
X21325583Y20748046D01*
X21335552Y20798169D01*
X21336500Y20802933D01*
X21336499Y22377066D01*
X21336499Y22377067D01*
X21843500Y22377067D01*
X21843501Y20802934D01*
X21858266Y20728699D01*
X21914516Y20644516D01*
X21998699Y20588266D01*
X22008262Y20586364D01*
X22008264Y20586363D01*
X22039181Y20580214D01*
X22072933Y20573500D01*
X22859838Y20573500D01*
X23647066Y20573501D01*
X23651832Y20574449D01*
X23651833Y20574449D01*
X23711738Y20586364D01*
X23721301Y20588266D01*
X23805484Y20644516D01*
X23861734Y20728699D01*
X23865583Y20748046D01*
X23875552Y20798169D01*
X23876500Y20802933D01*
X23876499Y22377066D01*
X23876499Y22377067D01*
X24383500Y22377067D01*
X24383501Y20802934D01*
X24398266Y20728699D01*
X24454516Y20644516D01*
X24538699Y20588266D01*
X24548262Y20586364D01*
X24548264Y20586363D01*
X24579181Y20580214D01*
X24612933Y20573500D01*
X25399838Y20573500D01*
X26187066Y20573501D01*
X26191832Y20574449D01*
X26191833Y20574449D01*
X26251738Y20586364D01*
X26261301Y20588266D01*
X26345484Y20644516D01*
X26401734Y20728699D01*
X26405583Y20748046D01*
X26415552Y20798169D01*
X26416500Y20802933D01*
X26416499Y22377066D01*
X26401734Y22451301D01*
X26345484Y22535484D01*
X26261301Y22591734D01*
X26251738Y22593636D01*
X26251736Y22593637D01*
X26220819Y22599786D01*
X26187067Y22606500D01*
X25400162Y22606500D01*
X24612934Y22606499D01*
X24608168Y22605551D01*
X24608167Y22605551D01*
X24561116Y22596193D01*
X24538699Y22591734D01*
X24454516Y22535484D01*
X24398266Y22451301D01*
X24383500Y22377067D01*
X23876499Y22377067D01*
X23861734Y22451301D01*
X23805484Y22535484D01*
X23721301Y22591734D01*
X23711738Y22593636D01*
X23711736Y22593637D01*
X23680819Y22599786D01*
X23647067Y22606500D01*
X22860162Y22606500D01*
X22072934Y22606499D01*
X22068168Y22605551D01*
X22068167Y22605551D01*
X22021116Y22596193D01*
X21998699Y22591734D01*
X21914516Y22535484D01*
X21858266Y22451301D01*
X21843500Y22377067D01*
X21336499Y22377067D01*
X21321734Y22451301D01*
X21265484Y22535484D01*
X21181301Y22591734D01*
X21171738Y22593636D01*
X21171736Y22593637D01*
X21140819Y22599786D01*
X21107067Y22606500D01*
X20320162Y22606500D01*
X19532934Y22606499D01*
X19528168Y22605551D01*
X19528167Y22605551D01*
X19481116Y22596193D01*
X19458699Y22591734D01*
X19374516Y22535484D01*
X19318266Y22451301D01*
X19303500Y22377067D01*
X19303501Y20802934D01*
X19302304Y20802934D01*
X19290352Y20748445D01*
X19244618Y20707800D01*
X19204938Y20699500D01*
X18895063Y20699500D01*
X18836872Y20718407D01*
X18800908Y20767907D01*
X18797113Y20802933D01*
X18796500Y20802933D01*
X18796499Y22372206D01*
X18796499Y22377066D01*
X18781734Y22451301D01*
X18725484Y22535484D01*
X18641301Y22591734D01*
X18631738Y22593636D01*
X18631736Y22593637D01*
X18600819Y22599786D01*
X18567067Y22606500D01*
X17780162Y22606500D01*
X16992934Y22606499D01*
X16988168Y22605551D01*
X16988167Y22605551D01*
X16941116Y22596193D01*
X16918699Y22591734D01*
X16834516Y22535484D01*
X16778266Y22451301D01*
X16763500Y22377067D01*
X16763501Y20802934D01*
X16762304Y20802934D01*
X16750352Y20748445D01*
X16704618Y20707800D01*
X16664938Y20699500D01*
X16355063Y20699500D01*
X16296872Y20718407D01*
X16260908Y20767907D01*
X16257113Y20802933D01*
X16256500Y20802933D01*
X16256499Y22372206D01*
X16256499Y22377066D01*
X16241734Y22451301D01*
X16185484Y22535484D01*
X16101301Y22591734D01*
X16091738Y22593636D01*
X16091736Y22593637D01*
X16060819Y22599786D01*
X16027067Y22606500D01*
X15240162Y22606500D01*
X14452934Y22606499D01*
X14448168Y22605551D01*
X14448167Y22605551D01*
X14401116Y22596193D01*
X14378699Y22591734D01*
X14294516Y22535484D01*
X14238266Y22451301D01*
X14223500Y22377067D01*
X14223501Y20802934D01*
X14222304Y20802934D01*
X14210352Y20748445D01*
X14164618Y20707800D01*
X14124938Y20699500D01*
X13815063Y20699500D01*
X13756872Y20718407D01*
X13720908Y20767907D01*
X13717113Y20802933D01*
X13716500Y20802933D01*
X13716499Y22372206D01*
X13716499Y22377066D01*
X13701734Y22451301D01*
X13645484Y22535484D01*
X13561301Y22591734D01*
X13551738Y22593636D01*
X13551736Y22593637D01*
X13520819Y22599786D01*
X13487067Y22606500D01*
X12700162Y22606500D01*
X11912934Y22606499D01*
X11908168Y22605551D01*
X11908167Y22605551D01*
X11861116Y22596193D01*
X11838699Y22591734D01*
X11754516Y22535484D01*
X11698266Y22451301D01*
X11683500Y22377067D01*
X11683500Y22372209D01*
X11683501Y20842201D01*
X11664594Y20784010D01*
X11615094Y20748046D01*
X11553908Y20748046D01*
X11514497Y20772197D01*
X11205496Y21081198D01*
X11177719Y21135715D01*
X11176500Y21151202D01*
X11176499Y22372206D01*
X11176499Y22377066D01*
X11161734Y22451301D01*
X11105484Y22535484D01*
X11021301Y22591734D01*
X11011738Y22593636D01*
X11011736Y22593637D01*
X10980819Y22599786D01*
X10947067Y22606500D01*
X10160162Y22606500D01*
X9372934Y22606499D01*
X9368168Y22605551D01*
X9368167Y22605551D01*
X9321116Y22596193D01*
X9298699Y22591734D01*
X9214516Y22535484D01*
X9158266Y22451301D01*
X9143500Y22377067D01*
X9143501Y20802934D01*
X9158266Y20728699D01*
X9214516Y20644516D01*
X9298699Y20588266D01*
X9308262Y20586364D01*
X9308264Y20586363D01*
X9339181Y20580214D01*
X9372933Y20573500D01*
X9507117Y20573500D01*
X10598797Y20573501D01*
X10656988Y20554594D01*
X10668801Y20544505D01*
X10977802Y20235504D01*
X11005579Y20180987D01*
X10996008Y20120555D01*
X10952743Y20077290D01*
X10907798Y20066500D01*
X9546296Y20066499D01*
X9372934Y20066499D01*
X9368168Y20065551D01*
X9368167Y20065551D01*
X9362642Y20064452D01*
X9298699Y20051734D01*
X9214516Y19995484D01*
X9158266Y19911301D01*
X9143500Y19837067D01*
X9143501Y18262934D01*
X9158266Y18188699D01*
X9214516Y18104516D01*
X9222626Y18099097D01*
X9224277Y18097446D01*
X9252054Y18042929D01*
X9242483Y17982497D01*
X9199218Y17939232D01*
X9153755Y17928443D01*
X9065187Y17928907D01*
X9065185Y17928907D01*
X9059221Y17928938D01*
X8905184Y17891957D01*
X8835974Y17856235D01*
X8769720Y17822039D01*
X8769718Y17822037D01*
X8764414Y17819300D01*
X8645039Y17715162D01*
X8553950Y17585556D01*
X8496406Y17437963D01*
X8475729Y17280904D01*
X8476384Y17274971D01*
X8476384Y17274967D01*
X8488751Y17162954D01*
X8493113Y17123447D01*
X8505614Y17089285D01*
X8545501Y16980287D01*
X8545503Y16980283D01*
X8547553Y16974681D01*
X8600732Y16895543D01*
X8617494Y16836701D01*
X8596467Y16779242D01*
X8588564Y16770324D01*
X8236855Y16418615D01*
X8228143Y16410874D01*
X8199941Y16388641D01*
X8195734Y16382554D01*
X8166027Y16339571D01*
X8164223Y16337047D01*
X8128791Y16289076D01*
X8126396Y16282257D01*
X8126344Y16282155D01*
X8122236Y16276211D01*
X8120005Y16269155D01*
X8120004Y16269154D01*
X8104250Y16219339D01*
X8103267Y16216393D01*
X8083507Y16160126D01*
X8083269Y16154063D01*
X8082728Y16151288D01*
X8081025Y16145903D01*
X8080500Y16139232D01*
X8080500Y16085536D01*
X8080424Y16081650D01*
X8078437Y16031062D01*
X8078142Y16023563D01*
X8079952Y16016735D01*
X8080500Y16006784D01*
X8080500Y14003268D01*
X8061593Y13945077D01*
X8051504Y13933264D01*
X3638855Y9520615D01*
X3630143Y9512874D01*
X3601941Y9490641D01*
X3597734Y9484554D01*
X3568027Y9441571D01*
X3566223Y9439047D01*
X3530791Y9391076D01*
X3528396Y9384257D01*
X3528344Y9384155D01*
X3524236Y9378211D01*
X3522005Y9371155D01*
X3522004Y9371154D01*
X3506250Y9321339D01*
X3505267Y9318393D01*
X3485507Y9262126D01*
X3485269Y9256063D01*
X3484728Y9253288D01*
X3483025Y9247903D01*
X3482500Y9241232D01*
X3482500Y9187536D01*
X3482424Y9183650D01*
X3480847Y9143500D01*
X3480142Y9125563D01*
X3481952Y9118735D01*
X3482500Y9108784D01*
X3482500Y7502109D01*
X3463593Y7443918D01*
X3455235Y7434782D01*
X3455528Y7434519D01*
X3451534Y7430083D01*
X3447039Y7426162D01*
X3355950Y7296556D01*
X3298406Y7148963D01*
X3277729Y6991904D01*
X-4325500Y6991904D01*
X-4325500Y14413274D01*
X4449313Y14413274D01*
X4449767Y14410403D01*
X4451962Y14407649D01*
X4493637Y14372804D01*
X4499082Y14368848D01*
X4730157Y14223894D01*
X4736073Y14220721D01*
X4984684Y14108470D01*
X4990994Y14106123D01*
X5252529Y14028653D01*
X5259091Y14027187D01*
X5528726Y13985926D01*
X5535432Y13985363D01*
X5808175Y13981079D01*
X5814880Y13981430D01*
X6085685Y14014201D01*
X6092284Y14015460D01*
X6356143Y14084682D01*
X6362505Y14086823D01*
X6614512Y14191208D01*
X6620547Y14194203D01*
X6856051Y14331821D01*
X6861617Y14335604D01*
X6950487Y14405287D01*
X6957926Y14416358D01*
X6957850Y14418433D01*
X6955192Y14422598D01*
X5715086Y15662704D01*
X5703203Y15668758D01*
X5698172Y15667962D01*
X4455367Y14425157D01*
X4449313Y14413274D01*
X-4325500Y14413274D01*
X-4325500Y16051148D01*
X3649517Y16051148D01*
X3665219Y15778829D01*
X3666062Y15772161D01*
X3718576Y15504489D01*
X3720318Y15497990D01*
X3808670Y15239934D01*
X3811281Y15233723D01*
X3933843Y14990036D01*
X3937268Y14984245D01*
X4074523Y14784539D01*
X4085106Y14776417D01*
X4085502Y14776407D01*
X4092154Y14780364D01*
X5333704Y16021914D01*
X5338946Y16032203D01*
X6068242Y16032203D01*
X6069038Y16027172D01*
X7311500Y14784710D01*
X7323383Y14778656D01*
X7324605Y14778849D01*
X7329444Y14782959D01*
X7436925Y14929277D01*
X7440523Y14934946D01*
X7570680Y15174667D01*
X7573481Y15180785D01*
X7669901Y15435950D01*
X7671843Y15442384D01*
X7732739Y15708270D01*
X7733792Y15714920D01*
X7758168Y15988055D01*
X7758359Y15991899D01*
X7758770Y16031062D01*
X7758658Y16034936D01*
X7740008Y16308502D01*
X7739095Y16315171D01*
X7683780Y16582275D01*
X7681971Y16588753D01*
X7590918Y16845879D01*
X7588248Y16852050D01*
X7463145Y17094433D01*
X7459653Y17100199D01*
X7332779Y17280723D01*
X7322111Y17288732D01*
X7321433Y17288742D01*
X7315199Y17284989D01*
X6074296Y16044086D01*
X6068242Y16032203D01*
X5338946Y16032203D01*
X5339758Y16033797D01*
X5338962Y16038828D01*
X4095994Y17281796D01*
X4084111Y17287850D01*
X4083164Y17287700D01*
X4077996Y17283262D01*
X3959619Y17118525D01*
X3956070Y17112800D01*
X3828435Y16871740D01*
X3825695Y16865586D01*
X3731956Y16609431D01*
X3730082Y16602983D01*
X3671969Y16336454D01*
X3670989Y16329817D01*
X3649588Y16057881D01*
X3649517Y16051148D01*
X-4325500Y16051148D01*
X-4325500Y17649830D01*
X4449949Y17649830D01*
X4450060Y17647481D01*
X4452485Y17643725D01*
X5692914Y16403296D01*
X5704797Y16397242D01*
X5709828Y16398038D01*
X6952176Y17640386D01*
X6958230Y17652269D01*
X6957819Y17654867D01*
X6955313Y17657978D01*
X6896914Y17705778D01*
X6891419Y17709682D01*
X6658851Y17852200D01*
X6652894Y17855315D01*
X6403118Y17964959D01*
X6396791Y17967236D01*
X6134467Y18041962D01*
X6127868Y18043364D01*
X5857833Y18081796D01*
X5851117Y18082290D01*
X5578339Y18083717D01*
X5571645Y18083296D01*
X5301207Y18047692D01*
X5294594Y18046359D01*
X5031506Y17974386D01*
X5025140Y17972169D01*
X4774250Y17865156D01*
X4768247Y17862097D01*
X4534201Y17722023D01*
X4528668Y17718178D01*
X4457273Y17660980D01*
X4449949Y17649830D01*
X-4325500Y17649830D01*
X-4325500Y20320000D01*
X4740539Y20320000D01*
X4740844Y20316125D01*
X4759641Y20077290D01*
X4760354Y20068225D01*
X4767679Y20037715D01*
X4817018Y19832206D01*
X4819312Y19822649D01*
X4915960Y19589320D01*
X5047919Y19373983D01*
X5211939Y19181939D01*
X5403983Y19017919D01*
X5619320Y18885960D01*
X5852649Y18789312D01*
X5856423Y18788406D01*
X5856426Y18788405D01*
X5987470Y18756944D01*
X6098225Y18730354D01*
X6102090Y18730050D01*
X6102095Y18730049D01*
X6234601Y18719621D01*
X6286964Y18715500D01*
X6413036Y18715500D01*
X6465399Y18719621D01*
X6597905Y18730049D01*
X6597910Y18730050D01*
X6601775Y18730354D01*
X6712530Y18756944D01*
X6843574Y18788405D01*
X6843577Y18788406D01*
X6847351Y18789312D01*
X7080680Y18885960D01*
X7296017Y19017919D01*
X7488061Y19181939D01*
X7652081Y19373983D01*
X7784040Y19589320D01*
X7880688Y19822649D01*
X7882983Y19832206D01*
X7932321Y20037715D01*
X7939646Y20068225D01*
X7940360Y20077290D01*
X7959156Y20316125D01*
X7959461Y20320000D01*
X7957785Y20341294D01*
X7939951Y20567905D01*
X7939950Y20567910D01*
X7939646Y20571775D01*
X7885293Y20798169D01*
X7881595Y20813574D01*
X7881594Y20813577D01*
X7880688Y20817351D01*
X7784040Y21050680D01*
X7652081Y21266017D01*
X7488061Y21458061D01*
X7296017Y21622081D01*
X7080680Y21754040D01*
X6847351Y21850688D01*
X6843577Y21851594D01*
X6843574Y21851595D01*
X6712530Y21883056D01*
X6601775Y21909646D01*
X6597910Y21909950D01*
X6597905Y21909951D01*
X6465399Y21920379D01*
X6413036Y21924500D01*
X6286964Y21924500D01*
X6234601Y21920379D01*
X6102095Y21909951D01*
X6102090Y21909950D01*
X6098225Y21909646D01*
X5987470Y21883056D01*
X5856426Y21851595D01*
X5856423Y21851594D01*
X5852649Y21850688D01*
X5619320Y21754040D01*
X5403983Y21622081D01*
X5211939Y21458061D01*
X5047919Y21266017D01*
X4915960Y21050680D01*
X4819312Y20817351D01*
X4818406Y20813577D01*
X4818405Y20813574D01*
X4814707Y20798169D01*
X4760354Y20571775D01*
X4760050Y20567910D01*
X4760049Y20567905D01*
X4742215Y20341294D01*
X4740539Y20320000D01*
X-4325500Y20320000D01*
X-4325500Y24546500D01*
X-4306593Y24604691D01*
X-4257093Y24640655D01*
X-4226500Y24645500D01*
X34706500Y24645500D01*
X34764691Y24626593D01*
G37*
%TD.AperFunction*%
%TA.AperFunction,Conductor*%
G36*
X21125990Y18014594D02*
G01*
X21161954Y17965094D01*
X21161954Y17903908D01*
X21137803Y17864497D01*
X20399567Y17126261D01*
X20383266Y17113098D01*
X20372881Y17106392D01*
X20359395Y17089285D01*
X20351109Y17078774D01*
X20345673Y17072656D01*
X20344070Y17070764D01*
X20341183Y17067877D01*
X20338808Y17064553D01*
X20329594Y17051660D01*
X20326794Y17047930D01*
X20294665Y17007174D01*
X20292138Y16999977D01*
X20290748Y16997302D01*
X20286307Y16991087D01*
X20283963Y16983249D01*
X20271436Y16941362D01*
X20269995Y16936927D01*
X20263603Y16918723D01*
X20252803Y16887970D01*
X20252321Y16882405D01*
X20252321Y16880262D01*
X20252273Y16879148D01*
X20252053Y16876547D01*
X20250108Y16870043D01*
X20250429Y16861867D01*
X20250429Y16861865D01*
X20252245Y16815651D01*
X20252321Y16811764D01*
X20252321Y15798919D01*
X20233414Y15740728D01*
X20218403Y15724318D01*
X20141860Y15657545D01*
X20050771Y15527939D01*
X20028854Y15471724D01*
X19995474Y15386108D01*
X19993227Y15380346D01*
X19972550Y15223287D01*
X19973205Y15217354D01*
X19973205Y15217350D01*
X19978653Y15168008D01*
X19989934Y15065830D01*
X19996300Y15048435D01*
X20042322Y14922670D01*
X20042324Y14922666D01*
X20044374Y14917064D01*
X20047703Y14912110D01*
X20078877Y14865718D01*
X20095640Y14806873D01*
X20074613Y14749414D01*
X20023828Y14715289D01*
X19996706Y14711501D01*
X19209530Y14711501D01*
X19151339Y14730408D01*
X19115375Y14779908D01*
X19111247Y14798607D01*
X19106105Y14841094D01*
X19100276Y14889267D01*
X19095645Y14901524D01*
X19046390Y15031870D01*
X19044280Y15037454D01*
X19024778Y15065830D01*
X18957933Y15163091D01*
X18957930Y15163094D01*
X18954553Y15168008D01*
X18873955Y15239818D01*
X18840729Y15269421D01*
X18840727Y15269422D01*
X18836275Y15273389D01*
X18831004Y15276180D01*
X18701548Y15344724D01*
X18701545Y15344725D01*
X18696274Y15347516D01*
X18615807Y15367728D01*
X18548423Y15384654D01*
X18548420Y15384654D01*
X18542633Y15386108D01*
X18462693Y15386527D01*
X18390187Y15386907D01*
X18390185Y15386907D01*
X18384221Y15386938D01*
X18230184Y15349957D01*
X18157024Y15312196D01*
X18094720Y15280039D01*
X18094718Y15280037D01*
X18089414Y15277300D01*
X18084919Y15273379D01*
X18084915Y15273376D01*
X18058309Y15250165D01*
X18002029Y15226159D01*
X17942388Y15239818D01*
X17911640Y15268692D01*
X17896934Y15290089D01*
X17896933Y15290091D01*
X17893553Y15295008D01*
X17811933Y15367728D01*
X17779729Y15396421D01*
X17779727Y15396422D01*
X17775275Y15400389D01*
X17770004Y15403180D01*
X17640548Y15471724D01*
X17640545Y15471725D01*
X17635274Y15474516D01*
X17558453Y15493812D01*
X17487423Y15511654D01*
X17487420Y15511654D01*
X17481633Y15513108D01*
X17401693Y15513527D01*
X17329187Y15513907D01*
X17329185Y15513907D01*
X17323221Y15513938D01*
X17169184Y15476957D01*
X17102200Y15442384D01*
X17033720Y15407039D01*
X17033718Y15407037D01*
X17028414Y15404300D01*
X16909039Y15300162D01*
X16817950Y15170556D01*
X16815783Y15164997D01*
X16766268Y15037997D01*
X16760406Y15022963D01*
X16739729Y14865904D01*
X16740384Y14859971D01*
X16740384Y14859967D01*
X16749609Y14776417D01*
X16757113Y14708447D01*
X16759165Y14702840D01*
X16809501Y14565287D01*
X16809503Y14565283D01*
X16811553Y14559681D01*
X16899908Y14428195D01*
X16904319Y14424181D01*
X16904321Y14424179D01*
X16985704Y14350127D01*
X17016019Y14296979D01*
X17017389Y14288543D01*
X17018813Y14276516D01*
X17019295Y14268357D01*
X17019500Y14265878D01*
X17019500Y14261791D01*
X17020171Y14257762D01*
X17022772Y14242133D01*
X17023430Y14237514D01*
X17025042Y14223894D01*
X17029530Y14185974D01*
X17032835Y14179092D01*
X17033742Y14176223D01*
X17034996Y14168689D01*
X17059639Y14123018D01*
X17061753Y14118868D01*
X17084219Y14072083D01*
X17087814Y14067807D01*
X17089315Y14066306D01*
X17090090Y14065461D01*
X17091768Y14063473D01*
X17094990Y14057501D01*
X17134677Y14020815D01*
X17134943Y14020569D01*
X17137746Y14017875D01*
X18560875Y12594746D01*
X18574038Y12578445D01*
X18580744Y12568060D01*
X18587168Y12562996D01*
X18608362Y12546288D01*
X18614504Y12540830D01*
X18616383Y12539238D01*
X18619259Y12536362D01*
X18635502Y12524755D01*
X18639199Y12521979D01*
X18679962Y12489844D01*
X18687158Y12487317D01*
X18689842Y12485922D01*
X18696050Y12481486D01*
X18703886Y12479143D01*
X18703889Y12479141D01*
X18745789Y12466611D01*
X18750199Y12465178D01*
X18799166Y12447982D01*
X18804731Y12447500D01*
X18806872Y12447500D01*
X18807983Y12447452D01*
X18810589Y12447231D01*
X18817093Y12445286D01*
X18825264Y12445607D01*
X18825265Y12445607D01*
X18871499Y12447424D01*
X18875386Y12447500D01*
X22400682Y12447500D01*
X22458873Y12428593D01*
X22482851Y12403720D01*
X22487908Y12396195D01*
X22492319Y12392181D01*
X22492321Y12392179D01*
X22573781Y12318057D01*
X22605076Y12289581D01*
X22657342Y12261203D01*
X22739047Y12216840D01*
X22739049Y12216839D01*
X22744293Y12213992D01*
X22750067Y12212477D01*
X22750070Y12212476D01*
X22831174Y12191199D01*
X22897522Y12173793D01*
X22903491Y12173699D01*
X22903493Y12173699D01*
X22961502Y12172788D01*
X23055916Y12171305D01*
X23066779Y12173793D01*
X23204509Y12205337D01*
X23204512Y12205338D01*
X23210332Y12206671D01*
X23224889Y12213992D01*
X23327550Y12265625D01*
X23351855Y12277849D01*
X23455318Y12366215D01*
X23467776Y12376855D01*
X23467777Y12376856D01*
X23472314Y12380731D01*
X23547021Y12484696D01*
X23561271Y12504527D01*
X23561272Y12504529D01*
X23564755Y12509376D01*
X23573151Y12530260D01*
X23621618Y12650826D01*
X23621619Y12650828D01*
X23623842Y12656359D01*
X23646162Y12813193D01*
X23646307Y12827000D01*
X23627276Y12984267D01*
X23571280Y13132454D01*
X23567900Y13137372D01*
X23484933Y13258091D01*
X23484930Y13258094D01*
X23481553Y13263008D01*
X23372709Y13359984D01*
X23367729Y13364421D01*
X23367727Y13364422D01*
X23363275Y13368389D01*
X23358004Y13371180D01*
X23228548Y13439724D01*
X23228545Y13439725D01*
X23223274Y13442516D01*
X23136254Y13464374D01*
X23075423Y13479654D01*
X23075420Y13479654D01*
X23069633Y13481108D01*
X22989693Y13481527D01*
X22917187Y13481907D01*
X22917185Y13481907D01*
X22911221Y13481938D01*
X22757184Y13444957D01*
X22735006Y13433510D01*
X22621720Y13375039D01*
X22621718Y13375037D01*
X22616414Y13372300D01*
X22497039Y13268162D01*
X22493612Y13263285D01*
X22493605Y13263278D01*
X22483271Y13248574D01*
X22434342Y13211837D01*
X22402275Y13206500D01*
X19063517Y13206500D01*
X19005326Y13225407D01*
X18993513Y13235496D01*
X18319531Y13909478D01*
X18291754Y13963995D01*
X18301325Y14024427D01*
X18344590Y14067692D01*
X18391090Y14078470D01*
X18527045Y14076334D01*
X18527047Y14076334D01*
X18528916Y14076305D01*
X18528910Y14075938D01*
X18585336Y14063945D01*
X18597126Y14055955D01*
X18603045Y14051289D01*
X18609157Y14045859D01*
X18611055Y14044251D01*
X18613943Y14041363D01*
X18624252Y14033996D01*
X18630160Y14029774D01*
X18633890Y14026974D01*
X18674646Y13994845D01*
X18681843Y13992318D01*
X18684518Y13990928D01*
X18690733Y13986487D01*
X18707643Y13981430D01*
X18740458Y13971616D01*
X18744893Y13970175D01*
X18787977Y13955045D01*
X18787980Y13955044D01*
X18793850Y13952983D01*
X18799415Y13952501D01*
X18801558Y13952501D01*
X18802672Y13952453D01*
X18805273Y13952233D01*
X18811777Y13950288D01*
X18819953Y13950609D01*
X18819955Y13950609D01*
X18866169Y13952425D01*
X18870056Y13952501D01*
X22789954Y13952501D01*
X22810792Y13950283D01*
X22814877Y13949403D01*
X22814880Y13949403D01*
X22822877Y13947681D01*
X22857805Y13951815D01*
X22865970Y13952296D01*
X22868447Y13952501D01*
X22872525Y13952501D01*
X22884598Y13954511D01*
X22892183Y13955773D01*
X22896802Y13956431D01*
X22925399Y13959816D01*
X22948342Y13962531D01*
X22955224Y13965836D01*
X22958093Y13966743D01*
X22965627Y13967997D01*
X23011305Y13992643D01*
X23015455Y13994758D01*
X23062233Y14017220D01*
X23066509Y14020815D01*
X23068010Y14022316D01*
X23068855Y14023091D01*
X23070843Y14024769D01*
X23076815Y14027991D01*
X23094149Y14046742D01*
X23147530Y14076638D01*
X23168399Y14078528D01*
X23309916Y14076305D01*
X23348610Y14085167D01*
X23458509Y14110337D01*
X23458512Y14110338D01*
X23464332Y14111671D01*
X23478889Y14118992D01*
X23563383Y14161488D01*
X23605855Y14182849D01*
X23726314Y14285731D01*
X23787293Y14370592D01*
X23815271Y14409527D01*
X23815272Y14409529D01*
X23818755Y14414376D01*
X23822061Y14422598D01*
X23875618Y14555826D01*
X23875619Y14555828D01*
X23877842Y14561359D01*
X23899446Y14713159D01*
X23899706Y14714986D01*
X23899706Y14714992D01*
X23900162Y14718193D01*
X23900307Y14732000D01*
X23891247Y14806873D01*
X23881993Y14883345D01*
X23881992Y14883348D01*
X23881276Y14889267D01*
X23876645Y14901524D01*
X23827390Y15031870D01*
X23825280Y15037454D01*
X23805778Y15065830D01*
X23738933Y15163091D01*
X23738930Y15163094D01*
X23735553Y15168008D01*
X23654955Y15239818D01*
X23621729Y15269421D01*
X23621727Y15269422D01*
X23617275Y15273389D01*
X23612004Y15276180D01*
X23482548Y15344724D01*
X23482545Y15344725D01*
X23477274Y15347516D01*
X23396807Y15367728D01*
X23329423Y15384654D01*
X23329420Y15384654D01*
X23323633Y15386108D01*
X23243693Y15386527D01*
X23171187Y15386907D01*
X23171185Y15386907D01*
X23165221Y15386938D01*
X23011184Y15349957D01*
X22938024Y15312196D01*
X22875720Y15280039D01*
X22875718Y15280037D01*
X22870414Y15277300D01*
X22751039Y15173162D01*
X22659950Y15043556D01*
X22602406Y14895963D01*
X22590678Y14806873D01*
X22589454Y14797579D01*
X22563113Y14742354D01*
X22509343Y14713159D01*
X22491301Y14711501D01*
X21268065Y14711501D01*
X21209874Y14730408D01*
X21173910Y14779908D01*
X21173910Y14841094D01*
X21187669Y14868271D01*
X21206089Y14893906D01*
X21206090Y14893907D01*
X21209576Y14898759D01*
X21217636Y14918807D01*
X21266439Y15040209D01*
X21266440Y15040211D01*
X21268663Y15045742D01*
X21271522Y15065830D01*
X21290527Y15199369D01*
X21290527Y15199375D01*
X21290983Y15202576D01*
X21291128Y15216383D01*
X21280515Y15304083D01*
X21272814Y15367728D01*
X21272813Y15367731D01*
X21272097Y15373650D01*
X21267466Y15385907D01*
X21219388Y15513139D01*
X21216101Y15521837D01*
X21137006Y15636922D01*
X21129754Y15647474D01*
X21129751Y15647477D01*
X21126374Y15652391D01*
X21078325Y15695201D01*
X21044463Y15725371D01*
X21013593Y15778198D01*
X21011321Y15799288D01*
X21011321Y16623619D01*
X21030228Y16681810D01*
X21040317Y16693623D01*
X21822254Y17475560D01*
X21838555Y17488723D01*
X21848940Y17495429D01*
X21870712Y17523047D01*
X21876148Y17529165D01*
X21877751Y17531057D01*
X21880638Y17533944D01*
X21892227Y17550161D01*
X21895027Y17553891D01*
X21922092Y17588223D01*
X21922093Y17588224D01*
X21927156Y17594647D01*
X21929683Y17601844D01*
X21931073Y17604519D01*
X21935514Y17610734D01*
X21950386Y17660463D01*
X21951826Y17664894D01*
X21966956Y17707978D01*
X21966957Y17707981D01*
X21969018Y17713851D01*
X21969500Y17719416D01*
X21969500Y17721559D01*
X21969548Y17722673D01*
X21969768Y17725274D01*
X21971713Y17731778D01*
X21969866Y17778802D01*
X21969576Y17786170D01*
X21969500Y17790057D01*
X21969500Y17934937D01*
X21988407Y17993128D01*
X22037907Y18029092D01*
X22072933Y18032887D01*
X22072933Y18033500D01*
X23298797Y18033501D01*
X23356988Y18014594D01*
X23368801Y18004505D01*
X24229504Y17143802D01*
X24257281Y17089285D01*
X24258500Y17073798D01*
X24258500Y12237536D01*
X24239593Y12179345D01*
X24224582Y12162935D01*
X24148039Y12096162D01*
X24056950Y11966556D01*
X23999406Y11818963D01*
X23978729Y11661904D01*
X23979384Y11655971D01*
X23979384Y11655967D01*
X23990398Y11556212D01*
X23996113Y11504447D01*
X23998165Y11498840D01*
X24048501Y11361287D01*
X24048503Y11361283D01*
X24050553Y11355681D01*
X24138908Y11224195D01*
X24143319Y11220181D01*
X24143321Y11220179D01*
X24251661Y11121598D01*
X24256076Y11117581D01*
X24386372Y11046836D01*
X24428489Y11002454D01*
X24436475Y10941792D01*
X24409137Y10889829D01*
X24407425Y10888117D01*
X24352908Y10860340D01*
X24336906Y10859122D01*
X24255427Y10859549D01*
X24187187Y10859907D01*
X24187185Y10859907D01*
X24181221Y10859938D01*
X24027184Y10822957D01*
X23964556Y10790632D01*
X23891720Y10753039D01*
X23891718Y10753037D01*
X23886414Y10750300D01*
X23767039Y10646162D01*
X23675950Y10516556D01*
X23661922Y10480576D01*
X23629692Y10397909D01*
X23618406Y10368963D01*
X23617627Y10363048D01*
X23617627Y10363047D01*
X23615758Y10348853D01*
X23597729Y10211904D01*
X23598384Y10205971D01*
X23598384Y10205967D01*
X23610252Y10098475D01*
X23615113Y10054447D01*
X23617165Y10048840D01*
X23667501Y9911287D01*
X23667503Y9911283D01*
X23669553Y9905681D01*
X23672882Y9900727D01*
X23745799Y9792215D01*
X23762562Y9733370D01*
X23741535Y9675911D01*
X23690750Y9641786D01*
X23663628Y9637998D01*
X17736025Y9637998D01*
X17677834Y9656905D01*
X17641870Y9706405D01*
X17637742Y9725104D01*
X17629934Y9789626D01*
X17626771Y9815764D01*
X17570775Y9963951D01*
X17504501Y10060381D01*
X17484428Y10089588D01*
X17484425Y10089591D01*
X17481048Y10094505D01*
X17412094Y10155940D01*
X17367224Y10195918D01*
X17367222Y10195919D01*
X17362770Y10199886D01*
X17357499Y10202677D01*
X17228043Y10271221D01*
X17228040Y10271222D01*
X17222769Y10274013D01*
X17145949Y10293309D01*
X17074918Y10311151D01*
X17074915Y10311151D01*
X17069128Y10312605D01*
X16989188Y10313024D01*
X16916682Y10313404D01*
X16916680Y10313404D01*
X16910716Y10313435D01*
X16756679Y10276454D01*
X16732557Y10264004D01*
X16672178Y10254116D01*
X16617516Y10281607D01*
X16589453Y10335978D01*
X16588152Y10351977D01*
X16588152Y13203334D01*
X16607059Y13261525D01*
X16614277Y13270343D01*
X16614432Y13270511D01*
X16618966Y13274384D01*
X16648095Y13314921D01*
X16707923Y13398180D01*
X16707924Y13398182D01*
X16711407Y13403029D01*
X16723661Y13433510D01*
X16768270Y13544479D01*
X16768271Y13544481D01*
X16770494Y13550012D01*
X16772101Y13561301D01*
X16792358Y13703639D01*
X16792358Y13703645D01*
X16792814Y13706846D01*
X16792959Y13720653D01*
X16773928Y13877920D01*
X16744785Y13955045D01*
X16720042Y14020523D01*
X16717932Y14026107D01*
X16696356Y14057501D01*
X16631585Y14151744D01*
X16631582Y14151747D01*
X16628205Y14156661D01*
X16536613Y14238266D01*
X16514381Y14258074D01*
X16514379Y14258075D01*
X16509927Y14262042D01*
X16482623Y14276499D01*
X16375200Y14333377D01*
X16375197Y14333378D01*
X16369926Y14336169D01*
X16293106Y14355465D01*
X16222075Y14373307D01*
X16222072Y14373307D01*
X16216285Y14374761D01*
X16136345Y14375180D01*
X16063839Y14375560D01*
X16063837Y14375560D01*
X16057873Y14375591D01*
X15905610Y14339036D01*
X15844613Y14343837D01*
X15798088Y14383574D01*
X15783499Y14435301D01*
X15783499Y14877799D01*
X15802406Y14935990D01*
X15812495Y14947803D01*
X17410696Y16546004D01*
X17465213Y16573781D01*
X17480700Y16575000D01*
X18173453Y16575000D01*
X18194291Y16572782D01*
X18198376Y16571902D01*
X18198379Y16571902D01*
X18206376Y16570180D01*
X18241304Y16574314D01*
X18249469Y16574795D01*
X18251946Y16575000D01*
X18256024Y16575000D01*
X18268097Y16577010D01*
X18275682Y16578272D01*
X18280301Y16578930D01*
X18308898Y16582315D01*
X18331841Y16585030D01*
X18338723Y16588335D01*
X18341592Y16589242D01*
X18349126Y16590496D01*
X18394804Y16615142D01*
X18398954Y16617257D01*
X18440115Y16637022D01*
X18445732Y16639719D01*
X18450008Y16643314D01*
X18451509Y16644815D01*
X18452354Y16645590D01*
X18454342Y16647268D01*
X18460314Y16650490D01*
X18497247Y16690444D01*
X18499940Y16693246D01*
X19811198Y18004504D01*
X19865715Y18032281D01*
X19881202Y18033500D01*
X20487368Y18033501D01*
X21067799Y18033501D01*
X21125990Y18014594D01*
G37*
%TD.AperFunction*%
%TD*%
M02*
