%TF.GenerationSoftware,KiCad,Pcbnew,6.0.4-6f826c9f35~116~ubuntu20.04.1*%
%TF.CreationDate,2022-05-22T10:19:14+00:00*%
%TF.ProjectId,USB232R02A,55534232-3332-4523-9032-412e6b696361,rev?*%
%TF.SameCoordinates,Original*%
%TF.FileFunction,Legend,Bot*%
%TF.FilePolarity,Positive*%
%FSLAX46Y46*%
G04 Gerber Fmt 4.6, Leading zero omitted, Abs format (unit mm)*
G04 Created by KiCad (PCBNEW 6.0.4-6f826c9f35~116~ubuntu20.04.1) date 2022-05-22 10:19:14*
%MOMM*%
%LPD*%
G01*
G04 APERTURE LIST*
%ADD10C,0.150000*%
%ADD11C,0.304800*%
%ADD12C,0.120000*%
G04 APERTURE END LIST*
D10*
%TO.C,U2*%
X156102380Y-98482095D02*
X156911904Y-98482095D01*
X157007142Y-98529714D01*
X157054761Y-98577333D01*
X157102380Y-98672571D01*
X157102380Y-98863047D01*
X157054761Y-98958285D01*
X157007142Y-99005904D01*
X156911904Y-99053523D01*
X156102380Y-99053523D01*
X156197619Y-99482095D02*
X156150000Y-99529714D01*
X156102380Y-99624952D01*
X156102380Y-99863047D01*
X156150000Y-99958285D01*
X156197619Y-100005904D01*
X156292857Y-100053523D01*
X156388095Y-100053523D01*
X156530952Y-100005904D01*
X157102380Y-99434476D01*
X157102380Y-100053523D01*
%TO.C,U1*%
X145989404Y-93121380D02*
X145989404Y-93930904D01*
X145941785Y-94026142D01*
X145894166Y-94073761D01*
X145798928Y-94121380D01*
X145608452Y-94121380D01*
X145513214Y-94073761D01*
X145465595Y-94026142D01*
X145417976Y-93930904D01*
X145417976Y-93121380D01*
X144417976Y-94121380D02*
X144989404Y-94121380D01*
X144703690Y-94121380D02*
X144703690Y-93121380D01*
X144798928Y-93264238D01*
X144894166Y-93359476D01*
X144989404Y-93407095D01*
%TO.C,D1*%
X133482380Y-102823904D02*
X132482380Y-102823904D01*
X132482380Y-103062000D01*
X132530000Y-103204857D01*
X132625238Y-103300095D01*
X132720476Y-103347714D01*
X132910952Y-103395333D01*
X133053809Y-103395333D01*
X133244285Y-103347714D01*
X133339523Y-103300095D01*
X133434761Y-103204857D01*
X133482380Y-103062000D01*
X133482380Y-102823904D01*
X133482380Y-104347714D02*
X133482380Y-103776285D01*
X133482380Y-104062000D02*
X132482380Y-104062000D01*
X132625238Y-103966761D01*
X132720476Y-103871523D01*
X132768095Y-103776285D01*
D11*
%TO.C,F1*%
X136078000Y-95960142D02*
X136586000Y-95960142D01*
X136586000Y-96758428D02*
X136586000Y-95234428D01*
X135860285Y-95234428D01*
X134481428Y-96758428D02*
X135352285Y-96758428D01*
X134916857Y-96758428D02*
X134916857Y-95234428D01*
X135062000Y-95452142D01*
X135207142Y-95597285D01*
X135352285Y-95669857D01*
D10*
%TO.C,JP1*%
X155320380Y-103759666D02*
X156034666Y-103759666D01*
X156177523Y-103712047D01*
X156272761Y-103616809D01*
X156320380Y-103473952D01*
X156320380Y-103378714D01*
X156320380Y-104235857D02*
X155320380Y-104235857D01*
X155320380Y-104616809D01*
X155368000Y-104712047D01*
X155415619Y-104759666D01*
X155510857Y-104807285D01*
X155653714Y-104807285D01*
X155748952Y-104759666D01*
X155796571Y-104712047D01*
X155844190Y-104616809D01*
X155844190Y-104235857D01*
X156320380Y-105759666D02*
X156320380Y-105188238D01*
X156320380Y-105473952D02*
X155320380Y-105473952D01*
X155463238Y-105378714D01*
X155558476Y-105283476D01*
X155606095Y-105188238D01*
%TO.C,R3*%
X141221500Y-87941000D02*
X141221500Y-86417000D01*
D12*
X139316500Y-87941000D02*
X140078500Y-87941000D01*
D10*
X138173500Y-86417000D02*
X138173500Y-87941000D01*
D12*
X139316500Y-86417000D02*
X140078500Y-86417000D01*
D10*
%TO.C,C3*%
X150429000Y-93592500D02*
X148905000Y-93592500D01*
D12*
X150429000Y-95497500D02*
X150429000Y-94735500D01*
X148905000Y-95497500D02*
X148905000Y-94735500D01*
D10*
X148905000Y-96640500D02*
X150429000Y-96640500D01*
%TO.C,FB1*%
X132268000Y-101085500D02*
X133792000Y-101085500D01*
D12*
X132268000Y-99180500D02*
X132268000Y-99942500D01*
D10*
X133792000Y-98037500D02*
X132268000Y-98037500D01*
D12*
X133792000Y-99180500D02*
X133792000Y-99942500D01*
D10*
%TO.C,C1*%
X130553500Y-95307000D02*
X130553500Y-96831000D01*
D12*
X132458500Y-96831000D02*
X131696500Y-96831000D01*
X132458500Y-95307000D02*
X131696500Y-95307000D01*
D10*
X133601500Y-96831000D02*
X133601500Y-95307000D01*
D12*
%TO.C,R2*%
X159255500Y-93529000D02*
X160017500Y-93529000D01*
X159255500Y-95053000D02*
X160017500Y-95053000D01*
D10*
X161160500Y-95053000D02*
X161160500Y-93529000D01*
X158112500Y-93529000D02*
X158112500Y-95053000D01*
D12*
%TO.C,U2*%
X151240000Y-100629000D02*
X151240000Y-101354000D01*
X155460000Y-97859000D02*
X155460000Y-97134000D01*
X155460000Y-97134000D02*
X154735000Y-97134000D01*
X151240000Y-101354000D02*
X151965000Y-101354000D01*
X151240000Y-97859000D02*
X151240000Y-97134000D01*
X151240000Y-97134000D02*
X151965000Y-97134000D01*
X155460000Y-100629000D02*
X155460000Y-101354000D01*
%TO.C,R1*%
X155699500Y-93529000D02*
X156461500Y-93529000D01*
X155699500Y-95053000D02*
X156461500Y-95053000D01*
D10*
X157604500Y-95053000D02*
X157604500Y-93529000D01*
X154556500Y-93529000D02*
X154556500Y-95053000D01*
%TO.C,C4*%
X151000500Y-93529000D02*
X151000500Y-95053000D01*
X154048500Y-95053000D02*
X154048500Y-93529000D01*
D12*
X152905500Y-95053000D02*
X152143500Y-95053000D01*
X152905500Y-93529000D02*
X152143500Y-93529000D01*
%TO.C,U1*%
X145227500Y-94509000D02*
X147027500Y-94509000D01*
X145227500Y-97629000D02*
X146027500Y-97629000D01*
X145227500Y-97629000D02*
X144427500Y-97629000D01*
X145227500Y-94509000D02*
X144427500Y-94509000D01*
D10*
%TO.C,C2*%
X131252000Y-98037500D02*
X129728000Y-98037500D01*
D12*
X131252000Y-99942500D02*
X131252000Y-99180500D01*
X129728000Y-99942500D02*
X129728000Y-99180500D01*
D10*
X129728000Y-101085500D02*
X131252000Y-101085500D01*
D12*
%TO.C,C5*%
X158938000Y-100895000D02*
X158176000Y-100895000D01*
X158938000Y-102419000D02*
X158176000Y-102419000D01*
D10*
X160081000Y-102419000D02*
X160081000Y-100895000D01*
X157033000Y-100895000D02*
X157033000Y-102419000D01*
D12*
%TO.C,D1*%
X136335000Y-105339000D02*
X130935000Y-105339000D01*
X136335000Y-102039000D02*
X130935000Y-102039000D01*
X136335000Y-102039000D02*
X136335000Y-105339000D01*
D10*
%TO.C,F1*%
X138573000Y-97466000D02*
X136287000Y-97466000D01*
X138573000Y-101022000D02*
X136287000Y-101022000D01*
D12*
%TO.C,JP1*%
X156668000Y-103893000D02*
X156668000Y-105293000D01*
X157968000Y-103193000D02*
X157368000Y-103193000D01*
X157368000Y-105993000D02*
X157968000Y-105993000D01*
X158668000Y-105293000D02*
X158668000Y-103893000D01*
X157968000Y-105993000D02*
G75*
G03*
X158668000Y-105293000I0J700000D01*
G01*
X156668000Y-105293000D02*
G75*
G03*
X157368000Y-105993000I700000J0D01*
G01*
X158668000Y-103893000D02*
G75*
G03*
X157968000Y-103193000I-699999J1D01*
G01*
X157368000Y-103193000D02*
G75*
G03*
X156668000Y-103893000I-1J-699999D01*
G01*
%TO.C,R4*%
X140881000Y-112838000D02*
X140119000Y-112838000D01*
D10*
X142024000Y-114362000D02*
X142024000Y-112838000D01*
X138976000Y-112838000D02*
X138976000Y-114362000D01*
D12*
X140881000Y-114362000D02*
X140119000Y-114362000D01*
%TD*%
M02*
