%TF.GenerationSoftware,KiCad,Pcbnew,6.0.11+dfsg-1~bpo11+1*%
%TF.CreationDate,2023-04-14T01:21:42+00:00*%
%TF.ProjectId,USB232R02,55534232-3332-4523-9032-2e6b69636164,rev?*%
%TF.SameCoordinates,PX7f790e8PY698c050*%
%TF.FileFunction,Soldermask,Top*%
%TF.FilePolarity,Negative*%
%FSLAX46Y46*%
G04 Gerber Fmt 4.6, Leading zero omitted, Abs format (unit mm)*
G04 Created by KiCad (PCBNEW 6.0.11+dfsg-1~bpo11+1) date 2023-04-14 01:21:42*
%MOMM*%
%LPD*%
G01*
G04 APERTURE LIST*
G04 Aperture macros list*
%AMRoundRect*
0 Rectangle with rounded corners*
0 $1 Rounding radius*
0 $2 $3 $4 $5 $6 $7 $8 $9 X,Y pos of 4 corners*
0 Add a 4 corners polygon primitive as box body*
4,1,4,$2,$3,$4,$5,$6,$7,$8,$9,$2,$3,0*
0 Add four circle primitives for the rounded corners*
1,1,$1+$1,$2,$3*
1,1,$1+$1,$4,$5*
1,1,$1+$1,$6,$7*
1,1,$1+$1,$8,$9*
0 Add four rect primitives between the rounded corners*
20,1,$1+$1,$2,$3,$4,$5,0*
20,1,$1+$1,$4,$5,$6,$7,0*
20,1,$1+$1,$6,$7,$8,$9,0*
20,1,$1+$1,$8,$9,$2,$3,0*%
G04 Aperture macros list end*
%ADD10RoundRect,0.200000X0.850000X0.850000X-0.850000X0.850000X-0.850000X-0.850000X0.850000X-0.850000X0*%
%ADD11C,2.100000*%
%ADD12C,3.900000*%
%ADD13RoundRect,0.200000X-0.762000X-0.762000X0.762000X-0.762000X0.762000X0.762000X-0.762000X0.762000X0*%
%ADD14RoundRect,0.200000X0.762000X-0.762000X0.762000X0.762000X-0.762000X0.762000X-0.762000X-0.762000X0*%
%ADD15RoundRect,0.200000X-0.762000X0.762000X-0.762000X-0.762000X0.762000X-0.762000X0.762000X0.762000X0*%
%ADD16RoundRect,0.200000X0.762000X0.762000X-0.762000X0.762000X-0.762000X-0.762000X0.762000X-0.762000X0*%
%ADD17C,6.400000*%
%ADD18C,2.700000*%
G04 APERTURE END LIST*
D10*
%TO.C,J1*%
X10414000Y8763000D03*
D11*
X10414000Y11263000D03*
X8414000Y11263000D03*
X8414000Y8763000D03*
D12*
X5704000Y3993000D03*
X5704000Y16033000D03*
%TD*%
D13*
%TO.C,J17*%
X29210000Y5080000D03*
X31750000Y5080000D03*
%TD*%
%TO.C,J6*%
X29210000Y12700000D03*
X31750000Y12700000D03*
%TD*%
%TO.C,J5*%
X29210000Y15240000D03*
X31750000Y15240000D03*
%TD*%
D14*
%TO.C,J12*%
X15240000Y19050000D03*
X15240000Y21590000D03*
%TD*%
%TO.C,J3*%
X20320000Y-1270000D03*
X20320000Y1270000D03*
X22860000Y-1270000D03*
X22860000Y1270000D03*
X25400000Y-1270000D03*
X25400000Y1270000D03*
%TD*%
D13*
%TO.C,J14*%
X10160000Y21590000D03*
%TD*%
D15*
%TO.C,J13*%
X12700000Y21590000D03*
%TD*%
D13*
%TO.C,J8*%
X29210000Y10160000D03*
X31750000Y10160000D03*
%TD*%
D14*
%TO.C,J15*%
X10160000Y19050000D03*
%TD*%
%TO.C,J10*%
X17780000Y19050000D03*
X17780000Y21590000D03*
%TD*%
D13*
%TO.C,J7*%
X29210000Y7620000D03*
X31750000Y7620000D03*
%TD*%
D16*
%TO.C,J16*%
X12700000Y19050000D03*
%TD*%
D14*
%TO.C,J4*%
X25400000Y19050000D03*
X25400000Y21590000D03*
%TD*%
%TO.C,J11*%
X20320000Y19050000D03*
X20320000Y21590000D03*
%TD*%
%TO.C,J9*%
X22860000Y19050000D03*
X22860000Y21590000D03*
%TD*%
%TO.C,J2*%
X11430000Y-1270000D03*
X11430000Y1270000D03*
X13970000Y-1270000D03*
X13970000Y1270000D03*
X16510000Y-1270000D03*
X16510000Y1270000D03*
%TD*%
D17*
%TO.C,H3*%
X0Y0D03*
%TD*%
%TO.C,H4*%
X30480000Y0D03*
%TD*%
D18*
%TO.C,D2*%
X6350000Y20320000D03*
%TD*%
D17*
%TO.C,H1*%
X30480000Y20320000D03*
%TD*%
%TO.C,H2*%
X0Y20320000D03*
%TD*%
D18*
%TO.C,D3*%
X6350000Y0D03*
%TD*%
M02*
