%TF.GenerationSoftware,KiCad,Pcbnew,6.0.4-6f826c9f35~116~ubuntu20.04.1*%
%TF.CreationDate,2022-10-04T08:47:58+00:00*%
%TF.ProjectId,USB232R02A,55534232-3332-4523-9032-412e6b696361,rev?*%
%TF.SameCoordinates,PX7f790e8PY698c050*%
%TF.FileFunction,Legend,Top*%
%TF.FilePolarity,Positive*%
%FSLAX46Y46*%
G04 Gerber Fmt 4.6, Leading zero omitted, Abs format (unit mm)*
G04 Created by KiCad (PCBNEW 6.0.4-6f826c9f35~116~ubuntu20.04.1) date 2022-10-04 08:47:58*
%MOMM*%
%LPD*%
G01*
G04 APERTURE LIST*
%ADD10C,0.150000*%
%ADD11C,0.300000*%
%ADD12C,0.120000*%
G04 APERTURE END LIST*
D10*
X17907000Y3429000D02*
X21844000Y3429000D01*
X17907000Y7493000D02*
X17907000Y3429000D01*
X21844000Y5461000D02*
X17907000Y5461000D01*
X21844000Y3429000D02*
X21844000Y7493000D01*
X21844000Y7493000D02*
X17907000Y7493000D01*
X19875500Y7493000D02*
X19875500Y3429000D01*
D11*
X23138571Y17337381D02*
X23138571Y16408810D01*
X23695714Y16965953D02*
X22024285Y17337381D01*
X22581428Y16532620D02*
X22581428Y17461191D01*
X22024285Y16904048D02*
X23695714Y16532620D01*
X22271904Y15975477D02*
X23571904Y15975477D01*
X23571904Y15665953D01*
X23510000Y15480239D01*
X23386190Y15356429D01*
X23262380Y15294524D01*
X23014761Y15232620D01*
X22829047Y15232620D01*
X22581428Y15294524D01*
X22457619Y15356429D01*
X22333809Y15480239D01*
X22271904Y15665953D01*
X22271904Y15975477D01*
X23571904Y14861191D02*
X23571904Y14118334D01*
X22271904Y14489762D02*
X23571904Y14489762D01*
X22271904Y12942143D02*
X22890952Y13375477D01*
X22271904Y13685000D02*
X23571904Y13685000D01*
X23571904Y13189762D01*
X23510000Y13065953D01*
X23448095Y13004048D01*
X23324285Y12942143D01*
X23138571Y12942143D01*
X23014761Y13004048D01*
X22952857Y13065953D01*
X22890952Y13189762D01*
X22890952Y13685000D01*
X23164047Y7898572D02*
X24092619Y7898572D01*
X23535476Y8455715D02*
X23164047Y6784286D01*
X23968809Y7341429D02*
X23040238Y7341429D01*
X23597380Y6784286D02*
X23968809Y8455715D01*
X25268809Y7031905D02*
X24835476Y7650953D01*
X24525952Y7031905D02*
X24525952Y8331905D01*
X25021190Y8331905D01*
X25145000Y8270000D01*
X25206904Y8208096D01*
X25268809Y8084286D01*
X25268809Y7898572D01*
X25206904Y7774762D01*
X25145000Y7712858D01*
X25021190Y7650953D01*
X24525952Y7650953D01*
X25640238Y8331905D02*
X26383095Y8331905D01*
X26011666Y7031905D02*
X26011666Y8331905D01*
X26754523Y7093810D02*
X26940238Y7031905D01*
X27249761Y7031905D01*
X27373571Y7093810D01*
X27435476Y7155715D01*
X27497380Y7279524D01*
X27497380Y7403334D01*
X27435476Y7527143D01*
X27373571Y7589048D01*
X27249761Y7650953D01*
X27002142Y7712858D01*
X26878333Y7774762D01*
X26816428Y7836667D01*
X26754523Y7960477D01*
X26754523Y8084286D01*
X26816428Y8208096D01*
X26878333Y8270000D01*
X27002142Y8331905D01*
X27311666Y8331905D01*
X27497380Y8270000D01*
X27381904Y16230477D02*
X27381904Y15487620D01*
X26081904Y15859048D02*
X27381904Y15859048D01*
X27381904Y15178096D02*
X26081904Y14311429D01*
X27381904Y14311429D02*
X26081904Y15178096D01*
X18264380Y8105715D02*
X18202476Y8043810D01*
X18016761Y7981905D01*
X17892952Y7981905D01*
X17707238Y8043810D01*
X17583428Y8167620D01*
X17521523Y8291429D01*
X17459619Y8539048D01*
X17459619Y8724762D01*
X17521523Y8972381D01*
X17583428Y9096191D01*
X17707238Y9220000D01*
X17892952Y9281905D01*
X18016761Y9281905D01*
X18202476Y9220000D01*
X18264380Y9158096D01*
X19254857Y8662858D02*
X19440571Y8600953D01*
X19502476Y8539048D01*
X19564380Y8415239D01*
X19564380Y8229524D01*
X19502476Y8105715D01*
X19440571Y8043810D01*
X19316761Y7981905D01*
X18821523Y7981905D01*
X18821523Y9281905D01*
X19254857Y9281905D01*
X19378666Y9220000D01*
X19440571Y9158096D01*
X19502476Y9034286D01*
X19502476Y8910477D01*
X19440571Y8786667D01*
X19378666Y8724762D01*
X19254857Y8662858D01*
X18821523Y8662858D01*
X20121523Y9281905D02*
X20121523Y8229524D01*
X20183428Y8105715D01*
X20245333Y8043810D01*
X20369142Y7981905D01*
X20616761Y7981905D01*
X20740571Y8043810D01*
X20802476Y8105715D01*
X20864380Y8229524D01*
X20864380Y9281905D01*
X21421523Y8043810D02*
X21607238Y7981905D01*
X21916761Y7981905D01*
X22040571Y8043810D01*
X22102476Y8105715D01*
X22164380Y8229524D01*
X22164380Y8353334D01*
X22102476Y8477143D01*
X22040571Y8539048D01*
X21916761Y8600953D01*
X21669142Y8662858D01*
X21545333Y8724762D01*
X21483428Y8786667D01*
X21421523Y8910477D01*
X21421523Y9034286D01*
X21483428Y9158096D01*
X21545333Y9220000D01*
X21669142Y9281905D01*
X21978666Y9281905D01*
X22164380Y9220000D01*
X19069142Y5888905D02*
X18326285Y5888905D01*
X18697714Y5888905D02*
X18697714Y7188905D01*
X18573904Y7003191D01*
X18450095Y6879381D01*
X18326285Y6817477D01*
X20864380Y7188905D02*
X20988190Y7188905D01*
X21112000Y7127000D01*
X21173904Y7065096D01*
X21235809Y6941286D01*
X21297714Y6693667D01*
X21297714Y6384143D01*
X21235809Y6136524D01*
X21173904Y6012715D01*
X21112000Y5950810D01*
X20988190Y5888905D01*
X20864380Y5888905D01*
X20740571Y5950810D01*
X20678666Y6012715D01*
X20616761Y6136524D01*
X20554857Y6384143D01*
X20554857Y6693667D01*
X20616761Y6941286D01*
X20678666Y7065096D01*
X20740571Y7127000D01*
X20864380Y7188905D01*
X18326285Y4972096D02*
X18388190Y5034000D01*
X18512000Y5095905D01*
X18821523Y5095905D01*
X18945333Y5034000D01*
X19007238Y4972096D01*
X19069142Y4848286D01*
X19069142Y4724477D01*
X19007238Y4538762D01*
X18264380Y3795905D01*
X19069142Y3795905D01*
X20492952Y5095905D02*
X21297714Y5095905D01*
X20864380Y4600667D01*
X21050095Y4600667D01*
X21173904Y4538762D01*
X21235809Y4476858D01*
X21297714Y4353048D01*
X21297714Y4043524D01*
X21235809Y3919715D01*
X21173904Y3857810D01*
X21050095Y3795905D01*
X20678666Y3795905D01*
X20554857Y3857810D01*
X20492952Y3919715D01*
X25476904Y17461191D02*
X24176904Y17027858D01*
X25476904Y16594524D01*
X24176904Y16161191D02*
X25476904Y16161191D01*
X25476904Y15294524D02*
X25476904Y15046905D01*
X25415000Y14923096D01*
X25291190Y14799286D01*
X25043571Y14737381D01*
X24610238Y14737381D01*
X24362619Y14799286D01*
X24238809Y14923096D01*
X24176904Y15046905D01*
X24176904Y15294524D01*
X24238809Y15418334D01*
X24362619Y15542143D01*
X24610238Y15604048D01*
X25043571Y15604048D01*
X25291190Y15542143D01*
X25415000Y15418334D01*
X25476904Y15294524D01*
X13722380Y-3098095D02*
X13103333Y-3098095D01*
X13041428Y-3717142D01*
X13103333Y-3655238D01*
X13227142Y-3593333D01*
X13536666Y-3593333D01*
X13660476Y-3655238D01*
X13722380Y-3717142D01*
X13784285Y-3840952D01*
X13784285Y-4150476D01*
X13722380Y-4274285D01*
X13660476Y-4336190D01*
X13536666Y-4398095D01*
X13227142Y-4398095D01*
X13103333Y-4336190D01*
X13041428Y-4274285D01*
X14155714Y-3098095D02*
X14589047Y-4398095D01*
X15022380Y-3098095D01*
X26081904Y12916667D02*
X26700952Y13350000D01*
X26081904Y13659524D02*
X27381904Y13659524D01*
X27381904Y13164286D01*
X27320000Y13040477D01*
X27258095Y12978572D01*
X27134285Y12916667D01*
X26948571Y12916667D01*
X26824761Y12978572D01*
X26762857Y13040477D01*
X26700952Y13164286D01*
X26700952Y13659524D01*
X27381904Y12483334D02*
X26081904Y11616667D01*
X27381904Y11616667D02*
X26081904Y12483334D01*
X18058571Y17337381D02*
X18058571Y16408810D01*
X18615714Y16965953D02*
X16944285Y17337381D01*
X17501428Y16532620D02*
X17501428Y17461191D01*
X16944285Y16904048D02*
X18615714Y16532620D01*
X17191904Y15975477D02*
X18491904Y15975477D01*
X18491904Y15665953D01*
X18430000Y15480239D01*
X18306190Y15356429D01*
X18182380Y15294524D01*
X17934761Y15232620D01*
X17749047Y15232620D01*
X17501428Y15294524D01*
X17377619Y15356429D01*
X17253809Y15480239D01*
X17191904Y15665953D01*
X17191904Y15975477D01*
X17253809Y14737381D02*
X17191904Y14551667D01*
X17191904Y14242143D01*
X17253809Y14118334D01*
X17315714Y14056429D01*
X17439523Y13994524D01*
X17563333Y13994524D01*
X17687142Y14056429D01*
X17749047Y14118334D01*
X17810952Y14242143D01*
X17872857Y14489762D01*
X17934761Y14613572D01*
X17996666Y14675477D01*
X18120476Y14737381D01*
X18244285Y14737381D01*
X18368095Y14675477D01*
X18430000Y14613572D01*
X18491904Y14489762D01*
X18491904Y14180239D01*
X18430000Y13994524D01*
X17191904Y12694524D02*
X17810952Y13127858D01*
X17191904Y13437381D02*
X18491904Y13437381D01*
X18491904Y12942143D01*
X18430000Y12818334D01*
X18368095Y12756429D01*
X18244285Y12694524D01*
X18058571Y12694524D01*
X17934761Y12756429D01*
X17872857Y12818334D01*
X17810952Y12942143D01*
X17810952Y13437381D01*
X24773571Y5603000D02*
X24649761Y5664905D01*
X24464047Y5664905D01*
X24278333Y5603000D01*
X24154523Y5479191D01*
X24092619Y5355381D01*
X24030714Y5107762D01*
X24030714Y4922048D01*
X24092619Y4674429D01*
X24154523Y4550620D01*
X24278333Y4426810D01*
X24464047Y4364905D01*
X24587857Y4364905D01*
X24773571Y4426810D01*
X24835476Y4488715D01*
X24835476Y4922048D01*
X24587857Y4922048D01*
X25392619Y4364905D02*
X25392619Y5664905D01*
X26135476Y4364905D01*
X26135476Y5664905D01*
X26754523Y4364905D02*
X26754523Y5664905D01*
X27064047Y5664905D01*
X27249761Y5603000D01*
X27373571Y5479191D01*
X27435476Y5355381D01*
X27497380Y5107762D01*
X27497380Y4922048D01*
X27435476Y4674429D01*
X27373571Y4550620D01*
X27249761Y4426810D01*
X27064047Y4364905D01*
X26754523Y4364905D01*
X9756380Y23538715D02*
X9694476Y23476810D01*
X9508761Y23414905D01*
X9384952Y23414905D01*
X9199238Y23476810D01*
X9075428Y23600620D01*
X9013523Y23724429D01*
X8951619Y23972048D01*
X8951619Y24157762D01*
X9013523Y24405381D01*
X9075428Y24529191D01*
X9199238Y24653000D01*
X9384952Y24714905D01*
X9508761Y24714905D01*
X9694476Y24653000D01*
X9756380Y24591096D01*
X10746857Y24095858D02*
X10932571Y24033953D01*
X10994476Y23972048D01*
X11056380Y23848239D01*
X11056380Y23662524D01*
X10994476Y23538715D01*
X10932571Y23476810D01*
X10808761Y23414905D01*
X10313523Y23414905D01*
X10313523Y24714905D01*
X10746857Y24714905D01*
X10870666Y24653000D01*
X10932571Y24591096D01*
X10994476Y24467286D01*
X10994476Y24343477D01*
X10932571Y24219667D01*
X10870666Y24157762D01*
X10746857Y24095858D01*
X10313523Y24095858D01*
X11613523Y24714905D02*
X11613523Y23662524D01*
X11675428Y23538715D01*
X11737333Y23476810D01*
X11861142Y23414905D01*
X12108761Y23414905D01*
X12232571Y23476810D01*
X12294476Y23538715D01*
X12356380Y23662524D01*
X12356380Y24714905D01*
X12913523Y23476810D02*
X13099238Y23414905D01*
X13408761Y23414905D01*
X13532571Y23476810D01*
X13594476Y23538715D01*
X13656380Y23662524D01*
X13656380Y23786334D01*
X13594476Y23910143D01*
X13532571Y23972048D01*
X13408761Y24033953D01*
X13161142Y24095858D01*
X13037333Y24157762D01*
X12975428Y24219667D01*
X12913523Y24343477D01*
X12913523Y24467286D01*
X12975428Y24591096D01*
X13037333Y24653000D01*
X13161142Y24714905D01*
X13470666Y24714905D01*
X13656380Y24653000D01*
X15518571Y17337381D02*
X15518571Y16408810D01*
X16075714Y16965953D02*
X14404285Y17337381D01*
X14961428Y16532620D02*
X14961428Y17461191D01*
X14404285Y16904048D02*
X16075714Y16532620D01*
X14651904Y15232620D02*
X15270952Y15665953D01*
X14651904Y15975477D02*
X15951904Y15975477D01*
X15951904Y15480239D01*
X15890000Y15356429D01*
X15828095Y15294524D01*
X15704285Y15232620D01*
X15518571Y15232620D01*
X15394761Y15294524D01*
X15332857Y15356429D01*
X15270952Y15480239D01*
X15270952Y15975477D01*
X14651904Y14675477D02*
X15951904Y14675477D01*
X15131904Y13090239D02*
X16431904Y13090239D01*
X15503333Y12656905D01*
X16431904Y12223572D01*
X15131904Y12223572D01*
X15131904Y10985477D02*
X15131904Y11604524D01*
X16431904Y11604524D01*
X15503333Y10614048D02*
X15503333Y9995000D01*
X15131904Y10737858D02*
X16431904Y10304524D01*
X15131904Y9871191D01*
X15812857Y9004524D02*
X15750952Y8818810D01*
X15689047Y8756905D01*
X15565238Y8695000D01*
X15379523Y8695000D01*
X15255714Y8756905D01*
X15193809Y8818810D01*
X15131904Y8942620D01*
X15131904Y9437858D01*
X16431904Y9437858D01*
X16431904Y9004524D01*
X16370000Y8880715D01*
X16308095Y8818810D01*
X16184285Y8756905D01*
X16060476Y8756905D01*
X15936666Y8818810D01*
X15874761Y8880715D01*
X15812857Y9004524D01*
X15812857Y9437858D01*
X15255714Y8137858D02*
X15193809Y8075953D01*
X15131904Y8137858D01*
X15193809Y8199762D01*
X15255714Y8137858D01*
X15131904Y8137858D01*
X15255714Y6775953D02*
X15193809Y6837858D01*
X15131904Y7023572D01*
X15131904Y7147381D01*
X15193809Y7333096D01*
X15317619Y7456905D01*
X15441428Y7518810D01*
X15689047Y7580715D01*
X15874761Y7580715D01*
X16122380Y7518810D01*
X16246190Y7456905D01*
X16370000Y7333096D01*
X16431904Y7147381D01*
X16431904Y7023572D01*
X16370000Y6837858D01*
X16308095Y6775953D01*
X16431904Y6342620D02*
X16431904Y5475953D01*
X15131904Y6342620D01*
X15131904Y5475953D01*
X21250476Y-3098095D02*
X22055238Y-3098095D01*
X21621904Y-3593333D01*
X21807619Y-3593333D01*
X21931428Y-3655238D01*
X21993333Y-3717142D01*
X22055238Y-3840952D01*
X22055238Y-4150476D01*
X21993333Y-4274285D01*
X21931428Y-4336190D01*
X21807619Y-4398095D01*
X21436190Y-4398095D01*
X21312380Y-4336190D01*
X21250476Y-4274285D01*
X22426666Y-3098095D02*
X22860000Y-4398095D01*
X23293333Y-3098095D01*
X23602857Y-3098095D02*
X24407619Y-3098095D01*
X23974285Y-3593333D01*
X24160000Y-3593333D01*
X24283809Y-3655238D01*
X24345714Y-3717142D01*
X24407619Y-3840952D01*
X24407619Y-4150476D01*
X24345714Y-4274285D01*
X24283809Y-4336190D01*
X24160000Y-4398095D01*
X23788571Y-4398095D01*
X23664761Y-4336190D01*
X23602857Y-4274285D01*
X6133333Y22398905D02*
X5700000Y23017953D01*
X5390476Y22398905D02*
X5390476Y23698905D01*
X5885714Y23698905D01*
X6009523Y23637000D01*
X6071428Y23575096D01*
X6133333Y23451286D01*
X6133333Y23265572D01*
X6071428Y23141762D01*
X6009523Y23079858D01*
X5885714Y23017953D01*
X5390476Y23017953D01*
X6566666Y23698905D02*
X7433333Y22398905D01*
X7433333Y23698905D02*
X6566666Y22398905D01*
X5359523Y-2209095D02*
X6102380Y-2209095D01*
X5730952Y-3509095D02*
X5730952Y-2209095D01*
X6411904Y-2209095D02*
X7278571Y-3509095D01*
X7278571Y-2209095D02*
X6411904Y-3509095D01*
X20598571Y17337381D02*
X20598571Y16408810D01*
X21155714Y16965953D02*
X19484285Y17337381D01*
X20041428Y16532620D02*
X20041428Y17461191D01*
X19484285Y16904048D02*
X21155714Y16532620D01*
X19731904Y15975477D02*
X21031904Y15975477D01*
X21031904Y15665953D01*
X20970000Y15480239D01*
X20846190Y15356429D01*
X20722380Y15294524D01*
X20474761Y15232620D01*
X20289047Y15232620D01*
X20041428Y15294524D01*
X19917619Y15356429D01*
X19793809Y15480239D01*
X19731904Y15665953D01*
X19731904Y15975477D01*
X19855714Y13932620D02*
X19793809Y13994524D01*
X19731904Y14180239D01*
X19731904Y14304048D01*
X19793809Y14489762D01*
X19917619Y14613572D01*
X20041428Y14675477D01*
X20289047Y14737381D01*
X20474761Y14737381D01*
X20722380Y14675477D01*
X20846190Y14613572D01*
X20970000Y14489762D01*
X21031904Y14304048D01*
X21031904Y14180239D01*
X20970000Y13994524D01*
X20908095Y13932620D01*
X19731904Y13375477D02*
X21031904Y13375477D01*
X21031904Y13065953D01*
X20970000Y12880239D01*
X20846190Y12756429D01*
X20722380Y12694524D01*
X20474761Y12632620D01*
X20289047Y12632620D01*
X20041428Y12694524D01*
X19917619Y12756429D01*
X19793809Y12880239D01*
X19731904Y13065953D01*
X19731904Y13375477D01*
X537666Y11918405D02*
X537666Y10989834D01*
X475761Y10804120D01*
X351952Y10680310D01*
X166238Y10618405D01*
X42428Y10618405D01*
X1094809Y10989834D02*
X1713857Y10989834D01*
X971000Y10618405D02*
X1404333Y11918405D01*
X1837666Y10618405D01*
X3013857Y10742215D02*
X2951952Y10680310D01*
X2766238Y10618405D01*
X2642428Y10618405D01*
X2456714Y10680310D01*
X2332904Y10804120D01*
X2271000Y10927929D01*
X2209095Y11175548D01*
X2209095Y11361262D01*
X2271000Y11608881D01*
X2332904Y11732691D01*
X2456714Y11856500D01*
X2642428Y11918405D01*
X2766238Y11918405D01*
X2951952Y11856500D01*
X3013857Y11794596D01*
X3571000Y10618405D02*
X3571000Y11918405D01*
X3571000Y11299358D02*
X4313857Y11299358D01*
X4313857Y10618405D02*
X4313857Y11918405D01*
X5180523Y11918405D02*
X5428142Y11918405D01*
X5551952Y11856500D01*
X5675761Y11732691D01*
X5737666Y11485072D01*
X5737666Y11051739D01*
X5675761Y10804120D01*
X5551952Y10680310D01*
X5428142Y10618405D01*
X5180523Y10618405D01*
X5056714Y10680310D01*
X4932904Y10804120D01*
X4871000Y11051739D01*
X4871000Y11485072D01*
X4932904Y11732691D01*
X5056714Y11856500D01*
X5180523Y11918405D01*
X692428Y9701596D02*
X754333Y9763500D01*
X878142Y9825405D01*
X1187666Y9825405D01*
X1311476Y9763500D01*
X1373380Y9701596D01*
X1435285Y9577786D01*
X1435285Y9453977D01*
X1373380Y9268262D01*
X630523Y8525405D01*
X1435285Y8525405D01*
X2240047Y9825405D02*
X2363857Y9825405D01*
X2487666Y9763500D01*
X2549571Y9701596D01*
X2611476Y9577786D01*
X2673380Y9330167D01*
X2673380Y9020643D01*
X2611476Y8773024D01*
X2549571Y8649215D01*
X2487666Y8587310D01*
X2363857Y8525405D01*
X2240047Y8525405D01*
X2116238Y8587310D01*
X2054333Y8649215D01*
X1992428Y8773024D01*
X1930523Y9020643D01*
X1930523Y9330167D01*
X1992428Y9577786D01*
X2054333Y9701596D01*
X2116238Y9763500D01*
X2240047Y9825405D01*
X3168619Y9701596D02*
X3230523Y9763500D01*
X3354333Y9825405D01*
X3663857Y9825405D01*
X3787666Y9763500D01*
X3849571Y9701596D01*
X3911476Y9577786D01*
X3911476Y9453977D01*
X3849571Y9268262D01*
X3106714Y8525405D01*
X3911476Y8525405D01*
X4406714Y9701596D02*
X4468619Y9763500D01*
X4592428Y9825405D01*
X4901952Y9825405D01*
X5025761Y9763500D01*
X5087666Y9701596D01*
X5149571Y9577786D01*
X5149571Y9453977D01*
X5087666Y9268262D01*
X4344809Y8525405D01*
X5149571Y8525405D01*
X13881904Y15812858D02*
X12829523Y15812858D01*
X12705714Y15750953D01*
X12643809Y15689048D01*
X12581904Y15565239D01*
X12581904Y15317620D01*
X12643809Y15193810D01*
X12705714Y15131905D01*
X12829523Y15070000D01*
X13881904Y15070000D01*
X12643809Y14512858D02*
X12581904Y14327143D01*
X12581904Y14017620D01*
X12643809Y13893810D01*
X12705714Y13831905D01*
X12829523Y13770000D01*
X12953333Y13770000D01*
X13077142Y13831905D01*
X13139047Y13893810D01*
X13200952Y14017620D01*
X13262857Y14265239D01*
X13324761Y14389048D01*
X13386666Y14450953D01*
X13510476Y14512858D01*
X13634285Y14512858D01*
X13758095Y14450953D01*
X13820000Y14389048D01*
X13881904Y14265239D01*
X13881904Y13955715D01*
X13820000Y13770000D01*
X13262857Y12779524D02*
X13200952Y12593810D01*
X13139047Y12531905D01*
X13015238Y12470000D01*
X12829523Y12470000D01*
X12705714Y12531905D01*
X12643809Y12593810D01*
X12581904Y12717620D01*
X12581904Y13212858D01*
X13881904Y13212858D01*
X13881904Y12779524D01*
X13820000Y12655715D01*
X13758095Y12593810D01*
X13634285Y12531905D01*
X13510476Y12531905D01*
X13386666Y12593810D01*
X13324761Y12655715D01*
X13262857Y12779524D01*
X13262857Y13212858D01*
X13758095Y11974762D02*
X13820000Y11912858D01*
X13881904Y11789048D01*
X13881904Y11479524D01*
X13820000Y11355715D01*
X13758095Y11293810D01*
X13634285Y11231905D01*
X13510476Y11231905D01*
X13324761Y11293810D01*
X12581904Y12036667D01*
X12581904Y11231905D01*
X13881904Y10798572D02*
X13881904Y9993810D01*
X13386666Y10427143D01*
X13386666Y10241429D01*
X13324761Y10117620D01*
X13262857Y10055715D01*
X13139047Y9993810D01*
X12829523Y9993810D01*
X12705714Y10055715D01*
X12643809Y10117620D01*
X12581904Y10241429D01*
X12581904Y10612858D01*
X12643809Y10736667D01*
X12705714Y10798572D01*
X13758095Y9498572D02*
X13820000Y9436667D01*
X13881904Y9312858D01*
X13881904Y9003334D01*
X13820000Y8879524D01*
X13758095Y8817620D01*
X13634285Y8755715D01*
X13510476Y8755715D01*
X13324761Y8817620D01*
X12581904Y9560477D01*
X12581904Y8755715D01*
X12581904Y7455715D02*
X13200952Y7889048D01*
X12581904Y8198572D02*
X13881904Y8198572D01*
X13881904Y7703334D01*
X13820000Y7579524D01*
X13758095Y7517620D01*
X13634285Y7455715D01*
X13448571Y7455715D01*
X13324761Y7517620D01*
X13262857Y7579524D01*
X13200952Y7703334D01*
X13200952Y8198572D01*
X13881904Y6650953D02*
X13881904Y6527143D01*
X13820000Y6403334D01*
X13758095Y6341429D01*
X13634285Y6279524D01*
X13386666Y6217620D01*
X13077142Y6217620D01*
X12829523Y6279524D01*
X12705714Y6341429D01*
X12643809Y6403334D01*
X12581904Y6527143D01*
X12581904Y6650953D01*
X12643809Y6774762D01*
X12705714Y6836667D01*
X12829523Y6898572D01*
X13077142Y6960477D01*
X13386666Y6960477D01*
X13634285Y6898572D01*
X13758095Y6836667D01*
X13820000Y6774762D01*
X13881904Y6650953D01*
X13758095Y5722381D02*
X13820000Y5660477D01*
X13881904Y5536667D01*
X13881904Y5227143D01*
X13820000Y5103334D01*
X13758095Y5041429D01*
X13634285Y4979524D01*
X13510476Y4979524D01*
X13324761Y5041429D01*
X12581904Y5784286D01*
X12581904Y4979524D01*
X12953333Y4484286D02*
X12953333Y3865239D01*
X12581904Y4608096D02*
X13881904Y4174762D01*
X12581904Y3741429D01*
X23164047Y10438572D02*
X24092619Y10438572D01*
X23535476Y10995715D02*
X23164047Y9324286D01*
X23968809Y9881429D02*
X23040238Y9881429D01*
X23597380Y9324286D02*
X23968809Y10995715D01*
X25268809Y9695715D02*
X25206904Y9633810D01*
X25021190Y9571905D01*
X24897380Y9571905D01*
X24711666Y9633810D01*
X24587857Y9757620D01*
X24525952Y9881429D01*
X24464047Y10129048D01*
X24464047Y10314762D01*
X24525952Y10562381D01*
X24587857Y10686191D01*
X24711666Y10810000D01*
X24897380Y10871905D01*
X25021190Y10871905D01*
X25206904Y10810000D01*
X25268809Y10748096D01*
X25640238Y10871905D02*
X26383095Y10871905D01*
X26011666Y9571905D02*
X26011666Y10871905D01*
X26754523Y9633810D02*
X26940238Y9571905D01*
X27249761Y9571905D01*
X27373571Y9633810D01*
X27435476Y9695715D01*
X27497380Y9819524D01*
X27497380Y9943334D01*
X27435476Y10067143D01*
X27373571Y10129048D01*
X27249761Y10190953D01*
X27002142Y10252858D01*
X26878333Y10314762D01*
X26816428Y10376667D01*
X26754523Y10500477D01*
X26754523Y10624286D01*
X26816428Y10748096D01*
X26878333Y10810000D01*
X27002142Y10871905D01*
X27311666Y10871905D01*
X27497380Y10810000D01*
D10*
%TO.C,J1*%
X-3976620Y10334667D02*
X-3262334Y10334667D01*
X-3119477Y10287048D01*
X-3024239Y10191810D01*
X-2976620Y10048953D01*
X-2976620Y9953715D01*
X-2976620Y11334667D02*
X-2976620Y10763239D01*
X-2976620Y11048953D02*
X-3976620Y11048953D01*
X-3833762Y10953715D01*
X-3738524Y10858477D01*
X-3690905Y10763239D01*
D12*
X12014000Y16173000D02*
X7754000Y16173000D01*
X12014000Y3853000D02*
X12014000Y16173000D01*
X3654000Y3853000D02*
X-4706000Y3853000D01*
X7754000Y3853000D02*
X12014000Y3853000D01*
X-4706000Y16173000D02*
X3654000Y16173000D01*
X-4706000Y3853000D02*
X-4706000Y16173000D01*
D10*
%TO.C,J17*%
X27940000Y3810000D02*
X27940000Y6096000D01*
X33020000Y3810000D02*
X27940000Y3810000D01*
X33020000Y6096000D02*
X33020000Y3810000D01*
%TO.C,J6*%
X33020000Y11430000D02*
X27940000Y11430000D01*
X33020000Y13716000D02*
X33020000Y11430000D01*
X27940000Y11430000D02*
X27940000Y13716000D01*
%TO.C,J5*%
X27940000Y13970000D02*
X27940000Y16256000D01*
X33020000Y13970000D02*
X27940000Y13970000D01*
X33020000Y16256000D02*
X33020000Y13970000D01*
%TO.C,J12*%
X14224000Y22860000D02*
X16510000Y22860000D01*
X16510000Y17780000D02*
X14224000Y17780000D01*
X16510000Y22860000D02*
X16510000Y17780000D01*
%TO.C,J3*%
X26670000Y2540000D02*
X26670000Y-2540000D01*
X19050000Y-2540000D02*
X19050000Y2540000D01*
X19050000Y2540000D02*
X26670000Y2540000D01*
X26670000Y-2540000D02*
X19050000Y-2540000D01*
%TO.C,J14*%
X8890000Y20447000D02*
X8890000Y22733000D01*
X9017000Y22860000D02*
X11303000Y22860000D01*
%TO.C,J13*%
X13970000Y22733000D02*
X13970000Y20447000D01*
X11557000Y22860000D02*
X13843000Y22860000D01*
%TO.C,J8*%
X33020000Y8890000D02*
X27940000Y8890000D01*
X27940000Y8890000D02*
X27940000Y11176000D01*
X33020000Y11176000D02*
X33020000Y8890000D01*
%TO.C,J15*%
X11303000Y17780000D02*
X9017000Y17780000D01*
X8890000Y17907000D02*
X8890000Y20193000D01*
%TO.C,J10*%
X16764000Y22860000D02*
X19050000Y22860000D01*
X19050000Y17780000D02*
X16764000Y17780000D01*
X19050000Y22860000D02*
X19050000Y17780000D01*
%TO.C,J7*%
X27940000Y6350000D02*
X27940000Y8636000D01*
X33020000Y8636000D02*
X33020000Y6350000D01*
X33020000Y6350000D02*
X27940000Y6350000D01*
%TO.C,J16*%
X13970000Y20193000D02*
X13970000Y17907000D01*
X13843000Y17780000D02*
X11557000Y17780000D01*
%TO.C,J4*%
X26670000Y17780000D02*
X24384000Y17780000D01*
X24384000Y22860000D02*
X26670000Y22860000D01*
X26670000Y22860000D02*
X26670000Y17780000D01*
%TO.C,J11*%
X21590000Y17780000D02*
X19304000Y17780000D01*
X21590000Y22860000D02*
X21590000Y17780000D01*
X19304000Y22860000D02*
X21590000Y22860000D01*
%TO.C,J9*%
X21844000Y22860000D02*
X24130000Y22860000D01*
X24130000Y17780000D02*
X21844000Y17780000D01*
X24130000Y22860000D02*
X24130000Y17780000D01*
%TO.C,J2*%
X17780000Y2540000D02*
X17780000Y-2540000D01*
X17780000Y-2540000D02*
X10160000Y-2540000D01*
X10160000Y-2540000D02*
X10160000Y2540000D01*
X10160000Y2540000D02*
X17780000Y2540000D01*
%TD*%
M02*
