%TF.GenerationSoftware,KiCad,Pcbnew,(5.99.0-9154-g0d2ee266a1)*%
%TF.CreationDate,2021-03-26T06:43:18+01:00*%
%TF.ProjectId,USB232R02A,55534232-3332-4523-9032-412e6b696361,rev?*%
%TF.SameCoordinates,Original*%
%TF.FileFunction,Legend,Top*%
%TF.FilePolarity,Positive*%
%FSLAX46Y46*%
G04 Gerber Fmt 4.6, Leading zero omitted, Abs format (unit mm)*
G04 Created by KiCad (PCBNEW (5.99.0-9154-g0d2ee266a1)) date 2021-03-26 06:43:18*
%MOMM*%
%LPD*%
G01*
G04 APERTURE LIST*
%ADD10C,0.150000*%
%ADD11C,0.300000*%
%ADD12C,0.120000*%
G04 APERTURE END LIST*
D10*
X22987000Y8509000D02*
X26924000Y8509000D01*
X22987000Y12573000D02*
X22987000Y8509000D01*
X26924000Y10541000D02*
X22987000Y10541000D01*
X26924000Y8509000D02*
X26924000Y12573000D01*
X26924000Y12573000D02*
X22987000Y12573000D01*
X24955500Y12573000D02*
X24955500Y8509000D01*
D11*
X28218571Y22417380D02*
X28218571Y21488809D01*
X28775714Y22045952D02*
X27104285Y22417380D01*
X27661428Y21612619D02*
X27661428Y22541190D01*
X27104285Y21984047D02*
X28775714Y21612619D01*
X27351904Y21055476D02*
X28651904Y21055476D01*
X28651904Y20745952D01*
X28590000Y20560238D01*
X28466190Y20436428D01*
X28342380Y20374523D01*
X28094761Y20312619D01*
X27909047Y20312619D01*
X27661428Y20374523D01*
X27537619Y20436428D01*
X27413809Y20560238D01*
X27351904Y20745952D01*
X27351904Y21055476D01*
X28651904Y19941190D02*
X28651904Y19198333D01*
X27351904Y19569761D02*
X28651904Y19569761D01*
X27351904Y18022142D02*
X27970952Y18455476D01*
X27351904Y18765000D02*
X28651904Y18765000D01*
X28651904Y18269761D01*
X28590000Y18145952D01*
X28528095Y18084047D01*
X28404285Y18022142D01*
X28218571Y18022142D01*
X28094761Y18084047D01*
X28032857Y18145952D01*
X27970952Y18269761D01*
X27970952Y18765000D01*
X28244047Y12978571D02*
X29172619Y12978571D01*
X28615476Y13535714D02*
X28244047Y11864285D01*
X29048809Y12421428D02*
X28120238Y12421428D01*
X28677380Y11864285D02*
X29048809Y13535714D01*
X30348809Y12111904D02*
X29915476Y12730952D01*
X29605952Y12111904D02*
X29605952Y13411904D01*
X30101190Y13411904D01*
X30225000Y13350000D01*
X30286904Y13288095D01*
X30348809Y13164285D01*
X30348809Y12978571D01*
X30286904Y12854761D01*
X30225000Y12792857D01*
X30101190Y12730952D01*
X29605952Y12730952D01*
X30720238Y13411904D02*
X31463095Y13411904D01*
X31091666Y12111904D02*
X31091666Y13411904D01*
X31834523Y12173809D02*
X32020238Y12111904D01*
X32329761Y12111904D01*
X32453571Y12173809D01*
X32515476Y12235714D01*
X32577380Y12359523D01*
X32577380Y12483333D01*
X32515476Y12607142D01*
X32453571Y12669047D01*
X32329761Y12730952D01*
X32082142Y12792857D01*
X31958333Y12854761D01*
X31896428Y12916666D01*
X31834523Y13040476D01*
X31834523Y13164285D01*
X31896428Y13288095D01*
X31958333Y13350000D01*
X32082142Y13411904D01*
X32391666Y13411904D01*
X32577380Y13350000D01*
X32461904Y21310476D02*
X32461904Y20567619D01*
X31161904Y20939047D02*
X32461904Y20939047D01*
X32461904Y20258095D02*
X31161904Y19391428D01*
X32461904Y19391428D02*
X31161904Y20258095D01*
X23344380Y13185714D02*
X23282476Y13123809D01*
X23096761Y13061904D01*
X22972952Y13061904D01*
X22787238Y13123809D01*
X22663428Y13247619D01*
X22601523Y13371428D01*
X22539619Y13619047D01*
X22539619Y13804761D01*
X22601523Y14052380D01*
X22663428Y14176190D01*
X22787238Y14300000D01*
X22972952Y14361904D01*
X23096761Y14361904D01*
X23282476Y14300000D01*
X23344380Y14238095D01*
X24334857Y13742857D02*
X24520571Y13680952D01*
X24582476Y13619047D01*
X24644380Y13495238D01*
X24644380Y13309523D01*
X24582476Y13185714D01*
X24520571Y13123809D01*
X24396761Y13061904D01*
X23901523Y13061904D01*
X23901523Y14361904D01*
X24334857Y14361904D01*
X24458666Y14300000D01*
X24520571Y14238095D01*
X24582476Y14114285D01*
X24582476Y13990476D01*
X24520571Y13866666D01*
X24458666Y13804761D01*
X24334857Y13742857D01*
X23901523Y13742857D01*
X25201523Y14361904D02*
X25201523Y13309523D01*
X25263428Y13185714D01*
X25325333Y13123809D01*
X25449142Y13061904D01*
X25696761Y13061904D01*
X25820571Y13123809D01*
X25882476Y13185714D01*
X25944380Y13309523D01*
X25944380Y14361904D01*
X26501523Y13123809D02*
X26687238Y13061904D01*
X26996761Y13061904D01*
X27120571Y13123809D01*
X27182476Y13185714D01*
X27244380Y13309523D01*
X27244380Y13433333D01*
X27182476Y13557142D01*
X27120571Y13619047D01*
X26996761Y13680952D01*
X26749142Y13742857D01*
X26625333Y13804761D01*
X26563428Y13866666D01*
X26501523Y13990476D01*
X26501523Y14114285D01*
X26563428Y14238095D01*
X26625333Y14300000D01*
X26749142Y14361904D01*
X27058666Y14361904D01*
X27244380Y14300000D01*
X24149142Y10968904D02*
X23406285Y10968904D01*
X23777714Y10968904D02*
X23777714Y12268904D01*
X23653904Y12083190D01*
X23530095Y11959380D01*
X23406285Y11897476D01*
X25944380Y12268904D02*
X26068190Y12268904D01*
X26192000Y12207000D01*
X26253904Y12145095D01*
X26315809Y12021285D01*
X26377714Y11773666D01*
X26377714Y11464142D01*
X26315809Y11216523D01*
X26253904Y11092714D01*
X26192000Y11030809D01*
X26068190Y10968904D01*
X25944380Y10968904D01*
X25820571Y11030809D01*
X25758666Y11092714D01*
X25696761Y11216523D01*
X25634857Y11464142D01*
X25634857Y11773666D01*
X25696761Y12021285D01*
X25758666Y12145095D01*
X25820571Y12207000D01*
X25944380Y12268904D01*
X23406285Y10052095D02*
X23468190Y10114000D01*
X23592000Y10175904D01*
X23901523Y10175904D01*
X24025333Y10114000D01*
X24087238Y10052095D01*
X24149142Y9928285D01*
X24149142Y9804476D01*
X24087238Y9618761D01*
X23344380Y8875904D01*
X24149142Y8875904D01*
X25572952Y10175904D02*
X26377714Y10175904D01*
X25944380Y9680666D01*
X26130095Y9680666D01*
X26253904Y9618761D01*
X26315809Y9556857D01*
X26377714Y9433047D01*
X26377714Y9123523D01*
X26315809Y8999714D01*
X26253904Y8937809D01*
X26130095Y8875904D01*
X25758666Y8875904D01*
X25634857Y8937809D01*
X25572952Y8999714D01*
X30556904Y22541190D02*
X29256904Y22107857D01*
X30556904Y21674523D01*
X29256904Y21241190D02*
X30556904Y21241190D01*
X30556904Y20374523D02*
X30556904Y20126904D01*
X30495000Y20003095D01*
X30371190Y19879285D01*
X30123571Y19817380D01*
X29690238Y19817380D01*
X29442619Y19879285D01*
X29318809Y20003095D01*
X29256904Y20126904D01*
X29256904Y20374523D01*
X29318809Y20498333D01*
X29442619Y20622142D01*
X29690238Y20684047D01*
X30123571Y20684047D01*
X30371190Y20622142D01*
X30495000Y20498333D01*
X30556904Y20374523D01*
X18802380Y1981904D02*
X18183333Y1981904D01*
X18121428Y1362857D01*
X18183333Y1424761D01*
X18307142Y1486666D01*
X18616666Y1486666D01*
X18740476Y1424761D01*
X18802380Y1362857D01*
X18864285Y1239047D01*
X18864285Y929523D01*
X18802380Y805714D01*
X18740476Y743809D01*
X18616666Y681904D01*
X18307142Y681904D01*
X18183333Y743809D01*
X18121428Y805714D01*
X19235714Y1981904D02*
X19669047Y681904D01*
X20102380Y1981904D01*
X31161904Y17996666D02*
X31780952Y18430000D01*
X31161904Y18739523D02*
X32461904Y18739523D01*
X32461904Y18244285D01*
X32400000Y18120476D01*
X32338095Y18058571D01*
X32214285Y17996666D01*
X32028571Y17996666D01*
X31904761Y18058571D01*
X31842857Y18120476D01*
X31780952Y18244285D01*
X31780952Y18739523D01*
X32461904Y17563333D02*
X31161904Y16696666D01*
X32461904Y16696666D02*
X31161904Y17563333D01*
X23138571Y22417380D02*
X23138571Y21488809D01*
X23695714Y22045952D02*
X22024285Y22417380D01*
X22581428Y21612619D02*
X22581428Y22541190D01*
X22024285Y21984047D02*
X23695714Y21612619D01*
X22271904Y21055476D02*
X23571904Y21055476D01*
X23571904Y20745952D01*
X23510000Y20560238D01*
X23386190Y20436428D01*
X23262380Y20374523D01*
X23014761Y20312619D01*
X22829047Y20312619D01*
X22581428Y20374523D01*
X22457619Y20436428D01*
X22333809Y20560238D01*
X22271904Y20745952D01*
X22271904Y21055476D01*
X22333809Y19817380D02*
X22271904Y19631666D01*
X22271904Y19322142D01*
X22333809Y19198333D01*
X22395714Y19136428D01*
X22519523Y19074523D01*
X22643333Y19074523D01*
X22767142Y19136428D01*
X22829047Y19198333D01*
X22890952Y19322142D01*
X22952857Y19569761D01*
X23014761Y19693571D01*
X23076666Y19755476D01*
X23200476Y19817380D01*
X23324285Y19817380D01*
X23448095Y19755476D01*
X23510000Y19693571D01*
X23571904Y19569761D01*
X23571904Y19260238D01*
X23510000Y19074523D01*
X22271904Y17774523D02*
X22890952Y18207857D01*
X22271904Y18517380D02*
X23571904Y18517380D01*
X23571904Y18022142D01*
X23510000Y17898333D01*
X23448095Y17836428D01*
X23324285Y17774523D01*
X23138571Y17774523D01*
X23014761Y17836428D01*
X22952857Y17898333D01*
X22890952Y18022142D01*
X22890952Y18517380D01*
X29853571Y10683000D02*
X29729761Y10744904D01*
X29544047Y10744904D01*
X29358333Y10683000D01*
X29234523Y10559190D01*
X29172619Y10435380D01*
X29110714Y10187761D01*
X29110714Y10002047D01*
X29172619Y9754428D01*
X29234523Y9630619D01*
X29358333Y9506809D01*
X29544047Y9444904D01*
X29667857Y9444904D01*
X29853571Y9506809D01*
X29915476Y9568714D01*
X29915476Y10002047D01*
X29667857Y10002047D01*
X30472619Y9444904D02*
X30472619Y10744904D01*
X31215476Y9444904D01*
X31215476Y10744904D01*
X31834523Y9444904D02*
X31834523Y10744904D01*
X32144047Y10744904D01*
X32329761Y10683000D01*
X32453571Y10559190D01*
X32515476Y10435380D01*
X32577380Y10187761D01*
X32577380Y10002047D01*
X32515476Y9754428D01*
X32453571Y9630619D01*
X32329761Y9506809D01*
X32144047Y9444904D01*
X31834523Y9444904D01*
X14836380Y28618714D02*
X14774476Y28556809D01*
X14588761Y28494904D01*
X14464952Y28494904D01*
X14279238Y28556809D01*
X14155428Y28680619D01*
X14093523Y28804428D01*
X14031619Y29052047D01*
X14031619Y29237761D01*
X14093523Y29485380D01*
X14155428Y29609190D01*
X14279238Y29733000D01*
X14464952Y29794904D01*
X14588761Y29794904D01*
X14774476Y29733000D01*
X14836380Y29671095D01*
X15826857Y29175857D02*
X16012571Y29113952D01*
X16074476Y29052047D01*
X16136380Y28928238D01*
X16136380Y28742523D01*
X16074476Y28618714D01*
X16012571Y28556809D01*
X15888761Y28494904D01*
X15393523Y28494904D01*
X15393523Y29794904D01*
X15826857Y29794904D01*
X15950666Y29733000D01*
X16012571Y29671095D01*
X16074476Y29547285D01*
X16074476Y29423476D01*
X16012571Y29299666D01*
X15950666Y29237761D01*
X15826857Y29175857D01*
X15393523Y29175857D01*
X16693523Y29794904D02*
X16693523Y28742523D01*
X16755428Y28618714D01*
X16817333Y28556809D01*
X16941142Y28494904D01*
X17188761Y28494904D01*
X17312571Y28556809D01*
X17374476Y28618714D01*
X17436380Y28742523D01*
X17436380Y29794904D01*
X17993523Y28556809D02*
X18179238Y28494904D01*
X18488761Y28494904D01*
X18612571Y28556809D01*
X18674476Y28618714D01*
X18736380Y28742523D01*
X18736380Y28866333D01*
X18674476Y28990142D01*
X18612571Y29052047D01*
X18488761Y29113952D01*
X18241142Y29175857D01*
X18117333Y29237761D01*
X18055428Y29299666D01*
X17993523Y29423476D01*
X17993523Y29547285D01*
X18055428Y29671095D01*
X18117333Y29733000D01*
X18241142Y29794904D01*
X18550666Y29794904D01*
X18736380Y29733000D01*
X20598571Y22417380D02*
X20598571Y21488809D01*
X21155714Y22045952D02*
X19484285Y22417380D01*
X20041428Y21612619D02*
X20041428Y22541190D01*
X19484285Y21984047D02*
X21155714Y21612619D01*
X19731904Y20312619D02*
X20350952Y20745952D01*
X19731904Y21055476D02*
X21031904Y21055476D01*
X21031904Y20560238D01*
X20970000Y20436428D01*
X20908095Y20374523D01*
X20784285Y20312619D01*
X20598571Y20312619D01*
X20474761Y20374523D01*
X20412857Y20436428D01*
X20350952Y20560238D01*
X20350952Y21055476D01*
X19731904Y19755476D02*
X21031904Y19755476D01*
X20211904Y18170238D02*
X21511904Y18170238D01*
X20583333Y17736904D01*
X21511904Y17303571D01*
X20211904Y17303571D01*
X20211904Y16065476D02*
X20211904Y16684523D01*
X21511904Y16684523D01*
X20583333Y15694047D02*
X20583333Y15075000D01*
X20211904Y15817857D02*
X21511904Y15384523D01*
X20211904Y14951190D01*
X20892857Y14084523D02*
X20830952Y13898809D01*
X20769047Y13836904D01*
X20645238Y13775000D01*
X20459523Y13775000D01*
X20335714Y13836904D01*
X20273809Y13898809D01*
X20211904Y14022619D01*
X20211904Y14517857D01*
X21511904Y14517857D01*
X21511904Y14084523D01*
X21450000Y13960714D01*
X21388095Y13898809D01*
X21264285Y13836904D01*
X21140476Y13836904D01*
X21016666Y13898809D01*
X20954761Y13960714D01*
X20892857Y14084523D01*
X20892857Y14517857D01*
X20335714Y13217857D02*
X20273809Y13155952D01*
X20211904Y13217857D01*
X20273809Y13279761D01*
X20335714Y13217857D01*
X20211904Y13217857D01*
X20335714Y11855952D02*
X20273809Y11917857D01*
X20211904Y12103571D01*
X20211904Y12227380D01*
X20273809Y12413095D01*
X20397619Y12536904D01*
X20521428Y12598809D01*
X20769047Y12660714D01*
X20954761Y12660714D01*
X21202380Y12598809D01*
X21326190Y12536904D01*
X21450000Y12413095D01*
X21511904Y12227380D01*
X21511904Y12103571D01*
X21450000Y11917857D01*
X21388095Y11855952D01*
X21511904Y11422619D02*
X21511904Y10555952D01*
X20211904Y11422619D01*
X20211904Y10555952D01*
X26330476Y1981904D02*
X27135238Y1981904D01*
X26701904Y1486666D01*
X26887619Y1486666D01*
X27011428Y1424761D01*
X27073333Y1362857D01*
X27135238Y1239047D01*
X27135238Y929523D01*
X27073333Y805714D01*
X27011428Y743809D01*
X26887619Y681904D01*
X26516190Y681904D01*
X26392380Y743809D01*
X26330476Y805714D01*
X27506666Y1981904D02*
X27940000Y681904D01*
X28373333Y1981904D01*
X28682857Y1981904D02*
X29487619Y1981904D01*
X29054285Y1486666D01*
X29240000Y1486666D01*
X29363809Y1424761D01*
X29425714Y1362857D01*
X29487619Y1239047D01*
X29487619Y929523D01*
X29425714Y805714D01*
X29363809Y743809D01*
X29240000Y681904D01*
X28868571Y681904D01*
X28744761Y743809D01*
X28682857Y805714D01*
X11213333Y27478904D02*
X10780000Y28097952D01*
X10470476Y27478904D02*
X10470476Y28778904D01*
X10965714Y28778904D01*
X11089523Y28717000D01*
X11151428Y28655095D01*
X11213333Y28531285D01*
X11213333Y28345571D01*
X11151428Y28221761D01*
X11089523Y28159857D01*
X10965714Y28097952D01*
X10470476Y28097952D01*
X11646666Y28778904D02*
X12513333Y27478904D01*
X12513333Y28778904D02*
X11646666Y27478904D01*
X10439523Y2870904D02*
X11182380Y2870904D01*
X10810952Y1570904D02*
X10810952Y2870904D01*
X11491904Y2870904D02*
X12358571Y1570904D01*
X12358571Y2870904D02*
X11491904Y1570904D01*
X25678571Y22417380D02*
X25678571Y21488809D01*
X26235714Y22045952D02*
X24564285Y22417380D01*
X25121428Y21612619D02*
X25121428Y22541190D01*
X24564285Y21984047D02*
X26235714Y21612619D01*
X24811904Y21055476D02*
X26111904Y21055476D01*
X26111904Y20745952D01*
X26050000Y20560238D01*
X25926190Y20436428D01*
X25802380Y20374523D01*
X25554761Y20312619D01*
X25369047Y20312619D01*
X25121428Y20374523D01*
X24997619Y20436428D01*
X24873809Y20560238D01*
X24811904Y20745952D01*
X24811904Y21055476D01*
X24935714Y19012619D02*
X24873809Y19074523D01*
X24811904Y19260238D01*
X24811904Y19384047D01*
X24873809Y19569761D01*
X24997619Y19693571D01*
X25121428Y19755476D01*
X25369047Y19817380D01*
X25554761Y19817380D01*
X25802380Y19755476D01*
X25926190Y19693571D01*
X26050000Y19569761D01*
X26111904Y19384047D01*
X26111904Y19260238D01*
X26050000Y19074523D01*
X25988095Y19012619D01*
X24811904Y18455476D02*
X26111904Y18455476D01*
X26111904Y18145952D01*
X26050000Y17960238D01*
X25926190Y17836428D01*
X25802380Y17774523D01*
X25554761Y17712619D01*
X25369047Y17712619D01*
X25121428Y17774523D01*
X24997619Y17836428D01*
X24873809Y17960238D01*
X24811904Y18145952D01*
X24811904Y18455476D01*
X5617666Y16998404D02*
X5617666Y16069833D01*
X5555761Y15884119D01*
X5431952Y15760309D01*
X5246238Y15698404D01*
X5122428Y15698404D01*
X6174809Y16069833D02*
X6793857Y16069833D01*
X6051000Y15698404D02*
X6484333Y16998404D01*
X6917666Y15698404D01*
X8093857Y15822214D02*
X8031952Y15760309D01*
X7846238Y15698404D01*
X7722428Y15698404D01*
X7536714Y15760309D01*
X7412904Y15884119D01*
X7351000Y16007928D01*
X7289095Y16255547D01*
X7289095Y16441261D01*
X7351000Y16688880D01*
X7412904Y16812690D01*
X7536714Y16936500D01*
X7722428Y16998404D01*
X7846238Y16998404D01*
X8031952Y16936500D01*
X8093857Y16874595D01*
X8651000Y15698404D02*
X8651000Y16998404D01*
X8651000Y16379357D02*
X9393857Y16379357D01*
X9393857Y15698404D02*
X9393857Y16998404D01*
X10260523Y16998404D02*
X10508142Y16998404D01*
X10631952Y16936500D01*
X10755761Y16812690D01*
X10817666Y16565071D01*
X10817666Y16131738D01*
X10755761Y15884119D01*
X10631952Y15760309D01*
X10508142Y15698404D01*
X10260523Y15698404D01*
X10136714Y15760309D01*
X10012904Y15884119D01*
X9951000Y16131738D01*
X9951000Y16565071D01*
X10012904Y16812690D01*
X10136714Y16936500D01*
X10260523Y16998404D01*
X5772428Y14781595D02*
X5834333Y14843500D01*
X5958142Y14905404D01*
X6267666Y14905404D01*
X6391476Y14843500D01*
X6453380Y14781595D01*
X6515285Y14657785D01*
X6515285Y14533976D01*
X6453380Y14348261D01*
X5710523Y13605404D01*
X6515285Y13605404D01*
X7320047Y14905404D02*
X7443857Y14905404D01*
X7567666Y14843500D01*
X7629571Y14781595D01*
X7691476Y14657785D01*
X7753380Y14410166D01*
X7753380Y14100642D01*
X7691476Y13853023D01*
X7629571Y13729214D01*
X7567666Y13667309D01*
X7443857Y13605404D01*
X7320047Y13605404D01*
X7196238Y13667309D01*
X7134333Y13729214D01*
X7072428Y13853023D01*
X7010523Y14100642D01*
X7010523Y14410166D01*
X7072428Y14657785D01*
X7134333Y14781595D01*
X7196238Y14843500D01*
X7320047Y14905404D01*
X8248619Y14781595D02*
X8310523Y14843500D01*
X8434333Y14905404D01*
X8743857Y14905404D01*
X8867666Y14843500D01*
X8929571Y14781595D01*
X8991476Y14657785D01*
X8991476Y14533976D01*
X8929571Y14348261D01*
X8186714Y13605404D01*
X8991476Y13605404D01*
X10229571Y13605404D02*
X9486714Y13605404D01*
X9858142Y13605404D02*
X9858142Y14905404D01*
X9734333Y14719690D01*
X9610523Y14595880D01*
X9486714Y14533976D01*
X18961904Y20892857D02*
X17909523Y20892857D01*
X17785714Y20830952D01*
X17723809Y20769047D01*
X17661904Y20645238D01*
X17661904Y20397619D01*
X17723809Y20273809D01*
X17785714Y20211904D01*
X17909523Y20150000D01*
X18961904Y20150000D01*
X17723809Y19592857D02*
X17661904Y19407142D01*
X17661904Y19097619D01*
X17723809Y18973809D01*
X17785714Y18911904D01*
X17909523Y18850000D01*
X18033333Y18850000D01*
X18157142Y18911904D01*
X18219047Y18973809D01*
X18280952Y19097619D01*
X18342857Y19345238D01*
X18404761Y19469047D01*
X18466666Y19530952D01*
X18590476Y19592857D01*
X18714285Y19592857D01*
X18838095Y19530952D01*
X18900000Y19469047D01*
X18961904Y19345238D01*
X18961904Y19035714D01*
X18900000Y18850000D01*
X18342857Y17859523D02*
X18280952Y17673809D01*
X18219047Y17611904D01*
X18095238Y17550000D01*
X17909523Y17550000D01*
X17785714Y17611904D01*
X17723809Y17673809D01*
X17661904Y17797619D01*
X17661904Y18292857D01*
X18961904Y18292857D01*
X18961904Y17859523D01*
X18900000Y17735714D01*
X18838095Y17673809D01*
X18714285Y17611904D01*
X18590476Y17611904D01*
X18466666Y17673809D01*
X18404761Y17735714D01*
X18342857Y17859523D01*
X18342857Y18292857D01*
X18838095Y17054761D02*
X18900000Y16992857D01*
X18961904Y16869047D01*
X18961904Y16559523D01*
X18900000Y16435714D01*
X18838095Y16373809D01*
X18714285Y16311904D01*
X18590476Y16311904D01*
X18404761Y16373809D01*
X17661904Y17116666D01*
X17661904Y16311904D01*
X18961904Y15878571D02*
X18961904Y15073809D01*
X18466666Y15507142D01*
X18466666Y15321428D01*
X18404761Y15197619D01*
X18342857Y15135714D01*
X18219047Y15073809D01*
X17909523Y15073809D01*
X17785714Y15135714D01*
X17723809Y15197619D01*
X17661904Y15321428D01*
X17661904Y15692857D01*
X17723809Y15816666D01*
X17785714Y15878571D01*
X18838095Y14578571D02*
X18900000Y14516666D01*
X18961904Y14392857D01*
X18961904Y14083333D01*
X18900000Y13959523D01*
X18838095Y13897619D01*
X18714285Y13835714D01*
X18590476Y13835714D01*
X18404761Y13897619D01*
X17661904Y14640476D01*
X17661904Y13835714D01*
X17661904Y12535714D02*
X18280952Y12969047D01*
X17661904Y13278571D02*
X18961904Y13278571D01*
X18961904Y12783333D01*
X18900000Y12659523D01*
X18838095Y12597619D01*
X18714285Y12535714D01*
X18528571Y12535714D01*
X18404761Y12597619D01*
X18342857Y12659523D01*
X18280952Y12783333D01*
X18280952Y13278571D01*
X18961904Y11730952D02*
X18961904Y11607142D01*
X18900000Y11483333D01*
X18838095Y11421428D01*
X18714285Y11359523D01*
X18466666Y11297619D01*
X18157142Y11297619D01*
X17909523Y11359523D01*
X17785714Y11421428D01*
X17723809Y11483333D01*
X17661904Y11607142D01*
X17661904Y11730952D01*
X17723809Y11854761D01*
X17785714Y11916666D01*
X17909523Y11978571D01*
X18157142Y12040476D01*
X18466666Y12040476D01*
X18714285Y11978571D01*
X18838095Y11916666D01*
X18900000Y11854761D01*
X18961904Y11730952D01*
X18838095Y10802380D02*
X18900000Y10740476D01*
X18961904Y10616666D01*
X18961904Y10307142D01*
X18900000Y10183333D01*
X18838095Y10121428D01*
X18714285Y10059523D01*
X18590476Y10059523D01*
X18404761Y10121428D01*
X17661904Y10864285D01*
X17661904Y10059523D01*
X18033333Y9564285D02*
X18033333Y8945238D01*
X17661904Y9688095D02*
X18961904Y9254761D01*
X17661904Y8821428D01*
X28244047Y15518571D02*
X29172619Y15518571D01*
X28615476Y16075714D02*
X28244047Y14404285D01*
X29048809Y14961428D02*
X28120238Y14961428D01*
X28677380Y14404285D02*
X29048809Y16075714D01*
X30348809Y14775714D02*
X30286904Y14713809D01*
X30101190Y14651904D01*
X29977380Y14651904D01*
X29791666Y14713809D01*
X29667857Y14837619D01*
X29605952Y14961428D01*
X29544047Y15209047D01*
X29544047Y15394761D01*
X29605952Y15642380D01*
X29667857Y15766190D01*
X29791666Y15890000D01*
X29977380Y15951904D01*
X30101190Y15951904D01*
X30286904Y15890000D01*
X30348809Y15828095D01*
X30720238Y15951904D02*
X31463095Y15951904D01*
X31091666Y14651904D02*
X31091666Y15951904D01*
X31834523Y14713809D02*
X32020238Y14651904D01*
X32329761Y14651904D01*
X32453571Y14713809D01*
X32515476Y14775714D01*
X32577380Y14899523D01*
X32577380Y15023333D01*
X32515476Y15147142D01*
X32453571Y15209047D01*
X32329761Y15270952D01*
X32082142Y15332857D01*
X31958333Y15394761D01*
X31896428Y15456666D01*
X31834523Y15580476D01*
X31834523Y15704285D01*
X31896428Y15828095D01*
X31958333Y15890000D01*
X32082142Y15951904D01*
X32391666Y15951904D01*
X32577380Y15890000D01*
D10*
%TO.C,J1*%
X1103380Y15414666D02*
X1817666Y15414666D01*
X1960523Y15367047D01*
X2055761Y15271809D01*
X2103380Y15128952D01*
X2103380Y15033714D01*
X2103380Y16414666D02*
X2103380Y15843238D01*
X2103380Y16128952D02*
X1103380Y16128952D01*
X1246238Y16033714D01*
X1341476Y15938476D01*
X1389095Y15843238D01*
D12*
X17094000Y21253000D02*
X12834000Y21253000D01*
X17094000Y8933000D02*
X17094000Y21253000D01*
X8734000Y8933000D02*
X374000Y8933000D01*
X12834000Y8933000D02*
X17094000Y8933000D01*
X374000Y21253000D02*
X8734000Y21253000D01*
X374000Y8933000D02*
X374000Y21253000D01*
D10*
%TO.C,J17*%
X33020000Y8890000D02*
X33020000Y11176000D01*
X38100000Y8890000D02*
X33020000Y8890000D01*
X38100000Y11176000D02*
X38100000Y8890000D01*
%TO.C,J6*%
X38100000Y16510000D02*
X33020000Y16510000D01*
X38100000Y18796000D02*
X38100000Y16510000D01*
X33020000Y16510000D02*
X33020000Y18796000D01*
%TO.C,J5*%
X33020000Y19050000D02*
X33020000Y21336000D01*
X38100000Y19050000D02*
X33020000Y19050000D01*
X38100000Y21336000D02*
X38100000Y19050000D01*
%TO.C,J12*%
X19304000Y27940000D02*
X21590000Y27940000D01*
X21590000Y22860000D02*
X19304000Y22860000D01*
X21590000Y27940000D02*
X21590000Y22860000D01*
%TO.C,J3*%
X31750000Y7620000D02*
X31750000Y2540000D01*
X24130000Y2540000D02*
X24130000Y7620000D01*
X24130000Y7620000D02*
X31750000Y7620000D01*
X31750000Y2540000D02*
X24130000Y2540000D01*
%TO.C,J14*%
X13970000Y25527000D02*
X13970000Y27813000D01*
X14097000Y27940000D02*
X16383000Y27940000D01*
%TO.C,J13*%
X19050000Y27813000D02*
X19050000Y25527000D01*
X16637000Y27940000D02*
X18923000Y27940000D01*
%TO.C,J8*%
X38100000Y13970000D02*
X33020000Y13970000D01*
X33020000Y13970000D02*
X33020000Y16256000D01*
X38100000Y16256000D02*
X38100000Y13970000D01*
%TO.C,J15*%
X16383000Y22860000D02*
X14097000Y22860000D01*
X13970000Y22987000D02*
X13970000Y25273000D01*
%TO.C,J10*%
X21844000Y27940000D02*
X24130000Y27940000D01*
X24130000Y22860000D02*
X21844000Y22860000D01*
X24130000Y27940000D02*
X24130000Y22860000D01*
%TO.C,J7*%
X33020000Y11430000D02*
X33020000Y13716000D01*
X38100000Y13716000D02*
X38100000Y11430000D01*
X38100000Y11430000D02*
X33020000Y11430000D01*
%TO.C,J16*%
X19050000Y25273000D02*
X19050000Y22987000D01*
X18923000Y22860000D02*
X16637000Y22860000D01*
%TO.C,J4*%
X31750000Y22860000D02*
X29464000Y22860000D01*
X29464000Y27940000D02*
X31750000Y27940000D01*
X31750000Y27940000D02*
X31750000Y22860000D01*
%TO.C,J11*%
X26670000Y22860000D02*
X24384000Y22860000D01*
X26670000Y27940000D02*
X26670000Y22860000D01*
X24384000Y27940000D02*
X26670000Y27940000D01*
%TO.C,J9*%
X26924000Y27940000D02*
X29210000Y27940000D01*
X29210000Y22860000D02*
X26924000Y22860000D01*
X29210000Y27940000D02*
X29210000Y22860000D01*
%TO.C,J2*%
X22860000Y7620000D02*
X22860000Y2540000D01*
X22860000Y2540000D02*
X15240000Y2540000D01*
X15240000Y2540000D02*
X15240000Y7620000D01*
X15240000Y7620000D02*
X22860000Y7620000D01*
%TD*%
M02*
