M48
; DRILL file {KiCad 6.0.4-6f826c9f35~116~ubuntu20.04.1} date Tue Jun 14 10:26:02 2022
; FORMAT={-:-/ absolute / metric / decimal}
; #@! TF.CreationDate,2022-06-14T10:26:02+00:00
; #@! TF.GenerationSoftware,Kicad,Pcbnew,6.0.4-6f826c9f35~116~ubuntu20.04.1
; #@! TF.FileFunction,Plated,1,2,PTH
FMAT,2
METRIC
; #@! TA.AperFunction,Plated,PTH,ViaDrill
T1C0.400
; #@! TA.AperFunction,Plated,PTH,ComponentDrill
T2C0.889
; #@! TA.AperFunction,Plated,PTH,ComponentDrill
T3C0.920
; #@! TA.AperFunction,Plated,PTH,ComponentDrill
T4C2.330
; #@! TA.AperFunction,Plated,PTH,ComponentDrill
T5C3.000
%
G90
G05
T1
X137.602Y-103.689
X138.11Y-113.849
X142.8Y-93.4
X142.809Y-104.451
X143.0Y-95.1
X143.444Y-105.594
X143.825Y-94.164
X143.952Y-104.451
X145.222Y-94.075
X146.492Y-99.752
X146.873Y-105.975
X147.254Y-93.275
X147.254Y-98.482
X147.635Y-104.959
X148.016Y-93.944
X148.27Y-104.07
X148.27Y-106.229
X148.3Y-86.7
X148.905Y-105.34
X149.5Y-86.7
X149.794Y-101.53
X149.799Y-96.953
X150.651Y-101.016
X151.064Y-95.815
X151.826Y-102.419
X152.125Y-95.942
X152.175Y-94.386
X152.533Y-103.126
X154.297Y-95.458
X154.366Y-103.435
X155.006Y-102.667
X156.2Y-104.1
X156.652Y-97.847
X156.906Y-95.942
X157.414Y-96.958
X157.668Y-106.356
X157.922Y-100.469
X158.303Y-99.019
X160.081Y-104.07
X160.081Y-106.483
X160.264Y-99.418
X160.843Y-107.626
T2
X143.825Y-89.084
X143.825Y-91.624
X145.095Y-109.404
X145.095Y-111.944
X146.365Y-89.084
X146.365Y-91.624
X147.635Y-109.404
X147.635Y-111.944
X148.905Y-89.084
X148.905Y-91.624
X150.175Y-109.404
X150.175Y-111.944
X151.445Y-89.084
X151.445Y-91.624
X153.985Y-89.084
X153.985Y-91.624
X153.985Y-109.404
X153.985Y-111.944
X156.525Y-89.084
X156.525Y-91.624
X156.525Y-109.404
X156.525Y-111.944
X159.065Y-89.084
X159.065Y-91.624
X159.065Y-109.404
X159.065Y-111.944
X162.875Y-95.434
X162.875Y-97.974
X162.875Y-100.514
X162.875Y-103.054
X162.875Y-105.594
X165.415Y-95.434
X165.415Y-97.974
X165.415Y-100.514
X165.415Y-103.054
X165.415Y-105.594
T3
X142.079Y-99.411
X142.079Y-101.911
X144.079Y-99.411
X144.079Y-101.911
T4
X139.369Y-94.641
X139.369Y-106.681
T5
X133.665Y-90.354
X133.665Y-110.674
X164.145Y-90.354
X164.145Y-110.674
T0
M30
