%TF.GenerationSoftware,KiCad,Pcbnew,(5.99.0-9154-g0d2ee266a1)*%
%TF.CreationDate,2021-03-26T06:43:18+01:00*%
%TF.ProjectId,USB232R02A,55534232-3332-4523-9032-412e6b696361,rev?*%
%TF.SameCoordinates,Original*%
%TF.FileFunction,Legend,Bot*%
%TF.FilePolarity,Positive*%
%FSLAX46Y46*%
G04 Gerber Fmt 4.6, Leading zero omitted, Abs format (unit mm)*
G04 Created by KiCad (PCBNEW (5.99.0-9154-g0d2ee266a1)) date 2021-03-26 06:43:18*
%MOMM*%
%LPD*%
G01*
G04 APERTURE LIST*
%ADD10C,0.150000*%
%ADD11C,0.304800*%
%ADD12C,0.120000*%
G04 APERTURE END LIST*
D10*
%TO.C,U2*%
X27517380Y17271904D02*
X28326904Y17271904D01*
X28422142Y17224285D01*
X28469761Y17176666D01*
X28517380Y17081428D01*
X28517380Y16890952D01*
X28469761Y16795714D01*
X28422142Y16748095D01*
X28326904Y16700476D01*
X27517380Y16700476D01*
X27612619Y16271904D02*
X27565000Y16224285D01*
X27517380Y16129047D01*
X27517380Y15890952D01*
X27565000Y15795714D01*
X27612619Y15748095D01*
X27707857Y15700476D01*
X27803095Y15700476D01*
X27945952Y15748095D01*
X28517380Y16319523D01*
X28517380Y15700476D01*
%TO.C,U1*%
X17404404Y22632619D02*
X17404404Y21823095D01*
X17356785Y21727857D01*
X17309166Y21680238D01*
X17213928Y21632619D01*
X17023452Y21632619D01*
X16928214Y21680238D01*
X16880595Y21727857D01*
X16832976Y21823095D01*
X16832976Y22632619D01*
X15832976Y21632619D02*
X16404404Y21632619D01*
X16118690Y21632619D02*
X16118690Y22632619D01*
X16213928Y22489761D01*
X16309166Y22394523D01*
X16404404Y22346904D01*
%TO.C,D1*%
X4897380Y12930095D02*
X3897380Y12930095D01*
X3897380Y12692000D01*
X3945000Y12549142D01*
X4040238Y12453904D01*
X4135476Y12406285D01*
X4325952Y12358666D01*
X4468809Y12358666D01*
X4659285Y12406285D01*
X4754523Y12453904D01*
X4849761Y12549142D01*
X4897380Y12692000D01*
X4897380Y12930095D01*
X4897380Y11406285D02*
X4897380Y11977714D01*
X4897380Y11692000D02*
X3897380Y11692000D01*
X4040238Y11787238D01*
X4135476Y11882476D01*
X4183095Y11977714D01*
D11*
%TO.C,F1*%
X7493000Y19793857D02*
X8001000Y19793857D01*
X8001000Y18995571D02*
X8001000Y20519571D01*
X7275285Y20519571D01*
X5896428Y18995571D02*
X6767285Y18995571D01*
X6331857Y18995571D02*
X6331857Y20519571D01*
X6477000Y20301857D01*
X6622142Y20156714D01*
X6767285Y20084142D01*
D10*
%TO.C,JP1*%
X26735380Y11994333D02*
X27449666Y11994333D01*
X27592523Y12041952D01*
X27687761Y12137190D01*
X27735380Y12280047D01*
X27735380Y12375285D01*
X27735380Y11518142D02*
X26735380Y11518142D01*
X26735380Y11137190D01*
X26783000Y11041952D01*
X26830619Y10994333D01*
X26925857Y10946714D01*
X27068714Y10946714D01*
X27163952Y10994333D01*
X27211571Y11041952D01*
X27259190Y11137190D01*
X27259190Y11518142D01*
X27735380Y9994333D02*
X27735380Y10565761D01*
X27735380Y10280047D02*
X26735380Y10280047D01*
X26878238Y10375285D01*
X26973476Y10470523D01*
X27021095Y10565761D01*
%TO.C,R3*%
X12636500Y27813000D02*
X12636500Y29337000D01*
D12*
X10731500Y27813000D02*
X11493500Y27813000D01*
D10*
X9588500Y29337000D02*
X9588500Y27813000D01*
D12*
X10731500Y29337000D02*
X11493500Y29337000D01*
D10*
%TO.C,C3*%
X21844000Y22161500D02*
X20320000Y22161500D01*
D12*
X21844000Y20256500D02*
X21844000Y21018500D01*
X20320000Y20256500D02*
X20320000Y21018500D01*
D10*
X20320000Y19113500D02*
X21844000Y19113500D01*
%TO.C,FB1*%
X3683000Y14668500D02*
X5207000Y14668500D01*
D12*
X3683000Y16573500D02*
X3683000Y15811500D01*
D10*
X5207000Y17716500D02*
X3683000Y17716500D01*
D12*
X5207000Y16573500D02*
X5207000Y15811500D01*
D10*
%TO.C,C1*%
X1968500Y20447000D02*
X1968500Y18923000D01*
D12*
X3873500Y18923000D02*
X3111500Y18923000D01*
X3873500Y20447000D02*
X3111500Y20447000D01*
D10*
X5016500Y18923000D02*
X5016500Y20447000D01*
D12*
%TO.C,R2*%
X30670500Y22225000D02*
X31432500Y22225000D01*
X30670500Y20701000D02*
X31432500Y20701000D01*
D10*
X32575500Y20701000D02*
X32575500Y22225000D01*
X29527500Y22225000D02*
X29527500Y20701000D01*
D12*
%TO.C,U2*%
X22655000Y15125000D02*
X22655000Y14400000D01*
X26875000Y17895000D02*
X26875000Y18620000D01*
X26875000Y18620000D02*
X26150000Y18620000D01*
X22655000Y14400000D02*
X23380000Y14400000D01*
X22655000Y17895000D02*
X22655000Y18620000D01*
X22655000Y18620000D02*
X23380000Y18620000D01*
X26875000Y15125000D02*
X26875000Y14400000D01*
%TO.C,R1*%
X27114500Y22225000D02*
X27876500Y22225000D01*
X27114500Y20701000D02*
X27876500Y20701000D01*
D10*
X29019500Y20701000D02*
X29019500Y22225000D01*
X25971500Y22225000D02*
X25971500Y20701000D01*
%TO.C,C4*%
X22415500Y22225000D02*
X22415500Y20701000D01*
X25463500Y20701000D02*
X25463500Y22225000D01*
D12*
X24320500Y20701000D02*
X23558500Y20701000D01*
X24320500Y22225000D02*
X23558500Y22225000D01*
%TO.C,U1*%
X16642500Y21245000D02*
X18442500Y21245000D01*
X16642500Y18125000D02*
X17442500Y18125000D01*
X16642500Y18125000D02*
X15842500Y18125000D01*
X16642500Y21245000D02*
X15842500Y21245000D01*
D10*
%TO.C,C2*%
X2667000Y17716500D02*
X1143000Y17716500D01*
D12*
X2667000Y15811500D02*
X2667000Y16573500D01*
X1143000Y15811500D02*
X1143000Y16573500D01*
D10*
X1143000Y14668500D02*
X2667000Y14668500D01*
D12*
%TO.C,C5*%
X30353000Y14859000D02*
X29591000Y14859000D01*
X30353000Y13335000D02*
X29591000Y13335000D01*
D10*
X31496000Y13335000D02*
X31496000Y14859000D01*
X28448000Y14859000D02*
X28448000Y13335000D01*
D12*
%TO.C,D1*%
X7750000Y10415000D02*
X2350000Y10415000D01*
X7750000Y13715000D02*
X2350000Y13715000D01*
X7750000Y13715000D02*
X7750000Y10415000D01*
D10*
%TO.C,F1*%
X9988000Y18288000D02*
X7702000Y18288000D01*
X9988000Y14732000D02*
X7702000Y14732000D01*
D12*
%TO.C,JP1*%
X28083000Y11861000D02*
X28083000Y10461000D01*
X29383000Y12561000D02*
X28783000Y12561000D01*
X28783000Y9761000D02*
X29383000Y9761000D01*
X30083000Y10461000D02*
X30083000Y11861000D01*
X29383000Y9761000D02*
G75*
G03*
X30083000Y10461000I0J700000D01*
G01*
X28083000Y10461000D02*
G75*
G03*
X28783000Y9761000I700000J0D01*
G01*
X30083000Y11861000D02*
G75*
G03*
X29383000Y12561000I-700000J0D01*
G01*
X28783000Y12561000D02*
G75*
G03*
X28083000Y11861000I0J-700000D01*
G01*
%TO.C,R4*%
X12128500Y2667000D02*
X11366500Y2667000D01*
D10*
X13271500Y1143000D02*
X13271500Y2667000D01*
X10223500Y2667000D02*
X10223500Y1143000D01*
D12*
X12128500Y1143000D02*
X11366500Y1143000D01*
%TD*%
M02*
