%TF.GenerationSoftware,KiCad,Pcbnew,(5.99.0-9154-g0d2ee266a1)*%
%TF.CreationDate,2021-03-26T06:43:18+01:00*%
%TF.ProjectId,USB232R02A,55534232-3332-4523-9032-412e6b696361,rev?*%
%TF.SameCoordinates,Original*%
%TF.FileFunction,Paste,Bot*%
%TF.FilePolarity,Positive*%
%FSLAX46Y46*%
G04 Gerber Fmt 4.6, Leading zero omitted, Abs format (unit mm)*
G04 Created by KiCad (PCBNEW (5.99.0-9154-g0d2ee266a1)) date 2021-03-26 06:43:18*
%MOMM*%
%LPD*%
G01*
G04 APERTURE LIST*
G04 Aperture macros list*
%AMRoundRect*
0 Rectangle with rounded corners*
0 $1 Rounding radius*
0 $2 $3 $4 $5 $6 $7 $8 $9 X,Y pos of 4 corners*
0 Add a 4 corners polygon primitive as box body*
4,1,4,$2,$3,$4,$5,$6,$7,$8,$9,$2,$3,0*
0 Add four circle primitives for the rounded corners*
1,1,$1+$1,$2,$3*
1,1,$1+$1,$4,$5*
1,1,$1+$1,$6,$7*
1,1,$1+$1,$8,$9*
0 Add four rect primitives between the rounded corners*
20,1,$1+$1,$2,$3,$4,$5,0*
20,1,$1+$1,$4,$5,$6,$7,0*
20,1,$1+$1,$6,$7,$8,$9,0*
20,1,$1+$1,$8,$9,$2,$3,0*%
G04 Aperture macros list end*
%ADD10R,0.889000X1.397000*%
%ADD11R,1.397000X0.889000*%
%ADD12RoundRect,0.250000X0.255000X-0.255000X0.255000X0.255000X-0.255000X0.255000X-0.255000X-0.255000X0*%
%ADD13RoundRect,0.062500X0.062500X-0.350000X0.062500X0.350000X-0.062500X0.350000X-0.062500X-0.350000X0*%
%ADD14RoundRect,0.062500X0.350000X-0.062500X0.350000X0.062500X-0.350000X0.062500X-0.350000X-0.062500X0*%
%ADD15R,0.950000X1.500000*%
%ADD16RoundRect,0.150000X0.512500X0.150000X-0.512500X0.150000X-0.512500X-0.150000X0.512500X-0.150000X0*%
%ADD17R,2.500000X1.800000*%
%ADD18R,1.900000X3.400000*%
G04 APERTURE END LIST*
D10*
%TO.C,R3*%
X10160000Y28575000D03*
X12065000Y28575000D03*
%TD*%
D11*
%TO.C,C3*%
X21082000Y19685000D03*
X21082000Y21590000D03*
%TD*%
%TO.C,FB1*%
X4445000Y17145000D03*
X4445000Y15240000D03*
%TD*%
D10*
%TO.C,C1*%
X4445000Y19685000D03*
X2540000Y19685000D03*
%TD*%
%TO.C,R2*%
X30099000Y21463000D03*
X32004000Y21463000D03*
%TD*%
D12*
%TO.C,U2*%
X25390000Y17135000D03*
X25390000Y15885000D03*
X24140000Y17135000D03*
X24140000Y15885000D03*
D13*
X25765000Y14572500D03*
X25265000Y14572500D03*
X24765000Y14572500D03*
X24265000Y14572500D03*
X23765000Y14572500D03*
D14*
X22827500Y15510000D03*
X22827500Y16010000D03*
X22827500Y16510000D03*
X22827500Y17010000D03*
X22827500Y17510000D03*
D13*
X23765000Y18447500D03*
X24265000Y18447500D03*
X24765000Y18447500D03*
X25265000Y18447500D03*
X25765000Y18447500D03*
D14*
X26702500Y17510000D03*
X26702500Y17010000D03*
X26702500Y16510000D03*
X26702500Y16010000D03*
X26702500Y15510000D03*
%TD*%
D10*
%TO.C,R1*%
X26543000Y21463000D03*
X28448000Y21463000D03*
%TD*%
D15*
%TO.C,D2*%
X13505000Y25400000D03*
X9355000Y25400000D03*
%TD*%
D10*
%TO.C,C4*%
X24892000Y21463000D03*
X22987000Y21463000D03*
%TD*%
D16*
%TO.C,U1*%
X17780000Y20635000D03*
X17780000Y19685000D03*
X17780000Y18735000D03*
X15505000Y18735000D03*
X15505000Y19685000D03*
X15505000Y20635000D03*
%TD*%
D11*
%TO.C,C2*%
X1905000Y15240000D03*
X1905000Y17145000D03*
%TD*%
D10*
%TO.C,C5*%
X30924500Y14097000D03*
X29019500Y14097000D03*
%TD*%
D17*
%TO.C,D1*%
X6350000Y12065000D03*
X2350000Y12065000D03*
%TD*%
D18*
%TO.C,F1*%
X10795000Y16510000D03*
X6895000Y16510000D03*
%TD*%
D15*
%TO.C,D3*%
X13505000Y5080000D03*
X9355000Y5080000D03*
%TD*%
D10*
%TO.C,R4*%
X12700000Y1905000D03*
X10795000Y1905000D03*
%TD*%
M02*
