M48
; DRILL file {KiCad 6.0.10+dfsg-1~bpo11+1} date Thu Feb  9 01:38:48 2023
; FORMAT={-:-/ absolute / metric / decimal}
; #@! TF.CreationDate,2023-02-09T01:38:48+00:00
; #@! TF.GenerationSoftware,Kicad,Pcbnew,6.0.10+dfsg-1~bpo11+1
; #@! TF.FileFunction,Plated,1,2,PTH
FMAT,2
METRIC
; #@! TA.AperFunction,Plated,PTH,ViaDrill
T1C0.400
; #@! TA.AperFunction,Plated,PTH,ComponentDrill
T2C0.889
; #@! TA.AperFunction,Plated,PTH,ComponentDrill
T3C0.920
; #@! TA.AperFunction,Plated,PTH,ComponentDrill
T4C2.330
; #@! TA.AperFunction,Plated,PTH,ComponentDrill
T5C3.000
%
G90
G05
T1
X3.937Y6.985
X4.445Y-3.175
X9.135Y17.274
X9.144Y6.223
X9.335Y15.574
X9.779Y5.08
X10.16Y16.51
X10.287Y6.223
X11.557Y16.599
X12.827Y10.922
X13.208Y4.699
X13.589Y17.399
X13.589Y12.192
X13.97Y5.715
X14.351Y16.73
X14.605Y6.604
X14.605Y4.445
X14.635Y23.974
X15.24Y5.334
X15.835Y23.974
X16.129Y9.144
X16.134Y13.721
X16.986Y9.658
X17.399Y14.859
X18.161Y8.255
X18.46Y14.732
X18.51Y16.288
X18.868Y7.548
X20.632Y15.216
X20.701Y7.239
X21.341Y8.007
X22.535Y6.574
X22.987Y12.827
X23.241Y14.732
X23.749Y13.716
X24.003Y4.318
X24.257Y10.205
X24.638Y11.655
X26.416Y6.604
X26.416Y4.191
X26.599Y11.256
X27.178Y3.048
T2
X10.16Y21.59
X10.16Y19.05
X11.43Y1.27
X11.43Y-1.27
X12.7Y21.59
X12.7Y19.05
X13.97Y1.27
X13.97Y-1.27
X15.24Y21.59
X15.24Y19.05
X16.51Y1.27
X16.51Y-1.27
X17.78Y21.59
X17.78Y19.05
X20.32Y21.59
X20.32Y19.05
X20.32Y1.27
X20.32Y-1.27
X22.86Y21.59
X22.86Y19.05
X22.86Y1.27
X22.86Y-1.27
X25.4Y21.59
X25.4Y19.05
X25.4Y1.27
X25.4Y-1.27
X29.21Y15.24
X29.21Y12.7
X29.21Y10.16
X29.21Y7.62
X29.21Y5.08
X31.75Y15.24
X31.75Y12.7
X31.75Y10.16
X31.75Y7.62
X31.75Y5.08
T3
X8.414Y11.263
X8.414Y8.763
X10.414Y11.263
X10.414Y8.763
T4
X5.704Y16.033
X5.704Y3.993
T5
X0.0Y20.32
X0.0Y0.0
X30.48Y20.32
X30.48Y0.0
T0
M30
