%TF.GenerationSoftware,KiCad,Pcbnew,(5.99.0-9154-g0d2ee266a1)*%
%TF.CreationDate,2021-03-26T06:43:18+01:00*%
%TF.ProjectId,USB232R02A,55534232-3332-4523-9032-412e6b696361,rev?*%
%TF.SameCoordinates,Original*%
%TF.FileFunction,Soldermask,Bot*%
%TF.FilePolarity,Negative*%
%FSLAX46Y46*%
G04 Gerber Fmt 4.6, Leading zero omitted, Abs format (unit mm)*
G04 Created by KiCad (PCBNEW (5.99.0-9154-g0d2ee266a1)) date 2021-03-26 06:43:18*
%MOMM*%
%LPD*%
G01*
G04 APERTURE LIST*
G04 Aperture macros list*
%AMRoundRect*
0 Rectangle with rounded corners*
0 $1 Rounding radius*
0 $2 $3 $4 $5 $6 $7 $8 $9 X,Y pos of 4 corners*
0 Add a 4 corners polygon primitive as box body*
4,1,4,$2,$3,$4,$5,$6,$7,$8,$9,$2,$3,0*
0 Add four circle primitives for the rounded corners*
1,1,$1+$1,$2,$3*
1,1,$1+$1,$4,$5*
1,1,$1+$1,$6,$7*
1,1,$1+$1,$8,$9*
0 Add four rect primitives between the rounded corners*
20,1,$1+$1,$2,$3,$4,$5,0*
20,1,$1+$1,$4,$5,$6,$7,0*
20,1,$1+$1,$6,$7,$8,$9,0*
20,1,$1+$1,$8,$9,$2,$3,0*%
%AMFreePoly0*
4,1,41,0.586777,0.930194,0.656366,0.874698,0.694986,0.794504,0.700000,0.750000,0.700000,-0.750000,0.680194,-0.836777,0.624698,-0.906366,0.544504,-0.944986,0.500000,-0.950000,0.000000,-0.950000,-0.023504,-0.944635,-0.083606,-0.943534,-0.139582,-0.934468,-0.274897,-0.892193,-0.326080,-0.867780,-0.444090,-0.789225,-0.486362,-0.751429,-0.577582,-0.642910,-0.607548,-0.594768,-0.664643,-0.465009,
-0.679893,-0.410393,-0.697476,-0.275933,-0.697084,-0.275882,-0.700000,-0.250000,-0.700000,0.250000,-0.697921,0.259109,-0.697582,0.286880,-0.675771,0.426957,-0.659192,0.481183,-0.598944,0.609508,-0.567811,0.656904,-0.473967,0.763162,-0.430783,0.799915,-0.310888,0.875563,-0.259125,0.898717,-0.122818,0.937674,-0.066635,0.945370,-0.042411,0.945222,0.000000,0.950000,0.500000,0.950000,
0.586777,0.930194,0.586777,0.930194,$1*%
%AMFreePoly1*
4,1,41,0.022678,0.944824,0.075125,0.944504,0.131210,0.936123,0.267031,0.895504,0.318507,0.871718,0.437469,0.794611,0.480202,0.757333,0.572740,0.649936,0.603290,0.602165,0.661967,0.473113,0.677883,0.418686,0.697980,0.278353,0.700000,0.250000,0.700000,-0.250000,0.699985,-0.252439,0.699836,-0.264655,0.697079,-0.295398,0.673559,-0.435199,0.656318,-0.489221,0.594506,-0.616800,
0.562797,-0.663810,0.467662,-0.768914,0.424032,-0.805137,0.303222,-0.879314,0.251181,-0.901834,0.114408,-0.939123,0.058135,-0.946132,0.037663,-0.945757,0.000000,-0.950000,-0.500000,-0.950000,-0.586777,-0.930194,-0.656366,-0.874698,-0.694986,-0.794504,-0.700000,-0.750000,-0.700000,0.750000,-0.680194,0.836777,-0.624698,0.906366,-0.544504,0.944986,-0.500000,0.950000,0.000000,0.950000,
0.022678,0.944824,0.022678,0.944824,$1*%
G04 Aperture macros list end*
%ADD10C,6.400000*%
%ADD11RoundRect,0.200000X0.850000X0.850000X-0.850000X0.850000X-0.850000X-0.850000X0.850000X-0.850000X0*%
%ADD12C,2.100000*%
%ADD13C,3.900000*%
%ADD14RoundRect,0.200000X-0.762000X-0.762000X0.762000X-0.762000X0.762000X0.762000X-0.762000X0.762000X0*%
%ADD15RoundRect,0.200000X0.762000X-0.762000X0.762000X0.762000X-0.762000X0.762000X-0.762000X-0.762000X0*%
%ADD16RoundRect,0.200000X-0.762000X0.762000X-0.762000X-0.762000X0.762000X-0.762000X0.762000X0.762000X0*%
%ADD17RoundRect,0.200000X0.762000X0.762000X-0.762000X0.762000X-0.762000X-0.762000X0.762000X-0.762000X0*%
%ADD18RoundRect,0.200000X-0.444500X-0.698500X0.444500X-0.698500X0.444500X0.698500X-0.444500X0.698500X0*%
%ADD19RoundRect,0.200000X0.698500X-0.444500X0.698500X0.444500X-0.698500X0.444500X-0.698500X-0.444500X0*%
%ADD20RoundRect,0.200000X-0.698500X0.444500X-0.698500X-0.444500X0.698500X-0.444500X0.698500X0.444500X0*%
%ADD21RoundRect,0.200000X0.444500X0.698500X-0.444500X0.698500X-0.444500X-0.698500X0.444500X-0.698500X0*%
%ADD22RoundRect,0.162500X0.162500X-0.450000X0.162500X0.450000X-0.162500X0.450000X-0.162500X-0.450000X0*%
%ADD23RoundRect,0.162500X0.450000X-0.162500X0.450000X0.162500X-0.450000X0.162500X-0.450000X-0.162500X0*%
%ADD24RoundRect,0.200000X1.250000X-1.250000X1.250000X1.250000X-1.250000X1.250000X-1.250000X-1.250000X0*%
%ADD25C,2.700000*%
%ADD26RoundRect,0.200000X-0.475000X-0.750000X0.475000X-0.750000X0.475000X0.750000X-0.475000X0.750000X0*%
%ADD27RoundRect,0.250000X0.612500X0.250000X-0.612500X0.250000X-0.612500X-0.250000X0.612500X-0.250000X0*%
%ADD28RoundRect,0.200000X1.250000X0.900000X-1.250000X0.900000X-1.250000X-0.900000X1.250000X-0.900000X0*%
%ADD29RoundRect,0.200000X0.950000X1.700000X-0.950000X1.700000X-0.950000X-1.700000X0.950000X-1.700000X0*%
%ADD30FreePoly0,270.000000*%
%ADD31FreePoly1,270.000000*%
G04 APERTURE END LIST*
D10*
%TO.C,H3*%
X5080000Y5080000D03*
%TD*%
D11*
%TO.C,J1*%
X15494000Y13843000D03*
D12*
X15494000Y16343000D03*
X13494000Y16343000D03*
X13494000Y13843000D03*
D13*
X10784000Y9073000D03*
X10784000Y21113000D03*
%TD*%
D14*
%TO.C,J17*%
X34290000Y10160000D03*
X36830000Y10160000D03*
%TD*%
%TO.C,J6*%
X34290000Y17780000D03*
X36830000Y17780000D03*
%TD*%
%TO.C,J5*%
X34290000Y20320000D03*
X36830000Y20320000D03*
%TD*%
D15*
%TO.C,J12*%
X20320000Y24130000D03*
X20320000Y26670000D03*
%TD*%
D10*
%TO.C,H4*%
X35560000Y5080000D03*
%TD*%
D15*
%TO.C,J3*%
X25400000Y3810000D03*
X25400000Y6350000D03*
X27940000Y3810000D03*
X27940000Y6350000D03*
X30480000Y3810000D03*
X30480000Y6350000D03*
%TD*%
D14*
%TO.C,J14*%
X15240000Y26670000D03*
%TD*%
D16*
%TO.C,J13*%
X17780000Y26670000D03*
%TD*%
D14*
%TO.C,J8*%
X34290000Y15240000D03*
X36830000Y15240000D03*
%TD*%
D15*
%TO.C,J15*%
X15240000Y24130000D03*
%TD*%
%TO.C,J10*%
X22860000Y24130000D03*
X22860000Y26670000D03*
%TD*%
D10*
%TO.C,H1*%
X35560000Y25400000D03*
%TD*%
D14*
%TO.C,J7*%
X34290000Y12700000D03*
X36830000Y12700000D03*
%TD*%
D10*
%TO.C,H2*%
X5080000Y25400000D03*
%TD*%
D17*
%TO.C,J16*%
X17780000Y24130000D03*
%TD*%
D15*
%TO.C,J4*%
X30480000Y24130000D03*
X30480000Y26670000D03*
%TD*%
%TO.C,J11*%
X25400000Y24130000D03*
X25400000Y26670000D03*
%TD*%
%TO.C,J9*%
X27940000Y24130000D03*
X27940000Y26670000D03*
%TD*%
%TO.C,J2*%
X16510000Y3810000D03*
X16510000Y6350000D03*
X19050000Y3810000D03*
X19050000Y6350000D03*
X21590000Y3810000D03*
X21590000Y6350000D03*
%TD*%
D18*
%TO.C,R3*%
X10160000Y28575000D03*
X12065000Y28575000D03*
%TD*%
D19*
%TO.C,C3*%
X21082000Y19685000D03*
X21082000Y21590000D03*
%TD*%
D20*
%TO.C,FB1*%
X4445000Y17145000D03*
X4445000Y15240000D03*
%TD*%
D21*
%TO.C,C1*%
X4445000Y19685000D03*
X2540000Y19685000D03*
%TD*%
D18*
%TO.C,R2*%
X30099000Y21463000D03*
X32004000Y21463000D03*
%TD*%
D22*
%TO.C,U2*%
X25765000Y14572500D03*
X25265000Y14572500D03*
X24765000Y14572500D03*
X24265000Y14572500D03*
X23765000Y14572500D03*
D23*
X22827500Y15510000D03*
X22827500Y16010000D03*
X22827500Y16510000D03*
X22827500Y17010000D03*
X22827500Y17510000D03*
D22*
X23765000Y18447500D03*
X24265000Y18447500D03*
X24765000Y18447500D03*
X25265000Y18447500D03*
X25765000Y18447500D03*
D23*
X26702500Y17510000D03*
X26702500Y17010000D03*
X26702500Y16510000D03*
X26702500Y16010000D03*
X26702500Y15510000D03*
D24*
X24765000Y16510000D03*
%TD*%
D18*
%TO.C,R1*%
X26543000Y21463000D03*
X28448000Y21463000D03*
%TD*%
D25*
%TO.C,D2*%
X11430000Y25400000D03*
D26*
X13505000Y25400000D03*
X9355000Y25400000D03*
%TD*%
D21*
%TO.C,C4*%
X24892000Y21463000D03*
X22987000Y21463000D03*
%TD*%
D27*
%TO.C,U1*%
X17780000Y20635000D03*
X17780000Y19685000D03*
X17780000Y18735000D03*
X15505000Y18735000D03*
X15505000Y19685000D03*
X15505000Y20635000D03*
%TD*%
D19*
%TO.C,C2*%
X1905000Y15240000D03*
X1905000Y17145000D03*
%TD*%
D21*
%TO.C,C5*%
X30924500Y14097000D03*
X29019500Y14097000D03*
%TD*%
D28*
%TO.C,D1*%
X6350000Y12065000D03*
X2350000Y12065000D03*
%TD*%
D29*
%TO.C,F1*%
X10795000Y16510000D03*
X6895000Y16510000D03*
%TD*%
D25*
%TO.C,D3*%
X11430000Y5080000D03*
D26*
X13505000Y5080000D03*
X9355000Y5080000D03*
%TD*%
D30*
%TO.C,JP1*%
X29083000Y11811000D03*
D31*
X29083000Y10511000D03*
%TD*%
D21*
%TO.C,R4*%
X12700000Y1905000D03*
X10795000Y1905000D03*
%TD*%
M02*
