%TF.GenerationSoftware,KiCad,Pcbnew,(5.99.0-9154-g0d2ee266a1)*%
%TF.CreationDate,2021-03-26T06:43:18+01:00*%
%TF.ProjectId,USB232R02A,55534232-3332-4523-9032-412e6b696361,rev?*%
%TF.SameCoordinates,Original*%
%TF.FileFunction,Copper,L1,Top*%
%TF.FilePolarity,Positive*%
%FSLAX46Y46*%
G04 Gerber Fmt 4.6, Leading zero omitted, Abs format (unit mm)*
G04 Created by KiCad (PCBNEW (5.99.0-9154-g0d2ee266a1)) date 2021-03-26 06:43:18*
%MOMM*%
%LPD*%
G01*
G04 APERTURE LIST*
%TA.AperFunction,ComponentPad*%
%ADD10C,6.000000*%
%TD*%
%TA.AperFunction,ComponentPad*%
%ADD11R,1.700000X1.700000*%
%TD*%
%TA.AperFunction,ComponentPad*%
%ADD12C,1.700000*%
%TD*%
%TA.AperFunction,ComponentPad*%
%ADD13C,3.500000*%
%TD*%
%TA.AperFunction,ComponentPad*%
%ADD14R,1.524000X1.524000*%
%TD*%
%TA.AperFunction,ViaPad*%
%ADD15C,0.800000*%
%TD*%
%TA.AperFunction,Conductor*%
%ADD16C,0.400000*%
%TD*%
%TA.AperFunction,Conductor*%
%ADD17C,0.250000*%
%TD*%
G04 APERTURE END LIST*
D10*
%TO.P,H3,1,1*%
%TO.N,GND*%
X5080000Y5080000D03*
%TD*%
D11*
%TO.P,J1,1,VBUS*%
%TO.N,/VBUS*%
X15494000Y13843000D03*
D12*
%TO.P,J1,2,D-*%
%TO.N,/D-*%
X15494000Y16343000D03*
%TO.P,J1,3,D+*%
%TO.N,/D+*%
X13494000Y16343000D03*
%TO.P,J1,4,GND*%
%TO.N,GND*%
X13494000Y13843000D03*
D13*
%TO.P,J1,5,Shield*%
X10784000Y9073000D03*
X10784000Y21113000D03*
%TD*%
D14*
%TO.P,J17,1*%
%TO.N,GND*%
X34290000Y10160000D03*
%TO.P,J17,2*%
X36830000Y10160000D03*
%TD*%
%TO.P,J6,1*%
%TO.N,/RXD*%
X34290000Y17780000D03*
%TO.P,J6,2*%
X36830000Y17780000D03*
%TD*%
%TO.P,J5,1*%
%TO.N,/TXD*%
X34290000Y20320000D03*
%TO.P,J5,2*%
X36830000Y20320000D03*
%TD*%
%TO.P,J12,1*%
%TO.N,/#RI*%
X20320000Y24130000D03*
%TO.P,J12,2*%
X20320000Y26670000D03*
%TD*%
D10*
%TO.P,H4,1,1*%
%TO.N,GND*%
X35560000Y5080000D03*
%TD*%
D14*
%TO.P,J3,1*%
%TO.N,GND*%
X25400000Y3810000D03*
%TO.P,J3,2*%
X25400000Y6350000D03*
%TO.P,J3,3*%
%TO.N,+3V3*%
X27940000Y3810000D03*
%TO.P,J3,4*%
X27940000Y6350000D03*
%TO.P,J3,5*%
%TO.N,GND*%
X30480000Y3810000D03*
%TO.P,J3,6*%
X30480000Y6350000D03*
%TD*%
%TO.P,J14,1*%
%TO.N,/RXLED{slash}CBUS1*%
X15240000Y26670000D03*
%TD*%
%TO.P,J13,1*%
%TO.N,/CBUS0*%
X17780000Y26670000D03*
%TD*%
%TO.P,J8,1*%
%TO.N,/#CTS*%
X34290000Y15240000D03*
%TO.P,J8,2*%
X36830000Y15240000D03*
%TD*%
%TO.P,J15,1*%
%TO.N,/TXLED{slash}CBUS2*%
X15240000Y24130000D03*
%TD*%
%TO.P,J10,1*%
%TO.N,/#DSR*%
X22860000Y24130000D03*
%TO.P,J10,2*%
X22860000Y26670000D03*
%TD*%
D10*
%TO.P,H1,1,1*%
%TO.N,GND*%
X35560000Y25400000D03*
%TD*%
D14*
%TO.P,J7,1*%
%TO.N,/#RTS*%
X34290000Y12700000D03*
%TO.P,J7,2*%
X36830000Y12700000D03*
%TD*%
D10*
%TO.P,H2,1,1*%
%TO.N,GND*%
X5080000Y25400000D03*
%TD*%
D14*
%TO.P,J16,1*%
%TO.N,/CBUS3*%
X17780000Y24130000D03*
%TD*%
%TO.P,J4,1*%
%TO.N,/VCCIO*%
X30480000Y24130000D03*
%TO.P,J4,2*%
X30480000Y26670000D03*
%TD*%
%TO.P,J11,1*%
%TO.N,/#DCD*%
X25400000Y24130000D03*
%TO.P,J11,2*%
X25400000Y26670000D03*
%TD*%
%TO.P,J9,1*%
%TO.N,/#DTR*%
X27940000Y24130000D03*
%TO.P,J9,2*%
X27940000Y26670000D03*
%TD*%
%TO.P,J2,1*%
%TO.N,GND*%
X16510000Y3810000D03*
%TO.P,J2,2*%
X16510000Y6350000D03*
%TO.P,J2,3*%
%TO.N,+5V*%
X19050000Y3810000D03*
%TO.P,J2,4*%
X19050000Y6350000D03*
%TO.P,J2,5*%
%TO.N,GND*%
X21590000Y3810000D03*
%TO.P,J2,6*%
X21590000Y6350000D03*
%TD*%
D15*
%TO.N,GND*%
X28829000Y18796000D03*
X31496000Y11684000D03*
X16637000Y21679000D03*
X18669000Y17272000D03*
X19685000Y9525000D03*
X14224000Y11303000D03*
X32258000Y8128000D03*
X15367000Y11303000D03*
X31496000Y9271000D03*
X19050000Y10795000D03*
X18288000Y9779000D03*
X19431000Y21810010D03*
X23590092Y21368119D03*
X20320000Y10414000D03*
X14859000Y10160000D03*
X19685000Y11684000D03*
%TO.N,+5V*%
X13650000Y21975000D03*
X9017000Y12065000D03*
X18669000Y22479000D03*
%TO.N,+3V3*%
X29083000Y9398000D03*
X21213652Y18800653D03*
X21209000Y14224000D03*
%TO.N,/VCCIO*%
X29337000Y15285000D03*
%TO.N,/D-*%
X13970000Y20320000D03*
%TO.N,/RXD*%
X26421186Y13087223D03*
%TO.N,/#CTS*%
X31678966Y16336339D03*
X22066495Y14738497D03*
%TO.N,/#DTR*%
X29718000Y16735000D03*
%TO.N,/#DSR*%
X23948108Y12627892D03*
%TO.N,/#DCD*%
X23241000Y13335000D03*
%TO.N,/#RI*%
X25781000Y12319000D03*
%TO.N,/RXLED{slash}CBUS1*%
X25711821Y20296383D03*
%TO.N,/TXLED{slash}CBUS2*%
X9525000Y1905000D03*
X17907000Y16002000D03*
X15240000Y21590000D03*
%TO.N,/CBUS3*%
X28067000Y17907000D03*
X22479000Y19939000D03*
%TO.N,Net-(R1-Pad2)*%
X28321000Y19812000D03*
X23540000Y19812000D03*
%TD*%
D16*
%TO.N,+5V*%
X13123999Y21448999D02*
X13650000Y21975000D01*
X13123999Y19092999D02*
X13123999Y20301001D01*
X13123999Y20301001D02*
X13123999Y20658001D01*
X9017000Y13843000D02*
X9017000Y14986000D01*
X14944998Y22479000D02*
X16004000Y22479000D01*
X14154000Y22479000D02*
X13650000Y21975000D01*
X16004000Y22479000D02*
X18669000Y22479000D01*
X9017000Y12065000D02*
X9017000Y13843000D01*
X16004000Y22479000D02*
X14154000Y22479000D01*
X13123999Y20301001D02*
X13123999Y21448999D01*
X9017000Y14986000D02*
X13123999Y19092999D01*
%TO.N,+3V3*%
X29083000Y7493000D02*
X27940000Y6350000D01*
X21213652Y18800653D02*
X21213652Y14228652D01*
X21213652Y14228652D02*
X21209000Y14224000D01*
X29083000Y9398000D02*
X29083000Y7493000D01*
D17*
%TO.N,/VCCIO*%
X30480000Y16423998D02*
X29341002Y15285000D01*
X29341002Y15285000D02*
X29337000Y15285000D01*
X30480000Y24130000D02*
X30480000Y16423998D01*
D16*
%TO.N,/D-*%
X13970000Y17867000D02*
X15494000Y16343000D01*
X13970000Y20320000D02*
X13970000Y17867000D01*
D17*
%TO.N,/RXD*%
X29718000Y13208000D02*
X29845000Y13335000D01*
X26421186Y13087223D02*
X29597223Y13087223D01*
X29845000Y13335000D02*
X34290000Y17780000D01*
X29597223Y13087223D02*
X29845000Y13335000D01*
%TO.N,/#CTS*%
X30836627Y15494000D02*
X30836627Y15469627D01*
X30836627Y15469627D02*
X29845000Y14478000D01*
X22466494Y14338498D02*
X29705498Y14338498D01*
X29705498Y14338498D02*
X29845000Y14478000D01*
X30836627Y15494000D02*
X31678966Y16336339D01*
X22066495Y14738497D02*
X22466494Y14338498D01*
%TO.N,/#DTR*%
X29718000Y16735000D02*
X29718000Y22352000D01*
X29718000Y22352000D02*
X27940000Y24130000D01*
%TO.N,/#DSR*%
X20033989Y13748011D02*
X20033989Y14959599D01*
X21590000Y21971000D02*
X21399500Y21780500D01*
X20510500Y13017500D02*
X20033989Y13494011D01*
X22860000Y24130000D02*
X21590000Y22860000D01*
X20033989Y13494011D02*
X20033989Y13748011D01*
X20918001Y12609999D02*
X20510500Y13017500D01*
X23930215Y12609999D02*
X20918001Y12609999D01*
X22303636Y24130000D02*
X22860000Y24130000D01*
X21399500Y21780500D02*
X20033989Y20414989D01*
X20033989Y14959599D02*
X20033989Y20414989D01*
X23948108Y12627892D02*
X23930215Y12609999D01*
X21590000Y22860000D02*
X21590000Y21971000D01*
%TO.N,/#DCD*%
X20483999Y20156001D02*
X22362498Y22034500D01*
X20483999Y13879999D02*
X20483999Y15145999D01*
X22362498Y22034500D02*
X23304500Y22034500D01*
X20483999Y15145999D02*
X20483999Y20156001D01*
X23241000Y13335000D02*
X21028998Y13335000D01*
X21028998Y13335000D02*
X20610999Y13752999D01*
X23304500Y22034500D02*
X25400000Y24130000D01*
X20610999Y13752999D02*
X20483999Y13879999D01*
%TO.N,/#RI*%
X21082000Y22987000D02*
X21082000Y22225000D01*
X19583979Y14773199D02*
X19583979Y13690021D01*
X25311992Y11849992D02*
X21041599Y11849991D01*
X19583979Y20726979D02*
X19583979Y14773199D01*
X19583979Y13307611D02*
X19583979Y13690021D01*
X20320000Y24130000D02*
X20320000Y23749000D01*
X25781000Y12319000D02*
X25311992Y11849992D01*
X20066000Y21209000D02*
X19583979Y20726979D01*
X21082000Y22225000D02*
X20066000Y21209000D01*
X21041599Y11849991D02*
X19583979Y13307611D01*
X20320000Y23749000D02*
X21082000Y22987000D01*
%TO.N,/RXLED{slash}CBUS1*%
X26670000Y24843636D02*
X26113636Y25400000D01*
X16510000Y25400000D02*
X16327010Y25582990D01*
X16327010Y25582990D02*
X15240000Y26670000D01*
X26113636Y25400000D02*
X16510000Y25400000D01*
X25711821Y20296383D02*
X25711821Y21901821D01*
X25711821Y21901821D02*
X26670000Y22860000D01*
X26670000Y22860000D02*
X26670000Y24843636D01*
%TO.N,/TXLED{slash}CBUS2*%
X15240000Y21590000D02*
X15240000Y19431000D01*
X14478000Y7747000D02*
X17907000Y11176000D01*
X14478000Y3302000D02*
X14478000Y7747000D01*
X9525000Y1905000D02*
X13081000Y1905000D01*
X15240000Y19431000D02*
X15240000Y18669000D01*
X15240000Y18669000D02*
X17907000Y16002000D01*
X13081000Y1905000D02*
X14478000Y3302000D01*
X17907000Y11176000D02*
X17907000Y16002000D01*
%TO.N,/CBUS3*%
X22479000Y19939000D02*
X22479000Y19373315D01*
X22479000Y19373315D02*
X23945315Y17907000D01*
X23945315Y17907000D02*
X28067000Y17907000D01*
%TO.N,Net-(R1-Pad2)*%
X23939999Y19412001D02*
X27921001Y19412001D01*
X27921001Y19412001D02*
X28321000Y19812000D01*
X23540000Y19812000D02*
X23939999Y19412001D01*
%TD*%
%TA.AperFunction,Conductor*%
%TO.N,GND*%
G36*
X39828121Y29705998D02*
G01*
X39874614Y29652342D01*
X39886000Y29600000D01*
X39886000Y880000D01*
X39865998Y811879D01*
X39812342Y765386D01*
X39760000Y754000D01*
X880000Y754000D01*
X811879Y774002D01*
X765386Y827658D01*
X754000Y880000D01*
X754000Y7306822D01*
X9382855Y7306822D01*
X9390674Y7296111D01*
X9502187Y7208359D01*
X9509088Y7203634D01*
X9760063Y7055208D01*
X9767510Y7051446D01*
X10035933Y6937507D01*
X10043801Y6934767D01*
X10324928Y6857332D01*
X10333107Y6855653D01*
X10621998Y6816081D01*
X10630323Y6815498D01*
X10792633Y6814932D01*
X10860683Y6794693D01*
X10906989Y6740875D01*
X10916847Y6670566D01*
X10887129Y6606089D01*
X10840411Y6572524D01*
X10703876Y6515970D01*
X10703872Y6515968D01*
X10699302Y6514075D01*
X10483960Y6382113D01*
X10291912Y6218088D01*
X10127887Y6026040D01*
X9995925Y5810698D01*
X9994032Y5806128D01*
X9994030Y5806124D01*
X9904616Y5590257D01*
X9899275Y5577363D01*
X9898120Y5572551D01*
X9844271Y5348253D01*
X9840316Y5331781D01*
X9820500Y5080000D01*
X9840316Y4828219D01*
X9841470Y4823412D01*
X9841471Y4823406D01*
X9860252Y4745178D01*
X9899275Y4582637D01*
X9995925Y4349302D01*
X10127887Y4133960D01*
X10291912Y3941912D01*
X10483960Y3777887D01*
X10699302Y3645925D01*
X10703872Y3644032D01*
X10703876Y3644030D01*
X10927205Y3551525D01*
X10932637Y3549275D01*
X10980080Y3537885D01*
X11173406Y3491471D01*
X11173412Y3491470D01*
X11178219Y3490316D01*
X11277548Y3482498D01*
X11364014Y3475693D01*
X11364021Y3475693D01*
X11366470Y3475500D01*
X11493530Y3475500D01*
X11495979Y3475693D01*
X11495986Y3475693D01*
X11582452Y3482498D01*
X11681781Y3490316D01*
X11686588Y3491470D01*
X11686594Y3491471D01*
X11879920Y3537885D01*
X11927363Y3549275D01*
X11932795Y3551525D01*
X12156124Y3644030D01*
X12156128Y3644032D01*
X12160698Y3645925D01*
X12376040Y3777887D01*
X12568088Y3941912D01*
X12732113Y4133960D01*
X12864075Y4349302D01*
X12960725Y4582637D01*
X12999748Y4745178D01*
X13018529Y4823406D01*
X13018530Y4823412D01*
X13019684Y4828219D01*
X13039500Y5080000D01*
X13019684Y5331781D01*
X13015730Y5348253D01*
X12961880Y5572551D01*
X12960725Y5577363D01*
X12955384Y5590257D01*
X12865970Y5806124D01*
X12865968Y5806128D01*
X12864075Y5810698D01*
X12732113Y6026040D01*
X12568088Y6218088D01*
X12376040Y6382113D01*
X12160698Y6514075D01*
X12156128Y6515968D01*
X12156124Y6515970D01*
X11931936Y6608831D01*
X11931934Y6608832D01*
X11927363Y6610725D01*
X11841979Y6631224D01*
X11686594Y6668529D01*
X11686588Y6668530D01*
X11681781Y6669684D01*
X11529500Y6681669D01*
X11463159Y6706955D01*
X11421019Y6764093D01*
X11416460Y6834943D01*
X11450929Y6897010D01*
X11505341Y6928167D01*
X11505294Y6928304D01*
X11506000Y6928544D01*
X11506773Y6928987D01*
X11509251Y6929651D01*
X11517137Y6932335D01*
X11786351Y7044398D01*
X11793823Y7048107D01*
X12045842Y7194786D01*
X12052760Y7199452D01*
X12176744Y7295624D01*
X12185213Y7307351D01*
X12178638Y7319151D01*
X10796810Y8700980D01*
X10782869Y8708592D01*
X10781034Y8708461D01*
X10774420Y8704210D01*
X9389858Y7319647D01*
X9382855Y7306822D01*
X754000Y7306822D01*
X754000Y8982424D01*
X8523087Y8982424D01*
X8523437Y8974072D01*
X8554928Y8684191D01*
X8556377Y8675974D01*
X8625931Y8392803D01*
X8628458Y8384838D01*
X8734849Y8113358D01*
X8738405Y8105801D01*
X8879775Y7850764D01*
X8884284Y7843766D01*
X9006137Y7679692D01*
X9017329Y7671248D01*
X9029835Y7678046D01*
X10411980Y9060190D01*
X10418357Y9071869D01*
X11148408Y9071869D01*
X11148539Y9070034D01*
X11152790Y9063420D01*
X12537908Y7678303D01*
X12550348Y7671510D01*
X12561559Y7679875D01*
X12675086Y7830530D01*
X12679647Y7837501D01*
X12822797Y8091551D01*
X12826399Y8099071D01*
X12934690Y8369818D01*
X12937265Y8377741D01*
X13008796Y8660431D01*
X13010303Y8668639D01*
X13043970Y8959619D01*
X13044368Y8965309D01*
X13046930Y9070145D01*
X13046811Y9075845D01*
X13027398Y9368125D01*
X13026295Y9376394D01*
X12968659Y9662231D01*
X12966469Y9670292D01*
X12871536Y9945998D01*
X12868305Y9953685D01*
X12737743Y10214410D01*
X12733513Y10221619D01*
X12569619Y10462783D01*
X12564720Y10469054D01*
X12551323Y10477372D01*
X12541881Y10471670D01*
X11156020Y9085810D01*
X11148408Y9071869D01*
X10418357Y9071869D01*
X10419592Y9074131D01*
X10419461Y9075966D01*
X10415210Y9082580D01*
X9030496Y10467293D01*
X9017296Y10474501D01*
X9007102Y10467222D01*
X8946607Y10393575D01*
X8941752Y10386794D01*
X8788090Y10138962D01*
X8784177Y10131602D01*
X8664647Y9865636D01*
X8661737Y9857813D01*
X8578429Y9578363D01*
X8576584Y9570242D01*
X8530968Y9282230D01*
X8530212Y9273919D01*
X8523087Y8982424D01*
X754000Y8982424D01*
X754000Y10841408D01*
X9381013Y10841408D01*
X9388017Y10828194D01*
X10771190Y9445020D01*
X10785131Y9437408D01*
X10786966Y9437539D01*
X10793580Y9441790D01*
X12179147Y10827358D01*
X12186556Y10840925D01*
X12179814Y10850580D01*
X12142758Y10882340D01*
X12136088Y10887329D01*
X11891536Y11046144D01*
X11884246Y11050218D01*
X11620848Y11175288D01*
X11613080Y11178364D01*
X11335449Y11267501D01*
X11327360Y11269518D01*
X11040360Y11321158D01*
X11032082Y11322086D01*
X10740777Y11335315D01*
X10732455Y11335141D01*
X10441954Y11309725D01*
X10433716Y11308450D01*
X10149140Y11244840D01*
X10141136Y11242484D01*
X9867475Y11141795D01*
X9859859Y11138405D01*
X9601924Y11002411D01*
X9594808Y10998033D01*
X9389409Y10852063D01*
X9381013Y10841408D01*
X754000Y10841408D01*
X754000Y12147657D01*
X8362700Y12147657D01*
X8362700Y11982343D01*
X8403812Y11822222D01*
X8483453Y11677356D01*
X8488877Y11671580D01*
X8573756Y11581194D01*
X8596619Y11556847D01*
X8736199Y11468267D01*
X8743738Y11465817D01*
X8743741Y11465816D01*
X8885884Y11419631D01*
X8885886Y11419631D01*
X8893422Y11417182D01*
X8901331Y11416684D01*
X8901333Y11416684D01*
X8975916Y11411992D01*
X9058410Y11406801D01*
X9066194Y11408286D01*
X9066196Y11408286D01*
X9213013Y11436293D01*
X9213014Y11436293D01*
X9220797Y11437778D01*
X9370378Y11508166D01*
X9376483Y11513216D01*
X9376487Y11513219D01*
X9491647Y11608488D01*
X9497755Y11613541D01*
X9546570Y11680729D01*
X9590265Y11740870D01*
X9590266Y11740872D01*
X9594924Y11747283D01*
X9599481Y11758791D01*
X9652864Y11893621D01*
X9652864Y11893623D01*
X9655781Y11900989D01*
X9660457Y11938000D01*
X9675506Y12057132D01*
X9676500Y12065000D01*
X9665088Y12155336D01*
X9656775Y12221146D01*
X9656774Y12221149D01*
X9655781Y12229011D01*
X9652864Y12236379D01*
X9597842Y12375348D01*
X9597841Y12375350D01*
X9594924Y12382717D01*
X9581164Y12401657D01*
X9497755Y12516459D01*
X9499881Y12518004D01*
X9473600Y12569946D01*
X9471500Y12592853D01*
X9471500Y13746146D01*
X12134888Y13746146D01*
X12135686Y13735532D01*
X12170638Y13518529D01*
X12173212Y13508207D01*
X12244230Y13300190D01*
X12248497Y13290467D01*
X12353554Y13097378D01*
X12358016Y13090612D01*
X12369323Y13082581D01*
X12380859Y13089069D01*
X13121978Y13830188D01*
X13129592Y13844132D01*
X13129461Y13845965D01*
X13125210Y13852580D01*
X12380649Y14597141D01*
X12368269Y14603901D01*
X12361513Y14598843D01*
X12259340Y14419353D01*
X12254877Y14409693D01*
X12179882Y14203084D01*
X12177111Y14192816D01*
X12137999Y13976524D01*
X12136998Y13965930D01*
X12134888Y13746146D01*
X9471500Y13746146D01*
X9471500Y14745550D01*
X9491502Y14813671D01*
X9508405Y14834645D01*
X13300405Y18626645D01*
X13362717Y18660671D01*
X13433532Y18655606D01*
X13490368Y18613059D01*
X13515179Y18546539D01*
X13515500Y18537550D01*
X13515500Y17900328D01*
X13514627Y17885518D01*
X13510727Y17852567D01*
X13512419Y17843303D01*
X13512419Y17843302D01*
X13521361Y17794342D01*
X13522011Y17790438D01*
X13530813Y17731888D01*
X13533966Y17725322D01*
X13535274Y17718160D01*
X13562577Y17665599D01*
X13564326Y17662098D01*
X13580653Y17628097D01*
X13592110Y17558031D01*
X13563867Y17492893D01*
X13504892Y17453366D01*
X13472896Y17447690D01*
X13396166Y17444138D01*
X13337670Y17441431D01*
X13331846Y17440027D01*
X13331843Y17440027D01*
X13138615Y17393459D01*
X13138613Y17393458D01*
X13132782Y17392053D01*
X13127324Y17389571D01*
X13127320Y17389570D01*
X13034540Y17347385D01*
X12940928Y17304822D01*
X12769030Y17182886D01*
X12623291Y17030645D01*
X12508969Y16853592D01*
X12506726Y16848026D01*
X12444909Y16694637D01*
X12430190Y16658115D01*
X12429040Y16652225D01*
X12391210Y16458512D01*
X12389795Y16451268D01*
X12389779Y16445282D01*
X12389779Y16445279D01*
X12389710Y16418996D01*
X12389243Y16240515D01*
X12402600Y16170164D01*
X12425729Y16048341D01*
X12428554Y16033459D01*
X12506309Y15837573D01*
X12509533Y15832523D01*
X12509534Y15832520D01*
X12556320Y15759222D01*
X12619702Y15659924D01*
X12764642Y15506921D01*
X12769507Y15503431D01*
X12769510Y15503429D01*
X12903277Y15407485D01*
X12935899Y15384087D01*
X12983061Y15362345D01*
X13020297Y15345179D01*
X13073786Y15298495D01*
X13093545Y15230303D01*
X13073300Y15162254D01*
X13013827Y15113561D01*
X12892932Y15065818D01*
X12883395Y15061084D01*
X12744372Y14976723D01*
X12734866Y14966307D01*
X12738547Y14957663D01*
X13764115Y13932095D01*
X13798141Y13869783D01*
X13793076Y13798968D01*
X13764115Y13753905D01*
X12742501Y12732291D01*
X12735741Y12719911D01*
X12741813Y12711800D01*
X12860122Y12636864D01*
X12869567Y12631947D01*
X13072406Y12547306D01*
X13082545Y12544050D01*
X13296748Y12494795D01*
X13307284Y12493295D01*
X13526723Y12480834D01*
X13537366Y12481131D01*
X13755775Y12505823D01*
X13766194Y12507904D01*
X13977333Y12569046D01*
X13987259Y12572857D01*
X14185065Y12668693D01*
X14194220Y12674129D01*
X14349941Y12785409D01*
X14416994Y12808742D01*
X14486017Y12792119D01*
X14493183Y12787672D01*
X14544694Y12753253D01*
X14644000Y12733500D01*
X16344000Y12733500D01*
X16443306Y12753253D01*
X16527494Y12809506D01*
X16583747Y12893694D01*
X16603500Y12993000D01*
X16603500Y14693000D01*
X16583747Y14792306D01*
X16527494Y14876494D01*
X16443306Y14932747D01*
X16344000Y14952500D01*
X14644000Y14952500D01*
X14544694Y14932747D01*
X14534377Y14925853D01*
X14534374Y14925852D01*
X14492061Y14897579D01*
X14424308Y14876364D01*
X14355841Y14895147D01*
X14346846Y14901255D01*
X14216523Y14998218D01*
X14207486Y15003822D01*
X14011550Y15103441D01*
X14001693Y15107443D01*
X13990963Y15110775D01*
X13931837Y15150077D01*
X13903345Y15215106D01*
X13914534Y15285215D01*
X13965802Y15340501D01*
X14128344Y15433401D01*
X14128347Y15433403D01*
X14133552Y15436378D01*
X14138101Y15440284D01*
X14138104Y15440286D01*
X14288900Y15569763D01*
X14288902Y15569765D01*
X14293451Y15573671D01*
X14331269Y15621299D01*
X14381279Y15684283D01*
X14394989Y15701549D01*
X14453012Y15742460D01*
X14523944Y15745506D01*
X14585262Y15709720D01*
X14599866Y15691000D01*
X14619702Y15659924D01*
X14764642Y15506921D01*
X14769507Y15503431D01*
X14769510Y15503429D01*
X14903277Y15407485D01*
X14935899Y15384087D01*
X14983061Y15362345D01*
X15117108Y15300549D01*
X15127294Y15295853D01*
X15133110Y15294419D01*
X15133113Y15294418D01*
X15171313Y15285000D01*
X15331921Y15245402D01*
X15337911Y15245093D01*
X15337913Y15245093D01*
X15411857Y15241283D01*
X15542396Y15234556D01*
X15548331Y15235385D01*
X15548335Y15235385D01*
X15710132Y15257980D01*
X15751124Y15263705D01*
X15919219Y15321093D01*
X15944896Y15329859D01*
X15944898Y15329860D01*
X15950575Y15331798D01*
X16048173Y15387580D01*
X16128344Y15433401D01*
X16128347Y15433403D01*
X16133552Y15436378D01*
X16138101Y15440284D01*
X16138104Y15440286D01*
X16288900Y15569763D01*
X16288902Y15569765D01*
X16293451Y15573671D01*
X16321170Y15608580D01*
X16381279Y15684283D01*
X16424505Y15738723D01*
X16429261Y15747839D01*
X16519210Y15920261D01*
X16519211Y15920264D01*
X16521984Y15925579D01*
X16582370Y16127497D01*
X16583455Y16138267D01*
X16594118Y16244168D01*
X16603485Y16337191D01*
X16603500Y16343000D01*
X16603085Y16347356D01*
X16591875Y16464844D01*
X16605316Y16534556D01*
X16654314Y16585935D01*
X16723310Y16602668D01*
X16790400Y16579442D01*
X16806400Y16565906D01*
X17215795Y16156511D01*
X17249821Y16094199D01*
X17252700Y16067416D01*
X17252700Y15919343D01*
X17293812Y15759222D01*
X17373453Y15614356D01*
X17378877Y15608580D01*
X17454756Y15527778D01*
X17482166Y15498589D01*
X17486619Y15493847D01*
X17485854Y15493129D01*
X17521552Y15440281D01*
X17527500Y15402026D01*
X17527500Y11385384D01*
X17507498Y11317263D01*
X17490595Y11296289D01*
X14246960Y8052655D01*
X14230768Y8039578D01*
X14227975Y8037037D01*
X14219227Y8031388D01*
X14212780Y8023210D01*
X14212779Y8023209D01*
X14199740Y8006669D01*
X14195398Y8001784D01*
X14195445Y8001744D01*
X14192092Y7997787D01*
X14188411Y7994106D01*
X14185387Y7989874D01*
X14176326Y7977195D01*
X14172762Y7972449D01*
X14141060Y7932234D01*
X14138029Y7923603D01*
X14132708Y7916157D01*
X14129724Y7906179D01*
X14129723Y7906177D01*
X14118026Y7867065D01*
X14116191Y7861418D01*
X14105344Y7830530D01*
X14099225Y7813107D01*
X14098500Y7804735D01*
X14098500Y7802026D01*
X14098487Y7801733D01*
X14096531Y7795191D01*
X14096940Y7784784D01*
X14098403Y7747555D01*
X14098500Y7742607D01*
X14098500Y3511384D01*
X14078498Y3443263D01*
X14061595Y3422289D01*
X12960710Y2321405D01*
X12898398Y2287379D01*
X12871615Y2284500D01*
X10122236Y2284500D01*
X10054115Y2304502D01*
X10020301Y2336438D01*
X10005755Y2356459D01*
X9999647Y2361512D01*
X9884487Y2456781D01*
X9884483Y2456784D01*
X9878378Y2461834D01*
X9728797Y2532222D01*
X9721014Y2533707D01*
X9721013Y2533707D01*
X9574196Y2561714D01*
X9574194Y2561714D01*
X9566410Y2563199D01*
X9483916Y2558009D01*
X9409333Y2553316D01*
X9409331Y2553316D01*
X9401422Y2552818D01*
X9393886Y2550369D01*
X9393884Y2550369D01*
X9251741Y2504184D01*
X9251738Y2504183D01*
X9244199Y2501733D01*
X9104619Y2413153D01*
X9099192Y2407374D01*
X9099191Y2407373D01*
X9045358Y2350047D01*
X8991453Y2292644D01*
X8911812Y2147778D01*
X8870700Y1987657D01*
X8870700Y1822343D01*
X8911812Y1662222D01*
X8975610Y1546174D01*
X8984642Y1529746D01*
X8991453Y1517356D01*
X8996877Y1511580D01*
X9051380Y1453541D01*
X9104619Y1396847D01*
X9244199Y1308267D01*
X9251738Y1305817D01*
X9251741Y1305816D01*
X9393884Y1259631D01*
X9393886Y1259631D01*
X9401422Y1257182D01*
X9409331Y1256684D01*
X9409333Y1256684D01*
X9483916Y1251991D01*
X9566410Y1246801D01*
X9574194Y1248286D01*
X9574196Y1248286D01*
X9721013Y1276293D01*
X9721014Y1276293D01*
X9728797Y1277778D01*
X9878378Y1348166D01*
X9884483Y1353216D01*
X9884487Y1353219D01*
X9999647Y1448488D01*
X10005755Y1453541D01*
X10020300Y1473561D01*
X10076521Y1516914D01*
X10122236Y1525500D01*
X13028235Y1525500D01*
X13048953Y1523295D01*
X13052711Y1523118D01*
X13062887Y1520927D01*
X13094149Y1524627D01*
X13100666Y1525011D01*
X13100661Y1525072D01*
X13105840Y1525500D01*
X13111040Y1525500D01*
X13116168Y1526354D01*
X13116173Y1526354D01*
X13131523Y1528909D01*
X13137400Y1529746D01*
X13155654Y1531907D01*
X13188272Y1535767D01*
X13196520Y1539728D01*
X13205546Y1541230D01*
X13250654Y1565569D01*
X13255912Y1568247D01*
X13294944Y1586989D01*
X13294948Y1586991D01*
X13302090Y1590421D01*
X13308522Y1595828D01*
X13310460Y1597766D01*
X13310651Y1597942D01*
X13316663Y1601185D01*
X13323732Y1608833D01*
X13323738Y1608837D01*
X13349033Y1636202D01*
X13352463Y1639769D01*
X14709038Y2996344D01*
X14725234Y3009425D01*
X14728021Y3011961D01*
X14736773Y3017612D01*
X14756264Y3042336D01*
X14760601Y3047216D01*
X14760554Y3047256D01*
X14763907Y3051213D01*
X14767588Y3054894D01*
X14779664Y3071792D01*
X14783227Y3076538D01*
X14808493Y3108588D01*
X14814940Y3116766D01*
X14817972Y3125400D01*
X14823291Y3132843D01*
X14837963Y3181903D01*
X14839798Y3187551D01*
X14854147Y3228410D01*
X14856775Y3235893D01*
X14857500Y3244265D01*
X14857500Y3246979D01*
X14857513Y3247271D01*
X14859468Y3253809D01*
X14857597Y3301429D01*
X14857500Y3306376D01*
X14857500Y3542452D01*
X15235000Y3542452D01*
X15235000Y3050257D01*
X15235161Y3045750D01*
X15239740Y2981731D01*
X15242126Y2968509D01*
X15278819Y2843542D01*
X15286233Y2827308D01*
X15355426Y2719640D01*
X15367112Y2706153D01*
X15463840Y2622338D01*
X15478848Y2612693D01*
X15595275Y2559523D01*
X15612388Y2554498D01*
X15743554Y2535639D01*
X15752495Y2535000D01*
X16237885Y2535000D01*
X16253124Y2539475D01*
X16254329Y2540865D01*
X16256000Y2548548D01*
X16256000Y3537885D01*
X16251525Y3553124D01*
X16250135Y3554329D01*
X16242452Y3556000D01*
X15253115Y3556000D01*
X15237876Y3551525D01*
X15236671Y3550135D01*
X15235000Y3542452D01*
X14857500Y3542452D01*
X14857500Y6082452D01*
X15235000Y6082452D01*
X15235000Y5590257D01*
X15235161Y5585750D01*
X15239740Y5521731D01*
X15242126Y5508509D01*
X15278819Y5383542D01*
X15286233Y5367308D01*
X15355426Y5259640D01*
X15367112Y5246153D01*
X15448855Y5175323D01*
X15487239Y5115597D01*
X15487239Y5044600D01*
X15448856Y4984874D01*
X15434463Y4974100D01*
X15419640Y4964574D01*
X15406153Y4952888D01*
X15322338Y4856160D01*
X15312693Y4841152D01*
X15259523Y4724725D01*
X15254498Y4707612D01*
X15235639Y4576446D01*
X15235000Y4567505D01*
X15235000Y4082115D01*
X15239475Y4066876D01*
X15240865Y4065671D01*
X15248548Y4064000D01*
X16237885Y4064000D01*
X16253124Y4068475D01*
X16254329Y4069865D01*
X16256000Y4077548D01*
X16256000Y6077885D01*
X16251525Y6093124D01*
X16250135Y6094329D01*
X16242452Y6096000D01*
X15253115Y6096000D01*
X15237876Y6091525D01*
X15236671Y6090135D01*
X15235000Y6082452D01*
X14857500Y6082452D01*
X14857500Y7107505D01*
X15235000Y7107505D01*
X15235000Y6622115D01*
X15239475Y6606876D01*
X15240865Y6605671D01*
X15248548Y6604000D01*
X16237885Y6604000D01*
X16253124Y6608475D01*
X16254329Y6609865D01*
X16256000Y6617548D01*
X16256000Y7606885D01*
X16254659Y7611452D01*
X16764000Y7611452D01*
X16764000Y2553115D01*
X16768475Y2537876D01*
X16769865Y2536671D01*
X16777548Y2535000D01*
X17269743Y2535000D01*
X17274250Y2535161D01*
X17338269Y2539740D01*
X17351491Y2542126D01*
X17476458Y2578819D01*
X17492692Y2586233D01*
X17600360Y2655426D01*
X17613847Y2667112D01*
X17697662Y2763840D01*
X17707307Y2778848D01*
X17760477Y2895275D01*
X17765502Y2912389D01*
X17782432Y3030141D01*
X17811925Y3094722D01*
X17871651Y3133106D01*
X17942648Y3133106D01*
X18002374Y3094723D01*
X18030729Y3036792D01*
X18034544Y3017612D01*
X18048253Y2948694D01*
X18104506Y2864506D01*
X18188694Y2808253D01*
X18288000Y2788500D01*
X19812000Y2788500D01*
X19911306Y2808253D01*
X19995494Y2864506D01*
X20051747Y2948694D01*
X20068085Y3030832D01*
X20100992Y3093742D01*
X20162687Y3128874D01*
X20233582Y3125074D01*
X20291168Y3083549D01*
X20317343Y3015241D01*
X20319740Y2981730D01*
X20322126Y2968509D01*
X20358819Y2843542D01*
X20366233Y2827308D01*
X20435426Y2719640D01*
X20447112Y2706153D01*
X20543840Y2622338D01*
X20558848Y2612693D01*
X20675275Y2559523D01*
X20692388Y2554498D01*
X20823554Y2535639D01*
X20832495Y2535000D01*
X21317885Y2535000D01*
X21333124Y2539475D01*
X21334329Y2540865D01*
X21336000Y2548548D01*
X21336000Y3542452D01*
X21844000Y3542452D01*
X21844000Y2553115D01*
X21848475Y2537876D01*
X21849865Y2536671D01*
X21857548Y2535000D01*
X22349743Y2535000D01*
X22354250Y2535161D01*
X22418269Y2539740D01*
X22431491Y2542126D01*
X22556458Y2578819D01*
X22572692Y2586233D01*
X22680360Y2655426D01*
X22693847Y2667112D01*
X22777662Y2763840D01*
X22787307Y2778848D01*
X22840477Y2895275D01*
X22845502Y2912388D01*
X22864361Y3043554D01*
X22865000Y3052497D01*
X22865000Y3537885D01*
X22863659Y3542452D01*
X24125000Y3542452D01*
X24125000Y3050257D01*
X24125161Y3045750D01*
X24129740Y2981731D01*
X24132126Y2968509D01*
X24168819Y2843542D01*
X24176233Y2827308D01*
X24245426Y2719640D01*
X24257112Y2706153D01*
X24353840Y2622338D01*
X24368848Y2612693D01*
X24485275Y2559523D01*
X24502388Y2554498D01*
X24633554Y2535639D01*
X24642495Y2535000D01*
X25127885Y2535000D01*
X25143124Y2539475D01*
X25144329Y2540865D01*
X25146000Y2548548D01*
X25146000Y3537885D01*
X25141525Y3553124D01*
X25140135Y3554329D01*
X25132452Y3556000D01*
X24143115Y3556000D01*
X24127876Y3551525D01*
X24126671Y3550135D01*
X24125000Y3542452D01*
X22863659Y3542452D01*
X22860525Y3553124D01*
X22859135Y3554329D01*
X22851452Y3556000D01*
X21862115Y3556000D01*
X21846876Y3551525D01*
X21845671Y3550135D01*
X21844000Y3542452D01*
X21336000Y3542452D01*
X21336000Y6082452D01*
X21844000Y6082452D01*
X21844000Y4082115D01*
X21848475Y4066876D01*
X21849865Y4065671D01*
X21857548Y4064000D01*
X22846885Y4064000D01*
X22862124Y4068475D01*
X22863329Y4069865D01*
X22865000Y4077548D01*
X22865000Y4569743D01*
X22864839Y4574250D01*
X22860260Y4638269D01*
X22857874Y4651491D01*
X22821181Y4776458D01*
X22813767Y4792692D01*
X22744574Y4900360D01*
X22732888Y4913847D01*
X22651145Y4984677D01*
X22612761Y5044403D01*
X22612761Y5115400D01*
X22651144Y5175126D01*
X22665537Y5185900D01*
X22680360Y5195426D01*
X22693847Y5207112D01*
X22777662Y5303840D01*
X22787307Y5318848D01*
X22840477Y5435275D01*
X22845502Y5452388D01*
X22864361Y5583554D01*
X22865000Y5592497D01*
X22865000Y6077885D01*
X22863659Y6082452D01*
X24125000Y6082452D01*
X24125000Y5590257D01*
X24125161Y5585750D01*
X24129740Y5521731D01*
X24132126Y5508509D01*
X24168819Y5383542D01*
X24176233Y5367308D01*
X24245426Y5259640D01*
X24257112Y5246153D01*
X24338855Y5175323D01*
X24377239Y5115597D01*
X24377239Y5044600D01*
X24338856Y4984874D01*
X24324463Y4974100D01*
X24309640Y4964574D01*
X24296153Y4952888D01*
X24212338Y4856160D01*
X24202693Y4841152D01*
X24149523Y4724725D01*
X24144498Y4707612D01*
X24125639Y4576446D01*
X24125000Y4567505D01*
X24125000Y4082115D01*
X24129475Y4066876D01*
X24130865Y4065671D01*
X24138548Y4064000D01*
X25127885Y4064000D01*
X25143124Y4068475D01*
X25144329Y4069865D01*
X25146000Y4077548D01*
X25146000Y6077885D01*
X25141525Y6093124D01*
X25140135Y6094329D01*
X25132452Y6096000D01*
X24143115Y6096000D01*
X24127876Y6091525D01*
X24126671Y6090135D01*
X24125000Y6082452D01*
X22863659Y6082452D01*
X22860525Y6093124D01*
X22859135Y6094329D01*
X22851452Y6096000D01*
X21862115Y6096000D01*
X21846876Y6091525D01*
X21845671Y6090135D01*
X21844000Y6082452D01*
X21336000Y6082452D01*
X21336000Y7606885D01*
X21334659Y7611452D01*
X21844000Y7611452D01*
X21844000Y6622115D01*
X21848475Y6606876D01*
X21849865Y6605671D01*
X21857548Y6604000D01*
X22846885Y6604000D01*
X22862124Y6608475D01*
X22863329Y6609865D01*
X22865000Y6617548D01*
X22865000Y7107505D01*
X24125000Y7107505D01*
X24125000Y6622115D01*
X24129475Y6606876D01*
X24130865Y6605671D01*
X24138548Y6604000D01*
X25127885Y6604000D01*
X25143124Y6608475D01*
X25144329Y6609865D01*
X25146000Y6617548D01*
X25146000Y7606885D01*
X25144659Y7611452D01*
X25654000Y7611452D01*
X25654000Y2553115D01*
X25658475Y2537876D01*
X25659865Y2536671D01*
X25667548Y2535000D01*
X26159743Y2535000D01*
X26164250Y2535161D01*
X26228269Y2539740D01*
X26241491Y2542126D01*
X26366458Y2578819D01*
X26382692Y2586233D01*
X26490360Y2655426D01*
X26503847Y2667112D01*
X26587662Y2763840D01*
X26597307Y2778848D01*
X26650477Y2895275D01*
X26655502Y2912389D01*
X26672432Y3030141D01*
X26701925Y3094722D01*
X26761651Y3133106D01*
X26832648Y3133106D01*
X26892374Y3094723D01*
X26920729Y3036792D01*
X26924544Y3017612D01*
X26938253Y2948694D01*
X26994506Y2864506D01*
X27078694Y2808253D01*
X27178000Y2788500D01*
X28702000Y2788500D01*
X28801306Y2808253D01*
X28885494Y2864506D01*
X28941747Y2948694D01*
X28958085Y3030832D01*
X28990992Y3093742D01*
X29052687Y3128874D01*
X29123582Y3125074D01*
X29181168Y3083549D01*
X29207343Y3015241D01*
X29209740Y2981730D01*
X29212126Y2968509D01*
X29248819Y2843542D01*
X29256233Y2827308D01*
X29325426Y2719640D01*
X29337112Y2706153D01*
X29433840Y2622338D01*
X29448848Y2612693D01*
X29565275Y2559523D01*
X29582388Y2554498D01*
X29713554Y2535639D01*
X29722495Y2535000D01*
X30207885Y2535000D01*
X30223124Y2539475D01*
X30224329Y2540865D01*
X30226000Y2548548D01*
X30226000Y3542452D01*
X30734000Y3542452D01*
X30734000Y2553115D01*
X30738475Y2537876D01*
X30739865Y2536671D01*
X30747548Y2535000D01*
X31239743Y2535000D01*
X31244250Y2535161D01*
X31308269Y2539740D01*
X31321491Y2542126D01*
X31446458Y2578819D01*
X31462692Y2586233D01*
X31570360Y2655426D01*
X31583847Y2667112D01*
X31667662Y2763840D01*
X31677307Y2778848D01*
X31730477Y2895275D01*
X31735502Y2912388D01*
X31754361Y3043554D01*
X31755000Y3052497D01*
X31755000Y3537885D01*
X31750525Y3553124D01*
X31749135Y3554329D01*
X31741452Y3556000D01*
X30752115Y3556000D01*
X30736876Y3551525D01*
X30735671Y3550135D01*
X30734000Y3542452D01*
X30226000Y3542452D01*
X30226000Y6082452D01*
X30734000Y6082452D01*
X30734000Y4082115D01*
X30738475Y4066876D01*
X30739865Y4065671D01*
X30747548Y4064000D01*
X31736885Y4064000D01*
X31752124Y4068475D01*
X31753329Y4069865D01*
X31755000Y4077548D01*
X31755000Y4569743D01*
X31754839Y4574250D01*
X31750260Y4638269D01*
X31747874Y4651491D01*
X31711181Y4776458D01*
X31703767Y4792692D01*
X31634574Y4900360D01*
X31622888Y4913847D01*
X31541145Y4984677D01*
X31502761Y5044403D01*
X31502761Y5115400D01*
X31541144Y5175126D01*
X31555537Y5185900D01*
X31570360Y5195426D01*
X31583847Y5207112D01*
X31667662Y5303840D01*
X31677307Y5318848D01*
X31730477Y5435275D01*
X31735502Y5452388D01*
X31754361Y5583554D01*
X31755000Y5592497D01*
X31755000Y6077885D01*
X31750525Y6093124D01*
X31749135Y6094329D01*
X31741452Y6096000D01*
X30752115Y6096000D01*
X30736876Y6091525D01*
X30735671Y6090135D01*
X30734000Y6082452D01*
X30226000Y6082452D01*
X30226000Y7606885D01*
X30224659Y7611452D01*
X30734000Y7611452D01*
X30734000Y6622115D01*
X30738475Y6606876D01*
X30739865Y6605671D01*
X30747548Y6604000D01*
X31736885Y6604000D01*
X31752124Y6608475D01*
X31753329Y6609865D01*
X31755000Y6617548D01*
X31755000Y7109743D01*
X31754839Y7114250D01*
X31750260Y7178269D01*
X31747874Y7191491D01*
X31711181Y7316458D01*
X31703767Y7332692D01*
X31634574Y7440360D01*
X31622888Y7453847D01*
X31526160Y7537662D01*
X31511152Y7547307D01*
X31394725Y7600477D01*
X31377612Y7605502D01*
X31246446Y7624361D01*
X31237505Y7625000D01*
X30752115Y7625000D01*
X30736876Y7620525D01*
X30735671Y7619135D01*
X30734000Y7611452D01*
X30224659Y7611452D01*
X30221525Y7622124D01*
X30220135Y7623329D01*
X30212452Y7625000D01*
X29720257Y7625000D01*
X29715750Y7624839D01*
X29672489Y7621745D01*
X29603115Y7636836D01*
X29552912Y7687039D01*
X29537500Y7747424D01*
X29537500Y8870147D01*
X29557502Y8938268D01*
X29563884Y8946447D01*
X29563755Y8946541D01*
X29656265Y9073870D01*
X29656266Y9073872D01*
X29660924Y9080283D01*
X29668278Y9098855D01*
X29718864Y9226621D01*
X29718864Y9226623D01*
X29721781Y9233989D01*
X29726826Y9273919D01*
X29741506Y9390132D01*
X29742500Y9398000D01*
X29721781Y9562011D01*
X29682101Y9662231D01*
X29663842Y9708348D01*
X29663841Y9708350D01*
X29660924Y9715717D01*
X29563755Y9849459D01*
X29517306Y9887885D01*
X29511785Y9892452D01*
X33015000Y9892452D01*
X33015000Y9400257D01*
X33015161Y9395750D01*
X33019740Y9331731D01*
X33022126Y9318509D01*
X33058819Y9193542D01*
X33066233Y9177308D01*
X33135426Y9069640D01*
X33147112Y9056153D01*
X33243840Y8972338D01*
X33258848Y8962693D01*
X33375275Y8909523D01*
X33392388Y8904498D01*
X33523554Y8885639D01*
X33532495Y8885000D01*
X34017885Y8885000D01*
X34033124Y8889475D01*
X34034329Y8890865D01*
X34036000Y8898548D01*
X34036000Y9887885D01*
X34034659Y9892452D01*
X34544000Y9892452D01*
X34544000Y8903115D01*
X34548475Y8887876D01*
X34549865Y8886671D01*
X34557548Y8885000D01*
X35049743Y8885000D01*
X35054250Y8885161D01*
X35118269Y8889740D01*
X35131491Y8892126D01*
X35256458Y8928819D01*
X35272692Y8936233D01*
X35380360Y9005426D01*
X35393847Y9017112D01*
X35464677Y9098855D01*
X35524403Y9137239D01*
X35595400Y9137239D01*
X35655126Y9098856D01*
X35665900Y9084463D01*
X35675426Y9069640D01*
X35687112Y9056153D01*
X35783840Y8972338D01*
X35798848Y8962693D01*
X35915275Y8909523D01*
X35932388Y8904498D01*
X36063554Y8885639D01*
X36072495Y8885000D01*
X36557885Y8885000D01*
X36573124Y8889475D01*
X36574329Y8890865D01*
X36576000Y8898548D01*
X36576000Y9887885D01*
X36574659Y9892452D01*
X37084000Y9892452D01*
X37084000Y8903115D01*
X37088475Y8887876D01*
X37089865Y8886671D01*
X37097548Y8885000D01*
X37589743Y8885000D01*
X37594250Y8885161D01*
X37658269Y8889740D01*
X37671491Y8892126D01*
X37796458Y8928819D01*
X37812692Y8936233D01*
X37920360Y9005426D01*
X37933847Y9017112D01*
X38017662Y9113840D01*
X38027307Y9128848D01*
X38080477Y9245275D01*
X38085502Y9262388D01*
X38104361Y9393554D01*
X38105000Y9402497D01*
X38105000Y9887885D01*
X38100525Y9903124D01*
X38099135Y9904329D01*
X38091452Y9906000D01*
X37102115Y9906000D01*
X37086876Y9901525D01*
X37085671Y9900135D01*
X37084000Y9892452D01*
X36574659Y9892452D01*
X36571525Y9903124D01*
X36570135Y9904329D01*
X36562452Y9906000D01*
X34562115Y9906000D01*
X34546876Y9901525D01*
X34545671Y9900135D01*
X34544000Y9892452D01*
X34034659Y9892452D01*
X34031525Y9903124D01*
X34030135Y9904329D01*
X34022452Y9906000D01*
X33033115Y9906000D01*
X33017876Y9901525D01*
X33016671Y9900135D01*
X33015000Y9892452D01*
X29511785Y9892452D01*
X29442487Y9949781D01*
X29442483Y9949784D01*
X29436378Y9954834D01*
X29286797Y10025222D01*
X29279014Y10026707D01*
X29279013Y10026707D01*
X29132196Y10054714D01*
X29132194Y10054714D01*
X29124410Y10056199D01*
X29041916Y10051009D01*
X28967333Y10046316D01*
X28967331Y10046316D01*
X28959422Y10045818D01*
X28951886Y10043369D01*
X28951884Y10043369D01*
X28809741Y9997184D01*
X28809738Y9997183D01*
X28802199Y9994733D01*
X28662619Y9906153D01*
X28657192Y9900374D01*
X28657191Y9900373D01*
X28603356Y9843045D01*
X28549453Y9785644D01*
X28469812Y9640778D01*
X28428700Y9480657D01*
X28428700Y9315343D01*
X28469812Y9155222D01*
X28549453Y9010356D01*
X28585155Y8972338D01*
X28594350Y8962546D01*
X28626401Y8899196D01*
X28628500Y8876293D01*
X28628500Y7733450D01*
X28608498Y7665329D01*
X28591595Y7644355D01*
X28355645Y7408405D01*
X28293333Y7374379D01*
X28266550Y7371500D01*
X27178000Y7371500D01*
X27078694Y7351747D01*
X26994506Y7295494D01*
X26938253Y7211306D01*
X26935832Y7199134D01*
X26921915Y7129168D01*
X26889008Y7066258D01*
X26827313Y7031126D01*
X26756418Y7034926D01*
X26698832Y7076451D01*
X26672657Y7144759D01*
X26670260Y7178270D01*
X26667874Y7191491D01*
X26631181Y7316458D01*
X26623767Y7332692D01*
X26554574Y7440360D01*
X26542888Y7453847D01*
X26446160Y7537662D01*
X26431152Y7547307D01*
X26314725Y7600477D01*
X26297612Y7605502D01*
X26166446Y7624361D01*
X26157505Y7625000D01*
X25672115Y7625000D01*
X25656876Y7620525D01*
X25655671Y7619135D01*
X25654000Y7611452D01*
X25144659Y7611452D01*
X25141525Y7622124D01*
X25140135Y7623329D01*
X25132452Y7625000D01*
X24640257Y7625000D01*
X24635750Y7624839D01*
X24571731Y7620260D01*
X24558509Y7617874D01*
X24433542Y7581181D01*
X24417308Y7573767D01*
X24309640Y7504574D01*
X24296153Y7492888D01*
X24212338Y7396160D01*
X24202693Y7381152D01*
X24149523Y7264726D01*
X24144498Y7247612D01*
X24125639Y7116446D01*
X24125000Y7107505D01*
X22865000Y7107505D01*
X22865000Y7109743D01*
X22864839Y7114250D01*
X22860260Y7178269D01*
X22857874Y7191491D01*
X22821181Y7316458D01*
X22813767Y7332692D01*
X22744574Y7440360D01*
X22732888Y7453847D01*
X22636160Y7537662D01*
X22621152Y7547307D01*
X22504725Y7600477D01*
X22487612Y7605502D01*
X22356446Y7624361D01*
X22347505Y7625000D01*
X21862115Y7625000D01*
X21846876Y7620525D01*
X21845671Y7619135D01*
X21844000Y7611452D01*
X21334659Y7611452D01*
X21331525Y7622124D01*
X21330135Y7623329D01*
X21322452Y7625000D01*
X20830257Y7625000D01*
X20825750Y7624839D01*
X20761731Y7620260D01*
X20748509Y7617874D01*
X20623542Y7581181D01*
X20607308Y7573767D01*
X20499640Y7504574D01*
X20486153Y7492888D01*
X20402338Y7396160D01*
X20392693Y7381152D01*
X20339523Y7264726D01*
X20334498Y7247611D01*
X20317568Y7129859D01*
X20288075Y7065278D01*
X20228349Y7026894D01*
X20157352Y7026894D01*
X20097626Y7065277D01*
X20069271Y7123208D01*
X20054168Y7199134D01*
X20051747Y7211306D01*
X19995494Y7295494D01*
X19911306Y7351747D01*
X19812000Y7371500D01*
X18288000Y7371500D01*
X18188694Y7351747D01*
X18104506Y7295494D01*
X18048253Y7211306D01*
X18045832Y7199134D01*
X18031915Y7129168D01*
X17999008Y7066258D01*
X17937313Y7031126D01*
X17866418Y7034926D01*
X17808832Y7076451D01*
X17782657Y7144759D01*
X17780260Y7178270D01*
X17777874Y7191491D01*
X17741181Y7316458D01*
X17733767Y7332692D01*
X17664574Y7440360D01*
X17652888Y7453847D01*
X17556160Y7537662D01*
X17541152Y7547307D01*
X17424725Y7600477D01*
X17407612Y7605502D01*
X17276446Y7624361D01*
X17267505Y7625000D01*
X16782115Y7625000D01*
X16766876Y7620525D01*
X16765671Y7619135D01*
X16764000Y7611452D01*
X16254659Y7611452D01*
X16251525Y7622124D01*
X16250135Y7623329D01*
X16242452Y7625000D01*
X15750257Y7625000D01*
X15745750Y7624839D01*
X15681731Y7620260D01*
X15668509Y7617874D01*
X15543542Y7581181D01*
X15527308Y7573767D01*
X15419640Y7504574D01*
X15406153Y7492888D01*
X15322338Y7396160D01*
X15312693Y7381152D01*
X15259523Y7264726D01*
X15254498Y7247612D01*
X15235639Y7116446D01*
X15235000Y7107505D01*
X14857500Y7107505D01*
X14857500Y7537616D01*
X14877502Y7605737D01*
X14894405Y7626711D01*
X18138038Y10870344D01*
X18154234Y10883425D01*
X18157021Y10885961D01*
X18165773Y10891612D01*
X18185264Y10916336D01*
X18186303Y10917505D01*
X33015000Y10917505D01*
X33015000Y10432115D01*
X33019475Y10416876D01*
X33020865Y10415671D01*
X33028548Y10414000D01*
X38086885Y10414000D01*
X38102124Y10418475D01*
X38103329Y10419865D01*
X38105000Y10427548D01*
X38105000Y10919743D01*
X38104839Y10924250D01*
X38100260Y10988269D01*
X38097874Y11001491D01*
X38061181Y11126458D01*
X38053767Y11142692D01*
X37984574Y11250360D01*
X37972888Y11263847D01*
X37876160Y11347662D01*
X37861152Y11357307D01*
X37744725Y11410477D01*
X37727611Y11415502D01*
X37609859Y11432432D01*
X37545278Y11461925D01*
X37506894Y11521651D01*
X37506894Y11592648D01*
X37545277Y11652374D01*
X37603208Y11680729D01*
X37659237Y11691874D01*
X37691306Y11698253D01*
X37775494Y11754506D01*
X37831747Y11838694D01*
X37851500Y11938000D01*
X37851500Y13462000D01*
X37831747Y13561306D01*
X37775494Y13645494D01*
X37691306Y13701747D01*
X37592000Y13721500D01*
X36068000Y13721500D01*
X35968694Y13701747D01*
X35884506Y13645494D01*
X35828253Y13561306D01*
X35808500Y13462000D01*
X35808500Y11938000D01*
X35828253Y11838694D01*
X35884506Y11754506D01*
X35968694Y11698253D01*
X36050832Y11681915D01*
X36113742Y11649008D01*
X36148874Y11587313D01*
X36145074Y11516418D01*
X36103549Y11458832D01*
X36035241Y11432657D01*
X36001730Y11430260D01*
X35988509Y11427874D01*
X35863542Y11391181D01*
X35847308Y11383767D01*
X35739640Y11314574D01*
X35726153Y11302888D01*
X35655323Y11221145D01*
X35595597Y11182761D01*
X35524600Y11182761D01*
X35464874Y11221144D01*
X35454100Y11235537D01*
X35444574Y11250360D01*
X35432888Y11263847D01*
X35336160Y11347662D01*
X35321152Y11357307D01*
X35204725Y11410477D01*
X35187611Y11415502D01*
X35069859Y11432432D01*
X35005278Y11461925D01*
X34966894Y11521651D01*
X34966894Y11592648D01*
X35005277Y11652374D01*
X35063208Y11680729D01*
X35119237Y11691874D01*
X35151306Y11698253D01*
X35235494Y11754506D01*
X35291747Y11838694D01*
X35311500Y11938000D01*
X35311500Y13462000D01*
X35291747Y13561306D01*
X35235494Y13645494D01*
X35151306Y13701747D01*
X35052000Y13721500D01*
X33528000Y13721500D01*
X33428694Y13701747D01*
X33344506Y13645494D01*
X33288253Y13561306D01*
X33268500Y13462000D01*
X33268500Y11938000D01*
X33288253Y11838694D01*
X33344506Y11754506D01*
X33428694Y11698253D01*
X33510832Y11681915D01*
X33573742Y11649008D01*
X33608874Y11587313D01*
X33605074Y11516418D01*
X33563549Y11458832D01*
X33495241Y11432657D01*
X33461730Y11430260D01*
X33448509Y11427874D01*
X33323542Y11391181D01*
X33307308Y11383767D01*
X33199640Y11314574D01*
X33186153Y11302888D01*
X33102338Y11206160D01*
X33092693Y11191152D01*
X33039523Y11074725D01*
X33034498Y11057612D01*
X33015639Y10926446D01*
X33015000Y10917505D01*
X18186303Y10917505D01*
X18189601Y10921216D01*
X18189554Y10921256D01*
X18192907Y10925213D01*
X18196588Y10928894D01*
X18208664Y10945792D01*
X18212227Y10950538D01*
X18237493Y10982588D01*
X18243940Y10990766D01*
X18246972Y10999400D01*
X18252291Y11006843D01*
X18266963Y11055903D01*
X18268798Y11061551D01*
X18283147Y11102410D01*
X18285775Y11109893D01*
X18286500Y11118265D01*
X18286500Y11120979D01*
X18286513Y11121271D01*
X18288468Y11127809D01*
X18286597Y11175429D01*
X18286500Y11180376D01*
X18286500Y15407485D01*
X18306502Y15475606D01*
X18332185Y15504570D01*
X18381647Y15545488D01*
X18387755Y15550541D01*
X18439164Y15621299D01*
X18480265Y15677870D01*
X18480266Y15677872D01*
X18484924Y15684283D01*
X18491761Y15701549D01*
X18542864Y15830621D01*
X18542864Y15830623D01*
X18545781Y15837989D01*
X18549887Y15870488D01*
X18565506Y15994132D01*
X18566500Y16002000D01*
X18561782Y16039346D01*
X18546775Y16158146D01*
X18546774Y16158149D01*
X18545781Y16166011D01*
X18542864Y16173379D01*
X18487842Y16312348D01*
X18487841Y16312350D01*
X18484924Y16319717D01*
X18474456Y16334126D01*
X18392415Y16447045D01*
X18387755Y16453459D01*
X18343256Y16490272D01*
X18266487Y16553781D01*
X18266483Y16553784D01*
X18260378Y16558834D01*
X18110797Y16629222D01*
X18103014Y16630707D01*
X18103013Y16630707D01*
X17956196Y16658714D01*
X17956194Y16658714D01*
X17948410Y16660199D01*
X17910889Y16657838D01*
X17851917Y16654128D01*
X17782675Y16669813D01*
X17754910Y16690784D01*
X15656405Y18789290D01*
X15622379Y18851602D01*
X15619500Y18878385D01*
X15619500Y20995485D01*
X15639502Y21063606D01*
X15665185Y21092570D01*
X15714647Y21133488D01*
X15720755Y21138541D01*
X15805497Y21255178D01*
X15813265Y21265870D01*
X15813266Y21265872D01*
X15817924Y21272283D01*
X15834779Y21314852D01*
X15875864Y21418621D01*
X15875864Y21418623D01*
X15878781Y21425989D01*
X15882586Y21456103D01*
X15898506Y21582132D01*
X15899500Y21590000D01*
X15895917Y21618363D01*
X15879775Y21746146D01*
X15879774Y21746149D01*
X15878781Y21754011D01*
X15873440Y21767502D01*
X15839938Y21852116D01*
X15833459Y21922816D01*
X15866231Y21985796D01*
X15927850Y22021060D01*
X15957090Y22024500D01*
X18143710Y22024500D01*
X18211831Y22004498D01*
X18235559Y21984754D01*
X18248619Y21970847D01*
X18388199Y21882267D01*
X18395738Y21879817D01*
X18395741Y21879816D01*
X18537884Y21833631D01*
X18537886Y21833631D01*
X18545422Y21831182D01*
X18553331Y21830684D01*
X18553333Y21830684D01*
X18627916Y21825992D01*
X18710410Y21820801D01*
X18718194Y21822286D01*
X18718196Y21822286D01*
X18865013Y21850293D01*
X18865014Y21850293D01*
X18872797Y21851778D01*
X19022378Y21922166D01*
X19028483Y21927216D01*
X19028487Y21927219D01*
X19143647Y22022488D01*
X19149755Y22027541D01*
X19162692Y22045348D01*
X19242265Y22154870D01*
X19242266Y22154872D01*
X19246924Y22161283D01*
X19250138Y22169399D01*
X19304864Y22307621D01*
X19304864Y22307623D01*
X19307781Y22314989D01*
X19309246Y22326581D01*
X19327506Y22471132D01*
X19328500Y22479000D01*
X19317322Y22567483D01*
X19308775Y22635146D01*
X19308774Y22635149D01*
X19307781Y22643011D01*
X19286892Y22695770D01*
X19249842Y22789348D01*
X19249841Y22789350D01*
X19246924Y22796717D01*
X19241071Y22804774D01*
X19154415Y22924045D01*
X19149755Y22930459D01*
X19140652Y22937990D01*
X19028487Y23030781D01*
X19028483Y23030784D01*
X19022378Y23035834D01*
X18872797Y23106222D01*
X18865004Y23107709D01*
X18860177Y23109277D01*
X18801571Y23149350D01*
X18773933Y23214747D01*
X18781425Y23268213D01*
X18781747Y23268694D01*
X18801500Y23368000D01*
X18801500Y24892000D01*
X18803727Y24892000D01*
X18815095Y24951913D01*
X18863940Y25003437D01*
X18927254Y25020500D01*
X19172746Y25020500D01*
X19240867Y25000498D01*
X19287360Y24946842D01*
X19296500Y24892000D01*
X19298500Y24892000D01*
X19298500Y23368000D01*
X19318253Y23268694D01*
X19374506Y23184506D01*
X19458694Y23128253D01*
X19558000Y23108500D01*
X20371616Y23108500D01*
X20439737Y23088498D01*
X20460711Y23071595D01*
X20665595Y22866711D01*
X20699621Y22804399D01*
X20702500Y22777616D01*
X20702500Y22434385D01*
X20682498Y22366264D01*
X20665595Y22345289D01*
X20220213Y21899908D01*
X19776411Y21456106D01*
X19776409Y21456103D01*
X19352936Y21032631D01*
X19336748Y21019557D01*
X19333957Y21017018D01*
X19325206Y21011367D01*
X19318759Y21003189D01*
X19318758Y21003188D01*
X19305719Y20986648D01*
X19301377Y20981763D01*
X19301424Y20981723D01*
X19298071Y20977766D01*
X19294390Y20974085D01*
X19282305Y20957174D01*
X19278741Y20952428D01*
X19247039Y20912213D01*
X19244008Y20903582D01*
X19238687Y20896136D01*
X19235703Y20886158D01*
X19235702Y20886156D01*
X19224005Y20847044D01*
X19222170Y20841397D01*
X19209250Y20804606D01*
X19205204Y20793086D01*
X19204479Y20784714D01*
X19204479Y20782005D01*
X19204466Y20781712D01*
X19202510Y20775170D01*
X19202919Y20764763D01*
X19204382Y20727534D01*
X19204479Y20722586D01*
X19204479Y13360376D01*
X19202274Y13339658D01*
X19202097Y13335900D01*
X19199906Y13325724D01*
X19201130Y13315385D01*
X19203606Y13294462D01*
X19203990Y13287945D01*
X19204051Y13287950D01*
X19204479Y13282771D01*
X19204479Y13277571D01*
X19205333Y13272443D01*
X19205333Y13272438D01*
X19207888Y13257088D01*
X19208725Y13251211D01*
X19214746Y13200339D01*
X19218707Y13192091D01*
X19220209Y13183065D01*
X19244548Y13137957D01*
X19247226Y13132699D01*
X19265968Y13093667D01*
X19265970Y13093663D01*
X19269400Y13086521D01*
X19274807Y13080089D01*
X19276743Y13078153D01*
X19276921Y13077959D01*
X19280164Y13071948D01*
X19287811Y13064879D01*
X19287812Y13064878D01*
X19315168Y13039591D01*
X19318735Y13036161D01*
X20735944Y11618951D01*
X20749021Y11602759D01*
X20751562Y11599966D01*
X20757211Y11591218D01*
X20765389Y11584771D01*
X20765390Y11584770D01*
X20781930Y11571731D01*
X20786815Y11567389D01*
X20786855Y11567436D01*
X20790812Y11564083D01*
X20794493Y11560402D01*
X20807715Y11550953D01*
X20811404Y11548317D01*
X20816150Y11544753D01*
X20856365Y11513051D01*
X20864996Y11510020D01*
X20872442Y11504699D01*
X20882420Y11501715D01*
X20882422Y11501714D01*
X20921534Y11490017D01*
X20927175Y11488184D01*
X20932406Y11486347D01*
X20968013Y11473842D01*
X20968016Y11473841D01*
X20975492Y11471216D01*
X20983864Y11470491D01*
X20986573Y11470491D01*
X20986866Y11470478D01*
X20993408Y11468522D01*
X21041043Y11470394D01*
X21045992Y11470491D01*
X21703523Y11470491D01*
X25259227Y11470492D01*
X25279945Y11468287D01*
X25283703Y11468110D01*
X25293879Y11465919D01*
X25325141Y11469619D01*
X25331658Y11470003D01*
X25331653Y11470064D01*
X25336832Y11470492D01*
X25342032Y11470492D01*
X25347160Y11471346D01*
X25347165Y11471346D01*
X25362515Y11473901D01*
X25368392Y11474738D01*
X25386646Y11476899D01*
X25419264Y11480759D01*
X25427512Y11484720D01*
X25436538Y11486222D01*
X25481646Y11510561D01*
X25486904Y11513239D01*
X25525936Y11531981D01*
X25525940Y11531983D01*
X25533082Y11535413D01*
X25539514Y11540820D01*
X25541452Y11542758D01*
X25541643Y11542934D01*
X25547655Y11546177D01*
X25554724Y11553825D01*
X25554730Y11553829D01*
X25580025Y11581194D01*
X25583455Y11584761D01*
X25628910Y11630216D01*
X25691222Y11664242D01*
X25725917Y11666872D01*
X25784889Y11663162D01*
X25822410Y11660801D01*
X25830194Y11662286D01*
X25830196Y11662286D01*
X25977013Y11690293D01*
X25977014Y11690293D01*
X25984797Y11691778D01*
X26134378Y11762166D01*
X26140483Y11767216D01*
X26140487Y11767219D01*
X26255647Y11862488D01*
X26261755Y11867541D01*
X26312946Y11938000D01*
X26354265Y11994870D01*
X26354266Y11994872D01*
X26358924Y12001283D01*
X26381037Y12057132D01*
X26416864Y12147621D01*
X26416864Y12147623D01*
X26419781Y12154989D01*
X26428139Y12221146D01*
X26430631Y12240878D01*
X26440500Y12319000D01*
X26440079Y12322336D01*
X26459513Y12388510D01*
X26513171Y12435000D01*
X26541896Y12444151D01*
X26617200Y12458516D01*
X26617202Y12458517D01*
X26624983Y12460001D01*
X26774564Y12530389D01*
X26780669Y12535439D01*
X26780673Y12535442D01*
X26895833Y12630711D01*
X26901941Y12635764D01*
X26916486Y12655784D01*
X26972707Y12699137D01*
X27018422Y12707723D01*
X29544458Y12707723D01*
X29565176Y12705518D01*
X29568934Y12705341D01*
X29579110Y12703150D01*
X29610372Y12706850D01*
X29616889Y12707234D01*
X29616884Y12707295D01*
X29622063Y12707723D01*
X29627263Y12707723D01*
X29632391Y12708577D01*
X29632396Y12708577D01*
X29647746Y12711132D01*
X29653623Y12711969D01*
X29671877Y12714130D01*
X29704495Y12717990D01*
X29712743Y12721951D01*
X29721769Y12723453D01*
X29766877Y12747792D01*
X29772135Y12750470D01*
X29811167Y12769212D01*
X29811171Y12769214D01*
X29818313Y12772644D01*
X29824745Y12778051D01*
X29826683Y12779989D01*
X29826874Y12780165D01*
X29832886Y12783408D01*
X29839955Y12791056D01*
X29839961Y12791060D01*
X29865256Y12818425D01*
X29868686Y12821992D01*
X33053405Y16006711D01*
X33115717Y16040737D01*
X33186532Y16035672D01*
X33243368Y15993125D01*
X33268179Y15926605D01*
X33268500Y15917616D01*
X33268500Y14478000D01*
X33288253Y14378694D01*
X33344506Y14294506D01*
X33428694Y14238253D01*
X33528000Y14218500D01*
X35052000Y14218500D01*
X35151306Y14238253D01*
X35235494Y14294506D01*
X35291747Y14378694D01*
X35311500Y14478000D01*
X35311500Y16002000D01*
X35808500Y16002000D01*
X35808500Y14478000D01*
X35828253Y14378694D01*
X35884506Y14294506D01*
X35968694Y14238253D01*
X36068000Y14218500D01*
X37592000Y14218500D01*
X37691306Y14238253D01*
X37775494Y14294506D01*
X37831747Y14378694D01*
X37851500Y14478000D01*
X37851500Y16002000D01*
X37831747Y16101306D01*
X37775494Y16185494D01*
X37691306Y16241747D01*
X37592000Y16261500D01*
X36068000Y16261500D01*
X35968694Y16241747D01*
X35884506Y16185494D01*
X35828253Y16101306D01*
X35808500Y16002000D01*
X35311500Y16002000D01*
X35291747Y16101306D01*
X35235494Y16185494D01*
X35151306Y16241747D01*
X35052000Y16261500D01*
X33612384Y16261500D01*
X33544263Y16281502D01*
X33497770Y16335158D01*
X33487666Y16405432D01*
X33517160Y16470012D01*
X33523289Y16476595D01*
X33768289Y16721595D01*
X33830601Y16755621D01*
X33857384Y16758500D01*
X35052000Y16758500D01*
X35151306Y16778253D01*
X35235494Y16834506D01*
X35291747Y16918694D01*
X35311500Y17018000D01*
X35311500Y18542000D01*
X35808500Y18542000D01*
X35808500Y17018000D01*
X35828253Y16918694D01*
X35884506Y16834506D01*
X35968694Y16778253D01*
X36068000Y16758500D01*
X37592000Y16758500D01*
X37691306Y16778253D01*
X37775494Y16834506D01*
X37831747Y16918694D01*
X37851500Y17018000D01*
X37851500Y18542000D01*
X37831747Y18641306D01*
X37775494Y18725494D01*
X37691306Y18781747D01*
X37592000Y18801500D01*
X36068000Y18801500D01*
X35968694Y18781747D01*
X35884506Y18725494D01*
X35828253Y18641306D01*
X35808500Y18542000D01*
X35311500Y18542000D01*
X35291747Y18641306D01*
X35235494Y18725494D01*
X35151306Y18781747D01*
X35052000Y18801500D01*
X33528000Y18801500D01*
X33428694Y18781747D01*
X33344506Y18725494D01*
X33288253Y18641306D01*
X33268500Y18542000D01*
X33268500Y17347385D01*
X33248498Y17279264D01*
X33231595Y17258289D01*
X32497602Y16524297D01*
X32435290Y16490272D01*
X32364474Y16495337D01*
X32307639Y16537884D01*
X32291355Y16567009D01*
X32259808Y16646687D01*
X32259807Y16646689D01*
X32256890Y16654056D01*
X32159721Y16787798D01*
X32123628Y16817657D01*
X32038453Y16888120D01*
X32038449Y16888123D01*
X32032344Y16893173D01*
X31882763Y16963561D01*
X31874980Y16965046D01*
X31874979Y16965046D01*
X31728162Y16993053D01*
X31728160Y16993053D01*
X31720376Y16994538D01*
X31637882Y16989347D01*
X31563299Y16984655D01*
X31563297Y16984655D01*
X31555388Y16984157D01*
X31547852Y16981708D01*
X31547850Y16981708D01*
X31405707Y16935523D01*
X31405704Y16935522D01*
X31398165Y16933072D01*
X31258585Y16844492D01*
X31253158Y16838713D01*
X31253157Y16838712D01*
X31202857Y16785148D01*
X31145419Y16723983D01*
X31141602Y16717040D01*
X31095915Y16633936D01*
X31045569Y16583877D01*
X30976152Y16568984D01*
X30909703Y16593985D01*
X30867319Y16650942D01*
X30859500Y16694637D01*
X30859500Y21082000D01*
X33268500Y21082000D01*
X33268500Y19558000D01*
X33288253Y19458694D01*
X33344506Y19374506D01*
X33428694Y19318253D01*
X33528000Y19298500D01*
X35052000Y19298500D01*
X35151306Y19318253D01*
X35235494Y19374506D01*
X35291747Y19458694D01*
X35311500Y19558000D01*
X35311500Y21082000D01*
X35808500Y21082000D01*
X35808500Y19558000D01*
X35828253Y19458694D01*
X35884506Y19374506D01*
X35968694Y19318253D01*
X36068000Y19298500D01*
X37592000Y19298500D01*
X37691306Y19318253D01*
X37775494Y19374506D01*
X37831747Y19458694D01*
X37851500Y19558000D01*
X37851500Y21082000D01*
X37831747Y21181306D01*
X37775494Y21265494D01*
X37691306Y21321747D01*
X37592000Y21341500D01*
X36068000Y21341500D01*
X35968694Y21321747D01*
X35884506Y21265494D01*
X35828253Y21181306D01*
X35808500Y21082000D01*
X35311500Y21082000D01*
X35291747Y21181306D01*
X35235494Y21265494D01*
X35151306Y21321747D01*
X35052000Y21341500D01*
X33528000Y21341500D01*
X33428694Y21321747D01*
X33344506Y21265494D01*
X33288253Y21181306D01*
X33268500Y21082000D01*
X30859500Y21082000D01*
X30859500Y22982500D01*
X30879502Y23050621D01*
X30933158Y23097114D01*
X30985500Y23108500D01*
X31242000Y23108500D01*
X31341306Y23128253D01*
X31425494Y23184506D01*
X31481747Y23268694D01*
X31501500Y23368000D01*
X31501500Y24892000D01*
X31481747Y24991306D01*
X31425494Y25075494D01*
X31341306Y25131747D01*
X31242000Y25151500D01*
X29718000Y25151500D01*
X29618694Y25131747D01*
X29534506Y25075494D01*
X29478253Y24991306D01*
X29458500Y24892000D01*
X29458500Y23452385D01*
X29438498Y23384264D01*
X29384842Y23337771D01*
X29314568Y23327667D01*
X29249988Y23357161D01*
X29243405Y23363290D01*
X28998405Y23608290D01*
X28964379Y23670602D01*
X28961500Y23697385D01*
X28961500Y24892000D01*
X28941747Y24991306D01*
X28885494Y25075494D01*
X28801306Y25131747D01*
X28702000Y25151500D01*
X27178000Y25151500D01*
X27078694Y25131747D01*
X27068375Y25124852D01*
X27056910Y25120103D01*
X27056444Y25121229D01*
X27000936Y25103850D01*
X26932470Y25122635D01*
X26909595Y25140735D01*
X26419288Y25631043D01*
X26402536Y25651786D01*
X26398024Y25658772D01*
X26400527Y25660388D01*
X26376692Y25709401D01*
X26385090Y25779899D01*
X26394044Y25796423D01*
X26394853Y25798377D01*
X26401747Y25808694D01*
X26421500Y25908000D01*
X26421500Y27432000D01*
X26918500Y27432000D01*
X26918500Y25908000D01*
X26938253Y25808694D01*
X26994506Y25724506D01*
X27078694Y25668253D01*
X27178000Y25648500D01*
X28702000Y25648500D01*
X28801306Y25668253D01*
X28885494Y25724506D01*
X28941747Y25808694D01*
X28961500Y25908000D01*
X28961500Y27432000D01*
X29458500Y27432000D01*
X29458500Y25908000D01*
X29478253Y25808694D01*
X29534506Y25724506D01*
X29618694Y25668253D01*
X29718000Y25648500D01*
X31242000Y25648500D01*
X31341306Y25668253D01*
X31425494Y25724506D01*
X31481747Y25808694D01*
X31501500Y25908000D01*
X31501500Y27432000D01*
X31481747Y27531306D01*
X31425494Y27615494D01*
X31341306Y27671747D01*
X31242000Y27691500D01*
X29718000Y27691500D01*
X29618694Y27671747D01*
X29534506Y27615494D01*
X29478253Y27531306D01*
X29458500Y27432000D01*
X28961500Y27432000D01*
X28941747Y27531306D01*
X28885494Y27615494D01*
X28801306Y27671747D01*
X28702000Y27691500D01*
X27178000Y27691500D01*
X27078694Y27671747D01*
X26994506Y27615494D01*
X26938253Y27531306D01*
X26918500Y27432000D01*
X26421500Y27432000D01*
X26401747Y27531306D01*
X26345494Y27615494D01*
X26261306Y27671747D01*
X26162000Y27691500D01*
X24638000Y27691500D01*
X24538694Y27671747D01*
X24454506Y27615494D01*
X24398253Y27531306D01*
X24378500Y27432000D01*
X24378500Y25908000D01*
X24376273Y25908000D01*
X24364905Y25848087D01*
X24316060Y25796563D01*
X24252746Y25779500D01*
X24007254Y25779500D01*
X23939133Y25799502D01*
X23892640Y25853158D01*
X23883500Y25908000D01*
X23881500Y25908000D01*
X23881500Y27432000D01*
X23861747Y27531306D01*
X23805494Y27615494D01*
X23721306Y27671747D01*
X23622000Y27691500D01*
X22098000Y27691500D01*
X21998694Y27671747D01*
X21914506Y27615494D01*
X21858253Y27531306D01*
X21838500Y27432000D01*
X21838500Y25908000D01*
X21836273Y25908000D01*
X21824905Y25848087D01*
X21776060Y25796563D01*
X21712746Y25779500D01*
X21467254Y25779500D01*
X21399133Y25799502D01*
X21352640Y25853158D01*
X21343500Y25908000D01*
X21341500Y25908000D01*
X21341500Y27432000D01*
X21321747Y27531306D01*
X21265494Y27615494D01*
X21181306Y27671747D01*
X21082000Y27691500D01*
X19558000Y27691500D01*
X19458694Y27671747D01*
X19374506Y27615494D01*
X19318253Y27531306D01*
X19298500Y27432000D01*
X19298500Y25908000D01*
X19296273Y25908000D01*
X19284905Y25848087D01*
X19236060Y25796563D01*
X19172746Y25779500D01*
X18927254Y25779500D01*
X18859133Y25799502D01*
X18812640Y25853158D01*
X18803500Y25908000D01*
X18801500Y25908000D01*
X18801500Y27432000D01*
X18781747Y27531306D01*
X18725494Y27615494D01*
X18641306Y27671747D01*
X18542000Y27691500D01*
X17018000Y27691500D01*
X16918694Y27671747D01*
X16834506Y27615494D01*
X16778253Y27531306D01*
X16758500Y27432000D01*
X16758500Y25992384D01*
X16738498Y25924263D01*
X16684842Y25877770D01*
X16614568Y25867666D01*
X16549988Y25897160D01*
X16543405Y25903289D01*
X16298405Y26148289D01*
X16264379Y26210601D01*
X16261500Y26237384D01*
X16261500Y27432000D01*
X16241747Y27531306D01*
X16185494Y27615494D01*
X16101306Y27671747D01*
X16002000Y27691500D01*
X14478000Y27691500D01*
X14378694Y27671747D01*
X14294506Y27615494D01*
X14238253Y27531306D01*
X14218500Y27432000D01*
X14218500Y25908000D01*
X14238253Y25808694D01*
X14294506Y25724506D01*
X14378694Y25668253D01*
X14478000Y25648500D01*
X15672616Y25648500D01*
X15740737Y25628498D01*
X15761711Y25611595D01*
X16006711Y25366595D01*
X16040737Y25304283D01*
X16035672Y25233468D01*
X15993125Y25176632D01*
X15926605Y25151821D01*
X15917616Y25151500D01*
X14478000Y25151500D01*
X14378694Y25131747D01*
X14294506Y25075494D01*
X14238253Y24991306D01*
X14218500Y24892000D01*
X14218500Y23368000D01*
X14238253Y23268694D01*
X14294506Y23184506D01*
X14304822Y23177613D01*
X14324799Y23164265D01*
X14370326Y23109789D01*
X14379175Y23039345D01*
X14348534Y22975301D01*
X14288132Y22937990D01*
X14254797Y22933500D01*
X14187328Y22933500D01*
X14172518Y22934373D01*
X14148920Y22937166D01*
X14139567Y22938273D01*
X14130303Y22936581D01*
X14130300Y22936581D01*
X14081332Y22927638D01*
X14077434Y22926989D01*
X14018888Y22918187D01*
X14012325Y22915036D01*
X14005160Y22913727D01*
X13996802Y22909385D01*
X13996801Y22909385D01*
X13952611Y22886430D01*
X13949070Y22884661D01*
X13913037Y22867358D01*
X13895723Y22859044D01*
X13890433Y22854154D01*
X13890284Y22854053D01*
X13883913Y22850744D01*
X13877546Y22845306D01*
X13838781Y22806541D01*
X13835216Y22803112D01*
X13795392Y22766299D01*
X13791839Y22760183D01*
X13786826Y22754586D01*
X13697361Y22665121D01*
X13635049Y22631095D01*
X13616182Y22628466D01*
X13571358Y22625645D01*
X13534333Y22623316D01*
X13534331Y22623316D01*
X13526422Y22622818D01*
X13518886Y22620369D01*
X13518884Y22620369D01*
X13376741Y22574184D01*
X13376738Y22574183D01*
X13369199Y22571733D01*
X13229619Y22483153D01*
X13224192Y22477374D01*
X13224191Y22477373D01*
X13123371Y22370011D01*
X13116453Y22362644D01*
X13036812Y22217778D01*
X13025470Y22173605D01*
X12989157Y22112601D01*
X12925625Y22080912D01*
X12855046Y22088602D01*
X12799829Y22133229D01*
X12790767Y22148524D01*
X12737743Y22254410D01*
X12733513Y22261619D01*
X12569619Y22502783D01*
X12564720Y22509054D01*
X12551323Y22517372D01*
X12541881Y22511670D01*
X11156020Y21125810D01*
X11148408Y21111869D01*
X11148539Y21110034D01*
X11152790Y21103420D01*
X12537908Y19718303D01*
X12567112Y19702356D01*
X12603885Y19694356D01*
X12654087Y19644154D01*
X12669499Y19583769D01*
X12669499Y19333449D01*
X12649497Y19265328D01*
X12632594Y19244354D01*
X8719188Y15330948D01*
X8708099Y15321093D01*
X8682039Y15300549D01*
X8648352Y15251809D01*
X8646088Y15248641D01*
X8610909Y15201013D01*
X8608496Y15194142D01*
X8604356Y15188152D01*
X8592315Y15150077D01*
X8586509Y15131720D01*
X8585265Y15127989D01*
X8565639Y15072102D01*
X8565356Y15064899D01*
X8565323Y15064732D01*
X8563157Y15057882D01*
X8562500Y15049534D01*
X8562500Y14994686D01*
X8562403Y14989739D01*
X8560275Y14935577D01*
X8562088Y14928740D01*
X8562500Y14921248D01*
X8562500Y12586707D01*
X8542498Y12518586D01*
X8528351Y12500455D01*
X8483453Y12452644D01*
X8403812Y12307778D01*
X8362700Y12147657D01*
X754000Y12147657D01*
X754000Y19346822D01*
X9382855Y19346822D01*
X9390674Y19336111D01*
X9502187Y19248359D01*
X9509088Y19243634D01*
X9760063Y19095208D01*
X9767510Y19091446D01*
X10035933Y18977507D01*
X10043801Y18974767D01*
X10324928Y18897332D01*
X10333107Y18895653D01*
X10621998Y18856081D01*
X10630323Y18855498D01*
X10921909Y18854481D01*
X10930242Y18855005D01*
X11219416Y18892561D01*
X11227581Y18894178D01*
X11509258Y18969653D01*
X11517137Y18972335D01*
X11786351Y19084398D01*
X11793823Y19088107D01*
X12045842Y19234786D01*
X12052760Y19239452D01*
X12176744Y19335624D01*
X12185213Y19347351D01*
X12178638Y19359151D01*
X10796810Y20740980D01*
X10782869Y20748592D01*
X10781034Y20748461D01*
X10774420Y20744210D01*
X9389858Y19359647D01*
X9382855Y19346822D01*
X754000Y19346822D01*
X754000Y21022424D01*
X8523087Y21022424D01*
X8523437Y21014072D01*
X8554928Y20724191D01*
X8556377Y20715974D01*
X8625931Y20432803D01*
X8628458Y20424838D01*
X8734849Y20153358D01*
X8738405Y20145801D01*
X8879775Y19890764D01*
X8884284Y19883766D01*
X9006137Y19719692D01*
X9017329Y19711248D01*
X9029835Y19718046D01*
X10411980Y21100190D01*
X10419592Y21114131D01*
X10419461Y21115966D01*
X10415210Y21122580D01*
X9030496Y22507293D01*
X9017296Y22514501D01*
X9007102Y22507222D01*
X8946607Y22433575D01*
X8941752Y22426794D01*
X8788090Y22178962D01*
X8784177Y22171602D01*
X8664647Y21905636D01*
X8661737Y21897813D01*
X8578429Y21618363D01*
X8576584Y21610242D01*
X8530968Y21322230D01*
X8530212Y21313919D01*
X8523087Y21022424D01*
X754000Y21022424D01*
X754000Y22881408D01*
X9381013Y22881408D01*
X9388017Y22868194D01*
X10771190Y21485020D01*
X10785131Y21477408D01*
X10786966Y21477539D01*
X10793580Y21481790D01*
X12179147Y22867358D01*
X12186556Y22880925D01*
X12179814Y22890580D01*
X12142758Y22922340D01*
X12136088Y22927329D01*
X11891536Y23086144D01*
X11884246Y23090218D01*
X11620848Y23215288D01*
X11613080Y23218364D01*
X11335449Y23307501D01*
X11327360Y23309518D01*
X11040360Y23361158D01*
X11032082Y23362086D01*
X10740777Y23375315D01*
X10732455Y23375141D01*
X10441954Y23349725D01*
X10433716Y23348450D01*
X10149140Y23284840D01*
X10141136Y23282484D01*
X9867475Y23181795D01*
X9859859Y23178405D01*
X9601924Y23042411D01*
X9594808Y23038033D01*
X9389409Y22892063D01*
X9381013Y22881408D01*
X754000Y22881408D01*
X754000Y25400000D01*
X9820500Y25400000D01*
X9840316Y25148219D01*
X9841470Y25143412D01*
X9841471Y25143406D01*
X9870940Y25020662D01*
X9899275Y24902637D01*
X9901168Y24898068D01*
X9901169Y24898064D01*
X9906244Y24885813D01*
X9995925Y24669302D01*
X10127887Y24453960D01*
X10291912Y24261912D01*
X10483960Y24097887D01*
X10699302Y23965925D01*
X10703872Y23964032D01*
X10703876Y23964030D01*
X10928064Y23871169D01*
X10932637Y23869275D01*
X11018021Y23848776D01*
X11173406Y23811471D01*
X11173412Y23811470D01*
X11178219Y23810316D01*
X11277548Y23802498D01*
X11364014Y23795693D01*
X11364021Y23795693D01*
X11366470Y23795500D01*
X11493530Y23795500D01*
X11495979Y23795693D01*
X11495986Y23795693D01*
X11582452Y23802498D01*
X11681781Y23810316D01*
X11686588Y23811470D01*
X11686594Y23811471D01*
X11841979Y23848776D01*
X11927363Y23869275D01*
X11931936Y23871169D01*
X12156124Y23964030D01*
X12156128Y23964032D01*
X12160698Y23965925D01*
X12376040Y24097887D01*
X12568088Y24261912D01*
X12732113Y24453960D01*
X12864075Y24669302D01*
X12953757Y24885813D01*
X12958831Y24898064D01*
X12958832Y24898068D01*
X12960725Y24902637D01*
X12989060Y25020662D01*
X13018529Y25143406D01*
X13018530Y25143412D01*
X13019684Y25148219D01*
X13039500Y25400000D01*
X13019684Y25651781D01*
X13018006Y25658773D01*
X12971338Y25853158D01*
X12960725Y25897363D01*
X12958831Y25901936D01*
X12865970Y26126124D01*
X12865968Y26126128D01*
X12864075Y26130698D01*
X12732113Y26346040D01*
X12568088Y26538088D01*
X12376040Y26702113D01*
X12160698Y26834075D01*
X12156128Y26835968D01*
X12156124Y26835970D01*
X11931936Y26928831D01*
X11931934Y26928832D01*
X11927363Y26930725D01*
X11841979Y26951224D01*
X11686594Y26988529D01*
X11686588Y26988530D01*
X11681781Y26989684D01*
X11582452Y26997502D01*
X11495986Y27004307D01*
X11495979Y27004307D01*
X11493530Y27004500D01*
X11366470Y27004500D01*
X11364021Y27004307D01*
X11364014Y27004307D01*
X11277548Y26997502D01*
X11178219Y26989684D01*
X11173412Y26988530D01*
X11173406Y26988529D01*
X11018021Y26951224D01*
X10932637Y26930725D01*
X10928066Y26928832D01*
X10928064Y26928831D01*
X10703876Y26835970D01*
X10703872Y26835968D01*
X10699302Y26834075D01*
X10483960Y26702113D01*
X10291912Y26538088D01*
X10127887Y26346040D01*
X9995925Y26130698D01*
X9994032Y26126128D01*
X9994030Y26126124D01*
X9901169Y25901936D01*
X9899275Y25897363D01*
X9888662Y25853158D01*
X9841995Y25658773D01*
X9840316Y25651781D01*
X9820500Y25400000D01*
X754000Y25400000D01*
X754000Y29600000D01*
X774002Y29668121D01*
X827658Y29714614D01*
X880000Y29726000D01*
X39760000Y29726000D01*
X39828121Y29705998D01*
G37*
%TD.AperFunction*%
%TA.AperFunction,Conductor*%
G36*
X26145736Y23088498D02*
G01*
X26192229Y23034842D01*
X26202333Y22964568D01*
X26172839Y22899988D01*
X26166712Y22893406D01*
X25797545Y22524240D01*
X25480778Y22207473D01*
X25464590Y22194399D01*
X25461799Y22191860D01*
X25453048Y22186209D01*
X25446601Y22178031D01*
X25446600Y22178030D01*
X25433561Y22161490D01*
X25429219Y22156605D01*
X25429266Y22156565D01*
X25425913Y22152608D01*
X25422232Y22148927D01*
X25419208Y22144695D01*
X25410147Y22132016D01*
X25406583Y22127270D01*
X25374881Y22087055D01*
X25371850Y22078424D01*
X25366529Y22070978D01*
X25363545Y22061000D01*
X25363544Y22060998D01*
X25351847Y22021886D01*
X25350014Y22016245D01*
X25333046Y21967928D01*
X25332321Y21959556D01*
X25332321Y21956847D01*
X25332308Y21956554D01*
X25330352Y21950012D01*
X25330761Y21939605D01*
X25332224Y21902376D01*
X25332321Y21897428D01*
X25332321Y20896357D01*
X25312319Y20828236D01*
X25291365Y20804606D01*
X25291440Y20804536D01*
X25286014Y20798758D01*
X25234790Y20744210D01*
X25178274Y20684027D01*
X25098633Y20539161D01*
X25057521Y20379040D01*
X25057521Y20213726D01*
X25098633Y20053605D01*
X25102452Y20046659D01*
X25140086Y19978202D01*
X25155375Y19908871D01*
X25130754Y19842280D01*
X25074040Y19799572D01*
X25029671Y19791501D01*
X24313173Y19791501D01*
X24245052Y19811503D01*
X24198559Y19865159D01*
X24188168Y19901704D01*
X24178781Y19976011D01*
X24170918Y19995870D01*
X24120842Y20122348D01*
X24120841Y20122350D01*
X24117924Y20129717D01*
X24106239Y20145801D01*
X24025415Y20257045D01*
X24020755Y20263459D01*
X24014647Y20268512D01*
X23899487Y20363781D01*
X23899483Y20363784D01*
X23893378Y20368834D01*
X23743797Y20439222D01*
X23736014Y20440707D01*
X23736013Y20440707D01*
X23589196Y20468714D01*
X23589194Y20468714D01*
X23581410Y20470199D01*
X23498916Y20465009D01*
X23424333Y20460316D01*
X23424331Y20460316D01*
X23416422Y20459818D01*
X23408886Y20457369D01*
X23408884Y20457369D01*
X23266741Y20411184D01*
X23266738Y20411183D01*
X23259199Y20408733D01*
X23197285Y20369441D01*
X23145067Y20336303D01*
X23076833Y20316690D01*
X23008828Y20337081D01*
X22975617Y20368627D01*
X22964415Y20384045D01*
X22959755Y20390459D01*
X22942803Y20404483D01*
X22838487Y20490781D01*
X22838483Y20490784D01*
X22832378Y20495834D01*
X22682797Y20566222D01*
X22675014Y20567707D01*
X22675013Y20567707D01*
X22528196Y20595714D01*
X22528194Y20595714D01*
X22520410Y20597199D01*
X22437916Y20592009D01*
X22363333Y20587316D01*
X22363331Y20587316D01*
X22355422Y20586818D01*
X22347886Y20584369D01*
X22347884Y20584369D01*
X22205741Y20538184D01*
X22205738Y20538183D01*
X22198199Y20535733D01*
X22058619Y20447153D01*
X22053192Y20441374D01*
X22053191Y20441373D01*
X21987212Y20371113D01*
X21945453Y20326644D01*
X21865812Y20181778D01*
X21824700Y20021657D01*
X21824700Y19856343D01*
X21865812Y19696222D01*
X21945453Y19551356D01*
X22054758Y19434959D01*
X22054759Y19434957D01*
X22058619Y19430847D01*
X22057956Y19430225D01*
X22093930Y19376968D01*
X22099449Y19349093D01*
X22099500Y19348476D01*
X22099500Y19343275D01*
X22100354Y19338147D01*
X22100354Y19338142D01*
X22102909Y19322792D01*
X22103746Y19316915D01*
X22109767Y19266043D01*
X22113728Y19257795D01*
X22115230Y19248769D01*
X22139569Y19203661D01*
X22142247Y19198403D01*
X22160989Y19159371D01*
X22160991Y19159367D01*
X22164421Y19152225D01*
X22169828Y19145793D01*
X22171766Y19143855D01*
X22171942Y19143664D01*
X22175185Y19137652D01*
X22182833Y19130583D01*
X22182837Y19130577D01*
X22210202Y19105282D01*
X22213769Y19101852D01*
X23639659Y17675962D01*
X23652740Y17659766D01*
X23655276Y17656979D01*
X23660927Y17648227D01*
X23669106Y17641780D01*
X23669106Y17641779D01*
X23685651Y17628736D01*
X23690534Y17624396D01*
X23690574Y17624443D01*
X23694533Y17621088D01*
X23698210Y17617411D01*
X23702435Y17614392D01*
X23702444Y17614384D01*
X23715114Y17605330D01*
X23719852Y17601773D01*
X23760081Y17570060D01*
X23768712Y17567029D01*
X23776158Y17561708D01*
X23815260Y17550014D01*
X23825241Y17547029D01*
X23830888Y17545194D01*
X23871729Y17530851D01*
X23871732Y17530850D01*
X23879208Y17528225D01*
X23887580Y17527500D01*
X23890289Y17527500D01*
X23890584Y17527487D01*
X23897125Y17525531D01*
X23907532Y17525940D01*
X23922495Y17526528D01*
X23944759Y17527403D01*
X23949708Y17527500D01*
X27471280Y17527500D01*
X27539401Y17507498D01*
X27563130Y17487753D01*
X27607948Y17440027D01*
X27646619Y17398847D01*
X27786199Y17310267D01*
X27793738Y17307817D01*
X27793741Y17307816D01*
X27935884Y17261631D01*
X27935886Y17261631D01*
X27943422Y17259182D01*
X27951331Y17258684D01*
X27951333Y17258684D01*
X28025916Y17253992D01*
X28108410Y17248801D01*
X28116194Y17250286D01*
X28116196Y17250286D01*
X28263013Y17278293D01*
X28263014Y17278293D01*
X28270797Y17279778D01*
X28420378Y17350166D01*
X28426483Y17355216D01*
X28426487Y17355219D01*
X28541647Y17450488D01*
X28547755Y17455541D01*
X28614225Y17547029D01*
X28640265Y17582870D01*
X28640266Y17582872D01*
X28644924Y17589283D01*
X28649867Y17601766D01*
X28702864Y17735621D01*
X28702864Y17735623D01*
X28705781Y17742989D01*
X28712269Y17794342D01*
X28725506Y17899132D01*
X28726500Y17907000D01*
X28705781Y18071011D01*
X28644924Y18224717D01*
X28547755Y18358459D01*
X28498382Y18399304D01*
X28426487Y18458781D01*
X28426483Y18458784D01*
X28420378Y18463834D01*
X28270797Y18534222D01*
X28263014Y18535707D01*
X28263013Y18535707D01*
X28116196Y18563714D01*
X28116194Y18563714D01*
X28108410Y18565199D01*
X28025916Y18560009D01*
X27951333Y18555316D01*
X27951331Y18555316D01*
X27943422Y18554818D01*
X27935886Y18552369D01*
X27935884Y18552369D01*
X27793741Y18506184D01*
X27793738Y18506183D01*
X27786199Y18503733D01*
X27646619Y18415153D01*
X27641192Y18409374D01*
X27641191Y18409373D01*
X27563130Y18326247D01*
X27501917Y18290281D01*
X27471280Y18286500D01*
X24154699Y18286500D01*
X24086578Y18306502D01*
X24065604Y18323405D01*
X23447747Y18941262D01*
X23413722Y19003573D01*
X23418787Y19074388D01*
X23461334Y19131224D01*
X23527854Y19156035D01*
X23544754Y19156107D01*
X23564380Y19154873D01*
X23581410Y19153801D01*
X23589197Y19155286D01*
X23597108Y19155784D01*
X23597291Y19152882D01*
X23654258Y19147323D01*
X23688643Y19126575D01*
X23689213Y19126092D01*
X23692893Y19122412D01*
X23706118Y19112961D01*
X23709804Y19110327D01*
X23714550Y19106763D01*
X23754765Y19075061D01*
X23763396Y19072030D01*
X23770842Y19066709D01*
X23780820Y19063725D01*
X23780822Y19063724D01*
X23819934Y19052027D01*
X23825581Y19050192D01*
X23866413Y19035852D01*
X23866416Y19035851D01*
X23873892Y19033226D01*
X23882264Y19032501D01*
X23884973Y19032501D01*
X23885266Y19032488D01*
X23891808Y19030532D01*
X23939443Y19032404D01*
X23944392Y19032501D01*
X27868236Y19032501D01*
X27888954Y19030296D01*
X27892712Y19030119D01*
X27902888Y19027928D01*
X27934150Y19031628D01*
X27940667Y19032012D01*
X27940662Y19032073D01*
X27945841Y19032501D01*
X27951041Y19032501D01*
X27956169Y19033355D01*
X27956174Y19033355D01*
X27971524Y19035910D01*
X27977401Y19036747D01*
X27995655Y19038908D01*
X28028273Y19042768D01*
X28036521Y19046729D01*
X28045547Y19048231D01*
X28090655Y19072570D01*
X28095913Y19075248D01*
X28134945Y19093990D01*
X28134949Y19093992D01*
X28142091Y19097422D01*
X28148523Y19102829D01*
X28150461Y19104767D01*
X28150652Y19104943D01*
X28156664Y19108186D01*
X28167165Y19119545D01*
X28228092Y19155990D01*
X28267598Y19159767D01*
X28362410Y19153801D01*
X28370194Y19155286D01*
X28370196Y19155286D01*
X28517013Y19183293D01*
X28517014Y19183293D01*
X28524797Y19184778D01*
X28674378Y19255166D01*
X28680483Y19260216D01*
X28680487Y19260219D01*
X28795647Y19355488D01*
X28801755Y19360541D01*
X28856434Y19435800D01*
X28894265Y19487870D01*
X28894266Y19487872D01*
X28898924Y19494283D01*
X28934355Y19583769D01*
X28956864Y19640621D01*
X28956864Y19640623D01*
X28959781Y19647989D01*
X28965639Y19694356D01*
X28979506Y19804132D01*
X28980500Y19812000D01*
X28974898Y19856343D01*
X28960775Y19968146D01*
X28960774Y19968149D01*
X28959781Y19976011D01*
X28951918Y19995870D01*
X28901842Y20122348D01*
X28901841Y20122350D01*
X28898924Y20129717D01*
X28887239Y20145801D01*
X28806415Y20257045D01*
X28801755Y20263459D01*
X28795647Y20268512D01*
X28680487Y20363781D01*
X28680483Y20363784D01*
X28674378Y20368834D01*
X28524797Y20439222D01*
X28517014Y20440707D01*
X28517013Y20440707D01*
X28370196Y20468714D01*
X28370194Y20468714D01*
X28362410Y20470199D01*
X28279916Y20465009D01*
X28205333Y20460316D01*
X28205331Y20460316D01*
X28197422Y20459818D01*
X28189886Y20457369D01*
X28189884Y20457369D01*
X28047741Y20411184D01*
X28047738Y20411183D01*
X28040199Y20408733D01*
X27900619Y20320153D01*
X27895192Y20314374D01*
X27895191Y20314373D01*
X27841356Y20257045D01*
X27787453Y20199644D01*
X27707812Y20054778D01*
X27697273Y20013730D01*
X27670350Y19908871D01*
X27666700Y19894657D01*
X27665637Y19894930D01*
X27640207Y19836629D01*
X27581146Y19797229D01*
X27543586Y19791501D01*
X26398771Y19791501D01*
X26330650Y19811503D01*
X26284157Y19865159D01*
X26274053Y19935433D01*
X26287461Y19975522D01*
X26289745Y19978666D01*
X26304027Y20014738D01*
X26347685Y20125004D01*
X26347685Y20125006D01*
X26350602Y20132372D01*
X26352299Y20145801D01*
X26370327Y20288515D01*
X26371321Y20296383D01*
X26362195Y20368627D01*
X26351596Y20452529D01*
X26351595Y20452532D01*
X26350602Y20460394D01*
X26345867Y20472354D01*
X26292663Y20606731D01*
X26292662Y20606733D01*
X26289745Y20614100D01*
X26272587Y20637717D01*
X26205513Y20730035D01*
X26192576Y20747842D01*
X26137006Y20793814D01*
X26097268Y20852646D01*
X26091321Y20890898D01*
X26091321Y21692437D01*
X26111323Y21760558D01*
X26128226Y21781532D01*
X26901038Y22554344D01*
X26917234Y22567425D01*
X26920021Y22569961D01*
X26928773Y22575612D01*
X26948264Y22600336D01*
X26952604Y22605219D01*
X26952557Y22605259D01*
X26955912Y22609218D01*
X26959589Y22612895D01*
X26962608Y22617120D01*
X26962616Y22617129D01*
X26971670Y22629799D01*
X26975234Y22634547D01*
X26975707Y22635146D01*
X27006940Y22674766D01*
X27009971Y22683397D01*
X27015292Y22690843D01*
X27022565Y22715160D01*
X27029974Y22739935D01*
X27031809Y22745582D01*
X27046149Y22786414D01*
X27046150Y22786417D01*
X27048775Y22793893D01*
X27049500Y22802265D01*
X27049500Y22804974D01*
X27049513Y22805267D01*
X27051469Y22811809D01*
X27049597Y22859445D01*
X27049500Y22864393D01*
X27049500Y22982746D01*
X27069502Y23050867D01*
X27123158Y23097360D01*
X27178000Y23106500D01*
X27178000Y23108500D01*
X28372616Y23108500D01*
X28440737Y23088498D01*
X28461711Y23071595D01*
X29301595Y22231711D01*
X29335621Y22169399D01*
X29338500Y22142616D01*
X29338500Y17334974D01*
X29318498Y17266853D01*
X29297544Y17243223D01*
X29297619Y17243153D01*
X29184453Y17122644D01*
X29104812Y16977778D01*
X29063700Y16817657D01*
X29063700Y16652343D01*
X29104812Y16492222D01*
X29184453Y16347356D01*
X29189877Y16341580D01*
X29265078Y16261500D01*
X29297619Y16226847D01*
X29381871Y16173379D01*
X29384131Y16171945D01*
X29430930Y16118556D01*
X29441435Y16048341D01*
X29412311Y15983593D01*
X29352805Y15944869D01*
X29324529Y15939809D01*
X29221333Y15933316D01*
X29221331Y15933316D01*
X29213422Y15932818D01*
X29205886Y15930369D01*
X29205884Y15930369D01*
X29063741Y15884184D01*
X29063738Y15884183D01*
X29056199Y15881733D01*
X28916619Y15793153D01*
X28911192Y15787374D01*
X28911191Y15787373D01*
X28809641Y15679234D01*
X28803453Y15672644D01*
X28723812Y15527778D01*
X28682700Y15367657D01*
X28682700Y15202343D01*
X28723812Y15042222D01*
X28765547Y14966307D01*
X28799416Y14904699D01*
X28814705Y14835368D01*
X28790084Y14768777D01*
X28733371Y14726069D01*
X28689001Y14717998D01*
X22839668Y14717998D01*
X22771547Y14738000D01*
X22725054Y14791656D01*
X22714663Y14828199D01*
X22705276Y14902508D01*
X22697856Y14921248D01*
X22647337Y15048845D01*
X22647336Y15048847D01*
X22644419Y15056214D01*
X22637442Y15065818D01*
X22551910Y15183542D01*
X22547250Y15189956D01*
X22524725Y15208590D01*
X22425982Y15290278D01*
X22425978Y15290281D01*
X22419873Y15295331D01*
X22270292Y15365719D01*
X22262509Y15367204D01*
X22262508Y15367204D01*
X22115691Y15395211D01*
X22115689Y15395211D01*
X22107905Y15396696D01*
X22025411Y15391505D01*
X21950828Y15386813D01*
X21950826Y15386813D01*
X21942917Y15386315D01*
X21833087Y15350629D01*
X21762121Y15348601D01*
X21701323Y15385264D01*
X21669997Y15448976D01*
X21668152Y15470462D01*
X21668152Y18272800D01*
X21688154Y18340921D01*
X21694536Y18349100D01*
X21694407Y18349194D01*
X21786917Y18476523D01*
X21786918Y18476525D01*
X21791576Y18482936D01*
X21795992Y18494088D01*
X21849516Y18629274D01*
X21849516Y18629276D01*
X21852433Y18636642D01*
X21854037Y18649334D01*
X21870764Y18781747D01*
X21873152Y18800653D01*
X21865878Y18858233D01*
X21853427Y18956799D01*
X21853426Y18956802D01*
X21852433Y18964664D01*
X21826900Y19029152D01*
X21794494Y19111001D01*
X21794493Y19111003D01*
X21791576Y19118370D01*
X21780013Y19134286D01*
X21700567Y19243634D01*
X21694407Y19252112D01*
X21676796Y19266681D01*
X21573139Y19352434D01*
X21573135Y19352437D01*
X21567030Y19357487D01*
X21417449Y19427875D01*
X21409666Y19429360D01*
X21409665Y19429360D01*
X21262848Y19457367D01*
X21262846Y19457367D01*
X21255062Y19458852D01*
X21172568Y19453661D01*
X21097985Y19448969D01*
X21097983Y19448969D01*
X21090074Y19448471D01*
X21028434Y19428443D01*
X20957468Y19426415D01*
X20896670Y19463078D01*
X20865345Y19526790D01*
X20863499Y19548276D01*
X20863499Y19946617D01*
X20883501Y20014738D01*
X20900404Y20035712D01*
X22482787Y21618095D01*
X22545099Y21652121D01*
X22571882Y21655000D01*
X23251735Y21655000D01*
X23272453Y21652795D01*
X23276211Y21652618D01*
X23286387Y21650427D01*
X23317649Y21654127D01*
X23324166Y21654511D01*
X23324161Y21654572D01*
X23329340Y21655000D01*
X23334540Y21655000D01*
X23339668Y21655854D01*
X23339673Y21655854D01*
X23355023Y21658409D01*
X23360900Y21659246D01*
X23379154Y21661407D01*
X23411772Y21665267D01*
X23420020Y21669228D01*
X23429046Y21670730D01*
X23474154Y21695069D01*
X23479412Y21697747D01*
X23518444Y21716489D01*
X23518448Y21716491D01*
X23525590Y21719921D01*
X23532022Y21725328D01*
X23533960Y21727266D01*
X23534151Y21727442D01*
X23540163Y21730685D01*
X23547232Y21738333D01*
X23547238Y21738337D01*
X23572533Y21765702D01*
X23575963Y21769269D01*
X24878289Y23071595D01*
X24940601Y23105621D01*
X24967384Y23108500D01*
X26077615Y23108500D01*
X26145736Y23088498D01*
G37*
%TD.AperFunction*%
%TD*%
M02*
