%TF.GenerationSoftware,KiCad,Pcbnew,6.0.4-6f826c9f35~116~ubuntu20.04.1*%
%TF.CreationDate,2022-06-14T10:26:01+00:00*%
%TF.ProjectId,USB232R02A,55534232-3332-4523-9032-412e6b696361,rev?*%
%TF.SameCoordinates,Original*%
%TF.FileFunction,Soldermask,Bot*%
%TF.FilePolarity,Negative*%
%FSLAX46Y46*%
G04 Gerber Fmt 4.6, Leading zero omitted, Abs format (unit mm)*
G04 Created by KiCad (PCBNEW 6.0.4-6f826c9f35~116~ubuntu20.04.1) date 2022-06-14 10:26:01*
%MOMM*%
%LPD*%
G01*
G04 APERTURE LIST*
G04 Aperture macros list*
%AMRoundRect*
0 Rectangle with rounded corners*
0 $1 Rounding radius*
0 $2 $3 $4 $5 $6 $7 $8 $9 X,Y pos of 4 corners*
0 Add a 4 corners polygon primitive as box body*
4,1,4,$2,$3,$4,$5,$6,$7,$8,$9,$2,$3,0*
0 Add four circle primitives for the rounded corners*
1,1,$1+$1,$2,$3*
1,1,$1+$1,$4,$5*
1,1,$1+$1,$6,$7*
1,1,$1+$1,$8,$9*
0 Add four rect primitives between the rounded corners*
20,1,$1+$1,$2,$3,$4,$5,0*
20,1,$1+$1,$4,$5,$6,$7,0*
20,1,$1+$1,$6,$7,$8,$9,0*
20,1,$1+$1,$8,$9,$2,$3,0*%
%AMFreePoly0*
4,1,41,0.586777,0.930194,0.656366,0.874698,0.694986,0.794504,0.700000,0.750000,0.700000,-0.750000,0.680194,-0.836777,0.624698,-0.906366,0.544504,-0.944986,0.500000,-0.950000,0.000000,-0.950000,-0.023504,-0.944635,-0.083606,-0.943534,-0.139582,-0.934468,-0.274897,-0.892193,-0.326080,-0.867780,-0.444090,-0.789225,-0.486362,-0.751429,-0.577582,-0.642910,-0.607548,-0.594768,-0.664643,-0.465009,
-0.679893,-0.410393,-0.697476,-0.275933,-0.697084,-0.275882,-0.700000,-0.250000,-0.700000,0.250000,-0.697921,0.259109,-0.697582,0.286880,-0.675771,0.426957,-0.659192,0.481183,-0.598944,0.609508,-0.567811,0.656904,-0.473967,0.763162,-0.430783,0.799915,-0.310888,0.875563,-0.259125,0.898717,-0.122818,0.937674,-0.066635,0.945370,-0.042411,0.945222,0.000000,0.950000,0.500000,0.950000,
0.586777,0.930194,0.586777,0.930194,$1*%
%AMFreePoly1*
4,1,41,0.022678,0.944824,0.075125,0.944504,0.131210,0.936123,0.267031,0.895504,0.318507,0.871718,0.437469,0.794611,0.480202,0.757333,0.572740,0.649936,0.603290,0.602165,0.661967,0.473113,0.677883,0.418686,0.697980,0.278353,0.700000,0.250000,0.700000,-0.250000,0.699985,-0.252439,0.699836,-0.264655,0.697079,-0.295398,0.673559,-0.435199,0.656318,-0.489221,0.594506,-0.616800,
0.562797,-0.663810,0.467662,-0.768914,0.424032,-0.805137,0.303222,-0.879314,0.251181,-0.901834,0.114408,-0.939123,0.058135,-0.946132,0.037663,-0.945757,0.000000,-0.950000,-0.500000,-0.950000,-0.586777,-0.930194,-0.656366,-0.874698,-0.694986,-0.794504,-0.700000,-0.750000,-0.700000,0.750000,-0.680194,0.836777,-0.624698,0.906366,-0.544504,0.944986,-0.500000,0.950000,0.000000,0.950000,
0.022678,0.944824,0.022678,0.944824,$1*%
G04 Aperture macros list end*
%ADD10C,6.400000*%
%ADD11RoundRect,0.200000X0.850000X0.850000X-0.850000X0.850000X-0.850000X-0.850000X0.850000X-0.850000X0*%
%ADD12C,2.100000*%
%ADD13C,3.900000*%
%ADD14RoundRect,0.200000X-0.762000X-0.762000X0.762000X-0.762000X0.762000X0.762000X-0.762000X0.762000X0*%
%ADD15RoundRect,0.200000X0.762000X-0.762000X0.762000X0.762000X-0.762000X0.762000X-0.762000X-0.762000X0*%
%ADD16RoundRect,0.200000X-0.762000X0.762000X-0.762000X-0.762000X0.762000X-0.762000X0.762000X0.762000X0*%
%ADD17RoundRect,0.200000X0.762000X0.762000X-0.762000X0.762000X-0.762000X-0.762000X0.762000X-0.762000X0*%
%ADD18RoundRect,0.200000X-0.444500X-0.698500X0.444500X-0.698500X0.444500X0.698500X-0.444500X0.698500X0*%
%ADD19RoundRect,0.200000X0.698500X-0.444500X0.698500X0.444500X-0.698500X0.444500X-0.698500X-0.444500X0*%
%ADD20RoundRect,0.200000X-0.698500X0.444500X-0.698500X-0.444500X0.698500X-0.444500X0.698500X0.444500X0*%
%ADD21RoundRect,0.200000X0.444500X0.698500X-0.444500X0.698500X-0.444500X-0.698500X0.444500X-0.698500X0*%
%ADD22RoundRect,0.262500X0.062500X-0.350000X0.062500X0.350000X-0.062500X0.350000X-0.062500X-0.350000X0*%
%ADD23RoundRect,0.262500X0.350000X-0.062500X0.350000X0.062500X-0.350000X0.062500X-0.350000X-0.062500X0*%
%ADD24RoundRect,0.200000X1.250000X-1.250000X1.250000X1.250000X-1.250000X1.250000X-1.250000X-1.250000X0*%
%ADD25C,2.700000*%
%ADD26RoundRect,0.200000X-0.475000X-0.750000X0.475000X-0.750000X0.475000X0.750000X-0.475000X0.750000X0*%
%ADD27RoundRect,0.350000X0.512500X0.150000X-0.512500X0.150000X-0.512500X-0.150000X0.512500X-0.150000X0*%
%ADD28RoundRect,0.200000X1.250000X0.900000X-1.250000X0.900000X-1.250000X-0.900000X1.250000X-0.900000X0*%
%ADD29RoundRect,0.200000X0.950000X1.700000X-0.950000X1.700000X-0.950000X-1.700000X0.950000X-1.700000X0*%
%ADD30FreePoly0,270.000000*%
%ADD31FreePoly1,270.000000*%
G04 APERTURE END LIST*
D10*
%TO.C,H3*%
X133665000Y-110674000D03*
%TD*%
D11*
%TO.C,J1*%
X144079000Y-101911000D03*
D12*
X144079000Y-99411000D03*
X142079000Y-99411000D03*
X142079000Y-101911000D03*
D13*
X139369000Y-106681000D03*
X139369000Y-94641000D03*
%TD*%
D14*
%TO.C,J17*%
X162875000Y-105594000D03*
X165415000Y-105594000D03*
%TD*%
%TO.C,J6*%
X162875000Y-97974000D03*
X165415000Y-97974000D03*
%TD*%
%TO.C,J5*%
X162875000Y-95434000D03*
X165415000Y-95434000D03*
%TD*%
D15*
%TO.C,J12*%
X148905000Y-91624000D03*
X148905000Y-89084000D03*
%TD*%
D10*
%TO.C,H4*%
X164145000Y-110674000D03*
%TD*%
D15*
%TO.C,J3*%
X153985000Y-111944000D03*
X153985000Y-109404000D03*
X156525000Y-111944000D03*
X156525000Y-109404000D03*
X159065000Y-111944000D03*
X159065000Y-109404000D03*
%TD*%
D14*
%TO.C,J14*%
X143825000Y-89084000D03*
%TD*%
D16*
%TO.C,J13*%
X146365000Y-89084000D03*
%TD*%
D14*
%TO.C,J8*%
X162875000Y-100514000D03*
X165415000Y-100514000D03*
%TD*%
D15*
%TO.C,J15*%
X143825000Y-91624000D03*
%TD*%
%TO.C,J10*%
X151445000Y-91624000D03*
X151445000Y-89084000D03*
%TD*%
D10*
%TO.C,H1*%
X164145000Y-90354000D03*
%TD*%
D14*
%TO.C,J7*%
X162875000Y-103054000D03*
X165415000Y-103054000D03*
%TD*%
D10*
%TO.C,H2*%
X133665000Y-90354000D03*
%TD*%
D17*
%TO.C,J16*%
X146365000Y-91624000D03*
%TD*%
D15*
%TO.C,J4*%
X159065000Y-91624000D03*
X159065000Y-89084000D03*
%TD*%
%TO.C,J11*%
X153985000Y-91624000D03*
X153985000Y-89084000D03*
%TD*%
%TO.C,J9*%
X156525000Y-91624000D03*
X156525000Y-89084000D03*
%TD*%
%TO.C,J2*%
X145095000Y-111944000D03*
X145095000Y-109404000D03*
X147635000Y-111944000D03*
X147635000Y-109404000D03*
X150175000Y-111944000D03*
X150175000Y-109404000D03*
%TD*%
D18*
%TO.C,R3*%
X138745000Y-87179000D03*
X140650000Y-87179000D03*
%TD*%
D19*
%TO.C,C3*%
X149667000Y-96069000D03*
X149667000Y-94164000D03*
%TD*%
D20*
%TO.C,FB1*%
X133030000Y-98609000D03*
X133030000Y-100514000D03*
%TD*%
D21*
%TO.C,C1*%
X133030000Y-96069000D03*
X131125000Y-96069000D03*
%TD*%
D18*
%TO.C,R2*%
X158684000Y-94291000D03*
X160589000Y-94291000D03*
%TD*%
D22*
%TO.C,U2*%
X154350000Y-101181500D03*
X153850000Y-101181500D03*
X153350000Y-101181500D03*
X152850000Y-101181500D03*
X152350000Y-101181500D03*
D23*
X151412500Y-100244000D03*
X151412500Y-99744000D03*
X151412500Y-99244000D03*
X151412500Y-98744000D03*
X151412500Y-98244000D03*
D22*
X152350000Y-97306500D03*
X152850000Y-97306500D03*
X153350000Y-97306500D03*
X153850000Y-97306500D03*
X154350000Y-97306500D03*
D23*
X155287500Y-98244000D03*
X155287500Y-98744000D03*
X155287500Y-99244000D03*
X155287500Y-99744000D03*
X155287500Y-100244000D03*
D24*
X153350000Y-99244000D03*
%TD*%
D18*
%TO.C,R1*%
X155128000Y-94291000D03*
X157033000Y-94291000D03*
%TD*%
D25*
%TO.C,D2*%
X140015000Y-90354000D03*
D26*
X142090000Y-90354000D03*
X137940000Y-90354000D03*
%TD*%
D21*
%TO.C,C4*%
X153477000Y-94291000D03*
X151572000Y-94291000D03*
%TD*%
D27*
%TO.C,U1*%
X146365000Y-95119000D03*
X146365000Y-96069000D03*
X146365000Y-97019000D03*
X144090000Y-97019000D03*
X144090000Y-96069000D03*
X144090000Y-95119000D03*
%TD*%
D19*
%TO.C,C2*%
X130490000Y-100514000D03*
X130490000Y-98609000D03*
%TD*%
D21*
%TO.C,C5*%
X159509500Y-101657000D03*
X157604500Y-101657000D03*
%TD*%
D28*
%TO.C,D1*%
X134935000Y-103689000D03*
X130935000Y-103689000D03*
%TD*%
D29*
%TO.C,F1*%
X139380000Y-99244000D03*
X135480000Y-99244000D03*
%TD*%
D25*
%TO.C,D3*%
X140015000Y-110674000D03*
D26*
X142090000Y-110674000D03*
X137940000Y-110674000D03*
%TD*%
D30*
%TO.C,JP1*%
X157668000Y-103943000D03*
D31*
X157668000Y-105243000D03*
%TD*%
D21*
%TO.C,R4*%
X141452500Y-113600000D03*
X139547500Y-113600000D03*
%TD*%
M02*
