M48
; DRILL file {KiCad (5.99.0-9154-g0d2ee266a1)} date 03/26/21 06:43:21
; FORMAT={3:3/ absolute / metric / suppress leading zeros}
; #@! TF.CreationDate,2021-03-26T06:43:21+01:00
; #@! TF.GenerationSoftware,Kicad,Pcbnew,(5.99.0-9154-g0d2ee266a1)
; #@! TF.FileFunction,Plated,1,2,PTH
FMAT,2
METRIC,TZ
T1C0.400
T2C0.889
T3C0.920
T4C2.330
T5C3.000
%
G90
G05
T1
X9017Y12065
X9525Y1905
X13650Y21975
X13970Y20320
X14224Y11303
X14859Y10160
X15240Y21590
X15367Y11303
X16637Y21679
X17907Y16002
X18288Y9779
X18669Y22479
X18669Y17272
X19050Y10795
X19431Y21810
X19685Y11684
X19685Y9525
X20320Y10414
X21209Y14224
X21214Y18801
X22066Y14738
X22479Y19939
X23241Y13335
X23540Y19812
X23590Y21368
X23948Y12628
X25712Y20296
X25781Y12319
X26421Y13087
X28067Y17907
X28321Y19812
X28829Y18796
X29083Y9398
X29337Y15285
X29718Y16735
X31496Y11684
X31496Y9271
X31679Y16336
X32258Y8128
T2
X15240Y26670
X15240Y24130
X16510Y6350
X16510Y3810
X17780Y26670
X17780Y24130
X19050Y6350
X19050Y3810
X20320Y26670
X20320Y24130
X21590Y6350
X21590Y3810
X22860Y26670
X22860Y24130
X25400Y26670
X25400Y24130
X25400Y6350
X25400Y3810
X27940Y26670
X27940Y24130
X27940Y6350
X27940Y3810
X30480Y26670
X30480Y24130
X30480Y6350
X30480Y3810
X34290Y20320
X34290Y17780
X34290Y15240
X34290Y12700
X34290Y10160
X36830Y20320
X36830Y17780
X36830Y15240
X36830Y12700
X36830Y10160
T3
X13494Y16343
X13494Y13843
X15494Y16343
X15494Y13843
T4
X10784Y21113
X10784Y9073
T5
X5080Y25400
X5080Y5080
X35560Y25400
X35560Y5080
T0
M30
