  0
SECTION
  2
HEADER
  9
$ANGBASE
  50
0.0
  9
$ANGDIR
  70
1
  9
$MEASUREMENT
  70
0
  0
ENDSEC
  0
SECTION
  2
TABLES
  0
TABLE
  2
LTYPE
  70
4
  0
LTYPE
  5
40F
  2
CONTINUOUS
  70
0
  3
Solid line
  72
65
  73
0
  40
0.0
  0
LTYPE
  5
410
  2
DASHDOT
 70
0
  3
Dash Dot ____ _ ____ _
 72
65
 73
4
 40
2.0
 49
1.25
 49
-0.25
 49
0.25
 49
-0.25
  0
LTYPE
  5
411
  2
DASHED
 70
0
  3
Dashed __ __ __ __ __
 72
65
 73
2
 40
0.75
 49
0.5
 49
-0.25
  0
LTYPE
  5
43B
  2
DOTTED
 70
0
  3
Dotted .  .  .  .
 72
65
 73
2
 40
0.2
 49
0.0
 49
-0.2
  0
ENDTAB
  0
TABLE
  2
STYLE
  70
4
  0
STYLE
  2
KICAD
  70
0
  40
0
  41
1
  42
1
  50
0
  71
0
  3
isocp.shx
  0
STYLE
  2
KICADB
  70
0
  40
0
  41
1
  42
1
  50
0
  71
0
  3
isocp.shx
  0
STYLE
  2
KICADI
  70
0
  40
0
  41
1
  42
1
  50
15
  71
0
  3
isocp.shx
  0
STYLE
  2
KICADBI
  70
0
  40
0
  41
1
  42
1
  50
15
  71
0
  3
isocp.shx
  0
ENDTAB
  0
TABLE
  2
LAYER
  70
1
  0
LAYER
  2
BLACK
  70
0
  62
7
  6
CONTINUOUS
  0
ENDTAB
  0
ENDSEC
  0
SECTION
  2
ENTITIES
0
LINE
8
BLACK
6
CONTINUOUS
10
6.15749
20
-4.18349
11
6.1572
21
-4.1828
0
LINE
8
BLACK
6
CONTINUOUS
10
6.1572
20
-4.1828
11
6.1572
21
-4.05287
0
LINE
8
BLACK
6
CONTINUOUS
10
6.1572
20
-4.05287
11
6.15749
21
-4.05218
0
LINE
8
BLACK
6
CONTINUOUS
10
6.15749
20
-4.05218
11
6.15819
21
-4.05189
0
LINE
8
BLACK
6
CONTINUOUS
10
6.15819
20
-4.05189
11
6.25661
21
-4.05189
0
LINE
8
BLACK
6
CONTINUOUS
10
6.25661
20
-4.05189
11
6.25731
21
-4.05218
0
LINE
8
BLACK
6
CONTINUOUS
10
6.25731
20
-4.05218
11
6.2576
21
-4.05287
0
LINE
8
BLACK
6
CONTINUOUS
10
6.2576
20
-4.05287
11
6.2576
21
-4.1828
0
LINE
8
BLACK
6
CONTINUOUS
10
6.2576
20
-4.1828
11
6.25731
21
-4.18349
0
LINE
8
BLACK
6
CONTINUOUS
10
6.25731
20
-4.18349
11
6.25661
21
-4.18378
0
LINE
8
BLACK
6
CONTINUOUS
10
6.25661
20
-4.18378
11
6.15819
21
-4.18378
0
LINE
8
BLACK
6
CONTINUOUS
10
6.15819
20
-4.18378
11
6.15749
21
-4.18349
0
LINE
8
BLACK
6
CONTINUOUS
10
6.15917
20
-4.05386
11
6.15917
21
-4.18181
0
LINE
8
BLACK
6
CONTINUOUS
10
6.15917
20
-4.18181
11
6.25563
21
-4.18181
0
LINE
8
BLACK
6
CONTINUOUS
10
6.25563
20
-4.18181
11
6.25563
21
-4.05386
0
LINE
8
BLACK
6
CONTINUOUS
10
6.25563
20
-4.05386
11
6.15917
21
-4.05386
0
LINE
8
BLACK
6
CONTINUOUS
10
5.09517
20
-4.15184
11
5.09488
21
-4.15114
0
LINE
8
BLACK
6
CONTINUOUS
10
5.09488
20
-4.15114
11
5.09488
21
-4.01335
0
LINE
8
BLACK
6
CONTINUOUS
10
5.09488
20
-4.01335
11
5.09517
21
-4.01265
0
LINE
8
BLACK
6
CONTINUOUS
10
5.09517
20
-4.01265
11
5.09587
21
-4.01236
0
LINE
8
BLACK
6
CONTINUOUS
10
5.09587
20
-4.01236
11
5.37146
21
-4.01236
0
LINE
8
BLACK
6
CONTINUOUS
10
5.37146
20
-4.01236
11
5.37215
21
-4.01265
0
LINE
8
BLACK
6
CONTINUOUS
10
5.37215
20
-4.01265
11
5.37244
21
-4.01335
0
LINE
8
BLACK
6
CONTINUOUS
10
5.37244
20
-4.01335
11
5.37244
21
-4.15114
0
LINE
8
BLACK
6
CONTINUOUS
10
5.37244
20
-4.15114
11
5.37215
21
-4.15184
0
LINE
8
BLACK
6
CONTINUOUS
10
5.37215
20
-4.15184
11
5.37146
21
-4.15213
0
LINE
8
BLACK
6
CONTINUOUS
10
5.37146
20
-4.15213
11
5.09587
21
-4.15213
0
LINE
8
BLACK
6
CONTINUOUS
10
5.09587
20
-4.15213
11
5.09517
21
-4.15184
0
LINE
8
BLACK
6
CONTINUOUS
10
5.09685
20
-4.01433
11
5.09685
21
-4.15016
0
LINE
8
BLACK
6
CONTINUOUS
10
5.09685
20
-4.15016
11
5.37047
21
-4.15016
0
LINE
8
BLACK
6
CONTINUOUS
10
5.37047
20
-4.15016
11
5.37047
21
-4.01433
0
LINE
8
BLACK
6
CONTINUOUS
10
5.37047
20
-4.01433
11
5.09685
21
-4.01433
0
LINE
8
BLACK
6
CONTINUOUS
10
5.93434
20
-4.0103
11
5.93406
21
-4.00961
0
LINE
8
BLACK
6
CONTINUOUS
10
5.93406
20
-4.00961
11
5.93406
21
-3.80488
0
LINE
8
BLACK
6
CONTINUOUS
10
5.93406
20
-3.80488
11
5.93434
21
-3.80419
0
LINE
8
BLACK
6
CONTINUOUS
10
5.93434
20
-3.80419
11
5.93504
21
-3.8039
0
LINE
8
BLACK
6
CONTINUOUS
10
5.93504
20
-3.8039
11
6.13976
21
-3.8039
0
LINE
8
BLACK
6
CONTINUOUS
10
6.13976
20
-3.8039
11
6.14046
21
-3.80419
0
LINE
8
BLACK
6
CONTINUOUS
10
6.14046
20
-3.80419
11
6.14075
21
-3.80488
0
LINE
8
BLACK
6
CONTINUOUS
10
6.14075
20
-3.80488
11
6.14075
21
-4.00961
0
LINE
8
BLACK
6
CONTINUOUS
10
6.14075
20
-4.00961
11
6.14046
21
-4.0103
0
LINE
8
BLACK
6
CONTINUOUS
10
6.14046
20
-4.0103
11
6.13976
21
-4.01059
0
LINE
8
BLACK
6
CONTINUOUS
10
6.13976
20
-4.01059
11
5.93504
21
-4.01059
0
LINE
8
BLACK
6
CONTINUOUS
10
5.93504
20
-4.01059
11
5.93434
21
-4.0103
0
LINE
8
BLACK
6
CONTINUOUS
10
5.93602
20
-3.80587
11
5.93602
21
-4.00862
0
LINE
8
BLACK
6
CONTINUOUS
10
5.93602
20
-4.00862
11
6.13878
21
-4.00862
0
LINE
8
BLACK
6
CONTINUOUS
10
6.13878
20
-4.00862
11
6.13878
21
-3.80587
0
LINE
8
BLACK
6
CONTINUOUS
10
6.13878
20
-3.80587
11
5.93602
21
-3.80587
0
LINE
8
BLACK
6
CONTINUOUS
10
5.63621
20
-3.84987
11
5.63593
21
-3.84917
0
LINE
8
BLACK
6
CONTINUOUS
10
5.63593
20
-3.84917
11
5.63593
21
-3.71531
0
LINE
8
BLACK
6
CONTINUOUS
10
5.63593
20
-3.71531
11
5.63621
21
-3.71462
0
LINE
8
BLACK
6
CONTINUOUS
10
5.63621
20
-3.71462
11
5.63691
21
-3.71433
0
LINE
8
BLACK
6
CONTINUOUS
10
5.63691
20
-3.71433
11
5.79833
21
-3.71433
0
LINE
8
BLACK
6
CONTINUOUS
10
5.79833
20
-3.71433
11
5.79902
21
-3.71462
0
LINE
8
BLACK
6
CONTINUOUS
10
5.79902
20
-3.71462
11
5.79931
21
-3.71531
0
LINE
8
BLACK
6
CONTINUOUS
10
5.79931
20
-3.71531
11
5.79931
21
-3.84917
0
LINE
8
BLACK
6
CONTINUOUS
10
5.79931
20
-3.84917
11
5.79902
21
-3.84987
0
LINE
8
BLACK
6
CONTINUOUS
10
5.79902
20
-3.84987
11
5.79833
21
-3.85016
0
LINE
8
BLACK
6
CONTINUOUS
10
5.79833
20
-3.85016
11
5.63691
21
-3.85016
0
LINE
8
BLACK
6
CONTINUOUS
10
5.63691
20
-3.85016
11
5.63621
21
-3.84987
0
LINE
8
BLACK
6
CONTINUOUS
10
5.63789
20
-3.7163
11
5.63789
21
-3.84819
0
LINE
8
BLACK
6
CONTINUOUS
10
5.63789
20
-3.84819
11
5.79734
21
-3.84819
0
LINE
8
BLACK
6
CONTINUOUS
10
5.79734
20
-3.84819
11
5.79734
21
-3.7163
0
LINE
8
BLACK
6
CONTINUOUS
10
5.79734
20
-3.7163
11
5.63789
21
-3.7163
  0
ENDSEC
  0
EOF
