  0
SECTION
  2
HEADER
  9
$ANGBASE
  50
0.0
  9
$ANGDIR
  70
1
  9
$MEASUREMENT
  70
0
  0
ENDSEC
  0
SECTION
  2
TABLES
  0
TABLE
  2
LTYPE
  70
4
  0
LTYPE
  5
40F
  2
CONTINUOUS
  70
0
  3
Solid line
  72
65
  73
0
  40
0.0
  0
LTYPE
  5
410
  2
DASHDOT
 70
0
  3
Dash Dot ____ _ ____ _
 72
65
 73
4
 40
2.0
 49
1.25
 49
-0.25
 49
0.25
 49
-0.25
  0
LTYPE
  5
411
  2
DASHED
 70
0
  3
Dashed __ __ __ __ __
 72
65
 73
2
 40
0.75
 49
0.5
 49
-0.25
  0
LTYPE
  5
43B
  2
DOTTED
 70
0
  3
Dotted .  .  .  .
 72
65
 73
2
 40
0.2
 49
0.0
 49
-0.2
  0
ENDTAB
  0
TABLE
  2
STYLE
  70
4
  0
STYLE
  2
KICAD
  70
0
  40
0
  41
1
  42
1
  50
0
  71
0
  3
isocp.shx
  0
STYLE
  2
KICADB
  70
0
  40
0
  41
1
  42
1
  50
0
  71
0
  3
isocp.shx
  0
STYLE
  2
KICADI
  70
0
  40
0
  41
1
  42
1
  50
15
  71
0
  3
isocp.shx
  0
STYLE
  2
KICADBI
  70
0
  40
0
  41
1
  42
1
  50
15
  71
0
  3
isocp.shx
  0
ENDTAB
  0
TABLE
  2
LAYER
  70
1
  0
LAYER
  2
BLACK
  70
0
  62
7
  6
CONTINUOUS
  0
ENDTAB
  0
ENDSEC
  0
SECTION
  2
ENTITIES
0
LINE
8
BLACK
6
CONTINUOUS
10
5.47376
20
-4.44054
11
5.47445
21
-4.44244
0
LINE
8
BLACK
6
CONTINUOUS
10
5.47445
20
-4.44244
11
5.47445
21
-4.50244
0
LINE
8
BLACK
6
CONTINUOUS
10
5.47445
20
-4.50244
11
5.47427
21
-4.50345
0
LINE
8
BLACK
6
CONTINUOUS
10
5.47427
20
-4.50345
11
5.47297
21
-4.505
0
LINE
8
BLACK
6
CONTINUOUS
10
5.47297
20
-4.505
11
5.47098
21
-4.50535
0
LINE
8
BLACK
6
CONTINUOUS
10
5.47098
20
-4.50535
11
5.46923
21
-4.50434
0
LINE
8
BLACK
6
CONTINUOUS
10
5.46923
20
-4.50434
11
5.46854
21
-4.50244
0
LINE
8
BLACK
6
CONTINUOUS
10
5.46854
20
-4.50244
11
5.46854
21
-4.44244
0
LINE
8
BLACK
6
CONTINUOUS
10
5.46854
20
-4.44244
11
5.46872
21
-4.44143
0
LINE
8
BLACK
6
CONTINUOUS
10
5.46872
20
-4.44143
11
5.47002
21
-4.43988
0
LINE
8
BLACK
6
CONTINUOUS
10
5.47002
20
-4.43988
11
5.47201
21
-4.43953
0
LINE
8
BLACK
6
CONTINUOUS
10
5.47201
20
-4.43953
11
5.47376
21
-4.44054
0
LINE
8
BLACK
6
CONTINUOUS
10
5.59376
20
-4.44054
11
5.59445
21
-4.44244
0
LINE
8
BLACK
6
CONTINUOUS
10
5.59445
20
-4.44244
11
5.59445
21
-4.50244
0
LINE
8
BLACK
6
CONTINUOUS
10
5.59445
20
-4.50244
11
5.59427
21
-4.50345
0
LINE
8
BLACK
6
CONTINUOUS
10
5.59427
20
-4.50345
11
5.59297
21
-4.505
0
LINE
8
BLACK
6
CONTINUOUS
10
5.59297
20
-4.505
11
5.59098
21
-4.50535
0
LINE
8
BLACK
6
CONTINUOUS
10
5.59098
20
-4.50535
11
5.58923
21
-4.50434
0
LINE
8
BLACK
6
CONTINUOUS
10
5.58923
20
-4.50434
11
5.58854
21
-4.50244
0
LINE
8
BLACK
6
CONTINUOUS
10
5.58854
20
-4.50244
11
5.58854
21
-4.44244
0
LINE
8
BLACK
6
CONTINUOUS
10
5.58854
20
-4.44244
11
5.58872
21
-4.44143
0
LINE
8
BLACK
6
CONTINUOUS
10
5.58872
20
-4.44143
11
5.59002
21
-4.43988
0
LINE
8
BLACK
6
CONTINUOUS
10
5.59002
20
-4.43988
11
5.59201
21
-4.43953
0
LINE
8
BLACK
6
CONTINUOUS
10
5.59201
20
-4.43953
11
5.59376
21
-4.44054
0
LINE
8
BLACK
6
CONTINUOUS
10
5.54817
20
-4.50077
11
5.54886
21
-4.50244
0
LINE
8
BLACK
6
CONTINUOUS
10
5.54886
20
-4.50244
11
5.54817
21
-4.50411
0
LINE
8
BLACK
6
CONTINUOUS
10
5.54817
20
-4.50411
11
5.5465
21
-4.5048
0
LINE
8
BLACK
6
CONTINUOUS
10
5.5465
20
-4.5048
11
5.5165
21
-4.5048
0
LINE
8
BLACK
6
CONTINUOUS
10
5.5165
20
-4.5048
11
5.51483
21
-4.50411
0
LINE
8
BLACK
6
CONTINUOUS
10
5.51483
20
-4.50411
11
5.51413
21
-4.50244
0
LINE
8
BLACK
6
CONTINUOUS
10
5.51413
20
-4.50244
11
5.51483
21
-4.50077
0
LINE
8
BLACK
6
CONTINUOUS
10
5.51483
20
-4.50077
11
5.5165
21
-4.50008
0
LINE
8
BLACK
6
CONTINUOUS
10
5.5165
20
-4.50008
11
5.5465
21
-4.50008
0
LINE
8
BLACK
6
CONTINUOUS
10
5.5465
20
-4.50008
11
5.54817
21
-4.50077
0
LINE
8
BLACK
6
CONTINUOUS
10
5.54817
20
-4.44077
11
5.54886
21
-4.44244
0
LINE
8
BLACK
6
CONTINUOUS
10
5.54886
20
-4.44244
11
5.54817
21
-4.44411
0
LINE
8
BLACK
6
CONTINUOUS
10
5.54817
20
-4.44411
11
5.5465
21
-4.4448
0
LINE
8
BLACK
6
CONTINUOUS
10
5.5465
20
-4.4448
11
5.5165
21
-4.4448
0
LINE
8
BLACK
6
CONTINUOUS
10
5.5165
20
-4.4448
11
5.51483
21
-4.44411
0
LINE
8
BLACK
6
CONTINUOUS
10
5.51483
20
-4.44411
11
5.51413
21
-4.44244
0
LINE
8
BLACK
6
CONTINUOUS
10
5.51413
20
-4.44244
11
5.51483
21
-4.44077
0
LINE
8
BLACK
6
CONTINUOUS
10
5.51483
20
-4.44077
11
5.5165
21
-4.44008
0
LINE
8
BLACK
6
CONTINUOUS
10
5.5165
20
-4.44008
11
5.5465
21
-4.44008
0
LINE
8
BLACK
6
CONTINUOUS
10
5.5465
20
-4.44008
11
5.54817
21
-4.44077
0
LINE
8
BLACK
6
CONTINUOUS
10
6.18975
20
-4.17474
11
6.18414
21
-4.17304
0
LINE
8
BLACK
6
CONTINUOUS
10
6.18414
20
-4.17304
11
6.17897
21
-4.17027
0
LINE
8
BLACK
6
CONTINUOUS
10
6.17897
20
-4.17027
11
6.17443
21
-4.16655
0
LINE
8
BLACK
6
CONTINUOUS
10
6.17443
20
-4.16655
11
6.17071
21
-4.16202
0
LINE
8
BLACK
6
CONTINUOUS
10
6.17071
20
-4.16202
11
6.16795
21
-4.15684
0
LINE
8
BLACK
6
CONTINUOUS
10
6.16795
20
-4.15684
11
6.16624
21
-4.15123
0
LINE
8
BLACK
6
CONTINUOUS
10
6.16624
20
-4.15123
11
6.16567
21
-4.14539
0
LINE
8
BLACK
6
CONTINUOUS
10
6.16567
20
-4.14539
11
6.16567
21
-4.09028
0
LINE
8
BLACK
6
CONTINUOUS
10
6.16567
20
-4.09028
11
6.16624
21
-4.08444
0
LINE
8
BLACK
6
CONTINUOUS
10
6.16624
20
-4.08444
11
6.16795
21
-4.07883
0
LINE
8
BLACK
6
CONTINUOUS
10
6.16795
20
-4.07883
11
6.17071
21
-4.07365
0
LINE
8
BLACK
6
CONTINUOUS
10
6.17071
20
-4.07365
11
6.17443
21
-4.06912
0
LINE
8
BLACK
6
CONTINUOUS
10
6.17443
20
-4.06912
11
6.17897
21
-4.0654
0
LINE
8
BLACK
6
CONTINUOUS
10
6.17897
20
-4.0654
11
6.18414
21
-4.06263
0
LINE
8
BLACK
6
CONTINUOUS
10
6.18414
20
-4.06263
11
6.18975
21
-4.06093
0
LINE
8
BLACK
6
CONTINUOUS
10
6.18975
20
-4.06093
11
6.19559
21
-4.06035
0
LINE
8
BLACK
6
CONTINUOUS
10
6.19559
20
-4.06035
11
6.21921
21
-4.06035
0
LINE
8
BLACK
6
CONTINUOUS
10
6.21921
20
-4.06035
11
6.22505
21
-4.06093
0
LINE
8
BLACK
6
CONTINUOUS
10
6.22505
20
-4.06093
11
6.23066
21
-4.06263
0
LINE
8
BLACK
6
CONTINUOUS
10
6.23066
20
-4.06263
11
6.23584
21
-4.0654
0
LINE
8
BLACK
6
CONTINUOUS
10
6.23584
20
-4.0654
11
6.24037
21
-4.06912
0
LINE
8
BLACK
6
CONTINUOUS
10
6.24037
20
-4.06912
11
6.24409
21
-4.07365
0
LINE
8
BLACK
6
CONTINUOUS
10
6.24409
20
-4.07365
11
6.24686
21
-4.07883
0
LINE
8
BLACK
6
CONTINUOUS
10
6.24686
20
-4.07883
11
6.24856
21
-4.08444
0
LINE
8
BLACK
6
CONTINUOUS
10
6.24856
20
-4.08444
11
6.24913
21
-4.09028
0
LINE
8
BLACK
6
CONTINUOUS
10
6.24913
20
-4.09028
11
6.24913
21
-4.14539
0
LINE
8
BLACK
6
CONTINUOUS
10
6.24913
20
-4.14539
11
6.24856
21
-4.15123
0
LINE
8
BLACK
6
CONTINUOUS
10
6.24856
20
-4.15123
11
6.24686
21
-4.15684
0
LINE
8
BLACK
6
CONTINUOUS
10
6.24686
20
-4.15684
11
6.24409
21
-4.16202
0
LINE
8
BLACK
6
CONTINUOUS
10
6.24409
20
-4.16202
11
6.24037
21
-4.16655
0
LINE
8
BLACK
6
CONTINUOUS
10
6.24037
20
-4.16655
11
6.23584
21
-4.17027
0
LINE
8
BLACK
6
CONTINUOUS
10
6.23584
20
-4.17027
11
6.23066
21
-4.17304
0
LINE
8
BLACK
6
CONTINUOUS
10
6.23066
20
-4.17304
11
6.22505
21
-4.17474
0
LINE
8
BLACK
6
CONTINUOUS
10
6.22505
20
-4.17474
11
6.21921
21
-4.17531
0
LINE
8
BLACK
6
CONTINUOUS
10
6.21921
20
-4.17531
11
6.19559
21
-4.17531
0
LINE
8
BLACK
6
CONTINUOUS
10
6.19559
20
-4.17531
11
6.18975
21
-4.17474
0
LINE
8
BLACK
6
CONTINUOUS
10
6.19529
20
-4.06495
11
6.18995
21
-4.06556
0
LINE
8
BLACK
6
CONTINUOUS
10
6.18995
20
-4.06556
11
6.18459
21
-4.06743
0
LINE
8
BLACK
6
CONTINUOUS
10
6.18459
20
-4.06743
11
6.17978
21
-4.07045
0
LINE
8
BLACK
6
CONTINUOUS
10
6.17978
20
-4.07045
11
6.17577
21
-4.07447
0
LINE
8
BLACK
6
CONTINUOUS
10
6.17577
20
-4.07447
11
6.17275
21
-4.07927
0
LINE
8
BLACK
6
CONTINUOUS
10
6.17275
20
-4.07927
11
6.17087
21
-4.08463
0
LINE
8
BLACK
6
CONTINUOUS
10
6.17087
20
-4.08463
11
6.17027
21
-4.08997
0
LINE
8
BLACK
6
CONTINUOUS
10
6.17027
20
-4.08997
11
6.17039
21
-4.09028
0
LINE
8
BLACK
6
CONTINUOUS
10
6.17039
20
-4.09028
11
6.17039
21
-4.14539
0
LINE
8
BLACK
6
CONTINUOUS
10
6.17039
20
-4.14539
11
6.17034
21
-4.14553
0
LINE
8
BLACK
6
CONTINUOUS
10
6.17034
20
-4.14553
11
6.17027
21
-4.1457
0
LINE
8
BLACK
6
CONTINUOUS
10
6.17027
20
-4.1457
11
6.17087
21
-4.15104
0
LINE
8
BLACK
6
CONTINUOUS
10
6.17087
20
-4.15104
11
6.17275
21
-4.1564
0
LINE
8
BLACK
6
CONTINUOUS
10
6.17275
20
-4.1564
11
6.17577
21
-4.1612
0
LINE
8
BLACK
6
CONTINUOUS
10
6.17577
20
-4.1612
11
6.17978
21
-4.16522
0
LINE
8
BLACK
6
CONTINUOUS
10
6.17978
20
-4.16522
11
6.18459
21
-4.16824
0
LINE
8
BLACK
6
CONTINUOUS
10
6.18459
20
-4.16824
11
6.18995
21
-4.17011
0
LINE
8
BLACK
6
CONTINUOUS
10
6.18995
20
-4.17011
11
6.19529
21
-4.17072
0
LINE
8
BLACK
6
CONTINUOUS
10
6.19529
20
-4.17072
11
6.19559
21
-4.17059
0
LINE
8
BLACK
6
CONTINUOUS
10
6.19559
20
-4.17059
11
6.21921
21
-4.17059
0
LINE
8
BLACK
6
CONTINUOUS
10
6.21921
20
-4.17059
11
6.21952
21
-4.17072
0
LINE
8
BLACK
6
CONTINUOUS
10
6.21952
20
-4.17072
11
6.22485
21
-4.17011
0
LINE
8
BLACK
6
CONTINUOUS
10
6.22485
20
-4.17011
11
6.23021
21
-4.16824
0
LINE
8
BLACK
6
CONTINUOUS
10
6.23021
20
-4.16824
11
6.23502
21
-4.16522
0
LINE
8
BLACK
6
CONTINUOUS
10
6.23502
20
-4.16522
11
6.23904
21
-4.1612
0
LINE
8
BLACK
6
CONTINUOUS
10
6.23904
20
-4.1612
11
6.24206
21
-4.1564
0
LINE
8
BLACK
6
CONTINUOUS
10
6.24206
20
-4.1564
11
6.24393
21
-4.15104
0
LINE
8
BLACK
6
CONTINUOUS
10
6.24393
20
-4.15104
11
6.24453
21
-4.1457
0
LINE
8
BLACK
6
CONTINUOUS
10
6.24453
20
-4.1457
11
6.24447
21
-4.14553
0
LINE
8
BLACK
6
CONTINUOUS
10
6.24447
20
-4.14553
11
6.24441
21
-4.14539
0
LINE
8
BLACK
6
CONTINUOUS
10
6.24441
20
-4.14539
11
6.24441
21
-4.09028
0
LINE
8
BLACK
6
CONTINUOUS
10
6.24441
20
-4.09028
11
6.24453
21
-4.08997
0
LINE
8
BLACK
6
CONTINUOUS
10
6.24453
20
-4.08997
11
6.24393
21
-4.08463
0
LINE
8
BLACK
6
CONTINUOUS
10
6.24393
20
-4.08463
11
6.24206
21
-4.07927
0
LINE
8
BLACK
6
CONTINUOUS
10
6.24206
20
-4.07927
11
6.23904
21
-4.07447
0
LINE
8
BLACK
6
CONTINUOUS
10
6.23904
20
-4.07447
11
6.23502
21
-4.07045
0
LINE
8
BLACK
6
CONTINUOUS
10
6.23502
20
-4.07045
11
6.23021
21
-4.06743
0
LINE
8
BLACK
6
CONTINUOUS
10
6.23021
20
-4.06743
11
6.22485
21
-4.06556
0
LINE
8
BLACK
6
CONTINUOUS
10
6.22485
20
-4.06556
11
6.21952
21
-4.06495
0
LINE
8
BLACK
6
CONTINUOUS
10
6.21952
20
-4.06495
11
6.21921
21
-4.06508
0
LINE
8
BLACK
6
CONTINUOUS
10
6.21921
20
-4.06508
11
6.19559
21
-4.06508
0
LINE
8
BLACK
6
CONTINUOUS
10
6.19559
20
-4.06508
11
6.19529
21
-4.06495
0
LINE
8
BLACK
6
CONTINUOUS
10
6.12798
20
-4.1389
11
6.1291
21
-4.14058
0
LINE
8
BLACK
6
CONTINUOUS
10
6.1291
20
-4.14058
11
6.12887
21
-4.14259
0
LINE
8
BLACK
6
CONTINUOUS
10
6.12887
20
-4.14259
11
6.12699
21
-4.14634
0
LINE
8
BLACK
6
CONTINUOUS
10
6.12699
20
-4.14634
11
6.12646
21
-4.14705
0
LINE
8
BLACK
6
CONTINUOUS
10
6.12646
20
-4.14705
11
6.12644
21
-4.14711
0
LINE
8
BLACK
6
CONTINUOUS
10
6.12644
20
-4.14711
11
6.12398
21
-4.14957
0
LINE
8
BLACK
6
CONTINUOUS
10
6.12398
20
-4.14957
11
6.15139
21
-4.14957
0
LINE
8
BLACK
6
CONTINUOUS
10
6.15139
20
-4.14957
11
6.15139
21
-4.14127
0
LINE
8
BLACK
6
CONTINUOUS
10
6.15139
20
-4.14127
11
6.15157
21
-4.14026
0
LINE
8
BLACK
6
CONTINUOUS
10
6.15157
20
-4.14026
11
6.15287
21
-4.13871
0
LINE
8
BLACK
6
CONTINUOUS
10
6.15287
20
-4.13871
11
6.15486
21
-4.13836
0
LINE
8
BLACK
6
CONTINUOUS
10
6.15486
20
-4.13836
11
6.15661
21
-4.13937
0
LINE
8
BLACK
6
CONTINUOUS
10
6.15661
20
-4.13937
11
6.1573
21
-4.14127
0
LINE
8
BLACK
6
CONTINUOUS
10
6.1573
20
-4.14127
11
6.1573
21
-4.16377
0
LINE
8
BLACK
6
CONTINUOUS
10
6.1573
20
-4.16377
11
6.15712
21
-4.16478
0
LINE
8
BLACK
6
CONTINUOUS
10
6.15712
20
-4.16478
11
6.15582
21
-4.16632
0
LINE
8
BLACK
6
CONTINUOUS
10
6.15582
20
-4.16632
11
6.15383
21
-4.16667
0
LINE
8
BLACK
6
CONTINUOUS
10
6.15383
20
-4.16667
11
6.15208
21
-4.16566
0
LINE
8
BLACK
6
CONTINUOUS
10
6.15208
20
-4.16566
11
6.15139
21
-4.16377
0
LINE
8
BLACK
6
CONTINUOUS
10
6.15139
20
-4.16377
11
6.15139
21
-4.15547
0
LINE
8
BLACK
6
CONTINUOUS
10
6.15139
20
-4.15547
11
6.11498
21
-4.15547
0
LINE
8
BLACK
6
CONTINUOUS
10
6.11498
20
-4.15547
11
6.11397
21
-4.15529
0
LINE
8
BLACK
6
CONTINUOUS
10
6.11397
20
-4.15529
11
6.11384
21
-4.15518
0
LINE
8
BLACK
6
CONTINUOUS
10
6.11384
20
-4.15518
11
6.11367
21
-4.15516
0
LINE
8
BLACK
6
CONTINUOUS
10
6.11367
20
-4.15516
11
6.11307
21
-4.15454
0
LINE
8
BLACK
6
CONTINUOUS
10
6.11307
20
-4.15454
11
6.11242
21
-4.15399
0
LINE
8
BLACK
6
CONTINUOUS
10
6.11242
20
-4.15399
11
6.11239
21
-4.15383
0
LINE
8
BLACK
6
CONTINUOUS
10
6.11239
20
-4.15383
11
6.11227
21
-4.1537
0
LINE
8
BLACK
6
CONTINUOUS
10
6.11227
20
-4.1537
11
6.11222
21
-4.15285
0
LINE
8
BLACK
6
CONTINUOUS
10
6.11222
20
-4.15285
11
6.11207
21
-4.15201
0
LINE
8
BLACK
6
CONTINUOUS
10
6.11207
20
-4.15201
11
6.11215
21
-4.15186
0
LINE
8
BLACK
6
CONTINUOUS
10
6.11215
20
-4.15186
11
6.11214
21
-4.15169
0
LINE
8
BLACK
6
CONTINUOUS
10
6.11214
20
-4.15169
11
6.11265
21
-4.151
0
LINE
8
BLACK
6
CONTINUOUS
10
6.11265
20
-4.151
11
6.11308
21
-4.15026
0
LINE
8
BLACK
6
CONTINUOUS
10
6.11308
20
-4.15026
11
6.11324
21
-4.1502
0
LINE
8
BLACK
6
CONTINUOUS
10
6.11324
20
-4.1502
11
6.11334
21
-4.15006
0
LINE
8
BLACK
6
CONTINUOUS
10
6.11334
20
-4.15006
11
6.11872
21
-4.14647
0
LINE
8
BLACK
6
CONTINUOUS
10
6.11872
20
-4.14647
11
6.12192
21
-4.14327
0
LINE
8
BLACK
6
CONTINUOUS
10
6.12192
20
-4.14327
11
6.12358
21
-4.13995
0
LINE
8
BLACK
6
CONTINUOUS
10
6.12358
20
-4.13995
11
6.12419
21
-4.13913
0
LINE
8
BLACK
6
CONTINUOUS
10
6.12419
20
-4.13913
11
6.12605
21
-4.13832
0
LINE
8
BLACK
6
CONTINUOUS
10
6.12605
20
-4.13832
11
6.12798
21
-4.1389
0
LINE
8
BLACK
6
CONTINUOUS
10
5.15325
20
-4.14888
11
5.15256
21
-4.1472
0
LINE
8
BLACK
6
CONTINUOUS
10
5.15256
20
-4.1472
11
5.15325
21
-4.14553
0
LINE
8
BLACK
6
CONTINUOUS
10
5.15325
20
-4.14553
11
5.15492
21
-4.14484
0
LINE
8
BLACK
6
CONTINUOUS
10
5.15492
20
-4.14484
11
5.36516
21
-4.14484
0
LINE
8
BLACK
6
CONTINUOUS
10
5.36516
20
-4.14484
11
5.36516
21
-4.01965
0
LINE
8
BLACK
6
CONTINUOUS
10
5.36516
20
-4.01965
11
5.15492
21
-4.01965
0
LINE
8
BLACK
6
CONTINUOUS
10
5.15492
20
-4.01965
11
5.15325
21
-4.01895
0
LINE
8
BLACK
6
CONTINUOUS
10
5.15325
20
-4.01895
11
5.15256
21
-4.01728
0
LINE
8
BLACK
6
CONTINUOUS
10
5.15256
20
-4.01728
11
5.15325
21
-4.01561
0
LINE
8
BLACK
6
CONTINUOUS
10
5.15325
20
-4.01561
11
5.15492
21
-4.01492
0
LINE
8
BLACK
6
CONTINUOUS
10
5.15492
20
-4.01492
11
5.36752
21
-4.01492
0
LINE
8
BLACK
6
CONTINUOUS
10
5.36752
20
-4.01492
11
5.36919
21
-4.01561
0
LINE
8
BLACK
6
CONTINUOUS
10
5.36919
20
-4.01561
11
5.36988
21
-4.01728
0
LINE
8
BLACK
6
CONTINUOUS
10
5.36988
20
-4.01728
11
5.36988
21
-4.1472
0
LINE
8
BLACK
6
CONTINUOUS
10
5.36988
20
-4.1472
11
5.36919
21
-4.14888
0
LINE
8
BLACK
6
CONTINUOUS
10
5.36919
20
-4.14888
11
5.36752
21
-4.14957
0
LINE
8
BLACK
6
CONTINUOUS
10
5.36752
20
-4.14957
11
5.15492
21
-4.14957
0
LINE
8
BLACK
6
CONTINUOUS
10
5.15492
20
-4.14957
11
5.15325
21
-4.14888
0
LINE
8
BLACK
6
CONTINUOUS
10
6.15536
20
-4.101
11
6.1569
21
-4.1023
0
LINE
8
BLACK
6
CONTINUOUS
10
6.1569
20
-4.1023
11
6.15725
21
-4.10429
0
LINE
8
BLACK
6
CONTINUOUS
10
6.15725
20
-4.10429
11
6.15624
21
-4.10604
0
LINE
8
BLACK
6
CONTINUOUS
10
6.15624
20
-4.10604
11
6.15435
21
-4.10673
0
LINE
8
BLACK
6
CONTINUOUS
10
6.15435
20
-4.10673
11
6.13855
21
-4.10673
0
LINE
8
BLACK
6
CONTINUOUS
10
6.13855
20
-4.10673
11
6.13855
21
-4.11877
0
LINE
8
BLACK
6
CONTINUOUS
10
6.13855
20
-4.11877
11
6.13837
21
-4.11978
0
LINE
8
BLACK
6
CONTINUOUS
10
6.13837
20
-4.11978
11
6.13826
21
-4.11992
0
LINE
8
BLACK
6
CONTINUOUS
10
6.13826
20
-4.11992
11
6.13824
21
-4.12009
0
LINE
8
BLACK
6
CONTINUOUS
10
6.13824
20
-4.12009
11
6.13636
21
-4.12384
0
LINE
8
BLACK
6
CONTINUOUS
10
6.13636
20
-4.12384
11
6.13584
21
-4.12455
0
LINE
8
BLACK
6
CONTINUOUS
10
6.13584
20
-4.12455
11
6.13581
21
-4.12461
0
LINE
8
BLACK
6
CONTINUOUS
10
6.13581
20
-4.12461
11
6.13394
21
-4.12648
0
LINE
8
BLACK
6
CONTINUOUS
10
6.13394
20
-4.12648
11
6.13321
21
-4.12699
0
LINE
8
BLACK
6
CONTINUOUS
10
6.13321
20
-4.12699
11
6.13317
21
-4.12704
0
LINE
8
BLACK
6
CONTINUOUS
10
6.13317
20
-4.12704
11
6.12942
21
-4.12891
0
LINE
8
BLACK
6
CONTINUOUS
10
6.12942
20
-4.12891
11
6.12844
21
-4.1292
0
LINE
8
BLACK
6
CONTINUOUS
10
6.12844
20
-4.1292
11
6.12826
21
-4.12916
0
LINE
8
BLACK
6
CONTINUOUS
10
6.12826
20
-4.12916
11
6.1281
21
-4.12922
0
LINE
8
BLACK
6
CONTINUOUS
10
6.1281
20
-4.12922
11
6.12247
21
-4.12922
0
LINE
8
BLACK
6
CONTINUOUS
10
6.12247
20
-4.12922
11
6.12146
21
-4.12905
0
LINE
8
BLACK
6
CONTINUOUS
10
6.12146
20
-4.12905
11
6.12133
21
-4.12893
0
LINE
8
BLACK
6
CONTINUOUS
10
6.12133
20
-4.12893
11
6.12115
21
-4.12891
0
LINE
8
BLACK
6
CONTINUOUS
10
6.12115
20
-4.12891
11
6.1174
21
-4.12704
0
LINE
8
BLACK
6
CONTINUOUS
10
6.1174
20
-4.12704
11
6.1167
21
-4.12651
0
LINE
8
BLACK
6
CONTINUOUS
10
6.1167
20
-4.12651
11
6.11664
21
-4.12648
0
LINE
8
BLACK
6
CONTINUOUS
10
6.11664
20
-4.12648
11
6.11476
21
-4.12461
0
LINE
8
BLACK
6
CONTINUOUS
10
6.11476
20
-4.12461
11
6.11426
21
-4.12389
0
LINE
8
BLACK
6
CONTINUOUS
10
6.11426
20
-4.12389
11
6.11421
21
-4.12384
0
LINE
8
BLACK
6
CONTINUOUS
10
6.11421
20
-4.12384
11
6.11233
21
-4.12009
0
LINE
8
BLACK
6
CONTINUOUS
10
6.11233
20
-4.12009
11
6.11204
21
-4.11911
0
LINE
8
BLACK
6
CONTINUOUS
10
6.11204
20
-4.11911
11
6.11208
21
-4.11894
0
LINE
8
BLACK
6
CONTINUOUS
10
6.11208
20
-4.11894
11
6.11202
21
-4.11877
0
LINE
8
BLACK
6
CONTINUOUS
10
6.11202
20
-4.11877
11
6.11202
21
-4.10377
0
LINE
8
BLACK
6
CONTINUOUS
10
6.11202
20
-4.10377
11
6.11209
21
-4.10339
0
LINE
8
BLACK
6
CONTINUOUS
10
6.11209
20
-4.10339
11
6.11207
21
-4.10326
0
LINE
8
BLACK
6
CONTINUOUS
10
6.11207
20
-4.10326
11
6.11213
21
-4.10315
0
LINE
8
BLACK
6
CONTINUOUS
10
6.11213
20
-4.10315
11
6.1122
21
-4.10276
0
LINE
8
BLACK
6
CONTINUOUS
10
6.1122
20
-4.10276
11
6.11269
21
-4.10218
0
LINE
8
BLACK
6
CONTINUOUS
10
6.11269
20
-4.10218
11
6.11308
21
-4.10151
0
LINE
8
BLACK
6
CONTINUOUS
10
6.11308
20
-4.10151
11
6.11333
21
-4.10142
0
LINE
8
BLACK
6
CONTINUOUS
10
6.11333
20
-4.10142
11
6.1135
21
-4.10122
0
LINE
8
BLACK
6
CONTINUOUS
10
6.1135
20
-4.10122
11
6.11425
21
-4.10108
0
LINE
8
BLACK
6
CONTINUOUS
10
6.11425
20
-4.10108
11
6.11498
21
-4.10082
0
LINE
8
BLACK
6
CONTINUOUS
10
6.11498
20
-4.10082
11
6.15435
21
-4.10082
0
LINE
8
BLACK
6
CONTINUOUS
10
6.15435
20
-4.10082
11
6.15536
21
-4.101
0
LINE
8
BLACK
6
CONTINUOUS
10
6.11793
20
-4.10673
11
6.11793
21
-4.11807
0
LINE
8
BLACK
6
CONTINUOUS
10
6.11793
20
-4.11807
11
6.11928
21
-4.12077
0
LINE
8
BLACK
6
CONTINUOUS
10
6.11928
20
-4.12077
11
6.12047
21
-4.12197
0
LINE
8
BLACK
6
CONTINUOUS
10
6.12047
20
-4.12197
11
6.12317
21
-4.12332
0
LINE
8
BLACK
6
CONTINUOUS
10
6.12317
20
-4.12332
11
6.1274
21
-4.12332
0
LINE
8
BLACK
6
CONTINUOUS
10
6.1274
20
-4.12332
11
6.1301
21
-4.12197
0
LINE
8
BLACK
6
CONTINUOUS
10
6.1301
20
-4.12197
11
6.1313
21
-4.12077
0
LINE
8
BLACK
6
CONTINUOUS
10
6.1313
20
-4.12077
11
6.13265
21
-4.11807
0
LINE
8
BLACK
6
CONTINUOUS
10
6.13265
20
-4.11807
11
6.13265
21
-4.10673
0
LINE
8
BLACK
6
CONTINUOUS
10
6.13265
20
-4.10673
11
6.11793
21
-4.10673
0
LINE
8
BLACK
6
CONTINUOUS
10
5.22885
20
-4.08331
11
5.22996
21
-4.08499
0
LINE
8
BLACK
6
CONTINUOUS
10
5.22996
20
-4.08499
11
5.22973
21
-4.087
0
LINE
8
BLACK
6
CONTINUOUS
10
5.22973
20
-4.087
11
5.22786
21
-4.09075
0
LINE
8
BLACK
6
CONTINUOUS
10
5.22786
20
-4.09075
11
5.22733
21
-4.09146
0
LINE
8
BLACK
6
CONTINUOUS
10
5.22733
20
-4.09146
11
5.2273
21
-4.09152
0
LINE
8
BLACK
6
CONTINUOUS
10
5.2273
20
-4.09152
11
5.22485
21
-4.09398
0
LINE
8
BLACK
6
CONTINUOUS
10
5.22485
20
-4.09398
11
5.25226
21
-4.09398
0
LINE
8
BLACK
6
CONTINUOUS
10
5.25226
20
-4.09398
11
5.25226
21
-4.08568
0
LINE
8
BLACK
6
CONTINUOUS
10
5.25226
20
-4.08568
11
5.25244
21
-4.08467
0
LINE
8
BLACK
6
CONTINUOUS
10
5.25244
20
-4.08467
11
5.25374
21
-4.08312
0
LINE
8
BLACK
6
CONTINUOUS
10
5.25374
20
-4.08312
11
5.25572
21
-4.08277
0
LINE
8
BLACK
6
CONTINUOUS
10
5.25572
20
-4.08277
11
5.25747
21
-4.08378
0
LINE
8
BLACK
6
CONTINUOUS
10
5.25747
20
-4.08378
11
5.25816
21
-4.08568
0
LINE
8
BLACK
6
CONTINUOUS
10
5.25816
20
-4.08568
11
5.25816
21
-4.10818
0
LINE
8
BLACK
6
CONTINUOUS
10
5.25816
20
-4.10818
11
5.25799
21
-4.10919
0
LINE
8
BLACK
6
CONTINUOUS
10
5.25799
20
-4.10919
11
5.25669
21
-4.11073
0
LINE
8
BLACK
6
CONTINUOUS
10
5.25669
20
-4.11073
11
5.2547
21
-4.11109
0
LINE
8
BLACK
6
CONTINUOUS
10
5.2547
20
-4.11109
11
5.25295
21
-4.11008
0
LINE
8
BLACK
6
CONTINUOUS
10
5.25295
20
-4.11008
11
5.25226
21
-4.10818
0
LINE
8
BLACK
6
CONTINUOUS
10
5.25226
20
-4.10818
11
5.25226
21
-4.09988
0
LINE
8
BLACK
6
CONTINUOUS
10
5.25226
20
-4.09988
11
5.21584
21
-4.09988
0
LINE
8
BLACK
6
CONTINUOUS
10
5.21584
20
-4.09988
11
5.21483
21
-4.0997
0
LINE
8
BLACK
6
CONTINUOUS
10
5.21483
20
-4.0997
11
5.2147
21
-4.09959
0
LINE
8
BLACK
6
CONTINUOUS
10
5.2147
20
-4.09959
11
5.21453
21
-4.09958
0
LINE
8
BLACK
6
CONTINUOUS
10
5.21453
20
-4.09958
11
5.21394
21
-4.09896
0
LINE
8
BLACK
6
CONTINUOUS
10
5.21394
20
-4.09896
11
5.21328
21
-4.09841
0
LINE
8
BLACK
6
CONTINUOUS
10
5.21328
20
-4.09841
11
5.21326
21
-4.09824
0
LINE
8
BLACK
6
CONTINUOUS
10
5.21326
20
-4.09824
11
5.21314
21
-4.09812
0
LINE
8
BLACK
6
CONTINUOUS
10
5.21314
20
-4.09812
11
5.21308
21
-4.09726
0
LINE
8
BLACK
6
CONTINUOUS
10
5.21308
20
-4.09726
11
5.21293
21
-4.09642
0
LINE
8
BLACK
6
CONTINUOUS
10
5.21293
20
-4.09642
11
5.21302
21
-4.09627
0
LINE
8
BLACK
6
CONTINUOUS
10
5.21302
20
-4.09627
11
5.21301
21
-4.0961
0
LINE
8
BLACK
6
CONTINUOUS
10
5.21301
20
-4.0961
11
5.21352
21
-4.09541
0
LINE
8
BLACK
6
CONTINUOUS
10
5.21352
20
-4.09541
11
5.21394
21
-4.09467
0
LINE
8
BLACK
6
CONTINUOUS
10
5.21394
20
-4.09467
11
5.2141
21
-4.09461
0
LINE
8
BLACK
6
CONTINUOUS
10
5.2141
20
-4.09461
11
5.2142
21
-4.09447
0
LINE
8
BLACK
6
CONTINUOUS
10
5.2142
20
-4.09447
11
5.21958
21
-4.09088
0
LINE
8
BLACK
6
CONTINUOUS
10
5.21958
20
-4.09088
11
5.22279
21
-4.08768
0
LINE
8
BLACK
6
CONTINUOUS
10
5.22279
20
-4.08768
11
5.22445
21
-4.08436
0
LINE
8
BLACK
6
CONTINUOUS
10
5.22445
20
-4.08436
11
5.22506
21
-4.08354
0
LINE
8
BLACK
6
CONTINUOUS
10
5.22506
20
-4.08354
11
5.22691
21
-4.08273
0
LINE
8
BLACK
6
CONTINUOUS
10
5.22691
20
-4.08273
11
5.22885
21
-4.08331
0
LINE
8
BLACK
6
CONTINUOUS
10
6.15661
20
-4.06813
11
6.1573
21
-4.07003
0
LINE
8
BLACK
6
CONTINUOUS
10
6.1573
20
-4.07003
11
6.1573
21
-4.07378
0
LINE
8
BLACK
6
CONTINUOUS
10
6.1573
20
-4.07378
11
6.15715
21
-4.07465
0
LINE
8
BLACK
6
CONTINUOUS
10
6.15715
20
-4.07465
11
6.15715
21
-4.07471
0
LINE
8
BLACK
6
CONTINUOUS
10
6.15715
20
-4.07471
11
6.15527
21
-4.08034
0
LINE
8
BLACK
6
CONTINUOUS
10
6.15527
20
-4.08034
11
6.15478
21
-4.08124
0
LINE
8
BLACK
6
CONTINUOUS
10
6.15478
20
-4.08124
11
6.15463
21
-4.08133
0
LINE
8
BLACK
6
CONTINUOUS
10
6.15463
20
-4.08133
11
6.15456
21
-4.08149
0
LINE
8
BLACK
6
CONTINUOUS
10
6.15456
20
-4.08149
11
6.15081
21
-4.08524
0
LINE
8
BLACK
6
CONTINUOUS
10
6.15081
20
-4.08524
11
6.14997
21
-4.08583
0
LINE
8
BLACK
6
CONTINUOUS
10
6.14997
20
-4.08583
11
6.14979
21
-4.08584
0
LINE
8
BLACK
6
CONTINUOUS
10
6.14979
20
-4.08584
11
6.14966
21
-4.08595
0
LINE
8
BLACK
6
CONTINUOUS
10
6.14966
20
-4.08595
11
6.14403
21
-4.08783
0
LINE
8
BLACK
6
CONTINUOUS
10
6.14403
20
-4.08783
11
6.14316
21
-4.08796
0
LINE
8
BLACK
6
CONTINUOUS
10
6.14316
20
-4.08796
11
6.1431
21
-4.08798
0
LINE
8
BLACK
6
CONTINUOUS
10
6.1431
20
-4.08798
11
6.11498
21
-4.08798
0
LINE
8
BLACK
6
CONTINUOUS
10
6.11498
20
-4.08798
11
6.11397
21
-4.0878
0
LINE
8
BLACK
6
CONTINUOUS
10
6.11397
20
-4.0878
11
6.11242
21
-4.0865
0
LINE
8
BLACK
6
CONTINUOUS
10
6.11242
20
-4.0865
11
6.11207
21
-4.08451
0
LINE
8
BLACK
6
CONTINUOUS
10
6.11207
20
-4.08451
11
6.11308
21
-4.08276
0
LINE
8
BLACK
6
CONTINUOUS
10
6.11308
20
-4.08276
11
6.11498
21
-4.08207
0
LINE
8
BLACK
6
CONTINUOUS
10
6.11498
20
-4.08207
11
6.14262
21
-4.08207
0
LINE
8
BLACK
6
CONTINUOUS
10
6.14262
20
-4.08207
11
6.14713
21
-4.08057
0
LINE
8
BLACK
6
CONTINUOUS
10
6.14713
20
-4.08057
11
6.14989
21
-4.07781
0
LINE
8
BLACK
6
CONTINUOUS
10
6.14989
20
-4.07781
11
6.15139
21
-4.0733
0
LINE
8
BLACK
6
CONTINUOUS
10
6.15139
20
-4.0733
11
6.15139
21
-4.07003
0
LINE
8
BLACK
6
CONTINUOUS
10
6.15139
20
-4.07003
11
6.15157
21
-4.06902
0
LINE
8
BLACK
6
CONTINUOUS
10
6.15157
20
-4.06902
11
6.15287
21
-4.06747
0
LINE
8
BLACK
6
CONTINUOUS
10
6.15287
20
-4.06747
11
6.15486
21
-4.06712
0
LINE
8
BLACK
6
CONTINUOUS
10
6.15486
20
-4.06712
11
6.15661
21
-4.06813
0
LINE
8
BLACK
6
CONTINUOUS
10
5.2556
20
-4.0453
11
5.25572
21
-4.04528
0
LINE
8
BLACK
6
CONTINUOUS
10
5.25572
20
-4.04528
11
5.25584
21
-4.04534
0
LINE
8
BLACK
6
CONTINUOUS
10
5.25584
20
-4.04534
11
5.25622
21
-4.04541
0
LINE
8
BLACK
6
CONTINUOUS
10
5.25622
20
-4.04541
11
5.25681
21
-4.0459
0
LINE
8
BLACK
6
CONTINUOUS
10
5.25681
20
-4.0459
11
5.25747
21
-4.04629
0
LINE
8
BLACK
6
CONTINUOUS
10
5.25747
20
-4.04629
11
5.25756
21
-4.04654
0
LINE
8
BLACK
6
CONTINUOUS
10
5.25756
20
-4.04654
11
5.25777
21
-4.04671
0
LINE
8
BLACK
6
CONTINUOUS
10
5.25777
20
-4.04671
11
5.2579
21
-4.04746
0
LINE
8
BLACK
6
CONTINUOUS
10
5.2579
20
-4.04746
11
5.25816
21
-4.04819
0
LINE
8
BLACK
6
CONTINUOUS
10
5.25816
20
-4.04819
11
5.25816
21
-4.05756
0
LINE
8
BLACK
6
CONTINUOUS
10
5.25816
20
-4.05756
11
5.25801
21
-4.05843
0
LINE
8
BLACK
6
CONTINUOUS
10
5.25801
20
-4.05843
11
5.25801
21
-4.05849
0
LINE
8
BLACK
6
CONTINUOUS
10
5.25801
20
-4.05849
11
5.25614
21
-4.06412
0
LINE
8
BLACK
6
CONTINUOUS
10
5.25614
20
-4.06412
11
5.25565
21
-4.06502
0
LINE
8
BLACK
6
CONTINUOUS
10
5.25565
20
-4.06502
11
5.2555
21
-4.06511
0
LINE
8
BLACK
6
CONTINUOUS
10
5.2555
20
-4.06511
11
5.25542
21
-4.06527
0
LINE
8
BLACK
6
CONTINUOUS
10
5.25542
20
-4.06527
11
5.25168
21
-4.06902
0
LINE
8
BLACK
6
CONTINUOUS
10
5.25168
20
-4.06902
11
5.25095
21
-4.06953
0
LINE
8
BLACK
6
CONTINUOUS
10
5.25095
20
-4.06953
11
5.25091
21
-4.06957
0
LINE
8
BLACK
6
CONTINUOUS
10
5.25091
20
-4.06957
11
5.24716
21
-4.07145
0
LINE
8
BLACK
6
CONTINUOUS
10
5.24716
20
-4.07145
11
5.24667
21
-4.07159
0
LINE
8
BLACK
6
CONTINUOUS
10
5.24667
20
-4.07159
11
5.24655
21
-4.07167
0
LINE
8
BLACK
6
CONTINUOUS
10
5.24655
20
-4.07167
11
5.23906
21
-4.07355
0
LINE
8
BLACK
6
CONTINUOUS
10
5.23906
20
-4.07355
11
5.23847
21
-4.07359
0
LINE
8
BLACK
6
CONTINUOUS
10
5.23847
20
-4.07359
11
5.23834
21
-4.07364
0
LINE
8
BLACK
6
CONTINUOUS
10
5.23834
20
-4.07364
11
5.23271
21
-4.07364
0
LINE
8
BLACK
6
CONTINUOUS
10
5.23271
20
-4.07364
11
5.23213
21
-4.07353
0
LINE
8
BLACK
6
CONTINUOUS
10
5.23213
20
-4.07353
11
5.232
21
-4.07355
0
LINE
8
BLACK
6
CONTINUOUS
10
5.232
20
-4.07355
11
5.2245
21
-4.07167
0
LINE
8
BLACK
6
CONTINUOUS
10
5.2245
20
-4.07167
11
5.22403
21
-4.07146
0
LINE
8
BLACK
6
CONTINUOUS
10
5.22403
20
-4.07146
11
5.2239
21
-4.07145
0
LINE
8
BLACK
6
CONTINUOUS
10
5.2239
20
-4.07145
11
5.22015
21
-4.06957
0
LINE
8
BLACK
6
CONTINUOUS
10
5.22015
20
-4.06957
11
5.21944
21
-4.06905
0
LINE
8
BLACK
6
CONTINUOUS
10
5.21944
20
-4.06905
11
5.21938
21
-4.06902
0
LINE
8
BLACK
6
CONTINUOUS
10
5.21938
20
-4.06902
11
5.21563
21
-4.06527
0
LINE
8
BLACK
6
CONTINUOUS
10
5.21563
20
-4.06527
11
5.21504
21
-4.06443
0
LINE
8
BLACK
6
CONTINUOUS
10
5.21504
20
-4.06443
11
5.21503
21
-4.06426
0
LINE
8
BLACK
6
CONTINUOUS
10
5.21503
20
-4.06426
11
5.21492
21
-4.06412
0
LINE
8
BLACK
6
CONTINUOUS
10
5.21492
20
-4.06412
11
5.21304
21
-4.05849
0
LINE
8
BLACK
6
CONTINUOUS
10
5.21304
20
-4.05849
11
5.21291
21
-4.05762
0
LINE
8
BLACK
6
CONTINUOUS
10
5.21291
20
-4.05762
11
5.21289
21
-4.05756
0
LINE
8
BLACK
6
CONTINUOUS
10
5.21289
20
-4.05756
11
5.21289
21
-4.04819
0
LINE
8
BLACK
6
CONTINUOUS
10
5.21289
20
-4.04819
11
5.21296
21
-4.0478
0
LINE
8
BLACK
6
CONTINUOUS
10
5.21296
20
-4.0478
11
5.21293
21
-4.04767
0
LINE
8
BLACK
6
CONTINUOUS
10
5.21293
20
-4.04767
11
5.213
21
-4.04756
0
LINE
8
BLACK
6
CONTINUOUS
10
5.213
20
-4.04756
11
5.21307
21
-4.04718
0
LINE
8
BLACK
6
CONTINUOUS
10
5.21307
20
-4.04718
11
5.21356
21
-4.04659
0
LINE
8
BLACK
6
CONTINUOUS
10
5.21356
20
-4.04659
11
5.21394
21
-4.04592
0
LINE
8
BLACK
6
CONTINUOUS
10
5.21394
20
-4.04592
11
5.21419
21
-4.04583
0
LINE
8
BLACK
6
CONTINUOUS
10
5.21419
20
-4.04583
11
5.21437
21
-4.04563
0
LINE
8
BLACK
6
CONTINUOUS
10
5.21437
20
-4.04563
11
5.21512
21
-4.04549
0
LINE
8
BLACK
6
CONTINUOUS
10
5.21512
20
-4.04549
11
5.21584
21
-4.04523
0
LINE
8
BLACK
6
CONTINUOUS
10
5.21584
20
-4.04523
11
5.25521
21
-4.04523
0
LINE
8
BLACK
6
CONTINUOUS
10
5.25521
20
-4.04523
11
5.2556
21
-4.0453
0
LINE
8
BLACK
6
CONTINUOUS
10
5.21879
20
-4.05114
11
5.21879
21
-4.05708
0
LINE
8
BLACK
6
CONTINUOUS
10
5.21879
20
-4.05708
11
5.2203
21
-4.06159
0
LINE
8
BLACK
6
CONTINUOUS
10
5.2203
20
-4.06159
11
5.22322
21
-4.06451
0
LINE
8
BLACK
6
CONTINUOUS
10
5.22322
20
-4.06451
11
5.22625
21
-4.06602
0
LINE
8
BLACK
6
CONTINUOUS
10
5.22625
20
-4.06602
11
5.23308
21
-4.06773
0
LINE
8
BLACK
6
CONTINUOUS
10
5.23308
20
-4.06773
11
5.23798
21
-4.06773
0
LINE
8
BLACK
6
CONTINUOUS
10
5.23798
20
-4.06773
11
5.24481
21
-4.06602
0
LINE
8
BLACK
6
CONTINUOUS
10
5.24481
20
-4.06602
11
5.24784
21
-4.06451
0
LINE
8
BLACK
6
CONTINUOUS
10
5.24784
20
-4.06451
11
5.25076
21
-4.06159
0
LINE
8
BLACK
6
CONTINUOUS
10
5.25076
20
-4.06159
11
5.25226
21
-4.05708
0
LINE
8
BLACK
6
CONTINUOUS
10
5.25226
20
-4.05708
11
5.25226
21
-4.05114
0
LINE
8
BLACK
6
CONTINUOUS
10
5.25226
20
-4.05114
11
5.21879
21
-4.05114
0
LINE
8
BLACK
6
CONTINUOUS
10
6.30466
20
-3.97035
11
6.30535
21
-3.97224
0
LINE
8
BLACK
6
CONTINUOUS
10
6.30535
20
-3.97224
11
6.30535
21
-4.03224
0
LINE
8
BLACK
6
CONTINUOUS
10
6.30535
20
-4.03224
11
6.30518
21
-4.03325
0
LINE
8
BLACK
6
CONTINUOUS
10
6.30518
20
-4.03325
11
6.30388
21
-4.0348
0
LINE
8
BLACK
6
CONTINUOUS
10
6.30388
20
-4.0348
11
6.30189
21
-4.03515
0
LINE
8
BLACK
6
CONTINUOUS
10
6.30189
20
-4.03515
11
6.30014
21
-4.03414
0
LINE
8
BLACK
6
CONTINUOUS
10
6.30014
20
-4.03414
11
6.29945
21
-4.03224
0
LINE
8
BLACK
6
CONTINUOUS
10
6.29945
20
-4.03224
11
6.29945
21
-3.97224
0
LINE
8
BLACK
6
CONTINUOUS
10
6.29945
20
-3.97224
11
6.29963
21
-3.97123
0
LINE
8
BLACK
6
CONTINUOUS
10
6.29963
20
-3.97123
11
6.30093
21
-3.96969
0
LINE
8
BLACK
6
CONTINUOUS
10
6.30093
20
-3.96969
11
6.30291
21
-3.96934
0
LINE
8
BLACK
6
CONTINUOUS
10
6.30291
20
-3.96934
11
6.30466
21
-3.97035
0
LINE
8
BLACK
6
CONTINUOUS
10
6.18466
20
-3.97035
11
6.18535
21
-3.97224
0
LINE
8
BLACK
6
CONTINUOUS
10
6.18535
20
-3.97224
11
6.18535
21
-4.03224
0
LINE
8
BLACK
6
CONTINUOUS
10
6.18535
20
-4.03224
11
6.18518
21
-4.03325
0
LINE
8
BLACK
6
CONTINUOUS
10
6.18518
20
-4.03325
11
6.18388
21
-4.0348
0
LINE
8
BLACK
6
CONTINUOUS
10
6.18388
20
-4.0348
11
6.18189
21
-4.03515
0
LINE
8
BLACK
6
CONTINUOUS
10
6.18189
20
-4.03515
11
6.18014
21
-4.03414
0
LINE
8
BLACK
6
CONTINUOUS
10
6.18014
20
-4.03414
11
6.17945
21
-4.03224
0
LINE
8
BLACK
6
CONTINUOUS
10
6.17945
20
-4.03224
11
6.17945
21
-3.97224
0
LINE
8
BLACK
6
CONTINUOUS
10
6.17945
20
-3.97224
11
6.17963
21
-3.97123
0
LINE
8
BLACK
6
CONTINUOUS
10
6.17963
20
-3.97123
11
6.18093
21
-3.96969
0
LINE
8
BLACK
6
CONTINUOUS
10
6.18093
20
-3.96969
11
6.18291
21
-3.96934
0
LINE
8
BLACK
6
CONTINUOUS
10
6.18291
20
-3.96934
11
6.18466
21
-3.97035
0
LINE
8
BLACK
6
CONTINUOUS
10
6.25907
20
-4.03057
11
6.25976
21
-4.03224
0
LINE
8
BLACK
6
CONTINUOUS
10
6.25976
20
-4.03224
11
6.25907
21
-4.03391
0
LINE
8
BLACK
6
CONTINUOUS
10
6.25907
20
-4.03391
11
6.2574
21
-4.03461
0
LINE
8
BLACK
6
CONTINUOUS
10
6.2574
20
-4.03461
11
6.2274
21
-4.03461
0
LINE
8
BLACK
6
CONTINUOUS
10
6.2274
20
-4.03461
11
6.22573
21
-4.03391
0
LINE
8
BLACK
6
CONTINUOUS
10
6.22573
20
-4.03391
11
6.22504
21
-4.03224
0
LINE
8
BLACK
6
CONTINUOUS
10
6.22504
20
-4.03224
11
6.22573
21
-4.03057
0
LINE
8
BLACK
6
CONTINUOUS
10
6.22573
20
-4.03057
11
6.2274
21
-4.02988
0
LINE
8
BLACK
6
CONTINUOUS
10
6.2274
20
-4.02988
11
6.2574
21
-4.02988
0
LINE
8
BLACK
6
CONTINUOUS
10
6.2574
20
-4.02988
11
6.25907
21
-4.03057
0
LINE
8
BLACK
6
CONTINUOUS
10
5.956
20
-3.9601
11
5.95669
21
-3.96177
0
LINE
8
BLACK
6
CONTINUOUS
10
5.95669
20
-3.96177
11
5.95669
21
-3.98795
0
LINE
8
BLACK
6
CONTINUOUS
10
5.95669
20
-3.98795
11
5.98287
21
-3.98795
0
LINE
8
BLACK
6
CONTINUOUS
10
5.98287
20
-3.98795
11
5.98454
21
-3.98864
0
LINE
8
BLACK
6
CONTINUOUS
10
5.98454
20
-3.98864
11
5.98524
21
-3.99031
0
LINE
8
BLACK
6
CONTINUOUS
10
5.98524
20
-3.99031
11
5.98454
21
-3.99199
0
LINE
8
BLACK
6
CONTINUOUS
10
5.98454
20
-3.99199
11
5.98287
21
-3.99268
0
LINE
8
BLACK
6
CONTINUOUS
10
5.98287
20
-3.99268
11
5.95433
21
-3.99268
0
LINE
8
BLACK
6
CONTINUOUS
10
5.95433
20
-3.99268
11
5.95266
21
-3.99199
0
LINE
8
BLACK
6
CONTINUOUS
10
5.95266
20
-3.99199
11
5.95197
21
-3.99031
0
LINE
8
BLACK
6
CONTINUOUS
10
5.95197
20
-3.99031
11
5.95197
21
-3.96177
0
LINE
8
BLACK
6
CONTINUOUS
10
5.95197
20
-3.96177
11
5.95266
21
-3.9601
0
LINE
8
BLACK
6
CONTINUOUS
10
5.95266
20
-3.9601
11
5.95433
21
-3.95941
0
LINE
8
BLACK
6
CONTINUOUS
10
5.95433
20
-3.95941
11
5.956
21
-3.9601
0
LINE
8
BLACK
6
CONTINUOUS
10
6.12214
20
-3.9601
11
6.12283
21
-3.96177
0
LINE
8
BLACK
6
CONTINUOUS
10
6.12283
20
-3.96177
11
6.12283
21
-3.99031
0
LINE
8
BLACK
6
CONTINUOUS
10
6.12283
20
-3.99031
11
6.12214
21
-3.99199
0
LINE
8
BLACK
6
CONTINUOUS
10
6.12214
20
-3.99199
11
6.12047
21
-3.99268
0
LINE
8
BLACK
6
CONTINUOUS
10
6.12047
20
-3.99268
11
6.1188
21
-3.99199
0
LINE
8
BLACK
6
CONTINUOUS
10
6.1188
20
-3.99199
11
6.11811
21
-3.99031
0
LINE
8
BLACK
6
CONTINUOUS
10
6.11811
20
-3.99031
11
6.11811
21
-3.96177
0
LINE
8
BLACK
6
CONTINUOUS
10
6.11811
20
-3.96177
11
6.1188
21
-3.9601
0
LINE
8
BLACK
6
CONTINUOUS
10
6.1188
20
-3.9601
11
6.12047
21
-3.95941
0
LINE
8
BLACK
6
CONTINUOUS
10
6.12047
20
-3.95941
11
6.12214
21
-3.9601
0
LINE
8
BLACK
6
CONTINUOUS
10
5.16841
20
-3.97697
11
5.16996
21
-3.97827
0
LINE
8
BLACK
6
CONTINUOUS
10
5.16996
20
-3.97827
11
5.17031
21
-3.98026
0
LINE
8
BLACK
6
CONTINUOUS
10
5.17031
20
-3.98026
11
5.1693
21
-3.98201
0
LINE
8
BLACK
6
CONTINUOUS
10
5.1693
20
-3.98201
11
5.1674
21
-3.9827
0
LINE
8
BLACK
6
CONTINUOUS
10
5.1674
20
-3.9827
11
5.1074
21
-3.9827
0
LINE
8
BLACK
6
CONTINUOUS
10
5.1074
20
-3.9827
11
5.10639
21
-3.98252
0
LINE
8
BLACK
6
CONTINUOUS
10
5.10639
20
-3.98252
11
5.10484
21
-3.98122
0
LINE
8
BLACK
6
CONTINUOUS
10
5.10484
20
-3.98122
11
5.10449
21
-3.97923
0
LINE
8
BLACK
6
CONTINUOUS
10
5.10449
20
-3.97923
11
5.1055
21
-3.97748
0
LINE
8
BLACK
6
CONTINUOUS
10
5.1055
20
-3.97748
11
5.1074
21
-3.97679
0
LINE
8
BLACK
6
CONTINUOUS
10
5.1074
20
-3.97679
11
5.1674
21
-3.97679
0
LINE
8
BLACK
6
CONTINUOUS
10
5.1674
20
-3.97679
11
5.16841
21
-3.97697
0
LINE
8
BLACK
6
CONTINUOUS
10
5.26841
20
-3.97697
11
5.26996
21
-3.97827
0
LINE
8
BLACK
6
CONTINUOUS
10
5.26996
20
-3.97827
11
5.27031
21
-3.98026
0
LINE
8
BLACK
6
CONTINUOUS
10
5.27031
20
-3.98026
11
5.2693
21
-3.98201
0
LINE
8
BLACK
6
CONTINUOUS
10
5.2693
20
-3.98201
11
5.2674
21
-3.9827
0
LINE
8
BLACK
6
CONTINUOUS
10
5.2674
20
-3.9827
11
5.2074
21
-3.9827
0
LINE
8
BLACK
6
CONTINUOUS
10
5.2074
20
-3.9827
11
5.20639
21
-3.98252
0
LINE
8
BLACK
6
CONTINUOUS
10
5.20639
20
-3.98252
11
5.20484
21
-3.98122
0
LINE
8
BLACK
6
CONTINUOUS
10
5.20484
20
-3.98122
11
5.20449
21
-3.97923
0
LINE
8
BLACK
6
CONTINUOUS
10
5.20449
20
-3.97923
11
5.2055
21
-3.97748
0
LINE
8
BLACK
6
CONTINUOUS
10
5.2055
20
-3.97748
11
5.2074
21
-3.97679
0
LINE
8
BLACK
6
CONTINUOUS
10
5.2074
20
-3.97679
11
5.2674
21
-3.97679
0
LINE
8
BLACK
6
CONTINUOUS
10
5.2674
20
-3.97679
11
5.26841
21
-3.97697
0
LINE
8
BLACK
6
CONTINUOUS
10
5.45664
20
-3.97447
11
5.45819
21
-3.97577
0
LINE
8
BLACK
6
CONTINUOUS
10
5.45819
20
-3.97577
11
5.45854
21
-3.97776
0
LINE
8
BLACK
6
CONTINUOUS
10
5.45854
20
-3.97776
11
5.45753
21
-3.97951
0
LINE
8
BLACK
6
CONTINUOUS
10
5.45753
20
-3.97951
11
5.45563
21
-3.9802
0
LINE
8
BLACK
6
CONTINUOUS
10
5.45563
20
-3.9802
11
5.36563
21
-3.9802
0
LINE
8
BLACK
6
CONTINUOUS
10
5.36563
20
-3.9802
11
5.36462
21
-3.98002
0
LINE
8
BLACK
6
CONTINUOUS
10
5.36462
20
-3.98002
11
5.36307
21
-3.97872
0
LINE
8
BLACK
6
CONTINUOUS
10
5.36307
20
-3.97872
11
5.36272
21
-3.97673
0
LINE
8
BLACK
6
CONTINUOUS
10
5.36272
20
-3.97673
11
5.36373
21
-3.97498
0
LINE
8
BLACK
6
CONTINUOUS
10
5.36373
20
-3.97498
11
5.36563
21
-3.97429
0
LINE
8
BLACK
6
CONTINUOUS
10
5.36563
20
-3.97429
11
5.45563
21
-3.97429
0
LINE
8
BLACK
6
CONTINUOUS
10
5.45563
20
-3.97429
11
5.45664
21
-3.97447
0
LINE
8
BLACK
6
CONTINUOUS
10
6.25907
20
-3.97057
11
6.25976
21
-3.97224
0
LINE
8
BLACK
6
CONTINUOUS
10
6.25976
20
-3.97224
11
6.25907
21
-3.97391
0
LINE
8
BLACK
6
CONTINUOUS
10
6.25907
20
-3.97391
11
6.2574
21
-3.97461
0
LINE
8
BLACK
6
CONTINUOUS
10
6.2574
20
-3.97461
11
6.2274
21
-3.97461
0
LINE
8
BLACK
6
CONTINUOUS
10
6.2274
20
-3.97461
11
6.22573
21
-3.97391
0
LINE
8
BLACK
6
CONTINUOUS
10
6.22573
20
-3.97391
11
6.22504
21
-3.97224
0
LINE
8
BLACK
6
CONTINUOUS
10
6.22504
20
-3.97224
11
6.22573
21
-3.97057
0
LINE
8
BLACK
6
CONTINUOUS
10
6.22573
20
-3.97057
11
6.2274
21
-3.96988
0
LINE
8
BLACK
6
CONTINUOUS
10
6.2274
20
-3.96988
11
6.2574
21
-3.96988
0
LINE
8
BLACK
6
CONTINUOUS
10
6.2574
20
-3.96988
11
6.25907
21
-3.97057
0
LINE
8
BLACK
6
CONTINUOUS
10
6.18576
20
-3.9119
11
6.1859
21
-3.91189
0
LINE
8
BLACK
6
CONTINUOUS
10
6.1859
20
-3.91189
11
6.18663
21
-3.9124
0
LINE
8
BLACK
6
CONTINUOUS
10
6.18663
20
-3.9124
11
6.18739
21
-3.91285
0
LINE
8
BLACK
6
CONTINUOUS
10
6.18739
20
-3.91285
11
6.18744
21
-3.91297
0
LINE
8
BLACK
6
CONTINUOUS
10
6.18744
20
-3.91297
11
6.18755
21
-3.91305
0
LINE
8
BLACK
6
CONTINUOUS
10
6.18755
20
-3.91305
11
6.18778
21
-3.91391
0
LINE
8
BLACK
6
CONTINUOUS
10
6.18778
20
-3.91391
11
6.18809
21
-3.91474
0
LINE
8
BLACK
6
CONTINUOUS
10
6.18809
20
-3.91474
11
6.18809
21
-3.93912
0
LINE
8
BLACK
6
CONTINUOUS
10
6.18809
20
-3.93912
11
6.18791
21
-3.94013
0
LINE
8
BLACK
6
CONTINUOUS
10
6.18791
20
-3.94013
11
6.18661
21
-3.94167
0
LINE
8
BLACK
6
CONTINUOUS
10
6.18661
20
-3.94167
11
6.18462
21
-3.94202
0
LINE
8
BLACK
6
CONTINUOUS
10
6.18462
20
-3.94202
11
6.18287
21
-3.94101
0
LINE
8
BLACK
6
CONTINUOUS
10
6.18287
20
-3.94101
11
6.18218
21
-3.93912
0
LINE
8
BLACK
6
CONTINUOUS
10
6.18218
20
-3.93912
11
6.18218
21
-3.92187
0
LINE
8
BLACK
6
CONTINUOUS
10
6.18218
20
-3.92187
11
6.16472
21
-3.93933
0
LINE
8
BLACK
6
CONTINUOUS
10
6.16472
20
-3.93933
11
6.16388
21
-3.93992
0
LINE
8
BLACK
6
CONTINUOUS
10
6.16388
20
-3.93992
11
6.16371
21
-3.93993
0
LINE
8
BLACK
6
CONTINUOUS
10
6.16371
20
-3.93993
11
6.16357
21
-3.94004
0
LINE
8
BLACK
6
CONTINUOUS
10
6.16357
20
-3.94004
11
6.15795
21
-3.94192
0
LINE
8
BLACK
6
CONTINUOUS
10
6.15795
20
-3.94192
11
6.15707
21
-3.94205
0
LINE
8
BLACK
6
CONTINUOUS
10
6.15707
20
-3.94205
11
6.15701
21
-3.94207
0
LINE
8
BLACK
6
CONTINUOUS
10
6.15701
20
-3.94207
11
6.15326
21
-3.94207
0
LINE
8
BLACK
6
CONTINUOUS
10
6.15326
20
-3.94207
11
6.15225
21
-3.94189
0
LINE
8
BLACK
6
CONTINUOUS
10
6.15225
20
-3.94189
11
6.15212
21
-3.94178
0
LINE
8
BLACK
6
CONTINUOUS
10
6.15212
20
-3.94178
11
6.15194
21
-3.94176
0
LINE
8
BLACK
6
CONTINUOUS
10
6.15194
20
-3.94176
11
6.14819
21
-3.93988
0
LINE
8
BLACK
6
CONTINUOUS
10
6.14819
20
-3.93988
11
6.14748
21
-3.93936
0
LINE
8
BLACK
6
CONTINUOUS
10
6.14748
20
-3.93936
11
6.14742
21
-3.93933
0
LINE
8
BLACK
6
CONTINUOUS
10
6.14742
20
-3.93933
11
6.14555
21
-3.93745
0
LINE
8
BLACK
6
CONTINUOUS
10
6.14555
20
-3.93745
11
6.14504
21
-3.93673
0
LINE
8
BLACK
6
CONTINUOUS
10
6.14504
20
-3.93673
11
6.145
21
-3.93669
0
LINE
8
BLACK
6
CONTINUOUS
10
6.145
20
-3.93669
11
6.14312
21
-3.93294
0
LINE
8
BLACK
6
CONTINUOUS
10
6.14312
20
-3.93294
11
6.14283
21
-3.93195
0
LINE
8
BLACK
6
CONTINUOUS
10
6.14283
20
-3.93195
11
6.14287
21
-3.93178
0
LINE
8
BLACK
6
CONTINUOUS
10
6.14287
20
-3.93178
11
6.14281
21
-3.93162
0
LINE
8
BLACK
6
CONTINUOUS
10
6.14281
20
-3.93162
11
6.14281
21
-3.92224
0
LINE
8
BLACK
6
CONTINUOUS
10
6.14281
20
-3.92224
11
6.14299
21
-3.92123
0
LINE
8
BLACK
6
CONTINUOUS
10
6.14299
20
-3.92123
11
6.1431
21
-3.9211
0
LINE
8
BLACK
6
CONTINUOUS
10
6.1431
20
-3.9211
11
6.14312
21
-3.92092
0
LINE
8
BLACK
6
CONTINUOUS
10
6.14312
20
-3.92092
11
6.145
21
-3.91717
0
LINE
8
BLACK
6
CONTINUOUS
10
6.145
20
-3.91717
11
6.14552
21
-3.91646
0
LINE
8
BLACK
6
CONTINUOUS
10
6.14552
20
-3.91646
11
6.14555
21
-3.9164
0
LINE
8
BLACK
6
CONTINUOUS
10
6.14555
20
-3.9164
11
6.14742
21
-3.91453
0
LINE
8
BLACK
6
CONTINUOUS
10
6.14742
20
-3.91453
11
6.14826
21
-3.91394
0
LINE
8
BLACK
6
CONTINUOUS
10
6.14826
20
-3.91394
11
6.15028
21
-3.91377
0
LINE
8
BLACK
6
CONTINUOUS
10
6.15028
20
-3.91377
11
6.15193
21
-3.91492
0
LINE
8
BLACK
6
CONTINUOUS
10
6.15193
20
-3.91492
11
6.15245
21
-3.91688
0
LINE
8
BLACK
6
CONTINUOUS
10
6.15245
20
-3.91688
11
6.1516
21
-3.91871
0
LINE
8
BLACK
6
CONTINUOUS
10
6.1516
20
-3.91871
11
6.15006
21
-3.92024
0
LINE
8
BLACK
6
CONTINUOUS
10
6.15006
20
-3.92024
11
6.14872
21
-3.92294
0
LINE
8
BLACK
6
CONTINUOUS
10
6.14872
20
-3.92294
11
6.14872
21
-3.93092
0
LINE
8
BLACK
6
CONTINUOUS
10
6.14872
20
-3.93092
11
6.15006
21
-3.93362
0
LINE
8
BLACK
6
CONTINUOUS
10
6.15006
20
-3.93362
11
6.15126
21
-3.93481
0
LINE
8
BLACK
6
CONTINUOUS
10
6.15126
20
-3.93481
11
6.15396
21
-3.93616
0
LINE
8
BLACK
6
CONTINUOUS
10
6.15396
20
-3.93616
11
6.15653
21
-3.93616
0
LINE
8
BLACK
6
CONTINUOUS
10
6.15653
20
-3.93616
11
6.16104
21
-3.93466
0
LINE
8
BLACK
6
CONTINUOUS
10
6.16104
20
-3.93466
11
6.18305
21
-3.91266
0
LINE
8
BLACK
6
CONTINUOUS
10
6.18305
20
-3.91266
11
6.18357
21
-3.91229
0
LINE
8
BLACK
6
CONTINUOUS
10
6.18357
20
-3.91229
11
6.18366
21
-3.91219
0
LINE
8
BLACK
6
CONTINUOUS
10
6.18366
20
-3.91219
11
6.18374
21
-3.91217
0
LINE
8
BLACK
6
CONTINUOUS
10
6.18374
20
-3.91217
11
6.18389
21
-3.91207
0
LINE
8
BLACK
6
CONTINUOUS
10
6.18389
20
-3.91207
11
6.18477
21
-3.91199
0
LINE
8
BLACK
6
CONTINUOUS
10
6.18477
20
-3.91199
11
6.18565
21
-3.91184
0
LINE
8
BLACK
6
CONTINUOUS
10
6.18565
20
-3.91184
11
6.18576
21
-3.9119
0
LINE
8
BLACK
6
CONTINUOUS
10
5.16907
20
-3.90307
11
5.16976
21
-3.90474
0
LINE
8
BLACK
6
CONTINUOUS
10
5.16976
20
-3.90474
11
5.16976
21
-3.93474
0
LINE
8
BLACK
6
CONTINUOUS
10
5.16976
20
-3.93474
11
5.16907
21
-3.93641
0
LINE
8
BLACK
6
CONTINUOUS
10
5.16907
20
-3.93641
11
5.1674
21
-3.93711
0
LINE
8
BLACK
6
CONTINUOUS
10
5.1674
20
-3.93711
11
5.16573
21
-3.93641
0
LINE
8
BLACK
6
CONTINUOUS
10
5.16573
20
-3.93641
11
5.16504
21
-3.93474
0
LINE
8
BLACK
6
CONTINUOUS
10
5.16504
20
-3.93474
11
5.16504
21
-3.90474
0
LINE
8
BLACK
6
CONTINUOUS
10
5.16504
20
-3.90474
11
5.16573
21
-3.90307
0
LINE
8
BLACK
6
CONTINUOUS
10
5.16573
20
-3.90307
11
5.1674
21
-3.90238
0
LINE
8
BLACK
6
CONTINUOUS
10
5.1674
20
-3.90238
11
5.16907
21
-3.90307
0
LINE
8
BLACK
6
CONTINUOUS
10
5.10907
20
-3.90307
11
5.10976
21
-3.90474
0
LINE
8
BLACK
6
CONTINUOUS
10
5.10976
20
-3.90474
11
5.10976
21
-3.93474
0
LINE
8
BLACK
6
CONTINUOUS
10
5.10976
20
-3.93474
11
5.10907
21
-3.93641
0
LINE
8
BLACK
6
CONTINUOUS
10
5.10907
20
-3.93641
11
5.1074
21
-3.93711
0
LINE
8
BLACK
6
CONTINUOUS
10
5.1074
20
-3.93711
11
5.10573
21
-3.93641
0
LINE
8
BLACK
6
CONTINUOUS
10
5.10573
20
-3.93641
11
5.10504
21
-3.93474
0
LINE
8
BLACK
6
CONTINUOUS
10
5.10504
20
-3.93474
11
5.10504
21
-3.90474
0
LINE
8
BLACK
6
CONTINUOUS
10
5.10504
20
-3.90474
11
5.10573
21
-3.90307
0
LINE
8
BLACK
6
CONTINUOUS
10
5.10573
20
-3.90307
11
5.1074
21
-3.90238
0
LINE
8
BLACK
6
CONTINUOUS
10
5.1074
20
-3.90238
11
5.10907
21
-3.90307
0
LINE
8
BLACK
6
CONTINUOUS
10
5.20907
20
-3.90307
11
5.20976
21
-3.90474
0
LINE
8
BLACK
6
CONTINUOUS
10
5.20976
20
-3.90474
11
5.20976
21
-3.93474
0
LINE
8
BLACK
6
CONTINUOUS
10
5.20976
20
-3.93474
11
5.20907
21
-3.93641
0
LINE
8
BLACK
6
CONTINUOUS
10
5.20907
20
-3.93641
11
5.2074
21
-3.93711
0
LINE
8
BLACK
6
CONTINUOUS
10
5.2074
20
-3.93711
11
5.20573
21
-3.93641
0
LINE
8
BLACK
6
CONTINUOUS
10
5.20573
20
-3.93641
11
5.20504
21
-3.93474
0
LINE
8
BLACK
6
CONTINUOUS
10
5.20504
20
-3.93474
11
5.20504
21
-3.90474
0
LINE
8
BLACK
6
CONTINUOUS
10
5.20504
20
-3.90474
11
5.20573
21
-3.90307
0
LINE
8
BLACK
6
CONTINUOUS
10
5.20573
20
-3.90307
11
5.2074
21
-3.90238
0
LINE
8
BLACK
6
CONTINUOUS
10
5.2074
20
-3.90238
11
5.20907
21
-3.90307
0
LINE
8
BLACK
6
CONTINUOUS
10
5.26907
20
-3.90307
11
5.26976
21
-3.90474
0
LINE
8
BLACK
6
CONTINUOUS
10
5.26976
20
-3.90474
11
5.26976
21
-3.93474
0
LINE
8
BLACK
6
CONTINUOUS
10
5.26976
20
-3.93474
11
5.26907
21
-3.93641
0
LINE
8
BLACK
6
CONTINUOUS
10
5.26907
20
-3.93641
11
5.2674
21
-3.93711
0
LINE
8
BLACK
6
CONTINUOUS
10
5.2674
20
-3.93711
11
5.26573
21
-3.93641
0
LINE
8
BLACK
6
CONTINUOUS
10
5.26573
20
-3.93641
11
5.26504
21
-3.93474
0
LINE
8
BLACK
6
CONTINUOUS
10
5.26504
20
-3.93474
11
5.26504
21
-3.90474
0
LINE
8
BLACK
6
CONTINUOUS
10
5.26504
20
-3.90474
11
5.26573
21
-3.90307
0
LINE
8
BLACK
6
CONTINUOUS
10
5.26573
20
-3.90307
11
5.2674
21
-3.90238
0
LINE
8
BLACK
6
CONTINUOUS
10
5.2674
20
-3.90238
11
5.26907
21
-3.90307
0
LINE
8
BLACK
6
CONTINUOUS
10
6.17864
20
-3.87447
11
6.17878
21
-3.87459
0
LINE
8
BLACK
6
CONTINUOUS
10
6.17878
20
-3.87459
11
6.17895
21
-3.87461
0
LINE
8
BLACK
6
CONTINUOUS
10
6.17895
20
-3.87461
11
6.1827
21
-3.87648
0
LINE
8
BLACK
6
CONTINUOUS
10
6.1827
20
-3.87648
11
6.18341
21
-3.87701
0
LINE
8
BLACK
6
CONTINUOUS
10
6.18341
20
-3.87701
11
6.18347
21
-3.87703
0
LINE
8
BLACK
6
CONTINUOUS
10
6.18347
20
-3.87703
11
6.18535
21
-3.87891
0
LINE
8
BLACK
6
CONTINUOUS
10
6.18535
20
-3.87891
11
6.18585
21
-3.87963
0
LINE
8
BLACK
6
CONTINUOUS
10
6.18585
20
-3.87963
11
6.1859
21
-3.87968
0
LINE
8
BLACK
6
CONTINUOUS
10
6.1859
20
-3.87968
11
6.18777
21
-3.88343
0
LINE
8
BLACK
6
CONTINUOUS
10
6.18777
20
-3.88343
11
6.18807
21
-3.88441
0
LINE
8
BLACK
6
CONTINUOUS
10
6.18807
20
-3.88441
11
6.18803
21
-3.88458
0
LINE
8
BLACK
6
CONTINUOUS
10
6.18803
20
-3.88458
11
6.18809
21
-3.88475
0
LINE
8
BLACK
6
CONTINUOUS
10
6.18809
20
-3.88475
11
6.18809
21
-3.89225
0
LINE
8
BLACK
6
CONTINUOUS
10
6.18809
20
-3.89225
11
6.18791
21
-3.89326
0
LINE
8
BLACK
6
CONTINUOUS
10
6.18791
20
-3.89326
11
6.18779
21
-3.89339
0
LINE
8
BLACK
6
CONTINUOUS
10
6.18779
20
-3.89339
11
6.18777
21
-3.89357
0
LINE
8
BLACK
6
CONTINUOUS
10
6.18777
20
-3.89357
11
6.1859
21
-3.89732
0
LINE
8
BLACK
6
CONTINUOUS
10
6.1859
20
-3.89732
11
6.18537
21
-3.89803
0
LINE
8
BLACK
6
CONTINUOUS
10
6.18537
20
-3.89803
11
6.18535
21
-3.89808
0
LINE
8
BLACK
6
CONTINUOUS
10
6.18535
20
-3.89808
11
6.18347
21
-3.89996
0
LINE
8
BLACK
6
CONTINUOUS
10
6.18347
20
-3.89996
11
6.18275
21
-3.90046
0
LINE
8
BLACK
6
CONTINUOUS
10
6.18275
20
-3.90046
11
6.1827
21
-3.90051
0
LINE
8
BLACK
6
CONTINUOUS
10
6.1827
20
-3.90051
11
6.17895
21
-3.90239
0
LINE
8
BLACK
6
CONTINUOUS
10
6.17895
20
-3.90239
11
6.17797
21
-3.90268
0
LINE
8
BLACK
6
CONTINUOUS
10
6.17797
20
-3.90268
11
6.1778
21
-3.90264
0
LINE
8
BLACK
6
CONTINUOUS
10
6.1778
20
-3.90264
11
6.17763
21
-3.9027
0
LINE
8
BLACK
6
CONTINUOUS
10
6.17763
20
-3.9027
11
6.14576
21
-3.9027
0
LINE
8
BLACK
6
CONTINUOUS
10
6.14576
20
-3.9027
11
6.14475
21
-3.90252
0
LINE
8
BLACK
6
CONTINUOUS
10
6.14475
20
-3.90252
11
6.14321
21
-3.90122
0
LINE
8
BLACK
6
CONTINUOUS
10
6.14321
20
-3.90122
11
6.14286
21
-3.89923
0
LINE
8
BLACK
6
CONTINUOUS
10
6.14286
20
-3.89923
11
6.14386
21
-3.89748
0
LINE
8
BLACK
6
CONTINUOUS
10
6.14386
20
-3.89748
11
6.14576
21
-3.89679
0
LINE
8
BLACK
6
CONTINUOUS
10
6.14576
20
-3.89679
11
6.17694
21
-3.89679
0
LINE
8
BLACK
6
CONTINUOUS
10
6.17694
20
-3.89679
11
6.17963
21
-3.89544
0
LINE
8
BLACK
6
CONTINUOUS
10
6.17963
20
-3.89544
11
6.18083
21
-3.89425
0
LINE
8
BLACK
6
CONTINUOUS
10
6.18083
20
-3.89425
11
6.18218
21
-3.89155
0
LINE
8
BLACK
6
CONTINUOUS
10
6.18218
20
-3.89155
11
6.18218
21
-3.88544
0
LINE
8
BLACK
6
CONTINUOUS
10
6.18218
20
-3.88544
11
6.18083
21
-3.88275
0
LINE
8
BLACK
6
CONTINUOUS
10
6.18083
20
-3.88275
11
6.17963
21
-3.88155
0
LINE
8
BLACK
6
CONTINUOUS
10
6.17963
20
-3.88155
11
6.17694
21
-3.8802
0
LINE
8
BLACK
6
CONTINUOUS
10
6.17694
20
-3.8802
11
6.14576
21
-3.8802
0
LINE
8
BLACK
6
CONTINUOUS
10
6.14576
20
-3.8802
11
6.14475
21
-3.88002
0
LINE
8
BLACK
6
CONTINUOUS
10
6.14475
20
-3.88002
11
6.14321
21
-3.87872
0
LINE
8
BLACK
6
CONTINUOUS
10
6.14321
20
-3.87872
11
6.14286
21
-3.87674
0
LINE
8
BLACK
6
CONTINUOUS
10
6.14286
20
-3.87674
11
6.14386
21
-3.87499
0
LINE
8
BLACK
6
CONTINUOUS
10
6.14386
20
-3.87499
11
6.14576
21
-3.8743
0
LINE
8
BLACK
6
CONTINUOUS
10
6.14576
20
-3.8743
11
6.17763
21
-3.8743
0
LINE
8
BLACK
6
CONTINUOUS
10
6.17763
20
-3.8743
11
6.17864
21
-3.87447
0
LINE
8
BLACK
6
CONTINUOUS
10
5.16841
20
-3.85697
11
5.16996
21
-3.85827
0
LINE
8
BLACK
6
CONTINUOUS
10
5.16996
20
-3.85827
11
5.17031
21
-3.86026
0
LINE
8
BLACK
6
CONTINUOUS
10
5.17031
20
-3.86026
11
5.1693
21
-3.86201
0
LINE
8
BLACK
6
CONTINUOUS
10
5.1693
20
-3.86201
11
5.1674
21
-3.8627
0
LINE
8
BLACK
6
CONTINUOUS
10
5.1674
20
-3.8627
11
5.1074
21
-3.8627
0
LINE
8
BLACK
6
CONTINUOUS
10
5.1074
20
-3.8627
11
5.10639
21
-3.86252
0
LINE
8
BLACK
6
CONTINUOUS
10
5.10639
20
-3.86252
11
5.10484
21
-3.86122
0
LINE
8
BLACK
6
CONTINUOUS
10
5.10484
20
-3.86122
11
5.10449
21
-3.85923
0
LINE
8
BLACK
6
CONTINUOUS
10
5.10449
20
-3.85923
11
5.1055
21
-3.85748
0
LINE
8
BLACK
6
CONTINUOUS
10
5.1055
20
-3.85748
11
5.1074
21
-3.85679
0
LINE
8
BLACK
6
CONTINUOUS
10
5.1074
20
-3.85679
11
5.1674
21
-3.85679
0
LINE
8
BLACK
6
CONTINUOUS
10
5.1674
20
-3.85679
11
5.16841
21
-3.85697
0
LINE
8
BLACK
6
CONTINUOUS
10
5.26841
20
-3.85697
11
5.26996
21
-3.85827
0
LINE
8
BLACK
6
CONTINUOUS
10
5.26996
20
-3.85827
11
5.27031
21
-3.86026
0
LINE
8
BLACK
6
CONTINUOUS
10
5.27031
20
-3.86026
11
5.2693
21
-3.86201
0
LINE
8
BLACK
6
CONTINUOUS
10
5.2693
20
-3.86201
11
5.2674
21
-3.8627
0
LINE
8
BLACK
6
CONTINUOUS
10
5.2674
20
-3.8627
11
5.2074
21
-3.8627
0
LINE
8
BLACK
6
CONTINUOUS
10
5.2074
20
-3.8627
11
5.20639
21
-3.86252
0
LINE
8
BLACK
6
CONTINUOUS
10
5.20639
20
-3.86252
11
5.20484
21
-3.86122
0
LINE
8
BLACK
6
CONTINUOUS
10
5.20484
20
-3.86122
11
5.20449
21
-3.85923
0
LINE
8
BLACK
6
CONTINUOUS
10
5.20449
20
-3.85923
11
5.2055
21
-3.85748
0
LINE
8
BLACK
6
CONTINUOUS
10
5.2055
20
-3.85748
11
5.2074
21
-3.85679
0
LINE
8
BLACK
6
CONTINUOUS
10
5.2074
20
-3.85679
11
5.2674
21
-3.85679
0
LINE
8
BLACK
6
CONTINUOUS
10
5.2674
20
-3.85679
11
5.26841
21
-3.85697
0
LINE
8
BLACK
6
CONTINUOUS
10
5.98454
20
-3.8225
11
5.98524
21
-3.82417
0
LINE
8
BLACK
6
CONTINUOUS
10
5.98524
20
-3.82417
11
5.98454
21
-3.82584
0
LINE
8
BLACK
6
CONTINUOUS
10
5.98454
20
-3.82584
11
5.98287
21
-3.82654
0
LINE
8
BLACK
6
CONTINUOUS
10
5.98287
20
-3.82654
11
5.95669
21
-3.82654
0
LINE
8
BLACK
6
CONTINUOUS
10
5.95669
20
-3.82654
11
5.95669
21
-3.85272
0
LINE
8
BLACK
6
CONTINUOUS
10
5.95669
20
-3.85272
11
5.956
21
-3.85439
0
LINE
8
BLACK
6
CONTINUOUS
10
5.956
20
-3.85439
11
5.95433
21
-3.85508
0
LINE
8
BLACK
6
CONTINUOUS
10
5.95433
20
-3.85508
11
5.95266
21
-3.85439
0
LINE
8
BLACK
6
CONTINUOUS
10
5.95266
20
-3.85439
11
5.95197
21
-3.85272
0
LINE
8
BLACK
6
CONTINUOUS
10
5.95197
20
-3.85272
11
5.95197
21
-3.82417
0
LINE
8
BLACK
6
CONTINUOUS
10
5.95197
20
-3.82417
11
5.95266
21
-3.8225
0
LINE
8
BLACK
6
CONTINUOUS
10
5.95266
20
-3.8225
11
5.95433
21
-3.82181
0
LINE
8
BLACK
6
CONTINUOUS
10
5.95433
20
-3.82181
11
5.98287
21
-3.82181
0
LINE
8
BLACK
6
CONTINUOUS
10
5.98287
20
-3.82181
11
5.98454
21
-3.8225
0
LINE
8
BLACK
6
CONTINUOUS
10
6.12214
20
-3.8225
11
6.12283
21
-3.82417
0
LINE
8
BLACK
6
CONTINUOUS
10
6.12283
20
-3.82417
11
6.12283
21
-3.85272
0
LINE
8
BLACK
6
CONTINUOUS
10
6.12283
20
-3.85272
11
6.12214
21
-3.85439
0
LINE
8
BLACK
6
CONTINUOUS
10
6.12214
20
-3.85439
11
6.12047
21
-3.85508
0
LINE
8
BLACK
6
CONTINUOUS
10
6.12047
20
-3.85508
11
6.1188
21
-3.85439
0
LINE
8
BLACK
6
CONTINUOUS
10
6.1188
20
-3.85439
11
6.11811
21
-3.85272
0
LINE
8
BLACK
6
CONTINUOUS
10
6.11811
20
-3.85272
11
6.11811
21
-3.82654
0
LINE
8
BLACK
6
CONTINUOUS
10
6.11811
20
-3.82654
11
6.09193
21
-3.82654
0
LINE
8
BLACK
6
CONTINUOUS
10
6.09193
20
-3.82654
11
6.09026
21
-3.82584
0
LINE
8
BLACK
6
CONTINUOUS
10
6.09026
20
-3.82584
11
6.08957
21
-3.82417
0
LINE
8
BLACK
6
CONTINUOUS
10
6.08957
20
-3.82417
11
6.09026
21
-3.8225
0
LINE
8
BLACK
6
CONTINUOUS
10
6.09026
20
-3.8225
11
6.09193
21
-3.82181
0
LINE
8
BLACK
6
CONTINUOUS
10
6.09193
20
-3.82181
11
6.12047
21
-3.82181
0
LINE
8
BLACK
6
CONTINUOUS
10
6.12047
20
-3.82181
11
6.12214
21
-3.8225
0
LINE
8
BLACK
6
CONTINUOUS
10
5.68445
20
-3.84533
11
5.68376
21
-3.84366
0
LINE
8
BLACK
6
CONTINUOUS
10
5.68376
20
-3.84366
11
5.68445
21
-3.84199
0
LINE
8
BLACK
6
CONTINUOUS
10
5.68445
20
-3.84199
11
5.68612
21
-3.8413
0
LINE
8
BLACK
6
CONTINUOUS
10
5.68612
20
-3.8413
11
5.74911
21
-3.8413
0
LINE
8
BLACK
6
CONTINUOUS
10
5.74911
20
-3.8413
11
5.75078
21
-3.84199
0
LINE
8
BLACK
6
CONTINUOUS
10
5.75078
20
-3.84199
11
5.75148
21
-3.84366
0
LINE
8
BLACK
6
CONTINUOUS
10
5.75148
20
-3.84366
11
5.75078
21
-3.84533
0
LINE
8
BLACK
6
CONTINUOUS
10
5.75078
20
-3.84533
11
5.74911
21
-3.84602
0
LINE
8
BLACK
6
CONTINUOUS
10
5.74911
20
-3.84602
11
5.68612
21
-3.84602
0
LINE
8
BLACK
6
CONTINUOUS
10
5.68612
20
-3.84602
11
5.68445
21
-3.84533
0
LINE
8
BLACK
6
CONTINUOUS
10
5.45664
20
-3.83447
11
5.45819
21
-3.83577
0
LINE
8
BLACK
6
CONTINUOUS
10
5.45819
20
-3.83577
11
5.45854
21
-3.83776
0
LINE
8
BLACK
6
CONTINUOUS
10
5.45854
20
-3.83776
11
5.45753
21
-3.83951
0
LINE
8
BLACK
6
CONTINUOUS
10
5.45753
20
-3.83951
11
5.45563
21
-3.8402
0
LINE
8
BLACK
6
CONTINUOUS
10
5.45563
20
-3.8402
11
5.36563
21
-3.8402
0
LINE
8
BLACK
6
CONTINUOUS
10
5.36563
20
-3.8402
11
5.36462
21
-3.84002
0
LINE
8
BLACK
6
CONTINUOUS
10
5.36462
20
-3.84002
11
5.36307
21
-3.83872
0
LINE
8
BLACK
6
CONTINUOUS
10
5.36307
20
-3.83872
11
5.36272
21
-3.83673
0
LINE
8
BLACK
6
CONTINUOUS
10
5.36272
20
-3.83673
11
5.36373
21
-3.83498
0
LINE
8
BLACK
6
CONTINUOUS
10
5.36373
20
-3.83498
11
5.36563
21
-3.83429
0
LINE
8
BLACK
6
CONTINUOUS
10
5.36563
20
-3.83429
11
5.45563
21
-3.83429
0
LINE
8
BLACK
6
CONTINUOUS
10
5.45563
20
-3.83429
11
5.45664
21
-3.83447
0
LINE
8
BLACK
6
CONTINUOUS
10
5.29154
20
-3.81458
11
5.28935
21
-3.81239
0
LINE
8
BLACK
6
CONTINUOUS
10
5.28935
20
-3.81239
11
5.28854
21
-3.80939
0
LINE
8
BLACK
6
CONTINUOUS
10
5.28854
20
-3.80939
11
5.28935
21
-3.80639
0
LINE
8
BLACK
6
CONTINUOUS
10
5.28935
20
-3.80639
11
5.29154
21
-3.80419
0
LINE
8
BLACK
6
CONTINUOUS
10
5.29154
20
-3.80419
11
5.29454
21
-3.80339
0
LINE
8
BLACK
6
CONTINUOUS
10
5.29454
20
-3.80339
11
5.30569
21
-3.80339
0
LINE
8
BLACK
6
CONTINUOUS
10
5.30569
20
-3.80339
11
5.30569
21
-3.74939
0
LINE
8
BLACK
6
CONTINUOUS
10
5.30569
20
-3.74939
11
5.30604
21
-3.74807
0
LINE
8
BLACK
6
CONTINUOUS
10
5.30604
20
-3.74807
11
5.30631
21
-3.74673
0
LINE
8
BLACK
6
CONTINUOUS
10
5.30631
20
-3.74673
11
5.30644
21
-3.74658
0
LINE
8
BLACK
6
CONTINUOUS
10
5.30644
20
-3.74658
11
5.30649
21
-3.74639
0
LINE
8
BLACK
6
CONTINUOUS
10
5.30649
20
-3.74639
11
5.30746
21
-3.74542
0
LINE
8
BLACK
6
CONTINUOUS
10
5.30746
20
-3.74542
11
5.30836
21
-3.74439
0
LINE
8
BLACK
6
CONTINUOUS
10
5.30836
20
-3.74439
11
5.30855
21
-3.74433
0
LINE
8
BLACK
6
CONTINUOUS
10
5.30855
20
-3.74433
11
5.30869
21
-3.74419
0
LINE
8
BLACK
6
CONTINUOUS
10
5.30869
20
-3.74419
11
5.31001
21
-3.74384
0
LINE
8
BLACK
6
CONTINUOUS
10
5.31001
20
-3.74384
11
5.3113
21
-3.7434
0
LINE
8
BLACK
6
CONTINUOUS
10
5.3113
20
-3.7434
11
5.3115
21
-3.74344
0
LINE
8
BLACK
6
CONTINUOUS
10
5.3115
20
-3.74344
11
5.31169
21
-3.74339
0
LINE
8
BLACK
6
CONTINUOUS
10
5.31169
20
-3.74339
11
5.31301
21
-3.74374
0
LINE
8
BLACK
6
CONTINUOUS
10
5.31301
20
-3.74374
11
5.31435
21
-3.74401
0
LINE
8
BLACK
6
CONTINUOUS
10
5.31435
20
-3.74401
11
5.3145
21
-3.74414
0
LINE
8
BLACK
6
CONTINUOUS
10
5.3145
20
-3.74414
11
5.31469
21
-3.74419
0
LINE
8
BLACK
6
CONTINUOUS
10
5.31469
20
-3.74419
11
5.31565
21
-3.74516
0
LINE
8
BLACK
6
CONTINUOUS
10
5.31565
20
-3.74516
11
5.31668
21
-3.74606
0
LINE
8
BLACK
6
CONTINUOUS
10
5.31668
20
-3.74606
11
5.32206
21
-3.75414
0
LINE
8
BLACK
6
CONTINUOUS
10
5.32206
20
-3.75414
11
5.32667
21
-3.75874
0
LINE
8
BLACK
6
CONTINUOUS
10
5.32667
20
-3.75874
11
5.33151
21
-3.76116
0
LINE
8
BLACK
6
CONTINUOUS
10
5.33151
20
-3.76116
11
5.33384
21
-3.76322
0
LINE
8
BLACK
6
CONTINUOUS
10
5.33384
20
-3.76322
11
5.33482
21
-3.76617
0
LINE
8
BLACK
6
CONTINUOUS
10
5.33482
20
-3.76617
11
5.3342
21
-3.76921
0
LINE
8
BLACK
6
CONTINUOUS
10
5.3342
20
-3.76921
11
5.33214
21
-3.77154
0
LINE
8
BLACK
6
CONTINUOUS
10
5.33214
20
-3.77154
11
5.32919
21
-3.77252
0
LINE
8
BLACK
6
CONTINUOUS
10
5.32919
20
-3.77252
11
5.32615
21
-3.7719
0
LINE
8
BLACK
6
CONTINUOUS
10
5.32615
20
-3.7719
11
5.32043
21
-3.76904
0
LINE
8
BLACK
6
CONTINUOUS
10
5.32043
20
-3.76904
11
5.31971
21
-3.7684
0
LINE
8
BLACK
6
CONTINUOUS
10
5.31971
20
-3.7684
11
5.31887
21
-3.76792
0
LINE
8
BLACK
6
CONTINUOUS
10
5.31887
20
-3.76792
11
5.31769
21
-3.76673
0
LINE
8
BLACK
6
CONTINUOUS
10
5.31769
20
-3.76673
11
5.31769
21
-3.80339
0
LINE
8
BLACK
6
CONTINUOUS
10
5.31769
20
-3.80339
11
5.32883
21
-3.80339
0
LINE
8
BLACK
6
CONTINUOUS
10
5.32883
20
-3.80339
11
5.33183
21
-3.80419
0
LINE
8
BLACK
6
CONTINUOUS
10
5.33183
20
-3.80419
11
5.33403
21
-3.80639
0
LINE
8
BLACK
6
CONTINUOUS
10
5.33403
20
-3.80639
11
5.33483
21
-3.80939
0
LINE
8
BLACK
6
CONTINUOUS
10
5.33483
20
-3.80939
11
5.33403
21
-3.81239
0
LINE
8
BLACK
6
CONTINUOUS
10
5.33403
20
-3.81239
11
5.33183
21
-3.81458
0
LINE
8
BLACK
6
CONTINUOUS
10
5.33183
20
-3.81458
11
5.32883
21
-3.81539
0
LINE
8
BLACK
6
CONTINUOUS
10
5.32883
20
-3.81539
11
5.29454
21
-3.81539
0
LINE
8
BLACK
6
CONTINUOUS
10
5.29454
20
-3.81539
11
5.29154
21
-3.81458
0
LINE
8
BLACK
6
CONTINUOUS
10
5.3804
20
-3.74419
11
5.3826
21
-3.74639
0
LINE
8
BLACK
6
CONTINUOUS
10
5.3826
20
-3.74639
11
5.3834
21
-3.74939
0
LINE
8
BLACK
6
CONTINUOUS
10
5.3834
20
-3.74939
11
5.3834
21
-3.80939
0
LINE
8
BLACK
6
CONTINUOUS
10
5.3834
20
-3.80939
11
5.3826
21
-3.81239
0
LINE
8
BLACK
6
CONTINUOUS
10
5.3826
20
-3.81239
11
5.3804
21
-3.81458
0
LINE
8
BLACK
6
CONTINUOUS
10
5.3804
20
-3.81458
11
5.3774
21
-3.81539
0
LINE
8
BLACK
6
CONTINUOUS
10
5.3774
20
-3.81539
11
5.3744
21
-3.81458
0
LINE
8
BLACK
6
CONTINUOUS
10
5.3744
20
-3.81458
11
5.37221
21
-3.81239
0
LINE
8
BLACK
6
CONTINUOUS
10
5.37221
20
-3.81239
11
5.3714
21
-3.80939
0
LINE
8
BLACK
6
CONTINUOUS
10
5.3714
20
-3.80939
11
5.3714
21
-3.78396
0
LINE
8
BLACK
6
CONTINUOUS
10
5.3714
20
-3.78396
11
5.3574
21
-3.78396
0
LINE
8
BLACK
6
CONTINUOUS
10
5.3574
20
-3.78396
11
5.3544
21
-3.78315
0
LINE
8
BLACK
6
CONTINUOUS
10
5.3544
20
-3.78315
11
5.35221
21
-3.78096
0
LINE
8
BLACK
6
CONTINUOUS
10
5.35221
20
-3.78096
11
5.3514
21
-3.77796
0
LINE
8
BLACK
6
CONTINUOUS
10
5.3514
20
-3.77796
11
5.35221
21
-3.77496
0
LINE
8
BLACK
6
CONTINUOUS
10
5.35221
20
-3.77496
11
5.3544
21
-3.77276
0
LINE
8
BLACK
6
CONTINUOUS
10
5.3544
20
-3.77276
11
5.3574
21
-3.77196
0
LINE
8
BLACK
6
CONTINUOUS
10
5.3574
20
-3.77196
11
5.3714
21
-3.77196
0
LINE
8
BLACK
6
CONTINUOUS
10
5.3714
20
-3.77196
11
5.3714
21
-3.75539
0
LINE
8
BLACK
6
CONTINUOUS
10
5.3714
20
-3.75539
11
5.34883
21
-3.75539
0
LINE
8
BLACK
6
CONTINUOUS
10
5.34883
20
-3.75539
11
5.34583
21
-3.75458
0
LINE
8
BLACK
6
CONTINUOUS
10
5.34583
20
-3.75458
11
5.34363
21
-3.75239
0
LINE
8
BLACK
6
CONTINUOUS
10
5.34363
20
-3.75239
11
5.34283
21
-3.74939
0
LINE
8
BLACK
6
CONTINUOUS
10
5.34283
20
-3.74939
11
5.34363
21
-3.74639
0
LINE
8
BLACK
6
CONTINUOUS
10
5.34363
20
-3.74639
11
5.34583
21
-3.74419
0
LINE
8
BLACK
6
CONTINUOUS
10
5.34583
20
-3.74419
11
5.34883
21
-3.74339
0
LINE
8
BLACK
6
CONTINUOUS
10
5.34883
20
-3.74339
11
5.3774
21
-3.74339
0
LINE
8
BLACK
6
CONTINUOUS
10
5.3774
20
-3.74339
11
5.3804
21
-3.74419
0
LINE
8
BLACK
6
CONTINUOUS
10
5.14216
20
-3.75035
11
5.14285
21
-3.75224
0
LINE
8
BLACK
6
CONTINUOUS
10
5.14285
20
-3.75224
11
5.14285
21
-3.81224
0
LINE
8
BLACK
6
CONTINUOUS
10
5.14285
20
-3.81224
11
5.14268
21
-3.81325
0
LINE
8
BLACK
6
CONTINUOUS
10
5.14268
20
-3.81325
11
5.14138
21
-3.8148
0
LINE
8
BLACK
6
CONTINUOUS
10
5.14138
20
-3.8148
11
5.13939
21
-3.81515
0
LINE
8
BLACK
6
CONTINUOUS
10
5.13939
20
-3.81515
11
5.13764
21
-3.81414
0
LINE
8
BLACK
6
CONTINUOUS
10
5.13764
20
-3.81414
11
5.13695
21
-3.81224
0
LINE
8
BLACK
6
CONTINUOUS
10
5.13695
20
-3.81224
11
5.13695
21
-3.75224
0
LINE
8
BLACK
6
CONTINUOUS
10
5.13695
20
-3.75224
11
5.13713
21
-3.75123
0
LINE
8
BLACK
6
CONTINUOUS
10
5.13713
20
-3.75123
11
5.13843
21
-3.74969
0
LINE
8
BLACK
6
CONTINUOUS
10
5.13843
20
-3.74969
11
5.14041
21
-3.74934
0
LINE
8
BLACK
6
CONTINUOUS
10
5.14041
20
-3.74934
11
5.14216
21
-3.75035
0
LINE
8
BLACK
6
CONTINUOUS
10
5.26216
20
-3.75035
11
5.26285
21
-3.75224
0
LINE
8
BLACK
6
CONTINUOUS
10
5.26285
20
-3.75224
11
5.26285
21
-3.81224
0
LINE
8
BLACK
6
CONTINUOUS
10
5.26285
20
-3.81224
11
5.26268
21
-3.81325
0
LINE
8
BLACK
6
CONTINUOUS
10
5.26268
20
-3.81325
11
5.26138
21
-3.8148
0
LINE
8
BLACK
6
CONTINUOUS
10
5.26138
20
-3.8148
11
5.25939
21
-3.81515
0
LINE
8
BLACK
6
CONTINUOUS
10
5.25939
20
-3.81515
11
5.25764
21
-3.81414
0
LINE
8
BLACK
6
CONTINUOUS
10
5.25764
20
-3.81414
11
5.25695
21
-3.81224
0
LINE
8
BLACK
6
CONTINUOUS
10
5.25695
20
-3.81224
11
5.25695
21
-3.75224
0
LINE
8
BLACK
6
CONTINUOUS
10
5.25695
20
-3.75224
11
5.25713
21
-3.75123
0
LINE
8
BLACK
6
CONTINUOUS
10
5.25713
20
-3.75123
11
5.25843
21
-3.74969
0
LINE
8
BLACK
6
CONTINUOUS
10
5.25843
20
-3.74969
11
5.26041
21
-3.74934
0
LINE
8
BLACK
6
CONTINUOUS
10
5.26041
20
-3.74934
11
5.26216
21
-3.75035
0
LINE
8
BLACK
6
CONTINUOUS
10
5.21657
20
-3.81057
11
5.21726
21
-3.81224
0
LINE
8
BLACK
6
CONTINUOUS
10
5.21726
20
-3.81224
11
5.21657
21
-3.81391
0
LINE
8
BLACK
6
CONTINUOUS
10
5.21657
20
-3.81391
11
5.2149
21
-3.81461
0
LINE
8
BLACK
6
CONTINUOUS
10
5.2149
20
-3.81461
11
5.1849
21
-3.81461
0
LINE
8
BLACK
6
CONTINUOUS
10
5.1849
20
-3.81461
11
5.18323
21
-3.81391
0
LINE
8
BLACK
6
CONTINUOUS
10
5.18323
20
-3.81391
11
5.18254
21
-3.81224
0
LINE
8
BLACK
6
CONTINUOUS
10
5.18254
20
-3.81224
11
5.18323
21
-3.81057
0
LINE
8
BLACK
6
CONTINUOUS
10
5.18323
20
-3.81057
11
5.1849
21
-3.80988
0
LINE
8
BLACK
6
CONTINUOUS
10
5.1849
20
-3.80988
11
5.2149
21
-3.80988
0
LINE
8
BLACK
6
CONTINUOUS
10
5.2149
20
-3.80988
11
5.21657
21
-3.81057
0
LINE
8
BLACK
6
CONTINUOUS
10
5.92341
20
-3.80197
11
5.92496
21
-3.80327
0
LINE
8
BLACK
6
CONTINUOUS
10
5.92496
20
-3.80327
11
5.92531
21
-3.80526
0
LINE
8
BLACK
6
CONTINUOUS
10
5.92531
20
-3.80526
11
5.9243
21
-3.80701
0
LINE
8
BLACK
6
CONTINUOUS
10
5.9243
20
-3.80701
11
5.9224
21
-3.8077
0
LINE
8
BLACK
6
CONTINUOUS
10
5.9224
20
-3.8077
11
5.8624
21
-3.8077
0
LINE
8
BLACK
6
CONTINUOUS
10
5.8624
20
-3.8077
11
5.86139
21
-3.80752
0
LINE
8
BLACK
6
CONTINUOUS
10
5.86139
20
-3.80752
11
5.85984
21
-3.80622
0
LINE
8
BLACK
6
CONTINUOUS
10
5.85984
20
-3.80622
11
5.85949
21
-3.80423
0
LINE
8
BLACK
6
CONTINUOUS
10
5.85949
20
-3.80423
11
5.8605
21
-3.80248
0
LINE
8
BLACK
6
CONTINUOUS
10
5.8605
20
-3.80248
11
5.8624
21
-3.80179
0
LINE
8
BLACK
6
CONTINUOUS
10
5.8624
20
-3.80179
11
5.9224
21
-3.80179
0
LINE
8
BLACK
6
CONTINUOUS
10
5.9224
20
-3.80179
11
5.92341
21
-3.80197
0
LINE
8
BLACK
6
CONTINUOUS
10
5.92407
20
-3.72807
11
5.92476
21
-3.72974
0
LINE
8
BLACK
6
CONTINUOUS
10
5.92476
20
-3.72974
11
5.92476
21
-3.75974
0
LINE
8
BLACK
6
CONTINUOUS
10
5.92476
20
-3.75974
11
5.92407
21
-3.76141
0
LINE
8
BLACK
6
CONTINUOUS
10
5.92407
20
-3.76141
11
5.9224
21
-3.76211
0
LINE
8
BLACK
6
CONTINUOUS
10
5.9224
20
-3.76211
11
5.92073
21
-3.76141
0
LINE
8
BLACK
6
CONTINUOUS
10
5.92073
20
-3.76141
11
5.92004
21
-3.75974
0
LINE
8
BLACK
6
CONTINUOUS
10
5.92004
20
-3.75974
11
5.92004
21
-3.72974
0
LINE
8
BLACK
6
CONTINUOUS
10
5.92004
20
-3.72974
11
5.92073
21
-3.72807
0
LINE
8
BLACK
6
CONTINUOUS
10
5.92073
20
-3.72807
11
5.9224
21
-3.72738
0
LINE
8
BLACK
6
CONTINUOUS
10
5.9224
20
-3.72738
11
5.92407
21
-3.72807
0
LINE
8
BLACK
6
CONTINUOUS
10
5.86407
20
-3.72807
11
5.86476
21
-3.72974
0
LINE
8
BLACK
6
CONTINUOUS
10
5.86476
20
-3.72974
11
5.86476
21
-3.75974
0
LINE
8
BLACK
6
CONTINUOUS
10
5.86476
20
-3.75974
11
5.86407
21
-3.76141
0
LINE
8
BLACK
6
CONTINUOUS
10
5.86407
20
-3.76141
11
5.8624
21
-3.76211
0
LINE
8
BLACK
6
CONTINUOUS
10
5.8624
20
-3.76211
11
5.86073
21
-3.76141
0
LINE
8
BLACK
6
CONTINUOUS
10
5.86073
20
-3.76141
11
5.86004
21
-3.75974
0
LINE
8
BLACK
6
CONTINUOUS
10
5.86004
20
-3.75974
11
5.86004
21
-3.72974
0
LINE
8
BLACK
6
CONTINUOUS
10
5.86004
20
-3.72974
11
5.86073
21
-3.72807
0
LINE
8
BLACK
6
CONTINUOUS
10
5.86073
20
-3.72807
11
5.8624
21
-3.72738
0
LINE
8
BLACK
6
CONTINUOUS
10
5.8624
20
-3.72738
11
5.86407
21
-3.72807
0
LINE
8
BLACK
6
CONTINUOUS
10
5.21657
20
-3.75057
11
5.21726
21
-3.75224
0
LINE
8
BLACK
6
CONTINUOUS
10
5.21726
20
-3.75224
11
5.21657
21
-3.75391
0
LINE
8
BLACK
6
CONTINUOUS
10
5.21657
20
-3.75391
11
5.2149
21
-3.75461
0
LINE
8
BLACK
6
CONTINUOUS
10
5.2149
20
-3.75461
11
5.1849
21
-3.75461
0
LINE
8
BLACK
6
CONTINUOUS
10
5.1849
20
-3.75461
11
5.18323
21
-3.75391
0
LINE
8
BLACK
6
CONTINUOUS
10
5.18323
20
-3.75391
11
5.18254
21
-3.75224
0
LINE
8
BLACK
6
CONTINUOUS
10
5.18254
20
-3.75224
11
5.18323
21
-3.75057
0
LINE
8
BLACK
6
CONTINUOUS
10
5.18323
20
-3.75057
11
5.1849
21
-3.74988
0
LINE
8
BLACK
6
CONTINUOUS
10
5.1849
20
-3.74988
11
5.2149
21
-3.74988
0
LINE
8
BLACK
6
CONTINUOUS
10
5.2149
20
-3.74988
11
5.21657
21
-3.75057
0
LINE
8
BLACK
6
CONTINUOUS
10
6.20716
20
-3.68035
11
6.20785
21
-3.68224
0
LINE
8
BLACK
6
CONTINUOUS
10
6.20785
20
-3.68224
11
6.20785
21
-3.74224
0
LINE
8
BLACK
6
CONTINUOUS
10
6.20785
20
-3.74224
11
6.20768
21
-3.74325
0
LINE
8
BLACK
6
CONTINUOUS
10
6.20768
20
-3.74325
11
6.20638
21
-3.7448
0
LINE
8
BLACK
6
CONTINUOUS
10
6.20638
20
-3.7448
11
6.20439
21
-3.74515
0
LINE
8
BLACK
6
CONTINUOUS
10
6.20439
20
-3.74515
11
6.20264
21
-3.74414
0
LINE
8
BLACK
6
CONTINUOUS
10
6.20264
20
-3.74414
11
6.20195
21
-3.74224
0
LINE
8
BLACK
6
CONTINUOUS
10
6.20195
20
-3.74224
11
6.20195
21
-3.68224
0
LINE
8
BLACK
6
CONTINUOUS
10
6.20195
20
-3.68224
11
6.20213
21
-3.68123
0
LINE
8
BLACK
6
CONTINUOUS
10
6.20213
20
-3.68123
11
6.20343
21
-3.67969
0
LINE
8
BLACK
6
CONTINUOUS
10
6.20343
20
-3.67969
11
6.20541
21
-3.67934
0
LINE
8
BLACK
6
CONTINUOUS
10
6.20541
20
-3.67934
11
6.20716
21
-3.68035
0
LINE
8
BLACK
6
CONTINUOUS
10
6.08716
20
-3.68035
11
6.08785
21
-3.68224
0
LINE
8
BLACK
6
CONTINUOUS
10
6.08785
20
-3.68224
11
6.08785
21
-3.74224
0
LINE
8
BLACK
6
CONTINUOUS
10
6.08785
20
-3.74224
11
6.08768
21
-3.74325
0
LINE
8
BLACK
6
CONTINUOUS
10
6.08768
20
-3.74325
11
6.08638
21
-3.7448
0
LINE
8
BLACK
6
CONTINUOUS
10
6.08638
20
-3.7448
11
6.08439
21
-3.74515
0
LINE
8
BLACK
6
CONTINUOUS
10
6.08439
20
-3.74515
11
6.08264
21
-3.74414
0
LINE
8
BLACK
6
CONTINUOUS
10
6.08264
20
-3.74414
11
6.08195
21
-3.74224
0
LINE
8
BLACK
6
CONTINUOUS
10
6.08195
20
-3.74224
11
6.08195
21
-3.68224
0
LINE
8
BLACK
6
CONTINUOUS
10
6.08195
20
-3.68224
11
6.08213
21
-3.68123
0
LINE
8
BLACK
6
CONTINUOUS
10
6.08213
20
-3.68123
11
6.08343
21
-3.67969
0
LINE
8
BLACK
6
CONTINUOUS
10
6.08343
20
-3.67969
11
6.08541
21
-3.67934
0
LINE
8
BLACK
6
CONTINUOUS
10
6.08541
20
-3.67934
11
6.08716
21
-3.68035
0
LINE
8
BLACK
6
CONTINUOUS
10
5.94716
20
-3.68035
11
5.94785
21
-3.68224
0
LINE
8
BLACK
6
CONTINUOUS
10
5.94785
20
-3.68224
11
5.94785
21
-3.74224
0
LINE
8
BLACK
6
CONTINUOUS
10
5.94785
20
-3.74224
11
5.94768
21
-3.74325
0
LINE
8
BLACK
6
CONTINUOUS
10
5.94768
20
-3.74325
11
5.94638
21
-3.7448
0
LINE
8
BLACK
6
CONTINUOUS
10
5.94638
20
-3.7448
11
5.94439
21
-3.74515
0
LINE
8
BLACK
6
CONTINUOUS
10
5.94439
20
-3.74515
11
5.94264
21
-3.74414
0
LINE
8
BLACK
6
CONTINUOUS
10
5.94264
20
-3.74414
11
5.94195
21
-3.74224
0
LINE
8
BLACK
6
CONTINUOUS
10
5.94195
20
-3.74224
11
5.94195
21
-3.68224
0
LINE
8
BLACK
6
CONTINUOUS
10
5.94195
20
-3.68224
11
5.94213
21
-3.68123
0
LINE
8
BLACK
6
CONTINUOUS
10
5.94213
20
-3.68123
11
5.94343
21
-3.67969
0
LINE
8
BLACK
6
CONTINUOUS
10
5.94343
20
-3.67969
11
5.94541
21
-3.67934
0
LINE
8
BLACK
6
CONTINUOUS
10
5.94541
20
-3.67934
11
5.94716
21
-3.68035
0
LINE
8
BLACK
6
CONTINUOUS
10
6.06716
20
-3.68035
11
6.06785
21
-3.68224
0
LINE
8
BLACK
6
CONTINUOUS
10
6.06785
20
-3.68224
11
6.06785
21
-3.74224
0
LINE
8
BLACK
6
CONTINUOUS
10
6.06785
20
-3.74224
11
6.06768
21
-3.74325
0
LINE
8
BLACK
6
CONTINUOUS
10
6.06768
20
-3.74325
11
6.06638
21
-3.7448
0
LINE
8
BLACK
6
CONTINUOUS
10
6.06638
20
-3.7448
11
6.06439
21
-3.74515
0
LINE
8
BLACK
6
CONTINUOUS
10
6.06439
20
-3.74515
11
6.06264
21
-3.74414
0
LINE
8
BLACK
6
CONTINUOUS
10
6.06264
20
-3.74414
11
6.06195
21
-3.74224
0
LINE
8
BLACK
6
CONTINUOUS
10
6.06195
20
-3.74224
11
6.06195
21
-3.68224
0
LINE
8
BLACK
6
CONTINUOUS
10
6.06195
20
-3.68224
11
6.06213
21
-3.68123
0
LINE
8
BLACK
6
CONTINUOUS
10
6.06213
20
-3.68123
11
6.06343
21
-3.67969
0
LINE
8
BLACK
6
CONTINUOUS
10
6.06343
20
-3.67969
11
6.06541
21
-3.67934
0
LINE
8
BLACK
6
CONTINUOUS
10
6.06541
20
-3.67934
11
6.06716
21
-3.68035
0
LINE
8
BLACK
6
CONTINUOUS
10
6.22716
20
-3.68035
11
6.22785
21
-3.68224
0
LINE
8
BLACK
6
CONTINUOUS
10
6.22785
20
-3.68224
11
6.22785
21
-3.74224
0
LINE
8
BLACK
6
CONTINUOUS
10
6.22785
20
-3.74224
11
6.22768
21
-3.74325
0
LINE
8
BLACK
6
CONTINUOUS
10
6.22768
20
-3.74325
11
6.22638
21
-3.7448
0
LINE
8
BLACK
6
CONTINUOUS
10
6.22638
20
-3.7448
11
6.22439
21
-3.74515
0
LINE
8
BLACK
6
CONTINUOUS
10
6.22439
20
-3.74515
11
6.22264
21
-3.74414
0
LINE
8
BLACK
6
CONTINUOUS
10
6.22264
20
-3.74414
11
6.22195
21
-3.74224
0
LINE
8
BLACK
6
CONTINUOUS
10
6.22195
20
-3.74224
11
6.22195
21
-3.68224
0
LINE
8
BLACK
6
CONTINUOUS
10
6.22195
20
-3.68224
11
6.22213
21
-3.68123
0
LINE
8
BLACK
6
CONTINUOUS
10
6.22213
20
-3.68123
11
6.22343
21
-3.67969
0
LINE
8
BLACK
6
CONTINUOUS
10
6.22343
20
-3.67969
11
6.22541
21
-3.67934
0
LINE
8
BLACK
6
CONTINUOUS
10
6.22541
20
-3.67934
11
6.22716
21
-3.68035
0
LINE
8
BLACK
6
CONTINUOUS
10
6.34716
20
-3.68035
11
6.34785
21
-3.68224
0
LINE
8
BLACK
6
CONTINUOUS
10
6.34785
20
-3.68224
11
6.34785
21
-3.74224
0
LINE
8
BLACK
6
CONTINUOUS
10
6.34785
20
-3.74224
11
6.34768
21
-3.74325
0
LINE
8
BLACK
6
CONTINUOUS
10
6.34768
20
-3.74325
11
6.34638
21
-3.7448
0
LINE
8
BLACK
6
CONTINUOUS
10
6.34638
20
-3.7448
11
6.34439
21
-3.74515
0
LINE
8
BLACK
6
CONTINUOUS
10
6.34439
20
-3.74515
11
6.34264
21
-3.74414
0
LINE
8
BLACK
6
CONTINUOUS
10
6.34264
20
-3.74414
11
6.34195
21
-3.74224
0
LINE
8
BLACK
6
CONTINUOUS
10
6.34195
20
-3.74224
11
6.34195
21
-3.68224
0
LINE
8
BLACK
6
CONTINUOUS
10
6.34195
20
-3.68224
11
6.34213
21
-3.68123
0
LINE
8
BLACK
6
CONTINUOUS
10
6.34213
20
-3.68123
11
6.34343
21
-3.67969
0
LINE
8
BLACK
6
CONTINUOUS
10
6.34343
20
-3.67969
11
6.34541
21
-3.67934
0
LINE
8
BLACK
6
CONTINUOUS
10
6.34541
20
-3.67934
11
6.34716
21
-3.68035
0
LINE
8
BLACK
6
CONTINUOUS
10
6.16157
20
-3.74057
11
6.16226
21
-3.74224
0
LINE
8
BLACK
6
CONTINUOUS
10
6.16226
20
-3.74224
11
6.16157
21
-3.74391
0
LINE
8
BLACK
6
CONTINUOUS
10
6.16157
20
-3.74391
11
6.1599
21
-3.74461
0
LINE
8
BLACK
6
CONTINUOUS
10
6.1599
20
-3.74461
11
6.1299
21
-3.74461
0
LINE
8
BLACK
6
CONTINUOUS
10
6.1299
20
-3.74461
11
6.12823
21
-3.74391
0
LINE
8
BLACK
6
CONTINUOUS
10
6.12823
20
-3.74391
11
6.12754
21
-3.74224
0
LINE
8
BLACK
6
CONTINUOUS
10
6.12754
20
-3.74224
11
6.12823
21
-3.74057
0
LINE
8
BLACK
6
CONTINUOUS
10
6.12823
20
-3.74057
11
6.1299
21
-3.73988
0
LINE
8
BLACK
6
CONTINUOUS
10
6.1299
20
-3.73988
11
6.1599
21
-3.73988
0
LINE
8
BLACK
6
CONTINUOUS
10
6.1599
20
-3.73988
11
6.16157
21
-3.74057
0
LINE
8
BLACK
6
CONTINUOUS
10
6.30157
20
-3.74057
11
6.30226
21
-3.74224
0
LINE
8
BLACK
6
CONTINUOUS
10
6.30226
20
-3.74224
11
6.30157
21
-3.74391
0
LINE
8
BLACK
6
CONTINUOUS
10
6.30157
20
-3.74391
11
6.2999
21
-3.74461
0
LINE
8
BLACK
6
CONTINUOUS
10
6.2999
20
-3.74461
11
6.2699
21
-3.74461
0
LINE
8
BLACK
6
CONTINUOUS
10
6.2699
20
-3.74461
11
6.26823
21
-3.74391
0
LINE
8
BLACK
6
CONTINUOUS
10
6.26823
20
-3.74391
11
6.26754
21
-3.74224
0
LINE
8
BLACK
6
CONTINUOUS
10
6.26754
20
-3.74224
11
6.26823
21
-3.74057
0
LINE
8
BLACK
6
CONTINUOUS
10
6.26823
20
-3.74057
11
6.2699
21
-3.73988
0
LINE
8
BLACK
6
CONTINUOUS
10
6.2699
20
-3.73988
11
6.2999
21
-3.73988
0
LINE
8
BLACK
6
CONTINUOUS
10
6.2999
20
-3.73988
11
6.30157
21
-3.74057
0
LINE
8
BLACK
6
CONTINUOUS
10
6.02157
20
-3.74057
11
6.02226
21
-3.74224
0
LINE
8
BLACK
6
CONTINUOUS
10
6.02226
20
-3.74224
11
6.02157
21
-3.74391
0
LINE
8
BLACK
6
CONTINUOUS
10
6.02157
20
-3.74391
11
6.0199
21
-3.74461
0
LINE
8
BLACK
6
CONTINUOUS
10
6.0199
20
-3.74461
11
5.9899
21
-3.74461
0
LINE
8
BLACK
6
CONTINUOUS
10
5.9899
20
-3.74461
11
5.98823
21
-3.74391
0
LINE
8
BLACK
6
CONTINUOUS
10
5.98823
20
-3.74391
11
5.98754
21
-3.74224
0
LINE
8
BLACK
6
CONTINUOUS
10
5.98754
20
-3.74224
11
5.98823
21
-3.74057
0
LINE
8
BLACK
6
CONTINUOUS
10
5.98823
20
-3.74057
11
5.9899
21
-3.73988
0
LINE
8
BLACK
6
CONTINUOUS
10
5.9899
20
-3.73988
11
6.0199
21
-3.73988
0
LINE
8
BLACK
6
CONTINUOUS
10
6.0199
20
-3.73988
11
6.02157
21
-3.74057
0
LINE
8
BLACK
6
CONTINUOUS
10
5.68445
20
-3.7225
11
5.68376
21
-3.72083
0
LINE
8
BLACK
6
CONTINUOUS
10
5.68376
20
-3.72083
11
5.68445
21
-3.71916
0
LINE
8
BLACK
6
CONTINUOUS
10
5.68445
20
-3.71916
11
5.68612
21
-3.71846
0
LINE
8
BLACK
6
CONTINUOUS
10
5.68612
20
-3.71846
11
5.78848
21
-3.71846
0
LINE
8
BLACK
6
CONTINUOUS
10
5.78848
20
-3.71846
11
5.79015
21
-3.71916
0
LINE
8
BLACK
6
CONTINUOUS
10
5.79015
20
-3.71916
11
5.79085
21
-3.72083
0
LINE
8
BLACK
6
CONTINUOUS
10
5.79085
20
-3.72083
11
5.79015
21
-3.7225
0
LINE
8
BLACK
6
CONTINUOUS
10
5.79015
20
-3.7225
11
5.78848
21
-3.72319
0
LINE
8
BLACK
6
CONTINUOUS
10
5.78848
20
-3.72319
11
5.68612
21
-3.72319
0
LINE
8
BLACK
6
CONTINUOUS
10
5.68612
20
-3.72319
11
5.68445
21
-3.7225
0
LINE
8
BLACK
6
CONTINUOUS
10
5.69766
20
-3.66337
11
5.69782
21
-3.66336
0
LINE
8
BLACK
6
CONTINUOUS
10
5.69782
20
-3.66336
11
5.69852
21
-3.66387
0
LINE
8
BLACK
6
CONTINUOUS
10
5.69852
20
-3.66387
11
5.69926
21
-3.6643
0
LINE
8
BLACK
6
CONTINUOUS
10
5.69926
20
-3.6643
11
5.69932
21
-3.66446
0
LINE
8
BLACK
6
CONTINUOUS
10
5.69932
20
-3.66446
11
5.69945
21
-3.66456
0
LINE
8
BLACK
6
CONTINUOUS
10
5.69945
20
-3.66456
11
5.70304
21
-3.66994
0
LINE
8
BLACK
6
CONTINUOUS
10
5.70304
20
-3.66994
11
5.70624
21
-3.67314
0
LINE
8
BLACK
6
CONTINUOUS
10
5.70624
20
-3.67314
11
5.70956
21
-3.6748
0
LINE
8
BLACK
6
CONTINUOUS
10
5.70956
20
-3.6748
11
5.71039
21
-3.67541
0
LINE
8
BLACK
6
CONTINUOUS
10
5.71039
20
-3.67541
11
5.71119
21
-3.67727
0
LINE
8
BLACK
6
CONTINUOUS
10
5.71119
20
-3.67727
11
5.71062
21
-3.6792
0
LINE
8
BLACK
6
CONTINUOUS
10
5.71062
20
-3.6792
11
5.70893
21
-3.68032
0
LINE
8
BLACK
6
CONTINUOUS
10
5.70893
20
-3.68032
11
5.70692
21
-3.68009
0
LINE
8
BLACK
6
CONTINUOUS
10
5.70692
20
-3.68009
11
5.70317
21
-3.67821
0
LINE
8
BLACK
6
CONTINUOUS
10
5.70317
20
-3.67821
11
5.70247
21
-3.67769
0
LINE
8
BLACK
6
CONTINUOUS
10
5.70247
20
-3.67769
11
5.70241
21
-3.67766
0
LINE
8
BLACK
6
CONTINUOUS
10
5.70241
20
-3.67766
11
5.69995
21
-3.6752
0
LINE
8
BLACK
6
CONTINUOUS
10
5.69995
20
-3.6752
11
5.69995
21
-3.70261
0
LINE
8
BLACK
6
CONTINUOUS
10
5.69995
20
-3.70261
11
5.70824
21
-3.70261
0
LINE
8
BLACK
6
CONTINUOUS
10
5.70824
20
-3.70261
11
5.70925
21
-3.70279
0
LINE
8
BLACK
6
CONTINUOUS
10
5.70925
20
-3.70279
11
5.7108
21
-3.70409
0
LINE
8
BLACK
6
CONTINUOUS
10
5.7108
20
-3.70409
11
5.71115
21
-3.70608
0
LINE
8
BLACK
6
CONTINUOUS
10
5.71115
20
-3.70608
11
5.71014
21
-3.70783
0
LINE
8
BLACK
6
CONTINUOUS
10
5.71014
20
-3.70783
11
5.70824
21
-3.70852
0
LINE
8
BLACK
6
CONTINUOUS
10
5.70824
20
-3.70852
11
5.68575
21
-3.70852
0
LINE
8
BLACK
6
CONTINUOUS
10
5.68575
20
-3.70852
11
5.68474
21
-3.70834
0
LINE
8
BLACK
6
CONTINUOUS
10
5.68474
20
-3.70834
11
5.68319
21
-3.70704
0
LINE
8
BLACK
6
CONTINUOUS
10
5.68319
20
-3.70704
11
5.68284
21
-3.70505
0
LINE
8
BLACK
6
CONTINUOUS
10
5.68284
20
-3.70505
11
5.68385
21
-3.7033
0
LINE
8
BLACK
6
CONTINUOUS
10
5.68385
20
-3.7033
11
5.68575
21
-3.70261
0
LINE
8
BLACK
6
CONTINUOUS
10
5.68575
20
-3.70261
11
5.69404
21
-3.70261
0
LINE
8
BLACK
6
CONTINUOUS
10
5.69404
20
-3.70261
11
5.69404
21
-3.6662
0
LINE
8
BLACK
6
CONTINUOUS
10
5.69404
20
-3.6662
11
5.69422
21
-3.66519
0
LINE
8
BLACK
6
CONTINUOUS
10
5.69422
20
-3.66519
11
5.69433
21
-3.66506
0
LINE
8
BLACK
6
CONTINUOUS
10
5.69433
20
-3.66506
11
5.69435
21
-3.66489
0
LINE
8
BLACK
6
CONTINUOUS
10
5.69435
20
-3.66489
11
5.69497
21
-3.6643
0
LINE
8
BLACK
6
CONTINUOUS
10
5.69497
20
-3.6643
11
5.69552
21
-3.66364
0
LINE
8
BLACK
6
CONTINUOUS
10
5.69552
20
-3.66364
11
5.69569
21
-3.66361
0
LINE
8
BLACK
6
CONTINUOUS
10
5.69569
20
-3.66361
11
5.69581
21
-3.66349
0
LINE
8
BLACK
6
CONTINUOUS
10
5.69581
20
-3.66349
11
5.69666
21
-3.66344
0
LINE
8
BLACK
6
CONTINUOUS
10
5.69666
20
-3.66344
11
5.69751
21
-3.66329
0
LINE
8
BLACK
6
CONTINUOUS
10
5.69751
20
-3.66329
11
5.69766
21
-3.66337
0
LINE
8
BLACK
6
CONTINUOUS
10
5.74988
20
-3.6643
11
5.75057
21
-3.6662
0
LINE
8
BLACK
6
CONTINUOUS
10
5.75057
20
-3.6662
11
5.75057
21
-3.69807
0
LINE
8
BLACK
6
CONTINUOUS
10
5.75057
20
-3.69807
11
5.75039
21
-3.69908
0
LINE
8
BLACK
6
CONTINUOUS
10
5.75039
20
-3.69908
11
5.75028
21
-3.69921
0
LINE
8
BLACK
6
CONTINUOUS
10
5.75028
20
-3.69921
11
5.75026
21
-3.69939
0
LINE
8
BLACK
6
CONTINUOUS
10
5.75026
20
-3.69939
11
5.74838
21
-3.70314
0
LINE
8
BLACK
6
CONTINUOUS
10
5.74838
20
-3.70314
11
5.74785
21
-3.70385
0
LINE
8
BLACK
6
CONTINUOUS
10
5.74785
20
-3.70385
11
5.74783
21
-3.7039
0
LINE
8
BLACK
6
CONTINUOUS
10
5.74783
20
-3.7039
11
5.74595
21
-3.70578
0
LINE
8
BLACK
6
CONTINUOUS
10
5.74595
20
-3.70578
11
5.74523
21
-3.70629
0
LINE
8
BLACK
6
CONTINUOUS
10
5.74523
20
-3.70629
11
5.74519
21
-3.70633
0
LINE
8
BLACK
6
CONTINUOUS
10
5.74519
20
-3.70633
11
5.74144
21
-3.70821
0
LINE
8
BLACK
6
CONTINUOUS
10
5.74144
20
-3.70821
11
5.74045
21
-3.7085
0
LINE
8
BLACK
6
CONTINUOUS
10
5.74045
20
-3.7085
11
5.74028
21
-3.70846
0
LINE
8
BLACK
6
CONTINUOUS
10
5.74028
20
-3.70846
11
5.74012
21
-3.70852
0
LINE
8
BLACK
6
CONTINUOUS
10
5.74012
20
-3.70852
11
5.73262
21
-3.70852
0
LINE
8
BLACK
6
CONTINUOUS
10
5.73262
20
-3.70852
11
5.73161
21
-3.70834
0
LINE
8
BLACK
6
CONTINUOUS
10
5.73161
20
-3.70834
11
5.73147
21
-3.70823
0
LINE
8
BLACK
6
CONTINUOUS
10
5.73147
20
-3.70823
11
5.7313
21
-3.70821
0
LINE
8
BLACK
6
CONTINUOUS
10
5.7313
20
-3.70821
11
5.72755
21
-3.70633
0
LINE
8
BLACK
6
CONTINUOUS
10
5.72755
20
-3.70633
11
5.72684
21
-3.70581
0
LINE
8
BLACK
6
CONTINUOUS
10
5.72684
20
-3.70581
11
5.72678
21
-3.70578
0
LINE
8
BLACK
6
CONTINUOUS
10
5.72678
20
-3.70578
11
5.7249
21
-3.7039
0
LINE
8
BLACK
6
CONTINUOUS
10
5.7249
20
-3.7039
11
5.7244
21
-3.70318
0
LINE
8
BLACK
6
CONTINUOUS
10
5.7244
20
-3.70318
11
5.72435
21
-3.70314
0
LINE
8
BLACK
6
CONTINUOUS
10
5.72435
20
-3.70314
11
5.72248
21
-3.69939
0
LINE
8
BLACK
6
CONTINUOUS
10
5.72248
20
-3.69939
11
5.72218
21
-3.6984
0
LINE
8
BLACK
6
CONTINUOUS
10
5.72218
20
-3.6984
11
5.72222
21
-3.69823
0
LINE
8
BLACK
6
CONTINUOUS
10
5.72222
20
-3.69823
11
5.72216
21
-3.69807
0
LINE
8
BLACK
6
CONTINUOUS
10
5.72216
20
-3.69807
11
5.72216
21
-3.6662
0
LINE
8
BLACK
6
CONTINUOUS
10
5.72216
20
-3.6662
11
5.72234
21
-3.66519
0
LINE
8
BLACK
6
CONTINUOUS
10
5.72234
20
-3.66519
11
5.72364
21
-3.66364
0
LINE
8
BLACK
6
CONTINUOUS
10
5.72364
20
-3.66364
11
5.72563
21
-3.66329
0
LINE
8
BLACK
6
CONTINUOUS
10
5.72563
20
-3.66329
11
5.72738
21
-3.6643
0
LINE
8
BLACK
6
CONTINUOUS
10
5.72738
20
-3.6643
11
5.72807
21
-3.6662
0
LINE
8
BLACK
6
CONTINUOUS
10
5.72807
20
-3.6662
11
5.72807
21
-3.69737
0
LINE
8
BLACK
6
CONTINUOUS
10
5.72807
20
-3.69737
11
5.72942
21
-3.70007
0
LINE
8
BLACK
6
CONTINUOUS
10
5.72942
20
-3.70007
11
5.73062
21
-3.70126
0
LINE
8
BLACK
6
CONTINUOUS
10
5.73062
20
-3.70126
11
5.73331
21
-3.70261
0
LINE
8
BLACK
6
CONTINUOUS
10
5.73331
20
-3.70261
11
5.73942
21
-3.70261
0
LINE
8
BLACK
6
CONTINUOUS
10
5.73942
20
-3.70261
11
5.74212
21
-3.70126
0
LINE
8
BLACK
6
CONTINUOUS
10
5.74212
20
-3.70126
11
5.74331
21
-3.70007
0
LINE
8
BLACK
6
CONTINUOUS
10
5.74331
20
-3.70007
11
5.74466
21
-3.69737
0
LINE
8
BLACK
6
CONTINUOUS
10
5.74466
20
-3.69737
11
5.74466
21
-3.6662
0
LINE
8
BLACK
6
CONTINUOUS
10
5.74466
20
-3.6662
11
5.74484
21
-3.66519
0
LINE
8
BLACK
6
CONTINUOUS
10
5.74484
20
-3.66519
11
5.74614
21
-3.66364
0
LINE
8
BLACK
6
CONTINUOUS
10
5.74614
20
-3.66364
11
5.74813
21
-3.66329
0
LINE
8
BLACK
6
CONTINUOUS
10
5.74813
20
-3.66329
11
5.74988
21
-3.6643
0
LINE
8
BLACK
6
CONTINUOUS
10
5.92341
20
-3.68197
11
5.92496
21
-3.68327
0
LINE
8
BLACK
6
CONTINUOUS
10
5.92496
20
-3.68327
11
5.92531
21
-3.68526
0
LINE
8
BLACK
6
CONTINUOUS
10
5.92531
20
-3.68526
11
5.9243
21
-3.68701
0
LINE
8
BLACK
6
CONTINUOUS
10
5.9243
20
-3.68701
11
5.9224
21
-3.6877
0
LINE
8
BLACK
6
CONTINUOUS
10
5.9224
20
-3.6877
11
5.8624
21
-3.6877
0
LINE
8
BLACK
6
CONTINUOUS
10
5.8624
20
-3.6877
11
5.86139
21
-3.68752
0
LINE
8
BLACK
6
CONTINUOUS
10
5.86139
20
-3.68752
11
5.85984
21
-3.68622
0
LINE
8
BLACK
6
CONTINUOUS
10
5.85984
20
-3.68622
11
5.85949
21
-3.68423
0
LINE
8
BLACK
6
CONTINUOUS
10
5.85949
20
-3.68423
11
5.8605
21
-3.68248
0
LINE
8
BLACK
6
CONTINUOUS
10
5.8605
20
-3.68248
11
5.8624
21
-3.68179
0
LINE
8
BLACK
6
CONTINUOUS
10
5.8624
20
-3.68179
11
5.9224
21
-3.68179
0
LINE
8
BLACK
6
CONTINUOUS
10
5.9224
20
-3.68179
11
5.92341
21
-3.68197
0
LINE
8
BLACK
6
CONTINUOUS
10
6.02157
20
-3.68057
11
6.02226
21
-3.68224
0
LINE
8
BLACK
6
CONTINUOUS
10
6.02226
20
-3.68224
11
6.02157
21
-3.68391
0
LINE
8
BLACK
6
CONTINUOUS
10
6.02157
20
-3.68391
11
6.0199
21
-3.68461
0
LINE
8
BLACK
6
CONTINUOUS
10
6.0199
20
-3.68461
11
5.9899
21
-3.68461
0
LINE
8
BLACK
6
CONTINUOUS
10
5.9899
20
-3.68461
11
5.98823
21
-3.68391
0
LINE
8
BLACK
6
CONTINUOUS
10
5.98823
20
-3.68391
11
5.98754
21
-3.68224
0
LINE
8
BLACK
6
CONTINUOUS
10
5.98754
20
-3.68224
11
5.98823
21
-3.68057
0
LINE
8
BLACK
6
CONTINUOUS
10
5.98823
20
-3.68057
11
5.9899
21
-3.67988
0
LINE
8
BLACK
6
CONTINUOUS
10
5.9899
20
-3.67988
11
6.0199
21
-3.67988
0
LINE
8
BLACK
6
CONTINUOUS
10
6.0199
20
-3.67988
11
6.02157
21
-3.68057
0
LINE
8
BLACK
6
CONTINUOUS
10
6.16157
20
-3.68057
11
6.16226
21
-3.68224
0
LINE
8
BLACK
6
CONTINUOUS
10
6.16226
20
-3.68224
11
6.16157
21
-3.68391
0
LINE
8
BLACK
6
CONTINUOUS
10
6.16157
20
-3.68391
11
6.1599
21
-3.68461
0
LINE
8
BLACK
6
CONTINUOUS
10
6.1599
20
-3.68461
11
6.1299
21
-3.68461
0
LINE
8
BLACK
6
CONTINUOUS
10
6.1299
20
-3.68461
11
6.12823
21
-3.68391
0
LINE
8
BLACK
6
CONTINUOUS
10
6.12823
20
-3.68391
11
6.12754
21
-3.68224
0
LINE
8
BLACK
6
CONTINUOUS
10
6.12754
20
-3.68224
11
6.12823
21
-3.68057
0
LINE
8
BLACK
6
CONTINUOUS
10
6.12823
20
-3.68057
11
6.1299
21
-3.67988
0
LINE
8
BLACK
6
CONTINUOUS
10
6.1299
20
-3.67988
11
6.1599
21
-3.67988
0
LINE
8
BLACK
6
CONTINUOUS
10
6.1599
20
-3.67988
11
6.16157
21
-3.68057
0
LINE
8
BLACK
6
CONTINUOUS
10
6.30157
20
-3.68057
11
6.30226
21
-3.68224
0
LINE
8
BLACK
6
CONTINUOUS
10
6.30226
20
-3.68224
11
6.30157
21
-3.68391
0
LINE
8
BLACK
6
CONTINUOUS
10
6.30157
20
-3.68391
11
6.2999
21
-3.68461
0
LINE
8
BLACK
6
CONTINUOUS
10
6.2999
20
-3.68461
11
6.2699
21
-3.68461
0
LINE
8
BLACK
6
CONTINUOUS
10
6.2699
20
-3.68461
11
6.26823
21
-3.68391
0
LINE
8
BLACK
6
CONTINUOUS
10
6.26823
20
-3.68391
11
6.26754
21
-3.68224
0
LINE
8
BLACK
6
CONTINUOUS
10
6.26754
20
-3.68224
11
6.26823
21
-3.68057
0
LINE
8
BLACK
6
CONTINUOUS
10
6.26823
20
-3.68057
11
6.2699
21
-3.67988
0
LINE
8
BLACK
6
CONTINUOUS
10
6.2699
20
-3.67988
11
6.2999
21
-3.67988
0
LINE
8
BLACK
6
CONTINUOUS
10
6.2999
20
-3.67988
11
6.30157
21
-3.68057
0
LINE
8
BLACK
6
CONTINUOUS
10
5.56216
20
-3.40035
11
5.56285
21
-3.40224
0
LINE
8
BLACK
6
CONTINUOUS
10
5.56285
20
-3.40224
11
5.56285
21
-3.46224
0
LINE
8
BLACK
6
CONTINUOUS
10
5.56285
20
-3.46224
11
5.56268
21
-3.46325
0
LINE
8
BLACK
6
CONTINUOUS
10
5.56268
20
-3.46325
11
5.56138
21
-3.4648
0
LINE
8
BLACK
6
CONTINUOUS
10
5.56138
20
-3.4648
11
5.55939
21
-3.46515
0
LINE
8
BLACK
6
CONTINUOUS
10
5.55939
20
-3.46515
11
5.55764
21
-3.46414
0
LINE
8
BLACK
6
CONTINUOUS
10
5.55764
20
-3.46414
11
5.55695
21
-3.46224
0
LINE
8
BLACK
6
CONTINUOUS
10
5.55695
20
-3.46224
11
5.55695
21
-3.40224
0
LINE
8
BLACK
6
CONTINUOUS
10
5.55695
20
-3.40224
11
5.55713
21
-3.40123
0
LINE
8
BLACK
6
CONTINUOUS
10
5.55713
20
-3.40123
11
5.55843
21
-3.39969
0
LINE
8
BLACK
6
CONTINUOUS
10
5.55843
20
-3.39969
11
5.56041
21
-3.39934
0
LINE
8
BLACK
6
CONTINUOUS
10
5.56041
20
-3.39934
11
5.56216
21
-3.40035
0
LINE
8
BLACK
6
CONTINUOUS
10
5.44216
20
-3.40035
11
5.44285
21
-3.40224
0
LINE
8
BLACK
6
CONTINUOUS
10
5.44285
20
-3.40224
11
5.44285
21
-3.46224
0
LINE
8
BLACK
6
CONTINUOUS
10
5.44285
20
-3.46224
11
5.44268
21
-3.46325
0
LINE
8
BLACK
6
CONTINUOUS
10
5.44268
20
-3.46325
11
5.44138
21
-3.4648
0
LINE
8
BLACK
6
CONTINUOUS
10
5.44138
20
-3.4648
11
5.43939
21
-3.46515
0
LINE
8
BLACK
6
CONTINUOUS
10
5.43939
20
-3.46515
11
5.43764
21
-3.46414
0
LINE
8
BLACK
6
CONTINUOUS
10
5.43764
20
-3.46414
11
5.43695
21
-3.46224
0
LINE
8
BLACK
6
CONTINUOUS
10
5.43695
20
-3.46224
11
5.43695
21
-3.40224
0
LINE
8
BLACK
6
CONTINUOUS
10
5.43695
20
-3.40224
11
5.43713
21
-3.40123
0
LINE
8
BLACK
6
CONTINUOUS
10
5.43713
20
-3.40123
11
5.43843
21
-3.39969
0
LINE
8
BLACK
6
CONTINUOUS
10
5.43843
20
-3.39969
11
5.44041
21
-3.39934
0
LINE
8
BLACK
6
CONTINUOUS
10
5.44041
20
-3.39934
11
5.44216
21
-3.40035
0
LINE
8
BLACK
6
CONTINUOUS
10
5.51657
20
-3.46057
11
5.51726
21
-3.46224
0
LINE
8
BLACK
6
CONTINUOUS
10
5.51726
20
-3.46224
11
5.51657
21
-3.46391
0
LINE
8
BLACK
6
CONTINUOUS
10
5.51657
20
-3.46391
11
5.5149
21
-3.46461
0
LINE
8
BLACK
6
CONTINUOUS
10
5.5149
20
-3.46461
11
5.4849
21
-3.46461
0
LINE
8
BLACK
6
CONTINUOUS
10
5.4849
20
-3.46461
11
5.48323
21
-3.46391
0
LINE
8
BLACK
6
CONTINUOUS
10
5.48323
20
-3.46391
11
5.48254
21
-3.46224
0
LINE
8
BLACK
6
CONTINUOUS
10
5.48254
20
-3.46224
11
5.48323
21
-3.46057
0
LINE
8
BLACK
6
CONTINUOUS
10
5.48323
20
-3.46057
11
5.4849
21
-3.45988
0
LINE
8
BLACK
6
CONTINUOUS
10
5.4849
20
-3.45988
11
5.5149
21
-3.45988
0
LINE
8
BLACK
6
CONTINUOUS
10
5.5149
20
-3.45988
11
5.51657
21
-3.46057
0
LINE
8
BLACK
6
CONTINUOUS
10
5.51657
20
-3.40057
11
5.51726
21
-3.40224
0
LINE
8
BLACK
6
CONTINUOUS
10
5.51726
20
-3.40224
11
5.51657
21
-3.40391
0
LINE
8
BLACK
6
CONTINUOUS
10
5.51657
20
-3.40391
11
5.5149
21
-3.40461
0
LINE
8
BLACK
6
CONTINUOUS
10
5.5149
20
-3.40461
11
5.4849
21
-3.40461
0
LINE
8
BLACK
6
CONTINUOUS
10
5.4849
20
-3.40461
11
5.48323
21
-3.40391
0
LINE
8
BLACK
6
CONTINUOUS
10
5.48323
20
-3.40391
11
5.48254
21
-3.40224
0
LINE
8
BLACK
6
CONTINUOUS
10
5.48254
20
-3.40224
11
5.48323
21
-3.40057
0
LINE
8
BLACK
6
CONTINUOUS
10
5.48323
20
-3.40057
11
5.4849
21
-3.39988
0
LINE
8
BLACK
6
CONTINUOUS
10
5.4849
20
-3.39988
11
5.5149
21
-3.39988
0
LINE
8
BLACK
6
CONTINUOUS
10
5.5149
20
-3.39988
11
5.51657
21
-3.40057
  0
ENDSEC
  0
EOF
