  0
SECTION
  2
HEADER
  9
$ANGBASE
  50
0.0
  9
$ANGDIR
  70
1
  9
$MEASUREMENT
  70
0
  0
ENDSEC
  0
SECTION
  2
TABLES
  0
TABLE
  2
LTYPE
  70
4
  0
LTYPE
  5
40F
  2
CONTINUOUS
  70
0
  3
Solid line
  72
65
  73
0
  40
0.0
  0
LTYPE
  5
410
  2
DASHDOT
 70
0
  3
Dash Dot ____ _ ____ _
 72
65
 73
4
 40
2.0
 49
1.25
 49
-0.25
 49
0.25
 49
-0.25
  0
LTYPE
  5
411
  2
DASHED
 70
0
  3
Dashed __ __ __ __ __
 72
65
 73
2
 40
0.75
 49
0.5
 49
-0.25
  0
LTYPE
  5
43B
  2
DOTTED
 70
0
  3
Dotted .  .  .  .
 72
65
 73
2
 40
0.2
 49
0.0
 49
-0.2
  0
ENDTAB
  0
TABLE
  2
STYLE
  70
4
  0
STYLE
  2
KICAD
  70
0
  40
0
  41
1
  42
1
  50
0
  71
0
  3
isocp.shx
  0
STYLE
  2
KICADB
  70
0
  40
0
  41
1
  42
1
  50
0
  71
0
  3
isocp.shx
  0
STYLE
  2
KICADI
  70
0
  40
0
  41
1
  42
1
  50
15
  71
0
  3
isocp.shx
  0
STYLE
  2
KICADBI
  70
0
  40
0
  41
1
  42
1
  50
15
  71
0
  3
isocp.shx
  0
ENDTAB
  0
TABLE
  2
LAYER
  70
1
  0
LAYER
  2
BLACK
  70
0
  62
7
  6
CONTINUOUS
  0
ENDTAB
  0
ENDSEC
  0
SECTION
  2
ENTITIES
0
LINE
8
BLACK
6
CONTINUOUS
10
0.994213
20
0.305354
11
0.994909
21
0.305066
0
LINE
8
BLACK
6
CONTINUOUS
10
0.994909
20
0.305066
11
0.995197
21
0.30437
0
LINE
8
BLACK
6
CONTINUOUS
10
0.995197
20
0.30437
11
0.995197
21
0.203927
0
LINE
8
BLACK
6
CONTINUOUS
10
0.995197
20
0.203927
11
0.995251
21
0.204543
0
LINE
8
BLACK
6
CONTINUOUS
10
0.995251
20
0.204543
11
0.997515
21
0.212995
0
LINE
8
BLACK
6
CONTINUOUS
10
0.997515
20
0.212995
11
1.00121
21
0.220925
0
LINE
8
BLACK
6
CONTINUOUS
10
1.00121
20
0.220925
11
1.00623
21
0.228093
0
LINE
8
BLACK
6
CONTINUOUS
10
1.00623
20
0.228093
11
1.01242
21
0.23428
0
LINE
8
BLACK
6
CONTINUOUS
10
1.01242
20
0.23428
11
1.01959
21
0.239299
0
LINE
8
BLACK
6
CONTINUOUS
10
1.01959
20
0.239299
11
1.02752
21
0.242996
0
LINE
8
BLACK
6
CONTINUOUS
10
1.02752
20
0.242996
11
1.03597
21
0.245261
0
LINE
8
BLACK
6
CONTINUOUS
10
1.03597
20
0.245261
11
1.04469
21
0.246024
0
LINE
8
BLACK
6
CONTINUOUS
10
1.04469
20
0.246024
11
1.0534
21
0.245261
0
LINE
8
BLACK
6
CONTINUOUS
10
1.0534
20
0.245261
11
1.06185
21
0.242996
0
LINE
8
BLACK
6
CONTINUOUS
10
1.06185
20
0.242996
11
1.06978
21
0.239299
0
LINE
8
BLACK
6
CONTINUOUS
10
1.06978
20
0.239299
11
1.07695
21
0.23428
0
LINE
8
BLACK
6
CONTINUOUS
10
1.07695
20
0.23428
11
1.08314
21
0.228093
0
LINE
8
BLACK
6
CONTINUOUS
10
1.08314
20
0.228093
11
1.08816
21
0.220925
0
LINE
8
BLACK
6
CONTINUOUS
10
1.08816
20
0.220925
11
1.09185
21
0.212995
0
LINE
8
BLACK
6
CONTINUOUS
10
1.09185
20
0.212995
11
1.09412
21
0.204543
0
LINE
8
BLACK
6
CONTINUOUS
10
1.09412
20
0.204543
11
1.09488
21
0.195827
0
LINE
8
BLACK
6
CONTINUOUS
10
1.09488
20
0.195827
11
1.09412
21
0.18711
0
LINE
8
BLACK
6
CONTINUOUS
10
1.09412
20
0.18711
11
1.09185
21
0.178658
0
LINE
8
BLACK
6
CONTINUOUS
10
1.09185
20
0.178658
11
1.08816
21
0.170728
0
LINE
8
BLACK
6
CONTINUOUS
10
1.08816
20
0.170728
11
1.08314
21
0.163561
0
LINE
8
BLACK
6
CONTINUOUS
10
1.08314
20
0.163561
11
1.07695
21
0.157374
0
LINE
8
BLACK
6
CONTINUOUS
10
1.07695
20
0.157374
11
1.06978
21
0.152355
0
LINE
8
BLACK
6
CONTINUOUS
10
1.06978
20
0.152355
11
1.06185
21
0.148657
0
LINE
8
BLACK
6
CONTINUOUS
10
1.06185
20
0.148657
11
1.0534
21
0.146393
0
LINE
8
BLACK
6
CONTINUOUS
10
1.0534
20
0.146393
11
1.04469
21
0.14563
0
LINE
8
BLACK
6
CONTINUOUS
10
1.04469
20
0.14563
11
1.03597
21
0.146393
0
LINE
8
BLACK
6
CONTINUOUS
10
1.03597
20
0.146393
11
1.02752
21
0.148657
0
LINE
8
BLACK
6
CONTINUOUS
10
1.02752
20
0.148657
11
1.01959
21
0.152355
0
LINE
8
BLACK
6
CONTINUOUS
10
1.01959
20
0.152355
11
1.01242
21
0.157374
0
LINE
8
BLACK
6
CONTINUOUS
10
1.01242
20
0.157374
11
1.00623
21
0.163561
0
LINE
8
BLACK
6
CONTINUOUS
10
1.00623
20
0.163561
11
1.00121
21
0.170728
0
LINE
8
BLACK
6
CONTINUOUS
10
1.00121
20
0.170728
11
0.997515
21
0.178658
0
LINE
8
BLACK
6
CONTINUOUS
10
0.997515
20
0.178658
11
0.995251
21
0.18711
0
LINE
8
BLACK
6
CONTINUOUS
10
0.995251
20
0.18711
11
0.995197
21
0.187727
0
LINE
8
BLACK
6
CONTINUOUS
10
0.995197
20
0.187727
11
0.995197
21
0.174449
0
LINE
8
BLACK
6
CONTINUOUS
10
0.995197
20
0.174449
11
0.994909
21
0.173753
0
LINE
8
BLACK
6
CONTINUOUS
10
0.994909
20
0.173753
11
0.994213
21
0.173465
0
LINE
8
BLACK
6
CONTINUOUS
10
0.994213
20
0.173465
11
0.895787
21
0.173465
0
LINE
8
BLACK
6
CONTINUOUS
10
0.895787
20
0.173465
11
0.895091
21
0.173753
0
LINE
8
BLACK
6
CONTINUOUS
10
0.895091
20
0.173753
11
0.894803
21
0.174449
0
LINE
8
BLACK
6
CONTINUOUS
10
0.894803
20
0.174449
11
0.894803
21
0.30437
0
LINE
8
BLACK
6
CONTINUOUS
10
0.894803
20
0.30437
11
0.895091
21
0.305066
0
LINE
8
BLACK
6
CONTINUOUS
10
0.895091
20
0.305066
11
0.895787
21
0.305354
0
LINE
8
BLACK
6
CONTINUOUS
10
0.895787
20
0.305354
11
0.994213
21
0.305354
0
LINE
8
BLACK
6
CONTINUOUS
10
1.03628
20
0.243504
11
1.02813
21
0.24132
0
LINE
8
BLACK
6
CONTINUOUS
10
1.02813
20
0.24132
11
1.02048
21
0.237753
0
LINE
8
BLACK
6
CONTINUOUS
10
1.02048
20
0.237753
11
1.01357
21
0.232913
0
LINE
8
BLACK
6
CONTINUOUS
10
1.01357
20
0.232913
11
1.0076
21
0.226946
0
LINE
8
BLACK
6
CONTINUOUS
10
1.0076
20
0.226946
11
1.00276
21
0.220033
0
LINE
8
BLACK
6
CONTINUOUS
10
1.00276
20
0.220033
11
0.999192
21
0.212385
0
LINE
8
BLACK
6
CONTINUOUS
10
0.999192
20
0.212385
11
0.997008
21
0.204234
0
LINE
8
BLACK
6
CONTINUOUS
10
0.997008
20
0.204234
11
0.996272
21
0.195827
0
LINE
8
BLACK
6
CONTINUOUS
10
0.996272
20
0.195827
11
0.997008
21
0.18742
0
LINE
8
BLACK
6
CONTINUOUS
10
0.997008
20
0.18742
11
0.999192
21
0.179269
0
LINE
8
BLACK
6
CONTINUOUS
10
0.999192
20
0.179269
11
1.00276
21
0.17162
0
LINE
8
BLACK
6
CONTINUOUS
10
1.00276
20
0.17162
11
1.0076
21
0.164708
0
LINE
8
BLACK
6
CONTINUOUS
10
1.0076
20
0.164708
11
1.01357
21
0.158741
0
LINE
8
BLACK
6
CONTINUOUS
10
1.01357
20
0.158741
11
1.02048
21
0.1539
0
LINE
8
BLACK
6
CONTINUOUS
10
1.02048
20
0.1539
11
1.02813
21
0.150334
0
LINE
8
BLACK
6
CONTINUOUS
10
1.02813
20
0.150334
11
1.03628
21
0.14815
0
LINE
8
BLACK
6
CONTINUOUS
10
1.03628
20
0.14815
11
1.04469
21
0.147414
0
LINE
8
BLACK
6
CONTINUOUS
10
1.04469
20
0.147414
11
1.05309
21
0.14815
0
LINE
8
BLACK
6
CONTINUOUS
10
1.05309
20
0.14815
11
1.06124
21
0.150334
0
LINE
8
BLACK
6
CONTINUOUS
10
1.06124
20
0.150334
11
1.06889
21
0.1539
0
LINE
8
BLACK
6
CONTINUOUS
10
1.06889
20
0.1539
11
1.0758
21
0.158741
0
LINE
8
BLACK
6
CONTINUOUS
10
1.0758
20
0.158741
11
1.08177
21
0.164708
0
LINE
8
BLACK
6
CONTINUOUS
10
1.08177
20
0.164708
11
1.08661
21
0.17162
0
LINE
8
BLACK
6
CONTINUOUS
10
1.08661
20
0.17162
11
1.09018
21
0.179269
0
LINE
8
BLACK
6
CONTINUOUS
10
1.09018
20
0.179269
11
1.09236
21
0.18742
0
LINE
8
BLACK
6
CONTINUOUS
10
1.09236
20
0.18742
11
1.0931
21
0.195827
0
LINE
8
BLACK
6
CONTINUOUS
10
1.0931
20
0.195827
11
1.09236
21
0.204234
0
LINE
8
BLACK
6
CONTINUOUS
10
1.09236
20
0.204234
11
1.09018
21
0.212385
0
LINE
8
BLACK
6
CONTINUOUS
10
1.09018
20
0.212385
11
1.08661
21
0.220033
0
LINE
8
BLACK
6
CONTINUOUS
10
1.08661
20
0.220033
11
1.08177
21
0.226946
0
LINE
8
BLACK
6
CONTINUOUS
10
1.08177
20
0.226946
11
1.0758
21
0.232913
0
LINE
8
BLACK
6
CONTINUOUS
10
1.0758
20
0.232913
11
1.06889
21
0.237753
0
LINE
8
BLACK
6
CONTINUOUS
10
1.06889
20
0.237753
11
1.06124
21
0.24132
0
LINE
8
BLACK
6
CONTINUOUS
10
1.06124
20
0.24132
11
1.05309
21
0.243504
0
LINE
8
BLACK
6
CONTINUOUS
10
1.05309
20
0.243504
11
1.04469
21
0.244239
0
LINE
8
BLACK
6
CONTINUOUS
10
1.04469
20
0.244239
11
1.03628
21
0.243504
0
LINE
8
BLACK
6
CONTINUOUS
10
0.896772
20
0.303386
11
0.896772
21
0.175433
0
LINE
8
BLACK
6
CONTINUOUS
10
0.896772
20
0.175433
11
0.993228
21
0.175433
0
LINE
8
BLACK
6
CONTINUOUS
10
0.993228
20
0.175433
11
0.993228
21
0.303386
0
LINE
8
BLACK
6
CONTINUOUS
10
0.993228
20
0.303386
11
0.896772
21
0.303386
0
LINE
8
BLACK
6
CONTINUOUS
10
0.109055
20
0.344882
11
0.109751
21
0.344594
0
LINE
8
BLACK
6
CONTINUOUS
10
0.109751
20
0.344594
11
0.110039
21
0.343898
0
LINE
8
BLACK
6
CONTINUOUS
10
0.110039
20
0.343898
11
0.110039
21
0.206102
0
LINE
8
BLACK
6
CONTINUOUS
10
0.110039
20
0.206102
11
0.109751
21
0.205406
0
LINE
8
BLACK
6
CONTINUOUS
10
0.109751
20
0.205406
11
0.109055
21
0.205118
0
LINE
8
BLACK
6
CONTINUOUS
10
0.109055
20
0.205118
11
-0.166535
21
0.205118
0
LINE
8
BLACK
6
CONTINUOUS
10
-0.166535
20
0.205118
11
-0.167231
21
0.205406
0
LINE
8
BLACK
6
CONTINUOUS
10
-0.167231
20
0.205406
11
-0.16752
21
0.206102
0
LINE
8
BLACK
6
CONTINUOUS
10
-0.16752
20
0.206102
11
-0.16752
21
0.343898
0
LINE
8
BLACK
6
CONTINUOUS
10
-0.16752
20
0.343898
11
-0.167231
21
0.344594
0
LINE
8
BLACK
6
CONTINUOUS
10
-0.167231
20
0.344594
11
-0.166535
21
0.344882
0
LINE
8
BLACK
6
CONTINUOUS
10
-0.166535
20
0.344882
11
0.109055
21
0.344882
0
LINE
8
BLACK
6
CONTINUOUS
10
-0.165551
20
0.342913
11
-0.165551
21
0.207087
0
LINE
8
BLACK
6
CONTINUOUS
10
-0.165551
20
0.207087
11
0.108071
21
0.207087
0
LINE
8
BLACK
6
CONTINUOUS
10
0.108071
20
0.207087
11
0.108071
21
0.342913
0
LINE
8
BLACK
6
CONTINUOUS
10
0.108071
20
0.342913
11
-0.165551
21
0.342913
0
LINE
8
BLACK
6
CONTINUOUS
10
0.877362
20
0.553346
11
0.878058
21
0.553058
0
LINE
8
BLACK
6
CONTINUOUS
10
0.878058
20
0.553058
11
0.878346
21
0.552362
0
LINE
8
BLACK
6
CONTINUOUS
10
0.878346
20
0.552362
11
0.878346
21
0.347638
0
LINE
8
BLACK
6
CONTINUOUS
10
0.878346
20
0.347638
11
0.878058
21
0.346942
0
LINE
8
BLACK
6
CONTINUOUS
10
0.878058
20
0.346942
11
0.877362
21
0.346654
0
LINE
8
BLACK
6
CONTINUOUS
10
0.877362
20
0.346654
11
0.672638
21
0.346654
0
LINE
8
BLACK
6
CONTINUOUS
10
0.672638
20
0.346654
11
0.671942
21
0.346942
0
LINE
8
BLACK
6
CONTINUOUS
10
0.671942
20
0.346942
11
0.671654
21
0.347638
0
LINE
8
BLACK
6
CONTINUOUS
10
0.671654
20
0.347638
11
0.671654
21
0.552362
0
LINE
8
BLACK
6
CONTINUOUS
10
0.671654
20
0.552362
11
0.671942
21
0.553058
0
LINE
8
BLACK
6
CONTINUOUS
10
0.671942
20
0.553058
11
0.672638
21
0.553346
0
LINE
8
BLACK
6
CONTINUOUS
10
0.672638
20
0.553346
11
0.877362
21
0.553346
0
LINE
8
BLACK
6
CONTINUOUS
10
0.673622
20
0.551378
11
0.673622
21
0.348622
0
LINE
8
BLACK
6
CONTINUOUS
10
0.673622
20
0.348622
11
0.876378
21
0.348622
0
LINE
8
BLACK
6
CONTINUOUS
10
0.876378
20
0.348622
11
0.876378
21
0.551378
0
LINE
8
BLACK
6
CONTINUOUS
10
0.876378
20
0.551378
11
0.673622
21
0.551378
0
LINE
8
BLACK
6
CONTINUOUS
10
0.535925
20
0.642913
11
0.536621
21
0.642625
0
LINE
8
BLACK
6
CONTINUOUS
10
0.536621
20
0.642625
11
0.536909
21
0.641929
0
LINE
8
BLACK
6
CONTINUOUS
10
0.536909
20
0.641929
11
0.536909
21
0.508071
0
LINE
8
BLACK
6
CONTINUOUS
10
0.536909
20
0.508071
11
0.536621
21
0.507375
0
LINE
8
BLACK
6
CONTINUOUS
10
0.536621
20
0.507375
11
0.535925
21
0.507087
0
LINE
8
BLACK
6
CONTINUOUS
10
0.535925
20
0.507087
11
0.374508
21
0.507087
0
LINE
8
BLACK
6
CONTINUOUS
10
0.374508
20
0.507087
11
0.373812
21
0.507375
0
LINE
8
BLACK
6
CONTINUOUS
10
0.373812
20
0.507375
11
0.373524
21
0.508071
0
LINE
8
BLACK
6
CONTINUOUS
10
0.373524
20
0.508071
11
0.373524
21
0.508071
0
LINE
8
BLACK
6
CONTINUOUS
10
0.373524
20
0.508071
11
0.373524
21
0.641929
0
LINE
8
BLACK
6
CONTINUOUS
10
0.373524
20
0.641929
11
0.373812
21
0.642625
0
LINE
8
BLACK
6
CONTINUOUS
10
0.373812
20
0.642625
11
0.374508
21
0.642913
0
LINE
8
BLACK
6
CONTINUOUS
10
0.374508
20
0.642913
11
0.535925
21
0.642913
0
LINE
8
BLACK
6
CONTINUOUS
10
0.375492
20
0.640945
11
0.375492
21
0.509055
0
LINE
8
BLACK
6
CONTINUOUS
10
0.375492
20
0.509055
11
0.534941
21
0.509055
0
LINE
8
BLACK
6
CONTINUOUS
10
0.534941
20
0.509055
11
0.534941
21
0.640945
0
LINE
8
BLACK
6
CONTINUOUS
10
0.534941
20
0.640945
11
0.375492
21
0.640945
0
LINE
8
BLACK
6
CONTINUOUS
10
0.0927717
20
0.658647
11
0.101223
21
0.656382
0
LINE
8
BLACK
6
CONTINUOUS
10
0.101223
20
0.656382
11
0.109154
21
0.652684
0
LINE
8
BLACK
6
CONTINUOUS
10
0.109154
20
0.652684
11
0.116321
21
0.647666
0
LINE
8
BLACK
6
CONTINUOUS
10
0.116321
20
0.647666
11
0.122508
21
0.641479
0
LINE
8
BLACK
6
CONTINUOUS
10
0.122508
20
0.641479
11
0.127527
21
0.634311
0
LINE
8
BLACK
6
CONTINUOUS
10
0.127527
20
0.634311
11
0.131225
21
0.626381
0
LINE
8
BLACK
6
CONTINUOUS
10
0.131225
20
0.626381
11
0.133489
21
0.617929
0
LINE
8
BLACK
6
CONTINUOUS
10
0.133489
20
0.617929
11
0.134252
21
0.609213
0
LINE
8
BLACK
6
CONTINUOUS
10
0.134252
20
0.609213
11
0.133489
21
0.600496
0
LINE
8
BLACK
6
CONTINUOUS
10
0.133489
20
0.600496
11
0.131225
21
0.592044
0
LINE
8
BLACK
6
CONTINUOUS
10
0.131225
20
0.592044
11
0.127527
21
0.584114
0
LINE
8
BLACK
6
CONTINUOUS
10
0.127527
20
0.584114
11
0.122508
21
0.576947
0
LINE
8
BLACK
6
CONTINUOUS
10
0.122508
20
0.576947
11
0.116321
21
0.57076
0
LINE
8
BLACK
6
CONTINUOUS
10
0.116321
20
0.57076
11
0.109154
21
0.565741
0
LINE
8
BLACK
6
CONTINUOUS
10
0.109154
20
0.565741
11
0.101223
21
0.562043
0
LINE
8
BLACK
6
CONTINUOUS
10
0.101223
20
0.562043
11
0.0927717
21
0.559778
0
LINE
8
BLACK
6
CONTINUOUS
10
0.0927717
20
0.559778
11
0.0840551
21
0.559016
0
LINE
8
BLACK
6
CONTINUOUS
10
0.0840551
20
0.559016
11
0.0753385
21
0.559778
0
LINE
8
BLACK
6
CONTINUOUS
10
0.0753385
20
0.559778
11
0.0668868
21
0.562043
0
LINE
8
BLACK
6
CONTINUOUS
10
0.0668868
20
0.562043
11
0.0589567
21
0.565741
0
LINE
8
BLACK
6
CONTINUOUS
10
0.0589567
20
0.565741
11
0.0517892
21
0.57076
0
LINE
8
BLACK
6
CONTINUOUS
10
0.0517892
20
0.57076
11
0.0456021
21
0.576947
0
LINE
8
BLACK
6
CONTINUOUS
10
0.0456021
20
0.576947
11
0.0405834
21
0.584114
0
LINE
8
BLACK
6
CONTINUOUS
10
0.0405834
20
0.584114
11
0.0368855
21
0.592044
0
LINE
8
BLACK
6
CONTINUOUS
10
0.0368855
20
0.592044
11
0.0346209
21
0.600496
0
LINE
8
BLACK
6
CONTINUOUS
10
0.0346209
20
0.600496
11
0.0338583
21
0.609213
0
LINE
8
BLACK
6
CONTINUOUS
10
0.0338583
20
0.609213
11
0.0346209
21
0.617929
0
LINE
8
BLACK
6
CONTINUOUS
10
0.0346209
20
0.617929
11
0.0368855
21
0.626381
0
LINE
8
BLACK
6
CONTINUOUS
10
0.0368855
20
0.626381
11
0.0405834
21
0.634311
0
LINE
8
BLACK
6
CONTINUOUS
10
0.0405834
20
0.634311
11
0.0456021
21
0.641479
0
LINE
8
BLACK
6
CONTINUOUS
10
0.0456021
20
0.641479
11
0.0517892
21
0.647666
0
LINE
8
BLACK
6
CONTINUOUS
10
0.0517892
20
0.647666
11
0.0589567
21
0.652684
0
LINE
8
BLACK
6
CONTINUOUS
10
0.0589567
20
0.652684
11
0.0668868
21
0.656382
0
LINE
8
BLACK
6
CONTINUOUS
10
0.0668868
20
0.656382
11
0.0753385
21
0.658647
0
LINE
8
BLACK
6
CONTINUOUS
10
0.0753385
20
0.658647
11
0.0840551
21
0.659409
0
LINE
8
BLACK
6
CONTINUOUS
10
0.0840551
20
0.659409
11
0.0927717
21
0.658647
0
LINE
8
BLACK
6
CONTINUOUS
10
0.0363781
20
0.600806
11
0.0385622
21
0.592655
0
LINE
8
BLACK
6
CONTINUOUS
10
0.0385622
20
0.592655
11
0.0421286
21
0.585006
0
LINE
8
BLACK
6
CONTINUOUS
10
0.0421286
20
0.585006
11
0.0469689
21
0.578094
0
LINE
8
BLACK
6
CONTINUOUS
10
0.0469689
20
0.578094
11
0.0529361
21
0.572126
0
LINE
8
BLACK
6
CONTINUOUS
10
0.0529361
20
0.572126
11
0.0598488
21
0.567286
0
LINE
8
BLACK
6
CONTINUOUS
10
0.0598488
20
0.567286
11
0.067497
21
0.56372
0
LINE
8
BLACK
6
CONTINUOUS
10
0.067497
20
0.56372
11
0.0756483
21
0.561536
0
LINE
8
BLACK
6
CONTINUOUS
10
0.0756483
20
0.561536
11
0.0840551
21
0.5608
0
LINE
8
BLACK
6
CONTINUOUS
10
0.0840551
20
0.5608
11
0.0924619
21
0.561536
0
LINE
8
BLACK
6
CONTINUOUS
10
0.0924619
20
0.561536
11
0.100613
21
0.56372
0
LINE
8
BLACK
6
CONTINUOUS
10
0.100613
20
0.56372
11
0.108261
21
0.567286
0
LINE
8
BLACK
6
CONTINUOUS
10
0.108261
20
0.567286
11
0.115174
21
0.572126
0
LINE
8
BLACK
6
CONTINUOUS
10
0.115174
20
0.572126
11
0.121141
21
0.578094
0
LINE
8
BLACK
6
CONTINUOUS
10
0.121141
20
0.578094
11
0.125982
21
0.585006
0
LINE
8
BLACK
6
CONTINUOUS
10
0.125982
20
0.585006
11
0.129548
21
0.592655
0
LINE
8
BLACK
6
CONTINUOUS
10
0.129548
20
0.592655
11
0.131732
21
0.600806
0
LINE
8
BLACK
6
CONTINUOUS
10
0.131732
20
0.600806
11
0.132468
21
0.609213
0
LINE
8
BLACK
6
CONTINUOUS
10
0.132468
20
0.609213
11
0.131732
21
0.617619
0
LINE
8
BLACK
6
CONTINUOUS
10
0.131732
20
0.617619
11
0.129548
21
0.625771
0
LINE
8
BLACK
6
CONTINUOUS
10
0.129548
20
0.625771
11
0.125982
21
0.633419
0
LINE
8
BLACK
6
CONTINUOUS
10
0.125982
20
0.633419
11
0.121141
21
0.640332
0
LINE
8
BLACK
6
CONTINUOUS
10
0.121141
20
0.640332
11
0.115174
21
0.646299
0
LINE
8
BLACK
6
CONTINUOUS
10
0.115174
20
0.646299
11
0.108261
21
0.651139
0
LINE
8
BLACK
6
CONTINUOUS
10
0.108261
20
0.651139
11
0.100613
21
0.654706
0
LINE
8
BLACK
6
CONTINUOUS
10
0.100613
20
0.654706
11
0.0924619
21
0.65689
0
LINE
8
BLACK
6
CONTINUOUS
10
0.0924619
20
0.65689
11
0.0840551
21
0.657625
0
LINE
8
BLACK
6
CONTINUOUS
10
0.0840551
20
0.657625
11
0.0756483
21
0.65689
0
LINE
8
BLACK
6
CONTINUOUS
10
0.0756483
20
0.65689
11
0.067497
21
0.654706
0
LINE
8
BLACK
6
CONTINUOUS
10
0.067497
20
0.654706
11
0.0598489
21
0.651139
0
LINE
8
BLACK
6
CONTINUOUS
10
0.0598489
20
0.651139
11
0.0529361
21
0.646299
0
LINE
8
BLACK
6
CONTINUOUS
10
0.0529361
20
0.646299
11
0.0469689
21
0.640332
0
LINE
8
BLACK
6
CONTINUOUS
10
0.0469689
20
0.640332
11
0.0421286
21
0.633419
0
LINE
8
BLACK
6
CONTINUOUS
10
0.0421286
20
0.633419
11
0.0385622
21
0.625771
0
LINE
8
BLACK
6
CONTINUOUS
10
0.0385622
20
0.625771
11
0.0363781
21
0.617619
0
LINE
8
BLACK
6
CONTINUOUS
10
0.0363781
20
0.617619
11
0.0356426
21
0.609213
0
LINE
8
BLACK
6
CONTINUOUS
10
0.0356426
20
0.609213
11
0.0363781
21
0.600806
  0
ENDSEC
  0
EOF
