  0
SECTION
  2
HEADER
  9
$ANGBASE
  50
0.0
  9
$ANGDIR
  70
1
  9
$MEASUREMENT
  70
0
  0
ENDSEC
  0
SECTION
  2
TABLES
  0
TABLE
  2
LTYPE
  70
4
  0
LTYPE
  5
40F
  2
CONTINUOUS
  70
0
  3
Solid line
  72
65
  73
0
  40
0.0
  0
LTYPE
  5
410
  2
DASHDOT
 70
0
  3
Dash Dot ____ _ ____ _
 72
65
 73
4
 40
2.0
 49
1.25
 49
-0.25
 49
0.25
 49
-0.25
  0
LTYPE
  5
411
  2
DASHED
 70
0
  3
Dashed __ __ __ __ __
 72
65
 73
2
 40
0.75
 49
0.5
 49
-0.25
  0
LTYPE
  5
43B
  2
DOTTED
 70
0
  3
Dotted .  .  .  .
 72
65
 73
2
 40
0.2
 49
0.0
 49
-0.2
  0
ENDTAB
  0
TABLE
  2
STYLE
  70
4
  0
STYLE
  2
KICAD
  70
0
  40
0
  41
1
  42
1
  50
0
  71
0
  3
isocp.shx
  0
STYLE
  2
KICADB
  70
0
  40
0
  41
1
  42
1
  50
0
  71
0
  3
isocp.shx
  0
STYLE
  2
KICADI
  70
0
  40
0
  41
1
  42
1
  50
15
  71
0
  3
isocp.shx
  0
STYLE
  2
KICADBI
  70
0
  40
0
  41
1
  42
1
  50
15
  71
0
  3
isocp.shx
  0
ENDTAB
  0
TABLE
  2
LAYER
  70
1
  0
LAYER
  2
BLACK
  70
0
  62
7
  6
CONTINUOUS
  0
ENDTAB
  0
ENDSEC
  0
SECTION
  2
ENTITIES
0
LINE
8
BLACK
6
CONTINUOUS
10
0.249094
20
-0.142697
11
0.214094
21
-0.142697
0
LINE
8
BLACK
6
CONTINUOUS
10
0.214094
20
-0.142697
11
0.214094
21
-0.0876969
0
LINE
8
BLACK
6
CONTINUOUS
10
0.214094
20
-0.0876969
11
0.249094
21
-0.0876969
0
LINE
8
BLACK
6
CONTINUOUS
10
0.249094
20
-0.0876969
11
0.249094
21
-0.142697
0
LINE
8
BLACK
6
CONTINUOUS
10
0.324094
20
-0.142697
11
0.289094
21
-0.142697
0
LINE
8
BLACK
6
CONTINUOUS
10
0.289094
20
-0.142697
11
0.289094
21
-0.0876969
0
LINE
8
BLACK
6
CONTINUOUS
10
0.289094
20
-0.0876969
11
0.324094
21
-0.0876969
0
LINE
8
BLACK
6
CONTINUOUS
10
0.324094
20
-0.0876969
11
0.324094
21
-0.142697
0
LINE
8
BLACK
6
CONTINUOUS
10
0.198122
20
0.0289561
11
0.200557
21
0.0273289
0
LINE
8
BLACK
6
CONTINUOUS
10
0.200557
20
0.0273289
11
0.202184
21
0.0248936
0
LINE
8
BLACK
6
CONTINUOUS
10
0.202184
20
0.0248936
11
0.202756
21
0.0220209
0
LINE
8
BLACK
6
CONTINUOUS
10
0.202756
20
0.0220209
11
0.202756
21
-0.022021
0
LINE
8
BLACK
6
CONTINUOUS
10
0.202756
20
-0.022021
11
0.202184
21
-0.0248936
0
LINE
8
BLACK
6
CONTINUOUS
10
0.202184
20
-0.0248936
11
0.200557
21
-0.0273289
0
LINE
8
BLACK
6
CONTINUOUS
10
0.200557
20
-0.0273289
11
0.198122
21
-0.0289561
0
LINE
8
BLACK
6
CONTINUOUS
10
0.198122
20
-0.0289561
11
0.195249
21
-0.0295275
0
LINE
8
BLACK
6
CONTINUOUS
10
0.195249
20
-0.0295275
11
0.153963
21
-0.0295276
0
LINE
8
BLACK
6
CONTINUOUS
10
0.153963
20
-0.0295276
11
0.151091
21
-0.0289561
0
LINE
8
BLACK
6
CONTINUOUS
10
0.151091
20
-0.0289561
11
0.148655
21
-0.0273289
0
LINE
8
BLACK
6
CONTINUOUS
10
0.148655
20
-0.0273289
11
0.147028
21
-0.0248936
0
LINE
8
BLACK
6
CONTINUOUS
10
0.147028
20
-0.0248936
11
0.146457
21
-0.0220209
0
LINE
8
BLACK
6
CONTINUOUS
10
0.146457
20
-0.0220209
11
0.146457
21
0.022021
0
LINE
8
BLACK
6
CONTINUOUS
10
0.146457
20
0.022021
11
0.147028
21
0.0248936
0
LINE
8
BLACK
6
CONTINUOUS
10
0.147028
20
0.0248936
11
0.148655
21
0.0273289
0
LINE
8
BLACK
6
CONTINUOUS
10
0.148655
20
0.0273289
11
0.151091
21
0.0289561
0
LINE
8
BLACK
6
CONTINUOUS
10
0.151091
20
0.0289561
11
0.153963
21
0.0295275
0
LINE
8
BLACK
6
CONTINUOUS
10
0.153963
20
0.0295275
11
0.195249
21
0.0295276
0
LINE
8
BLACK
6
CONTINUOUS
10
0.195249
20
0.0295276
11
0.198122
21
0.0289561
0
LINE
8
BLACK
6
CONTINUOUS
10
0.348909
20
0.0289561
11
0.351345
21
0.0273289
0
LINE
8
BLACK
6
CONTINUOUS
10
0.351345
20
0.0273289
11
0.352972
21
0.0248936
0
LINE
8
BLACK
6
CONTINUOUS
10
0.352972
20
0.0248936
11
0.353543
21
0.0220209
0
LINE
8
BLACK
6
CONTINUOUS
10
0.353543
20
0.0220209
11
0.353543
21
-0.022021
0
LINE
8
BLACK
6
CONTINUOUS
10
0.353543
20
-0.022021
11
0.352972
21
-0.0248936
0
LINE
8
BLACK
6
CONTINUOUS
10
0.352972
20
-0.0248936
11
0.351345
21
-0.0273289
0
LINE
8
BLACK
6
CONTINUOUS
10
0.351345
20
-0.0273289
11
0.348909
21
-0.0289561
0
LINE
8
BLACK
6
CONTINUOUS
10
0.348909
20
-0.0289561
11
0.346037
21
-0.0295275
0
LINE
8
BLACK
6
CONTINUOUS
10
0.346037
20
-0.0295275
11
0.304751
21
-0.0295276
0
LINE
8
BLACK
6
CONTINUOUS
10
0.304751
20
-0.0295276
11
0.301878
21
-0.0289561
0
LINE
8
BLACK
6
CONTINUOUS
10
0.301878
20
-0.0289561
11
0.299443
21
-0.0273289
0
LINE
8
BLACK
6
CONTINUOUS
10
0.299443
20
-0.0273289
11
0.297816
21
-0.0248936
0
LINE
8
BLACK
6
CONTINUOUS
10
0.297816
20
-0.0248936
11
0.297244
21
-0.0220209
0
LINE
8
BLACK
6
CONTINUOUS
10
0.297244
20
-0.0220209
11
0.297244
21
0.022021
0
LINE
8
BLACK
6
CONTINUOUS
10
0.297244
20
0.022021
11
0.297816
21
0.0248936
0
LINE
8
BLACK
6
CONTINUOUS
10
0.297816
20
0.0248936
11
0.299443
21
0.0273289
0
LINE
8
BLACK
6
CONTINUOUS
10
0.299443
20
0.0273289
11
0.301878
21
0.0289561
0
LINE
8
BLACK
6
CONTINUOUS
10
0.301878
20
0.0289561
11
0.304751
21
0.0295275
0
LINE
8
BLACK
6
CONTINUOUS
10
0.304751
20
0.0295275
11
0.346037
21
0.0295276
0
LINE
8
BLACK
6
CONTINUOUS
10
0.346037
20
0.0295276
11
0.348909
21
0.0289561
0
LINE
8
BLACK
6
CONTINUOUS
10
-0.0643437
20
0.309684
11
-0.0611505
21
0.30755
0
LINE
8
BLACK
6
CONTINUOUS
10
-0.0611505
20
0.30755
11
-0.0590169
21
0.304357
0
LINE
8
BLACK
6
CONTINUOUS
10
-0.0590169
20
0.304357
11
-0.0582677
21
0.300591
0
LINE
8
BLACK
6
CONTINUOUS
10
-0.0582677
20
0.300591
11
-0.0582677
21
0.249409
0
LINE
8
BLACK
6
CONTINUOUS
10
-0.0582677
20
0.249409
11
-0.0590169
21
0.245643
0
LINE
8
BLACK
6
CONTINUOUS
10
-0.0590169
20
0.245643
11
-0.0611505
21
0.24245
0
LINE
8
BLACK
6
CONTINUOUS
10
-0.0611505
20
0.24245
11
-0.0643437
21
0.240316
0
LINE
8
BLACK
6
CONTINUOUS
10
-0.0643437
20
0.240316
11
-0.0681102
21
0.239567
0
LINE
8
BLACK
6
CONTINUOUS
10
-0.0681102
20
0.239567
11
-0.14685
21
0.239567
0
LINE
8
BLACK
6
CONTINUOUS
10
-0.14685
20
0.239567
11
-0.150617
21
0.240316
0
LINE
8
BLACK
6
CONTINUOUS
10
-0.150617
20
0.240316
11
-0.15381
21
0.24245
0
LINE
8
BLACK
6
CONTINUOUS
10
-0.15381
20
0.24245
11
-0.155944
21
0.245643
0
LINE
8
BLACK
6
CONTINUOUS
10
-0.155944
20
0.245643
11
-0.156693
21
0.249409
0
LINE
8
BLACK
6
CONTINUOUS
10
-0.156693
20
0.249409
11
-0.156693
21
0.300591
0
LINE
8
BLACK
6
CONTINUOUS
10
-0.156693
20
0.300591
11
-0.155944
21
0.304357
0
LINE
8
BLACK
6
CONTINUOUS
10
-0.155944
20
0.304357
11
-0.15381
21
0.30755
0
LINE
8
BLACK
6
CONTINUOUS
10
-0.15381
20
0.30755
11
-0.150617
21
0.309684
0
LINE
8
BLACK
6
CONTINUOUS
10
-0.150617
20
0.309684
11
-0.14685
21
0.310433
0
LINE
8
BLACK
6
CONTINUOUS
10
-0.14685
20
0.310433
11
-0.0681102
21
0.310433
0
LINE
8
BLACK
6
CONTINUOUS
10
-0.0681102
20
0.310433
11
-0.0643437
21
0.309684
0
LINE
8
BLACK
6
CONTINUOUS
10
0.0931367
20
0.309684
11
0.0963298
21
0.30755
0
LINE
8
BLACK
6
CONTINUOUS
10
0.0963298
20
0.30755
11
0.0984634
21
0.304357
0
LINE
8
BLACK
6
CONTINUOUS
10
0.0984634
20
0.304357
11
0.0992126
21
0.300591
0
LINE
8
BLACK
6
CONTINUOUS
10
0.0992126
20
0.300591
11
0.0992126
21
0.249409
0
LINE
8
BLACK
6
CONTINUOUS
10
0.0992126
20
0.249409
11
0.0984634
21
0.245643
0
LINE
8
BLACK
6
CONTINUOUS
10
0.0984634
20
0.245643
11
0.0963298
21
0.24245
0
LINE
8
BLACK
6
CONTINUOUS
10
0.0963298
20
0.24245
11
0.0931367
21
0.240316
0
LINE
8
BLACK
6
CONTINUOUS
10
0.0931367
20
0.240316
11
0.0893701
21
0.239567
0
LINE
8
BLACK
6
CONTINUOUS
10
0.0893701
20
0.239567
11
0.0106299
21
0.239567
0
LINE
8
BLACK
6
CONTINUOUS
10
0.0106299
20
0.239567
11
0.00686335
21
0.240316
0
LINE
8
BLACK
6
CONTINUOUS
10
0.00686335
20
0.240316
11
0.0036702
21
0.24245
0
LINE
8
BLACK
6
CONTINUOUS
10
0.0036702
20
0.24245
11
0.00153661
21
0.245643
0
LINE
8
BLACK
6
CONTINUOUS
10
0.00153661
20
0.245643
11
0.000787402
21
0.249409
0
LINE
8
BLACK
6
CONTINUOUS
10
0.000787402
20
0.249409
11
0.000787402
21
0.300591
0
LINE
8
BLACK
6
CONTINUOUS
10
0.000787402
20
0.300591
11
0.00153661
21
0.304357
0
LINE
8
BLACK
6
CONTINUOUS
10
0.00153661
20
0.304357
11
0.0036702
21
0.30755
0
LINE
8
BLACK
6
CONTINUOUS
10
0.0036702
20
0.30755
11
0.00686335
21
0.309684
0
LINE
8
BLACK
6
CONTINUOUS
10
0.00686335
20
0.309684
11
0.0106299
21
0.310433
0
LINE
8
BLACK
6
CONTINUOUS
10
0.0106299
20
0.310433
11
0.0893701
21
0.310433
0
LINE
8
BLACK
6
CONTINUOUS
10
0.0893701
20
0.310433
11
0.0931367
21
0.309684
0
LINE
8
BLACK
6
CONTINUOUS
10
0.96
20
0.3275
11
0.925
21
0.3275
0
LINE
8
BLACK
6
CONTINUOUS
10
0.925
20
0.3275
11
0.925
21
0.3825
0
LINE
8
BLACK
6
CONTINUOUS
10
0.925
20
0.3825
11
0.96
21
0.3825
0
LINE
8
BLACK
6
CONTINUOUS
10
0.96
20
0.3825
11
0.96
21
0.3275
0
LINE
8
BLACK
6
CONTINUOUS
10
1.035
20
0.3275
11
1
21
0.3275
0
LINE
8
BLACK
6
CONTINUOUS
10
1
20
0.3275
11
1
21
0.3825
0
LINE
8
BLACK
6
CONTINUOUS
10
1
20
0.3825
11
1.035
21
0.3825
0
LINE
8
BLACK
6
CONTINUOUS
10
1.035
20
0.3825
11
1.035
21
0.3275
0
LINE
8
BLACK
6
CONTINUOUS
10
0.739032
20
0.389773
11
0.73983
21
0.38924
0
LINE
8
BLACK
6
CONTINUOUS
10
0.73983
20
0.38924
11
0.740364
21
0.388442
0
LINE
8
BLACK
6
CONTINUOUS
10
0.740364
20
0.388442
11
0.740551
21
0.3875
0
LINE
8
BLACK
6
CONTINUOUS
10
0.740551
20
0.3875
11
0.740551
21
0.359941
0
LINE
8
BLACK
6
CONTINUOUS
10
0.740551
20
0.359941
11
0.740364
21
0.358999
0
LINE
8
BLACK
6
CONTINUOUS
10
0.740364
20
0.358999
11
0.73983
21
0.358201
0
LINE
8
BLACK
6
CONTINUOUS
10
0.73983
20
0.358201
11
0.739032
21
0.357668
0
LINE
8
BLACK
6
CONTINUOUS
10
0.739032
20
0.357668
11
0.738091
21
0.35748
0
LINE
8
BLACK
6
CONTINUOUS
10
0.738091
20
0.35748
11
0.733169
21
0.35748
0
LINE
8
BLACK
6
CONTINUOUS
10
0.733169
20
0.35748
11
0.732228
21
0.357668
0
LINE
8
BLACK
6
CONTINUOUS
10
0.732228
20
0.357668
11
0.731429
21
0.358201
0
LINE
8
BLACK
6
CONTINUOUS
10
0.731429
20
0.358201
11
0.730896
21
0.358999
0
LINE
8
BLACK
6
CONTINUOUS
10
0.730896
20
0.358999
11
0.730709
21
0.359941
0
LINE
8
BLACK
6
CONTINUOUS
10
0.730709
20
0.359941
11
0.730709
21
0.3875
0
LINE
8
BLACK
6
CONTINUOUS
10
0.730709
20
0.3875
11
0.730896
21
0.388442
0
LINE
8
BLACK
6
CONTINUOUS
10
0.730896
20
0.388442
11
0.731429
21
0.38924
0
LINE
8
BLACK
6
CONTINUOUS
10
0.731429
20
0.38924
11
0.732228
21
0.389773
0
LINE
8
BLACK
6
CONTINUOUS
10
0.732228
20
0.389773
11
0.733169
21
0.389961
0
LINE
8
BLACK
6
CONTINUOUS
10
0.733169
20
0.389961
11
0.738091
21
0.389961
0
LINE
8
BLACK
6
CONTINUOUS
10
0.738091
20
0.389961
11
0.739032
21
0.389773
0
LINE
8
BLACK
6
CONTINUOUS
10
0.758717
20
0.389773
11
0.759516
21
0.38924
0
LINE
8
BLACK
6
CONTINUOUS
10
0.759516
20
0.38924
11
0.760049
21
0.388442
0
LINE
8
BLACK
6
CONTINUOUS
10
0.760049
20
0.388442
11
0.760236
21
0.3875
0
LINE
8
BLACK
6
CONTINUOUS
10
0.760236
20
0.3875
11
0.760236
21
0.359941
0
LINE
8
BLACK
6
CONTINUOUS
10
0.760236
20
0.359941
11
0.760049
21
0.358999
0
LINE
8
BLACK
6
CONTINUOUS
10
0.760049
20
0.358999
11
0.759516
21
0.358201
0
LINE
8
BLACK
6
CONTINUOUS
10
0.759516
20
0.358201
11
0.758717
21
0.357668
0
LINE
8
BLACK
6
CONTINUOUS
10
0.758717
20
0.357668
11
0.757776
21
0.35748
0
LINE
8
BLACK
6
CONTINUOUS
10
0.757776
20
0.35748
11
0.752854
21
0.35748
0
LINE
8
BLACK
6
CONTINUOUS
10
0.752854
20
0.35748
11
0.751913
21
0.357668
0
LINE
8
BLACK
6
CONTINUOUS
10
0.751913
20
0.357668
11
0.751114
21
0.358201
0
LINE
8
BLACK
6
CONTINUOUS
10
0.751114
20
0.358201
11
0.750581
21
0.358999
0
LINE
8
BLACK
6
CONTINUOUS
10
0.750581
20
0.358999
11
0.750394
21
0.359941
0
LINE
8
BLACK
6
CONTINUOUS
10
0.750394
20
0.359941
11
0.750394
21
0.3875
0
LINE
8
BLACK
6
CONTINUOUS
10
0.750394
20
0.3875
11
0.750581
21
0.388442
0
LINE
8
BLACK
6
CONTINUOUS
10
0.750581
20
0.388442
11
0.751114
21
0.38924
0
LINE
8
BLACK
6
CONTINUOUS
10
0.751114
20
0.38924
11
0.751913
21
0.389773
0
LINE
8
BLACK
6
CONTINUOUS
10
0.751913
20
0.389773
11
0.752854
21
0.389961
0
LINE
8
BLACK
6
CONTINUOUS
10
0.752854
20
0.389961
11
0.757776
21
0.389961
0
LINE
8
BLACK
6
CONTINUOUS
10
0.757776
20
0.389961
11
0.758717
21
0.389773
0
LINE
8
BLACK
6
CONTINUOUS
10
0.778402
20
0.389773
11
0.779201
21
0.38924
0
LINE
8
BLACK
6
CONTINUOUS
10
0.779201
20
0.38924
11
0.779734
21
0.388442
0
LINE
8
BLACK
6
CONTINUOUS
10
0.779734
20
0.388442
11
0.779921
21
0.3875
0
LINE
8
BLACK
6
CONTINUOUS
10
0.779921
20
0.3875
11
0.779921
21
0.359941
0
LINE
8
BLACK
6
CONTINUOUS
10
0.779921
20
0.359941
11
0.779734
21
0.358999
0
LINE
8
BLACK
6
CONTINUOUS
10
0.779734
20
0.358999
11
0.779201
21
0.358201
0
LINE
8
BLACK
6
CONTINUOUS
10
0.779201
20
0.358201
11
0.778402
21
0.357668
0
LINE
8
BLACK
6
CONTINUOUS
10
0.778402
20
0.357668
11
0.777461
21
0.35748
0
LINE
8
BLACK
6
CONTINUOUS
10
0.777461
20
0.35748
11
0.772539
21
0.35748
0
LINE
8
BLACK
6
CONTINUOUS
10
0.772539
20
0.35748
11
0.771598
21
0.357668
0
LINE
8
BLACK
6
CONTINUOUS
10
0.771598
20
0.357668
11
0.770799
21
0.358201
0
LINE
8
BLACK
6
CONTINUOUS
10
0.770799
20
0.358201
11
0.770266
21
0.358999
0
LINE
8
BLACK
6
CONTINUOUS
10
0.770266
20
0.358999
11
0.770079
21
0.359941
0
LINE
8
BLACK
6
CONTINUOUS
10
0.770079
20
0.359941
11
0.770079
21
0.3875
0
LINE
8
BLACK
6
CONTINUOUS
10
0.770079
20
0.3875
11
0.770266
21
0.388442
0
LINE
8
BLACK
6
CONTINUOUS
10
0.770266
20
0.388442
11
0.770799
21
0.38924
0
LINE
8
BLACK
6
CONTINUOUS
10
0.770799
20
0.38924
11
0.771598
21
0.389773
0
LINE
8
BLACK
6
CONTINUOUS
10
0.771598
20
0.389773
11
0.772539
21
0.389961
0
LINE
8
BLACK
6
CONTINUOUS
10
0.772539
20
0.389961
11
0.777461
21
0.389961
0
LINE
8
BLACK
6
CONTINUOUS
10
0.777461
20
0.389961
11
0.778402
21
0.389773
0
LINE
8
BLACK
6
CONTINUOUS
10
0.798087
20
0.389773
11
0.798886
21
0.38924
0
LINE
8
BLACK
6
CONTINUOUS
10
0.798886
20
0.38924
11
0.799419
21
0.388442
0
LINE
8
BLACK
6
CONTINUOUS
10
0.799419
20
0.388442
11
0.799606
21
0.3875
0
LINE
8
BLACK
6
CONTINUOUS
10
0.799606
20
0.3875
11
0.799606
21
0.359941
0
LINE
8
BLACK
6
CONTINUOUS
10
0.799606
20
0.359941
11
0.799419
21
0.358999
0
LINE
8
BLACK
6
CONTINUOUS
10
0.799419
20
0.358999
11
0.798886
21
0.358201
0
LINE
8
BLACK
6
CONTINUOUS
10
0.798886
20
0.358201
11
0.798087
21
0.357668
0
LINE
8
BLACK
6
CONTINUOUS
10
0.798087
20
0.357668
11
0.797146
21
0.35748
0
LINE
8
BLACK
6
CONTINUOUS
10
0.797146
20
0.35748
11
0.792224
21
0.35748
0
LINE
8
BLACK
6
CONTINUOUS
10
0.792224
20
0.35748
11
0.791283
21
0.357668
0
LINE
8
BLACK
6
CONTINUOUS
10
0.791283
20
0.357668
11
0.790484
21
0.358201
0
LINE
8
BLACK
6
CONTINUOUS
10
0.790484
20
0.358201
11
0.789951
21
0.358999
0
LINE
8
BLACK
6
CONTINUOUS
10
0.789951
20
0.358999
11
0.789764
21
0.359941
0
LINE
8
BLACK
6
CONTINUOUS
10
0.789764
20
0.359941
11
0.789764
21
0.3875
0
LINE
8
BLACK
6
CONTINUOUS
10
0.789764
20
0.3875
11
0.789951
21
0.388442
0
LINE
8
BLACK
6
CONTINUOUS
10
0.789951
20
0.388442
11
0.790484
21
0.38924
0
LINE
8
BLACK
6
CONTINUOUS
10
0.790484
20
0.38924
11
0.791283
21
0.389773
0
LINE
8
BLACK
6
CONTINUOUS
10
0.791283
20
0.389773
11
0.792224
21
0.389961
0
LINE
8
BLACK
6
CONTINUOUS
10
0.792224
20
0.389961
11
0.797146
21
0.389961
0
LINE
8
BLACK
6
CONTINUOUS
10
0.797146
20
0.389961
11
0.798087
21
0.389773
0
LINE
8
BLACK
6
CONTINUOUS
10
0.817772
20
0.389773
11
0.818571
21
0.38924
0
LINE
8
BLACK
6
CONTINUOUS
10
0.818571
20
0.38924
11
0.819104
21
0.388442
0
LINE
8
BLACK
6
CONTINUOUS
10
0.819104
20
0.388442
11
0.819291
21
0.3875
0
LINE
8
BLACK
6
CONTINUOUS
10
0.819291
20
0.3875
11
0.819291
21
0.359941
0
LINE
8
BLACK
6
CONTINUOUS
10
0.819291
20
0.359941
11
0.819104
21
0.358999
0
LINE
8
BLACK
6
CONTINUOUS
10
0.819104
20
0.358999
11
0.818571
21
0.358201
0
LINE
8
BLACK
6
CONTINUOUS
10
0.818571
20
0.358201
11
0.817772
21
0.357668
0
LINE
8
BLACK
6
CONTINUOUS
10
0.817772
20
0.357668
11
0.816831
21
0.35748
0
LINE
8
BLACK
6
CONTINUOUS
10
0.816831
20
0.35748
11
0.811909
21
0.35748
0
LINE
8
BLACK
6
CONTINUOUS
10
0.811909
20
0.35748
11
0.810968
21
0.357668
0
LINE
8
BLACK
6
CONTINUOUS
10
0.810968
20
0.357668
11
0.81017
21
0.358201
0
LINE
8
BLACK
6
CONTINUOUS
10
0.81017
20
0.358201
11
0.809636
21
0.358999
0
LINE
8
BLACK
6
CONTINUOUS
10
0.809636
20
0.358999
11
0.809449
21
0.359941
0
LINE
8
BLACK
6
CONTINUOUS
10
0.809449
20
0.359941
11
0.809449
21
0.3875
0
LINE
8
BLACK
6
CONTINUOUS
10
0.809449
20
0.3875
11
0.809636
21
0.388442
0
LINE
8
BLACK
6
CONTINUOUS
10
0.809636
20
0.388442
11
0.81017
21
0.38924
0
LINE
8
BLACK
6
CONTINUOUS
10
0.81017
20
0.38924
11
0.810968
21
0.389773
0
LINE
8
BLACK
6
CONTINUOUS
10
0.810968
20
0.389773
11
0.811909
21
0.389961
0
LINE
8
BLACK
6
CONTINUOUS
10
0.811909
20
0.389961
11
0.816831
21
0.389961
0
LINE
8
BLACK
6
CONTINUOUS
10
0.816831
20
0.389961
11
0.817772
21
0.389773
0
LINE
8
BLACK
6
CONTINUOUS
10
-0.0975
20
0.3825
11
-0.1525
21
0.3825
0
LINE
8
BLACK
6
CONTINUOUS
10
-0.1525
20
0.3825
11
-0.1525
21
0.4175
0
LINE
8
BLACK
6
CONTINUOUS
10
-0.1525
20
0.4175
11
-0.0975
21
0.4175
0
LINE
8
BLACK
6
CONTINUOUS
10
-0.0975
20
0.4175
11
-0.0975
21
0.3825
0
LINE
8
BLACK
6
CONTINUOUS
10
0.0025
20
0.3825
11
-0.0525
21
0.3825
0
LINE
8
BLACK
6
CONTINUOUS
10
-0.0525
20
0.3825
11
-0.0525
21
0.4175
0
LINE
8
BLACK
6
CONTINUOUS
10
-0.0525
20
0.4175
11
0.0025
21
0.4175
0
LINE
8
BLACK
6
CONTINUOUS
10
0.0025
20
0.4175
11
0.0025
21
0.3825
0
LINE
8
BLACK
6
CONTINUOUS
10
0.108858
20
0.383071
11
0.0340551
21
0.383071
0
LINE
8
BLACK
6
CONTINUOUS
10
0.0340551
20
0.383071
11
0.0340551
21
0.516929
0
LINE
8
BLACK
6
CONTINUOUS
10
0.0340551
20
0.516929
11
0.108858
21
0.516929
0
LINE
8
BLACK
6
CONTINUOUS
10
0.108858
20
0.516929
11
0.108858
21
0.383071
0
LINE
8
BLACK
6
CONTINUOUS
10
0.262402
20
0.383071
11
0.187598
21
0.383071
0
LINE
8
BLACK
6
CONTINUOUS
10
0.187598
20
0.383071
11
0.187598
21
0.516929
0
LINE
8
BLACK
6
CONTINUOUS
10
0.187598
20
0.516929
11
0.262402
21
0.516929
0
LINE
8
BLACK
6
CONTINUOUS
10
0.262402
20
0.516929
11
0.262402
21
0.383071
0
LINE
8
BLACK
6
CONTINUOUS
10
0.7642
20
0.444526
11
0.767393
21
0.442393
0
LINE
8
BLACK
6
CONTINUOUS
10
0.767393
20
0.442393
11
0.769526
21
0.4392
0
LINE
8
BLACK
6
CONTINUOUS
10
0.769526
20
0.4392
11
0.770276
21
0.435433
0
LINE
8
BLACK
6
CONTINUOUS
10
0.770276
20
0.435433
11
0.770276
21
0.415354
0
LINE
8
BLACK
6
CONTINUOUS
10
0.770276
20
0.415354
11
0.769526
21
0.411588
0
LINE
8
BLACK
6
CONTINUOUS
10
0.769526
20
0.411588
11
0.767393
21
0.408395
0
LINE
8
BLACK
6
CONTINUOUS
10
0.767393
20
0.408395
11
0.7642
21
0.406261
0
LINE
8
BLACK
6
CONTINUOUS
10
0.7642
20
0.406261
11
0.760433
21
0.405512
0
LINE
8
BLACK
6
CONTINUOUS
10
0.760433
20
0.405512
11
0.740354
21
0.405512
0
LINE
8
BLACK
6
CONTINUOUS
10
0.740354
20
0.405512
11
0.736588
21
0.406261
0
LINE
8
BLACK
6
CONTINUOUS
10
0.736588
20
0.406261
11
0.733395
21
0.408395
0
LINE
8
BLACK
6
CONTINUOUS
10
0.733395
20
0.408395
11
0.731261
21
0.411588
0
LINE
8
BLACK
6
CONTINUOUS
10
0.731261
20
0.411588
11
0.730512
21
0.415354
0
LINE
8
BLACK
6
CONTINUOUS
10
0.730512
20
0.415354
11
0.730512
21
0.435433
0
LINE
8
BLACK
6
CONTINUOUS
10
0.730512
20
0.435433
11
0.731261
21
0.4392
0
LINE
8
BLACK
6
CONTINUOUS
10
0.731261
20
0.4392
11
0.733395
21
0.442393
0
LINE
8
BLACK
6
CONTINUOUS
10
0.733395
20
0.442393
11
0.736588
21
0.444526
0
LINE
8
BLACK
6
CONTINUOUS
10
0.736588
20
0.444526
11
0.740354
21
0.445276
0
LINE
8
BLACK
6
CONTINUOUS
10
0.740354
20
0.445276
11
0.760433
21
0.445276
0
LINE
8
BLACK
6
CONTINUOUS
10
0.760433
20
0.445276
11
0.7642
21
0.444526
0
LINE
8
BLACK
6
CONTINUOUS
10
0.813412
20
0.444526
11
0.816605
21
0.442393
0
LINE
8
BLACK
6
CONTINUOUS
10
0.816605
20
0.442393
11
0.818739
21
0.4392
0
LINE
8
BLACK
6
CONTINUOUS
10
0.818739
20
0.4392
11
0.819488
21
0.435433
0
LINE
8
BLACK
6
CONTINUOUS
10
0.819488
20
0.435433
11
0.819488
21
0.415354
0
LINE
8
BLACK
6
CONTINUOUS
10
0.819488
20
0.415354
11
0.818739
21
0.411588
0
LINE
8
BLACK
6
CONTINUOUS
10
0.818739
20
0.411588
11
0.816605
21
0.408395
0
LINE
8
BLACK
6
CONTINUOUS
10
0.816605
20
0.408395
11
0.813412
21
0.406261
0
LINE
8
BLACK
6
CONTINUOUS
10
0.813412
20
0.406261
11
0.809646
21
0.405512
0
LINE
8
BLACK
6
CONTINUOUS
10
0.809646
20
0.405512
11
0.789567
21
0.405512
0
LINE
8
BLACK
6
CONTINUOUS
10
0.789567
20
0.405512
11
0.7858
21
0.406261
0
LINE
8
BLACK
6
CONTINUOUS
10
0.7858
20
0.406261
11
0.782607
21
0.408395
0
LINE
8
BLACK
6
CONTINUOUS
10
0.782607
20
0.408395
11
0.780474
21
0.411588
0
LINE
8
BLACK
6
CONTINUOUS
10
0.780474
20
0.411588
11
0.779724
21
0.415354
0
LINE
8
BLACK
6
CONTINUOUS
10
0.779724
20
0.415354
11
0.779724
21
0.435433
0
LINE
8
BLACK
6
CONTINUOUS
10
0.779724
20
0.435433
11
0.780474
21
0.4392
0
LINE
8
BLACK
6
CONTINUOUS
10
0.780474
20
0.4392
11
0.782607
21
0.442393
0
LINE
8
BLACK
6
CONTINUOUS
10
0.782607
20
0.442393
11
0.7858
21
0.444526
0
LINE
8
BLACK
6
CONTINUOUS
10
0.7858
20
0.444526
11
0.789567
21
0.445276
0
LINE
8
BLACK
6
CONTINUOUS
10
0.789567
20
0.445276
11
0.809646
21
0.445276
0
LINE
8
BLACK
6
CONTINUOUS
10
0.809646
20
0.445276
11
0.813412
21
0.444526
0
LINE
8
BLACK
6
CONTINUOUS
10
0.713442
20
0.415364
11
0.71424
21
0.41483
0
LINE
8
BLACK
6
CONTINUOUS
10
0.71424
20
0.41483
11
0.714773
21
0.414032
0
LINE
8
BLACK
6
CONTINUOUS
10
0.714773
20
0.414032
11
0.714961
21
0.413091
0
LINE
8
BLACK
6
CONTINUOUS
10
0.714961
20
0.413091
11
0.714961
21
0.408169
0
LINE
8
BLACK
6
CONTINUOUS
10
0.714961
20
0.408169
11
0.714773
21
0.407228
0
LINE
8
BLACK
6
CONTINUOUS
10
0.714773
20
0.407228
11
0.71424
21
0.406429
0
LINE
8
BLACK
6
CONTINUOUS
10
0.71424
20
0.406429
11
0.713442
21
0.405896
0
LINE
8
BLACK
6
CONTINUOUS
10
0.713442
20
0.405896
11
0.7125
21
0.405709
0
LINE
8
BLACK
6
CONTINUOUS
10
0.7125
20
0.405709
11
0.684941
21
0.405709
0
LINE
8
BLACK
6
CONTINUOUS
10
0.684941
20
0.405709
11
0.683999
21
0.405896
0
LINE
8
BLACK
6
CONTINUOUS
10
0.683999
20
0.405896
11
0.683201
21
0.406429
0
LINE
8
BLACK
6
CONTINUOUS
10
0.683201
20
0.406429
11
0.682668
21
0.407228
0
LINE
8
BLACK
6
CONTINUOUS
10
0.682668
20
0.407228
11
0.68248
21
0.408169
0
LINE
8
BLACK
6
CONTINUOUS
10
0.68248
20
0.408169
11
0.68248
21
0.413091
0
LINE
8
BLACK
6
CONTINUOUS
10
0.68248
20
0.413091
11
0.682668
21
0.414032
0
LINE
8
BLACK
6
CONTINUOUS
10
0.682668
20
0.414032
11
0.683201
21
0.41483
0
LINE
8
BLACK
6
CONTINUOUS
10
0.683201
20
0.41483
11
0.683999
21
0.415364
0
LINE
8
BLACK
6
CONTINUOUS
10
0.683999
20
0.415364
11
0.684941
21
0.415551
0
LINE
8
BLACK
6
CONTINUOUS
10
0.684941
20
0.415551
11
0.7125
21
0.415551
0
LINE
8
BLACK
6
CONTINUOUS
10
0.7125
20
0.415551
11
0.713442
21
0.415364
0
LINE
8
BLACK
6
CONTINUOUS
10
0.866001
20
0.415364
11
0.866799
21
0.41483
0
LINE
8
BLACK
6
CONTINUOUS
10
0.866799
20
0.41483
11
0.867332
21
0.414032
0
LINE
8
BLACK
6
CONTINUOUS
10
0.867332
20
0.414032
11
0.86752
21
0.413091
0
LINE
8
BLACK
6
CONTINUOUS
10
0.86752
20
0.413091
11
0.86752
21
0.408169
0
LINE
8
BLACK
6
CONTINUOUS
10
0.86752
20
0.408169
11
0.867332
21
0.407228
0
LINE
8
BLACK
6
CONTINUOUS
10
0.867332
20
0.407228
11
0.866799
21
0.406429
0
LINE
8
BLACK
6
CONTINUOUS
10
0.866799
20
0.406429
11
0.866001
21
0.405896
0
LINE
8
BLACK
6
CONTINUOUS
10
0.866001
20
0.405896
11
0.865059
21
0.405709
0
LINE
8
BLACK
6
CONTINUOUS
10
0.865059
20
0.405709
11
0.8375
21
0.405709
0
LINE
8
BLACK
6
CONTINUOUS
10
0.8375
20
0.405709
11
0.836558
21
0.405896
0
LINE
8
BLACK
6
CONTINUOUS
10
0.836558
20
0.405896
11
0.83576
21
0.406429
0
LINE
8
BLACK
6
CONTINUOUS
10
0.83576
20
0.406429
11
0.835227
21
0.407228
0
LINE
8
BLACK
6
CONTINUOUS
10
0.835227
20
0.407228
11
0.835039
21
0.408169
0
LINE
8
BLACK
6
CONTINUOUS
10
0.835039
20
0.408169
11
0.835039
21
0.413091
0
LINE
8
BLACK
6
CONTINUOUS
10
0.835039
20
0.413091
11
0.835227
21
0.414032
0
LINE
8
BLACK
6
CONTINUOUS
10
0.835227
20
0.414032
11
0.83576
21
0.41483
0
LINE
8
BLACK
6
CONTINUOUS
10
0.83576
20
0.41483
11
0.836558
21
0.415364
0
LINE
8
BLACK
6
CONTINUOUS
10
0.836558
20
0.415364
11
0.8375
21
0.415551
0
LINE
8
BLACK
6
CONTINUOUS
10
0.8375
20
0.415551
11
0.865059
21
0.415551
0
LINE
8
BLACK
6
CONTINUOUS
10
0.865059
20
0.415551
11
0.866001
21
0.415364
0
LINE
8
BLACK
6
CONTINUOUS
10
0.713442
20
0.435049
11
0.71424
21
0.434516
0
LINE
8
BLACK
6
CONTINUOUS
10
0.71424
20
0.434516
11
0.714773
21
0.433717
0
LINE
8
BLACK
6
CONTINUOUS
10
0.714773
20
0.433717
11
0.714961
21
0.432776
0
LINE
8
BLACK
6
CONTINUOUS
10
0.714961
20
0.432776
11
0.714961
21
0.427854
0
LINE
8
BLACK
6
CONTINUOUS
10
0.714961
20
0.427854
11
0.714773
21
0.426913
0
LINE
8
BLACK
6
CONTINUOUS
10
0.714773
20
0.426913
11
0.71424
21
0.426114
0
LINE
8
BLACK
6
CONTINUOUS
10
0.71424
20
0.426114
11
0.713442
21
0.425581
0
LINE
8
BLACK
6
CONTINUOUS
10
0.713442
20
0.425581
11
0.7125
21
0.425394
0
LINE
8
BLACK
6
CONTINUOUS
10
0.7125
20
0.425394
11
0.684941
21
0.425394
0
LINE
8
BLACK
6
CONTINUOUS
10
0.684941
20
0.425394
11
0.683999
21
0.425581
0
LINE
8
BLACK
6
CONTINUOUS
10
0.683999
20
0.425581
11
0.683201
21
0.426114
0
LINE
8
BLACK
6
CONTINUOUS
10
0.683201
20
0.426114
11
0.682668
21
0.426913
0
LINE
8
BLACK
6
CONTINUOUS
10
0.682668
20
0.426913
11
0.68248
21
0.427854
0
LINE
8
BLACK
6
CONTINUOUS
10
0.68248
20
0.427854
11
0.68248
21
0.432776
0
LINE
8
BLACK
6
CONTINUOUS
10
0.68248
20
0.432776
11
0.682668
21
0.433717
0
LINE
8
BLACK
6
CONTINUOUS
10
0.682668
20
0.433717
11
0.683201
21
0.434516
0
LINE
8
BLACK
6
CONTINUOUS
10
0.683201
20
0.434516
11
0.683999
21
0.435049
0
LINE
8
BLACK
6
CONTINUOUS
10
0.683999
20
0.435049
11
0.684941
21
0.435236
0
LINE
8
BLACK
6
CONTINUOUS
10
0.684941
20
0.435236
11
0.7125
21
0.435236
0
LINE
8
BLACK
6
CONTINUOUS
10
0.7125
20
0.435236
11
0.713442
21
0.435049
0
LINE
8
BLACK
6
CONTINUOUS
10
0.866001
20
0.435049
11
0.866799
21
0.434516
0
LINE
8
BLACK
6
CONTINUOUS
10
0.866799
20
0.434516
11
0.867332
21
0.433717
0
LINE
8
BLACK
6
CONTINUOUS
10
0.867332
20
0.433717
11
0.86752
21
0.432776
0
LINE
8
BLACK
6
CONTINUOUS
10
0.86752
20
0.432776
11
0.86752
21
0.427854
0
LINE
8
BLACK
6
CONTINUOUS
10
0.86752
20
0.427854
11
0.867332
21
0.426913
0
LINE
8
BLACK
6
CONTINUOUS
10
0.867332
20
0.426913
11
0.866799
21
0.426114
0
LINE
8
BLACK
6
CONTINUOUS
10
0.866799
20
0.426114
11
0.866001
21
0.425581
0
LINE
8
BLACK
6
CONTINUOUS
10
0.866001
20
0.425581
11
0.865059
21
0.425394
0
LINE
8
BLACK
6
CONTINUOUS
10
0.865059
20
0.425394
11
0.8375
21
0.425394
0
LINE
8
BLACK
6
CONTINUOUS
10
0.8375
20
0.425394
11
0.836558
21
0.425581
0
LINE
8
BLACK
6
CONTINUOUS
10
0.836558
20
0.425581
11
0.83576
21
0.426114
0
LINE
8
BLACK
6
CONTINUOUS
10
0.83576
20
0.426114
11
0.835227
21
0.426913
0
LINE
8
BLACK
6
CONTINUOUS
10
0.835227
20
0.426913
11
0.835039
21
0.427854
0
LINE
8
BLACK
6
CONTINUOUS
10
0.835039
20
0.427854
11
0.835039
21
0.432776
0
LINE
8
BLACK
6
CONTINUOUS
10
0.835039
20
0.432776
11
0.835227
21
0.433717
0
LINE
8
BLACK
6
CONTINUOUS
10
0.835227
20
0.433717
11
0.83576
21
0.434516
0
LINE
8
BLACK
6
CONTINUOUS
10
0.83576
20
0.434516
11
0.836558
21
0.435049
0
LINE
8
BLACK
6
CONTINUOUS
10
0.836558
20
0.435049
11
0.8375
21
0.435236
0
LINE
8
BLACK
6
CONTINUOUS
10
0.8375
20
0.435236
11
0.865059
21
0.435236
0
LINE
8
BLACK
6
CONTINUOUS
10
0.865059
20
0.435236
11
0.866001
21
0.435049
0
LINE
8
BLACK
6
CONTINUOUS
10
0.713442
20
0.454734
11
0.71424
21
0.454201
0
LINE
8
BLACK
6
CONTINUOUS
10
0.71424
20
0.454201
11
0.714773
21
0.453402
0
LINE
8
BLACK
6
CONTINUOUS
10
0.714773
20
0.453402
11
0.714961
21
0.452461
0
LINE
8
BLACK
6
CONTINUOUS
10
0.714961
20
0.452461
11
0.714961
21
0.447539
0
LINE
8
BLACK
6
CONTINUOUS
10
0.714961
20
0.447539
11
0.714773
21
0.446598
0
LINE
8
BLACK
6
CONTINUOUS
10
0.714773
20
0.446598
11
0.71424
21
0.445799
0
LINE
8
BLACK
6
CONTINUOUS
10
0.71424
20
0.445799
11
0.713442
21
0.445266
0
LINE
8
BLACK
6
CONTINUOUS
10
0.713442
20
0.445266
11
0.7125
21
0.445079
0
LINE
8
BLACK
6
CONTINUOUS
10
0.7125
20
0.445079
11
0.684941
21
0.445079
0
LINE
8
BLACK
6
CONTINUOUS
10
0.684941
20
0.445079
11
0.683999
21
0.445266
0
LINE
8
BLACK
6
CONTINUOUS
10
0.683999
20
0.445266
11
0.683201
21
0.445799
0
LINE
8
BLACK
6
CONTINUOUS
10
0.683201
20
0.445799
11
0.682668
21
0.446598
0
LINE
8
BLACK
6
CONTINUOUS
10
0.682668
20
0.446598
11
0.68248
21
0.447539
0
LINE
8
BLACK
6
CONTINUOUS
10
0.68248
20
0.447539
11
0.68248
21
0.452461
0
LINE
8
BLACK
6
CONTINUOUS
10
0.68248
20
0.452461
11
0.682668
21
0.453402
0
LINE
8
BLACK
6
CONTINUOUS
10
0.682668
20
0.453402
11
0.683201
21
0.454201
0
LINE
8
BLACK
6
CONTINUOUS
10
0.683201
20
0.454201
11
0.683999
21
0.454734
0
LINE
8
BLACK
6
CONTINUOUS
10
0.683999
20
0.454734
11
0.684941
21
0.454921
0
LINE
8
BLACK
6
CONTINUOUS
10
0.684941
20
0.454921
11
0.7125
21
0.454921
0
LINE
8
BLACK
6
CONTINUOUS
10
0.7125
20
0.454921
11
0.713442
21
0.454734
0
LINE
8
BLACK
6
CONTINUOUS
10
0.866001
20
0.454734
11
0.866799
21
0.454201
0
LINE
8
BLACK
6
CONTINUOUS
10
0.866799
20
0.454201
11
0.867332
21
0.453402
0
LINE
8
BLACK
6
CONTINUOUS
10
0.867332
20
0.453402
11
0.86752
21
0.452461
0
LINE
8
BLACK
6
CONTINUOUS
10
0.86752
20
0.452461
11
0.86752
21
0.447539
0
LINE
8
BLACK
6
CONTINUOUS
10
0.86752
20
0.447539
11
0.867332
21
0.446598
0
LINE
8
BLACK
6
CONTINUOUS
10
0.867332
20
0.446598
11
0.866799
21
0.445799
0
LINE
8
BLACK
6
CONTINUOUS
10
0.866799
20
0.445799
11
0.866001
21
0.445266
0
LINE
8
BLACK
6
CONTINUOUS
10
0.866001
20
0.445266
11
0.865059
21
0.445079
0
LINE
8
BLACK
6
CONTINUOUS
10
0.865059
20
0.445079
11
0.8375
21
0.445079
0
LINE
8
BLACK
6
CONTINUOUS
10
0.8375
20
0.445079
11
0.836558
21
0.445266
0
LINE
8
BLACK
6
CONTINUOUS
10
0.836558
20
0.445266
11
0.83576
21
0.445799
0
LINE
8
BLACK
6
CONTINUOUS
10
0.83576
20
0.445799
11
0.835227
21
0.446598
0
LINE
8
BLACK
6
CONTINUOUS
10
0.835227
20
0.446598
11
0.835039
21
0.447539
0
LINE
8
BLACK
6
CONTINUOUS
10
0.835039
20
0.447539
11
0.835039
21
0.452461
0
LINE
8
BLACK
6
CONTINUOUS
10
0.835039
20
0.452461
11
0.835227
21
0.453402
0
LINE
8
BLACK
6
CONTINUOUS
10
0.835227
20
0.453402
11
0.83576
21
0.454201
0
LINE
8
BLACK
6
CONTINUOUS
10
0.83576
20
0.454201
11
0.836558
21
0.454734
0
LINE
8
BLACK
6
CONTINUOUS
10
0.836558
20
0.454734
11
0.8375
21
0.454921
0
LINE
8
BLACK
6
CONTINUOUS
10
0.8375
20
0.454921
11
0.865059
21
0.454921
0
LINE
8
BLACK
6
CONTINUOUS
10
0.865059
20
0.454921
11
0.866001
21
0.454734
0
LINE
8
BLACK
6
CONTINUOUS
10
0.7642
20
0.493739
11
0.767393
21
0.491605
0
LINE
8
BLACK
6
CONTINUOUS
10
0.767393
20
0.491605
11
0.769526
21
0.488412
0
LINE
8
BLACK
6
CONTINUOUS
10
0.769526
20
0.488412
11
0.770276
21
0.484646
0
LINE
8
BLACK
6
CONTINUOUS
10
0.770276
20
0.484646
11
0.770276
21
0.464567
0
LINE
8
BLACK
6
CONTINUOUS
10
0.770276
20
0.464567
11
0.769526
21
0.4608
0
LINE
8
BLACK
6
CONTINUOUS
10
0.769526
20
0.4608
11
0.767393
21
0.457607
0
LINE
8
BLACK
6
CONTINUOUS
10
0.767393
20
0.457607
11
0.7642
21
0.455474
0
LINE
8
BLACK
6
CONTINUOUS
10
0.7642
20
0.455474
11
0.760433
21
0.454724
0
LINE
8
BLACK
6
CONTINUOUS
10
0.760433
20
0.454724
11
0.740354
21
0.454724
0
LINE
8
BLACK
6
CONTINUOUS
10
0.740354
20
0.454724
11
0.736588
21
0.455474
0
LINE
8
BLACK
6
CONTINUOUS
10
0.736588
20
0.455474
11
0.733395
21
0.457607
0
LINE
8
BLACK
6
CONTINUOUS
10
0.733395
20
0.457607
11
0.731261
21
0.4608
0
LINE
8
BLACK
6
CONTINUOUS
10
0.731261
20
0.4608
11
0.730512
21
0.464567
0
LINE
8
BLACK
6
CONTINUOUS
10
0.730512
20
0.464567
11
0.730512
21
0.484646
0
LINE
8
BLACK
6
CONTINUOUS
10
0.730512
20
0.484646
11
0.731261
21
0.488412
0
LINE
8
BLACK
6
CONTINUOUS
10
0.731261
20
0.488412
11
0.733395
21
0.491605
0
LINE
8
BLACK
6
CONTINUOUS
10
0.733395
20
0.491605
11
0.736588
21
0.493739
0
LINE
8
BLACK
6
CONTINUOUS
10
0.736588
20
0.493739
11
0.740354
21
0.494488
0
LINE
8
BLACK
6
CONTINUOUS
10
0.740354
20
0.494488
11
0.760433
21
0.494488
0
LINE
8
BLACK
6
CONTINUOUS
10
0.760433
20
0.494488
11
0.7642
21
0.493739
0
LINE
8
BLACK
6
CONTINUOUS
10
0.813412
20
0.493739
11
0.816605
21
0.491605
0
LINE
8
BLACK
6
CONTINUOUS
10
0.816605
20
0.491605
11
0.818739
21
0.488412
0
LINE
8
BLACK
6
CONTINUOUS
10
0.818739
20
0.488412
11
0.819488
21
0.484646
0
LINE
8
BLACK
6
CONTINUOUS
10
0.819488
20
0.484646
11
0.819488
21
0.464567
0
LINE
8
BLACK
6
CONTINUOUS
10
0.819488
20
0.464567
11
0.818739
21
0.4608
0
LINE
8
BLACK
6
CONTINUOUS
10
0.818739
20
0.4608
11
0.816605
21
0.457607
0
LINE
8
BLACK
6
CONTINUOUS
10
0.816605
20
0.457607
11
0.813412
21
0.455474
0
LINE
8
BLACK
6
CONTINUOUS
10
0.813412
20
0.455474
11
0.809646
21
0.454724
0
LINE
8
BLACK
6
CONTINUOUS
10
0.809646
20
0.454724
11
0.789567
21
0.454724
0
LINE
8
BLACK
6
CONTINUOUS
10
0.789567
20
0.454724
11
0.7858
21
0.455474
0
LINE
8
BLACK
6
CONTINUOUS
10
0.7858
20
0.455474
11
0.782607
21
0.457607
0
LINE
8
BLACK
6
CONTINUOUS
10
0.782607
20
0.457607
11
0.780474
21
0.4608
0
LINE
8
BLACK
6
CONTINUOUS
10
0.780474
20
0.4608
11
0.779724
21
0.464567
0
LINE
8
BLACK
6
CONTINUOUS
10
0.779724
20
0.464567
11
0.779724
21
0.484646
0
LINE
8
BLACK
6
CONTINUOUS
10
0.779724
20
0.484646
11
0.780474
21
0.488412
0
LINE
8
BLACK
6
CONTINUOUS
10
0.780474
20
0.488412
11
0.782607
21
0.491605
0
LINE
8
BLACK
6
CONTINUOUS
10
0.782607
20
0.491605
11
0.7858
21
0.493739
0
LINE
8
BLACK
6
CONTINUOUS
10
0.7858
20
0.493739
11
0.789567
21
0.494488
0
LINE
8
BLACK
6
CONTINUOUS
10
0.789567
20
0.494488
11
0.809646
21
0.494488
0
LINE
8
BLACK
6
CONTINUOUS
10
0.809646
20
0.494488
11
0.813412
21
0.493739
0
LINE
8
BLACK
6
CONTINUOUS
10
-0.0975
20
0.4575
11
-0.1525
21
0.4575
0
LINE
8
BLACK
6
CONTINUOUS
10
-0.1525
20
0.4575
11
-0.1525
21
0.4925
0
LINE
8
BLACK
6
CONTINUOUS
10
-0.1525
20
0.4925
11
-0.0975
21
0.4925
0
LINE
8
BLACK
6
CONTINUOUS
10
-0.0975
20
0.4925
11
-0.0975
21
0.4575
0
LINE
8
BLACK
6
CONTINUOUS
10
0.0025
20
0.4575
11
-0.0525
21
0.4575
0
LINE
8
BLACK
6
CONTINUOUS
10
-0.0525
20
0.4575
11
-0.0525
21
0.4925
0
LINE
8
BLACK
6
CONTINUOUS
10
-0.0525
20
0.4925
11
0.0025
21
0.4925
0
LINE
8
BLACK
6
CONTINUOUS
10
0.0025
20
0.4925
11
0.0025
21
0.4575
0
LINE
8
BLACK
6
CONTINUOUS
10
0.713442
20
0.474419
11
0.71424
21
0.473886
0
LINE
8
BLACK
6
CONTINUOUS
10
0.71424
20
0.473886
11
0.714773
21
0.473087
0
LINE
8
BLACK
6
CONTINUOUS
10
0.714773
20
0.473087
11
0.714961
21
0.472146
0
LINE
8
BLACK
6
CONTINUOUS
10
0.714961
20
0.472146
11
0.714961
21
0.467224
0
LINE
8
BLACK
6
CONTINUOUS
10
0.714961
20
0.467224
11
0.714773
21
0.466283
0
LINE
8
BLACK
6
CONTINUOUS
10
0.714773
20
0.466283
11
0.71424
21
0.465484
0
LINE
8
BLACK
6
CONTINUOUS
10
0.71424
20
0.465484
11
0.713442
21
0.464951
0
LINE
8
BLACK
6
CONTINUOUS
10
0.713442
20
0.464951
11
0.7125
21
0.464764
0
LINE
8
BLACK
6
CONTINUOUS
10
0.7125
20
0.464764
11
0.684941
21
0.464764
0
LINE
8
BLACK
6
CONTINUOUS
10
0.684941
20
0.464764
11
0.683999
21
0.464951
0
LINE
8
BLACK
6
CONTINUOUS
10
0.683999
20
0.464951
11
0.683201
21
0.465484
0
LINE
8
BLACK
6
CONTINUOUS
10
0.683201
20
0.465484
11
0.682668
21
0.466283
0
LINE
8
BLACK
6
CONTINUOUS
10
0.682668
20
0.466283
11
0.68248
21
0.467224
0
LINE
8
BLACK
6
CONTINUOUS
10
0.68248
20
0.467224
11
0.68248
21
0.472146
0
LINE
8
BLACK
6
CONTINUOUS
10
0.68248
20
0.472146
11
0.682668
21
0.473087
0
LINE
8
BLACK
6
CONTINUOUS
10
0.682668
20
0.473087
11
0.683201
21
0.473886
0
LINE
8
BLACK
6
CONTINUOUS
10
0.683201
20
0.473886
11
0.683999
21
0.474419
0
LINE
8
BLACK
6
CONTINUOUS
10
0.683999
20
0.474419
11
0.684941
21
0.474606
0
LINE
8
BLACK
6
CONTINUOUS
10
0.684941
20
0.474606
11
0.7125
21
0.474606
0
LINE
8
BLACK
6
CONTINUOUS
10
0.7125
20
0.474606
11
0.713442
21
0.474419
0
LINE
8
BLACK
6
CONTINUOUS
10
0.866001
20
0.474419
11
0.866799
21
0.473886
0
LINE
8
BLACK
6
CONTINUOUS
10
0.866799
20
0.473886
11
0.867332
21
0.473087
0
LINE
8
BLACK
6
CONTINUOUS
10
0.867332
20
0.473087
11
0.86752
21
0.472146
0
LINE
8
BLACK
6
CONTINUOUS
10
0.86752
20
0.472146
11
0.86752
21
0.467224
0
LINE
8
BLACK
6
CONTINUOUS
10
0.86752
20
0.467224
11
0.867332
21
0.466283
0
LINE
8
BLACK
6
CONTINUOUS
10
0.867332
20
0.466283
11
0.866799
21
0.465484
0
LINE
8
BLACK
6
CONTINUOUS
10
0.866799
20
0.465484
11
0.866001
21
0.464951
0
LINE
8
BLACK
6
CONTINUOUS
10
0.866001
20
0.464951
11
0.865059
21
0.464764
0
LINE
8
BLACK
6
CONTINUOUS
10
0.865059
20
0.464764
11
0.8375
21
0.464764
0
LINE
8
BLACK
6
CONTINUOUS
10
0.8375
20
0.464764
11
0.836558
21
0.464951
0
LINE
8
BLACK
6
CONTINUOUS
10
0.836558
20
0.464951
11
0.83576
21
0.465484
0
LINE
8
BLACK
6
CONTINUOUS
10
0.83576
20
0.465484
11
0.835227
21
0.466283
0
LINE
8
BLACK
6
CONTINUOUS
10
0.835227
20
0.466283
11
0.835039
21
0.467224
0
LINE
8
BLACK
6
CONTINUOUS
10
0.835039
20
0.467224
11
0.835039
21
0.472146
0
LINE
8
BLACK
6
CONTINUOUS
10
0.835039
20
0.472146
11
0.835227
21
0.473087
0
LINE
8
BLACK
6
CONTINUOUS
10
0.835227
20
0.473087
11
0.83576
21
0.473886
0
LINE
8
BLACK
6
CONTINUOUS
10
0.83576
20
0.473886
11
0.836558
21
0.474419
0
LINE
8
BLACK
6
CONTINUOUS
10
0.836558
20
0.474419
11
0.8375
21
0.474606
0
LINE
8
BLACK
6
CONTINUOUS
10
0.8375
20
0.474606
11
0.865059
21
0.474606
0
LINE
8
BLACK
6
CONTINUOUS
10
0.865059
20
0.474606
11
0.866001
21
0.474419
0
LINE
8
BLACK
6
CONTINUOUS
10
0.713442
20
0.494104
11
0.71424
21
0.493571
0
LINE
8
BLACK
6
CONTINUOUS
10
0.71424
20
0.493571
11
0.714773
21
0.492772
0
LINE
8
BLACK
6
CONTINUOUS
10
0.714773
20
0.492772
11
0.714961
21
0.491831
0
LINE
8
BLACK
6
CONTINUOUS
10
0.714961
20
0.491831
11
0.714961
21
0.486909
0
LINE
8
BLACK
6
CONTINUOUS
10
0.714961
20
0.486909
11
0.714773
21
0.485968
0
LINE
8
BLACK
6
CONTINUOUS
10
0.714773
20
0.485968
11
0.71424
21
0.48517
0
LINE
8
BLACK
6
CONTINUOUS
10
0.71424
20
0.48517
11
0.713442
21
0.484636
0
LINE
8
BLACK
6
CONTINUOUS
10
0.713442
20
0.484636
11
0.7125
21
0.484449
0
LINE
8
BLACK
6
CONTINUOUS
10
0.7125
20
0.484449
11
0.684941
21
0.484449
0
LINE
8
BLACK
6
CONTINUOUS
10
0.684941
20
0.484449
11
0.683999
21
0.484636
0
LINE
8
BLACK
6
CONTINUOUS
10
0.683999
20
0.484636
11
0.683201
21
0.48517
0
LINE
8
BLACK
6
CONTINUOUS
10
0.683201
20
0.48517
11
0.682668
21
0.485968
0
LINE
8
BLACK
6
CONTINUOUS
10
0.682668
20
0.485968
11
0.68248
21
0.486909
0
LINE
8
BLACK
6
CONTINUOUS
10
0.68248
20
0.486909
11
0.68248
21
0.491831
0
LINE
8
BLACK
6
CONTINUOUS
10
0.68248
20
0.491831
11
0.682668
21
0.492772
0
LINE
8
BLACK
6
CONTINUOUS
10
0.682668
20
0.492772
11
0.683201
21
0.493571
0
LINE
8
BLACK
6
CONTINUOUS
10
0.683201
20
0.493571
11
0.683999
21
0.494104
0
LINE
8
BLACK
6
CONTINUOUS
10
0.683999
20
0.494104
11
0.684941
21
0.494291
0
LINE
8
BLACK
6
CONTINUOUS
10
0.684941
20
0.494291
11
0.7125
21
0.494291
0
LINE
8
BLACK
6
CONTINUOUS
10
0.7125
20
0.494291
11
0.713442
21
0.494104
0
LINE
8
BLACK
6
CONTINUOUS
10
0.866001
20
0.494104
11
0.866799
21
0.493571
0
LINE
8
BLACK
6
CONTINUOUS
10
0.866799
20
0.493571
11
0.867332
21
0.492772
0
LINE
8
BLACK
6
CONTINUOUS
10
0.867332
20
0.492772
11
0.86752
21
0.491831
0
LINE
8
BLACK
6
CONTINUOUS
10
0.86752
20
0.491831
11
0.86752
21
0.486909
0
LINE
8
BLACK
6
CONTINUOUS
10
0.86752
20
0.486909
11
0.867332
21
0.485968
0
LINE
8
BLACK
6
CONTINUOUS
10
0.867332
20
0.485968
11
0.866799
21
0.48517
0
LINE
8
BLACK
6
CONTINUOUS
10
0.866799
20
0.48517
11
0.866001
21
0.484636
0
LINE
8
BLACK
6
CONTINUOUS
10
0.866001
20
0.484636
11
0.865059
21
0.484449
0
LINE
8
BLACK
6
CONTINUOUS
10
0.865059
20
0.484449
11
0.8375
21
0.484449
0
LINE
8
BLACK
6
CONTINUOUS
10
0.8375
20
0.484449
11
0.836558
21
0.484636
0
LINE
8
BLACK
6
CONTINUOUS
10
0.836558
20
0.484636
11
0.83576
21
0.48517
0
LINE
8
BLACK
6
CONTINUOUS
10
0.83576
20
0.48517
11
0.835227
21
0.485968
0
LINE
8
BLACK
6
CONTINUOUS
10
0.835227
20
0.485968
11
0.835039
21
0.486909
0
LINE
8
BLACK
6
CONTINUOUS
10
0.835039
20
0.486909
11
0.835039
21
0.491831
0
LINE
8
BLACK
6
CONTINUOUS
10
0.835039
20
0.491831
11
0.835227
21
0.492772
0
LINE
8
BLACK
6
CONTINUOUS
10
0.835227
20
0.492772
11
0.83576
21
0.493571
0
LINE
8
BLACK
6
CONTINUOUS
10
0.83576
20
0.493571
11
0.836558
21
0.494104
0
LINE
8
BLACK
6
CONTINUOUS
10
0.836558
20
0.494104
11
0.8375
21
0.494291
0
LINE
8
BLACK
6
CONTINUOUS
10
0.8375
20
0.494291
11
0.865059
21
0.494291
0
LINE
8
BLACK
6
CONTINUOUS
10
0.865059
20
0.494291
11
0.866001
21
0.494104
0
LINE
8
BLACK
6
CONTINUOUS
10
0.739032
20
0.542332
11
0.73983
21
0.541799
0
LINE
8
BLACK
6
CONTINUOUS
10
0.73983
20
0.541799
11
0.740364
21
0.541001
0
LINE
8
BLACK
6
CONTINUOUS
10
0.740364
20
0.541001
11
0.740551
21
0.540059
0
LINE
8
BLACK
6
CONTINUOUS
10
0.740551
20
0.540059
11
0.740551
21
0.5125
0
LINE
8
BLACK
6
CONTINUOUS
10
0.740551
20
0.5125
11
0.740364
21
0.511558
0
LINE
8
BLACK
6
CONTINUOUS
10
0.740364
20
0.511558
11
0.73983
21
0.51076
0
LINE
8
BLACK
6
CONTINUOUS
10
0.73983
20
0.51076
11
0.739032
21
0.510227
0
LINE
8
BLACK
6
CONTINUOUS
10
0.739032
20
0.510227
11
0.738091
21
0.510039
0
LINE
8
BLACK
6
CONTINUOUS
10
0.738091
20
0.510039
11
0.733169
21
0.510039
0
LINE
8
BLACK
6
CONTINUOUS
10
0.733169
20
0.510039
11
0.732228
21
0.510227
0
LINE
8
BLACK
6
CONTINUOUS
10
0.732228
20
0.510227
11
0.731429
21
0.51076
0
LINE
8
BLACK
6
CONTINUOUS
10
0.731429
20
0.51076
11
0.730896
21
0.511558
0
LINE
8
BLACK
6
CONTINUOUS
10
0.730896
20
0.511558
11
0.730709
21
0.5125
0
LINE
8
BLACK
6
CONTINUOUS
10
0.730709
20
0.5125
11
0.730709
21
0.540059
0
LINE
8
BLACK
6
CONTINUOUS
10
0.730709
20
0.540059
11
0.730896
21
0.541001
0
LINE
8
BLACK
6
CONTINUOUS
10
0.730896
20
0.541001
11
0.731429
21
0.541799
0
LINE
8
BLACK
6
CONTINUOUS
10
0.731429
20
0.541799
11
0.732228
21
0.542332
0
LINE
8
BLACK
6
CONTINUOUS
10
0.732228
20
0.542332
11
0.733169
21
0.54252
0
LINE
8
BLACK
6
CONTINUOUS
10
0.733169
20
0.54252
11
0.738091
21
0.54252
0
LINE
8
BLACK
6
CONTINUOUS
10
0.738091
20
0.54252
11
0.739032
21
0.542332
0
LINE
8
BLACK
6
CONTINUOUS
10
0.758717
20
0.542332
11
0.759516
21
0.541799
0
LINE
8
BLACK
6
CONTINUOUS
10
0.759516
20
0.541799
11
0.760049
21
0.541001
0
LINE
8
BLACK
6
CONTINUOUS
10
0.760049
20
0.541001
11
0.760236
21
0.540059
0
LINE
8
BLACK
6
CONTINUOUS
10
0.760236
20
0.540059
11
0.760236
21
0.5125
0
LINE
8
BLACK
6
CONTINUOUS
10
0.760236
20
0.5125
11
0.760049
21
0.511558
0
LINE
8
BLACK
6
CONTINUOUS
10
0.760049
20
0.511558
11
0.759516
21
0.51076
0
LINE
8
BLACK
6
CONTINUOUS
10
0.759516
20
0.51076
11
0.758717
21
0.510227
0
LINE
8
BLACK
6
CONTINUOUS
10
0.758717
20
0.510227
11
0.757776
21
0.510039
0
LINE
8
BLACK
6
CONTINUOUS
10
0.757776
20
0.510039
11
0.752854
21
0.510039
0
LINE
8
BLACK
6
CONTINUOUS
10
0.752854
20
0.510039
11
0.751913
21
0.510227
0
LINE
8
BLACK
6
CONTINUOUS
10
0.751913
20
0.510227
11
0.751114
21
0.51076
0
LINE
8
BLACK
6
CONTINUOUS
10
0.751114
20
0.51076
11
0.750581
21
0.511558
0
LINE
8
BLACK
6
CONTINUOUS
10
0.750581
20
0.511558
11
0.750394
21
0.5125
0
LINE
8
BLACK
6
CONTINUOUS
10
0.750394
20
0.5125
11
0.750394
21
0.540059
0
LINE
8
BLACK
6
CONTINUOUS
10
0.750394
20
0.540059
11
0.750581
21
0.541001
0
LINE
8
BLACK
6
CONTINUOUS
10
0.750581
20
0.541001
11
0.751114
21
0.541799
0
LINE
8
BLACK
6
CONTINUOUS
10
0.751114
20
0.541799
11
0.751913
21
0.542332
0
LINE
8
BLACK
6
CONTINUOUS
10
0.751913
20
0.542332
11
0.752854
21
0.54252
0
LINE
8
BLACK
6
CONTINUOUS
10
0.752854
20
0.54252
11
0.757776
21
0.54252
0
LINE
8
BLACK
6
CONTINUOUS
10
0.757776
20
0.54252
11
0.758717
21
0.542332
0
LINE
8
BLACK
6
CONTINUOUS
10
0.778402
20
0.542332
11
0.779201
21
0.541799
0
LINE
8
BLACK
6
CONTINUOUS
10
0.779201
20
0.541799
11
0.779734
21
0.541001
0
LINE
8
BLACK
6
CONTINUOUS
10
0.779734
20
0.541001
11
0.779921
21
0.540059
0
LINE
8
BLACK
6
CONTINUOUS
10
0.779921
20
0.540059
11
0.779921
21
0.5125
0
LINE
8
BLACK
6
CONTINUOUS
10
0.779921
20
0.5125
11
0.779734
21
0.511558
0
LINE
8
BLACK
6
CONTINUOUS
10
0.779734
20
0.511558
11
0.779201
21
0.51076
0
LINE
8
BLACK
6
CONTINUOUS
10
0.779201
20
0.51076
11
0.778402
21
0.510227
0
LINE
8
BLACK
6
CONTINUOUS
10
0.778402
20
0.510227
11
0.777461
21
0.510039
0
LINE
8
BLACK
6
CONTINUOUS
10
0.777461
20
0.510039
11
0.772539
21
0.510039
0
LINE
8
BLACK
6
CONTINUOUS
10
0.772539
20
0.510039
11
0.771598
21
0.510227
0
LINE
8
BLACK
6
CONTINUOUS
10
0.771598
20
0.510227
11
0.770799
21
0.51076
0
LINE
8
BLACK
6
CONTINUOUS
10
0.770799
20
0.51076
11
0.770266
21
0.511558
0
LINE
8
BLACK
6
CONTINUOUS
10
0.770266
20
0.511558
11
0.770079
21
0.5125
0
LINE
8
BLACK
6
CONTINUOUS
10
0.770079
20
0.5125
11
0.770079
21
0.540059
0
LINE
8
BLACK
6
CONTINUOUS
10
0.770079
20
0.540059
11
0.770266
21
0.541001
0
LINE
8
BLACK
6
CONTINUOUS
10
0.770266
20
0.541001
11
0.770799
21
0.541799
0
LINE
8
BLACK
6
CONTINUOUS
10
0.770799
20
0.541799
11
0.771598
21
0.542332
0
LINE
8
BLACK
6
CONTINUOUS
10
0.771598
20
0.542332
11
0.772539
21
0.54252
0
LINE
8
BLACK
6
CONTINUOUS
10
0.772539
20
0.54252
11
0.777461
21
0.54252
0
LINE
8
BLACK
6
CONTINUOUS
10
0.777461
20
0.54252
11
0.778402
21
0.542332
0
LINE
8
BLACK
6
CONTINUOUS
10
0.798087
20
0.542332
11
0.798886
21
0.541799
0
LINE
8
BLACK
6
CONTINUOUS
10
0.798886
20
0.541799
11
0.799419
21
0.541001
0
LINE
8
BLACK
6
CONTINUOUS
10
0.799419
20
0.541001
11
0.799606
21
0.540059
0
LINE
8
BLACK
6
CONTINUOUS
10
0.799606
20
0.540059
11
0.799606
21
0.5125
0
LINE
8
BLACK
6
CONTINUOUS
10
0.799606
20
0.5125
11
0.799419
21
0.511558
0
LINE
8
BLACK
6
CONTINUOUS
10
0.799419
20
0.511558
11
0.798886
21
0.51076
0
LINE
8
BLACK
6
CONTINUOUS
10
0.798886
20
0.51076
11
0.798087
21
0.510227
0
LINE
8
BLACK
6
CONTINUOUS
10
0.798087
20
0.510227
11
0.797146
21
0.510039
0
LINE
8
BLACK
6
CONTINUOUS
10
0.797146
20
0.510039
11
0.792224
21
0.510039
0
LINE
8
BLACK
6
CONTINUOUS
10
0.792224
20
0.510039
11
0.791283
21
0.510227
0
LINE
8
BLACK
6
CONTINUOUS
10
0.791283
20
0.510227
11
0.790484
21
0.51076
0
LINE
8
BLACK
6
CONTINUOUS
10
0.790484
20
0.51076
11
0.789951
21
0.511558
0
LINE
8
BLACK
6
CONTINUOUS
10
0.789951
20
0.511558
11
0.789764
21
0.5125
0
LINE
8
BLACK
6
CONTINUOUS
10
0.789764
20
0.5125
11
0.789764
21
0.540059
0
LINE
8
BLACK
6
CONTINUOUS
10
0.789764
20
0.540059
11
0.789951
21
0.541001
0
LINE
8
BLACK
6
CONTINUOUS
10
0.789951
20
0.541001
11
0.790484
21
0.541799
0
LINE
8
BLACK
6
CONTINUOUS
10
0.790484
20
0.541799
11
0.791283
21
0.542332
0
LINE
8
BLACK
6
CONTINUOUS
10
0.791283
20
0.542332
11
0.792224
21
0.54252
0
LINE
8
BLACK
6
CONTINUOUS
10
0.792224
20
0.54252
11
0.797146
21
0.54252
0
LINE
8
BLACK
6
CONTINUOUS
10
0.797146
20
0.54252
11
0.798087
21
0.542332
0
LINE
8
BLACK
6
CONTINUOUS
10
0.817772
20
0.542332
11
0.818571
21
0.541799
0
LINE
8
BLACK
6
CONTINUOUS
10
0.818571
20
0.541799
11
0.819104
21
0.541001
0
LINE
8
BLACK
6
CONTINUOUS
10
0.819104
20
0.541001
11
0.819291
21
0.540059
0
LINE
8
BLACK
6
CONTINUOUS
10
0.819291
20
0.540059
11
0.819291
21
0.5125
0
LINE
8
BLACK
6
CONTINUOUS
10
0.819291
20
0.5125
11
0.819104
21
0.511558
0
LINE
8
BLACK
6
CONTINUOUS
10
0.819104
20
0.511558
11
0.818571
21
0.51076
0
LINE
8
BLACK
6
CONTINUOUS
10
0.818571
20
0.51076
11
0.817772
21
0.510227
0
LINE
8
BLACK
6
CONTINUOUS
10
0.817772
20
0.510227
11
0.816831
21
0.510039
0
LINE
8
BLACK
6
CONTINUOUS
10
0.816831
20
0.510039
11
0.811909
21
0.510039
0
LINE
8
BLACK
6
CONTINUOUS
10
0.811909
20
0.510039
11
0.810968
21
0.510227
0
LINE
8
BLACK
6
CONTINUOUS
10
0.810968
20
0.510227
11
0.81017
21
0.51076
0
LINE
8
BLACK
6
CONTINUOUS
10
0.81017
20
0.51076
11
0.809636
21
0.511558
0
LINE
8
BLACK
6
CONTINUOUS
10
0.809636
20
0.511558
11
0.809449
21
0.5125
0
LINE
8
BLACK
6
CONTINUOUS
10
0.809449
20
0.5125
11
0.809449
21
0.540059
0
LINE
8
BLACK
6
CONTINUOUS
10
0.809449
20
0.540059
11
0.809636
21
0.541001
0
LINE
8
BLACK
6
CONTINUOUS
10
0.809636
20
0.541001
11
0.81017
21
0.541799
0
LINE
8
BLACK
6
CONTINUOUS
10
0.81017
20
0.541799
11
0.810968
21
0.542332
0
LINE
8
BLACK
6
CONTINUOUS
10
0.810968
20
0.542332
11
0.811909
21
0.54252
0
LINE
8
BLACK
6
CONTINUOUS
10
0.811909
20
0.54252
11
0.816831
21
0.54252
0
LINE
8
BLACK
6
CONTINUOUS
10
0.816831
20
0.54252
11
0.817772
21
0.542332
0
LINE
8
BLACK
6
CONTINUOUS
10
0.43287
20
0.54896
11
0.434786
21
0.54768
0
LINE
8
BLACK
6
CONTINUOUS
10
0.434786
20
0.54768
11
0.436066
21
0.545764
0
LINE
8
BLACK
6
CONTINUOUS
10
0.436066
20
0.545764
11
0.436516
21
0.543504
0
LINE
8
BLACK
6
CONTINUOUS
10
0.436516
20
0.543504
11
0.436516
21
0.531693
0
LINE
8
BLACK
6
CONTINUOUS
10
0.436516
20
0.531693
11
0.436066
21
0.529433
0
LINE
8
BLACK
6
CONTINUOUS
10
0.436066
20
0.529433
11
0.434786
21
0.527517
0
LINE
8
BLACK
6
CONTINUOUS
10
0.434786
20
0.527517
11
0.43287
21
0.526237
0
LINE
8
BLACK
6
CONTINUOUS
10
0.43287
20
0.526237
11
0.43061
21
0.525787
0
LINE
8
BLACK
6
CONTINUOUS
10
0.43061
20
0.525787
11
0.390256
21
0.525787
0
LINE
8
BLACK
6
CONTINUOUS
10
0.390256
20
0.525787
11
0.387996
21
0.526237
0
LINE
8
BLACK
6
CONTINUOUS
10
0.387996
20
0.526237
11
0.38608
21
0.527517
0
LINE
8
BLACK
6
CONTINUOUS
10
0.38608
20
0.527517
11
0.3848
21
0.529433
0
LINE
8
BLACK
6
CONTINUOUS
10
0.3848
20
0.529433
11
0.38435
21
0.531693
0
LINE
8
BLACK
6
CONTINUOUS
10
0.38435
20
0.531693
11
0.38435
21
0.543504
0
LINE
8
BLACK
6
CONTINUOUS
10
0.38435
20
0.543504
11
0.3848
21
0.545764
0
LINE
8
BLACK
6
CONTINUOUS
10
0.3848
20
0.545764
11
0.38608
21
0.54768
0
LINE
8
BLACK
6
CONTINUOUS
10
0.38608
20
0.54768
11
0.387996
21
0.54896
0
LINE
8
BLACK
6
CONTINUOUS
10
0.387996
20
0.54896
11
0.390256
21
0.549409
0
LINE
8
BLACK
6
CONTINUOUS
10
0.390256
20
0.549409
11
0.43061
21
0.549409
0
LINE
8
BLACK
6
CONTINUOUS
10
0.43061
20
0.549409
11
0.43287
21
0.54896
0
LINE
8
BLACK
6
CONTINUOUS
10
0.522437
20
0.54896
11
0.524353
21
0.54768
0
LINE
8
BLACK
6
CONTINUOUS
10
0.524353
20
0.54768
11
0.525633
21
0.545764
0
LINE
8
BLACK
6
CONTINUOUS
10
0.525633
20
0.545764
11
0.526083
21
0.543504
0
LINE
8
BLACK
6
CONTINUOUS
10
0.526083
20
0.543504
11
0.526083
21
0.531693
0
LINE
8
BLACK
6
CONTINUOUS
10
0.526083
20
0.531693
11
0.525633
21
0.529433
0
LINE
8
BLACK
6
CONTINUOUS
10
0.525633
20
0.529433
11
0.524353
21
0.527517
0
LINE
8
BLACK
6
CONTINUOUS
10
0.524353
20
0.527517
11
0.522437
21
0.526237
0
LINE
8
BLACK
6
CONTINUOUS
10
0.522437
20
0.526237
11
0.520177
21
0.525787
0
LINE
8
BLACK
6
CONTINUOUS
10
0.520177
20
0.525787
11
0.479823
21
0.525787
0
LINE
8
BLACK
6
CONTINUOUS
10
0.479823
20
0.525787
11
0.477563
21
0.526237
0
LINE
8
BLACK
6
CONTINUOUS
10
0.477563
20
0.526237
11
0.475647
21
0.527517
0
LINE
8
BLACK
6
CONTINUOUS
10
0.475647
20
0.527517
11
0.474367
21
0.529433
0
LINE
8
BLACK
6
CONTINUOUS
10
0.474367
20
0.529433
11
0.473917
21
0.531693
0
LINE
8
BLACK
6
CONTINUOUS
10
0.473917
20
0.531693
11
0.473917
21
0.543504
0
LINE
8
BLACK
6
CONTINUOUS
10
0.473917
20
0.543504
11
0.474367
21
0.545764
0
LINE
8
BLACK
6
CONTINUOUS
10
0.474367
20
0.545764
11
0.475647
21
0.54768
0
LINE
8
BLACK
6
CONTINUOUS
10
0.475647
20
0.54768
11
0.477563
21
0.54896
0
LINE
8
BLACK
6
CONTINUOUS
10
0.477563
20
0.54896
11
0.479823
21
0.549409
0
LINE
8
BLACK
6
CONTINUOUS
10
0.479823
20
0.549409
11
0.520177
21
0.549409
0
LINE
8
BLACK
6
CONTINUOUS
10
0.520177
20
0.549409
11
0.522437
21
0.54896
0
LINE
8
BLACK
6
CONTINUOUS
10
-0.0825
20
0.5475
11
-0.1175
21
0.5475
0
LINE
8
BLACK
6
CONTINUOUS
10
-0.1175
20
0.5475
11
-0.1175
21
0.6025
0
LINE
8
BLACK
6
CONTINUOUS
10
-0.1175
20
0.6025
11
-0.0825
21
0.6025
0
LINE
8
BLACK
6
CONTINUOUS
10
-0.0825
20
0.6025
11
-0.0825
21
0.5475
0
LINE
8
BLACK
6
CONTINUOUS
10
-0.0075
20
0.5475
11
-0.0425
21
0.5475
0
LINE
8
BLACK
6
CONTINUOUS
10
-0.0425
20
0.5475
11
-0.0425
21
0.6025
0
LINE
8
BLACK
6
CONTINUOUS
10
-0.0425
20
0.6025
11
-0.0075
21
0.6025
0
LINE
8
BLACK
6
CONTINUOUS
10
-0.0075
20
0.6025
11
-0.0075
21
0.5475
0
LINE
8
BLACK
6
CONTINUOUS
10
0.43287
20
0.586361
11
0.434786
21
0.585081
0
LINE
8
BLACK
6
CONTINUOUS
10
0.434786
20
0.585081
11
0.436066
21
0.583165
0
LINE
8
BLACK
6
CONTINUOUS
10
0.436066
20
0.583165
11
0.436516
21
0.580906
0
LINE
8
BLACK
6
CONTINUOUS
10
0.436516
20
0.580906
11
0.436516
21
0.569094
0
LINE
8
BLACK
6
CONTINUOUS
10
0.436516
20
0.569094
11
0.436066
21
0.566835
0
LINE
8
BLACK
6
CONTINUOUS
10
0.436066
20
0.566835
11
0.434786
21
0.564919
0
LINE
8
BLACK
6
CONTINUOUS
10
0.434786
20
0.564919
11
0.43287
21
0.563639
0
LINE
8
BLACK
6
CONTINUOUS
10
0.43287
20
0.563639
11
0.43061
21
0.563189
0
LINE
8
BLACK
6
CONTINUOUS
10
0.43061
20
0.563189
11
0.390256
21
0.563189
0
LINE
8
BLACK
6
CONTINUOUS
10
0.390256
20
0.563189
11
0.387996
21
0.563639
0
LINE
8
BLACK
6
CONTINUOUS
10
0.387996
20
0.563639
11
0.38608
21
0.564919
0
LINE
8
BLACK
6
CONTINUOUS
10
0.38608
20
0.564919
11
0.3848
21
0.566835
0
LINE
8
BLACK
6
CONTINUOUS
10
0.3848
20
0.566835
11
0.38435
21
0.569094
0
LINE
8
BLACK
6
CONTINUOUS
10
0.38435
20
0.569094
11
0.38435
21
0.580906
0
LINE
8
BLACK
6
CONTINUOUS
10
0.38435
20
0.580906
11
0.3848
21
0.583165
0
LINE
8
BLACK
6
CONTINUOUS
10
0.3848
20
0.583165
11
0.38608
21
0.585081
0
LINE
8
BLACK
6
CONTINUOUS
10
0.38608
20
0.585081
11
0.387996
21
0.586361
0
LINE
8
BLACK
6
CONTINUOUS
10
0.387996
20
0.586361
11
0.390256
21
0.586811
0
LINE
8
BLACK
6
CONTINUOUS
10
0.390256
20
0.586811
11
0.43061
21
0.586811
0
LINE
8
BLACK
6
CONTINUOUS
10
0.43061
20
0.586811
11
0.43287
21
0.586361
0
LINE
8
BLACK
6
CONTINUOUS
10
0.522437
20
0.586361
11
0.524353
21
0.585081
0
LINE
8
BLACK
6
CONTINUOUS
10
0.524353
20
0.585081
11
0.525633
21
0.583165
0
LINE
8
BLACK
6
CONTINUOUS
10
0.525633
20
0.583165
11
0.526083
21
0.580906
0
LINE
8
BLACK
6
CONTINUOUS
10
0.526083
20
0.580906
11
0.526083
21
0.569094
0
LINE
8
BLACK
6
CONTINUOUS
10
0.526083
20
0.569094
11
0.525633
21
0.566835
0
LINE
8
BLACK
6
CONTINUOUS
10
0.525633
20
0.566835
11
0.524353
21
0.564919
0
LINE
8
BLACK
6
CONTINUOUS
10
0.524353
20
0.564919
11
0.522437
21
0.563639
0
LINE
8
BLACK
6
CONTINUOUS
10
0.522437
20
0.563639
11
0.520177
21
0.563189
0
LINE
8
BLACK
6
CONTINUOUS
10
0.520177
20
0.563189
11
0.479823
21
0.563189
0
LINE
8
BLACK
6
CONTINUOUS
10
0.479823
20
0.563189
11
0.477563
21
0.563639
0
LINE
8
BLACK
6
CONTINUOUS
10
0.477563
20
0.563639
11
0.475647
21
0.564919
0
LINE
8
BLACK
6
CONTINUOUS
10
0.475647
20
0.564919
11
0.474367
21
0.566835
0
LINE
8
BLACK
6
CONTINUOUS
10
0.474367
20
0.566835
11
0.473917
21
0.569094
0
LINE
8
BLACK
6
CONTINUOUS
10
0.473917
20
0.569094
11
0.473917
21
0.580906
0
LINE
8
BLACK
6
CONTINUOUS
10
0.473917
20
0.580906
11
0.474367
21
0.583165
0
LINE
8
BLACK
6
CONTINUOUS
10
0.474367
20
0.583165
11
0.475647
21
0.585081
0
LINE
8
BLACK
6
CONTINUOUS
10
0.475647
20
0.585081
11
0.477563
21
0.586361
0
LINE
8
BLACK
6
CONTINUOUS
10
0.477563
20
0.586361
11
0.479823
21
0.586811
0
LINE
8
BLACK
6
CONTINUOUS
10
0.479823
20
0.586811
11
0.520177
21
0.586811
0
LINE
8
BLACK
6
CONTINUOUS
10
0.520177
20
0.586811
11
0.522437
21
0.586361
0
LINE
8
BLACK
6
CONTINUOUS
10
0.651909
20
0.570846
11
0.596909
21
0.570846
0
LINE
8
BLACK
6
CONTINUOUS
10
0.596909
20
0.570846
11
0.596909
21
0.605846
0
LINE
8
BLACK
6
CONTINUOUS
10
0.596909
20
0.605846
11
0.651909
21
0.605846
0
LINE
8
BLACK
6
CONTINUOUS
10
0.651909
20
0.605846
11
0.651909
21
0.570846
0
LINE
8
BLACK
6
CONTINUOUS
10
0.43287
20
0.623763
11
0.434786
21
0.622483
0
LINE
8
BLACK
6
CONTINUOUS
10
0.434786
20
0.622483
11
0.436066
21
0.620567
0
LINE
8
BLACK
6
CONTINUOUS
10
0.436066
20
0.620567
11
0.436516
21
0.618307
0
LINE
8
BLACK
6
CONTINUOUS
10
0.436516
20
0.618307
11
0.436516
21
0.606496
0
LINE
8
BLACK
6
CONTINUOUS
10
0.436516
20
0.606496
11
0.436066
21
0.604236
0
LINE
8
BLACK
6
CONTINUOUS
10
0.436066
20
0.604236
11
0.434786
21
0.60232
0
LINE
8
BLACK
6
CONTINUOUS
10
0.434786
20
0.60232
11
0.43287
21
0.60104
0
LINE
8
BLACK
6
CONTINUOUS
10
0.43287
20
0.60104
11
0.43061
21
0.600591
0
LINE
8
BLACK
6
CONTINUOUS
10
0.43061
20
0.600591
11
0.390256
21
0.600591
0
LINE
8
BLACK
6
CONTINUOUS
10
0.390256
20
0.600591
11
0.387996
21
0.60104
0
LINE
8
BLACK
6
CONTINUOUS
10
0.387996
20
0.60104
11
0.38608
21
0.60232
0
LINE
8
BLACK
6
CONTINUOUS
10
0.38608
20
0.60232
11
0.3848
21
0.604236
0
LINE
8
BLACK
6
CONTINUOUS
10
0.3848
20
0.604236
11
0.38435
21
0.606496
0
LINE
8
BLACK
6
CONTINUOUS
10
0.38435
20
0.606496
11
0.38435
21
0.618307
0
LINE
8
BLACK
6
CONTINUOUS
10
0.38435
20
0.618307
11
0.3848
21
0.620567
0
LINE
8
BLACK
6
CONTINUOUS
10
0.3848
20
0.620567
11
0.38608
21
0.622483
0
LINE
8
BLACK
6
CONTINUOUS
10
0.38608
20
0.622483
11
0.387996
21
0.623763
0
LINE
8
BLACK
6
CONTINUOUS
10
0.387996
20
0.623763
11
0.390256
21
0.624213
0
LINE
8
BLACK
6
CONTINUOUS
10
0.390256
20
0.624213
11
0.43061
21
0.624213
0
LINE
8
BLACK
6
CONTINUOUS
10
0.43061
20
0.624213
11
0.43287
21
0.623763
0
LINE
8
BLACK
6
CONTINUOUS
10
0.522437
20
0.623763
11
0.524353
21
0.622483
0
LINE
8
BLACK
6
CONTINUOUS
10
0.524353
20
0.622483
11
0.525633
21
0.620567
0
LINE
8
BLACK
6
CONTINUOUS
10
0.525633
20
0.620567
11
0.526083
21
0.618307
0
LINE
8
BLACK
6
CONTINUOUS
10
0.526083
20
0.618307
11
0.526083
21
0.606496
0
LINE
8
BLACK
6
CONTINUOUS
10
0.526083
20
0.606496
11
0.525633
21
0.604236
0
LINE
8
BLACK
6
CONTINUOUS
10
0.525633
20
0.604236
11
0.524353
21
0.60232
0
LINE
8
BLACK
6
CONTINUOUS
10
0.524353
20
0.60232
11
0.522437
21
0.60104
0
LINE
8
BLACK
6
CONTINUOUS
10
0.522437
20
0.60104
11
0.520177
21
0.600591
0
LINE
8
BLACK
6
CONTINUOUS
10
0.520177
20
0.600591
11
0.479823
21
0.600591
0
LINE
8
BLACK
6
CONTINUOUS
10
0.479823
20
0.600591
11
0.477563
21
0.60104
0
LINE
8
BLACK
6
CONTINUOUS
10
0.477563
20
0.60104
11
0.475647
21
0.60232
0
LINE
8
BLACK
6
CONTINUOUS
10
0.475647
20
0.60232
11
0.474367
21
0.604236
0
LINE
8
BLACK
6
CONTINUOUS
10
0.474367
20
0.604236
11
0.473917
21
0.606496
0
LINE
8
BLACK
6
CONTINUOUS
10
0.473917
20
0.606496
11
0.473917
21
0.618307
0
LINE
8
BLACK
6
CONTINUOUS
10
0.473917
20
0.618307
11
0.474367
21
0.620567
0
LINE
8
BLACK
6
CONTINUOUS
10
0.474367
20
0.620567
11
0.475647
21
0.622483
0
LINE
8
BLACK
6
CONTINUOUS
10
0.475647
20
0.622483
11
0.477563
21
0.623763
0
LINE
8
BLACK
6
CONTINUOUS
10
0.477563
20
0.623763
11
0.479823
21
0.624213
0
LINE
8
BLACK
6
CONTINUOUS
10
0.479823
20
0.624213
11
0.520177
21
0.624213
0
LINE
8
BLACK
6
CONTINUOUS
10
0.520177
20
0.624213
11
0.522437
21
0.623763
0
LINE
8
BLACK
6
CONTINUOUS
10
0.7225
20
0.6175
11
0.6875
21
0.6175
0
LINE
8
BLACK
6
CONTINUOUS
10
0.6875
20
0.6175
11
0.6875
21
0.6725
0
LINE
8
BLACK
6
CONTINUOUS
10
0.6875
20
0.6725
11
0.7225
21
0.6725
0
LINE
8
BLACK
6
CONTINUOUS
10
0.7225
20
0.6725
11
0.7225
21
0.6175
0
LINE
8
BLACK
6
CONTINUOUS
10
0.7975
20
0.6175
11
0.7625
21
0.6175
0
LINE
8
BLACK
6
CONTINUOUS
10
0.7625
20
0.6175
11
0.7625
21
0.6725
0
LINE
8
BLACK
6
CONTINUOUS
10
0.7625
20
0.6725
11
0.7975
21
0.6725
0
LINE
8
BLACK
6
CONTINUOUS
10
0.7975
20
0.6725
11
0.7975
21
0.6175
0
LINE
8
BLACK
6
CONTINUOUS
10
0.8625
20
0.6175
11
0.8275
21
0.6175
0
LINE
8
BLACK
6
CONTINUOUS
10
0.8275
20
0.6175
11
0.8275
21
0.6725
0
LINE
8
BLACK
6
CONTINUOUS
10
0.8275
20
0.6725
11
0.8625
21
0.6725
0
LINE
8
BLACK
6
CONTINUOUS
10
0.8625
20
0.6725
11
0.8625
21
0.6175
0
LINE
8
BLACK
6
CONTINUOUS
10
0.9375
20
0.6175
11
0.9025
21
0.6175
0
LINE
8
BLACK
6
CONTINUOUS
10
0.9025
20
0.6175
11
0.9025
21
0.6725
0
LINE
8
BLACK
6
CONTINUOUS
10
0.9025
20
0.6725
11
0.9375
21
0.6725
0
LINE
8
BLACK
6
CONTINUOUS
10
0.9375
20
0.6725
11
0.9375
21
0.6175
0
LINE
8
BLACK
6
CONTINUOUS
10
1.0025
20
0.6175
11
0.9675
21
0.6175
0
LINE
8
BLACK
6
CONTINUOUS
10
0.9675
20
0.6175
11
0.9675
21
0.6725
0
LINE
8
BLACK
6
CONTINUOUS
10
0.9675
20
0.6725
11
1.0025
21
0.6725
0
LINE
8
BLACK
6
CONTINUOUS
10
1.0025
20
0.6725
11
1.0025
21
0.6175
0
LINE
8
BLACK
6
CONTINUOUS
10
1.0775
20
0.6175
11
1.0425
21
0.6175
0
LINE
8
BLACK
6
CONTINUOUS
10
1.0425
20
0.6175
11
1.0425
21
0.6725
0
LINE
8
BLACK
6
CONTINUOUS
10
1.0425
20
0.6725
11
1.0775
21
0.6725
0
LINE
8
BLACK
6
CONTINUOUS
10
1.0775
20
0.6725
11
1.0775
21
0.6175
0
LINE
8
BLACK
6
CONTINUOUS
10
0.651909
20
0.645846
11
0.596909
21
0.645846
0
LINE
8
BLACK
6
CONTINUOUS
10
0.596909
20
0.645846
11
0.596909
21
0.680846
0
LINE
8
BLACK
6
CONTINUOUS
10
0.596909
20
0.680846
11
0.651909
21
0.680846
0
LINE
8
BLACK
6
CONTINUOUS
10
0.651909
20
0.680846
11
0.651909
21
0.645846
0
LINE
8
BLACK
6
CONTINUOUS
10
0.198122
20
0.828956
11
0.200557
21
0.827329
0
LINE
8
BLACK
6
CONTINUOUS
10
0.200557
20
0.827329
11
0.202184
21
0.824894
0
LINE
8
BLACK
6
CONTINUOUS
10
0.202184
20
0.824894
11
0.202756
21
0.822021
0
LINE
8
BLACK
6
CONTINUOUS
10
0.202756
20
0.822021
11
0.202756
21
0.777979
0
LINE
8
BLACK
6
CONTINUOUS
10
0.202756
20
0.777979
11
0.202184
21
0.775106
0
LINE
8
BLACK
6
CONTINUOUS
10
0.202184
20
0.775106
11
0.200557
21
0.772671
0
LINE
8
BLACK
6
CONTINUOUS
10
0.200557
20
0.772671
11
0.198122
21
0.771044
0
LINE
8
BLACK
6
CONTINUOUS
10
0.198122
20
0.771044
11
0.195249
21
0.770472
0
LINE
8
BLACK
6
CONTINUOUS
10
0.195249
20
0.770472
11
0.153963
21
0.770472
0
LINE
8
BLACK
6
CONTINUOUS
10
0.153963
20
0.770472
11
0.151091
21
0.771044
0
LINE
8
BLACK
6
CONTINUOUS
10
0.151091
20
0.771044
11
0.148655
21
0.772671
0
LINE
8
BLACK
6
CONTINUOUS
10
0.148655
20
0.772671
11
0.147028
21
0.775106
0
LINE
8
BLACK
6
CONTINUOUS
10
0.147028
20
0.775106
11
0.146457
21
0.777979
0
LINE
8
BLACK
6
CONTINUOUS
10
0.146457
20
0.777979
11
0.146457
21
0.822021
0
LINE
8
BLACK
6
CONTINUOUS
10
0.146457
20
0.822021
11
0.147028
21
0.824894
0
LINE
8
BLACK
6
CONTINUOUS
10
0.147028
20
0.824894
11
0.148655
21
0.827329
0
LINE
8
BLACK
6
CONTINUOUS
10
0.148655
20
0.827329
11
0.151091
21
0.828956
0
LINE
8
BLACK
6
CONTINUOUS
10
0.151091
20
0.828956
11
0.153963
21
0.829528
0
LINE
8
BLACK
6
CONTINUOUS
10
0.153963
20
0.829528
11
0.195249
21
0.829528
0
LINE
8
BLACK
6
CONTINUOUS
10
0.195249
20
0.829528
11
0.198122
21
0.828956
0
LINE
8
BLACK
6
CONTINUOUS
10
0.348909
20
0.828956
11
0.351345
21
0.827329
0
LINE
8
BLACK
6
CONTINUOUS
10
0.351345
20
0.827329
11
0.352972
21
0.824894
0
LINE
8
BLACK
6
CONTINUOUS
10
0.352972
20
0.824894
11
0.353543
21
0.822021
0
LINE
8
BLACK
6
CONTINUOUS
10
0.353543
20
0.822021
11
0.353543
21
0.777979
0
LINE
8
BLACK
6
CONTINUOUS
10
0.353543
20
0.777979
11
0.352972
21
0.775106
0
LINE
8
BLACK
6
CONTINUOUS
10
0.352972
20
0.775106
11
0.351345
21
0.772671
0
LINE
8
BLACK
6
CONTINUOUS
10
0.351345
20
0.772671
11
0.348909
21
0.771044
0
LINE
8
BLACK
6
CONTINUOUS
10
0.348909
20
0.771044
11
0.346037
21
0.770472
0
LINE
8
BLACK
6
CONTINUOUS
10
0.346037
20
0.770472
11
0.304751
21
0.770472
0
LINE
8
BLACK
6
CONTINUOUS
10
0.304751
20
0.770472
11
0.301878
21
0.771044
0
LINE
8
BLACK
6
CONTINUOUS
10
0.301878
20
0.771044
11
0.299443
21
0.772671
0
LINE
8
BLACK
6
CONTINUOUS
10
0.299443
20
0.772671
11
0.297816
21
0.775106
0
LINE
8
BLACK
6
CONTINUOUS
10
0.297816
20
0.775106
11
0.297244
21
0.777979
0
LINE
8
BLACK
6
CONTINUOUS
10
0.297244
20
0.777979
11
0.297244
21
0.822021
0
LINE
8
BLACK
6
CONTINUOUS
10
0.297244
20
0.822021
11
0.297816
21
0.824894
0
LINE
8
BLACK
6
CONTINUOUS
10
0.297816
20
0.824894
11
0.299443
21
0.827329
0
LINE
8
BLACK
6
CONTINUOUS
10
0.299443
20
0.827329
11
0.301878
21
0.828956
0
LINE
8
BLACK
6
CONTINUOUS
10
0.301878
20
0.828956
11
0.304751
21
0.829528
0
LINE
8
BLACK
6
CONTINUOUS
10
0.304751
20
0.829528
11
0.346037
21
0.829528
0
LINE
8
BLACK
6
CONTINUOUS
10
0.346037
20
0.829528
11
0.348909
21
0.828956
0
LINE
8
BLACK
6
CONTINUOUS
10
0.2175
20
0.8975
11
0.1825
21
0.8975
0
LINE
8
BLACK
6
CONTINUOUS
10
0.1825
20
0.8975
11
0.1825
21
0.9525
0
LINE
8
BLACK
6
CONTINUOUS
10
0.1825
20
0.9525
11
0.2175
21
0.9525
0
LINE
8
BLACK
6
CONTINUOUS
10
0.2175
20
0.9525
11
0.2175
21
0.8975
0
LINE
8
BLACK
6
CONTINUOUS
10
0.2925
20
0.8975
11
0.2575
21
0.8975
0
LINE
8
BLACK
6
CONTINUOUS
10
0.2575
20
0.8975
11
0.2575
21
0.9525
0
LINE
8
BLACK
6
CONTINUOUS
10
0.2575
20
0.9525
11
0.2925
21
0.9525
0
LINE
8
BLACK
6
CONTINUOUS
10
0.2925
20
0.9525
11
0.2925
21
0.8975
  0
ENDSEC
  0
EOF
