  0
SECTION
  2
HEADER
  9
$ANGBASE
  50
0.0
  9
$ANGDIR
  70
1
  9
$MEASUREMENT
  70
0
  0
ENDSEC
  0
SECTION
  2
TABLES
  0
TABLE
  2
LTYPE
  70
4
  0
LTYPE
  5
40F
  2
CONTINUOUS
  70
0
  3
Solid line
  72
65
  73
0
  40
0.0
  0
LTYPE
  5
410
  2
DASHDOT
 70
0
  3
Dash Dot ____ _ ____ _
 72
65
 73
4
 40
2.0
 49
1.25
 49
-0.25
 49
0.25
 49
-0.25
  0
LTYPE
  5
411
  2
DASHED
 70
0
  3
Dashed __ __ __ __ __
 72
65
 73
2
 40
0.75
 49
0.5
 49
-0.25
  0
LTYPE
  5
43B
  2
DOTTED
 70
0
  3
Dotted .  .  .  .
 72
65
 73
2
 40
0.2
 49
0.0
 49
-0.2
  0
ENDTAB
  0
TABLE
  2
STYLE
  70
4
  0
STYLE
  2
KICAD
  70
0
  40
0
  41
1
  42
1
  50
0
  71
0
  3
isocp.shx
  0
STYLE
  2
KICADB
  70
0
  40
0
  41
1
  42
1
  50
0
  71
0
  3
isocp.shx
  0
STYLE
  2
KICADI
  70
0
  40
0
  41
1
  42
1
  50
15
  71
0
  3
isocp.shx
  0
STYLE
  2
KICADBI
  70
0
  40
0
  41
1
  42
1
  50
15
  71
0
  3
isocp.shx
  0
ENDTAB
  0
TABLE
  2
LAYER
  70
1
  0
LAYER
  2
BLACK
  70
0
  62
7
  6
CONTINUOUS
  0
ENDTAB
  0
ENDSEC
  0
SECTION
  2
ENTITIES
0
LINE
8
BLACK
6
CONTINUOUS
10
5.5115
20
-4.49994
11
5.4765
21
-4.49994
0
LINE
8
BLACK
6
CONTINUOUS
10
5.4765
20
-4.49994
11
5.4765
21
-4.44494
0
LINE
8
BLACK
6
CONTINUOUS
10
5.4765
20
-4.44494
11
5.5115
21
-4.44494
0
LINE
8
BLACK
6
CONTINUOUS
10
5.5115
20
-4.44494
11
5.5115
21
-4.49994
0
LINE
8
BLACK
6
CONTINUOUS
10
5.5865
20
-4.49994
11
5.5515
21
-4.49994
0
LINE
8
BLACK
6
CONTINUOUS
10
5.5515
20
-4.49994
11
5.5515
21
-4.44494
0
LINE
8
BLACK
6
CONTINUOUS
10
5.5515
20
-4.44494
11
5.5865
21
-4.44494
0
LINE
8
BLACK
6
CONTINUOUS
10
5.5865
20
-4.44494
11
5.5865
21
-4.49994
0
LINE
8
BLACK
6
CONTINUOUS
10
5.44941
20
-4.38677
11
5.41201
21
-4.38677
0
LINE
8
BLACK
6
CONTINUOUS
10
5.41201
20
-4.38677
11
5.41201
21
-4.32772
0
LINE
8
BLACK
6
CONTINUOUS
10
5.41201
20
-4.32772
11
5.44941
21
-4.32772
0
LINE
8
BLACK
6
CONTINUOUS
10
5.44941
20
-4.32772
11
5.44941
21
-4.38677
0
LINE
8
BLACK
6
CONTINUOUS
10
5.6128
20
-4.38677
11
5.57539
21
-4.38677
0
LINE
8
BLACK
6
CONTINUOUS
10
5.57539
20
-4.38677
11
5.57539
21
-4.32772
0
LINE
8
BLACK
6
CONTINUOUS
10
5.57539
20
-4.32772
11
5.6128
21
-4.32772
0
LINE
8
BLACK
6
CONTINUOUS
10
5.6128
20
-4.32772
11
5.6128
21
-4.38677
0
LINE
8
BLACK
6
CONTINUOUS
10
5.36161
20
-4.11768
11
5.26319
21
-4.11768
0
LINE
8
BLACK
6
CONTINUOUS
10
5.26319
20
-4.11768
11
5.26319
21
-4.04681
0
LINE
8
BLACK
6
CONTINUOUS
10
5.26319
20
-4.04681
11
5.36161
21
-4.04681
0
LINE
8
BLACK
6
CONTINUOUS
10
5.36161
20
-4.04681
11
5.36161
21
-4.11768
0
LINE
8
BLACK
6
CONTINUOUS
10
5.20413
20
-4.11768
11
5.10571
21
-4.11768
0
LINE
8
BLACK
6
CONTINUOUS
10
5.10571
20
-4.11768
11
5.10571
21
-4.04681
0
LINE
8
BLACK
6
CONTINUOUS
10
5.10571
20
-4.04681
11
5.20413
21
-4.04681
0
LINE
8
BLACK
6
CONTINUOUS
10
5.20413
20
-4.04681
11
5.20413
21
-4.11768
0
LINE
8
BLACK
6
CONTINUOUS
10
6.2974
20
-4.02974
11
6.2624
21
-4.02974
0
LINE
8
BLACK
6
CONTINUOUS
10
6.2624
20
-4.02974
11
6.2624
21
-3.97474
0
LINE
8
BLACK
6
CONTINUOUS
10
6.2624
20
-3.97474
11
6.2974
21
-3.97474
0
LINE
8
BLACK
6
CONTINUOUS
10
6.2974
20
-3.97474
11
6.2974
21
-4.02974
0
LINE
8
BLACK
6
CONTINUOUS
10
6.2224
20
-4.02974
11
6.1874
21
-4.02974
0
LINE
8
BLACK
6
CONTINUOUS
10
6.1874
20
-4.02974
11
6.1874
21
-3.97474
0
LINE
8
BLACK
6
CONTINUOUS
10
6.1874
20
-3.97474
11
6.2224
21
-3.97474
0
LINE
8
BLACK
6
CONTINUOUS
10
6.2224
20
-3.97474
11
6.2224
21
-4.02974
0
LINE
8
BLACK
6
CONTINUOUS
10
6.0408
20
-3.96747
11
6.0416
21
-3.968
0
LINE
8
BLACK
6
CONTINUOUS
10
6.0416
20
-3.968
11
6.04214
21
-3.9688
0
LINE
8
BLACK
6
CONTINUOUS
10
6.04214
20
-3.9688
11
6.04232
21
-3.96974
0
LINE
8
BLACK
6
CONTINUOUS
10
6.04232
20
-3.96974
11
6.04232
21
-3.9973
0
LINE
8
BLACK
6
CONTINUOUS
10
6.04232
20
-3.9973
11
6.04214
21
-3.99824
0
LINE
8
BLACK
6
CONTINUOUS
10
6.04214
20
-3.99824
11
6.0416
21
-3.99904
0
LINE
8
BLACK
6
CONTINUOUS
10
6.0416
20
-3.99904
11
6.0408
21
-3.99958
0
LINE
8
BLACK
6
CONTINUOUS
10
6.0408
20
-3.99958
11
6.03986
21
-3.99976
0
LINE
8
BLACK
6
CONTINUOUS
10
6.03986
20
-3.99976
11
6.03494
21
-3.99976
0
LINE
8
BLACK
6
CONTINUOUS
10
6.03494
20
-3.99976
11
6.034
21
-3.99958
0
LINE
8
BLACK
6
CONTINUOUS
10
6.034
20
-3.99958
11
6.0332
21
-3.99904
0
LINE
8
BLACK
6
CONTINUOUS
10
6.0332
20
-3.99904
11
6.03267
21
-3.99824
0
LINE
8
BLACK
6
CONTINUOUS
10
6.03267
20
-3.99824
11
6.03248
21
-3.9973
0
LINE
8
BLACK
6
CONTINUOUS
10
6.03248
20
-3.9973
11
6.03248
21
-3.96974
0
LINE
8
BLACK
6
CONTINUOUS
10
6.03248
20
-3.96974
11
6.03267
21
-3.9688
0
LINE
8
BLACK
6
CONTINUOUS
10
6.03267
20
-3.9688
11
6.0332
21
-3.968
0
LINE
8
BLACK
6
CONTINUOUS
10
6.0332
20
-3.968
11
6.034
21
-3.96747
0
LINE
8
BLACK
6
CONTINUOUS
10
6.034
20
-3.96747
11
6.03494
21
-3.96728
0
LINE
8
BLACK
6
CONTINUOUS
10
6.03494
20
-3.96728
11
6.03986
21
-3.96728
0
LINE
8
BLACK
6
CONTINUOUS
10
6.03986
20
-3.96728
11
6.0408
21
-3.96747
0
LINE
8
BLACK
6
CONTINUOUS
10
6.00143
20
-3.96747
11
6.00223
21
-3.968
0
LINE
8
BLACK
6
CONTINUOUS
10
6.00223
20
-3.968
11
6.00277
21
-3.9688
0
LINE
8
BLACK
6
CONTINUOUS
10
6.00277
20
-3.9688
11
6.00295
21
-3.96974
0
LINE
8
BLACK
6
CONTINUOUS
10
6.00295
20
-3.96974
11
6.00295
21
-3.9973
0
LINE
8
BLACK
6
CONTINUOUS
10
6.00295
20
-3.9973
11
6.00277
21
-3.99824
0
LINE
8
BLACK
6
CONTINUOUS
10
6.00277
20
-3.99824
11
6.00223
21
-3.99904
0
LINE
8
BLACK
6
CONTINUOUS
10
6.00223
20
-3.99904
11
6.00143
21
-3.99958
0
LINE
8
BLACK
6
CONTINUOUS
10
6.00143
20
-3.99958
11
6.00049
21
-3.99976
0
LINE
8
BLACK
6
CONTINUOUS
10
6.00049
20
-3.99976
11
5.99557
21
-3.99976
0
LINE
8
BLACK
6
CONTINUOUS
10
5.99557
20
-3.99976
11
5.99463
21
-3.99958
0
LINE
8
BLACK
6
CONTINUOUS
10
5.99463
20
-3.99958
11
5.99383
21
-3.99904
0
LINE
8
BLACK
6
CONTINUOUS
10
5.99383
20
-3.99904
11
5.9933
21
-3.99824
0
LINE
8
BLACK
6
CONTINUOUS
10
5.9933
20
-3.99824
11
5.99311
21
-3.9973
0
LINE
8
BLACK
6
CONTINUOUS
10
5.99311
20
-3.9973
11
5.99311
21
-3.96974
0
LINE
8
BLACK
6
CONTINUOUS
10
5.99311
20
-3.96974
11
5.9933
21
-3.9688
0
LINE
8
BLACK
6
CONTINUOUS
10
5.9933
20
-3.9688
11
5.99383
21
-3.968
0
LINE
8
BLACK
6
CONTINUOUS
10
5.99383
20
-3.968
11
5.99463
21
-3.96747
0
LINE
8
BLACK
6
CONTINUOUS
10
5.99463
20
-3.96747
11
5.99557
21
-3.96728
0
LINE
8
BLACK
6
CONTINUOUS
10
5.99557
20
-3.96728
11
6.00049
21
-3.96728
0
LINE
8
BLACK
6
CONTINUOUS
10
6.00049
20
-3.96728
11
6.00143
21
-3.96747
0
LINE
8
BLACK
6
CONTINUOUS
10
6.02112
20
-3.96747
11
6.02192
21
-3.968
0
LINE
8
BLACK
6
CONTINUOUS
10
6.02192
20
-3.968
11
6.02245
21
-3.9688
0
LINE
8
BLACK
6
CONTINUOUS
10
6.02245
20
-3.9688
11
6.02264
21
-3.96974
0
LINE
8
BLACK
6
CONTINUOUS
10
6.02264
20
-3.96974
11
6.02264
21
-3.9973
0
LINE
8
BLACK
6
CONTINUOUS
10
6.02264
20
-3.9973
11
6.02245
21
-3.99824
0
LINE
8
BLACK
6
CONTINUOUS
10
6.02245
20
-3.99824
11
6.02192
21
-3.99904
0
LINE
8
BLACK
6
CONTINUOUS
10
6.02192
20
-3.99904
11
6.02112
21
-3.99958
0
LINE
8
BLACK
6
CONTINUOUS
10
6.02112
20
-3.99958
11
6.02018
21
-3.99976
0
LINE
8
BLACK
6
CONTINUOUS
10
6.02018
20
-3.99976
11
6.01526
21
-3.99976
0
LINE
8
BLACK
6
CONTINUOUS
10
6.01526
20
-3.99976
11
6.01431
21
-3.99958
0
LINE
8
BLACK
6
CONTINUOUS
10
6.01431
20
-3.99958
11
6.01352
21
-3.99904
0
LINE
8
BLACK
6
CONTINUOUS
10
6.01352
20
-3.99904
11
6.01298
21
-3.99824
0
LINE
8
BLACK
6
CONTINUOUS
10
6.01298
20
-3.99824
11
6.0128
21
-3.9973
0
LINE
8
BLACK
6
CONTINUOUS
10
6.0128
20
-3.9973
11
6.0128
21
-3.96974
0
LINE
8
BLACK
6
CONTINUOUS
10
6.0128
20
-3.96974
11
6.01298
21
-3.9688
0
LINE
8
BLACK
6
CONTINUOUS
10
6.01298
20
-3.9688
11
6.01352
21
-3.968
0
LINE
8
BLACK
6
CONTINUOUS
10
6.01352
20
-3.968
11
6.01431
21
-3.96747
0
LINE
8
BLACK
6
CONTINUOUS
10
6.01431
20
-3.96747
11
6.01526
21
-3.96728
0
LINE
8
BLACK
6
CONTINUOUS
10
6.01526
20
-3.96728
11
6.02018
21
-3.96728
0
LINE
8
BLACK
6
CONTINUOUS
10
6.02018
20
-3.96728
11
6.02112
21
-3.96747
0
LINE
8
BLACK
6
CONTINUOUS
10
6.06049
20
-3.96747
11
6.06129
21
-3.968
0
LINE
8
BLACK
6
CONTINUOUS
10
6.06129
20
-3.968
11
6.06182
21
-3.9688
0
LINE
8
BLACK
6
CONTINUOUS
10
6.06182
20
-3.9688
11
6.06201
21
-3.96974
0
LINE
8
BLACK
6
CONTINUOUS
10
6.06201
20
-3.96974
11
6.06201
21
-3.9973
0
LINE
8
BLACK
6
CONTINUOUS
10
6.06201
20
-3.9973
11
6.06182
21
-3.99824
0
LINE
8
BLACK
6
CONTINUOUS
10
6.06182
20
-3.99824
11
6.06129
21
-3.99904
0
LINE
8
BLACK
6
CONTINUOUS
10
6.06129
20
-3.99904
11
6.06049
21
-3.99958
0
LINE
8
BLACK
6
CONTINUOUS
10
6.06049
20
-3.99958
11
6.05955
21
-3.99976
0
LINE
8
BLACK
6
CONTINUOUS
10
6.05955
20
-3.99976
11
6.05463
21
-3.99976
0
LINE
8
BLACK
6
CONTINUOUS
10
6.05463
20
-3.99976
11
6.05368
21
-3.99958
0
LINE
8
BLACK
6
CONTINUOUS
10
6.05368
20
-3.99958
11
6.05289
21
-3.99904
0
LINE
8
BLACK
6
CONTINUOUS
10
6.05289
20
-3.99904
11
6.05235
21
-3.99824
0
LINE
8
BLACK
6
CONTINUOUS
10
6.05235
20
-3.99824
11
6.05217
21
-3.9973
0
LINE
8
BLACK
6
CONTINUOUS
10
6.05217
20
-3.9973
11
6.05217
21
-3.96974
0
LINE
8
BLACK
6
CONTINUOUS
10
6.05217
20
-3.96974
11
6.05235
21
-3.9688
0
LINE
8
BLACK
6
CONTINUOUS
10
6.05235
20
-3.9688
11
6.05289
21
-3.968
0
LINE
8
BLACK
6
CONTINUOUS
10
6.05289
20
-3.968
11
6.05368
21
-3.96747
0
LINE
8
BLACK
6
CONTINUOUS
10
6.05368
20
-3.96747
11
6.05463
21
-3.96728
0
LINE
8
BLACK
6
CONTINUOUS
10
6.05463
20
-3.96728
11
6.05955
21
-3.96728
0
LINE
8
BLACK
6
CONTINUOUS
10
6.05955
20
-3.96728
11
6.06049
21
-3.96747
0
LINE
8
BLACK
6
CONTINUOUS
10
6.08017
20
-3.96747
11
6.08097
21
-3.968
0
LINE
8
BLACK
6
CONTINUOUS
10
6.08097
20
-3.968
11
6.08151
21
-3.9688
0
LINE
8
BLACK
6
CONTINUOUS
10
6.08151
20
-3.9688
11
6.08169
21
-3.96974
0
LINE
8
BLACK
6
CONTINUOUS
10
6.08169
20
-3.96974
11
6.08169
21
-3.9973
0
LINE
8
BLACK
6
CONTINUOUS
10
6.08169
20
-3.9973
11
6.08151
21
-3.99824
0
LINE
8
BLACK
6
CONTINUOUS
10
6.08151
20
-3.99824
11
6.08097
21
-3.99904
0
LINE
8
BLACK
6
CONTINUOUS
10
6.08097
20
-3.99904
11
6.08017
21
-3.99958
0
LINE
8
BLACK
6
CONTINUOUS
10
6.08017
20
-3.99958
11
6.07923
21
-3.99976
0
LINE
8
BLACK
6
CONTINUOUS
10
6.07923
20
-3.99976
11
6.07431
21
-3.99976
0
LINE
8
BLACK
6
CONTINUOUS
10
6.07431
20
-3.99976
11
6.07337
21
-3.99958
0
LINE
8
BLACK
6
CONTINUOUS
10
6.07337
20
-3.99958
11
6.07257
21
-3.99904
0
LINE
8
BLACK
6
CONTINUOUS
10
6.07257
20
-3.99904
11
6.07204
21
-3.99824
0
LINE
8
BLACK
6
CONTINUOUS
10
6.07204
20
-3.99824
11
6.07185
21
-3.9973
0
LINE
8
BLACK
6
CONTINUOUS
10
6.07185
20
-3.9973
11
6.07185
21
-3.96974
0
LINE
8
BLACK
6
CONTINUOUS
10
6.07185
20
-3.96974
11
6.07204
21
-3.9688
0
LINE
8
BLACK
6
CONTINUOUS
10
6.07204
20
-3.9688
11
6.07257
21
-3.968
0
LINE
8
BLACK
6
CONTINUOUS
10
6.07257
20
-3.968
11
6.07337
21
-3.96747
0
LINE
8
BLACK
6
CONTINUOUS
10
6.07337
20
-3.96747
11
6.07431
21
-3.96728
0
LINE
8
BLACK
6
CONTINUOUS
10
6.07431
20
-3.96728
11
6.07923
21
-3.96728
0
LINE
8
BLACK
6
CONTINUOUS
10
6.07923
20
-3.96728
11
6.08017
21
-3.96747
0
LINE
8
BLACK
6
CONTINUOUS
10
5.2649
20
-3.97474
11
5.2099
21
-3.97474
0
LINE
8
BLACK
6
CONTINUOUS
10
5.2099
20
-3.97474
11
5.2099
21
-3.93974
0
LINE
8
BLACK
6
CONTINUOUS
10
5.2099
20
-3.93974
11
5.2649
21
-3.93974
0
LINE
8
BLACK
6
CONTINUOUS
10
5.2649
20
-3.93974
11
5.2649
21
-3.97474
0
LINE
8
BLACK
6
CONTINUOUS
10
5.1649
20
-3.97474
11
5.1099
21
-3.97474
0
LINE
8
BLACK
6
CONTINUOUS
10
5.1099
20
-3.97474
11
5.1099
21
-3.93974
0
LINE
8
BLACK
6
CONTINUOUS
10
5.1099
20
-3.93974
11
5.1649
21
-3.93974
0
LINE
8
BLACK
6
CONTINUOUS
10
5.1649
20
-3.93974
11
5.1649
21
-3.97474
0
LINE
8
BLACK
6
CONTINUOUS
10
5.5248
20
-3.97417
11
5.45
21
-3.97417
0
LINE
8
BLACK
6
CONTINUOUS
10
5.45
20
-3.97417
11
5.45
21
-3.84031
0
LINE
8
BLACK
6
CONTINUOUS
10
5.45
20
-3.84031
11
5.5248
21
-3.84031
0
LINE
8
BLACK
6
CONTINUOUS
10
5.5248
20
-3.84031
11
5.5248
21
-3.97417
0
LINE
8
BLACK
6
CONTINUOUS
10
5.37126
20
-3.97417
11
5.29646
21
-3.97417
0
LINE
8
BLACK
6
CONTINUOUS
10
5.29646
20
-3.97417
11
5.29646
21
-3.84031
0
LINE
8
BLACK
6
CONTINUOUS
10
5.29646
20
-3.84031
11
5.37126
21
-3.84031
0
LINE
8
BLACK
6
CONTINUOUS
10
5.37126
20
-3.84031
11
5.37126
21
-3.97417
0
LINE
8
BLACK
6
CONTINUOUS
10
6.0266
20
-3.91272
11
6.02979
21
-3.91485
0
LINE
8
BLACK
6
CONTINUOUS
10
6.02979
20
-3.91485
11
6.03193
21
-3.91804
0
LINE
8
BLACK
6
CONTINUOUS
10
6.03193
20
-3.91804
11
6.03268
21
-3.92181
0
LINE
8
BLACK
6
CONTINUOUS
10
6.03268
20
-3.92181
11
6.03268
21
-3.94189
0
LINE
8
BLACK
6
CONTINUOUS
10
6.03268
20
-3.94189
11
6.03193
21
-3.94566
0
LINE
8
BLACK
6
CONTINUOUS
10
6.03193
20
-3.94566
11
6.02979
21
-3.94885
0
LINE
8
BLACK
6
CONTINUOUS
10
6.02979
20
-3.94885
11
6.0266
21
-3.95098
0
LINE
8
BLACK
6
CONTINUOUS
10
6.0266
20
-3.95098
11
6.02283
21
-3.95173
0
LINE
8
BLACK
6
CONTINUOUS
10
6.02283
20
-3.95173
11
6.00276
21
-3.95173
0
LINE
8
BLACK
6
CONTINUOUS
10
6.00276
20
-3.95173
11
5.99899
21
-3.95098
0
LINE
8
BLACK
6
CONTINUOUS
10
5.99899
20
-3.95098
11
5.9958
21
-3.94885
0
LINE
8
BLACK
6
CONTINUOUS
10
5.9958
20
-3.94885
11
5.99366
21
-3.94566
0
LINE
8
BLACK
6
CONTINUOUS
10
5.99366
20
-3.94566
11
5.99291
21
-3.94189
0
LINE
8
BLACK
6
CONTINUOUS
10
5.99291
20
-3.94189
11
5.99291
21
-3.92181
0
LINE
8
BLACK
6
CONTINUOUS
10
5.99291
20
-3.92181
11
5.99366
21
-3.91804
0
LINE
8
BLACK
6
CONTINUOUS
10
5.99366
20
-3.91804
11
5.9958
21
-3.91485
0
LINE
8
BLACK
6
CONTINUOUS
10
5.9958
20
-3.91485
11
5.99899
21
-3.91272
0
LINE
8
BLACK
6
CONTINUOUS
10
5.99899
20
-3.91272
11
6.00276
21
-3.91197
0
LINE
8
BLACK
6
CONTINUOUS
10
6.00276
20
-3.91197
11
6.02283
21
-3.91197
0
LINE
8
BLACK
6
CONTINUOUS
10
6.02283
20
-3.91197
11
6.0266
21
-3.91272
0
LINE
8
BLACK
6
CONTINUOUS
10
6.07581
20
-3.91272
11
6.07901
21
-3.91485
0
LINE
8
BLACK
6
CONTINUOUS
10
6.07901
20
-3.91485
11
6.08114
21
-3.91804
0
LINE
8
BLACK
6
CONTINUOUS
10
6.08114
20
-3.91804
11
6.08189
21
-3.92181
0
LINE
8
BLACK
6
CONTINUOUS
10
6.08189
20
-3.92181
11
6.08189
21
-3.94189
0
LINE
8
BLACK
6
CONTINUOUS
10
6.08189
20
-3.94189
11
6.08114
21
-3.94566
0
LINE
8
BLACK
6
CONTINUOUS
10
6.08114
20
-3.94566
11
6.07901
21
-3.94885
0
LINE
8
BLACK
6
CONTINUOUS
10
6.07901
20
-3.94885
11
6.07581
21
-3.95098
0
LINE
8
BLACK
6
CONTINUOUS
10
6.07581
20
-3.95098
11
6.07205
21
-3.95173
0
LINE
8
BLACK
6
CONTINUOUS
10
6.07205
20
-3.95173
11
6.05197
21
-3.95173
0
LINE
8
BLACK
6
CONTINUOUS
10
6.05197
20
-3.95173
11
6.0482
21
-3.95098
0
LINE
8
BLACK
6
CONTINUOUS
10
6.0482
20
-3.95098
11
6.04501
21
-3.94885
0
LINE
8
BLACK
6
CONTINUOUS
10
6.04501
20
-3.94885
11
6.04288
21
-3.94566
0
LINE
8
BLACK
6
CONTINUOUS
10
6.04288
20
-3.94566
11
6.04213
21
-3.94189
0
LINE
8
BLACK
6
CONTINUOUS
10
6.04213
20
-3.94189
11
6.04213
21
-3.92181
0
LINE
8
BLACK
6
CONTINUOUS
10
6.04213
20
-3.92181
11
6.04288
21
-3.91804
0
LINE
8
BLACK
6
CONTINUOUS
10
6.04288
20
-3.91804
11
6.04501
21
-3.91485
0
LINE
8
BLACK
6
CONTINUOUS
10
6.04501
20
-3.91485
11
6.0482
21
-3.91272
0
LINE
8
BLACK
6
CONTINUOUS
10
6.0482
20
-3.91272
11
6.05197
21
-3.91197
0
LINE
8
BLACK
6
CONTINUOUS
10
6.05197
20
-3.91197
11
6.07205
21
-3.91197
0
LINE
8
BLACK
6
CONTINUOUS
10
6.07205
20
-3.91197
11
6.07581
21
-3.91272
0
LINE
8
BLACK
6
CONTINUOUS
10
5.97584
20
-3.94188
11
5.97664
21
-3.94241
0
LINE
8
BLACK
6
CONTINUOUS
10
5.97664
20
-3.94241
11
5.97717
21
-3.94321
0
LINE
8
BLACK
6
CONTINUOUS
10
5.97717
20
-3.94321
11
5.97736
21
-3.94415
0
LINE
8
BLACK
6
CONTINUOUS
10
5.97736
20
-3.94415
11
5.97736
21
-3.94907
0
LINE
8
BLACK
6
CONTINUOUS
10
5.97736
20
-3.94907
11
5.97717
21
-3.95002
0
LINE
8
BLACK
6
CONTINUOUS
10
5.97717
20
-3.95002
11
5.97664
21
-3.95081
0
LINE
8
BLACK
6
CONTINUOUS
10
5.97664
20
-3.95081
11
5.97584
21
-3.95135
0
LINE
8
BLACK
6
CONTINUOUS
10
5.97584
20
-3.95135
11
5.9749
21
-3.95154
0
LINE
8
BLACK
6
CONTINUOUS
10
5.9749
20
-3.95154
11
5.94734
21
-3.95154
0
LINE
8
BLACK
6
CONTINUOUS
10
5.94734
20
-3.95154
11
5.9464
21
-3.95135
0
LINE
8
BLACK
6
CONTINUOUS
10
5.9464
20
-3.95135
11
5.9456
21
-3.95081
0
LINE
8
BLACK
6
CONTINUOUS
10
5.9456
20
-3.95081
11
5.94507
21
-3.95002
0
LINE
8
BLACK
6
CONTINUOUS
10
5.94507
20
-3.95002
11
5.94488
21
-3.94907
0
LINE
8
BLACK
6
CONTINUOUS
10
5.94488
20
-3.94907
11
5.94488
21
-3.94415
0
LINE
8
BLACK
6
CONTINUOUS
10
5.94488
20
-3.94415
11
5.94507
21
-3.94321
0
LINE
8
BLACK
6
CONTINUOUS
10
5.94507
20
-3.94321
11
5.9456
21
-3.94241
0
LINE
8
BLACK
6
CONTINUOUS
10
5.9456
20
-3.94241
11
5.9464
21
-3.94188
0
LINE
8
BLACK
6
CONTINUOUS
10
5.9464
20
-3.94188
11
5.94734
21
-3.94169
0
LINE
8
BLACK
6
CONTINUOUS
10
5.94734
20
-3.94169
11
5.9749
21
-3.94169
0
LINE
8
BLACK
6
CONTINUOUS
10
5.9749
20
-3.94169
11
5.97584
21
-3.94188
0
LINE
8
BLACK
6
CONTINUOUS
10
6.1284
20
-3.94188
11
6.1292
21
-3.94241
0
LINE
8
BLACK
6
CONTINUOUS
10
6.1292
20
-3.94241
11
6.12973
21
-3.94321
0
LINE
8
BLACK
6
CONTINUOUS
10
6.12973
20
-3.94321
11
6.12992
21
-3.94415
0
LINE
8
BLACK
6
CONTINUOUS
10
6.12992
20
-3.94415
11
6.12992
21
-3.94907
0
LINE
8
BLACK
6
CONTINUOUS
10
6.12992
20
-3.94907
11
6.12973
21
-3.95002
0
LINE
8
BLACK
6
CONTINUOUS
10
6.12973
20
-3.95002
11
6.1292
21
-3.95081
0
LINE
8
BLACK
6
CONTINUOUS
10
6.1292
20
-3.95081
11
6.1284
21
-3.95135
0
LINE
8
BLACK
6
CONTINUOUS
10
6.1284
20
-3.95135
11
6.12746
21
-3.95154
0
LINE
8
BLACK
6
CONTINUOUS
10
6.12746
20
-3.95154
11
6.0999
21
-3.95154
0
LINE
8
BLACK
6
CONTINUOUS
10
6.0999
20
-3.95154
11
6.09896
21
-3.95135
0
LINE
8
BLACK
6
CONTINUOUS
10
6.09896
20
-3.95135
11
6.09816
21
-3.95081
0
LINE
8
BLACK
6
CONTINUOUS
10
6.09816
20
-3.95081
11
6.09763
21
-3.95002
0
LINE
8
BLACK
6
CONTINUOUS
10
6.09763
20
-3.95002
11
6.09744
21
-3.94907
0
LINE
8
BLACK
6
CONTINUOUS
10
6.09744
20
-3.94907
11
6.09744
21
-3.94415
0
LINE
8
BLACK
6
CONTINUOUS
10
6.09744
20
-3.94415
11
6.09763
21
-3.94321
0
LINE
8
BLACK
6
CONTINUOUS
10
6.09763
20
-3.94321
11
6.09816
21
-3.94241
0
LINE
8
BLACK
6
CONTINUOUS
10
6.09816
20
-3.94241
11
6.09896
21
-3.94188
0
LINE
8
BLACK
6
CONTINUOUS
10
6.09896
20
-3.94188
11
6.0999
21
-3.94169
0
LINE
8
BLACK
6
CONTINUOUS
10
6.0999
20
-3.94169
11
6.12746
21
-3.94169
0
LINE
8
BLACK
6
CONTINUOUS
10
6.12746
20
-3.94169
11
6.1284
21
-3.94188
0
LINE
8
BLACK
6
CONTINUOUS
10
6.1284
20
-3.9222
11
6.1292
21
-3.92273
0
LINE
8
BLACK
6
CONTINUOUS
10
6.1292
20
-3.92273
11
6.12973
21
-3.92353
0
LINE
8
BLACK
6
CONTINUOUS
10
6.12973
20
-3.92353
11
6.12992
21
-3.92447
0
LINE
8
BLACK
6
CONTINUOUS
10
6.12992
20
-3.92447
11
6.12992
21
-3.92939
0
LINE
8
BLACK
6
CONTINUOUS
10
6.12992
20
-3.92939
11
6.12973
21
-3.93033
0
LINE
8
BLACK
6
CONTINUOUS
10
6.12973
20
-3.93033
11
6.1292
21
-3.93113
0
LINE
8
BLACK
6
CONTINUOUS
10
6.1292
20
-3.93113
11
6.1284
21
-3.93166
0
LINE
8
BLACK
6
CONTINUOUS
10
6.1284
20
-3.93166
11
6.12746
21
-3.93185
0
LINE
8
BLACK
6
CONTINUOUS
10
6.12746
20
-3.93185
11
6.0999
21
-3.93185
0
LINE
8
BLACK
6
CONTINUOUS
10
6.0999
20
-3.93185
11
6.09896
21
-3.93166
0
LINE
8
BLACK
6
CONTINUOUS
10
6.09896
20
-3.93166
11
6.09816
21
-3.93113
0
LINE
8
BLACK
6
CONTINUOUS
10
6.09816
20
-3.93113
11
6.09763
21
-3.93033
0
LINE
8
BLACK
6
CONTINUOUS
10
6.09763
20
-3.93033
11
6.09744
21
-3.92939
0
LINE
8
BLACK
6
CONTINUOUS
10
6.09744
20
-3.92939
11
6.09744
21
-3.92447
0
LINE
8
BLACK
6
CONTINUOUS
10
6.09744
20
-3.92447
11
6.09763
21
-3.92353
0
LINE
8
BLACK
6
CONTINUOUS
10
6.09763
20
-3.92353
11
6.09816
21
-3.92273
0
LINE
8
BLACK
6
CONTINUOUS
10
6.09816
20
-3.92273
11
6.09896
21
-3.9222
0
LINE
8
BLACK
6
CONTINUOUS
10
6.09896
20
-3.9222
11
6.0999
21
-3.92201
0
LINE
8
BLACK
6
CONTINUOUS
10
6.0999
20
-3.92201
11
6.12746
21
-3.92201
0
LINE
8
BLACK
6
CONTINUOUS
10
6.12746
20
-3.92201
11
6.1284
21
-3.9222
0
LINE
8
BLACK
6
CONTINUOUS
10
5.97584
20
-3.9222
11
5.97664
21
-3.92273
0
LINE
8
BLACK
6
CONTINUOUS
10
5.97664
20
-3.92273
11
5.97717
21
-3.92353
0
LINE
8
BLACK
6
CONTINUOUS
10
5.97717
20
-3.92353
11
5.97736
21
-3.92447
0
LINE
8
BLACK
6
CONTINUOUS
10
5.97736
20
-3.92447
11
5.97736
21
-3.92939
0
LINE
8
BLACK
6
CONTINUOUS
10
5.97736
20
-3.92939
11
5.97717
21
-3.93033
0
LINE
8
BLACK
6
CONTINUOUS
10
5.97717
20
-3.93033
11
5.97664
21
-3.93113
0
LINE
8
BLACK
6
CONTINUOUS
10
5.97664
20
-3.93113
11
5.97584
21
-3.93166
0
LINE
8
BLACK
6
CONTINUOUS
10
5.97584
20
-3.93166
11
5.9749
21
-3.93185
0
LINE
8
BLACK
6
CONTINUOUS
10
5.9749
20
-3.93185
11
5.94734
21
-3.93185
0
LINE
8
BLACK
6
CONTINUOUS
10
5.94734
20
-3.93185
11
5.9464
21
-3.93166
0
LINE
8
BLACK
6
CONTINUOUS
10
5.9464
20
-3.93166
11
5.9456
21
-3.93113
0
LINE
8
BLACK
6
CONTINUOUS
10
5.9456
20
-3.93113
11
5.94507
21
-3.93033
0
LINE
8
BLACK
6
CONTINUOUS
10
5.94507
20
-3.93033
11
5.94488
21
-3.92939
0
LINE
8
BLACK
6
CONTINUOUS
10
5.94488
20
-3.92939
11
5.94488
21
-3.92447
0
LINE
8
BLACK
6
CONTINUOUS
10
5.94488
20
-3.92447
11
5.94507
21
-3.92353
0
LINE
8
BLACK
6
CONTINUOUS
10
5.94507
20
-3.92353
11
5.9456
21
-3.92273
0
LINE
8
BLACK
6
CONTINUOUS
10
5.9456
20
-3.92273
11
5.9464
21
-3.9222
0
LINE
8
BLACK
6
CONTINUOUS
10
5.9464
20
-3.9222
11
5.94734
21
-3.92201
0
LINE
8
BLACK
6
CONTINUOUS
10
5.94734
20
-3.92201
11
5.9749
21
-3.92201
0
LINE
8
BLACK
6
CONTINUOUS
10
5.9749
20
-3.92201
11
5.97584
21
-3.9222
0
LINE
8
BLACK
6
CONTINUOUS
10
6.1284
20
-3.90251
11
6.1292
21
-3.90304
0
LINE
8
BLACK
6
CONTINUOUS
10
6.1292
20
-3.90304
11
6.12973
21
-3.90384
0
LINE
8
BLACK
6
CONTINUOUS
10
6.12973
20
-3.90384
11
6.12992
21
-3.90478
0
LINE
8
BLACK
6
CONTINUOUS
10
6.12992
20
-3.90478
11
6.12992
21
-3.9097
0
LINE
8
BLACK
6
CONTINUOUS
10
6.12992
20
-3.9097
11
6.12973
21
-3.91065
0
LINE
8
BLACK
6
CONTINUOUS
10
6.12973
20
-3.91065
11
6.1292
21
-3.91144
0
LINE
8
BLACK
6
CONTINUOUS
10
6.1292
20
-3.91144
11
6.1284
21
-3.91198
0
LINE
8
BLACK
6
CONTINUOUS
10
6.1284
20
-3.91198
11
6.12746
21
-3.91217
0
LINE
8
BLACK
6
CONTINUOUS
10
6.12746
20
-3.91217
11
6.0999
21
-3.91217
0
LINE
8
BLACK
6
CONTINUOUS
10
6.0999
20
-3.91217
11
6.09896
21
-3.91198
0
LINE
8
BLACK
6
CONTINUOUS
10
6.09896
20
-3.91198
11
6.09816
21
-3.91144
0
LINE
8
BLACK
6
CONTINUOUS
10
6.09816
20
-3.91144
11
6.09763
21
-3.91065
0
LINE
8
BLACK
6
CONTINUOUS
10
6.09763
20
-3.91065
11
6.09744
21
-3.9097
0
LINE
8
BLACK
6
CONTINUOUS
10
6.09744
20
-3.9097
11
6.09744
21
-3.90478
0
LINE
8
BLACK
6
CONTINUOUS
10
6.09744
20
-3.90478
11
6.09763
21
-3.90384
0
LINE
8
BLACK
6
CONTINUOUS
10
6.09763
20
-3.90384
11
6.09816
21
-3.90304
0
LINE
8
BLACK
6
CONTINUOUS
10
6.09816
20
-3.90304
11
6.09896
21
-3.90251
0
LINE
8
BLACK
6
CONTINUOUS
10
6.09896
20
-3.90251
11
6.0999
21
-3.90232
0
LINE
8
BLACK
6
CONTINUOUS
10
6.0999
20
-3.90232
11
6.12746
21
-3.90232
0
LINE
8
BLACK
6
CONTINUOUS
10
6.12746
20
-3.90232
11
6.1284
21
-3.90251
0
LINE
8
BLACK
6
CONTINUOUS
10
5.97584
20
-3.90251
11
5.97664
21
-3.90304
0
LINE
8
BLACK
6
CONTINUOUS
10
5.97664
20
-3.90304
11
5.97717
21
-3.90384
0
LINE
8
BLACK
6
CONTINUOUS
10
5.97717
20
-3.90384
11
5.97736
21
-3.90478
0
LINE
8
BLACK
6
CONTINUOUS
10
5.97736
20
-3.90478
11
5.97736
21
-3.9097
0
LINE
8
BLACK
6
CONTINUOUS
10
5.97736
20
-3.9097
11
5.97717
21
-3.91065
0
LINE
8
BLACK
6
CONTINUOUS
10
5.97717
20
-3.91065
11
5.97664
21
-3.91144
0
LINE
8
BLACK
6
CONTINUOUS
10
5.97664
20
-3.91144
11
5.97584
21
-3.91198
0
LINE
8
BLACK
6
CONTINUOUS
10
5.97584
20
-3.91198
11
5.9749
21
-3.91217
0
LINE
8
BLACK
6
CONTINUOUS
10
5.9749
20
-3.91217
11
5.94734
21
-3.91217
0
LINE
8
BLACK
6
CONTINUOUS
10
5.94734
20
-3.91217
11
5.9464
21
-3.91198
0
LINE
8
BLACK
6
CONTINUOUS
10
5.9464
20
-3.91198
11
5.9456
21
-3.91144
0
LINE
8
BLACK
6
CONTINUOUS
10
5.9456
20
-3.91144
11
5.94507
21
-3.91065
0
LINE
8
BLACK
6
CONTINUOUS
10
5.94507
20
-3.91065
11
5.94488
21
-3.9097
0
LINE
8
BLACK
6
CONTINUOUS
10
5.94488
20
-3.9097
11
5.94488
21
-3.90478
0
LINE
8
BLACK
6
CONTINUOUS
10
5.94488
20
-3.90478
11
5.94507
21
-3.90384
0
LINE
8
BLACK
6
CONTINUOUS
10
5.94507
20
-3.90384
11
5.9456
21
-3.90304
0
LINE
8
BLACK
6
CONTINUOUS
10
5.9456
20
-3.90304
11
5.9464
21
-3.90251
0
LINE
8
BLACK
6
CONTINUOUS
10
5.9464
20
-3.90251
11
5.94734
21
-3.90232
0
LINE
8
BLACK
6
CONTINUOUS
10
5.94734
20
-3.90232
11
5.9749
21
-3.90232
0
LINE
8
BLACK
6
CONTINUOUS
10
5.9749
20
-3.90232
11
5.97584
21
-3.90251
0
LINE
8
BLACK
6
CONTINUOUS
10
6.0266
20
-3.86351
11
6.02979
21
-3.86564
0
LINE
8
BLACK
6
CONTINUOUS
10
6.02979
20
-3.86564
11
6.03193
21
-3.86883
0
LINE
8
BLACK
6
CONTINUOUS
10
6.03193
20
-3.86883
11
6.03268
21
-3.8726
0
LINE
8
BLACK
6
CONTINUOUS
10
6.03268
20
-3.8726
11
6.03268
21
-3.89268
0
LINE
8
BLACK
6
CONTINUOUS
10
6.03268
20
-3.89268
11
6.03193
21
-3.89644
0
LINE
8
BLACK
6
CONTINUOUS
10
6.03193
20
-3.89644
11
6.02979
21
-3.89964
0
LINE
8
BLACK
6
CONTINUOUS
10
6.02979
20
-3.89964
11
6.0266
21
-3.90177
0
LINE
8
BLACK
6
CONTINUOUS
10
6.0266
20
-3.90177
11
6.02283
21
-3.90252
0
LINE
8
BLACK
6
CONTINUOUS
10
6.02283
20
-3.90252
11
6.00276
21
-3.90252
0
LINE
8
BLACK
6
CONTINUOUS
10
6.00276
20
-3.90252
11
5.99899
21
-3.90177
0
LINE
8
BLACK
6
CONTINUOUS
10
5.99899
20
-3.90177
11
5.9958
21
-3.89964
0
LINE
8
BLACK
6
CONTINUOUS
10
5.9958
20
-3.89964
11
5.99366
21
-3.89644
0
LINE
8
BLACK
6
CONTINUOUS
10
5.99366
20
-3.89644
11
5.99291
21
-3.89268
0
LINE
8
BLACK
6
CONTINUOUS
10
5.99291
20
-3.89268
11
5.99291
21
-3.8726
0
LINE
8
BLACK
6
CONTINUOUS
10
5.99291
20
-3.8726
11
5.99366
21
-3.86883
0
LINE
8
BLACK
6
CONTINUOUS
10
5.99366
20
-3.86883
11
5.9958
21
-3.86564
0
LINE
8
BLACK
6
CONTINUOUS
10
5.9958
20
-3.86564
11
5.99899
21
-3.86351
0
LINE
8
BLACK
6
CONTINUOUS
10
5.99899
20
-3.86351
11
6.00276
21
-3.86276
0
LINE
8
BLACK
6
CONTINUOUS
10
6.00276
20
-3.86276
11
6.02283
21
-3.86276
0
LINE
8
BLACK
6
CONTINUOUS
10
6.02283
20
-3.86276
11
6.0266
21
-3.86351
0
LINE
8
BLACK
6
CONTINUOUS
10
6.07581
20
-3.86351
11
6.07901
21
-3.86564
0
LINE
8
BLACK
6
CONTINUOUS
10
6.07901
20
-3.86564
11
6.08114
21
-3.86883
0
LINE
8
BLACK
6
CONTINUOUS
10
6.08114
20
-3.86883
11
6.08189
21
-3.8726
0
LINE
8
BLACK
6
CONTINUOUS
10
6.08189
20
-3.8726
11
6.08189
21
-3.89268
0
LINE
8
BLACK
6
CONTINUOUS
10
6.08189
20
-3.89268
11
6.08114
21
-3.89644
0
LINE
8
BLACK
6
CONTINUOUS
10
6.08114
20
-3.89644
11
6.07901
21
-3.89964
0
LINE
8
BLACK
6
CONTINUOUS
10
6.07901
20
-3.89964
11
6.07581
21
-3.90177
0
LINE
8
BLACK
6
CONTINUOUS
10
6.07581
20
-3.90177
11
6.07205
21
-3.90252
0
LINE
8
BLACK
6
CONTINUOUS
10
6.07205
20
-3.90252
11
6.05197
21
-3.90252
0
LINE
8
BLACK
6
CONTINUOUS
10
6.05197
20
-3.90252
11
6.0482
21
-3.90177
0
LINE
8
BLACK
6
CONTINUOUS
10
6.0482
20
-3.90177
11
6.04501
21
-3.89964
0
LINE
8
BLACK
6
CONTINUOUS
10
6.04501
20
-3.89964
11
6.04288
21
-3.89644
0
LINE
8
BLACK
6
CONTINUOUS
10
6.04288
20
-3.89644
11
6.04213
21
-3.89268
0
LINE
8
BLACK
6
CONTINUOUS
10
6.04213
20
-3.89268
11
6.04213
21
-3.8726
0
LINE
8
BLACK
6
CONTINUOUS
10
6.04213
20
-3.8726
11
6.04288
21
-3.86883
0
LINE
8
BLACK
6
CONTINUOUS
10
6.04288
20
-3.86883
11
6.04501
21
-3.86564
0
LINE
8
BLACK
6
CONTINUOUS
10
6.04501
20
-3.86564
11
6.0482
21
-3.86351
0
LINE
8
BLACK
6
CONTINUOUS
10
6.0482
20
-3.86351
11
6.05197
21
-3.86276
0
LINE
8
BLACK
6
CONTINUOUS
10
6.05197
20
-3.86276
11
6.07205
21
-3.86276
0
LINE
8
BLACK
6
CONTINUOUS
10
6.07205
20
-3.86276
11
6.07581
21
-3.86351
0
LINE
8
BLACK
6
CONTINUOUS
10
5.1649
20
-3.89974
11
5.1099
21
-3.89974
0
LINE
8
BLACK
6
CONTINUOUS
10
5.1099
20
-3.89974
11
5.1099
21
-3.86474
0
LINE
8
BLACK
6
CONTINUOUS
10
5.1099
20
-3.86474
11
5.1649
21
-3.86474
0
LINE
8
BLACK
6
CONTINUOUS
10
5.1649
20
-3.86474
11
5.1649
21
-3.89974
0
LINE
8
BLACK
6
CONTINUOUS
10
5.2649
20
-3.89974
11
5.2099
21
-3.89974
0
LINE
8
BLACK
6
CONTINUOUS
10
5.2099
20
-3.89974
11
5.2099
21
-3.86474
0
LINE
8
BLACK
6
CONTINUOUS
10
5.2099
20
-3.86474
11
5.2649
21
-3.86474
0
LINE
8
BLACK
6
CONTINUOUS
10
5.2649
20
-3.86474
11
5.2649
21
-3.89974
0
LINE
8
BLACK
6
CONTINUOUS
10
5.97584
20
-3.88283
11
5.97664
21
-3.88336
0
LINE
8
BLACK
6
CONTINUOUS
10
5.97664
20
-3.88336
11
5.97717
21
-3.88416
0
LINE
8
BLACK
6
CONTINUOUS
10
5.97717
20
-3.88416
11
5.97736
21
-3.8851
0
LINE
8
BLACK
6
CONTINUOUS
10
5.97736
20
-3.8851
11
5.97736
21
-3.89002
0
LINE
8
BLACK
6
CONTINUOUS
10
5.97736
20
-3.89002
11
5.97717
21
-3.89096
0
LINE
8
BLACK
6
CONTINUOUS
10
5.97717
20
-3.89096
11
5.97664
21
-3.89176
0
LINE
8
BLACK
6
CONTINUOUS
10
5.97664
20
-3.89176
11
5.97584
21
-3.89229
0
LINE
8
BLACK
6
CONTINUOUS
10
5.97584
20
-3.89229
11
5.9749
21
-3.89248
0
LINE
8
BLACK
6
CONTINUOUS
10
5.9749
20
-3.89248
11
5.94734
21
-3.89248
0
LINE
8
BLACK
6
CONTINUOUS
10
5.94734
20
-3.89248
11
5.9464
21
-3.89229
0
LINE
8
BLACK
6
CONTINUOUS
10
5.9464
20
-3.89229
11
5.9456
21
-3.89176
0
LINE
8
BLACK
6
CONTINUOUS
10
5.9456
20
-3.89176
11
5.94507
21
-3.89096
0
LINE
8
BLACK
6
CONTINUOUS
10
5.94507
20
-3.89096
11
5.94488
21
-3.89002
0
LINE
8
BLACK
6
CONTINUOUS
10
5.94488
20
-3.89002
11
5.94488
21
-3.8851
0
LINE
8
BLACK
6
CONTINUOUS
10
5.94488
20
-3.8851
11
5.94507
21
-3.88416
0
LINE
8
BLACK
6
CONTINUOUS
10
5.94507
20
-3.88416
11
5.9456
21
-3.88336
0
LINE
8
BLACK
6
CONTINUOUS
10
5.9456
20
-3.88336
11
5.9464
21
-3.88283
0
LINE
8
BLACK
6
CONTINUOUS
10
5.9464
20
-3.88283
11
5.94734
21
-3.88264
0
LINE
8
BLACK
6
CONTINUOUS
10
5.94734
20
-3.88264
11
5.9749
21
-3.88264
0
LINE
8
BLACK
6
CONTINUOUS
10
5.9749
20
-3.88264
11
5.97584
21
-3.88283
0
LINE
8
BLACK
6
CONTINUOUS
10
6.1284
20
-3.88283
11
6.1292
21
-3.88336
0
LINE
8
BLACK
6
CONTINUOUS
10
6.1292
20
-3.88336
11
6.12973
21
-3.88416
0
LINE
8
BLACK
6
CONTINUOUS
10
6.12973
20
-3.88416
11
6.12992
21
-3.8851
0
LINE
8
BLACK
6
CONTINUOUS
10
6.12992
20
-3.8851
11
6.12992
21
-3.89002
0
LINE
8
BLACK
6
CONTINUOUS
10
6.12992
20
-3.89002
11
6.12973
21
-3.89096
0
LINE
8
BLACK
6
CONTINUOUS
10
6.12973
20
-3.89096
11
6.1292
21
-3.89176
0
LINE
8
BLACK
6
CONTINUOUS
10
6.1292
20
-3.89176
11
6.1284
21
-3.89229
0
LINE
8
BLACK
6
CONTINUOUS
10
6.1284
20
-3.89229
11
6.12746
21
-3.89248
0
LINE
8
BLACK
6
CONTINUOUS
10
6.12746
20
-3.89248
11
6.0999
21
-3.89248
0
LINE
8
BLACK
6
CONTINUOUS
10
6.0999
20
-3.89248
11
6.09896
21
-3.89229
0
LINE
8
BLACK
6
CONTINUOUS
10
6.09896
20
-3.89229
11
6.09816
21
-3.89176
0
LINE
8
BLACK
6
CONTINUOUS
10
6.09816
20
-3.89176
11
6.09763
21
-3.89096
0
LINE
8
BLACK
6
CONTINUOUS
10
6.09763
20
-3.89096
11
6.09744
21
-3.89002
0
LINE
8
BLACK
6
CONTINUOUS
10
6.09744
20
-3.89002
11
6.09744
21
-3.8851
0
LINE
8
BLACK
6
CONTINUOUS
10
6.09744
20
-3.8851
11
6.09763
21
-3.88416
0
LINE
8
BLACK
6
CONTINUOUS
10
6.09763
20
-3.88416
11
6.09816
21
-3.88336
0
LINE
8
BLACK
6
CONTINUOUS
10
6.09816
20
-3.88336
11
6.09896
21
-3.88283
0
LINE
8
BLACK
6
CONTINUOUS
10
6.09896
20
-3.88283
11
6.0999
21
-3.88264
0
LINE
8
BLACK
6
CONTINUOUS
10
6.0999
20
-3.88264
11
6.12746
21
-3.88264
0
LINE
8
BLACK
6
CONTINUOUS
10
6.12746
20
-3.88264
11
6.1284
21
-3.88283
0
LINE
8
BLACK
6
CONTINUOUS
10
6.1284
20
-3.86314
11
6.1292
21
-3.86367
0
LINE
8
BLACK
6
CONTINUOUS
10
6.1292
20
-3.86367
11
6.12973
21
-3.86447
0
LINE
8
BLACK
6
CONTINUOUS
10
6.12973
20
-3.86447
11
6.12992
21
-3.86541
0
LINE
8
BLACK
6
CONTINUOUS
10
6.12992
20
-3.86541
11
6.12992
21
-3.87033
0
LINE
8
BLACK
6
CONTINUOUS
10
6.12992
20
-3.87033
11
6.12973
21
-3.87128
0
LINE
8
BLACK
6
CONTINUOUS
10
6.12973
20
-3.87128
11
6.1292
21
-3.87207
0
LINE
8
BLACK
6
CONTINUOUS
10
6.1292
20
-3.87207
11
6.1284
21
-3.87261
0
LINE
8
BLACK
6
CONTINUOUS
10
6.1284
20
-3.87261
11
6.12746
21
-3.8728
0
LINE
8
BLACK
6
CONTINUOUS
10
6.12746
20
-3.8728
11
6.0999
21
-3.8728
0
LINE
8
BLACK
6
CONTINUOUS
10
6.0999
20
-3.8728
11
6.09896
21
-3.87261
0
LINE
8
BLACK
6
CONTINUOUS
10
6.09896
20
-3.87261
11
6.09816
21
-3.87207
0
LINE
8
BLACK
6
CONTINUOUS
10
6.09816
20
-3.87207
11
6.09763
21
-3.87128
0
LINE
8
BLACK
6
CONTINUOUS
10
6.09763
20
-3.87128
11
6.09744
21
-3.87033
0
LINE
8
BLACK
6
CONTINUOUS
10
6.09744
20
-3.87033
11
6.09744
21
-3.86541
0
LINE
8
BLACK
6
CONTINUOUS
10
6.09744
20
-3.86541
11
6.09763
21
-3.86447
0
LINE
8
BLACK
6
CONTINUOUS
10
6.09763
20
-3.86447
11
6.09816
21
-3.86367
0
LINE
8
BLACK
6
CONTINUOUS
10
6.09816
20
-3.86367
11
6.09896
21
-3.86314
0
LINE
8
BLACK
6
CONTINUOUS
10
6.09896
20
-3.86314
11
6.0999
21
-3.86295
0
LINE
8
BLACK
6
CONTINUOUS
10
6.0999
20
-3.86295
11
6.12746
21
-3.86295
0
LINE
8
BLACK
6
CONTINUOUS
10
6.12746
20
-3.86295
11
6.1284
21
-3.86314
0
LINE
8
BLACK
6
CONTINUOUS
10
5.97584
20
-3.86314
11
5.97664
21
-3.86367
0
LINE
8
BLACK
6
CONTINUOUS
10
5.97664
20
-3.86367
11
5.97717
21
-3.86447
0
LINE
8
BLACK
6
CONTINUOUS
10
5.97717
20
-3.86447
11
5.97736
21
-3.86541
0
LINE
8
BLACK
6
CONTINUOUS
10
5.97736
20
-3.86541
11
5.97736
21
-3.87033
0
LINE
8
BLACK
6
CONTINUOUS
10
5.97736
20
-3.87033
11
5.97717
21
-3.87128
0
LINE
8
BLACK
6
CONTINUOUS
10
5.97717
20
-3.87128
11
5.97664
21
-3.87207
0
LINE
8
BLACK
6
CONTINUOUS
10
5.97664
20
-3.87207
11
5.97584
21
-3.87261
0
LINE
8
BLACK
6
CONTINUOUS
10
5.97584
20
-3.87261
11
5.9749
21
-3.8728
0
LINE
8
BLACK
6
CONTINUOUS
10
5.9749
20
-3.8728
11
5.94734
21
-3.8728
0
LINE
8
BLACK
6
CONTINUOUS
10
5.94734
20
-3.8728
11
5.9464
21
-3.87261
0
LINE
8
BLACK
6
CONTINUOUS
10
5.9464
20
-3.87261
11
5.9456
21
-3.87207
0
LINE
8
BLACK
6
CONTINUOUS
10
5.9456
20
-3.87207
11
5.94507
21
-3.87128
0
LINE
8
BLACK
6
CONTINUOUS
10
5.94507
20
-3.87128
11
5.94488
21
-3.87033
0
LINE
8
BLACK
6
CONTINUOUS
10
5.94488
20
-3.87033
11
5.94488
21
-3.86541
0
LINE
8
BLACK
6
CONTINUOUS
10
5.94488
20
-3.86541
11
5.94507
21
-3.86447
0
LINE
8
BLACK
6
CONTINUOUS
10
5.94507
20
-3.86447
11
5.9456
21
-3.86367
0
LINE
8
BLACK
6
CONTINUOUS
10
5.9456
20
-3.86367
11
5.9464
21
-3.86314
0
LINE
8
BLACK
6
CONTINUOUS
10
5.9464
20
-3.86314
11
5.94734
21
-3.86295
0
LINE
8
BLACK
6
CONTINUOUS
10
5.94734
20
-3.86295
11
5.9749
21
-3.86295
0
LINE
8
BLACK
6
CONTINUOUS
10
5.9749
20
-3.86295
11
5.97584
21
-3.86314
0
LINE
8
BLACK
6
CONTINUOUS
10
6.08017
20
-3.81491
11
6.08097
21
-3.81545
0
LINE
8
BLACK
6
CONTINUOUS
10
6.08097
20
-3.81545
11
6.08151
21
-3.81624
0
LINE
8
BLACK
6
CONTINUOUS
10
6.08151
20
-3.81624
11
6.08169
21
-3.81719
0
LINE
8
BLACK
6
CONTINUOUS
10
6.08169
20
-3.81719
11
6.08169
21
-3.84474
0
LINE
8
BLACK
6
CONTINUOUS
10
6.08169
20
-3.84474
11
6.08151
21
-3.84569
0
LINE
8
BLACK
6
CONTINUOUS
10
6.08151
20
-3.84569
11
6.08097
21
-3.84648
0
LINE
8
BLACK
6
CONTINUOUS
10
6.08097
20
-3.84648
11
6.08017
21
-3.84702
0
LINE
8
BLACK
6
CONTINUOUS
10
6.08017
20
-3.84702
11
6.07923
21
-3.8472
0
LINE
8
BLACK
6
CONTINUOUS
10
6.07923
20
-3.8472
11
6.07431
21
-3.8472
0
LINE
8
BLACK
6
CONTINUOUS
10
6.07431
20
-3.8472
11
6.07337
21
-3.84702
0
LINE
8
BLACK
6
CONTINUOUS
10
6.07337
20
-3.84702
11
6.07257
21
-3.84648
0
LINE
8
BLACK
6
CONTINUOUS
10
6.07257
20
-3.84648
11
6.07204
21
-3.84569
0
LINE
8
BLACK
6
CONTINUOUS
10
6.07204
20
-3.84569
11
6.07185
21
-3.84474
0
LINE
8
BLACK
6
CONTINUOUS
10
6.07185
20
-3.84474
11
6.07185
21
-3.81719
0
LINE
8
BLACK
6
CONTINUOUS
10
6.07185
20
-3.81719
11
6.07204
21
-3.81624
0
LINE
8
BLACK
6
CONTINUOUS
10
6.07204
20
-3.81624
11
6.07257
21
-3.81545
0
LINE
8
BLACK
6
CONTINUOUS
10
6.07257
20
-3.81545
11
6.07337
21
-3.81491
0
LINE
8
BLACK
6
CONTINUOUS
10
6.07337
20
-3.81491
11
6.07431
21
-3.81472
0
LINE
8
BLACK
6
CONTINUOUS
10
6.07431
20
-3.81472
11
6.07923
21
-3.81472
0
LINE
8
BLACK
6
CONTINUOUS
10
6.07923
20
-3.81472
11
6.08017
21
-3.81491
0
LINE
8
BLACK
6
CONTINUOUS
10
6.00143
20
-3.81491
11
6.00223
21
-3.81545
0
LINE
8
BLACK
6
CONTINUOUS
10
6.00223
20
-3.81545
11
6.00277
21
-3.81624
0
LINE
8
BLACK
6
CONTINUOUS
10
6.00277
20
-3.81624
11
6.00295
21
-3.81719
0
LINE
8
BLACK
6
CONTINUOUS
10
6.00295
20
-3.81719
11
6.00295
21
-3.84474
0
LINE
8
BLACK
6
CONTINUOUS
10
6.00295
20
-3.84474
11
6.00277
21
-3.84569
0
LINE
8
BLACK
6
CONTINUOUS
10
6.00277
20
-3.84569
11
6.00223
21
-3.84648
0
LINE
8
BLACK
6
CONTINUOUS
10
6.00223
20
-3.84648
11
6.00143
21
-3.84702
0
LINE
8
BLACK
6
CONTINUOUS
10
6.00143
20
-3.84702
11
6.00049
21
-3.8472
0
LINE
8
BLACK
6
CONTINUOUS
10
6.00049
20
-3.8472
11
5.99557
21
-3.8472
0
LINE
8
BLACK
6
CONTINUOUS
10
5.99557
20
-3.8472
11
5.99463
21
-3.84702
0
LINE
8
BLACK
6
CONTINUOUS
10
5.99463
20
-3.84702
11
5.99383
21
-3.84648
0
LINE
8
BLACK
6
CONTINUOUS
10
5.99383
20
-3.84648
11
5.9933
21
-3.84569
0
LINE
8
BLACK
6
CONTINUOUS
10
5.9933
20
-3.84569
11
5.99311
21
-3.84474
0
LINE
8
BLACK
6
CONTINUOUS
10
5.99311
20
-3.84474
11
5.99311
21
-3.81719
0
LINE
8
BLACK
6
CONTINUOUS
10
5.99311
20
-3.81719
11
5.9933
21
-3.81624
0
LINE
8
BLACK
6
CONTINUOUS
10
5.9933
20
-3.81624
11
5.99383
21
-3.81545
0
LINE
8
BLACK
6
CONTINUOUS
10
5.99383
20
-3.81545
11
5.99463
21
-3.81491
0
LINE
8
BLACK
6
CONTINUOUS
10
5.99463
20
-3.81491
11
5.99557
21
-3.81472
0
LINE
8
BLACK
6
CONTINUOUS
10
5.99557
20
-3.81472
11
6.00049
21
-3.81472
0
LINE
8
BLACK
6
CONTINUOUS
10
6.00049
20
-3.81472
11
6.00143
21
-3.81491
0
LINE
8
BLACK
6
CONTINUOUS
10
6.02112
20
-3.81491
11
6.02192
21
-3.81545
0
LINE
8
BLACK
6
CONTINUOUS
10
6.02192
20
-3.81545
11
6.02245
21
-3.81624
0
LINE
8
BLACK
6
CONTINUOUS
10
6.02245
20
-3.81624
11
6.02264
21
-3.81719
0
LINE
8
BLACK
6
CONTINUOUS
10
6.02264
20
-3.81719
11
6.02264
21
-3.84474
0
LINE
8
BLACK
6
CONTINUOUS
10
6.02264
20
-3.84474
11
6.02245
21
-3.84569
0
LINE
8
BLACK
6
CONTINUOUS
10
6.02245
20
-3.84569
11
6.02192
21
-3.84648
0
LINE
8
BLACK
6
CONTINUOUS
10
6.02192
20
-3.84648
11
6.02112
21
-3.84702
0
LINE
8
BLACK
6
CONTINUOUS
10
6.02112
20
-3.84702
11
6.02018
21
-3.8472
0
LINE
8
BLACK
6
CONTINUOUS
10
6.02018
20
-3.8472
11
6.01526
21
-3.8472
0
LINE
8
BLACK
6
CONTINUOUS
10
6.01526
20
-3.8472
11
6.01431
21
-3.84702
0
LINE
8
BLACK
6
CONTINUOUS
10
6.01431
20
-3.84702
11
6.01352
21
-3.84648
0
LINE
8
BLACK
6
CONTINUOUS
10
6.01352
20
-3.84648
11
6.01298
21
-3.84569
0
LINE
8
BLACK
6
CONTINUOUS
10
6.01298
20
-3.84569
11
6.0128
21
-3.84474
0
LINE
8
BLACK
6
CONTINUOUS
10
6.0128
20
-3.84474
11
6.0128
21
-3.81719
0
LINE
8
BLACK
6
CONTINUOUS
10
6.0128
20
-3.81719
11
6.01298
21
-3.81624
0
LINE
8
BLACK
6
CONTINUOUS
10
6.01298
20
-3.81624
11
6.01352
21
-3.81545
0
LINE
8
BLACK
6
CONTINUOUS
10
6.01352
20
-3.81545
11
6.01431
21
-3.81491
0
LINE
8
BLACK
6
CONTINUOUS
10
6.01431
20
-3.81491
11
6.01526
21
-3.81472
0
LINE
8
BLACK
6
CONTINUOUS
10
6.01526
20
-3.81472
11
6.02018
21
-3.81472
0
LINE
8
BLACK
6
CONTINUOUS
10
6.02018
20
-3.81472
11
6.02112
21
-3.81491
0
LINE
8
BLACK
6
CONTINUOUS
10
6.0408
20
-3.81491
11
6.0416
21
-3.81545
0
LINE
8
BLACK
6
CONTINUOUS
10
6.0416
20
-3.81545
11
6.04214
21
-3.81624
0
LINE
8
BLACK
6
CONTINUOUS
10
6.04214
20
-3.81624
11
6.04232
21
-3.81719
0
LINE
8
BLACK
6
CONTINUOUS
10
6.04232
20
-3.81719
11
6.04232
21
-3.84474
0
LINE
8
BLACK
6
CONTINUOUS
10
6.04232
20
-3.84474
11
6.04214
21
-3.84569
0
LINE
8
BLACK
6
CONTINUOUS
10
6.04214
20
-3.84569
11
6.0416
21
-3.84648
0
LINE
8
BLACK
6
CONTINUOUS
10
6.0416
20
-3.84648
11
6.0408
21
-3.84702
0
LINE
8
BLACK
6
CONTINUOUS
10
6.0408
20
-3.84702
11
6.03986
21
-3.8472
0
LINE
8
BLACK
6
CONTINUOUS
10
6.03986
20
-3.8472
11
6.03494
21
-3.8472
0
LINE
8
BLACK
6
CONTINUOUS
10
6.03494
20
-3.8472
11
6.034
21
-3.84702
0
LINE
8
BLACK
6
CONTINUOUS
10
6.034
20
-3.84702
11
6.0332
21
-3.84648
0
LINE
8
BLACK
6
CONTINUOUS
10
6.0332
20
-3.84648
11
6.03267
21
-3.84569
0
LINE
8
BLACK
6
CONTINUOUS
10
6.03267
20
-3.84569
11
6.03248
21
-3.84474
0
LINE
8
BLACK
6
CONTINUOUS
10
6.03248
20
-3.84474
11
6.03248
21
-3.81719
0
LINE
8
BLACK
6
CONTINUOUS
10
6.03248
20
-3.81719
11
6.03267
21
-3.81624
0
LINE
8
BLACK
6
CONTINUOUS
10
6.03267
20
-3.81624
11
6.0332
21
-3.81545
0
LINE
8
BLACK
6
CONTINUOUS
10
6.0332
20
-3.81545
11
6.034
21
-3.81491
0
LINE
8
BLACK
6
CONTINUOUS
10
6.034
20
-3.81491
11
6.03494
21
-3.81472
0
LINE
8
BLACK
6
CONTINUOUS
10
6.03494
20
-3.81472
11
6.03986
21
-3.81472
0
LINE
8
BLACK
6
CONTINUOUS
10
6.03986
20
-3.81472
11
6.0408
21
-3.81491
0
LINE
8
BLACK
6
CONTINUOUS
10
6.06049
20
-3.81491
11
6.06129
21
-3.81545
0
LINE
8
BLACK
6
CONTINUOUS
10
6.06129
20
-3.81545
11
6.06182
21
-3.81624
0
LINE
8
BLACK
6
CONTINUOUS
10
6.06182
20
-3.81624
11
6.06201
21
-3.81719
0
LINE
8
BLACK
6
CONTINUOUS
10
6.06201
20
-3.81719
11
6.06201
21
-3.84474
0
LINE
8
BLACK
6
CONTINUOUS
10
6.06201
20
-3.84474
11
6.06182
21
-3.84569
0
LINE
8
BLACK
6
CONTINUOUS
10
6.06182
20
-3.84569
11
6.06129
21
-3.84648
0
LINE
8
BLACK
6
CONTINUOUS
10
6.06129
20
-3.84648
11
6.06049
21
-3.84702
0
LINE
8
BLACK
6
CONTINUOUS
10
6.06049
20
-3.84702
11
6.05955
21
-3.8472
0
LINE
8
BLACK
6
CONTINUOUS
10
6.05955
20
-3.8472
11
6.05463
21
-3.8472
0
LINE
8
BLACK
6
CONTINUOUS
10
6.05463
20
-3.8472
11
6.05368
21
-3.84702
0
LINE
8
BLACK
6
CONTINUOUS
10
6.05368
20
-3.84702
11
6.05289
21
-3.84648
0
LINE
8
BLACK
6
CONTINUOUS
10
6.05289
20
-3.84648
11
6.05235
21
-3.84569
0
LINE
8
BLACK
6
CONTINUOUS
10
6.05235
20
-3.84569
11
6.05217
21
-3.84474
0
LINE
8
BLACK
6
CONTINUOUS
10
6.05217
20
-3.84474
11
6.05217
21
-3.81719
0
LINE
8
BLACK
6
CONTINUOUS
10
6.05217
20
-3.81719
11
6.05235
21
-3.81624
0
LINE
8
BLACK
6
CONTINUOUS
10
6.05235
20
-3.81624
11
6.05289
21
-3.81545
0
LINE
8
BLACK
6
CONTINUOUS
10
6.05289
20
-3.81545
11
6.05368
21
-3.81491
0
LINE
8
BLACK
6
CONTINUOUS
10
6.05368
20
-3.81491
11
6.05463
21
-3.81472
0
LINE
8
BLACK
6
CONTINUOUS
10
6.05463
20
-3.81472
11
6.05955
21
-3.81472
0
LINE
8
BLACK
6
CONTINUOUS
10
6.05955
20
-3.81472
11
6.06049
21
-3.81491
0
LINE
8
BLACK
6
CONTINUOUS
10
5.78484
20
-3.80828
11
5.78675
21
-3.80956
0
LINE
8
BLACK
6
CONTINUOUS
10
5.78675
20
-3.80956
11
5.78803
21
-3.81148
0
LINE
8
BLACK
6
CONTINUOUS
10
5.78803
20
-3.81148
11
5.78848
21
-3.81374
0
LINE
8
BLACK
6
CONTINUOUS
10
5.78848
20
-3.81374
11
5.78848
21
-3.82555
0
LINE
8
BLACK
6
CONTINUOUS
10
5.78848
20
-3.82555
11
5.78803
21
-3.82781
0
LINE
8
BLACK
6
CONTINUOUS
10
5.78803
20
-3.82781
11
5.78675
21
-3.82973
0
LINE
8
BLACK
6
CONTINUOUS
10
5.78675
20
-3.82973
11
5.78484
21
-3.83101
0
LINE
8
BLACK
6
CONTINUOUS
10
5.78484
20
-3.83101
11
5.78258
21
-3.83146
0
LINE
8
BLACK
6
CONTINUOUS
10
5.78258
20
-3.83146
11
5.74222
21
-3.83146
0
LINE
8
BLACK
6
CONTINUOUS
10
5.74222
20
-3.83146
11
5.73996
21
-3.83101
0
LINE
8
BLACK
6
CONTINUOUS
10
5.73996
20
-3.83101
11
5.73805
21
-3.82973
0
LINE
8
BLACK
6
CONTINUOUS
10
5.73805
20
-3.82973
11
5.73677
21
-3.82781
0
LINE
8
BLACK
6
CONTINUOUS
10
5.73677
20
-3.82781
11
5.73632
21
-3.82555
0
LINE
8
BLACK
6
CONTINUOUS
10
5.73632
20
-3.82555
11
5.73632
21
-3.81374
0
LINE
8
BLACK
6
CONTINUOUS
10
5.73632
20
-3.81374
11
5.73677
21
-3.81148
0
LINE
8
BLACK
6
CONTINUOUS
10
5.73677
20
-3.81148
11
5.73805
21
-3.80956
0
LINE
8
BLACK
6
CONTINUOUS
10
5.73805
20
-3.80956
11
5.73996
21
-3.80828
0
LINE
8
BLACK
6
CONTINUOUS
10
5.73996
20
-3.80828
11
5.74222
21
-3.80783
0
LINE
8
BLACK
6
CONTINUOUS
10
5.74222
20
-3.80783
11
5.78258
21
-3.80783
0
LINE
8
BLACK
6
CONTINUOUS
10
5.78258
20
-3.80783
11
5.78484
21
-3.80828
0
LINE
8
BLACK
6
CONTINUOUS
10
5.69527
20
-3.80828
11
5.69719
21
-3.80956
0
LINE
8
BLACK
6
CONTINUOUS
10
5.69719
20
-3.80956
11
5.69847
21
-3.81148
0
LINE
8
BLACK
6
CONTINUOUS
10
5.69847
20
-3.81148
11
5.69892
21
-3.81374
0
LINE
8
BLACK
6
CONTINUOUS
10
5.69892
20
-3.81374
11
5.69892
21
-3.82555
0
LINE
8
BLACK
6
CONTINUOUS
10
5.69892
20
-3.82555
11
5.69847
21
-3.82781
0
LINE
8
BLACK
6
CONTINUOUS
10
5.69847
20
-3.82781
11
5.69719
21
-3.82973
0
LINE
8
BLACK
6
CONTINUOUS
10
5.69719
20
-3.82973
11
5.69527
21
-3.83101
0
LINE
8
BLACK
6
CONTINUOUS
10
5.69527
20
-3.83101
11
5.69301
21
-3.83146
0
LINE
8
BLACK
6
CONTINUOUS
10
5.69301
20
-3.83146
11
5.65266
21
-3.83146
0
LINE
8
BLACK
6
CONTINUOUS
10
5.65266
20
-3.83146
11
5.6504
21
-3.83101
0
LINE
8
BLACK
6
CONTINUOUS
10
5.6504
20
-3.83101
11
5.64848
21
-3.82973
0
LINE
8
BLACK
6
CONTINUOUS
10
5.64848
20
-3.82973
11
5.6472
21
-3.82781
0
LINE
8
BLACK
6
CONTINUOUS
10
5.6472
20
-3.82781
11
5.64675
21
-3.82555
0
LINE
8
BLACK
6
CONTINUOUS
10
5.64675
20
-3.82555
11
5.64675
21
-3.81374
0
LINE
8
BLACK
6
CONTINUOUS
10
5.64675
20
-3.81374
11
5.6472
21
-3.81148
0
LINE
8
BLACK
6
CONTINUOUS
10
5.6472
20
-3.81148
11
5.64848
21
-3.80956
0
LINE
8
BLACK
6
CONTINUOUS
10
5.64848
20
-3.80956
11
5.6504
21
-3.80828
0
LINE
8
BLACK
6
CONTINUOUS
10
5.6504
20
-3.80828
11
5.65266
21
-3.80783
0
LINE
8
BLACK
6
CONTINUOUS
10
5.65266
20
-3.80783
11
5.69301
21
-3.80783
0
LINE
8
BLACK
6
CONTINUOUS
10
5.69301
20
-3.80783
11
5.69527
21
-3.80828
0
LINE
8
BLACK
6
CONTINUOUS
10
5.2549
20
-3.80974
11
5.2199
21
-3.80974
0
LINE
8
BLACK
6
CONTINUOUS
10
5.2199
20
-3.80974
11
5.2199
21
-3.75474
0
LINE
8
BLACK
6
CONTINUOUS
10
5.2199
20
-3.75474
11
5.2549
21
-3.75474
0
LINE
8
BLACK
6
CONTINUOUS
10
5.2549
20
-3.75474
11
5.2549
21
-3.80974
0
LINE
8
BLACK
6
CONTINUOUS
10
5.1799
20
-3.80974
11
5.1449
21
-3.80974
0
LINE
8
BLACK
6
CONTINUOUS
10
5.1449
20
-3.80974
11
5.1449
21
-3.75474
0
LINE
8
BLACK
6
CONTINUOUS
10
5.1449
20
-3.75474
11
5.1799
21
-3.75474
0
LINE
8
BLACK
6
CONTINUOUS
10
5.1799
20
-3.75474
11
5.1799
21
-3.80974
0
LINE
8
BLACK
6
CONTINUOUS
10
5.9199
20
-3.79974
11
5.8649
21
-3.79974
0
LINE
8
BLACK
6
CONTINUOUS
10
5.8649
20
-3.79974
11
5.8649
21
-3.76474
0
LINE
8
BLACK
6
CONTINUOUS
10
5.8649
20
-3.76474
11
5.9199
21
-3.76474
0
LINE
8
BLACK
6
CONTINUOUS
10
5.9199
20
-3.76474
11
5.9199
21
-3.79974
0
LINE
8
BLACK
6
CONTINUOUS
10
5.78484
20
-3.77088
11
5.78675
21
-3.77216
0
LINE
8
BLACK
6
CONTINUOUS
10
5.78675
20
-3.77216
11
5.78803
21
-3.77408
0
LINE
8
BLACK
6
CONTINUOUS
10
5.78803
20
-3.77408
11
5.78848
21
-3.77634
0
LINE
8
BLACK
6
CONTINUOUS
10
5.78848
20
-3.77634
11
5.78848
21
-3.78815
0
LINE
8
BLACK
6
CONTINUOUS
10
5.78848
20
-3.78815
11
5.78803
21
-3.79041
0
LINE
8
BLACK
6
CONTINUOUS
10
5.78803
20
-3.79041
11
5.78675
21
-3.79233
0
LINE
8
BLACK
6
CONTINUOUS
10
5.78675
20
-3.79233
11
5.78484
21
-3.79361
0
LINE
8
BLACK
6
CONTINUOUS
10
5.78484
20
-3.79361
11
5.78258
21
-3.79406
0
LINE
8
BLACK
6
CONTINUOUS
10
5.78258
20
-3.79406
11
5.74222
21
-3.79406
0
LINE
8
BLACK
6
CONTINUOUS
10
5.74222
20
-3.79406
11
5.73996
21
-3.79361
0
LINE
8
BLACK
6
CONTINUOUS
10
5.73996
20
-3.79361
11
5.73805
21
-3.79233
0
LINE
8
BLACK
6
CONTINUOUS
10
5.73805
20
-3.79233
11
5.73677
21
-3.79041
0
LINE
8
BLACK
6
CONTINUOUS
10
5.73677
20
-3.79041
11
5.73632
21
-3.78815
0
LINE
8
BLACK
6
CONTINUOUS
10
5.73632
20
-3.78815
11
5.73632
21
-3.77634
0
LINE
8
BLACK
6
CONTINUOUS
10
5.73632
20
-3.77634
11
5.73677
21
-3.77408
0
LINE
8
BLACK
6
CONTINUOUS
10
5.73677
20
-3.77408
11
5.73805
21
-3.77216
0
LINE
8
BLACK
6
CONTINUOUS
10
5.73805
20
-3.77216
11
5.73996
21
-3.77088
0
LINE
8
BLACK
6
CONTINUOUS
10
5.73996
20
-3.77088
11
5.74222
21
-3.77043
0
LINE
8
BLACK
6
CONTINUOUS
10
5.74222
20
-3.77043
11
5.78258
21
-3.77043
0
LINE
8
BLACK
6
CONTINUOUS
10
5.78258
20
-3.77043
11
5.78484
21
-3.77088
0
LINE
8
BLACK
6
CONTINUOUS
10
5.69527
20
-3.77088
11
5.69719
21
-3.77216
0
LINE
8
BLACK
6
CONTINUOUS
10
5.69719
20
-3.77216
11
5.69847
21
-3.77408
0
LINE
8
BLACK
6
CONTINUOUS
10
5.69847
20
-3.77408
11
5.69892
21
-3.77634
0
LINE
8
BLACK
6
CONTINUOUS
10
5.69892
20
-3.77634
11
5.69892
21
-3.78815
0
LINE
8
BLACK
6
CONTINUOUS
10
5.69892
20
-3.78815
11
5.69847
21
-3.79041
0
LINE
8
BLACK
6
CONTINUOUS
10
5.69847
20
-3.79041
11
5.69719
21
-3.79233
0
LINE
8
BLACK
6
CONTINUOUS
10
5.69719
20
-3.79233
11
5.69527
21
-3.79361
0
LINE
8
BLACK
6
CONTINUOUS
10
5.69527
20
-3.79361
11
5.69301
21
-3.79406
0
LINE
8
BLACK
6
CONTINUOUS
10
5.69301
20
-3.79406
11
5.65266
21
-3.79406
0
LINE
8
BLACK
6
CONTINUOUS
10
5.65266
20
-3.79406
11
5.6504
21
-3.79361
0
LINE
8
BLACK
6
CONTINUOUS
10
5.6504
20
-3.79361
11
5.64848
21
-3.79233
0
LINE
8
BLACK
6
CONTINUOUS
10
5.64848
20
-3.79233
11
5.6472
21
-3.79041
0
LINE
8
BLACK
6
CONTINUOUS
10
5.6472
20
-3.79041
11
5.64675
21
-3.78815
0
LINE
8
BLACK
6
CONTINUOUS
10
5.64675
20
-3.78815
11
5.64675
21
-3.77634
0
LINE
8
BLACK
6
CONTINUOUS
10
5.64675
20
-3.77634
11
5.6472
21
-3.77408
0
LINE
8
BLACK
6
CONTINUOUS
10
5.6472
20
-3.77408
11
5.64848
21
-3.77216
0
LINE
8
BLACK
6
CONTINUOUS
10
5.64848
20
-3.77216
11
5.6504
21
-3.77088
0
LINE
8
BLACK
6
CONTINUOUS
10
5.6504
20
-3.77088
11
5.65266
21
-3.77043
0
LINE
8
BLACK
6
CONTINUOUS
10
5.65266
20
-3.77043
11
5.69301
21
-3.77043
0
LINE
8
BLACK
6
CONTINUOUS
10
5.69301
20
-3.77043
11
5.69527
21
-3.77088
0
LINE
8
BLACK
6
CONTINUOUS
10
5.69527
20
-3.73348
11
5.69719
21
-3.73476
0
LINE
8
BLACK
6
CONTINUOUS
10
5.69719
20
-3.73476
11
5.69847
21
-3.73668
0
LINE
8
BLACK
6
CONTINUOUS
10
5.69847
20
-3.73668
11
5.69892
21
-3.73894
0
LINE
8
BLACK
6
CONTINUOUS
10
5.69892
20
-3.73894
11
5.69892
21
-3.75075
0
LINE
8
BLACK
6
CONTINUOUS
10
5.69892
20
-3.75075
11
5.69847
21
-3.75301
0
LINE
8
BLACK
6
CONTINUOUS
10
5.69847
20
-3.75301
11
5.69719
21
-3.75492
0
LINE
8
BLACK
6
CONTINUOUS
10
5.69719
20
-3.75492
11
5.69527
21
-3.7562
0
LINE
8
BLACK
6
CONTINUOUS
10
5.69527
20
-3.7562
11
5.69301
21
-3.75665
0
LINE
8
BLACK
6
CONTINUOUS
10
5.69301
20
-3.75665
11
5.65266
21
-3.75665
0
LINE
8
BLACK
6
CONTINUOUS
10
5.65266
20
-3.75665
11
5.6504
21
-3.7562
0
LINE
8
BLACK
6
CONTINUOUS
10
5.6504
20
-3.7562
11
5.64848
21
-3.75492
0
LINE
8
BLACK
6
CONTINUOUS
10
5.64848
20
-3.75492
11
5.6472
21
-3.75301
0
LINE
8
BLACK
6
CONTINUOUS
10
5.6472
20
-3.75301
11
5.64675
21
-3.75075
0
LINE
8
BLACK
6
CONTINUOUS
10
5.64675
20
-3.75075
11
5.64675
21
-3.73894
0
LINE
8
BLACK
6
CONTINUOUS
10
5.64675
20
-3.73894
11
5.6472
21
-3.73668
0
LINE
8
BLACK
6
CONTINUOUS
10
5.6472
20
-3.73668
11
5.64848
21
-3.73476
0
LINE
8
BLACK
6
CONTINUOUS
10
5.64848
20
-3.73476
11
5.6504
21
-3.73348
0
LINE
8
BLACK
6
CONTINUOUS
10
5.6504
20
-3.73348
11
5.65266
21
-3.73303
0
LINE
8
BLACK
6
CONTINUOUS
10
5.65266
20
-3.73303
11
5.69301
21
-3.73303
0
LINE
8
BLACK
6
CONTINUOUS
10
5.69301
20
-3.73303
11
5.69527
21
-3.73348
0
LINE
8
BLACK
6
CONTINUOUS
10
5.78484
20
-3.73348
11
5.78675
21
-3.73476
0
LINE
8
BLACK
6
CONTINUOUS
10
5.78675
20
-3.73476
11
5.78803
21
-3.73668
0
LINE
8
BLACK
6
CONTINUOUS
10
5.78803
20
-3.73668
11
5.78848
21
-3.73894
0
LINE
8
BLACK
6
CONTINUOUS
10
5.78848
20
-3.73894
11
5.78848
21
-3.75075
0
LINE
8
BLACK
6
CONTINUOUS
10
5.78848
20
-3.75075
11
5.78803
21
-3.75301
0
LINE
8
BLACK
6
CONTINUOUS
10
5.78803
20
-3.75301
11
5.78675
21
-3.75492
0
LINE
8
BLACK
6
CONTINUOUS
10
5.78675
20
-3.75492
11
5.78484
21
-3.7562
0
LINE
8
BLACK
6
CONTINUOUS
10
5.78484
20
-3.7562
11
5.78258
21
-3.75665
0
LINE
8
BLACK
6
CONTINUOUS
10
5.78258
20
-3.75665
11
5.74222
21
-3.75665
0
LINE
8
BLACK
6
CONTINUOUS
10
5.74222
20
-3.75665
11
5.73996
21
-3.7562
0
LINE
8
BLACK
6
CONTINUOUS
10
5.73996
20
-3.7562
11
5.73805
21
-3.75492
0
LINE
8
BLACK
6
CONTINUOUS
10
5.73805
20
-3.75492
11
5.73677
21
-3.75301
0
LINE
8
BLACK
6
CONTINUOUS
10
5.73677
20
-3.75301
11
5.73632
21
-3.75075
0
LINE
8
BLACK
6
CONTINUOUS
10
5.73632
20
-3.75075
11
5.73632
21
-3.73894
0
LINE
8
BLACK
6
CONTINUOUS
10
5.73632
20
-3.73894
11
5.73677
21
-3.73668
0
LINE
8
BLACK
6
CONTINUOUS
10
5.73677
20
-3.73668
11
5.73805
21
-3.73476
0
LINE
8
BLACK
6
CONTINUOUS
10
5.73805
20
-3.73476
11
5.73996
21
-3.73348
0
LINE
8
BLACK
6
CONTINUOUS
10
5.73996
20
-3.73348
11
5.74222
21
-3.73303
0
LINE
8
BLACK
6
CONTINUOUS
10
5.74222
20
-3.73303
11
5.78258
21
-3.73303
0
LINE
8
BLACK
6
CONTINUOUS
10
5.78258
20
-3.73303
11
5.78484
21
-3.73348
0
LINE
8
BLACK
6
CONTINUOUS
10
5.9849
20
-3.73974
11
5.9499
21
-3.73974
0
LINE
8
BLACK
6
CONTINUOUS
10
5.9499
20
-3.73974
11
5.9499
21
-3.68474
0
LINE
8
BLACK
6
CONTINUOUS
10
5.9499
20
-3.68474
11
5.9849
21
-3.68474
0
LINE
8
BLACK
6
CONTINUOUS
10
5.9849
20
-3.68474
11
5.9849
21
-3.73974
0
LINE
8
BLACK
6
CONTINUOUS
10
6.0599
20
-3.73974
11
6.0249
21
-3.73974
0
LINE
8
BLACK
6
CONTINUOUS
10
6.0249
20
-3.73974
11
6.0249
21
-3.68474
0
LINE
8
BLACK
6
CONTINUOUS
10
6.0249
20
-3.68474
11
6.0599
21
-3.68474
0
LINE
8
BLACK
6
CONTINUOUS
10
6.0599
20
-3.68474
11
6.0599
21
-3.73974
0
LINE
8
BLACK
6
CONTINUOUS
10
6.3399
20
-3.73974
11
6.3049
21
-3.73974
0
LINE
8
BLACK
6
CONTINUOUS
10
6.3049
20
-3.73974
11
6.3049
21
-3.68474
0
LINE
8
BLACK
6
CONTINUOUS
10
6.3049
20
-3.68474
11
6.3399
21
-3.68474
0
LINE
8
BLACK
6
CONTINUOUS
10
6.3399
20
-3.68474
11
6.3399
21
-3.73974
0
LINE
8
BLACK
6
CONTINUOUS
10
6.2649
20
-3.73974
11
6.2299
21
-3.73974
0
LINE
8
BLACK
6
CONTINUOUS
10
6.2299
20
-3.73974
11
6.2299
21
-3.68474
0
LINE
8
BLACK
6
CONTINUOUS
10
6.2299
20
-3.68474
11
6.2649
21
-3.68474
0
LINE
8
BLACK
6
CONTINUOUS
10
6.2649
20
-3.68474
11
6.2649
21
-3.73974
0
LINE
8
BLACK
6
CONTINUOUS
10
6.1999
20
-3.73974
11
6.1649
21
-3.73974
0
LINE
8
BLACK
6
CONTINUOUS
10
6.1649
20
-3.73974
11
6.1649
21
-3.68474
0
LINE
8
BLACK
6
CONTINUOUS
10
6.1649
20
-3.68474
11
6.1999
21
-3.68474
0
LINE
8
BLACK
6
CONTINUOUS
10
6.1999
20
-3.68474
11
6.1999
21
-3.73974
0
LINE
8
BLACK
6
CONTINUOUS
10
6.1249
20
-3.73974
11
6.0899
21
-3.73974
0
LINE
8
BLACK
6
CONTINUOUS
10
6.0899
20
-3.73974
11
6.0899
21
-3.68474
0
LINE
8
BLACK
6
CONTINUOUS
10
6.0899
20
-3.68474
11
6.1249
21
-3.68474
0
LINE
8
BLACK
6
CONTINUOUS
10
6.1249
20
-3.68474
11
6.1249
21
-3.73974
0
LINE
8
BLACK
6
CONTINUOUS
10
5.9199
20
-3.72474
11
5.8649
21
-3.72474
0
LINE
8
BLACK
6
CONTINUOUS
10
5.8649
20
-3.72474
11
5.8649
21
-3.68974
0
LINE
8
BLACK
6
CONTINUOUS
10
5.8649
20
-3.68974
11
5.9199
21
-3.68974
0
LINE
8
BLACK
6
CONTINUOUS
10
5.9199
20
-3.68974
11
5.9199
21
-3.72474
0
LINE
8
BLACK
6
CONTINUOUS
10
5.44941
20
-3.58677
11
5.41201
21
-3.58677
0
LINE
8
BLACK
6
CONTINUOUS
10
5.41201
20
-3.58677
11
5.41201
21
-3.52772
0
LINE
8
BLACK
6
CONTINUOUS
10
5.41201
20
-3.52772
11
5.44941
21
-3.52772
0
LINE
8
BLACK
6
CONTINUOUS
10
5.44941
20
-3.52772
11
5.44941
21
-3.58677
0
LINE
8
BLACK
6
CONTINUOUS
10
5.6128
20
-3.58677
11
5.57539
21
-3.58677
0
LINE
8
BLACK
6
CONTINUOUS
10
5.57539
20
-3.58677
11
5.57539
21
-3.52772
0
LINE
8
BLACK
6
CONTINUOUS
10
5.57539
20
-3.52772
11
5.6128
21
-3.52772
0
LINE
8
BLACK
6
CONTINUOUS
10
5.6128
20
-3.52772
11
5.6128
21
-3.58677
0
LINE
8
BLACK
6
CONTINUOUS
10
5.4799
20
-3.45974
11
5.4449
21
-3.45974
0
LINE
8
BLACK
6
CONTINUOUS
10
5.4449
20
-3.45974
11
5.4449
21
-3.40474
0
LINE
8
BLACK
6
CONTINUOUS
10
5.4449
20
-3.40474
11
5.4799
21
-3.40474
0
LINE
8
BLACK
6
CONTINUOUS
10
5.4799
20
-3.40474
11
5.4799
21
-3.45974
0
LINE
8
BLACK
6
CONTINUOUS
10
5.5549
20
-3.45974
11
5.5199
21
-3.45974
0
LINE
8
BLACK
6
CONTINUOUS
10
5.5199
20
-3.45974
11
5.5199
21
-3.40474
0
LINE
8
BLACK
6
CONTINUOUS
10
5.5199
20
-3.40474
11
5.5549
21
-3.40474
0
LINE
8
BLACK
6
CONTINUOUS
10
5.5549
20
-3.40474
11
5.5549
21
-3.45974
  0
ENDSEC
  0
EOF
