  0
SECTION
  2
HEADER
  9
$ANGBASE
  50
0.0
  9
$ANGDIR
  70
1
  9
$MEASUREMENT
  70
0
  0
ENDSEC
  0
SECTION
  2
TABLES
  0
TABLE
  2
LTYPE
  70
4
  0
LTYPE
  5
40F
  2
CONTINUOUS
  70
0
  3
Solid line
  72
65
  73
0
  40
0.0
  0
LTYPE
  5
410
  2
DASHDOT
 70
0
  3
Dash Dot ____ _ ____ _
 72
65
 73
4
 40
2.0
 49
1.25
 49
-0.25
 49
0.25
 49
-0.25
  0
LTYPE
  5
411
  2
DASHED
 70
0
  3
Dashed __ __ __ __ __
 72
65
 73
2
 40
0.75
 49
0.5
 49
-0.25
  0
LTYPE
  5
43B
  2
DOTTED
 70
0
  3
Dotted .  .  .  .
 72
65
 73
2
 40
0.2
 49
0.0
 49
-0.2
  0
ENDTAB
  0
TABLE
  2
STYLE
  70
4
  0
STYLE
  2
KICAD
  70
0
  40
0
  41
1
  42
1
  50
0
  71
0
  3
isocp.shx
  0
STYLE
  2
KICADB
  70
0
  40
0
  41
1
  42
1
  50
0
  71
0
  3
isocp.shx
  0
STYLE
  2
KICADI
  70
0
  40
0
  41
1
  42
1
  50
15
  71
0
  3
isocp.shx
  0
STYLE
  2
KICADBI
  70
0
  40
0
  41
1
  42
1
  50
15
  71
0
  3
isocp.shx
  0
ENDTAB
  0
TABLE
  2
LAYER
  70
1
  0
LAYER
  2
BLACK
  70
0
  62
7
  6
CONTINUOUS
  0
ENDTAB
  0
ENDSEC
  0
SECTION
  2
ENTITIES
0
LINE
8
BLACK
6
CONTINUOUS
10
5.51451
20
-4.43767
11
5.51706
21
-4.43937
0
LINE
8
BLACK
6
CONTINUOUS
10
5.51706
20
-4.43937
11
5.51877
21
-4.44193
0
LINE
8
BLACK
6
CONTINUOUS
10
5.51877
20
-4.44193
11
5.51937
21
-4.44494
0
LINE
8
BLACK
6
CONTINUOUS
10
5.51937
20
-4.44494
11
5.51937
21
-4.49994
0
LINE
8
BLACK
6
CONTINUOUS
10
5.51937
20
-4.49994
11
5.51877
21
-4.50295
0
LINE
8
BLACK
6
CONTINUOUS
10
5.51877
20
-4.50295
11
5.51706
21
-4.50551
0
LINE
8
BLACK
6
CONTINUOUS
10
5.51706
20
-4.50551
11
5.51451
21
-4.50722
0
LINE
8
BLACK
6
CONTINUOUS
10
5.51451
20
-4.50722
11
5.5115
21
-4.50781
0
LINE
8
BLACK
6
CONTINUOUS
10
5.5115
20
-4.50781
11
5.4765
21
-4.50781
0
LINE
8
BLACK
6
CONTINUOUS
10
5.4765
20
-4.50781
11
5.47348
21
-4.50722
0
LINE
8
BLACK
6
CONTINUOUS
10
5.47348
20
-4.50722
11
5.47093
21
-4.50551
0
LINE
8
BLACK
6
CONTINUOUS
10
5.47093
20
-4.50551
11
5.46922
21
-4.50295
0
LINE
8
BLACK
6
CONTINUOUS
10
5.46922
20
-4.50295
11
5.46862
21
-4.49994
0
LINE
8
BLACK
6
CONTINUOUS
10
5.46862
20
-4.49994
11
5.46862
21
-4.44494
0
LINE
8
BLACK
6
CONTINUOUS
10
5.46862
20
-4.44494
11
5.46922
21
-4.44193
0
LINE
8
BLACK
6
CONTINUOUS
10
5.46922
20
-4.44193
11
5.47093
21
-4.43937
0
LINE
8
BLACK
6
CONTINUOUS
10
5.47093
20
-4.43937
11
5.47348
21
-4.43767
0
LINE
8
BLACK
6
CONTINUOUS
10
5.47348
20
-4.43767
11
5.4765
21
-4.43707
0
LINE
8
BLACK
6
CONTINUOUS
10
5.4765
20
-4.43707
11
5.5115
21
-4.43707
0
LINE
8
BLACK
6
CONTINUOUS
10
5.5115
20
-4.43707
11
5.51451
21
-4.43767
0
LINE
8
BLACK
6
CONTINUOUS
10
5.58951
20
-4.43767
11
5.59206
21
-4.43937
0
LINE
8
BLACK
6
CONTINUOUS
10
5.59206
20
-4.43937
11
5.59377
21
-4.44193
0
LINE
8
BLACK
6
CONTINUOUS
10
5.59377
20
-4.44193
11
5.59437
21
-4.44494
0
LINE
8
BLACK
6
CONTINUOUS
10
5.59437
20
-4.44494
11
5.59437
21
-4.49994
0
LINE
8
BLACK
6
CONTINUOUS
10
5.59437
20
-4.49994
11
5.59377
21
-4.50295
0
LINE
8
BLACK
6
CONTINUOUS
10
5.59377
20
-4.50295
11
5.59206
21
-4.50551
0
LINE
8
BLACK
6
CONTINUOUS
10
5.59206
20
-4.50551
11
5.58951
21
-4.50722
0
LINE
8
BLACK
6
CONTINUOUS
10
5.58951
20
-4.50722
11
5.5865
21
-4.50781
0
LINE
8
BLACK
6
CONTINUOUS
10
5.5865
20
-4.50781
11
5.5515
21
-4.50781
0
LINE
8
BLACK
6
CONTINUOUS
10
5.5515
20
-4.50781
11
5.54848
21
-4.50722
0
LINE
8
BLACK
6
CONTINUOUS
10
5.54848
20
-4.50722
11
5.54593
21
-4.50551
0
LINE
8
BLACK
6
CONTINUOUS
10
5.54593
20
-4.50551
11
5.54422
21
-4.50295
0
LINE
8
BLACK
6
CONTINUOUS
10
5.54422
20
-4.50295
11
5.54362
21
-4.49994
0
LINE
8
BLACK
6
CONTINUOUS
10
5.54362
20
-4.49994
11
5.54362
21
-4.44494
0
LINE
8
BLACK
6
CONTINUOUS
10
5.54362
20
-4.44494
11
5.54422
21
-4.44193
0
LINE
8
BLACK
6
CONTINUOUS
10
5.54422
20
-4.44193
11
5.54593
21
-4.43937
0
LINE
8
BLACK
6
CONTINUOUS
10
5.54593
20
-4.43937
11
5.54848
21
-4.43767
0
LINE
8
BLACK
6
CONTINUOUS
10
5.54848
20
-4.43767
11
5.5515
21
-4.43707
0
LINE
8
BLACK
6
CONTINUOUS
10
5.5515
20
-4.43707
11
5.5865
21
-4.43707
0
LINE
8
BLACK
6
CONTINUOUS
10
5.5865
20
-4.43707
11
5.58951
21
-4.43767
0
LINE
8
BLACK
6
CONTINUOUS
10
5.27732
20
-4.23215
11
5.29117
21
-4.23459
0
LINE
8
BLACK
6
CONTINUOUS
10
5.29117
20
-4.23459
11
5.30466
21
-4.23856
0
LINE
8
BLACK
6
CONTINUOUS
10
5.30466
20
-4.23856
11
5.31763
21
-4.24401
0
LINE
8
BLACK
6
CONTINUOUS
10
5.31763
20
-4.24401
11
5.32991
21
-4.25087
0
LINE
8
BLACK
6
CONTINUOUS
10
5.32991
20
-4.25087
11
5.34134
21
-4.25906
0
LINE
8
BLACK
6
CONTINUOUS
10
5.34134
20
-4.25906
11
5.3518
21
-4.26847
0
LINE
8
BLACK
6
CONTINUOUS
10
5.3518
20
-4.26847
11
5.36113
21
-4.27899
0
LINE
8
BLACK
6
CONTINUOUS
10
5.36113
20
-4.27899
11
5.36924
21
-4.29048
0
LINE
8
BLACK
6
CONTINUOUS
10
5.36924
20
-4.29048
11
5.37602
21
-4.30281
0
LINE
8
BLACK
6
CONTINUOUS
10
5.37602
20
-4.30281
11
5.38138
21
-4.31581
0
LINE
8
BLACK
6
CONTINUOUS
10
5.38138
20
-4.31581
11
5.38526
21
-4.32933
0
LINE
8
BLACK
6
CONTINUOUS
10
5.38526
20
-4.32933
11
5.3876
21
-4.3432
0
LINE
8
BLACK
6
CONTINUOUS
10
5.3876
20
-4.3432
11
5.38839
21
-4.35724
0
LINE
8
BLACK
6
CONTINUOUS
10
5.38839
20
-4.35724
11
5.38834
21
-4.36076
0
LINE
8
BLACK
6
CONTINUOUS
10
5.38834
20
-4.36076
11
5.38716
21
-4.37478
0
LINE
8
BLACK
6
CONTINUOUS
10
5.38716
20
-4.37478
11
5.38443
21
-4.38858
0
LINE
8
BLACK
6
CONTINUOUS
10
5.38443
20
-4.38858
11
5.38017
21
-4.40198
0
LINE
8
BLACK
6
CONTINUOUS
10
5.38017
20
-4.40198
11
5.37445
21
-4.41483
0
LINE
8
BLACK
6
CONTINUOUS
10
5.37445
20
-4.41483
11
5.36734
21
-4.42696
0
LINE
8
BLACK
6
CONTINUOUS
10
5.36734
20
-4.42696
11
5.35891
21
-4.43823
0
LINE
8
BLACK
6
CONTINUOUS
10
5.35891
20
-4.43823
11
5.34928
21
-4.44848
0
LINE
8
BLACK
6
CONTINUOUS
10
5.34928
20
-4.44848
11
5.33857
21
-4.45759
0
LINE
8
BLACK
6
CONTINUOUS
10
5.33857
20
-4.45759
11
5.32691
21
-4.46546
0
LINE
8
BLACK
6
CONTINUOUS
10
5.32691
20
-4.46546
11
5.31445
21
-4.47198
0
LINE
8
BLACK
6
CONTINUOUS
10
5.31445
20
-4.47198
11
5.30133
21
-4.47706
0
LINE
8
BLACK
6
CONTINUOUS
10
5.30133
20
-4.47706
11
5.28773
21
-4.48066
0
LINE
8
BLACK
6
CONTINUOUS
10
5.28773
20
-4.48066
11
5.27382
21
-4.48271
0
LINE
8
BLACK
6
CONTINUOUS
10
5.27382
20
-4.48271
11
5.25976
21
-4.4832
0
LINE
8
BLACK
6
CONTINUOUS
10
5.25976
20
-4.4832
11
5.24574
21
-4.48212
0
LINE
8
BLACK
6
CONTINUOUS
10
5.24574
20
-4.48212
11
5.23192
21
-4.47949
0
LINE
8
BLACK
6
CONTINUOUS
10
5.23192
20
-4.47949
11
5.21849
21
-4.47533
0
LINE
8
BLACK
6
CONTINUOUS
10
5.21849
20
-4.47533
11
5.2056
21
-4.4697
0
LINE
8
BLACK
6
CONTINUOUS
10
5.2056
20
-4.4697
11
5.19342
21
-4.46266
0
LINE
8
BLACK
6
CONTINUOUS
10
5.19342
20
-4.46266
11
5.1821
21
-4.45432
0
LINE
8
BLACK
6
CONTINUOUS
10
5.1821
20
-4.45432
11
5.17178
21
-4.44476
0
LINE
8
BLACK
6
CONTINUOUS
10
5.17178
20
-4.44476
11
5.16259
21
-4.43411
0
LINE
8
BLACK
6
CONTINUOUS
10
5.16259
20
-4.43411
11
5.15464
21
-4.42251
0
LINE
8
BLACK
6
CONTINUOUS
10
5.15464
20
-4.42251
11
5.14804
21
-4.41009
0
LINE
8
BLACK
6
CONTINUOUS
10
5.14804
20
-4.41009
11
5.14286
21
-4.39701
0
LINE
8
BLACK
6
CONTINUOUS
10
5.14286
20
-4.39701
11
5.13917
21
-4.38344
0
LINE
8
BLACK
6
CONTINUOUS
10
5.13917
20
-4.38344
11
5.13702
21
-4.36954
0
LINE
8
BLACK
6
CONTINUOUS
10
5.13702
20
-4.36954
11
5.13643
21
-4.35549
0
LINE
8
BLACK
6
CONTINUOUS
10
5.13643
20
-4.35549
11
5.13741
21
-4.34145
0
LINE
8
BLACK
6
CONTINUOUS
10
5.13741
20
-4.34145
11
5.13995
21
-4.32762
0
LINE
8
BLACK
6
CONTINUOUS
10
5.13995
20
-4.32762
11
5.14402
21
-4.31415
0
LINE
8
BLACK
6
CONTINUOUS
10
5.14402
20
-4.31415
11
5.14956
21
-4.30123
0
LINE
8
BLACK
6
CONTINUOUS
10
5.14956
20
-4.30123
11
5.1565
21
-4.289
0
LINE
8
BLACK
6
CONTINUOUS
10
5.1565
20
-4.289
11
5.16477
21
-4.27762
0
LINE
8
BLACK
6
CONTINUOUS
10
5.16477
20
-4.27762
11
5.17425
21
-4.26723
0
LINE
8
BLACK
6
CONTINUOUS
10
5.17425
20
-4.26723
11
5.18484
21
-4.25797
0
LINE
8
BLACK
6
CONTINUOUS
10
5.18484
20
-4.25797
11
5.19639
21
-4.24994
0
LINE
8
BLACK
6
CONTINUOUS
10
5.19639
20
-4.24994
11
5.20876
21
-4.24325
0
LINE
8
BLACK
6
CONTINUOUS
10
5.20876
20
-4.24325
11
5.2218
21
-4.23798
0
LINE
8
BLACK
6
CONTINUOUS
10
5.2218
20
-4.23798
11
5.23535
21
-4.2342
0
LINE
8
BLACK
6
CONTINUOUS
10
5.23535
20
-4.2342
11
5.24923
21
-4.23195
0
LINE
8
BLACK
6
CONTINUOUS
10
5.24923
20
-4.23195
11
5.26328
21
-4.23126
0
LINE
8
BLACK
6
CONTINUOUS
10
5.26328
20
-4.23126
11
5.27732
21
-4.23215
0
LINE
8
BLACK
6
CONTINUOUS
10
6.47732
20
-4.23215
11
6.49117
21
-4.23459
0
LINE
8
BLACK
6
CONTINUOUS
10
6.49117
20
-4.23459
11
6.50466
21
-4.23856
0
LINE
8
BLACK
6
CONTINUOUS
10
6.50466
20
-4.23856
11
6.51763
21
-4.24401
0
LINE
8
BLACK
6
CONTINUOUS
10
6.51763
20
-4.24401
11
6.52991
21
-4.25087
0
LINE
8
BLACK
6
CONTINUOUS
10
6.52991
20
-4.25087
11
6.54134
21
-4.25906
0
LINE
8
BLACK
6
CONTINUOUS
10
6.54134
20
-4.25906
11
6.5518
21
-4.26847
0
LINE
8
BLACK
6
CONTINUOUS
10
6.5518
20
-4.26847
11
6.56113
21
-4.27899
0
LINE
8
BLACK
6
CONTINUOUS
10
6.56113
20
-4.27899
11
6.56924
21
-4.29048
0
LINE
8
BLACK
6
CONTINUOUS
10
6.56924
20
-4.29048
11
6.57602
21
-4.30281
0
LINE
8
BLACK
6
CONTINUOUS
10
6.57602
20
-4.30281
11
6.58138
21
-4.31581
0
LINE
8
BLACK
6
CONTINUOUS
10
6.58138
20
-4.31581
11
6.58526
21
-4.32933
0
LINE
8
BLACK
6
CONTINUOUS
10
6.58526
20
-4.32933
11
6.5876
21
-4.3432
0
LINE
8
BLACK
6
CONTINUOUS
10
6.5876
20
-4.3432
11
6.58839
21
-4.35724
0
LINE
8
BLACK
6
CONTINUOUS
10
6.58839
20
-4.35724
11
6.58834
21
-4.36076
0
LINE
8
BLACK
6
CONTINUOUS
10
6.58834
20
-4.36076
11
6.58716
21
-4.37478
0
LINE
8
BLACK
6
CONTINUOUS
10
6.58716
20
-4.37478
11
6.58443
21
-4.38858
0
LINE
8
BLACK
6
CONTINUOUS
10
6.58443
20
-4.38858
11
6.58017
21
-4.40198
0
LINE
8
BLACK
6
CONTINUOUS
10
6.58017
20
-4.40198
11
6.57445
21
-4.41483
0
LINE
8
BLACK
6
CONTINUOUS
10
6.57445
20
-4.41483
11
6.56734
21
-4.42696
0
LINE
8
BLACK
6
CONTINUOUS
10
6.56734
20
-4.42696
11
6.55891
21
-4.43823
0
LINE
8
BLACK
6
CONTINUOUS
10
6.55891
20
-4.43823
11
6.54928
21
-4.44848
0
LINE
8
BLACK
6
CONTINUOUS
10
6.54928
20
-4.44848
11
6.53857
21
-4.45759
0
LINE
8
BLACK
6
CONTINUOUS
10
6.53857
20
-4.45759
11
6.52691
21
-4.46546
0
LINE
8
BLACK
6
CONTINUOUS
10
6.52691
20
-4.46546
11
6.51445
21
-4.47198
0
LINE
8
BLACK
6
CONTINUOUS
10
6.51445
20
-4.47198
11
6.50133
21
-4.47706
0
LINE
8
BLACK
6
CONTINUOUS
10
6.50133
20
-4.47706
11
6.48773
21
-4.48066
0
LINE
8
BLACK
6
CONTINUOUS
10
6.48773
20
-4.48066
11
6.47382
21
-4.48271
0
LINE
8
BLACK
6
CONTINUOUS
10
6.47382
20
-4.48271
11
6.45976
21
-4.4832
0
LINE
8
BLACK
6
CONTINUOUS
10
6.45976
20
-4.4832
11
6.44574
21
-4.48212
0
LINE
8
BLACK
6
CONTINUOUS
10
6.44574
20
-4.48212
11
6.43192
21
-4.47949
0
LINE
8
BLACK
6
CONTINUOUS
10
6.43192
20
-4.47949
11
6.41849
21
-4.47533
0
LINE
8
BLACK
6
CONTINUOUS
10
6.41849
20
-4.47533
11
6.4056
21
-4.4697
0
LINE
8
BLACK
6
CONTINUOUS
10
6.4056
20
-4.4697
11
6.39342
21
-4.46266
0
LINE
8
BLACK
6
CONTINUOUS
10
6.39342
20
-4.46266
11
6.3821
21
-4.45432
0
LINE
8
BLACK
6
CONTINUOUS
10
6.3821
20
-4.45432
11
6.37178
21
-4.44476
0
LINE
8
BLACK
6
CONTINUOUS
10
6.37178
20
-4.44476
11
6.36259
21
-4.43411
0
LINE
8
BLACK
6
CONTINUOUS
10
6.36259
20
-4.43411
11
6.35464
21
-4.42251
0
LINE
8
BLACK
6
CONTINUOUS
10
6.35464
20
-4.42251
11
6.34804
21
-4.41009
0
LINE
8
BLACK
6
CONTINUOUS
10
6.34804
20
-4.41009
11
6.34286
21
-4.39701
0
LINE
8
BLACK
6
CONTINUOUS
10
6.34286
20
-4.39701
11
6.33917
21
-4.38344
0
LINE
8
BLACK
6
CONTINUOUS
10
6.33917
20
-4.38344
11
6.33702
21
-4.36954
0
LINE
8
BLACK
6
CONTINUOUS
10
6.33702
20
-4.36954
11
6.33643
21
-4.35549
0
LINE
8
BLACK
6
CONTINUOUS
10
6.33643
20
-4.35549
11
6.33741
21
-4.34145
0
LINE
8
BLACK
6
CONTINUOUS
10
6.33741
20
-4.34145
11
6.33995
21
-4.32762
0
LINE
8
BLACK
6
CONTINUOUS
10
6.33995
20
-4.32762
11
6.34402
21
-4.31415
0
LINE
8
BLACK
6
CONTINUOUS
10
6.34402
20
-4.31415
11
6.34956
21
-4.30123
0
LINE
8
BLACK
6
CONTINUOUS
10
6.34956
20
-4.30123
11
6.3565
21
-4.289
0
LINE
8
BLACK
6
CONTINUOUS
10
6.3565
20
-4.289
11
6.36477
21
-4.27762
0
LINE
8
BLACK
6
CONTINUOUS
10
6.36477
20
-4.27762
11
6.37425
21
-4.26723
0
LINE
8
BLACK
6
CONTINUOUS
10
6.37425
20
-4.26723
11
6.38484
21
-4.25797
0
LINE
8
BLACK
6
CONTINUOUS
10
6.38484
20
-4.25797
11
6.39639
21
-4.24994
0
LINE
8
BLACK
6
CONTINUOUS
10
6.39639
20
-4.24994
11
6.40876
21
-4.24325
0
LINE
8
BLACK
6
CONTINUOUS
10
6.40876
20
-4.24325
11
6.4218
21
-4.23798
0
LINE
8
BLACK
6
CONTINUOUS
10
6.4218
20
-4.23798
11
6.43535
21
-4.2342
0
LINE
8
BLACK
6
CONTINUOUS
10
6.43535
20
-4.2342
11
6.44923
21
-4.23195
0
LINE
8
BLACK
6
CONTINUOUS
10
6.44923
20
-4.23195
11
6.46328
21
-4.23126
0
LINE
8
BLACK
6
CONTINUOUS
10
6.46328
20
-4.23126
11
6.47732
21
-4.23215
0
LINE
8
BLACK
6
CONTINUOUS
10
5.74541
20
-4.36997
11
5.74797
21
-4.37168
0
LINE
8
BLACK
6
CONTINUOUS
10
5.74797
20
-4.37168
11
5.74968
21
-4.37423
0
LINE
8
BLACK
6
CONTINUOUS
10
5.74968
20
-4.37423
11
5.75028
21
-4.37724
0
LINE
8
BLACK
6
CONTINUOUS
10
5.75028
20
-4.37724
11
5.75028
21
-4.43724
0
LINE
8
BLACK
6
CONTINUOUS
10
5.75028
20
-4.43724
11
5.74968
21
-4.44026
0
LINE
8
BLACK
6
CONTINUOUS
10
5.74968
20
-4.44026
11
5.74797
21
-4.44281
0
LINE
8
BLACK
6
CONTINUOUS
10
5.74797
20
-4.44281
11
5.74541
21
-4.44452
0
LINE
8
BLACK
6
CONTINUOUS
10
5.74541
20
-4.44452
11
5.7424
21
-4.44512
0
LINE
8
BLACK
6
CONTINUOUS
10
5.7424
20
-4.44512
11
5.6824
21
-4.44512
0
LINE
8
BLACK
6
CONTINUOUS
10
5.6824
20
-4.44512
11
5.67939
21
-4.44452
0
LINE
8
BLACK
6
CONTINUOUS
10
5.67939
20
-4.44452
11
5.67683
21
-4.44281
0
LINE
8
BLACK
6
CONTINUOUS
10
5.67683
20
-4.44281
11
5.67513
21
-4.44026
0
LINE
8
BLACK
6
CONTINUOUS
10
5.67513
20
-4.44026
11
5.67453
21
-4.43724
0
LINE
8
BLACK
6
CONTINUOUS
10
5.67453
20
-4.43724
11
5.67453
21
-4.37724
0
LINE
8
BLACK
6
CONTINUOUS
10
5.67453
20
-4.37724
11
5.67513
21
-4.37423
0
LINE
8
BLACK
6
CONTINUOUS
10
5.67513
20
-4.37423
11
5.67683
21
-4.37168
0
LINE
8
BLACK
6
CONTINUOUS
10
5.67683
20
-4.37168
11
5.67939
21
-4.36997
0
LINE
8
BLACK
6
CONTINUOUS
10
5.67939
20
-4.36997
11
5.6824
21
-4.36937
0
LINE
8
BLACK
6
CONTINUOUS
10
5.6824
20
-4.36937
11
5.7424
21
-4.36937
0
LINE
8
BLACK
6
CONTINUOUS
10
5.7424
20
-4.36937
11
5.74541
21
-4.36997
0
LINE
8
BLACK
6
CONTINUOUS
10
5.84541
20
-4.36997
11
5.84797
21
-4.37168
0
LINE
8
BLACK
6
CONTINUOUS
10
5.84797
20
-4.37168
11
5.84968
21
-4.37423
0
LINE
8
BLACK
6
CONTINUOUS
10
5.84968
20
-4.37423
11
5.85028
21
-4.37724
0
LINE
8
BLACK
6
CONTINUOUS
10
5.85028
20
-4.37724
11
5.85028
21
-4.43724
0
LINE
8
BLACK
6
CONTINUOUS
10
5.85028
20
-4.43724
11
5.84968
21
-4.44026
0
LINE
8
BLACK
6
CONTINUOUS
10
5.84968
20
-4.44026
11
5.84797
21
-4.44281
0
LINE
8
BLACK
6
CONTINUOUS
10
5.84797
20
-4.44281
11
5.84541
21
-4.44452
0
LINE
8
BLACK
6
CONTINUOUS
10
5.84541
20
-4.44452
11
5.8424
21
-4.44512
0
LINE
8
BLACK
6
CONTINUOUS
10
5.8424
20
-4.44512
11
5.7824
21
-4.44512
0
LINE
8
BLACK
6
CONTINUOUS
10
5.7824
20
-4.44512
11
5.77939
21
-4.44452
0
LINE
8
BLACK
6
CONTINUOUS
10
5.77939
20
-4.44452
11
5.77683
21
-4.44281
0
LINE
8
BLACK
6
CONTINUOUS
10
5.77683
20
-4.44281
11
5.77513
21
-4.44026
0
LINE
8
BLACK
6
CONTINUOUS
10
5.77513
20
-4.44026
11
5.77453
21
-4.43724
0
LINE
8
BLACK
6
CONTINUOUS
10
5.77453
20
-4.43724
11
5.77453
21
-4.37724
0
LINE
8
BLACK
6
CONTINUOUS
10
5.77453
20
-4.37724
11
5.77513
21
-4.37423
0
LINE
8
BLACK
6
CONTINUOUS
10
5.77513
20
-4.37423
11
5.77683
21
-4.37168
0
LINE
8
BLACK
6
CONTINUOUS
10
5.77683
20
-4.37168
11
5.77939
21
-4.36997
0
LINE
8
BLACK
6
CONTINUOUS
10
5.77939
20
-4.36997
11
5.7824
21
-4.36937
0
LINE
8
BLACK
6
CONTINUOUS
10
5.7824
20
-4.36937
11
5.8424
21
-4.36937
0
LINE
8
BLACK
6
CONTINUOUS
10
5.8424
20
-4.36937
11
5.84541
21
-4.36997
0
LINE
8
BLACK
6
CONTINUOUS
10
5.94541
20
-4.36997
11
5.94797
21
-4.37168
0
LINE
8
BLACK
6
CONTINUOUS
10
5.94797
20
-4.37168
11
5.94968
21
-4.37423
0
LINE
8
BLACK
6
CONTINUOUS
10
5.94968
20
-4.37423
11
5.95028
21
-4.37724
0
LINE
8
BLACK
6
CONTINUOUS
10
5.95028
20
-4.37724
11
5.95028
21
-4.43724
0
LINE
8
BLACK
6
CONTINUOUS
10
5.95028
20
-4.43724
11
5.94968
21
-4.44026
0
LINE
8
BLACK
6
CONTINUOUS
10
5.94968
20
-4.44026
11
5.94797
21
-4.44281
0
LINE
8
BLACK
6
CONTINUOUS
10
5.94797
20
-4.44281
11
5.94541
21
-4.44452
0
LINE
8
BLACK
6
CONTINUOUS
10
5.94541
20
-4.44452
11
5.9424
21
-4.44512
0
LINE
8
BLACK
6
CONTINUOUS
10
5.9424
20
-4.44512
11
5.8824
21
-4.44512
0
LINE
8
BLACK
6
CONTINUOUS
10
5.8824
20
-4.44512
11
5.87939
21
-4.44452
0
LINE
8
BLACK
6
CONTINUOUS
10
5.87939
20
-4.44452
11
5.87683
21
-4.44281
0
LINE
8
BLACK
6
CONTINUOUS
10
5.87683
20
-4.44281
11
5.87513
21
-4.44026
0
LINE
8
BLACK
6
CONTINUOUS
10
5.87513
20
-4.44026
11
5.87453
21
-4.43724
0
LINE
8
BLACK
6
CONTINUOUS
10
5.87453
20
-4.43724
11
5.87453
21
-4.37724
0
LINE
8
BLACK
6
CONTINUOUS
10
5.87453
20
-4.37724
11
5.87513
21
-4.37423
0
LINE
8
BLACK
6
CONTINUOUS
10
5.87513
20
-4.37423
11
5.87683
21
-4.37168
0
LINE
8
BLACK
6
CONTINUOUS
10
5.87683
20
-4.37168
11
5.87939
21
-4.36997
0
LINE
8
BLACK
6
CONTINUOUS
10
5.87939
20
-4.36997
11
5.8824
21
-4.36937
0
LINE
8
BLACK
6
CONTINUOUS
10
5.8824
20
-4.36937
11
5.9424
21
-4.36937
0
LINE
8
BLACK
6
CONTINUOUS
10
5.9424
20
-4.36937
11
5.94541
21
-4.36997
0
LINE
8
BLACK
6
CONTINUOUS
10
6.29541
20
-4.36997
11
6.29797
21
-4.37168
0
LINE
8
BLACK
6
CONTINUOUS
10
6.29797
20
-4.37168
11
6.29968
21
-4.37423
0
LINE
8
BLACK
6
CONTINUOUS
10
6.29968
20
-4.37423
11
6.30028
21
-4.37724
0
LINE
8
BLACK
6
CONTINUOUS
10
6.30028
20
-4.37724
11
6.30028
21
-4.43724
0
LINE
8
BLACK
6
CONTINUOUS
10
6.30028
20
-4.43724
11
6.29968
21
-4.44026
0
LINE
8
BLACK
6
CONTINUOUS
10
6.29968
20
-4.44026
11
6.29797
21
-4.44281
0
LINE
8
BLACK
6
CONTINUOUS
10
6.29797
20
-4.44281
11
6.29541
21
-4.44452
0
LINE
8
BLACK
6
CONTINUOUS
10
6.29541
20
-4.44452
11
6.2924
21
-4.44512
0
LINE
8
BLACK
6
CONTINUOUS
10
6.2924
20
-4.44512
11
6.2324
21
-4.44512
0
LINE
8
BLACK
6
CONTINUOUS
10
6.2324
20
-4.44512
11
6.22939
21
-4.44452
0
LINE
8
BLACK
6
CONTINUOUS
10
6.22939
20
-4.44452
11
6.22683
21
-4.44281
0
LINE
8
BLACK
6
CONTINUOUS
10
6.22683
20
-4.44281
11
6.22513
21
-4.44026
0
LINE
8
BLACK
6
CONTINUOUS
10
6.22513
20
-4.44026
11
6.22453
21
-4.43724
0
LINE
8
BLACK
6
CONTINUOUS
10
6.22453
20
-4.43724
11
6.22453
21
-4.37724
0
LINE
8
BLACK
6
CONTINUOUS
10
6.22453
20
-4.37724
11
6.22513
21
-4.37423
0
LINE
8
BLACK
6
CONTINUOUS
10
6.22513
20
-4.37423
11
6.22683
21
-4.37168
0
LINE
8
BLACK
6
CONTINUOUS
10
6.22683
20
-4.37168
11
6.22939
21
-4.36997
0
LINE
8
BLACK
6
CONTINUOUS
10
6.22939
20
-4.36997
11
6.2324
21
-4.36937
0
LINE
8
BLACK
6
CONTINUOUS
10
6.2324
20
-4.36937
11
6.2924
21
-4.36937
0
LINE
8
BLACK
6
CONTINUOUS
10
6.2924
20
-4.36937
11
6.29541
21
-4.36997
0
LINE
8
BLACK
6
CONTINUOUS
10
6.09541
20
-4.36997
11
6.09797
21
-4.37168
0
LINE
8
BLACK
6
CONTINUOUS
10
6.09797
20
-4.37168
11
6.09968
21
-4.37423
0
LINE
8
BLACK
6
CONTINUOUS
10
6.09968
20
-4.37423
11
6.10028
21
-4.37724
0
LINE
8
BLACK
6
CONTINUOUS
10
6.10028
20
-4.37724
11
6.10028
21
-4.43724
0
LINE
8
BLACK
6
CONTINUOUS
10
6.10028
20
-4.43724
11
6.09968
21
-4.44026
0
LINE
8
BLACK
6
CONTINUOUS
10
6.09968
20
-4.44026
11
6.09797
21
-4.44281
0
LINE
8
BLACK
6
CONTINUOUS
10
6.09797
20
-4.44281
11
6.09541
21
-4.44452
0
LINE
8
BLACK
6
CONTINUOUS
10
6.09541
20
-4.44452
11
6.0924
21
-4.44512
0
LINE
8
BLACK
6
CONTINUOUS
10
6.0924
20
-4.44512
11
6.0324
21
-4.44512
0
LINE
8
BLACK
6
CONTINUOUS
10
6.0324
20
-4.44512
11
6.02939
21
-4.44452
0
LINE
8
BLACK
6
CONTINUOUS
10
6.02939
20
-4.44452
11
6.02683
21
-4.44281
0
LINE
8
BLACK
6
CONTINUOUS
10
6.02683
20
-4.44281
11
6.02513
21
-4.44026
0
LINE
8
BLACK
6
CONTINUOUS
10
6.02513
20
-4.44026
11
6.02453
21
-4.43724
0
LINE
8
BLACK
6
CONTINUOUS
10
6.02453
20
-4.43724
11
6.02453
21
-4.37724
0
LINE
8
BLACK
6
CONTINUOUS
10
6.02453
20
-4.37724
11
6.02513
21
-4.37423
0
LINE
8
BLACK
6
CONTINUOUS
10
6.02513
20
-4.37423
11
6.02683
21
-4.37168
0
LINE
8
BLACK
6
CONTINUOUS
10
6.02683
20
-4.37168
11
6.02939
21
-4.36997
0
LINE
8
BLACK
6
CONTINUOUS
10
6.02939
20
-4.36997
11
6.0324
21
-4.36937
0
LINE
8
BLACK
6
CONTINUOUS
10
6.0324
20
-4.36937
11
6.0924
21
-4.36937
0
LINE
8
BLACK
6
CONTINUOUS
10
6.0924
20
-4.36937
11
6.09541
21
-4.36997
0
LINE
8
BLACK
6
CONTINUOUS
10
6.19541
20
-4.36997
11
6.19797
21
-4.37168
0
LINE
8
BLACK
6
CONTINUOUS
10
6.19797
20
-4.37168
11
6.19968
21
-4.37423
0
LINE
8
BLACK
6
CONTINUOUS
10
6.19968
20
-4.37423
11
6.20028
21
-4.37724
0
LINE
8
BLACK
6
CONTINUOUS
10
6.20028
20
-4.37724
11
6.20028
21
-4.43724
0
LINE
8
BLACK
6
CONTINUOUS
10
6.20028
20
-4.43724
11
6.19968
21
-4.44026
0
LINE
8
BLACK
6
CONTINUOUS
10
6.19968
20
-4.44026
11
6.19797
21
-4.44281
0
LINE
8
BLACK
6
CONTINUOUS
10
6.19797
20
-4.44281
11
6.19541
21
-4.44452
0
LINE
8
BLACK
6
CONTINUOUS
10
6.19541
20
-4.44452
11
6.1924
21
-4.44512
0
LINE
8
BLACK
6
CONTINUOUS
10
6.1924
20
-4.44512
11
6.1324
21
-4.44512
0
LINE
8
BLACK
6
CONTINUOUS
10
6.1324
20
-4.44512
11
6.12939
21
-4.44452
0
LINE
8
BLACK
6
CONTINUOUS
10
6.12939
20
-4.44452
11
6.12683
21
-4.44281
0
LINE
8
BLACK
6
CONTINUOUS
10
6.12683
20
-4.44281
11
6.12513
21
-4.44026
0
LINE
8
BLACK
6
CONTINUOUS
10
6.12513
20
-4.44026
11
6.12453
21
-4.43724
0
LINE
8
BLACK
6
CONTINUOUS
10
6.12453
20
-4.43724
11
6.12453
21
-4.37724
0
LINE
8
BLACK
6
CONTINUOUS
10
6.12453
20
-4.37724
11
6.12513
21
-4.37423
0
LINE
8
BLACK
6
CONTINUOUS
10
6.12513
20
-4.37423
11
6.12683
21
-4.37168
0
LINE
8
BLACK
6
CONTINUOUS
10
6.12683
20
-4.37168
11
6.12939
21
-4.36997
0
LINE
8
BLACK
6
CONTINUOUS
10
6.12939
20
-4.36997
11
6.1324
21
-4.36937
0
LINE
8
BLACK
6
CONTINUOUS
10
6.1324
20
-4.36937
11
6.1924
21
-4.36937
0
LINE
8
BLACK
6
CONTINUOUS
10
6.1924
20
-4.36937
11
6.19541
21
-4.36997
0
LINE
8
BLACK
6
CONTINUOUS
10
5.52163
20
-4.3049
11
5.53058
21
-4.3073
0
LINE
8
BLACK
6
CONTINUOUS
10
5.53058
20
-4.3073
11
5.53898
21
-4.31122
0
LINE
8
BLACK
6
CONTINUOUS
10
5.53898
20
-4.31122
11
5.54657
21
-4.31653
0
LINE
8
BLACK
6
CONTINUOUS
10
5.54657
20
-4.31653
11
5.55312
21
-4.32308
0
LINE
8
BLACK
6
CONTINUOUS
10
5.55312
20
-4.32308
11
5.55843
21
-4.33067
0
LINE
8
BLACK
6
CONTINUOUS
10
5.55843
20
-4.33067
11
5.56235
21
-4.33907
0
LINE
8
BLACK
6
CONTINUOUS
10
5.56235
20
-4.33907
11
5.56474
21
-4.34801
0
LINE
8
BLACK
6
CONTINUOUS
10
5.56474
20
-4.34801
11
5.56555
21
-4.35724
0
LINE
8
BLACK
6
CONTINUOUS
10
5.56555
20
-4.35724
11
5.56474
21
-4.36647
0
LINE
8
BLACK
6
CONTINUOUS
10
5.56474
20
-4.36647
11
5.56235
21
-4.37542
0
LINE
8
BLACK
6
CONTINUOUS
10
5.56235
20
-4.37542
11
5.55843
21
-4.38382
0
LINE
8
BLACK
6
CONTINUOUS
10
5.55843
20
-4.38382
11
5.55312
21
-4.39141
0
LINE
8
BLACK
6
CONTINUOUS
10
5.55312
20
-4.39141
11
5.54657
21
-4.39796
0
LINE
8
BLACK
6
CONTINUOUS
10
5.54657
20
-4.39796
11
5.53898
21
-4.40327
0
LINE
8
BLACK
6
CONTINUOUS
10
5.53898
20
-4.40327
11
5.53058
21
-4.40719
0
LINE
8
BLACK
6
CONTINUOUS
10
5.53058
20
-4.40719
11
5.52163
21
-4.40959
0
LINE
8
BLACK
6
CONTINUOUS
10
5.52163
20
-4.40959
11
5.5124
21
-4.41039
0
LINE
8
BLACK
6
CONTINUOUS
10
5.5124
20
-4.41039
11
5.50317
21
-4.40959
0
LINE
8
BLACK
6
CONTINUOUS
10
5.50317
20
-4.40959
11
5.49422
21
-4.40719
0
LINE
8
BLACK
6
CONTINUOUS
10
5.49422
20
-4.40719
11
5.48583
21
-4.40327
0
LINE
8
BLACK
6
CONTINUOUS
10
5.48583
20
-4.40327
11
5.47824
21
-4.39796
0
LINE
8
BLACK
6
CONTINUOUS
10
5.47824
20
-4.39796
11
5.47169
21
-4.39141
0
LINE
8
BLACK
6
CONTINUOUS
10
5.47169
20
-4.39141
11
5.46637
21
-4.38382
0
LINE
8
BLACK
6
CONTINUOUS
10
5.46637
20
-4.38382
11
5.46246
21
-4.37542
0
LINE
8
BLACK
6
CONTINUOUS
10
5.46246
20
-4.37542
11
5.46006
21
-4.36647
0
LINE
8
BLACK
6
CONTINUOUS
10
5.46006
20
-4.36647
11
5.45925
21
-4.35724
0
LINE
8
BLACK
6
CONTINUOUS
10
5.45925
20
-4.35724
11
5.46006
21
-4.34801
0
LINE
8
BLACK
6
CONTINUOUS
10
5.46006
20
-4.34801
11
5.46246
21
-4.33907
0
LINE
8
BLACK
6
CONTINUOUS
10
5.46246
20
-4.33907
11
5.46637
21
-4.33067
0
LINE
8
BLACK
6
CONTINUOUS
10
5.46637
20
-4.33067
11
5.47169
21
-4.32308
0
LINE
8
BLACK
6
CONTINUOUS
10
5.47169
20
-4.32308
11
5.47824
21
-4.31653
0
LINE
8
BLACK
6
CONTINUOUS
10
5.47824
20
-4.31653
11
5.48583
21
-4.31122
0
LINE
8
BLACK
6
CONTINUOUS
10
5.48583
20
-4.31122
11
5.49422
21
-4.3073
0
LINE
8
BLACK
6
CONTINUOUS
10
5.49422
20
-4.3073
11
5.50317
21
-4.3049
0
LINE
8
BLACK
6
CONTINUOUS
10
5.50317
20
-4.3049
11
5.5124
21
-4.30409
0
LINE
8
BLACK
6
CONTINUOUS
10
5.5124
20
-4.30409
11
5.52163
21
-4.3049
0
LINE
8
BLACK
6
CONTINUOUS
10
5.45242
20
-4.32044
11
5.45498
21
-4.32215
0
LINE
8
BLACK
6
CONTINUOUS
10
5.45498
20
-4.32215
11
5.45668
21
-4.3247
0
LINE
8
BLACK
6
CONTINUOUS
10
5.45668
20
-4.3247
11
5.45728
21
-4.32772
0
LINE
8
BLACK
6
CONTINUOUS
10
5.45728
20
-4.32772
11
5.45728
21
-4.38677
0
LINE
8
BLACK
6
CONTINUOUS
10
5.45728
20
-4.38677
11
5.45668
21
-4.38978
0
LINE
8
BLACK
6
CONTINUOUS
10
5.45668
20
-4.38978
11
5.45498
21
-4.39234
0
LINE
8
BLACK
6
CONTINUOUS
10
5.45498
20
-4.39234
11
5.45242
21
-4.39405
0
LINE
8
BLACK
6
CONTINUOUS
10
5.45242
20
-4.39405
11
5.44941
21
-4.39465
0
LINE
8
BLACK
6
CONTINUOUS
10
5.44941
20
-4.39465
11
5.41201
21
-4.39465
0
LINE
8
BLACK
6
CONTINUOUS
10
5.41201
20
-4.39465
11
5.40899
21
-4.39405
0
LINE
8
BLACK
6
CONTINUOUS
10
5.40899
20
-4.39405
11
5.40644
21
-4.39234
0
LINE
8
BLACK
6
CONTINUOUS
10
5.40644
20
-4.39234
11
5.40473
21
-4.38978
0
LINE
8
BLACK
6
CONTINUOUS
10
5.40473
20
-4.38978
11
5.40413
21
-4.38677
0
LINE
8
BLACK
6
CONTINUOUS
10
5.40413
20
-4.38677
11
5.40413
21
-4.32772
0
LINE
8
BLACK
6
CONTINUOUS
10
5.40413
20
-4.32772
11
5.40473
21
-4.3247
0
LINE
8
BLACK
6
CONTINUOUS
10
5.40473
20
-4.3247
11
5.40644
21
-4.32215
0
LINE
8
BLACK
6
CONTINUOUS
10
5.40644
20
-4.32215
11
5.40899
21
-4.32044
0
LINE
8
BLACK
6
CONTINUOUS
10
5.40899
20
-4.32044
11
5.41201
21
-4.31984
0
LINE
8
BLACK
6
CONTINUOUS
10
5.41201
20
-4.31984
11
5.44941
21
-4.31984
0
LINE
8
BLACK
6
CONTINUOUS
10
5.44941
20
-4.31984
11
5.45242
21
-4.32044
0
LINE
8
BLACK
6
CONTINUOUS
10
5.61581
20
-4.32044
11
5.61836
21
-4.32215
0
LINE
8
BLACK
6
CONTINUOUS
10
5.61836
20
-4.32215
11
5.62007
21
-4.3247
0
LINE
8
BLACK
6
CONTINUOUS
10
5.62007
20
-4.3247
11
5.62067
21
-4.32772
0
LINE
8
BLACK
6
CONTINUOUS
10
5.62067
20
-4.32772
11
5.62067
21
-4.38677
0
LINE
8
BLACK
6
CONTINUOUS
10
5.62067
20
-4.38677
11
5.62007
21
-4.38978
0
LINE
8
BLACK
6
CONTINUOUS
10
5.62007
20
-4.38978
11
5.61836
21
-4.39234
0
LINE
8
BLACK
6
CONTINUOUS
10
5.61836
20
-4.39234
11
5.61581
21
-4.39405
0
LINE
8
BLACK
6
CONTINUOUS
10
5.61581
20
-4.39405
11
5.6128
21
-4.39465
0
LINE
8
BLACK
6
CONTINUOUS
10
5.6128
20
-4.39465
11
5.57539
21
-4.39465
0
LINE
8
BLACK
6
CONTINUOUS
10
5.57539
20
-4.39465
11
5.57238
21
-4.39405
0
LINE
8
BLACK
6
CONTINUOUS
10
5.57238
20
-4.39405
11
5.56983
21
-4.39234
0
LINE
8
BLACK
6
CONTINUOUS
10
5.56983
20
-4.39234
11
5.56812
21
-4.38978
0
LINE
8
BLACK
6
CONTINUOUS
10
5.56812
20
-4.38978
11
5.56752
21
-4.38677
0
LINE
8
BLACK
6
CONTINUOUS
10
5.56752
20
-4.38677
11
5.56752
21
-4.32772
0
LINE
8
BLACK
6
CONTINUOUS
10
5.56752
20
-4.32772
11
5.56812
21
-4.3247
0
LINE
8
BLACK
6
CONTINUOUS
10
5.56812
20
-4.3247
11
5.56983
21
-4.32215
0
LINE
8
BLACK
6
CONTINUOUS
10
5.56983
20
-4.32215
11
5.57238
21
-4.32044
0
LINE
8
BLACK
6
CONTINUOUS
10
5.57238
20
-4.32044
11
5.57539
21
-4.31984
0
LINE
8
BLACK
6
CONTINUOUS
10
5.57539
20
-4.31984
11
5.6128
21
-4.31984
0
LINE
8
BLACK
6
CONTINUOUS
10
5.6128
20
-4.31984
11
5.61581
21
-4.32044
0
LINE
8
BLACK
6
CONTINUOUS
10
5.74541
20
-4.26997
11
5.74797
21
-4.27168
0
LINE
8
BLACK
6
CONTINUOUS
10
5.74797
20
-4.27168
11
5.74968
21
-4.27423
0
LINE
8
BLACK
6
CONTINUOUS
10
5.74968
20
-4.27423
11
5.75028
21
-4.27724
0
LINE
8
BLACK
6
CONTINUOUS
10
5.75028
20
-4.27724
11
5.75028
21
-4.33724
0
LINE
8
BLACK
6
CONTINUOUS
10
5.75028
20
-4.33724
11
5.74968
21
-4.34026
0
LINE
8
BLACK
6
CONTINUOUS
10
5.74968
20
-4.34026
11
5.74797
21
-4.34281
0
LINE
8
BLACK
6
CONTINUOUS
10
5.74797
20
-4.34281
11
5.74541
21
-4.34452
0
LINE
8
BLACK
6
CONTINUOUS
10
5.74541
20
-4.34452
11
5.7424
21
-4.34512
0
LINE
8
BLACK
6
CONTINUOUS
10
5.7424
20
-4.34512
11
5.6824
21
-4.34512
0
LINE
8
BLACK
6
CONTINUOUS
10
5.6824
20
-4.34512
11
5.67939
21
-4.34452
0
LINE
8
BLACK
6
CONTINUOUS
10
5.67939
20
-4.34452
11
5.67683
21
-4.34281
0
LINE
8
BLACK
6
CONTINUOUS
10
5.67683
20
-4.34281
11
5.67513
21
-4.34026
0
LINE
8
BLACK
6
CONTINUOUS
10
5.67513
20
-4.34026
11
5.67453
21
-4.33724
0
LINE
8
BLACK
6
CONTINUOUS
10
5.67453
20
-4.33724
11
5.67453
21
-4.27724
0
LINE
8
BLACK
6
CONTINUOUS
10
5.67453
20
-4.27724
11
5.67513
21
-4.27423
0
LINE
8
BLACK
6
CONTINUOUS
10
5.67513
20
-4.27423
11
5.67683
21
-4.27168
0
LINE
8
BLACK
6
CONTINUOUS
10
5.67683
20
-4.27168
11
5.67939
21
-4.26997
0
LINE
8
BLACK
6
CONTINUOUS
10
5.67939
20
-4.26997
11
5.6824
21
-4.26937
0
LINE
8
BLACK
6
CONTINUOUS
10
5.6824
20
-4.26937
11
5.7424
21
-4.26937
0
LINE
8
BLACK
6
CONTINUOUS
10
5.7424
20
-4.26937
11
5.74541
21
-4.26997
0
LINE
8
BLACK
6
CONTINUOUS
10
5.84541
20
-4.26997
11
5.84797
21
-4.27168
0
LINE
8
BLACK
6
CONTINUOUS
10
5.84797
20
-4.27168
11
5.84968
21
-4.27423
0
LINE
8
BLACK
6
CONTINUOUS
10
5.84968
20
-4.27423
11
5.85028
21
-4.27724
0
LINE
8
BLACK
6
CONTINUOUS
10
5.85028
20
-4.27724
11
5.85028
21
-4.33724
0
LINE
8
BLACK
6
CONTINUOUS
10
5.85028
20
-4.33724
11
5.84968
21
-4.34026
0
LINE
8
BLACK
6
CONTINUOUS
10
5.84968
20
-4.34026
11
5.84797
21
-4.34281
0
LINE
8
BLACK
6
CONTINUOUS
10
5.84797
20
-4.34281
11
5.84541
21
-4.34452
0
LINE
8
BLACK
6
CONTINUOUS
10
5.84541
20
-4.34452
11
5.8424
21
-4.34512
0
LINE
8
BLACK
6
CONTINUOUS
10
5.8424
20
-4.34512
11
5.7824
21
-4.34512
0
LINE
8
BLACK
6
CONTINUOUS
10
5.7824
20
-4.34512
11
5.77939
21
-4.34452
0
LINE
8
BLACK
6
CONTINUOUS
10
5.77939
20
-4.34452
11
5.77683
21
-4.34281
0
LINE
8
BLACK
6
CONTINUOUS
10
5.77683
20
-4.34281
11
5.77513
21
-4.34026
0
LINE
8
BLACK
6
CONTINUOUS
10
5.77513
20
-4.34026
11
5.77453
21
-4.33724
0
LINE
8
BLACK
6
CONTINUOUS
10
5.77453
20
-4.33724
11
5.77453
21
-4.27724
0
LINE
8
BLACK
6
CONTINUOUS
10
5.77453
20
-4.27724
11
5.77513
21
-4.27423
0
LINE
8
BLACK
6
CONTINUOUS
10
5.77513
20
-4.27423
11
5.77683
21
-4.27168
0
LINE
8
BLACK
6
CONTINUOUS
10
5.77683
20
-4.27168
11
5.77939
21
-4.26997
0
LINE
8
BLACK
6
CONTINUOUS
10
5.77939
20
-4.26997
11
5.7824
21
-4.26937
0
LINE
8
BLACK
6
CONTINUOUS
10
5.7824
20
-4.26937
11
5.8424
21
-4.26937
0
LINE
8
BLACK
6
CONTINUOUS
10
5.8424
20
-4.26937
11
5.84541
21
-4.26997
0
LINE
8
BLACK
6
CONTINUOUS
10
5.94541
20
-4.26997
11
5.94797
21
-4.27168
0
LINE
8
BLACK
6
CONTINUOUS
10
5.94797
20
-4.27168
11
5.94968
21
-4.27423
0
LINE
8
BLACK
6
CONTINUOUS
10
5.94968
20
-4.27423
11
5.95028
21
-4.27724
0
LINE
8
BLACK
6
CONTINUOUS
10
5.95028
20
-4.27724
11
5.95028
21
-4.33724
0
LINE
8
BLACK
6
CONTINUOUS
10
5.95028
20
-4.33724
11
5.94968
21
-4.34026
0
LINE
8
BLACK
6
CONTINUOUS
10
5.94968
20
-4.34026
11
5.94797
21
-4.34281
0
LINE
8
BLACK
6
CONTINUOUS
10
5.94797
20
-4.34281
11
5.94541
21
-4.34452
0
LINE
8
BLACK
6
CONTINUOUS
10
5.94541
20
-4.34452
11
5.9424
21
-4.34512
0
LINE
8
BLACK
6
CONTINUOUS
10
5.9424
20
-4.34512
11
5.8824
21
-4.34512
0
LINE
8
BLACK
6
CONTINUOUS
10
5.8824
20
-4.34512
11
5.87939
21
-4.34452
0
LINE
8
BLACK
6
CONTINUOUS
10
5.87939
20
-4.34452
11
5.87683
21
-4.34281
0
LINE
8
BLACK
6
CONTINUOUS
10
5.87683
20
-4.34281
11
5.87513
21
-4.34026
0
LINE
8
BLACK
6
CONTINUOUS
10
5.87513
20
-4.34026
11
5.87453
21
-4.33724
0
LINE
8
BLACK
6
CONTINUOUS
10
5.87453
20
-4.33724
11
5.87453
21
-4.27724
0
LINE
8
BLACK
6
CONTINUOUS
10
5.87453
20
-4.27724
11
5.87513
21
-4.27423
0
LINE
8
BLACK
6
CONTINUOUS
10
5.87513
20
-4.27423
11
5.87683
21
-4.27168
0
LINE
8
BLACK
6
CONTINUOUS
10
5.87683
20
-4.27168
11
5.87939
21
-4.26997
0
LINE
8
BLACK
6
CONTINUOUS
10
5.87939
20
-4.26997
11
5.8824
21
-4.26937
0
LINE
8
BLACK
6
CONTINUOUS
10
5.8824
20
-4.26937
11
5.9424
21
-4.26937
0
LINE
8
BLACK
6
CONTINUOUS
10
5.9424
20
-4.26937
11
5.94541
21
-4.26997
0
LINE
8
BLACK
6
CONTINUOUS
10
6.29541
20
-4.26997
11
6.29797
21
-4.27168
0
LINE
8
BLACK
6
CONTINUOUS
10
6.29797
20
-4.27168
11
6.29968
21
-4.27423
0
LINE
8
BLACK
6
CONTINUOUS
10
6.29968
20
-4.27423
11
6.30028
21
-4.27724
0
LINE
8
BLACK
6
CONTINUOUS
10
6.30028
20
-4.27724
11
6.30028
21
-4.33724
0
LINE
8
BLACK
6
CONTINUOUS
10
6.30028
20
-4.33724
11
6.29968
21
-4.34026
0
LINE
8
BLACK
6
CONTINUOUS
10
6.29968
20
-4.34026
11
6.29797
21
-4.34281
0
LINE
8
BLACK
6
CONTINUOUS
10
6.29797
20
-4.34281
11
6.29541
21
-4.34452
0
LINE
8
BLACK
6
CONTINUOUS
10
6.29541
20
-4.34452
11
6.2924
21
-4.34512
0
LINE
8
BLACK
6
CONTINUOUS
10
6.2924
20
-4.34512
11
6.2324
21
-4.34512
0
LINE
8
BLACK
6
CONTINUOUS
10
6.2324
20
-4.34512
11
6.22939
21
-4.34452
0
LINE
8
BLACK
6
CONTINUOUS
10
6.22939
20
-4.34452
11
6.22683
21
-4.34281
0
LINE
8
BLACK
6
CONTINUOUS
10
6.22683
20
-4.34281
11
6.22513
21
-4.34026
0
LINE
8
BLACK
6
CONTINUOUS
10
6.22513
20
-4.34026
11
6.22453
21
-4.33724
0
LINE
8
BLACK
6
CONTINUOUS
10
6.22453
20
-4.33724
11
6.22453
21
-4.27724
0
LINE
8
BLACK
6
CONTINUOUS
10
6.22453
20
-4.27724
11
6.22513
21
-4.27423
0
LINE
8
BLACK
6
CONTINUOUS
10
6.22513
20
-4.27423
11
6.22683
21
-4.27168
0
LINE
8
BLACK
6
CONTINUOUS
10
6.22683
20
-4.27168
11
6.22939
21
-4.26997
0
LINE
8
BLACK
6
CONTINUOUS
10
6.22939
20
-4.26997
11
6.2324
21
-4.26937
0
LINE
8
BLACK
6
CONTINUOUS
10
6.2324
20
-4.26937
11
6.2924
21
-4.26937
0
LINE
8
BLACK
6
CONTINUOUS
10
6.2924
20
-4.26937
11
6.29541
21
-4.26997
0
LINE
8
BLACK
6
CONTINUOUS
10
6.09541
20
-4.26997
11
6.09797
21
-4.27168
0
LINE
8
BLACK
6
CONTINUOUS
10
6.09797
20
-4.27168
11
6.09968
21
-4.27423
0
LINE
8
BLACK
6
CONTINUOUS
10
6.09968
20
-4.27423
11
6.10028
21
-4.27724
0
LINE
8
BLACK
6
CONTINUOUS
10
6.10028
20
-4.27724
11
6.10028
21
-4.33724
0
LINE
8
BLACK
6
CONTINUOUS
10
6.10028
20
-4.33724
11
6.09968
21
-4.34026
0
LINE
8
BLACK
6
CONTINUOUS
10
6.09968
20
-4.34026
11
6.09797
21
-4.34281
0
LINE
8
BLACK
6
CONTINUOUS
10
6.09797
20
-4.34281
11
6.09541
21
-4.34452
0
LINE
8
BLACK
6
CONTINUOUS
10
6.09541
20
-4.34452
11
6.0924
21
-4.34512
0
LINE
8
BLACK
6
CONTINUOUS
10
6.0924
20
-4.34512
11
6.0324
21
-4.34512
0
LINE
8
BLACK
6
CONTINUOUS
10
6.0324
20
-4.34512
11
6.02939
21
-4.34452
0
LINE
8
BLACK
6
CONTINUOUS
10
6.02939
20
-4.34452
11
6.02683
21
-4.34281
0
LINE
8
BLACK
6
CONTINUOUS
10
6.02683
20
-4.34281
11
6.02513
21
-4.34026
0
LINE
8
BLACK
6
CONTINUOUS
10
6.02513
20
-4.34026
11
6.02453
21
-4.33724
0
LINE
8
BLACK
6
CONTINUOUS
10
6.02453
20
-4.33724
11
6.02453
21
-4.27724
0
LINE
8
BLACK
6
CONTINUOUS
10
6.02453
20
-4.27724
11
6.02513
21
-4.27423
0
LINE
8
BLACK
6
CONTINUOUS
10
6.02513
20
-4.27423
11
6.02683
21
-4.27168
0
LINE
8
BLACK
6
CONTINUOUS
10
6.02683
20
-4.27168
11
6.02939
21
-4.26997
0
LINE
8
BLACK
6
CONTINUOUS
10
6.02939
20
-4.26997
11
6.0324
21
-4.26937
0
LINE
8
BLACK
6
CONTINUOUS
10
6.0324
20
-4.26937
11
6.0924
21
-4.26937
0
LINE
8
BLACK
6
CONTINUOUS
10
6.0924
20
-4.26937
11
6.09541
21
-4.26997
0
LINE
8
BLACK
6
CONTINUOUS
10
6.19541
20
-4.26997
11
6.19797
21
-4.27168
0
LINE
8
BLACK
6
CONTINUOUS
10
6.19797
20
-4.27168
11
6.19968
21
-4.27423
0
LINE
8
BLACK
6
CONTINUOUS
10
6.19968
20
-4.27423
11
6.20028
21
-4.27724
0
LINE
8
BLACK
6
CONTINUOUS
10
6.20028
20
-4.27724
11
6.20028
21
-4.33724
0
LINE
8
BLACK
6
CONTINUOUS
10
6.20028
20
-4.33724
11
6.19968
21
-4.34026
0
LINE
8
BLACK
6
CONTINUOUS
10
6.19968
20
-4.34026
11
6.19797
21
-4.34281
0
LINE
8
BLACK
6
CONTINUOUS
10
6.19797
20
-4.34281
11
6.19541
21
-4.34452
0
LINE
8
BLACK
6
CONTINUOUS
10
6.19541
20
-4.34452
11
6.1924
21
-4.34512
0
LINE
8
BLACK
6
CONTINUOUS
10
6.1924
20
-4.34512
11
6.1324
21
-4.34512
0
LINE
8
BLACK
6
CONTINUOUS
10
6.1324
20
-4.34512
11
6.12939
21
-4.34452
0
LINE
8
BLACK
6
CONTINUOUS
10
6.12939
20
-4.34452
11
6.12683
21
-4.34281
0
LINE
8
BLACK
6
CONTINUOUS
10
6.12683
20
-4.34281
11
6.12513
21
-4.34026
0
LINE
8
BLACK
6
CONTINUOUS
10
6.12513
20
-4.34026
11
6.12453
21
-4.33724
0
LINE
8
BLACK
6
CONTINUOUS
10
6.12453
20
-4.33724
11
6.12453
21
-4.27724
0
LINE
8
BLACK
6
CONTINUOUS
10
6.12453
20
-4.27724
11
6.12513
21
-4.27423
0
LINE
8
BLACK
6
CONTINUOUS
10
6.12513
20
-4.27423
11
6.12683
21
-4.27168
0
LINE
8
BLACK
6
CONTINUOUS
10
6.12683
20
-4.27168
11
6.12939
21
-4.26997
0
LINE
8
BLACK
6
CONTINUOUS
10
6.12939
20
-4.26997
11
6.1324
21
-4.26937
0
LINE
8
BLACK
6
CONTINUOUS
10
6.1324
20
-4.26937
11
6.1924
21
-4.26937
0
LINE
8
BLACK
6
CONTINUOUS
10
6.1924
20
-4.26937
11
6.19541
21
-4.26997
0
LINE
8
BLACK
6
CONTINUOUS
10
5.49898
20
-4.12421
11
5.50954
21
-4.12666
0
LINE
8
BLACK
6
CONTINUOUS
10
5.50954
20
-4.12666
11
5.51966
21
-4.13057
0
LINE
8
BLACK
6
CONTINUOUS
10
5.51966
20
-4.13057
11
5.52912
21
-4.13587
0
LINE
8
BLACK
6
CONTINUOUS
10
5.52912
20
-4.13587
11
5.53774
21
-4.14245
0
LINE
8
BLACK
6
CONTINUOUS
10
5.53774
20
-4.14245
11
5.54535
21
-4.15018
0
LINE
8
BLACK
6
CONTINUOUS
10
5.54535
20
-4.15018
11
5.55179
21
-4.1589
0
LINE
8
BLACK
6
CONTINUOUS
10
5.55179
20
-4.1589
11
5.55694
21
-4.16845
0
LINE
8
BLACK
6
CONTINUOUS
10
5.55694
20
-4.16845
11
5.56069
21
-4.17862
0
LINE
8
BLACK
6
CONTINUOUS
10
5.56069
20
-4.17862
11
5.56297
21
-4.18922
0
LINE
8
BLACK
6
CONTINUOUS
10
5.56297
20
-4.18922
11
5.56374
21
-4.20004
0
LINE
8
BLACK
6
CONTINUOUS
10
5.56374
20
-4.20004
11
5.56359
21
-4.20486
0
LINE
8
BLACK
6
CONTINUOUS
10
5.56359
20
-4.20486
11
5.56215
21
-4.21561
0
LINE
8
BLACK
6
CONTINUOUS
10
5.56215
20
-4.21561
11
5.5592
21
-4.22604
0
LINE
8
BLACK
6
CONTINUOUS
10
5.5592
20
-4.22604
11
5.55482
21
-4.23596
0
LINE
8
BLACK
6
CONTINUOUS
10
5.55482
20
-4.23596
11
5.54908
21
-4.24516
0
LINE
8
BLACK
6
CONTINUOUS
10
5.54908
20
-4.24516
11
5.5421
21
-4.25347
0
LINE
8
BLACK
6
CONTINUOUS
10
5.5421
20
-4.25347
11
5.53402
21
-4.2607
0
LINE
8
BLACK
6
CONTINUOUS
10
5.53402
20
-4.2607
11
5.52501
21
-4.26673
0
LINE
8
BLACK
6
CONTINUOUS
10
5.52501
20
-4.26673
11
5.51523
21
-4.27142
0
LINE
8
BLACK
6
CONTINUOUS
10
5.51523
20
-4.27142
11
5.50489
21
-4.27469
0
LINE
8
BLACK
6
CONTINUOUS
10
5.50489
20
-4.27469
11
5.49419
21
-4.27647
0
LINE
8
BLACK
6
CONTINUOUS
10
5.49419
20
-4.27647
11
5.48335
21
-4.27673
0
LINE
8
BLACK
6
CONTINUOUS
10
5.48335
20
-4.27673
11
5.47258
21
-4.27545
0
LINE
8
BLACK
6
CONTINUOUS
10
5.47258
20
-4.27545
11
5.4621
21
-4.27267
0
LINE
8
BLACK
6
CONTINUOUS
10
5.4621
20
-4.27267
11
5.45211
21
-4.26844
0
LINE
8
BLACK
6
CONTINUOUS
10
5.45211
20
-4.26844
11
5.44282
21
-4.26285
0
LINE
8
BLACK
6
CONTINUOUS
10
5.44282
20
-4.26285
11
5.43441
21
-4.256
0
LINE
8
BLACK
6
CONTINUOUS
10
5.43441
20
-4.256
11
5.42705
21
-4.24804
0
LINE
8
BLACK
6
CONTINUOUS
10
5.42705
20
-4.24804
11
5.42089
21
-4.23912
0
LINE
8
BLACK
6
CONTINUOUS
10
5.42089
20
-4.23912
11
5.41604
21
-4.22942
0
LINE
8
BLACK
6
CONTINUOUS
10
5.41604
20
-4.22942
11
5.41261
21
-4.21913
0
LINE
8
BLACK
6
CONTINUOUS
10
5.41261
20
-4.21913
11
5.41066
21
-4.20846
0
LINE
8
BLACK
6
CONTINUOUS
10
5.41066
20
-4.20846
11
5.41023
21
-4.19763
0
LINE
8
BLACK
6
CONTINUOUS
10
5.41023
20
-4.19763
11
5.41134
21
-4.18684
0
LINE
8
BLACK
6
CONTINUOUS
10
5.41134
20
-4.18684
11
5.41395
21
-4.17632
0
LINE
8
BLACK
6
CONTINUOUS
10
5.41395
20
-4.17632
11
5.41803
21
-4.16626
0
LINE
8
BLACK
6
CONTINUOUS
10
5.41803
20
-4.16626
11
5.42347
21
-4.15689
0
LINE
8
BLACK
6
CONTINUOUS
10
5.42347
20
-4.15689
11
5.43019
21
-4.14837
0
LINE
8
BLACK
6
CONTINUOUS
10
5.43019
20
-4.14837
11
5.43803
21
-4.14089
0
LINE
8
BLACK
6
CONTINUOUS
10
5.43803
20
-4.14089
11
5.44686
21
-4.13458
0
LINE
8
BLACK
6
CONTINUOUS
10
5.44686
20
-4.13458
11
5.45648
21
-4.12958
0
LINE
8
BLACK
6
CONTINUOUS
10
5.45648
20
-4.12958
11
5.46671
21
-4.12599
0
LINE
8
BLACK
6
CONTINUOUS
10
5.46671
20
-4.12599
11
5.47735
21
-4.12387
0
LINE
8
BLACK
6
CONTINUOUS
10
5.47735
20
-4.12387
11
5.48817
21
-4.12328
0
LINE
8
BLACK
6
CONTINUOUS
10
5.48817
20
-4.12328
11
5.49898
21
-4.12421
0
LINE
8
BLACK
6
CONTINUOUS
10
6.54541
20
-4.11997
11
6.54797
21
-4.12168
0
LINE
8
BLACK
6
CONTINUOUS
10
6.54797
20
-4.12168
11
6.54968
21
-4.12423
0
LINE
8
BLACK
6
CONTINUOUS
10
6.54968
20
-4.12423
11
6.55028
21
-4.12724
0
LINE
8
BLACK
6
CONTINUOUS
10
6.55028
20
-4.12724
11
6.55028
21
-4.18724
0
LINE
8
BLACK
6
CONTINUOUS
10
6.55028
20
-4.18724
11
6.54968
21
-4.19026
0
LINE
8
BLACK
6
CONTINUOUS
10
6.54968
20
-4.19026
11
6.54797
21
-4.19281
0
LINE
8
BLACK
6
CONTINUOUS
10
6.54797
20
-4.19281
11
6.54541
21
-4.19452
0
LINE
8
BLACK
6
CONTINUOUS
10
6.54541
20
-4.19452
11
6.5424
21
-4.19512
0
LINE
8
BLACK
6
CONTINUOUS
10
6.5424
20
-4.19512
11
6.4824
21
-4.19512
0
LINE
8
BLACK
6
CONTINUOUS
10
6.4824
20
-4.19512
11
6.47939
21
-4.19452
0
LINE
8
BLACK
6
CONTINUOUS
10
6.47939
20
-4.19452
11
6.47683
21
-4.19281
0
LINE
8
BLACK
6
CONTINUOUS
10
6.47683
20
-4.19281
11
6.47513
21
-4.19026
0
LINE
8
BLACK
6
CONTINUOUS
10
6.47513
20
-4.19026
11
6.47453
21
-4.18724
0
LINE
8
BLACK
6
CONTINUOUS
10
6.47453
20
-4.18724
11
6.47453
21
-4.12724
0
LINE
8
BLACK
6
CONTINUOUS
10
6.47453
20
-4.12724
11
6.47513
21
-4.12423
0
LINE
8
BLACK
6
CONTINUOUS
10
6.47513
20
-4.12423
11
6.47683
21
-4.12168
0
LINE
8
BLACK
6
CONTINUOUS
10
6.47683
20
-4.12168
11
6.47939
21
-4.11997
0
LINE
8
BLACK
6
CONTINUOUS
10
6.47939
20
-4.11997
11
6.4824
21
-4.11937
0
LINE
8
BLACK
6
CONTINUOUS
10
6.4824
20
-4.11937
11
6.5424
21
-4.11937
0
LINE
8
BLACK
6
CONTINUOUS
10
6.5424
20
-4.11937
11
6.54541
21
-4.11997
0
LINE
8
BLACK
6
CONTINUOUS
10
6.44541
20
-4.11997
11
6.44797
21
-4.12168
0
LINE
8
BLACK
6
CONTINUOUS
10
6.44797
20
-4.12168
11
6.44968
21
-4.12423
0
LINE
8
BLACK
6
CONTINUOUS
10
6.44968
20
-4.12423
11
6.45028
21
-4.12724
0
LINE
8
BLACK
6
CONTINUOUS
10
6.45028
20
-4.12724
11
6.45028
21
-4.18724
0
LINE
8
BLACK
6
CONTINUOUS
10
6.45028
20
-4.18724
11
6.44968
21
-4.19026
0
LINE
8
BLACK
6
CONTINUOUS
10
6.44968
20
-4.19026
11
6.44797
21
-4.19281
0
LINE
8
BLACK
6
CONTINUOUS
10
6.44797
20
-4.19281
11
6.44541
21
-4.19452
0
LINE
8
BLACK
6
CONTINUOUS
10
6.44541
20
-4.19452
11
6.4424
21
-4.19512
0
LINE
8
BLACK
6
CONTINUOUS
10
6.4424
20
-4.19512
11
6.3824
21
-4.19512
0
LINE
8
BLACK
6
CONTINUOUS
10
6.3824
20
-4.19512
11
6.37939
21
-4.19452
0
LINE
8
BLACK
6
CONTINUOUS
10
6.37939
20
-4.19452
11
6.37683
21
-4.19281
0
LINE
8
BLACK
6
CONTINUOUS
10
6.37683
20
-4.19281
11
6.37513
21
-4.19026
0
LINE
8
BLACK
6
CONTINUOUS
10
6.37513
20
-4.19026
11
6.37453
21
-4.18724
0
LINE
8
BLACK
6
CONTINUOUS
10
6.37453
20
-4.18724
11
6.37453
21
-4.12724
0
LINE
8
BLACK
6
CONTINUOUS
10
6.37453
20
-4.12724
11
6.37513
21
-4.12423
0
LINE
8
BLACK
6
CONTINUOUS
10
6.37513
20
-4.12423
11
6.37683
21
-4.12168
0
LINE
8
BLACK
6
CONTINUOUS
10
6.37683
20
-4.12168
11
6.37939
21
-4.11997
0
LINE
8
BLACK
6
CONTINUOUS
10
6.37939
20
-4.11997
11
6.3824
21
-4.11937
0
LINE
8
BLACK
6
CONTINUOUS
10
6.3824
20
-4.11937
11
6.4424
21
-4.11937
0
LINE
8
BLACK
6
CONTINUOUS
10
6.4424
20
-4.11937
11
6.44541
21
-4.11997
0
LINE
8
BLACK
6
CONTINUOUS
10
6.21766
20
-4.06477
11
6.2187
21
-4.06478
0
LINE
8
BLACK
6
CONTINUOUS
10
6.2187
20
-4.06478
11
6.22421
21
-4.06564
0
LINE
8
BLACK
6
CONTINUOUS
10
6.22421
20
-4.06564
11
6.22635
21
-4.06629
0
LINE
8
BLACK
6
CONTINUOUS
10
6.22635
20
-4.06629
11
6.2314
21
-4.06866
0
LINE
8
BLACK
6
CONTINUOUS
10
6.2314
20
-4.06866
11
6.23326
21
-4.06989
0
LINE
8
BLACK
6
CONTINUOUS
10
6.23326
20
-4.06989
11
6.23745
21
-4.07358
0
LINE
8
BLACK
6
CONTINUOUS
10
6.23745
20
-4.07358
11
6.23889
21
-4.07528
0
LINE
8
BLACK
6
CONTINUOUS
10
6.23889
20
-4.07528
11
6.24187
21
-4.08
0
LINE
8
BLACK
6
CONTINUOUS
10
6.24187
20
-4.08
11
6.24278
21
-4.08204
0
LINE
8
BLACK
6
CONTINUOUS
10
6.24278
20
-4.08204
11
6.24432
21
-4.08741
0
LINE
8
BLACK
6
CONTINUOUS
10
6.24432
20
-4.08741
11
6.24462
21
-4.08962
0
LINE
8
BLACK
6
CONTINUOUS
10
6.24462
20
-4.08962
11
6.24461
21
-4.09128
0
LINE
8
BLACK
6
CONTINUOUS
10
6.24461
20
-4.09128
11
6.2448
21
-4.09224
0
LINE
8
BLACK
6
CONTINUOUS
10
6.2448
20
-4.09224
11
6.2448
21
-4.11193
0
LINE
8
BLACK
6
CONTINUOUS
10
6.2448
20
-4.11193
11
6.2442
21
-4.11494
0
LINE
8
BLACK
6
CONTINUOUS
10
6.2442
20
-4.11494
11
6.2425
21
-4.1175
0
LINE
8
BLACK
6
CONTINUOUS
10
6.2425
20
-4.1175
11
6.24199
21
-4.11783
0
LINE
8
BLACK
6
CONTINUOUS
10
6.24199
20
-4.11783
11
6.2425
21
-4.11817
0
LINE
8
BLACK
6
CONTINUOUS
10
6.2425
20
-4.11817
11
6.2442
21
-4.12073
0
LINE
8
BLACK
6
CONTINUOUS
10
6.2442
20
-4.12073
11
6.2448
21
-4.12374
0
LINE
8
BLACK
6
CONTINUOUS
10
6.2448
20
-4.12374
11
6.2448
21
-4.14343
0
LINE
8
BLACK
6
CONTINUOUS
10
6.2448
20
-4.14343
11
6.2446
21
-4.14445
0
LINE
8
BLACK
6
CONTINUOUS
10
6.2446
20
-4.14445
11
6.24459
21
-4.14638
0
LINE
8
BLACK
6
CONTINUOUS
10
6.24459
20
-4.14638
11
6.24426
21
-4.14859
0
LINE
8
BLACK
6
CONTINUOUS
10
6.24426
20
-4.14859
11
6.24266
21
-4.15394
0
LINE
8
BLACK
6
CONTINUOUS
10
6.24266
20
-4.15394
11
6.24172
21
-4.15596
0
LINE
8
BLACK
6
CONTINUOUS
10
6.24172
20
-4.15596
11
6.23869
21
-4.16065
0
LINE
8
BLACK
6
CONTINUOUS
10
6.23869
20
-4.16065
11
6.23722
21
-4.16233
0
LINE
8
BLACK
6
CONTINUOUS
10
6.23722
20
-4.16233
11
6.23299
21
-4.16597
0
LINE
8
BLACK
6
CONTINUOUS
10
6.23299
20
-4.16597
11
6.23111
21
-4.16718
0
LINE
8
BLACK
6
CONTINUOUS
10
6.23111
20
-4.16718
11
6.22603
21
-4.16949
0
LINE
8
BLACK
6
CONTINUOUS
10
6.22603
20
-4.16949
11
6.22389
21
-4.17011
0
LINE
8
BLACK
6
CONTINUOUS
10
6.22389
20
-4.17011
11
6.21836
21
-4.1709
0
LINE
8
BLACK
6
CONTINUOUS
10
6.21836
20
-4.1709
11
6.21724
21
-4.17098
0
LINE
8
BLACK
6
CONTINUOUS
10
6.21724
20
-4.17098
11
6.19756
21
-4.17098
0
LINE
8
BLACK
6
CONTINUOUS
10
6.19756
20
-4.17098
11
6.19746
21
-4.17098
0
LINE
8
BLACK
6
CONTINUOUS
10
6.19746
20
-4.17098
11
6.19698
21
-4.17098
0
LINE
8
BLACK
6
CONTINUOUS
10
6.19698
20
-4.17098
11
6.19577
21
-4.17087
0
LINE
8
BLACK
6
CONTINUOUS
10
6.19577
20
-4.17087
11
6.19027
21
-4.16994
0
LINE
8
BLACK
6
CONTINUOUS
10
6.19027
20
-4.16994
11
6.18814
21
-4.16926
0
LINE
8
BLACK
6
CONTINUOUS
10
6.18814
20
-4.16926
11
6.18312
21
-4.16683
0
LINE
8
BLACK
6
CONTINUOUS
10
6.18312
20
-4.16683
11
6.18127
21
-4.16558
0
LINE
8
BLACK
6
CONTINUOUS
10
6.18127
20
-4.16558
11
6.17713
21
-4.16184
0
LINE
8
BLACK
6
CONTINUOUS
10
6.17713
20
-4.16184
11
6.1757
21
-4.16012
0
LINE
8
BLACK
6
CONTINUOUS
10
6.1757
20
-4.16012
11
6.17278
21
-4.15536
0
LINE
8
BLACK
6
CONTINUOUS
10
6.17278
20
-4.15536
11
6.1719
21
-4.15331
0
LINE
8
BLACK
6
CONTINUOUS
10
6.1719
20
-4.15331
11
6.17043
21
-4.14793
0
LINE
8
BLACK
6
CONTINUOUS
10
6.17043
20
-4.14793
11
6.17015
21
-4.14571
0
LINE
8
BLACK
6
CONTINUOUS
10
6.17015
20
-4.14571
11
6.17018
21
-4.14432
0
LINE
8
BLACK
6
CONTINUOUS
10
6.17018
20
-4.14432
11
6.17
21
-4.14343
0
LINE
8
BLACK
6
CONTINUOUS
10
6.17
20
-4.14343
11
6.17
21
-4.12374
0
LINE
8
BLACK
6
CONTINUOUS
10
6.17
20
-4.12374
11
6.1706
21
-4.12073
0
LINE
8
BLACK
6
CONTINUOUS
10
6.1706
20
-4.12073
11
6.17231
21
-4.11817
0
LINE
8
BLACK
6
CONTINUOUS
10
6.17231
20
-4.11817
11
6.17281
21
-4.11783
0
LINE
8
BLACK
6
CONTINUOUS
10
6.17281
20
-4.11783
11
6.17231
21
-4.1175
0
LINE
8
BLACK
6
CONTINUOUS
10
6.17231
20
-4.1175
11
6.1706
21
-4.11494
0
LINE
8
BLACK
6
CONTINUOUS
10
6.1706
20
-4.11494
11
6.17
21
-4.11193
0
LINE
8
BLACK
6
CONTINUOUS
10
6.17
20
-4.11193
11
6.17
21
-4.09224
0
LINE
8
BLACK
6
CONTINUOUS
10
6.17
20
-4.09224
11
6.17021
21
-4.09117
0
LINE
8
BLACK
6
CONTINUOUS
10
6.17021
20
-4.09117
11
6.17025
21
-4.08895
0
LINE
8
BLACK
6
CONTINUOUS
10
6.17025
20
-4.08895
11
6.17061
21
-4.08675
0
LINE
8
BLACK
6
CONTINUOUS
10
6.17061
20
-4.08675
11
6.17228
21
-4.08142
0
LINE
8
BLACK
6
CONTINUOUS
10
6.17228
20
-4.08142
11
6.17324
21
-4.07941
0
LINE
8
BLACK
6
CONTINUOUS
10
6.17324
20
-4.07941
11
6.17633
21
-4.07476
0
LINE
8
BLACK
6
CONTINUOUS
10
6.17633
20
-4.07476
11
6.17782
21
-4.0731
0
LINE
8
BLACK
6
CONTINUOUS
10
6.17782
20
-4.0731
11
6.18209
21
-4.0695
0
LINE
8
BLACK
6
CONTINUOUS
10
6.18209
20
-4.0695
11
6.18399
21
-4.06832
0
LINE
8
BLACK
6
CONTINUOUS
10
6.18399
20
-4.06832
11
6.18909
21
-4.06608
0
LINE
8
BLACK
6
CONTINUOUS
10
6.18909
20
-4.06608
11
6.19124
21
-4.06548
0
LINE
8
BLACK
6
CONTINUOUS
10
6.19124
20
-4.06548
11
6.19654
21
-4.06478
0
LINE
8
BLACK
6
CONTINUOUS
10
6.19654
20
-4.06478
11
6.19655
21
-4.06489
0
LINE
8
BLACK
6
CONTINUOUS
10
6.19655
20
-4.06489
11
6.19756
21
-4.06469
0
LINE
8
BLACK
6
CONTINUOUS
10
6.19756
20
-4.06469
11
6.21724
21
-4.06469
0
LINE
8
BLACK
6
CONTINUOUS
10
6.21724
20
-4.06469
11
6.21766
21
-4.06477
0
LINE
8
BLACK
6
CONTINUOUS
10
5.36463
20
-4.03954
11
5.36718
21
-4.04124
0
LINE
8
BLACK
6
CONTINUOUS
10
5.36718
20
-4.04124
11
5.36889
21
-4.0438
0
LINE
8
BLACK
6
CONTINUOUS
10
5.36889
20
-4.0438
11
5.36949
21
-4.04681
0
LINE
8
BLACK
6
CONTINUOUS
10
5.36949
20
-4.04681
11
5.36949
21
-4.11768
0
LINE
8
BLACK
6
CONTINUOUS
10
5.36949
20
-4.11768
11
5.36889
21
-4.12069
0
LINE
8
BLACK
6
CONTINUOUS
10
5.36889
20
-4.12069
11
5.36718
21
-4.12324
0
LINE
8
BLACK
6
CONTINUOUS
10
5.36718
20
-4.12324
11
5.36463
21
-4.12495
0
LINE
8
BLACK
6
CONTINUOUS
10
5.36463
20
-4.12495
11
5.36161
21
-4.12555
0
LINE
8
BLACK
6
CONTINUOUS
10
5.36161
20
-4.12555
11
5.26319
21
-4.12555
0
LINE
8
BLACK
6
CONTINUOUS
10
5.26319
20
-4.12555
11
5.26018
21
-4.12495
0
LINE
8
BLACK
6
CONTINUOUS
10
5.26018
20
-4.12495
11
5.25762
21
-4.12324
0
LINE
8
BLACK
6
CONTINUOUS
10
5.25762
20
-4.12324
11
5.25591
21
-4.12069
0
LINE
8
BLACK
6
CONTINUOUS
10
5.25591
20
-4.12069
11
5.25531
21
-4.11768
0
LINE
8
BLACK
6
CONTINUOUS
10
5.25531
20
-4.11768
11
5.25531
21
-4.04681
0
LINE
8
BLACK
6
CONTINUOUS
10
5.25531
20
-4.04681
11
5.25591
21
-4.0438
0
LINE
8
BLACK
6
CONTINUOUS
10
5.25591
20
-4.0438
11
5.25762
21
-4.04124
0
LINE
8
BLACK
6
CONTINUOUS
10
5.25762
20
-4.04124
11
5.26018
21
-4.03954
0
LINE
8
BLACK
6
CONTINUOUS
10
5.26018
20
-4.03954
11
5.26319
21
-4.03894
0
LINE
8
BLACK
6
CONTINUOUS
10
5.26319
20
-4.03894
11
5.36161
21
-4.03894
0
LINE
8
BLACK
6
CONTINUOUS
10
5.36161
20
-4.03894
11
5.36463
21
-4.03954
0
LINE
8
BLACK
6
CONTINUOUS
10
5.20715
20
-4.03954
11
5.2097
21
-4.04124
0
LINE
8
BLACK
6
CONTINUOUS
10
5.2097
20
-4.04124
11
5.21141
21
-4.0438
0
LINE
8
BLACK
6
CONTINUOUS
10
5.21141
20
-4.0438
11
5.21201
21
-4.04681
0
LINE
8
BLACK
6
CONTINUOUS
10
5.21201
20
-4.04681
11
5.21201
21
-4.11768
0
LINE
8
BLACK
6
CONTINUOUS
10
5.21201
20
-4.11768
11
5.21141
21
-4.12069
0
LINE
8
BLACK
6
CONTINUOUS
10
5.21141
20
-4.12069
11
5.2097
21
-4.12324
0
LINE
8
BLACK
6
CONTINUOUS
10
5.2097
20
-4.12324
11
5.20715
21
-4.12495
0
LINE
8
BLACK
6
CONTINUOUS
10
5.20715
20
-4.12495
11
5.20413
21
-4.12555
0
LINE
8
BLACK
6
CONTINUOUS
10
5.20413
20
-4.12555
11
5.10571
21
-4.12555
0
LINE
8
BLACK
6
CONTINUOUS
10
5.10571
20
-4.12555
11
5.1027
21
-4.12495
0
LINE
8
BLACK
6
CONTINUOUS
10
5.1027
20
-4.12495
11
5.10014
21
-4.12324
0
LINE
8
BLACK
6
CONTINUOUS
10
5.10014
20
-4.12324
11
5.09843
21
-4.12069
0
LINE
8
BLACK
6
CONTINUOUS
10
5.09843
20
-4.12069
11
5.09783
21
-4.11768
0
LINE
8
BLACK
6
CONTINUOUS
10
5.09783
20
-4.11768
11
5.09783
21
-4.04681
0
LINE
8
BLACK
6
CONTINUOUS
10
5.09783
20
-4.04681
11
5.09843
21
-4.0438
0
LINE
8
BLACK
6
CONTINUOUS
10
5.09843
20
-4.0438
11
5.10014
21
-4.04124
0
LINE
8
BLACK
6
CONTINUOUS
10
5.10014
20
-4.04124
11
5.1027
21
-4.03954
0
LINE
8
BLACK
6
CONTINUOUS
10
5.1027
20
-4.03954
11
5.10571
21
-4.03894
0
LINE
8
BLACK
6
CONTINUOUS
10
5.10571
20
-4.03894
11
5.20413
21
-4.03894
0
LINE
8
BLACK
6
CONTINUOUS
10
5.20413
20
-4.03894
11
5.20715
21
-4.03954
0
LINE
8
BLACK
6
CONTINUOUS
10
6.54541
20
-4.01997
11
6.54797
21
-4.02168
0
LINE
8
BLACK
6
CONTINUOUS
10
6.54797
20
-4.02168
11
6.54968
21
-4.02423
0
LINE
8
BLACK
6
CONTINUOUS
10
6.54968
20
-4.02423
11
6.55028
21
-4.02724
0
LINE
8
BLACK
6
CONTINUOUS
10
6.55028
20
-4.02724
11
6.55028
21
-4.08724
0
LINE
8
BLACK
6
CONTINUOUS
10
6.55028
20
-4.08724
11
6.54968
21
-4.09026
0
LINE
8
BLACK
6
CONTINUOUS
10
6.54968
20
-4.09026
11
6.54797
21
-4.09281
0
LINE
8
BLACK
6
CONTINUOUS
10
6.54797
20
-4.09281
11
6.54541
21
-4.09452
0
LINE
8
BLACK
6
CONTINUOUS
10
6.54541
20
-4.09452
11
6.5424
21
-4.09512
0
LINE
8
BLACK
6
CONTINUOUS
10
6.5424
20
-4.09512
11
6.4824
21
-4.09512
0
LINE
8
BLACK
6
CONTINUOUS
10
6.4824
20
-4.09512
11
6.47939
21
-4.09452
0
LINE
8
BLACK
6
CONTINUOUS
10
6.47939
20
-4.09452
11
6.47683
21
-4.09281
0
LINE
8
BLACK
6
CONTINUOUS
10
6.47683
20
-4.09281
11
6.47513
21
-4.09026
0
LINE
8
BLACK
6
CONTINUOUS
10
6.47513
20
-4.09026
11
6.47453
21
-4.08724
0
LINE
8
BLACK
6
CONTINUOUS
10
6.47453
20
-4.08724
11
6.47453
21
-4.02724
0
LINE
8
BLACK
6
CONTINUOUS
10
6.47453
20
-4.02724
11
6.47513
21
-4.02423
0
LINE
8
BLACK
6
CONTINUOUS
10
6.47513
20
-4.02423
11
6.47683
21
-4.02168
0
LINE
8
BLACK
6
CONTINUOUS
10
6.47683
20
-4.02168
11
6.47939
21
-4.01997
0
LINE
8
BLACK
6
CONTINUOUS
10
6.47939
20
-4.01997
11
6.4824
21
-4.01937
0
LINE
8
BLACK
6
CONTINUOUS
10
6.4824
20
-4.01937
11
6.5424
21
-4.01937
0
LINE
8
BLACK
6
CONTINUOUS
10
6.5424
20
-4.01937
11
6.54541
21
-4.01997
0
LINE
8
BLACK
6
CONTINUOUS
10
6.44541
20
-4.01997
11
6.44797
21
-4.02168
0
LINE
8
BLACK
6
CONTINUOUS
10
6.44797
20
-4.02168
11
6.44968
21
-4.02423
0
LINE
8
BLACK
6
CONTINUOUS
10
6.44968
20
-4.02423
11
6.45028
21
-4.02724
0
LINE
8
BLACK
6
CONTINUOUS
10
6.45028
20
-4.02724
11
6.45028
21
-4.08724
0
LINE
8
BLACK
6
CONTINUOUS
10
6.45028
20
-4.08724
11
6.44968
21
-4.09026
0
LINE
8
BLACK
6
CONTINUOUS
10
6.44968
20
-4.09026
11
6.44797
21
-4.09281
0
LINE
8
BLACK
6
CONTINUOUS
10
6.44797
20
-4.09281
11
6.44541
21
-4.09452
0
LINE
8
BLACK
6
CONTINUOUS
10
6.44541
20
-4.09452
11
6.4424
21
-4.09512
0
LINE
8
BLACK
6
CONTINUOUS
10
6.4424
20
-4.09512
11
6.3824
21
-4.09512
0
LINE
8
BLACK
6
CONTINUOUS
10
6.3824
20
-4.09512
11
6.37939
21
-4.09452
0
LINE
8
BLACK
6
CONTINUOUS
10
6.37939
20
-4.09452
11
6.37683
21
-4.09281
0
LINE
8
BLACK
6
CONTINUOUS
10
6.37683
20
-4.09281
11
6.37513
21
-4.09026
0
LINE
8
BLACK
6
CONTINUOUS
10
6.37513
20
-4.09026
11
6.37453
21
-4.08724
0
LINE
8
BLACK
6
CONTINUOUS
10
6.37453
20
-4.08724
11
6.37453
21
-4.02724
0
LINE
8
BLACK
6
CONTINUOUS
10
6.37453
20
-4.02724
11
6.37513
21
-4.02423
0
LINE
8
BLACK
6
CONTINUOUS
10
6.37513
20
-4.02423
11
6.37683
21
-4.02168
0
LINE
8
BLACK
6
CONTINUOUS
10
6.37683
20
-4.02168
11
6.37939
21
-4.01997
0
LINE
8
BLACK
6
CONTINUOUS
10
6.37939
20
-4.01997
11
6.3824
21
-4.01937
0
LINE
8
BLACK
6
CONTINUOUS
10
6.3824
20
-4.01937
11
6.4424
21
-4.01937
0
LINE
8
BLACK
6
CONTINUOUS
10
6.4424
20
-4.01937
11
6.44541
21
-4.01997
0
LINE
8
BLACK
6
CONTINUOUS
10
5.70888
20
-3.9715
11
5.71143
21
-3.97321
0
LINE
8
BLACK
6
CONTINUOUS
10
5.71143
20
-3.97321
11
5.71314
21
-3.97577
0
LINE
8
BLACK
6
CONTINUOUS
10
5.71314
20
-3.97577
11
5.71374
21
-3.97878
0
LINE
8
BLACK
6
CONTINUOUS
10
5.71374
20
-3.97878
11
5.71374
21
-4.04571
0
LINE
8
BLACK
6
CONTINUOUS
10
5.71374
20
-4.04571
11
5.71314
21
-4.04872
0
LINE
8
BLACK
6
CONTINUOUS
10
5.71314
20
-4.04872
11
5.71143
21
-4.05128
0
LINE
8
BLACK
6
CONTINUOUS
10
5.71143
20
-4.05128
11
5.70888
21
-4.05298
0
LINE
8
BLACK
6
CONTINUOUS
10
5.70888
20
-4.05298
11
5.70587
21
-4.05358
0
LINE
8
BLACK
6
CONTINUOUS
10
5.70587
20
-4.05358
11
5.63894
21
-4.05358
0
LINE
8
BLACK
6
CONTINUOUS
10
5.63894
20
-4.05358
11
5.63592
21
-4.05298
0
LINE
8
BLACK
6
CONTINUOUS
10
5.63592
20
-4.05298
11
5.63337
21
-4.05128
0
LINE
8
BLACK
6
CONTINUOUS
10
5.63337
20
-4.05128
11
5.63166
21
-4.04872
0
LINE
8
BLACK
6
CONTINUOUS
10
5.63166
20
-4.04872
11
5.63106
21
-4.04571
0
LINE
8
BLACK
6
CONTINUOUS
10
5.63106
20
-4.04571
11
5.63106
21
-4.0297
0
LINE
8
BLACK
6
CONTINUOUS
10
5.63106
20
-4.0297
11
5.62744
21
-4.03607
0
LINE
8
BLACK
6
CONTINUOUS
10
5.62744
20
-4.03607
11
5.62217
21
-4.04218
0
LINE
8
BLACK
6
CONTINUOUS
10
5.62217
20
-4.04218
11
5.61581
21
-4.04715
0
LINE
8
BLACK
6
CONTINUOUS
10
5.61581
20
-4.04715
11
5.60861
21
-4.05079
0
LINE
8
BLACK
6
CONTINUOUS
10
5.60861
20
-4.05079
11
5.60084
21
-4.05295
0
LINE
8
BLACK
6
CONTINUOUS
10
5.60084
20
-4.05295
11
5.5928
21
-4.05357
0
LINE
8
BLACK
6
CONTINUOUS
10
5.5928
20
-4.05357
11
5.58478
21
-4.05262
0
LINE
8
BLACK
6
CONTINUOUS
10
5.58478
20
-4.05262
11
5.57711
21
-4.05013
0
LINE
8
BLACK
6
CONTINUOUS
10
5.57711
20
-4.05013
11
5.57007
21
-4.04619
0
LINE
8
BLACK
6
CONTINUOUS
10
5.57007
20
-4.04619
11
5.56392
21
-4.04096
0
LINE
8
BLACK
6
CONTINUOUS
10
5.56392
20
-4.04096
11
5.55891
21
-4.03464
0
LINE
8
BLACK
6
CONTINUOUS
10
5.55891
20
-4.03464
11
5.55523
21
-4.02746
0
LINE
8
BLACK
6
CONTINUOUS
10
5.55523
20
-4.02746
11
5.553
21
-4.01971
0
LINE
8
BLACK
6
CONTINUOUS
10
5.553
20
-4.01971
11
5.55233
21
-4.01167
0
LINE
8
BLACK
6
CONTINUOUS
10
5.55233
20
-4.01167
11
5.55323
21
-4.00365
0
LINE
8
BLACK
6
CONTINUOUS
10
5.55323
20
-4.00365
11
5.55567
21
-3.99596
0
LINE
8
BLACK
6
CONTINUOUS
10
5.55567
20
-3.99596
11
5.55955
21
-3.98889
0
LINE
8
BLACK
6
CONTINUOUS
10
5.55955
20
-3.98889
11
5.56474
21
-3.98271
0
LINE
8
BLACK
6
CONTINUOUS
10
5.56474
20
-3.98271
11
5.57103
21
-3.97765
0
LINE
8
BLACK
6
CONTINUOUS
10
5.57103
20
-3.97765
11
5.57818
21
-3.97392
0
LINE
8
BLACK
6
CONTINUOUS
10
5.57818
20
-3.97392
11
5.58592
21
-3.97164
0
LINE
8
BLACK
6
CONTINUOUS
10
5.58592
20
-3.97164
11
5.59395
21
-3.97091
0
LINE
8
BLACK
6
CONTINUOUS
10
5.59395
20
-3.97091
11
5.60197
21
-3.97175
0
LINE
8
BLACK
6
CONTINUOUS
10
5.60197
20
-3.97175
11
5.60968
21
-3.97414
0
LINE
8
BLACK
6
CONTINUOUS
10
5.60968
20
-3.97414
11
5.61678
21
-3.97797
0
LINE
8
BLACK
6
CONTINUOUS
10
5.61678
20
-3.97797
11
5.62299
21
-3.98312
0
LINE
8
BLACK
6
CONTINUOUS
10
5.62299
20
-3.98312
11
5.62809
21
-3.98937
0
LINE
8
BLACK
6
CONTINUOUS
10
5.62809
20
-3.98937
11
5.63106
21
-3.99495
0
LINE
8
BLACK
6
CONTINUOUS
10
5.63106
20
-3.99495
11
5.63106
21
-3.97878
0
LINE
8
BLACK
6
CONTINUOUS
10
5.63106
20
-3.97878
11
5.63166
21
-3.97577
0
LINE
8
BLACK
6
CONTINUOUS
10
5.63166
20
-3.97577
11
5.63337
21
-3.97321
0
LINE
8
BLACK
6
CONTINUOUS
10
5.63337
20
-3.97321
11
5.63592
21
-3.9715
0
LINE
8
BLACK
6
CONTINUOUS
10
5.63592
20
-3.9715
11
5.63894
21
-3.97091
0
LINE
8
BLACK
6
CONTINUOUS
10
5.63894
20
-3.97091
11
5.70587
21
-3.97091
0
LINE
8
BLACK
6
CONTINUOUS
10
5.70587
20
-3.97091
11
5.70888
21
-3.9715
0
LINE
8
BLACK
6
CONTINUOUS
10
6.22541
20
-3.96747
11
6.22797
21
-3.96918
0
LINE
8
BLACK
6
CONTINUOUS
10
6.22797
20
-3.96918
11
6.22968
21
-3.97173
0
LINE
8
BLACK
6
CONTINUOUS
10
6.22968
20
-3.97173
11
6.23028
21
-3.97474
0
LINE
8
BLACK
6
CONTINUOUS
10
6.23028
20
-3.97474
11
6.23028
21
-4.02974
0
LINE
8
BLACK
6
CONTINUOUS
10
6.23028
20
-4.02974
11
6.22968
21
-4.03276
0
LINE
8
BLACK
6
CONTINUOUS
10
6.22968
20
-4.03276
11
6.22797
21
-4.03531
0
LINE
8
BLACK
6
CONTINUOUS
10
6.22797
20
-4.03531
11
6.22541
21
-4.03702
0
LINE
8
BLACK
6
CONTINUOUS
10
6.22541
20
-4.03702
11
6.2224
21
-4.03762
0
LINE
8
BLACK
6
CONTINUOUS
10
6.2224
20
-4.03762
11
6.1874
21
-4.03762
0
LINE
8
BLACK
6
CONTINUOUS
10
6.1874
20
-4.03762
11
6.18439
21
-4.03702
0
LINE
8
BLACK
6
CONTINUOUS
10
6.18439
20
-4.03702
11
6.18183
21
-4.03531
0
LINE
8
BLACK
6
CONTINUOUS
10
6.18183
20
-4.03531
11
6.18013
21
-4.03276
0
LINE
8
BLACK
6
CONTINUOUS
10
6.18013
20
-4.03276
11
6.17953
21
-4.02974
0
LINE
8
BLACK
6
CONTINUOUS
10
6.17953
20
-4.02974
11
6.17953
21
-3.97474
0
LINE
8
BLACK
6
CONTINUOUS
10
6.17953
20
-3.97474
11
6.18013
21
-3.97173
0
LINE
8
BLACK
6
CONTINUOUS
10
6.18013
20
-3.97173
11
6.18183
21
-3.96918
0
LINE
8
BLACK
6
CONTINUOUS
10
6.18183
20
-3.96918
11
6.18439
21
-3.96747
0
LINE
8
BLACK
6
CONTINUOUS
10
6.18439
20
-3.96747
11
6.1874
21
-3.96687
0
LINE
8
BLACK
6
CONTINUOUS
10
6.1874
20
-3.96687
11
6.2224
21
-3.96687
0
LINE
8
BLACK
6
CONTINUOUS
10
6.2224
20
-3.96687
11
6.22541
21
-3.96747
0
LINE
8
BLACK
6
CONTINUOUS
10
6.30041
20
-3.96747
11
6.30297
21
-3.96918
0
LINE
8
BLACK
6
CONTINUOUS
10
6.30297
20
-3.96918
11
6.30468
21
-3.97173
0
LINE
8
BLACK
6
CONTINUOUS
10
6.30468
20
-3.97173
11
6.30528
21
-3.97474
0
LINE
8
BLACK
6
CONTINUOUS
10
6.30528
20
-3.97474
11
6.30528
21
-4.02974
0
LINE
8
BLACK
6
CONTINUOUS
10
6.30528
20
-4.02974
11
6.30468
21
-4.03276
0
LINE
8
BLACK
6
CONTINUOUS
10
6.30468
20
-4.03276
11
6.30297
21
-4.03531
0
LINE
8
BLACK
6
CONTINUOUS
10
6.30297
20
-4.03531
11
6.30041
21
-4.03702
0
LINE
8
BLACK
6
CONTINUOUS
10
6.30041
20
-4.03702
11
6.2974
21
-4.03762
0
LINE
8
BLACK
6
CONTINUOUS
10
6.2974
20
-4.03762
11
6.2624
21
-4.03762
0
LINE
8
BLACK
6
CONTINUOUS
10
6.2624
20
-4.03762
11
6.25939
21
-4.03702
0
LINE
8
BLACK
6
CONTINUOUS
10
6.25939
20
-4.03702
11
6.25683
21
-4.03531
0
LINE
8
BLACK
6
CONTINUOUS
10
6.25683
20
-4.03531
11
6.25513
21
-4.03276
0
LINE
8
BLACK
6
CONTINUOUS
10
6.25513
20
-4.03276
11
6.25453
21
-4.02974
0
LINE
8
BLACK
6
CONTINUOUS
10
6.25453
20
-4.02974
11
6.25453
21
-3.97474
0
LINE
8
BLACK
6
CONTINUOUS
10
6.25453
20
-3.97474
11
6.25513
21
-3.97173
0
LINE
8
BLACK
6
CONTINUOUS
10
6.25513
20
-3.97173
11
6.25683
21
-3.96918
0
LINE
8
BLACK
6
CONTINUOUS
10
6.25683
20
-3.96918
11
6.25939
21
-3.96747
0
LINE
8
BLACK
6
CONTINUOUS
10
6.25939
20
-3.96747
11
6.2624
21
-3.96687
0
LINE
8
BLACK
6
CONTINUOUS
10
6.2624
20
-3.96687
11
6.2974
21
-3.96687
0
LINE
8
BLACK
6
CONTINUOUS
10
6.2974
20
-3.96687
11
6.30041
21
-3.96747
0
LINE
8
BLACK
6
CONTINUOUS
10
6.00445
20
-3.80764
11
6.0078
21
-3.80988
0
LINE
8
BLACK
6
CONTINUOUS
10
6.0078
20
-3.80988
11
6.00787
21
-3.80999
0
LINE
8
BLACK
6
CONTINUOUS
10
6.00787
20
-3.80999
11
6.00795
21
-3.80988
0
LINE
8
BLACK
6
CONTINUOUS
10
6.00795
20
-3.80988
11
6.0113
21
-3.80764
0
LINE
8
BLACK
6
CONTINUOUS
10
6.0113
20
-3.80764
11
6.01526
21
-3.80685
0
LINE
8
BLACK
6
CONTINUOUS
10
6.01526
20
-3.80685
11
6.02018
21
-3.80685
0
LINE
8
BLACK
6
CONTINUOUS
10
6.02018
20
-3.80685
11
6.02413
21
-3.80764
0
LINE
8
BLACK
6
CONTINUOUS
10
6.02413
20
-3.80764
11
6.02748
21
-3.80988
0
LINE
8
BLACK
6
CONTINUOUS
10
6.02748
20
-3.80988
11
6.02756
21
-3.80999
0
LINE
8
BLACK
6
CONTINUOUS
10
6.02756
20
-3.80999
11
6.02763
21
-3.80988
0
LINE
8
BLACK
6
CONTINUOUS
10
6.02763
20
-3.80988
11
6.03099
21
-3.80764
0
LINE
8
BLACK
6
CONTINUOUS
10
6.03099
20
-3.80764
11
6.03494
21
-3.80685
0
LINE
8
BLACK
6
CONTINUOUS
10
6.03494
20
-3.80685
11
6.03986
21
-3.80685
0
LINE
8
BLACK
6
CONTINUOUS
10
6.03986
20
-3.80685
11
6.04382
21
-3.80764
0
LINE
8
BLACK
6
CONTINUOUS
10
6.04382
20
-3.80764
11
6.04717
21
-3.80988
0
LINE
8
BLACK
6
CONTINUOUS
10
6.04717
20
-3.80988
11
6.04724
21
-3.80999
0
LINE
8
BLACK
6
CONTINUOUS
10
6.04724
20
-3.80999
11
6.04732
21
-3.80988
0
LINE
8
BLACK
6
CONTINUOUS
10
6.04732
20
-3.80988
11
6.05067
21
-3.80764
0
LINE
8
BLACK
6
CONTINUOUS
10
6.05067
20
-3.80764
11
6.05463
21
-3.80685
0
LINE
8
BLACK
6
CONTINUOUS
10
6.05463
20
-3.80685
11
6.05955
21
-3.80685
0
LINE
8
BLACK
6
CONTINUOUS
10
6.05955
20
-3.80685
11
6.0635
21
-3.80764
0
LINE
8
BLACK
6
CONTINUOUS
10
6.0635
20
-3.80764
11
6.06685
21
-3.80988
0
LINE
8
BLACK
6
CONTINUOUS
10
6.06685
20
-3.80988
11
6.06693
21
-3.80999
0
LINE
8
BLACK
6
CONTINUOUS
10
6.06693
20
-3.80999
11
6.067
21
-3.80988
0
LINE
8
BLACK
6
CONTINUOUS
10
6.067
20
-3.80988
11
6.07036
21
-3.80764
0
LINE
8
BLACK
6
CONTINUOUS
10
6.07036
20
-3.80764
11
6.07431
21
-3.80685
0
LINE
8
BLACK
6
CONTINUOUS
10
6.07431
20
-3.80685
11
6.07923
21
-3.80685
0
LINE
8
BLACK
6
CONTINUOUS
10
6.07923
20
-3.80685
11
6.08319
21
-3.80764
0
LINE
8
BLACK
6
CONTINUOUS
10
6.08319
20
-3.80764
11
6.08654
21
-3.80988
0
LINE
8
BLACK
6
CONTINUOUS
10
6.08654
20
-3.80988
11
6.08878
21
-3.81323
0
LINE
8
BLACK
6
CONTINUOUS
10
6.08878
20
-3.81323
11
6.08957
21
-3.81719
0
LINE
8
BLACK
6
CONTINUOUS
10
6.08957
20
-3.81719
11
6.08957
21
-3.84474
0
LINE
8
BLACK
6
CONTINUOUS
10
6.08957
20
-3.84474
11
6.08878
21
-3.8487
0
LINE
8
BLACK
6
CONTINUOUS
10
6.08878
20
-3.8487
11
6.08767
21
-3.85037
0
LINE
8
BLACK
6
CONTINUOUS
10
6.08767
20
-3.85037
11
6.08963
21
-3.85076
0
LINE
8
BLACK
6
CONTINUOUS
10
6.08963
20
-3.85076
11
6.09218
21
-3.85246
0
LINE
8
BLACK
6
CONTINUOUS
10
6.09218
20
-3.85246
11
6.09389
21
-3.85502
0
LINE
8
BLACK
6
CONTINUOUS
10
6.09389
20
-3.85502
11
6.09428
21
-3.85698
0
LINE
8
BLACK
6
CONTINUOUS
10
6.09428
20
-3.85698
11
6.09595
21
-3.85587
0
LINE
8
BLACK
6
CONTINUOUS
10
6.09595
20
-3.85587
11
6.0999
21
-3.85508
0
LINE
8
BLACK
6
CONTINUOUS
10
6.0999
20
-3.85508
11
6.12746
21
-3.85508
0
LINE
8
BLACK
6
CONTINUOUS
10
6.12746
20
-3.85508
11
6.13142
21
-3.85587
0
LINE
8
BLACK
6
CONTINUOUS
10
6.13142
20
-3.85587
11
6.13477
21
-3.85811
0
LINE
8
BLACK
6
CONTINUOUS
10
6.13477
20
-3.85811
11
6.13701
21
-3.86146
0
LINE
8
BLACK
6
CONTINUOUS
10
6.13701
20
-3.86146
11
6.1378
21
-3.86541
0
LINE
8
BLACK
6
CONTINUOUS
10
6.1378
20
-3.86541
11
6.1378
21
-3.87033
0
LINE
8
BLACK
6
CONTINUOUS
10
6.1378
20
-3.87033
11
6.13701
21
-3.87429
0
LINE
8
BLACK
6
CONTINUOUS
10
6.13701
20
-3.87429
11
6.13477
21
-3.87764
0
LINE
8
BLACK
6
CONTINUOUS
10
6.13477
20
-3.87764
11
6.13466
21
-3.87772
0
LINE
8
BLACK
6
CONTINUOUS
10
6.13466
20
-3.87772
11
6.13477
21
-3.87779
0
LINE
8
BLACK
6
CONTINUOUS
10
6.13477
20
-3.87779
11
6.13701
21
-3.88114
0
LINE
8
BLACK
6
CONTINUOUS
10
6.13701
20
-3.88114
11
6.1378
21
-3.8851
0
LINE
8
BLACK
6
CONTINUOUS
10
6.1378
20
-3.8851
11
6.1378
21
-3.89002
0
LINE
8
BLACK
6
CONTINUOUS
10
6.1378
20
-3.89002
11
6.13701
21
-3.89397
0
LINE
8
BLACK
6
CONTINUOUS
10
6.13701
20
-3.89397
11
6.13477
21
-3.89733
0
LINE
8
BLACK
6
CONTINUOUS
10
6.13477
20
-3.89733
11
6.13466
21
-3.8974
0
LINE
8
BLACK
6
CONTINUOUS
10
6.13466
20
-3.8974
11
6.13477
21
-3.89748
0
LINE
8
BLACK
6
CONTINUOUS
10
6.13477
20
-3.89748
11
6.13701
21
-3.90083
0
LINE
8
BLACK
6
CONTINUOUS
10
6.13701
20
-3.90083
11
6.1378
21
-3.90478
0
LINE
8
BLACK
6
CONTINUOUS
10
6.1378
20
-3.90478
11
6.1378
21
-3.9097
0
LINE
8
BLACK
6
CONTINUOUS
10
6.1378
20
-3.9097
11
6.13701
21
-3.91366
0
LINE
8
BLACK
6
CONTINUOUS
10
6.13701
20
-3.91366
11
6.13477
21
-3.91701
0
LINE
8
BLACK
6
CONTINUOUS
10
6.13477
20
-3.91701
11
6.13466
21
-3.91709
0
LINE
8
BLACK
6
CONTINUOUS
10
6.13466
20
-3.91709
11
6.13477
21
-3.91716
0
LINE
8
BLACK
6
CONTINUOUS
10
6.13477
20
-3.91716
11
6.13701
21
-3.92051
0
LINE
8
BLACK
6
CONTINUOUS
10
6.13701
20
-3.92051
11
6.1378
21
-3.92447
0
LINE
8
BLACK
6
CONTINUOUS
10
6.1378
20
-3.92447
11
6.1378
21
-3.92939
0
LINE
8
BLACK
6
CONTINUOUS
10
6.1378
20
-3.92939
11
6.13701
21
-3.93334
0
LINE
8
BLACK
6
CONTINUOUS
10
6.13701
20
-3.93334
11
6.13477
21
-3.9367
0
LINE
8
BLACK
6
CONTINUOUS
10
6.13477
20
-3.9367
11
6.13466
21
-3.93677
0
LINE
8
BLACK
6
CONTINUOUS
10
6.13466
20
-3.93677
11
6.13477
21
-3.93685
0
LINE
8
BLACK
6
CONTINUOUS
10
6.13477
20
-3.93685
11
6.13701
21
-3.9402
0
LINE
8
BLACK
6
CONTINUOUS
10
6.13701
20
-3.9402
11
6.1378
21
-3.94415
0
LINE
8
BLACK
6
CONTINUOUS
10
6.1378
20
-3.94415
11
6.1378
21
-3.94907
0
LINE
8
BLACK
6
CONTINUOUS
10
6.1378
20
-3.94907
11
6.13701
21
-3.95303
0
LINE
8
BLACK
6
CONTINUOUS
10
6.13701
20
-3.95303
11
6.13477
21
-3.95638
0
LINE
8
BLACK
6
CONTINUOUS
10
6.13477
20
-3.95638
11
6.13142
21
-3.95862
0
LINE
8
BLACK
6
CONTINUOUS
10
6.13142
20
-3.95862
11
6.12746
21
-3.95941
0
LINE
8
BLACK
6
CONTINUOUS
10
6.12746
20
-3.95941
11
6.0999
21
-3.95941
0
LINE
8
BLACK
6
CONTINUOUS
10
6.0999
20
-3.95941
11
6.09595
21
-3.95862
0
LINE
8
BLACK
6
CONTINUOUS
10
6.09595
20
-3.95862
11
6.09428
21
-3.95751
0
LINE
8
BLACK
6
CONTINUOUS
10
6.09428
20
-3.95751
11
6.09389
21
-3.95947
0
LINE
8
BLACK
6
CONTINUOUS
10
6.09389
20
-3.95947
11
6.09218
21
-3.96202
0
LINE
8
BLACK
6
CONTINUOUS
10
6.09218
20
-3.96202
11
6.08963
21
-3.96373
0
LINE
8
BLACK
6
CONTINUOUS
10
6.08963
20
-3.96373
11
6.08767
21
-3.96412
0
LINE
8
BLACK
6
CONTINUOUS
10
6.08767
20
-3.96412
11
6.08878
21
-3.96579
0
LINE
8
BLACK
6
CONTINUOUS
10
6.08878
20
-3.96579
11
6.08957
21
-3.96974
0
LINE
8
BLACK
6
CONTINUOUS
10
6.08957
20
-3.96974
11
6.08957
21
-3.9973
0
LINE
8
BLACK
6
CONTINUOUS
10
6.08957
20
-3.9973
11
6.08878
21
-4.00126
0
LINE
8
BLACK
6
CONTINUOUS
10
6.08878
20
-4.00126
11
6.08654
21
-4.00461
0
LINE
8
BLACK
6
CONTINUOUS
10
6.08654
20
-4.00461
11
6.08319
21
-4.00685
0
LINE
8
BLACK
6
CONTINUOUS
10
6.08319
20
-4.00685
11
6.07923
21
-4.00764
0
LINE
8
BLACK
6
CONTINUOUS
10
6.07923
20
-4.00764
11
6.07431
21
-4.00764
0
LINE
8
BLACK
6
CONTINUOUS
10
6.07431
20
-4.00764
11
6.07036
21
-4.00685
0
LINE
8
BLACK
6
CONTINUOUS
10
6.07036
20
-4.00685
11
6.067
21
-4.00461
0
LINE
8
BLACK
6
CONTINUOUS
10
6.067
20
-4.00461
11
6.06693
21
-4.0045
0
LINE
8
BLACK
6
CONTINUOUS
10
6.06693
20
-4.0045
11
6.06685
21
-4.00461
0
LINE
8
BLACK
6
CONTINUOUS
10
6.06685
20
-4.00461
11
6.0635
21
-4.00685
0
LINE
8
BLACK
6
CONTINUOUS
10
6.0635
20
-4.00685
11
6.05955
21
-4.00764
0
LINE
8
BLACK
6
CONTINUOUS
10
6.05955
20
-4.00764
11
6.05463
21
-4.00764
0
LINE
8
BLACK
6
CONTINUOUS
10
6.05463
20
-4.00764
11
6.05067
21
-4.00685
0
LINE
8
BLACK
6
CONTINUOUS
10
6.05067
20
-4.00685
11
6.04732
21
-4.00461
0
LINE
8
BLACK
6
CONTINUOUS
10
6.04732
20
-4.00461
11
6.04724
21
-4.0045
0
LINE
8
BLACK
6
CONTINUOUS
10
6.04724
20
-4.0045
11
6.04717
21
-4.00461
0
LINE
8
BLACK
6
CONTINUOUS
10
6.04717
20
-4.00461
11
6.04382
21
-4.00685
0
LINE
8
BLACK
6
CONTINUOUS
10
6.04382
20
-4.00685
11
6.03986
21
-4.00764
0
LINE
8
BLACK
6
CONTINUOUS
10
6.03986
20
-4.00764
11
6.03494
21
-4.00764
0
LINE
8
BLACK
6
CONTINUOUS
10
6.03494
20
-4.00764
11
6.03099
21
-4.00685
0
LINE
8
BLACK
6
CONTINUOUS
10
6.03099
20
-4.00685
11
6.02763
21
-4.00461
0
LINE
8
BLACK
6
CONTINUOUS
10
6.02763
20
-4.00461
11
6.02756
21
-4.0045
0
LINE
8
BLACK
6
CONTINUOUS
10
6.02756
20
-4.0045
11
6.02748
21
-4.00461
0
LINE
8
BLACK
6
CONTINUOUS
10
6.02748
20
-4.00461
11
6.02413
21
-4.00685
0
LINE
8
BLACK
6
CONTINUOUS
10
6.02413
20
-4.00685
11
6.02018
21
-4.00764
0
LINE
8
BLACK
6
CONTINUOUS
10
6.02018
20
-4.00764
11
6.01526
21
-4.00764
0
LINE
8
BLACK
6
CONTINUOUS
10
6.01526
20
-4.00764
11
6.0113
21
-4.00685
0
LINE
8
BLACK
6
CONTINUOUS
10
6.0113
20
-4.00685
11
6.00795
21
-4.00461
0
LINE
8
BLACK
6
CONTINUOUS
10
6.00795
20
-4.00461
11
6.00787
21
-4.0045
0
LINE
8
BLACK
6
CONTINUOUS
10
6.00787
20
-4.0045
11
6.0078
21
-4.00461
0
LINE
8
BLACK
6
CONTINUOUS
10
6.0078
20
-4.00461
11
6.00445
21
-4.00685
0
LINE
8
BLACK
6
CONTINUOUS
10
6.00445
20
-4.00685
11
6.00049
21
-4.00764
0
LINE
8
BLACK
6
CONTINUOUS
10
6.00049
20
-4.00764
11
5.99557
21
-4.00764
0
LINE
8
BLACK
6
CONTINUOUS
10
5.99557
20
-4.00764
11
5.99162
21
-4.00685
0
LINE
8
BLACK
6
CONTINUOUS
10
5.99162
20
-4.00685
11
5.98826
21
-4.00461
0
LINE
8
BLACK
6
CONTINUOUS
10
5.98826
20
-4.00461
11
5.98602
21
-4.00126
0
LINE
8
BLACK
6
CONTINUOUS
10
5.98602
20
-4.00126
11
5.98524
21
-3.9973
0
LINE
8
BLACK
6
CONTINUOUS
10
5.98524
20
-3.9973
11
5.98524
21
-3.96974
0
LINE
8
BLACK
6
CONTINUOUS
10
5.98524
20
-3.96974
11
5.98602
21
-3.96579
0
LINE
8
BLACK
6
CONTINUOUS
10
5.98602
20
-3.96579
11
5.98714
21
-3.96412
0
LINE
8
BLACK
6
CONTINUOUS
10
5.98714
20
-3.96412
11
5.98518
21
-3.96373
0
LINE
8
BLACK
6
CONTINUOUS
10
5.98518
20
-3.96373
11
5.98262
21
-3.96202
0
LINE
8
BLACK
6
CONTINUOUS
10
5.98262
20
-3.96202
11
5.98091
21
-3.95947
0
LINE
8
BLACK
6
CONTINUOUS
10
5.98091
20
-3.95947
11
5.98052
21
-3.95751
0
LINE
8
BLACK
6
CONTINUOUS
10
5.98052
20
-3.95751
11
5.97886
21
-3.95862
0
LINE
8
BLACK
6
CONTINUOUS
10
5.97886
20
-3.95862
11
5.9749
21
-3.95941
0
LINE
8
BLACK
6
CONTINUOUS
10
5.9749
20
-3.95941
11
5.94734
21
-3.95941
0
LINE
8
BLACK
6
CONTINUOUS
10
5.94734
20
-3.95941
11
5.94339
21
-3.95862
0
LINE
8
BLACK
6
CONTINUOUS
10
5.94339
20
-3.95862
11
5.94003
21
-3.95638
0
LINE
8
BLACK
6
CONTINUOUS
10
5.94003
20
-3.95638
11
5.93779
21
-3.95303
0
LINE
8
BLACK
6
CONTINUOUS
10
5.93779
20
-3.95303
11
5.93701
21
-3.94907
0
LINE
8
BLACK
6
CONTINUOUS
10
5.93701
20
-3.94907
11
5.93701
21
-3.94415
0
LINE
8
BLACK
6
CONTINUOUS
10
5.93701
20
-3.94415
11
5.93779
21
-3.9402
0
LINE
8
BLACK
6
CONTINUOUS
10
5.93779
20
-3.9402
11
5.94003
21
-3.93685
0
LINE
8
BLACK
6
CONTINUOUS
10
5.94003
20
-3.93685
11
5.94015
21
-3.93677
0
LINE
8
BLACK
6
CONTINUOUS
10
5.94015
20
-3.93677
11
5.94003
21
-3.9367
0
LINE
8
BLACK
6
CONTINUOUS
10
5.94003
20
-3.9367
11
5.93779
21
-3.93334
0
LINE
8
BLACK
6
CONTINUOUS
10
5.93779
20
-3.93334
11
5.93701
21
-3.92939
0
LINE
8
BLACK
6
CONTINUOUS
10
5.93701
20
-3.92939
11
5.93701
21
-3.92447
0
LINE
8
BLACK
6
CONTINUOUS
10
5.93701
20
-3.92447
11
5.93779
21
-3.92051
0
LINE
8
BLACK
6
CONTINUOUS
10
5.93779
20
-3.92051
11
5.94003
21
-3.91716
0
LINE
8
BLACK
6
CONTINUOUS
10
5.94003
20
-3.91716
11
5.94015
21
-3.91709
0
LINE
8
BLACK
6
CONTINUOUS
10
5.94015
20
-3.91709
11
5.94003
21
-3.91701
0
LINE
8
BLACK
6
CONTINUOUS
10
5.94003
20
-3.91701
11
5.93779
21
-3.91366
0
LINE
8
BLACK
6
CONTINUOUS
10
5.93779
20
-3.91366
11
5.93701
21
-3.9097
0
LINE
8
BLACK
6
CONTINUOUS
10
5.93701
20
-3.9097
11
5.93701
21
-3.90478
0
LINE
8
BLACK
6
CONTINUOUS
10
5.93701
20
-3.90478
11
5.93779
21
-3.90083
0
LINE
8
BLACK
6
CONTINUOUS
10
5.93779
20
-3.90083
11
5.94003
21
-3.89748
0
LINE
8
BLACK
6
CONTINUOUS
10
5.94003
20
-3.89748
11
5.94015
21
-3.8974
0
LINE
8
BLACK
6
CONTINUOUS
10
5.94015
20
-3.8974
11
5.94003
21
-3.89733
0
LINE
8
BLACK
6
CONTINUOUS
10
5.94003
20
-3.89733
11
5.93779
21
-3.89397
0
LINE
8
BLACK
6
CONTINUOUS
10
5.93779
20
-3.89397
11
5.93701
21
-3.89002
0
LINE
8
BLACK
6
CONTINUOUS
10
5.93701
20
-3.89002
11
5.93701
21
-3.8851
0
LINE
8
BLACK
6
CONTINUOUS
10
5.93701
20
-3.8851
11
5.93779
21
-3.88114
0
LINE
8
BLACK
6
CONTINUOUS
10
5.93779
20
-3.88114
11
5.94003
21
-3.87779
0
LINE
8
BLACK
6
CONTINUOUS
10
5.94003
20
-3.87779
11
5.94015
21
-3.87772
0
LINE
8
BLACK
6
CONTINUOUS
10
5.94015
20
-3.87772
11
5.94003
21
-3.87764
0
LINE
8
BLACK
6
CONTINUOUS
10
5.94003
20
-3.87764
11
5.93779
21
-3.87429
0
LINE
8
BLACK
6
CONTINUOUS
10
5.93779
20
-3.87429
11
5.93701
21
-3.87033
0
LINE
8
BLACK
6
CONTINUOUS
10
5.93701
20
-3.87033
11
5.93701
21
-3.86541
0
LINE
8
BLACK
6
CONTINUOUS
10
5.93701
20
-3.86541
11
5.93779
21
-3.86146
0
LINE
8
BLACK
6
CONTINUOUS
10
5.93779
20
-3.86146
11
5.94003
21
-3.85811
0
LINE
8
BLACK
6
CONTINUOUS
10
5.94003
20
-3.85811
11
5.94339
21
-3.85587
0
LINE
8
BLACK
6
CONTINUOUS
10
5.94339
20
-3.85587
11
5.94734
21
-3.85508
0
LINE
8
BLACK
6
CONTINUOUS
10
5.94734
20
-3.85508
11
5.9749
21
-3.85508
0
LINE
8
BLACK
6
CONTINUOUS
10
5.9749
20
-3.85508
11
5.97886
21
-3.85587
0
LINE
8
BLACK
6
CONTINUOUS
10
5.97886
20
-3.85587
11
5.98052
21
-3.85698
0
LINE
8
BLACK
6
CONTINUOUS
10
5.98052
20
-3.85698
11
5.98091
21
-3.85502
0
LINE
8
BLACK
6
CONTINUOUS
10
5.98091
20
-3.85502
11
5.98262
21
-3.85246
0
LINE
8
BLACK
6
CONTINUOUS
10
5.98262
20
-3.85246
11
5.98518
21
-3.85076
0
LINE
8
BLACK
6
CONTINUOUS
10
5.98518
20
-3.85076
11
5.98714
21
-3.85037
0
LINE
8
BLACK
6
CONTINUOUS
10
5.98714
20
-3.85037
11
5.98602
21
-3.8487
0
LINE
8
BLACK
6
CONTINUOUS
10
5.98602
20
-3.8487
11
5.98524
21
-3.84474
0
LINE
8
BLACK
6
CONTINUOUS
10
5.98524
20
-3.84474
11
5.98524
21
-3.81719
0
LINE
8
BLACK
6
CONTINUOUS
10
5.98524
20
-3.81719
11
5.98602
21
-3.81323
0
LINE
8
BLACK
6
CONTINUOUS
10
5.98602
20
-3.81323
11
5.98826
21
-3.80988
0
LINE
8
BLACK
6
CONTINUOUS
10
5.98826
20
-3.80988
11
5.99162
21
-3.80764
0
LINE
8
BLACK
6
CONTINUOUS
10
5.99162
20
-3.80764
11
5.99557
21
-3.80685
0
LINE
8
BLACK
6
CONTINUOUS
10
5.99557
20
-3.80685
11
6.00049
21
-3.80685
0
LINE
8
BLACK
6
CONTINUOUS
10
6.00049
20
-3.80685
11
6.00445
21
-3.80764
0
LINE
8
BLACK
6
CONTINUOUS
10
6.44541
20
-3.91997
11
6.44797
21
-3.92168
0
LINE
8
BLACK
6
CONTINUOUS
10
6.44797
20
-3.92168
11
6.44968
21
-3.92423
0
LINE
8
BLACK
6
CONTINUOUS
10
6.44968
20
-3.92423
11
6.45028
21
-3.92724
0
LINE
8
BLACK
6
CONTINUOUS
10
6.45028
20
-3.92724
11
6.45028
21
-3.98724
0
LINE
8
BLACK
6
CONTINUOUS
10
6.45028
20
-3.98724
11
6.44968
21
-3.99026
0
LINE
8
BLACK
6
CONTINUOUS
10
6.44968
20
-3.99026
11
6.44797
21
-3.99281
0
LINE
8
BLACK
6
CONTINUOUS
10
6.44797
20
-3.99281
11
6.44541
21
-3.99452
0
LINE
8
BLACK
6
CONTINUOUS
10
6.44541
20
-3.99452
11
6.4424
21
-3.99512
0
LINE
8
BLACK
6
CONTINUOUS
10
6.4424
20
-3.99512
11
6.3824
21
-3.99512
0
LINE
8
BLACK
6
CONTINUOUS
10
6.3824
20
-3.99512
11
6.37939
21
-3.99452
0
LINE
8
BLACK
6
CONTINUOUS
10
6.37939
20
-3.99452
11
6.37683
21
-3.99281
0
LINE
8
BLACK
6
CONTINUOUS
10
6.37683
20
-3.99281
11
6.37513
21
-3.99026
0
LINE
8
BLACK
6
CONTINUOUS
10
6.37513
20
-3.99026
11
6.37453
21
-3.98724
0
LINE
8
BLACK
6
CONTINUOUS
10
6.37453
20
-3.98724
11
6.37453
21
-3.92724
0
LINE
8
BLACK
6
CONTINUOUS
10
6.37453
20
-3.92724
11
6.37513
21
-3.92423
0
LINE
8
BLACK
6
CONTINUOUS
10
6.37513
20
-3.92423
11
6.37683
21
-3.92168
0
LINE
8
BLACK
6
CONTINUOUS
10
6.37683
20
-3.92168
11
6.37939
21
-3.91997
0
LINE
8
BLACK
6
CONTINUOUS
10
6.37939
20
-3.91997
11
6.3824
21
-3.91937
0
LINE
8
BLACK
6
CONTINUOUS
10
6.3824
20
-3.91937
11
6.4424
21
-3.91937
0
LINE
8
BLACK
6
CONTINUOUS
10
6.4424
20
-3.91937
11
6.44541
21
-3.91997
0
LINE
8
BLACK
6
CONTINUOUS
10
6.54541
20
-3.91997
11
6.54797
21
-3.92168
0
LINE
8
BLACK
6
CONTINUOUS
10
6.54797
20
-3.92168
11
6.54968
21
-3.92423
0
LINE
8
BLACK
6
CONTINUOUS
10
6.54968
20
-3.92423
11
6.55028
21
-3.92724
0
LINE
8
BLACK
6
CONTINUOUS
10
6.55028
20
-3.92724
11
6.55028
21
-3.98724
0
LINE
8
BLACK
6
CONTINUOUS
10
6.55028
20
-3.98724
11
6.54968
21
-3.99026
0
LINE
8
BLACK
6
CONTINUOUS
10
6.54968
20
-3.99026
11
6.54797
21
-3.99281
0
LINE
8
BLACK
6
CONTINUOUS
10
6.54797
20
-3.99281
11
6.54541
21
-3.99452
0
LINE
8
BLACK
6
CONTINUOUS
10
6.54541
20
-3.99452
11
6.5424
21
-3.99512
0
LINE
8
BLACK
6
CONTINUOUS
10
6.5424
20
-3.99512
11
6.4824
21
-3.99512
0
LINE
8
BLACK
6
CONTINUOUS
10
6.4824
20
-3.99512
11
6.47939
21
-3.99452
0
LINE
8
BLACK
6
CONTINUOUS
10
6.47939
20
-3.99452
11
6.47683
21
-3.99281
0
LINE
8
BLACK
6
CONTINUOUS
10
6.47683
20
-3.99281
11
6.47513
21
-3.99026
0
LINE
8
BLACK
6
CONTINUOUS
10
6.47513
20
-3.99026
11
6.47453
21
-3.98724
0
LINE
8
BLACK
6
CONTINUOUS
10
6.47453
20
-3.98724
11
6.47453
21
-3.92724
0
LINE
8
BLACK
6
CONTINUOUS
10
6.47453
20
-3.92724
11
6.47513
21
-3.92423
0
LINE
8
BLACK
6
CONTINUOUS
10
6.47513
20
-3.92423
11
6.47683
21
-3.92168
0
LINE
8
BLACK
6
CONTINUOUS
10
6.47683
20
-3.92168
11
6.47939
21
-3.91997
0
LINE
8
BLACK
6
CONTINUOUS
10
6.47939
20
-3.91997
11
6.4824
21
-3.91937
0
LINE
8
BLACK
6
CONTINUOUS
10
6.4824
20
-3.91937
11
6.5424
21
-3.91937
0
LINE
8
BLACK
6
CONTINUOUS
10
6.5424
20
-3.91937
11
6.54541
21
-3.91997
0
LINE
8
BLACK
6
CONTINUOUS
10
5.16791
20
-3.93247
11
5.17047
21
-3.93418
0
LINE
8
BLACK
6
CONTINUOUS
10
5.17047
20
-3.93418
11
5.17218
21
-3.93673
0
LINE
8
BLACK
6
CONTINUOUS
10
5.17218
20
-3.93673
11
5.17278
21
-3.93974
0
LINE
8
BLACK
6
CONTINUOUS
10
5.17278
20
-3.93974
11
5.17278
21
-3.97474
0
LINE
8
BLACK
6
CONTINUOUS
10
5.17278
20
-3.97474
11
5.17218
21
-3.97776
0
LINE
8
BLACK
6
CONTINUOUS
10
5.17218
20
-3.97776
11
5.17047
21
-3.98031
0
LINE
8
BLACK
6
CONTINUOUS
10
5.17047
20
-3.98031
11
5.16791
21
-3.98202
0
LINE
8
BLACK
6
CONTINUOUS
10
5.16791
20
-3.98202
11
5.1649
21
-3.98262
0
LINE
8
BLACK
6
CONTINUOUS
10
5.1649
20
-3.98262
11
5.1099
21
-3.98262
0
LINE
8
BLACK
6
CONTINUOUS
10
5.1099
20
-3.98262
11
5.10689
21
-3.98202
0
LINE
8
BLACK
6
CONTINUOUS
10
5.10689
20
-3.98202
11
5.10433
21
-3.98031
0
LINE
8
BLACK
6
CONTINUOUS
10
5.10433
20
-3.98031
11
5.10263
21
-3.97776
0
LINE
8
BLACK
6
CONTINUOUS
10
5.10263
20
-3.97776
11
5.10203
21
-3.97474
0
LINE
8
BLACK
6
CONTINUOUS
10
5.10203
20
-3.97474
11
5.10203
21
-3.93974
0
LINE
8
BLACK
6
CONTINUOUS
10
5.10203
20
-3.93974
11
5.10263
21
-3.93673
0
LINE
8
BLACK
6
CONTINUOUS
10
5.10263
20
-3.93673
11
5.10433
21
-3.93418
0
LINE
8
BLACK
6
CONTINUOUS
10
5.10433
20
-3.93418
11
5.10689
21
-3.93247
0
LINE
8
BLACK
6
CONTINUOUS
10
5.10689
20
-3.93247
11
5.1099
21
-3.93187
0
LINE
8
BLACK
6
CONTINUOUS
10
5.1099
20
-3.93187
11
5.1649
21
-3.93187
0
LINE
8
BLACK
6
CONTINUOUS
10
5.1649
20
-3.93187
11
5.16791
21
-3.93247
0
LINE
8
BLACK
6
CONTINUOUS
10
5.26791
20
-3.93247
11
5.27047
21
-3.93418
0
LINE
8
BLACK
6
CONTINUOUS
10
5.27047
20
-3.93418
11
5.27218
21
-3.93673
0
LINE
8
BLACK
6
CONTINUOUS
10
5.27218
20
-3.93673
11
5.27278
21
-3.93974
0
LINE
8
BLACK
6
CONTINUOUS
10
5.27278
20
-3.93974
11
5.27278
21
-3.97474
0
LINE
8
BLACK
6
CONTINUOUS
10
5.27278
20
-3.97474
11
5.27218
21
-3.97776
0
LINE
8
BLACK
6
CONTINUOUS
10
5.27218
20
-3.97776
11
5.27047
21
-3.98031
0
LINE
8
BLACK
6
CONTINUOUS
10
5.27047
20
-3.98031
11
5.26791
21
-3.98202
0
LINE
8
BLACK
6
CONTINUOUS
10
5.26791
20
-3.98202
11
5.2649
21
-3.98262
0
LINE
8
BLACK
6
CONTINUOUS
10
5.2649
20
-3.98262
11
5.2099
21
-3.98262
0
LINE
8
BLACK
6
CONTINUOUS
10
5.2099
20
-3.98262
11
5.20689
21
-3.98202
0
LINE
8
BLACK
6
CONTINUOUS
10
5.20689
20
-3.98202
11
5.20433
21
-3.98031
0
LINE
8
BLACK
6
CONTINUOUS
10
5.20433
20
-3.98031
11
5.20263
21
-3.97776
0
LINE
8
BLACK
6
CONTINUOUS
10
5.20263
20
-3.97776
11
5.20203
21
-3.97474
0
LINE
8
BLACK
6
CONTINUOUS
10
5.20203
20
-3.97474
11
5.20203
21
-3.93974
0
LINE
8
BLACK
6
CONTINUOUS
10
5.20203
20
-3.93974
11
5.20263
21
-3.93673
0
LINE
8
BLACK
6
CONTINUOUS
10
5.20263
20
-3.93673
11
5.20433
21
-3.93418
0
LINE
8
BLACK
6
CONTINUOUS
10
5.20433
20
-3.93418
11
5.20689
21
-3.93247
0
LINE
8
BLACK
6
CONTINUOUS
10
5.20689
20
-3.93247
11
5.2099
21
-3.93187
0
LINE
8
BLACK
6
CONTINUOUS
10
5.2099
20
-3.93187
11
5.2649
21
-3.93187
0
LINE
8
BLACK
6
CONTINUOUS
10
5.2649
20
-3.93187
11
5.26791
21
-3.93247
0
LINE
8
BLACK
6
CONTINUOUS
10
5.52782
20
-3.83304
11
5.53037
21
-3.83475
0
LINE
8
BLACK
6
CONTINUOUS
10
5.53037
20
-3.83475
11
5.53208
21
-3.8373
0
LINE
8
BLACK
6
CONTINUOUS
10
5.53208
20
-3.8373
11
5.53268
21
-3.84031
0
LINE
8
BLACK
6
CONTINUOUS
10
5.53268
20
-3.84031
11
5.53268
21
-3.97417
0
LINE
8
BLACK
6
CONTINUOUS
10
5.53268
20
-3.97417
11
5.53208
21
-3.97719
0
LINE
8
BLACK
6
CONTINUOUS
10
5.53208
20
-3.97719
11
5.53037
21
-3.97974
0
LINE
8
BLACK
6
CONTINUOUS
10
5.53037
20
-3.97974
11
5.52782
21
-3.98145
0
LINE
8
BLACK
6
CONTINUOUS
10
5.52782
20
-3.98145
11
5.5248
21
-3.98205
0
LINE
8
BLACK
6
CONTINUOUS
10
5.5248
20
-3.98205
11
5.45
21
-3.98205
0
LINE
8
BLACK
6
CONTINUOUS
10
5.45
20
-3.98205
11
5.44699
21
-3.98145
0
LINE
8
BLACK
6
CONTINUOUS
10
5.44699
20
-3.98145
11
5.44443
21
-3.97974
0
LINE
8
BLACK
6
CONTINUOUS
10
5.44443
20
-3.97974
11
5.44273
21
-3.97719
0
LINE
8
BLACK
6
CONTINUOUS
10
5.44273
20
-3.97719
11
5.44213
21
-3.97417
0
LINE
8
BLACK
6
CONTINUOUS
10
5.44213
20
-3.97417
11
5.44213
21
-3.84031
0
LINE
8
BLACK
6
CONTINUOUS
10
5.44213
20
-3.84031
11
5.44273
21
-3.8373
0
LINE
8
BLACK
6
CONTINUOUS
10
5.44273
20
-3.8373
11
5.44443
21
-3.83475
0
LINE
8
BLACK
6
CONTINUOUS
10
5.44443
20
-3.83475
11
5.44699
21
-3.83304
0
LINE
8
BLACK
6
CONTINUOUS
10
5.44699
20
-3.83304
11
5.45
21
-3.83244
0
LINE
8
BLACK
6
CONTINUOUS
10
5.45
20
-3.83244
11
5.5248
21
-3.83244
0
LINE
8
BLACK
6
CONTINUOUS
10
5.5248
20
-3.83244
11
5.52782
21
-3.83304
0
LINE
8
BLACK
6
CONTINUOUS
10
5.37427
20
-3.83304
11
5.37683
21
-3.83475
0
LINE
8
BLACK
6
CONTINUOUS
10
5.37683
20
-3.83475
11
5.37853
21
-3.8373
0
LINE
8
BLACK
6
CONTINUOUS
10
5.37853
20
-3.8373
11
5.37913
21
-3.84031
0
LINE
8
BLACK
6
CONTINUOUS
10
5.37913
20
-3.84031
11
5.37913
21
-3.97417
0
LINE
8
BLACK
6
CONTINUOUS
10
5.37913
20
-3.97417
11
5.37853
21
-3.97719
0
LINE
8
BLACK
6
CONTINUOUS
10
5.37853
20
-3.97719
11
5.37683
21
-3.97974
0
LINE
8
BLACK
6
CONTINUOUS
10
5.37683
20
-3.97974
11
5.37427
21
-3.98145
0
LINE
8
BLACK
6
CONTINUOUS
10
5.37427
20
-3.98145
11
5.37126
21
-3.98205
0
LINE
8
BLACK
6
CONTINUOUS
10
5.37126
20
-3.98205
11
5.29646
21
-3.98205
0
LINE
8
BLACK
6
CONTINUOUS
10
5.29646
20
-3.98205
11
5.29344
21
-3.98145
0
LINE
8
BLACK
6
CONTINUOUS
10
5.29344
20
-3.98145
11
5.29089
21
-3.97974
0
LINE
8
BLACK
6
CONTINUOUS
10
5.29089
20
-3.97974
11
5.28918
21
-3.97719
0
LINE
8
BLACK
6
CONTINUOUS
10
5.28918
20
-3.97719
11
5.28858
21
-3.97417
0
LINE
8
BLACK
6
CONTINUOUS
10
5.28858
20
-3.97417
11
5.28858
21
-3.84031
0
LINE
8
BLACK
6
CONTINUOUS
10
5.28858
20
-3.84031
11
5.28918
21
-3.8373
0
LINE
8
BLACK
6
CONTINUOUS
10
5.28918
20
-3.8373
11
5.29089
21
-3.83475
0
LINE
8
BLACK
6
CONTINUOUS
10
5.29089
20
-3.83475
11
5.29344
21
-3.83304
0
LINE
8
BLACK
6
CONTINUOUS
10
5.29344
20
-3.83304
11
5.29646
21
-3.83244
0
LINE
8
BLACK
6
CONTINUOUS
10
5.29646
20
-3.83244
11
5.37126
21
-3.83244
0
LINE
8
BLACK
6
CONTINUOUS
10
5.37126
20
-3.83244
11
5.37427
21
-3.83304
0
LINE
8
BLACK
6
CONTINUOUS
10
5.68071
20
-3.87332
11
5.68842
21
-3.87571
0
LINE
8
BLACK
6
CONTINUOUS
10
5.68842
20
-3.87571
11
5.69552
21
-3.87955
0
LINE
8
BLACK
6
CONTINUOUS
10
5.69552
20
-3.87955
11
5.70173
21
-3.88469
0
LINE
8
BLACK
6
CONTINUOUS
10
5.70173
20
-3.88469
11
5.70683
21
-3.89094
0
LINE
8
BLACK
6
CONTINUOUS
10
5.70683
20
-3.89094
11
5.71062
21
-3.89807
0
LINE
8
BLACK
6
CONTINUOUS
10
5.71062
20
-3.89807
11
5.71295
21
-3.90579
0
LINE
8
BLACK
6
CONTINUOUS
10
5.71295
20
-3.90579
11
5.71374
21
-3.91382
0
LINE
8
BLACK
6
CONTINUOUS
10
5.71374
20
-3.91382
11
5.71372
21
-3.91497
0
LINE
8
BLACK
6
CONTINUOUS
10
5.71372
20
-3.91497
11
5.71271
21
-3.92298
0
LINE
8
BLACK
6
CONTINUOUS
10
5.71271
20
-3.92298
11
5.71017
21
-3.93063
0
LINE
8
BLACK
6
CONTINUOUS
10
5.71017
20
-3.93063
11
5.70618
21
-3.93765
0
LINE
8
BLACK
6
CONTINUOUS
10
5.70618
20
-3.93765
11
5.70091
21
-3.94376
0
LINE
8
BLACK
6
CONTINUOUS
10
5.70091
20
-3.94376
11
5.69455
21
-3.94872
0
LINE
8
BLACK
6
CONTINUOUS
10
5.69455
20
-3.94872
11
5.68735
21
-3.95236
0
LINE
8
BLACK
6
CONTINUOUS
10
5.68735
20
-3.95236
11
5.67958
21
-3.95453
0
LINE
8
BLACK
6
CONTINUOUS
10
5.67958
20
-3.95453
11
5.67154
21
-3.95515
0
LINE
8
BLACK
6
CONTINUOUS
10
5.67154
20
-3.95515
11
5.66352
21
-3.95419
0
LINE
8
BLACK
6
CONTINUOUS
10
5.66352
20
-3.95419
11
5.65585
21
-3.9517
0
LINE
8
BLACK
6
CONTINUOUS
10
5.65585
20
-3.9517
11
5.64881
21
-3.94776
0
LINE
8
BLACK
6
CONTINUOUS
10
5.64881
20
-3.94776
11
5.64267
21
-3.94254
0
LINE
8
BLACK
6
CONTINUOUS
10
5.64267
20
-3.94254
11
5.63765
21
-3.93621
0
LINE
8
BLACK
6
CONTINUOUS
10
5.63765
20
-3.93621
11
5.63397
21
-3.92904
0
LINE
8
BLACK
6
CONTINUOUS
10
5.63397
20
-3.92904
11
5.63304
21
-3.92579
0
LINE
8
BLACK
6
CONTINUOUS
10
5.63304
20
-3.92579
11
5.63143
21
-3.93063
0
LINE
8
BLACK
6
CONTINUOUS
10
5.63143
20
-3.93063
11
5.62744
21
-3.93765
0
LINE
8
BLACK
6
CONTINUOUS
10
5.62744
20
-3.93765
11
5.62217
21
-3.94376
0
LINE
8
BLACK
6
CONTINUOUS
10
5.62217
20
-3.94376
11
5.61581
21
-3.94872
0
LINE
8
BLACK
6
CONTINUOUS
10
5.61581
20
-3.94872
11
5.60861
21
-3.95236
0
LINE
8
BLACK
6
CONTINUOUS
10
5.60861
20
-3.95236
11
5.60084
21
-3.95453
0
LINE
8
BLACK
6
CONTINUOUS
10
5.60084
20
-3.95453
11
5.5928
21
-3.95515
0
LINE
8
BLACK
6
CONTINUOUS
10
5.5928
20
-3.95515
11
5.58478
21
-3.95419
0
LINE
8
BLACK
6
CONTINUOUS
10
5.58478
20
-3.95419
11
5.57711
21
-3.9517
0
LINE
8
BLACK
6
CONTINUOUS
10
5.57711
20
-3.9517
11
5.57007
21
-3.94776
0
LINE
8
BLACK
6
CONTINUOUS
10
5.57007
20
-3.94776
11
5.56392
21
-3.94254
0
LINE
8
BLACK
6
CONTINUOUS
10
5.56392
20
-3.94254
11
5.55891
21
-3.93621
0
LINE
8
BLACK
6
CONTINUOUS
10
5.55891
20
-3.93621
11
5.55523
21
-3.92904
0
LINE
8
BLACK
6
CONTINUOUS
10
5.55523
20
-3.92904
11
5.553
21
-3.92128
0
LINE
8
BLACK
6
CONTINUOUS
10
5.553
20
-3.92128
11
5.55233
21
-3.91324
0
LINE
8
BLACK
6
CONTINUOUS
10
5.55233
20
-3.91324
11
5.55323
21
-3.90522
0
LINE
8
BLACK
6
CONTINUOUS
10
5.55323
20
-3.90522
11
5.55567
21
-3.89753
0
LINE
8
BLACK
6
CONTINUOUS
10
5.55567
20
-3.89753
11
5.55955
21
-3.89046
0
LINE
8
BLACK
6
CONTINUOUS
10
5.55955
20
-3.89046
11
5.56474
21
-3.88428
0
LINE
8
BLACK
6
CONTINUOUS
10
5.56474
20
-3.88428
11
5.57103
21
-3.87923
0
LINE
8
BLACK
6
CONTINUOUS
10
5.57103
20
-3.87923
11
5.57818
21
-3.87549
0
LINE
8
BLACK
6
CONTINUOUS
10
5.57818
20
-3.87549
11
5.58592
21
-3.87321
0
LINE
8
BLACK
6
CONTINUOUS
10
5.58592
20
-3.87321
11
5.59395
21
-3.87248
0
LINE
8
BLACK
6
CONTINUOUS
10
5.59395
20
-3.87248
11
5.60197
21
-3.87332
0
LINE
8
BLACK
6
CONTINUOUS
10
5.60197
20
-3.87332
11
5.60968
21
-3.87571
0
LINE
8
BLACK
6
CONTINUOUS
10
5.60968
20
-3.87571
11
5.61678
21
-3.87955
0
LINE
8
BLACK
6
CONTINUOUS
10
5.61678
20
-3.87955
11
5.62299
21
-3.88469
0
LINE
8
BLACK
6
CONTINUOUS
10
5.62299
20
-3.88469
11
5.62809
21
-3.89094
0
LINE
8
BLACK
6
CONTINUOUS
10
5.62809
20
-3.89094
11
5.63188
21
-3.89807
0
LINE
8
BLACK
6
CONTINUOUS
10
5.63188
20
-3.89807
11
5.63303
21
-3.90187
0
LINE
8
BLACK
6
CONTINUOUS
10
5.63303
20
-3.90187
11
5.63441
21
-3.89753
0
LINE
8
BLACK
6
CONTINUOUS
10
5.63441
20
-3.89753
11
5.63829
21
-3.89046
0
LINE
8
BLACK
6
CONTINUOUS
10
5.63829
20
-3.89046
11
5.64348
21
-3.88428
0
LINE
8
BLACK
6
CONTINUOUS
10
5.64348
20
-3.88428
11
5.64977
21
-3.87923
0
LINE
8
BLACK
6
CONTINUOUS
10
5.64977
20
-3.87923
11
5.65692
21
-3.87549
0
LINE
8
BLACK
6
CONTINUOUS
10
5.65692
20
-3.87549
11
5.66466
21
-3.87321
0
LINE
8
BLACK
6
CONTINUOUS
10
5.66466
20
-3.87321
11
5.67269
21
-3.87248
0
LINE
8
BLACK
6
CONTINUOUS
10
5.67269
20
-3.87248
11
5.68071
21
-3.87332
0
LINE
8
BLACK
6
CONTINUOUS
10
5.26791
20
-3.85747
11
5.27047
21
-3.85918
0
LINE
8
BLACK
6
CONTINUOUS
10
5.27047
20
-3.85918
11
5.27218
21
-3.86173
0
LINE
8
BLACK
6
CONTINUOUS
10
5.27218
20
-3.86173
11
5.27278
21
-3.86474
0
LINE
8
BLACK
6
CONTINUOUS
10
5.27278
20
-3.86474
11
5.27278
21
-3.89974
0
LINE
8
BLACK
6
CONTINUOUS
10
5.27278
20
-3.89974
11
5.27218
21
-3.90276
0
LINE
8
BLACK
6
CONTINUOUS
10
5.27218
20
-3.90276
11
5.27047
21
-3.90531
0
LINE
8
BLACK
6
CONTINUOUS
10
5.27047
20
-3.90531
11
5.26791
21
-3.90702
0
LINE
8
BLACK
6
CONTINUOUS
10
5.26791
20
-3.90702
11
5.2649
21
-3.90762
0
LINE
8
BLACK
6
CONTINUOUS
10
5.2649
20
-3.90762
11
5.2099
21
-3.90762
0
LINE
8
BLACK
6
CONTINUOUS
10
5.2099
20
-3.90762
11
5.20689
21
-3.90702
0
LINE
8
BLACK
6
CONTINUOUS
10
5.20689
20
-3.90702
11
5.20433
21
-3.90531
0
LINE
8
BLACK
6
CONTINUOUS
10
5.20433
20
-3.90531
11
5.20263
21
-3.90276
0
LINE
8
BLACK
6
CONTINUOUS
10
5.20263
20
-3.90276
11
5.20203
21
-3.89974
0
LINE
8
BLACK
6
CONTINUOUS
10
5.20203
20
-3.89974
11
5.20203
21
-3.86474
0
LINE
8
BLACK
6
CONTINUOUS
10
5.20203
20
-3.86474
11
5.20263
21
-3.86173
0
LINE
8
BLACK
6
CONTINUOUS
10
5.20263
20
-3.86173
11
5.20433
21
-3.85918
0
LINE
8
BLACK
6
CONTINUOUS
10
5.20433
20
-3.85918
11
5.20689
21
-3.85747
0
LINE
8
BLACK
6
CONTINUOUS
10
5.20689
20
-3.85747
11
5.2099
21
-3.85687
0
LINE
8
BLACK
6
CONTINUOUS
10
5.2099
20
-3.85687
11
5.2649
21
-3.85687
0
LINE
8
BLACK
6
CONTINUOUS
10
5.2649
20
-3.85687
11
5.26791
21
-3.85747
0
LINE
8
BLACK
6
CONTINUOUS
10
5.16791
20
-3.85747
11
5.17047
21
-3.85918
0
LINE
8
BLACK
6
CONTINUOUS
10
5.17047
20
-3.85918
11
5.17218
21
-3.86173
0
LINE
8
BLACK
6
CONTINUOUS
10
5.17218
20
-3.86173
11
5.17278
21
-3.86474
0
LINE
8
BLACK
6
CONTINUOUS
10
5.17278
20
-3.86474
11
5.17278
21
-3.89974
0
LINE
8
BLACK
6
CONTINUOUS
10
5.17278
20
-3.89974
11
5.17218
21
-3.90276
0
LINE
8
BLACK
6
CONTINUOUS
10
5.17218
20
-3.90276
11
5.17047
21
-3.90531
0
LINE
8
BLACK
6
CONTINUOUS
10
5.17047
20
-3.90531
11
5.16791
21
-3.90702
0
LINE
8
BLACK
6
CONTINUOUS
10
5.16791
20
-3.90702
11
5.1649
21
-3.90762
0
LINE
8
BLACK
6
CONTINUOUS
10
5.1649
20
-3.90762
11
5.1099
21
-3.90762
0
LINE
8
BLACK
6
CONTINUOUS
10
5.1099
20
-3.90762
11
5.10689
21
-3.90702
0
LINE
8
BLACK
6
CONTINUOUS
10
5.10689
20
-3.90702
11
5.10433
21
-3.90531
0
LINE
8
BLACK
6
CONTINUOUS
10
5.10433
20
-3.90531
11
5.10263
21
-3.90276
0
LINE
8
BLACK
6
CONTINUOUS
10
5.10263
20
-3.90276
11
5.10203
21
-3.89974
0
LINE
8
BLACK
6
CONTINUOUS
10
5.10203
20
-3.89974
11
5.10203
21
-3.86474
0
LINE
8
BLACK
6
CONTINUOUS
10
5.10203
20
-3.86474
11
5.10263
21
-3.86173
0
LINE
8
BLACK
6
CONTINUOUS
10
5.10263
20
-3.86173
11
5.10433
21
-3.85918
0
LINE
8
BLACK
6
CONTINUOUS
10
5.10433
20
-3.85918
11
5.10689
21
-3.85747
0
LINE
8
BLACK
6
CONTINUOUS
10
5.10689
20
-3.85747
11
5.1099
21
-3.85687
0
LINE
8
BLACK
6
CONTINUOUS
10
5.1099
20
-3.85687
11
5.1649
21
-3.85687
0
LINE
8
BLACK
6
CONTINUOUS
10
5.1649
20
-3.85687
11
5.16791
21
-3.85747
0
LINE
8
BLACK
6
CONTINUOUS
10
6.54541
20
-3.81997
11
6.54797
21
-3.82168
0
LINE
8
BLACK
6
CONTINUOUS
10
6.54797
20
-3.82168
11
6.54968
21
-3.82423
0
LINE
8
BLACK
6
CONTINUOUS
10
6.54968
20
-3.82423
11
6.55028
21
-3.82724
0
LINE
8
BLACK
6
CONTINUOUS
10
6.55028
20
-3.82724
11
6.55028
21
-3.88724
0
LINE
8
BLACK
6
CONTINUOUS
10
6.55028
20
-3.88724
11
6.54968
21
-3.89026
0
LINE
8
BLACK
6
CONTINUOUS
10
6.54968
20
-3.89026
11
6.54797
21
-3.89281
0
LINE
8
BLACK
6
CONTINUOUS
10
6.54797
20
-3.89281
11
6.54541
21
-3.89452
0
LINE
8
BLACK
6
CONTINUOUS
10
6.54541
20
-3.89452
11
6.5424
21
-3.89512
0
LINE
8
BLACK
6
CONTINUOUS
10
6.5424
20
-3.89512
11
6.4824
21
-3.89512
0
LINE
8
BLACK
6
CONTINUOUS
10
6.4824
20
-3.89512
11
6.47939
21
-3.89452
0
LINE
8
BLACK
6
CONTINUOUS
10
6.47939
20
-3.89452
11
6.47683
21
-3.89281
0
LINE
8
BLACK
6
CONTINUOUS
10
6.47683
20
-3.89281
11
6.47513
21
-3.89026
0
LINE
8
BLACK
6
CONTINUOUS
10
6.47513
20
-3.89026
11
6.47453
21
-3.88724
0
LINE
8
BLACK
6
CONTINUOUS
10
6.47453
20
-3.88724
11
6.47453
21
-3.82724
0
LINE
8
BLACK
6
CONTINUOUS
10
6.47453
20
-3.82724
11
6.47513
21
-3.82423
0
LINE
8
BLACK
6
CONTINUOUS
10
6.47513
20
-3.82423
11
6.47683
21
-3.82168
0
LINE
8
BLACK
6
CONTINUOUS
10
6.47683
20
-3.82168
11
6.47939
21
-3.81997
0
LINE
8
BLACK
6
CONTINUOUS
10
6.47939
20
-3.81997
11
6.4824
21
-3.81937
0
LINE
8
BLACK
6
CONTINUOUS
10
6.4824
20
-3.81937
11
6.5424
21
-3.81937
0
LINE
8
BLACK
6
CONTINUOUS
10
6.5424
20
-3.81937
11
6.54541
21
-3.81997
0
LINE
8
BLACK
6
CONTINUOUS
10
6.44541
20
-3.81997
11
6.44797
21
-3.82168
0
LINE
8
BLACK
6
CONTINUOUS
10
6.44797
20
-3.82168
11
6.44968
21
-3.82423
0
LINE
8
BLACK
6
CONTINUOUS
10
6.44968
20
-3.82423
11
6.45028
21
-3.82724
0
LINE
8
BLACK
6
CONTINUOUS
10
6.45028
20
-3.82724
11
6.45028
21
-3.88724
0
LINE
8
BLACK
6
CONTINUOUS
10
6.45028
20
-3.88724
11
6.44968
21
-3.89026
0
LINE
8
BLACK
6
CONTINUOUS
10
6.44968
20
-3.89026
11
6.44797
21
-3.89281
0
LINE
8
BLACK
6
CONTINUOUS
10
6.44797
20
-3.89281
11
6.44541
21
-3.89452
0
LINE
8
BLACK
6
CONTINUOUS
10
6.44541
20
-3.89452
11
6.4424
21
-3.89512
0
LINE
8
BLACK
6
CONTINUOUS
10
6.4424
20
-3.89512
11
6.3824
21
-3.89512
0
LINE
8
BLACK
6
CONTINUOUS
10
6.3824
20
-3.89512
11
6.37939
21
-3.89452
0
LINE
8
BLACK
6
CONTINUOUS
10
6.37939
20
-3.89452
11
6.37683
21
-3.89281
0
LINE
8
BLACK
6
CONTINUOUS
10
6.37683
20
-3.89281
11
6.37513
21
-3.89026
0
LINE
8
BLACK
6
CONTINUOUS
10
6.37513
20
-3.89026
11
6.37453
21
-3.88724
0
LINE
8
BLACK
6
CONTINUOUS
10
6.37453
20
-3.88724
11
6.37453
21
-3.82724
0
LINE
8
BLACK
6
CONTINUOUS
10
6.37453
20
-3.82724
11
6.37513
21
-3.82423
0
LINE
8
BLACK
6
CONTINUOUS
10
6.37513
20
-3.82423
11
6.37683
21
-3.82168
0
LINE
8
BLACK
6
CONTINUOUS
10
6.37683
20
-3.82168
11
6.37939
21
-3.81997
0
LINE
8
BLACK
6
CONTINUOUS
10
6.37939
20
-3.81997
11
6.3824
21
-3.81937
0
LINE
8
BLACK
6
CONTINUOUS
10
6.3824
20
-3.81937
11
6.4424
21
-3.81937
0
LINE
8
BLACK
6
CONTINUOUS
10
6.4424
20
-3.81937
11
6.44541
21
-3.81997
0
LINE
8
BLACK
6
CONTINUOUS
10
5.69695
20
-3.72573
11
5.70101
21
-3.72772
0
LINE
8
BLACK
6
CONTINUOUS
10
5.70101
20
-3.72772
11
5.70422
21
-3.73092
0
LINE
8
BLACK
6
CONTINUOUS
10
5.70422
20
-3.73092
11
5.70621
21
-3.73498
0
LINE
8
BLACK
6
CONTINUOUS
10
5.70621
20
-3.73498
11
5.70679
21
-3.73894
0
LINE
8
BLACK
6
CONTINUOUS
10
5.70679
20
-3.73894
11
5.70679
21
-3.75075
0
LINE
8
BLACK
6
CONTINUOUS
10
5.70679
20
-3.75075
11
5.70622
21
-3.75468
0
LINE
8
BLACK
6
CONTINUOUS
10
5.70622
20
-3.75468
11
5.70423
21
-3.75875
0
LINE
8
BLACK
6
CONTINUOUS
10
5.70423
20
-3.75875
11
5.70103
21
-3.76195
0
LINE
8
BLACK
6
CONTINUOUS
10
5.70103
20
-3.76195
11
5.69779
21
-3.76354
0
LINE
8
BLACK
6
CONTINUOUS
10
5.69779
20
-3.76354
11
5.70101
21
-3.76512
0
LINE
8
BLACK
6
CONTINUOUS
10
5.70101
20
-3.76512
11
5.70422
21
-3.76832
0
LINE
8
BLACK
6
CONTINUOUS
10
5.70422
20
-3.76832
11
5.70621
21
-3.77238
0
LINE
8
BLACK
6
CONTINUOUS
10
5.70621
20
-3.77238
11
5.70679
21
-3.77634
0
LINE
8
BLACK
6
CONTINUOUS
10
5.70679
20
-3.77634
11
5.70679
21
-3.78815
0
LINE
8
BLACK
6
CONTINUOUS
10
5.70679
20
-3.78815
11
5.70622
21
-3.79209
0
LINE
8
BLACK
6
CONTINUOUS
10
5.70622
20
-3.79209
11
5.70423
21
-3.79615
0
LINE
8
BLACK
6
CONTINUOUS
10
5.70423
20
-3.79615
11
5.70103
21
-3.79935
0
LINE
8
BLACK
6
CONTINUOUS
10
5.70103
20
-3.79935
11
5.69779
21
-3.80095
0
LINE
8
BLACK
6
CONTINUOUS
10
5.69779
20
-3.80095
11
5.70101
21
-3.80252
0
LINE
8
BLACK
6
CONTINUOUS
10
5.70101
20
-3.80252
11
5.70422
21
-3.80572
0
LINE
8
BLACK
6
CONTINUOUS
10
5.70422
20
-3.80572
11
5.70621
21
-3.80978
0
LINE
8
BLACK
6
CONTINUOUS
10
5.70621
20
-3.80978
11
5.70679
21
-3.81374
0
LINE
8
BLACK
6
CONTINUOUS
10
5.70679
20
-3.81374
11
5.70679
21
-3.82555
0
LINE
8
BLACK
6
CONTINUOUS
10
5.70679
20
-3.82555
11
5.70622
21
-3.82949
0
LINE
8
BLACK
6
CONTINUOUS
10
5.70622
20
-3.82949
11
5.70423
21
-3.83355
0
LINE
8
BLACK
6
CONTINUOUS
10
5.70423
20
-3.83355
11
5.70103
21
-3.83676
0
LINE
8
BLACK
6
CONTINUOUS
10
5.70103
20
-3.83676
11
5.69697
21
-3.83875
0
LINE
8
BLACK
6
CONTINUOUS
10
5.69697
20
-3.83875
11
5.69301
21
-3.83933
0
LINE
8
BLACK
6
CONTINUOUS
10
5.69301
20
-3.83933
11
5.65266
21
-3.83933
0
LINE
8
BLACK
6
CONTINUOUS
10
5.65266
20
-3.83933
11
5.64872
21
-3.83876
0
LINE
8
BLACK
6
CONTINUOUS
10
5.64872
20
-3.83876
11
5.64466
21
-3.83677
0
LINE
8
BLACK
6
CONTINUOUS
10
5.64466
20
-3.83677
11
5.64145
21
-3.83357
0
LINE
8
BLACK
6
CONTINUOUS
10
5.64145
20
-3.83357
11
5.63946
21
-3.82951
0
LINE
8
BLACK
6
CONTINUOUS
10
5.63946
20
-3.82951
11
5.63888
21
-3.82555
0
LINE
8
BLACK
6
CONTINUOUS
10
5.63888
20
-3.82555
11
5.63888
21
-3.81374
0
LINE
8
BLACK
6
CONTINUOUS
10
5.63888
20
-3.81374
11
5.63945
21
-3.8098
0
LINE
8
BLACK
6
CONTINUOUS
10
5.63945
20
-3.8098
11
5.64144
21
-3.80574
0
LINE
8
BLACK
6
CONTINUOUS
10
5.64144
20
-3.80574
11
5.64464
21
-3.80254
0
LINE
8
BLACK
6
CONTINUOUS
10
5.64464
20
-3.80254
11
5.64788
21
-3.80094
0
LINE
8
BLACK
6
CONTINUOUS
10
5.64788
20
-3.80094
11
5.64466
21
-3.79937
0
LINE
8
BLACK
6
CONTINUOUS
10
5.64466
20
-3.79937
11
5.64145
21
-3.79617
0
LINE
8
BLACK
6
CONTINUOUS
10
5.64145
20
-3.79617
11
5.63946
21
-3.79211
0
LINE
8
BLACK
6
CONTINUOUS
10
5.63946
20
-3.79211
11
5.63888
21
-3.78815
0
LINE
8
BLACK
6
CONTINUOUS
10
5.63888
20
-3.78815
11
5.63888
21
-3.77634
0
LINE
8
BLACK
6
CONTINUOUS
10
5.63888
20
-3.77634
11
5.63945
21
-3.7724
0
LINE
8
BLACK
6
CONTINUOUS
10
5.63945
20
-3.7724
11
5.64144
21
-3.76834
0
LINE
8
BLACK
6
CONTINUOUS
10
5.64144
20
-3.76834
11
5.64464
21
-3.76513
0
LINE
8
BLACK
6
CONTINUOUS
10
5.64464
20
-3.76513
11
5.64788
21
-3.76354
0
LINE
8
BLACK
6
CONTINUOUS
10
5.64788
20
-3.76354
11
5.64466
21
-3.76197
0
LINE
8
BLACK
6
CONTINUOUS
10
5.64466
20
-3.76197
11
5.64145
21
-3.75877
0
LINE
8
BLACK
6
CONTINUOUS
10
5.64145
20
-3.75877
11
5.63946
21
-3.75471
0
LINE
8
BLACK
6
CONTINUOUS
10
5.63946
20
-3.75471
11
5.63888
21
-3.75075
0
LINE
8
BLACK
6
CONTINUOUS
10
5.63888
20
-3.75075
11
5.63888
21
-3.73894
0
LINE
8
BLACK
6
CONTINUOUS
10
5.63888
20
-3.73894
11
5.63945
21
-3.735
0
LINE
8
BLACK
6
CONTINUOUS
10
5.63945
20
-3.735
11
5.64144
21
-3.73094
0
LINE
8
BLACK
6
CONTINUOUS
10
5.64144
20
-3.73094
11
5.64464
21
-3.72773
0
LINE
8
BLACK
6
CONTINUOUS
10
5.64464
20
-3.72773
11
5.6487
21
-3.72574
0
LINE
8
BLACK
6
CONTINUOUS
10
5.6487
20
-3.72574
11
5.65266
21
-3.72516
0
LINE
8
BLACK
6
CONTINUOUS
10
5.65266
20
-3.72516
11
5.69301
21
-3.72516
0
LINE
8
BLACK
6
CONTINUOUS
10
5.69301
20
-3.72516
11
5.69695
21
-3.72573
0
LINE
8
BLACK
6
CONTINUOUS
10
5.78652
20
-3.72573
11
5.79058
21
-3.72772
0
LINE
8
BLACK
6
CONTINUOUS
10
5.79058
20
-3.72772
11
5.79378
21
-3.73092
0
LINE
8
BLACK
6
CONTINUOUS
10
5.79378
20
-3.73092
11
5.79578
21
-3.73498
0
LINE
8
BLACK
6
CONTINUOUS
10
5.79578
20
-3.73498
11
5.79636
21
-3.73894
0
LINE
8
BLACK
6
CONTINUOUS
10
5.79636
20
-3.73894
11
5.79636
21
-3.75075
0
LINE
8
BLACK
6
CONTINUOUS
10
5.79636
20
-3.75075
11
5.79578
21
-3.75468
0
LINE
8
BLACK
6
CONTINUOUS
10
5.79578
20
-3.75468
11
5.7938
21
-3.75875
0
LINE
8
BLACK
6
CONTINUOUS
10
5.7938
20
-3.75875
11
5.7906
21
-3.76195
0
LINE
8
BLACK
6
CONTINUOUS
10
5.7906
20
-3.76195
11
5.78736
21
-3.76354
0
LINE
8
BLACK
6
CONTINUOUS
10
5.78736
20
-3.76354
11
5.79058
21
-3.76512
0
LINE
8
BLACK
6
CONTINUOUS
10
5.79058
20
-3.76512
11
5.79378
21
-3.76832
0
LINE
8
BLACK
6
CONTINUOUS
10
5.79378
20
-3.76832
11
5.79578
21
-3.77238
0
LINE
8
BLACK
6
CONTINUOUS
10
5.79578
20
-3.77238
11
5.79636
21
-3.77634
0
LINE
8
BLACK
6
CONTINUOUS
10
5.79636
20
-3.77634
11
5.79636
21
-3.78815
0
LINE
8
BLACK
6
CONTINUOUS
10
5.79636
20
-3.78815
11
5.79578
21
-3.79209
0
LINE
8
BLACK
6
CONTINUOUS
10
5.79578
20
-3.79209
11
5.7938
21
-3.79615
0
LINE
8
BLACK
6
CONTINUOUS
10
5.7938
20
-3.79615
11
5.7906
21
-3.79935
0
LINE
8
BLACK
6
CONTINUOUS
10
5.7906
20
-3.79935
11
5.78736
21
-3.80095
0
LINE
8
BLACK
6
CONTINUOUS
10
5.78736
20
-3.80095
11
5.79058
21
-3.80252
0
LINE
8
BLACK
6
CONTINUOUS
10
5.79058
20
-3.80252
11
5.79378
21
-3.80572
0
LINE
8
BLACK
6
CONTINUOUS
10
5.79378
20
-3.80572
11
5.79578
21
-3.80978
0
LINE
8
BLACK
6
CONTINUOUS
10
5.79578
20
-3.80978
11
5.79636
21
-3.81374
0
LINE
8
BLACK
6
CONTINUOUS
10
5.79636
20
-3.81374
11
5.79636
21
-3.82555
0
LINE
8
BLACK
6
CONTINUOUS
10
5.79636
20
-3.82555
11
5.79578
21
-3.82949
0
LINE
8
BLACK
6
CONTINUOUS
10
5.79578
20
-3.82949
11
5.7938
21
-3.83355
0
LINE
8
BLACK
6
CONTINUOUS
10
5.7938
20
-3.83355
11
5.7906
21
-3.83676
0
LINE
8
BLACK
6
CONTINUOUS
10
5.7906
20
-3.83676
11
5.78654
21
-3.83875
0
LINE
8
BLACK
6
CONTINUOUS
10
5.78654
20
-3.83875
11
5.78258
21
-3.83933
0
LINE
8
BLACK
6
CONTINUOUS
10
5.78258
20
-3.83933
11
5.74222
21
-3.83933
0
LINE
8
BLACK
6
CONTINUOUS
10
5.74222
20
-3.83933
11
5.73829
21
-3.83876
0
LINE
8
BLACK
6
CONTINUOUS
10
5.73829
20
-3.83876
11
5.73422
21
-3.83677
0
LINE
8
BLACK
6
CONTINUOUS
10
5.73422
20
-3.83677
11
5.73102
21
-3.83357
0
LINE
8
BLACK
6
CONTINUOUS
10
5.73102
20
-3.83357
11
5.72903
21
-3.82951
0
LINE
8
BLACK
6
CONTINUOUS
10
5.72903
20
-3.82951
11
5.72844
21
-3.82555
0
LINE
8
BLACK
6
CONTINUOUS
10
5.72844
20
-3.82555
11
5.72844
21
-3.81374
0
LINE
8
BLACK
6
CONTINUOUS
10
5.72844
20
-3.81374
11
5.72902
21
-3.8098
0
LINE
8
BLACK
6
CONTINUOUS
10
5.72902
20
-3.8098
11
5.73101
21
-3.80574
0
LINE
8
BLACK
6
CONTINUOUS
10
5.73101
20
-3.80574
11
5.7342
21
-3.80254
0
LINE
8
BLACK
6
CONTINUOUS
10
5.7342
20
-3.80254
11
5.73745
21
-3.80094
0
LINE
8
BLACK
6
CONTINUOUS
10
5.73745
20
-3.80094
11
5.73422
21
-3.79937
0
LINE
8
BLACK
6
CONTINUOUS
10
5.73422
20
-3.79937
11
5.73102
21
-3.79617
0
LINE
8
BLACK
6
CONTINUOUS
10
5.73102
20
-3.79617
11
5.72903
21
-3.79211
0
LINE
8
BLACK
6
CONTINUOUS
10
5.72903
20
-3.79211
11
5.72844
21
-3.78815
0
LINE
8
BLACK
6
CONTINUOUS
10
5.72844
20
-3.78815
11
5.72844
21
-3.77634
0
LINE
8
BLACK
6
CONTINUOUS
10
5.72844
20
-3.77634
11
5.72902
21
-3.7724
0
LINE
8
BLACK
6
CONTINUOUS
10
5.72902
20
-3.7724
11
5.73101
21
-3.76834
0
LINE
8
BLACK
6
CONTINUOUS
10
5.73101
20
-3.76834
11
5.7342
21
-3.76513
0
LINE
8
BLACK
6
CONTINUOUS
10
5.7342
20
-3.76513
11
5.73745
21
-3.76354
0
LINE
8
BLACK
6
CONTINUOUS
10
5.73745
20
-3.76354
11
5.73422
21
-3.76197
0
LINE
8
BLACK
6
CONTINUOUS
10
5.73422
20
-3.76197
11
5.73102
21
-3.75877
0
LINE
8
BLACK
6
CONTINUOUS
10
5.73102
20
-3.75877
11
5.72903
21
-3.75471
0
LINE
8
BLACK
6
CONTINUOUS
10
5.72903
20
-3.75471
11
5.72844
21
-3.75075
0
LINE
8
BLACK
6
CONTINUOUS
10
5.72844
20
-3.75075
11
5.72844
21
-3.73894
0
LINE
8
BLACK
6
CONTINUOUS
10
5.72844
20
-3.73894
11
5.72902
21
-3.735
0
LINE
8
BLACK
6
CONTINUOUS
10
5.72902
20
-3.735
11
5.73101
21
-3.73094
0
LINE
8
BLACK
6
CONTINUOUS
10
5.73101
20
-3.73094
11
5.7342
21
-3.72773
0
LINE
8
BLACK
6
CONTINUOUS
10
5.7342
20
-3.72773
11
5.73826
21
-3.72574
0
LINE
8
BLACK
6
CONTINUOUS
10
5.73826
20
-3.72574
11
5.74222
21
-3.72516
0
LINE
8
BLACK
6
CONTINUOUS
10
5.74222
20
-3.72516
11
5.78258
21
-3.72516
0
LINE
8
BLACK
6
CONTINUOUS
10
5.78258
20
-3.72516
11
5.78652
21
-3.72573
0
LINE
8
BLACK
6
CONTINUOUS
10
5.18291
20
-3.74747
11
5.18547
21
-3.74918
0
LINE
8
BLACK
6
CONTINUOUS
10
5.18547
20
-3.74918
11
5.18718
21
-3.75173
0
LINE
8
BLACK
6
CONTINUOUS
10
5.18718
20
-3.75173
11
5.18778
21
-3.75474
0
LINE
8
BLACK
6
CONTINUOUS
10
5.18778
20
-3.75474
11
5.18778
21
-3.80974
0
LINE
8
BLACK
6
CONTINUOUS
10
5.18778
20
-3.80974
11
5.18718
21
-3.81276
0
LINE
8
BLACK
6
CONTINUOUS
10
5.18718
20
-3.81276
11
5.18547
21
-3.81531
0
LINE
8
BLACK
6
CONTINUOUS
10
5.18547
20
-3.81531
11
5.18291
21
-3.81702
0
LINE
8
BLACK
6
CONTINUOUS
10
5.18291
20
-3.81702
11
5.1799
21
-3.81762
0
LINE
8
BLACK
6
CONTINUOUS
10
5.1799
20
-3.81762
11
5.1449
21
-3.81762
0
LINE
8
BLACK
6
CONTINUOUS
10
5.1449
20
-3.81762
11
5.14189
21
-3.81702
0
LINE
8
BLACK
6
CONTINUOUS
10
5.14189
20
-3.81702
11
5.13933
21
-3.81531
0
LINE
8
BLACK
6
CONTINUOUS
10
5.13933
20
-3.81531
11
5.13763
21
-3.81276
0
LINE
8
BLACK
6
CONTINUOUS
10
5.13763
20
-3.81276
11
5.13703
21
-3.80974
0
LINE
8
BLACK
6
CONTINUOUS
10
5.13703
20
-3.80974
11
5.13703
21
-3.75474
0
LINE
8
BLACK
6
CONTINUOUS
10
5.13703
20
-3.75474
11
5.13763
21
-3.75173
0
LINE
8
BLACK
6
CONTINUOUS
10
5.13763
20
-3.75173
11
5.13933
21
-3.74918
0
LINE
8
BLACK
6
CONTINUOUS
10
5.13933
20
-3.74918
11
5.14189
21
-3.74747
0
LINE
8
BLACK
6
CONTINUOUS
10
5.14189
20
-3.74747
11
5.1449
21
-3.74687
0
LINE
8
BLACK
6
CONTINUOUS
10
5.1449
20
-3.74687
11
5.1799
21
-3.74687
0
LINE
8
BLACK
6
CONTINUOUS
10
5.1799
20
-3.74687
11
5.18291
21
-3.74747
0
LINE
8
BLACK
6
CONTINUOUS
10
5.25791
20
-3.74747
11
5.26047
21
-3.74918
0
LINE
8
BLACK
6
CONTINUOUS
10
5.26047
20
-3.74918
11
5.26218
21
-3.75173
0
LINE
8
BLACK
6
CONTINUOUS
10
5.26218
20
-3.75173
11
5.26278
21
-3.75474
0
LINE
8
BLACK
6
CONTINUOUS
10
5.26278
20
-3.75474
11
5.26278
21
-3.80974
0
LINE
8
BLACK
6
CONTINUOUS
10
5.26278
20
-3.80974
11
5.26218
21
-3.81276
0
LINE
8
BLACK
6
CONTINUOUS
10
5.26218
20
-3.81276
11
5.26047
21
-3.81531
0
LINE
8
BLACK
6
CONTINUOUS
10
5.26047
20
-3.81531
11
5.25791
21
-3.81702
0
LINE
8
BLACK
6
CONTINUOUS
10
5.25791
20
-3.81702
11
5.2549
21
-3.81762
0
LINE
8
BLACK
6
CONTINUOUS
10
5.2549
20
-3.81762
11
5.2199
21
-3.81762
0
LINE
8
BLACK
6
CONTINUOUS
10
5.2199
20
-3.81762
11
5.21689
21
-3.81702
0
LINE
8
BLACK
6
CONTINUOUS
10
5.21689
20
-3.81702
11
5.21433
21
-3.81531
0
LINE
8
BLACK
6
CONTINUOUS
10
5.21433
20
-3.81531
11
5.21263
21
-3.81276
0
LINE
8
BLACK
6
CONTINUOUS
10
5.21263
20
-3.81276
11
5.21203
21
-3.80974
0
LINE
8
BLACK
6
CONTINUOUS
10
5.21203
20
-3.80974
11
5.21203
21
-3.75474
0
LINE
8
BLACK
6
CONTINUOUS
10
5.21203
20
-3.75474
11
5.21263
21
-3.75173
0
LINE
8
BLACK
6
CONTINUOUS
10
5.21263
20
-3.75173
11
5.21433
21
-3.74918
0
LINE
8
BLACK
6
CONTINUOUS
10
5.21433
20
-3.74918
11
5.21689
21
-3.74747
0
LINE
8
BLACK
6
CONTINUOUS
10
5.21689
20
-3.74747
11
5.2199
21
-3.74687
0
LINE
8
BLACK
6
CONTINUOUS
10
5.2199
20
-3.74687
11
5.2549
21
-3.74687
0
LINE
8
BLACK
6
CONTINUOUS
10
5.2549
20
-3.74687
11
5.25791
21
-3.74747
0
LINE
8
BLACK
6
CONTINUOUS
10
5.92291
20
-3.75747
11
5.92547
21
-3.75918
0
LINE
8
BLACK
6
CONTINUOUS
10
5.92547
20
-3.75918
11
5.92718
21
-3.76173
0
LINE
8
BLACK
6
CONTINUOUS
10
5.92718
20
-3.76173
11
5.92778
21
-3.76474
0
LINE
8
BLACK
6
CONTINUOUS
10
5.92778
20
-3.76474
11
5.92778
21
-3.79974
0
LINE
8
BLACK
6
CONTINUOUS
10
5.92778
20
-3.79974
11
5.92718
21
-3.80276
0
LINE
8
BLACK
6
CONTINUOUS
10
5.92718
20
-3.80276
11
5.92547
21
-3.80531
0
LINE
8
BLACK
6
CONTINUOUS
10
5.92547
20
-3.80531
11
5.92291
21
-3.80702
0
LINE
8
BLACK
6
CONTINUOUS
10
5.92291
20
-3.80702
11
5.9199
21
-3.80762
0
LINE
8
BLACK
6
CONTINUOUS
10
5.9199
20
-3.80762
11
5.8649
21
-3.80762
0
LINE
8
BLACK
6
CONTINUOUS
10
5.8649
20
-3.80762
11
5.86189
21
-3.80702
0
LINE
8
BLACK
6
CONTINUOUS
10
5.86189
20
-3.80702
11
5.85933
21
-3.80531
0
LINE
8
BLACK
6
CONTINUOUS
10
5.85933
20
-3.80531
11
5.85763
21
-3.80276
0
LINE
8
BLACK
6
CONTINUOUS
10
5.85763
20
-3.80276
11
5.85703
21
-3.79974
0
LINE
8
BLACK
6
CONTINUOUS
10
5.85703
20
-3.79974
11
5.85703
21
-3.76474
0
LINE
8
BLACK
6
CONTINUOUS
10
5.85703
20
-3.76474
11
5.85763
21
-3.76173
0
LINE
8
BLACK
6
CONTINUOUS
10
5.85763
20
-3.76173
11
5.85933
21
-3.75918
0
LINE
8
BLACK
6
CONTINUOUS
10
5.85933
20
-3.75918
11
5.86189
21
-3.75747
0
LINE
8
BLACK
6
CONTINUOUS
10
5.86189
20
-3.75747
11
5.8649
21
-3.75687
0
LINE
8
BLACK
6
CONTINUOUS
10
5.8649
20
-3.75687
11
5.9199
21
-3.75687
0
LINE
8
BLACK
6
CONTINUOUS
10
5.9199
20
-3.75687
11
5.92291
21
-3.75747
0
LINE
8
BLACK
6
CONTINUOUS
10
5.49898
20
-3.6502
11
5.50954
21
-3.65265
0
LINE
8
BLACK
6
CONTINUOUS
10
5.50954
20
-3.65265
11
5.51966
21
-3.65656
0
LINE
8
BLACK
6
CONTINUOUS
10
5.51966
20
-3.65656
11
5.52912
21
-3.66186
0
LINE
8
BLACK
6
CONTINUOUS
10
5.52912
20
-3.66186
11
5.53774
21
-3.66844
0
LINE
8
BLACK
6
CONTINUOUS
10
5.53774
20
-3.66844
11
5.54535
21
-3.67616
0
LINE
8
BLACK
6
CONTINUOUS
10
5.54535
20
-3.67616
11
5.55179
21
-3.68489
0
LINE
8
BLACK
6
CONTINUOUS
10
5.55179
20
-3.68489
11
5.55694
21
-3.69443
0
LINE
8
BLACK
6
CONTINUOUS
10
5.55694
20
-3.69443
11
5.56069
21
-3.7046
0
LINE
8
BLACK
6
CONTINUOUS
10
5.56069
20
-3.7046
11
5.56297
21
-3.71521
0
LINE
8
BLACK
6
CONTINUOUS
10
5.56297
20
-3.71521
11
5.56374
21
-3.72602
0
LINE
8
BLACK
6
CONTINUOUS
10
5.56374
20
-3.72602
11
5.56359
21
-3.73084
0
LINE
8
BLACK
6
CONTINUOUS
10
5.56359
20
-3.73084
11
5.56215
21
-3.74159
0
LINE
8
BLACK
6
CONTINUOUS
10
5.56215
20
-3.74159
11
5.5592
21
-3.75203
0
LINE
8
BLACK
6
CONTINUOUS
10
5.5592
20
-3.75203
11
5.55482
21
-3.76195
0
LINE
8
BLACK
6
CONTINUOUS
10
5.55482
20
-3.76195
11
5.54908
21
-3.77115
0
LINE
8
BLACK
6
CONTINUOUS
10
5.54908
20
-3.77115
11
5.5421
21
-3.77945
0
LINE
8
BLACK
6
CONTINUOUS
10
5.5421
20
-3.77945
11
5.53402
21
-3.78669
0
LINE
8
BLACK
6
CONTINUOUS
10
5.53402
20
-3.78669
11
5.52501
21
-3.79271
0
LINE
8
BLACK
6
CONTINUOUS
10
5.52501
20
-3.79271
11
5.51523
21
-3.7974
0
LINE
8
BLACK
6
CONTINUOUS
10
5.51523
20
-3.7974
11
5.50489
21
-3.80067
0
LINE
8
BLACK
6
CONTINUOUS
10
5.50489
20
-3.80067
11
5.49419
21
-3.80245
0
LINE
8
BLACK
6
CONTINUOUS
10
5.49419
20
-3.80245
11
5.48335
21
-3.80271
0
LINE
8
BLACK
6
CONTINUOUS
10
5.48335
20
-3.80271
11
5.47258
21
-3.80144
0
LINE
8
BLACK
6
CONTINUOUS
10
5.47258
20
-3.80144
11
5.4621
21
-3.79866
0
LINE
8
BLACK
6
CONTINUOUS
10
5.4621
20
-3.79866
11
5.45211
21
-3.79443
0
LINE
8
BLACK
6
CONTINUOUS
10
5.45211
20
-3.79443
11
5.44282
21
-3.78883
0
LINE
8
BLACK
6
CONTINUOUS
10
5.44282
20
-3.78883
11
5.43441
21
-3.78199
0
LINE
8
BLACK
6
CONTINUOUS
10
5.43441
20
-3.78199
11
5.42705
21
-3.77402
0
LINE
8
BLACK
6
CONTINUOUS
10
5.42705
20
-3.77402
11
5.42089
21
-3.7651
0
LINE
8
BLACK
6
CONTINUOUS
10
5.42089
20
-3.7651
11
5.41604
21
-3.7554
0
LINE
8
BLACK
6
CONTINUOUS
10
5.41604
20
-3.7554
11
5.41261
21
-3.74512
0
LINE
8
BLACK
6
CONTINUOUS
10
5.41261
20
-3.74512
11
5.41066
21
-3.73445
0
LINE
8
BLACK
6
CONTINUOUS
10
5.41066
20
-3.73445
11
5.41023
21
-3.72361
0
LINE
8
BLACK
6
CONTINUOUS
10
5.41023
20
-3.72361
11
5.41134
21
-3.71282
0
LINE
8
BLACK
6
CONTINUOUS
10
5.41134
20
-3.71282
11
5.41395
21
-3.7023
0
LINE
8
BLACK
6
CONTINUOUS
10
5.41395
20
-3.7023
11
5.41803
21
-3.69225
0
LINE
8
BLACK
6
CONTINUOUS
10
5.41803
20
-3.69225
11
5.42347
21
-3.68287
0
LINE
8
BLACK
6
CONTINUOUS
10
5.42347
20
-3.68287
11
5.43019
21
-3.67436
0
LINE
8
BLACK
6
CONTINUOUS
10
5.43019
20
-3.67436
11
5.43803
21
-3.66687
0
LINE
8
BLACK
6
CONTINUOUS
10
5.43803
20
-3.66687
11
5.44686
21
-3.66057
0
LINE
8
BLACK
6
CONTINUOUS
10
5.44686
20
-3.66057
11
5.45648
21
-3.65557
0
LINE
8
BLACK
6
CONTINUOUS
10
5.45648
20
-3.65557
11
5.46671
21
-3.65197
0
LINE
8
BLACK
6
CONTINUOUS
10
5.46671
20
-3.65197
11
5.47735
21
-3.64986
0
LINE
8
BLACK
6
CONTINUOUS
10
5.47735
20
-3.64986
11
5.48817
21
-3.64926
0
LINE
8
BLACK
6
CONTINUOUS
10
5.48817
20
-3.64926
11
5.49898
21
-3.6502
0
LINE
8
BLACK
6
CONTINUOUS
10
6.44541
20
-3.71997
11
6.44797
21
-3.72168
0
LINE
8
BLACK
6
CONTINUOUS
10
6.44797
20
-3.72168
11
6.44968
21
-3.72423
0
LINE
8
BLACK
6
CONTINUOUS
10
6.44968
20
-3.72423
11
6.45028
21
-3.72724
0
LINE
8
BLACK
6
CONTINUOUS
10
6.45028
20
-3.72724
11
6.45028
21
-3.78724
0
LINE
8
BLACK
6
CONTINUOUS
10
6.45028
20
-3.78724
11
6.44968
21
-3.79026
0
LINE
8
BLACK
6
CONTINUOUS
10
6.44968
20
-3.79026
11
6.44797
21
-3.79281
0
LINE
8
BLACK
6
CONTINUOUS
10
6.44797
20
-3.79281
11
6.44541
21
-3.79452
0
LINE
8
BLACK
6
CONTINUOUS
10
6.44541
20
-3.79452
11
6.4424
21
-3.79512
0
LINE
8
BLACK
6
CONTINUOUS
10
6.4424
20
-3.79512
11
6.3824
21
-3.79512
0
LINE
8
BLACK
6
CONTINUOUS
10
6.3824
20
-3.79512
11
6.37939
21
-3.79452
0
LINE
8
BLACK
6
CONTINUOUS
10
6.37939
20
-3.79452
11
6.37683
21
-3.79281
0
LINE
8
BLACK
6
CONTINUOUS
10
6.37683
20
-3.79281
11
6.37513
21
-3.79026
0
LINE
8
BLACK
6
CONTINUOUS
10
6.37513
20
-3.79026
11
6.37453
21
-3.78724
0
LINE
8
BLACK
6
CONTINUOUS
10
6.37453
20
-3.78724
11
6.37453
21
-3.72724
0
LINE
8
BLACK
6
CONTINUOUS
10
6.37453
20
-3.72724
11
6.37513
21
-3.72423
0
LINE
8
BLACK
6
CONTINUOUS
10
6.37513
20
-3.72423
11
6.37683
21
-3.72168
0
LINE
8
BLACK
6
CONTINUOUS
10
6.37683
20
-3.72168
11
6.37939
21
-3.71997
0
LINE
8
BLACK
6
CONTINUOUS
10
6.37939
20
-3.71997
11
6.3824
21
-3.71937
0
LINE
8
BLACK
6
CONTINUOUS
10
6.3824
20
-3.71937
11
6.4424
21
-3.71937
0
LINE
8
BLACK
6
CONTINUOUS
10
6.4424
20
-3.71937
11
6.44541
21
-3.71997
0
LINE
8
BLACK
6
CONTINUOUS
10
6.54541
20
-3.71997
11
6.54797
21
-3.72168
0
LINE
8
BLACK
6
CONTINUOUS
10
6.54797
20
-3.72168
11
6.54968
21
-3.72423
0
LINE
8
BLACK
6
CONTINUOUS
10
6.54968
20
-3.72423
11
6.55028
21
-3.72724
0
LINE
8
BLACK
6
CONTINUOUS
10
6.55028
20
-3.72724
11
6.55028
21
-3.78724
0
LINE
8
BLACK
6
CONTINUOUS
10
6.55028
20
-3.78724
11
6.54968
21
-3.79026
0
LINE
8
BLACK
6
CONTINUOUS
10
6.54968
20
-3.79026
11
6.54797
21
-3.79281
0
LINE
8
BLACK
6
CONTINUOUS
10
6.54797
20
-3.79281
11
6.54541
21
-3.79452
0
LINE
8
BLACK
6
CONTINUOUS
10
6.54541
20
-3.79452
11
6.5424
21
-3.79512
0
LINE
8
BLACK
6
CONTINUOUS
10
6.5424
20
-3.79512
11
6.4824
21
-3.79512
0
LINE
8
BLACK
6
CONTINUOUS
10
6.4824
20
-3.79512
11
6.47939
21
-3.79452
0
LINE
8
BLACK
6
CONTINUOUS
10
6.47939
20
-3.79452
11
6.47683
21
-3.79281
0
LINE
8
BLACK
6
CONTINUOUS
10
6.47683
20
-3.79281
11
6.47513
21
-3.79026
0
LINE
8
BLACK
6
CONTINUOUS
10
6.47513
20
-3.79026
11
6.47453
21
-3.78724
0
LINE
8
BLACK
6
CONTINUOUS
10
6.47453
20
-3.78724
11
6.47453
21
-3.72724
0
LINE
8
BLACK
6
CONTINUOUS
10
6.47453
20
-3.72724
11
6.47513
21
-3.72423
0
LINE
8
BLACK
6
CONTINUOUS
10
6.47513
20
-3.72423
11
6.47683
21
-3.72168
0
LINE
8
BLACK
6
CONTINUOUS
10
6.47683
20
-3.72168
11
6.47939
21
-3.71997
0
LINE
8
BLACK
6
CONTINUOUS
10
6.47939
20
-3.71997
11
6.4824
21
-3.71937
0
LINE
8
BLACK
6
CONTINUOUS
10
6.4824
20
-3.71937
11
6.5424
21
-3.71937
0
LINE
8
BLACK
6
CONTINUOUS
10
6.5424
20
-3.71937
11
6.54541
21
-3.71997
0
LINE
8
BLACK
6
CONTINUOUS
10
6.26791
20
-3.67747
11
6.27047
21
-3.67918
0
LINE
8
BLACK
6
CONTINUOUS
10
6.27047
20
-3.67918
11
6.27218
21
-3.68173
0
LINE
8
BLACK
6
CONTINUOUS
10
6.27218
20
-3.68173
11
6.27278
21
-3.68474
0
LINE
8
BLACK
6
CONTINUOUS
10
6.27278
20
-3.68474
11
6.27278
21
-3.73974
0
LINE
8
BLACK
6
CONTINUOUS
10
6.27278
20
-3.73974
11
6.27218
21
-3.74276
0
LINE
8
BLACK
6
CONTINUOUS
10
6.27218
20
-3.74276
11
6.27047
21
-3.74531
0
LINE
8
BLACK
6
CONTINUOUS
10
6.27047
20
-3.74531
11
6.26791
21
-3.74702
0
LINE
8
BLACK
6
CONTINUOUS
10
6.26791
20
-3.74702
11
6.2649
21
-3.74762
0
LINE
8
BLACK
6
CONTINUOUS
10
6.2649
20
-3.74762
11
6.2299
21
-3.74762
0
LINE
8
BLACK
6
CONTINUOUS
10
6.2299
20
-3.74762
11
6.22689
21
-3.74702
0
LINE
8
BLACK
6
CONTINUOUS
10
6.22689
20
-3.74702
11
6.22433
21
-3.74531
0
LINE
8
BLACK
6
CONTINUOUS
10
6.22433
20
-3.74531
11
6.22263
21
-3.74276
0
LINE
8
BLACK
6
CONTINUOUS
10
6.22263
20
-3.74276
11
6.22203
21
-3.73974
0
LINE
8
BLACK
6
CONTINUOUS
10
6.22203
20
-3.73974
11
6.22203
21
-3.68474
0
LINE
8
BLACK
6
CONTINUOUS
10
6.22203
20
-3.68474
11
6.22263
21
-3.68173
0
LINE
8
BLACK
6
CONTINUOUS
10
6.22263
20
-3.68173
11
6.22433
21
-3.67918
0
LINE
8
BLACK
6
CONTINUOUS
10
6.22433
20
-3.67918
11
6.22689
21
-3.67747
0
LINE
8
BLACK
6
CONTINUOUS
10
6.22689
20
-3.67747
11
6.2299
21
-3.67687
0
LINE
8
BLACK
6
CONTINUOUS
10
6.2299
20
-3.67687
11
6.2649
21
-3.67687
0
LINE
8
BLACK
6
CONTINUOUS
10
6.2649
20
-3.67687
11
6.26791
21
-3.67747
0
LINE
8
BLACK
6
CONTINUOUS
10
5.98791
20
-3.67747
11
5.99047
21
-3.67918
0
LINE
8
BLACK
6
CONTINUOUS
10
5.99047
20
-3.67918
11
5.99218
21
-3.68173
0
LINE
8
BLACK
6
CONTINUOUS
10
5.99218
20
-3.68173
11
5.99278
21
-3.68474
0
LINE
8
BLACK
6
CONTINUOUS
10
5.99278
20
-3.68474
11
5.99278
21
-3.73974
0
LINE
8
BLACK
6
CONTINUOUS
10
5.99278
20
-3.73974
11
5.99218
21
-3.74276
0
LINE
8
BLACK
6
CONTINUOUS
10
5.99218
20
-3.74276
11
5.99047
21
-3.74531
0
LINE
8
BLACK
6
CONTINUOUS
10
5.99047
20
-3.74531
11
5.98791
21
-3.74702
0
LINE
8
BLACK
6
CONTINUOUS
10
5.98791
20
-3.74702
11
5.9849
21
-3.74762
0
LINE
8
BLACK
6
CONTINUOUS
10
5.9849
20
-3.74762
11
5.9499
21
-3.74762
0
LINE
8
BLACK
6
CONTINUOUS
10
5.9499
20
-3.74762
11
5.94689
21
-3.74702
0
LINE
8
BLACK
6
CONTINUOUS
10
5.94689
20
-3.74702
11
5.94433
21
-3.74531
0
LINE
8
BLACK
6
CONTINUOUS
10
5.94433
20
-3.74531
11
5.94263
21
-3.74276
0
LINE
8
BLACK
6
CONTINUOUS
10
5.94263
20
-3.74276
11
5.94203
21
-3.73974
0
LINE
8
BLACK
6
CONTINUOUS
10
5.94203
20
-3.73974
11
5.94203
21
-3.68474
0
LINE
8
BLACK
6
CONTINUOUS
10
5.94203
20
-3.68474
11
5.94263
21
-3.68173
0
LINE
8
BLACK
6
CONTINUOUS
10
5.94263
20
-3.68173
11
5.94433
21
-3.67918
0
LINE
8
BLACK
6
CONTINUOUS
10
5.94433
20
-3.67918
11
5.94689
21
-3.67747
0
LINE
8
BLACK
6
CONTINUOUS
10
5.94689
20
-3.67747
11
5.9499
21
-3.67687
0
LINE
8
BLACK
6
CONTINUOUS
10
5.9499
20
-3.67687
11
5.9849
21
-3.67687
0
LINE
8
BLACK
6
CONTINUOUS
10
5.9849
20
-3.67687
11
5.98791
21
-3.67747
0
LINE
8
BLACK
6
CONTINUOUS
10
6.06291
20
-3.67747
11
6.06547
21
-3.67918
0
LINE
8
BLACK
6
CONTINUOUS
10
6.06547
20
-3.67918
11
6.06718
21
-3.68173
0
LINE
8
BLACK
6
CONTINUOUS
10
6.06718
20
-3.68173
11
6.06778
21
-3.68474
0
LINE
8
BLACK
6
CONTINUOUS
10
6.06778
20
-3.68474
11
6.06778
21
-3.73974
0
LINE
8
BLACK
6
CONTINUOUS
10
6.06778
20
-3.73974
11
6.06718
21
-3.74276
0
LINE
8
BLACK
6
CONTINUOUS
10
6.06718
20
-3.74276
11
6.06547
21
-3.74531
0
LINE
8
BLACK
6
CONTINUOUS
10
6.06547
20
-3.74531
11
6.06291
21
-3.74702
0
LINE
8
BLACK
6
CONTINUOUS
10
6.06291
20
-3.74702
11
6.0599
21
-3.74762
0
LINE
8
BLACK
6
CONTINUOUS
10
6.0599
20
-3.74762
11
6.0249
21
-3.74762
0
LINE
8
BLACK
6
CONTINUOUS
10
6.0249
20
-3.74762
11
6.02189
21
-3.74702
0
LINE
8
BLACK
6
CONTINUOUS
10
6.02189
20
-3.74702
11
6.01933
21
-3.74531
0
LINE
8
BLACK
6
CONTINUOUS
10
6.01933
20
-3.74531
11
6.01763
21
-3.74276
0
LINE
8
BLACK
6
CONTINUOUS
10
6.01763
20
-3.74276
11
6.01703
21
-3.73974
0
LINE
8
BLACK
6
CONTINUOUS
10
6.01703
20
-3.73974
11
6.01703
21
-3.68474
0
LINE
8
BLACK
6
CONTINUOUS
10
6.01703
20
-3.68474
11
6.01763
21
-3.68173
0
LINE
8
BLACK
6
CONTINUOUS
10
6.01763
20
-3.68173
11
6.01933
21
-3.67918
0
LINE
8
BLACK
6
CONTINUOUS
10
6.01933
20
-3.67918
11
6.02189
21
-3.67747
0
LINE
8
BLACK
6
CONTINUOUS
10
6.02189
20
-3.67747
11
6.0249
21
-3.67687
0
LINE
8
BLACK
6
CONTINUOUS
10
6.0249
20
-3.67687
11
6.0599
21
-3.67687
0
LINE
8
BLACK
6
CONTINUOUS
10
6.0599
20
-3.67687
11
6.06291
21
-3.67747
0
LINE
8
BLACK
6
CONTINUOUS
10
6.20291
20
-3.67747
11
6.20547
21
-3.67918
0
LINE
8
BLACK
6
CONTINUOUS
10
6.20547
20
-3.67918
11
6.20718
21
-3.68173
0
LINE
8
BLACK
6
CONTINUOUS
10
6.20718
20
-3.68173
11
6.20778
21
-3.68474
0
LINE
8
BLACK
6
CONTINUOUS
10
6.20778
20
-3.68474
11
6.20778
21
-3.73974
0
LINE
8
BLACK
6
CONTINUOUS
10
6.20778
20
-3.73974
11
6.20718
21
-3.74276
0
LINE
8
BLACK
6
CONTINUOUS
10
6.20718
20
-3.74276
11
6.20547
21
-3.74531
0
LINE
8
BLACK
6
CONTINUOUS
10
6.20547
20
-3.74531
11
6.20291
21
-3.74702
0
LINE
8
BLACK
6
CONTINUOUS
10
6.20291
20
-3.74702
11
6.1999
21
-3.74762
0
LINE
8
BLACK
6
CONTINUOUS
10
6.1999
20
-3.74762
11
6.1649
21
-3.74762
0
LINE
8
BLACK
6
CONTINUOUS
10
6.1649
20
-3.74762
11
6.16189
21
-3.74702
0
LINE
8
BLACK
6
CONTINUOUS
10
6.16189
20
-3.74702
11
6.15933
21
-3.74531
0
LINE
8
BLACK
6
CONTINUOUS
10
6.15933
20
-3.74531
11
6.15763
21
-3.74276
0
LINE
8
BLACK
6
CONTINUOUS
10
6.15763
20
-3.74276
11
6.15703
21
-3.73974
0
LINE
8
BLACK
6
CONTINUOUS
10
6.15703
20
-3.73974
11
6.15703
21
-3.68474
0
LINE
8
BLACK
6
CONTINUOUS
10
6.15703
20
-3.68474
11
6.15763
21
-3.68173
0
LINE
8
BLACK
6
CONTINUOUS
10
6.15763
20
-3.68173
11
6.15933
21
-3.67918
0
LINE
8
BLACK
6
CONTINUOUS
10
6.15933
20
-3.67918
11
6.16189
21
-3.67747
0
LINE
8
BLACK
6
CONTINUOUS
10
6.16189
20
-3.67747
11
6.1649
21
-3.67687
0
LINE
8
BLACK
6
CONTINUOUS
10
6.1649
20
-3.67687
11
6.1999
21
-3.67687
0
LINE
8
BLACK
6
CONTINUOUS
10
6.1999
20
-3.67687
11
6.20291
21
-3.67747
0
LINE
8
BLACK
6
CONTINUOUS
10
6.12791
20
-3.67747
11
6.13047
21
-3.67918
0
LINE
8
BLACK
6
CONTINUOUS
10
6.13047
20
-3.67918
11
6.13218
21
-3.68173
0
LINE
8
BLACK
6
CONTINUOUS
10
6.13218
20
-3.68173
11
6.13278
21
-3.68474
0
LINE
8
BLACK
6
CONTINUOUS
10
6.13278
20
-3.68474
11
6.13278
21
-3.73974
0
LINE
8
BLACK
6
CONTINUOUS
10
6.13278
20
-3.73974
11
6.13218
21
-3.74276
0
LINE
8
BLACK
6
CONTINUOUS
10
6.13218
20
-3.74276
11
6.13047
21
-3.74531
0
LINE
8
BLACK
6
CONTINUOUS
10
6.13047
20
-3.74531
11
6.12791
21
-3.74702
0
LINE
8
BLACK
6
CONTINUOUS
10
6.12791
20
-3.74702
11
6.1249
21
-3.74762
0
LINE
8
BLACK
6
CONTINUOUS
10
6.1249
20
-3.74762
11
6.0899
21
-3.74762
0
LINE
8
BLACK
6
CONTINUOUS
10
6.0899
20
-3.74762
11
6.08689
21
-3.74702
0
LINE
8
BLACK
6
CONTINUOUS
10
6.08689
20
-3.74702
11
6.08433
21
-3.74531
0
LINE
8
BLACK
6
CONTINUOUS
10
6.08433
20
-3.74531
11
6.08263
21
-3.74276
0
LINE
8
BLACK
6
CONTINUOUS
10
6.08263
20
-3.74276
11
6.08203
21
-3.73974
0
LINE
8
BLACK
6
CONTINUOUS
10
6.08203
20
-3.73974
11
6.08203
21
-3.68474
0
LINE
8
BLACK
6
CONTINUOUS
10
6.08203
20
-3.68474
11
6.08263
21
-3.68173
0
LINE
8
BLACK
6
CONTINUOUS
10
6.08263
20
-3.68173
11
6.08433
21
-3.67918
0
LINE
8
BLACK
6
CONTINUOUS
10
6.08433
20
-3.67918
11
6.08689
21
-3.67747
0
LINE
8
BLACK
6
CONTINUOUS
10
6.08689
20
-3.67747
11
6.0899
21
-3.67687
0
LINE
8
BLACK
6
CONTINUOUS
10
6.0899
20
-3.67687
11
6.1249
21
-3.67687
0
LINE
8
BLACK
6
CONTINUOUS
10
6.1249
20
-3.67687
11
6.12791
21
-3.67747
0
LINE
8
BLACK
6
CONTINUOUS
10
6.34291
20
-3.67747
11
6.34547
21
-3.67918
0
LINE
8
BLACK
6
CONTINUOUS
10
6.34547
20
-3.67918
11
6.34718
21
-3.68173
0
LINE
8
BLACK
6
CONTINUOUS
10
6.34718
20
-3.68173
11
6.34778
21
-3.68474
0
LINE
8
BLACK
6
CONTINUOUS
10
6.34778
20
-3.68474
11
6.34778
21
-3.73974
0
LINE
8
BLACK
6
CONTINUOUS
10
6.34778
20
-3.73974
11
6.34718
21
-3.74276
0
LINE
8
BLACK
6
CONTINUOUS
10
6.34718
20
-3.74276
11
6.34547
21
-3.74531
0
LINE
8
BLACK
6
CONTINUOUS
10
6.34547
20
-3.74531
11
6.34291
21
-3.74702
0
LINE
8
BLACK
6
CONTINUOUS
10
6.34291
20
-3.74702
11
6.3399
21
-3.74762
0
LINE
8
BLACK
6
CONTINUOUS
10
6.3399
20
-3.74762
11
6.3049
21
-3.74762
0
LINE
8
BLACK
6
CONTINUOUS
10
6.3049
20
-3.74762
11
6.30189
21
-3.74702
0
LINE
8
BLACK
6
CONTINUOUS
10
6.30189
20
-3.74702
11
6.29933
21
-3.74531
0
LINE
8
BLACK
6
CONTINUOUS
10
6.29933
20
-3.74531
11
6.29763
21
-3.74276
0
LINE
8
BLACK
6
CONTINUOUS
10
6.29763
20
-3.74276
11
6.29703
21
-3.73974
0
LINE
8
BLACK
6
CONTINUOUS
10
6.29703
20
-3.73974
11
6.29703
21
-3.68474
0
LINE
8
BLACK
6
CONTINUOUS
10
6.29703
20
-3.68474
11
6.29763
21
-3.68173
0
LINE
8
BLACK
6
CONTINUOUS
10
6.29763
20
-3.68173
11
6.29933
21
-3.67918
0
LINE
8
BLACK
6
CONTINUOUS
10
6.29933
20
-3.67918
11
6.30189
21
-3.67747
0
LINE
8
BLACK
6
CONTINUOUS
10
6.30189
20
-3.67747
11
6.3049
21
-3.67687
0
LINE
8
BLACK
6
CONTINUOUS
10
6.3049
20
-3.67687
11
6.3399
21
-3.67687
0
LINE
8
BLACK
6
CONTINUOUS
10
6.3399
20
-3.67687
11
6.34291
21
-3.67747
0
LINE
8
BLACK
6
CONTINUOUS
10
5.92291
20
-3.68247
11
5.92547
21
-3.68418
0
LINE
8
BLACK
6
CONTINUOUS
10
5.92547
20
-3.68418
11
5.92718
21
-3.68673
0
LINE
8
BLACK
6
CONTINUOUS
10
5.92718
20
-3.68673
11
5.92778
21
-3.68974
0
LINE
8
BLACK
6
CONTINUOUS
10
5.92778
20
-3.68974
11
5.92778
21
-3.72474
0
LINE
8
BLACK
6
CONTINUOUS
10
5.92778
20
-3.72474
11
5.92718
21
-3.72776
0
LINE
8
BLACK
6
CONTINUOUS
10
5.92718
20
-3.72776
11
5.92547
21
-3.73031
0
LINE
8
BLACK
6
CONTINUOUS
10
5.92547
20
-3.73031
11
5.92291
21
-3.73202
0
LINE
8
BLACK
6
CONTINUOUS
10
5.92291
20
-3.73202
11
5.9199
21
-3.73262
0
LINE
8
BLACK
6
CONTINUOUS
10
5.9199
20
-3.73262
11
5.8649
21
-3.73262
0
LINE
8
BLACK
6
CONTINUOUS
10
5.8649
20
-3.73262
11
5.86189
21
-3.73202
0
LINE
8
BLACK
6
CONTINUOUS
10
5.86189
20
-3.73202
11
5.85933
21
-3.73031
0
LINE
8
BLACK
6
CONTINUOUS
10
5.85933
20
-3.73031
11
5.85763
21
-3.72776
0
LINE
8
BLACK
6
CONTINUOUS
10
5.85763
20
-3.72776
11
5.85703
21
-3.72474
0
LINE
8
BLACK
6
CONTINUOUS
10
5.85703
20
-3.72474
11
5.85703
21
-3.68974
0
LINE
8
BLACK
6
CONTINUOUS
10
5.85703
20
-3.68974
11
5.85763
21
-3.68673
0
LINE
8
BLACK
6
CONTINUOUS
10
5.85763
20
-3.68673
11
5.85933
21
-3.68418
0
LINE
8
BLACK
6
CONTINUOUS
10
5.85933
20
-3.68418
11
5.86189
21
-3.68247
0
LINE
8
BLACK
6
CONTINUOUS
10
5.86189
20
-3.68247
11
5.8649
21
-3.68187
0
LINE
8
BLACK
6
CONTINUOUS
10
5.8649
20
-3.68187
11
5.9199
21
-3.68187
0
LINE
8
BLACK
6
CONTINUOUS
10
5.9199
20
-3.68187
11
5.92291
21
-3.68247
0
LINE
8
BLACK
6
CONTINUOUS
10
5.27732
20
-3.43215
11
5.29117
21
-3.43459
0
LINE
8
BLACK
6
CONTINUOUS
10
5.29117
20
-3.43459
11
5.30466
21
-3.43856
0
LINE
8
BLACK
6
CONTINUOUS
10
5.30466
20
-3.43856
11
5.31763
21
-3.44401
0
LINE
8
BLACK
6
CONTINUOUS
10
5.31763
20
-3.44401
11
5.32991
21
-3.45087
0
LINE
8
BLACK
6
CONTINUOUS
10
5.32991
20
-3.45087
11
5.34134
21
-3.45906
0
LINE
8
BLACK
6
CONTINUOUS
10
5.34134
20
-3.45906
11
5.3518
21
-3.46847
0
LINE
8
BLACK
6
CONTINUOUS
10
5.3518
20
-3.46847
11
5.36113
21
-3.47899
0
LINE
8
BLACK
6
CONTINUOUS
10
5.36113
20
-3.47899
11
5.36924
21
-3.49048
0
LINE
8
BLACK
6
CONTINUOUS
10
5.36924
20
-3.49048
11
5.37602
21
-3.50281
0
LINE
8
BLACK
6
CONTINUOUS
10
5.37602
20
-3.50281
11
5.38138
21
-3.51581
0
LINE
8
BLACK
6
CONTINUOUS
10
5.38138
20
-3.51581
11
5.38526
21
-3.52933
0
LINE
8
BLACK
6
CONTINUOUS
10
5.38526
20
-3.52933
11
5.3876
21
-3.5432
0
LINE
8
BLACK
6
CONTINUOUS
10
5.3876
20
-3.5432
11
5.38839
21
-3.55724
0
LINE
8
BLACK
6
CONTINUOUS
10
5.38839
20
-3.55724
11
5.38834
21
-3.56076
0
LINE
8
BLACK
6
CONTINUOUS
10
5.38834
20
-3.56076
11
5.38716
21
-3.57478
0
LINE
8
BLACK
6
CONTINUOUS
10
5.38716
20
-3.57478
11
5.38443
21
-3.58858
0
LINE
8
BLACK
6
CONTINUOUS
10
5.38443
20
-3.58858
11
5.38017
21
-3.60198
0
LINE
8
BLACK
6
CONTINUOUS
10
5.38017
20
-3.60198
11
5.37445
21
-3.61483
0
LINE
8
BLACK
6
CONTINUOUS
10
5.37445
20
-3.61483
11
5.36734
21
-3.62696
0
LINE
8
BLACK
6
CONTINUOUS
10
5.36734
20
-3.62696
11
5.35891
21
-3.63823
0
LINE
8
BLACK
6
CONTINUOUS
10
5.35891
20
-3.63823
11
5.34928
21
-3.64848
0
LINE
8
BLACK
6
CONTINUOUS
10
5.34928
20
-3.64848
11
5.33857
21
-3.65759
0
LINE
8
BLACK
6
CONTINUOUS
10
5.33857
20
-3.65759
11
5.32691
21
-3.66546
0
LINE
8
BLACK
6
CONTINUOUS
10
5.32691
20
-3.66546
11
5.31445
21
-3.67198
0
LINE
8
BLACK
6
CONTINUOUS
10
5.31445
20
-3.67198
11
5.30133
21
-3.67706
0
LINE
8
BLACK
6
CONTINUOUS
10
5.30133
20
-3.67706
11
5.28773
21
-3.68066
0
LINE
8
BLACK
6
CONTINUOUS
10
5.28773
20
-3.68066
11
5.27382
21
-3.68271
0
LINE
8
BLACK
6
CONTINUOUS
10
5.27382
20
-3.68271
11
5.25976
21
-3.6832
0
LINE
8
BLACK
6
CONTINUOUS
10
5.25976
20
-3.6832
11
5.24574
21
-3.68212
0
LINE
8
BLACK
6
CONTINUOUS
10
5.24574
20
-3.68212
11
5.23192
21
-3.67949
0
LINE
8
BLACK
6
CONTINUOUS
10
5.23192
20
-3.67949
11
5.21849
21
-3.67533
0
LINE
8
BLACK
6
CONTINUOUS
10
5.21849
20
-3.67533
11
5.2056
21
-3.6697
0
LINE
8
BLACK
6
CONTINUOUS
10
5.2056
20
-3.6697
11
5.19342
21
-3.66266
0
LINE
8
BLACK
6
CONTINUOUS
10
5.19342
20
-3.66266
11
5.1821
21
-3.65432
0
LINE
8
BLACK
6
CONTINUOUS
10
5.1821
20
-3.65432
11
5.17178
21
-3.64476
0
LINE
8
BLACK
6
CONTINUOUS
10
5.17178
20
-3.64476
11
5.16259
21
-3.63411
0
LINE
8
BLACK
6
CONTINUOUS
10
5.16259
20
-3.63411
11
5.15464
21
-3.62251
0
LINE
8
BLACK
6
CONTINUOUS
10
5.15464
20
-3.62251
11
5.14804
21
-3.61009
0
LINE
8
BLACK
6
CONTINUOUS
10
5.14804
20
-3.61009
11
5.14286
21
-3.59701
0
LINE
8
BLACK
6
CONTINUOUS
10
5.14286
20
-3.59701
11
5.13917
21
-3.58344
0
LINE
8
BLACK
6
CONTINUOUS
10
5.13917
20
-3.58344
11
5.13702
21
-3.56954
0
LINE
8
BLACK
6
CONTINUOUS
10
5.13702
20
-3.56954
11
5.13643
21
-3.55549
0
LINE
8
BLACK
6
CONTINUOUS
10
5.13643
20
-3.55549
11
5.13741
21
-3.54145
0
LINE
8
BLACK
6
CONTINUOUS
10
5.13741
20
-3.54145
11
5.13995
21
-3.52762
0
LINE
8
BLACK
6
CONTINUOUS
10
5.13995
20
-3.52762
11
5.14402
21
-3.51415
0
LINE
8
BLACK
6
CONTINUOUS
10
5.14402
20
-3.51415
11
5.14956
21
-3.50123
0
LINE
8
BLACK
6
CONTINUOUS
10
5.14956
20
-3.50123
11
5.1565
21
-3.489
0
LINE
8
BLACK
6
CONTINUOUS
10
5.1565
20
-3.489
11
5.16477
21
-3.47762
0
LINE
8
BLACK
6
CONTINUOUS
10
5.16477
20
-3.47762
11
5.17425
21
-3.46723
0
LINE
8
BLACK
6
CONTINUOUS
10
5.17425
20
-3.46723
11
5.18484
21
-3.45797
0
LINE
8
BLACK
6
CONTINUOUS
10
5.18484
20
-3.45797
11
5.19639
21
-3.44994
0
LINE
8
BLACK
6
CONTINUOUS
10
5.19639
20
-3.44994
11
5.20876
21
-3.44325
0
LINE
8
BLACK
6
CONTINUOUS
10
5.20876
20
-3.44325
11
5.2218
21
-3.43798
0
LINE
8
BLACK
6
CONTINUOUS
10
5.2218
20
-3.43798
11
5.23535
21
-3.4342
0
LINE
8
BLACK
6
CONTINUOUS
10
5.23535
20
-3.4342
11
5.24923
21
-3.43195
0
LINE
8
BLACK
6
CONTINUOUS
10
5.24923
20
-3.43195
11
5.26328
21
-3.43126
0
LINE
8
BLACK
6
CONTINUOUS
10
5.26328
20
-3.43126
11
5.27732
21
-3.43215
0
LINE
8
BLACK
6
CONTINUOUS
10
6.47732
20
-3.43215
11
6.49117
21
-3.43459
0
LINE
8
BLACK
6
CONTINUOUS
10
6.49117
20
-3.43459
11
6.50466
21
-3.43856
0
LINE
8
BLACK
6
CONTINUOUS
10
6.50466
20
-3.43856
11
6.51763
21
-3.44401
0
LINE
8
BLACK
6
CONTINUOUS
10
6.51763
20
-3.44401
11
6.52991
21
-3.45087
0
LINE
8
BLACK
6
CONTINUOUS
10
6.52991
20
-3.45087
11
6.54134
21
-3.45906
0
LINE
8
BLACK
6
CONTINUOUS
10
6.54134
20
-3.45906
11
6.5518
21
-3.46847
0
LINE
8
BLACK
6
CONTINUOUS
10
6.5518
20
-3.46847
11
6.56113
21
-3.47899
0
LINE
8
BLACK
6
CONTINUOUS
10
6.56113
20
-3.47899
11
6.56924
21
-3.49048
0
LINE
8
BLACK
6
CONTINUOUS
10
6.56924
20
-3.49048
11
6.57602
21
-3.50281
0
LINE
8
BLACK
6
CONTINUOUS
10
6.57602
20
-3.50281
11
6.58138
21
-3.51581
0
LINE
8
BLACK
6
CONTINUOUS
10
6.58138
20
-3.51581
11
6.58526
21
-3.52933
0
LINE
8
BLACK
6
CONTINUOUS
10
6.58526
20
-3.52933
11
6.5876
21
-3.5432
0
LINE
8
BLACK
6
CONTINUOUS
10
6.5876
20
-3.5432
11
6.58839
21
-3.55724
0
LINE
8
BLACK
6
CONTINUOUS
10
6.58839
20
-3.55724
11
6.58834
21
-3.56076
0
LINE
8
BLACK
6
CONTINUOUS
10
6.58834
20
-3.56076
11
6.58716
21
-3.57478
0
LINE
8
BLACK
6
CONTINUOUS
10
6.58716
20
-3.57478
11
6.58443
21
-3.58858
0
LINE
8
BLACK
6
CONTINUOUS
10
6.58443
20
-3.58858
11
6.58017
21
-3.60198
0
LINE
8
BLACK
6
CONTINUOUS
10
6.58017
20
-3.60198
11
6.57445
21
-3.61483
0
LINE
8
BLACK
6
CONTINUOUS
10
6.57445
20
-3.61483
11
6.56734
21
-3.62696
0
LINE
8
BLACK
6
CONTINUOUS
10
6.56734
20
-3.62696
11
6.55891
21
-3.63823
0
LINE
8
BLACK
6
CONTINUOUS
10
6.55891
20
-3.63823
11
6.54928
21
-3.64848
0
LINE
8
BLACK
6
CONTINUOUS
10
6.54928
20
-3.64848
11
6.53857
21
-3.65759
0
LINE
8
BLACK
6
CONTINUOUS
10
6.53857
20
-3.65759
11
6.52691
21
-3.66546
0
LINE
8
BLACK
6
CONTINUOUS
10
6.52691
20
-3.66546
11
6.51445
21
-3.67198
0
LINE
8
BLACK
6
CONTINUOUS
10
6.51445
20
-3.67198
11
6.50133
21
-3.67706
0
LINE
8
BLACK
6
CONTINUOUS
10
6.50133
20
-3.67706
11
6.48773
21
-3.68066
0
LINE
8
BLACK
6
CONTINUOUS
10
6.48773
20
-3.68066
11
6.47382
21
-3.68271
0
LINE
8
BLACK
6
CONTINUOUS
10
6.47382
20
-3.68271
11
6.45976
21
-3.6832
0
LINE
8
BLACK
6
CONTINUOUS
10
6.45976
20
-3.6832
11
6.44574
21
-3.68212
0
LINE
8
BLACK
6
CONTINUOUS
10
6.44574
20
-3.68212
11
6.43192
21
-3.67949
0
LINE
8
BLACK
6
CONTINUOUS
10
6.43192
20
-3.67949
11
6.41849
21
-3.67533
0
LINE
8
BLACK
6
CONTINUOUS
10
6.41849
20
-3.67533
11
6.4056
21
-3.6697
0
LINE
8
BLACK
6
CONTINUOUS
10
6.4056
20
-3.6697
11
6.39342
21
-3.66266
0
LINE
8
BLACK
6
CONTINUOUS
10
6.39342
20
-3.66266
11
6.3821
21
-3.65432
0
LINE
8
BLACK
6
CONTINUOUS
10
6.3821
20
-3.65432
11
6.37178
21
-3.64476
0
LINE
8
BLACK
6
CONTINUOUS
10
6.37178
20
-3.64476
11
6.36259
21
-3.63411
0
LINE
8
BLACK
6
CONTINUOUS
10
6.36259
20
-3.63411
11
6.35464
21
-3.62251
0
LINE
8
BLACK
6
CONTINUOUS
10
6.35464
20
-3.62251
11
6.34804
21
-3.61009
0
LINE
8
BLACK
6
CONTINUOUS
10
6.34804
20
-3.61009
11
6.34286
21
-3.59701
0
LINE
8
BLACK
6
CONTINUOUS
10
6.34286
20
-3.59701
11
6.33917
21
-3.58344
0
LINE
8
BLACK
6
CONTINUOUS
10
6.33917
20
-3.58344
11
6.33702
21
-3.56954
0
LINE
8
BLACK
6
CONTINUOUS
10
6.33702
20
-3.56954
11
6.33643
21
-3.55549
0
LINE
8
BLACK
6
CONTINUOUS
10
6.33643
20
-3.55549
11
6.33741
21
-3.54145
0
LINE
8
BLACK
6
CONTINUOUS
10
6.33741
20
-3.54145
11
6.33995
21
-3.52762
0
LINE
8
BLACK
6
CONTINUOUS
10
6.33995
20
-3.52762
11
6.34402
21
-3.51415
0
LINE
8
BLACK
6
CONTINUOUS
10
6.34402
20
-3.51415
11
6.34956
21
-3.50123
0
LINE
8
BLACK
6
CONTINUOUS
10
6.34956
20
-3.50123
11
6.3565
21
-3.489
0
LINE
8
BLACK
6
CONTINUOUS
10
6.3565
20
-3.489
11
6.36477
21
-3.47762
0
LINE
8
BLACK
6
CONTINUOUS
10
6.36477
20
-3.47762
11
6.37425
21
-3.46723
0
LINE
8
BLACK
6
CONTINUOUS
10
6.37425
20
-3.46723
11
6.38484
21
-3.45797
0
LINE
8
BLACK
6
CONTINUOUS
10
6.38484
20
-3.45797
11
6.39639
21
-3.44994
0
LINE
8
BLACK
6
CONTINUOUS
10
6.39639
20
-3.44994
11
6.40876
21
-3.44325
0
LINE
8
BLACK
6
CONTINUOUS
10
6.40876
20
-3.44325
11
6.4218
21
-3.43798
0
LINE
8
BLACK
6
CONTINUOUS
10
6.4218
20
-3.43798
11
6.43535
21
-3.4342
0
LINE
8
BLACK
6
CONTINUOUS
10
6.43535
20
-3.4342
11
6.44923
21
-3.43195
0
LINE
8
BLACK
6
CONTINUOUS
10
6.44923
20
-3.43195
11
6.46328
21
-3.43126
0
LINE
8
BLACK
6
CONTINUOUS
10
6.46328
20
-3.43126
11
6.47732
21
-3.43215
0
LINE
8
BLACK
6
CONTINUOUS
10
5.79541
20
-3.56997
11
5.79797
21
-3.57168
0
LINE
8
BLACK
6
CONTINUOUS
10
5.79797
20
-3.57168
11
5.79968
21
-3.57423
0
LINE
8
BLACK
6
CONTINUOUS
10
5.79968
20
-3.57423
11
5.80028
21
-3.57724
0
LINE
8
BLACK
6
CONTINUOUS
10
5.80028
20
-3.57724
11
5.80028
21
-3.63724
0
LINE
8
BLACK
6
CONTINUOUS
10
5.80028
20
-3.63724
11
5.79968
21
-3.64026
0
LINE
8
BLACK
6
CONTINUOUS
10
5.79968
20
-3.64026
11
5.79797
21
-3.64281
0
LINE
8
BLACK
6
CONTINUOUS
10
5.79797
20
-3.64281
11
5.79541
21
-3.64452
0
LINE
8
BLACK
6
CONTINUOUS
10
5.79541
20
-3.64452
11
5.7924
21
-3.64512
0
LINE
8
BLACK
6
CONTINUOUS
10
5.7924
20
-3.64512
11
5.7324
21
-3.64512
0
LINE
8
BLACK
6
CONTINUOUS
10
5.7324
20
-3.64512
11
5.72939
21
-3.64452
0
LINE
8
BLACK
6
CONTINUOUS
10
5.72939
20
-3.64452
11
5.72683
21
-3.64281
0
LINE
8
BLACK
6
CONTINUOUS
10
5.72683
20
-3.64281
11
5.72513
21
-3.64026
0
LINE
8
BLACK
6
CONTINUOUS
10
5.72513
20
-3.64026
11
5.72453
21
-3.63724
0
LINE
8
BLACK
6
CONTINUOUS
10
5.72453
20
-3.63724
11
5.72453
21
-3.57724
0
LINE
8
BLACK
6
CONTINUOUS
10
5.72453
20
-3.57724
11
5.72513
21
-3.57423
0
LINE
8
BLACK
6
CONTINUOUS
10
5.72513
20
-3.57423
11
5.72683
21
-3.57168
0
LINE
8
BLACK
6
CONTINUOUS
10
5.72683
20
-3.57168
11
5.72939
21
-3.56997
0
LINE
8
BLACK
6
CONTINUOUS
10
5.72939
20
-3.56997
11
5.7324
21
-3.56937
0
LINE
8
BLACK
6
CONTINUOUS
10
5.7324
20
-3.56937
11
5.7924
21
-3.56937
0
LINE
8
BLACK
6
CONTINUOUS
10
5.7924
20
-3.56937
11
5.79541
21
-3.56997
0
LINE
8
BLACK
6
CONTINUOUS
10
6.29541
20
-3.56997
11
6.29797
21
-3.57168
0
LINE
8
BLACK
6
CONTINUOUS
10
6.29797
20
-3.57168
11
6.29968
21
-3.57423
0
LINE
8
BLACK
6
CONTINUOUS
10
6.29968
20
-3.57423
11
6.30028
21
-3.57724
0
LINE
8
BLACK
6
CONTINUOUS
10
6.30028
20
-3.57724
11
6.30028
21
-3.63724
0
LINE
8
BLACK
6
CONTINUOUS
10
6.30028
20
-3.63724
11
6.29968
21
-3.64026
0
LINE
8
BLACK
6
CONTINUOUS
10
6.29968
20
-3.64026
11
6.29797
21
-3.64281
0
LINE
8
BLACK
6
CONTINUOUS
10
6.29797
20
-3.64281
11
6.29541
21
-3.64452
0
LINE
8
BLACK
6
CONTINUOUS
10
6.29541
20
-3.64452
11
6.2924
21
-3.64512
0
LINE
8
BLACK
6
CONTINUOUS
10
6.2924
20
-3.64512
11
6.2324
21
-3.64512
0
LINE
8
BLACK
6
CONTINUOUS
10
6.2324
20
-3.64512
11
6.22939
21
-3.64452
0
LINE
8
BLACK
6
CONTINUOUS
10
6.22939
20
-3.64452
11
6.22683
21
-3.64281
0
LINE
8
BLACK
6
CONTINUOUS
10
6.22683
20
-3.64281
11
6.22513
21
-3.64026
0
LINE
8
BLACK
6
CONTINUOUS
10
6.22513
20
-3.64026
11
6.22453
21
-3.63724
0
LINE
8
BLACK
6
CONTINUOUS
10
6.22453
20
-3.63724
11
6.22453
21
-3.57724
0
LINE
8
BLACK
6
CONTINUOUS
10
6.22453
20
-3.57724
11
6.22513
21
-3.57423
0
LINE
8
BLACK
6
CONTINUOUS
10
6.22513
20
-3.57423
11
6.22683
21
-3.57168
0
LINE
8
BLACK
6
CONTINUOUS
10
6.22683
20
-3.57168
11
6.22939
21
-3.56997
0
LINE
8
BLACK
6
CONTINUOUS
10
6.22939
20
-3.56997
11
6.2324
21
-3.56937
0
LINE
8
BLACK
6
CONTINUOUS
10
6.2324
20
-3.56937
11
6.2924
21
-3.56937
0
LINE
8
BLACK
6
CONTINUOUS
10
6.2924
20
-3.56937
11
6.29541
21
-3.56997
0
LINE
8
BLACK
6
CONTINUOUS
10
5.69541
20
-3.56997
11
5.69797
21
-3.57168
0
LINE
8
BLACK
6
CONTINUOUS
10
5.69797
20
-3.57168
11
5.69968
21
-3.57423
0
LINE
8
BLACK
6
CONTINUOUS
10
5.69968
20
-3.57423
11
5.70028
21
-3.57724
0
LINE
8
BLACK
6
CONTINUOUS
10
5.70028
20
-3.57724
11
5.70028
21
-3.63724
0
LINE
8
BLACK
6
CONTINUOUS
10
5.70028
20
-3.63724
11
5.69968
21
-3.64026
0
LINE
8
BLACK
6
CONTINUOUS
10
5.69968
20
-3.64026
11
5.69797
21
-3.64281
0
LINE
8
BLACK
6
CONTINUOUS
10
5.69797
20
-3.64281
11
5.69541
21
-3.64452
0
LINE
8
BLACK
6
CONTINUOUS
10
5.69541
20
-3.64452
11
5.6924
21
-3.64512
0
LINE
8
BLACK
6
CONTINUOUS
10
5.6924
20
-3.64512
11
5.6324
21
-3.64512
0
LINE
8
BLACK
6
CONTINUOUS
10
5.6324
20
-3.64512
11
5.62939
21
-3.64452
0
LINE
8
BLACK
6
CONTINUOUS
10
5.62939
20
-3.64452
11
5.62683
21
-3.64281
0
LINE
8
BLACK
6
CONTINUOUS
10
5.62683
20
-3.64281
11
5.62513
21
-3.64026
0
LINE
8
BLACK
6
CONTINUOUS
10
5.62513
20
-3.64026
11
5.62453
21
-3.63724
0
LINE
8
BLACK
6
CONTINUOUS
10
5.62453
20
-3.63724
11
5.62453
21
-3.57724
0
LINE
8
BLACK
6
CONTINUOUS
10
5.62453
20
-3.57724
11
5.62513
21
-3.57423
0
LINE
8
BLACK
6
CONTINUOUS
10
5.62513
20
-3.57423
11
5.62683
21
-3.57168
0
LINE
8
BLACK
6
CONTINUOUS
10
5.62683
20
-3.57168
11
5.62939
21
-3.56997
0
LINE
8
BLACK
6
CONTINUOUS
10
5.62939
20
-3.56997
11
5.6324
21
-3.56937
0
LINE
8
BLACK
6
CONTINUOUS
10
5.6324
20
-3.56937
11
5.6924
21
-3.56937
0
LINE
8
BLACK
6
CONTINUOUS
10
5.6924
20
-3.56937
11
5.69541
21
-3.56997
0
LINE
8
BLACK
6
CONTINUOUS
10
5.99541
20
-3.56997
11
5.99797
21
-3.57168
0
LINE
8
BLACK
6
CONTINUOUS
10
5.99797
20
-3.57168
11
5.99968
21
-3.57423
0
LINE
8
BLACK
6
CONTINUOUS
10
5.99968
20
-3.57423
11
6.00028
21
-3.57724
0
LINE
8
BLACK
6
CONTINUOUS
10
6.00028
20
-3.57724
11
6.00028
21
-3.63724
0
LINE
8
BLACK
6
CONTINUOUS
10
6.00028
20
-3.63724
11
5.99968
21
-3.64026
0
LINE
8
BLACK
6
CONTINUOUS
10
5.99968
20
-3.64026
11
5.99797
21
-3.64281
0
LINE
8
BLACK
6
CONTINUOUS
10
5.99797
20
-3.64281
11
5.99541
21
-3.64452
0
LINE
8
BLACK
6
CONTINUOUS
10
5.99541
20
-3.64452
11
5.9924
21
-3.64512
0
LINE
8
BLACK
6
CONTINUOUS
10
5.9924
20
-3.64512
11
5.9324
21
-3.64512
0
LINE
8
BLACK
6
CONTINUOUS
10
5.9324
20
-3.64512
11
5.92939
21
-3.64452
0
LINE
8
BLACK
6
CONTINUOUS
10
5.92939
20
-3.64452
11
5.92683
21
-3.64281
0
LINE
8
BLACK
6
CONTINUOUS
10
5.92683
20
-3.64281
11
5.92513
21
-3.64026
0
LINE
8
BLACK
6
CONTINUOUS
10
5.92513
20
-3.64026
11
5.92453
21
-3.63724
0
LINE
8
BLACK
6
CONTINUOUS
10
5.92453
20
-3.63724
11
5.92453
21
-3.57724
0
LINE
8
BLACK
6
CONTINUOUS
10
5.92453
20
-3.57724
11
5.92513
21
-3.57423
0
LINE
8
BLACK
6
CONTINUOUS
10
5.92513
20
-3.57423
11
5.92683
21
-3.57168
0
LINE
8
BLACK
6
CONTINUOUS
10
5.92683
20
-3.57168
11
5.92939
21
-3.56997
0
LINE
8
BLACK
6
CONTINUOUS
10
5.92939
20
-3.56997
11
5.9324
21
-3.56937
0
LINE
8
BLACK
6
CONTINUOUS
10
5.9324
20
-3.56937
11
5.9924
21
-3.56937
0
LINE
8
BLACK
6
CONTINUOUS
10
5.9924
20
-3.56937
11
5.99541
21
-3.56997
0
LINE
8
BLACK
6
CONTINUOUS
10
6.19541
20
-3.56997
11
6.19797
21
-3.57168
0
LINE
8
BLACK
6
CONTINUOUS
10
6.19797
20
-3.57168
11
6.19968
21
-3.57423
0
LINE
8
BLACK
6
CONTINUOUS
10
6.19968
20
-3.57423
11
6.20028
21
-3.57724
0
LINE
8
BLACK
6
CONTINUOUS
10
6.20028
20
-3.57724
11
6.20028
21
-3.63724
0
LINE
8
BLACK
6
CONTINUOUS
10
6.20028
20
-3.63724
11
6.19968
21
-3.64026
0
LINE
8
BLACK
6
CONTINUOUS
10
6.19968
20
-3.64026
11
6.19797
21
-3.64281
0
LINE
8
BLACK
6
CONTINUOUS
10
6.19797
20
-3.64281
11
6.19541
21
-3.64452
0
LINE
8
BLACK
6
CONTINUOUS
10
6.19541
20
-3.64452
11
6.1924
21
-3.64512
0
LINE
8
BLACK
6
CONTINUOUS
10
6.1924
20
-3.64512
11
6.1324
21
-3.64512
0
LINE
8
BLACK
6
CONTINUOUS
10
6.1324
20
-3.64512
11
6.12939
21
-3.64452
0
LINE
8
BLACK
6
CONTINUOUS
10
6.12939
20
-3.64452
11
6.12683
21
-3.64281
0
LINE
8
BLACK
6
CONTINUOUS
10
6.12683
20
-3.64281
11
6.12513
21
-3.64026
0
LINE
8
BLACK
6
CONTINUOUS
10
6.12513
20
-3.64026
11
6.12453
21
-3.63724
0
LINE
8
BLACK
6
CONTINUOUS
10
6.12453
20
-3.63724
11
6.12453
21
-3.57724
0
LINE
8
BLACK
6
CONTINUOUS
10
6.12453
20
-3.57724
11
6.12513
21
-3.57423
0
LINE
8
BLACK
6
CONTINUOUS
10
6.12513
20
-3.57423
11
6.12683
21
-3.57168
0
LINE
8
BLACK
6
CONTINUOUS
10
6.12683
20
-3.57168
11
6.12939
21
-3.56997
0
LINE
8
BLACK
6
CONTINUOUS
10
6.12939
20
-3.56997
11
6.1324
21
-3.56937
0
LINE
8
BLACK
6
CONTINUOUS
10
6.1324
20
-3.56937
11
6.1924
21
-3.56937
0
LINE
8
BLACK
6
CONTINUOUS
10
6.1924
20
-3.56937
11
6.19541
21
-3.56997
0
LINE
8
BLACK
6
CONTINUOUS
10
6.09541
20
-3.56997
11
6.09797
21
-3.57168
0
LINE
8
BLACK
6
CONTINUOUS
10
6.09797
20
-3.57168
11
6.09968
21
-3.57423
0
LINE
8
BLACK
6
CONTINUOUS
10
6.09968
20
-3.57423
11
6.10028
21
-3.57724
0
LINE
8
BLACK
6
CONTINUOUS
10
6.10028
20
-3.57724
11
6.10028
21
-3.63724
0
LINE
8
BLACK
6
CONTINUOUS
10
6.10028
20
-3.63724
11
6.09968
21
-3.64026
0
LINE
8
BLACK
6
CONTINUOUS
10
6.09968
20
-3.64026
11
6.09797
21
-3.64281
0
LINE
8
BLACK
6
CONTINUOUS
10
6.09797
20
-3.64281
11
6.09541
21
-3.64452
0
LINE
8
BLACK
6
CONTINUOUS
10
6.09541
20
-3.64452
11
6.0924
21
-3.64512
0
LINE
8
BLACK
6
CONTINUOUS
10
6.0924
20
-3.64512
11
6.0324
21
-3.64512
0
LINE
8
BLACK
6
CONTINUOUS
10
6.0324
20
-3.64512
11
6.02939
21
-3.64452
0
LINE
8
BLACK
6
CONTINUOUS
10
6.02939
20
-3.64452
11
6.02683
21
-3.64281
0
LINE
8
BLACK
6
CONTINUOUS
10
6.02683
20
-3.64281
11
6.02513
21
-3.64026
0
LINE
8
BLACK
6
CONTINUOUS
10
6.02513
20
-3.64026
11
6.02453
21
-3.63724
0
LINE
8
BLACK
6
CONTINUOUS
10
6.02453
20
-3.63724
11
6.02453
21
-3.57724
0
LINE
8
BLACK
6
CONTINUOUS
10
6.02453
20
-3.57724
11
6.02513
21
-3.57423
0
LINE
8
BLACK
6
CONTINUOUS
10
6.02513
20
-3.57423
11
6.02683
21
-3.57168
0
LINE
8
BLACK
6
CONTINUOUS
10
6.02683
20
-3.57168
11
6.02939
21
-3.56997
0
LINE
8
BLACK
6
CONTINUOUS
10
6.02939
20
-3.56997
11
6.0324
21
-3.56937
0
LINE
8
BLACK
6
CONTINUOUS
10
6.0324
20
-3.56937
11
6.0924
21
-3.56937
0
LINE
8
BLACK
6
CONTINUOUS
10
6.0924
20
-3.56937
11
6.09541
21
-3.56997
0
LINE
8
BLACK
6
CONTINUOUS
10
5.89541
20
-3.56997
11
5.89797
21
-3.57168
0
LINE
8
BLACK
6
CONTINUOUS
10
5.89797
20
-3.57168
11
5.89968
21
-3.57423
0
LINE
8
BLACK
6
CONTINUOUS
10
5.89968
20
-3.57423
11
5.90028
21
-3.57724
0
LINE
8
BLACK
6
CONTINUOUS
10
5.90028
20
-3.57724
11
5.90028
21
-3.63724
0
LINE
8
BLACK
6
CONTINUOUS
10
5.90028
20
-3.63724
11
5.89968
21
-3.64026
0
LINE
8
BLACK
6
CONTINUOUS
10
5.89968
20
-3.64026
11
5.89797
21
-3.64281
0
LINE
8
BLACK
6
CONTINUOUS
10
5.89797
20
-3.64281
11
5.89541
21
-3.64452
0
LINE
8
BLACK
6
CONTINUOUS
10
5.89541
20
-3.64452
11
5.8924
21
-3.64512
0
LINE
8
BLACK
6
CONTINUOUS
10
5.8924
20
-3.64512
11
5.8324
21
-3.64512
0
LINE
8
BLACK
6
CONTINUOUS
10
5.8324
20
-3.64512
11
5.82939
21
-3.64452
0
LINE
8
BLACK
6
CONTINUOUS
10
5.82939
20
-3.64452
11
5.82683
21
-3.64281
0
LINE
8
BLACK
6
CONTINUOUS
10
5.82683
20
-3.64281
11
5.82513
21
-3.64026
0
LINE
8
BLACK
6
CONTINUOUS
10
5.82513
20
-3.64026
11
5.82453
21
-3.63724
0
LINE
8
BLACK
6
CONTINUOUS
10
5.82453
20
-3.63724
11
5.82453
21
-3.57724
0
LINE
8
BLACK
6
CONTINUOUS
10
5.82453
20
-3.57724
11
5.82513
21
-3.57423
0
LINE
8
BLACK
6
CONTINUOUS
10
5.82513
20
-3.57423
11
5.82683
21
-3.57168
0
LINE
8
BLACK
6
CONTINUOUS
10
5.82683
20
-3.57168
11
5.82939
21
-3.56997
0
LINE
8
BLACK
6
CONTINUOUS
10
5.82939
20
-3.56997
11
5.8324
21
-3.56937
0
LINE
8
BLACK
6
CONTINUOUS
10
5.8324
20
-3.56937
11
5.8924
21
-3.56937
0
LINE
8
BLACK
6
CONTINUOUS
10
5.8924
20
-3.56937
11
5.89541
21
-3.56997
0
LINE
8
BLACK
6
CONTINUOUS
10
5.52163
20
-3.5049
11
5.53058
21
-3.5073
0
LINE
8
BLACK
6
CONTINUOUS
10
5.53058
20
-3.5073
11
5.53898
21
-3.51122
0
LINE
8
BLACK
6
CONTINUOUS
10
5.53898
20
-3.51122
11
5.54657
21
-3.51653
0
LINE
8
BLACK
6
CONTINUOUS
10
5.54657
20
-3.51653
11
5.55312
21
-3.52308
0
LINE
8
BLACK
6
CONTINUOUS
10
5.55312
20
-3.52308
11
5.55843
21
-3.53067
0
LINE
8
BLACK
6
CONTINUOUS
10
5.55843
20
-3.53067
11
5.56235
21
-3.53907
0
LINE
8
BLACK
6
CONTINUOUS
10
5.56235
20
-3.53907
11
5.56474
21
-3.54801
0
LINE
8
BLACK
6
CONTINUOUS
10
5.56474
20
-3.54801
11
5.56555
21
-3.55724
0
LINE
8
BLACK
6
CONTINUOUS
10
5.56555
20
-3.55724
11
5.56474
21
-3.56647
0
LINE
8
BLACK
6
CONTINUOUS
10
5.56474
20
-3.56647
11
5.56235
21
-3.57542
0
LINE
8
BLACK
6
CONTINUOUS
10
5.56235
20
-3.57542
11
5.55843
21
-3.58382
0
LINE
8
BLACK
6
CONTINUOUS
10
5.55843
20
-3.58382
11
5.55312
21
-3.59141
0
LINE
8
BLACK
6
CONTINUOUS
10
5.55312
20
-3.59141
11
5.54657
21
-3.59796
0
LINE
8
BLACK
6
CONTINUOUS
10
5.54657
20
-3.59796
11
5.53898
21
-3.60327
0
LINE
8
BLACK
6
CONTINUOUS
10
5.53898
20
-3.60327
11
5.53058
21
-3.60719
0
LINE
8
BLACK
6
CONTINUOUS
10
5.53058
20
-3.60719
11
5.52163
21
-3.60959
0
LINE
8
BLACK
6
CONTINUOUS
10
5.52163
20
-3.60959
11
5.5124
21
-3.61039
0
LINE
8
BLACK
6
CONTINUOUS
10
5.5124
20
-3.61039
11
5.50317
21
-3.60959
0
LINE
8
BLACK
6
CONTINUOUS
10
5.50317
20
-3.60959
11
5.49422
21
-3.60719
0
LINE
8
BLACK
6
CONTINUOUS
10
5.49422
20
-3.60719
11
5.48583
21
-3.60327
0
LINE
8
BLACK
6
CONTINUOUS
10
5.48583
20
-3.60327
11
5.47824
21
-3.59796
0
LINE
8
BLACK
6
CONTINUOUS
10
5.47824
20
-3.59796
11
5.47169
21
-3.59141
0
LINE
8
BLACK
6
CONTINUOUS
10
5.47169
20
-3.59141
11
5.46637
21
-3.58382
0
LINE
8
BLACK
6
CONTINUOUS
10
5.46637
20
-3.58382
11
5.46246
21
-3.57542
0
LINE
8
BLACK
6
CONTINUOUS
10
5.46246
20
-3.57542
11
5.46006
21
-3.56647
0
LINE
8
BLACK
6
CONTINUOUS
10
5.46006
20
-3.56647
11
5.45925
21
-3.55724
0
LINE
8
BLACK
6
CONTINUOUS
10
5.45925
20
-3.55724
11
5.46006
21
-3.54801
0
LINE
8
BLACK
6
CONTINUOUS
10
5.46006
20
-3.54801
11
5.46246
21
-3.53907
0
LINE
8
BLACK
6
CONTINUOUS
10
5.46246
20
-3.53907
11
5.46637
21
-3.53067
0
LINE
8
BLACK
6
CONTINUOUS
10
5.46637
20
-3.53067
11
5.47169
21
-3.52308
0
LINE
8
BLACK
6
CONTINUOUS
10
5.47169
20
-3.52308
11
5.47824
21
-3.51653
0
LINE
8
BLACK
6
CONTINUOUS
10
5.47824
20
-3.51653
11
5.48583
21
-3.51122
0
LINE
8
BLACK
6
CONTINUOUS
10
5.48583
20
-3.51122
11
5.49422
21
-3.5073
0
LINE
8
BLACK
6
CONTINUOUS
10
5.49422
20
-3.5073
11
5.50317
21
-3.5049
0
LINE
8
BLACK
6
CONTINUOUS
10
5.50317
20
-3.5049
11
5.5124
21
-3.50409
0
LINE
8
BLACK
6
CONTINUOUS
10
5.5124
20
-3.50409
11
5.52163
21
-3.5049
0
LINE
8
BLACK
6
CONTINUOUS
10
5.61581
20
-3.52044
11
5.61836
21
-3.52215
0
LINE
8
BLACK
6
CONTINUOUS
10
5.61836
20
-3.52215
11
5.62007
21
-3.5247
0
LINE
8
BLACK
6
CONTINUOUS
10
5.62007
20
-3.5247
11
5.62067
21
-3.52772
0
LINE
8
BLACK
6
CONTINUOUS
10
5.62067
20
-3.52772
11
5.62067
21
-3.58677
0
LINE
8
BLACK
6
CONTINUOUS
10
5.62067
20
-3.58677
11
5.62007
21
-3.58978
0
LINE
8
BLACK
6
CONTINUOUS
10
5.62007
20
-3.58978
11
5.61836
21
-3.59234
0
LINE
8
BLACK
6
CONTINUOUS
10
5.61836
20
-3.59234
11
5.61581
21
-3.59405
0
LINE
8
BLACK
6
CONTINUOUS
10
5.61581
20
-3.59405
11
5.6128
21
-3.59465
0
LINE
8
BLACK
6
CONTINUOUS
10
5.6128
20
-3.59465
11
5.57539
21
-3.59465
0
LINE
8
BLACK
6
CONTINUOUS
10
5.57539
20
-3.59465
11
5.57238
21
-3.59405
0
LINE
8
BLACK
6
CONTINUOUS
10
5.57238
20
-3.59405
11
5.56983
21
-3.59234
0
LINE
8
BLACK
6
CONTINUOUS
10
5.56983
20
-3.59234
11
5.56812
21
-3.58978
0
LINE
8
BLACK
6
CONTINUOUS
10
5.56812
20
-3.58978
11
5.56752
21
-3.58677
0
LINE
8
BLACK
6
CONTINUOUS
10
5.56752
20
-3.58677
11
5.56752
21
-3.52772
0
LINE
8
BLACK
6
CONTINUOUS
10
5.56752
20
-3.52772
11
5.56812
21
-3.5247
0
LINE
8
BLACK
6
CONTINUOUS
10
5.56812
20
-3.5247
11
5.56983
21
-3.52215
0
LINE
8
BLACK
6
CONTINUOUS
10
5.56983
20
-3.52215
11
5.57238
21
-3.52044
0
LINE
8
BLACK
6
CONTINUOUS
10
5.57238
20
-3.52044
11
5.57539
21
-3.51984
0
LINE
8
BLACK
6
CONTINUOUS
10
5.57539
20
-3.51984
11
5.6128
21
-3.51984
0
LINE
8
BLACK
6
CONTINUOUS
10
5.6128
20
-3.51984
11
5.61581
21
-3.52044
0
LINE
8
BLACK
6
CONTINUOUS
10
5.45242
20
-3.52044
11
5.45498
21
-3.52215
0
LINE
8
BLACK
6
CONTINUOUS
10
5.45498
20
-3.52215
11
5.45668
21
-3.5247
0
LINE
8
BLACK
6
CONTINUOUS
10
5.45668
20
-3.5247
11
5.45728
21
-3.52772
0
LINE
8
BLACK
6
CONTINUOUS
10
5.45728
20
-3.52772
11
5.45728
21
-3.58677
0
LINE
8
BLACK
6
CONTINUOUS
10
5.45728
20
-3.58677
11
5.45668
21
-3.58978
0
LINE
8
BLACK
6
CONTINUOUS
10
5.45668
20
-3.58978
11
5.45498
21
-3.59234
0
LINE
8
BLACK
6
CONTINUOUS
10
5.45498
20
-3.59234
11
5.45242
21
-3.59405
0
LINE
8
BLACK
6
CONTINUOUS
10
5.45242
20
-3.59405
11
5.44941
21
-3.59465
0
LINE
8
BLACK
6
CONTINUOUS
10
5.44941
20
-3.59465
11
5.41201
21
-3.59465
0
LINE
8
BLACK
6
CONTINUOUS
10
5.41201
20
-3.59465
11
5.40899
21
-3.59405
0
LINE
8
BLACK
6
CONTINUOUS
10
5.40899
20
-3.59405
11
5.40644
21
-3.59234
0
LINE
8
BLACK
6
CONTINUOUS
10
5.40644
20
-3.59234
11
5.40473
21
-3.58978
0
LINE
8
BLACK
6
CONTINUOUS
10
5.40473
20
-3.58978
11
5.40413
21
-3.58677
0
LINE
8
BLACK
6
CONTINUOUS
10
5.40413
20
-3.58677
11
5.40413
21
-3.52772
0
LINE
8
BLACK
6
CONTINUOUS
10
5.40413
20
-3.52772
11
5.40473
21
-3.5247
0
LINE
8
BLACK
6
CONTINUOUS
10
5.40473
20
-3.5247
11
5.40644
21
-3.52215
0
LINE
8
BLACK
6
CONTINUOUS
10
5.40644
20
-3.52215
11
5.40899
21
-3.52044
0
LINE
8
BLACK
6
CONTINUOUS
10
5.40899
20
-3.52044
11
5.41201
21
-3.51984
0
LINE
8
BLACK
6
CONTINUOUS
10
5.41201
20
-3.51984
11
5.44941
21
-3.51984
0
LINE
8
BLACK
6
CONTINUOUS
10
5.44941
20
-3.51984
11
5.45242
21
-3.52044
0
LINE
8
BLACK
6
CONTINUOUS
10
6.09541
20
-3.46997
11
6.09797
21
-3.47168
0
LINE
8
BLACK
6
CONTINUOUS
10
6.09797
20
-3.47168
11
6.09968
21
-3.47423
0
LINE
8
BLACK
6
CONTINUOUS
10
6.09968
20
-3.47423
11
6.10028
21
-3.47724
0
LINE
8
BLACK
6
CONTINUOUS
10
6.10028
20
-3.47724
11
6.10028
21
-3.53724
0
LINE
8
BLACK
6
CONTINUOUS
10
6.10028
20
-3.53724
11
6.09968
21
-3.54026
0
LINE
8
BLACK
6
CONTINUOUS
10
6.09968
20
-3.54026
11
6.09797
21
-3.54281
0
LINE
8
BLACK
6
CONTINUOUS
10
6.09797
20
-3.54281
11
6.09541
21
-3.54452
0
LINE
8
BLACK
6
CONTINUOUS
10
6.09541
20
-3.54452
11
6.0924
21
-3.54512
0
LINE
8
BLACK
6
CONTINUOUS
10
6.0924
20
-3.54512
11
6.0324
21
-3.54512
0
LINE
8
BLACK
6
CONTINUOUS
10
6.0324
20
-3.54512
11
6.02939
21
-3.54452
0
LINE
8
BLACK
6
CONTINUOUS
10
6.02939
20
-3.54452
11
6.02683
21
-3.54281
0
LINE
8
BLACK
6
CONTINUOUS
10
6.02683
20
-3.54281
11
6.02513
21
-3.54026
0
LINE
8
BLACK
6
CONTINUOUS
10
6.02513
20
-3.54026
11
6.02453
21
-3.53724
0
LINE
8
BLACK
6
CONTINUOUS
10
6.02453
20
-3.53724
11
6.02453
21
-3.47724
0
LINE
8
BLACK
6
CONTINUOUS
10
6.02453
20
-3.47724
11
6.02513
21
-3.47423
0
LINE
8
BLACK
6
CONTINUOUS
10
6.02513
20
-3.47423
11
6.02683
21
-3.47168
0
LINE
8
BLACK
6
CONTINUOUS
10
6.02683
20
-3.47168
11
6.02939
21
-3.46997
0
LINE
8
BLACK
6
CONTINUOUS
10
6.02939
20
-3.46997
11
6.0324
21
-3.46937
0
LINE
8
BLACK
6
CONTINUOUS
10
6.0324
20
-3.46937
11
6.0924
21
-3.46937
0
LINE
8
BLACK
6
CONTINUOUS
10
6.0924
20
-3.46937
11
6.09541
21
-3.46997
0
LINE
8
BLACK
6
CONTINUOUS
10
5.89541
20
-3.46997
11
5.89797
21
-3.47168
0
LINE
8
BLACK
6
CONTINUOUS
10
5.89797
20
-3.47168
11
5.89968
21
-3.47423
0
LINE
8
BLACK
6
CONTINUOUS
10
5.89968
20
-3.47423
11
5.90028
21
-3.47724
0
LINE
8
BLACK
6
CONTINUOUS
10
5.90028
20
-3.47724
11
5.90028
21
-3.53724
0
LINE
8
BLACK
6
CONTINUOUS
10
5.90028
20
-3.53724
11
5.89968
21
-3.54026
0
LINE
8
BLACK
6
CONTINUOUS
10
5.89968
20
-3.54026
11
5.89797
21
-3.54281
0
LINE
8
BLACK
6
CONTINUOUS
10
5.89797
20
-3.54281
11
5.89541
21
-3.54452
0
LINE
8
BLACK
6
CONTINUOUS
10
5.89541
20
-3.54452
11
5.8924
21
-3.54512
0
LINE
8
BLACK
6
CONTINUOUS
10
5.8924
20
-3.54512
11
5.8324
21
-3.54512
0
LINE
8
BLACK
6
CONTINUOUS
10
5.8324
20
-3.54512
11
5.82939
21
-3.54452
0
LINE
8
BLACK
6
CONTINUOUS
10
5.82939
20
-3.54452
11
5.82683
21
-3.54281
0
LINE
8
BLACK
6
CONTINUOUS
10
5.82683
20
-3.54281
11
5.82513
21
-3.54026
0
LINE
8
BLACK
6
CONTINUOUS
10
5.82513
20
-3.54026
11
5.82453
21
-3.53724
0
LINE
8
BLACK
6
CONTINUOUS
10
5.82453
20
-3.53724
11
5.82453
21
-3.47724
0
LINE
8
BLACK
6
CONTINUOUS
10
5.82453
20
-3.47724
11
5.82513
21
-3.47423
0
LINE
8
BLACK
6
CONTINUOUS
10
5.82513
20
-3.47423
11
5.82683
21
-3.47168
0
LINE
8
BLACK
6
CONTINUOUS
10
5.82683
20
-3.47168
11
5.82939
21
-3.46997
0
LINE
8
BLACK
6
CONTINUOUS
10
5.82939
20
-3.46997
11
5.8324
21
-3.46937
0
LINE
8
BLACK
6
CONTINUOUS
10
5.8324
20
-3.46937
11
5.8924
21
-3.46937
0
LINE
8
BLACK
6
CONTINUOUS
10
5.8924
20
-3.46937
11
5.89541
21
-3.46997
0
LINE
8
BLACK
6
CONTINUOUS
10
6.19541
20
-3.46997
11
6.19797
21
-3.47168
0
LINE
8
BLACK
6
CONTINUOUS
10
6.19797
20
-3.47168
11
6.19968
21
-3.47423
0
LINE
8
BLACK
6
CONTINUOUS
10
6.19968
20
-3.47423
11
6.20028
21
-3.47724
0
LINE
8
BLACK
6
CONTINUOUS
10
6.20028
20
-3.47724
11
6.20028
21
-3.53724
0
LINE
8
BLACK
6
CONTINUOUS
10
6.20028
20
-3.53724
11
6.19968
21
-3.54026
0
LINE
8
BLACK
6
CONTINUOUS
10
6.19968
20
-3.54026
11
6.19797
21
-3.54281
0
LINE
8
BLACK
6
CONTINUOUS
10
6.19797
20
-3.54281
11
6.19541
21
-3.54452
0
LINE
8
BLACK
6
CONTINUOUS
10
6.19541
20
-3.54452
11
6.1924
21
-3.54512
0
LINE
8
BLACK
6
CONTINUOUS
10
6.1924
20
-3.54512
11
6.1324
21
-3.54512
0
LINE
8
BLACK
6
CONTINUOUS
10
6.1324
20
-3.54512
11
6.12939
21
-3.54452
0
LINE
8
BLACK
6
CONTINUOUS
10
6.12939
20
-3.54452
11
6.12683
21
-3.54281
0
LINE
8
BLACK
6
CONTINUOUS
10
6.12683
20
-3.54281
11
6.12513
21
-3.54026
0
LINE
8
BLACK
6
CONTINUOUS
10
6.12513
20
-3.54026
11
6.12453
21
-3.53724
0
LINE
8
BLACK
6
CONTINUOUS
10
6.12453
20
-3.53724
11
6.12453
21
-3.47724
0
LINE
8
BLACK
6
CONTINUOUS
10
6.12453
20
-3.47724
11
6.12513
21
-3.47423
0
LINE
8
BLACK
6
CONTINUOUS
10
6.12513
20
-3.47423
11
6.12683
21
-3.47168
0
LINE
8
BLACK
6
CONTINUOUS
10
6.12683
20
-3.47168
11
6.12939
21
-3.46997
0
LINE
8
BLACK
6
CONTINUOUS
10
6.12939
20
-3.46997
11
6.1324
21
-3.46937
0
LINE
8
BLACK
6
CONTINUOUS
10
6.1324
20
-3.46937
11
6.1924
21
-3.46937
0
LINE
8
BLACK
6
CONTINUOUS
10
6.1924
20
-3.46937
11
6.19541
21
-3.46997
0
LINE
8
BLACK
6
CONTINUOUS
10
6.29541
20
-3.46997
11
6.29797
21
-3.47168
0
LINE
8
BLACK
6
CONTINUOUS
10
6.29797
20
-3.47168
11
6.29968
21
-3.47423
0
LINE
8
BLACK
6
CONTINUOUS
10
6.29968
20
-3.47423
11
6.30028
21
-3.47724
0
LINE
8
BLACK
6
CONTINUOUS
10
6.30028
20
-3.47724
11
6.30028
21
-3.53724
0
LINE
8
BLACK
6
CONTINUOUS
10
6.30028
20
-3.53724
11
6.29968
21
-3.54026
0
LINE
8
BLACK
6
CONTINUOUS
10
6.29968
20
-3.54026
11
6.29797
21
-3.54281
0
LINE
8
BLACK
6
CONTINUOUS
10
6.29797
20
-3.54281
11
6.29541
21
-3.54452
0
LINE
8
BLACK
6
CONTINUOUS
10
6.29541
20
-3.54452
11
6.2924
21
-3.54512
0
LINE
8
BLACK
6
CONTINUOUS
10
6.2924
20
-3.54512
11
6.2324
21
-3.54512
0
LINE
8
BLACK
6
CONTINUOUS
10
6.2324
20
-3.54512
11
6.22939
21
-3.54452
0
LINE
8
BLACK
6
CONTINUOUS
10
6.22939
20
-3.54452
11
6.22683
21
-3.54281
0
LINE
8
BLACK
6
CONTINUOUS
10
6.22683
20
-3.54281
11
6.22513
21
-3.54026
0
LINE
8
BLACK
6
CONTINUOUS
10
6.22513
20
-3.54026
11
6.22453
21
-3.53724
0
LINE
8
BLACK
6
CONTINUOUS
10
6.22453
20
-3.53724
11
6.22453
21
-3.47724
0
LINE
8
BLACK
6
CONTINUOUS
10
6.22453
20
-3.47724
11
6.22513
21
-3.47423
0
LINE
8
BLACK
6
CONTINUOUS
10
6.22513
20
-3.47423
11
6.22683
21
-3.47168
0
LINE
8
BLACK
6
CONTINUOUS
10
6.22683
20
-3.47168
11
6.22939
21
-3.46997
0
LINE
8
BLACK
6
CONTINUOUS
10
6.22939
20
-3.46997
11
6.2324
21
-3.46937
0
LINE
8
BLACK
6
CONTINUOUS
10
6.2324
20
-3.46937
11
6.2924
21
-3.46937
0
LINE
8
BLACK
6
CONTINUOUS
10
6.2924
20
-3.46937
11
6.29541
21
-3.46997
0
LINE
8
BLACK
6
CONTINUOUS
10
5.69541
20
-3.46997
11
5.69797
21
-3.47168
0
LINE
8
BLACK
6
CONTINUOUS
10
5.69797
20
-3.47168
11
5.69968
21
-3.47423
0
LINE
8
BLACK
6
CONTINUOUS
10
5.69968
20
-3.47423
11
5.70028
21
-3.47724
0
LINE
8
BLACK
6
CONTINUOUS
10
5.70028
20
-3.47724
11
5.70028
21
-3.53724
0
LINE
8
BLACK
6
CONTINUOUS
10
5.70028
20
-3.53724
11
5.69968
21
-3.54026
0
LINE
8
BLACK
6
CONTINUOUS
10
5.69968
20
-3.54026
11
5.69797
21
-3.54281
0
LINE
8
BLACK
6
CONTINUOUS
10
5.69797
20
-3.54281
11
5.69541
21
-3.54452
0
LINE
8
BLACK
6
CONTINUOUS
10
5.69541
20
-3.54452
11
5.6924
21
-3.54512
0
LINE
8
BLACK
6
CONTINUOUS
10
5.6924
20
-3.54512
11
5.6324
21
-3.54512
0
LINE
8
BLACK
6
CONTINUOUS
10
5.6324
20
-3.54512
11
5.62939
21
-3.54452
0
LINE
8
BLACK
6
CONTINUOUS
10
5.62939
20
-3.54452
11
5.62683
21
-3.54281
0
LINE
8
BLACK
6
CONTINUOUS
10
5.62683
20
-3.54281
11
5.62513
21
-3.54026
0
LINE
8
BLACK
6
CONTINUOUS
10
5.62513
20
-3.54026
11
5.62453
21
-3.53724
0
LINE
8
BLACK
6
CONTINUOUS
10
5.62453
20
-3.53724
11
5.62453
21
-3.47724
0
LINE
8
BLACK
6
CONTINUOUS
10
5.62453
20
-3.47724
11
5.62513
21
-3.47423
0
LINE
8
BLACK
6
CONTINUOUS
10
5.62513
20
-3.47423
11
5.62683
21
-3.47168
0
LINE
8
BLACK
6
CONTINUOUS
10
5.62683
20
-3.47168
11
5.62939
21
-3.46997
0
LINE
8
BLACK
6
CONTINUOUS
10
5.62939
20
-3.46997
11
5.6324
21
-3.46937
0
LINE
8
BLACK
6
CONTINUOUS
10
5.6324
20
-3.46937
11
5.6924
21
-3.46937
0
LINE
8
BLACK
6
CONTINUOUS
10
5.6924
20
-3.46937
11
5.69541
21
-3.46997
0
LINE
8
BLACK
6
CONTINUOUS
10
5.79541
20
-3.46997
11
5.79797
21
-3.47168
0
LINE
8
BLACK
6
CONTINUOUS
10
5.79797
20
-3.47168
11
5.79968
21
-3.47423
0
LINE
8
BLACK
6
CONTINUOUS
10
5.79968
20
-3.47423
11
5.80028
21
-3.47724
0
LINE
8
BLACK
6
CONTINUOUS
10
5.80028
20
-3.47724
11
5.80028
21
-3.53724
0
LINE
8
BLACK
6
CONTINUOUS
10
5.80028
20
-3.53724
11
5.79968
21
-3.54026
0
LINE
8
BLACK
6
CONTINUOUS
10
5.79968
20
-3.54026
11
5.79797
21
-3.54281
0
LINE
8
BLACK
6
CONTINUOUS
10
5.79797
20
-3.54281
11
5.79541
21
-3.54452
0
LINE
8
BLACK
6
CONTINUOUS
10
5.79541
20
-3.54452
11
5.7924
21
-3.54512
0
LINE
8
BLACK
6
CONTINUOUS
10
5.7924
20
-3.54512
11
5.7324
21
-3.54512
0
LINE
8
BLACK
6
CONTINUOUS
10
5.7324
20
-3.54512
11
5.72939
21
-3.54452
0
LINE
8
BLACK
6
CONTINUOUS
10
5.72939
20
-3.54452
11
5.72683
21
-3.54281
0
LINE
8
BLACK
6
CONTINUOUS
10
5.72683
20
-3.54281
11
5.72513
21
-3.54026
0
LINE
8
BLACK
6
CONTINUOUS
10
5.72513
20
-3.54026
11
5.72453
21
-3.53724
0
LINE
8
BLACK
6
CONTINUOUS
10
5.72453
20
-3.53724
11
5.72453
21
-3.47724
0
LINE
8
BLACK
6
CONTINUOUS
10
5.72453
20
-3.47724
11
5.72513
21
-3.47423
0
LINE
8
BLACK
6
CONTINUOUS
10
5.72513
20
-3.47423
11
5.72683
21
-3.47168
0
LINE
8
BLACK
6
CONTINUOUS
10
5.72683
20
-3.47168
11
5.72939
21
-3.46997
0
LINE
8
BLACK
6
CONTINUOUS
10
5.72939
20
-3.46997
11
5.7324
21
-3.46937
0
LINE
8
BLACK
6
CONTINUOUS
10
5.7324
20
-3.46937
11
5.7924
21
-3.46937
0
LINE
8
BLACK
6
CONTINUOUS
10
5.7924
20
-3.46937
11
5.79541
21
-3.46997
0
LINE
8
BLACK
6
CONTINUOUS
10
5.99541
20
-3.46997
11
5.99797
21
-3.47168
0
LINE
8
BLACK
6
CONTINUOUS
10
5.99797
20
-3.47168
11
5.99968
21
-3.47423
0
LINE
8
BLACK
6
CONTINUOUS
10
5.99968
20
-3.47423
11
6.00028
21
-3.47724
0
LINE
8
BLACK
6
CONTINUOUS
10
6.00028
20
-3.47724
11
6.00028
21
-3.53724
0
LINE
8
BLACK
6
CONTINUOUS
10
6.00028
20
-3.53724
11
5.99968
21
-3.54026
0
LINE
8
BLACK
6
CONTINUOUS
10
5.99968
20
-3.54026
11
5.99797
21
-3.54281
0
LINE
8
BLACK
6
CONTINUOUS
10
5.99797
20
-3.54281
11
5.99541
21
-3.54452
0
LINE
8
BLACK
6
CONTINUOUS
10
5.99541
20
-3.54452
11
5.9924
21
-3.54512
0
LINE
8
BLACK
6
CONTINUOUS
10
5.9924
20
-3.54512
11
5.9324
21
-3.54512
0
LINE
8
BLACK
6
CONTINUOUS
10
5.9324
20
-3.54512
11
5.92939
21
-3.54452
0
LINE
8
BLACK
6
CONTINUOUS
10
5.92939
20
-3.54452
11
5.92683
21
-3.54281
0
LINE
8
BLACK
6
CONTINUOUS
10
5.92683
20
-3.54281
11
5.92513
21
-3.54026
0
LINE
8
BLACK
6
CONTINUOUS
10
5.92513
20
-3.54026
11
5.92453
21
-3.53724
0
LINE
8
BLACK
6
CONTINUOUS
10
5.92453
20
-3.53724
11
5.92453
21
-3.47724
0
LINE
8
BLACK
6
CONTINUOUS
10
5.92453
20
-3.47724
11
5.92513
21
-3.47423
0
LINE
8
BLACK
6
CONTINUOUS
10
5.92513
20
-3.47423
11
5.92683
21
-3.47168
0
LINE
8
BLACK
6
CONTINUOUS
10
5.92683
20
-3.47168
11
5.92939
21
-3.46997
0
LINE
8
BLACK
6
CONTINUOUS
10
5.92939
20
-3.46997
11
5.9324
21
-3.46937
0
LINE
8
BLACK
6
CONTINUOUS
10
5.9324
20
-3.46937
11
5.9924
21
-3.46937
0
LINE
8
BLACK
6
CONTINUOUS
10
5.9924
20
-3.46937
11
5.99541
21
-3.46997
0
LINE
8
BLACK
6
CONTINUOUS
10
5.55791
20
-3.39747
11
5.56047
21
-3.39918
0
LINE
8
BLACK
6
CONTINUOUS
10
5.56047
20
-3.39918
11
5.56218
21
-3.40173
0
LINE
8
BLACK
6
CONTINUOUS
10
5.56218
20
-3.40173
11
5.56278
21
-3.40474
0
LINE
8
BLACK
6
CONTINUOUS
10
5.56278
20
-3.40474
11
5.56278
21
-3.45974
0
LINE
8
BLACK
6
CONTINUOUS
10
5.56278
20
-3.45974
11
5.56218
21
-3.46276
0
LINE
8
BLACK
6
CONTINUOUS
10
5.56218
20
-3.46276
11
5.56047
21
-3.46531
0
LINE
8
BLACK
6
CONTINUOUS
10
5.56047
20
-3.46531
11
5.55791
21
-3.46702
0
LINE
8
BLACK
6
CONTINUOUS
10
5.55791
20
-3.46702
11
5.5549
21
-3.46762
0
LINE
8
BLACK
6
CONTINUOUS
10
5.5549
20
-3.46762
11
5.5199
21
-3.46762
0
LINE
8
BLACK
6
CONTINUOUS
10
5.5199
20
-3.46762
11
5.51689
21
-3.46702
0
LINE
8
BLACK
6
CONTINUOUS
10
5.51689
20
-3.46702
11
5.51433
21
-3.46531
0
LINE
8
BLACK
6
CONTINUOUS
10
5.51433
20
-3.46531
11
5.51263
21
-3.46276
0
LINE
8
BLACK
6
CONTINUOUS
10
5.51263
20
-3.46276
11
5.51203
21
-3.45974
0
LINE
8
BLACK
6
CONTINUOUS
10
5.51203
20
-3.45974
11
5.51203
21
-3.40474
0
LINE
8
BLACK
6
CONTINUOUS
10
5.51203
20
-3.40474
11
5.51263
21
-3.40173
0
LINE
8
BLACK
6
CONTINUOUS
10
5.51263
20
-3.40173
11
5.51433
21
-3.39918
0
LINE
8
BLACK
6
CONTINUOUS
10
5.51433
20
-3.39918
11
5.51689
21
-3.39747
0
LINE
8
BLACK
6
CONTINUOUS
10
5.51689
20
-3.39747
11
5.5199
21
-3.39687
0
LINE
8
BLACK
6
CONTINUOUS
10
5.5199
20
-3.39687
11
5.5549
21
-3.39687
0
LINE
8
BLACK
6
CONTINUOUS
10
5.5549
20
-3.39687
11
5.55791
21
-3.39747
0
LINE
8
BLACK
6
CONTINUOUS
10
5.48291
20
-3.39747
11
5.48547
21
-3.39918
0
LINE
8
BLACK
6
CONTINUOUS
10
5.48547
20
-3.39918
11
5.48718
21
-3.40173
0
LINE
8
BLACK
6
CONTINUOUS
10
5.48718
20
-3.40173
11
5.48778
21
-3.40474
0
LINE
8
BLACK
6
CONTINUOUS
10
5.48778
20
-3.40474
11
5.48778
21
-3.45974
0
LINE
8
BLACK
6
CONTINUOUS
10
5.48778
20
-3.45974
11
5.48718
21
-3.46276
0
LINE
8
BLACK
6
CONTINUOUS
10
5.48718
20
-3.46276
11
5.48547
21
-3.46531
0
LINE
8
BLACK
6
CONTINUOUS
10
5.48547
20
-3.46531
11
5.48291
21
-3.46702
0
LINE
8
BLACK
6
CONTINUOUS
10
5.48291
20
-3.46702
11
5.4799
21
-3.46762
0
LINE
8
BLACK
6
CONTINUOUS
10
5.4799
20
-3.46762
11
5.4449
21
-3.46762
0
LINE
8
BLACK
6
CONTINUOUS
10
5.4449
20
-3.46762
11
5.44189
21
-3.46702
0
LINE
8
BLACK
6
CONTINUOUS
10
5.44189
20
-3.46702
11
5.43933
21
-3.46531
0
LINE
8
BLACK
6
CONTINUOUS
10
5.43933
20
-3.46531
11
5.43763
21
-3.46276
0
LINE
8
BLACK
6
CONTINUOUS
10
5.43763
20
-3.46276
11
5.43703
21
-3.45974
0
LINE
8
BLACK
6
CONTINUOUS
10
5.43703
20
-3.45974
11
5.43703
21
-3.40474
0
LINE
8
BLACK
6
CONTINUOUS
10
5.43703
20
-3.40474
11
5.43763
21
-3.40173
0
LINE
8
BLACK
6
CONTINUOUS
10
5.43763
20
-3.40173
11
5.43933
21
-3.39918
0
LINE
8
BLACK
6
CONTINUOUS
10
5.43933
20
-3.39918
11
5.44189
21
-3.39747
0
LINE
8
BLACK
6
CONTINUOUS
10
5.44189
20
-3.39747
11
5.4449
21
-3.39687
0
LINE
8
BLACK
6
CONTINUOUS
10
5.4449
20
-3.39687
11
5.4799
21
-3.39687
0
LINE
8
BLACK
6
CONTINUOUS
10
5.4799
20
-3.39687
11
5.48291
21
-3.39747
  0
ENDSEC
  0
EOF
