  0
SECTION
  2
HEADER
  9
$ANGBASE
  50
0.0
  9
$ANGDIR
  70
1
  9
$MEASUREMENT
  70
0
  0
ENDSEC
  0
SECTION
  2
TABLES
  0
TABLE
  2
LTYPE
  70
4
  0
LTYPE
  5
40F
  2
CONTINUOUS
  70
0
  3
Solid line
  72
65
  73
0
  40
0.0
  0
LTYPE
  5
410
  2
DASHDOT
 70
0
  3
Dash Dot ____ _ ____ _
 72
65
 73
4
 40
2.0
 49
1.25
 49
-0.25
 49
0.25
 49
-0.25
  0
LTYPE
  5
411
  2
DASHED
 70
0
  3
Dashed __ __ __ __ __
 72
65
 73
2
 40
0.75
 49
0.5
 49
-0.25
  0
LTYPE
  5
43B
  2
DOTTED
 70
0
  3
Dotted .  .  .  .
 72
65
 73
2
 40
0.2
 49
0.0
 49
-0.2
  0
ENDTAB
  0
TABLE
  2
STYLE
  70
4
  0
STYLE
  2
KICAD
  70
0
  40
0
  41
1
  42
1
  50
0
  71
0
  3
isocp.shx
  0
STYLE
  2
KICADB
  70
0
  40
0
  41
1
  42
1
  50
0
  71
0
  3
isocp.shx
  0
STYLE
  2
KICADI
  70
0
  40
0
  41
1
  42
1
  50
15
  71
0
  3
isocp.shx
  0
STYLE
  2
KICADBI
  70
0
  40
0
  41
1
  42
1
  50
15
  71
0
  3
isocp.shx
  0
ENDTAB
  0
TABLE
  2
LAYER
  70
1
  0
LAYER
  2
BLACK
  70
0
  62
7
  6
CONTINUOUS
  0
ENDTAB
  0
ENDSEC
  0
SECTION
  2
ENTITIES
0
LINE
8
BLACK
6
CONTINUOUS
10
5.96279
20
-4.25436
11
5.96291
21
-4.25434
0
LINE
8
BLACK
6
CONTINUOUS
10
5.96291
20
-4.25434
11
5.96303
21
-4.2544
0
LINE
8
BLACK
6
CONTINUOUS
10
5.96303
20
-4.2544
11
5.96341
21
-4.25447
0
LINE
8
BLACK
6
CONTINUOUS
10
5.96341
20
-4.25447
11
5.964
21
-4.25496
0
LINE
8
BLACK
6
CONTINUOUS
10
5.964
20
-4.25496
11
5.96466
21
-4.25535
0
LINE
8
BLACK
6
CONTINUOUS
10
5.96466
20
-4.25535
11
5.96475
21
-4.2556
0
LINE
8
BLACK
6
CONTINUOUS
10
5.96475
20
-4.2556
11
5.96496
21
-4.25577
0
LINE
8
BLACK
6
CONTINUOUS
10
5.96496
20
-4.25577
11
5.96509
21
-4.25652
0
LINE
8
BLACK
6
CONTINUOUS
10
5.96509
20
-4.25652
11
5.96535
21
-4.25724
0
LINE
8
BLACK
6
CONTINUOUS
10
5.96535
20
-4.25724
11
5.96535
21
-4.45724
0
LINE
8
BLACK
6
CONTINUOUS
10
5.96535
20
-4.45724
11
5.96529
21
-4.45763
0
LINE
8
BLACK
6
CONTINUOUS
10
5.96529
20
-4.45763
11
5.96531
21
-4.45776
0
LINE
8
BLACK
6
CONTINUOUS
10
5.96531
20
-4.45776
11
5.96524
21
-4.45787
0
LINE
8
BLACK
6
CONTINUOUS
10
5.96524
20
-4.45787
11
5.96518
21
-4.45825
0
LINE
8
BLACK
6
CONTINUOUS
10
5.96518
20
-4.45825
11
5.96468
21
-4.45884
0
LINE
8
BLACK
6
CONTINUOUS
10
5.96468
20
-4.45884
11
5.9643
21
-4.45951
0
LINE
8
BLACK
6
CONTINUOUS
10
5.9643
20
-4.45951
11
5.96405
21
-4.4596
0
LINE
8
BLACK
6
CONTINUOUS
10
5.96405
20
-4.4596
11
5.96388
21
-4.4598
0
LINE
8
BLACK
6
CONTINUOUS
10
5.96388
20
-4.4598
11
5.96312
21
-4.45993
0
LINE
8
BLACK
6
CONTINUOUS
10
5.96312
20
-4.45993
11
5.9624
21
-4.4602
0
LINE
8
BLACK
6
CONTINUOUS
10
5.9624
20
-4.4602
11
5.6624
21
-4.4602
0
LINE
8
BLACK
6
CONTINUOUS
10
5.6624
20
-4.4602
11
5.66202
21
-4.46013
0
LINE
8
BLACK
6
CONTINUOUS
10
5.66202
20
-4.46013
11
5.66189
21
-4.46015
0
LINE
8
BLACK
6
CONTINUOUS
10
5.66189
20
-4.46015
11
5.66178
21
-4.46009
0
LINE
8
BLACK
6
CONTINUOUS
10
5.66178
20
-4.46009
11
5.66139
21
-4.46002
0
LINE
8
BLACK
6
CONTINUOUS
10
5.66139
20
-4.46002
11
5.6608
21
-4.45953
0
LINE
8
BLACK
6
CONTINUOUS
10
5.6608
20
-4.45953
11
5.66014
21
-4.45914
0
LINE
8
BLACK
6
CONTINUOUS
10
5.66014
20
-4.45914
11
5.66005
21
-4.45889
0
LINE
8
BLACK
6
CONTINUOUS
10
5.66005
20
-4.45889
11
5.65984
21
-4.45872
0
LINE
8
BLACK
6
CONTINUOUS
10
5.65984
20
-4.45872
11
5.65971
21
-4.45796
0
LINE
8
BLACK
6
CONTINUOUS
10
5.65971
20
-4.45796
11
5.65945
21
-4.45724
0
LINE
8
BLACK
6
CONTINUOUS
10
5.65945
20
-4.45724
11
5.65945
21
-4.25724
0
LINE
8
BLACK
6
CONTINUOUS
10
5.65945
20
-4.25724
11
5.65952
21
-4.25686
0
LINE
8
BLACK
6
CONTINUOUS
10
5.65952
20
-4.25686
11
5.65949
21
-4.25673
0
LINE
8
BLACK
6
CONTINUOUS
10
5.65949
20
-4.25673
11
5.65956
21
-4.25662
0
LINE
8
BLACK
6
CONTINUOUS
10
5.65956
20
-4.25662
11
5.65963
21
-4.25623
0
LINE
8
BLACK
6
CONTINUOUS
10
5.65963
20
-4.25623
11
5.66012
21
-4.25565
0
LINE
8
BLACK
6
CONTINUOUS
10
5.66012
20
-4.25565
11
5.6605
21
-4.25498
0
LINE
8
BLACK
6
CONTINUOUS
10
5.6605
20
-4.25498
11
5.66075
21
-4.25489
0
LINE
8
BLACK
6
CONTINUOUS
10
5.66075
20
-4.25489
11
5.66093
21
-4.25469
0
LINE
8
BLACK
6
CONTINUOUS
10
5.66093
20
-4.25469
11
5.66168
21
-4.25455
0
LINE
8
BLACK
6
CONTINUOUS
10
5.66168
20
-4.25455
11
5.6624
21
-4.25429
0
LINE
8
BLACK
6
CONTINUOUS
10
5.6624
20
-4.25429
11
5.9624
21
-4.25429
0
LINE
8
BLACK
6
CONTINUOUS
10
5.9624
20
-4.25429
11
5.96279
21
-4.25436
0
LINE
8
BLACK
6
CONTINUOUS
10
5.66535
20
-4.2602
11
5.66535
21
-4.45429
0
LINE
8
BLACK
6
CONTINUOUS
10
5.66535
20
-4.45429
11
5.95945
21
-4.45429
0
LINE
8
BLACK
6
CONTINUOUS
10
5.95945
20
-4.45429
11
5.95945
21
-4.2602
0
LINE
8
BLACK
6
CONTINUOUS
10
5.95945
20
-4.2602
11
5.66535
21
-4.2602
0
LINE
8
BLACK
6
CONTINUOUS
10
6.31279
20
-4.25436
11
6.31291
21
-4.25434
0
LINE
8
BLACK
6
CONTINUOUS
10
6.31291
20
-4.25434
11
6.31303
21
-4.2544
0
LINE
8
BLACK
6
CONTINUOUS
10
6.31303
20
-4.2544
11
6.31341
21
-4.25447
0
LINE
8
BLACK
6
CONTINUOUS
10
6.31341
20
-4.25447
11
6.314
21
-4.25496
0
LINE
8
BLACK
6
CONTINUOUS
10
6.314
20
-4.25496
11
6.31466
21
-4.25535
0
LINE
8
BLACK
6
CONTINUOUS
10
6.31466
20
-4.25535
11
6.31475
21
-4.2556
0
LINE
8
BLACK
6
CONTINUOUS
10
6.31475
20
-4.2556
11
6.31496
21
-4.25577
0
LINE
8
BLACK
6
CONTINUOUS
10
6.31496
20
-4.25577
11
6.31509
21
-4.25652
0
LINE
8
BLACK
6
CONTINUOUS
10
6.31509
20
-4.25652
11
6.31535
21
-4.25724
0
LINE
8
BLACK
6
CONTINUOUS
10
6.31535
20
-4.25724
11
6.31535
21
-4.45724
0
LINE
8
BLACK
6
CONTINUOUS
10
6.31535
20
-4.45724
11
6.31529
21
-4.45763
0
LINE
8
BLACK
6
CONTINUOUS
10
6.31529
20
-4.45763
11
6.31531
21
-4.45776
0
LINE
8
BLACK
6
CONTINUOUS
10
6.31531
20
-4.45776
11
6.31524
21
-4.45787
0
LINE
8
BLACK
6
CONTINUOUS
10
6.31524
20
-4.45787
11
6.31518
21
-4.45825
0
LINE
8
BLACK
6
CONTINUOUS
10
6.31518
20
-4.45825
11
6.31468
21
-4.45884
0
LINE
8
BLACK
6
CONTINUOUS
10
6.31468
20
-4.45884
11
6.3143
21
-4.45951
0
LINE
8
BLACK
6
CONTINUOUS
10
6.3143
20
-4.45951
11
6.31405
21
-4.4596
0
LINE
8
BLACK
6
CONTINUOUS
10
6.31405
20
-4.4596
11
6.31388
21
-4.4598
0
LINE
8
BLACK
6
CONTINUOUS
10
6.31388
20
-4.4598
11
6.31312
21
-4.45993
0
LINE
8
BLACK
6
CONTINUOUS
10
6.31312
20
-4.45993
11
6.3124
21
-4.4602
0
LINE
8
BLACK
6
CONTINUOUS
10
6.3124
20
-4.4602
11
6.0124
21
-4.4602
0
LINE
8
BLACK
6
CONTINUOUS
10
6.0124
20
-4.4602
11
6.01202
21
-4.46013
0
LINE
8
BLACK
6
CONTINUOUS
10
6.01202
20
-4.46013
11
6.01189
21
-4.46015
0
LINE
8
BLACK
6
CONTINUOUS
10
6.01189
20
-4.46015
11
6.01178
21
-4.46009
0
LINE
8
BLACK
6
CONTINUOUS
10
6.01178
20
-4.46009
11
6.01139
21
-4.46002
0
LINE
8
BLACK
6
CONTINUOUS
10
6.01139
20
-4.46002
11
6.0108
21
-4.45953
0
LINE
8
BLACK
6
CONTINUOUS
10
6.0108
20
-4.45953
11
6.01014
21
-4.45914
0
LINE
8
BLACK
6
CONTINUOUS
10
6.01014
20
-4.45914
11
6.01005
21
-4.45889
0
LINE
8
BLACK
6
CONTINUOUS
10
6.01005
20
-4.45889
11
6.00984
21
-4.45872
0
LINE
8
BLACK
6
CONTINUOUS
10
6.00984
20
-4.45872
11
6.00971
21
-4.45796
0
LINE
8
BLACK
6
CONTINUOUS
10
6.00971
20
-4.45796
11
6.00945
21
-4.45724
0
LINE
8
BLACK
6
CONTINUOUS
10
6.00945
20
-4.45724
11
6.00945
21
-4.25724
0
LINE
8
BLACK
6
CONTINUOUS
10
6.00945
20
-4.25724
11
6.00952
21
-4.25686
0
LINE
8
BLACK
6
CONTINUOUS
10
6.00952
20
-4.25686
11
6.00949
21
-4.25673
0
LINE
8
BLACK
6
CONTINUOUS
10
6.00949
20
-4.25673
11
6.00956
21
-4.25662
0
LINE
8
BLACK
6
CONTINUOUS
10
6.00956
20
-4.25662
11
6.00963
21
-4.25623
0
LINE
8
BLACK
6
CONTINUOUS
10
6.00963
20
-4.25623
11
6.01012
21
-4.25565
0
LINE
8
BLACK
6
CONTINUOUS
10
6.01012
20
-4.25565
11
6.0105
21
-4.25498
0
LINE
8
BLACK
6
CONTINUOUS
10
6.0105
20
-4.25498
11
6.01075
21
-4.25489
0
LINE
8
BLACK
6
CONTINUOUS
10
6.01075
20
-4.25489
11
6.01093
21
-4.25469
0
LINE
8
BLACK
6
CONTINUOUS
10
6.01093
20
-4.25469
11
6.01168
21
-4.25455
0
LINE
8
BLACK
6
CONTINUOUS
10
6.01168
20
-4.25455
11
6.0124
21
-4.25429
0
LINE
8
BLACK
6
CONTINUOUS
10
6.0124
20
-4.25429
11
6.3124
21
-4.25429
0
LINE
8
BLACK
6
CONTINUOUS
10
6.3124
20
-4.25429
11
6.31279
21
-4.25436
0
LINE
8
BLACK
6
CONTINUOUS
10
6.01535
20
-4.2602
11
6.01535
21
-4.45429
0
LINE
8
BLACK
6
CONTINUOUS
10
6.01535
20
-4.45429
11
6.30945
21
-4.45429
0
LINE
8
BLACK
6
CONTINUOUS
10
6.30945
20
-4.45429
11
6.30945
21
-4.2602
0
LINE
8
BLACK
6
CONTINUOUS
10
6.30945
20
-4.2602
11
6.01535
21
-4.2602
0
LINE
8
BLACK
6
CONTINUOUS
10
5.58435
20
-4.33179
11
5.58504
21
-4.33368
0
LINE
8
BLACK
6
CONTINUOUS
10
5.58504
20
-4.33368
11
5.58504
21
-4.34905
0
LINE
8
BLACK
6
CONTINUOUS
10
5.58504
20
-4.34905
11
5.6025
21
-4.3316
0
LINE
8
BLACK
6
CONTINUOUS
10
5.6025
20
-4.3316
11
5.60334
21
-4.33101
0
LINE
8
BLACK
6
CONTINUOUS
10
5.60334
20
-4.33101
11
5.60535
21
-4.33083
0
LINE
8
BLACK
6
CONTINUOUS
10
5.60535
20
-4.33083
11
5.60701
21
-4.33199
0
LINE
8
BLACK
6
CONTINUOUS
10
5.60701
20
-4.33199
11
5.60753
21
-4.33394
0
LINE
8
BLACK
6
CONTINUOUS
10
5.60753
20
-4.33394
11
5.60668
21
-4.33577
0
LINE
8
BLACK
6
CONTINUOUS
10
5.60668
20
-4.33577
11
5.59161
21
-4.35083
0
LINE
8
BLACK
6
CONTINUOUS
10
5.59161
20
-4.35083
11
5.60695
21
-4.37128
0
LINE
8
BLACK
6
CONTINUOUS
10
5.60695
20
-4.37128
11
5.60741
21
-4.3722
0
LINE
8
BLACK
6
CONTINUOUS
10
5.60741
20
-4.3722
11
5.6073
21
-4.37421
0
LINE
8
BLACK
6
CONTINUOUS
10
5.6073
20
-4.37421
11
5.60592
21
-4.37569
0
LINE
8
BLACK
6
CONTINUOUS
10
5.60592
20
-4.37569
11
5.60392
21
-4.37593
0
LINE
8
BLACK
6
CONTINUOUS
10
5.60392
20
-4.37593
11
5.60223
21
-4.37483
0
LINE
8
BLACK
6
CONTINUOUS
10
5.60223
20
-4.37483
11
5.5874
21
-4.35505
0
LINE
8
BLACK
6
CONTINUOUS
10
5.5874
20
-4.35505
11
5.58504
21
-4.3574
0
LINE
8
BLACK
6
CONTINUOUS
10
5.58504
20
-4.3574
11
5.58504
21
-4.37305
0
LINE
8
BLACK
6
CONTINUOUS
10
5.58504
20
-4.37305
11
5.58487
21
-4.37406
0
LINE
8
BLACK
6
CONTINUOUS
10
5.58487
20
-4.37406
11
5.58357
21
-4.37561
0
LINE
8
BLACK
6
CONTINUOUS
10
5.58357
20
-4.37561
11
5.58158
21
-4.37596
0
LINE
8
BLACK
6
CONTINUOUS
10
5.58158
20
-4.37596
11
5.57983
21
-4.37495
0
LINE
8
BLACK
6
CONTINUOUS
10
5.57983
20
-4.37495
11
5.57914
21
-4.37305
0
LINE
8
BLACK
6
CONTINUOUS
10
5.57914
20
-4.37305
11
5.57914
21
-4.33368
0
LINE
8
BLACK
6
CONTINUOUS
10
5.57914
20
-4.33368
11
5.57932
21
-4.33267
0
LINE
8
BLACK
6
CONTINUOUS
10
5.57932
20
-4.33267
11
5.58061
21
-4.33113
0
LINE
8
BLACK
6
CONTINUOUS
10
5.58061
20
-4.33113
11
5.5826
21
-4.33078
0
LINE
8
BLACK
6
CONTINUOUS
10
5.5826
20
-4.33078
11
5.58435
21
-4.33179
0
LINE
8
BLACK
6
CONTINUOUS
10
6.56529
20
-4.20763
11
6.56531
21
-4.20776
0
LINE
8
BLACK
6
CONTINUOUS
10
6.56531
20
-4.20776
11
6.56524
21
-4.20787
0
LINE
8
BLACK
6
CONTINUOUS
10
6.56524
20
-4.20787
11
6.56518
21
-4.20825
0
LINE
8
BLACK
6
CONTINUOUS
10
6.56518
20
-4.20825
11
6.56468
21
-4.20884
0
LINE
8
BLACK
6
CONTINUOUS
10
6.56468
20
-4.20884
11
6.5643
21
-4.20951
0
LINE
8
BLACK
6
CONTINUOUS
10
6.5643
20
-4.20951
11
6.56405
21
-4.2096
0
LINE
8
BLACK
6
CONTINUOUS
10
6.56405
20
-4.2096
11
6.56388
21
-4.2098
0
LINE
8
BLACK
6
CONTINUOUS
10
6.56388
20
-4.2098
11
6.56312
21
-4.20993
0
LINE
8
BLACK
6
CONTINUOUS
10
6.56312
20
-4.20993
11
6.5624
21
-4.2102
0
LINE
8
BLACK
6
CONTINUOUS
10
6.5624
20
-4.2102
11
6.3624
21
-4.2102
0
LINE
8
BLACK
6
CONTINUOUS
10
6.3624
20
-4.2102
11
6.36202
21
-4.21013
0
LINE
8
BLACK
6
CONTINUOUS
10
6.36202
20
-4.21013
11
6.36189
21
-4.21015
0
LINE
8
BLACK
6
CONTINUOUS
10
6.36189
20
-4.21015
11
6.36178
21
-4.21009
0
LINE
8
BLACK
6
CONTINUOUS
10
6.36178
20
-4.21009
11
6.36139
21
-4.21002
0
LINE
8
BLACK
6
CONTINUOUS
10
6.36139
20
-4.21002
11
6.3608
21
-4.20953
0
LINE
8
BLACK
6
CONTINUOUS
10
6.3608
20
-4.20953
11
6.36014
21
-4.20914
0
LINE
8
BLACK
6
CONTINUOUS
10
6.36014
20
-4.20914
11
6.36005
21
-4.20889
0
LINE
8
BLACK
6
CONTINUOUS
10
6.36005
20
-4.20889
11
6.35984
21
-4.20872
0
LINE
8
BLACK
6
CONTINUOUS
10
6.35984
20
-4.20872
11
6.35971
21
-4.20796
0
LINE
8
BLACK
6
CONTINUOUS
10
6.35971
20
-4.20796
11
6.35945
21
-4.20724
0
LINE
8
BLACK
6
CONTINUOUS
10
6.35945
20
-4.20724
11
6.35945
21
-3.70724
0
LINE
8
BLACK
6
CONTINUOUS
10
6.35945
20
-3.70724
11
6.35952
21
-3.70686
0
LINE
8
BLACK
6
CONTINUOUS
10
6.35952
20
-3.70686
11
6.35949
21
-3.70673
0
LINE
8
BLACK
6
CONTINUOUS
10
6.35949
20
-3.70673
11
6.35956
21
-3.70662
0
LINE
8
BLACK
6
CONTINUOUS
10
6.35956
20
-3.70662
11
6.35963
21
-3.70623
0
LINE
8
BLACK
6
CONTINUOUS
10
6.35963
20
-3.70623
11
6.36012
21
-3.70565
0
LINE
8
BLACK
6
CONTINUOUS
10
6.36012
20
-3.70565
11
6.3605
21
-3.70498
0
LINE
8
BLACK
6
CONTINUOUS
10
6.3605
20
-3.70498
11
6.36075
21
-3.70489
0
LINE
8
BLACK
6
CONTINUOUS
10
6.36075
20
-3.70489
11
6.36093
21
-3.70469
0
LINE
8
BLACK
6
CONTINUOUS
10
6.36093
20
-3.70469
11
6.36168
21
-3.70455
0
LINE
8
BLACK
6
CONTINUOUS
10
6.36168
20
-3.70455
11
6.3624
21
-3.70429
0
LINE
8
BLACK
6
CONTINUOUS
10
6.3624
20
-3.70429
11
6.5624
21
-3.70429
0
LINE
8
BLACK
6
CONTINUOUS
10
6.5624
20
-3.70429
11
6.56279
21
-3.70436
0
LINE
8
BLACK
6
CONTINUOUS
10
6.56279
20
-3.70436
11
6.56291
21
-3.70434
0
LINE
8
BLACK
6
CONTINUOUS
10
6.56291
20
-3.70434
11
6.56303
21
-3.7044
0
LINE
8
BLACK
6
CONTINUOUS
10
6.56303
20
-3.7044
11
6.56341
21
-3.70447
0
LINE
8
BLACK
6
CONTINUOUS
10
6.56341
20
-3.70447
11
6.564
21
-3.70496
0
LINE
8
BLACK
6
CONTINUOUS
10
6.564
20
-3.70496
11
6.56466
21
-3.70535
0
LINE
8
BLACK
6
CONTINUOUS
10
6.56466
20
-3.70535
11
6.56475
21
-3.7056
0
LINE
8
BLACK
6
CONTINUOUS
10
6.56475
20
-3.7056
11
6.56496
21
-3.70577
0
LINE
8
BLACK
6
CONTINUOUS
10
6.56496
20
-3.70577
11
6.56509
21
-3.70652
0
LINE
8
BLACK
6
CONTINUOUS
10
6.56509
20
-3.70652
11
6.56535
21
-3.70724
0
LINE
8
BLACK
6
CONTINUOUS
10
6.56535
20
-3.70724
11
6.56535
21
-4.20724
0
LINE
8
BLACK
6
CONTINUOUS
10
6.56535
20
-4.20724
11
6.56529
21
-4.20763
0
LINE
8
BLACK
6
CONTINUOUS
10
6.36535
20
-4.1102
11
6.36535
21
-4.20429
0
LINE
8
BLACK
6
CONTINUOUS
10
6.36535
20
-4.20429
11
6.55945
21
-4.20429
0
LINE
8
BLACK
6
CONTINUOUS
10
6.55945
20
-4.20429
11
6.55945
21
-4.1102
0
LINE
8
BLACK
6
CONTINUOUS
10
6.55945
20
-4.1102
11
6.36535
21
-4.1102
0
LINE
8
BLACK
6
CONTINUOUS
10
6.36535
20
-4.0102
11
6.36535
21
-4.10429
0
LINE
8
BLACK
6
CONTINUOUS
10
6.36535
20
-4.10429
11
6.55945
21
-4.10429
0
LINE
8
BLACK
6
CONTINUOUS
10
6.55945
20
-4.10429
11
6.55945
21
-4.0102
0
LINE
8
BLACK
6
CONTINUOUS
10
6.55945
20
-4.0102
11
6.36535
21
-4.0102
0
LINE
8
BLACK
6
CONTINUOUS
10
6.36535
20
-3.9102
11
6.36535
21
-4.00429
0
LINE
8
BLACK
6
CONTINUOUS
10
6.36535
20
-4.00429
11
6.55945
21
-4.00429
0
LINE
8
BLACK
6
CONTINUOUS
10
6.55945
20
-4.00429
11
6.55945
21
-3.9102
0
LINE
8
BLACK
6
CONTINUOUS
10
6.55945
20
-3.9102
11
6.36535
21
-3.9102
0
LINE
8
BLACK
6
CONTINUOUS
10
6.36535
20
-3.8102
11
6.36535
21
-3.90429
0
LINE
8
BLACK
6
CONTINUOUS
10
6.36535
20
-3.90429
11
6.55945
21
-3.90429
0
LINE
8
BLACK
6
CONTINUOUS
10
6.55945
20
-3.90429
11
6.55945
21
-3.8102
0
LINE
8
BLACK
6
CONTINUOUS
10
6.55945
20
-3.8102
11
6.36535
21
-3.8102
0
LINE
8
BLACK
6
CONTINUOUS
10
6.36535
20
-3.7102
11
6.36535
21
-3.80429
0
LINE
8
BLACK
6
CONTINUOUS
10
6.36535
20
-3.80429
11
6.55945
21
-3.80429
0
LINE
8
BLACK
6
CONTINUOUS
10
6.55945
20
-3.80429
11
6.55945
21
-3.7102
0
LINE
8
BLACK
6
CONTINUOUS
10
6.55945
20
-3.7102
11
6.36535
21
-3.7102
0
LINE
8
BLACK
6
CONTINUOUS
10
5.08006
20
-4.20261
11
5.07949
21
-4.20122
0
LINE
8
BLACK
6
CONTINUOUS
10
5.07949
20
-4.20122
11
5.07949
21
-3.72484
0
LINE
8
BLACK
6
CONTINUOUS
10
5.07949
20
-3.72484
11
5.08006
21
-3.72345
0
LINE
8
BLACK
6
CONTINUOUS
10
5.08006
20
-3.72345
11
5.08146
21
-3.72287
0
LINE
8
BLACK
6
CONTINUOUS
10
5.08146
20
-3.72287
11
5.73106
21
-3.72287
0
LINE
8
BLACK
6
CONTINUOUS
10
5.73106
20
-3.72287
11
5.73245
21
-3.72345
0
LINE
8
BLACK
6
CONTINUOUS
10
5.73245
20
-3.72345
11
5.73303
21
-3.72484
0
LINE
8
BLACK
6
CONTINUOUS
10
5.73303
20
-3.72484
11
5.73303
21
-4.16185
0
LINE
8
BLACK
6
CONTINUOUS
10
5.73303
20
-4.16185
11
5.73245
21
-4.16324
0
LINE
8
BLACK
6
CONTINUOUS
10
5.73245
20
-4.16324
11
5.69308
21
-4.20261
0
LINE
8
BLACK
6
CONTINUOUS
10
5.69308
20
-4.20261
11
5.69169
21
-4.20319
0
LINE
8
BLACK
6
CONTINUOUS
10
5.69169
20
-4.20319
11
5.08146
21
-4.20319
0
LINE
8
BLACK
6
CONTINUOUS
10
5.08146
20
-4.20319
11
5.08006
21
-4.20261
0
LINE
8
BLACK
6
CONTINUOUS
10
5.08343
20
-3.72681
11
5.08343
21
-4.19925
0
LINE
8
BLACK
6
CONTINUOUS
10
5.08343
20
-4.19925
11
5.69088
21
-4.19925
0
LINE
8
BLACK
6
CONTINUOUS
10
5.69088
20
-4.19925
11
5.72909
21
-4.16104
0
LINE
8
BLACK
6
CONTINUOUS
10
5.72909
20
-4.16104
11
5.72909
21
-3.72681
0
LINE
8
BLACK
6
CONTINUOUS
10
5.72909
20
-3.72681
11
5.08343
21
-3.72681
0
LINE
8
BLACK
6
CONTINUOUS
10
5.3954
20
-3.93957
11
5.39609
21
-3.94147
0
LINE
8
BLACK
6
CONTINUOUS
10
5.39609
20
-3.94147
11
5.39609
21
-3.96959
0
LINE
8
BLACK
6
CONTINUOUS
10
5.39609
20
-3.96959
11
5.39594
21
-3.97046
0
LINE
8
BLACK
6
CONTINUOUS
10
5.39594
20
-3.97046
11
5.39594
21
-3.97053
0
LINE
8
BLACK
6
CONTINUOUS
10
5.39594
20
-3.97053
11
5.39406
21
-3.97615
0
LINE
8
BLACK
6
CONTINUOUS
10
5.39406
20
-3.97615
11
5.39357
21
-3.97705
0
LINE
8
BLACK
6
CONTINUOUS
10
5.39357
20
-3.97705
11
5.39342
21
-3.97715
0
LINE
8
BLACK
6
CONTINUOUS
10
5.39342
20
-3.97715
11
5.39335
21
-3.97731
0
LINE
8
BLACK
6
CONTINUOUS
10
5.39335
20
-3.97731
11
5.3896
21
-3.98105
0
LINE
8
BLACK
6
CONTINUOUS
10
5.3896
20
-3.98105
11
5.38876
21
-3.98164
0
LINE
8
BLACK
6
CONTINUOUS
10
5.38876
20
-3.98164
11
5.38858
21
-3.98166
0
LINE
8
BLACK
6
CONTINUOUS
10
5.38858
20
-3.98166
11
5.38845
21
-3.98177
0
LINE
8
BLACK
6
CONTINUOUS
10
5.38845
20
-3.98177
11
5.38282
21
-3.98364
0
LINE
8
BLACK
6
CONTINUOUS
10
5.38282
20
-3.98364
11
5.38195
21
-3.98377
0
LINE
8
BLACK
6
CONTINUOUS
10
5.38195
20
-3.98377
11
5.38189
21
-3.98379
0
LINE
8
BLACK
6
CONTINUOUS
10
5.38189
20
-3.98379
11
5.37814
21
-3.98379
0
LINE
8
BLACK
6
CONTINUOUS
10
5.37814
20
-3.98379
11
5.37713
21
-3.98362
0
LINE
8
BLACK
6
CONTINUOUS
10
5.37713
20
-3.98362
11
5.37558
21
-3.98232
0
LINE
8
BLACK
6
CONTINUOUS
10
5.37558
20
-3.98232
11
5.37523
21
-3.98033
0
LINE
8
BLACK
6
CONTINUOUS
10
5.37523
20
-3.98033
11
5.37624
21
-3.97858
0
LINE
8
BLACK
6
CONTINUOUS
10
5.37624
20
-3.97858
11
5.37814
21
-3.97789
0
LINE
8
BLACK
6
CONTINUOUS
10
5.37814
20
-3.97789
11
5.38141
21
-3.97789
0
LINE
8
BLACK
6
CONTINUOUS
10
5.38141
20
-3.97789
11
5.38592
21
-3.97639
0
LINE
8
BLACK
6
CONTINUOUS
10
5.38592
20
-3.97639
11
5.38868
21
-3.97362
0
LINE
8
BLACK
6
CONTINUOUS
10
5.38868
20
-3.97362
11
5.39018
21
-3.96911
0
LINE
8
BLACK
6
CONTINUOUS
10
5.39018
20
-3.96911
11
5.39018
21
-3.94147
0
LINE
8
BLACK
6
CONTINUOUS
10
5.39018
20
-3.94147
11
5.39036
21
-3.94046
0
LINE
8
BLACK
6
CONTINUOUS
10
5.39036
20
-3.94046
11
5.39166
21
-3.93891
0
LINE
8
BLACK
6
CONTINUOUS
10
5.39166
20
-3.93891
11
5.39365
21
-3.93856
0
LINE
8
BLACK
6
CONTINUOUS
10
5.39365
20
-3.93856
11
5.3954
21
-3.93957
0
LINE
8
BLACK
6
CONTINUOUS
10
5.4216
20
-3.93859
11
5.42177
21
-3.93856
0
LINE
8
BLACK
6
CONTINUOUS
10
5.42177
20
-3.93856
11
5.42251
21
-3.93899
0
LINE
8
BLACK
6
CONTINUOUS
10
5.42251
20
-3.93899
11
5.4233
21
-3.93934
0
LINE
8
BLACK
6
CONTINUOUS
10
5.4233
20
-3.93934
11
5.42337
21
-3.93949
0
LINE
8
BLACK
6
CONTINUOUS
10
5.42337
20
-3.93949
11
5.42352
21
-3.93957
0
LINE
8
BLACK
6
CONTINUOUS
10
5.42352
20
-3.93957
11
5.42381
21
-3.94038
0
LINE
8
BLACK
6
CONTINUOUS
10
5.42381
20
-3.94038
11
5.42419
21
-3.94115
0
LINE
8
BLACK
6
CONTINUOUS
10
5.42419
20
-3.94115
11
5.42415
21
-3.94131
0
LINE
8
BLACK
6
CONTINUOUS
10
5.42415
20
-3.94131
11
5.42421
21
-3.94147
0
LINE
8
BLACK
6
CONTINUOUS
10
5.42421
20
-3.94147
11
5.42421
21
-3.97789
0
LINE
8
BLACK
6
CONTINUOUS
10
5.42421
20
-3.97789
11
5.43251
21
-3.97789
0
LINE
8
BLACK
6
CONTINUOUS
10
5.43251
20
-3.97789
11
5.43352
21
-3.97807
0
LINE
8
BLACK
6
CONTINUOUS
10
5.43352
20
-3.97807
11
5.43506
21
-3.97937
0
LINE
8
BLACK
6
CONTINUOUS
10
5.43506
20
-3.97937
11
5.43541
21
-3.98135
0
LINE
8
BLACK
6
CONTINUOUS
10
5.43541
20
-3.98135
11
5.4344
21
-3.9831
0
LINE
8
BLACK
6
CONTINUOUS
10
5.4344
20
-3.9831
11
5.43251
21
-3.98379
0
LINE
8
BLACK
6
CONTINUOUS
10
5.43251
20
-3.98379
11
5.41001
21
-3.98379
0
LINE
8
BLACK
6
CONTINUOUS
10
5.41001
20
-3.98379
11
5.409
21
-3.98362
0
LINE
8
BLACK
6
CONTINUOUS
10
5.409
20
-3.98362
11
5.40745
21
-3.98232
0
LINE
8
BLACK
6
CONTINUOUS
10
5.40745
20
-3.98232
11
5.4071
21
-3.98033
0
LINE
8
BLACK
6
CONTINUOUS
10
5.4071
20
-3.98033
11
5.40811
21
-3.97858
0
LINE
8
BLACK
6
CONTINUOUS
10
5.40811
20
-3.97858
11
5.41001
21
-3.97789
0
LINE
8
BLACK
6
CONTINUOUS
10
5.41001
20
-3.97789
11
5.41831
21
-3.97789
0
LINE
8
BLACK
6
CONTINUOUS
10
5.41831
20
-3.97789
11
5.41831
21
-3.95048
0
LINE
8
BLACK
6
CONTINUOUS
10
5.41831
20
-3.95048
11
5.41585
21
-3.95293
0
LINE
8
BLACK
6
CONTINUOUS
10
5.41585
20
-3.95293
11
5.41512
21
-3.95344
0
LINE
8
BLACK
6
CONTINUOUS
10
5.41512
20
-3.95344
11
5.41508
21
-3.95349
0
LINE
8
BLACK
6
CONTINUOUS
10
5.41508
20
-3.95349
11
5.41133
21
-3.95536
0
LINE
8
BLACK
6
CONTINUOUS
10
5.41133
20
-3.95536
11
5.41035
21
-3.95565
0
LINE
8
BLACK
6
CONTINUOUS
10
5.41035
20
-3.95565
11
5.40838
21
-3.95518
0
LINE
8
BLACK
6
CONTINUOUS
10
5.40838
20
-3.95518
11
5.40718
21
-3.95356
0
LINE
8
BLACK
6
CONTINUOUS
10
5.40718
20
-3.95356
11
5.4073
21
-3.95155
0
LINE
8
BLACK
6
CONTINUOUS
10
5.4073
20
-3.95155
11
5.40869
21
-3.95008
0
LINE
8
BLACK
6
CONTINUOUS
10
5.40869
20
-3.95008
11
5.41201
21
-3.94842
0
LINE
8
BLACK
6
CONTINUOUS
10
5.41201
20
-3.94842
11
5.41521
21
-3.94521
0
LINE
8
BLACK
6
CONTINUOUS
10
5.41521
20
-3.94521
11
5.4188
21
-3.93983
0
LINE
8
BLACK
6
CONTINUOUS
10
5.4188
20
-3.93983
11
5.41951
21
-3.93909
0
LINE
8
BLACK
6
CONTINUOUS
10
5.41951
20
-3.93909
11
5.41967
21
-3.93904
0
LINE
8
BLACK
6
CONTINUOUS
10
5.41967
20
-3.93904
11
5.41978
21
-3.93891
0
LINE
8
BLACK
6
CONTINUOUS
10
5.41978
20
-3.93891
11
5.42063
21
-3.93877
0
LINE
8
BLACK
6
CONTINUOUS
10
5.42063
20
-3.93877
11
5.42145
21
-3.93852
0
LINE
8
BLACK
6
CONTINUOUS
10
5.42145
20
-3.93852
11
5.4216
21
-3.93859
0
LINE
8
BLACK
6
CONTINUOUS
10
5.61202
20
-3.66013
11
5.61189
21
-3.66015
0
LINE
8
BLACK
6
CONTINUOUS
10
5.61189
20
-3.66015
11
5.61178
21
-3.66009
0
LINE
8
BLACK
6
CONTINUOUS
10
5.61178
20
-3.66009
11
5.61139
21
-3.66002
0
LINE
8
BLACK
6
CONTINUOUS
10
5.61139
20
-3.66002
11
5.6108
21
-3.65953
0
LINE
8
BLACK
6
CONTINUOUS
10
5.6108
20
-3.65953
11
5.61014
21
-3.65914
0
LINE
8
BLACK
6
CONTINUOUS
10
5.61014
20
-3.65914
11
5.61005
21
-3.65889
0
LINE
8
BLACK
6
CONTINUOUS
10
5.61005
20
-3.65889
11
5.60984
21
-3.65872
0
LINE
8
BLACK
6
CONTINUOUS
10
5.60984
20
-3.65872
11
5.60971
21
-3.65796
0
LINE
8
BLACK
6
CONTINUOUS
10
5.60971
20
-3.65796
11
5.60945
21
-3.65724
0
LINE
8
BLACK
6
CONTINUOUS
10
5.60945
20
-3.65724
11
5.60945
21
-3.45724
0
LINE
8
BLACK
6
CONTINUOUS
10
5.60945
20
-3.45724
11
5.60952
21
-3.45686
0
LINE
8
BLACK
6
CONTINUOUS
10
5.60952
20
-3.45686
11
5.60949
21
-3.45673
0
LINE
8
BLACK
6
CONTINUOUS
10
5.60949
20
-3.45673
11
5.60956
21
-3.45662
0
LINE
8
BLACK
6
CONTINUOUS
10
5.60956
20
-3.45662
11
5.60963
21
-3.45623
0
LINE
8
BLACK
6
CONTINUOUS
10
5.60963
20
-3.45623
11
5.61012
21
-3.45565
0
LINE
8
BLACK
6
CONTINUOUS
10
5.61012
20
-3.45565
11
5.6105
21
-3.45498
0
LINE
8
BLACK
6
CONTINUOUS
10
5.6105
20
-3.45498
11
5.61075
21
-3.45489
0
LINE
8
BLACK
6
CONTINUOUS
10
5.61075
20
-3.45489
11
5.61093
21
-3.45469
0
LINE
8
BLACK
6
CONTINUOUS
10
5.61093
20
-3.45469
11
5.61168
21
-3.45455
0
LINE
8
BLACK
6
CONTINUOUS
10
5.61168
20
-3.45455
11
5.6124
21
-3.45429
0
LINE
8
BLACK
6
CONTINUOUS
10
5.6124
20
-3.45429
11
6.3124
21
-3.45429
0
LINE
8
BLACK
6
CONTINUOUS
10
6.3124
20
-3.45429
11
6.31279
21
-3.45436
0
LINE
8
BLACK
6
CONTINUOUS
10
6.31279
20
-3.45436
11
6.31291
21
-3.45434
0
LINE
8
BLACK
6
CONTINUOUS
10
6.31291
20
-3.45434
11
6.31303
21
-3.4544
0
LINE
8
BLACK
6
CONTINUOUS
10
6.31303
20
-3.4544
11
6.31341
21
-3.45447
0
LINE
8
BLACK
6
CONTINUOUS
10
6.31341
20
-3.45447
11
6.314
21
-3.45496
0
LINE
8
BLACK
6
CONTINUOUS
10
6.314
20
-3.45496
11
6.31466
21
-3.45535
0
LINE
8
BLACK
6
CONTINUOUS
10
6.31466
20
-3.45535
11
6.31475
21
-3.4556
0
LINE
8
BLACK
6
CONTINUOUS
10
6.31475
20
-3.4556
11
6.31496
21
-3.45577
0
LINE
8
BLACK
6
CONTINUOUS
10
6.31496
20
-3.45577
11
6.31509
21
-3.45652
0
LINE
8
BLACK
6
CONTINUOUS
10
6.31509
20
-3.45652
11
6.31535
21
-3.45724
0
LINE
8
BLACK
6
CONTINUOUS
10
6.31535
20
-3.45724
11
6.31535
21
-3.65724
0
LINE
8
BLACK
6
CONTINUOUS
10
6.31535
20
-3.65724
11
6.31529
21
-3.65763
0
LINE
8
BLACK
6
CONTINUOUS
10
6.31529
20
-3.65763
11
6.31531
21
-3.65776
0
LINE
8
BLACK
6
CONTINUOUS
10
6.31531
20
-3.65776
11
6.31524
21
-3.65787
0
LINE
8
BLACK
6
CONTINUOUS
10
6.31524
20
-3.65787
11
6.31518
21
-3.65825
0
LINE
8
BLACK
6
CONTINUOUS
10
6.31518
20
-3.65825
11
6.31468
21
-3.65884
0
LINE
8
BLACK
6
CONTINUOUS
10
6.31468
20
-3.65884
11
6.3143
21
-3.65951
0
LINE
8
BLACK
6
CONTINUOUS
10
6.3143
20
-3.65951
11
6.31405
21
-3.6596
0
LINE
8
BLACK
6
CONTINUOUS
10
6.31405
20
-3.6596
11
6.31388
21
-3.6598
0
LINE
8
BLACK
6
CONTINUOUS
10
6.31388
20
-3.6598
11
6.31312
21
-3.65993
0
LINE
8
BLACK
6
CONTINUOUS
10
6.31312
20
-3.65993
11
6.3124
21
-3.6602
0
LINE
8
BLACK
6
CONTINUOUS
10
6.3124
20
-3.6602
11
5.6124
21
-3.6602
0
LINE
8
BLACK
6
CONTINUOUS
10
5.6124
20
-3.6602
11
5.61202
21
-3.66013
0
LINE
8
BLACK
6
CONTINUOUS
10
6.21535
20
-3.4602
11
6.21535
21
-3.65429
0
LINE
8
BLACK
6
CONTINUOUS
10
6.21535
20
-3.65429
11
6.30945
21
-3.65429
0
LINE
8
BLACK
6
CONTINUOUS
10
6.30945
20
-3.65429
11
6.30945
21
-3.4602
0
LINE
8
BLACK
6
CONTINUOUS
10
6.30945
20
-3.4602
11
6.21535
21
-3.4602
0
LINE
8
BLACK
6
CONTINUOUS
10
6.11535
20
-3.4602
11
6.11535
21
-3.65429
0
LINE
8
BLACK
6
CONTINUOUS
10
6.11535
20
-3.65429
11
6.20945
21
-3.65429
0
LINE
8
BLACK
6
CONTINUOUS
10
6.20945
20
-3.65429
11
6.20945
21
-3.4602
0
LINE
8
BLACK
6
CONTINUOUS
10
6.20945
20
-3.4602
11
6.11535
21
-3.4602
0
LINE
8
BLACK
6
CONTINUOUS
10
6.01535
20
-3.4602
11
6.01535
21
-3.65429
0
LINE
8
BLACK
6
CONTINUOUS
10
6.01535
20
-3.65429
11
6.10945
21
-3.65429
0
LINE
8
BLACK
6
CONTINUOUS
10
6.10945
20
-3.65429
11
6.10945
21
-3.4602
0
LINE
8
BLACK
6
CONTINUOUS
10
6.10945
20
-3.4602
11
6.01535
21
-3.4602
0
LINE
8
BLACK
6
CONTINUOUS
10
5.91535
20
-3.4602
11
5.91535
21
-3.65429
0
LINE
8
BLACK
6
CONTINUOUS
10
5.91535
20
-3.65429
11
6.00945
21
-3.65429
0
LINE
8
BLACK
6
CONTINUOUS
10
6.00945
20
-3.65429
11
6.00945
21
-3.4602
0
LINE
8
BLACK
6
CONTINUOUS
10
6.00945
20
-3.4602
11
5.91535
21
-3.4602
0
LINE
8
BLACK
6
CONTINUOUS
10
5.90945
20
-3.65429
11
5.90945
21
-3.4602
0
LINE
8
BLACK
6
CONTINUOUS
10
5.90945
20
-3.4602
11
5.81535
21
-3.4602
0
LINE
8
BLACK
6
CONTINUOUS
10
5.81535
20
-3.4602
11
5.81535
21
-3.65429
0
LINE
8
BLACK
6
CONTINUOUS
10
5.81535
20
-3.65429
11
5.90945
21
-3.65429
0
LINE
8
BLACK
6
CONTINUOUS
10
5.71535
20
-3.5602
11
5.71535
21
-3.65429
0
LINE
8
BLACK
6
CONTINUOUS
10
5.71535
20
-3.65429
11
5.80945
21
-3.65429
0
LINE
8
BLACK
6
CONTINUOUS
10
5.80945
20
-3.65429
11
5.80945
21
-3.5602
0
LINE
8
BLACK
6
CONTINUOUS
10
5.80945
20
-3.5602
11
5.71535
21
-3.5602
0
LINE
8
BLACK
6
CONTINUOUS
10
5.61535
20
-3.5602
11
5.61535
21
-3.65429
0
LINE
8
BLACK
6
CONTINUOUS
10
5.61535
20
-3.65429
11
5.70945
21
-3.65429
0
LINE
8
BLACK
6
CONTINUOUS
10
5.70945
20
-3.65429
11
5.70945
21
-3.5602
0
LINE
8
BLACK
6
CONTINUOUS
10
5.70945
20
-3.5602
11
5.61535
21
-3.5602
0
LINE
8
BLACK
6
CONTINUOUS
10
5.71535
20
-3.4602
11
5.71535
21
-3.55429
0
LINE
8
BLACK
6
CONTINUOUS
10
5.71535
20
-3.55429
11
5.80945
21
-3.55429
0
LINE
8
BLACK
6
CONTINUOUS
10
5.80945
20
-3.55429
11
5.80945
21
-3.4602
0
LINE
8
BLACK
6
CONTINUOUS
10
5.80945
20
-3.4602
11
5.71535
21
-3.4602
0
LINE
8
BLACK
6
CONTINUOUS
10
5.61535
20
-3.4602
11
5.61535
21
-3.55429
0
LINE
8
BLACK
6
CONTINUOUS
10
5.61535
20
-3.55429
11
5.70945
21
-3.55429
0
LINE
8
BLACK
6
CONTINUOUS
10
5.70945
20
-3.55429
11
5.70945
21
-3.4602
0
LINE
8
BLACK
6
CONTINUOUS
10
5.70945
20
-3.4602
11
5.61535
21
-3.4602
0
LINE
8
BLACK
6
CONTINUOUS
10
5.46164
20
-3.6267
11
5.46319
21
-3.628
0
LINE
8
BLACK
6
CONTINUOUS
10
5.46319
20
-3.628
11
5.46354
21
-3.62999
0
LINE
8
BLACK
6
CONTINUOUS
10
5.46354
20
-3.62999
11
5.46253
21
-3.63174
0
LINE
8
BLACK
6
CONTINUOUS
10
5.46253
20
-3.63174
11
5.46063
21
-3.63243
0
LINE
8
BLACK
6
CONTINUOUS
10
5.46063
20
-3.63243
11
5.43063
21
-3.63243
0
LINE
8
BLACK
6
CONTINUOUS
10
5.43063
20
-3.63243
11
5.42962
21
-3.63225
0
LINE
8
BLACK
6
CONTINUOUS
10
5.42962
20
-3.63225
11
5.42807
21
-3.63095
0
LINE
8
BLACK
6
CONTINUOUS
10
5.42807
20
-3.63095
11
5.42772
21
-3.62896
0
LINE
8
BLACK
6
CONTINUOUS
10
5.42772
20
-3.62896
11
5.42873
21
-3.62721
0
LINE
8
BLACK
6
CONTINUOUS
10
5.42873
20
-3.62721
11
5.43063
21
-3.62652
0
LINE
8
BLACK
6
CONTINUOUS
10
5.43063
20
-3.62652
11
5.46063
21
-3.62652
0
LINE
8
BLACK
6
CONTINUOUS
10
5.46063
20
-3.62652
11
5.46164
21
-3.6267
0
LINE
8
BLACK
6
CONTINUOUS
10
5.48414
20
-3.58358
11
5.48427
21
-3.58369
0
LINE
8
BLACK
6
CONTINUOUS
10
5.48427
20
-3.58369
11
5.48445
21
-3.58371
0
LINE
8
BLACK
6
CONTINUOUS
10
5.48445
20
-3.58371
11
5.4882
21
-3.58559
0
LINE
8
BLACK
6
CONTINUOUS
10
5.4882
20
-3.58559
11
5.4889
21
-3.58611
0
LINE
8
BLACK
6
CONTINUOUS
10
5.4889
20
-3.58611
11
5.48896
21
-3.58614
0
LINE
8
BLACK
6
CONTINUOUS
10
5.48896
20
-3.58614
11
5.49084
21
-3.58802
0
LINE
8
BLACK
6
CONTINUOUS
10
5.49084
20
-3.58802
11
5.49134
21
-3.58874
0
LINE
8
BLACK
6
CONTINUOUS
10
5.49134
20
-3.58874
11
5.49139
21
-3.58878
0
LINE
8
BLACK
6
CONTINUOUS
10
5.49139
20
-3.58878
11
5.49327
21
-3.59253
0
LINE
8
BLACK
6
CONTINUOUS
10
5.49327
20
-3.59253
11
5.49356
21
-3.59352
0
LINE
8
BLACK
6
CONTINUOUS
10
5.49356
20
-3.59352
11
5.49352
21
-3.59369
0
LINE
8
BLACK
6
CONTINUOUS
10
5.49352
20
-3.59369
11
5.49358
21
-3.59385
0
LINE
8
BLACK
6
CONTINUOUS
10
5.49358
20
-3.59385
11
5.49358
21
-3.5976
0
LINE
8
BLACK
6
CONTINUOUS
10
5.49358
20
-3.5976
11
5.4934
21
-3.59861
0
LINE
8
BLACK
6
CONTINUOUS
10
5.4934
20
-3.59861
11
5.49329
21
-3.59875
0
LINE
8
BLACK
6
CONTINUOUS
10
5.49329
20
-3.59875
11
5.49327
21
-3.59892
0
LINE
8
BLACK
6
CONTINUOUS
10
5.49327
20
-3.59892
11
5.49139
21
-3.60267
0
LINE
8
BLACK
6
CONTINUOUS
10
5.49139
20
-3.60267
11
5.49086
21
-3.60338
0
LINE
8
BLACK
6
CONTINUOUS
10
5.49086
20
-3.60338
11
5.49084
21
-3.60344
0
LINE
8
BLACK
6
CONTINUOUS
10
5.49084
20
-3.60344
11
5.48996
21
-3.60432
0
LINE
8
BLACK
6
CONTINUOUS
10
5.48996
20
-3.60432
11
5.49059
21
-3.60466
0
LINE
8
BLACK
6
CONTINUOUS
10
5.49059
20
-3.60466
11
5.49068
21
-3.60481
0
LINE
8
BLACK
6
CONTINUOUS
10
5.49068
20
-3.60481
11
5.49084
21
-3.60489
0
LINE
8
BLACK
6
CONTINUOUS
10
5.49084
20
-3.60489
11
5.49271
21
-3.60676
0
LINE
8
BLACK
6
CONTINUOUS
10
5.49271
20
-3.60676
11
5.49322
21
-3.60749
0
LINE
8
BLACK
6
CONTINUOUS
10
5.49322
20
-3.60749
11
5.49327
21
-3.60753
0
LINE
8
BLACK
6
CONTINUOUS
10
5.49327
20
-3.60753
11
5.49514
21
-3.61128
0
LINE
8
BLACK
6
CONTINUOUS
10
5.49514
20
-3.61128
11
5.49543
21
-3.61226
0
LINE
8
BLACK
6
CONTINUOUS
10
5.49543
20
-3.61226
11
5.49539
21
-3.61243
0
LINE
8
BLACK
6
CONTINUOUS
10
5.49539
20
-3.61243
11
5.49545
21
-3.6126
0
LINE
8
BLACK
6
CONTINUOUS
10
5.49545
20
-3.6126
11
5.49545
21
-3.61822
0
LINE
8
BLACK
6
CONTINUOUS
10
5.49545
20
-3.61822
11
5.49527
21
-3.61923
0
LINE
8
BLACK
6
CONTINUOUS
10
5.49527
20
-3.61923
11
5.49516
21
-3.61937
0
LINE
8
BLACK
6
CONTINUOUS
10
5.49516
20
-3.61937
11
5.49514
21
-3.61955
0
LINE
8
BLACK
6
CONTINUOUS
10
5.49514
20
-3.61955
11
5.49327
21
-3.62329
0
LINE
8
BLACK
6
CONTINUOUS
10
5.49327
20
-3.62329
11
5.49274
21
-3.624
0
LINE
8
BLACK
6
CONTINUOUS
10
5.49274
20
-3.624
11
5.49271
21
-3.62406
0
LINE
8
BLACK
6
CONTINUOUS
10
5.49271
20
-3.62406
11
5.49084
21
-3.62594
0
LINE
8
BLACK
6
CONTINUOUS
10
5.49084
20
-3.62594
11
5.49011
21
-3.62644
0
LINE
8
BLACK
6
CONTINUOUS
10
5.49011
20
-3.62644
11
5.49007
21
-3.62649
0
LINE
8
BLACK
6
CONTINUOUS
10
5.49007
20
-3.62649
11
5.48632
21
-3.62836
0
LINE
8
BLACK
6
CONTINUOUS
10
5.48632
20
-3.62836
11
5.48534
21
-3.62866
0
LINE
8
BLACK
6
CONTINUOUS
10
5.48534
20
-3.62866
11
5.48517
21
-3.62862
0
LINE
8
BLACK
6
CONTINUOUS
10
5.48517
20
-3.62862
11
5.485
21
-3.62868
0
LINE
8
BLACK
6
CONTINUOUS
10
5.485
20
-3.62868
11
5.47
21
-3.62868
0
LINE
8
BLACK
6
CONTINUOUS
10
5.47
20
-3.62868
11
5.46962
21
-3.62861
0
LINE
8
BLACK
6
CONTINUOUS
10
5.46962
20
-3.62861
11
5.46949
21
-3.62863
0
LINE
8
BLACK
6
CONTINUOUS
10
5.46949
20
-3.62863
11
5.46938
21
-3.62857
0
LINE
8
BLACK
6
CONTINUOUS
10
5.46938
20
-3.62857
11
5.46899
21
-3.6285
0
LINE
8
BLACK
6
CONTINUOUS
10
5.46899
20
-3.6285
11
5.4684
21
-3.62801
0
LINE
8
BLACK
6
CONTINUOUS
10
5.4684
20
-3.62801
11
5.46774
21
-3.62762
0
LINE
8
BLACK
6
CONTINUOUS
10
5.46774
20
-3.62762
11
5.46765
21
-3.62737
0
LINE
8
BLACK
6
CONTINUOUS
10
5.46765
20
-3.62737
11
5.46744
21
-3.6272
0
LINE
8
BLACK
6
CONTINUOUS
10
5.46744
20
-3.6272
11
5.46731
21
-3.62644
0
LINE
8
BLACK
6
CONTINUOUS
10
5.46731
20
-3.62644
11
5.46705
21
-3.62572
0
LINE
8
BLACK
6
CONTINUOUS
10
5.46705
20
-3.62572
11
5.46705
21
-3.58635
0
LINE
8
BLACK
6
CONTINUOUS
10
5.46705
20
-3.58635
11
5.46712
21
-3.58597
0
LINE
8
BLACK
6
CONTINUOUS
10
5.46712
20
-3.58597
11
5.46709
21
-3.58584
0
LINE
8
BLACK
6
CONTINUOUS
10
5.46709
20
-3.58584
11
5.46716
21
-3.58573
0
LINE
8
BLACK
6
CONTINUOUS
10
5.46716
20
-3.58573
11
5.46723
21
-3.58534
0
LINE
8
BLACK
6
CONTINUOUS
10
5.46723
20
-3.58534
11
5.46772
21
-3.58476
0
LINE
8
BLACK
6
CONTINUOUS
10
5.46772
20
-3.58476
11
5.4681
21
-3.58409
0
LINE
8
BLACK
6
CONTINUOUS
10
5.4681
20
-3.58409
11
5.46835
21
-3.584
0
LINE
8
BLACK
6
CONTINUOUS
10
5.46835
20
-3.584
11
5.46853
21
-3.5838
0
LINE
8
BLACK
6
CONTINUOUS
10
5.46853
20
-3.5838
11
5.46928
21
-3.58366
0
LINE
8
BLACK
6
CONTINUOUS
10
5.46928
20
-3.58366
11
5.47
21
-3.5834
0
LINE
8
BLACK
6
CONTINUOUS
10
5.47
20
-3.5834
11
5.48313
21
-3.5834
0
LINE
8
BLACK
6
CONTINUOUS
10
5.48313
20
-3.5834
11
5.48414
21
-3.58358
0
LINE
8
BLACK
6
CONTINUOUS
10
5.47295
20
-3.60805
11
5.47295
21
-3.62277
0
LINE
8
BLACK
6
CONTINUOUS
10
5.47295
20
-3.62277
11
5.4843
21
-3.62277
0
LINE
8
BLACK
6
CONTINUOUS
10
5.4843
20
-3.62277
11
5.487
21
-3.62142
0
LINE
8
BLACK
6
CONTINUOUS
10
5.487
20
-3.62142
11
5.4882
21
-3.62023
0
LINE
8
BLACK
6
CONTINUOUS
10
5.4882
20
-3.62023
11
5.48955
21
-3.61753
0
LINE
8
BLACK
6
CONTINUOUS
10
5.48955
20
-3.61753
11
5.48955
21
-3.6133
0
LINE
8
BLACK
6
CONTINUOUS
10
5.48955
20
-3.6133
11
5.4882
21
-3.6106
0
LINE
8
BLACK
6
CONTINUOUS
10
5.4882
20
-3.6106
11
5.48715
21
-3.60956
0
LINE
8
BLACK
6
CONTINUOUS
10
5.48715
20
-3.60956
11
5.48265
21
-3.60805
0
LINE
8
BLACK
6
CONTINUOUS
10
5.48265
20
-3.60805
11
5.47295
21
-3.60805
0
LINE
8
BLACK
6
CONTINUOUS
10
5.47295
20
-3.58931
11
5.47295
21
-3.60215
0
LINE
8
BLACK
6
CONTINUOUS
10
5.47295
20
-3.60215
11
5.48243
21
-3.60215
0
LINE
8
BLACK
6
CONTINUOUS
10
5.48243
20
-3.60215
11
5.48513
21
-3.6008
0
LINE
8
BLACK
6
CONTINUOUS
10
5.48513
20
-3.6008
11
5.48632
21
-3.5996
0
LINE
8
BLACK
6
CONTINUOUS
10
5.48632
20
-3.5996
11
5.48767
21
-3.59691
0
LINE
8
BLACK
6
CONTINUOUS
10
5.48767
20
-3.59691
11
5.48767
21
-3.59455
0
LINE
8
BLACK
6
CONTINUOUS
10
5.48767
20
-3.59455
11
5.48632
21
-3.59185
0
LINE
8
BLACK
6
CONTINUOUS
10
5.48632
20
-3.59185
11
5.48513
21
-3.59066
0
LINE
8
BLACK
6
CONTINUOUS
10
5.48513
20
-3.59066
11
5.48243
21
-3.58931
0
LINE
8
BLACK
6
CONTINUOUS
10
5.48243
20
-3.58931
11
5.47295
21
-3.58931
0
LINE
8
BLACK
6
CONTINUOUS
10
5.41477
20
-3.58358
11
5.4149
21
-3.58369
0
LINE
8
BLACK
6
CONTINUOUS
10
5.4149
20
-3.58369
11
5.41508
21
-3.58371
0
LINE
8
BLACK
6
CONTINUOUS
10
5.41508
20
-3.58371
11
5.41883
21
-3.58559
0
LINE
8
BLACK
6
CONTINUOUS
10
5.41883
20
-3.58559
11
5.41954
21
-3.58611
0
LINE
8
BLACK
6
CONTINUOUS
10
5.41954
20
-3.58611
11
5.4196
21
-3.58614
0
LINE
8
BLACK
6
CONTINUOUS
10
5.4196
20
-3.58614
11
5.42147
21
-3.58802
0
LINE
8
BLACK
6
CONTINUOUS
10
5.42147
20
-3.58802
11
5.42198
21
-3.58874
0
LINE
8
BLACK
6
CONTINUOUS
10
5.42198
20
-3.58874
11
5.42202
21
-3.58878
0
LINE
8
BLACK
6
CONTINUOUS
10
5.42202
20
-3.58878
11
5.4239
21
-3.59253
0
LINE
8
BLACK
6
CONTINUOUS
10
5.4239
20
-3.59253
11
5.42419
21
-3.59352
0
LINE
8
BLACK
6
CONTINUOUS
10
5.42419
20
-3.59352
11
5.42415
21
-3.59369
0
LINE
8
BLACK
6
CONTINUOUS
10
5.42415
20
-3.59369
11
5.42421
21
-3.59385
0
LINE
8
BLACK
6
CONTINUOUS
10
5.42421
20
-3.59385
11
5.42421
21
-3.5976
0
LINE
8
BLACK
6
CONTINUOUS
10
5.42421
20
-3.5976
11
5.42403
21
-3.59861
0
LINE
8
BLACK
6
CONTINUOUS
10
5.42403
20
-3.59861
11
5.42392
21
-3.59875
0
LINE
8
BLACK
6
CONTINUOUS
10
5.42392
20
-3.59875
11
5.4239
21
-3.59892
0
LINE
8
BLACK
6
CONTINUOUS
10
5.4239
20
-3.59892
11
5.42202
21
-3.60267
0
LINE
8
BLACK
6
CONTINUOUS
10
5.42202
20
-3.60267
11
5.4215
21
-3.60338
0
LINE
8
BLACK
6
CONTINUOUS
10
5.4215
20
-3.60338
11
5.42147
21
-3.60344
0
LINE
8
BLACK
6
CONTINUOUS
10
5.42147
20
-3.60344
11
5.42059
21
-3.60432
0
LINE
8
BLACK
6
CONTINUOUS
10
5.42059
20
-3.60432
11
5.42122
21
-3.60466
0
LINE
8
BLACK
6
CONTINUOUS
10
5.42122
20
-3.60466
11
5.42131
21
-3.60481
0
LINE
8
BLACK
6
CONTINUOUS
10
5.42131
20
-3.60481
11
5.42147
21
-3.60489
0
LINE
8
BLACK
6
CONTINUOUS
10
5.42147
20
-3.60489
11
5.42335
21
-3.60676
0
LINE
8
BLACK
6
CONTINUOUS
10
5.42335
20
-3.60676
11
5.42385
21
-3.60749
0
LINE
8
BLACK
6
CONTINUOUS
10
5.42385
20
-3.60749
11
5.4239
21
-3.60753
0
LINE
8
BLACK
6
CONTINUOUS
10
5.4239
20
-3.60753
11
5.42577
21
-3.61128
0
LINE
8
BLACK
6
CONTINUOUS
10
5.42577
20
-3.61128
11
5.42607
21
-3.61226
0
LINE
8
BLACK
6
CONTINUOUS
10
5.42607
20
-3.61226
11
5.42603
21
-3.61243
0
LINE
8
BLACK
6
CONTINUOUS
10
5.42603
20
-3.61243
11
5.42609
21
-3.6126
0
LINE
8
BLACK
6
CONTINUOUS
10
5.42609
20
-3.6126
11
5.42609
21
-3.61822
0
LINE
8
BLACK
6
CONTINUOUS
10
5.42609
20
-3.61822
11
5.42591
21
-3.61923
0
LINE
8
BLACK
6
CONTINUOUS
10
5.42591
20
-3.61923
11
5.42579
21
-3.61937
0
LINE
8
BLACK
6
CONTINUOUS
10
5.42579
20
-3.61937
11
5.42577
21
-3.61955
0
LINE
8
BLACK
6
CONTINUOUS
10
5.42577
20
-3.61955
11
5.4239
21
-3.62329
0
LINE
8
BLACK
6
CONTINUOUS
10
5.4239
20
-3.62329
11
5.42337
21
-3.624
0
LINE
8
BLACK
6
CONTINUOUS
10
5.42337
20
-3.624
11
5.42335
21
-3.62406
0
LINE
8
BLACK
6
CONTINUOUS
10
5.42335
20
-3.62406
11
5.42147
21
-3.62594
0
LINE
8
BLACK
6
CONTINUOUS
10
5.42147
20
-3.62594
11
5.42075
21
-3.62644
0
LINE
8
BLACK
6
CONTINUOUS
10
5.42075
20
-3.62644
11
5.4207
21
-3.62649
0
LINE
8
BLACK
6
CONTINUOUS
10
5.4207
20
-3.62649
11
5.41695
21
-3.62836
0
LINE
8
BLACK
6
CONTINUOUS
10
5.41695
20
-3.62836
11
5.41597
21
-3.62866
0
LINE
8
BLACK
6
CONTINUOUS
10
5.41597
20
-3.62866
11
5.4158
21
-3.62862
0
LINE
8
BLACK
6
CONTINUOUS
10
5.4158
20
-3.62862
11
5.41563
21
-3.62868
0
LINE
8
BLACK
6
CONTINUOUS
10
5.41563
20
-3.62868
11
5.40064
21
-3.62868
0
LINE
8
BLACK
6
CONTINUOUS
10
5.40064
20
-3.62868
11
5.40025
21
-3.62861
0
LINE
8
BLACK
6
CONTINUOUS
10
5.40025
20
-3.62861
11
5.40012
21
-3.62863
0
LINE
8
BLACK
6
CONTINUOUS
10
5.40012
20
-3.62863
11
5.40001
21
-3.62857
0
LINE
8
BLACK
6
CONTINUOUS
10
5.40001
20
-3.62857
11
5.39963
21
-3.6285
0
LINE
8
BLACK
6
CONTINUOUS
10
5.39963
20
-3.6285
11
5.39904
21
-3.62801
0
LINE
8
BLACK
6
CONTINUOUS
10
5.39904
20
-3.62801
11
5.39837
21
-3.62762
0
LINE
8
BLACK
6
CONTINUOUS
10
5.39837
20
-3.62762
11
5.39828
21
-3.62737
0
LINE
8
BLACK
6
CONTINUOUS
10
5.39828
20
-3.62737
11
5.39808
21
-3.6272
0
LINE
8
BLACK
6
CONTINUOUS
10
5.39808
20
-3.6272
11
5.39795
21
-3.62644
0
LINE
8
BLACK
6
CONTINUOUS
10
5.39795
20
-3.62644
11
5.39768
21
-3.62572
0
LINE
8
BLACK
6
CONTINUOUS
10
5.39768
20
-3.62572
11
5.39768
21
-3.58635
0
LINE
8
BLACK
6
CONTINUOUS
10
5.39768
20
-3.58635
11
5.39775
21
-3.58597
0
LINE
8
BLACK
6
CONTINUOUS
10
5.39775
20
-3.58597
11
5.39773
21
-3.58584
0
LINE
8
BLACK
6
CONTINUOUS
10
5.39773
20
-3.58584
11
5.39779
21
-3.58573
0
LINE
8
BLACK
6
CONTINUOUS
10
5.39779
20
-3.58573
11
5.39786
21
-3.58534
0
LINE
8
BLACK
6
CONTINUOUS
10
5.39786
20
-3.58534
11
5.39835
21
-3.58476
0
LINE
8
BLACK
6
CONTINUOUS
10
5.39835
20
-3.58476
11
5.39874
21
-3.58409
0
LINE
8
BLACK
6
CONTINUOUS
10
5.39874
20
-3.58409
11
5.39899
21
-3.584
0
LINE
8
BLACK
6
CONTINUOUS
10
5.39899
20
-3.584
11
5.39916
21
-3.5838
0
LINE
8
BLACK
6
CONTINUOUS
10
5.39916
20
-3.5838
11
5.39991
21
-3.58366
0
LINE
8
BLACK
6
CONTINUOUS
10
5.39991
20
-3.58366
11
5.40064
21
-3.5834
0
LINE
8
BLACK
6
CONTINUOUS
10
5.40064
20
-3.5834
11
5.41376
21
-3.5834
0
LINE
8
BLACK
6
CONTINUOUS
10
5.41376
20
-3.5834
11
5.41477
21
-3.58358
0
LINE
8
BLACK
6
CONTINUOUS
10
5.40359
20
-3.60805
11
5.40359
21
-3.62277
0
LINE
8
BLACK
6
CONTINUOUS
10
5.40359
20
-3.62277
11
5.41494
21
-3.62277
0
LINE
8
BLACK
6
CONTINUOUS
10
5.41494
20
-3.62277
11
5.41763
21
-3.62142
0
LINE
8
BLACK
6
CONTINUOUS
10
5.41763
20
-3.62142
11
5.41883
21
-3.62023
0
LINE
8
BLACK
6
CONTINUOUS
10
5.41883
20
-3.62023
11
5.42018
21
-3.61753
0
LINE
8
BLACK
6
CONTINUOUS
10
5.42018
20
-3.61753
11
5.42018
21
-3.6133
0
LINE
8
BLACK
6
CONTINUOUS
10
5.42018
20
-3.6133
11
5.41883
21
-3.6106
0
LINE
8
BLACK
6
CONTINUOUS
10
5.41883
20
-3.6106
11
5.41779
21
-3.60956
0
LINE
8
BLACK
6
CONTINUOUS
10
5.41779
20
-3.60956
11
5.41328
21
-3.60805
0
LINE
8
BLACK
6
CONTINUOUS
10
5.41328
20
-3.60805
11
5.40359
21
-3.60805
0
LINE
8
BLACK
6
CONTINUOUS
10
5.40359
20
-3.58931
11
5.40359
21
-3.60215
0
LINE
8
BLACK
6
CONTINUOUS
10
5.40359
20
-3.60215
11
5.41306
21
-3.60215
0
LINE
8
BLACK
6
CONTINUOUS
10
5.41306
20
-3.60215
11
5.41576
21
-3.6008
0
LINE
8
BLACK
6
CONTINUOUS
10
5.41576
20
-3.6008
11
5.41696
21
-3.5996
0
LINE
8
BLACK
6
CONTINUOUS
10
5.41696
20
-3.5996
11
5.41831
21
-3.59691
0
LINE
8
BLACK
6
CONTINUOUS
10
5.41831
20
-3.59691
11
5.41831
21
-3.59455
0
LINE
8
BLACK
6
CONTINUOUS
10
5.41831
20
-3.59455
11
5.41696
21
-3.59185
0
LINE
8
BLACK
6
CONTINUOUS
10
5.41696
20
-3.59185
11
5.41576
21
-3.59066
0
LINE
8
BLACK
6
CONTINUOUS
10
5.41576
20
-3.59066
11
5.41306
21
-3.58931
0
LINE
8
BLACK
6
CONTINUOUS
10
5.41306
20
-3.58931
11
5.40359
21
-3.58931
0
LINE
8
BLACK
6
CONTINUOUS
10
5.58435
20
-3.53179
11
5.58504
21
-3.53368
0
LINE
8
BLACK
6
CONTINUOUS
10
5.58504
20
-3.53368
11
5.58504
21
-3.54905
0
LINE
8
BLACK
6
CONTINUOUS
10
5.58504
20
-3.54905
11
5.6025
21
-3.5316
0
LINE
8
BLACK
6
CONTINUOUS
10
5.6025
20
-3.5316
11
5.60334
21
-3.53101
0
LINE
8
BLACK
6
CONTINUOUS
10
5.60334
20
-3.53101
11
5.60535
21
-3.53083
0
LINE
8
BLACK
6
CONTINUOUS
10
5.60535
20
-3.53083
11
5.60701
21
-3.53199
0
LINE
8
BLACK
6
CONTINUOUS
10
5.60701
20
-3.53199
11
5.60753
21
-3.53394
0
LINE
8
BLACK
6
CONTINUOUS
10
5.60753
20
-3.53394
11
5.60668
21
-3.53577
0
LINE
8
BLACK
6
CONTINUOUS
10
5.60668
20
-3.53577
11
5.59161
21
-3.55083
0
LINE
8
BLACK
6
CONTINUOUS
10
5.59161
20
-3.55083
11
5.60695
21
-3.57128
0
LINE
8
BLACK
6
CONTINUOUS
10
5.60695
20
-3.57128
11
5.60741
21
-3.5722
0
LINE
8
BLACK
6
CONTINUOUS
10
5.60741
20
-3.5722
11
5.6073
21
-3.57421
0
LINE
8
BLACK
6
CONTINUOUS
10
5.6073
20
-3.57421
11
5.60592
21
-3.57569
0
LINE
8
BLACK
6
CONTINUOUS
10
5.60592
20
-3.57569
11
5.60392
21
-3.57593
0
LINE
8
BLACK
6
CONTINUOUS
10
5.60392
20
-3.57593
11
5.60223
21
-3.57483
0
LINE
8
BLACK
6
CONTINUOUS
10
5.60223
20
-3.57483
11
5.5874
21
-3.55505
0
LINE
8
BLACK
6
CONTINUOUS
10
5.5874
20
-3.55505
11
5.58504
21
-3.5574
0
LINE
8
BLACK
6
CONTINUOUS
10
5.58504
20
-3.5574
11
5.58504
21
-3.57305
0
LINE
8
BLACK
6
CONTINUOUS
10
5.58504
20
-3.57305
11
5.58487
21
-3.57406
0
LINE
8
BLACK
6
CONTINUOUS
10
5.58487
20
-3.57406
11
5.58357
21
-3.57561
0
LINE
8
BLACK
6
CONTINUOUS
10
5.58357
20
-3.57561
11
5.58158
21
-3.57596
0
LINE
8
BLACK
6
CONTINUOUS
10
5.58158
20
-3.57596
11
5.57983
21
-3.57495
0
LINE
8
BLACK
6
CONTINUOUS
10
5.57983
20
-3.57495
11
5.57914
21
-3.57305
0
LINE
8
BLACK
6
CONTINUOUS
10
5.57914
20
-3.57305
11
5.57914
21
-3.53368
0
LINE
8
BLACK
6
CONTINUOUS
10
5.57914
20
-3.53368
11
5.57932
21
-3.53267
0
LINE
8
BLACK
6
CONTINUOUS
10
5.57932
20
-3.53267
11
5.58061
21
-3.53113
0
LINE
8
BLACK
6
CONTINUOUS
10
5.58061
20
-3.53113
11
5.5826
21
-3.53078
0
LINE
8
BLACK
6
CONTINUOUS
10
5.5826
20
-3.53078
11
5.58435
21
-3.53179
0
LINE
8
BLACK
6
CONTINUOUS
10
5.14032
20
-4.32771
11
5.14438
21
-4.31429
0
LINE
8
BLACK
6
CONTINUOUS
10
5.14438
20
-4.31429
11
5.1499
21
-4.3014
0
LINE
8
BLACK
6
CONTINUOUS
10
5.1499
20
-4.3014
11
5.15683
21
-4.28921
0
LINE
8
BLACK
6
CONTINUOUS
10
5.15683
20
-4.28921
11
5.16507
21
-4.27786
0
LINE
8
BLACK
6
CONTINUOUS
10
5.16507
20
-4.27786
11
5.17452
21
-4.26751
0
LINE
8
BLACK
6
CONTINUOUS
10
5.17452
20
-4.26751
11
5.18507
21
-4.25827
0
LINE
8
BLACK
6
CONTINUOUS
10
5.18507
20
-4.25827
11
5.19659
21
-4.25027
0
LINE
8
BLACK
6
CONTINUOUS
10
5.19659
20
-4.25027
11
5.20892
21
-4.2436
0
LINE
8
BLACK
6
CONTINUOUS
10
5.20892
20
-4.2436
11
5.22192
21
-4.23834
0
LINE
8
BLACK
6
CONTINUOUS
10
5.22192
20
-4.23834
11
5.23543
21
-4.23457
0
LINE
8
BLACK
6
CONTINUOUS
10
5.23543
20
-4.23457
11
5.24927
21
-4.23233
0
LINE
8
BLACK
6
CONTINUOUS
10
5.24927
20
-4.23233
11
5.26328
21
-4.23165
0
LINE
8
BLACK
6
CONTINUOUS
10
5.26328
20
-4.23165
11
5.27727
21
-4.23253
0
LINE
8
BLACK
6
CONTINUOUS
10
5.27727
20
-4.23253
11
5.29108
21
-4.23496
0
LINE
8
BLACK
6
CONTINUOUS
10
5.29108
20
-4.23496
11
5.30453
21
-4.23892
0
LINE
8
BLACK
6
CONTINUOUS
10
5.30453
20
-4.23892
11
5.31746
21
-4.24436
0
LINE
8
BLACK
6
CONTINUOUS
10
5.31746
20
-4.24436
11
5.3297
21
-4.2512
0
LINE
8
BLACK
6
CONTINUOUS
10
5.3297
20
-4.2512
11
5.3411
21
-4.25936
0
LINE
8
BLACK
6
CONTINUOUS
10
5.3411
20
-4.25936
11
5.35152
21
-4.26874
0
LINE
8
BLACK
6
CONTINUOUS
10
5.35152
20
-4.26874
11
5.36083
21
-4.27923
0
LINE
8
BLACK
6
CONTINUOUS
10
5.36083
20
-4.27923
11
5.36892
21
-4.29069
0
LINE
8
BLACK
6
CONTINUOUS
10
5.36892
20
-4.29069
11
5.37567
21
-4.30297
0
LINE
8
BLACK
6
CONTINUOUS
10
5.37567
20
-4.30297
11
5.38102
21
-4.31594
0
LINE
8
BLACK
6
CONTINUOUS
10
5.38102
20
-4.31594
11
5.38488
21
-4.32942
0
LINE
8
BLACK
6
CONTINUOUS
10
5.38488
20
-4.32942
11
5.38722
21
-4.34324
0
LINE
8
BLACK
6
CONTINUOUS
10
5.38722
20
-4.34324
11
5.388
21
-4.35724
0
LINE
8
BLACK
6
CONTINUOUS
10
5.388
20
-4.35724
11
5.38795
21
-4.36075
0
LINE
8
BLACK
6
CONTINUOUS
10
5.38795
20
-4.36075
11
5.38678
21
-4.37472
0
LINE
8
BLACK
6
CONTINUOUS
10
5.38678
20
-4.37472
11
5.38406
21
-4.38848
0
LINE
8
BLACK
6
CONTINUOUS
10
5.38406
20
-4.38848
11
5.37982
21
-4.40185
0
LINE
8
BLACK
6
CONTINUOUS
10
5.37982
20
-4.40185
11
5.37411
21
-4.41466
0
LINE
8
BLACK
6
CONTINUOUS
10
5.37411
20
-4.41466
11
5.36702
21
-4.42675
0
LINE
8
BLACK
6
CONTINUOUS
10
5.36702
20
-4.42675
11
5.35862
21
-4.43798
0
LINE
8
BLACK
6
CONTINUOUS
10
5.35862
20
-4.43798
11
5.34902
21
-4.4482
0
LINE
8
BLACK
6
CONTINUOUS
10
5.34902
20
-4.4482
11
5.33834
21
-4.45729
0
LINE
8
BLACK
6
CONTINUOUS
10
5.33834
20
-4.45729
11
5.32671
21
-4.46513
0
LINE
8
BLACK
6
CONTINUOUS
10
5.32671
20
-4.46513
11
5.31429
21
-4.47163
0
LINE
8
BLACK
6
CONTINUOUS
10
5.31429
20
-4.47163
11
5.30121
21
-4.4767
0
LINE
8
BLACK
6
CONTINUOUS
10
5.30121
20
-4.4767
11
5.28766
21
-4.48028
0
LINE
8
BLACK
6
CONTINUOUS
10
5.28766
20
-4.48028
11
5.27379
21
-4.48233
0
LINE
8
BLACK
6
CONTINUOUS
10
5.27379
20
-4.48233
11
5.25977
21
-4.48282
0
LINE
8
BLACK
6
CONTINUOUS
10
5.25977
20
-4.48282
11
5.24579
21
-4.48174
0
LINE
8
BLACK
6
CONTINUOUS
10
5.24579
20
-4.48174
11
5.23202
21
-4.47911
0
LINE
8
BLACK
6
CONTINUOUS
10
5.23202
20
-4.47911
11
5.21862
21
-4.47497
0
LINE
8
BLACK
6
CONTINUOUS
10
5.21862
20
-4.47497
11
5.20577
21
-4.46935
0
LINE
8
BLACK
6
CONTINUOUS
10
5.20577
20
-4.46935
11
5.19363
21
-4.46234
0
LINE
8
BLACK
6
CONTINUOUS
10
5.19363
20
-4.46234
11
5.18234
21
-4.45402
0
LINE
8
BLACK
6
CONTINUOUS
10
5.18234
20
-4.45402
11
5.17205
21
-4.44449
0
LINE
8
BLACK
6
CONTINUOUS
10
5.17205
20
-4.44449
11
5.16289
21
-4.43388
0
LINE
8
BLACK
6
CONTINUOUS
10
5.16289
20
-4.43388
11
5.15497
21
-4.42231
0
LINE
8
BLACK
6
CONTINUOUS
10
5.15497
20
-4.42231
11
5.14838
21
-4.40993
0
LINE
8
BLACK
6
CONTINUOUS
10
5.14838
20
-4.40993
11
5.14322
21
-4.39689
0
LINE
8
BLACK
6
CONTINUOUS
10
5.14322
20
-4.39689
11
5.13955
21
-4.38336
0
LINE
8
BLACK
6
CONTINUOUS
10
5.13955
20
-4.38336
11
5.1374
21
-4.3695
0
LINE
8
BLACK
6
CONTINUOUS
10
5.1374
20
-4.3695
11
5.13681
21
-4.35549
0
LINE
8
BLACK
6
CONTINUOUS
10
5.13681
20
-4.35549
11
5.13693
21
-4.35376
0
LINE
8
BLACK
6
CONTINUOUS
10
5.13693
20
-4.35376
11
5.13779
21
-4.3415
0
LINE
8
BLACK
6
CONTINUOUS
10
5.13779
20
-4.3415
11
5.14032
21
-4.32771
0
LINE
8
BLACK
6
CONTINUOUS
10
5.1538
20
-4.37914
11
5.15704
21
-4.39148
0
LINE
8
BLACK
6
CONTINUOUS
10
5.15704
20
-4.39148
11
5.16167
21
-4.40336
0
LINE
8
BLACK
6
CONTINUOUS
10
5.16167
20
-4.40336
11
5.16764
21
-4.41463
0
LINE
8
BLACK
6
CONTINUOUS
10
5.16764
20
-4.41463
11
5.17486
21
-4.42515
0
LINE
8
BLACK
6
CONTINUOUS
10
5.17486
20
-4.42515
11
5.18325
21
-4.43476
0
LINE
8
BLACK
6
CONTINUOUS
10
5.18325
20
-4.43476
11
5.19268
21
-4.44334
0
LINE
8
BLACK
6
CONTINUOUS
10
5.19268
20
-4.44334
11
5.20304
21
-4.45079
0
LINE
8
BLACK
6
CONTINUOUS
10
5.20304
20
-4.45079
11
5.21418
21
-4.45699
0
LINE
8
BLACK
6
CONTINUOUS
10
5.21418
20
-4.45699
11
5.22597
21
-4.46187
0
LINE
8
BLACK
6
CONTINUOUS
10
5.22597
20
-4.46187
11
5.23823
21
-4.46536
0
LINE
8
BLACK
6
CONTINUOUS
10
5.23823
20
-4.46536
11
5.25082
21
-4.46742
0
LINE
8
BLACK
6
CONTINUOUS
10
5.25082
20
-4.46742
11
5.26356
21
-4.46803
0
LINE
8
BLACK
6
CONTINUOUS
10
5.26356
20
-4.46803
11
5.27629
21
-4.46716
0
LINE
8
BLACK
6
CONTINUOUS
10
5.27629
20
-4.46716
11
5.28883
21
-4.46483
0
LINE
8
BLACK
6
CONTINUOUS
10
5.28883
20
-4.46483
11
5.30102
21
-4.46108
0
LINE
8
BLACK
6
CONTINUOUS
10
5.30102
20
-4.46108
11
5.3127
21
-4.45596
0
LINE
8
BLACK
6
CONTINUOUS
10
5.3127
20
-4.45596
11
5.32371
21
-4.44952
0
LINE
8
BLACK
6
CONTINUOUS
10
5.32371
20
-4.44952
11
5.33391
21
-4.44186
0
LINE
8
BLACK
6
CONTINUOUS
10
5.33391
20
-4.44186
11
5.34316
21
-4.43308
0
LINE
8
BLACK
6
CONTINUOUS
10
5.34316
20
-4.43308
11
5.35134
21
-4.4233
0
LINE
8
BLACK
6
CONTINUOUS
10
5.35134
20
-4.4233
11
5.35835
21
-4.41264
0
LINE
8
BLACK
6
CONTINUOUS
10
5.35835
20
-4.41264
11
5.36408
21
-4.40124
0
LINE
8
BLACK
6
CONTINUOUS
10
5.36408
20
-4.40124
11
5.36846
21
-4.38927
0
LINE
8
BLACK
6
CONTINUOUS
10
5.36846
20
-4.38927
11
5.37144
21
-4.37686
0
LINE
8
BLACK
6
CONTINUOUS
10
5.37144
20
-4.37686
11
5.37297
21
-4.3642
0
LINE
8
BLACK
6
CONTINUOUS
10
5.37297
20
-4.3642
11
5.37319
21
-4.35724
0
LINE
8
BLACK
6
CONTINUOUS
10
5.37319
20
-4.35724
11
5.37245
21
-4.34451
0
LINE
8
BLACK
6
CONTINUOUS
10
5.37245
20
-4.34451
11
5.37026
21
-4.33195
0
LINE
8
BLACK
6
CONTINUOUS
10
5.37026
20
-4.33195
11
5.36664
21
-4.31972
0
LINE
8
BLACK
6
CONTINUOUS
10
5.36664
20
-4.31972
11
5.36164
21
-4.30798
0
LINE
8
BLACK
6
CONTINUOUS
10
5.36164
20
-4.30798
11
5.35532
21
-4.2969
0
LINE
8
BLACK
6
CONTINUOUS
10
5.35532
20
-4.2969
11
5.34776
21
-4.28663
0
LINE
8
BLACK
6
CONTINUOUS
10
5.34776
20
-4.28663
11
5.33908
21
-4.27728
0
LINE
8
BLACK
6
CONTINUOUS
10
5.33908
20
-4.27728
11
5.32938
21
-4.269
0
LINE
8
BLACK
6
CONTINUOUS
10
5.32938
20
-4.269
11
5.3188
21
-4.26188
0
LINE
8
BLACK
6
CONTINUOUS
10
5.3188
20
-4.26188
11
5.30746
21
-4.25603
0
LINE
8
BLACK
6
CONTINUOUS
10
5.30746
20
-4.25603
11
5.29553
21
-4.25153
0
LINE
8
BLACK
6
CONTINUOUS
10
5.29553
20
-4.25153
11
5.28316
21
-4.24842
0
LINE
8
BLACK
6
CONTINUOUS
10
5.28316
20
-4.24842
11
5.27052
21
-4.24675
0
LINE
8
BLACK
6
CONTINUOUS
10
5.27052
20
-4.24675
11
5.25776
21
-4.24655
0
LINE
8
BLACK
6
CONTINUOUS
10
5.25776
20
-4.24655
11
5.24507
21
-4.24782
0
LINE
8
BLACK
6
CONTINUOUS
10
5.24507
20
-4.24782
11
5.23261
21
-4.25054
0
LINE
8
BLACK
6
CONTINUOUS
10
5.23261
20
-4.25054
11
5.22054
21
-4.25467
0
LINE
8
BLACK
6
CONTINUOUS
10
5.22054
20
-4.25467
11
5.20903
21
-4.26016
0
LINE
8
BLACK
6
CONTINUOUS
10
5.20903
20
-4.26016
11
5.19822
21
-4.26694
0
LINE
8
BLACK
6
CONTINUOUS
10
5.19822
20
-4.26694
11
5.18827
21
-4.27491
0
LINE
8
BLACK
6
CONTINUOUS
10
5.18827
20
-4.27491
11
5.1793
21
-4.28398
0
LINE
8
BLACK
6
CONTINUOUS
10
5.1793
20
-4.28398
11
5.17143
21
-4.29402
0
LINE
8
BLACK
6
CONTINUOUS
10
5.17143
20
-4.29402
11
5.16476
21
-4.30489
0
LINE
8
BLACK
6
CONTINUOUS
10
5.16476
20
-4.30489
11
5.15939
21
-4.31646
0
LINE
8
BLACK
6
CONTINUOUS
10
5.15939
20
-4.31646
11
5.15539
21
-4.32857
0
LINE
8
BLACK
6
CONTINUOUS
10
5.15539
20
-4.32857
11
5.1528
21
-4.34106
0
LINE
8
BLACK
6
CONTINUOUS
10
5.1528
20
-4.34106
11
5.15167
21
-4.35376
0
LINE
8
BLACK
6
CONTINUOUS
10
5.15167
20
-4.35376
11
5.152
21
-4.36651
0
LINE
8
BLACK
6
CONTINUOUS
10
5.152
20
-4.36651
11
5.1538
21
-4.37914
0
LINE
8
BLACK
6
CONTINUOUS
10
6.34032
20
-4.32771
11
6.34438
21
-4.31429
0
LINE
8
BLACK
6
CONTINUOUS
10
6.34438
20
-4.31429
11
6.3499
21
-4.3014
0
LINE
8
BLACK
6
CONTINUOUS
10
6.3499
20
-4.3014
11
6.35683
21
-4.28921
0
LINE
8
BLACK
6
CONTINUOUS
10
6.35683
20
-4.28921
11
6.36507
21
-4.27786
0
LINE
8
BLACK
6
CONTINUOUS
10
6.36507
20
-4.27786
11
6.37452
21
-4.26751
0
LINE
8
BLACK
6
CONTINUOUS
10
6.37452
20
-4.26751
11
6.38507
21
-4.25827
0
LINE
8
BLACK
6
CONTINUOUS
10
6.38507
20
-4.25827
11
6.39659
21
-4.25027
0
LINE
8
BLACK
6
CONTINUOUS
10
6.39659
20
-4.25027
11
6.40892
21
-4.2436
0
LINE
8
BLACK
6
CONTINUOUS
10
6.40892
20
-4.2436
11
6.42192
21
-4.23834
0
LINE
8
BLACK
6
CONTINUOUS
10
6.42192
20
-4.23834
11
6.43543
21
-4.23457
0
LINE
8
BLACK
6
CONTINUOUS
10
6.43543
20
-4.23457
11
6.44927
21
-4.23233
0
LINE
8
BLACK
6
CONTINUOUS
10
6.44927
20
-4.23233
11
6.46328
21
-4.23165
0
LINE
8
BLACK
6
CONTINUOUS
10
6.46328
20
-4.23165
11
6.47727
21
-4.23253
0
LINE
8
BLACK
6
CONTINUOUS
10
6.47727
20
-4.23253
11
6.49108
21
-4.23496
0
LINE
8
BLACK
6
CONTINUOUS
10
6.49108
20
-4.23496
11
6.50453
21
-4.23892
0
LINE
8
BLACK
6
CONTINUOUS
10
6.50453
20
-4.23892
11
6.51746
21
-4.24436
0
LINE
8
BLACK
6
CONTINUOUS
10
6.51746
20
-4.24436
11
6.5297
21
-4.2512
0
LINE
8
BLACK
6
CONTINUOUS
10
6.5297
20
-4.2512
11
6.5411
21
-4.25936
0
LINE
8
BLACK
6
CONTINUOUS
10
6.5411
20
-4.25936
11
6.55152
21
-4.26874
0
LINE
8
BLACK
6
CONTINUOUS
10
6.55152
20
-4.26874
11
6.56083
21
-4.27923
0
LINE
8
BLACK
6
CONTINUOUS
10
6.56083
20
-4.27923
11
6.56892
21
-4.29069
0
LINE
8
BLACK
6
CONTINUOUS
10
6.56892
20
-4.29069
11
6.57567
21
-4.30297
0
LINE
8
BLACK
6
CONTINUOUS
10
6.57567
20
-4.30297
11
6.58102
21
-4.31594
0
LINE
8
BLACK
6
CONTINUOUS
10
6.58102
20
-4.31594
11
6.58488
21
-4.32942
0
LINE
8
BLACK
6
CONTINUOUS
10
6.58488
20
-4.32942
11
6.58722
21
-4.34324
0
LINE
8
BLACK
6
CONTINUOUS
10
6.58722
20
-4.34324
11
6.588
21
-4.35724
0
LINE
8
BLACK
6
CONTINUOUS
10
6.588
20
-4.35724
11
6.58795
21
-4.36075
0
LINE
8
BLACK
6
CONTINUOUS
10
6.58795
20
-4.36075
11
6.58678
21
-4.37472
0
LINE
8
BLACK
6
CONTINUOUS
10
6.58678
20
-4.37472
11
6.58406
21
-4.38848
0
LINE
8
BLACK
6
CONTINUOUS
10
6.58406
20
-4.38848
11
6.57982
21
-4.40185
0
LINE
8
BLACK
6
CONTINUOUS
10
6.57982
20
-4.40185
11
6.57411
21
-4.41466
0
LINE
8
BLACK
6
CONTINUOUS
10
6.57411
20
-4.41466
11
6.56702
21
-4.42675
0
LINE
8
BLACK
6
CONTINUOUS
10
6.56702
20
-4.42675
11
6.55862
21
-4.43798
0
LINE
8
BLACK
6
CONTINUOUS
10
6.55862
20
-4.43798
11
6.54902
21
-4.4482
0
LINE
8
BLACK
6
CONTINUOUS
10
6.54902
20
-4.4482
11
6.53834
21
-4.45729
0
LINE
8
BLACK
6
CONTINUOUS
10
6.53834
20
-4.45729
11
6.52671
21
-4.46513
0
LINE
8
BLACK
6
CONTINUOUS
10
6.52671
20
-4.46513
11
6.51429
21
-4.47163
0
LINE
8
BLACK
6
CONTINUOUS
10
6.51429
20
-4.47163
11
6.50121
21
-4.4767
0
LINE
8
BLACK
6
CONTINUOUS
10
6.50121
20
-4.4767
11
6.48766
21
-4.48028
0
LINE
8
BLACK
6
CONTINUOUS
10
6.48766
20
-4.48028
11
6.47379
21
-4.48233
0
LINE
8
BLACK
6
CONTINUOUS
10
6.47379
20
-4.48233
11
6.45977
21
-4.48282
0
LINE
8
BLACK
6
CONTINUOUS
10
6.45977
20
-4.48282
11
6.44579
21
-4.48174
0
LINE
8
BLACK
6
CONTINUOUS
10
6.44579
20
-4.48174
11
6.43202
21
-4.47911
0
LINE
8
BLACK
6
CONTINUOUS
10
6.43202
20
-4.47911
11
6.41862
21
-4.47497
0
LINE
8
BLACK
6
CONTINUOUS
10
6.41862
20
-4.47497
11
6.40577
21
-4.46935
0
LINE
8
BLACK
6
CONTINUOUS
10
6.40577
20
-4.46935
11
6.39363
21
-4.46234
0
LINE
8
BLACK
6
CONTINUOUS
10
6.39363
20
-4.46234
11
6.38234
21
-4.45402
0
LINE
8
BLACK
6
CONTINUOUS
10
6.38234
20
-4.45402
11
6.37205
21
-4.44449
0
LINE
8
BLACK
6
CONTINUOUS
10
6.37205
20
-4.44449
11
6.36289
21
-4.43388
0
LINE
8
BLACK
6
CONTINUOUS
10
6.36289
20
-4.43388
11
6.35497
21
-4.42231
0
LINE
8
BLACK
6
CONTINUOUS
10
6.35497
20
-4.42231
11
6.34838
21
-4.40993
0
LINE
8
BLACK
6
CONTINUOUS
10
6.34838
20
-4.40993
11
6.34322
21
-4.39689
0
LINE
8
BLACK
6
CONTINUOUS
10
6.34322
20
-4.39689
11
6.33955
21
-4.38336
0
LINE
8
BLACK
6
CONTINUOUS
10
6.33955
20
-4.38336
11
6.3374
21
-4.3695
0
LINE
8
BLACK
6
CONTINUOUS
10
6.3374
20
-4.3695
11
6.33681
21
-4.35549
0
LINE
8
BLACK
6
CONTINUOUS
10
6.33681
20
-4.35549
11
6.33693
21
-4.35376
0
LINE
8
BLACK
6
CONTINUOUS
10
6.33693
20
-4.35376
11
6.33779
21
-4.3415
0
LINE
8
BLACK
6
CONTINUOUS
10
6.33779
20
-4.3415
11
6.34032
21
-4.32771
0
LINE
8
BLACK
6
CONTINUOUS
10
6.3538
20
-4.37914
11
6.35704
21
-4.39148
0
LINE
8
BLACK
6
CONTINUOUS
10
6.35704
20
-4.39148
11
6.36167
21
-4.40336
0
LINE
8
BLACK
6
CONTINUOUS
10
6.36167
20
-4.40336
11
6.36764
21
-4.41463
0
LINE
8
BLACK
6
CONTINUOUS
10
6.36764
20
-4.41463
11
6.37486
21
-4.42515
0
LINE
8
BLACK
6
CONTINUOUS
10
6.37486
20
-4.42515
11
6.38325
21
-4.43476
0
LINE
8
BLACK
6
CONTINUOUS
10
6.38325
20
-4.43476
11
6.39268
21
-4.44334
0
LINE
8
BLACK
6
CONTINUOUS
10
6.39268
20
-4.44334
11
6.40304
21
-4.45079
0
LINE
8
BLACK
6
CONTINUOUS
10
6.40304
20
-4.45079
11
6.41418
21
-4.45699
0
LINE
8
BLACK
6
CONTINUOUS
10
6.41418
20
-4.45699
11
6.42597
21
-4.46187
0
LINE
8
BLACK
6
CONTINUOUS
10
6.42597
20
-4.46187
11
6.43823
21
-4.46536
0
LINE
8
BLACK
6
CONTINUOUS
10
6.43823
20
-4.46536
11
6.45082
21
-4.46742
0
LINE
8
BLACK
6
CONTINUOUS
10
6.45082
20
-4.46742
11
6.46356
21
-4.46803
0
LINE
8
BLACK
6
CONTINUOUS
10
6.46356
20
-4.46803
11
6.47629
21
-4.46716
0
LINE
8
BLACK
6
CONTINUOUS
10
6.47629
20
-4.46716
11
6.48883
21
-4.46483
0
LINE
8
BLACK
6
CONTINUOUS
10
6.48883
20
-4.46483
11
6.50102
21
-4.46108
0
LINE
8
BLACK
6
CONTINUOUS
10
6.50102
20
-4.46108
11
6.5127
21
-4.45596
0
LINE
8
BLACK
6
CONTINUOUS
10
6.5127
20
-4.45596
11
6.52371
21
-4.44952
0
LINE
8
BLACK
6
CONTINUOUS
10
6.52371
20
-4.44952
11
6.53391
21
-4.44186
0
LINE
8
BLACK
6
CONTINUOUS
10
6.53391
20
-4.44186
11
6.54316
21
-4.43308
0
LINE
8
BLACK
6
CONTINUOUS
10
6.54316
20
-4.43308
11
6.55134
21
-4.4233
0
LINE
8
BLACK
6
CONTINUOUS
10
6.55134
20
-4.4233
11
6.55835
21
-4.41264
0
LINE
8
BLACK
6
CONTINUOUS
10
6.55835
20
-4.41264
11
6.56408
21
-4.40124
0
LINE
8
BLACK
6
CONTINUOUS
10
6.56408
20
-4.40124
11
6.56846
21
-4.38927
0
LINE
8
BLACK
6
CONTINUOUS
10
6.56846
20
-4.38927
11
6.57144
21
-4.37686
0
LINE
8
BLACK
6
CONTINUOUS
10
6.57144
20
-4.37686
11
6.57297
21
-4.3642
0
LINE
8
BLACK
6
CONTINUOUS
10
6.57297
20
-4.3642
11
6.57319
21
-4.35724
0
LINE
8
BLACK
6
CONTINUOUS
10
6.57319
20
-4.35724
11
6.57245
21
-4.34451
0
LINE
8
BLACK
6
CONTINUOUS
10
6.57245
20
-4.34451
11
6.57026
21
-4.33195
0
LINE
8
BLACK
6
CONTINUOUS
10
6.57026
20
-4.33195
11
6.56664
21
-4.31972
0
LINE
8
BLACK
6
CONTINUOUS
10
6.56664
20
-4.31972
11
6.56164
21
-4.30798
0
LINE
8
BLACK
6
CONTINUOUS
10
6.56164
20
-4.30798
11
6.55532
21
-4.2969
0
LINE
8
BLACK
6
CONTINUOUS
10
6.55532
20
-4.2969
11
6.54776
21
-4.28663
0
LINE
8
BLACK
6
CONTINUOUS
10
6.54776
20
-4.28663
11
6.53908
21
-4.27728
0
LINE
8
BLACK
6
CONTINUOUS
10
6.53908
20
-4.27728
11
6.52938
21
-4.269
0
LINE
8
BLACK
6
CONTINUOUS
10
6.52938
20
-4.269
11
6.5188
21
-4.26188
0
LINE
8
BLACK
6
CONTINUOUS
10
6.5188
20
-4.26188
11
6.50746
21
-4.25603
0
LINE
8
BLACK
6
CONTINUOUS
10
6.50746
20
-4.25603
11
6.49553
21
-4.25153
0
LINE
8
BLACK
6
CONTINUOUS
10
6.49553
20
-4.25153
11
6.48316
21
-4.24842
0
LINE
8
BLACK
6
CONTINUOUS
10
6.48316
20
-4.24842
11
6.47052
21
-4.24675
0
LINE
8
BLACK
6
CONTINUOUS
10
6.47052
20
-4.24675
11
6.45776
21
-4.24655
0
LINE
8
BLACK
6
CONTINUOUS
10
6.45776
20
-4.24655
11
6.44507
21
-4.24782
0
LINE
8
BLACK
6
CONTINUOUS
10
6.44507
20
-4.24782
11
6.43261
21
-4.25054
0
LINE
8
BLACK
6
CONTINUOUS
10
6.43261
20
-4.25054
11
6.42054
21
-4.25467
0
LINE
8
BLACK
6
CONTINUOUS
10
6.42054
20
-4.25467
11
6.40903
21
-4.26016
0
LINE
8
BLACK
6
CONTINUOUS
10
6.40903
20
-4.26016
11
6.39822
21
-4.26694
0
LINE
8
BLACK
6
CONTINUOUS
10
6.39822
20
-4.26694
11
6.38827
21
-4.27491
0
LINE
8
BLACK
6
CONTINUOUS
10
6.38827
20
-4.27491
11
6.3793
21
-4.28398
0
LINE
8
BLACK
6
CONTINUOUS
10
6.3793
20
-4.28398
11
6.37143
21
-4.29402
0
LINE
8
BLACK
6
CONTINUOUS
10
6.37143
20
-4.29402
11
6.36476
21
-4.30489
0
LINE
8
BLACK
6
CONTINUOUS
10
6.36476
20
-4.30489
11
6.35939
21
-4.31646
0
LINE
8
BLACK
6
CONTINUOUS
10
6.35939
20
-4.31646
11
6.35539
21
-4.32857
0
LINE
8
BLACK
6
CONTINUOUS
10
6.35539
20
-4.32857
11
6.3528
21
-4.34106
0
LINE
8
BLACK
6
CONTINUOUS
10
6.3528
20
-4.34106
11
6.35167
21
-4.35376
0
LINE
8
BLACK
6
CONTINUOUS
10
6.35167
20
-4.35376
11
6.352
21
-4.36651
0
LINE
8
BLACK
6
CONTINUOUS
10
6.352
20
-4.36651
11
6.3538
21
-4.37914
0
LINE
8
BLACK
6
CONTINUOUS
10
6.34032
20
-3.52771
11
6.34438
21
-3.51429
0
LINE
8
BLACK
6
CONTINUOUS
10
6.34438
20
-3.51429
11
6.3499
21
-3.5014
0
LINE
8
BLACK
6
CONTINUOUS
10
6.3499
20
-3.5014
11
6.35683
21
-3.48921
0
LINE
8
BLACK
6
CONTINUOUS
10
6.35683
20
-3.48921
11
6.36507
21
-3.47786
0
LINE
8
BLACK
6
CONTINUOUS
10
6.36507
20
-3.47786
11
6.37452
21
-3.46751
0
LINE
8
BLACK
6
CONTINUOUS
10
6.37452
20
-3.46751
11
6.38507
21
-3.45827
0
LINE
8
BLACK
6
CONTINUOUS
10
6.38507
20
-3.45827
11
6.39659
21
-3.45027
0
LINE
8
BLACK
6
CONTINUOUS
10
6.39659
20
-3.45027
11
6.40892
21
-3.4436
0
LINE
8
BLACK
6
CONTINUOUS
10
6.40892
20
-3.4436
11
6.42192
21
-3.43834
0
LINE
8
BLACK
6
CONTINUOUS
10
6.42192
20
-3.43834
11
6.43543
21
-3.43457
0
LINE
8
BLACK
6
CONTINUOUS
10
6.43543
20
-3.43457
11
6.44927
21
-3.43233
0
LINE
8
BLACK
6
CONTINUOUS
10
6.44927
20
-3.43233
11
6.46328
21
-3.43165
0
LINE
8
BLACK
6
CONTINUOUS
10
6.46328
20
-3.43165
11
6.47727
21
-3.43253
0
LINE
8
BLACK
6
CONTINUOUS
10
6.47727
20
-3.43253
11
6.49108
21
-3.43496
0
LINE
8
BLACK
6
CONTINUOUS
10
6.49108
20
-3.43496
11
6.50453
21
-3.43892
0
LINE
8
BLACK
6
CONTINUOUS
10
6.50453
20
-3.43892
11
6.51746
21
-3.44436
0
LINE
8
BLACK
6
CONTINUOUS
10
6.51746
20
-3.44436
11
6.5297
21
-3.4512
0
LINE
8
BLACK
6
CONTINUOUS
10
6.5297
20
-3.4512
11
6.5411
21
-3.45936
0
LINE
8
BLACK
6
CONTINUOUS
10
6.5411
20
-3.45936
11
6.55152
21
-3.46874
0
LINE
8
BLACK
6
CONTINUOUS
10
6.55152
20
-3.46874
11
6.56083
21
-3.47923
0
LINE
8
BLACK
6
CONTINUOUS
10
6.56083
20
-3.47923
11
6.56892
21
-3.49069
0
LINE
8
BLACK
6
CONTINUOUS
10
6.56892
20
-3.49069
11
6.57567
21
-3.50297
0
LINE
8
BLACK
6
CONTINUOUS
10
6.57567
20
-3.50297
11
6.58102
21
-3.51594
0
LINE
8
BLACK
6
CONTINUOUS
10
6.58102
20
-3.51594
11
6.58488
21
-3.52942
0
LINE
8
BLACK
6
CONTINUOUS
10
6.58488
20
-3.52942
11
6.58722
21
-3.54324
0
LINE
8
BLACK
6
CONTINUOUS
10
6.58722
20
-3.54324
11
6.588
21
-3.55724
0
LINE
8
BLACK
6
CONTINUOUS
10
6.588
20
-3.55724
11
6.58795
21
-3.56075
0
LINE
8
BLACK
6
CONTINUOUS
10
6.58795
20
-3.56075
11
6.58678
21
-3.57472
0
LINE
8
BLACK
6
CONTINUOUS
10
6.58678
20
-3.57472
11
6.58406
21
-3.58848
0
LINE
8
BLACK
6
CONTINUOUS
10
6.58406
20
-3.58848
11
6.57982
21
-3.60185
0
LINE
8
BLACK
6
CONTINUOUS
10
6.57982
20
-3.60185
11
6.57411
21
-3.61466
0
LINE
8
BLACK
6
CONTINUOUS
10
6.57411
20
-3.61466
11
6.56702
21
-3.62675
0
LINE
8
BLACK
6
CONTINUOUS
10
6.56702
20
-3.62675
11
6.55862
21
-3.63798
0
LINE
8
BLACK
6
CONTINUOUS
10
6.55862
20
-3.63798
11
6.54902
21
-3.6482
0
LINE
8
BLACK
6
CONTINUOUS
10
6.54902
20
-3.6482
11
6.53834
21
-3.65729
0
LINE
8
BLACK
6
CONTINUOUS
10
6.53834
20
-3.65729
11
6.52671
21
-3.66513
0
LINE
8
BLACK
6
CONTINUOUS
10
6.52671
20
-3.66513
11
6.51429
21
-3.67163
0
LINE
8
BLACK
6
CONTINUOUS
10
6.51429
20
-3.67163
11
6.50121
21
-3.6767
0
LINE
8
BLACK
6
CONTINUOUS
10
6.50121
20
-3.6767
11
6.48766
21
-3.68028
0
LINE
8
BLACK
6
CONTINUOUS
10
6.48766
20
-3.68028
11
6.47379
21
-3.68233
0
LINE
8
BLACK
6
CONTINUOUS
10
6.47379
20
-3.68233
11
6.45977
21
-3.68282
0
LINE
8
BLACK
6
CONTINUOUS
10
6.45977
20
-3.68282
11
6.44579
21
-3.68174
0
LINE
8
BLACK
6
CONTINUOUS
10
6.44579
20
-3.68174
11
6.43202
21
-3.67911
0
LINE
8
BLACK
6
CONTINUOUS
10
6.43202
20
-3.67911
11
6.41862
21
-3.67497
0
LINE
8
BLACK
6
CONTINUOUS
10
6.41862
20
-3.67497
11
6.40577
21
-3.66935
0
LINE
8
BLACK
6
CONTINUOUS
10
6.40577
20
-3.66935
11
6.39363
21
-3.66234
0
LINE
8
BLACK
6
CONTINUOUS
10
6.39363
20
-3.66234
11
6.38234
21
-3.65402
0
LINE
8
BLACK
6
CONTINUOUS
10
6.38234
20
-3.65402
11
6.37205
21
-3.64449
0
LINE
8
BLACK
6
CONTINUOUS
10
6.37205
20
-3.64449
11
6.36289
21
-3.63388
0
LINE
8
BLACK
6
CONTINUOUS
10
6.36289
20
-3.63388
11
6.35497
21
-3.62231
0
LINE
8
BLACK
6
CONTINUOUS
10
6.35497
20
-3.62231
11
6.34838
21
-3.60993
0
LINE
8
BLACK
6
CONTINUOUS
10
6.34838
20
-3.60993
11
6.34322
21
-3.59689
0
LINE
8
BLACK
6
CONTINUOUS
10
6.34322
20
-3.59689
11
6.33955
21
-3.58336
0
LINE
8
BLACK
6
CONTINUOUS
10
6.33955
20
-3.58336
11
6.3374
21
-3.5695
0
LINE
8
BLACK
6
CONTINUOUS
10
6.3374
20
-3.5695
11
6.33681
21
-3.55549
0
LINE
8
BLACK
6
CONTINUOUS
10
6.33681
20
-3.55549
11
6.33693
21
-3.55376
0
LINE
8
BLACK
6
CONTINUOUS
10
6.33693
20
-3.55376
11
6.33779
21
-3.5415
0
LINE
8
BLACK
6
CONTINUOUS
10
6.33779
20
-3.5415
11
6.34032
21
-3.52771
0
LINE
8
BLACK
6
CONTINUOUS
10
6.3538
20
-3.57914
11
6.35704
21
-3.59148
0
LINE
8
BLACK
6
CONTINUOUS
10
6.35704
20
-3.59148
11
6.36167
21
-3.60336
0
LINE
8
BLACK
6
CONTINUOUS
10
6.36167
20
-3.60336
11
6.36764
21
-3.61463
0
LINE
8
BLACK
6
CONTINUOUS
10
6.36764
20
-3.61463
11
6.37486
21
-3.62515
0
LINE
8
BLACK
6
CONTINUOUS
10
6.37486
20
-3.62515
11
6.38325
21
-3.63476
0
LINE
8
BLACK
6
CONTINUOUS
10
6.38325
20
-3.63476
11
6.39268
21
-3.64334
0
LINE
8
BLACK
6
CONTINUOUS
10
6.39268
20
-3.64334
11
6.40304
21
-3.65079
0
LINE
8
BLACK
6
CONTINUOUS
10
6.40304
20
-3.65079
11
6.41418
21
-3.65699
0
LINE
8
BLACK
6
CONTINUOUS
10
6.41418
20
-3.65699
11
6.42597
21
-3.66187
0
LINE
8
BLACK
6
CONTINUOUS
10
6.42597
20
-3.66187
11
6.43823
21
-3.66536
0
LINE
8
BLACK
6
CONTINUOUS
10
6.43823
20
-3.66536
11
6.45082
21
-3.66742
0
LINE
8
BLACK
6
CONTINUOUS
10
6.45082
20
-3.66742
11
6.46356
21
-3.66803
0
LINE
8
BLACK
6
CONTINUOUS
10
6.46356
20
-3.66803
11
6.47629
21
-3.66716
0
LINE
8
BLACK
6
CONTINUOUS
10
6.47629
20
-3.66716
11
6.48883
21
-3.66483
0
LINE
8
BLACK
6
CONTINUOUS
10
6.48883
20
-3.66483
11
6.50102
21
-3.66108
0
LINE
8
BLACK
6
CONTINUOUS
10
6.50102
20
-3.66108
11
6.5127
21
-3.65596
0
LINE
8
BLACK
6
CONTINUOUS
10
6.5127
20
-3.65596
11
6.52371
21
-3.64952
0
LINE
8
BLACK
6
CONTINUOUS
10
6.52371
20
-3.64952
11
6.53391
21
-3.64186
0
LINE
8
BLACK
6
CONTINUOUS
10
6.53391
20
-3.64186
11
6.54316
21
-3.63308
0
LINE
8
BLACK
6
CONTINUOUS
10
6.54316
20
-3.63308
11
6.55134
21
-3.6233
0
LINE
8
BLACK
6
CONTINUOUS
10
6.55134
20
-3.6233
11
6.55835
21
-3.61264
0
LINE
8
BLACK
6
CONTINUOUS
10
6.55835
20
-3.61264
11
6.56408
21
-3.60124
0
LINE
8
BLACK
6
CONTINUOUS
10
6.56408
20
-3.60124
11
6.56846
21
-3.58927
0
LINE
8
BLACK
6
CONTINUOUS
10
6.56846
20
-3.58927
11
6.57144
21
-3.57686
0
LINE
8
BLACK
6
CONTINUOUS
10
6.57144
20
-3.57686
11
6.57297
21
-3.5642
0
LINE
8
BLACK
6
CONTINUOUS
10
6.57297
20
-3.5642
11
6.57319
21
-3.55724
0
LINE
8
BLACK
6
CONTINUOUS
10
6.57319
20
-3.55724
11
6.57245
21
-3.54451
0
LINE
8
BLACK
6
CONTINUOUS
10
6.57245
20
-3.54451
11
6.57026
21
-3.53195
0
LINE
8
BLACK
6
CONTINUOUS
10
6.57026
20
-3.53195
11
6.56664
21
-3.51972
0
LINE
8
BLACK
6
CONTINUOUS
10
6.56664
20
-3.51972
11
6.56164
21
-3.50798
0
LINE
8
BLACK
6
CONTINUOUS
10
6.56164
20
-3.50798
11
6.55532
21
-3.4969
0
LINE
8
BLACK
6
CONTINUOUS
10
6.55532
20
-3.4969
11
6.54776
21
-3.48663
0
LINE
8
BLACK
6
CONTINUOUS
10
6.54776
20
-3.48663
11
6.53908
21
-3.47728
0
LINE
8
BLACK
6
CONTINUOUS
10
6.53908
20
-3.47728
11
6.52938
21
-3.469
0
LINE
8
BLACK
6
CONTINUOUS
10
6.52938
20
-3.469
11
6.5188
21
-3.46188
0
LINE
8
BLACK
6
CONTINUOUS
10
6.5188
20
-3.46188
11
6.50746
21
-3.45603
0
LINE
8
BLACK
6
CONTINUOUS
10
6.50746
20
-3.45603
11
6.49553
21
-3.45153
0
LINE
8
BLACK
6
CONTINUOUS
10
6.49553
20
-3.45153
11
6.48316
21
-3.44842
0
LINE
8
BLACK
6
CONTINUOUS
10
6.48316
20
-3.44842
11
6.47052
21
-3.44675
0
LINE
8
BLACK
6
CONTINUOUS
10
6.47052
20
-3.44675
11
6.45776
21
-3.44655
0
LINE
8
BLACK
6
CONTINUOUS
10
6.45776
20
-3.44655
11
6.44507
21
-3.44782
0
LINE
8
BLACK
6
CONTINUOUS
10
6.44507
20
-3.44782
11
6.43261
21
-3.45054
0
LINE
8
BLACK
6
CONTINUOUS
10
6.43261
20
-3.45054
11
6.42054
21
-3.45467
0
LINE
8
BLACK
6
CONTINUOUS
10
6.42054
20
-3.45467
11
6.40903
21
-3.46016
0
LINE
8
BLACK
6
CONTINUOUS
10
6.40903
20
-3.46016
11
6.39822
21
-3.46694
0
LINE
8
BLACK
6
CONTINUOUS
10
6.39822
20
-3.46694
11
6.38827
21
-3.47491
0
LINE
8
BLACK
6
CONTINUOUS
10
6.38827
20
-3.47491
11
6.3793
21
-3.48398
0
LINE
8
BLACK
6
CONTINUOUS
10
6.3793
20
-3.48398
11
6.37143
21
-3.49402
0
LINE
8
BLACK
6
CONTINUOUS
10
6.37143
20
-3.49402
11
6.36476
21
-3.50489
0
LINE
8
BLACK
6
CONTINUOUS
10
6.36476
20
-3.50489
11
6.35939
21
-3.51646
0
LINE
8
BLACK
6
CONTINUOUS
10
6.35939
20
-3.51646
11
6.35539
21
-3.52857
0
LINE
8
BLACK
6
CONTINUOUS
10
6.35539
20
-3.52857
11
6.3528
21
-3.54106
0
LINE
8
BLACK
6
CONTINUOUS
10
6.3528
20
-3.54106
11
6.35167
21
-3.55376
0
LINE
8
BLACK
6
CONTINUOUS
10
6.35167
20
-3.55376
11
6.352
21
-3.56651
0
LINE
8
BLACK
6
CONTINUOUS
10
6.352
20
-3.56651
11
6.3538
21
-3.57914
0
LINE
8
BLACK
6
CONTINUOUS
10
5.14032
20
-3.52771
11
5.14438
21
-3.51429
0
LINE
8
BLACK
6
CONTINUOUS
10
5.14438
20
-3.51429
11
5.1499
21
-3.5014
0
LINE
8
BLACK
6
CONTINUOUS
10
5.1499
20
-3.5014
11
5.15683
21
-3.48921
0
LINE
8
BLACK
6
CONTINUOUS
10
5.15683
20
-3.48921
11
5.16507
21
-3.47786
0
LINE
8
BLACK
6
CONTINUOUS
10
5.16507
20
-3.47786
11
5.17452
21
-3.46751
0
LINE
8
BLACK
6
CONTINUOUS
10
5.17452
20
-3.46751
11
5.18507
21
-3.45827
0
LINE
8
BLACK
6
CONTINUOUS
10
5.18507
20
-3.45827
11
5.19659
21
-3.45027
0
LINE
8
BLACK
6
CONTINUOUS
10
5.19659
20
-3.45027
11
5.20892
21
-3.4436
0
LINE
8
BLACK
6
CONTINUOUS
10
5.20892
20
-3.4436
11
5.22192
21
-3.43834
0
LINE
8
BLACK
6
CONTINUOUS
10
5.22192
20
-3.43834
11
5.23543
21
-3.43457
0
LINE
8
BLACK
6
CONTINUOUS
10
5.23543
20
-3.43457
11
5.24927
21
-3.43233
0
LINE
8
BLACK
6
CONTINUOUS
10
5.24927
20
-3.43233
11
5.26328
21
-3.43165
0
LINE
8
BLACK
6
CONTINUOUS
10
5.26328
20
-3.43165
11
5.27727
21
-3.43253
0
LINE
8
BLACK
6
CONTINUOUS
10
5.27727
20
-3.43253
11
5.29108
21
-3.43496
0
LINE
8
BLACK
6
CONTINUOUS
10
5.29108
20
-3.43496
11
5.30453
21
-3.43892
0
LINE
8
BLACK
6
CONTINUOUS
10
5.30453
20
-3.43892
11
5.31746
21
-3.44436
0
LINE
8
BLACK
6
CONTINUOUS
10
5.31746
20
-3.44436
11
5.3297
21
-3.4512
0
LINE
8
BLACK
6
CONTINUOUS
10
5.3297
20
-3.4512
11
5.3411
21
-3.45936
0
LINE
8
BLACK
6
CONTINUOUS
10
5.3411
20
-3.45936
11
5.35152
21
-3.46874
0
LINE
8
BLACK
6
CONTINUOUS
10
5.35152
20
-3.46874
11
5.36083
21
-3.47923
0
LINE
8
BLACK
6
CONTINUOUS
10
5.36083
20
-3.47923
11
5.36892
21
-3.49069
0
LINE
8
BLACK
6
CONTINUOUS
10
5.36892
20
-3.49069
11
5.37567
21
-3.50297
0
LINE
8
BLACK
6
CONTINUOUS
10
5.37567
20
-3.50297
11
5.38102
21
-3.51594
0
LINE
8
BLACK
6
CONTINUOUS
10
5.38102
20
-3.51594
11
5.38488
21
-3.52942
0
LINE
8
BLACK
6
CONTINUOUS
10
5.38488
20
-3.52942
11
5.38722
21
-3.54324
0
LINE
8
BLACK
6
CONTINUOUS
10
5.38722
20
-3.54324
11
5.388
21
-3.55724
0
LINE
8
BLACK
6
CONTINUOUS
10
5.388
20
-3.55724
11
5.38795
21
-3.56075
0
LINE
8
BLACK
6
CONTINUOUS
10
5.38795
20
-3.56075
11
5.38678
21
-3.57472
0
LINE
8
BLACK
6
CONTINUOUS
10
5.38678
20
-3.57472
11
5.38466
21
-3.58542
0
LINE
8
BLACK
6
CONTINUOUS
10
5.38466
20
-3.58542
11
5.3847
21
-3.58543
0
LINE
8
BLACK
6
CONTINUOUS
10
5.3847
20
-3.58543
11
5.3856
21
-3.58592
0
LINE
8
BLACK
6
CONTINUOUS
10
5.3856
20
-3.58592
11
5.38666
21
-3.58764
0
LINE
8
BLACK
6
CONTINUOUS
10
5.38666
20
-3.58764
11
5.38636
21
-3.58963
0
LINE
8
BLACK
6
CONTINUOUS
10
5.38636
20
-3.58963
11
5.38485
21
-3.59097
0
LINE
8
BLACK
6
CONTINUOUS
10
5.38485
20
-3.59097
11
5.38325
21
-3.59102
0
LINE
8
BLACK
6
CONTINUOUS
10
5.38325
20
-3.59102
11
5.37982
21
-3.60185
0
LINE
8
BLACK
6
CONTINUOUS
10
5.37982
20
-3.60185
11
5.3785
21
-3.60479
0
LINE
8
BLACK
6
CONTINUOUS
10
5.3785
20
-3.60479
11
5.38133
21
-3.60621
0
LINE
8
BLACK
6
CONTINUOUS
10
5.38133
20
-3.60621
11
5.38204
21
-3.60674
0
LINE
8
BLACK
6
CONTINUOUS
10
5.38204
20
-3.60674
11
5.3821
21
-3.60676
0
LINE
8
BLACK
6
CONTINUOUS
10
5.3821
20
-3.60676
11
5.38398
21
-3.60864
0
LINE
8
BLACK
6
CONTINUOUS
10
5.38398
20
-3.60864
11
5.38448
21
-3.60936
0
LINE
8
BLACK
6
CONTINUOUS
10
5.38448
20
-3.60936
11
5.38453
21
-3.6094
0
LINE
8
BLACK
6
CONTINUOUS
10
5.38453
20
-3.6094
11
5.3864
21
-3.61315
0
LINE
8
BLACK
6
CONTINUOUS
10
5.3864
20
-3.61315
11
5.3867
21
-3.61414
0
LINE
8
BLACK
6
CONTINUOUS
10
5.3867
20
-3.61414
11
5.38666
21
-3.61431
0
LINE
8
BLACK
6
CONTINUOUS
10
5.38666
20
-3.61431
11
5.38672
21
-3.61448
0
LINE
8
BLACK
6
CONTINUOUS
10
5.38672
20
-3.61448
11
5.38672
21
-3.61822
0
LINE
8
BLACK
6
CONTINUOUS
10
5.38672
20
-3.61822
11
5.38654
21
-3.61923
0
LINE
8
BLACK
6
CONTINUOUS
10
5.38654
20
-3.61923
11
5.38642
21
-3.61937
0
LINE
8
BLACK
6
CONTINUOUS
10
5.38642
20
-3.61937
11
5.3864
21
-3.61955
0
LINE
8
BLACK
6
CONTINUOUS
10
5.3864
20
-3.61955
11
5.38453
21
-3.62329
0
LINE
8
BLACK
6
CONTINUOUS
10
5.38453
20
-3.62329
11
5.384
21
-3.624
0
LINE
8
BLACK
6
CONTINUOUS
10
5.384
20
-3.624
11
5.38398
21
-3.62406
0
LINE
8
BLACK
6
CONTINUOUS
10
5.38398
20
-3.62406
11
5.3821
21
-3.62594
0
LINE
8
BLACK
6
CONTINUOUS
10
5.3821
20
-3.62594
11
5.38138
21
-3.62644
0
LINE
8
BLACK
6
CONTINUOUS
10
5.38138
20
-3.62644
11
5.38133
21
-3.62649
0
LINE
8
BLACK
6
CONTINUOUS
10
5.38133
20
-3.62649
11
5.37758
21
-3.62836
0
LINE
8
BLACK
6
CONTINUOUS
10
5.37758
20
-3.62836
11
5.3766
21
-3.62866
0
LINE
8
BLACK
6
CONTINUOUS
10
5.3766
20
-3.62866
11
5.37643
21
-3.62862
0
LINE
8
BLACK
6
CONTINUOUS
10
5.37643
20
-3.62862
11
5.37626
21
-3.62868
0
LINE
8
BLACK
6
CONTINUOUS
10
5.37626
20
-3.62868
11
5.36689
21
-3.62868
0
LINE
8
BLACK
6
CONTINUOUS
10
5.36689
20
-3.62868
11
5.36602
21
-3.62852
0
LINE
8
BLACK
6
CONTINUOUS
10
5.36602
20
-3.62852
11
5.36596
21
-3.62852
0
LINE
8
BLACK
6
CONTINUOUS
10
5.36596
20
-3.62852
11
5.36574
21
-3.62845
0
LINE
8
BLACK
6
CONTINUOUS
10
5.36574
20
-3.62845
11
5.35862
21
-3.63798
0
LINE
8
BLACK
6
CONTINUOUS
10
5.35862
20
-3.63798
11
5.34902
21
-3.6482
0
LINE
8
BLACK
6
CONTINUOUS
10
5.34902
20
-3.6482
11
5.33834
21
-3.65729
0
LINE
8
BLACK
6
CONTINUOUS
10
5.33834
20
-3.65729
11
5.32671
21
-3.66513
0
LINE
8
BLACK
6
CONTINUOUS
10
5.32671
20
-3.66513
11
5.31429
21
-3.67163
0
LINE
8
BLACK
6
CONTINUOUS
10
5.31429
20
-3.67163
11
5.30121
21
-3.6767
0
LINE
8
BLACK
6
CONTINUOUS
10
5.30121
20
-3.6767
11
5.28766
21
-3.68028
0
LINE
8
BLACK
6
CONTINUOUS
10
5.28766
20
-3.68028
11
5.27379
21
-3.68233
0
LINE
8
BLACK
6
CONTINUOUS
10
5.27379
20
-3.68233
11
5.25977
21
-3.68282
0
LINE
8
BLACK
6
CONTINUOUS
10
5.25977
20
-3.68282
11
5.24579
21
-3.68174
0
LINE
8
BLACK
6
CONTINUOUS
10
5.24579
20
-3.68174
11
5.23202
21
-3.67911
0
LINE
8
BLACK
6
CONTINUOUS
10
5.23202
20
-3.67911
11
5.21862
21
-3.67497
0
LINE
8
BLACK
6
CONTINUOUS
10
5.21862
20
-3.67497
11
5.20577
21
-3.66935
0
LINE
8
BLACK
6
CONTINUOUS
10
5.20577
20
-3.66935
11
5.19363
21
-3.66234
0
LINE
8
BLACK
6
CONTINUOUS
10
5.19363
20
-3.66234
11
5.18234
21
-3.65402
0
LINE
8
BLACK
6
CONTINUOUS
10
5.18234
20
-3.65402
11
5.17205
21
-3.64449
0
LINE
8
BLACK
6
CONTINUOUS
10
5.17205
20
-3.64449
11
5.16289
21
-3.63388
0
LINE
8
BLACK
6
CONTINUOUS
10
5.16289
20
-3.63388
11
5.15497
21
-3.62231
0
LINE
8
BLACK
6
CONTINUOUS
10
5.15497
20
-3.62231
11
5.14838
21
-3.60993
0
LINE
8
BLACK
6
CONTINUOUS
10
5.14838
20
-3.60993
11
5.14322
21
-3.59689
0
LINE
8
BLACK
6
CONTINUOUS
10
5.14322
20
-3.59689
11
5.13955
21
-3.58336
0
LINE
8
BLACK
6
CONTINUOUS
10
5.13955
20
-3.58336
11
5.1374
21
-3.5695
0
LINE
8
BLACK
6
CONTINUOUS
10
5.1374
20
-3.5695
11
5.13681
21
-3.55549
0
LINE
8
BLACK
6
CONTINUOUS
10
5.13681
20
-3.55549
11
5.13693
21
-3.55376
0
LINE
8
BLACK
6
CONTINUOUS
10
5.13693
20
-3.55376
11
5.13779
21
-3.5415
0
LINE
8
BLACK
6
CONTINUOUS
10
5.13779
20
-3.5415
11
5.14032
21
-3.52771
0
LINE
8
BLACK
6
CONTINUOUS
10
5.1538
20
-3.57914
11
5.15704
21
-3.59148
0
LINE
8
BLACK
6
CONTINUOUS
10
5.15704
20
-3.59148
11
5.16167
21
-3.60336
0
LINE
8
BLACK
6
CONTINUOUS
10
5.16167
20
-3.60336
11
5.16764
21
-3.61463
0
LINE
8
BLACK
6
CONTINUOUS
10
5.16764
20
-3.61463
11
5.17486
21
-3.62515
0
LINE
8
BLACK
6
CONTINUOUS
10
5.17486
20
-3.62515
11
5.18325
21
-3.63476
0
LINE
8
BLACK
6
CONTINUOUS
10
5.18325
20
-3.63476
11
5.19268
21
-3.64334
0
LINE
8
BLACK
6
CONTINUOUS
10
5.19268
20
-3.64334
11
5.20304
21
-3.65079
0
LINE
8
BLACK
6
CONTINUOUS
10
5.20304
20
-3.65079
11
5.21418
21
-3.65699
0
LINE
8
BLACK
6
CONTINUOUS
10
5.21418
20
-3.65699
11
5.22597
21
-3.66187
0
LINE
8
BLACK
6
CONTINUOUS
10
5.22597
20
-3.66187
11
5.23823
21
-3.66536
0
LINE
8
BLACK
6
CONTINUOUS
10
5.23823
20
-3.66536
11
5.25082
21
-3.66742
0
LINE
8
BLACK
6
CONTINUOUS
10
5.25082
20
-3.66742
11
5.26356
21
-3.66803
0
LINE
8
BLACK
6
CONTINUOUS
10
5.26356
20
-3.66803
11
5.27629
21
-3.66716
0
LINE
8
BLACK
6
CONTINUOUS
10
5.27629
20
-3.66716
11
5.28883
21
-3.66483
0
LINE
8
BLACK
6
CONTINUOUS
10
5.28883
20
-3.66483
11
5.30102
21
-3.66108
0
LINE
8
BLACK
6
CONTINUOUS
10
5.30102
20
-3.66108
11
5.3127
21
-3.65596
0
LINE
8
BLACK
6
CONTINUOUS
10
5.3127
20
-3.65596
11
5.32371
21
-3.64952
0
LINE
8
BLACK
6
CONTINUOUS
10
5.32371
20
-3.64952
11
5.33391
21
-3.64186
0
LINE
8
BLACK
6
CONTINUOUS
10
5.33391
20
-3.64186
11
5.34316
21
-3.63308
0
LINE
8
BLACK
6
CONTINUOUS
10
5.34316
20
-3.63308
11
5.35134
21
-3.6233
0
LINE
8
BLACK
6
CONTINUOUS
10
5.35134
20
-3.6233
11
5.35835
21
-3.61264
0
LINE
8
BLACK
6
CONTINUOUS
10
5.35835
20
-3.61264
11
5.36233
21
-3.60472
0
LINE
8
BLACK
6
CONTINUOUS
10
5.36233
20
-3.60472
11
5.36105
21
-3.60344
0
LINE
8
BLACK
6
CONTINUOUS
10
5.36105
20
-3.60344
11
5.36055
21
-3.60272
0
LINE
8
BLACK
6
CONTINUOUS
10
5.36055
20
-3.60272
11
5.3605
21
-3.60267
0
LINE
8
BLACK
6
CONTINUOUS
10
5.3605
20
-3.60267
11
5.35862
21
-3.59892
0
LINE
8
BLACK
6
CONTINUOUS
10
5.35862
20
-3.59892
11
5.35833
21
-3.59794
0
LINE
8
BLACK
6
CONTINUOUS
10
5.35833
20
-3.59794
11
5.35837
21
-3.59777
0
LINE
8
BLACK
6
CONTINUOUS
10
5.35837
20
-3.59777
11
5.35831
21
-3.5976
0
LINE
8
BLACK
6
CONTINUOUS
10
5.35831
20
-3.5976
11
5.35831
21
-3.59385
0
LINE
8
BLACK
6
CONTINUOUS
10
5.35831
20
-3.59385
11
5.35849
21
-3.59284
0
LINE
8
BLACK
6
CONTINUOUS
10
5.35849
20
-3.59284
11
5.3586
21
-3.59271
0
LINE
8
BLACK
6
CONTINUOUS
10
5.3586
20
-3.59271
11
5.35862
21
-3.59253
0
LINE
8
BLACK
6
CONTINUOUS
10
5.35862
20
-3.59253
11
5.3605
21
-3.58878
0
LINE
8
BLACK
6
CONTINUOUS
10
5.3605
20
-3.58878
11
5.36103
21
-3.58807
0
LINE
8
BLACK
6
CONTINUOUS
10
5.36103
20
-3.58807
11
5.36105
21
-3.58802
0
LINE
8
BLACK
6
CONTINUOUS
10
5.36105
20
-3.58802
11
5.36293
21
-3.58614
0
LINE
8
BLACK
6
CONTINUOUS
10
5.36293
20
-3.58614
11
5.36365
21
-3.58563
0
LINE
8
BLACK
6
CONTINUOUS
10
5.36365
20
-3.58563
11
5.36369
21
-3.58559
0
LINE
8
BLACK
6
CONTINUOUS
10
5.36369
20
-3.58559
11
5.36744
21
-3.58371
0
LINE
8
BLACK
6
CONTINUOUS
10
5.36744
20
-3.58371
11
5.36843
21
-3.58342
0
LINE
8
BLACK
6
CONTINUOUS
10
5.36843
20
-3.58342
11
5.3686
21
-3.58346
0
LINE
8
BLACK
6
CONTINUOUS
10
5.3686
20
-3.58346
11
5.36876
21
-3.5834
0
LINE
8
BLACK
6
CONTINUOUS
10
5.36876
20
-3.5834
11
5.36987
21
-3.5834
0
LINE
8
BLACK
6
CONTINUOUS
10
5.36987
20
-3.5834
11
5.37144
21
-3.57686
0
LINE
8
BLACK
6
CONTINUOUS
10
5.37144
20
-3.57686
11
5.37297
21
-3.5642
0
LINE
8
BLACK
6
CONTINUOUS
10
5.37297
20
-3.5642
11
5.37319
21
-3.55724
0
LINE
8
BLACK
6
CONTINUOUS
10
5.37319
20
-3.55724
11
5.37245
21
-3.54451
0
LINE
8
BLACK
6
CONTINUOUS
10
5.37245
20
-3.54451
11
5.37026
21
-3.53195
0
LINE
8
BLACK
6
CONTINUOUS
10
5.37026
20
-3.53195
11
5.36664
21
-3.51972
0
LINE
8
BLACK
6
CONTINUOUS
10
5.36664
20
-3.51972
11
5.36164
21
-3.50798
0
LINE
8
BLACK
6
CONTINUOUS
10
5.36164
20
-3.50798
11
5.35532
21
-3.4969
0
LINE
8
BLACK
6
CONTINUOUS
10
5.35532
20
-3.4969
11
5.34776
21
-3.48663
0
LINE
8
BLACK
6
CONTINUOUS
10
5.34776
20
-3.48663
11
5.33908
21
-3.47728
0
LINE
8
BLACK
6
CONTINUOUS
10
5.33908
20
-3.47728
11
5.32938
21
-3.469
0
LINE
8
BLACK
6
CONTINUOUS
10
5.32938
20
-3.469
11
5.3188
21
-3.46188
0
LINE
8
BLACK
6
CONTINUOUS
10
5.3188
20
-3.46188
11
5.30746
21
-3.45603
0
LINE
8
BLACK
6
CONTINUOUS
10
5.30746
20
-3.45603
11
5.29553
21
-3.45153
0
LINE
8
BLACK
6
CONTINUOUS
10
5.29553
20
-3.45153
11
5.28316
21
-3.44842
0
LINE
8
BLACK
6
CONTINUOUS
10
5.28316
20
-3.44842
11
5.27052
21
-3.44675
0
LINE
8
BLACK
6
CONTINUOUS
10
5.27052
20
-3.44675
11
5.25776
21
-3.44655
0
LINE
8
BLACK
6
CONTINUOUS
10
5.25776
20
-3.44655
11
5.24507
21
-3.44782
0
LINE
8
BLACK
6
CONTINUOUS
10
5.24507
20
-3.44782
11
5.23261
21
-3.45054
0
LINE
8
BLACK
6
CONTINUOUS
10
5.23261
20
-3.45054
11
5.22054
21
-3.45467
0
LINE
8
BLACK
6
CONTINUOUS
10
5.22054
20
-3.45467
11
5.20903
21
-3.46016
0
LINE
8
BLACK
6
CONTINUOUS
10
5.20903
20
-3.46016
11
5.19822
21
-3.46694
0
LINE
8
BLACK
6
CONTINUOUS
10
5.19822
20
-3.46694
11
5.18827
21
-3.47491
0
LINE
8
BLACK
6
CONTINUOUS
10
5.18827
20
-3.47491
11
5.1793
21
-3.48398
0
LINE
8
BLACK
6
CONTINUOUS
10
5.1793
20
-3.48398
11
5.17143
21
-3.49402
0
LINE
8
BLACK
6
CONTINUOUS
10
5.17143
20
-3.49402
11
5.16476
21
-3.50489
0
LINE
8
BLACK
6
CONTINUOUS
10
5.16476
20
-3.50489
11
5.15939
21
-3.51646
0
LINE
8
BLACK
6
CONTINUOUS
10
5.15939
20
-3.51646
11
5.15539
21
-3.52857
0
LINE
8
BLACK
6
CONTINUOUS
10
5.15539
20
-3.52857
11
5.1528
21
-3.54106
0
LINE
8
BLACK
6
CONTINUOUS
10
5.1528
20
-3.54106
11
5.15167
21
-3.55376
0
LINE
8
BLACK
6
CONTINUOUS
10
5.15167
20
-3.55376
11
5.152
21
-3.56651
0
LINE
8
BLACK
6
CONTINUOUS
10
5.152
20
-3.56651
11
5.1538
21
-3.57914
0
LINE
8
BLACK
6
CONTINUOUS
10
5.37411
20
-3.61466
11
5.36935
21
-3.62277
0
LINE
8
BLACK
6
CONTINUOUS
10
5.36935
20
-3.62277
11
5.37557
21
-3.62277
0
LINE
8
BLACK
6
CONTINUOUS
10
5.37557
20
-3.62277
11
5.37826
21
-3.62142
0
LINE
8
BLACK
6
CONTINUOUS
10
5.37826
20
-3.62142
11
5.37946
21
-3.62023
0
LINE
8
BLACK
6
CONTINUOUS
10
5.37946
20
-3.62023
11
5.38081
21
-3.61753
0
LINE
8
BLACK
6
CONTINUOUS
10
5.38081
20
-3.61753
11
5.38081
21
-3.61517
0
LINE
8
BLACK
6
CONTINUOUS
10
5.38081
20
-3.61517
11
5.37946
21
-3.61247
0
LINE
8
BLACK
6
CONTINUOUS
10
5.37946
20
-3.61247
11
5.37826
21
-3.61128
0
LINE
8
BLACK
6
CONTINUOUS
10
5.37826
20
-3.61128
11
5.3761
21
-3.61019
0
LINE
8
BLACK
6
CONTINUOUS
10
5.3761
20
-3.61019
11
5.37411
21
-3.61466
0
LINE
8
BLACK
6
CONTINUOUS
10
5.36676
20
-3.59066
11
5.36557
21
-3.59185
0
LINE
8
BLACK
6
CONTINUOUS
10
5.36557
20
-3.59185
11
5.36422
21
-3.59455
0
LINE
8
BLACK
6
CONTINUOUS
10
5.36422
20
-3.59455
11
5.36422
21
-3.59691
0
LINE
8
BLACK
6
CONTINUOUS
10
5.36422
20
-3.59691
11
5.36505
21
-3.59858
0
LINE
8
BLACK
6
CONTINUOUS
10
5.36505
20
-3.59858
11
5.36822
21
-3.58993
0
LINE
8
BLACK
6
CONTINUOUS
10
5.36822
20
-3.58993
11
5.36676
21
-3.59066
0
LINE
8
BLACK
6
CONTINUOUS
10
5.34665
20
-3.58446
11
5.34735
21
-3.58635
0
LINE
8
BLACK
6
CONTINUOUS
10
5.34735
20
-3.58635
11
5.34735
21
-3.61822
0
LINE
8
BLACK
6
CONTINUOUS
10
5.34735
20
-3.61822
11
5.34717
21
-3.61923
0
LINE
8
BLACK
6
CONTINUOUS
10
5.34717
20
-3.61923
11
5.34705
21
-3.61937
0
LINE
8
BLACK
6
CONTINUOUS
10
5.34705
20
-3.61937
11
5.34703
21
-3.61955
0
LINE
8
BLACK
6
CONTINUOUS
10
5.34703
20
-3.61955
11
5.34516
21
-3.62329
0
LINE
8
BLACK
6
CONTINUOUS
10
5.34516
20
-3.62329
11
5.34463
21
-3.624
0
LINE
8
BLACK
6
CONTINUOUS
10
5.34463
20
-3.624
11
5.34461
21
-3.62406
0
LINE
8
BLACK
6
CONTINUOUS
10
5.34461
20
-3.62406
11
5.34273
21
-3.62594
0
LINE
8
BLACK
6
CONTINUOUS
10
5.34273
20
-3.62594
11
5.34201
21
-3.62644
0
LINE
8
BLACK
6
CONTINUOUS
10
5.34201
20
-3.62644
11
5.34196
21
-3.62649
0
LINE
8
BLACK
6
CONTINUOUS
10
5.34196
20
-3.62649
11
5.33821
21
-3.62836
0
LINE
8
BLACK
6
CONTINUOUS
10
5.33821
20
-3.62836
11
5.33723
21
-3.62866
0
LINE
8
BLACK
6
CONTINUOUS
10
5.33723
20
-3.62866
11
5.33706
21
-3.62862
0
LINE
8
BLACK
6
CONTINUOUS
10
5.33706
20
-3.62862
11
5.33689
21
-3.62868
0
LINE
8
BLACK
6
CONTINUOUS
10
5.33689
20
-3.62868
11
5.32939
21
-3.62868
0
LINE
8
BLACK
6
CONTINUOUS
10
5.32939
20
-3.62868
11
5.32838
21
-3.6285
0
LINE
8
BLACK
6
CONTINUOUS
10
5.32838
20
-3.6285
11
5.32825
21
-3.62838
0
LINE
8
BLACK
6
CONTINUOUS
10
5.32825
20
-3.62838
11
5.32807
21
-3.62836
0
LINE
8
BLACK
6
CONTINUOUS
10
5.32807
20
-3.62836
11
5.32432
21
-3.62649
0
LINE
8
BLACK
6
CONTINUOUS
10
5.32432
20
-3.62649
11
5.32362
21
-3.62596
0
LINE
8
BLACK
6
CONTINUOUS
10
5.32362
20
-3.62596
11
5.32356
21
-3.62594
0
LINE
8
BLACK
6
CONTINUOUS
10
5.32356
20
-3.62594
11
5.32168
21
-3.62406
0
LINE
8
BLACK
6
CONTINUOUS
10
5.32168
20
-3.62406
11
5.32118
21
-3.62334
0
LINE
8
BLACK
6
CONTINUOUS
10
5.32118
20
-3.62334
11
5.32113
21
-3.62329
0
LINE
8
BLACK
6
CONTINUOUS
10
5.32113
20
-3.62329
11
5.31925
21
-3.61955
0
LINE
8
BLACK
6
CONTINUOUS
10
5.31925
20
-3.61955
11
5.31896
21
-3.61856
0
LINE
8
BLACK
6
CONTINUOUS
10
5.31896
20
-3.61856
11
5.319
21
-3.61839
0
LINE
8
BLACK
6
CONTINUOUS
10
5.319
20
-3.61839
11
5.31894
21
-3.61822
0
LINE
8
BLACK
6
CONTINUOUS
10
5.31894
20
-3.61822
11
5.31894
21
-3.58635
0
LINE
8
BLACK
6
CONTINUOUS
10
5.31894
20
-3.58635
11
5.31912
21
-3.58534
0
LINE
8
BLACK
6
CONTINUOUS
10
5.31912
20
-3.58534
11
5.32042
21
-3.5838
0
LINE
8
BLACK
6
CONTINUOUS
10
5.32042
20
-3.5838
11
5.32241
21
-3.58345
0
LINE
8
BLACK
6
CONTINUOUS
10
5.32241
20
-3.58345
11
5.32416
21
-3.58446
0
LINE
8
BLACK
6
CONTINUOUS
10
5.32416
20
-3.58446
11
5.32485
21
-3.58635
0
LINE
8
BLACK
6
CONTINUOUS
10
5.32485
20
-3.58635
11
5.32485
21
-3.61753
0
LINE
8
BLACK
6
CONTINUOUS
10
5.32485
20
-3.61753
11
5.3262
21
-3.62023
0
LINE
8
BLACK
6
CONTINUOUS
10
5.3262
20
-3.62023
11
5.32739
21
-3.62142
0
LINE
8
BLACK
6
CONTINUOUS
10
5.32739
20
-3.62142
11
5.33009
21
-3.62277
0
LINE
8
BLACK
6
CONTINUOUS
10
5.33009
20
-3.62277
11
5.3362
21
-3.62277
0
LINE
8
BLACK
6
CONTINUOUS
10
5.3362
20
-3.62277
11
5.33889
21
-3.62142
0
LINE
8
BLACK
6
CONTINUOUS
10
5.33889
20
-3.62142
11
5.34009
21
-3.62023
0
LINE
8
BLACK
6
CONTINUOUS
10
5.34009
20
-3.62023
11
5.34144
21
-3.61753
0
LINE
8
BLACK
6
CONTINUOUS
10
5.34144
20
-3.61753
11
5.34144
21
-3.58635
0
LINE
8
BLACK
6
CONTINUOUS
10
5.34144
20
-3.58635
11
5.34162
21
-3.58534
0
LINE
8
BLACK
6
CONTINUOUS
10
5.34162
20
-3.58534
11
5.34292
21
-3.5838
0
LINE
8
BLACK
6
CONTINUOUS
10
5.34292
20
-3.5838
11
5.34491
21
-3.58345
0
LINE
8
BLACK
6
CONTINUOUS
10
5.34491
20
-3.58345
11
5.34665
21
-3.58446
  0
ENDSEC
  0
EOF
