  0
SECTION
  2
HEADER
  9
$ANGBASE
  50
0.0
  9
$ANGDIR
  70
1
  9
$MEASUREMENT
  70
0
  0
ENDSEC
  0
SECTION
  2
TABLES
  0
TABLE
  2
LTYPE
  70
4
  0
LTYPE
  5
40F
  2
CONTINUOUS
  70
0
  3
Solid line
  72
65
  73
0
  40
0.0
  0
LTYPE
  5
410
  2
DASHDOT
 70
0
  3
Dash Dot ____ _ ____ _
 72
65
 73
4
 40
2.0
 49
1.25
 49
-0.25
 49
0.25
 49
-0.25
  0
LTYPE
  5
411
  2
DASHED
 70
0
  3
Dashed __ __ __ __ __
 72
65
 73
2
 40
0.75
 49
0.5
 49
-0.25
  0
LTYPE
  5
43B
  2
DOTTED
 70
0
  3
Dotted .  .  .  .
 72
65
 73
2
 40
0.2
 49
0.0
 49
-0.2
  0
ENDTAB
  0
TABLE
  2
STYLE
  70
4
  0
STYLE
  2
KICAD
  70
0
  40
0
  41
1
  42
1
  50
0
  71
0
  3
isocp.shx
  0
STYLE
  2
KICADB
  70
0
  40
0
  41
1
  42
1
  50
0
  71
0
  3
isocp.shx
  0
STYLE
  2
KICADI
  70
0
  40
0
  41
1
  42
1
  50
15
  71
0
  3
isocp.shx
  0
STYLE
  2
KICADBI
  70
0
  40
0
  41
1
  42
1
  50
15
  71
0
  3
isocp.shx
  0
ENDTAB
  0
TABLE
  2
LAYER
  70
1
  0
LAYER
  2
BLACK
  70
0
  62
7
  6
CONTINUOUS
  0
ENDTAB
  0
ENDSEC
  0
SECTION
  2
ENTITIES
0
LINE
8
BLACK
6
CONTINUOUS
10
0.211356
20
-0.0832989
11
0.212047
21
-0.0851969
0
LINE
8
BLACK
6
CONTINUOUS
10
0.212047
20
-0.0851969
11
0.212047
21
-0.145197
0
LINE
8
BLACK
6
CONTINUOUS
10
0.212047
20
-0.145197
11
0.211869
21
-0.146207
0
LINE
8
BLACK
6
CONTINUOUS
10
0.211869
20
-0.146207
11
0.210571
21
-0.147754
0
LINE
8
BLACK
6
CONTINUOUS
10
0.210571
20
-0.147754
11
0.208582
21
-0.148105
0
LINE
8
BLACK
6
CONTINUOUS
10
0.208582
20
-0.148105
11
0.206833
21
-0.147095
0
LINE
8
BLACK
6
CONTINUOUS
10
0.206833
20
-0.147095
11
0.206142
21
-0.145197
0
LINE
8
BLACK
6
CONTINUOUS
10
0.206142
20
-0.145197
11
0.206142
21
-0.0851969
0
LINE
8
BLACK
6
CONTINUOUS
10
0.206142
20
-0.0851969
11
0.20632
21
-0.0841869
0
LINE
8
BLACK
6
CONTINUOUS
10
0.20632
20
-0.0841869
11
0.207618
21
-0.0826397
0
LINE
8
BLACK
6
CONTINUOUS
10
0.207618
20
-0.0826397
11
0.209607
21
-0.0822889
0
LINE
8
BLACK
6
CONTINUOUS
10
0.209607
20
-0.0822889
11
0.211356
21
-0.0832989
0
LINE
8
BLACK
6
CONTINUOUS
10
0.331356
20
-0.0832989
11
0.332047
21
-0.0851969
0
LINE
8
BLACK
6
CONTINUOUS
10
0.332047
20
-0.0851969
11
0.332047
21
-0.145197
0
LINE
8
BLACK
6
CONTINUOUS
10
0.332047
20
-0.145197
11
0.331869
21
-0.146207
0
LINE
8
BLACK
6
CONTINUOUS
10
0.331869
20
-0.146207
11
0.330571
21
-0.147754
0
LINE
8
BLACK
6
CONTINUOUS
10
0.330571
20
-0.147754
11
0.328582
21
-0.148105
0
LINE
8
BLACK
6
CONTINUOUS
10
0.328582
20
-0.148105
11
0.326833
21
-0.147095
0
LINE
8
BLACK
6
CONTINUOUS
10
0.326833
20
-0.147095
11
0.326142
21
-0.145197
0
LINE
8
BLACK
6
CONTINUOUS
10
0.326142
20
-0.145197
11
0.326142
21
-0.0851969
0
LINE
8
BLACK
6
CONTINUOUS
10
0.326142
20
-0.0851969
11
0.32632
21
-0.0841869
0
LINE
8
BLACK
6
CONTINUOUS
10
0.32632
20
-0.0841869
11
0.327618
21
-0.0826397
0
LINE
8
BLACK
6
CONTINUOUS
10
0.327618
20
-0.0826397
11
0.329607
21
-0.0822889
0
LINE
8
BLACK
6
CONTINUOUS
10
0.329607
20
-0.0822889
11
0.331356
21
-0.0832989
0
LINE
8
BLACK
6
CONTINUOUS
10
0.285765
20
-0.143527
11
0.286457
21
-0.145197
0
LINE
8
BLACK
6
CONTINUOUS
10
0.286457
20
-0.145197
11
0.285765
21
-0.146867
0
LINE
8
BLACK
6
CONTINUOUS
10
0.285765
20
-0.146867
11
0.284094
21
-0.147559
0
LINE
8
BLACK
6
CONTINUOUS
10
0.284094
20
-0.147559
11
0.254094
21
-0.147559
0
LINE
8
BLACK
6
CONTINUOUS
10
0.254094
20
-0.147559
11
0.252424
21
-0.146867
0
LINE
8
BLACK
6
CONTINUOUS
10
0.252424
20
-0.146867
11
0.251732
21
-0.145197
0
LINE
8
BLACK
6
CONTINUOUS
10
0.251732
20
-0.145197
11
0.252424
21
-0.143527
0
LINE
8
BLACK
6
CONTINUOUS
10
0.252424
20
-0.143527
11
0.254094
21
-0.142835
0
LINE
8
BLACK
6
CONTINUOUS
10
0.254094
20
-0.142835
11
0.284094
21
-0.142835
0
LINE
8
BLACK
6
CONTINUOUS
10
0.284094
20
-0.142835
11
0.285765
21
-0.143527
0
LINE
8
BLACK
6
CONTINUOUS
10
0.285765
20
-0.0835265
11
0.286457
21
-0.0851969
0
LINE
8
BLACK
6
CONTINUOUS
10
0.286457
20
-0.0851969
11
0.285765
21
-0.0868672
0
LINE
8
BLACK
6
CONTINUOUS
10
0.285765
20
-0.0868672
11
0.284094
21
-0.0875591
0
LINE
8
BLACK
6
CONTINUOUS
10
0.284094
20
-0.0875591
11
0.254094
21
-0.0875591
0
LINE
8
BLACK
6
CONTINUOUS
10
0.254094
20
-0.0875591
11
0.252424
21
-0.0868672
0
LINE
8
BLACK
6
CONTINUOUS
10
0.252424
20
-0.0868672
11
0.251732
21
-0.0851969
0
LINE
8
BLACK
6
CONTINUOUS
10
0.251732
20
-0.0851969
11
0.252424
21
-0.0835265
0
LINE
8
BLACK
6
CONTINUOUS
10
0.252424
20
-0.0835265
11
0.254094
21
-0.0828346
0
LINE
8
BLACK
6
CONTINUOUS
10
0.254094
20
-0.0828346
11
0.284094
21
-0.0828346
0
LINE
8
BLACK
6
CONTINUOUS
10
0.284094
20
-0.0828346
11
0.285765
21
-0.0835265
0
LINE
8
BLACK
6
CONTINUOUS
10
0.956811
20
0.29689
11
0.962648
21
0.296315
0
LINE
8
BLACK
6
CONTINUOUS
10
0.962648
20
0.296315
11
0.968261
21
0.294612
0
LINE
8
BLACK
6
CONTINUOUS
10
0.968261
20
0.294612
11
0.973434
21
0.291847
0
LINE
8
BLACK
6
CONTINUOUS
10
0.973434
20
0.291847
11
0.977969
21
0.288126
0
LINE
8
BLACK
6
CONTINUOUS
10
0.977969
20
0.288126
11
0.98169
21
0.283592
0
LINE
8
BLACK
6
CONTINUOUS
10
0.98169
20
0.283592
11
0.984455
21
0.278419
0
LINE
8
BLACK
6
CONTINUOUS
10
0.984455
20
0.278419
11
0.986157
21
0.272806
0
LINE
8
BLACK
6
CONTINUOUS
10
0.986157
20
0.272806
11
0.986732
21
0.266969
0
LINE
8
BLACK
6
CONTINUOUS
10
0.986732
20
0.266969
11
0.986732
21
0.21185
0
LINE
8
BLACK
6
CONTINUOUS
10
0.986732
20
0.21185
11
0.986732
21
0.21185
0
LINE
8
BLACK
6
CONTINUOUS
10
0.986732
20
0.21185
11
0.986157
21
0.206013
0
LINE
8
BLACK
6
CONTINUOUS
10
0.986157
20
0.206013
11
0.984455
21
0.2004
0
LINE
8
BLACK
6
CONTINUOUS
10
0.984455
20
0.2004
11
0.98169
21
0.195227
0
LINE
8
BLACK
6
CONTINUOUS
10
0.98169
20
0.195227
11
0.977969
21
0.190693
0
LINE
8
BLACK
6
CONTINUOUS
10
0.977969
20
0.190693
11
0.973434
21
0.186972
0
LINE
8
BLACK
6
CONTINUOUS
10
0.973434
20
0.186972
11
0.968261
21
0.184207
0
LINE
8
BLACK
6
CONTINUOUS
10
0.968261
20
0.184207
11
0.962648
21
0.182504
0
LINE
8
BLACK
6
CONTINUOUS
10
0.962648
20
0.182504
11
0.956811
21
0.181929
0
LINE
8
BLACK
6
CONTINUOUS
10
0.956811
20
0.181929
11
0.933189
21
0.181929
0
LINE
8
BLACK
6
CONTINUOUS
10
0.933189
20
0.181929
11
0.927352
21
0.182504
0
LINE
8
BLACK
6
CONTINUOUS
10
0.927352
20
0.182504
11
0.921739
21
0.184207
0
LINE
8
BLACK
6
CONTINUOUS
10
0.921739
20
0.184207
11
0.916566
21
0.186972
0
LINE
8
BLACK
6
CONTINUOUS
10
0.916566
20
0.186972
11
0.912031
21
0.190693
0
LINE
8
BLACK
6
CONTINUOUS
10
0.912031
20
0.190693
11
0.90831
21
0.195227
0
LINE
8
BLACK
6
CONTINUOUS
10
0.90831
20
0.195227
11
0.905545
21
0.2004
0
LINE
8
BLACK
6
CONTINUOUS
10
0.905545
20
0.2004
11
0.903843
21
0.206013
0
LINE
8
BLACK
6
CONTINUOUS
10
0.903843
20
0.206013
11
0.903268
21
0.21185
0
LINE
8
BLACK
6
CONTINUOUS
10
0.903268
20
0.21185
11
0.903268
21
0.21185
0
LINE
8
BLACK
6
CONTINUOUS
10
0.903268
20
0.21185
11
0.903268
21
0.266969
0
LINE
8
BLACK
6
CONTINUOUS
10
0.903268
20
0.266969
11
0.903268
21
0.266969
0
LINE
8
BLACK
6
CONTINUOUS
10
0.903268
20
0.266969
11
0.903843
21
0.272806
0
LINE
8
BLACK
6
CONTINUOUS
10
0.903843
20
0.272806
11
0.905545
21
0.278419
0
LINE
8
BLACK
6
CONTINUOUS
10
0.905545
20
0.278419
11
0.90831
21
0.283592
0
LINE
8
BLACK
6
CONTINUOUS
10
0.90831
20
0.283592
11
0.912031
21
0.288126
0
LINE
8
BLACK
6
CONTINUOUS
10
0.912031
20
0.288126
11
0.916566
21
0.291847
0
LINE
8
BLACK
6
CONTINUOUS
10
0.916566
20
0.291847
11
0.921739
21
0.294612
0
LINE
8
BLACK
6
CONTINUOUS
10
0.921739
20
0.294612
11
0.927352
21
0.296315
0
LINE
8
BLACK
6
CONTINUOUS
10
0.927352
20
0.296315
11
0.933189
21
0.29689
0
LINE
8
BLACK
6
CONTINUOUS
10
0.933189
20
0.29689
11
0.956811
21
0.29689
0
LINE
8
BLACK
6
CONTINUOUS
10
0.933189
20
0.292165
11
0.93035
21
0.292165
0
LINE
8
BLACK
6
CONTINUOUS
10
0.93035
20
0.292165
11
0.924814
21
0.290902
0
LINE
8
BLACK
6
CONTINUOUS
10
0.924814
20
0.290902
11
0.919699
21
0.288438
0
LINE
8
BLACK
6
CONTINUOUS
10
0.919699
20
0.288438
11
0.915259
21
0.284898
0
LINE
8
BLACK
6
CONTINUOUS
10
0.915259
20
0.284898
11
0.911719
21
0.280459
0
LINE
8
BLACK
6
CONTINUOUS
10
0.911719
20
0.280459
11
0.909256
21
0.275343
0
LINE
8
BLACK
6
CONTINUOUS
10
0.909256
20
0.275343
11
0.907992
21
0.269808
0
LINE
8
BLACK
6
CONTINUOUS
10
0.907992
20
0.269808
11
0.907992
21
0.266969
0
LINE
8
BLACK
6
CONTINUOUS
10
0.907992
20
0.266969
11
0.907992
21
0.266969
0
LINE
8
BLACK
6
CONTINUOUS
10
0.907992
20
0.266969
11
0.907992
21
0.21185
0
LINE
8
BLACK
6
CONTINUOUS
10
0.907992
20
0.21185
11
0.907992
21
0.21185
0
LINE
8
BLACK
6
CONTINUOUS
10
0.907992
20
0.21185
11
0.907992
21
0.209011
0
LINE
8
BLACK
6
CONTINUOUS
10
0.907992
20
0.209011
11
0.909256
21
0.203476
0
LINE
8
BLACK
6
CONTINUOUS
10
0.909256
20
0.203476
11
0.911719
21
0.19836
0
LINE
8
BLACK
6
CONTINUOUS
10
0.911719
20
0.19836
11
0.915259
21
0.193921
0
LINE
8
BLACK
6
CONTINUOUS
10
0.915259
20
0.193921
11
0.919699
21
0.190381
0
LINE
8
BLACK
6
CONTINUOUS
10
0.919699
20
0.190381
11
0.924814
21
0.187917
0
LINE
8
BLACK
6
CONTINUOUS
10
0.924814
20
0.187917
11
0.93035
21
0.186654
0
LINE
8
BLACK
6
CONTINUOUS
10
0.93035
20
0.186654
11
0.933189
21
0.186654
0
LINE
8
BLACK
6
CONTINUOUS
10
0.933189
20
0.186654
11
0.956811
21
0.186654
0
LINE
8
BLACK
6
CONTINUOUS
10
0.956811
20
0.186654
11
0.95965
21
0.186654
0
LINE
8
BLACK
6
CONTINUOUS
10
0.95965
20
0.186654
11
0.965186
21
0.187917
0
LINE
8
BLACK
6
CONTINUOUS
10
0.965186
20
0.187917
11
0.970301
21
0.190381
0
LINE
8
BLACK
6
CONTINUOUS
10
0.970301
20
0.190381
11
0.974741
21
0.193921
0
LINE
8
BLACK
6
CONTINUOUS
10
0.974741
20
0.193921
11
0.978281
21
0.19836
0
LINE
8
BLACK
6
CONTINUOUS
10
0.978281
20
0.19836
11
0.980744
21
0.203476
0
LINE
8
BLACK
6
CONTINUOUS
10
0.980744
20
0.203476
11
0.982008
21
0.209011
0
LINE
8
BLACK
6
CONTINUOUS
10
0.982008
20
0.209011
11
0.982008
21
0.21185
0
LINE
8
BLACK
6
CONTINUOUS
10
0.982008
20
0.21185
11
0.982008
21
0.21185
0
LINE
8
BLACK
6
CONTINUOUS
10
0.982008
20
0.21185
11
0.982008
21
0.266969
0
LINE
8
BLACK
6
CONTINUOUS
10
0.982008
20
0.266969
11
0.982008
21
0.269808
0
LINE
8
BLACK
6
CONTINUOUS
10
0.982008
20
0.269808
11
0.980744
21
0.275343
0
LINE
8
BLACK
6
CONTINUOUS
10
0.980744
20
0.275343
11
0.978281
21
0.280459
0
LINE
8
BLACK
6
CONTINUOUS
10
0.978281
20
0.280459
11
0.974741
21
0.284898
0
LINE
8
BLACK
6
CONTINUOUS
10
0.974741
20
0.284898
11
0.970301
21
0.288438
0
LINE
8
BLACK
6
CONTINUOUS
10
0.970301
20
0.288438
11
0.965186
21
0.290902
0
LINE
8
BLACK
6
CONTINUOUS
10
0.965186
20
0.290902
11
0.95965
21
0.292165
0
LINE
8
BLACK
6
CONTINUOUS
10
0.95965
20
0.292165
11
0.956811
21
0.292165
0
LINE
8
BLACK
6
CONTINUOUS
10
0.956811
20
0.292165
11
0.933189
21
0.292165
0
LINE
8
BLACK
6
CONTINUOUS
10
0.865678
20
0.218346
11
0.866791
21
0.216661
0
LINE
8
BLACK
6
CONTINUOUS
10
0.866791
20
0.216661
11
0.86656
21
0.214654
0
LINE
8
BLACK
6
CONTINUOUS
10
0.86656
20
0.214654
11
0.864685
21
0.210905
0
LINE
8
BLACK
6
CONTINUOUS
10
0.864685
20
0.210905
11
0.864159
21
0.210196
0
LINE
8
BLACK
6
CONTINUOUS
10
0.864159
20
0.210196
11
0.864132
21
0.210137
0
LINE
8
BLACK
6
CONTINUOUS
10
0.864132
20
0.210137
11
0.861673
21
0.207679
0
LINE
8
BLACK
6
CONTINUOUS
10
0.861673
20
0.207679
11
0.889087
21
0.207679
0
LINE
8
BLACK
6
CONTINUOUS
10
0.889087
20
0.207679
11
0.889087
21
0.215975
0
LINE
8
BLACK
6
CONTINUOUS
10
0.889087
20
0.215975
11
0.889265
21
0.216985
0
LINE
8
BLACK
6
CONTINUOUS
10
0.889265
20
0.216985
11
0.890564
21
0.218532
0
LINE
8
BLACK
6
CONTINUOUS
10
0.890564
20
0.218532
11
0.892553
21
0.218883
0
LINE
8
BLACK
6
CONTINUOUS
10
0.892553
20
0.218883
11
0.894302
21
0.217873
0
LINE
8
BLACK
6
CONTINUOUS
10
0.894302
20
0.217873
11
0.894993
21
0.215975
0
LINE
8
BLACK
6
CONTINUOUS
10
0.894993
20
0.215975
11
0.894993
21
0.193478
0
LINE
8
BLACK
6
CONTINUOUS
10
0.894993
20
0.193478
11
0.894815
21
0.192468
0
LINE
8
BLACK
6
CONTINUOUS
10
0.894815
20
0.192468
11
0.893516
21
0.190921
0
LINE
8
BLACK
6
CONTINUOUS
10
0.893516
20
0.190921
11
0.891527
21
0.19057
0
LINE
8
BLACK
6
CONTINUOUS
10
0.891527
20
0.19057
11
0.889778
21
0.19158
0
LINE
8
BLACK
6
CONTINUOUS
10
0.889778
20
0.19158
11
0.889087
21
0.193478
0
LINE
8
BLACK
6
CONTINUOUS
10
0.889087
20
0.193478
11
0.889087
21
0.201774
0
LINE
8
BLACK
6
CONTINUOUS
10
0.889087
20
0.201774
11
0.85267
21
0.201774
0
LINE
8
BLACK
6
CONTINUOUS
10
0.85267
20
0.201774
11
0.85166
21
0.201952
0
LINE
8
BLACK
6
CONTINUOUS
10
0.85166
20
0.201952
11
0.85153
21
0.202061
0
LINE
8
BLACK
6
CONTINUOUS
10
0.85153
20
0.202061
11
0.851361
21
0.202079
0
LINE
8
BLACK
6
CONTINUOUS
10
0.851361
20
0.202079
11
0.850769
21
0.202699
0
LINE
8
BLACK
6
CONTINUOUS
10
0.850769
20
0.202699
11
0.850113
21
0.20325
0
LINE
8
BLACK
6
CONTINUOUS
10
0.850113
20
0.20325
11
0.850083
21
0.203417
0
LINE
8
BLACK
6
CONTINUOUS
10
0.850083
20
0.203417
11
0.849966
21
0.20354
0
LINE
8
BLACK
6
CONTINUOUS
10
0.849966
20
0.20354
11
0.849911
21
0.204395
0
LINE
8
BLACK
6
CONTINUOUS
10
0.849911
20
0.204395
11
0.849762
21
0.205239
0
LINE
8
BLACK
6
CONTINUOUS
10
0.849762
20
0.205239
11
0.849847
21
0.205386
0
LINE
8
BLACK
6
CONTINUOUS
10
0.849847
20
0.205386
11
0.849836
21
0.205556
0
LINE
8
BLACK
6
CONTINUOUS
10
0.849836
20
0.205556
11
0.850344
21
0.206246
0
LINE
8
BLACK
6
CONTINUOUS
10
0.850344
20
0.206246
11
0.850772
21
0.206988
0
LINE
8
BLACK
6
CONTINUOUS
10
0.850772
20
0.206988
11
0.850932
21
0.207046
0
LINE
8
BLACK
6
CONTINUOUS
10
0.850932
20
0.207046
11
0.851032
21
0.207183
0
LINE
8
BLACK
6
CONTINUOUS
10
0.851032
20
0.207183
11
0.856413
21
0.210771
0
LINE
8
BLACK
6
CONTINUOUS
10
0.856413
20
0.210771
11
0.859617
21
0.213974
0
LINE
8
BLACK
6
CONTINUOUS
10
0.859617
20
0.213974
11
0.861278
21
0.217295
0
LINE
8
BLACK
6
CONTINUOUS
10
0.861278
20
0.217295
11
0.861889
21
0.218119
0
LINE
8
BLACK
6
CONTINUOUS
10
0.861889
20
0.218119
11
0.863742
21
0.218922
0
LINE
8
BLACK
6
CONTINUOUS
10
0.863742
20
0.218922
11
0.865678
21
0.218346
0
LINE
8
BLACK
6
CONTINUOUS
10
0.105118
20
0.342323
11
0.106788
21
0.341631
0
LINE
8
BLACK
6
CONTINUOUS
10
0.106788
20
0.341631
11
0.10748
21
0.339961
0
LINE
8
BLACK
6
CONTINUOUS
10
0.10748
20
0.339961
11
0.10748
21
0.210039
0
LINE
8
BLACK
6
CONTINUOUS
10
0.10748
20
0.210039
11
0.106788
21
0.208369
0
LINE
8
BLACK
6
CONTINUOUS
10
0.106788
20
0.208369
11
0.105118
21
0.207677
0
LINE
8
BLACK
6
CONTINUOUS
10
0.105118
20
0.207677
11
-0.10748
21
0.207677
0
LINE
8
BLACK
6
CONTINUOUS
10
-0.10748
20
0.207677
11
-0.109151
21
0.208369
0
LINE
8
BLACK
6
CONTINUOUS
10
-0.109151
20
0.208369
11
-0.109843
21
0.210039
0
LINE
8
BLACK
6
CONTINUOUS
10
-0.109843
20
0.210039
11
-0.109151
21
0.21171
0
LINE
8
BLACK
6
CONTINUOUS
10
-0.109151
20
0.21171
11
-0.10748
21
0.212402
0
LINE
8
BLACK
6
CONTINUOUS
10
-0.10748
20
0.212402
11
0.102756
21
0.212402
0
LINE
8
BLACK
6
CONTINUOUS
10
0.102756
20
0.212402
11
0.102756
21
0.337598
0
LINE
8
BLACK
6
CONTINUOUS
10
0.102756
20
0.337598
11
-0.10748
21
0.337598
0
LINE
8
BLACK
6
CONTINUOUS
10
-0.10748
20
0.337598
11
-0.109151
21
0.33829
0
LINE
8
BLACK
6
CONTINUOUS
10
-0.109151
20
0.33829
11
-0.109843
21
0.339961
0
LINE
8
BLACK
6
CONTINUOUS
10
-0.109843
20
0.339961
11
-0.109151
21
0.341631
0
LINE
8
BLACK
6
CONTINUOUS
10
-0.109151
20
0.341631
11
-0.10748
21
0.342323
0
LINE
8
BLACK
6
CONTINUOUS
10
-0.10748
20
0.342323
11
0.105118
21
0.342323
0
LINE
8
BLACK
6
CONTINUOUS
10
0.89305
20
0.256245
11
0.894597
21
0.254947
0
LINE
8
BLACK
6
CONTINUOUS
10
0.894597
20
0.254947
11
0.894948
21
0.252957
0
LINE
8
BLACK
6
CONTINUOUS
10
0.894948
20
0.252957
11
0.893938
21
0.251208
0
LINE
8
BLACK
6
CONTINUOUS
10
0.893938
20
0.251208
11
0.89204
21
0.250517
0
LINE
8
BLACK
6
CONTINUOUS
10
0.89204
20
0.250517
11
0.876245
21
0.250517
0
LINE
8
BLACK
6
CONTINUOUS
10
0.876245
20
0.250517
11
0.876245
21
0.238472
0
LINE
8
BLACK
6
CONTINUOUS
10
0.876245
20
0.238472
11
0.876067
21
0.237462
0
LINE
8
BLACK
6
CONTINUOUS
10
0.876067
20
0.237462
11
0.875954
21
0.237327
0
LINE
8
BLACK
6
CONTINUOUS
10
0.875954
20
0.237327
11
0.875933
21
0.237152
0
LINE
8
BLACK
6
CONTINUOUS
10
0.875933
20
0.237152
11
0.874059
21
0.233402
0
LINE
8
BLACK
6
CONTINUOUS
10
0.874059
20
0.233402
11
0.873533
21
0.232693
0
LINE
8
BLACK
6
CONTINUOUS
10
0.873533
20
0.232693
11
0.873506
21
0.232635
0
LINE
8
BLACK
6
CONTINUOUS
10
0.873506
20
0.232635
11
0.871631
21
0.23076
0
LINE
8
BLACK
6
CONTINUOUS
10
0.871631
20
0.23076
11
0.870908
21
0.230254
0
LINE
8
BLACK
6
CONTINUOUS
10
0.870908
20
0.230254
11
0.870863
21
0.230207
0
LINE
8
BLACK
6
CONTINUOUS
10
0.870863
20
0.230207
11
0.867114
21
0.228332
0
LINE
8
BLACK
6
CONTINUOUS
10
0.867114
20
0.228332
11
0.866131
21
0.22804
0
LINE
8
BLACK
6
CONTINUOUS
10
0.866131
20
0.22804
11
0.865959
21
0.228081
0
LINE
8
BLACK
6
CONTINUOUS
10
0.865959
20
0.228081
11
0.865793
21
0.22802
0
LINE
8
BLACK
6
CONTINUOUS
10
0.865793
20
0.22802
11
0.860169
21
0.22802
0
LINE
8
BLACK
6
CONTINUOUS
10
0.860169
20
0.22802
11
0.859159
21
0.228198
0
LINE
8
BLACK
6
CONTINUOUS
10
0.859159
20
0.228198
11
0.859024
21
0.228312
0
LINE
8
BLACK
6
CONTINUOUS
10
0.859024
20
0.228312
11
0.858849
21
0.228332
0
LINE
8
BLACK
6
CONTINUOUS
10
0.858849
20
0.228332
11
0.855099
21
0.230207
0
LINE
8
BLACK
6
CONTINUOUS
10
0.855099
20
0.230207
11
0.85439
21
0.230733
0
LINE
8
BLACK
6
CONTINUOUS
10
0.85439
20
0.230733
11
0.854332
21
0.23076
0
LINE
8
BLACK
6
CONTINUOUS
10
0.854332
20
0.23076
11
0.852457
21
0.232635
0
LINE
8
BLACK
6
CONTINUOUS
10
0.852457
20
0.232635
11
0.851951
21
0.233358
0
LINE
8
BLACK
6
CONTINUOUS
10
0.851951
20
0.233358
11
0.851904
21
0.233402
0
LINE
8
BLACK
6
CONTINUOUS
10
0.851904
20
0.233402
11
0.850029
21
0.237152
0
LINE
8
BLACK
6
CONTINUOUS
10
0.850029
20
0.237152
11
0.849737
21
0.238135
0
LINE
8
BLACK
6
CONTINUOUS
10
0.849737
20
0.238135
11
0.849778
21
0.238306
0
LINE
8
BLACK
6
CONTINUOUS
10
0.849778
20
0.238306
11
0.849717
21
0.238472
0
LINE
8
BLACK
6
CONTINUOUS
10
0.849717
20
0.238472
11
0.849717
21
0.25347
0
LINE
8
BLACK
6
CONTINUOUS
10
0.849717
20
0.25347
11
0.849785
21
0.253854
0
LINE
8
BLACK
6
CONTINUOUS
10
0.849785
20
0.253854
11
0.849762
21
0.253983
0
LINE
8
BLACK
6
CONTINUOUS
10
0.849762
20
0.253983
11
0.849828
21
0.254097
0
LINE
8
BLACK
6
CONTINUOUS
10
0.849828
20
0.254097
11
0.849895
21
0.25448
0
LINE
8
BLACK
6
CONTINUOUS
10
0.849895
20
0.25448
11
0.850388
21
0.255068
0
LINE
8
BLACK
6
CONTINUOUS
10
0.850388
20
0.255068
11
0.850772
21
0.255732
0
LINE
8
BLACK
6
CONTINUOUS
10
0.850772
20
0.255732
11
0.851022
21
0.255823
0
LINE
8
BLACK
6
CONTINUOUS
10
0.851022
20
0.255823
11
0.851194
21
0.256027
0
LINE
8
BLACK
6
CONTINUOUS
10
0.851194
20
0.256027
11
0.851949
21
0.256161
0
LINE
8
BLACK
6
CONTINUOUS
10
0.851949
20
0.256161
11
0.85267
21
0.256423
0
LINE
8
BLACK
6
CONTINUOUS
10
0.85267
20
0.256423
11
0.89204
21
0.256423
0
LINE
8
BLACK
6
CONTINUOUS
10
0.89204
20
0.256423
11
0.89305
21
0.256245
0
LINE
8
BLACK
6
CONTINUOUS
10
0.855623
20
0.239169
11
0.856972
21
0.236472
0
LINE
8
BLACK
6
CONTINUOUS
10
0.856972
20
0.236472
11
0.858169
21
0.235275
0
LINE
8
BLACK
6
CONTINUOUS
10
0.858169
20
0.235275
11
0.860866
21
0.233926
0
LINE
8
BLACK
6
CONTINUOUS
10
0.860866
20
0.233926
11
0.865096
21
0.233926
0
LINE
8
BLACK
6
CONTINUOUS
10
0.865096
20
0.233926
11
0.867794
21
0.235275
0
LINE
8
BLACK
6
CONTINUOUS
10
0.867794
20
0.235275
11
0.868991
21
0.236472
0
LINE
8
BLACK
6
CONTINUOUS
10
0.868991
20
0.236472
11
0.87034
21
0.239169
0
LINE
8
BLACK
6
CONTINUOUS
10
0.87034
20
0.239169
11
0.87034
21
0.250517
0
LINE
8
BLACK
6
CONTINUOUS
10
0.87034
20
0.250517
11
0.855623
21
0.250517
0
LINE
8
BLACK
6
CONTINUOUS
10
0.855623
20
0.250517
11
0.855623
21
0.239169
0
LINE
8
BLACK
6
CONTINUOUS
10
-0.0334561
20
0.273935
11
-0.0323433
21
0.27225
0
LINE
8
BLACK
6
CONTINUOUS
10
-0.0323433
20
0.27225
11
-0.0325742
21
0.270243
0
LINE
8
BLACK
6
CONTINUOUS
10
-0.0325742
20
0.270243
11
-0.034449
21
0.266494
0
LINE
8
BLACK
6
CONTINUOUS
10
-0.034449
20
0.266494
11
-0.0349749
21
0.265784
0
LINE
8
BLACK
6
CONTINUOUS
10
-0.0349749
20
0.265784
11
-0.0350021
21
0.265726
0
LINE
8
BLACK
6
CONTINUOUS
10
-0.0350021
20
0.265726
11
-0.0374605
21
0.263268
0
LINE
8
BLACK
6
CONTINUOUS
10
-0.0374605
20
0.263268
11
-0.0100465
21
0.263268
0
LINE
8
BLACK
6
CONTINUOUS
10
-0.0100465
20
0.263268
11
-0.0100465
21
0.271564
0
LINE
8
BLACK
6
CONTINUOUS
10
-0.0100465
20
0.271564
11
-0.00986843
21
0.272573
0
LINE
8
BLACK
6
CONTINUOUS
10
-0.00986843
20
0.272573
11
-0.00857012
21
0.274121
0
LINE
8
BLACK
6
CONTINUOUS
10
-0.00857012
20
0.274121
11
-0.00658098
21
0.274471
0
LINE
8
BLACK
6
CONTINUOUS
10
-0.00658098
20
0.274471
11
-0.00483181
21
0.273462
0
LINE
8
BLACK
6
CONTINUOUS
10
-0.00483181
20
0.273462
11
-0.00414098
21
0.271564
0
LINE
8
BLACK
6
CONTINUOUS
10
-0.00414098
20
0.271564
11
-0.00414098
21
0.249066
0
LINE
8
BLACK
6
CONTINUOUS
10
-0.00414098
20
0.249066
11
-0.00431906
21
0.248056
0
LINE
8
BLACK
6
CONTINUOUS
10
-0.00431906
20
0.248056
11
-0.00561736
21
0.246509
0
LINE
8
BLACK
6
CONTINUOUS
10
-0.00561736
20
0.246509
11
-0.0076065
21
0.246158
0
LINE
8
BLACK
6
CONTINUOUS
10
-0.0076065
20
0.246158
11
-0.00935567
21
0.247168
0
LINE
8
BLACK
6
CONTINUOUS
10
-0.00935567
20
0.247168
11
-0.0100465
21
0.249066
0
LINE
8
BLACK
6
CONTINUOUS
10
-0.0100465
20
0.249066
11
-0.0100465
21
0.257362
0
LINE
8
BLACK
6
CONTINUOUS
10
-0.0100465
20
0.257362
11
-0.0464638
21
0.257362
0
LINE
8
BLACK
6
CONTINUOUS
10
-0.0464638
20
0.257362
11
-0.0474737
21
0.25754
0
LINE
8
BLACK
6
CONTINUOUS
10
-0.0474737
20
0.25754
11
-0.0476038
21
0.257649
0
LINE
8
BLACK
6
CONTINUOUS
10
-0.0476038
20
0.257649
11
-0.0477726
21
0.257668
0
LINE
8
BLACK
6
CONTINUOUS
10
-0.0477726
20
0.257668
11
-0.0483645
21
0.258288
0
LINE
8
BLACK
6
CONTINUOUS
10
-0.0483645
20
0.258288
11
-0.049021
21
0.258839
0
LINE
8
BLACK
6
CONTINUOUS
10
-0.049021
20
0.258839
11
-0.0490505
21
0.259006
0
LINE
8
BLACK
6
CONTINUOUS
10
-0.0490505
20
0.259006
11
-0.0491678
21
0.259129
0
LINE
8
BLACK
6
CONTINUOUS
10
-0.0491678
20
0.259129
11
-0.0492229
21
0.259984
0
LINE
8
BLACK
6
CONTINUOUS
10
-0.0492229
20
0.259984
11
-0.0493717
21
0.260828
0
LINE
8
BLACK
6
CONTINUOUS
10
-0.0493717
20
0.260828
11
-0.0492869
21
0.260975
0
LINE
8
BLACK
6
CONTINUOUS
10
-0.0492869
20
0.260975
11
-0.0492978
21
0.261144
0
LINE
8
BLACK
6
CONTINUOUS
10
-0.0492978
20
0.261144
11
-0.0487903
21
0.261835
0
LINE
8
BLACK
6
CONTINUOUS
10
-0.0487903
20
0.261835
11
-0.0483618
21
0.262577
0
LINE
8
BLACK
6
CONTINUOUS
10
-0.0483618
20
0.262577
11
-0.0482023
21
0.262635
0
LINE
8
BLACK
6
CONTINUOUS
10
-0.0482023
20
0.262635
11
-0.0481017
21
0.262772
0
LINE
8
BLACK
6
CONTINUOUS
10
-0.0481017
20
0.262772
11
-0.0427207
21
0.266359
0
LINE
8
BLACK
6
CONTINUOUS
10
-0.0427207
20
0.266359
11
-0.0395167
21
0.269563
0
LINE
8
BLACK
6
CONTINUOUS
10
-0.0395167
20
0.269563
11
-0.0378563
21
0.272884
0
LINE
8
BLACK
6
CONTINUOUS
10
-0.0378563
20
0.272884
11
-0.0372454
21
0.273708
0
LINE
8
BLACK
6
CONTINUOUS
10
-0.0372454
20
0.273708
11
-0.0353922
21
0.274511
0
LINE
8
BLACK
6
CONTINUOUS
10
-0.0353922
20
0.274511
11
-0.0334561
21
0.273935
0
LINE
8
BLACK
6
CONTINUOUS
10
0.894302
20
0.289114
11
0.894993
21
0.287216
0
LINE
8
BLACK
6
CONTINUOUS
10
0.894993
20
0.287216
11
0.894993
21
0.283466
0
LINE
8
BLACK
6
CONTINUOUS
10
0.894993
20
0.283466
11
0.89484
21
0.282597
0
LINE
8
BLACK
6
CONTINUOUS
10
0.89484
20
0.282597
11
0.894841
21
0.282533
0
LINE
8
BLACK
6
CONTINUOUS
10
0.894841
20
0.282533
11
0.892967
21
0.276908
0
LINE
8
BLACK
6
CONTINUOUS
10
0.892967
20
0.276908
11
0.892478
21
0.276007
0
LINE
8
BLACK
6
CONTINUOUS
10
0.892478
20
0.276007
11
0.892328
21
0.275914
0
LINE
8
BLACK
6
CONTINUOUS
10
0.892328
20
0.275914
11
0.892253
21
0.275754
0
LINE
8
BLACK
6
CONTINUOUS
10
0.892253
20
0.275754
11
0.888504
21
0.272005
0
LINE
8
BLACK
6
CONTINUOUS
10
0.888504
20
0.272005
11
0.887664
21
0.271416
0
LINE
8
BLACK
6
CONTINUOUS
10
0.887664
20
0.271416
11
0.887488
21
0.271401
0
LINE
8
BLACK
6
CONTINUOUS
10
0.887488
20
0.271401
11
0.88735
21
0.271291
0
LINE
8
BLACK
6
CONTINUOUS
10
0.88735
20
0.271291
11
0.881725
21
0.269417
0
LINE
8
BLACK
6
CONTINUOUS
10
0.881725
20
0.269417
11
0.880852
21
0.269287
0
LINE
8
BLACK
6
CONTINUOUS
10
0.880852
20
0.269287
11
0.880791
21
0.269265
0
LINE
8
BLACK
6
CONTINUOUS
10
0.880791
20
0.269265
11
0.85267
21
0.269265
0
LINE
8
BLACK
6
CONTINUOUS
10
0.85267
20
0.269265
11
0.85166
21
0.269443
0
LINE
8
BLACK
6
CONTINUOUS
10
0.85166
20
0.269443
11
0.850113
21
0.270741
0
LINE
8
BLACK
6
CONTINUOUS
10
0.850113
20
0.270741
11
0.849762
21
0.272731
0
LINE
8
BLACK
6
CONTINUOUS
10
0.849762
20
0.272731
11
0.850772
21
0.27448
0
LINE
8
BLACK
6
CONTINUOUS
10
0.850772
20
0.27448
11
0.85267
21
0.275171
0
LINE
8
BLACK
6
CONTINUOUS
10
0.85267
20
0.275171
11
0.880312
21
0.275171
0
LINE
8
BLACK
6
CONTINUOUS
10
0.880312
20
0.275171
11
0.884821
21
0.276673
0
LINE
8
BLACK
6
CONTINUOUS
10
0.884821
20
0.276673
11
0.887585
21
0.279437
0
LINE
8
BLACK
6
CONTINUOUS
10
0.887585
20
0.279437
11
0.889087
21
0.283946
0
LINE
8
BLACK
6
CONTINUOUS
10
0.889087
20
0.283946
11
0.889087
21
0.287216
0
LINE
8
BLACK
6
CONTINUOUS
10
0.889087
20
0.287216
11
0.889265
21
0.288226
0
LINE
8
BLACK
6
CONTINUOUS
10
0.889265
20
0.288226
11
0.890564
21
0.289773
0
LINE
8
BLACK
6
CONTINUOUS
10
0.890564
20
0.289773
11
0.892553
21
0.290124
0
LINE
8
BLACK
6
CONTINUOUS
10
0.892553
20
0.290124
11
0.894302
21
0.289114
0
LINE
8
BLACK
6
CONTINUOUS
10
-0.00671024
20
0.311944
11
-0.00658098
21
0.311967
0
LINE
8
BLACK
6
CONTINUOUS
10
-0.00658098
20
0.311967
11
-0.0064674
21
0.311901
0
LINE
8
BLACK
6
CONTINUOUS
10
-0.0064674
20
0.311901
11
-0.00608382
21
0.311834
0
LINE
8
BLACK
6
CONTINUOUS
10
-0.00608382
20
0.311834
11
-0.00549614
21
0.31134
0
LINE
8
BLACK
6
CONTINUOUS
10
-0.00549614
20
0.31134
11
-0.00483181
21
0.310957
0
LINE
8
BLACK
6
CONTINUOUS
10
-0.00483181
20
0.310957
11
-0.00474071
21
0.310707
0
LINE
8
BLACK
6
CONTINUOUS
10
-0.00474071
20
0.310707
11
-0.00453657
21
0.310535
0
LINE
8
BLACK
6
CONTINUOUS
10
-0.00453657
20
0.310535
11
-0.00440335
21
0.30978
0
LINE
8
BLACK
6
CONTINUOUS
10
-0.00440335
20
0.30978
11
-0.00414098
21
0.309059
0
LINE
8
BLACK
6
CONTINUOUS
10
-0.00414098
20
0.309059
11
-0.00414098
21
0.299685
0
LINE
8
BLACK
6
CONTINUOUS
10
-0.00414098
20
0.299685
11
-0.00429429
21
0.298816
0
LINE
8
BLACK
6
CONTINUOUS
10
-0.00429429
20
0.298816
11
-0.00429252
21
0.298751
0
LINE
8
BLACK
6
CONTINUOUS
10
-0.00429252
20
0.298751
11
-0.00616728
21
0.293127
0
LINE
8
BLACK
6
CONTINUOUS
10
-0.00616728
20
0.293127
11
-0.00665559
21
0.292225
0
LINE
8
BLACK
6
CONTINUOUS
10
-0.00665559
20
0.292225
11
-0.00680598
21
0.292133
0
LINE
8
BLACK
6
CONTINUOUS
10
-0.00680598
20
0.292133
11
-0.00688059
21
0.291973
0
LINE
8
BLACK
6
CONTINUOUS
10
-0.00688059
20
0.291973
11
-0.0106302
21
0.288223
0
LINE
8
BLACK
6
CONTINUOUS
10
-0.0106302
20
0.288223
11
-0.0113533
21
0.287717
0
LINE
8
BLACK
6
CONTINUOUS
10
-0.0113533
20
0.287717
11
-0.0113976
21
0.28767
0
LINE
8
BLACK
6
CONTINUOUS
10
-0.0113976
20
0.28767
11
-0.0151471
21
0.285795
0
LINE
8
BLACK
6
CONTINUOUS
10
-0.0151471
20
0.285795
11
-0.0156356
21
0.28565
0
LINE
8
BLACK
6
CONTINUOUS
10
-0.0156356
20
0.28565
11
-0.0157515
21
0.285572
0
LINE
8
BLACK
6
CONTINUOUS
10
-0.0157515
20
0.285572
11
-0.0232505
21
0.283697
0
LINE
8
BLACK
6
CONTINUOUS
10
-0.0232505
20
0.283697
11
-0.0238384
21
0.283656
0
LINE
8
BLACK
6
CONTINUOUS
10
-0.0238384
20
0.283656
11
-0.0239667
21
0.283609
0
LINE
8
BLACK
6
CONTINUOUS
10
-0.0239667
20
0.283609
11
-0.0295909
21
0.283609
0
LINE
8
BLACK
6
CONTINUOUS
10
-0.0295909
20
0.283609
11
-0.0301713
21
0.283711
0
LINE
8
BLACK
6
CONTINUOUS
10
-0.0301713
20
0.283711
11
-0.0303071
21
0.283697
0
LINE
8
BLACK
6
CONTINUOUS
10
-0.0303071
20
0.283697
11
-0.0378061
21
0.285572
0
LINE
8
BLACK
6
CONTINUOUS
10
-0.0378061
20
0.285572
11
-0.0382716
21
0.285779
0
LINE
8
BLACK
6
CONTINUOUS
10
-0.0382716
20
0.285779
11
-0.0384105
21
0.285795
0
LINE
8
BLACK
6
CONTINUOUS
10
-0.0384105
20
0.285795
11
-0.04216
21
0.28767
0
LINE
8
BLACK
6
CONTINUOUS
10
-0.04216
20
0.28767
11
-0.0428691
21
0.288196
0
LINE
8
BLACK
6
CONTINUOUS
10
-0.0428691
20
0.288196
11
-0.0429274
21
0.288223
0
LINE
8
BLACK
6
CONTINUOUS
10
-0.0429274
20
0.288223
11
-0.046677
21
0.291973
0
LINE
8
BLACK
6
CONTINUOUS
10
-0.046677
20
0.291973
11
-0.0472652
21
0.292813
0
LINE
8
BLACK
6
CONTINUOUS
10
-0.0472652
20
0.292813
11
-0.0472806
21
0.292989
0
LINE
8
BLACK
6
CONTINUOUS
10
-0.0472806
20
0.292989
11
-0.0473903
21
0.293127
0
LINE
8
BLACK
6
CONTINUOUS
10
-0.0473903
20
0.293127
11
-0.049265
21
0.298751
0
LINE
8
BLACK
6
CONTINUOUS
10
-0.049265
20
0.298751
11
-0.0493945
21
0.299624
0
LINE
8
BLACK
6
CONTINUOUS
10
-0.0493945
20
0.299624
11
-0.0494166
21
0.299685
0
LINE
8
BLACK
6
CONTINUOUS
10
-0.0494166
20
0.299685
11
-0.0494166
21
0.309059
0
LINE
8
BLACK
6
CONTINUOUS
10
-0.0494166
20
0.309059
11
-0.049349
21
0.309442
0
LINE
8
BLACK
6
CONTINUOUS
10
-0.049349
20
0.309442
11
-0.0493717
21
0.309572
0
LINE
8
BLACK
6
CONTINUOUS
10
-0.0493717
20
0.309572
11
-0.0493061
21
0.309685
0
LINE
8
BLACK
6
CONTINUOUS
10
-0.0493061
20
0.309685
11
-0.0492385
21
0.310069
0
LINE
8
BLACK
6
CONTINUOUS
10
-0.0492385
20
0.310069
11
-0.0487454
21
0.310656
0
LINE
8
BLACK
6
CONTINUOUS
10
-0.0487454
20
0.310656
11
-0.0483618
21
0.311321
0
LINE
8
BLACK
6
CONTINUOUS
10
-0.0483618
20
0.311321
11
-0.0481115
21
0.311412
0
LINE
8
BLACK
6
CONTINUOUS
10
-0.0481115
20
0.311412
11
-0.0479402
21
0.311616
0
LINE
8
BLACK
6
CONTINUOUS
10
-0.0479402
20
0.311616
11
-0.0471846
21
0.311749
0
LINE
8
BLACK
6
CONTINUOUS
10
-0.0471846
20
0.311749
11
-0.0464638
21
0.312012
0
LINE
8
BLACK
6
CONTINUOUS
10
-0.0464638
20
0.312012
11
-0.00709374
21
0.312012
0
LINE
8
BLACK
6
CONTINUOUS
10
-0.00709374
20
0.312012
11
-0.00671024
21
0.311944
0
LINE
8
BLACK
6
CONTINUOUS
10
-0.0435111
20
0.300164
11
-0.0420083
21
0.295656
0
LINE
8
BLACK
6
CONTINUOUS
10
-0.0420083
20
0.295656
11
-0.0390904
21
0.292738
0
LINE
8
BLACK
6
CONTINUOUS
10
-0.0390904
20
0.292738
11
-0.0360594
21
0.291222
0
LINE
8
BLACK
6
CONTINUOUS
10
-0.0360594
20
0.291222
11
-0.0292274
21
0.289514
0
LINE
8
BLACK
6
CONTINUOUS
10
-0.0292274
20
0.289514
11
-0.0243302
21
0.289514
0
LINE
8
BLACK
6
CONTINUOUS
10
-0.0243302
20
0.289514
11
-0.0174981
21
0.291222
0
LINE
8
BLACK
6
CONTINUOUS
10
-0.0174981
20
0.291222
11
-0.0144672
21
0.292738
0
LINE
8
BLACK
6
CONTINUOUS
10
-0.0144672
20
0.292738
11
-0.0115493
21
0.295656
0
LINE
8
BLACK
6
CONTINUOUS
10
-0.0115493
20
0.295656
11
-0.0100465
21
0.300164
0
LINE
8
BLACK
6
CONTINUOUS
10
-0.0100465
20
0.300164
11
-0.0100465
21
0.306106
0
LINE
8
BLACK
6
CONTINUOUS
10
-0.0100465
20
0.306106
11
-0.0435111
21
0.306106
0
LINE
8
BLACK
6
CONTINUOUS
10
-0.0435111
20
0.306106
11
-0.0435111
21
0.300164
0
LINE
8
BLACK
6
CONTINUOUS
10
0.922262
20
0.386898
11
0.922953
21
0.385
0
LINE
8
BLACK
6
CONTINUOUS
10
0.922953
20
0.385
11
0.922953
21
0.325
0
LINE
8
BLACK
6
CONTINUOUS
10
0.922953
20
0.325
11
0.922775
21
0.32399
0
LINE
8
BLACK
6
CONTINUOUS
10
0.922775
20
0.32399
11
0.921476
21
0.322443
0
LINE
8
BLACK
6
CONTINUOUS
10
0.921476
20
0.322443
11
0.919487
21
0.322092
0
LINE
8
BLACK
6
CONTINUOUS
10
0.919487
20
0.322092
11
0.917738
21
0.323102
0
LINE
8
BLACK
6
CONTINUOUS
10
0.917738
20
0.323102
11
0.917047
21
0.325
0
LINE
8
BLACK
6
CONTINUOUS
10
0.917047
20
0.325
11
0.917047
21
0.385
0
LINE
8
BLACK
6
CONTINUOUS
10
0.917047
20
0.385
11
0.917225
21
0.38601
0
LINE
8
BLACK
6
CONTINUOUS
10
0.917225
20
0.38601
11
0.918524
21
0.387557
0
LINE
8
BLACK
6
CONTINUOUS
10
0.918524
20
0.387557
11
0.920513
21
0.387908
0
LINE
8
BLACK
6
CONTINUOUS
10
0.920513
20
0.387908
11
0.922262
21
0.386898
0
LINE
8
BLACK
6
CONTINUOUS
10
1.04226
20
0.386898
11
1.04295
21
0.385
0
LINE
8
BLACK
6
CONTINUOUS
10
1.04295
20
0.385
11
1.04295
21
0.325
0
LINE
8
BLACK
6
CONTINUOUS
10
1.04295
20
0.325
11
1.04277
21
0.32399
0
LINE
8
BLACK
6
CONTINUOUS
10
1.04277
20
0.32399
11
1.04148
21
0.322443
0
LINE
8
BLACK
6
CONTINUOUS
10
1.04148
20
0.322443
11
1.03949
21
0.322092
0
LINE
8
BLACK
6
CONTINUOUS
10
1.03949
20
0.322092
11
1.03774
21
0.323102
0
LINE
8
BLACK
6
CONTINUOUS
10
1.03774
20
0.323102
11
1.03705
21
0.325
0
LINE
8
BLACK
6
CONTINUOUS
10
1.03705
20
0.325
11
1.03705
21
0.385
0
LINE
8
BLACK
6
CONTINUOUS
10
1.03705
20
0.385
11
1.03723
21
0.38601
0
LINE
8
BLACK
6
CONTINUOUS
10
1.03723
20
0.38601
11
1.03852
21
0.387557
0
LINE
8
BLACK
6
CONTINUOUS
10
1.03852
20
0.387557
11
1.04051
21
0.387908
0
LINE
8
BLACK
6
CONTINUOUS
10
1.04051
20
0.387908
11
1.04226
21
0.386898
0
LINE
8
BLACK
6
CONTINUOUS
10
0.99667
20
0.32667
11
0.997362
21
0.325
0
LINE
8
BLACK
6
CONTINUOUS
10
0.997362
20
0.325
11
0.99667
21
0.32333
0
LINE
8
BLACK
6
CONTINUOUS
10
0.99667
20
0.32333
11
0.995
21
0.322638
0
LINE
8
BLACK
6
CONTINUOUS
10
0.995
20
0.322638
11
0.965
21
0.322638
0
LINE
8
BLACK
6
CONTINUOUS
10
0.965
20
0.322638
11
0.96333
21
0.32333
0
LINE
8
BLACK
6
CONTINUOUS
10
0.96333
20
0.32333
11
0.962638
21
0.325
0
LINE
8
BLACK
6
CONTINUOUS
10
0.962638
20
0.325
11
0.96333
21
0.32667
0
LINE
8
BLACK
6
CONTINUOUS
10
0.96333
20
0.32667
11
0.965
21
0.327362
0
LINE
8
BLACK
6
CONTINUOUS
10
0.965
20
0.327362
11
0.995
21
0.327362
0
LINE
8
BLACK
6
CONTINUOUS
10
0.995
20
0.327362
11
0.99667
21
0.32667
0
LINE
8
BLACK
6
CONTINUOUS
10
0.693599
20
0.397143
11
0.694291
21
0.395472
0
LINE
8
BLACK
6
CONTINUOUS
10
0.694291
20
0.395472
11
0.694291
21
0.369291
0
LINE
8
BLACK
6
CONTINUOUS
10
0.694291
20
0.369291
11
0.720472
21
0.369291
0
LINE
8
BLACK
6
CONTINUOUS
10
0.720472
20
0.369291
11
0.722143
21
0.368599
0
LINE
8
BLACK
6
CONTINUOUS
10
0.722143
20
0.368599
11
0.722835
21
0.366929
0
LINE
8
BLACK
6
CONTINUOUS
10
0.722835
20
0.366929
11
0.722143
21
0.365259
0
LINE
8
BLACK
6
CONTINUOUS
10
0.722143
20
0.365259
11
0.720472
21
0.364567
0
LINE
8
BLACK
6
CONTINUOUS
10
0.720472
20
0.364567
11
0.691929
21
0.364567
0
LINE
8
BLACK
6
CONTINUOUS
10
0.691929
20
0.364567
11
0.690259
21
0.365259
0
LINE
8
BLACK
6
CONTINUOUS
10
0.690259
20
0.365259
11
0.689567
21
0.366929
0
LINE
8
BLACK
6
CONTINUOUS
10
0.689567
20
0.366929
11
0.689567
21
0.366929
0
LINE
8
BLACK
6
CONTINUOUS
10
0.689567
20
0.366929
11
0.689567
21
0.395472
0
LINE
8
BLACK
6
CONTINUOUS
10
0.689567
20
0.395472
11
0.690259
21
0.397143
0
LINE
8
BLACK
6
CONTINUOUS
10
0.690259
20
0.397143
11
0.691929
21
0.397835
0
LINE
8
BLACK
6
CONTINUOUS
10
0.691929
20
0.397835
11
0.693599
21
0.397143
0
LINE
8
BLACK
6
CONTINUOUS
10
0.859741
20
0.397143
11
0.860433
21
0.395472
0
LINE
8
BLACK
6
CONTINUOUS
10
0.860433
20
0.395472
11
0.860433
21
0.366929
0
LINE
8
BLACK
6
CONTINUOUS
10
0.860433
20
0.366929
11
0.859741
21
0.365259
0
LINE
8
BLACK
6
CONTINUOUS
10
0.859741
20
0.365259
11
0.858071
21
0.364567
0
LINE
8
BLACK
6
CONTINUOUS
10
0.858071
20
0.364567
11
0.856401
21
0.365259
0
LINE
8
BLACK
6
CONTINUOUS
10
0.856401
20
0.365259
11
0.855709
21
0.366929
0
LINE
8
BLACK
6
CONTINUOUS
10
0.855709
20
0.366929
11
0.855709
21
0.395472
0
LINE
8
BLACK
6
CONTINUOUS
10
0.855709
20
0.395472
11
0.856401
21
0.397143
0
LINE
8
BLACK
6
CONTINUOUS
10
0.856401
20
0.397143
11
0.858071
21
0.397835
0
LINE
8
BLACK
6
CONTINUOUS
10
0.858071
20
0.397835
11
0.859741
21
0.397143
0
LINE
8
BLACK
6
CONTINUOUS
10
-0.0939901
20
0.380275
11
-0.0924428
21
0.378976
0
LINE
8
BLACK
6
CONTINUOUS
10
-0.0924428
20
0.378976
11
-0.0920921
21
0.376987
0
LINE
8
BLACK
6
CONTINUOUS
10
-0.0920921
20
0.376987
11
-0.093102
21
0.375238
0
LINE
8
BLACK
6
CONTINUOUS
10
-0.093102
20
0.375238
11
-0.095
21
0.374547
0
LINE
8
BLACK
6
CONTINUOUS
10
-0.095
20
0.374547
11
-0.155
21
0.374547
0
LINE
8
BLACK
6
CONTINUOUS
10
-0.155
20
0.374547
11
-0.15601
21
0.374725
0
LINE
8
BLACK
6
CONTINUOUS
10
-0.15601
20
0.374725
11
-0.157557
21
0.376024
0
LINE
8
BLACK
6
CONTINUOUS
10
-0.157557
20
0.376024
11
-0.157908
21
0.378013
0
LINE
8
BLACK
6
CONTINUOUS
10
-0.157908
20
0.378013
11
-0.156898
21
0.379762
0
LINE
8
BLACK
6
CONTINUOUS
10
-0.156898
20
0.379762
11
-0.155
21
0.380453
0
LINE
8
BLACK
6
CONTINUOUS
10
-0.155
20
0.380453
11
-0.095
21
0.380453
0
LINE
8
BLACK
6
CONTINUOUS
10
-0.095
20
0.380453
11
-0.0939901
21
0.380275
0
LINE
8
BLACK
6
CONTINUOUS
10
0.00600992
20
0.380275
11
0.00755717
21
0.378976
0
LINE
8
BLACK
6
CONTINUOUS
10
0.00755717
20
0.378976
11
0.00790791
21
0.376987
0
LINE
8
BLACK
6
CONTINUOUS
10
0.00790791
20
0.376987
11
0.00689799
21
0.375238
0
LINE
8
BLACK
6
CONTINUOUS
10
0.00689799
20
0.375238
11
0.005
21
0.374547
0
LINE
8
BLACK
6
CONTINUOUS
10
0.005
20
0.374547
11
-0.055
21
0.374547
0
LINE
8
BLACK
6
CONTINUOUS
10
-0.055
20
0.374547
11
-0.0560099
21
0.374725
0
LINE
8
BLACK
6
CONTINUOUS
10
-0.0560099
20
0.374725
11
-0.0575572
21
0.376024
0
LINE
8
BLACK
6
CONTINUOUS
10
-0.0575572
20
0.376024
11
-0.0579079
21
0.378013
0
LINE
8
BLACK
6
CONTINUOUS
10
-0.0579079
20
0.378013
11
-0.056898
21
0.379762
0
LINE
8
BLACK
6
CONTINUOUS
10
-0.056898
20
0.379762
11
-0.055
21
0.380453
0
LINE
8
BLACK
6
CONTINUOUS
10
-0.055
20
0.380453
11
0.005
21
0.380453
0
LINE
8
BLACK
6
CONTINUOUS
10
0.005
20
0.380453
11
0.00600992
21
0.380275
0
LINE
8
BLACK
6
CONTINUOUS
10
0.194238
20
0.382775
11
0.195786
21
0.381476
0
LINE
8
BLACK
6
CONTINUOUS
10
0.195786
20
0.381476
11
0.196136
21
0.379487
0
LINE
8
BLACK
6
CONTINUOUS
10
0.196136
20
0.379487
11
0.195126
21
0.377738
0
LINE
8
BLACK
6
CONTINUOUS
10
0.195126
20
0.377738
11
0.193228
21
0.377047
0
LINE
8
BLACK
6
CONTINUOUS
10
0.193228
20
0.377047
11
0.103228
21
0.377047
0
LINE
8
BLACK
6
CONTINUOUS
10
0.103228
20
0.377047
11
0.102218
21
0.377225
0
LINE
8
BLACK
6
CONTINUOUS
10
0.102218
20
0.377225
11
0.100671
21
0.378524
0
LINE
8
BLACK
6
CONTINUOUS
10
0.100671
20
0.378524
11
0.10032
21
0.380513
0
LINE
8
BLACK
6
CONTINUOUS
10
0.10032
20
0.380513
11
0.10133
21
0.382262
0
LINE
8
BLACK
6
CONTINUOUS
10
0.10133
20
0.382262
11
0.103228
21
0.382953
0
LINE
8
BLACK
6
CONTINUOUS
10
0.103228
20
0.382953
11
0.193228
21
0.382953
0
LINE
8
BLACK
6
CONTINUOUS
10
0.193228
20
0.382953
11
0.194238
21
0.382775
0
LINE
8
BLACK
6
CONTINUOUS
10
0.99667
20
0.38667
11
0.997362
21
0.385
0
LINE
8
BLACK
6
CONTINUOUS
10
0.997362
20
0.385
11
0.99667
21
0.38333
0
LINE
8
BLACK
6
CONTINUOUS
10
0.99667
20
0.38333
11
0.995
21
0.382638
0
LINE
8
BLACK
6
CONTINUOUS
10
0.995
20
0.382638
11
0.965
21
0.382638
0
LINE
8
BLACK
6
CONTINUOUS
10
0.965
20
0.382638
11
0.96333
21
0.38333
0
LINE
8
BLACK
6
CONTINUOUS
10
0.96333
20
0.38333
11
0.962638
21
0.385
0
LINE
8
BLACK
6
CONTINUOUS
10
0.962638
20
0.385
11
0.96333
21
0.38667
0
LINE
8
BLACK
6
CONTINUOUS
10
0.96333
20
0.38667
11
0.965
21
0.387362
0
LINE
8
BLACK
6
CONTINUOUS
10
0.965
20
0.387362
11
0.995
21
0.387362
0
LINE
8
BLACK
6
CONTINUOUS
10
0.995
20
0.387362
11
0.99667
21
0.38667
0
LINE
8
BLACK
6
CONTINUOUS
10
0.923457
20
0.445341
11
0.923592
21
0.445353
0
LINE
8
BLACK
6
CONTINUOUS
10
0.923592
20
0.445353
11
0.92432
21
0.444843
0
LINE
8
BLACK
6
CONTINUOUS
10
0.92432
20
0.444843
11
0.925089
21
0.444399
0
LINE
8
BLACK
6
CONTINUOUS
10
0.925089
20
0.444399
11
0.925136
21
0.444272
0
LINE
8
BLACK
6
CONTINUOUS
10
0.925136
20
0.444272
11
0.925246
21
0.444195
0
LINE
8
BLACK
6
CONTINUOUS
10
0.925246
20
0.444195
11
0.925476
21
0.443336
0
LINE
8
BLACK
6
CONTINUOUS
10
0.925476
20
0.443336
11
0.92578
21
0.442501
0
LINE
8
BLACK
6
CONTINUOUS
10
0.92578
20
0.442501
11
0.92578
21
0.418129
0
LINE
8
BLACK
6
CONTINUOUS
10
0.92578
20
0.418129
11
0.925602
21
0.417119
0
LINE
8
BLACK
6
CONTINUOUS
10
0.925602
20
0.417119
11
0.924304
21
0.415572
0
LINE
8
BLACK
6
CONTINUOUS
10
0.924304
20
0.415572
11
0.922315
21
0.415221
0
LINE
8
BLACK
6
CONTINUOUS
10
0.922315
20
0.415221
11
0.920566
21
0.416231
0
LINE
8
BLACK
6
CONTINUOUS
10
0.920566
20
0.416231
11
0.919875
21
0.418129
0
LINE
8
BLACK
6
CONTINUOUS
10
0.919875
20
0.418129
11
0.919875
21
0.435372
0
LINE
8
BLACK
6
CONTINUOUS
10
0.919875
20
0.435372
11
0.902418
21
0.417916
0
LINE
8
BLACK
6
CONTINUOUS
10
0.902418
20
0.417916
11
0.901578
21
0.417328
0
LINE
8
BLACK
6
CONTINUOUS
10
0.901578
20
0.417328
11
0.901402
21
0.417312
0
LINE
8
BLACK
6
CONTINUOUS
10
0.901402
20
0.417312
11
0.901264
21
0.417203
0
LINE
8
BLACK
6
CONTINUOUS
10
0.901264
20
0.417203
11
0.89564
21
0.415328
0
LINE
8
BLACK
6
CONTINUOUS
10
0.89564
20
0.415328
11
0.894767
21
0.415198
0
LINE
8
BLACK
6
CONTINUOUS
10
0.894767
20
0.415198
11
0.894706
21
0.415176
0
LINE
8
BLACK
6
CONTINUOUS
10
0.894706
20
0.415176
11
0.890956
21
0.415176
0
LINE
8
BLACK
6
CONTINUOUS
10
0.890956
20
0.415176
11
0.889947
21
0.415354
0
LINE
8
BLACK
6
CONTINUOUS
10
0.889947
20
0.415354
11
0.889811
21
0.415468
0
LINE
8
BLACK
6
CONTINUOUS
10
0.889811
20
0.415468
11
0.889636
21
0.415488
0
LINE
8
BLACK
6
CONTINUOUS
10
0.889636
20
0.415488
11
0.885886
21
0.417363
0
LINE
8
BLACK
6
CONTINUOUS
10
0.885886
20
0.417363
11
0.885177
21
0.417889
0
LINE
8
BLACK
6
CONTINUOUS
10
0.885177
20
0.417889
11
0.885119
21
0.417916
0
LINE
8
BLACK
6
CONTINUOUS
10
0.885119
20
0.417916
11
0.883244
21
0.419791
0
LINE
8
BLACK
6
CONTINUOUS
10
0.883244
20
0.419791
11
0.882738
21
0.420514
0
LINE
8
BLACK
6
CONTINUOUS
10
0.882738
20
0.420514
11
0.882691
21
0.420558
0
LINE
8
BLACK
6
CONTINUOUS
10
0.882691
20
0.420558
11
0.880816
21
0.424308
0
LINE
8
BLACK
6
CONTINUOUS
10
0.880816
20
0.424308
11
0.880524
21
0.425291
0
LINE
8
BLACK
6
CONTINUOUS
10
0.880524
20
0.425291
11
0.880565
21
0.425462
0
LINE
8
BLACK
6
CONTINUOUS
10
0.880565
20
0.425462
11
0.880505
21
0.425628
0
LINE
8
BLACK
6
CONTINUOUS
10
0.880505
20
0.425628
11
0.880505
21
0.435002
0
LINE
8
BLACK
6
CONTINUOUS
10
0.880505
20
0.435002
11
0.880683
21
0.436012
0
LINE
8
BLACK
6
CONTINUOUS
10
0.880683
20
0.436012
11
0.880796
21
0.436147
0
LINE
8
BLACK
6
CONTINUOUS
10
0.880796
20
0.436147
11
0.880816
21
0.436322
0
LINE
8
BLACK
6
CONTINUOUS
10
0.880816
20
0.436322
11
0.882691
21
0.440072
0
LINE
8
BLACK
6
CONTINUOUS
10
0.882691
20
0.440072
11
0.883217
21
0.440781
0
LINE
8
BLACK
6
CONTINUOUS
10
0.883217
20
0.440781
11
0.883244
21
0.440839
0
LINE
8
BLACK
6
CONTINUOUS
10
0.883244
20
0.440839
11
0.885119
21
0.442714
0
LINE
8
BLACK
6
CONTINUOUS
10
0.885119
20
0.442714
11
0.885959
21
0.443302
0
LINE
8
BLACK
6
CONTINUOUS
10
0.885959
20
0.443302
11
0.887971
21
0.443478
0
LINE
8
BLACK
6
CONTINUOUS
10
0.887971
20
0.443478
11
0.889626
21
0.44232
0
LINE
8
BLACK
6
CONTINUOUS
10
0.889626
20
0.44232
11
0.890148
21
0.440369
0
LINE
8
BLACK
6
CONTINUOUS
10
0.890148
20
0.440369
11
0.889295
21
0.438538
0
LINE
8
BLACK
6
CONTINUOUS
10
0.889295
20
0.438538
11
0.887759
21
0.437002
0
LINE
8
BLACK
6
CONTINUOUS
10
0.887759
20
0.437002
11
0.88641
21
0.434305
0
LINE
8
BLACK
6
CONTINUOUS
10
0.88641
20
0.434305
11
0.88641
21
0.426325
0
LINE
8
BLACK
6
CONTINUOUS
10
0.88641
20
0.426325
11
0.887759
21
0.423628
0
LINE
8
BLACK
6
CONTINUOUS
10
0.887759
20
0.423628
11
0.888956
21
0.422431
0
LINE
8
BLACK
6
CONTINUOUS
10
0.888956
20
0.422431
11
0.891654
21
0.421082
0
LINE
8
BLACK
6
CONTINUOUS
10
0.891654
20
0.421082
11
0.894227
21
0.421082
0
LINE
8
BLACK
6
CONTINUOUS
10
0.894227
20
0.421082
11
0.898735
21
0.422585
0
LINE
8
BLACK
6
CONTINUOUS
10
0.898735
20
0.422585
11
0.92074
21
0.444589
0
LINE
8
BLACK
6
CONTINUOUS
10
0.92074
20
0.444589
11
0.921268
21
0.444959
0
LINE
8
BLACK
6
CONTINUOUS
10
0.921268
20
0.444959
11
0.921351
21
0.445058
0
LINE
8
BLACK
6
CONTINUOUS
10
0.921351
20
0.445058
11
0.921429
21
0.445072
0
LINE
8
BLACK
6
CONTINUOUS
10
0.921429
20
0.445072
11
0.92158
21
0.445177
0
LINE
8
BLACK
6
CONTINUOUS
10
0.92158
20
0.445177
11
0.922465
21
0.445255
0
LINE
8
BLACK
6
CONTINUOUS
10
0.922465
20
0.445255
11
0.92334
21
0.445409
0
LINE
8
BLACK
6
CONTINUOUS
10
0.92334
20
0.445409
11
0.923457
21
0.445341
0
LINE
8
BLACK
6
CONTINUOUS
10
-0.15333
20
0.45417
11
-0.152638
21
0.4525
0
LINE
8
BLACK
6
CONTINUOUS
10
-0.152638
20
0.4525
11
-0.152638
21
0.4225
0
LINE
8
BLACK
6
CONTINUOUS
10
-0.152638
20
0.4225
11
-0.15333
21
0.42083
0
LINE
8
BLACK
6
CONTINUOUS
10
-0.15333
20
0.42083
11
-0.155
21
0.420138
0
LINE
8
BLACK
6
CONTINUOUS
10
-0.155
20
0.420138
11
-0.15667
21
0.42083
0
LINE
8
BLACK
6
CONTINUOUS
10
-0.15667
20
0.42083
11
-0.157362
21
0.4225
0
LINE
8
BLACK
6
CONTINUOUS
10
-0.157362
20
0.4225
11
-0.157362
21
0.4525
0
LINE
8
BLACK
6
CONTINUOUS
10
-0.157362
20
0.4525
11
-0.15667
21
0.45417
0
LINE
8
BLACK
6
CONTINUOUS
10
-0.15667
20
0.45417
11
-0.155
21
0.454862
0
LINE
8
BLACK
6
CONTINUOUS
10
-0.155
20
0.454862
11
-0.15333
21
0.45417
0
LINE
8
BLACK
6
CONTINUOUS
10
-0.0933297
20
0.45417
11
-0.0926378
21
0.4525
0
LINE
8
BLACK
6
CONTINUOUS
10
-0.0926378
20
0.4525
11
-0.0926378
21
0.4225
0
LINE
8
BLACK
6
CONTINUOUS
10
-0.0926378
20
0.4225
11
-0.0933297
21
0.42083
0
LINE
8
BLACK
6
CONTINUOUS
10
-0.0933297
20
0.42083
11
-0.095
21
0.420138
0
LINE
8
BLACK
6
CONTINUOUS
10
-0.095
20
0.420138
11
-0.0966703
21
0.42083
0
LINE
8
BLACK
6
CONTINUOUS
10
-0.0966703
20
0.42083
11
-0.0973622
21
0.4225
0
LINE
8
BLACK
6
CONTINUOUS
10
-0.0973622
20
0.4225
11
-0.0973622
21
0.4525
0
LINE
8
BLACK
6
CONTINUOUS
10
-0.0973622
20
0.4525
11
-0.0966703
21
0.45417
0
LINE
8
BLACK
6
CONTINUOUS
10
-0.0966703
20
0.45417
11
-0.095
21
0.454862
0
LINE
8
BLACK
6
CONTINUOUS
10
-0.095
20
0.454862
11
-0.0933297
21
0.45417
0
LINE
8
BLACK
6
CONTINUOUS
10
-0.0533297
20
0.45417
11
-0.0526378
21
0.4525
0
LINE
8
BLACK
6
CONTINUOUS
10
-0.0526378
20
0.4525
11
-0.0526378
21
0.4225
0
LINE
8
BLACK
6
CONTINUOUS
10
-0.0526378
20
0.4225
11
-0.0533297
21
0.42083
0
LINE
8
BLACK
6
CONTINUOUS
10
-0.0533297
20
0.42083
11
-0.055
21
0.420138
0
LINE
8
BLACK
6
CONTINUOUS
10
-0.055
20
0.420138
11
-0.0566703
21
0.42083
0
LINE
8
BLACK
6
CONTINUOUS
10
-0.0566703
20
0.42083
11
-0.0573622
21
0.4225
0
LINE
8
BLACK
6
CONTINUOUS
10
-0.0573622
20
0.4225
11
-0.0573622
21
0.4525
0
LINE
8
BLACK
6
CONTINUOUS
10
-0.0573622
20
0.4525
11
-0.0566703
21
0.45417
0
LINE
8
BLACK
6
CONTINUOUS
10
-0.0566703
20
0.45417
11
-0.055
21
0.454862
0
LINE
8
BLACK
6
CONTINUOUS
10
-0.055
20
0.454862
11
-0.0533297
21
0.45417
0
LINE
8
BLACK
6
CONTINUOUS
10
0.00667031
20
0.45417
11
0.0073622
21
0.4525
0
LINE
8
BLACK
6
CONTINUOUS
10
0.0073622
20
0.4525
11
0.0073622
21
0.4225
0
LINE
8
BLACK
6
CONTINUOUS
10
0.0073622
20
0.4225
11
0.00667031
21
0.42083
0
LINE
8
BLACK
6
CONTINUOUS
10
0.00667031
20
0.42083
11
0.005
21
0.420138
0
LINE
8
BLACK
6
CONTINUOUS
10
0.005
20
0.420138
11
0.00332969
21
0.42083
0
LINE
8
BLACK
6
CONTINUOUS
10
0.00332969
20
0.42083
11
0.0026378
21
0.4225
0
LINE
8
BLACK
6
CONTINUOUS
10
0.0026378
20
0.4225
11
0.0026378
21
0.4525
0
LINE
8
BLACK
6
CONTINUOUS
10
0.0026378
20
0.4525
11
0.00332969
21
0.45417
0
LINE
8
BLACK
6
CONTINUOUS
10
0.00332969
20
0.45417
11
0.005
21
0.454862
0
LINE
8
BLACK
6
CONTINUOUS
10
0.005
20
0.454862
11
0.00667031
21
0.45417
0
LINE
8
BLACK
6
CONTINUOUS
10
0.916338
20
0.482771
11
0.916474
21
0.482657
0
LINE
8
BLACK
6
CONTINUOUS
10
0.916474
20
0.482657
11
0.916649
21
0.482637
0
LINE
8
BLACK
6
CONTINUOUS
10
0.916649
20
0.482637
11
0.920398
21
0.480763
0
LINE
8
BLACK
6
CONTINUOUS
10
0.920398
20
0.480763
11
0.921107
21
0.480237
0
LINE
8
BLACK
6
CONTINUOUS
10
0.921107
20
0.480237
11
0.921166
21
0.480209
0
LINE
8
BLACK
6
CONTINUOUS
10
0.921166
20
0.480209
11
0.923041
21
0.478335
0
LINE
8
BLACK
6
CONTINUOUS
10
0.923041
20
0.478335
11
0.923547
21
0.477612
0
LINE
8
BLACK
6
CONTINUOUS
10
0.923547
20
0.477612
11
0.923594
21
0.477567
0
LINE
8
BLACK
6
CONTINUOUS
10
0.923594
20
0.477567
11
0.925469
21
0.473818
0
LINE
8
BLACK
6
CONTINUOUS
10
0.925469
20
0.473818
11
0.925761
21
0.472835
0
LINE
8
BLACK
6
CONTINUOUS
10
0.925761
20
0.472835
11
0.92572
21
0.472663
0
LINE
8
BLACK
6
CONTINUOUS
10
0.92572
20
0.472663
11
0.92578
21
0.472497
0
LINE
8
BLACK
6
CONTINUOUS
10
0.92578
20
0.472497
11
0.92578
21
0.464998
0
LINE
8
BLACK
6
CONTINUOUS
10
0.92578
20
0.464998
11
0.925602
21
0.463988
0
LINE
8
BLACK
6
CONTINUOUS
10
0.925602
20
0.463988
11
0.925489
21
0.463853
0
LINE
8
BLACK
6
CONTINUOUS
10
0.925489
20
0.463853
11
0.925469
21
0.463678
0
LINE
8
BLACK
6
CONTINUOUS
10
0.925469
20
0.463678
11
0.923594
21
0.459928
0
LINE
8
BLACK
6
CONTINUOUS
10
0.923594
20
0.459928
11
0.923068
21
0.459219
0
LINE
8
BLACK
6
CONTINUOUS
10
0.923068
20
0.459219
11
0.923041
21
0.459161
0
LINE
8
BLACK
6
CONTINUOUS
10
0.923041
20
0.459161
11
0.921166
21
0.457286
0
LINE
8
BLACK
6
CONTINUOUS
10
0.921166
20
0.457286
11
0.920443
21
0.45678
0
LINE
8
BLACK
6
CONTINUOUS
10
0.920443
20
0.45678
11
0.920398
21
0.456733
0
LINE
8
BLACK
6
CONTINUOUS
10
0.920398
20
0.456733
11
0.916649
21
0.454858
0
LINE
8
BLACK
6
CONTINUOUS
10
0.916649
20
0.454858
11
0.915666
21
0.454566
0
LINE
8
BLACK
6
CONTINUOUS
10
0.915666
20
0.454566
11
0.915494
21
0.454607
0
LINE
8
BLACK
6
CONTINUOUS
10
0.915494
20
0.454607
11
0.915328
21
0.454546
0
LINE
8
BLACK
6
CONTINUOUS
10
0.915328
20
0.454546
11
0.883457
21
0.454546
0
LINE
8
BLACK
6
CONTINUOUS
10
0.883457
20
0.454546
11
0.882448
21
0.454724
0
LINE
8
BLACK
6
CONTINUOUS
10
0.882448
20
0.454724
11
0.8809
21
0.456023
0
LINE
8
BLACK
6
CONTINUOUS
10
0.8809
20
0.456023
11
0.88055
21
0.458012
0
LINE
8
BLACK
6
CONTINUOUS
10
0.88055
20
0.458012
11
0.881559
21
0.459761
0
LINE
8
BLACK
6
CONTINUOUS
10
0.881559
20
0.459761
11
0.883457
21
0.460452
0
LINE
8
BLACK
6
CONTINUOUS
10
0.883457
20
0.460452
11
0.914631
21
0.460452
0
LINE
8
BLACK
6
CONTINUOUS
10
0.914631
20
0.460452
11
0.917329
21
0.461801
0
LINE
8
BLACK
6
CONTINUOUS
10
0.917329
20
0.461801
11
0.918526
21
0.462998
0
LINE
8
BLACK
6
CONTINUOUS
10
0.918526
20
0.462998
11
0.919875
21
0.465695
0
LINE
8
BLACK
6
CONTINUOUS
10
0.919875
20
0.465695
11
0.919875
21
0.4718
0
LINE
8
BLACK
6
CONTINUOUS
10
0.919875
20
0.4718
11
0.918526
21
0.474498
0
LINE
8
BLACK
6
CONTINUOUS
10
0.918526
20
0.474498
11
0.917329
21
0.475695
0
LINE
8
BLACK
6
CONTINUOUS
10
0.917329
20
0.475695
11
0.914631
21
0.477044
0
LINE
8
BLACK
6
CONTINUOUS
10
0.914631
20
0.477044
11
0.883457
21
0.477044
0
LINE
8
BLACK
6
CONTINUOUS
10
0.883457
20
0.477044
11
0.882448
21
0.477222
0
LINE
8
BLACK
6
CONTINUOUS
10
0.882448
20
0.477222
11
0.8809
21
0.47852
0
LINE
8
BLACK
6
CONTINUOUS
10
0.8809
20
0.47852
11
0.88055
21
0.480509
0
LINE
8
BLACK
6
CONTINUOUS
10
0.88055
20
0.480509
11
0.881559
21
0.482258
0
LINE
8
BLACK
6
CONTINUOUS
10
0.881559
20
0.482258
11
0.883457
21
0.482949
0
LINE
8
BLACK
6
CONTINUOUS
10
0.883457
20
0.482949
11
0.915328
21
0.482949
0
LINE
8
BLACK
6
CONTINUOUS
10
0.915328
20
0.482949
11
0.916338
21
0.482771
0
LINE
8
BLACK
6
CONTINUOUS
10
-0.0939901
20
0.500275
11
-0.0924428
21
0.498976
0
LINE
8
BLACK
6
CONTINUOUS
10
-0.0924428
20
0.498976
11
-0.0920921
21
0.496987
0
LINE
8
BLACK
6
CONTINUOUS
10
-0.0920921
20
0.496987
11
-0.093102
21
0.495238
0
LINE
8
BLACK
6
CONTINUOUS
10
-0.093102
20
0.495238
11
-0.095
21
0.494547
0
LINE
8
BLACK
6
CONTINUOUS
10
-0.095
20
0.494547
11
-0.155
21
0.494547
0
LINE
8
BLACK
6
CONTINUOUS
10
-0.155
20
0.494547
11
-0.15601
21
0.494725
0
LINE
8
BLACK
6
CONTINUOUS
10
-0.15601
20
0.494725
11
-0.157557
21
0.496024
0
LINE
8
BLACK
6
CONTINUOUS
10
-0.157557
20
0.496024
11
-0.157908
21
0.498013
0
LINE
8
BLACK
6
CONTINUOUS
10
-0.157908
20
0.498013
11
-0.156898
21
0.499762
0
LINE
8
BLACK
6
CONTINUOUS
10
-0.156898
20
0.499762
11
-0.155
21
0.500453
0
LINE
8
BLACK
6
CONTINUOUS
10
-0.155
20
0.500453
11
-0.095
21
0.500453
0
LINE
8
BLACK
6
CONTINUOUS
10
-0.095
20
0.500453
11
-0.0939901
21
0.500275
0
LINE
8
BLACK
6
CONTINUOUS
10
0.00600992
20
0.500275
11
0.00755717
21
0.498976
0
LINE
8
BLACK
6
CONTINUOUS
10
0.00755717
20
0.498976
11
0.00790791
21
0.496987
0
LINE
8
BLACK
6
CONTINUOUS
10
0.00790791
20
0.496987
11
0.00689799
21
0.495238
0
LINE
8
BLACK
6
CONTINUOUS
10
0.00689799
20
0.495238
11
0.005
21
0.494547
0
LINE
8
BLACK
6
CONTINUOUS
10
0.005
20
0.494547
11
-0.055
21
0.494547
0
LINE
8
BLACK
6
CONTINUOUS
10
-0.055
20
0.494547
11
-0.0560099
21
0.494725
0
LINE
8
BLACK
6
CONTINUOUS
10
-0.0560099
20
0.494725
11
-0.0575572
21
0.496024
0
LINE
8
BLACK
6
CONTINUOUS
10
-0.0575572
20
0.496024
11
-0.0579079
21
0.498013
0
LINE
8
BLACK
6
CONTINUOUS
10
-0.0579079
20
0.498013
11
-0.056898
21
0.499762
0
LINE
8
BLACK
6
CONTINUOUS
10
-0.056898
20
0.499762
11
-0.055
21
0.500453
0
LINE
8
BLACK
6
CONTINUOUS
10
-0.055
20
0.500453
11
0.005
21
0.500453
0
LINE
8
BLACK
6
CONTINUOUS
10
0.005
20
0.500453
11
0.00600992
21
0.500275
0
LINE
8
BLACK
6
CONTINUOUS
10
0.722143
20
0.534741
11
0.722835
21
0.533071
0
LINE
8
BLACK
6
CONTINUOUS
10
0.722835
20
0.533071
11
0.722143
21
0.531401
0
LINE
8
BLACK
6
CONTINUOUS
10
0.722143
20
0.531401
11
0.720472
21
0.530709
0
LINE
8
BLACK
6
CONTINUOUS
10
0.720472
20
0.530709
11
0.694291
21
0.530709
0
LINE
8
BLACK
6
CONTINUOUS
10
0.694291
20
0.530709
11
0.694291
21
0.504528
0
LINE
8
BLACK
6
CONTINUOUS
10
0.694291
20
0.504528
11
0.693599
21
0.502857
0
LINE
8
BLACK
6
CONTINUOUS
10
0.693599
20
0.502857
11
0.691929
21
0.502165
0
LINE
8
BLACK
6
CONTINUOUS
10
0.691929
20
0.502165
11
0.690259
21
0.502857
0
LINE
8
BLACK
6
CONTINUOUS
10
0.690259
20
0.502857
11
0.689567
21
0.504528
0
LINE
8
BLACK
6
CONTINUOUS
10
0.689567
20
0.504528
11
0.689567
21
0.533071
0
LINE
8
BLACK
6
CONTINUOUS
10
0.689567
20
0.533071
11
0.690259
21
0.534741
0
LINE
8
BLACK
6
CONTINUOUS
10
0.690259
20
0.534741
11
0.691929
21
0.535433
0
LINE
8
BLACK
6
CONTINUOUS
10
0.691929
20
0.535433
11
0.720472
21
0.535433
0
LINE
8
BLACK
6
CONTINUOUS
10
0.720472
20
0.535433
11
0.722143
21
0.534741
0
LINE
8
BLACK
6
CONTINUOUS
10
0.858071
20
0.535433
11
0.859741
21
0.534741
0
LINE
8
BLACK
6
CONTINUOUS
10
0.859741
20
0.534741
11
0.860433
21
0.533071
0
LINE
8
BLACK
6
CONTINUOUS
10
0.860433
20
0.533071
11
0.860433
21
0.504528
0
LINE
8
BLACK
6
CONTINUOUS
10
0.860433
20
0.504528
11
0.859741
21
0.502857
0
LINE
8
BLACK
6
CONTINUOUS
10
0.859741
20
0.502857
11
0.858071
21
0.502165
0
LINE
8
BLACK
6
CONTINUOUS
10
0.858071
20
0.502165
11
0.856401
21
0.502857
0
LINE
8
BLACK
6
CONTINUOUS
10
0.856401
20
0.502857
11
0.855709
21
0.504528
0
LINE
8
BLACK
6
CONTINUOUS
10
0.855709
20
0.504528
11
0.855709
21
0.530709
0
LINE
8
BLACK
6
CONTINUOUS
10
0.855709
20
0.530709
11
0.829528
21
0.530709
0
LINE
8
BLACK
6
CONTINUOUS
10
0.829528
20
0.530709
11
0.827857
21
0.531401
0
LINE
8
BLACK
6
CONTINUOUS
10
0.827857
20
0.531401
11
0.827165
21
0.533071
0
LINE
8
BLACK
6
CONTINUOUS
10
0.827165
20
0.533071
11
0.827857
21
0.534741
0
LINE
8
BLACK
6
CONTINUOUS
10
0.827857
20
0.534741
11
0.829528
21
0.535433
0
LINE
8
BLACK
6
CONTINUOUS
10
0.829528
20
0.535433
11
0.858071
21
0.535433
0
LINE
8
BLACK
6
CONTINUOUS
10
0.455217
20
0.515945
11
0.486713
21
0.515945
0
LINE
8
BLACK
6
CONTINUOUS
10
0.486713
20
0.515945
11
0.488383
21
0.515253
0
LINE
8
BLACK
6
CONTINUOUS
10
0.488383
20
0.515253
11
0.489075
21
0.513583
0
LINE
8
BLACK
6
CONTINUOUS
10
0.489075
20
0.513583
11
0.488383
21
0.511912
0
LINE
8
BLACK
6
CONTINUOUS
10
0.488383
20
0.511912
11
0.486713
21
0.51122
0
LINE
8
BLACK
6
CONTINUOUS
10
0.486713
20
0.51122
11
0.455217
21
0.51122
0
LINE
8
BLACK
6
CONTINUOUS
10
0.455217
20
0.51122
11
0.42372
21
0.51122
0
LINE
8
BLACK
6
CONTINUOUS
10
0.42372
20
0.51122
11
0.42205
21
0.511912
0
LINE
8
BLACK
6
CONTINUOUS
10
0.42205
20
0.511912
11
0.421358
21
0.513583
0
LINE
8
BLACK
6
CONTINUOUS
10
0.421358
20
0.513583
11
0.42205
21
0.515253
0
LINE
8
BLACK
6
CONTINUOUS
10
0.42205
20
0.515253
11
0.42372
21
0.515945
0
LINE
8
BLACK
6
CONTINUOUS
10
0.42372
20
0.515945
11
0.455217
21
0.515945
0
LINE
8
BLACK
6
CONTINUOUS
10
0.194238
20
0.522775
11
0.195786
21
0.521476
0
LINE
8
BLACK
6
CONTINUOUS
10
0.195786
20
0.521476
11
0.196136
21
0.519487
0
LINE
8
BLACK
6
CONTINUOUS
10
0.196136
20
0.519487
11
0.195126
21
0.517738
0
LINE
8
BLACK
6
CONTINUOUS
10
0.195126
20
0.517738
11
0.193228
21
0.517047
0
LINE
8
BLACK
6
CONTINUOUS
10
0.193228
20
0.517047
11
0.103228
21
0.517047
0
LINE
8
BLACK
6
CONTINUOUS
10
0.103228
20
0.517047
11
0.102218
21
0.517225
0
LINE
8
BLACK
6
CONTINUOUS
10
0.102218
20
0.517225
11
0.100671
21
0.518524
0
LINE
8
BLACK
6
CONTINUOUS
10
0.100671
20
0.518524
11
0.10032
21
0.520513
0
LINE
8
BLACK
6
CONTINUOUS
10
0.10032
20
0.520513
11
0.10133
21
0.522262
0
LINE
8
BLACK
6
CONTINUOUS
10
0.10133
20
0.522262
11
0.103228
21
0.522953
0
LINE
8
BLACK
6
CONTINUOUS
10
0.103228
20
0.522953
11
0.193228
21
0.522953
0
LINE
8
BLACK
6
CONTINUOUS
10
0.193228
20
0.522953
11
0.194238
21
0.522775
0
LINE
8
BLACK
6
CONTINUOUS
10
0.0506052
20
0.613513
11
0.051945
21
0.613245
0
LINE
8
BLACK
6
CONTINUOUS
10
0.051945
20
0.613245
11
0.052094
21
0.613114
0
LINE
8
BLACK
6
CONTINUOUS
10
0.052094
20
0.613114
11
0.0522857
21
0.613063
0
LINE
8
BLACK
6
CONTINUOUS
10
0.0522857
20
0.613063
11
0.0532518
21
0.612097
0
LINE
8
BLACK
6
CONTINUOUS
10
0.0532518
20
0.612097
11
0.054278
21
0.611195
0
LINE
8
BLACK
6
CONTINUOUS
10
0.054278
20
0.611195
11
0.0596626
21
0.603118
0
LINE
8
BLACK
6
CONTINUOUS
10
0.0596626
20
0.603118
11
0.0642683
21
0.598512
0
LINE
8
BLACK
6
CONTINUOUS
10
0.0642683
20
0.598512
11
0.0691119
21
0.596091
0
LINE
8
BLACK
6
CONTINUOUS
10
0.0691119
20
0.596091
11
0.0714356
21
0.59403
0
LINE
8
BLACK
6
CONTINUOUS
10
0.0714356
20
0.59403
11
0.0724178
21
0.591084
0
LINE
8
BLACK
6
CONTINUOUS
10
0.0724178
20
0.591084
11
0.0717951
21
0.588041
0
LINE
8
BLACK
6
CONTINUOUS
10
0.0717951
20
0.588041
11
0.0697344
21
0.585717
0
LINE
8
BLACK
6
CONTINUOUS
10
0.0697344
20
0.585717
11
0.066788
21
0.584735
0
LINE
8
BLACK
6
CONTINUOUS
10
0.066788
20
0.584735
11
0.0637452
21
0.585357
0
LINE
8
BLACK
6
CONTINUOUS
10
0.0637452
20
0.585357
11
0.0580309
21
0.588215
0
LINE
8
BLACK
6
CONTINUOUS
10
0.0580309
20
0.588215
11
0.0573081
21
0.588856
0
LINE
8
BLACK
6
CONTINUOUS
10
0.0573081
20
0.588856
11
0.0564716
21
0.589339
0
LINE
8
BLACK
6
CONTINUOUS
10
0.0564716
20
0.589339
11
0.0552857
21
0.590524
0
LINE
8
BLACK
6
CONTINUOUS
10
0.0552857
20
0.590524
11
0.0552857
21
0.553867
0
LINE
8
BLACK
6
CONTINUOUS
10
0.0552857
20
0.553867
11
0.0664285
21
0.553867
0
LINE
8
BLACK
6
CONTINUOUS
10
0.0664285
20
0.553867
11
0.0694285
21
0.553063
0
LINE
8
BLACK
6
CONTINUOUS
10
0.0694285
20
0.553063
11
0.0716247
21
0.550867
0
LINE
8
BLACK
6
CONTINUOUS
10
0.0716247
20
0.550867
11
0.0724285
21
0.547867
0
LINE
8
BLACK
6
CONTINUOUS
10
0.0724285
20
0.547867
11
0.0716247
21
0.544867
0
LINE
8
BLACK
6
CONTINUOUS
10
0.0716247
20
0.544867
11
0.0694285
21
0.542671
0
LINE
8
BLACK
6
CONTINUOUS
10
0.0694285
20
0.542671
11
0.0664285
21
0.541867
0
LINE
8
BLACK
6
CONTINUOUS
10
0.0664285
20
0.541867
11
0.0492857
21
0.541867
0
LINE
8
BLACK
6
CONTINUOUS
10
0.0492857
20
0.541867
11
0.0321428
21
0.541867
0
LINE
8
BLACK
6
CONTINUOUS
10
0.0321428
20
0.541867
11
0.0291428
21
0.542671
0
LINE
8
BLACK
6
CONTINUOUS
10
0.0291428
20
0.542671
11
0.0269467
21
0.544867
0
LINE
8
BLACK
6
CONTINUOUS
10
0.0269467
20
0.544867
11
0.0261428
21
0.547867
0
LINE
8
BLACK
6
CONTINUOUS
10
0.0261428
20
0.547867
11
0.0269467
21
0.550867
0
LINE
8
BLACK
6
CONTINUOUS
10
0.0269467
20
0.550867
11
0.0291428
21
0.553063
0
LINE
8
BLACK
6
CONTINUOUS
10
0.0291428
20
0.553063
11
0.0321428
21
0.553867
0
LINE
8
BLACK
6
CONTINUOUS
10
0.0321428
20
0.553867
11
0.0432857
21
0.553867
0
LINE
8
BLACK
6
CONTINUOUS
10
0.0432857
20
0.553867
11
0.0432857
21
0.607867
0
LINE
8
BLACK
6
CONTINUOUS
10
0.0432857
20
0.607867
11
0.0436393
21
0.609186
0
LINE
8
BLACK
6
CONTINUOUS
10
0.0436393
20
0.609186
11
0.0439072
21
0.610526
0
LINE
8
BLACK
6
CONTINUOUS
10
0.0439072
20
0.610526
11
0.0440381
21
0.610675
0
LINE
8
BLACK
6
CONTINUOUS
10
0.0440381
20
0.610675
11
0.0440895
21
0.610867
0
LINE
8
BLACK
6
CONTINUOUS
10
0.0440895
20
0.610867
11
0.0450557
21
0.611833
0
LINE
8
BLACK
6
CONTINUOUS
10
0.0450557
20
0.611833
11
0.0459575
21
0.612859
0
LINE
8
BLACK
6
CONTINUOUS
10
0.0459575
20
0.612859
11
0.0461454
21
0.612923
0
LINE
8
BLACK
6
CONTINUOUS
10
0.0461454
20
0.612923
11
0.0462857
21
0.613063
0
LINE
8
BLACK
6
CONTINUOUS
10
0.0462857
20
0.613063
11
0.0476054
21
0.613417
0
LINE
8
BLACK
6
CONTINUOUS
10
0.0476054
20
0.613417
11
0.0488995
21
0.613854
0
LINE
8
BLACK
6
CONTINUOUS
10
0.0488995
20
0.613854
11
0.049094
21
0.613816
0
LINE
8
BLACK
6
CONTINUOUS
10
0.049094
20
0.613816
11
0.0492857
21
0.613867
0
LINE
8
BLACK
6
CONTINUOUS
10
0.0492857
20
0.613867
11
0.0506052
21
0.613513
0
LINE
8
BLACK
6
CONTINUOUS
10
0.118
20
0.613063
11
0.120196
21
0.610867
0
LINE
8
BLACK
6
CONTINUOUS
10
0.120196
20
0.610867
11
0.121
21
0.607867
0
LINE
8
BLACK
6
CONTINUOUS
10
0.121
20
0.607867
11
0.121
21
0.547867
0
LINE
8
BLACK
6
CONTINUOUS
10
0.121
20
0.547867
11
0.120196
21
0.544867
0
LINE
8
BLACK
6
CONTINUOUS
10
0.120196
20
0.544867
11
0.118
21
0.542671
0
LINE
8
BLACK
6
CONTINUOUS
10
0.118
20
0.542671
11
0.115
21
0.541867
0
LINE
8
BLACK
6
CONTINUOUS
10
0.115
20
0.541867
11
0.112
21
0.542671
0
LINE
8
BLACK
6
CONTINUOUS
10
0.112
20
0.542671
11
0.109804
21
0.544867
0
LINE
8
BLACK
6
CONTINUOUS
10
0.109804
20
0.544867
11
0.109
21
0.547867
0
LINE
8
BLACK
6
CONTINUOUS
10
0.109
20
0.547867
11
0.109
21
0.573295
0
LINE
8
BLACK
6
CONTINUOUS
10
0.109
20
0.573295
11
0.095
21
0.573295
0
LINE
8
BLACK
6
CONTINUOUS
10
0.095
20
0.573295
11
0.092
21
0.574099
0
LINE
8
BLACK
6
CONTINUOUS
10
0.092
20
0.574099
11
0.0898038
21
0.576295
0
LINE
8
BLACK
6
CONTINUOUS
10
0.0898038
20
0.576295
11
0.089
21
0.579295
0
LINE
8
BLACK
6
CONTINUOUS
10
0.089
20
0.579295
11
0.0898038
21
0.582295
0
LINE
8
BLACK
6
CONTINUOUS
10
0.0898038
20
0.582295
11
0.092
21
0.584492
0
LINE
8
BLACK
6
CONTINUOUS
10
0.092
20
0.584492
11
0.095
21
0.585295
0
LINE
8
BLACK
6
CONTINUOUS
10
0.095
20
0.585295
11
0.109
21
0.585295
0
LINE
8
BLACK
6
CONTINUOUS
10
0.109
20
0.585295
11
0.109
21
0.601867
0
LINE
8
BLACK
6
CONTINUOUS
10
0.109
20
0.601867
11
0.0864285
21
0.601867
0
LINE
8
BLACK
6
CONTINUOUS
10
0.0864285
20
0.601867
11
0.0834285
21
0.602671
0
LINE
8
BLACK
6
CONTINUOUS
10
0.0834285
20
0.602671
11
0.0812324
21
0.604867
0
LINE
8
BLACK
6
CONTINUOUS
10
0.0812324
20
0.604867
11
0.0804285
21
0.607867
0
LINE
8
BLACK
6
CONTINUOUS
10
0.0804285
20
0.607867
11
0.0812324
21
0.610867
0
LINE
8
BLACK
6
CONTINUOUS
10
0.0812324
20
0.610867
11
0.0834285
21
0.613063
0
LINE
8
BLACK
6
CONTINUOUS
10
0.0834285
20
0.613063
11
0.0864285
21
0.613867
0
LINE
8
BLACK
6
CONTINUOUS
10
0.0864285
20
0.613867
11
0.115
21
0.613867
0
LINE
8
BLACK
6
CONTINUOUS
10
0.115
20
0.613867
11
0.118
21
0.613063
0
LINE
8
BLACK
6
CONTINUOUS
10
-0.120238
20
0.606898
11
-0.119547
21
0.605
0
LINE
8
BLACK
6
CONTINUOUS
10
-0.119547
20
0.605
11
-0.119547
21
0.545
0
LINE
8
BLACK
6
CONTINUOUS
10
-0.119547
20
0.545
11
-0.119725
21
0.54399
0
LINE
8
BLACK
6
CONTINUOUS
10
-0.119725
20
0.54399
11
-0.121024
21
0.542443
0
LINE
8
BLACK
6
CONTINUOUS
10
-0.121024
20
0.542443
11
-0.123013
21
0.542092
0
LINE
8
BLACK
6
CONTINUOUS
10
-0.123013
20
0.542092
11
-0.124762
21
0.543102
0
LINE
8
BLACK
6
CONTINUOUS
10
-0.124762
20
0.543102
11
-0.125453
21
0.545
0
LINE
8
BLACK
6
CONTINUOUS
10
-0.125453
20
0.545
11
-0.125453
21
0.605
0
LINE
8
BLACK
6
CONTINUOUS
10
-0.125453
20
0.605
11
-0.125275
21
0.60601
0
LINE
8
BLACK
6
CONTINUOUS
10
-0.125275
20
0.60601
11
-0.123976
21
0.607557
0
LINE
8
BLACK
6
CONTINUOUS
10
-0.123976
20
0.607557
11
-0.121987
21
0.607908
0
LINE
8
BLACK
6
CONTINUOUS
10
-0.121987
20
0.607908
11
-0.120238
21
0.606898
0
LINE
8
BLACK
6
CONTINUOUS
10
-0.000238071
20
0.606898
11
0.000452756
21
0.605
0
LINE
8
BLACK
6
CONTINUOUS
10
0.000452756
20
0.605
11
0.000452756
21
0.545
0
LINE
8
BLACK
6
CONTINUOUS
10
0.000452756
20
0.545
11
0.000274685
21
0.54399
0
LINE
8
BLACK
6
CONTINUOUS
10
0.000274685
20
0.54399
11
-0.00102362
21
0.542443
0
LINE
8
BLACK
6
CONTINUOUS
10
-0.00102362
20
0.542443
11
-0.00301276
21
0.542092
0
LINE
8
BLACK
6
CONTINUOUS
10
-0.00301276
20
0.542092
11
-0.00476193
21
0.543102
0
LINE
8
BLACK
6
CONTINUOUS
10
-0.00476193
20
0.543102
11
-0.00545276
21
0.545
0
LINE
8
BLACK
6
CONTINUOUS
10
-0.00545276
20
0.545
11
-0.00545276
21
0.605
0
LINE
8
BLACK
6
CONTINUOUS
10
-0.00545276
20
0.605
11
-0.00527469
21
0.60601
0
LINE
8
BLACK
6
CONTINUOUS
10
-0.00527469
20
0.60601
11
-0.00397638
21
0.607557
0
LINE
8
BLACK
6
CONTINUOUS
10
-0.00397638
20
0.607557
11
-0.00198724
21
0.607908
0
LINE
8
BLACK
6
CONTINUOUS
10
-0.00198724
20
0.607908
11
-0.000238071
21
0.606898
0
LINE
8
BLACK
6
CONTINUOUS
10
-0.0458297
20
0.54667
11
-0.0451378
21
0.545
0
LINE
8
BLACK
6
CONTINUOUS
10
-0.0451378
20
0.545
11
-0.0458297
21
0.54333
0
LINE
8
BLACK
6
CONTINUOUS
10
-0.0458297
20
0.54333
11
-0.0475
21
0.542638
0
LINE
8
BLACK
6
CONTINUOUS
10
-0.0475
20
0.542638
11
-0.0775
21
0.542638
0
LINE
8
BLACK
6
CONTINUOUS
10
-0.0775
20
0.542638
11
-0.0791703
21
0.54333
0
LINE
8
BLACK
6
CONTINUOUS
10
-0.0791703
20
0.54333
11
-0.0798622
21
0.545
0
LINE
8
BLACK
6
CONTINUOUS
10
-0.0798622
20
0.545
11
-0.0791703
21
0.54667
0
LINE
8
BLACK
6
CONTINUOUS
10
-0.0791703
20
0.54667
11
-0.0775
21
0.547362
0
LINE
8
BLACK
6
CONTINUOUS
10
-0.0775
20
0.547362
11
-0.0475
21
0.547362
0
LINE
8
BLACK
6
CONTINUOUS
10
-0.0475
20
0.547362
11
-0.0458297
21
0.54667
0
LINE
8
BLACK
6
CONTINUOUS
10
0.66101
20
0.555275
11
0.662557
21
0.553976
0
LINE
8
BLACK
6
CONTINUOUS
10
0.662557
20
0.553976
11
0.662908
21
0.551987
0
LINE
8
BLACK
6
CONTINUOUS
10
0.662908
20
0.551987
11
0.661898
21
0.550238
0
LINE
8
BLACK
6
CONTINUOUS
10
0.661898
20
0.550238
11
0.66
21
0.549547
0
LINE
8
BLACK
6
CONTINUOUS
10
0.66
20
0.549547
11
0.6
21
0.549547
0
LINE
8
BLACK
6
CONTINUOUS
10
0.6
20
0.549547
11
0.59899
21
0.549725
0
LINE
8
BLACK
6
CONTINUOUS
10
0.59899
20
0.549725
11
0.597443
21
0.551024
0
LINE
8
BLACK
6
CONTINUOUS
10
0.597443
20
0.551024
11
0.597092
21
0.553013
0
LINE
8
BLACK
6
CONTINUOUS
10
0.597092
20
0.553013
11
0.598102
21
0.554762
0
LINE
8
BLACK
6
CONTINUOUS
10
0.598102
20
0.554762
11
0.6
21
0.555453
0
LINE
8
BLACK
6
CONTINUOUS
10
0.6
20
0.555453
11
0.66
21
0.555453
0
LINE
8
BLACK
6
CONTINUOUS
10
0.66
20
0.555453
11
0.66101
21
0.555275
0
LINE
8
BLACK
6
CONTINUOUS
10
0.60167
20
0.62917
11
0.602362
21
0.6275
0
LINE
8
BLACK
6
CONTINUOUS
10
0.602362
20
0.6275
11
0.602362
21
0.5975
0
LINE
8
BLACK
6
CONTINUOUS
10
0.602362
20
0.5975
11
0.60167
21
0.59583
0
LINE
8
BLACK
6
CONTINUOUS
10
0.60167
20
0.59583
11
0.6
21
0.595138
0
LINE
8
BLACK
6
CONTINUOUS
10
0.6
20
0.595138
11
0.59833
21
0.59583
0
LINE
8
BLACK
6
CONTINUOUS
10
0.59833
20
0.59583
11
0.597638
21
0.5975
0
LINE
8
BLACK
6
CONTINUOUS
10
0.597638
20
0.5975
11
0.597638
21
0.6275
0
LINE
8
BLACK
6
CONTINUOUS
10
0.597638
20
0.6275
11
0.59833
21
0.62917
0
LINE
8
BLACK
6
CONTINUOUS
10
0.59833
20
0.62917
11
0.6
21
0.629862
0
LINE
8
BLACK
6
CONTINUOUS
10
0.6
20
0.629862
11
0.60167
21
0.62917
0
LINE
8
BLACK
6
CONTINUOUS
10
0.66167
20
0.62917
11
0.662362
21
0.6275
0
LINE
8
BLACK
6
CONTINUOUS
10
0.662362
20
0.6275
11
0.662362
21
0.5975
0
LINE
8
BLACK
6
CONTINUOUS
10
0.662362
20
0.5975
11
0.66167
21
0.59583
0
LINE
8
BLACK
6
CONTINUOUS
10
0.66167
20
0.59583
11
0.66
21
0.595138
0
LINE
8
BLACK
6
CONTINUOUS
10
0.66
20
0.595138
11
0.65833
21
0.59583
0
LINE
8
BLACK
6
CONTINUOUS
10
0.65833
20
0.59583
11
0.657638
21
0.5975
0
LINE
8
BLACK
6
CONTINUOUS
10
0.657638
20
0.5975
11
0.657638
21
0.6275
0
LINE
8
BLACK
6
CONTINUOUS
10
0.657638
20
0.6275
11
0.65833
21
0.62917
0
LINE
8
BLACK
6
CONTINUOUS
10
0.65833
20
0.62917
11
0.66
21
0.629862
0
LINE
8
BLACK
6
CONTINUOUS
10
0.66
20
0.629862
11
0.66167
21
0.62917
0
LINE
8
BLACK
6
CONTINUOUS
10
-0.0458297
20
0.60667
11
-0.0451378
21
0.605
0
LINE
8
BLACK
6
CONTINUOUS
10
-0.0451378
20
0.605
11
-0.0458297
21
0.60333
0
LINE
8
BLACK
6
CONTINUOUS
10
-0.0458297
20
0.60333
11
-0.0475
21
0.602638
0
LINE
8
BLACK
6
CONTINUOUS
10
-0.0475
20
0.602638
11
-0.0775
21
0.602638
0
LINE
8
BLACK
6
CONTINUOUS
10
-0.0775
20
0.602638
11
-0.0791703
21
0.60333
0
LINE
8
BLACK
6
CONTINUOUS
10
-0.0791703
20
0.60333
11
-0.0798622
21
0.605
0
LINE
8
BLACK
6
CONTINUOUS
10
-0.0798622
20
0.605
11
-0.0791703
21
0.60667
0
LINE
8
BLACK
6
CONTINUOUS
10
-0.0791703
20
0.60667
11
-0.0775
21
0.607362
0
LINE
8
BLACK
6
CONTINUOUS
10
-0.0775
20
0.607362
11
-0.0475
21
0.607362
0
LINE
8
BLACK
6
CONTINUOUS
10
-0.0475
20
0.607362
11
-0.0458297
21
0.60667
0
LINE
8
BLACK
6
CONTINUOUS
10
0.684762
20
0.676898
11
0.685453
21
0.675
0
LINE
8
BLACK
6
CONTINUOUS
10
0.685453
20
0.675
11
0.685453
21
0.615
0
LINE
8
BLACK
6
CONTINUOUS
10
0.685453
20
0.615
11
0.685275
21
0.61399
0
LINE
8
BLACK
6
CONTINUOUS
10
0.685275
20
0.61399
11
0.683976
21
0.612443
0
LINE
8
BLACK
6
CONTINUOUS
10
0.683976
20
0.612443
11
0.681987
21
0.612092
0
LINE
8
BLACK
6
CONTINUOUS
10
0.681987
20
0.612092
11
0.680238
21
0.613102
0
LINE
8
BLACK
6
CONTINUOUS
10
0.680238
20
0.613102
11
0.679547
21
0.615
0
LINE
8
BLACK
6
CONTINUOUS
10
0.679547
20
0.615
11
0.679547
21
0.675
0
LINE
8
BLACK
6
CONTINUOUS
10
0.679547
20
0.675
11
0.679725
21
0.67601
0
LINE
8
BLACK
6
CONTINUOUS
10
0.679725
20
0.67601
11
0.681024
21
0.677557
0
LINE
8
BLACK
6
CONTINUOUS
10
0.681024
20
0.677557
11
0.683013
21
0.677908
0
LINE
8
BLACK
6
CONTINUOUS
10
0.683013
20
0.677908
11
0.684762
21
0.676898
0
LINE
8
BLACK
6
CONTINUOUS
10
0.804762
20
0.676898
11
0.805453
21
0.675
0
LINE
8
BLACK
6
CONTINUOUS
10
0.805453
20
0.675
11
0.805453
21
0.615
0
LINE
8
BLACK
6
CONTINUOUS
10
0.805453
20
0.615
11
0.805275
21
0.61399
0
LINE
8
BLACK
6
CONTINUOUS
10
0.805275
20
0.61399
11
0.803976
21
0.612443
0
LINE
8
BLACK
6
CONTINUOUS
10
0.803976
20
0.612443
11
0.801987
21
0.612092
0
LINE
8
BLACK
6
CONTINUOUS
10
0.801987
20
0.612092
11
0.800238
21
0.613102
0
LINE
8
BLACK
6
CONTINUOUS
10
0.800238
20
0.613102
11
0.799547
21
0.615
0
LINE
8
BLACK
6
CONTINUOUS
10
0.799547
20
0.615
11
0.799547
21
0.675
0
LINE
8
BLACK
6
CONTINUOUS
10
0.799547
20
0.675
11
0.799725
21
0.67601
0
LINE
8
BLACK
6
CONTINUOUS
10
0.799725
20
0.67601
11
0.801024
21
0.677557
0
LINE
8
BLACK
6
CONTINUOUS
10
0.801024
20
0.677557
11
0.803013
21
0.677908
0
LINE
8
BLACK
6
CONTINUOUS
10
0.803013
20
0.677908
11
0.804762
21
0.676898
0
LINE
8
BLACK
6
CONTINUOUS
10
0.824762
20
0.676898
11
0.825453
21
0.675
0
LINE
8
BLACK
6
CONTINUOUS
10
0.825453
20
0.675
11
0.825453
21
0.615
0
LINE
8
BLACK
6
CONTINUOUS
10
0.825453
20
0.615
11
0.825275
21
0.61399
0
LINE
8
BLACK
6
CONTINUOUS
10
0.825275
20
0.61399
11
0.823976
21
0.612443
0
LINE
8
BLACK
6
CONTINUOUS
10
0.823976
20
0.612443
11
0.821987
21
0.612092
0
LINE
8
BLACK
6
CONTINUOUS
10
0.821987
20
0.612092
11
0.820238
21
0.613102
0
LINE
8
BLACK
6
CONTINUOUS
10
0.820238
20
0.613102
11
0.819547
21
0.615
0
LINE
8
BLACK
6
CONTINUOUS
10
0.819547
20
0.615
11
0.819547
21
0.675
0
LINE
8
BLACK
6
CONTINUOUS
10
0.819547
20
0.675
11
0.819725
21
0.67601
0
LINE
8
BLACK
6
CONTINUOUS
10
0.819725
20
0.67601
11
0.821024
21
0.677557
0
LINE
8
BLACK
6
CONTINUOUS
10
0.821024
20
0.677557
11
0.823013
21
0.677908
0
LINE
8
BLACK
6
CONTINUOUS
10
0.823013
20
0.677908
11
0.824762
21
0.676898
0
LINE
8
BLACK
6
CONTINUOUS
10
0.944762
20
0.676898
11
0.945453
21
0.675
0
LINE
8
BLACK
6
CONTINUOUS
10
0.945453
20
0.675
11
0.945453
21
0.615
0
LINE
8
BLACK
6
CONTINUOUS
10
0.945453
20
0.615
11
0.945275
21
0.61399
0
LINE
8
BLACK
6
CONTINUOUS
10
0.945275
20
0.61399
11
0.943976
21
0.612443
0
LINE
8
BLACK
6
CONTINUOUS
10
0.943976
20
0.612443
11
0.941987
21
0.612092
0
LINE
8
BLACK
6
CONTINUOUS
10
0.941987
20
0.612092
11
0.940238
21
0.613102
0
LINE
8
BLACK
6
CONTINUOUS
10
0.940238
20
0.613102
11
0.939547
21
0.615
0
LINE
8
BLACK
6
CONTINUOUS
10
0.939547
20
0.615
11
0.939547
21
0.675
0
LINE
8
BLACK
6
CONTINUOUS
10
0.939547
20
0.675
11
0.939725
21
0.67601
0
LINE
8
BLACK
6
CONTINUOUS
10
0.939725
20
0.67601
11
0.941024
21
0.677557
0
LINE
8
BLACK
6
CONTINUOUS
10
0.941024
20
0.677557
11
0.943013
21
0.677908
0
LINE
8
BLACK
6
CONTINUOUS
10
0.943013
20
0.677908
11
0.944762
21
0.676898
0
LINE
8
BLACK
6
CONTINUOUS
10
0.964762
20
0.676898
11
0.965453
21
0.675
0
LINE
8
BLACK
6
CONTINUOUS
10
0.965453
20
0.675
11
0.965453
21
0.615
0
LINE
8
BLACK
6
CONTINUOUS
10
0.965453
20
0.615
11
0.965275
21
0.61399
0
LINE
8
BLACK
6
CONTINUOUS
10
0.965275
20
0.61399
11
0.963976
21
0.612443
0
LINE
8
BLACK
6
CONTINUOUS
10
0.963976
20
0.612443
11
0.961987
21
0.612092
0
LINE
8
BLACK
6
CONTINUOUS
10
0.961987
20
0.612092
11
0.960238
21
0.613102
0
LINE
8
BLACK
6
CONTINUOUS
10
0.960238
20
0.613102
11
0.959547
21
0.615
0
LINE
8
BLACK
6
CONTINUOUS
10
0.959547
20
0.615
11
0.959547
21
0.675
0
LINE
8
BLACK
6
CONTINUOUS
10
0.959547
20
0.675
11
0.959725
21
0.67601
0
LINE
8
BLACK
6
CONTINUOUS
10
0.959725
20
0.67601
11
0.961024
21
0.677557
0
LINE
8
BLACK
6
CONTINUOUS
10
0.961024
20
0.677557
11
0.963013
21
0.677908
0
LINE
8
BLACK
6
CONTINUOUS
10
0.963013
20
0.677908
11
0.964762
21
0.676898
0
LINE
8
BLACK
6
CONTINUOUS
10
1.08476
20
0.676898
11
1.08545
21
0.675
0
LINE
8
BLACK
6
CONTINUOUS
10
1.08545
20
0.675
11
1.08545
21
0.615
0
LINE
8
BLACK
6
CONTINUOUS
10
1.08545
20
0.615
11
1.08527
21
0.61399
0
LINE
8
BLACK
6
CONTINUOUS
10
1.08527
20
0.61399
11
1.08398
21
0.612443
0
LINE
8
BLACK
6
CONTINUOUS
10
1.08398
20
0.612443
11
1.08199
21
0.612092
0
LINE
8
BLACK
6
CONTINUOUS
10
1.08199
20
0.612092
11
1.08024
21
0.613102
0
LINE
8
BLACK
6
CONTINUOUS
10
1.08024
20
0.613102
11
1.07955
21
0.615
0
LINE
8
BLACK
6
CONTINUOUS
10
1.07955
20
0.615
11
1.07955
21
0.675
0
LINE
8
BLACK
6
CONTINUOUS
10
1.07955
20
0.675
11
1.07973
21
0.67601
0
LINE
8
BLACK
6
CONTINUOUS
10
1.07973
20
0.67601
11
1.08102
21
0.677557
0
LINE
8
BLACK
6
CONTINUOUS
10
1.08102
20
0.677557
11
1.08301
21
0.677908
0
LINE
8
BLACK
6
CONTINUOUS
10
1.08301
20
0.677908
11
1.08476
21
0.676898
0
LINE
8
BLACK
6
CONTINUOUS
10
0.75917
20
0.61667
11
0.759862
21
0.615
0
LINE
8
BLACK
6
CONTINUOUS
10
0.759862
20
0.615
11
0.75917
21
0.61333
0
LINE
8
BLACK
6
CONTINUOUS
10
0.75917
20
0.61333
11
0.7575
21
0.612638
0
LINE
8
BLACK
6
CONTINUOUS
10
0.7575
20
0.612638
11
0.7275
21
0.612638
0
LINE
8
BLACK
6
CONTINUOUS
10
0.7275
20
0.612638
11
0.72583
21
0.61333
0
LINE
8
BLACK
6
CONTINUOUS
10
0.72583
20
0.61333
11
0.725138
21
0.615
0
LINE
8
BLACK
6
CONTINUOUS
10
0.725138
20
0.615
11
0.72583
21
0.61667
0
LINE
8
BLACK
6
CONTINUOUS
10
0.72583
20
0.61667
11
0.7275
21
0.617362
0
LINE
8
BLACK
6
CONTINUOUS
10
0.7275
20
0.617362
11
0.7575
21
0.617362
0
LINE
8
BLACK
6
CONTINUOUS
10
0.7575
20
0.617362
11
0.75917
21
0.61667
0
LINE
8
BLACK
6
CONTINUOUS
10
0.89917
20
0.61667
11
0.899862
21
0.615
0
LINE
8
BLACK
6
CONTINUOUS
10
0.899862
20
0.615
11
0.89917
21
0.61333
0
LINE
8
BLACK
6
CONTINUOUS
10
0.89917
20
0.61333
11
0.8975
21
0.612638
0
LINE
8
BLACK
6
CONTINUOUS
10
0.8975
20
0.612638
11
0.8675
21
0.612638
0
LINE
8
BLACK
6
CONTINUOUS
10
0.8675
20
0.612638
11
0.86583
21
0.61333
0
LINE
8
BLACK
6
CONTINUOUS
10
0.86583
20
0.61333
11
0.865138
21
0.615
0
LINE
8
BLACK
6
CONTINUOUS
10
0.865138
20
0.615
11
0.86583
21
0.61667
0
LINE
8
BLACK
6
CONTINUOUS
10
0.86583
20
0.61667
11
0.8675
21
0.617362
0
LINE
8
BLACK
6
CONTINUOUS
10
0.8675
20
0.617362
11
0.8975
21
0.617362
0
LINE
8
BLACK
6
CONTINUOUS
10
0.8975
20
0.617362
11
0.89917
21
0.61667
0
LINE
8
BLACK
6
CONTINUOUS
10
1.03917
20
0.61667
11
1.03986
21
0.615
0
LINE
8
BLACK
6
CONTINUOUS
10
1.03986
20
0.615
11
1.03917
21
0.61333
0
LINE
8
BLACK
6
CONTINUOUS
10
1.03917
20
0.61333
11
1.0375
21
0.612638
0
LINE
8
BLACK
6
CONTINUOUS
10
1.0375
20
0.612638
11
1.0075
21
0.612638
0
LINE
8
BLACK
6
CONTINUOUS
10
1.0075
20
0.612638
11
1.00583
21
0.61333
0
LINE
8
BLACK
6
CONTINUOUS
10
1.00583
20
0.61333
11
1.00514
21
0.615
0
LINE
8
BLACK
6
CONTINUOUS
10
1.00514
20
0.615
11
1.00583
21
0.61667
0
LINE
8
BLACK
6
CONTINUOUS
10
1.00583
20
0.61667
11
1.0075
21
0.617362
0
LINE
8
BLACK
6
CONTINUOUS
10
1.0075
20
0.617362
11
1.0375
21
0.617362
0
LINE
8
BLACK
6
CONTINUOUS
10
1.0375
20
0.617362
11
1.03917
21
0.61667
0
LINE
8
BLACK
6
CONTINUOUS
10
0.455217
20
0.63878
11
0.526083
21
0.63878
0
LINE
8
BLACK
6
CONTINUOUS
10
0.526083
20
0.63878
11
0.527753
21
0.638088
0
LINE
8
BLACK
6
CONTINUOUS
10
0.527753
20
0.638088
11
0.528445
21
0.636417
0
LINE
8
BLACK
6
CONTINUOUS
10
0.528445
20
0.636417
11
0.527753
21
0.634747
0
LINE
8
BLACK
6
CONTINUOUS
10
0.527753
20
0.634747
11
0.526083
21
0.634055
0
LINE
8
BLACK
6
CONTINUOUS
10
0.526083
20
0.634055
11
0.455217
21
0.634055
0
LINE
8
BLACK
6
CONTINUOUS
10
0.455217
20
0.634055
11
0.42372
21
0.634055
0
LINE
8
BLACK
6
CONTINUOUS
10
0.42372
20
0.634055
11
0.42205
21
0.634747
0
LINE
8
BLACK
6
CONTINUOUS
10
0.42205
20
0.634747
11
0.421358
21
0.636417
0
LINE
8
BLACK
6
CONTINUOUS
10
0.421358
20
0.636417
11
0.42205
21
0.638088
0
LINE
8
BLACK
6
CONTINUOUS
10
0.42205
20
0.638088
11
0.42372
21
0.63878
0
LINE
8
BLACK
6
CONTINUOUS
10
0.42372
20
0.63878
11
0.455217
21
0.63878
0
LINE
8
BLACK
6
CONTINUOUS
10
0.435254
20
0.693775
11
0.435423
21
0.693786
0
LINE
8
BLACK
6
CONTINUOUS
10
0.435423
20
0.693786
11
0.436114
21
0.693279
0
LINE
8
BLACK
6
CONTINUOUS
10
0.436114
20
0.693279
11
0.436856
21
0.69285
0
LINE
8
BLACK
6
CONTINUOUS
10
0.436856
20
0.69285
11
0.436914
21
0.692691
0
LINE
8
BLACK
6
CONTINUOUS
10
0.436914
20
0.692691
11
0.437051
21
0.69259
0
LINE
8
BLACK
6
CONTINUOUS
10
0.437051
20
0.69259
11
0.440638
21
0.687209
0
LINE
8
BLACK
6
CONTINUOUS
10
0.440638
20
0.687209
11
0.443842
21
0.684005
0
LINE
8
BLACK
6
CONTINUOUS
10
0.443842
20
0.684005
11
0.447163
21
0.682344
0
LINE
8
BLACK
6
CONTINUOUS
10
0.447163
20
0.682344
11
0.447987
21
0.681734
0
LINE
8
BLACK
6
CONTINUOUS
10
0.447987
20
0.681734
11
0.44879
21
0.67988
0
LINE
8
BLACK
6
CONTINUOUS
10
0.44879
20
0.67988
11
0.448214
21
0.677944
0
LINE
8
BLACK
6
CONTINUOUS
10
0.448214
20
0.677944
11
0.446529
21
0.676831
0
LINE
8
BLACK
6
CONTINUOUS
10
0.446529
20
0.676831
11
0.444522
21
0.677062
0
LINE
8
BLACK
6
CONTINUOUS
10
0.444522
20
0.677062
11
0.440773
21
0.678937
0
LINE
8
BLACK
6
CONTINUOUS
10
0.440773
20
0.678937
11
0.440064
21
0.679463
0
LINE
8
BLACK
6
CONTINUOUS
10
0.440064
20
0.679463
11
0.440005
21
0.67949
0
LINE
8
BLACK
6
CONTINUOUS
10
0.440005
20
0.67949
11
0.437547
21
0.681949
0
LINE
8
BLACK
6
CONTINUOUS
10
0.437547
20
0.681949
11
0.437547
21
0.654535
0
LINE
8
BLACK
6
CONTINUOUS
10
0.437547
20
0.654535
11
0.445843
21
0.654535
0
LINE
8
BLACK
6
CONTINUOUS
10
0.445843
20
0.654535
11
0.446853
21
0.654357
0
LINE
8
BLACK
6
CONTINUOUS
10
0.446853
20
0.654357
11
0.4484
21
0.653058
0
LINE
8
BLACK
6
CONTINUOUS
10
0.4484
20
0.653058
11
0.448751
21
0.651069
0
LINE
8
BLACK
6
CONTINUOUS
10
0.448751
20
0.651069
11
0.447741
21
0.64932
0
LINE
8
BLACK
6
CONTINUOUS
10
0.447741
20
0.64932
11
0.445843
21
0.648629
0
LINE
8
BLACK
6
CONTINUOUS
10
0.445843
20
0.648629
11
0.423346
21
0.648629
0
LINE
8
BLACK
6
CONTINUOUS
10
0.423346
20
0.648629
11
0.422336
21
0.648807
0
LINE
8
BLACK
6
CONTINUOUS
10
0.422336
20
0.648807
11
0.420788
21
0.650106
0
LINE
8
BLACK
6
CONTINUOUS
10
0.420788
20
0.650106
11
0.420438
21
0.652095
0
LINE
8
BLACK
6
CONTINUOUS
10
0.420438
20
0.652095
11
0.421448
21
0.653844
0
LINE
8
BLACK
6
CONTINUOUS
10
0.421448
20
0.653844
11
0.423346
21
0.654535
0
LINE
8
BLACK
6
CONTINUOUS
10
0.423346
20
0.654535
11
0.431641
21
0.654535
0
LINE
8
BLACK
6
CONTINUOUS
10
0.431641
20
0.654535
11
0.431641
21
0.690952
0
LINE
8
BLACK
6
CONTINUOUS
10
0.431641
20
0.690952
11
0.431819
21
0.691962
0
LINE
8
BLACK
6
CONTINUOUS
10
0.431819
20
0.691962
11
0.431929
21
0.692092
0
LINE
8
BLACK
6
CONTINUOUS
10
0.431929
20
0.692092
11
0.431947
21
0.692261
0
LINE
8
BLACK
6
CONTINUOUS
10
0.431947
20
0.692261
11
0.432567
21
0.692853
0
LINE
8
BLACK
6
CONTINUOUS
10
0.432567
20
0.692853
11
0.433118
21
0.693509
0
LINE
8
BLACK
6
CONTINUOUS
10
0.433118
20
0.693509
11
0.433285
21
0.693539
0
LINE
8
BLACK
6
CONTINUOUS
10
0.433285
20
0.693539
11
0.433408
21
0.693656
0
LINE
8
BLACK
6
CONTINUOUS
10
0.433408
20
0.693656
11
0.434263
21
0.693711
0
LINE
8
BLACK
6
CONTINUOUS
10
0.434263
20
0.693711
11
0.435107
21
0.69386
0
LINE
8
BLACK
6
CONTINUOUS
10
0.435107
20
0.69386
11
0.435254
21
0.693775
0
LINE
8
BLACK
6
CONTINUOUS
10
0.487475
20
0.69285
11
0.488166
21
0.690952
0
LINE
8
BLACK
6
CONTINUOUS
10
0.488166
20
0.690952
11
0.488166
21
0.659081
0
LINE
8
BLACK
6
CONTINUOUS
10
0.488166
20
0.659081
11
0.487987
21
0.658071
0
LINE
8
BLACK
6
CONTINUOUS
10
0.487987
20
0.658071
11
0.487874
21
0.657936
0
LINE
8
BLACK
6
CONTINUOUS
10
0.487874
20
0.657936
11
0.487854
21
0.657761
0
LINE
8
BLACK
6
CONTINUOUS
10
0.487854
20
0.657761
11
0.485979
21
0.654011
0
LINE
8
BLACK
6
CONTINUOUS
10
0.485979
20
0.654011
11
0.485453
21
0.653302
0
LINE
8
BLACK
6
CONTINUOUS
10
0.485453
20
0.653302
11
0.485426
21
0.653244
0
LINE
8
BLACK
6
CONTINUOUS
10
0.485426
20
0.653244
11
0.483551
21
0.651369
0
LINE
8
BLACK
6
CONTINUOUS
10
0.483551
20
0.651369
11
0.482828
21
0.650862
0
LINE
8
BLACK
6
CONTINUOUS
10
0.482828
20
0.650862
11
0.482784
21
0.650816
0
LINE
8
BLACK
6
CONTINUOUS
10
0.482784
20
0.650816
11
0.479034
21
0.648941
0
LINE
8
BLACK
6
CONTINUOUS
10
0.479034
20
0.648941
11
0.478051
21
0.648649
0
LINE
8
BLACK
6
CONTINUOUS
10
0.478051
20
0.648649
11
0.47788
21
0.64869
0
LINE
8
BLACK
6
CONTINUOUS
10
0.47788
20
0.64869
11
0.477714
21
0.648629
0
LINE
8
BLACK
6
CONTINUOUS
10
0.477714
20
0.648629
11
0.470215
21
0.648629
0
LINE
8
BLACK
6
CONTINUOUS
10
0.470215
20
0.648629
11
0.469205
21
0.648807
0
LINE
8
BLACK
6
CONTINUOUS
10
0.469205
20
0.648807
11
0.469069
21
0.648921
0
LINE
8
BLACK
6
CONTINUOUS
10
0.469069
20
0.648921
11
0.468894
21
0.648941
0
LINE
8
BLACK
6
CONTINUOUS
10
0.468894
20
0.648941
11
0.465145
21
0.650816
0
LINE
8
BLACK
6
CONTINUOUS
10
0.465145
20
0.650816
11
0.464435
21
0.651342
0
LINE
8
BLACK
6
CONTINUOUS
10
0.464435
20
0.651342
11
0.464377
21
0.651369
0
LINE
8
BLACK
6
CONTINUOUS
10
0.464377
20
0.651369
11
0.462502
21
0.653244
0
LINE
8
BLACK
6
CONTINUOUS
10
0.462502
20
0.653244
11
0.461996
21
0.653967
0
LINE
8
BLACK
6
CONTINUOUS
10
0.461996
20
0.653967
11
0.461949
21
0.654011
0
LINE
8
BLACK
6
CONTINUOUS
10
0.461949
20
0.654011
11
0.460075
21
0.657761
0
LINE
8
BLACK
6
CONTINUOUS
10
0.460075
20
0.657761
11
0.459782
21
0.658743
0
LINE
8
BLACK
6
CONTINUOUS
10
0.459782
20
0.658743
11
0.459823
21
0.658915
0
LINE
8
BLACK
6
CONTINUOUS
10
0.459823
20
0.658915
11
0.459763
21
0.659081
0
LINE
8
BLACK
6
CONTINUOUS
10
0.459763
20
0.659081
11
0.459763
21
0.690952
0
LINE
8
BLACK
6
CONTINUOUS
10
0.459763
20
0.690952
11
0.459941
21
0.691962
0
LINE
8
BLACK
6
CONTINUOUS
10
0.459941
20
0.691962
11
0.461239
21
0.693509
0
LINE
8
BLACK
6
CONTINUOUS
10
0.461239
20
0.693509
11
0.463228
21
0.69386
0
LINE
8
BLACK
6
CONTINUOUS
10
0.463228
20
0.69386
11
0.464978
21
0.69285
0
LINE
8
BLACK
6
CONTINUOUS
10
0.464978
20
0.69285
11
0.465668
21
0.690952
0
LINE
8
BLACK
6
CONTINUOUS
10
0.465668
20
0.690952
11
0.465668
21
0.659778
0
LINE
8
BLACK
6
CONTINUOUS
10
0.465668
20
0.659778
11
0.467017
21
0.657081
0
LINE
8
BLACK
6
CONTINUOUS
10
0.467017
20
0.657081
11
0.468214
21
0.655883
0
LINE
8
BLACK
6
CONTINUOUS
10
0.468214
20
0.655883
11
0.470912
21
0.654535
0
LINE
8
BLACK
6
CONTINUOUS
10
0.470912
20
0.654535
11
0.477017
21
0.654535
0
LINE
8
BLACK
6
CONTINUOUS
10
0.477017
20
0.654535
11
0.479714
21
0.655883
0
LINE
8
BLACK
6
CONTINUOUS
10
0.479714
20
0.655883
11
0.480911
21
0.657081
0
LINE
8
BLACK
6
CONTINUOUS
10
0.480911
20
0.657081
11
0.48226
21
0.659778
0
LINE
8
BLACK
6
CONTINUOUS
10
0.48226
20
0.659778
11
0.48226
21
0.690952
0
LINE
8
BLACK
6
CONTINUOUS
10
0.48226
20
0.690952
11
0.482438
21
0.691962
0
LINE
8
BLACK
6
CONTINUOUS
10
0.482438
20
0.691962
11
0.483736
21
0.693509
0
LINE
8
BLACK
6
CONTINUOUS
10
0.483736
20
0.693509
11
0.485726
21
0.69386
0
LINE
8
BLACK
6
CONTINUOUS
10
0.485726
20
0.69386
11
0.487475
21
0.69285
0
LINE
8
BLACK
6
CONTINUOUS
10
0.66101
20
0.675275
11
0.662557
21
0.673976
0
LINE
8
BLACK
6
CONTINUOUS
10
0.662557
20
0.673976
11
0.662908
21
0.671987
0
LINE
8
BLACK
6
CONTINUOUS
10
0.662908
20
0.671987
11
0.661898
21
0.670238
0
LINE
8
BLACK
6
CONTINUOUS
10
0.661898
20
0.670238
11
0.66
21
0.669547
0
LINE
8
BLACK
6
CONTINUOUS
10
0.66
20
0.669547
11
0.6
21
0.669547
0
LINE
8
BLACK
6
CONTINUOUS
10
0.6
20
0.669547
11
0.59899
21
0.669725
0
LINE
8
BLACK
6
CONTINUOUS
10
0.59899
20
0.669725
11
0.597443
21
0.671024
0
LINE
8
BLACK
6
CONTINUOUS
10
0.597443
20
0.671024
11
0.597092
21
0.673013
0
LINE
8
BLACK
6
CONTINUOUS
10
0.597092
20
0.673013
11
0.598102
21
0.674762
0
LINE
8
BLACK
6
CONTINUOUS
10
0.598102
20
0.674762
11
0.6
21
0.675453
0
LINE
8
BLACK
6
CONTINUOUS
10
0.6
20
0.675453
11
0.66
21
0.675453
0
LINE
8
BLACK
6
CONTINUOUS
10
0.66
20
0.675453
11
0.66101
21
0.675275
0
LINE
8
BLACK
6
CONTINUOUS
10
0.75917
20
0.67667
11
0.759862
21
0.675
0
LINE
8
BLACK
6
CONTINUOUS
10
0.759862
20
0.675
11
0.75917
21
0.67333
0
LINE
8
BLACK
6
CONTINUOUS
10
0.75917
20
0.67333
11
0.7575
21
0.672638
0
LINE
8
BLACK
6
CONTINUOUS
10
0.7575
20
0.672638
11
0.7275
21
0.672638
0
LINE
8
BLACK
6
CONTINUOUS
10
0.7275
20
0.672638
11
0.72583
21
0.67333
0
LINE
8
BLACK
6
CONTINUOUS
10
0.72583
20
0.67333
11
0.725138
21
0.675
0
LINE
8
BLACK
6
CONTINUOUS
10
0.725138
20
0.675
11
0.72583
21
0.67667
0
LINE
8
BLACK
6
CONTINUOUS
10
0.72583
20
0.67667
11
0.7275
21
0.677362
0
LINE
8
BLACK
6
CONTINUOUS
10
0.7275
20
0.677362
11
0.7575
21
0.677362
0
LINE
8
BLACK
6
CONTINUOUS
10
0.7575
20
0.677362
11
0.75917
21
0.67667
0
LINE
8
BLACK
6
CONTINUOUS
10
0.89917
20
0.67667
11
0.899862
21
0.675
0
LINE
8
BLACK
6
CONTINUOUS
10
0.899862
20
0.675
11
0.89917
21
0.67333
0
LINE
8
BLACK
6
CONTINUOUS
10
0.89917
20
0.67333
11
0.8975
21
0.672638
0
LINE
8
BLACK
6
CONTINUOUS
10
0.8975
20
0.672638
11
0.8675
21
0.672638
0
LINE
8
BLACK
6
CONTINUOUS
10
0.8675
20
0.672638
11
0.86583
21
0.67333
0
LINE
8
BLACK
6
CONTINUOUS
10
0.86583
20
0.67333
11
0.865138
21
0.675
0
LINE
8
BLACK
6
CONTINUOUS
10
0.865138
20
0.675
11
0.86583
21
0.67667
0
LINE
8
BLACK
6
CONTINUOUS
10
0.86583
20
0.67667
11
0.8675
21
0.677362
0
LINE
8
BLACK
6
CONTINUOUS
10
0.8675
20
0.677362
11
0.8975
21
0.677362
0
LINE
8
BLACK
6
CONTINUOUS
10
0.8975
20
0.677362
11
0.89917
21
0.67667
0
LINE
8
BLACK
6
CONTINUOUS
10
1.03917
20
0.67667
11
1.03986
21
0.675
0
LINE
8
BLACK
6
CONTINUOUS
10
1.03986
20
0.675
11
1.03917
21
0.67333
0
LINE
8
BLACK
6
CONTINUOUS
10
1.03917
20
0.67333
11
1.0375
21
0.672638
0
LINE
8
BLACK
6
CONTINUOUS
10
1.0375
20
0.672638
11
1.0075
21
0.672638
0
LINE
8
BLACK
6
CONTINUOUS
10
1.0075
20
0.672638
11
1.00583
21
0.67333
0
LINE
8
BLACK
6
CONTINUOUS
10
1.00583
20
0.67333
11
1.00514
21
0.675
0
LINE
8
BLACK
6
CONTINUOUS
10
1.00514
20
0.675
11
1.00583
21
0.67667
0
LINE
8
BLACK
6
CONTINUOUS
10
1.00583
20
0.67667
11
1.0075
21
0.677362
0
LINE
8
BLACK
6
CONTINUOUS
10
1.0075
20
0.677362
11
1.0375
21
0.677362
0
LINE
8
BLACK
6
CONTINUOUS
10
1.0375
20
0.677362
11
1.03917
21
0.67667
0
LINE
8
BLACK
6
CONTINUOUS
10
0.179762
20
0.956898
11
0.180453
21
0.955
0
LINE
8
BLACK
6
CONTINUOUS
10
0.180453
20
0.955
11
0.180453
21
0.895
0
LINE
8
BLACK
6
CONTINUOUS
10
0.180453
20
0.895
11
0.180275
21
0.89399
0
LINE
8
BLACK
6
CONTINUOUS
10
0.180275
20
0.89399
11
0.178976
21
0.892443
0
LINE
8
BLACK
6
CONTINUOUS
10
0.178976
20
0.892443
11
0.176987
21
0.892092
0
LINE
8
BLACK
6
CONTINUOUS
10
0.176987
20
0.892092
11
0.175238
21
0.893102
0
LINE
8
BLACK
6
CONTINUOUS
10
0.175238
20
0.893102
11
0.174547
21
0.895
0
LINE
8
BLACK
6
CONTINUOUS
10
0.174547
20
0.895
11
0.174547
21
0.955
0
LINE
8
BLACK
6
CONTINUOUS
10
0.174547
20
0.955
11
0.174725
21
0.95601
0
LINE
8
BLACK
6
CONTINUOUS
10
0.174725
20
0.95601
11
0.176024
21
0.957557
0
LINE
8
BLACK
6
CONTINUOUS
10
0.176024
20
0.957557
11
0.178013
21
0.957908
0
LINE
8
BLACK
6
CONTINUOUS
10
0.178013
20
0.957908
11
0.179762
21
0.956898
0
LINE
8
BLACK
6
CONTINUOUS
10
0.299762
20
0.956898
11
0.300453
21
0.955
0
LINE
8
BLACK
6
CONTINUOUS
10
0.300453
20
0.955
11
0.300453
21
0.895
0
LINE
8
BLACK
6
CONTINUOUS
10
0.300453
20
0.895
11
0.300275
21
0.89399
0
LINE
8
BLACK
6
CONTINUOUS
10
0.300275
20
0.89399
11
0.298976
21
0.892443
0
LINE
8
BLACK
6
CONTINUOUS
10
0.298976
20
0.892443
11
0.296987
21
0.892092
0
LINE
8
BLACK
6
CONTINUOUS
10
0.296987
20
0.892092
11
0.295238
21
0.893102
0
LINE
8
BLACK
6
CONTINUOUS
10
0.295238
20
0.893102
11
0.294547
21
0.895
0
LINE
8
BLACK
6
CONTINUOUS
10
0.294547
20
0.895
11
0.294547
21
0.955
0
LINE
8
BLACK
6
CONTINUOUS
10
0.294547
20
0.955
11
0.294725
21
0.95601
0
LINE
8
BLACK
6
CONTINUOUS
10
0.294725
20
0.95601
11
0.296024
21
0.957557
0
LINE
8
BLACK
6
CONTINUOUS
10
0.296024
20
0.957557
11
0.298013
21
0.957908
0
LINE
8
BLACK
6
CONTINUOUS
10
0.298013
20
0.957908
11
0.299762
21
0.956898
0
LINE
8
BLACK
6
CONTINUOUS
10
0.25417
20
0.89667
11
0.254862
21
0.895
0
LINE
8
BLACK
6
CONTINUOUS
10
0.254862
20
0.895
11
0.25417
21
0.89333
0
LINE
8
BLACK
6
CONTINUOUS
10
0.25417
20
0.89333
11
0.2525
21
0.892638
0
LINE
8
BLACK
6
CONTINUOUS
10
0.2525
20
0.892638
11
0.2225
21
0.892638
0
LINE
8
BLACK
6
CONTINUOUS
10
0.2225
20
0.892638
11
0.22083
21
0.89333
0
LINE
8
BLACK
6
CONTINUOUS
10
0.22083
20
0.89333
11
0.220138
21
0.895
0
LINE
8
BLACK
6
CONTINUOUS
10
0.220138
20
0.895
11
0.22083
21
0.89667
0
LINE
8
BLACK
6
CONTINUOUS
10
0.22083
20
0.89667
11
0.2225
21
0.897362
0
LINE
8
BLACK
6
CONTINUOUS
10
0.2225
20
0.897362
11
0.2525
21
0.897362
0
LINE
8
BLACK
6
CONTINUOUS
10
0.2525
20
0.897362
11
0.25417
21
0.89667
0
LINE
8
BLACK
6
CONTINUOUS
10
0.25417
20
0.95667
11
0.254862
21
0.955
0
LINE
8
BLACK
6
CONTINUOUS
10
0.254862
20
0.955
11
0.25417
21
0.95333
0
LINE
8
BLACK
6
CONTINUOUS
10
0.25417
20
0.95333
11
0.2525
21
0.952638
0
LINE
8
BLACK
6
CONTINUOUS
10
0.2525
20
0.952638
11
0.2225
21
0.952638
0
LINE
8
BLACK
6
CONTINUOUS
10
0.2225
20
0.952638
11
0.22083
21
0.95333
0
LINE
8
BLACK
6
CONTINUOUS
10
0.22083
20
0.95333
11
0.220138
21
0.955
0
LINE
8
BLACK
6
CONTINUOUS
10
0.220138
20
0.955
11
0.22083
21
0.95667
0
LINE
8
BLACK
6
CONTINUOUS
10
0.22083
20
0.95667
11
0.2225
21
0.957362
0
LINE
8
BLACK
6
CONTINUOUS
10
0.2225
20
0.957362
11
0.2525
21
0.957362
0
LINE
8
BLACK
6
CONTINUOUS
10
0.2525
20
0.957362
11
0.25417
21
0.95667
0
CIRCLE
8
BLACK
10
0
20
0
40
0.00688976
0
CIRCLE
8
BLACK
10
0.41
20
0.345
40
0.00688976
0
CIRCLE
8
BLACK
10
0.41
20
0.443425
40
0.00688976
0
CIRCLE
8
BLACK
10
0.33126
20
0.443425
40
0.00688976
0
CIRCLE
8
BLACK
10
0.33126
20
0.345
40
0.00688976
0
CIRCLE
8
BLACK
10
0.224567
20
0.157205
40
0.00688976
0
CIRCLE
8
BLACK
10
0.224567
20
0.63122
40
0.00688976
0
CIRCLE
8
BLACK
10
1.15
20
0.2
40
0.00688976
0
CIRCLE
8
BLACK
10
1.25
20
0.2
40
0.00688976
0
CIRCLE
8
BLACK
10
1.15
20
0.5
40
0.00688976
0
CIRCLE
8
BLACK
10
1.25
20
0.5
40
0.00688976
0
CIRCLE
8
BLACK
10
1.15
20
0.6
40
0.00688976
0
CIRCLE
8
BLACK
10
1.25
20
0.6
40
0.00688976
0
CIRCLE
8
BLACK
10
0.6
20
0.75
40
0.00688976
0
CIRCLE
8
BLACK
10
0.6
20
0.85
40
0.00688976
0
CIRCLE
8
BLACK
10
1.2
20
0
40
0.00688976
0
CIRCLE
8
BLACK
10
0.8
20
-0.05
40
0.00688976
0
CIRCLE
8
BLACK
10
0.8
20
0.05
40
0.00688976
0
CIRCLE
8
BLACK
10
0.9
20
-0.05
40
0.00688976
0
CIRCLE
8
BLACK
10
0.9
20
0.05
40
0.00688976
0
CIRCLE
8
BLACK
10
1
20
-0.05
40
0.00688976
0
CIRCLE
8
BLACK
10
1
20
0.05
40
0.00688976
0
CIRCLE
8
BLACK
10
0.4
20
0.85
40
0.00688976
0
CIRCLE
8
BLACK
10
0.5
20
0.85
40
0.00688976
0
CIRCLE
8
BLACK
10
1.15
20
0.4
40
0.00688976
0
CIRCLE
8
BLACK
10
1.25
20
0.4
40
0.00688976
0
CIRCLE
8
BLACK
10
0.4
20
0.75
40
0.00688976
0
CIRCLE
8
BLACK
10
0.7
20
0.75
40
0.00688976
0
CIRCLE
8
BLACK
10
0.7
20
0.85
40
0.00688976
0
CIRCLE
8
BLACK
10
1.2
20
0.8
40
0.00688976
0
CIRCLE
8
BLACK
10
1.15
20
0.3
40
0.00688976
0
CIRCLE
8
BLACK
10
1.25
20
0.3
40
0.00688976
0
CIRCLE
8
BLACK
10
0
20
0.8
40
0.00688976
0
CIRCLE
8
BLACK
10
0.5
20
0.75
40
0.00688976
0
CIRCLE
8
BLACK
10
1
20
0.75
40
0.00688976
0
CIRCLE
8
BLACK
10
1
20
0.85
40
0.00688976
0
CIRCLE
8
BLACK
10
0.8
20
0.75
40
0.00688976
0
CIRCLE
8
BLACK
10
0.8
20
0.85
40
0.00688976
0
CIRCLE
8
BLACK
10
0.9
20
0.75
40
0.00688976
0
CIRCLE
8
BLACK
10
0.9
20
0.85
40
0.00688976
0
CIRCLE
8
BLACK
10
0.45
20
-0.05
40
0.00688976
0
CIRCLE
8
BLACK
10
0.45
20
0.05
40
0.00688976
0
CIRCLE
8
BLACK
10
0.55
20
-0.05
40
0.00688976
0
CIRCLE
8
BLACK
10
0.55
20
0.05
40
0.00688976
0
CIRCLE
8
BLACK
10
0.65
20
-0.05
40
0.00688976
0
CIRCLE
8
BLACK
10
0.65
20
0.05
40
0.00688976
0
CIRCLE
8
BLACK
10
0.25
20
0.8
40
0.00688976
0
CIRCLE
8
BLACK
10
0.25
20
0
40
0.00688976
  0
ENDSEC
  0
EOF
