  0
SECTION
  2
HEADER
  9
$ANGBASE
  50
0.0
  9
$ANGDIR
  70
1
  9
$MEASUREMENT
  70
0
  0
ENDSEC
  0
SECTION
  2
TABLES
  0
TABLE
  2
LTYPE
  70
4
  0
LTYPE
  5
40F
  2
CONTINUOUS
  70
0
  3
Solid line
  72
65
  73
0
  40
0.0
  0
LTYPE
  5
410
  2
DASHDOT
 70
0
  3
Dash Dot ____ _ ____ _
 72
65
 73
4
 40
2.0
 49
1.25
 49
-0.25
 49
0.25
 49
-0.25
  0
LTYPE
  5
411
  2
DASHED
 70
0
  3
Dashed __ __ __ __ __
 72
65
 73
2
 40
0.75
 49
0.5
 49
-0.25
  0
LTYPE
  5
43B
  2
DOTTED
 70
0
  3
Dotted .  .  .  .
 72
65
 73
2
 40
0.2
 49
0.0
 49
-0.2
  0
ENDTAB
  0
TABLE
  2
STYLE
  70
4
  0
STYLE
  2
KICAD
  70
0
  40
0
  41
1
  42
1
  50
0
  71
0
  3
isocp.shx
  0
STYLE
  2
KICADB
  70
0
  40
0
  41
1
  42
1
  50
0
  71
0
  3
isocp.shx
  0
STYLE
  2
KICADI
  70
0
  40
0
  41
1
  42
1
  50
15
  71
0
  3
isocp.shx
  0
STYLE
  2
KICADBI
  70
0
  40
0
  41
1
  42
1
  50
15
  71
0
  3
isocp.shx
  0
ENDTAB
  0
TABLE
  2
LAYER
  70
1
  0
LAYER
  2
BLACK
  70
0
  62
7
  6
CONTINUOUS
  0
ENDTAB
  0
ENDSEC
  0
SECTION
  2
ENTITIES
0
LINE
8
BLACK
6
CONTINUOUS
10
0.252108
20
-0.0804222
11
0.254662
21
-0.0821291
0
LINE
8
BLACK
6
CONTINUOUS
10
0.254662
20
-0.0821291
11
0.256369
21
-0.0846836
0
LINE
8
BLACK
6
CONTINUOUS
10
0.256369
20
-0.0846836
11
0.256969
21
-0.0876969
0
LINE
8
BLACK
6
CONTINUOUS
10
0.256969
20
-0.0876969
11
0.256969
21
-0.142697
0
LINE
8
BLACK
6
CONTINUOUS
10
0.256969
20
-0.142697
11
0.256369
21
-0.14571
0
LINE
8
BLACK
6
CONTINUOUS
10
0.256369
20
-0.14571
11
0.254662
21
-0.148265
0
LINE
8
BLACK
6
CONTINUOUS
10
0.254662
20
-0.148265
11
0.252108
21
-0.149971
0
LINE
8
BLACK
6
CONTINUOUS
10
0.252108
20
-0.149971
11
0.249094
21
-0.150571
0
LINE
8
BLACK
6
CONTINUOUS
10
0.249094
20
-0.150571
11
0.214094
21
-0.150571
0
LINE
8
BLACK
6
CONTINUOUS
10
0.214094
20
-0.150571
11
0.211081
21
-0.149971
0
LINE
8
BLACK
6
CONTINUOUS
10
0.211081
20
-0.149971
11
0.208527
21
-0.148265
0
LINE
8
BLACK
6
CONTINUOUS
10
0.208527
20
-0.148265
11
0.20682
21
-0.14571
0
LINE
8
BLACK
6
CONTINUOUS
10
0.20682
20
-0.14571
11
0.20622
21
-0.142697
0
LINE
8
BLACK
6
CONTINUOUS
10
0.20622
20
-0.142697
11
0.20622
21
-0.0876969
0
LINE
8
BLACK
6
CONTINUOUS
10
0.20622
20
-0.0876969
11
0.20682
21
-0.0846836
0
LINE
8
BLACK
6
CONTINUOUS
10
0.20682
20
-0.0846836
11
0.208527
21
-0.0821291
0
LINE
8
BLACK
6
CONTINUOUS
10
0.208527
20
-0.0821291
11
0.211081
21
-0.0804222
0
LINE
8
BLACK
6
CONTINUOUS
10
0.211081
20
-0.0804222
11
0.214094
21
-0.0798228
0
LINE
8
BLACK
6
CONTINUOUS
10
0.214094
20
-0.0798228
11
0.249094
21
-0.0798228
0
LINE
8
BLACK
6
CONTINUOUS
10
0.249094
20
-0.0798228
11
0.252108
21
-0.0804222
0
LINE
8
BLACK
6
CONTINUOUS
10
0.327108
20
-0.0804222
11
0.329662
21
-0.0821291
0
LINE
8
BLACK
6
CONTINUOUS
10
0.329662
20
-0.0821291
11
0.331369
21
-0.0846836
0
LINE
8
BLACK
6
CONTINUOUS
10
0.331369
20
-0.0846836
11
0.331969
21
-0.0876969
0
LINE
8
BLACK
6
CONTINUOUS
10
0.331969
20
-0.0876969
11
0.331969
21
-0.142697
0
LINE
8
BLACK
6
CONTINUOUS
10
0.331969
20
-0.142697
11
0.331369
21
-0.14571
0
LINE
8
BLACK
6
CONTINUOUS
10
0.331369
20
-0.14571
11
0.329662
21
-0.148265
0
LINE
8
BLACK
6
CONTINUOUS
10
0.329662
20
-0.148265
11
0.327108
21
-0.149971
0
LINE
8
BLACK
6
CONTINUOUS
10
0.327108
20
-0.149971
11
0.324094
21
-0.150571
0
LINE
8
BLACK
6
CONTINUOUS
10
0.324094
20
-0.150571
11
0.289094
21
-0.150571
0
LINE
8
BLACK
6
CONTINUOUS
10
0.289094
20
-0.150571
11
0.286081
21
-0.149971
0
LINE
8
BLACK
6
CONTINUOUS
10
0.286081
20
-0.149971
11
0.283527
21
-0.148265
0
LINE
8
BLACK
6
CONTINUOUS
10
0.283527
20
-0.148265
11
0.28182
21
-0.14571
0
LINE
8
BLACK
6
CONTINUOUS
10
0.28182
20
-0.14571
11
0.28122
21
-0.142697
0
LINE
8
BLACK
6
CONTINUOUS
10
0.28122
20
-0.142697
11
0.28122
21
-0.0876969
0
LINE
8
BLACK
6
CONTINUOUS
10
0.28122
20
-0.0876969
11
0.28182
21
-0.0846836
0
LINE
8
BLACK
6
CONTINUOUS
10
0.28182
20
-0.0846836
11
0.283527
21
-0.0821291
0
LINE
8
BLACK
6
CONTINUOUS
10
0.283527
20
-0.0821291
11
0.286081
21
-0.0804222
0
LINE
8
BLACK
6
CONTINUOUS
10
0.286081
20
-0.0804222
11
0.289094
21
-0.0798228
0
LINE
8
BLACK
6
CONTINUOUS
10
0.289094
20
-0.0798228
11
0.324094
21
-0.0798228
0
LINE
8
BLACK
6
CONTINUOUS
10
0.324094
20
-0.0798228
11
0.327108
21
-0.0804222
0
LINE
8
BLACK
6
CONTINUOUS
10
0.0141057
20
0.125192
11
0.0280341
21
0.122826
0
LINE
8
BLACK
6
CONTINUOUS
10
0.0280341
20
0.122826
11
0.04161
21
0.118914
0
LINE
8
BLACK
6
CONTINUOUS
10
0.04161
20
0.118914
11
0.0546625
21
0.113508
0
LINE
8
BLACK
6
CONTINUOUS
10
0.0546625
20
0.113508
11
0.0670277
21
0.106674
0
LINE
8
BLACK
6
CONTINUOUS
10
0.0670277
20
0.106674
11
0.0785499
21
0.0984985
0
LINE
8
BLACK
6
CONTINUOUS
10
0.0785499
20
0.0984985
11
0.0890843
21
0.0890843
0
LINE
8
BLACK
6
CONTINUOUS
10
0.0890843
20
0.0890843
11
0.0984985
21
0.0785499
0
LINE
8
BLACK
6
CONTINUOUS
10
0.0984985
20
0.0785499
11
0.106674
21
0.0670277
0
LINE
8
BLACK
6
CONTINUOUS
10
0.106674
20
0.0670277
11
0.113508
21
0.0546625
0
LINE
8
BLACK
6
CONTINUOUS
10
0.113508
20
0.0546625
11
0.118914
21
0.04161
0
LINE
8
BLACK
6
CONTINUOUS
10
0.118914
20
0.04161
11
0.122826
21
0.0280341
0
LINE
8
BLACK
6
CONTINUOUS
10
0.122826
20
0.0280341
11
0.125192
21
0.0141057
0
LINE
8
BLACK
6
CONTINUOUS
10
0.125192
20
0.0141057
11
0.125984
21
0
0
LINE
8
BLACK
6
CONTINUOUS
10
0.125984
20
0
11
0.125192
21
-0.0141057
0
LINE
8
BLACK
6
CONTINUOUS
10
0.125192
20
-0.0141057
11
0.122826
21
-0.0280341
0
LINE
8
BLACK
6
CONTINUOUS
10
0.122826
20
-0.0280341
11
0.118914
21
-0.04161
0
LINE
8
BLACK
6
CONTINUOUS
10
0.118914
20
-0.04161
11
0.113508
21
-0.0546625
0
LINE
8
BLACK
6
CONTINUOUS
10
0.113508
20
-0.0546625
11
0.106674
21
-0.0670277
0
LINE
8
BLACK
6
CONTINUOUS
10
0.106674
20
-0.0670277
11
0.0984985
21
-0.0785499
0
LINE
8
BLACK
6
CONTINUOUS
10
0.0984985
20
-0.0785499
11
0.0890843
21
-0.0890843
0
LINE
8
BLACK
6
CONTINUOUS
10
0.0890843
20
-0.0890843
11
0.0785499
21
-0.0984985
0
LINE
8
BLACK
6
CONTINUOUS
10
0.0785499
20
-0.0984985
11
0.0670277
21
-0.106674
0
LINE
8
BLACK
6
CONTINUOUS
10
0.0670277
20
-0.106674
11
0.0546625
21
-0.113508
0
LINE
8
BLACK
6
CONTINUOUS
10
0.0546625
20
-0.113508
11
0.04161
21
-0.118914
0
LINE
8
BLACK
6
CONTINUOUS
10
0.04161
20
-0.118914
11
0.0280341
21
-0.122826
0
LINE
8
BLACK
6
CONTINUOUS
10
0.0280341
20
-0.122826
11
0.0141057
21
-0.125192
0
LINE
8
BLACK
6
CONTINUOUS
10
0.0141057
20
-0.125192
11
0
21
-0.125984
0
LINE
8
BLACK
6
CONTINUOUS
10
0
20
-0.125984
11
-0.0141057
21
-0.125192
0
LINE
8
BLACK
6
CONTINUOUS
10
-0.0141057
20
-0.125192
11
-0.0280341
21
-0.122826
0
LINE
8
BLACK
6
CONTINUOUS
10
-0.0280341
20
-0.122826
11
-0.04161
21
-0.118914
0
LINE
8
BLACK
6
CONTINUOUS
10
-0.04161
20
-0.118914
11
-0.0546625
21
-0.113508
0
LINE
8
BLACK
6
CONTINUOUS
10
-0.0546625
20
-0.113508
11
-0.0670277
21
-0.106674
0
LINE
8
BLACK
6
CONTINUOUS
10
-0.0670277
20
-0.106674
11
-0.0785499
21
-0.0984985
0
LINE
8
BLACK
6
CONTINUOUS
10
-0.0785499
20
-0.0984985
11
-0.0890843
21
-0.0890843
0
LINE
8
BLACK
6
CONTINUOUS
10
-0.0890843
20
-0.0890843
11
-0.0984985
21
-0.0785499
0
LINE
8
BLACK
6
CONTINUOUS
10
-0.0984985
20
-0.0785499
11
-0.106674
21
-0.0670277
0
LINE
8
BLACK
6
CONTINUOUS
10
-0.106674
20
-0.0670277
11
-0.113508
21
-0.0546625
0
LINE
8
BLACK
6
CONTINUOUS
10
-0.113508
20
-0.0546625
11
-0.118914
21
-0.04161
0
LINE
8
BLACK
6
CONTINUOUS
10
-0.118914
20
-0.04161
11
-0.122826
21
-0.0280341
0
LINE
8
BLACK
6
CONTINUOUS
10
-0.122826
20
-0.0280341
11
-0.125192
21
-0.0141057
0
LINE
8
BLACK
6
CONTINUOUS
10
-0.125192
20
-0.0141057
11
-0.125984
21
0
0
LINE
8
BLACK
6
CONTINUOUS
10
-0.125984
20
0
11
-0.125192
21
0.0141057
0
LINE
8
BLACK
6
CONTINUOUS
10
-0.125192
20
0.0141057
11
-0.122826
21
0.0280341
0
LINE
8
BLACK
6
CONTINUOUS
10
-0.122826
20
0.0280341
11
-0.118914
21
0.04161
0
LINE
8
BLACK
6
CONTINUOUS
10
-0.118914
20
0.04161
11
-0.113508
21
0.0546625
0
LINE
8
BLACK
6
CONTINUOUS
10
-0.113508
20
0.0546625
11
-0.106674
21
0.0670277
0
LINE
8
BLACK
6
CONTINUOUS
10
-0.106674
20
0.0670277
11
-0.0984985
21
0.0785499
0
LINE
8
BLACK
6
CONTINUOUS
10
-0.0984985
20
0.0785499
11
-0.0890843
21
0.0890843
0
LINE
8
BLACK
6
CONTINUOUS
10
-0.0890843
20
0.0890843
11
-0.0785499
21
0.0984985
0
LINE
8
BLACK
6
CONTINUOUS
10
-0.0785499
20
0.0984985
11
-0.0670277
21
0.106674
0
LINE
8
BLACK
6
CONTINUOUS
10
-0.0670277
20
0.106674
11
-0.0546625
21
0.113508
0
LINE
8
BLACK
6
CONTINUOUS
10
-0.0546625
20
0.113508
11
-0.04161
21
0.118914
0
LINE
8
BLACK
6
CONTINUOUS
10
-0.04161
20
0.118914
11
-0.0280341
21
0.122826
0
LINE
8
BLACK
6
CONTINUOUS
10
-0.0280341
20
0.122826
11
-0.0141057
21
0.125192
0
LINE
8
BLACK
6
CONTINUOUS
10
-0.0141057
20
0.125192
11
0
21
0.125984
0
LINE
8
BLACK
6
CONTINUOUS
10
0
20
0.125984
11
0.0141057
21
0.125192
0
LINE
8
BLACK
6
CONTINUOUS
10
1.21411
20
0.125192
11
1.22803
21
0.122826
0
LINE
8
BLACK
6
CONTINUOUS
10
1.22803
20
0.122826
11
1.24161
21
0.118914
0
LINE
8
BLACK
6
CONTINUOUS
10
1.24161
20
0.118914
11
1.25466
21
0.113508
0
LINE
8
BLACK
6
CONTINUOUS
10
1.25466
20
0.113508
11
1.26703
21
0.106674
0
LINE
8
BLACK
6
CONTINUOUS
10
1.26703
20
0.106674
11
1.27855
21
0.0984985
0
LINE
8
BLACK
6
CONTINUOUS
10
1.27855
20
0.0984985
11
1.28908
21
0.0890843
0
LINE
8
BLACK
6
CONTINUOUS
10
1.28908
20
0.0890843
11
1.2985
21
0.0785499
0
LINE
8
BLACK
6
CONTINUOUS
10
1.2985
20
0.0785499
11
1.30667
21
0.0670277
0
LINE
8
BLACK
6
CONTINUOUS
10
1.30667
20
0.0670277
11
1.31351
21
0.0546625
0
LINE
8
BLACK
6
CONTINUOUS
10
1.31351
20
0.0546625
11
1.31891
21
0.04161
0
LINE
8
BLACK
6
CONTINUOUS
10
1.31891
20
0.04161
11
1.32283
21
0.0280341
0
LINE
8
BLACK
6
CONTINUOUS
10
1.32283
20
0.0280341
11
1.32519
21
0.0141057
0
LINE
8
BLACK
6
CONTINUOUS
10
1.32519
20
0.0141057
11
1.32598
21
0
0
LINE
8
BLACK
6
CONTINUOUS
10
1.32598
20
0
11
1.32519
21
-0.0141057
0
LINE
8
BLACK
6
CONTINUOUS
10
1.32519
20
-0.0141057
11
1.32283
21
-0.0280341
0
LINE
8
BLACK
6
CONTINUOUS
10
1.32283
20
-0.0280341
11
1.31891
21
-0.04161
0
LINE
8
BLACK
6
CONTINUOUS
10
1.31891
20
-0.04161
11
1.31351
21
-0.0546625
0
LINE
8
BLACK
6
CONTINUOUS
10
1.31351
20
-0.0546625
11
1.30667
21
-0.0670277
0
LINE
8
BLACK
6
CONTINUOUS
10
1.30667
20
-0.0670277
11
1.2985
21
-0.0785499
0
LINE
8
BLACK
6
CONTINUOUS
10
1.2985
20
-0.0785499
11
1.28908
21
-0.0890843
0
LINE
8
BLACK
6
CONTINUOUS
10
1.28908
20
-0.0890843
11
1.27855
21
-0.0984985
0
LINE
8
BLACK
6
CONTINUOUS
10
1.27855
20
-0.0984985
11
1.26703
21
-0.106674
0
LINE
8
BLACK
6
CONTINUOUS
10
1.26703
20
-0.106674
11
1.25466
21
-0.113508
0
LINE
8
BLACK
6
CONTINUOUS
10
1.25466
20
-0.113508
11
1.24161
21
-0.118914
0
LINE
8
BLACK
6
CONTINUOUS
10
1.24161
20
-0.118914
11
1.22803
21
-0.122826
0
LINE
8
BLACK
6
CONTINUOUS
10
1.22803
20
-0.122826
11
1.21411
21
-0.125192
0
LINE
8
BLACK
6
CONTINUOUS
10
1.21411
20
-0.125192
11
1.2
21
-0.125984
0
LINE
8
BLACK
6
CONTINUOUS
10
1.2
20
-0.125984
11
1.18589
21
-0.125192
0
LINE
8
BLACK
6
CONTINUOUS
10
1.18589
20
-0.125192
11
1.17197
21
-0.122826
0
LINE
8
BLACK
6
CONTINUOUS
10
1.17197
20
-0.122826
11
1.15839
21
-0.118914
0
LINE
8
BLACK
6
CONTINUOUS
10
1.15839
20
-0.118914
11
1.14534
21
-0.113508
0
LINE
8
BLACK
6
CONTINUOUS
10
1.14534
20
-0.113508
11
1.13297
21
-0.106674
0
LINE
8
BLACK
6
CONTINUOUS
10
1.13297
20
-0.106674
11
1.12145
21
-0.0984985
0
LINE
8
BLACK
6
CONTINUOUS
10
1.12145
20
-0.0984985
11
1.11092
21
-0.0890843
0
LINE
8
BLACK
6
CONTINUOUS
10
1.11092
20
-0.0890843
11
1.1015
21
-0.0785499
0
LINE
8
BLACK
6
CONTINUOUS
10
1.1015
20
-0.0785499
11
1.09333
21
-0.0670277
0
LINE
8
BLACK
6
CONTINUOUS
10
1.09333
20
-0.0670277
11
1.08649
21
-0.0546625
0
LINE
8
BLACK
6
CONTINUOUS
10
1.08649
20
-0.0546625
11
1.08109
21
-0.04161
0
LINE
8
BLACK
6
CONTINUOUS
10
1.08109
20
-0.04161
11
1.07717
21
-0.0280341
0
LINE
8
BLACK
6
CONTINUOUS
10
1.07717
20
-0.0280341
11
1.07481
21
-0.0141057
0
LINE
8
BLACK
6
CONTINUOUS
10
1.07481
20
-0.0141057
11
1.07402
21
0
0
LINE
8
BLACK
6
CONTINUOUS
10
1.07402
20
0
11
1.07481
21
0.0141057
0
LINE
8
BLACK
6
CONTINUOUS
10
1.07481
20
0.0141057
11
1.07717
21
0.0280341
0
LINE
8
BLACK
6
CONTINUOUS
10
1.07717
20
0.0280341
11
1.08109
21
0.04161
0
LINE
8
BLACK
6
CONTINUOUS
10
1.08109
20
0.04161
11
1.08649
21
0.0546625
0
LINE
8
BLACK
6
CONTINUOUS
10
1.08649
20
0.0546625
11
1.09333
21
0.0670277
0
LINE
8
BLACK
6
CONTINUOUS
10
1.09333
20
0.0670277
11
1.1015
21
0.0785499
0
LINE
8
BLACK
6
CONTINUOUS
10
1.1015
20
0.0785499
11
1.11092
21
0.0890843
0
LINE
8
BLACK
6
CONTINUOUS
10
1.11092
20
0.0890843
11
1.12145
21
0.0984985
0
LINE
8
BLACK
6
CONTINUOUS
10
1.12145
20
0.0984985
11
1.13297
21
0.106674
0
LINE
8
BLACK
6
CONTINUOUS
10
1.13297
20
0.106674
11
1.14534
21
0.113508
0
LINE
8
BLACK
6
CONTINUOUS
10
1.14534
20
0.113508
11
1.15839
21
0.118914
0
LINE
8
BLACK
6
CONTINUOUS
10
1.15839
20
0.118914
11
1.17197
21
0.122826
0
LINE
8
BLACK
6
CONTINUOUS
10
1.17197
20
0.122826
11
1.18589
21
0.125192
0
LINE
8
BLACK
6
CONTINUOUS
10
1.18589
20
0.125192
11
1.2
21
0.125984
0
LINE
8
BLACK
6
CONTINUOUS
10
1.2
20
0.125984
11
1.21411
21
0.125192
0
LINE
8
BLACK
6
CONTINUOUS
10
0.483013
20
-0.0127254
11
0.485568
21
-0.0144322
0
LINE
8
BLACK
6
CONTINUOUS
10
0.485568
20
-0.0144322
11
0.487275
21
-0.0169867
0
LINE
8
BLACK
6
CONTINUOUS
10
0.487275
20
-0.0169867
11
0.487874
21
-0.02
0
LINE
8
BLACK
6
CONTINUOUS
10
0.487874
20
-0.02
11
0.487874
21
-0.08
0
LINE
8
BLACK
6
CONTINUOUS
10
0.487874
20
-0.08
11
0.487275
21
-0.0830133
0
LINE
8
BLACK
6
CONTINUOUS
10
0.487275
20
-0.0830133
11
0.485568
21
-0.0855678
0
LINE
8
BLACK
6
CONTINUOUS
10
0.485568
20
-0.0855678
11
0.483013
21
-0.0872746
0
LINE
8
BLACK
6
CONTINUOUS
10
0.483013
20
-0.0872746
11
0.48
21
-0.087874
0
LINE
8
BLACK
6
CONTINUOUS
10
0.48
20
-0.087874
11
0.42
21
-0.087874
0
LINE
8
BLACK
6
CONTINUOUS
10
0.42
20
-0.087874
11
0.416987
21
-0.0872746
0
LINE
8
BLACK
6
CONTINUOUS
10
0.416987
20
-0.0872746
11
0.414432
21
-0.0855678
0
LINE
8
BLACK
6
CONTINUOUS
10
0.414432
20
-0.0855678
11
0.412725
21
-0.0830133
0
LINE
8
BLACK
6
CONTINUOUS
10
0.412725
20
-0.0830133
11
0.412126
21
-0.08
0
LINE
8
BLACK
6
CONTINUOUS
10
0.412126
20
-0.08
11
0.412126
21
-0.02
0
LINE
8
BLACK
6
CONTINUOUS
10
0.412126
20
-0.02
11
0.412725
21
-0.0169867
0
LINE
8
BLACK
6
CONTINUOUS
10
0.412725
20
-0.0169867
11
0.414432
21
-0.0144322
0
LINE
8
BLACK
6
CONTINUOUS
10
0.414432
20
-0.0144322
11
0.416987
21
-0.0127254
0
LINE
8
BLACK
6
CONTINUOUS
10
0.416987
20
-0.0127254
11
0.42
21
-0.012126
0
LINE
8
BLACK
6
CONTINUOUS
10
0.42
20
-0.012126
11
0.48
21
-0.012126
0
LINE
8
BLACK
6
CONTINUOUS
10
0.48
20
-0.012126
11
0.483013
21
-0.0127254
0
LINE
8
BLACK
6
CONTINUOUS
10
0.583013
20
-0.0127254
11
0.585568
21
-0.0144322
0
LINE
8
BLACK
6
CONTINUOUS
10
0.585568
20
-0.0144322
11
0.587275
21
-0.0169867
0
LINE
8
BLACK
6
CONTINUOUS
10
0.587275
20
-0.0169867
11
0.587874
21
-0.02
0
LINE
8
BLACK
6
CONTINUOUS
10
0.587874
20
-0.02
11
0.587874
21
-0.08
0
LINE
8
BLACK
6
CONTINUOUS
10
0.587874
20
-0.08
11
0.587275
21
-0.0830133
0
LINE
8
BLACK
6
CONTINUOUS
10
0.587275
20
-0.0830133
11
0.585568
21
-0.0855678
0
LINE
8
BLACK
6
CONTINUOUS
10
0.585568
20
-0.0855678
11
0.583013
21
-0.0872746
0
LINE
8
BLACK
6
CONTINUOUS
10
0.583013
20
-0.0872746
11
0.58
21
-0.087874
0
LINE
8
BLACK
6
CONTINUOUS
10
0.58
20
-0.087874
11
0.52
21
-0.087874
0
LINE
8
BLACK
6
CONTINUOUS
10
0.52
20
-0.087874
11
0.516987
21
-0.0872746
0
LINE
8
BLACK
6
CONTINUOUS
10
0.516987
20
-0.0872746
11
0.514432
21
-0.0855678
0
LINE
8
BLACK
6
CONTINUOUS
10
0.514432
20
-0.0855678
11
0.512725
21
-0.0830133
0
LINE
8
BLACK
6
CONTINUOUS
10
0.512725
20
-0.0830133
11
0.512126
21
-0.08
0
LINE
8
BLACK
6
CONTINUOUS
10
0.512126
20
-0.08
11
0.512126
21
-0.02
0
LINE
8
BLACK
6
CONTINUOUS
10
0.512126
20
-0.02
11
0.512725
21
-0.0169867
0
LINE
8
BLACK
6
CONTINUOUS
10
0.512725
20
-0.0169867
11
0.514432
21
-0.0144322
0
LINE
8
BLACK
6
CONTINUOUS
10
0.514432
20
-0.0144322
11
0.516987
21
-0.0127254
0
LINE
8
BLACK
6
CONTINUOUS
10
0.516987
20
-0.0127254
11
0.52
21
-0.012126
0
LINE
8
BLACK
6
CONTINUOUS
10
0.52
20
-0.012126
11
0.58
21
-0.012126
0
LINE
8
BLACK
6
CONTINUOUS
10
0.58
20
-0.012126
11
0.583013
21
-0.0127254
0
LINE
8
BLACK
6
CONTINUOUS
10
0.683013
20
-0.0127254
11
0.685568
21
-0.0144322
0
LINE
8
BLACK
6
CONTINUOUS
10
0.685568
20
-0.0144322
11
0.687275
21
-0.0169867
0
LINE
8
BLACK
6
CONTINUOUS
10
0.687275
20
-0.0169867
11
0.687874
21
-0.02
0
LINE
8
BLACK
6
CONTINUOUS
10
0.687874
20
-0.02
11
0.687874
21
-0.08
0
LINE
8
BLACK
6
CONTINUOUS
10
0.687874
20
-0.08
11
0.687275
21
-0.0830133
0
LINE
8
BLACK
6
CONTINUOUS
10
0.687275
20
-0.0830133
11
0.685568
21
-0.0855678
0
LINE
8
BLACK
6
CONTINUOUS
10
0.685568
20
-0.0855678
11
0.683013
21
-0.0872746
0
LINE
8
BLACK
6
CONTINUOUS
10
0.683013
20
-0.0872746
11
0.68
21
-0.087874
0
LINE
8
BLACK
6
CONTINUOUS
10
0.68
20
-0.087874
11
0.62
21
-0.087874
0
LINE
8
BLACK
6
CONTINUOUS
10
0.62
20
-0.087874
11
0.616987
21
-0.0872746
0
LINE
8
BLACK
6
CONTINUOUS
10
0.616987
20
-0.0872746
11
0.614432
21
-0.0855678
0
LINE
8
BLACK
6
CONTINUOUS
10
0.614432
20
-0.0855678
11
0.612725
21
-0.0830133
0
LINE
8
BLACK
6
CONTINUOUS
10
0.612725
20
-0.0830133
11
0.612126
21
-0.08
0
LINE
8
BLACK
6
CONTINUOUS
10
0.612126
20
-0.08
11
0.612126
21
-0.02
0
LINE
8
BLACK
6
CONTINUOUS
10
0.612126
20
-0.02
11
0.612725
21
-0.0169867
0
LINE
8
BLACK
6
CONTINUOUS
10
0.612725
20
-0.0169867
11
0.614432
21
-0.0144322
0
LINE
8
BLACK
6
CONTINUOUS
10
0.614432
20
-0.0144322
11
0.616987
21
-0.0127254
0
LINE
8
BLACK
6
CONTINUOUS
10
0.616987
20
-0.0127254
11
0.62
21
-0.012126
0
LINE
8
BLACK
6
CONTINUOUS
10
0.62
20
-0.012126
11
0.68
21
-0.012126
0
LINE
8
BLACK
6
CONTINUOUS
10
0.68
20
-0.012126
11
0.683013
21
-0.0127254
0
LINE
8
BLACK
6
CONTINUOUS
10
0.833013
20
-0.0127254
11
0.835568
21
-0.0144322
0
LINE
8
BLACK
6
CONTINUOUS
10
0.835568
20
-0.0144322
11
0.837275
21
-0.0169867
0
LINE
8
BLACK
6
CONTINUOUS
10
0.837275
20
-0.0169867
11
0.837874
21
-0.02
0
LINE
8
BLACK
6
CONTINUOUS
10
0.837874
20
-0.02
11
0.837874
21
-0.08
0
LINE
8
BLACK
6
CONTINUOUS
10
0.837874
20
-0.08
11
0.837275
21
-0.0830133
0
LINE
8
BLACK
6
CONTINUOUS
10
0.837275
20
-0.0830133
11
0.835568
21
-0.0855678
0
LINE
8
BLACK
6
CONTINUOUS
10
0.835568
20
-0.0855678
11
0.833013
21
-0.0872746
0
LINE
8
BLACK
6
CONTINUOUS
10
0.833013
20
-0.0872746
11
0.83
21
-0.087874
0
LINE
8
BLACK
6
CONTINUOUS
10
0.83
20
-0.087874
11
0.77
21
-0.087874
0
LINE
8
BLACK
6
CONTINUOUS
10
0.77
20
-0.087874
11
0.766987
21
-0.0872746
0
LINE
8
BLACK
6
CONTINUOUS
10
0.766987
20
-0.0872746
11
0.764432
21
-0.0855678
0
LINE
8
BLACK
6
CONTINUOUS
10
0.764432
20
-0.0855678
11
0.762725
21
-0.0830133
0
LINE
8
BLACK
6
CONTINUOUS
10
0.762725
20
-0.0830133
11
0.762126
21
-0.08
0
LINE
8
BLACK
6
CONTINUOUS
10
0.762126
20
-0.08
11
0.762126
21
-0.02
0
LINE
8
BLACK
6
CONTINUOUS
10
0.762126
20
-0.02
11
0.762725
21
-0.0169867
0
LINE
8
BLACK
6
CONTINUOUS
10
0.762725
20
-0.0169867
11
0.764432
21
-0.0144322
0
LINE
8
BLACK
6
CONTINUOUS
10
0.764432
20
-0.0144322
11
0.766987
21
-0.0127254
0
LINE
8
BLACK
6
CONTINUOUS
10
0.766987
20
-0.0127254
11
0.77
21
-0.012126
0
LINE
8
BLACK
6
CONTINUOUS
10
0.77
20
-0.012126
11
0.83
21
-0.012126
0
LINE
8
BLACK
6
CONTINUOUS
10
0.83
20
-0.012126
11
0.833013
21
-0.0127254
0
LINE
8
BLACK
6
CONTINUOUS
10
0.933013
20
-0.0127254
11
0.935568
21
-0.0144322
0
LINE
8
BLACK
6
CONTINUOUS
10
0.935568
20
-0.0144322
11
0.937275
21
-0.0169867
0
LINE
8
BLACK
6
CONTINUOUS
10
0.937275
20
-0.0169867
11
0.937874
21
-0.02
0
LINE
8
BLACK
6
CONTINUOUS
10
0.937874
20
-0.02
11
0.937874
21
-0.08
0
LINE
8
BLACK
6
CONTINUOUS
10
0.937874
20
-0.08
11
0.937275
21
-0.0830133
0
LINE
8
BLACK
6
CONTINUOUS
10
0.937275
20
-0.0830133
11
0.935568
21
-0.0855678
0
LINE
8
BLACK
6
CONTINUOUS
10
0.935568
20
-0.0855678
11
0.933013
21
-0.0872746
0
LINE
8
BLACK
6
CONTINUOUS
10
0.933013
20
-0.0872746
11
0.93
21
-0.087874
0
LINE
8
BLACK
6
CONTINUOUS
10
0.93
20
-0.087874
11
0.87
21
-0.087874
0
LINE
8
BLACK
6
CONTINUOUS
10
0.87
20
-0.087874
11
0.866987
21
-0.0872746
0
LINE
8
BLACK
6
CONTINUOUS
10
0.866987
20
-0.0872746
11
0.864432
21
-0.0855678
0
LINE
8
BLACK
6
CONTINUOUS
10
0.864432
20
-0.0855678
11
0.862725
21
-0.0830133
0
LINE
8
BLACK
6
CONTINUOUS
10
0.862725
20
-0.0830133
11
0.862126
21
-0.08
0
LINE
8
BLACK
6
CONTINUOUS
10
0.862126
20
-0.08
11
0.862126
21
-0.02
0
LINE
8
BLACK
6
CONTINUOUS
10
0.862126
20
-0.02
11
0.862725
21
-0.0169867
0
LINE
8
BLACK
6
CONTINUOUS
10
0.862725
20
-0.0169867
11
0.864432
21
-0.0144322
0
LINE
8
BLACK
6
CONTINUOUS
10
0.864432
20
-0.0144322
11
0.866987
21
-0.0127254
0
LINE
8
BLACK
6
CONTINUOUS
10
0.866987
20
-0.0127254
11
0.87
21
-0.012126
0
LINE
8
BLACK
6
CONTINUOUS
10
0.87
20
-0.012126
11
0.93
21
-0.012126
0
LINE
8
BLACK
6
CONTINUOUS
10
0.93
20
-0.012126
11
0.933013
21
-0.0127254
0
LINE
8
BLACK
6
CONTINUOUS
10
1.03301
20
-0.0127254
11
1.03557
21
-0.0144322
0
LINE
8
BLACK
6
CONTINUOUS
10
1.03557
20
-0.0144322
11
1.03727
21
-0.0169867
0
LINE
8
BLACK
6
CONTINUOUS
10
1.03727
20
-0.0169867
11
1.03787
21
-0.02
0
LINE
8
BLACK
6
CONTINUOUS
10
1.03787
20
-0.02
11
1.03787
21
-0.08
0
LINE
8
BLACK
6
CONTINUOUS
10
1.03787
20
-0.08
11
1.03727
21
-0.0830133
0
LINE
8
BLACK
6
CONTINUOUS
10
1.03727
20
-0.0830133
11
1.03557
21
-0.0855678
0
LINE
8
BLACK
6
CONTINUOUS
10
1.03557
20
-0.0855678
11
1.03301
21
-0.0872746
0
LINE
8
BLACK
6
CONTINUOUS
10
1.03301
20
-0.0872746
11
1.03
21
-0.087874
0
LINE
8
BLACK
6
CONTINUOUS
10
1.03
20
-0.087874
11
0.97
21
-0.087874
0
LINE
8
BLACK
6
CONTINUOUS
10
0.97
20
-0.087874
11
0.966987
21
-0.0872746
0
LINE
8
BLACK
6
CONTINUOUS
10
0.966987
20
-0.0872746
11
0.964432
21
-0.0855678
0
LINE
8
BLACK
6
CONTINUOUS
10
0.964432
20
-0.0855678
11
0.962725
21
-0.0830133
0
LINE
8
BLACK
6
CONTINUOUS
10
0.962725
20
-0.0830133
11
0.962126
21
-0.08
0
LINE
8
BLACK
6
CONTINUOUS
10
0.962126
20
-0.08
11
0.962126
21
-0.02
0
LINE
8
BLACK
6
CONTINUOUS
10
0.962126
20
-0.02
11
0.962725
21
-0.0169867
0
LINE
8
BLACK
6
CONTINUOUS
10
0.962725
20
-0.0169867
11
0.964432
21
-0.0144322
0
LINE
8
BLACK
6
CONTINUOUS
10
0.964432
20
-0.0144322
11
0.966987
21
-0.0127254
0
LINE
8
BLACK
6
CONTINUOUS
10
0.966987
20
-0.0127254
11
0.97
21
-0.012126
0
LINE
8
BLACK
6
CONTINUOUS
10
0.97
20
-0.012126
11
1.03
21
-0.012126
0
LINE
8
BLACK
6
CONTINUOUS
10
1.03
20
-0.012126
11
1.03301
21
-0.0127254
0
LINE
8
BLACK
6
CONTINUOUS
10
0.259229
20
0.0523421
11
0.268178
21
0.0499443
0
LINE
8
BLACK
6
CONTINUOUS
10
0.268178
20
0.0499443
11
0.276575
21
0.0460289
0
LINE
8
BLACK
6
CONTINUOUS
10
0.276575
20
0.0460289
11
0.284164
21
0.040715
0
LINE
8
BLACK
6
CONTINUOUS
10
0.284164
20
0.040715
11
0.290715
21
0.0341639
0
LINE
8
BLACK
6
CONTINUOUS
10
0.290715
20
0.0341639
11
0.296029
21
0.0265748
0
LINE
8
BLACK
6
CONTINUOUS
10
0.296029
20
0.0265748
11
0.299944
21
0.0181782
0
LINE
8
BLACK
6
CONTINUOUS
10
0.299944
20
0.0181782
11
0.302342
21
0.00922933
0
LINE
8
BLACK
6
CONTINUOUS
10
0.302342
20
0.00922933
11
0.30315
21
0
0
LINE
8
BLACK
6
CONTINUOUS
10
0.30315
20
0
11
0.302342
21
-0.00922933
0
LINE
8
BLACK
6
CONTINUOUS
10
0.302342
20
-0.00922933
11
0.299944
21
-0.0181782
0
LINE
8
BLACK
6
CONTINUOUS
10
0.299944
20
-0.0181782
11
0.296029
21
-0.0265748
0
LINE
8
BLACK
6
CONTINUOUS
10
0.296029
20
-0.0265748
11
0.290715
21
-0.0341639
0
LINE
8
BLACK
6
CONTINUOUS
10
0.290715
20
-0.0341639
11
0.284164
21
-0.040715
0
LINE
8
BLACK
6
CONTINUOUS
10
0.284164
20
-0.040715
11
0.276575
21
-0.0460289
0
LINE
8
BLACK
6
CONTINUOUS
10
0.276575
20
-0.0460289
11
0.268178
21
-0.0499443
0
LINE
8
BLACK
6
CONTINUOUS
10
0.268178
20
-0.0499443
11
0.259229
21
-0.0523421
0
LINE
8
BLACK
6
CONTINUOUS
10
0.259229
20
-0.0523421
11
0.25
21
-0.0531496
0
LINE
8
BLACK
6
CONTINUOUS
10
0.25
20
-0.0531496
11
0.240771
21
-0.0523421
0
LINE
8
BLACK
6
CONTINUOUS
10
0.240771
20
-0.0523421
11
0.231822
21
-0.0499443
0
LINE
8
BLACK
6
CONTINUOUS
10
0.231822
20
-0.0499443
11
0.223425
21
-0.0460289
0
LINE
8
BLACK
6
CONTINUOUS
10
0.223425
20
-0.0460289
11
0.215836
21
-0.040715
0
LINE
8
BLACK
6
CONTINUOUS
10
0.215836
20
-0.040715
11
0.209285
21
-0.0341639
0
LINE
8
BLACK
6
CONTINUOUS
10
0.209285
20
-0.0341639
11
0.203971
21
-0.0265748
0
LINE
8
BLACK
6
CONTINUOUS
10
0.203971
20
-0.0265748
11
0.200056
21
-0.0181782
0
LINE
8
BLACK
6
CONTINUOUS
10
0.200056
20
-0.0181782
11
0.197658
21
-0.00922933
0
LINE
8
BLACK
6
CONTINUOUS
10
0.197658
20
-0.00922933
11
0.19685
21
0
0
LINE
8
BLACK
6
CONTINUOUS
10
0.19685
20
0
11
0.197658
21
0.00922933
0
LINE
8
BLACK
6
CONTINUOUS
10
0.197658
20
0.00922933
11
0.200056
21
0.0181782
0
LINE
8
BLACK
6
CONTINUOUS
10
0.200056
20
0.0181782
11
0.203971
21
0.0265748
0
LINE
8
BLACK
6
CONTINUOUS
10
0.203971
20
0.0265748
11
0.209285
21
0.0341639
0
LINE
8
BLACK
6
CONTINUOUS
10
0.209285
20
0.0341639
11
0.215836
21
0.040715
0
LINE
8
BLACK
6
CONTINUOUS
10
0.215836
20
0.040715
11
0.223425
21
0.0460289
0
LINE
8
BLACK
6
CONTINUOUS
10
0.223425
20
0.0460289
11
0.231822
21
0.0499443
0
LINE
8
BLACK
6
CONTINUOUS
10
0.231822
20
0.0499443
11
0.240771
21
0.0523421
0
LINE
8
BLACK
6
CONTINUOUS
10
0.240771
20
0.0523421
11
0.25
21
0.0531496
0
LINE
8
BLACK
6
CONTINUOUS
10
0.25
20
0.0531496
11
0.259229
21
0.0523421
0
LINE
8
BLACK
6
CONTINUOUS
10
0.190021
20
0.0368022
11
0.192576
21
0.0350953
0
LINE
8
BLACK
6
CONTINUOUS
10
0.192576
20
0.0350953
11
0.194283
21
0.0325408
0
LINE
8
BLACK
6
CONTINUOUS
10
0.194283
20
0.0325408
11
0.194882
21
0.0295276
0
LINE
8
BLACK
6
CONTINUOUS
10
0.194882
20
0.0295276
11
0.194882
21
-0.0295276
0
LINE
8
BLACK
6
CONTINUOUS
10
0.194882
20
-0.0295276
11
0.194283
21
-0.0325408
0
LINE
8
BLACK
6
CONTINUOUS
10
0.194283
20
-0.0325408
11
0.192576
21
-0.0350953
0
LINE
8
BLACK
6
CONTINUOUS
10
0.192576
20
-0.0350953
11
0.190021
21
-0.0368022
0
LINE
8
BLACK
6
CONTINUOUS
10
0.190021
20
-0.0368022
11
0.187008
21
-0.0374016
0
LINE
8
BLACK
6
CONTINUOUS
10
0.187008
20
-0.0374016
11
0.149606
21
-0.0374016
0
LINE
8
BLACK
6
CONTINUOUS
10
0.149606
20
-0.0374016
11
0.146593
21
-0.0368022
0
LINE
8
BLACK
6
CONTINUOUS
10
0.146593
20
-0.0368022
11
0.144039
21
-0.0350953
0
LINE
8
BLACK
6
CONTINUOUS
10
0.144039
20
-0.0350953
11
0.142332
21
-0.0325408
0
LINE
8
BLACK
6
CONTINUOUS
10
0.142332
20
-0.0325408
11
0.141732
21
-0.0295276
0
LINE
8
BLACK
6
CONTINUOUS
10
0.141732
20
-0.0295276
11
0.141732
21
0.0295276
0
LINE
8
BLACK
6
CONTINUOUS
10
0.141732
20
0.0295276
11
0.142332
21
0.0325408
0
LINE
8
BLACK
6
CONTINUOUS
10
0.142332
20
0.0325408
11
0.144039
21
0.0350953
0
LINE
8
BLACK
6
CONTINUOUS
10
0.144039
20
0.0350953
11
0.146593
21
0.0368022
0
LINE
8
BLACK
6
CONTINUOUS
10
0.146593
20
0.0368022
11
0.149606
21
0.0374016
0
LINE
8
BLACK
6
CONTINUOUS
10
0.149606
20
0.0374016
11
0.187008
21
0.0374016
0
LINE
8
BLACK
6
CONTINUOUS
10
0.187008
20
0.0374016
11
0.190021
21
0.0368022
0
LINE
8
BLACK
6
CONTINUOUS
10
0.353407
20
0.0368022
11
0.355961
21
0.0350953
0
LINE
8
BLACK
6
CONTINUOUS
10
0.355961
20
0.0350953
11
0.357668
21
0.0325408
0
LINE
8
BLACK
6
CONTINUOUS
10
0.357668
20
0.0325408
11
0.358268
21
0.0295276
0
LINE
8
BLACK
6
CONTINUOUS
10
0.358268
20
0.0295276
11
0.358268
21
-0.0295276
0
LINE
8
BLACK
6
CONTINUOUS
10
0.358268
20
-0.0295276
11
0.357668
21
-0.0325408
0
LINE
8
BLACK
6
CONTINUOUS
10
0.357668
20
-0.0325408
11
0.355961
21
-0.0350953
0
LINE
8
BLACK
6
CONTINUOUS
10
0.355961
20
-0.0350953
11
0.353407
21
-0.0368022
0
LINE
8
BLACK
6
CONTINUOUS
10
0.353407
20
-0.0368022
11
0.350394
21
-0.0374016
0
LINE
8
BLACK
6
CONTINUOUS
10
0.350394
20
-0.0374016
11
0.312992
21
-0.0374016
0
LINE
8
BLACK
6
CONTINUOUS
10
0.312992
20
-0.0374016
11
0.309979
21
-0.0368022
0
LINE
8
BLACK
6
CONTINUOUS
10
0.309979
20
-0.0368022
11
0.307424
21
-0.0350953
0
LINE
8
BLACK
6
CONTINUOUS
10
0.307424
20
-0.0350953
11
0.305717
21
-0.0325408
0
LINE
8
BLACK
6
CONTINUOUS
10
0.305717
20
-0.0325408
11
0.305118
21
-0.0295276
0
LINE
8
BLACK
6
CONTINUOUS
10
0.305118
20
-0.0295276
11
0.305118
21
0.0295276
0
LINE
8
BLACK
6
CONTINUOUS
10
0.305118
20
0.0295276
11
0.305717
21
0.0325408
0
LINE
8
BLACK
6
CONTINUOUS
10
0.305717
20
0.0325408
11
0.307424
21
0.0350953
0
LINE
8
BLACK
6
CONTINUOUS
10
0.307424
20
0.0350953
11
0.309979
21
0.0368022
0
LINE
8
BLACK
6
CONTINUOUS
10
0.309979
20
0.0368022
11
0.312992
21
0.0374016
0
LINE
8
BLACK
6
CONTINUOUS
10
0.312992
20
0.0374016
11
0.350394
21
0.0374016
0
LINE
8
BLACK
6
CONTINUOUS
10
0.350394
20
0.0374016
11
0.353407
21
0.0368022
0
LINE
8
BLACK
6
CONTINUOUS
10
0.483013
20
0.0872746
11
0.485568
21
0.0855678
0
LINE
8
BLACK
6
CONTINUOUS
10
0.485568
20
0.0855678
11
0.487275
21
0.0830133
0
LINE
8
BLACK
6
CONTINUOUS
10
0.487275
20
0.0830133
11
0.487874
21
0.08
0
LINE
8
BLACK
6
CONTINUOUS
10
0.487874
20
0.08
11
0.487874
21
0.02
0
LINE
8
BLACK
6
CONTINUOUS
10
0.487874
20
0.02
11
0.487275
21
0.0169867
0
LINE
8
BLACK
6
CONTINUOUS
10
0.487275
20
0.0169867
11
0.485568
21
0.0144322
0
LINE
8
BLACK
6
CONTINUOUS
10
0.485568
20
0.0144322
11
0.483013
21
0.0127254
0
LINE
8
BLACK
6
CONTINUOUS
10
0.483013
20
0.0127254
11
0.48
21
0.012126
0
LINE
8
BLACK
6
CONTINUOUS
10
0.48
20
0.012126
11
0.42
21
0.012126
0
LINE
8
BLACK
6
CONTINUOUS
10
0.42
20
0.012126
11
0.416987
21
0.0127254
0
LINE
8
BLACK
6
CONTINUOUS
10
0.416987
20
0.0127254
11
0.414432
21
0.0144322
0
LINE
8
BLACK
6
CONTINUOUS
10
0.414432
20
0.0144322
11
0.412725
21
0.0169867
0
LINE
8
BLACK
6
CONTINUOUS
10
0.412725
20
0.0169867
11
0.412126
21
0.02
0
LINE
8
BLACK
6
CONTINUOUS
10
0.412126
20
0.02
11
0.412126
21
0.08
0
LINE
8
BLACK
6
CONTINUOUS
10
0.412126
20
0.08
11
0.412725
21
0.0830133
0
LINE
8
BLACK
6
CONTINUOUS
10
0.412725
20
0.0830133
11
0.414432
21
0.0855678
0
LINE
8
BLACK
6
CONTINUOUS
10
0.414432
20
0.0855678
11
0.416987
21
0.0872746
0
LINE
8
BLACK
6
CONTINUOUS
10
0.416987
20
0.0872746
11
0.42
21
0.087874
0
LINE
8
BLACK
6
CONTINUOUS
10
0.42
20
0.087874
11
0.48
21
0.087874
0
LINE
8
BLACK
6
CONTINUOUS
10
0.48
20
0.087874
11
0.483013
21
0.0872746
0
LINE
8
BLACK
6
CONTINUOUS
10
0.583013
20
0.0872746
11
0.585568
21
0.0855678
0
LINE
8
BLACK
6
CONTINUOUS
10
0.585568
20
0.0855678
11
0.587275
21
0.0830133
0
LINE
8
BLACK
6
CONTINUOUS
10
0.587275
20
0.0830133
11
0.587874
21
0.08
0
LINE
8
BLACK
6
CONTINUOUS
10
0.587874
20
0.08
11
0.587874
21
0.02
0
LINE
8
BLACK
6
CONTINUOUS
10
0.587874
20
0.02
11
0.587275
21
0.0169867
0
LINE
8
BLACK
6
CONTINUOUS
10
0.587275
20
0.0169867
11
0.585568
21
0.0144322
0
LINE
8
BLACK
6
CONTINUOUS
10
0.585568
20
0.0144322
11
0.583013
21
0.0127254
0
LINE
8
BLACK
6
CONTINUOUS
10
0.583013
20
0.0127254
11
0.58
21
0.012126
0
LINE
8
BLACK
6
CONTINUOUS
10
0.58
20
0.012126
11
0.52
21
0.012126
0
LINE
8
BLACK
6
CONTINUOUS
10
0.52
20
0.012126
11
0.516987
21
0.0127254
0
LINE
8
BLACK
6
CONTINUOUS
10
0.516987
20
0.0127254
11
0.514432
21
0.0144322
0
LINE
8
BLACK
6
CONTINUOUS
10
0.514432
20
0.0144322
11
0.512725
21
0.0169867
0
LINE
8
BLACK
6
CONTINUOUS
10
0.512725
20
0.0169867
11
0.512126
21
0.02
0
LINE
8
BLACK
6
CONTINUOUS
10
0.512126
20
0.02
11
0.512126
21
0.08
0
LINE
8
BLACK
6
CONTINUOUS
10
0.512126
20
0.08
11
0.512725
21
0.0830133
0
LINE
8
BLACK
6
CONTINUOUS
10
0.512725
20
0.0830133
11
0.514432
21
0.0855678
0
LINE
8
BLACK
6
CONTINUOUS
10
0.514432
20
0.0855678
11
0.516987
21
0.0872746
0
LINE
8
BLACK
6
CONTINUOUS
10
0.516987
20
0.0872746
11
0.52
21
0.087874
0
LINE
8
BLACK
6
CONTINUOUS
10
0.52
20
0.087874
11
0.58
21
0.087874
0
LINE
8
BLACK
6
CONTINUOUS
10
0.58
20
0.087874
11
0.583013
21
0.0872746
0
LINE
8
BLACK
6
CONTINUOUS
10
0.683013
20
0.0872746
11
0.685568
21
0.0855678
0
LINE
8
BLACK
6
CONTINUOUS
10
0.685568
20
0.0855678
11
0.687275
21
0.0830133
0
LINE
8
BLACK
6
CONTINUOUS
10
0.687275
20
0.0830133
11
0.687874
21
0.08
0
LINE
8
BLACK
6
CONTINUOUS
10
0.687874
20
0.08
11
0.687874
21
0.02
0
LINE
8
BLACK
6
CONTINUOUS
10
0.687874
20
0.02
11
0.687275
21
0.0169867
0
LINE
8
BLACK
6
CONTINUOUS
10
0.687275
20
0.0169867
11
0.685568
21
0.0144322
0
LINE
8
BLACK
6
CONTINUOUS
10
0.685568
20
0.0144322
11
0.683013
21
0.0127254
0
LINE
8
BLACK
6
CONTINUOUS
10
0.683013
20
0.0127254
11
0.68
21
0.012126
0
LINE
8
BLACK
6
CONTINUOUS
10
0.68
20
0.012126
11
0.62
21
0.012126
0
LINE
8
BLACK
6
CONTINUOUS
10
0.62
20
0.012126
11
0.616987
21
0.0127254
0
LINE
8
BLACK
6
CONTINUOUS
10
0.616987
20
0.0127254
11
0.614432
21
0.0144322
0
LINE
8
BLACK
6
CONTINUOUS
10
0.614432
20
0.0144322
11
0.612725
21
0.0169867
0
LINE
8
BLACK
6
CONTINUOUS
10
0.612725
20
0.0169867
11
0.612126
21
0.02
0
LINE
8
BLACK
6
CONTINUOUS
10
0.612126
20
0.02
11
0.612126
21
0.08
0
LINE
8
BLACK
6
CONTINUOUS
10
0.612126
20
0.08
11
0.612725
21
0.0830133
0
LINE
8
BLACK
6
CONTINUOUS
10
0.612725
20
0.0830133
11
0.614432
21
0.0855678
0
LINE
8
BLACK
6
CONTINUOUS
10
0.614432
20
0.0855678
11
0.616987
21
0.0872746
0
LINE
8
BLACK
6
CONTINUOUS
10
0.616987
20
0.0872746
11
0.62
21
0.087874
0
LINE
8
BLACK
6
CONTINUOUS
10
0.62
20
0.087874
11
0.68
21
0.087874
0
LINE
8
BLACK
6
CONTINUOUS
10
0.68
20
0.087874
11
0.683013
21
0.0872746
0
LINE
8
BLACK
6
CONTINUOUS
10
0.833013
20
0.0872746
11
0.835568
21
0.0855678
0
LINE
8
BLACK
6
CONTINUOUS
10
0.835568
20
0.0855678
11
0.837275
21
0.0830133
0
LINE
8
BLACK
6
CONTINUOUS
10
0.837275
20
0.0830133
11
0.837874
21
0.08
0
LINE
8
BLACK
6
CONTINUOUS
10
0.837874
20
0.08
11
0.837874
21
0.02
0
LINE
8
BLACK
6
CONTINUOUS
10
0.837874
20
0.02
11
0.837275
21
0.0169867
0
LINE
8
BLACK
6
CONTINUOUS
10
0.837275
20
0.0169867
11
0.835568
21
0.0144322
0
LINE
8
BLACK
6
CONTINUOUS
10
0.835568
20
0.0144322
11
0.833013
21
0.0127254
0
LINE
8
BLACK
6
CONTINUOUS
10
0.833013
20
0.0127254
11
0.83
21
0.012126
0
LINE
8
BLACK
6
CONTINUOUS
10
0.83
20
0.012126
11
0.77
21
0.012126
0
LINE
8
BLACK
6
CONTINUOUS
10
0.77
20
0.012126
11
0.766987
21
0.0127254
0
LINE
8
BLACK
6
CONTINUOUS
10
0.766987
20
0.0127254
11
0.764432
21
0.0144322
0
LINE
8
BLACK
6
CONTINUOUS
10
0.764432
20
0.0144322
11
0.762725
21
0.0169867
0
LINE
8
BLACK
6
CONTINUOUS
10
0.762725
20
0.0169867
11
0.762126
21
0.02
0
LINE
8
BLACK
6
CONTINUOUS
10
0.762126
20
0.02
11
0.762126
21
0.08
0
LINE
8
BLACK
6
CONTINUOUS
10
0.762126
20
0.08
11
0.762725
21
0.0830133
0
LINE
8
BLACK
6
CONTINUOUS
10
0.762725
20
0.0830133
11
0.764432
21
0.0855678
0
LINE
8
BLACK
6
CONTINUOUS
10
0.764432
20
0.0855678
11
0.766987
21
0.0872746
0
LINE
8
BLACK
6
CONTINUOUS
10
0.766987
20
0.0872746
11
0.77
21
0.087874
0
LINE
8
BLACK
6
CONTINUOUS
10
0.77
20
0.087874
11
0.83
21
0.087874
0
LINE
8
BLACK
6
CONTINUOUS
10
0.83
20
0.087874
11
0.833013
21
0.0872746
0
LINE
8
BLACK
6
CONTINUOUS
10
0.933013
20
0.0872746
11
0.935568
21
0.0855678
0
LINE
8
BLACK
6
CONTINUOUS
10
0.935568
20
0.0855678
11
0.937275
21
0.0830133
0
LINE
8
BLACK
6
CONTINUOUS
10
0.937275
20
0.0830133
11
0.937874
21
0.08
0
LINE
8
BLACK
6
CONTINUOUS
10
0.937874
20
0.08
11
0.937874
21
0.02
0
LINE
8
BLACK
6
CONTINUOUS
10
0.937874
20
0.02
11
0.937275
21
0.0169867
0
LINE
8
BLACK
6
CONTINUOUS
10
0.937275
20
0.0169867
11
0.935568
21
0.0144322
0
LINE
8
BLACK
6
CONTINUOUS
10
0.935568
20
0.0144322
11
0.933013
21
0.0127254
0
LINE
8
BLACK
6
CONTINUOUS
10
0.933013
20
0.0127254
11
0.93
21
0.012126
0
LINE
8
BLACK
6
CONTINUOUS
10
0.93
20
0.012126
11
0.87
21
0.012126
0
LINE
8
BLACK
6
CONTINUOUS
10
0.87
20
0.012126
11
0.866987
21
0.0127254
0
LINE
8
BLACK
6
CONTINUOUS
10
0.866987
20
0.0127254
11
0.864432
21
0.0144322
0
LINE
8
BLACK
6
CONTINUOUS
10
0.864432
20
0.0144322
11
0.862725
21
0.0169867
0
LINE
8
BLACK
6
CONTINUOUS
10
0.862725
20
0.0169867
11
0.862126
21
0.02
0
LINE
8
BLACK
6
CONTINUOUS
10
0.862126
20
0.02
11
0.862126
21
0.08
0
LINE
8
BLACK
6
CONTINUOUS
10
0.862126
20
0.08
11
0.862725
21
0.0830133
0
LINE
8
BLACK
6
CONTINUOUS
10
0.862725
20
0.0830133
11
0.864432
21
0.0855678
0
LINE
8
BLACK
6
CONTINUOUS
10
0.864432
20
0.0855678
11
0.866987
21
0.0872746
0
LINE
8
BLACK
6
CONTINUOUS
10
0.866987
20
0.0872746
11
0.87
21
0.087874
0
LINE
8
BLACK
6
CONTINUOUS
10
0.87
20
0.087874
11
0.93
21
0.087874
0
LINE
8
BLACK
6
CONTINUOUS
10
0.93
20
0.087874
11
0.933013
21
0.0872746
0
LINE
8
BLACK
6
CONTINUOUS
10
1.03301
20
0.0872746
11
1.03557
21
0.0855678
0
LINE
8
BLACK
6
CONTINUOUS
10
1.03557
20
0.0855678
11
1.03727
21
0.0830133
0
LINE
8
BLACK
6
CONTINUOUS
10
1.03727
20
0.0830133
11
1.03787
21
0.08
0
LINE
8
BLACK
6
CONTINUOUS
10
1.03787
20
0.08
11
1.03787
21
0.02
0
LINE
8
BLACK
6
CONTINUOUS
10
1.03787
20
0.02
11
1.03727
21
0.0169867
0
LINE
8
BLACK
6
CONTINUOUS
10
1.03727
20
0.0169867
11
1.03557
21
0.0144322
0
LINE
8
BLACK
6
CONTINUOUS
10
1.03557
20
0.0144322
11
1.03301
21
0.0127254
0
LINE
8
BLACK
6
CONTINUOUS
10
1.03301
20
0.0127254
11
1.03
21
0.012126
0
LINE
8
BLACK
6
CONTINUOUS
10
1.03
20
0.012126
11
0.97
21
0.012126
0
LINE
8
BLACK
6
CONTINUOUS
10
0.97
20
0.012126
11
0.966987
21
0.0127254
0
LINE
8
BLACK
6
CONTINUOUS
10
0.966987
20
0.0127254
11
0.964432
21
0.0144322
0
LINE
8
BLACK
6
CONTINUOUS
10
0.964432
20
0.0144322
11
0.962725
21
0.0169867
0
LINE
8
BLACK
6
CONTINUOUS
10
0.962725
20
0.0169867
11
0.962126
21
0.02
0
LINE
8
BLACK
6
CONTINUOUS
10
0.962126
20
0.02
11
0.962126
21
0.08
0
LINE
8
BLACK
6
CONTINUOUS
10
0.962126
20
0.08
11
0.962725
21
0.0830133
0
LINE
8
BLACK
6
CONTINUOUS
10
0.962725
20
0.0830133
11
0.964432
21
0.0855678
0
LINE
8
BLACK
6
CONTINUOUS
10
0.964432
20
0.0855678
11
0.966987
21
0.0872746
0
LINE
8
BLACK
6
CONTINUOUS
10
0.966987
20
0.0872746
11
0.97
21
0.087874
0
LINE
8
BLACK
6
CONTINUOUS
10
0.97
20
0.087874
11
1.03
21
0.087874
0
LINE
8
BLACK
6
CONTINUOUS
10
1.03
20
0.087874
11
1.03301
21
0.0872746
0
LINE
8
BLACK
6
CONTINUOUS
10
0.235493
20
0.233195
11
0.246196
21
0.230867
0
LINE
8
BLACK
6
CONTINUOUS
10
0.246196
20
0.230867
11
0.256459
21
0.227039
0
LINE
8
BLACK
6
CONTINUOUS
10
0.256459
20
0.227039
11
0.266073
21
0.221789
0
LINE
8
BLACK
6
CONTINUOUS
10
0.266073
20
0.221789
11
0.274842
21
0.215225
0
LINE
8
BLACK
6
CONTINUOUS
10
0.274842
20
0.215225
11
0.282587
21
0.207479
0
LINE
8
BLACK
6
CONTINUOUS
10
0.282587
20
0.207479
11
0.289151
21
0.198711
0
LINE
8
BLACK
6
CONTINUOUS
10
0.289151
20
0.198711
11
0.294401
21
0.189097
0
LINE
8
BLACK
6
CONTINUOUS
10
0.294401
20
0.189097
11
0.298229
21
0.178834
0
LINE
8
BLACK
6
CONTINUOUS
10
0.298229
20
0.178834
11
0.300557
21
0.16813
0
LINE
8
BLACK
6
CONTINUOUS
10
0.300557
20
0.16813
11
0.301339
21
0.157205
0
LINE
8
BLACK
6
CONTINUOUS
10
0.301339
20
0.157205
11
0.300557
21
0.146279
0
LINE
8
BLACK
6
CONTINUOUS
10
0.300557
20
0.146279
11
0.298229
21
0.135576
0
LINE
8
BLACK
6
CONTINUOUS
10
0.298229
20
0.135576
11
0.294401
21
0.125313
0
LINE
8
BLACK
6
CONTINUOUS
10
0.294401
20
0.125313
11
0.289151
21
0.115699
0
LINE
8
BLACK
6
CONTINUOUS
10
0.289151
20
0.115699
11
0.282587
21
0.10693
0
LINE
8
BLACK
6
CONTINUOUS
10
0.282587
20
0.10693
11
0.274842
21
0.0991846
0
LINE
8
BLACK
6
CONTINUOUS
10
0.274842
20
0.0991846
11
0.266073
21
0.0926203
0
LINE
8
BLACK
6
CONTINUOUS
10
0.266073
20
0.0926203
11
0.256459
21
0.0873708
0
LINE
8
BLACK
6
CONTINUOUS
10
0.256459
20
0.0873708
11
0.246196
21
0.0835429
0
LINE
8
BLACK
6
CONTINUOUS
10
0.246196
20
0.0835429
11
0.235493
21
0.0812145
0
LINE
8
BLACK
6
CONTINUOUS
10
0.235493
20
0.0812145
11
0.224567
21
0.0804331
0
LINE
8
BLACK
6
CONTINUOUS
10
0.224567
20
0.0804331
11
0.213641
21
0.0812145
0
LINE
8
BLACK
6
CONTINUOUS
10
0.213641
20
0.0812145
11
0.202938
21
0.0835429
0
LINE
8
BLACK
6
CONTINUOUS
10
0.202938
20
0.0835429
11
0.192675
21
0.0873708
0
LINE
8
BLACK
6
CONTINUOUS
10
0.192675
20
0.0873708
11
0.183061
21
0.0926203
0
LINE
8
BLACK
6
CONTINUOUS
10
0.183061
20
0.0926203
11
0.174292
21
0.0991846
0
LINE
8
BLACK
6
CONTINUOUS
10
0.174292
20
0.0991846
11
0.166547
21
0.10693
0
LINE
8
BLACK
6
CONTINUOUS
10
0.166547
20
0.10693
11
0.159983
21
0.115699
0
LINE
8
BLACK
6
CONTINUOUS
10
0.159983
20
0.115699
11
0.154733
21
0.125313
0
LINE
8
BLACK
6
CONTINUOUS
10
0.154733
20
0.125313
11
0.150905
21
0.135576
0
LINE
8
BLACK
6
CONTINUOUS
10
0.150905
20
0.135576
11
0.148577
21
0.146279
0
LINE
8
BLACK
6
CONTINUOUS
10
0.148577
20
0.146279
11
0.147795
21
0.157205
0
LINE
8
BLACK
6
CONTINUOUS
10
0.147795
20
0.157205
11
0.148577
21
0.16813
0
LINE
8
BLACK
6
CONTINUOUS
10
0.148577
20
0.16813
11
0.150905
21
0.178834
0
LINE
8
BLACK
6
CONTINUOUS
10
0.150905
20
0.178834
11
0.154733
21
0.189097
0
LINE
8
BLACK
6
CONTINUOUS
10
0.154733
20
0.189097
11
0.159983
21
0.198711
0
LINE
8
BLACK
6
CONTINUOUS
10
0.159983
20
0.198711
11
0.166547
21
0.207479
0
LINE
8
BLACK
6
CONTINUOUS
10
0.166547
20
0.207479
11
0.174292
21
0.215225
0
LINE
8
BLACK
6
CONTINUOUS
10
0.174292
20
0.215225
11
0.183061
21
0.221789
0
LINE
8
BLACK
6
CONTINUOUS
10
0.183061
20
0.221789
11
0.192675
21
0.227039
0
LINE
8
BLACK
6
CONTINUOUS
10
0.192675
20
0.227039
11
0.202938
21
0.230867
0
LINE
8
BLACK
6
CONTINUOUS
10
0.202938
20
0.230867
11
0.213641
21
0.233195
0
LINE
8
BLACK
6
CONTINUOUS
10
0.213641
20
0.233195
11
0.224567
21
0.233976
0
LINE
8
BLACK
6
CONTINUOUS
10
0.224567
20
0.233976
11
0.235493
21
0.233195
0
LINE
8
BLACK
6
CONTINUOUS
10
1.18301
20
0.237275
11
1.18557
21
0.235568
0
LINE
8
BLACK
6
CONTINUOUS
10
1.18557
20
0.235568
11
1.18727
21
0.233013
0
LINE
8
BLACK
6
CONTINUOUS
10
1.18727
20
0.233013
11
1.18787
21
0.23
0
LINE
8
BLACK
6
CONTINUOUS
10
1.18787
20
0.23
11
1.18787
21
0.17
0
LINE
8
BLACK
6
CONTINUOUS
10
1.18787
20
0.17
11
1.18727
21
0.166987
0
LINE
8
BLACK
6
CONTINUOUS
10
1.18727
20
0.166987
11
1.18557
21
0.164432
0
LINE
8
BLACK
6
CONTINUOUS
10
1.18557
20
0.164432
11
1.18301
21
0.162725
0
LINE
8
BLACK
6
CONTINUOUS
10
1.18301
20
0.162725
11
1.18
21
0.162126
0
LINE
8
BLACK
6
CONTINUOUS
10
1.18
20
0.162126
11
1.12
21
0.162126
0
LINE
8
BLACK
6
CONTINUOUS
10
1.12
20
0.162126
11
1.11699
21
0.162725
0
LINE
8
BLACK
6
CONTINUOUS
10
1.11699
20
0.162725
11
1.11443
21
0.164432
0
LINE
8
BLACK
6
CONTINUOUS
10
1.11443
20
0.164432
11
1.11273
21
0.166987
0
LINE
8
BLACK
6
CONTINUOUS
10
1.11273
20
0.166987
11
1.11213
21
0.17
0
LINE
8
BLACK
6
CONTINUOUS
10
1.11213
20
0.17
11
1.11213
21
0.23
0
LINE
8
BLACK
6
CONTINUOUS
10
1.11213
20
0.23
11
1.11273
21
0.233013
0
LINE
8
BLACK
6
CONTINUOUS
10
1.11273
20
0.233013
11
1.11443
21
0.235568
0
LINE
8
BLACK
6
CONTINUOUS
10
1.11443
20
0.235568
11
1.11699
21
0.237275
0
LINE
8
BLACK
6
CONTINUOUS
10
1.11699
20
0.237275
11
1.12
21
0.237874
0
LINE
8
BLACK
6
CONTINUOUS
10
1.12
20
0.237874
11
1.18
21
0.237874
0
LINE
8
BLACK
6
CONTINUOUS
10
1.18
20
0.237874
11
1.18301
21
0.237275
0
LINE
8
BLACK
6
CONTINUOUS
10
1.28301
20
0.237275
11
1.28557
21
0.235568
0
LINE
8
BLACK
6
CONTINUOUS
10
1.28557
20
0.235568
11
1.28727
21
0.233013
0
LINE
8
BLACK
6
CONTINUOUS
10
1.28727
20
0.233013
11
1.28787
21
0.23
0
LINE
8
BLACK
6
CONTINUOUS
10
1.28787
20
0.23
11
1.28787
21
0.17
0
LINE
8
BLACK
6
CONTINUOUS
10
1.28787
20
0.17
11
1.28727
21
0.166987
0
LINE
8
BLACK
6
CONTINUOUS
10
1.28727
20
0.166987
11
1.28557
21
0.164432
0
LINE
8
BLACK
6
CONTINUOUS
10
1.28557
20
0.164432
11
1.28301
21
0.162725
0
LINE
8
BLACK
6
CONTINUOUS
10
1.28301
20
0.162725
11
1.28
21
0.162126
0
LINE
8
BLACK
6
CONTINUOUS
10
1.28
20
0.162126
11
1.22
21
0.162126
0
LINE
8
BLACK
6
CONTINUOUS
10
1.22
20
0.162126
11
1.21699
21
0.162725
0
LINE
8
BLACK
6
CONTINUOUS
10
1.21699
20
0.162725
11
1.21443
21
0.164432
0
LINE
8
BLACK
6
CONTINUOUS
10
1.21443
20
0.164432
11
1.21273
21
0.166987
0
LINE
8
BLACK
6
CONTINUOUS
10
1.21273
20
0.166987
11
1.21213
21
0.17
0
LINE
8
BLACK
6
CONTINUOUS
10
1.21213
20
0.17
11
1.21213
21
0.23
0
LINE
8
BLACK
6
CONTINUOUS
10
1.21213
20
0.23
11
1.21273
21
0.233013
0
LINE
8
BLACK
6
CONTINUOUS
10
1.21273
20
0.233013
11
1.21443
21
0.235568
0
LINE
8
BLACK
6
CONTINUOUS
10
1.21443
20
0.235568
11
1.21699
21
0.237275
0
LINE
8
BLACK
6
CONTINUOUS
10
1.21699
20
0.237275
11
1.22
21
0.237874
0
LINE
8
BLACK
6
CONTINUOUS
10
1.22
20
0.237874
11
1.28
21
0.237874
0
LINE
8
BLACK
6
CONTINUOUS
10
1.28
20
0.237874
11
1.28301
21
0.237275
0
LINE
8
BLACK
6
CONTINUOUS
10
0.955963
20
0.292479
11
0.961509
21
0.291681
0
LINE
8
BLACK
6
CONTINUOUS
10
0.961509
20
0.291681
11
0.963659
21
0.29105
0
LINE
8
BLACK
6
CONTINUOUS
10
0.963659
20
0.29105
11
0.968756
21
0.288723
0
LINE
8
BLACK
6
CONTINUOUS
10
0.968756
20
0.288723
11
0.970641
21
0.287511
0
LINE
8
BLACK
6
CONTINUOUS
10
0.970641
20
0.287511
11
0.974876
21
0.283842
0
LINE
8
BLACK
6
CONTINUOUS
10
0.974876
20
0.283842
11
0.976344
21
0.282148
0
LINE
8
BLACK
6
CONTINUOUS
10
0.976344
20
0.282148
11
0.979373
21
0.277435
0
LINE
8
BLACK
6
CONTINUOUS
10
0.979373
20
0.277435
11
0.980304
21
0.275396
0
LINE
8
BLACK
6
CONTINUOUS
10
0.980304
20
0.275396
11
0.981882
21
0.27002
0
LINE
8
BLACK
6
CONTINUOUS
10
0.981882
20
0.27002
11
0.982201
21
0.267801
0
LINE
8
BLACK
6
CONTINUOUS
10
0.982201
20
0.267801
11
0.982201
21
0.266007
0
LINE
8
BLACK
6
CONTINUOUS
10
0.982201
20
0.266007
11
0.982402
21
0.265
0
LINE
8
BLACK
6
CONTINUOUS
10
0.982402
20
0.265
11
0.982402
21
0.245315
0
LINE
8
BLACK
6
CONTINUOUS
10
0.982402
20
0.245315
11
0.981802
21
0.242302
0
LINE
8
BLACK
6
CONTINUOUS
10
0.981802
20
0.242302
11
0.980095
21
0.239747
0
LINE
8
BLACK
6
CONTINUOUS
10
0.980095
20
0.239747
11
0.97959
21
0.239409
0
LINE
8
BLACK
6
CONTINUOUS
10
0.97959
20
0.239409
11
0.980095
21
0.239072
0
LINE
8
BLACK
6
CONTINUOUS
10
0.980095
20
0.239072
11
0.981802
21
0.236517
0
LINE
8
BLACK
6
CONTINUOUS
10
0.981802
20
0.236517
11
0.982402
21
0.233504
0
LINE
8
BLACK
6
CONTINUOUS
10
0.982402
20
0.233504
11
0.982402
21
0.213819
0
LINE
8
BLACK
6
CONTINUOUS
10
0.982402
20
0.213819
11
0.982201
21
0.212812
0
LINE
8
BLACK
6
CONTINUOUS
10
0.982201
20
0.212812
11
0.982201
21
0.211017
0
LINE
8
BLACK
6
CONTINUOUS
10
0.982201
20
0.211017
11
0.981882
21
0.208799
0
LINE
8
BLACK
6
CONTINUOUS
10
0.981882
20
0.208799
11
0.980304
21
0.203423
0
LINE
8
BLACK
6
CONTINUOUS
10
0.980304
20
0.203423
11
0.979373
21
0.201384
0
LINE
8
BLACK
6
CONTINUOUS
10
0.979373
20
0.201384
11
0.976344
21
0.196671
0
LINE
8
BLACK
6
CONTINUOUS
10
0.976344
20
0.196671
11
0.974876
21
0.194977
0
LINE
8
BLACK
6
CONTINUOUS
10
0.974876
20
0.194977
11
0.970641
21
0.191308
0
LINE
8
BLACK
6
CONTINUOUS
10
0.970641
20
0.191308
11
0.968756
21
0.190096
0
LINE
8
BLACK
6
CONTINUOUS
10
0.968756
20
0.190096
11
0.963659
21
0.187769
0
LINE
8
BLACK
6
CONTINUOUS
10
0.963659
20
0.187769
11
0.961509
21
0.187137
0
LINE
8
BLACK
6
CONTINUOUS
10
0.961509
20
0.187137
11
0.955963
21
0.18634
0
LINE
8
BLACK
6
CONTINUOUS
10
0.955963
20
0.18634
11
0.954843
21
0.18626
0
LINE
8
BLACK
6
CONTINUOUS
10
0.954843
20
0.18626
11
0.935157
21
0.18626
0
LINE
8
BLACK
6
CONTINUOUS
10
0.935157
20
0.18626
11
0.934037
21
0.18634
0
LINE
8
BLACK
6
CONTINUOUS
10
0.934037
20
0.18634
11
0.928491
21
0.187137
0
LINE
8
BLACK
6
CONTINUOUS
10
0.928491
20
0.187137
11
0.926341
21
0.187769
0
LINE
8
BLACK
6
CONTINUOUS
10
0.926341
20
0.187769
11
0.921244
21
0.190096
0
LINE
8
BLACK
6
CONTINUOUS
10
0.921244
20
0.190096
11
0.919359
21
0.191308
0
LINE
8
BLACK
6
CONTINUOUS
10
0.919359
20
0.191308
11
0.915124
21
0.194977
0
LINE
8
BLACK
6
CONTINUOUS
10
0.915124
20
0.194977
11
0.913656
21
0.196671
0
LINE
8
BLACK
6
CONTINUOUS
10
0.913656
20
0.196671
11
0.910627
21
0.201384
0
LINE
8
BLACK
6
CONTINUOUS
10
0.910627
20
0.201384
11
0.909696
21
0.203423
0
LINE
8
BLACK
6
CONTINUOUS
10
0.909696
20
0.203423
11
0.908118
21
0.208799
0
LINE
8
BLACK
6
CONTINUOUS
10
0.908118
20
0.208799
11
0.907799
21
0.211017
0
LINE
8
BLACK
6
CONTINUOUS
10
0.907799
20
0.211017
11
0.907799
21
0.212812
0
LINE
8
BLACK
6
CONTINUOUS
10
0.907799
20
0.212812
11
0.907598
21
0.213819
0
LINE
8
BLACK
6
CONTINUOUS
10
0.907598
20
0.213819
11
0.907598
21
0.233504
0
LINE
8
BLACK
6
CONTINUOUS
10
0.907598
20
0.233504
11
0.908198
21
0.236517
0
LINE
8
BLACK
6
CONTINUOUS
10
0.908198
20
0.236517
11
0.909905
21
0.239072
0
LINE
8
BLACK
6
CONTINUOUS
10
0.909905
20
0.239072
11
0.91041
21
0.239409
0
LINE
8
BLACK
6
CONTINUOUS
10
0.91041
20
0.239409
11
0.909905
21
0.239747
0
LINE
8
BLACK
6
CONTINUOUS
10
0.909905
20
0.239747
11
0.908198
21
0.242302
0
LINE
8
BLACK
6
CONTINUOUS
10
0.908198
20
0.242302
11
0.907598
21
0.245315
0
LINE
8
BLACK
6
CONTINUOUS
10
0.907598
20
0.245315
11
0.907598
21
0.265
0
LINE
8
BLACK
6
CONTINUOUS
10
0.907598
20
0.265
11
0.907799
21
0.266007
0
LINE
8
BLACK
6
CONTINUOUS
10
0.907799
20
0.266007
11
0.907799
21
0.267801
0
LINE
8
BLACK
6
CONTINUOUS
10
0.907799
20
0.267801
11
0.908118
21
0.27002
0
LINE
8
BLACK
6
CONTINUOUS
10
0.908118
20
0.27002
11
0.909696
21
0.275396
0
LINE
8
BLACK
6
CONTINUOUS
10
0.909696
20
0.275396
11
0.910627
21
0.277435
0
LINE
8
BLACK
6
CONTINUOUS
10
0.910627
20
0.277435
11
0.913656
21
0.282148
0
LINE
8
BLACK
6
CONTINUOUS
10
0.913656
20
0.282148
11
0.915124
21
0.283842
0
LINE
8
BLACK
6
CONTINUOUS
10
0.915124
20
0.283842
11
0.919359
21
0.287511
0
LINE
8
BLACK
6
CONTINUOUS
10
0.919359
20
0.287511
11
0.921244
21
0.288723
0
LINE
8
BLACK
6
CONTINUOUS
10
0.921244
20
0.288723
11
0.926341
21
0.29105
0
LINE
8
BLACK
6
CONTINUOUS
10
0.926341
20
0.29105
11
0.928491
21
0.291681
0
LINE
8
BLACK
6
CONTINUOUS
10
0.928491
20
0.291681
11
0.934037
21
0.292479
0
LINE
8
BLACK
6
CONTINUOUS
10
0.934037
20
0.292479
11
0.935157
21
0.292559
0
LINE
8
BLACK
6
CONTINUOUS
10
0.935157
20
0.292559
11
0.954843
21
0.292559
0
LINE
8
BLACK
6
CONTINUOUS
10
0.954843
20
0.292559
11
0.955963
21
0.292479
0
LINE
8
BLACK
6
CONTINUOUS
10
-0.0552544
20
0.317708
11
-0.0527
21
0.316001
0
LINE
8
BLACK
6
CONTINUOUS
10
-0.0527
20
0.316001
11
-0.0509931
21
0.313446
0
LINE
8
BLACK
6
CONTINUOUS
10
-0.0509931
20
0.313446
11
-0.0503937
21
0.310433
0
LINE
8
BLACK
6
CONTINUOUS
10
-0.0503937
20
0.310433
11
-0.0503937
21
0.239567
0
LINE
8
BLACK
6
CONTINUOUS
10
-0.0503937
20
0.239567
11
-0.0509931
21
0.236554
0
LINE
8
BLACK
6
CONTINUOUS
10
-0.0509931
20
0.236554
11
-0.0527
21
0.233999
0
LINE
8
BLACK
6
CONTINUOUS
10
-0.0527
20
0.233999
11
-0.0552544
21
0.232292
0
LINE
8
BLACK
6
CONTINUOUS
10
-0.0552544
20
0.232292
11
-0.0582677
21
0.231693
0
LINE
8
BLACK
6
CONTINUOUS
10
-0.0582677
20
0.231693
11
-0.156693
21
0.231693
0
LINE
8
BLACK
6
CONTINUOUS
10
-0.156693
20
0.231693
11
-0.159706
21
0.232292
0
LINE
8
BLACK
6
CONTINUOUS
10
-0.159706
20
0.232292
11
-0.162261
21
0.233999
0
LINE
8
BLACK
6
CONTINUOUS
10
-0.162261
20
0.233999
11
-0.163968
21
0.236554
0
LINE
8
BLACK
6
CONTINUOUS
10
-0.163968
20
0.236554
11
-0.164567
21
0.239567
0
LINE
8
BLACK
6
CONTINUOUS
10
-0.164567
20
0.239567
11
-0.164567
21
0.310433
0
LINE
8
BLACK
6
CONTINUOUS
10
-0.164567
20
0.310433
11
-0.163968
21
0.313446
0
LINE
8
BLACK
6
CONTINUOUS
10
-0.163968
20
0.313446
11
-0.162261
21
0.316001
0
LINE
8
BLACK
6
CONTINUOUS
10
-0.162261
20
0.316001
11
-0.159706
21
0.317708
0
LINE
8
BLACK
6
CONTINUOUS
10
-0.159706
20
0.317708
11
-0.156693
21
0.318307
0
LINE
8
BLACK
6
CONTINUOUS
10
-0.156693
20
0.318307
11
-0.0582677
21
0.318307
0
LINE
8
BLACK
6
CONTINUOUS
10
-0.0582677
20
0.318307
11
-0.0552544
21
0.317708
0
LINE
8
BLACK
6
CONTINUOUS
10
0.102226
20
0.317708
11
0.10478
21
0.316001
0
LINE
8
BLACK
6
CONTINUOUS
10
0.10478
20
0.316001
11
0.106487
21
0.313446
0
LINE
8
BLACK
6
CONTINUOUS
10
0.106487
20
0.313446
11
0.107087
21
0.310433
0
LINE
8
BLACK
6
CONTINUOUS
10
0.107087
20
0.310433
11
0.107087
21
0.239567
0
LINE
8
BLACK
6
CONTINUOUS
10
0.107087
20
0.239567
11
0.106487
21
0.236554
0
LINE
8
BLACK
6
CONTINUOUS
10
0.106487
20
0.236554
11
0.10478
21
0.233999
0
LINE
8
BLACK
6
CONTINUOUS
10
0.10478
20
0.233999
11
0.102226
21
0.232292
0
LINE
8
BLACK
6
CONTINUOUS
10
0.102226
20
0.232292
11
0.0992126
21
0.231693
0
LINE
8
BLACK
6
CONTINUOUS
10
0.0992126
20
0.231693
11
0.000787402
21
0.231693
0
LINE
8
BLACK
6
CONTINUOUS
10
0.000787402
20
0.231693
11
-0.00222587
21
0.232292
0
LINE
8
BLACK
6
CONTINUOUS
10
-0.00222587
20
0.232292
11
-0.00478035
21
0.233999
0
LINE
8
BLACK
6
CONTINUOUS
10
-0.00478035
20
0.233999
11
-0.00648724
21
0.236554
0
LINE
8
BLACK
6
CONTINUOUS
10
-0.00648724
20
0.236554
11
-0.00708661
21
0.239567
0
LINE
8
BLACK
6
CONTINUOUS
10
-0.00708661
20
0.239567
11
-0.00708661
21
0.310433
0
LINE
8
BLACK
6
CONTINUOUS
10
-0.00708661
20
0.310433
11
-0.00648724
21
0.313446
0
LINE
8
BLACK
6
CONTINUOUS
10
-0.00648724
20
0.313446
11
-0.00478035
21
0.316001
0
LINE
8
BLACK
6
CONTINUOUS
10
-0.00478035
20
0.316001
11
-0.00222587
21
0.317708
0
LINE
8
BLACK
6
CONTINUOUS
10
-0.00222587
20
0.317708
11
0.000787402
21
0.318307
0
LINE
8
BLACK
6
CONTINUOUS
10
0.000787402
20
0.318307
11
0.0992126
21
0.318307
0
LINE
8
BLACK
6
CONTINUOUS
10
0.0992126
20
0.318307
11
0.102226
21
0.317708
0
LINE
8
BLACK
6
CONTINUOUS
10
1.18301
20
0.337275
11
1.18557
21
0.335568
0
LINE
8
BLACK
6
CONTINUOUS
10
1.18557
20
0.335568
11
1.18727
21
0.333013
0
LINE
8
BLACK
6
CONTINUOUS
10
1.18727
20
0.333013
11
1.18787
21
0.33
0
LINE
8
BLACK
6
CONTINUOUS
10
1.18787
20
0.33
11
1.18787
21
0.27
0
LINE
8
BLACK
6
CONTINUOUS
10
1.18787
20
0.27
11
1.18727
21
0.266987
0
LINE
8
BLACK
6
CONTINUOUS
10
1.18727
20
0.266987
11
1.18557
21
0.264432
0
LINE
8
BLACK
6
CONTINUOUS
10
1.18557
20
0.264432
11
1.18301
21
0.262725
0
LINE
8
BLACK
6
CONTINUOUS
10
1.18301
20
0.262725
11
1.18
21
0.262126
0
LINE
8
BLACK
6
CONTINUOUS
10
1.18
20
0.262126
11
1.12
21
0.262126
0
LINE
8
BLACK
6
CONTINUOUS
10
1.12
20
0.262126
11
1.11699
21
0.262725
0
LINE
8
BLACK
6
CONTINUOUS
10
1.11699
20
0.262725
11
1.11443
21
0.264432
0
LINE
8
BLACK
6
CONTINUOUS
10
1.11443
20
0.264432
11
1.11273
21
0.266987
0
LINE
8
BLACK
6
CONTINUOUS
10
1.11273
20
0.266987
11
1.11213
21
0.27
0
LINE
8
BLACK
6
CONTINUOUS
10
1.11213
20
0.27
11
1.11213
21
0.33
0
LINE
8
BLACK
6
CONTINUOUS
10
1.11213
20
0.33
11
1.11273
21
0.333013
0
LINE
8
BLACK
6
CONTINUOUS
10
1.11273
20
0.333013
11
1.11443
21
0.335568
0
LINE
8
BLACK
6
CONTINUOUS
10
1.11443
20
0.335568
11
1.11699
21
0.337275
0
LINE
8
BLACK
6
CONTINUOUS
10
1.11699
20
0.337275
11
1.12
21
0.337874
0
LINE
8
BLACK
6
CONTINUOUS
10
1.12
20
0.337874
11
1.18
21
0.337874
0
LINE
8
BLACK
6
CONTINUOUS
10
1.18
20
0.337874
11
1.18301
21
0.337275
0
LINE
8
BLACK
6
CONTINUOUS
10
1.28301
20
0.337275
11
1.28557
21
0.335568
0
LINE
8
BLACK
6
CONTINUOUS
10
1.28557
20
0.335568
11
1.28727
21
0.333013
0
LINE
8
BLACK
6
CONTINUOUS
10
1.28727
20
0.333013
11
1.28787
21
0.33
0
LINE
8
BLACK
6
CONTINUOUS
10
1.28787
20
0.33
11
1.28787
21
0.27
0
LINE
8
BLACK
6
CONTINUOUS
10
1.28787
20
0.27
11
1.28727
21
0.266987
0
LINE
8
BLACK
6
CONTINUOUS
10
1.28727
20
0.266987
11
1.28557
21
0.264432
0
LINE
8
BLACK
6
CONTINUOUS
10
1.28557
20
0.264432
11
1.28301
21
0.262725
0
LINE
8
BLACK
6
CONTINUOUS
10
1.28301
20
0.262725
11
1.28
21
0.262126
0
LINE
8
BLACK
6
CONTINUOUS
10
1.28
20
0.262126
11
1.22
21
0.262126
0
LINE
8
BLACK
6
CONTINUOUS
10
1.22
20
0.262126
11
1.21699
21
0.262725
0
LINE
8
BLACK
6
CONTINUOUS
10
1.21699
20
0.262725
11
1.21443
21
0.264432
0
LINE
8
BLACK
6
CONTINUOUS
10
1.21443
20
0.264432
11
1.21273
21
0.266987
0
LINE
8
BLACK
6
CONTINUOUS
10
1.21273
20
0.266987
11
1.21213
21
0.27
0
LINE
8
BLACK
6
CONTINUOUS
10
1.21213
20
0.27
11
1.21213
21
0.33
0
LINE
8
BLACK
6
CONTINUOUS
10
1.21213
20
0.33
11
1.21273
21
0.333013
0
LINE
8
BLACK
6
CONTINUOUS
10
1.21273
20
0.333013
11
1.21443
21
0.335568
0
LINE
8
BLACK
6
CONTINUOUS
10
1.21443
20
0.335568
11
1.21699
21
0.337275
0
LINE
8
BLACK
6
CONTINUOUS
10
1.21699
20
0.337275
11
1.22
21
0.337874
0
LINE
8
BLACK
6
CONTINUOUS
10
1.22
20
0.337874
11
1.28
21
0.337874
0
LINE
8
BLACK
6
CONTINUOUS
10
1.28
20
0.337874
11
1.28301
21
0.337275
0
LINE
8
BLACK
6
CONTINUOUS
10
0.446478
20
0.385739
11
0.449032
21
0.384032
0
LINE
8
BLACK
6
CONTINUOUS
10
0.449032
20
0.384032
11
0.450739
21
0.381478
0
LINE
8
BLACK
6
CONTINUOUS
10
0.450739
20
0.381478
11
0.451339
21
0.378465
0
LINE
8
BLACK
6
CONTINUOUS
10
0.451339
20
0.378465
11
0.451339
21
0.311535
0
LINE
8
BLACK
6
CONTINUOUS
10
0.451339
20
0.311535
11
0.450739
21
0.308522
0
LINE
8
BLACK
6
CONTINUOUS
10
0.450739
20
0.308522
11
0.449032
21
0.305968
0
LINE
8
BLACK
6
CONTINUOUS
10
0.449032
20
0.305968
11
0.446478
21
0.304261
0
LINE
8
BLACK
6
CONTINUOUS
10
0.446478
20
0.304261
11
0.443465
21
0.303661
0
LINE
8
BLACK
6
CONTINUOUS
10
0.443465
20
0.303661
11
0.376535
21
0.303661
0
LINE
8
BLACK
6
CONTINUOUS
10
0.376535
20
0.303661
11
0.373522
21
0.304261
0
LINE
8
BLACK
6
CONTINUOUS
10
0.373522
20
0.304261
11
0.370968
21
0.305968
0
LINE
8
BLACK
6
CONTINUOUS
10
0.370968
20
0.305968
11
0.369261
21
0.308522
0
LINE
8
BLACK
6
CONTINUOUS
10
0.369261
20
0.308522
11
0.368661
21
0.311535
0
LINE
8
BLACK
6
CONTINUOUS
10
0.368661
20
0.311535
11
0.368661
21
0.327702
0
LINE
8
BLACK
6
CONTINUOUS
10
0.368661
20
0.327702
11
0.365632
21
0.322034
0
LINE
8
BLACK
6
CONTINUOUS
10
0.365632
20
0.322034
11
0.360491
21
0.315769
0
LINE
8
BLACK
6
CONTINUOUS
10
0.360491
20
0.315769
11
0.354226
21
0.310628
0
LINE
8
BLACK
6
CONTINUOUS
10
0.354226
20
0.310628
11
0.347079
21
0.306808
0
LINE
8
BLACK
6
CONTINUOUS
10
0.347079
20
0.306808
11
0.339325
21
0.304456
0
LINE
8
BLACK
6
CONTINUOUS
10
0.339325
20
0.304456
11
0.33126
21
0.303661
0
LINE
8
BLACK
6
CONTINUOUS
10
0.33126
20
0.303661
11
0.323195
21
0.304456
0
LINE
8
BLACK
6
CONTINUOUS
10
0.323195
20
0.304456
11
0.31544
21
0.306808
0
LINE
8
BLACK
6
CONTINUOUS
10
0.31544
20
0.306808
11
0.308293
21
0.310628
0
LINE
8
BLACK
6
CONTINUOUS
10
0.308293
20
0.310628
11
0.302029
21
0.315769
0
LINE
8
BLACK
6
CONTINUOUS
10
0.302029
20
0.315769
11
0.296888
21
0.322034
0
LINE
8
BLACK
6
CONTINUOUS
10
0.296888
20
0.322034
11
0.293068
21
0.32918
0
LINE
8
BLACK
6
CONTINUOUS
10
0.293068
20
0.32918
11
0.290716
21
0.336935
0
LINE
8
BLACK
6
CONTINUOUS
10
0.290716
20
0.336935
11
0.289921
21
0.345
0
LINE
8
BLACK
6
CONTINUOUS
10
0.289921
20
0.345
11
0.290716
21
0.353065
0
LINE
8
BLACK
6
CONTINUOUS
10
0.290716
20
0.353065
11
0.293068
21
0.36082
0
LINE
8
BLACK
6
CONTINUOUS
10
0.293068
20
0.36082
11
0.296888
21
0.367966
0
LINE
8
BLACK
6
CONTINUOUS
10
0.296888
20
0.367966
11
0.302029
21
0.374231
0
LINE
8
BLACK
6
CONTINUOUS
10
0.302029
20
0.374231
11
0.308293
21
0.379372
0
LINE
8
BLACK
6
CONTINUOUS
10
0.308293
20
0.379372
11
0.31544
21
0.383192
0
LINE
8
BLACK
6
CONTINUOUS
10
0.31544
20
0.383192
11
0.323195
21
0.385544
0
LINE
8
BLACK
6
CONTINUOUS
10
0.323195
20
0.385544
11
0.33126
21
0.386339
0
LINE
8
BLACK
6
CONTINUOUS
10
0.33126
20
0.386339
11
0.339325
21
0.385544
0
LINE
8
BLACK
6
CONTINUOUS
10
0.339325
20
0.385544
11
0.347079
21
0.383192
0
LINE
8
BLACK
6
CONTINUOUS
10
0.347079
20
0.383192
11
0.354226
21
0.379372
0
LINE
8
BLACK
6
CONTINUOUS
10
0.354226
20
0.379372
11
0.360491
21
0.374231
0
LINE
8
BLACK
6
CONTINUOUS
10
0.360491
20
0.374231
11
0.365632
21
0.367966
0
LINE
8
BLACK
6
CONTINUOUS
10
0.365632
20
0.367966
11
0.368661
21
0.362298
0
LINE
8
BLACK
6
CONTINUOUS
10
0.368661
20
0.362298
11
0.368661
21
0.378465
0
LINE
8
BLACK
6
CONTINUOUS
10
0.368661
20
0.378465
11
0.369261
21
0.381478
0
LINE
8
BLACK
6
CONTINUOUS
10
0.369261
20
0.381478
11
0.370968
21
0.384032
0
LINE
8
BLACK
6
CONTINUOUS
10
0.370968
20
0.384032
11
0.373522
21
0.385739
0
LINE
8
BLACK
6
CONTINUOUS
10
0.373522
20
0.385739
11
0.376535
21
0.386339
0
LINE
8
BLACK
6
CONTINUOUS
10
0.376535
20
0.386339
11
0.443465
21
0.386339
0
LINE
8
BLACK
6
CONTINUOUS
10
0.443465
20
0.386339
11
0.446478
21
0.385739
0
LINE
8
BLACK
6
CONTINUOUS
10
0.963013
20
0.389775
11
0.965568
21
0.388068
0
LINE
8
BLACK
6
CONTINUOUS
10
0.965568
20
0.388068
11
0.967275
21
0.385513
0
LINE
8
BLACK
6
CONTINUOUS
10
0.967275
20
0.385513
11
0.967874
21
0.3825
0
LINE
8
BLACK
6
CONTINUOUS
10
0.967874
20
0.3825
11
0.967874
21
0.3275
0
LINE
8
BLACK
6
CONTINUOUS
10
0.967874
20
0.3275
11
0.967275
21
0.324487
0
LINE
8
BLACK
6
CONTINUOUS
10
0.967275
20
0.324487
11
0.965568
21
0.321932
0
LINE
8
BLACK
6
CONTINUOUS
10
0.965568
20
0.321932
11
0.963013
21
0.320225
0
LINE
8
BLACK
6
CONTINUOUS
10
0.963013
20
0.320225
11
0.96
21
0.319626
0
LINE
8
BLACK
6
CONTINUOUS
10
0.96
20
0.319626
11
0.925
21
0.319626
0
LINE
8
BLACK
6
CONTINUOUS
10
0.925
20
0.319626
11
0.921987
21
0.320225
0
LINE
8
BLACK
6
CONTINUOUS
10
0.921987
20
0.320225
11
0.919432
21
0.321932
0
LINE
8
BLACK
6
CONTINUOUS
10
0.919432
20
0.321932
11
0.917725
21
0.324487
0
LINE
8
BLACK
6
CONTINUOUS
10
0.917725
20
0.324487
11
0.917126
21
0.3275
0
LINE
8
BLACK
6
CONTINUOUS
10
0.917126
20
0.3275
11
0.917126
21
0.3825
0
LINE
8
BLACK
6
CONTINUOUS
10
0.917126
20
0.3825
11
0.917725
21
0.385513
0
LINE
8
BLACK
6
CONTINUOUS
10
0.917725
20
0.385513
11
0.919432
21
0.388068
0
LINE
8
BLACK
6
CONTINUOUS
10
0.919432
20
0.388068
11
0.921987
21
0.389775
0
LINE
8
BLACK
6
CONTINUOUS
10
0.921987
20
0.389775
11
0.925
21
0.390374
0
LINE
8
BLACK
6
CONTINUOUS
10
0.925
20
0.390374
11
0.96
21
0.390374
0
LINE
8
BLACK
6
CONTINUOUS
10
0.96
20
0.390374
11
0.963013
21
0.389775
0
LINE
8
BLACK
6
CONTINUOUS
10
1.03801
20
0.389775
11
1.04057
21
0.388068
0
LINE
8
BLACK
6
CONTINUOUS
10
1.04057
20
0.388068
11
1.04227
21
0.385513
0
LINE
8
BLACK
6
CONTINUOUS
10
1.04227
20
0.385513
11
1.04287
21
0.3825
0
LINE
8
BLACK
6
CONTINUOUS
10
1.04287
20
0.3825
11
1.04287
21
0.3275
0
LINE
8
BLACK
6
CONTINUOUS
10
1.04287
20
0.3275
11
1.04227
21
0.324487
0
LINE
8
BLACK
6
CONTINUOUS
10
1.04227
20
0.324487
11
1.04057
21
0.321932
0
LINE
8
BLACK
6
CONTINUOUS
10
1.04057
20
0.321932
11
1.03801
21
0.320225
0
LINE
8
BLACK
6
CONTINUOUS
10
1.03801
20
0.320225
11
1.035
21
0.319626
0
LINE
8
BLACK
6
CONTINUOUS
10
1.035
20
0.319626
11
1
21
0.319626
0
LINE
8
BLACK
6
CONTINUOUS
10
1
20
0.319626
11
0.996987
21
0.320225
0
LINE
8
BLACK
6
CONTINUOUS
10
0.996987
20
0.320225
11
0.994432
21
0.321932
0
LINE
8
BLACK
6
CONTINUOUS
10
0.994432
20
0.321932
11
0.992725
21
0.324487
0
LINE
8
BLACK
6
CONTINUOUS
10
0.992725
20
0.324487
11
0.992126
21
0.3275
0
LINE
8
BLACK
6
CONTINUOUS
10
0.992126
20
0.3275
11
0.992126
21
0.3825
0
LINE
8
BLACK
6
CONTINUOUS
10
0.992126
20
0.3825
11
0.992725
21
0.385513
0
LINE
8
BLACK
6
CONTINUOUS
10
0.992725
20
0.385513
11
0.994432
21
0.388068
0
LINE
8
BLACK
6
CONTINUOUS
10
0.994432
20
0.388068
11
0.996987
21
0.389775
0
LINE
8
BLACK
6
CONTINUOUS
10
0.996987
20
0.389775
11
1
21
0.390374
0
LINE
8
BLACK
6
CONTINUOUS
10
1
20
0.390374
11
1.035
21
0.390374
0
LINE
8
BLACK
6
CONTINUOUS
10
1.035
20
0.390374
11
1.03801
21
0.389775
0
LINE
8
BLACK
6
CONTINUOUS
10
0.742045
20
0.549607
11
0.745398
21
0.547367
0
LINE
8
BLACK
6
CONTINUOUS
10
0.745398
20
0.547367
11
0.745472
21
0.547256
0
LINE
8
BLACK
6
CONTINUOUS
10
0.745472
20
0.547256
11
0.745547
21
0.547367
0
LINE
8
BLACK
6
CONTINUOUS
10
0.745547
20
0.547367
11
0.748899
21
0.549607
0
LINE
8
BLACK
6
CONTINUOUS
10
0.748899
20
0.549607
11
0.752854
21
0.550394
0
LINE
8
BLACK
6
CONTINUOUS
10
0.752854
20
0.550394
11
0.757776
21
0.550394
0
LINE
8
BLACK
6
CONTINUOUS
10
0.757776
20
0.550394
11
0.76173
21
0.549607
0
LINE
8
BLACK
6
CONTINUOUS
10
0.76173
20
0.549607
11
0.765083
21
0.547367
0
LINE
8
BLACK
6
CONTINUOUS
10
0.765083
20
0.547367
11
0.765157
21
0.547256
0
LINE
8
BLACK
6
CONTINUOUS
10
0.765157
20
0.547256
11
0.765232
21
0.547367
0
LINE
8
BLACK
6
CONTINUOUS
10
0.765232
20
0.547367
11
0.768584
21
0.549607
0
LINE
8
BLACK
6
CONTINUOUS
10
0.768584
20
0.549607
11
0.772539
21
0.550394
0
LINE
8
BLACK
6
CONTINUOUS
10
0.772539
20
0.550394
11
0.777461
21
0.550394
0
LINE
8
BLACK
6
CONTINUOUS
10
0.777461
20
0.550394
11
0.781416
21
0.549607
0
LINE
8
BLACK
6
CONTINUOUS
10
0.781416
20
0.549607
11
0.784768
21
0.547367
0
LINE
8
BLACK
6
CONTINUOUS
10
0.784768
20
0.547367
11
0.784843
21
0.547256
0
LINE
8
BLACK
6
CONTINUOUS
10
0.784843
20
0.547256
11
0.784917
21
0.547367
0
LINE
8
BLACK
6
CONTINUOUS
10
0.784917
20
0.547367
11
0.78827
21
0.549607
0
LINE
8
BLACK
6
CONTINUOUS
10
0.78827
20
0.549607
11
0.792224
21
0.550394
0
LINE
8
BLACK
6
CONTINUOUS
10
0.792224
20
0.550394
11
0.797146
21
0.550394
0
LINE
8
BLACK
6
CONTINUOUS
10
0.797146
20
0.550394
11
0.801101
21
0.549607
0
LINE
8
BLACK
6
CONTINUOUS
10
0.801101
20
0.549607
11
0.804453
21
0.547367
0
LINE
8
BLACK
6
CONTINUOUS
10
0.804453
20
0.547367
11
0.804528
21
0.547256
0
LINE
8
BLACK
6
CONTINUOUS
10
0.804528
20
0.547256
11
0.804602
21
0.547367
0
LINE
8
BLACK
6
CONTINUOUS
10
0.804602
20
0.547367
11
0.807955
21
0.549607
0
LINE
8
BLACK
6
CONTINUOUS
10
0.807955
20
0.549607
11
0.811909
21
0.550394
0
LINE
8
BLACK
6
CONTINUOUS
10
0.811909
20
0.550394
11
0.816831
21
0.550394
0
LINE
8
BLACK
6
CONTINUOUS
10
0.816831
20
0.550394
11
0.820786
21
0.549607
0
LINE
8
BLACK
6
CONTINUOUS
10
0.820786
20
0.549607
11
0.824138
21
0.547367
0
LINE
8
BLACK
6
CONTINUOUS
10
0.824138
20
0.547367
11
0.826379
21
0.544014
0
LINE
8
BLACK
6
CONTINUOUS
10
0.826379
20
0.544014
11
0.827165
21
0.540059
0
LINE
8
BLACK
6
CONTINUOUS
10
0.827165
20
0.540059
11
0.827165
21
0.5125
0
LINE
8
BLACK
6
CONTINUOUS
10
0.827165
20
0.5125
11
0.826379
21
0.508545
0
LINE
8
BLACK
6
CONTINUOUS
10
0.826379
20
0.508545
11
0.825264
21
0.506877
0
LINE
8
BLACK
6
CONTINUOUS
10
0.825264
20
0.506877
11
0.827226
21
0.506487
0
LINE
8
BLACK
6
CONTINUOUS
10
0.827226
20
0.506487
11
0.82978
21
0.50478
0
LINE
8
BLACK
6
CONTINUOUS
10
0.82978
20
0.50478
11
0.831487
21
0.502226
0
LINE
8
BLACK
6
CONTINUOUS
10
0.831487
20
0.502226
11
0.831877
21
0.500264
0
LINE
8
BLACK
6
CONTINUOUS
10
0.831877
20
0.500264
11
0.833545
21
0.501379
0
LINE
8
BLACK
6
CONTINUOUS
10
0.833545
20
0.501379
11
0.8375
21
0.502165
0
LINE
8
BLACK
6
CONTINUOUS
10
0.8375
20
0.502165
11
0.865059
21
0.502165
0
LINE
8
BLACK
6
CONTINUOUS
10
0.865059
20
0.502165
11
0.869014
21
0.501379
0
LINE
8
BLACK
6
CONTINUOUS
10
0.869014
20
0.501379
11
0.872367
21
0.499138
0
LINE
8
BLACK
6
CONTINUOUS
10
0.872367
20
0.499138
11
0.874607
21
0.495786
0
LINE
8
BLACK
6
CONTINUOUS
10
0.874607
20
0.495786
11
0.875394
21
0.491831
0
LINE
8
BLACK
6
CONTINUOUS
10
0.875394
20
0.491831
11
0.875394
21
0.486909
0
LINE
8
BLACK
6
CONTINUOUS
10
0.875394
20
0.486909
11
0.874607
21
0.482955
0
LINE
8
BLACK
6
CONTINUOUS
10
0.874607
20
0.482955
11
0.872367
21
0.479602
0
LINE
8
BLACK
6
CONTINUOUS
10
0.872367
20
0.479602
11
0.872256
21
0.479528
0
LINE
8
BLACK
6
CONTINUOUS
10
0.872256
20
0.479528
11
0.872367
21
0.479453
0
LINE
8
BLACK
6
CONTINUOUS
10
0.872367
20
0.479453
11
0.874607
21
0.476101
0
LINE
8
BLACK
6
CONTINUOUS
10
0.874607
20
0.476101
11
0.875394
21
0.472146
0
LINE
8
BLACK
6
CONTINUOUS
10
0.875394
20
0.472146
11
0.875394
21
0.467224
0
LINE
8
BLACK
6
CONTINUOUS
10
0.875394
20
0.467224
11
0.874607
21
0.46327
0
LINE
8
BLACK
6
CONTINUOUS
10
0.874607
20
0.46327
11
0.872367
21
0.459917
0
LINE
8
BLACK
6
CONTINUOUS
10
0.872367
20
0.459917
11
0.872256
21
0.459843
0
LINE
8
BLACK
6
CONTINUOUS
10
0.872256
20
0.459843
11
0.872367
21
0.459768
0
LINE
8
BLACK
6
CONTINUOUS
10
0.872367
20
0.459768
11
0.874607
21
0.456416
0
LINE
8
BLACK
6
CONTINUOUS
10
0.874607
20
0.456416
11
0.875394
21
0.452461
0
LINE
8
BLACK
6
CONTINUOUS
10
0.875394
20
0.452461
11
0.875394
21
0.447539
0
LINE
8
BLACK
6
CONTINUOUS
10
0.875394
20
0.447539
11
0.874607
21
0.443584
0
LINE
8
BLACK
6
CONTINUOUS
10
0.874607
20
0.443584
11
0.872367
21
0.440232
0
LINE
8
BLACK
6
CONTINUOUS
10
0.872367
20
0.440232
11
0.872256
21
0.440157
0
LINE
8
BLACK
6
CONTINUOUS
10
0.872256
20
0.440157
11
0.872367
21
0.440083
0
LINE
8
BLACK
6
CONTINUOUS
10
0.872367
20
0.440083
11
0.874607
21
0.43673
0
LINE
8
BLACK
6
CONTINUOUS
10
0.874607
20
0.43673
11
0.875394
21
0.432776
0
LINE
8
BLACK
6
CONTINUOUS
10
0.875394
20
0.432776
11
0.875394
21
0.427854
0
LINE
8
BLACK
6
CONTINUOUS
10
0.875394
20
0.427854
11
0.874607
21
0.423899
0
LINE
8
BLACK
6
CONTINUOUS
10
0.874607
20
0.423899
11
0.872367
21
0.420547
0
LINE
8
BLACK
6
CONTINUOUS
10
0.872367
20
0.420547
11
0.872256
21
0.420472
0
LINE
8
BLACK
6
CONTINUOUS
10
0.872256
20
0.420472
11
0.872367
21
0.420398
0
LINE
8
BLACK
6
CONTINUOUS
10
0.872367
20
0.420398
11
0.874607
21
0.417045
0
LINE
8
BLACK
6
CONTINUOUS
10
0.874607
20
0.417045
11
0.875394
21
0.413091
0
LINE
8
BLACK
6
CONTINUOUS
10
0.875394
20
0.413091
11
0.875394
21
0.408169
0
LINE
8
BLACK
6
CONTINUOUS
10
0.875394
20
0.408169
11
0.874607
21
0.404214
0
LINE
8
BLACK
6
CONTINUOUS
10
0.874607
20
0.404214
11
0.872367
21
0.400862
0
LINE
8
BLACK
6
CONTINUOUS
10
0.872367
20
0.400862
11
0.869014
21
0.398621
0
LINE
8
BLACK
6
CONTINUOUS
10
0.869014
20
0.398621
11
0.865059
21
0.397835
0
LINE
8
BLACK
6
CONTINUOUS
10
0.865059
20
0.397835
11
0.8375
21
0.397835
0
LINE
8
BLACK
6
CONTINUOUS
10
0.8375
20
0.397835
11
0.833545
21
0.398621
0
LINE
8
BLACK
6
CONTINUOUS
10
0.833545
20
0.398621
11
0.831877
21
0.399736
0
LINE
8
BLACK
6
CONTINUOUS
10
0.831877
20
0.399736
11
0.831487
21
0.397774
0
LINE
8
BLACK
6
CONTINUOUS
10
0.831487
20
0.397774
11
0.82978
21
0.39522
0
LINE
8
BLACK
6
CONTINUOUS
10
0.82978
20
0.39522
11
0.827226
21
0.393513
0
LINE
8
BLACK
6
CONTINUOUS
10
0.827226
20
0.393513
11
0.825264
21
0.393123
0
LINE
8
BLACK
6
CONTINUOUS
10
0.825264
20
0.393123
11
0.826379
21
0.391455
0
LINE
8
BLACK
6
CONTINUOUS
10
0.826379
20
0.391455
11
0.827165
21
0.3875
0
LINE
8
BLACK
6
CONTINUOUS
10
0.827165
20
0.3875
11
0.827165
21
0.359941
0
LINE
8
BLACK
6
CONTINUOUS
10
0.827165
20
0.359941
11
0.826379
21
0.355986
0
LINE
8
BLACK
6
CONTINUOUS
10
0.826379
20
0.355986
11
0.824138
21
0.352633
0
LINE
8
BLACK
6
CONTINUOUS
10
0.824138
20
0.352633
11
0.820786
21
0.350393
0
LINE
8
BLACK
6
CONTINUOUS
10
0.820786
20
0.350393
11
0.816831
21
0.349606
0
LINE
8
BLACK
6
CONTINUOUS
10
0.816831
20
0.349606
11
0.811909
21
0.349606
0
LINE
8
BLACK
6
CONTINUOUS
10
0.811909
20
0.349606
11
0.807955
21
0.350393
0
LINE
8
BLACK
6
CONTINUOUS
10
0.807955
20
0.350393
11
0.804602
21
0.352633
0
LINE
8
BLACK
6
CONTINUOUS
10
0.804602
20
0.352633
11
0.804528
21
0.352744
0
LINE
8
BLACK
6
CONTINUOUS
10
0.804528
20
0.352744
11
0.804453
21
0.352633
0
LINE
8
BLACK
6
CONTINUOUS
10
0.804453
20
0.352633
11
0.801101
21
0.350393
0
LINE
8
BLACK
6
CONTINUOUS
10
0.801101
20
0.350393
11
0.797146
21
0.349606
0
LINE
8
BLACK
6
CONTINUOUS
10
0.797146
20
0.349606
11
0.792224
21
0.349606
0
LINE
8
BLACK
6
CONTINUOUS
10
0.792224
20
0.349606
11
0.78827
21
0.350393
0
LINE
8
BLACK
6
CONTINUOUS
10
0.78827
20
0.350393
11
0.784917
21
0.352633
0
LINE
8
BLACK
6
CONTINUOUS
10
0.784917
20
0.352633
11
0.784843
21
0.352744
0
LINE
8
BLACK
6
CONTINUOUS
10
0.784843
20
0.352744
11
0.784768
21
0.352633
0
LINE
8
BLACK
6
CONTINUOUS
10
0.784768
20
0.352633
11
0.781416
21
0.350393
0
LINE
8
BLACK
6
CONTINUOUS
10
0.781416
20
0.350393
11
0.777461
21
0.349606
0
LINE
8
BLACK
6
CONTINUOUS
10
0.777461
20
0.349606
11
0.772539
21
0.349606
0
LINE
8
BLACK
6
CONTINUOUS
10
0.772539
20
0.349606
11
0.768584
21
0.350393
0
LINE
8
BLACK
6
CONTINUOUS
10
0.768584
20
0.350393
11
0.765232
21
0.352633
0
LINE
8
BLACK
6
CONTINUOUS
10
0.765232
20
0.352633
11
0.765157
21
0.352744
0
LINE
8
BLACK
6
CONTINUOUS
10
0.765157
20
0.352744
11
0.765083
21
0.352633
0
LINE
8
BLACK
6
CONTINUOUS
10
0.765083
20
0.352633
11
0.76173
21
0.350393
0
LINE
8
BLACK
6
CONTINUOUS
10
0.76173
20
0.350393
11
0.757776
21
0.349606
0
LINE
8
BLACK
6
CONTINUOUS
10
0.757776
20
0.349606
11
0.752854
21
0.349606
0
LINE
8
BLACK
6
CONTINUOUS
10
0.752854
20
0.349606
11
0.748899
21
0.350393
0
LINE
8
BLACK
6
CONTINUOUS
10
0.748899
20
0.350393
11
0.745547
21
0.352633
0
LINE
8
BLACK
6
CONTINUOUS
10
0.745547
20
0.352633
11
0.745472
21
0.352744
0
LINE
8
BLACK
6
CONTINUOUS
10
0.745472
20
0.352744
11
0.745398
21
0.352633
0
LINE
8
BLACK
6
CONTINUOUS
10
0.745398
20
0.352633
11
0.742045
21
0.350393
0
LINE
8
BLACK
6
CONTINUOUS
10
0.742045
20
0.350393
11
0.738091
21
0.349606
0
LINE
8
BLACK
6
CONTINUOUS
10
0.738091
20
0.349606
11
0.733169
21
0.349606
0
LINE
8
BLACK
6
CONTINUOUS
10
0.733169
20
0.349606
11
0.729214
21
0.350393
0
LINE
8
BLACK
6
CONTINUOUS
10
0.729214
20
0.350393
11
0.725862
21
0.352633
0
LINE
8
BLACK
6
CONTINUOUS
10
0.725862
20
0.352633
11
0.723621
21
0.355986
0
LINE
8
BLACK
6
CONTINUOUS
10
0.723621
20
0.355986
11
0.722835
21
0.359941
0
LINE
8
BLACK
6
CONTINUOUS
10
0.722835
20
0.359941
11
0.722835
21
0.3875
0
LINE
8
BLACK
6
CONTINUOUS
10
0.722835
20
0.3875
11
0.723621
21
0.391455
0
LINE
8
BLACK
6
CONTINUOUS
10
0.723621
20
0.391455
11
0.724736
21
0.393123
0
LINE
8
BLACK
6
CONTINUOUS
10
0.724736
20
0.393123
11
0.722774
21
0.393513
0
LINE
8
BLACK
6
CONTINUOUS
10
0.722774
20
0.393513
11
0.72022
21
0.39522
0
LINE
8
BLACK
6
CONTINUOUS
10
0.72022
20
0.39522
11
0.718513
21
0.397774
0
LINE
8
BLACK
6
CONTINUOUS
10
0.718513
20
0.397774
11
0.718123
21
0.399736
0
LINE
8
BLACK
6
CONTINUOUS
10
0.718123
20
0.399736
11
0.716455
21
0.398621
0
LINE
8
BLACK
6
CONTINUOUS
10
0.716455
20
0.398621
11
0.7125
21
0.397835
0
LINE
8
BLACK
6
CONTINUOUS
10
0.7125
20
0.397835
11
0.684941
21
0.397835
0
LINE
8
BLACK
6
CONTINUOUS
10
0.684941
20
0.397835
11
0.680986
21
0.398621
0
LINE
8
BLACK
6
CONTINUOUS
10
0.680986
20
0.398621
11
0.677633
21
0.400862
0
LINE
8
BLACK
6
CONTINUOUS
10
0.677633
20
0.400862
11
0.675393
21
0.404214
0
LINE
8
BLACK
6
CONTINUOUS
10
0.675393
20
0.404214
11
0.674606
21
0.408169
0
LINE
8
BLACK
6
CONTINUOUS
10
0.674606
20
0.408169
11
0.674606
21
0.413091
0
LINE
8
BLACK
6
CONTINUOUS
10
0.674606
20
0.413091
11
0.675393
21
0.417045
0
LINE
8
BLACK
6
CONTINUOUS
10
0.675393
20
0.417045
11
0.677633
21
0.420398
0
LINE
8
BLACK
6
CONTINUOUS
10
0.677633
20
0.420398
11
0.677744
21
0.420472
0
LINE
8
BLACK
6
CONTINUOUS
10
0.677744
20
0.420472
11
0.677633
21
0.420547
0
LINE
8
BLACK
6
CONTINUOUS
10
0.677633
20
0.420547
11
0.675393
21
0.423899
0
LINE
8
BLACK
6
CONTINUOUS
10
0.675393
20
0.423899
11
0.674606
21
0.427854
0
LINE
8
BLACK
6
CONTINUOUS
10
0.674606
20
0.427854
11
0.674606
21
0.432776
0
LINE
8
BLACK
6
CONTINUOUS
10
0.674606
20
0.432776
11
0.675393
21
0.43673
0
LINE
8
BLACK
6
CONTINUOUS
10
0.675393
20
0.43673
11
0.677633
21
0.440083
0
LINE
8
BLACK
6
CONTINUOUS
10
0.677633
20
0.440083
11
0.677744
21
0.440157
0
LINE
8
BLACK
6
CONTINUOUS
10
0.677744
20
0.440157
11
0.677633
21
0.440232
0
LINE
8
BLACK
6
CONTINUOUS
10
0.677633
20
0.440232
11
0.675393
21
0.443584
0
LINE
8
BLACK
6
CONTINUOUS
10
0.675393
20
0.443584
11
0.674606
21
0.447539
0
LINE
8
BLACK
6
CONTINUOUS
10
0.674606
20
0.447539
11
0.674606
21
0.452461
0
LINE
8
BLACK
6
CONTINUOUS
10
0.674606
20
0.452461
11
0.675393
21
0.456416
0
LINE
8
BLACK
6
CONTINUOUS
10
0.675393
20
0.456416
11
0.677633
21
0.459768
0
LINE
8
BLACK
6
CONTINUOUS
10
0.677633
20
0.459768
11
0.677744
21
0.459843
0
LINE
8
BLACK
6
CONTINUOUS
10
0.677744
20
0.459843
11
0.677633
21
0.459917
0
LINE
8
BLACK
6
CONTINUOUS
10
0.677633
20
0.459917
11
0.675393
21
0.46327
0
LINE
8
BLACK
6
CONTINUOUS
10
0.675393
20
0.46327
11
0.674606
21
0.467224
0
LINE
8
BLACK
6
CONTINUOUS
10
0.674606
20
0.467224
11
0.674606
21
0.472146
0
LINE
8
BLACK
6
CONTINUOUS
10
0.674606
20
0.472146
11
0.675393
21
0.476101
0
LINE
8
BLACK
6
CONTINUOUS
10
0.675393
20
0.476101
11
0.677633
21
0.479453
0
LINE
8
BLACK
6
CONTINUOUS
10
0.677633
20
0.479453
11
0.677744
21
0.479528
0
LINE
8
BLACK
6
CONTINUOUS
10
0.677744
20
0.479528
11
0.677633
21
0.479602
0
LINE
8
BLACK
6
CONTINUOUS
10
0.677633
20
0.479602
11
0.675393
21
0.482955
0
LINE
8
BLACK
6
CONTINUOUS
10
0.675393
20
0.482955
11
0.674606
21
0.486909
0
LINE
8
BLACK
6
CONTINUOUS
10
0.674606
20
0.486909
11
0.674606
21
0.491831
0
LINE
8
BLACK
6
CONTINUOUS
10
0.674606
20
0.491831
11
0.675393
21
0.495786
0
LINE
8
BLACK
6
CONTINUOUS
10
0.675393
20
0.495786
11
0.677633
21
0.499138
0
LINE
8
BLACK
6
CONTINUOUS
10
0.677633
20
0.499138
11
0.680986
21
0.501379
0
LINE
8
BLACK
6
CONTINUOUS
10
0.680986
20
0.501379
11
0.684941
21
0.502165
0
LINE
8
BLACK
6
CONTINUOUS
10
0.684941
20
0.502165
11
0.7125
21
0.502165
0
LINE
8
BLACK
6
CONTINUOUS
10
0.7125
20
0.502165
11
0.716455
21
0.501379
0
LINE
8
BLACK
6
CONTINUOUS
10
0.716455
20
0.501379
11
0.718123
21
0.500264
0
LINE
8
BLACK
6
CONTINUOUS
10
0.718123
20
0.500264
11
0.718513
21
0.502226
0
LINE
8
BLACK
6
CONTINUOUS
10
0.718513
20
0.502226
11
0.72022
21
0.50478
0
LINE
8
BLACK
6
CONTINUOUS
10
0.72022
20
0.50478
11
0.722774
21
0.506487
0
LINE
8
BLACK
6
CONTINUOUS
10
0.722774
20
0.506487
11
0.724736
21
0.506877
0
LINE
8
BLACK
6
CONTINUOUS
10
0.724736
20
0.506877
11
0.723621
21
0.508545
0
LINE
8
BLACK
6
CONTINUOUS
10
0.723621
20
0.508545
11
0.722835
21
0.5125
0
LINE
8
BLACK
6
CONTINUOUS
10
0.722835
20
0.5125
11
0.722835
21
0.540059
0
LINE
8
BLACK
6
CONTINUOUS
10
0.722835
20
0.540059
11
0.723621
21
0.544014
0
LINE
8
BLACK
6
CONTINUOUS
10
0.723621
20
0.544014
11
0.725862
21
0.547367
0
LINE
8
BLACK
6
CONTINUOUS
10
0.725862
20
0.547367
11
0.729214
21
0.549607
0
LINE
8
BLACK
6
CONTINUOUS
10
0.729214
20
0.549607
11
0.733169
21
0.550394
0
LINE
8
BLACK
6
CONTINUOUS
10
0.733169
20
0.550394
11
0.738091
21
0.550394
0
LINE
8
BLACK
6
CONTINUOUS
10
0.738091
20
0.550394
11
0.742045
21
0.549607
0
LINE
8
BLACK
6
CONTINUOUS
10
1.18301
20
0.437275
11
1.18557
21
0.435568
0
LINE
8
BLACK
6
CONTINUOUS
10
1.18557
20
0.435568
11
1.18727
21
0.433013
0
LINE
8
BLACK
6
CONTINUOUS
10
1.18727
20
0.433013
11
1.18787
21
0.43
0
LINE
8
BLACK
6
CONTINUOUS
10
1.18787
20
0.43
11
1.18787
21
0.37
0
LINE
8
BLACK
6
CONTINUOUS
10
1.18787
20
0.37
11
1.18727
21
0.366987
0
LINE
8
BLACK
6
CONTINUOUS
10
1.18727
20
0.366987
11
1.18557
21
0.364432
0
LINE
8
BLACK
6
CONTINUOUS
10
1.18557
20
0.364432
11
1.18301
21
0.362725
0
LINE
8
BLACK
6
CONTINUOUS
10
1.18301
20
0.362725
11
1.18
21
0.362126
0
LINE
8
BLACK
6
CONTINUOUS
10
1.18
20
0.362126
11
1.12
21
0.362126
0
LINE
8
BLACK
6
CONTINUOUS
10
1.12
20
0.362126
11
1.11699
21
0.362725
0
LINE
8
BLACK
6
CONTINUOUS
10
1.11699
20
0.362725
11
1.11443
21
0.364432
0
LINE
8
BLACK
6
CONTINUOUS
10
1.11443
20
0.364432
11
1.11273
21
0.366987
0
LINE
8
BLACK
6
CONTINUOUS
10
1.11273
20
0.366987
11
1.11213
21
0.37
0
LINE
8
BLACK
6
CONTINUOUS
10
1.11213
20
0.37
11
1.11213
21
0.43
0
LINE
8
BLACK
6
CONTINUOUS
10
1.11213
20
0.43
11
1.11273
21
0.433013
0
LINE
8
BLACK
6
CONTINUOUS
10
1.11273
20
0.433013
11
1.11443
21
0.435568
0
LINE
8
BLACK
6
CONTINUOUS
10
1.11443
20
0.435568
11
1.11699
21
0.437275
0
LINE
8
BLACK
6
CONTINUOUS
10
1.11699
20
0.437275
11
1.12
21
0.437874
0
LINE
8
BLACK
6
CONTINUOUS
10
1.12
20
0.437874
11
1.18
21
0.437874
0
LINE
8
BLACK
6
CONTINUOUS
10
1.18
20
0.437874
11
1.18301
21
0.437275
0
LINE
8
BLACK
6
CONTINUOUS
10
1.28301
20
0.437275
11
1.28557
21
0.435568
0
LINE
8
BLACK
6
CONTINUOUS
10
1.28557
20
0.435568
11
1.28727
21
0.433013
0
LINE
8
BLACK
6
CONTINUOUS
10
1.28727
20
0.433013
11
1.28787
21
0.43
0
LINE
8
BLACK
6
CONTINUOUS
10
1.28787
20
0.43
11
1.28787
21
0.37
0
LINE
8
BLACK
6
CONTINUOUS
10
1.28787
20
0.37
11
1.28727
21
0.366987
0
LINE
8
BLACK
6
CONTINUOUS
10
1.28727
20
0.366987
11
1.28557
21
0.364432
0
LINE
8
BLACK
6
CONTINUOUS
10
1.28557
20
0.364432
11
1.28301
21
0.362725
0
LINE
8
BLACK
6
CONTINUOUS
10
1.28301
20
0.362725
11
1.28
21
0.362126
0
LINE
8
BLACK
6
CONTINUOUS
10
1.28
20
0.362126
11
1.22
21
0.362126
0
LINE
8
BLACK
6
CONTINUOUS
10
1.22
20
0.362126
11
1.21699
21
0.362725
0
LINE
8
BLACK
6
CONTINUOUS
10
1.21699
20
0.362725
11
1.21443
21
0.364432
0
LINE
8
BLACK
6
CONTINUOUS
10
1.21443
20
0.364432
11
1.21273
21
0.366987
0
LINE
8
BLACK
6
CONTINUOUS
10
1.21273
20
0.366987
11
1.21213
21
0.37
0
LINE
8
BLACK
6
CONTINUOUS
10
1.21213
20
0.37
11
1.21213
21
0.43
0
LINE
8
BLACK
6
CONTINUOUS
10
1.21213
20
0.43
11
1.21273
21
0.433013
0
LINE
8
BLACK
6
CONTINUOUS
10
1.21273
20
0.433013
11
1.21443
21
0.435568
0
LINE
8
BLACK
6
CONTINUOUS
10
1.21443
20
0.435568
11
1.21699
21
0.437275
0
LINE
8
BLACK
6
CONTINUOUS
10
1.21699
20
0.437275
11
1.22
21
0.437874
0
LINE
8
BLACK
6
CONTINUOUS
10
1.22
20
0.437874
11
1.28
21
0.437874
0
LINE
8
BLACK
6
CONTINUOUS
10
1.28
20
0.437874
11
1.28301
21
0.437275
0
LINE
8
BLACK
6
CONTINUOUS
10
-0.0944867
20
0.424775
11
-0.0919322
21
0.423068
0
LINE
8
BLACK
6
CONTINUOUS
10
-0.0919322
20
0.423068
11
-0.0902254
21
0.420513
0
LINE
8
BLACK
6
CONTINUOUS
10
-0.0902254
20
0.420513
11
-0.089626
21
0.4175
0
LINE
8
BLACK
6
CONTINUOUS
10
-0.089626
20
0.4175
11
-0.089626
21
0.3825
0
LINE
8
BLACK
6
CONTINUOUS
10
-0.089626
20
0.3825
11
-0.0902254
21
0.379487
0
LINE
8
BLACK
6
CONTINUOUS
10
-0.0902254
20
0.379487
11
-0.0919322
21
0.376932
0
LINE
8
BLACK
6
CONTINUOUS
10
-0.0919322
20
0.376932
11
-0.0944867
21
0.375225
0
LINE
8
BLACK
6
CONTINUOUS
10
-0.0944867
20
0.375225
11
-0.0975
21
0.374626
0
LINE
8
BLACK
6
CONTINUOUS
10
-0.0975
20
0.374626
11
-0.1525
21
0.374626
0
LINE
8
BLACK
6
CONTINUOUS
10
-0.1525
20
0.374626
11
-0.155513
21
0.375225
0
LINE
8
BLACK
6
CONTINUOUS
10
-0.155513
20
0.375225
11
-0.158068
21
0.376932
0
LINE
8
BLACK
6
CONTINUOUS
10
-0.158068
20
0.376932
11
-0.159775
21
0.379487
0
LINE
8
BLACK
6
CONTINUOUS
10
-0.159775
20
0.379487
11
-0.160374
21
0.3825
0
LINE
8
BLACK
6
CONTINUOUS
10
-0.160374
20
0.3825
11
-0.160374
21
0.4175
0
LINE
8
BLACK
6
CONTINUOUS
10
-0.160374
20
0.4175
11
-0.159775
21
0.420513
0
LINE
8
BLACK
6
CONTINUOUS
10
-0.159775
20
0.420513
11
-0.158068
21
0.423068
0
LINE
8
BLACK
6
CONTINUOUS
10
-0.158068
20
0.423068
11
-0.155513
21
0.424775
0
LINE
8
BLACK
6
CONTINUOUS
10
-0.155513
20
0.424775
11
-0.1525
21
0.425374
0
LINE
8
BLACK
6
CONTINUOUS
10
-0.1525
20
0.425374
11
-0.0975
21
0.425374
0
LINE
8
BLACK
6
CONTINUOUS
10
-0.0975
20
0.425374
11
-0.0944867
21
0.424775
0
LINE
8
BLACK
6
CONTINUOUS
10
0.00551327
20
0.424775
11
0.00806776
21
0.423068
0
LINE
8
BLACK
6
CONTINUOUS
10
0.00806776
20
0.423068
11
0.00977465
21
0.420513
0
LINE
8
BLACK
6
CONTINUOUS
10
0.00977465
20
0.420513
11
0.010374
21
0.4175
0
LINE
8
BLACK
6
CONTINUOUS
10
0.010374
20
0.4175
11
0.010374
21
0.3825
0
LINE
8
BLACK
6
CONTINUOUS
10
0.010374
20
0.3825
11
0.00977465
21
0.379487
0
LINE
8
BLACK
6
CONTINUOUS
10
0.00977465
20
0.379487
11
0.00806776
21
0.376932
0
LINE
8
BLACK
6
CONTINUOUS
10
0.00806776
20
0.376932
11
0.00551327
21
0.375225
0
LINE
8
BLACK
6
CONTINUOUS
10
0.00551327
20
0.375225
11
0.0025
21
0.374626
0
LINE
8
BLACK
6
CONTINUOUS
10
0.0025
20
0.374626
11
-0.0525
21
0.374626
0
LINE
8
BLACK
6
CONTINUOUS
10
-0.0525
20
0.374626
11
-0.0555133
21
0.375225
0
LINE
8
BLACK
6
CONTINUOUS
10
-0.0555133
20
0.375225
11
-0.0580678
21
0.376932
0
LINE
8
BLACK
6
CONTINUOUS
10
-0.0580678
20
0.376932
11
-0.0597746
21
0.379487
0
LINE
8
BLACK
6
CONTINUOUS
10
-0.0597746
20
0.379487
11
-0.060374
21
0.3825
0
LINE
8
BLACK
6
CONTINUOUS
10
-0.060374
20
0.3825
11
-0.060374
21
0.4175
0
LINE
8
BLACK
6
CONTINUOUS
10
-0.060374
20
0.4175
11
-0.0597746
21
0.420513
0
LINE
8
BLACK
6
CONTINUOUS
10
-0.0597746
20
0.420513
11
-0.0580678
21
0.423068
0
LINE
8
BLACK
6
CONTINUOUS
10
-0.0580678
20
0.423068
11
-0.0555133
21
0.424775
0
LINE
8
BLACK
6
CONTINUOUS
10
-0.0555133
20
0.424775
11
-0.0525
21
0.425374
0
LINE
8
BLACK
6
CONTINUOUS
10
-0.0525
20
0.425374
11
0.0025
21
0.425374
0
LINE
8
BLACK
6
CONTINUOUS
10
0.0025
20
0.425374
11
0.00551327
21
0.424775
0
LINE
8
BLACK
6
CONTINUOUS
10
0.111872
20
0.524204
11
0.114426
21
0.522497
0
LINE
8
BLACK
6
CONTINUOUS
10
0.114426
20
0.522497
11
0.116133
21
0.519942
0
LINE
8
BLACK
6
CONTINUOUS
10
0.116133
20
0.519942
11
0.116732
21
0.516929
0
LINE
8
BLACK
6
CONTINUOUS
10
0.116732
20
0.516929
11
0.116732
21
0.383071
0
LINE
8
BLACK
6
CONTINUOUS
10
0.116732
20
0.383071
11
0.116133
21
0.380058
0
LINE
8
BLACK
6
CONTINUOUS
10
0.116133
20
0.380058
11
0.114426
21
0.377503
0
LINE
8
BLACK
6
CONTINUOUS
10
0.114426
20
0.377503
11
0.111872
21
0.375796
0
LINE
8
BLACK
6
CONTINUOUS
10
0.111872
20
0.375796
11
0.108858
21
0.375197
0
LINE
8
BLACK
6
CONTINUOUS
10
0.108858
20
0.375197
11
0.0340551
21
0.375197
0
LINE
8
BLACK
6
CONTINUOUS
10
0.0340551
20
0.375197
11
0.0310419
21
0.375796
0
LINE
8
BLACK
6
CONTINUOUS
10
0.0310419
20
0.375796
11
0.0284874
21
0.377503
0
LINE
8
BLACK
6
CONTINUOUS
10
0.0284874
20
0.377503
11
0.0267805
21
0.380058
0
LINE
8
BLACK
6
CONTINUOUS
10
0.0267805
20
0.380058
11
0.0261811
21
0.383071
0
LINE
8
BLACK
6
CONTINUOUS
10
0.0261811
20
0.383071
11
0.0261811
21
0.516929
0
LINE
8
BLACK
6
CONTINUOUS
10
0.0261811
20
0.516929
11
0.0267805
21
0.519942
0
LINE
8
BLACK
6
CONTINUOUS
10
0.0267805
20
0.519942
11
0.0284874
21
0.522497
0
LINE
8
BLACK
6
CONTINUOUS
10
0.0284874
20
0.522497
11
0.0310419
21
0.524204
0
LINE
8
BLACK
6
CONTINUOUS
10
0.0310419
20
0.524204
11
0.0340551
21
0.524803
0
LINE
8
BLACK
6
CONTINUOUS
10
0.0340551
20
0.524803
11
0.108858
21
0.524803
0
LINE
8
BLACK
6
CONTINUOUS
10
0.108858
20
0.524803
11
0.111872
21
0.524204
0
LINE
8
BLACK
6
CONTINUOUS
10
0.265415
20
0.524204
11
0.267969
21
0.522497
0
LINE
8
BLACK
6
CONTINUOUS
10
0.267969
20
0.522497
11
0.269676
21
0.519942
0
LINE
8
BLACK
6
CONTINUOUS
10
0.269676
20
0.519942
11
0.270276
21
0.516929
0
LINE
8
BLACK
6
CONTINUOUS
10
0.270276
20
0.516929
11
0.270276
21
0.383071
0
LINE
8
BLACK
6
CONTINUOUS
10
0.270276
20
0.383071
11
0.269676
21
0.380058
0
LINE
8
BLACK
6
CONTINUOUS
10
0.269676
20
0.380058
11
0.267969
21
0.377503
0
LINE
8
BLACK
6
CONTINUOUS
10
0.267969
20
0.377503
11
0.265415
21
0.375796
0
LINE
8
BLACK
6
CONTINUOUS
10
0.265415
20
0.375796
11
0.262402
21
0.375197
0
LINE
8
BLACK
6
CONTINUOUS
10
0.262402
20
0.375197
11
0.187598
21
0.375197
0
LINE
8
BLACK
6
CONTINUOUS
10
0.187598
20
0.375197
11
0.184585
21
0.375796
0
LINE
8
BLACK
6
CONTINUOUS
10
0.184585
20
0.375796
11
0.182031
21
0.377503
0
LINE
8
BLACK
6
CONTINUOUS
10
0.182031
20
0.377503
11
0.180324
21
0.380058
0
LINE
8
BLACK
6
CONTINUOUS
10
0.180324
20
0.380058
11
0.179724
21
0.383071
0
LINE
8
BLACK
6
CONTINUOUS
10
0.179724
20
0.383071
11
0.179724
21
0.516929
0
LINE
8
BLACK
6
CONTINUOUS
10
0.179724
20
0.516929
11
0.180324
21
0.519942
0
LINE
8
BLACK
6
CONTINUOUS
10
0.180324
20
0.519942
11
0.182031
21
0.522497
0
LINE
8
BLACK
6
CONTINUOUS
10
0.182031
20
0.522497
11
0.184585
21
0.524204
0
LINE
8
BLACK
6
CONTINUOUS
10
0.184585
20
0.524204
11
0.187598
21
0.524803
0
LINE
8
BLACK
6
CONTINUOUS
10
0.187598
20
0.524803
11
0.262402
21
0.524803
0
LINE
8
BLACK
6
CONTINUOUS
10
0.262402
20
0.524803
11
0.265415
21
0.524204
0
LINE
8
BLACK
6
CONTINUOUS
10
0.418065
20
0.483969
11
0.42582
21
0.481617
0
LINE
8
BLACK
6
CONTINUOUS
10
0.42582
20
0.481617
11
0.432966
21
0.477797
0
LINE
8
BLACK
6
CONTINUOUS
10
0.432966
20
0.477797
11
0.439231
21
0.472656
0
LINE
8
BLACK
6
CONTINUOUS
10
0.439231
20
0.472656
11
0.444372
21
0.466392
0
LINE
8
BLACK
6
CONTINUOUS
10
0.444372
20
0.466392
11
0.448192
21
0.459245
0
LINE
8
BLACK
6
CONTINUOUS
10
0.448192
20
0.459245
11
0.450544
21
0.45149
0
LINE
8
BLACK
6
CONTINUOUS
10
0.450544
20
0.45149
11
0.451339
21
0.443425
0
LINE
8
BLACK
6
CONTINUOUS
10
0.451339
20
0.443425
11
0.450544
21
0.43536
0
LINE
8
BLACK
6
CONTINUOUS
10
0.450544
20
0.43536
11
0.448192
21
0.427606
0
LINE
8
BLACK
6
CONTINUOUS
10
0.448192
20
0.427606
11
0.444372
21
0.420459
0
LINE
8
BLACK
6
CONTINUOUS
10
0.444372
20
0.420459
11
0.439231
21
0.414194
0
LINE
8
BLACK
6
CONTINUOUS
10
0.439231
20
0.414194
11
0.432966
21
0.409053
0
LINE
8
BLACK
6
CONTINUOUS
10
0.432966
20
0.409053
11
0.42582
21
0.405233
0
LINE
8
BLACK
6
CONTINUOUS
10
0.42582
20
0.405233
11
0.418065
21
0.402881
0
LINE
8
BLACK
6
CONTINUOUS
10
0.418065
20
0.402881
11
0.41
21
0.402087
0
LINE
8
BLACK
6
CONTINUOUS
10
0.41
20
0.402087
11
0.401935
21
0.402881
0
LINE
8
BLACK
6
CONTINUOUS
10
0.401935
20
0.402881
11
0.39418
21
0.405233
0
LINE
8
BLACK
6
CONTINUOUS
10
0.39418
20
0.405233
11
0.387034
21
0.409053
0
LINE
8
BLACK
6
CONTINUOUS
10
0.387034
20
0.409053
11
0.380769
21
0.414194
0
LINE
8
BLACK
6
CONTINUOUS
10
0.380769
20
0.414194
11
0.375628
21
0.420459
0
LINE
8
BLACK
6
CONTINUOUS
10
0.375628
20
0.420459
11
0.371808
21
0.427606
0
LINE
8
BLACK
6
CONTINUOUS
10
0.371808
20
0.427606
11
0.37063
21
0.43149
0
LINE
8
BLACK
6
CONTINUOUS
10
0.37063
20
0.43149
11
0.369452
21
0.427606
0
LINE
8
BLACK
6
CONTINUOUS
10
0.369452
20
0.427606
11
0.365632
21
0.420459
0
LINE
8
BLACK
6
CONTINUOUS
10
0.365632
20
0.420459
11
0.360491
21
0.414194
0
LINE
8
BLACK
6
CONTINUOUS
10
0.360491
20
0.414194
11
0.354226
21
0.409053
0
LINE
8
BLACK
6
CONTINUOUS
10
0.354226
20
0.409053
11
0.347079
21
0.405233
0
LINE
8
BLACK
6
CONTINUOUS
10
0.347079
20
0.405233
11
0.339325
21
0.402881
0
LINE
8
BLACK
6
CONTINUOUS
10
0.339325
20
0.402881
11
0.33126
21
0.402087
0
LINE
8
BLACK
6
CONTINUOUS
10
0.33126
20
0.402087
11
0.323195
21
0.402881
0
LINE
8
BLACK
6
CONTINUOUS
10
0.323195
20
0.402881
11
0.31544
21
0.405233
0
LINE
8
BLACK
6
CONTINUOUS
10
0.31544
20
0.405233
11
0.308293
21
0.409053
0
LINE
8
BLACK
6
CONTINUOUS
10
0.308293
20
0.409053
11
0.302029
21
0.414194
0
LINE
8
BLACK
6
CONTINUOUS
10
0.302029
20
0.414194
11
0.296888
21
0.420459
0
LINE
8
BLACK
6
CONTINUOUS
10
0.296888
20
0.420459
11
0.293068
21
0.427606
0
LINE
8
BLACK
6
CONTINUOUS
10
0.293068
20
0.427606
11
0.290716
21
0.43536
0
LINE
8
BLACK
6
CONTINUOUS
10
0.290716
20
0.43536
11
0.289921
21
0.443425
0
LINE
8
BLACK
6
CONTINUOUS
10
0.289921
20
0.443425
11
0.290716
21
0.45149
0
LINE
8
BLACK
6
CONTINUOUS
10
0.290716
20
0.45149
11
0.293068
21
0.459245
0
LINE
8
BLACK
6
CONTINUOUS
10
0.293068
20
0.459245
11
0.296888
21
0.466392
0
LINE
8
BLACK
6
CONTINUOUS
10
0.296888
20
0.466392
11
0.302029
21
0.472656
0
LINE
8
BLACK
6
CONTINUOUS
10
0.302029
20
0.472656
11
0.308293
21
0.477797
0
LINE
8
BLACK
6
CONTINUOUS
10
0.308293
20
0.477797
11
0.31544
21
0.481617
0
LINE
8
BLACK
6
CONTINUOUS
10
0.31544
20
0.481617
11
0.323195
21
0.483969
0
LINE
8
BLACK
6
CONTINUOUS
10
0.323195
20
0.483969
11
0.33126
21
0.484764
0
LINE
8
BLACK
6
CONTINUOUS
10
0.33126
20
0.484764
11
0.339325
21
0.483969
0
LINE
8
BLACK
6
CONTINUOUS
10
0.339325
20
0.483969
11
0.347079
21
0.481617
0
LINE
8
BLACK
6
CONTINUOUS
10
0.347079
20
0.481617
11
0.354226
21
0.477797
0
LINE
8
BLACK
6
CONTINUOUS
10
0.354226
20
0.477797
11
0.360491
21
0.472656
0
LINE
8
BLACK
6
CONTINUOUS
10
0.360491
20
0.472656
11
0.365632
21
0.466392
0
LINE
8
BLACK
6
CONTINUOUS
10
0.365632
20
0.466392
11
0.369452
21
0.459245
0
LINE
8
BLACK
6
CONTINUOUS
10
0.369452
20
0.459245
11
0.37063
21
0.455361
0
LINE
8
BLACK
6
CONTINUOUS
10
0.37063
20
0.455361
11
0.371808
21
0.459245
0
LINE
8
BLACK
6
CONTINUOUS
10
0.371808
20
0.459245
11
0.375628
21
0.466392
0
LINE
8
BLACK
6
CONTINUOUS
10
0.375628
20
0.466392
11
0.380769
21
0.472656
0
LINE
8
BLACK
6
CONTINUOUS
10
0.380769
20
0.472656
11
0.387034
21
0.477797
0
LINE
8
BLACK
6
CONTINUOUS
10
0.387034
20
0.477797
11
0.39418
21
0.481617
0
LINE
8
BLACK
6
CONTINUOUS
10
0.39418
20
0.481617
11
0.401935
21
0.483969
0
LINE
8
BLACK
6
CONTINUOUS
10
0.401935
20
0.483969
11
0.41
21
0.484764
0
LINE
8
BLACK
6
CONTINUOUS
10
0.41
20
0.484764
11
0.418065
21
0.483969
0
LINE
8
BLACK
6
CONTINUOUS
10
-0.0944867
20
0.499775
11
-0.0919322
21
0.498068
0
LINE
8
BLACK
6
CONTINUOUS
10
-0.0919322
20
0.498068
11
-0.0902254
21
0.495513
0
LINE
8
BLACK
6
CONTINUOUS
10
-0.0902254
20
0.495513
11
-0.089626
21
0.4925
0
LINE
8
BLACK
6
CONTINUOUS
10
-0.089626
20
0.4925
11
-0.089626
21
0.4575
0
LINE
8
BLACK
6
CONTINUOUS
10
-0.089626
20
0.4575
11
-0.0902254
21
0.454487
0
LINE
8
BLACK
6
CONTINUOUS
10
-0.0902254
20
0.454487
11
-0.0919322
21
0.451932
0
LINE
8
BLACK
6
CONTINUOUS
10
-0.0919322
20
0.451932
11
-0.0944867
21
0.450225
0
LINE
8
BLACK
6
CONTINUOUS
10
-0.0944867
20
0.450225
11
-0.0975
21
0.449626
0
LINE
8
BLACK
6
CONTINUOUS
10
-0.0975
20
0.449626
11
-0.1525
21
0.449626
0
LINE
8
BLACK
6
CONTINUOUS
10
-0.1525
20
0.449626
11
-0.155513
21
0.450225
0
LINE
8
BLACK
6
CONTINUOUS
10
-0.155513
20
0.450225
11
-0.158068
21
0.451932
0
LINE
8
BLACK
6
CONTINUOUS
10
-0.158068
20
0.451932
11
-0.159775
21
0.454487
0
LINE
8
BLACK
6
CONTINUOUS
10
-0.159775
20
0.454487
11
-0.160374
21
0.4575
0
LINE
8
BLACK
6
CONTINUOUS
10
-0.160374
20
0.4575
11
-0.160374
21
0.4925
0
LINE
8
BLACK
6
CONTINUOUS
10
-0.160374
20
0.4925
11
-0.159775
21
0.495513
0
LINE
8
BLACK
6
CONTINUOUS
10
-0.159775
20
0.495513
11
-0.158068
21
0.498068
0
LINE
8
BLACK
6
CONTINUOUS
10
-0.158068
20
0.498068
11
-0.155513
21
0.499775
0
LINE
8
BLACK
6
CONTINUOUS
10
-0.155513
20
0.499775
11
-0.1525
21
0.500374
0
LINE
8
BLACK
6
CONTINUOUS
10
-0.1525
20
0.500374
11
-0.0975
21
0.500374
0
LINE
8
BLACK
6
CONTINUOUS
10
-0.0975
20
0.500374
11
-0.0944867
21
0.499775
0
LINE
8
BLACK
6
CONTINUOUS
10
0.00551327
20
0.499775
11
0.00806776
21
0.498068
0
LINE
8
BLACK
6
CONTINUOUS
10
0.00806776
20
0.498068
11
0.00977465
21
0.495513
0
LINE
8
BLACK
6
CONTINUOUS
10
0.00977465
20
0.495513
11
0.010374
21
0.4925
0
LINE
8
BLACK
6
CONTINUOUS
10
0.010374
20
0.4925
11
0.010374
21
0.4575
0
LINE
8
BLACK
6
CONTINUOUS
10
0.010374
20
0.4575
11
0.00977465
21
0.454487
0
LINE
8
BLACK
6
CONTINUOUS
10
0.00977465
20
0.454487
11
0.00806776
21
0.451932
0
LINE
8
BLACK
6
CONTINUOUS
10
0.00806776
20
0.451932
11
0.00551327
21
0.450225
0
LINE
8
BLACK
6
CONTINUOUS
10
0.00551327
20
0.450225
11
0.0025
21
0.449626
0
LINE
8
BLACK
6
CONTINUOUS
10
0.0025
20
0.449626
11
-0.0525
21
0.449626
0
LINE
8
BLACK
6
CONTINUOUS
10
-0.0525
20
0.449626
11
-0.0555133
21
0.450225
0
LINE
8
BLACK
6
CONTINUOUS
10
-0.0555133
20
0.450225
11
-0.0580678
21
0.451932
0
LINE
8
BLACK
6
CONTINUOUS
10
-0.0580678
20
0.451932
11
-0.0597746
21
0.454487
0
LINE
8
BLACK
6
CONTINUOUS
10
-0.0597746
20
0.454487
11
-0.060374
21
0.4575
0
LINE
8
BLACK
6
CONTINUOUS
10
-0.060374
20
0.4575
11
-0.060374
21
0.4925
0
LINE
8
BLACK
6
CONTINUOUS
10
-0.060374
20
0.4925
11
-0.0597746
21
0.495513
0
LINE
8
BLACK
6
CONTINUOUS
10
-0.0597746
20
0.495513
11
-0.0580678
21
0.498068
0
LINE
8
BLACK
6
CONTINUOUS
10
-0.0580678
20
0.498068
11
-0.0555133
21
0.499775
0
LINE
8
BLACK
6
CONTINUOUS
10
-0.0555133
20
0.499775
11
-0.0525
21
0.500374
0
LINE
8
BLACK
6
CONTINUOUS
10
-0.0525
20
0.500374
11
0.0025
21
0.500374
0
LINE
8
BLACK
6
CONTINUOUS
10
0.0025
20
0.500374
11
0.00551327
21
0.499775
0
LINE
8
BLACK
6
CONTINUOUS
10
1.18301
20
0.537275
11
1.18557
21
0.535568
0
LINE
8
BLACK
6
CONTINUOUS
10
1.18557
20
0.535568
11
1.18727
21
0.533013
0
LINE
8
BLACK
6
CONTINUOUS
10
1.18727
20
0.533013
11
1.18787
21
0.53
0
LINE
8
BLACK
6
CONTINUOUS
10
1.18787
20
0.53
11
1.18787
21
0.47
0
LINE
8
BLACK
6
CONTINUOUS
10
1.18787
20
0.47
11
1.18727
21
0.466987
0
LINE
8
BLACK
6
CONTINUOUS
10
1.18727
20
0.466987
11
1.18557
21
0.464432
0
LINE
8
BLACK
6
CONTINUOUS
10
1.18557
20
0.464432
11
1.18301
21
0.462725
0
LINE
8
BLACK
6
CONTINUOUS
10
1.18301
20
0.462725
11
1.18
21
0.462126
0
LINE
8
BLACK
6
CONTINUOUS
10
1.18
20
0.462126
11
1.12
21
0.462126
0
LINE
8
BLACK
6
CONTINUOUS
10
1.12
20
0.462126
11
1.11699
21
0.462725
0
LINE
8
BLACK
6
CONTINUOUS
10
1.11699
20
0.462725
11
1.11443
21
0.464432
0
LINE
8
BLACK
6
CONTINUOUS
10
1.11443
20
0.464432
11
1.11273
21
0.466987
0
LINE
8
BLACK
6
CONTINUOUS
10
1.11273
20
0.466987
11
1.11213
21
0.47
0
LINE
8
BLACK
6
CONTINUOUS
10
1.11213
20
0.47
11
1.11213
21
0.53
0
LINE
8
BLACK
6
CONTINUOUS
10
1.11213
20
0.53
11
1.11273
21
0.533013
0
LINE
8
BLACK
6
CONTINUOUS
10
1.11273
20
0.533013
11
1.11443
21
0.535568
0
LINE
8
BLACK
6
CONTINUOUS
10
1.11443
20
0.535568
11
1.11699
21
0.537275
0
LINE
8
BLACK
6
CONTINUOUS
10
1.11699
20
0.537275
11
1.12
21
0.537874
0
LINE
8
BLACK
6
CONTINUOUS
10
1.12
20
0.537874
11
1.18
21
0.537874
0
LINE
8
BLACK
6
CONTINUOUS
10
1.18
20
0.537874
11
1.18301
21
0.537275
0
LINE
8
BLACK
6
CONTINUOUS
10
1.28301
20
0.537275
11
1.28557
21
0.535568
0
LINE
8
BLACK
6
CONTINUOUS
10
1.28557
20
0.535568
11
1.28727
21
0.533013
0
LINE
8
BLACK
6
CONTINUOUS
10
1.28727
20
0.533013
11
1.28787
21
0.53
0
LINE
8
BLACK
6
CONTINUOUS
10
1.28787
20
0.53
11
1.28787
21
0.47
0
LINE
8
BLACK
6
CONTINUOUS
10
1.28787
20
0.47
11
1.28727
21
0.466987
0
LINE
8
BLACK
6
CONTINUOUS
10
1.28727
20
0.466987
11
1.28557
21
0.464432
0
LINE
8
BLACK
6
CONTINUOUS
10
1.28557
20
0.464432
11
1.28301
21
0.462725
0
LINE
8
BLACK
6
CONTINUOUS
10
1.28301
20
0.462725
11
1.28
21
0.462126
0
LINE
8
BLACK
6
CONTINUOUS
10
1.28
20
0.462126
11
1.22
21
0.462126
0
LINE
8
BLACK
6
CONTINUOUS
10
1.22
20
0.462126
11
1.21699
21
0.462725
0
LINE
8
BLACK
6
CONTINUOUS
10
1.21699
20
0.462725
11
1.21443
21
0.464432
0
LINE
8
BLACK
6
CONTINUOUS
10
1.21443
20
0.464432
11
1.21273
21
0.466987
0
LINE
8
BLACK
6
CONTINUOUS
10
1.21273
20
0.466987
11
1.21213
21
0.47
0
LINE
8
BLACK
6
CONTINUOUS
10
1.21213
20
0.47
11
1.21213
21
0.53
0
LINE
8
BLACK
6
CONTINUOUS
10
1.21213
20
0.53
11
1.21273
21
0.533013
0
LINE
8
BLACK
6
CONTINUOUS
10
1.21273
20
0.533013
11
1.21443
21
0.535568
0
LINE
8
BLACK
6
CONTINUOUS
10
1.21443
20
0.535568
11
1.21699
21
0.537275
0
LINE
8
BLACK
6
CONTINUOUS
10
1.21699
20
0.537275
11
1.22
21
0.537874
0
LINE
8
BLACK
6
CONTINUOUS
10
1.22
20
0.537874
11
1.28
21
0.537874
0
LINE
8
BLACK
6
CONTINUOUS
10
1.28
20
0.537874
11
1.28301
21
0.537275
0
LINE
8
BLACK
6
CONTINUOUS
10
0.434542
20
0.631514
11
0.438617
21
0.629522
0
LINE
8
BLACK
6
CONTINUOUS
10
0.438617
20
0.629522
11
0.441825
21
0.626314
0
LINE
8
BLACK
6
CONTINUOUS
10
0.441825
20
0.626314
11
0.443817
21
0.622239
0
LINE
8
BLACK
6
CONTINUOUS
10
0.443817
20
0.622239
11
0.44439
21
0.618307
0
LINE
8
BLACK
6
CONTINUOUS
10
0.44439
20
0.618307
11
0.44439
21
0.606496
0
LINE
8
BLACK
6
CONTINUOUS
10
0.44439
20
0.606496
11
0.443817
21
0.602564
0
LINE
8
BLACK
6
CONTINUOUS
10
0.443817
20
0.602564
11
0.441825
21
0.598489
0
LINE
8
BLACK
6
CONTINUOUS
10
0.441825
20
0.598489
11
0.438617
21
0.595282
0
LINE
8
BLACK
6
CONTINUOUS
10
0.438617
20
0.595282
11
0.435384
21
0.593701
0
LINE
8
BLACK
6
CONTINUOUS
10
0.435384
20
0.593701
11
0.438617
21
0.59212
0
LINE
8
BLACK
6
CONTINUOUS
10
0.438617
20
0.59212
11
0.441825
21
0.588912
0
LINE
8
BLACK
6
CONTINUOUS
10
0.441825
20
0.588912
11
0.443817
21
0.584837
0
LINE
8
BLACK
6
CONTINUOUS
10
0.443817
20
0.584837
11
0.44439
21
0.580906
0
LINE
8
BLACK
6
CONTINUOUS
10
0.44439
20
0.580906
11
0.44439
21
0.569094
0
LINE
8
BLACK
6
CONTINUOUS
10
0.44439
20
0.569094
11
0.443817
21
0.565163
0
LINE
8
BLACK
6
CONTINUOUS
10
0.443817
20
0.565163
11
0.441825
21
0.561088
0
LINE
8
BLACK
6
CONTINUOUS
10
0.441825
20
0.561088
11
0.438617
21
0.55788
0
LINE
8
BLACK
6
CONTINUOUS
10
0.438617
20
0.55788
11
0.435384
21
0.556299
0
LINE
8
BLACK
6
CONTINUOUS
10
0.435384
20
0.556299
11
0.438617
21
0.554718
0
LINE
8
BLACK
6
CONTINUOUS
10
0.438617
20
0.554718
11
0.441825
21
0.551511
0
LINE
8
BLACK
6
CONTINUOUS
10
0.441825
20
0.551511
11
0.443817
21
0.547436
0
LINE
8
BLACK
6
CONTINUOUS
10
0.443817
20
0.547436
11
0.44439
21
0.543504
0
LINE
8
BLACK
6
CONTINUOUS
10
0.44439
20
0.543504
11
0.44439
21
0.531693
0
LINE
8
BLACK
6
CONTINUOUS
10
0.44439
20
0.531693
11
0.443817
21
0.527761
0
LINE
8
BLACK
6
CONTINUOUS
10
0.443817
20
0.527761
11
0.441825
21
0.523686
0
LINE
8
BLACK
6
CONTINUOUS
10
0.441825
20
0.523686
11
0.438617
21
0.520478
0
LINE
8
BLACK
6
CONTINUOUS
10
0.438617
20
0.520478
11
0.434542
21
0.518486
0
LINE
8
BLACK
6
CONTINUOUS
10
0.434542
20
0.518486
11
0.43061
21
0.517913
0
LINE
8
BLACK
6
CONTINUOUS
10
0.43061
20
0.517913
11
0.390256
21
0.517913
0
LINE
8
BLACK
6
CONTINUOUS
10
0.390256
20
0.517913
11
0.386324
21
0.518486
0
LINE
8
BLACK
6
CONTINUOUS
10
0.386324
20
0.518486
11
0.382249
21
0.520478
0
LINE
8
BLACK
6
CONTINUOUS
10
0.382249
20
0.520478
11
0.379041
21
0.523686
0
LINE
8
BLACK
6
CONTINUOUS
10
0.379041
20
0.523686
11
0.377049
21
0.527761
0
LINE
8
BLACK
6
CONTINUOUS
10
0.377049
20
0.527761
11
0.376476
21
0.531693
0
LINE
8
BLACK
6
CONTINUOUS
10
0.376476
20
0.531693
11
0.376476
21
0.543504
0
LINE
8
BLACK
6
CONTINUOUS
10
0.376476
20
0.543504
11
0.377049
21
0.547436
0
LINE
8
BLACK
6
CONTINUOUS
10
0.377049
20
0.547436
11
0.379041
21
0.551511
0
LINE
8
BLACK
6
CONTINUOUS
10
0.379041
20
0.551511
11
0.382249
21
0.554718
0
LINE
8
BLACK
6
CONTINUOUS
10
0.382249
20
0.554718
11
0.385483
21
0.556299
0
LINE
8
BLACK
6
CONTINUOUS
10
0.385483
20
0.556299
11
0.382249
21
0.55788
0
LINE
8
BLACK
6
CONTINUOUS
10
0.382249
20
0.55788
11
0.379041
21
0.561088
0
LINE
8
BLACK
6
CONTINUOUS
10
0.379041
20
0.561088
11
0.377049
21
0.565163
0
LINE
8
BLACK
6
CONTINUOUS
10
0.377049
20
0.565163
11
0.376476
21
0.569094
0
LINE
8
BLACK
6
CONTINUOUS
10
0.376476
20
0.569094
11
0.376476
21
0.580906
0
LINE
8
BLACK
6
CONTINUOUS
10
0.376476
20
0.580906
11
0.377049
21
0.584837
0
LINE
8
BLACK
6
CONTINUOUS
10
0.377049
20
0.584837
11
0.379041
21
0.588912
0
LINE
8
BLACK
6
CONTINUOUS
10
0.379041
20
0.588912
11
0.382249
21
0.59212
0
LINE
8
BLACK
6
CONTINUOUS
10
0.382249
20
0.59212
11
0.385483
21
0.593701
0
LINE
8
BLACK
6
CONTINUOUS
10
0.385483
20
0.593701
11
0.382249
21
0.595282
0
LINE
8
BLACK
6
CONTINUOUS
10
0.382249
20
0.595282
11
0.379041
21
0.598489
0
LINE
8
BLACK
6
CONTINUOUS
10
0.379041
20
0.598489
11
0.377049
21
0.602564
0
LINE
8
BLACK
6
CONTINUOUS
10
0.377049
20
0.602564
11
0.376476
21
0.606496
0
LINE
8
BLACK
6
CONTINUOUS
10
0.376476
20
0.606496
11
0.376476
21
0.618307
0
LINE
8
BLACK
6
CONTINUOUS
10
0.376476
20
0.618307
11
0.377049
21
0.622239
0
LINE
8
BLACK
6
CONTINUOUS
10
0.377049
20
0.622239
11
0.379041
21
0.626314
0
LINE
8
BLACK
6
CONTINUOUS
10
0.379041
20
0.626314
11
0.382249
21
0.629522
0
LINE
8
BLACK
6
CONTINUOUS
10
0.382249
20
0.629522
11
0.386324
21
0.631514
0
LINE
8
BLACK
6
CONTINUOUS
10
0.386324
20
0.631514
11
0.390256
21
0.632087
0
LINE
8
BLACK
6
CONTINUOUS
10
0.390256
20
0.632087
11
0.43061
21
0.632087
0
LINE
8
BLACK
6
CONTINUOUS
10
0.43061
20
0.632087
11
0.434542
21
0.631514
0
LINE
8
BLACK
6
CONTINUOUS
10
0.524109
20
0.631514
11
0.528184
21
0.629522
0
LINE
8
BLACK
6
CONTINUOUS
10
0.528184
20
0.629522
11
0.531392
21
0.626314
0
LINE
8
BLACK
6
CONTINUOUS
10
0.531392
20
0.626314
11
0.533384
21
0.622239
0
LINE
8
BLACK
6
CONTINUOUS
10
0.533384
20
0.622239
11
0.533957
21
0.618307
0
LINE
8
BLACK
6
CONTINUOUS
10
0.533957
20
0.618307
11
0.533957
21
0.606496
0
LINE
8
BLACK
6
CONTINUOUS
10
0.533957
20
0.606496
11
0.533384
21
0.602564
0
LINE
8
BLACK
6
CONTINUOUS
10
0.533384
20
0.602564
11
0.531392
21
0.598489
0
LINE
8
BLACK
6
CONTINUOUS
10
0.531392
20
0.598489
11
0.528184
21
0.595282
0
LINE
8
BLACK
6
CONTINUOUS
10
0.528184
20
0.595282
11
0.524951
21
0.593701
0
LINE
8
BLACK
6
CONTINUOUS
10
0.524951
20
0.593701
11
0.528184
21
0.59212
0
LINE
8
BLACK
6
CONTINUOUS
10
0.528184
20
0.59212
11
0.531392
21
0.588912
0
LINE
8
BLACK
6
CONTINUOUS
10
0.531392
20
0.588912
11
0.533384
21
0.584837
0
LINE
8
BLACK
6
CONTINUOUS
10
0.533384
20
0.584837
11
0.533957
21
0.580906
0
LINE
8
BLACK
6
CONTINUOUS
10
0.533957
20
0.580906
11
0.533957
21
0.569094
0
LINE
8
BLACK
6
CONTINUOUS
10
0.533957
20
0.569094
11
0.533384
21
0.565163
0
LINE
8
BLACK
6
CONTINUOUS
10
0.533384
20
0.565163
11
0.531392
21
0.561088
0
LINE
8
BLACK
6
CONTINUOUS
10
0.531392
20
0.561088
11
0.528184
21
0.55788
0
LINE
8
BLACK
6
CONTINUOUS
10
0.528184
20
0.55788
11
0.524951
21
0.556299
0
LINE
8
BLACK
6
CONTINUOUS
10
0.524951
20
0.556299
11
0.528184
21
0.554718
0
LINE
8
BLACK
6
CONTINUOUS
10
0.528184
20
0.554718
11
0.531392
21
0.551511
0
LINE
8
BLACK
6
CONTINUOUS
10
0.531392
20
0.551511
11
0.533384
21
0.547436
0
LINE
8
BLACK
6
CONTINUOUS
10
0.533384
20
0.547436
11
0.533957
21
0.543504
0
LINE
8
BLACK
6
CONTINUOUS
10
0.533957
20
0.543504
11
0.533957
21
0.531693
0
LINE
8
BLACK
6
CONTINUOUS
10
0.533957
20
0.531693
11
0.533384
21
0.527761
0
LINE
8
BLACK
6
CONTINUOUS
10
0.533384
20
0.527761
11
0.531392
21
0.523686
0
LINE
8
BLACK
6
CONTINUOUS
10
0.531392
20
0.523686
11
0.528184
21
0.520478
0
LINE
8
BLACK
6
CONTINUOUS
10
0.528184
20
0.520478
11
0.524109
21
0.518486
0
LINE
8
BLACK
6
CONTINUOUS
10
0.524109
20
0.518486
11
0.520177
21
0.517913
0
LINE
8
BLACK
6
CONTINUOUS
10
0.520177
20
0.517913
11
0.479823
21
0.517913
0
LINE
8
BLACK
6
CONTINUOUS
10
0.479823
20
0.517913
11
0.475891
21
0.518486
0
LINE
8
BLACK
6
CONTINUOUS
10
0.475891
20
0.518486
11
0.471816
21
0.520478
0
LINE
8
BLACK
6
CONTINUOUS
10
0.471816
20
0.520478
11
0.468608
21
0.523686
0
LINE
8
BLACK
6
CONTINUOUS
10
0.468608
20
0.523686
11
0.466616
21
0.527761
0
LINE
8
BLACK
6
CONTINUOUS
10
0.466616
20
0.527761
11
0.466043
21
0.531693
0
LINE
8
BLACK
6
CONTINUOUS
10
0.466043
20
0.531693
11
0.466043
21
0.543504
0
LINE
8
BLACK
6
CONTINUOUS
10
0.466043
20
0.543504
11
0.466616
21
0.547436
0
LINE
8
BLACK
6
CONTINUOUS
10
0.466616
20
0.547436
11
0.468608
21
0.551511
0
LINE
8
BLACK
6
CONTINUOUS
10
0.468608
20
0.551511
11
0.471816
21
0.554718
0
LINE
8
BLACK
6
CONTINUOUS
10
0.471816
20
0.554718
11
0.475049
21
0.556299
0
LINE
8
BLACK
6
CONTINUOUS
10
0.475049
20
0.556299
11
0.471816
21
0.55788
0
LINE
8
BLACK
6
CONTINUOUS
10
0.471816
20
0.55788
11
0.468608
21
0.561088
0
LINE
8
BLACK
6
CONTINUOUS
10
0.468608
20
0.561088
11
0.466616
21
0.565163
0
LINE
8
BLACK
6
CONTINUOUS
10
0.466616
20
0.565163
11
0.466043
21
0.569094
0
LINE
8
BLACK
6
CONTINUOUS
10
0.466043
20
0.569094
11
0.466043
21
0.580906
0
LINE
8
BLACK
6
CONTINUOUS
10
0.466043
20
0.580906
11
0.466616
21
0.584837
0
LINE
8
BLACK
6
CONTINUOUS
10
0.466616
20
0.584837
11
0.468608
21
0.588912
0
LINE
8
BLACK
6
CONTINUOUS
10
0.468608
20
0.588912
11
0.471816
21
0.59212
0
LINE
8
BLACK
6
CONTINUOUS
10
0.471816
20
0.59212
11
0.475049
21
0.593701
0
LINE
8
BLACK
6
CONTINUOUS
10
0.475049
20
0.593701
11
0.471816
21
0.595282
0
LINE
8
BLACK
6
CONTINUOUS
10
0.471816
20
0.595282
11
0.468608
21
0.598489
0
LINE
8
BLACK
6
CONTINUOUS
10
0.468608
20
0.598489
11
0.466616
21
0.602564
0
LINE
8
BLACK
6
CONTINUOUS
10
0.466616
20
0.602564
11
0.466043
21
0.606496
0
LINE
8
BLACK
6
CONTINUOUS
10
0.466043
20
0.606496
11
0.466043
21
0.618307
0
LINE
8
BLACK
6
CONTINUOUS
10
0.466043
20
0.618307
11
0.466616
21
0.622239
0
LINE
8
BLACK
6
CONTINUOUS
10
0.466616
20
0.622239
11
0.468608
21
0.626314
0
LINE
8
BLACK
6
CONTINUOUS
10
0.468608
20
0.626314
11
0.471816
21
0.629522
0
LINE
8
BLACK
6
CONTINUOUS
10
0.471816
20
0.629522
11
0.475891
21
0.631514
0
LINE
8
BLACK
6
CONTINUOUS
10
0.475891
20
0.631514
11
0.479823
21
0.632087
0
LINE
8
BLACK
6
CONTINUOUS
10
0.479823
20
0.632087
11
0.520177
21
0.632087
0
LINE
8
BLACK
6
CONTINUOUS
10
0.520177
20
0.632087
11
0.524109
21
0.631514
0
LINE
8
BLACK
6
CONTINUOUS
10
-0.0794867
20
0.609775
11
-0.0769322
21
0.608068
0
LINE
8
BLACK
6
CONTINUOUS
10
-0.0769322
20
0.608068
11
-0.0752254
21
0.605513
0
LINE
8
BLACK
6
CONTINUOUS
10
-0.0752254
20
0.605513
11
-0.074626
21
0.6025
0
LINE
8
BLACK
6
CONTINUOUS
10
-0.074626
20
0.6025
11
-0.074626
21
0.5475
0
LINE
8
BLACK
6
CONTINUOUS
10
-0.074626
20
0.5475
11
-0.0752254
21
0.544487
0
LINE
8
BLACK
6
CONTINUOUS
10
-0.0752254
20
0.544487
11
-0.0769322
21
0.541932
0
LINE
8
BLACK
6
CONTINUOUS
10
-0.0769322
20
0.541932
11
-0.0794867
21
0.540225
0
LINE
8
BLACK
6
CONTINUOUS
10
-0.0794867
20
0.540225
11
-0.0825
21
0.539626
0
LINE
8
BLACK
6
CONTINUOUS
10
-0.0825
20
0.539626
11
-0.1175
21
0.539626
0
LINE
8
BLACK
6
CONTINUOUS
10
-0.1175
20
0.539626
11
-0.120513
21
0.540225
0
LINE
8
BLACK
6
CONTINUOUS
10
-0.120513
20
0.540225
11
-0.123068
21
0.541932
0
LINE
8
BLACK
6
CONTINUOUS
10
-0.123068
20
0.541932
11
-0.124775
21
0.544487
0
LINE
8
BLACK
6
CONTINUOUS
10
-0.124775
20
0.544487
11
-0.125374
21
0.5475
0
LINE
8
BLACK
6
CONTINUOUS
10
-0.125374
20
0.5475
11
-0.125374
21
0.6025
0
LINE
8
BLACK
6
CONTINUOUS
10
-0.125374
20
0.6025
11
-0.124775
21
0.605513
0
LINE
8
BLACK
6
CONTINUOUS
10
-0.124775
20
0.605513
11
-0.123068
21
0.608068
0
LINE
8
BLACK
6
CONTINUOUS
10
-0.123068
20
0.608068
11
-0.120513
21
0.609775
0
LINE
8
BLACK
6
CONTINUOUS
10
-0.120513
20
0.609775
11
-0.1175
21
0.610374
0
LINE
8
BLACK
6
CONTINUOUS
10
-0.1175
20
0.610374
11
-0.0825
21
0.610374
0
LINE
8
BLACK
6
CONTINUOUS
10
-0.0825
20
0.610374
11
-0.0794867
21
0.609775
0
LINE
8
BLACK
6
CONTINUOUS
10
-0.00448673
20
0.609775
11
-0.00193224
21
0.608068
0
LINE
8
BLACK
6
CONTINUOUS
10
-0.00193224
20
0.608068
11
-0.000225354
21
0.605513
0
LINE
8
BLACK
6
CONTINUOUS
10
-0.000225354
20
0.605513
11
0.000374016
21
0.6025
0
LINE
8
BLACK
6
CONTINUOUS
10
0.000374016
20
0.6025
11
0.000374016
21
0.5475
0
LINE
8
BLACK
6
CONTINUOUS
10
0.000374016
20
0.5475
11
-0.000225354
21
0.544487
0
LINE
8
BLACK
6
CONTINUOUS
10
-0.000225354
20
0.544487
11
-0.00193224
21
0.541932
0
LINE
8
BLACK
6
CONTINUOUS
10
-0.00193224
20
0.541932
11
-0.00448673
21
0.540225
0
LINE
8
BLACK
6
CONTINUOUS
10
-0.00448673
20
0.540225
11
-0.0075
21
0.539626
0
LINE
8
BLACK
6
CONTINUOUS
10
-0.0075
20
0.539626
11
-0.0425
21
0.539626
0
LINE
8
BLACK
6
CONTINUOUS
10
-0.0425
20
0.539626
11
-0.0455133
21
0.540225
0
LINE
8
BLACK
6
CONTINUOUS
10
-0.0455133
20
0.540225
11
-0.0480678
21
0.541932
0
LINE
8
BLACK
6
CONTINUOUS
10
-0.0480678
20
0.541932
11
-0.0497746
21
0.544487
0
LINE
8
BLACK
6
CONTINUOUS
10
-0.0497746
20
0.544487
11
-0.050374
21
0.5475
0
LINE
8
BLACK
6
CONTINUOUS
10
-0.050374
20
0.5475
11
-0.050374
21
0.6025
0
LINE
8
BLACK
6
CONTINUOUS
10
-0.050374
20
0.6025
11
-0.0497746
21
0.605513
0
LINE
8
BLACK
6
CONTINUOUS
10
-0.0497746
20
0.605513
11
-0.0480678
21
0.608068
0
LINE
8
BLACK
6
CONTINUOUS
10
-0.0480678
20
0.608068
11
-0.0455133
21
0.609775
0
LINE
8
BLACK
6
CONTINUOUS
10
-0.0455133
20
0.609775
11
-0.0425
21
0.610374
0
LINE
8
BLACK
6
CONTINUOUS
10
-0.0425
20
0.610374
11
-0.0075
21
0.610374
0
LINE
8
BLACK
6
CONTINUOUS
10
-0.0075
20
0.610374
11
-0.00448673
21
0.609775
0
LINE
8
BLACK
6
CONTINUOUS
10
0.660513
20
0.599775
11
0.663068
21
0.598068
0
LINE
8
BLACK
6
CONTINUOUS
10
0.663068
20
0.598068
11
0.664775
21
0.595513
0
LINE
8
BLACK
6
CONTINUOUS
10
0.664775
20
0.595513
11
0.665374
21
0.5925
0
LINE
8
BLACK
6
CONTINUOUS
10
0.665374
20
0.5925
11
0.665374
21
0.5575
0
LINE
8
BLACK
6
CONTINUOUS
10
0.665374
20
0.5575
11
0.664775
21
0.554487
0
LINE
8
BLACK
6
CONTINUOUS
10
0.664775
20
0.554487
11
0.663068
21
0.551932
0
LINE
8
BLACK
6
CONTINUOUS
10
0.663068
20
0.551932
11
0.660513
21
0.550225
0
LINE
8
BLACK
6
CONTINUOUS
10
0.660513
20
0.550225
11
0.6575
21
0.549626
0
LINE
8
BLACK
6
CONTINUOUS
10
0.6575
20
0.549626
11
0.6025
21
0.549626
0
LINE
8
BLACK
6
CONTINUOUS
10
0.6025
20
0.549626
11
0.599487
21
0.550225
0
LINE
8
BLACK
6
CONTINUOUS
10
0.599487
20
0.550225
11
0.596932
21
0.551932
0
LINE
8
BLACK
6
CONTINUOUS
10
0.596932
20
0.551932
11
0.595225
21
0.554487
0
LINE
8
BLACK
6
CONTINUOUS
10
0.595225
20
0.554487
11
0.594626
21
0.5575
0
LINE
8
BLACK
6
CONTINUOUS
10
0.594626
20
0.5575
11
0.594626
21
0.5925
0
LINE
8
BLACK
6
CONTINUOUS
10
0.594626
20
0.5925
11
0.595225
21
0.595513
0
LINE
8
BLACK
6
CONTINUOUS
10
0.595225
20
0.595513
11
0.596932
21
0.598068
0
LINE
8
BLACK
6
CONTINUOUS
10
0.596932
20
0.598068
11
0.599487
21
0.599775
0
LINE
8
BLACK
6
CONTINUOUS
10
0.599487
20
0.599775
11
0.6025
21
0.600374
0
LINE
8
BLACK
6
CONTINUOUS
10
0.6025
20
0.600374
11
0.6575
21
0.600374
0
LINE
8
BLACK
6
CONTINUOUS
10
0.6575
20
0.600374
11
0.660513
21
0.599775
0
LINE
8
BLACK
6
CONTINUOUS
10
0.235493
20
0.707211
11
0.246196
21
0.704882
0
LINE
8
BLACK
6
CONTINUOUS
10
0.246196
20
0.704882
11
0.256459
21
0.701054
0
LINE
8
BLACK
6
CONTINUOUS
10
0.256459
20
0.701054
11
0.266073
21
0.695805
0
LINE
8
BLACK
6
CONTINUOUS
10
0.266073
20
0.695805
11
0.274842
21
0.689241
0
LINE
8
BLACK
6
CONTINUOUS
10
0.274842
20
0.689241
11
0.282587
21
0.681495
0
LINE
8
BLACK
6
CONTINUOUS
10
0.282587
20
0.681495
11
0.289151
21
0.672726
0
LINE
8
BLACK
6
CONTINUOUS
10
0.289151
20
0.672726
11
0.294401
21
0.663113
0
LINE
8
BLACK
6
CONTINUOUS
10
0.294401
20
0.663113
11
0.298229
21
0.65285
0
LINE
8
BLACK
6
CONTINUOUS
10
0.298229
20
0.65285
11
0.300557
21
0.642146
0
LINE
8
BLACK
6
CONTINUOUS
10
0.300557
20
0.642146
11
0.301339
21
0.63122
0
LINE
8
BLACK
6
CONTINUOUS
10
0.301339
20
0.63122
11
0.300557
21
0.620295
0
LINE
8
BLACK
6
CONTINUOUS
10
0.300557
20
0.620295
11
0.298229
21
0.609591
0
LINE
8
BLACK
6
CONTINUOUS
10
0.298229
20
0.609591
11
0.294401
21
0.599328
0
LINE
8
BLACK
6
CONTINUOUS
10
0.294401
20
0.599328
11
0.289151
21
0.589715
0
LINE
8
BLACK
6
CONTINUOUS
10
0.289151
20
0.589715
11
0.282587
21
0.580946
0
LINE
8
BLACK
6
CONTINUOUS
10
0.282587
20
0.580946
11
0.274842
21
0.5732
0
LINE
8
BLACK
6
CONTINUOUS
10
0.274842
20
0.5732
11
0.266073
21
0.566636
0
LINE
8
BLACK
6
CONTINUOUS
10
0.266073
20
0.566636
11
0.256459
21
0.561387
0
LINE
8
BLACK
6
CONTINUOUS
10
0.256459
20
0.561387
11
0.246196
21
0.557559
0
LINE
8
BLACK
6
CONTINUOUS
10
0.246196
20
0.557559
11
0.235493
21
0.55523
0
LINE
8
BLACK
6
CONTINUOUS
10
0.235493
20
0.55523
11
0.224567
21
0.554449
0
LINE
8
BLACK
6
CONTINUOUS
10
0.224567
20
0.554449
11
0.213641
21
0.55523
0
LINE
8
BLACK
6
CONTINUOUS
10
0.213641
20
0.55523
11
0.202938
21
0.557559
0
LINE
8
BLACK
6
CONTINUOUS
10
0.202938
20
0.557559
11
0.192675
21
0.561387
0
LINE
8
BLACK
6
CONTINUOUS
10
0.192675
20
0.561387
11
0.183061
21
0.566636
0
LINE
8
BLACK
6
CONTINUOUS
10
0.183061
20
0.566636
11
0.174292
21
0.5732
0
LINE
8
BLACK
6
CONTINUOUS
10
0.174292
20
0.5732
11
0.166547
21
0.580946
0
LINE
8
BLACK
6
CONTINUOUS
10
0.166547
20
0.580946
11
0.159983
21
0.589715
0
LINE
8
BLACK
6
CONTINUOUS
10
0.159983
20
0.589715
11
0.154733
21
0.599328
0
LINE
8
BLACK
6
CONTINUOUS
10
0.154733
20
0.599328
11
0.150905
21
0.609591
0
LINE
8
BLACK
6
CONTINUOUS
10
0.150905
20
0.609591
11
0.148577
21
0.620295
0
LINE
8
BLACK
6
CONTINUOUS
10
0.148577
20
0.620295
11
0.147795
21
0.63122
0
LINE
8
BLACK
6
CONTINUOUS
10
0.147795
20
0.63122
11
0.148577
21
0.642146
0
LINE
8
BLACK
6
CONTINUOUS
10
0.148577
20
0.642146
11
0.150905
21
0.65285
0
LINE
8
BLACK
6
CONTINUOUS
10
0.150905
20
0.65285
11
0.154733
21
0.663113
0
LINE
8
BLACK
6
CONTINUOUS
10
0.154733
20
0.663113
11
0.159983
21
0.672726
0
LINE
8
BLACK
6
CONTINUOUS
10
0.159983
20
0.672726
11
0.166547
21
0.681495
0
LINE
8
BLACK
6
CONTINUOUS
10
0.166547
20
0.681495
11
0.174292
21
0.689241
0
LINE
8
BLACK
6
CONTINUOUS
10
0.174292
20
0.689241
11
0.183061
21
0.695805
0
LINE
8
BLACK
6
CONTINUOUS
10
0.183061
20
0.695805
11
0.192675
21
0.701054
0
LINE
8
BLACK
6
CONTINUOUS
10
0.192675
20
0.701054
11
0.202938
21
0.704882
0
LINE
8
BLACK
6
CONTINUOUS
10
0.202938
20
0.704882
11
0.213641
21
0.707211
0
LINE
8
BLACK
6
CONTINUOUS
10
0.213641
20
0.707211
11
0.224567
21
0.707992
0
LINE
8
BLACK
6
CONTINUOUS
10
0.224567
20
0.707992
11
0.235493
21
0.707211
0
LINE
8
BLACK
6
CONTINUOUS
10
1.18301
20
0.637275
11
1.18557
21
0.635568
0
LINE
8
BLACK
6
CONTINUOUS
10
1.18557
20
0.635568
11
1.18727
21
0.633013
0
LINE
8
BLACK
6
CONTINUOUS
10
1.18727
20
0.633013
11
1.18787
21
0.63
0
LINE
8
BLACK
6
CONTINUOUS
10
1.18787
20
0.63
11
1.18787
21
0.57
0
LINE
8
BLACK
6
CONTINUOUS
10
1.18787
20
0.57
11
1.18727
21
0.566987
0
LINE
8
BLACK
6
CONTINUOUS
10
1.18727
20
0.566987
11
1.18557
21
0.564432
0
LINE
8
BLACK
6
CONTINUOUS
10
1.18557
20
0.564432
11
1.18301
21
0.562725
0
LINE
8
BLACK
6
CONTINUOUS
10
1.18301
20
0.562725
11
1.18
21
0.562126
0
LINE
8
BLACK
6
CONTINUOUS
10
1.18
20
0.562126
11
1.12
21
0.562126
0
LINE
8
BLACK
6
CONTINUOUS
10
1.12
20
0.562126
11
1.11699
21
0.562725
0
LINE
8
BLACK
6
CONTINUOUS
10
1.11699
20
0.562725
11
1.11443
21
0.564432
0
LINE
8
BLACK
6
CONTINUOUS
10
1.11443
20
0.564432
11
1.11273
21
0.566987
0
LINE
8
BLACK
6
CONTINUOUS
10
1.11273
20
0.566987
11
1.11213
21
0.57
0
LINE
8
BLACK
6
CONTINUOUS
10
1.11213
20
0.57
11
1.11213
21
0.63
0
LINE
8
BLACK
6
CONTINUOUS
10
1.11213
20
0.63
11
1.11273
21
0.633013
0
LINE
8
BLACK
6
CONTINUOUS
10
1.11273
20
0.633013
11
1.11443
21
0.635568
0
LINE
8
BLACK
6
CONTINUOUS
10
1.11443
20
0.635568
11
1.11699
21
0.637275
0
LINE
8
BLACK
6
CONTINUOUS
10
1.11699
20
0.637275
11
1.12
21
0.637874
0
LINE
8
BLACK
6
CONTINUOUS
10
1.12
20
0.637874
11
1.18
21
0.637874
0
LINE
8
BLACK
6
CONTINUOUS
10
1.18
20
0.637874
11
1.18301
21
0.637275
0
LINE
8
BLACK
6
CONTINUOUS
10
1.28301
20
0.637275
11
1.28557
21
0.635568
0
LINE
8
BLACK
6
CONTINUOUS
10
1.28557
20
0.635568
11
1.28727
21
0.633013
0
LINE
8
BLACK
6
CONTINUOUS
10
1.28727
20
0.633013
11
1.28787
21
0.63
0
LINE
8
BLACK
6
CONTINUOUS
10
1.28787
20
0.63
11
1.28787
21
0.57
0
LINE
8
BLACK
6
CONTINUOUS
10
1.28787
20
0.57
11
1.28727
21
0.566987
0
LINE
8
BLACK
6
CONTINUOUS
10
1.28727
20
0.566987
11
1.28557
21
0.564432
0
LINE
8
BLACK
6
CONTINUOUS
10
1.28557
20
0.564432
11
1.28301
21
0.562725
0
LINE
8
BLACK
6
CONTINUOUS
10
1.28301
20
0.562725
11
1.28
21
0.562126
0
LINE
8
BLACK
6
CONTINUOUS
10
1.28
20
0.562126
11
1.22
21
0.562126
0
LINE
8
BLACK
6
CONTINUOUS
10
1.22
20
0.562126
11
1.21699
21
0.562725
0
LINE
8
BLACK
6
CONTINUOUS
10
1.21699
20
0.562725
11
1.21443
21
0.564432
0
LINE
8
BLACK
6
CONTINUOUS
10
1.21443
20
0.564432
11
1.21273
21
0.566987
0
LINE
8
BLACK
6
CONTINUOUS
10
1.21273
20
0.566987
11
1.21213
21
0.57
0
LINE
8
BLACK
6
CONTINUOUS
10
1.21213
20
0.57
11
1.21213
21
0.63
0
LINE
8
BLACK
6
CONTINUOUS
10
1.21213
20
0.63
11
1.21273
21
0.633013
0
LINE
8
BLACK
6
CONTINUOUS
10
1.21273
20
0.633013
11
1.21443
21
0.635568
0
LINE
8
BLACK
6
CONTINUOUS
10
1.21443
20
0.635568
11
1.21699
21
0.637275
0
LINE
8
BLACK
6
CONTINUOUS
10
1.21699
20
0.637275
11
1.22
21
0.637874
0
LINE
8
BLACK
6
CONTINUOUS
10
1.22
20
0.637874
11
1.28
21
0.637874
0
LINE
8
BLACK
6
CONTINUOUS
10
1.28
20
0.637874
11
1.28301
21
0.637275
0
LINE
8
BLACK
6
CONTINUOUS
10
0.725513
20
0.679775
11
0.728068
21
0.678068
0
LINE
8
BLACK
6
CONTINUOUS
10
0.728068
20
0.678068
11
0.729775
21
0.675513
0
LINE
8
BLACK
6
CONTINUOUS
10
0.729775
20
0.675513
11
0.730374
21
0.6725
0
LINE
8
BLACK
6
CONTINUOUS
10
0.730374
20
0.6725
11
0.730374
21
0.6175
0
LINE
8
BLACK
6
CONTINUOUS
10
0.730374
20
0.6175
11
0.729775
21
0.614487
0
LINE
8
BLACK
6
CONTINUOUS
10
0.729775
20
0.614487
11
0.728068
21
0.611932
0
LINE
8
BLACK
6
CONTINUOUS
10
0.728068
20
0.611932
11
0.725513
21
0.610225
0
LINE
8
BLACK
6
CONTINUOUS
10
0.725513
20
0.610225
11
0.7225
21
0.609626
0
LINE
8
BLACK
6
CONTINUOUS
10
0.7225
20
0.609626
11
0.6875
21
0.609626
0
LINE
8
BLACK
6
CONTINUOUS
10
0.6875
20
0.609626
11
0.684487
21
0.610225
0
LINE
8
BLACK
6
CONTINUOUS
10
0.684487
20
0.610225
11
0.681932
21
0.611932
0
LINE
8
BLACK
6
CONTINUOUS
10
0.681932
20
0.611932
11
0.680225
21
0.614487
0
LINE
8
BLACK
6
CONTINUOUS
10
0.680225
20
0.614487
11
0.679626
21
0.6175
0
LINE
8
BLACK
6
CONTINUOUS
10
0.679626
20
0.6175
11
0.679626
21
0.6725
0
LINE
8
BLACK
6
CONTINUOUS
10
0.679626
20
0.6725
11
0.680225
21
0.675513
0
LINE
8
BLACK
6
CONTINUOUS
10
0.680225
20
0.675513
11
0.681932
21
0.678068
0
LINE
8
BLACK
6
CONTINUOUS
10
0.681932
20
0.678068
11
0.684487
21
0.679775
0
LINE
8
BLACK
6
CONTINUOUS
10
0.684487
20
0.679775
11
0.6875
21
0.680374
0
LINE
8
BLACK
6
CONTINUOUS
10
0.6875
20
0.680374
11
0.7225
21
0.680374
0
LINE
8
BLACK
6
CONTINUOUS
10
0.7225
20
0.680374
11
0.725513
21
0.679775
0
LINE
8
BLACK
6
CONTINUOUS
10
0.800513
20
0.679775
11
0.803068
21
0.678068
0
LINE
8
BLACK
6
CONTINUOUS
10
0.803068
20
0.678068
11
0.804775
21
0.675513
0
LINE
8
BLACK
6
CONTINUOUS
10
0.804775
20
0.675513
11
0.805374
21
0.6725
0
LINE
8
BLACK
6
CONTINUOUS
10
0.805374
20
0.6725
11
0.805374
21
0.6175
0
LINE
8
BLACK
6
CONTINUOUS
10
0.805374
20
0.6175
11
0.804775
21
0.614487
0
LINE
8
BLACK
6
CONTINUOUS
10
0.804775
20
0.614487
11
0.803068
21
0.611932
0
LINE
8
BLACK
6
CONTINUOUS
10
0.803068
20
0.611932
11
0.800513
21
0.610225
0
LINE
8
BLACK
6
CONTINUOUS
10
0.800513
20
0.610225
11
0.7975
21
0.609626
0
LINE
8
BLACK
6
CONTINUOUS
10
0.7975
20
0.609626
11
0.7625
21
0.609626
0
LINE
8
BLACK
6
CONTINUOUS
10
0.7625
20
0.609626
11
0.759487
21
0.610225
0
LINE
8
BLACK
6
CONTINUOUS
10
0.759487
20
0.610225
11
0.756932
21
0.611932
0
LINE
8
BLACK
6
CONTINUOUS
10
0.756932
20
0.611932
11
0.755225
21
0.614487
0
LINE
8
BLACK
6
CONTINUOUS
10
0.755225
20
0.614487
11
0.754626
21
0.6175
0
LINE
8
BLACK
6
CONTINUOUS
10
0.754626
20
0.6175
11
0.754626
21
0.6725
0
LINE
8
BLACK
6
CONTINUOUS
10
0.754626
20
0.6725
11
0.755225
21
0.675513
0
LINE
8
BLACK
6
CONTINUOUS
10
0.755225
20
0.675513
11
0.756932
21
0.678068
0
LINE
8
BLACK
6
CONTINUOUS
10
0.756932
20
0.678068
11
0.759487
21
0.679775
0
LINE
8
BLACK
6
CONTINUOUS
10
0.759487
20
0.679775
11
0.7625
21
0.680374
0
LINE
8
BLACK
6
CONTINUOUS
10
0.7625
20
0.680374
11
0.7975
21
0.680374
0
LINE
8
BLACK
6
CONTINUOUS
10
0.7975
20
0.680374
11
0.800513
21
0.679775
0
LINE
8
BLACK
6
CONTINUOUS
10
0.865513
20
0.679775
11
0.868068
21
0.678068
0
LINE
8
BLACK
6
CONTINUOUS
10
0.868068
20
0.678068
11
0.869775
21
0.675513
0
LINE
8
BLACK
6
CONTINUOUS
10
0.869775
20
0.675513
11
0.870374
21
0.6725
0
LINE
8
BLACK
6
CONTINUOUS
10
0.870374
20
0.6725
11
0.870374
21
0.6175
0
LINE
8
BLACK
6
CONTINUOUS
10
0.870374
20
0.6175
11
0.869775
21
0.614487
0
LINE
8
BLACK
6
CONTINUOUS
10
0.869775
20
0.614487
11
0.868068
21
0.611932
0
LINE
8
BLACK
6
CONTINUOUS
10
0.868068
20
0.611932
11
0.865513
21
0.610225
0
LINE
8
BLACK
6
CONTINUOUS
10
0.865513
20
0.610225
11
0.8625
21
0.609626
0
LINE
8
BLACK
6
CONTINUOUS
10
0.8625
20
0.609626
11
0.8275
21
0.609626
0
LINE
8
BLACK
6
CONTINUOUS
10
0.8275
20
0.609626
11
0.824487
21
0.610225
0
LINE
8
BLACK
6
CONTINUOUS
10
0.824487
20
0.610225
11
0.821932
21
0.611932
0
LINE
8
BLACK
6
CONTINUOUS
10
0.821932
20
0.611932
11
0.820225
21
0.614487
0
LINE
8
BLACK
6
CONTINUOUS
10
0.820225
20
0.614487
11
0.819626
21
0.6175
0
LINE
8
BLACK
6
CONTINUOUS
10
0.819626
20
0.6175
11
0.819626
21
0.6725
0
LINE
8
BLACK
6
CONTINUOUS
10
0.819626
20
0.6725
11
0.820225
21
0.675513
0
LINE
8
BLACK
6
CONTINUOUS
10
0.820225
20
0.675513
11
0.821932
21
0.678068
0
LINE
8
BLACK
6
CONTINUOUS
10
0.821932
20
0.678068
11
0.824487
21
0.679775
0
LINE
8
BLACK
6
CONTINUOUS
10
0.824487
20
0.679775
11
0.8275
21
0.680374
0
LINE
8
BLACK
6
CONTINUOUS
10
0.8275
20
0.680374
11
0.8625
21
0.680374
0
LINE
8
BLACK
6
CONTINUOUS
10
0.8625
20
0.680374
11
0.865513
21
0.679775
0
LINE
8
BLACK
6
CONTINUOUS
10
0.940513
20
0.679775
11
0.943068
21
0.678068
0
LINE
8
BLACK
6
CONTINUOUS
10
0.943068
20
0.678068
11
0.944775
21
0.675513
0
LINE
8
BLACK
6
CONTINUOUS
10
0.944775
20
0.675513
11
0.945374
21
0.6725
0
LINE
8
BLACK
6
CONTINUOUS
10
0.945374
20
0.6725
11
0.945374
21
0.6175
0
LINE
8
BLACK
6
CONTINUOUS
10
0.945374
20
0.6175
11
0.944775
21
0.614487
0
LINE
8
BLACK
6
CONTINUOUS
10
0.944775
20
0.614487
11
0.943068
21
0.611932
0
LINE
8
BLACK
6
CONTINUOUS
10
0.943068
20
0.611932
11
0.940513
21
0.610225
0
LINE
8
BLACK
6
CONTINUOUS
10
0.940513
20
0.610225
11
0.9375
21
0.609626
0
LINE
8
BLACK
6
CONTINUOUS
10
0.9375
20
0.609626
11
0.9025
21
0.609626
0
LINE
8
BLACK
6
CONTINUOUS
10
0.9025
20
0.609626
11
0.899487
21
0.610225
0
LINE
8
BLACK
6
CONTINUOUS
10
0.899487
20
0.610225
11
0.896932
21
0.611932
0
LINE
8
BLACK
6
CONTINUOUS
10
0.896932
20
0.611932
11
0.895225
21
0.614487
0
LINE
8
BLACK
6
CONTINUOUS
10
0.895225
20
0.614487
11
0.894626
21
0.6175
0
LINE
8
BLACK
6
CONTINUOUS
10
0.894626
20
0.6175
11
0.894626
21
0.6725
0
LINE
8
BLACK
6
CONTINUOUS
10
0.894626
20
0.6725
11
0.895225
21
0.675513
0
LINE
8
BLACK
6
CONTINUOUS
10
0.895225
20
0.675513
11
0.896932
21
0.678068
0
LINE
8
BLACK
6
CONTINUOUS
10
0.896932
20
0.678068
11
0.899487
21
0.679775
0
LINE
8
BLACK
6
CONTINUOUS
10
0.899487
20
0.679775
11
0.9025
21
0.680374
0
LINE
8
BLACK
6
CONTINUOUS
10
0.9025
20
0.680374
11
0.9375
21
0.680374
0
LINE
8
BLACK
6
CONTINUOUS
10
0.9375
20
0.680374
11
0.940513
21
0.679775
0
LINE
8
BLACK
6
CONTINUOUS
10
1.00551
20
0.679775
11
1.00807
21
0.678068
0
LINE
8
BLACK
6
CONTINUOUS
10
1.00807
20
0.678068
11
1.00977
21
0.675513
0
LINE
8
BLACK
6
CONTINUOUS
10
1.00977
20
0.675513
11
1.01037
21
0.6725
0
LINE
8
BLACK
6
CONTINUOUS
10
1.01037
20
0.6725
11
1.01037
21
0.6175
0
LINE
8
BLACK
6
CONTINUOUS
10
1.01037
20
0.6175
11
1.00977
21
0.614487
0
LINE
8
BLACK
6
CONTINUOUS
10
1.00977
20
0.614487
11
1.00807
21
0.611932
0
LINE
8
BLACK
6
CONTINUOUS
10
1.00807
20
0.611932
11
1.00551
21
0.610225
0
LINE
8
BLACK
6
CONTINUOUS
10
1.00551
20
0.610225
11
1.0025
21
0.609626
0
LINE
8
BLACK
6
CONTINUOUS
10
1.0025
20
0.609626
11
0.9675
21
0.609626
0
LINE
8
BLACK
6
CONTINUOUS
10
0.9675
20
0.609626
11
0.964487
21
0.610225
0
LINE
8
BLACK
6
CONTINUOUS
10
0.964487
20
0.610225
11
0.961932
21
0.611932
0
LINE
8
BLACK
6
CONTINUOUS
10
0.961932
20
0.611932
11
0.960225
21
0.614487
0
LINE
8
BLACK
6
CONTINUOUS
10
0.960225
20
0.614487
11
0.959626
21
0.6175
0
LINE
8
BLACK
6
CONTINUOUS
10
0.959626
20
0.6175
11
0.959626
21
0.6725
0
LINE
8
BLACK
6
CONTINUOUS
10
0.959626
20
0.6725
11
0.960225
21
0.675513
0
LINE
8
BLACK
6
CONTINUOUS
10
0.960225
20
0.675513
11
0.961932
21
0.678068
0
LINE
8
BLACK
6
CONTINUOUS
10
0.961932
20
0.678068
11
0.964487
21
0.679775
0
LINE
8
BLACK
6
CONTINUOUS
10
0.964487
20
0.679775
11
0.9675
21
0.680374
0
LINE
8
BLACK
6
CONTINUOUS
10
0.9675
20
0.680374
11
1.0025
21
0.680374
0
LINE
8
BLACK
6
CONTINUOUS
10
1.0025
20
0.680374
11
1.00551
21
0.679775
0
LINE
8
BLACK
6
CONTINUOUS
10
1.08051
20
0.679775
11
1.08307
21
0.678068
0
LINE
8
BLACK
6
CONTINUOUS
10
1.08307
20
0.678068
11
1.08477
21
0.675513
0
LINE
8
BLACK
6
CONTINUOUS
10
1.08477
20
0.675513
11
1.08537
21
0.6725
0
LINE
8
BLACK
6
CONTINUOUS
10
1.08537
20
0.6725
11
1.08537
21
0.6175
0
LINE
8
BLACK
6
CONTINUOUS
10
1.08537
20
0.6175
11
1.08477
21
0.614487
0
LINE
8
BLACK
6
CONTINUOUS
10
1.08477
20
0.614487
11
1.08307
21
0.611932
0
LINE
8
BLACK
6
CONTINUOUS
10
1.08307
20
0.611932
11
1.08051
21
0.610225
0
LINE
8
BLACK
6
CONTINUOUS
10
1.08051
20
0.610225
11
1.0775
21
0.609626
0
LINE
8
BLACK
6
CONTINUOUS
10
1.0775
20
0.609626
11
1.0425
21
0.609626
0
LINE
8
BLACK
6
CONTINUOUS
10
1.0425
20
0.609626
11
1.03949
21
0.610225
0
LINE
8
BLACK
6
CONTINUOUS
10
1.03949
20
0.610225
11
1.03693
21
0.611932
0
LINE
8
BLACK
6
CONTINUOUS
10
1.03693
20
0.611932
11
1.03523
21
0.614487
0
LINE
8
BLACK
6
CONTINUOUS
10
1.03523
20
0.614487
11
1.03463
21
0.6175
0
LINE
8
BLACK
6
CONTINUOUS
10
1.03463
20
0.6175
11
1.03463
21
0.6725
0
LINE
8
BLACK
6
CONTINUOUS
10
1.03463
20
0.6725
11
1.03523
21
0.675513
0
LINE
8
BLACK
6
CONTINUOUS
10
1.03523
20
0.675513
11
1.03693
21
0.678068
0
LINE
8
BLACK
6
CONTINUOUS
10
1.03693
20
0.678068
11
1.03949
21
0.679775
0
LINE
8
BLACK
6
CONTINUOUS
10
1.03949
20
0.679775
11
1.0425
21
0.680374
0
LINE
8
BLACK
6
CONTINUOUS
10
1.0425
20
0.680374
11
1.0775
21
0.680374
0
LINE
8
BLACK
6
CONTINUOUS
10
1.0775
20
0.680374
11
1.08051
21
0.679775
0
LINE
8
BLACK
6
CONTINUOUS
10
0.660513
20
0.674775
11
0.663068
21
0.673068
0
LINE
8
BLACK
6
CONTINUOUS
10
0.663068
20
0.673068
11
0.664775
21
0.670513
0
LINE
8
BLACK
6
CONTINUOUS
10
0.664775
20
0.670513
11
0.665374
21
0.6675
0
LINE
8
BLACK
6
CONTINUOUS
10
0.665374
20
0.6675
11
0.665374
21
0.6325
0
LINE
8
BLACK
6
CONTINUOUS
10
0.665374
20
0.6325
11
0.664775
21
0.629487
0
LINE
8
BLACK
6
CONTINUOUS
10
0.664775
20
0.629487
11
0.663068
21
0.626932
0
LINE
8
BLACK
6
CONTINUOUS
10
0.663068
20
0.626932
11
0.660513
21
0.625225
0
LINE
8
BLACK
6
CONTINUOUS
10
0.660513
20
0.625225
11
0.6575
21
0.624626
0
LINE
8
BLACK
6
CONTINUOUS
10
0.6575
20
0.624626
11
0.6025
21
0.624626
0
LINE
8
BLACK
6
CONTINUOUS
10
0.6025
20
0.624626
11
0.599487
21
0.625225
0
LINE
8
BLACK
6
CONTINUOUS
10
0.599487
20
0.625225
11
0.596932
21
0.626932
0
LINE
8
BLACK
6
CONTINUOUS
10
0.596932
20
0.626932
11
0.595225
21
0.629487
0
LINE
8
BLACK
6
CONTINUOUS
10
0.595225
20
0.629487
11
0.594626
21
0.6325
0
LINE
8
BLACK
6
CONTINUOUS
10
0.594626
20
0.6325
11
0.594626
21
0.6675
0
LINE
8
BLACK
6
CONTINUOUS
10
0.594626
20
0.6675
11
0.595225
21
0.670513
0
LINE
8
BLACK
6
CONTINUOUS
10
0.595225
20
0.670513
11
0.596932
21
0.673068
0
LINE
8
BLACK
6
CONTINUOUS
10
0.596932
20
0.673068
11
0.599487
21
0.674775
0
LINE
8
BLACK
6
CONTINUOUS
10
0.599487
20
0.674775
11
0.6025
21
0.675374
0
LINE
8
BLACK
6
CONTINUOUS
10
0.6025
20
0.675374
11
0.6575
21
0.675374
0
LINE
8
BLACK
6
CONTINUOUS
10
0.6575
20
0.675374
11
0.660513
21
0.674775
0
LINE
8
BLACK
6
CONTINUOUS
10
0.0141057
20
0.925192
11
0.0280341
21
0.922826
0
LINE
8
BLACK
6
CONTINUOUS
10
0.0280341
20
0.922826
11
0.04161
21
0.918914
0
LINE
8
BLACK
6
CONTINUOUS
10
0.04161
20
0.918914
11
0.0546625
21
0.913508
0
LINE
8
BLACK
6
CONTINUOUS
10
0.0546625
20
0.913508
11
0.0670277
21
0.906674
0
LINE
8
BLACK
6
CONTINUOUS
10
0.0670277
20
0.906674
11
0.0785499
21
0.898498
0
LINE
8
BLACK
6
CONTINUOUS
10
0.0785499
20
0.898498
11
0.0890843
21
0.889084
0
LINE
8
BLACK
6
CONTINUOUS
10
0.0890843
20
0.889084
11
0.0984985
21
0.87855
0
LINE
8
BLACK
6
CONTINUOUS
10
0.0984985
20
0.87855
11
0.106674
21
0.867028
0
LINE
8
BLACK
6
CONTINUOUS
10
0.106674
20
0.867028
11
0.113508
21
0.854663
0
LINE
8
BLACK
6
CONTINUOUS
10
0.113508
20
0.854663
11
0.118914
21
0.84161
0
LINE
8
BLACK
6
CONTINUOUS
10
0.118914
20
0.84161
11
0.122826
21
0.828034
0
LINE
8
BLACK
6
CONTINUOUS
10
0.122826
20
0.828034
11
0.125192
21
0.814106
0
LINE
8
BLACK
6
CONTINUOUS
10
0.125192
20
0.814106
11
0.125984
21
0.8
0
LINE
8
BLACK
6
CONTINUOUS
10
0.125984
20
0.8
11
0.125192
21
0.785894
0
LINE
8
BLACK
6
CONTINUOUS
10
0.125192
20
0.785894
11
0.122826
21
0.771966
0
LINE
8
BLACK
6
CONTINUOUS
10
0.122826
20
0.771966
11
0.118914
21
0.75839
0
LINE
8
BLACK
6
CONTINUOUS
10
0.118914
20
0.75839
11
0.113508
21
0.745337
0
LINE
8
BLACK
6
CONTINUOUS
10
0.113508
20
0.745337
11
0.106674
21
0.732972
0
LINE
8
BLACK
6
CONTINUOUS
10
0.106674
20
0.732972
11
0.0984985
21
0.72145
0
LINE
8
BLACK
6
CONTINUOUS
10
0.0984985
20
0.72145
11
0.0890843
21
0.710916
0
LINE
8
BLACK
6
CONTINUOUS
10
0.0890843
20
0.710916
11
0.0785499
21
0.701502
0
LINE
8
BLACK
6
CONTINUOUS
10
0.0785499
20
0.701502
11
0.0670277
21
0.693326
0
LINE
8
BLACK
6
CONTINUOUS
10
0.0670277
20
0.693326
11
0.0546625
21
0.686492
0
LINE
8
BLACK
6
CONTINUOUS
10
0.0546625
20
0.686492
11
0.04161
21
0.681086
0
LINE
8
BLACK
6
CONTINUOUS
10
0.04161
20
0.681086
11
0.0280341
21
0.677174
0
LINE
8
BLACK
6
CONTINUOUS
10
0.0280341
20
0.677174
11
0.0141057
21
0.674808
0
LINE
8
BLACK
6
CONTINUOUS
10
0.0141057
20
0.674808
11
0
21
0.674016
0
LINE
8
BLACK
6
CONTINUOUS
10
0
20
0.674016
11
-0.0141057
21
0.674808
0
LINE
8
BLACK
6
CONTINUOUS
10
-0.0141057
20
0.674808
11
-0.0280341
21
0.677174
0
LINE
8
BLACK
6
CONTINUOUS
10
-0.0280341
20
0.677174
11
-0.04161
21
0.681086
0
LINE
8
BLACK
6
CONTINUOUS
10
-0.04161
20
0.681086
11
-0.0546625
21
0.686492
0
LINE
8
BLACK
6
CONTINUOUS
10
-0.0546625
20
0.686492
11
-0.0670277
21
0.693326
0
LINE
8
BLACK
6
CONTINUOUS
10
-0.0670277
20
0.693326
11
-0.0785499
21
0.701502
0
LINE
8
BLACK
6
CONTINUOUS
10
-0.0785499
20
0.701502
11
-0.0890843
21
0.710916
0
LINE
8
BLACK
6
CONTINUOUS
10
-0.0890843
20
0.710916
11
-0.0984985
21
0.72145
0
LINE
8
BLACK
6
CONTINUOUS
10
-0.0984985
20
0.72145
11
-0.106674
21
0.732972
0
LINE
8
BLACK
6
CONTINUOUS
10
-0.106674
20
0.732972
11
-0.113508
21
0.745337
0
LINE
8
BLACK
6
CONTINUOUS
10
-0.113508
20
0.745337
11
-0.118914
21
0.75839
0
LINE
8
BLACK
6
CONTINUOUS
10
-0.118914
20
0.75839
11
-0.122826
21
0.771966
0
LINE
8
BLACK
6
CONTINUOUS
10
-0.122826
20
0.771966
11
-0.125192
21
0.785894
0
LINE
8
BLACK
6
CONTINUOUS
10
-0.125192
20
0.785894
11
-0.125984
21
0.8
0
LINE
8
BLACK
6
CONTINUOUS
10
-0.125984
20
0.8
11
-0.125192
21
0.814106
0
LINE
8
BLACK
6
CONTINUOUS
10
-0.125192
20
0.814106
11
-0.122826
21
0.828034
0
LINE
8
BLACK
6
CONTINUOUS
10
-0.122826
20
0.828034
11
-0.118914
21
0.84161
0
LINE
8
BLACK
6
CONTINUOUS
10
-0.118914
20
0.84161
11
-0.113508
21
0.854663
0
LINE
8
BLACK
6
CONTINUOUS
10
-0.113508
20
0.854663
11
-0.106674
21
0.867028
0
LINE
8
BLACK
6
CONTINUOUS
10
-0.106674
20
0.867028
11
-0.0984985
21
0.87855
0
LINE
8
BLACK
6
CONTINUOUS
10
-0.0984985
20
0.87855
11
-0.0890843
21
0.889084
0
LINE
8
BLACK
6
CONTINUOUS
10
-0.0890843
20
0.889084
11
-0.0785499
21
0.898498
0
LINE
8
BLACK
6
CONTINUOUS
10
-0.0785499
20
0.898498
11
-0.0670277
21
0.906674
0
LINE
8
BLACK
6
CONTINUOUS
10
-0.0670277
20
0.906674
11
-0.0546625
21
0.913508
0
LINE
8
BLACK
6
CONTINUOUS
10
-0.0546625
20
0.913508
11
-0.04161
21
0.918914
0
LINE
8
BLACK
6
CONTINUOUS
10
-0.04161
20
0.918914
11
-0.0280341
21
0.922826
0
LINE
8
BLACK
6
CONTINUOUS
10
-0.0280341
20
0.922826
11
-0.0141057
21
0.925192
0
LINE
8
BLACK
6
CONTINUOUS
10
-0.0141057
20
0.925192
11
0
21
0.925984
0
LINE
8
BLACK
6
CONTINUOUS
10
0
20
0.925984
11
0.0141057
21
0.925192
0
LINE
8
BLACK
6
CONTINUOUS
10
1.21411
20
0.925192
11
1.22803
21
0.922826
0
LINE
8
BLACK
6
CONTINUOUS
10
1.22803
20
0.922826
11
1.24161
21
0.918914
0
LINE
8
BLACK
6
CONTINUOUS
10
1.24161
20
0.918914
11
1.25466
21
0.913508
0
LINE
8
BLACK
6
CONTINUOUS
10
1.25466
20
0.913508
11
1.26703
21
0.906674
0
LINE
8
BLACK
6
CONTINUOUS
10
1.26703
20
0.906674
11
1.27855
21
0.898498
0
LINE
8
BLACK
6
CONTINUOUS
10
1.27855
20
0.898498
11
1.28908
21
0.889084
0
LINE
8
BLACK
6
CONTINUOUS
10
1.28908
20
0.889084
11
1.2985
21
0.87855
0
LINE
8
BLACK
6
CONTINUOUS
10
1.2985
20
0.87855
11
1.30667
21
0.867028
0
LINE
8
BLACK
6
CONTINUOUS
10
1.30667
20
0.867028
11
1.31351
21
0.854663
0
LINE
8
BLACK
6
CONTINUOUS
10
1.31351
20
0.854663
11
1.31891
21
0.84161
0
LINE
8
BLACK
6
CONTINUOUS
10
1.31891
20
0.84161
11
1.32283
21
0.828034
0
LINE
8
BLACK
6
CONTINUOUS
10
1.32283
20
0.828034
11
1.32519
21
0.814106
0
LINE
8
BLACK
6
CONTINUOUS
10
1.32519
20
0.814106
11
1.32598
21
0.8
0
LINE
8
BLACK
6
CONTINUOUS
10
1.32598
20
0.8
11
1.32519
21
0.785894
0
LINE
8
BLACK
6
CONTINUOUS
10
1.32519
20
0.785894
11
1.32283
21
0.771966
0
LINE
8
BLACK
6
CONTINUOUS
10
1.32283
20
0.771966
11
1.31891
21
0.75839
0
LINE
8
BLACK
6
CONTINUOUS
10
1.31891
20
0.75839
11
1.31351
21
0.745337
0
LINE
8
BLACK
6
CONTINUOUS
10
1.31351
20
0.745337
11
1.30667
21
0.732972
0
LINE
8
BLACK
6
CONTINUOUS
10
1.30667
20
0.732972
11
1.2985
21
0.72145
0
LINE
8
BLACK
6
CONTINUOUS
10
1.2985
20
0.72145
11
1.28908
21
0.710916
0
LINE
8
BLACK
6
CONTINUOUS
10
1.28908
20
0.710916
11
1.27855
21
0.701502
0
LINE
8
BLACK
6
CONTINUOUS
10
1.27855
20
0.701502
11
1.26703
21
0.693326
0
LINE
8
BLACK
6
CONTINUOUS
10
1.26703
20
0.693326
11
1.25466
21
0.686492
0
LINE
8
BLACK
6
CONTINUOUS
10
1.25466
20
0.686492
11
1.24161
21
0.681086
0
LINE
8
BLACK
6
CONTINUOUS
10
1.24161
20
0.681086
11
1.22803
21
0.677174
0
LINE
8
BLACK
6
CONTINUOUS
10
1.22803
20
0.677174
11
1.21411
21
0.674808
0
LINE
8
BLACK
6
CONTINUOUS
10
1.21411
20
0.674808
11
1.2
21
0.674016
0
LINE
8
BLACK
6
CONTINUOUS
10
1.2
20
0.674016
11
1.18589
21
0.674808
0
LINE
8
BLACK
6
CONTINUOUS
10
1.18589
20
0.674808
11
1.17197
21
0.677174
0
LINE
8
BLACK
6
CONTINUOUS
10
1.17197
20
0.677174
11
1.15839
21
0.681086
0
LINE
8
BLACK
6
CONTINUOUS
10
1.15839
20
0.681086
11
1.14534
21
0.686492
0
LINE
8
BLACK
6
CONTINUOUS
10
1.14534
20
0.686492
11
1.13297
21
0.693326
0
LINE
8
BLACK
6
CONTINUOUS
10
1.13297
20
0.693326
11
1.12145
21
0.701502
0
LINE
8
BLACK
6
CONTINUOUS
10
1.12145
20
0.701502
11
1.11092
21
0.710916
0
LINE
8
BLACK
6
CONTINUOUS
10
1.11092
20
0.710916
11
1.1015
21
0.72145
0
LINE
8
BLACK
6
CONTINUOUS
10
1.1015
20
0.72145
11
1.09333
21
0.732972
0
LINE
8
BLACK
6
CONTINUOUS
10
1.09333
20
0.732972
11
1.08649
21
0.745337
0
LINE
8
BLACK
6
CONTINUOUS
10
1.08649
20
0.745337
11
1.08109
21
0.75839
0
LINE
8
BLACK
6
CONTINUOUS
10
1.08109
20
0.75839
11
1.07717
21
0.771966
0
LINE
8
BLACK
6
CONTINUOUS
10
1.07717
20
0.771966
11
1.07481
21
0.785894
0
LINE
8
BLACK
6
CONTINUOUS
10
1.07481
20
0.785894
11
1.07402
21
0.8
0
LINE
8
BLACK
6
CONTINUOUS
10
1.07402
20
0.8
11
1.07481
21
0.814106
0
LINE
8
BLACK
6
CONTINUOUS
10
1.07481
20
0.814106
11
1.07717
21
0.828034
0
LINE
8
BLACK
6
CONTINUOUS
10
1.07717
20
0.828034
11
1.08109
21
0.84161
0
LINE
8
BLACK
6
CONTINUOUS
10
1.08109
20
0.84161
11
1.08649
21
0.854663
0
LINE
8
BLACK
6
CONTINUOUS
10
1.08649
20
0.854663
11
1.09333
21
0.867028
0
LINE
8
BLACK
6
CONTINUOUS
10
1.09333
20
0.867028
11
1.1015
21
0.87855
0
LINE
8
BLACK
6
CONTINUOUS
10
1.1015
20
0.87855
11
1.11092
21
0.889084
0
LINE
8
BLACK
6
CONTINUOUS
10
1.11092
20
0.889084
11
1.12145
21
0.898498
0
LINE
8
BLACK
6
CONTINUOUS
10
1.12145
20
0.898498
11
1.13297
21
0.906674
0
LINE
8
BLACK
6
CONTINUOUS
10
1.13297
20
0.906674
11
1.14534
21
0.913508
0
LINE
8
BLACK
6
CONTINUOUS
10
1.14534
20
0.913508
11
1.15839
21
0.918914
0
LINE
8
BLACK
6
CONTINUOUS
10
1.15839
20
0.918914
11
1.17197
21
0.922826
0
LINE
8
BLACK
6
CONTINUOUS
10
1.17197
20
0.922826
11
1.18589
21
0.925192
0
LINE
8
BLACK
6
CONTINUOUS
10
1.18589
20
0.925192
11
1.2
21
0.925984
0
LINE
8
BLACK
6
CONTINUOUS
10
1.2
20
0.925984
11
1.21411
21
0.925192
0
LINE
8
BLACK
6
CONTINUOUS
10
0.433013
20
0.787275
11
0.435568
21
0.785568
0
LINE
8
BLACK
6
CONTINUOUS
10
0.435568
20
0.785568
11
0.437275
21
0.783013
0
LINE
8
BLACK
6
CONTINUOUS
10
0.437275
20
0.783013
11
0.437874
21
0.78
0
LINE
8
BLACK
6
CONTINUOUS
10
0.437874
20
0.78
11
0.437874
21
0.72
0
LINE
8
BLACK
6
CONTINUOUS
10
0.437874
20
0.72
11
0.437275
21
0.716987
0
LINE
8
BLACK
6
CONTINUOUS
10
0.437275
20
0.716987
11
0.435568
21
0.714432
0
LINE
8
BLACK
6
CONTINUOUS
10
0.435568
20
0.714432
11
0.433013
21
0.712725
0
LINE
8
BLACK
6
CONTINUOUS
10
0.433013
20
0.712725
11
0.43
21
0.712126
0
LINE
8
BLACK
6
CONTINUOUS
10
0.43
20
0.712126
11
0.37
21
0.712126
0
LINE
8
BLACK
6
CONTINUOUS
10
0.37
20
0.712126
11
0.366987
21
0.712725
0
LINE
8
BLACK
6
CONTINUOUS
10
0.366987
20
0.712725
11
0.364432
21
0.714432
0
LINE
8
BLACK
6
CONTINUOUS
10
0.364432
20
0.714432
11
0.362725
21
0.716987
0
LINE
8
BLACK
6
CONTINUOUS
10
0.362725
20
0.716987
11
0.362126
21
0.72
0
LINE
8
BLACK
6
CONTINUOUS
10
0.362126
20
0.72
11
0.362126
21
0.78
0
LINE
8
BLACK
6
CONTINUOUS
10
0.362126
20
0.78
11
0.362725
21
0.783013
0
LINE
8
BLACK
6
CONTINUOUS
10
0.362725
20
0.783013
11
0.364432
21
0.785568
0
LINE
8
BLACK
6
CONTINUOUS
10
0.364432
20
0.785568
11
0.366987
21
0.787275
0
LINE
8
BLACK
6
CONTINUOUS
10
0.366987
20
0.787275
11
0.37
21
0.787874
0
LINE
8
BLACK
6
CONTINUOUS
10
0.37
20
0.787874
11
0.43
21
0.787874
0
LINE
8
BLACK
6
CONTINUOUS
10
0.43
20
0.787874
11
0.433013
21
0.787275
0
LINE
8
BLACK
6
CONTINUOUS
10
0.533013
20
0.787275
11
0.535568
21
0.785568
0
LINE
8
BLACK
6
CONTINUOUS
10
0.535568
20
0.785568
11
0.537275
21
0.783013
0
LINE
8
BLACK
6
CONTINUOUS
10
0.537275
20
0.783013
11
0.537874
21
0.78
0
LINE
8
BLACK
6
CONTINUOUS
10
0.537874
20
0.78
11
0.537874
21
0.72
0
LINE
8
BLACK
6
CONTINUOUS
10
0.537874
20
0.72
11
0.537275
21
0.716987
0
LINE
8
BLACK
6
CONTINUOUS
10
0.537275
20
0.716987
11
0.535568
21
0.714432
0
LINE
8
BLACK
6
CONTINUOUS
10
0.535568
20
0.714432
11
0.533013
21
0.712725
0
LINE
8
BLACK
6
CONTINUOUS
10
0.533013
20
0.712725
11
0.53
21
0.712126
0
LINE
8
BLACK
6
CONTINUOUS
10
0.53
20
0.712126
11
0.47
21
0.712126
0
LINE
8
BLACK
6
CONTINUOUS
10
0.47
20
0.712126
11
0.466987
21
0.712725
0
LINE
8
BLACK
6
CONTINUOUS
10
0.466987
20
0.712725
11
0.464432
21
0.714432
0
LINE
8
BLACK
6
CONTINUOUS
10
0.464432
20
0.714432
11
0.462725
21
0.716987
0
LINE
8
BLACK
6
CONTINUOUS
10
0.462725
20
0.716987
11
0.462126
21
0.72
0
LINE
8
BLACK
6
CONTINUOUS
10
0.462126
20
0.72
11
0.462126
21
0.78
0
LINE
8
BLACK
6
CONTINUOUS
10
0.462126
20
0.78
11
0.462725
21
0.783013
0
LINE
8
BLACK
6
CONTINUOUS
10
0.462725
20
0.783013
11
0.464432
21
0.785568
0
LINE
8
BLACK
6
CONTINUOUS
10
0.464432
20
0.785568
11
0.466987
21
0.787275
0
LINE
8
BLACK
6
CONTINUOUS
10
0.466987
20
0.787275
11
0.47
21
0.787874
0
LINE
8
BLACK
6
CONTINUOUS
10
0.47
20
0.787874
11
0.53
21
0.787874
0
LINE
8
BLACK
6
CONTINUOUS
10
0.53
20
0.787874
11
0.533013
21
0.787275
0
LINE
8
BLACK
6
CONTINUOUS
10
0.633013
20
0.787275
11
0.635568
21
0.785568
0
LINE
8
BLACK
6
CONTINUOUS
10
0.635568
20
0.785568
11
0.637275
21
0.783013
0
LINE
8
BLACK
6
CONTINUOUS
10
0.637275
20
0.783013
11
0.637874
21
0.78
0
LINE
8
BLACK
6
CONTINUOUS
10
0.637874
20
0.78
11
0.637874
21
0.72
0
LINE
8
BLACK
6
CONTINUOUS
10
0.637874
20
0.72
11
0.637275
21
0.716987
0
LINE
8
BLACK
6
CONTINUOUS
10
0.637275
20
0.716987
11
0.635568
21
0.714432
0
LINE
8
BLACK
6
CONTINUOUS
10
0.635568
20
0.714432
11
0.633013
21
0.712725
0
LINE
8
BLACK
6
CONTINUOUS
10
0.633013
20
0.712725
11
0.63
21
0.712126
0
LINE
8
BLACK
6
CONTINUOUS
10
0.63
20
0.712126
11
0.57
21
0.712126
0
LINE
8
BLACK
6
CONTINUOUS
10
0.57
20
0.712126
11
0.566987
21
0.712725
0
LINE
8
BLACK
6
CONTINUOUS
10
0.566987
20
0.712725
11
0.564432
21
0.714432
0
LINE
8
BLACK
6
CONTINUOUS
10
0.564432
20
0.714432
11
0.562725
21
0.716987
0
LINE
8
BLACK
6
CONTINUOUS
10
0.562725
20
0.716987
11
0.562126
21
0.72
0
LINE
8
BLACK
6
CONTINUOUS
10
0.562126
20
0.72
11
0.562126
21
0.78
0
LINE
8
BLACK
6
CONTINUOUS
10
0.562126
20
0.78
11
0.562725
21
0.783013
0
LINE
8
BLACK
6
CONTINUOUS
10
0.562725
20
0.783013
11
0.564432
21
0.785568
0
LINE
8
BLACK
6
CONTINUOUS
10
0.564432
20
0.785568
11
0.566987
21
0.787275
0
LINE
8
BLACK
6
CONTINUOUS
10
0.566987
20
0.787275
11
0.57
21
0.787874
0
LINE
8
BLACK
6
CONTINUOUS
10
0.57
20
0.787874
11
0.63
21
0.787874
0
LINE
8
BLACK
6
CONTINUOUS
10
0.63
20
0.787874
11
0.633013
21
0.787275
0
LINE
8
BLACK
6
CONTINUOUS
10
0.733013
20
0.787275
11
0.735568
21
0.785568
0
LINE
8
BLACK
6
CONTINUOUS
10
0.735568
20
0.785568
11
0.737275
21
0.783013
0
LINE
8
BLACK
6
CONTINUOUS
10
0.737275
20
0.783013
11
0.737874
21
0.78
0
LINE
8
BLACK
6
CONTINUOUS
10
0.737874
20
0.78
11
0.737874
21
0.72
0
LINE
8
BLACK
6
CONTINUOUS
10
0.737874
20
0.72
11
0.737275
21
0.716987
0
LINE
8
BLACK
6
CONTINUOUS
10
0.737275
20
0.716987
11
0.735568
21
0.714432
0
LINE
8
BLACK
6
CONTINUOUS
10
0.735568
20
0.714432
11
0.733013
21
0.712725
0
LINE
8
BLACK
6
CONTINUOUS
10
0.733013
20
0.712725
11
0.73
21
0.712126
0
LINE
8
BLACK
6
CONTINUOUS
10
0.73
20
0.712126
11
0.67
21
0.712126
0
LINE
8
BLACK
6
CONTINUOUS
10
0.67
20
0.712126
11
0.666987
21
0.712725
0
LINE
8
BLACK
6
CONTINUOUS
10
0.666987
20
0.712725
11
0.664432
21
0.714432
0
LINE
8
BLACK
6
CONTINUOUS
10
0.664432
20
0.714432
11
0.662725
21
0.716987
0
LINE
8
BLACK
6
CONTINUOUS
10
0.662725
20
0.716987
11
0.662126
21
0.72
0
LINE
8
BLACK
6
CONTINUOUS
10
0.662126
20
0.72
11
0.662126
21
0.78
0
LINE
8
BLACK
6
CONTINUOUS
10
0.662126
20
0.78
11
0.662725
21
0.783013
0
LINE
8
BLACK
6
CONTINUOUS
10
0.662725
20
0.783013
11
0.664432
21
0.785568
0
LINE
8
BLACK
6
CONTINUOUS
10
0.664432
20
0.785568
11
0.666987
21
0.787275
0
LINE
8
BLACK
6
CONTINUOUS
10
0.666987
20
0.787275
11
0.67
21
0.787874
0
LINE
8
BLACK
6
CONTINUOUS
10
0.67
20
0.787874
11
0.73
21
0.787874
0
LINE
8
BLACK
6
CONTINUOUS
10
0.73
20
0.787874
11
0.733013
21
0.787275
0
LINE
8
BLACK
6
CONTINUOUS
10
0.833013
20
0.787275
11
0.835568
21
0.785568
0
LINE
8
BLACK
6
CONTINUOUS
10
0.835568
20
0.785568
11
0.837275
21
0.783013
0
LINE
8
BLACK
6
CONTINUOUS
10
0.837275
20
0.783013
11
0.837874
21
0.78
0
LINE
8
BLACK
6
CONTINUOUS
10
0.837874
20
0.78
11
0.837874
21
0.72
0
LINE
8
BLACK
6
CONTINUOUS
10
0.837874
20
0.72
11
0.837275
21
0.716987
0
LINE
8
BLACK
6
CONTINUOUS
10
0.837275
20
0.716987
11
0.835568
21
0.714432
0
LINE
8
BLACK
6
CONTINUOUS
10
0.835568
20
0.714432
11
0.833013
21
0.712725
0
LINE
8
BLACK
6
CONTINUOUS
10
0.833013
20
0.712725
11
0.83
21
0.712126
0
LINE
8
BLACK
6
CONTINUOUS
10
0.83
20
0.712126
11
0.77
21
0.712126
0
LINE
8
BLACK
6
CONTINUOUS
10
0.77
20
0.712126
11
0.766987
21
0.712725
0
LINE
8
BLACK
6
CONTINUOUS
10
0.766987
20
0.712725
11
0.764432
21
0.714432
0
LINE
8
BLACK
6
CONTINUOUS
10
0.764432
20
0.714432
11
0.762725
21
0.716987
0
LINE
8
BLACK
6
CONTINUOUS
10
0.762725
20
0.716987
11
0.762126
21
0.72
0
LINE
8
BLACK
6
CONTINUOUS
10
0.762126
20
0.72
11
0.762126
21
0.78
0
LINE
8
BLACK
6
CONTINUOUS
10
0.762126
20
0.78
11
0.762725
21
0.783013
0
LINE
8
BLACK
6
CONTINUOUS
10
0.762725
20
0.783013
11
0.764432
21
0.785568
0
LINE
8
BLACK
6
CONTINUOUS
10
0.764432
20
0.785568
11
0.766987
21
0.787275
0
LINE
8
BLACK
6
CONTINUOUS
10
0.766987
20
0.787275
11
0.77
21
0.787874
0
LINE
8
BLACK
6
CONTINUOUS
10
0.77
20
0.787874
11
0.83
21
0.787874
0
LINE
8
BLACK
6
CONTINUOUS
10
0.83
20
0.787874
11
0.833013
21
0.787275
0
LINE
8
BLACK
6
CONTINUOUS
10
0.933013
20
0.787275
11
0.935568
21
0.785568
0
LINE
8
BLACK
6
CONTINUOUS
10
0.935568
20
0.785568
11
0.937275
21
0.783013
0
LINE
8
BLACK
6
CONTINUOUS
10
0.937275
20
0.783013
11
0.937874
21
0.78
0
LINE
8
BLACK
6
CONTINUOUS
10
0.937874
20
0.78
11
0.937874
21
0.72
0
LINE
8
BLACK
6
CONTINUOUS
10
0.937874
20
0.72
11
0.937275
21
0.716987
0
LINE
8
BLACK
6
CONTINUOUS
10
0.937275
20
0.716987
11
0.935568
21
0.714432
0
LINE
8
BLACK
6
CONTINUOUS
10
0.935568
20
0.714432
11
0.933013
21
0.712725
0
LINE
8
BLACK
6
CONTINUOUS
10
0.933013
20
0.712725
11
0.93
21
0.712126
0
LINE
8
BLACK
6
CONTINUOUS
10
0.93
20
0.712126
11
0.87
21
0.712126
0
LINE
8
BLACK
6
CONTINUOUS
10
0.87
20
0.712126
11
0.866987
21
0.712725
0
LINE
8
BLACK
6
CONTINUOUS
10
0.866987
20
0.712725
11
0.864432
21
0.714432
0
LINE
8
BLACK
6
CONTINUOUS
10
0.864432
20
0.714432
11
0.862725
21
0.716987
0
LINE
8
BLACK
6
CONTINUOUS
10
0.862725
20
0.716987
11
0.862126
21
0.72
0
LINE
8
BLACK
6
CONTINUOUS
10
0.862126
20
0.72
11
0.862126
21
0.78
0
LINE
8
BLACK
6
CONTINUOUS
10
0.862126
20
0.78
11
0.862725
21
0.783013
0
LINE
8
BLACK
6
CONTINUOUS
10
0.862725
20
0.783013
11
0.864432
21
0.785568
0
LINE
8
BLACK
6
CONTINUOUS
10
0.864432
20
0.785568
11
0.866987
21
0.787275
0
LINE
8
BLACK
6
CONTINUOUS
10
0.866987
20
0.787275
11
0.87
21
0.787874
0
LINE
8
BLACK
6
CONTINUOUS
10
0.87
20
0.787874
11
0.93
21
0.787874
0
LINE
8
BLACK
6
CONTINUOUS
10
0.93
20
0.787874
11
0.933013
21
0.787275
0
LINE
8
BLACK
6
CONTINUOUS
10
1.03301
20
0.787275
11
1.03557
21
0.785568
0
LINE
8
BLACK
6
CONTINUOUS
10
1.03557
20
0.785568
11
1.03727
21
0.783013
0
LINE
8
BLACK
6
CONTINUOUS
10
1.03727
20
0.783013
11
1.03787
21
0.78
0
LINE
8
BLACK
6
CONTINUOUS
10
1.03787
20
0.78
11
1.03787
21
0.72
0
LINE
8
BLACK
6
CONTINUOUS
10
1.03787
20
0.72
11
1.03727
21
0.716987
0
LINE
8
BLACK
6
CONTINUOUS
10
1.03727
20
0.716987
11
1.03557
21
0.714432
0
LINE
8
BLACK
6
CONTINUOUS
10
1.03557
20
0.714432
11
1.03301
21
0.712725
0
LINE
8
BLACK
6
CONTINUOUS
10
1.03301
20
0.712725
11
1.03
21
0.712126
0
LINE
8
BLACK
6
CONTINUOUS
10
1.03
20
0.712126
11
0.97
21
0.712126
0
LINE
8
BLACK
6
CONTINUOUS
10
0.97
20
0.712126
11
0.966987
21
0.712725
0
LINE
8
BLACK
6
CONTINUOUS
10
0.966987
20
0.712725
11
0.964432
21
0.714432
0
LINE
8
BLACK
6
CONTINUOUS
10
0.964432
20
0.714432
11
0.962725
21
0.716987
0
LINE
8
BLACK
6
CONTINUOUS
10
0.962725
20
0.716987
11
0.962126
21
0.72
0
LINE
8
BLACK
6
CONTINUOUS
10
0.962126
20
0.72
11
0.962126
21
0.78
0
LINE
8
BLACK
6
CONTINUOUS
10
0.962126
20
0.78
11
0.962725
21
0.783013
0
LINE
8
BLACK
6
CONTINUOUS
10
0.962725
20
0.783013
11
0.964432
21
0.785568
0
LINE
8
BLACK
6
CONTINUOUS
10
0.964432
20
0.785568
11
0.966987
21
0.787275
0
LINE
8
BLACK
6
CONTINUOUS
10
0.966987
20
0.787275
11
0.97
21
0.787874
0
LINE
8
BLACK
6
CONTINUOUS
10
0.97
20
0.787874
11
1.03
21
0.787874
0
LINE
8
BLACK
6
CONTINUOUS
10
1.03
20
0.787874
11
1.03301
21
0.787275
0
LINE
8
BLACK
6
CONTINUOUS
10
0.259229
20
0.852342
11
0.268178
21
0.849944
0
LINE
8
BLACK
6
CONTINUOUS
10
0.268178
20
0.849944
11
0.276575
21
0.846029
0
LINE
8
BLACK
6
CONTINUOUS
10
0.276575
20
0.846029
11
0.284164
21
0.840715
0
LINE
8
BLACK
6
CONTINUOUS
10
0.284164
20
0.840715
11
0.290715
21
0.834164
0
LINE
8
BLACK
6
CONTINUOUS
10
0.290715
20
0.834164
11
0.296029
21
0.826575
0
LINE
8
BLACK
6
CONTINUOUS
10
0.296029
20
0.826575
11
0.299944
21
0.818178
0
LINE
8
BLACK
6
CONTINUOUS
10
0.299944
20
0.818178
11
0.302342
21
0.809229
0
LINE
8
BLACK
6
CONTINUOUS
10
0.302342
20
0.809229
11
0.30315
21
0.8
0
LINE
8
BLACK
6
CONTINUOUS
10
0.30315
20
0.8
11
0.302342
21
0.790771
0
LINE
8
BLACK
6
CONTINUOUS
10
0.302342
20
0.790771
11
0.299944
21
0.781822
0
LINE
8
BLACK
6
CONTINUOUS
10
0.299944
20
0.781822
11
0.296029
21
0.773425
0
LINE
8
BLACK
6
CONTINUOUS
10
0.296029
20
0.773425
11
0.290715
21
0.765836
0
LINE
8
BLACK
6
CONTINUOUS
10
0.290715
20
0.765836
11
0.284164
21
0.759285
0
LINE
8
BLACK
6
CONTINUOUS
10
0.284164
20
0.759285
11
0.276575
21
0.753971
0
LINE
8
BLACK
6
CONTINUOUS
10
0.276575
20
0.753971
11
0.268178
21
0.750056
0
LINE
8
BLACK
6
CONTINUOUS
10
0.268178
20
0.750056
11
0.259229
21
0.747658
0
LINE
8
BLACK
6
CONTINUOUS
10
0.259229
20
0.747658
11
0.25
21
0.74685
0
LINE
8
BLACK
6
CONTINUOUS
10
0.25
20
0.74685
11
0.240771
21
0.747658
0
LINE
8
BLACK
6
CONTINUOUS
10
0.240771
20
0.747658
11
0.231822
21
0.750056
0
LINE
8
BLACK
6
CONTINUOUS
10
0.231822
20
0.750056
11
0.223425
21
0.753971
0
LINE
8
BLACK
6
CONTINUOUS
10
0.223425
20
0.753971
11
0.215836
21
0.759285
0
LINE
8
BLACK
6
CONTINUOUS
10
0.215836
20
0.759285
11
0.209285
21
0.765836
0
LINE
8
BLACK
6
CONTINUOUS
10
0.209285
20
0.765836
11
0.203971
21
0.773425
0
LINE
8
BLACK
6
CONTINUOUS
10
0.203971
20
0.773425
11
0.200056
21
0.781822
0
LINE
8
BLACK
6
CONTINUOUS
10
0.200056
20
0.781822
11
0.197658
21
0.790771
0
LINE
8
BLACK
6
CONTINUOUS
10
0.197658
20
0.790771
11
0.19685
21
0.8
0
LINE
8
BLACK
6
CONTINUOUS
10
0.19685
20
0.8
11
0.197658
21
0.809229
0
LINE
8
BLACK
6
CONTINUOUS
10
0.197658
20
0.809229
11
0.200056
21
0.818178
0
LINE
8
BLACK
6
CONTINUOUS
10
0.200056
20
0.818178
11
0.203971
21
0.826575
0
LINE
8
BLACK
6
CONTINUOUS
10
0.203971
20
0.826575
11
0.209285
21
0.834164
0
LINE
8
BLACK
6
CONTINUOUS
10
0.209285
20
0.834164
11
0.215836
21
0.840715
0
LINE
8
BLACK
6
CONTINUOUS
10
0.215836
20
0.840715
11
0.223425
21
0.846029
0
LINE
8
BLACK
6
CONTINUOUS
10
0.223425
20
0.846029
11
0.231822
21
0.849944
0
LINE
8
BLACK
6
CONTINUOUS
10
0.231822
20
0.849944
11
0.240771
21
0.852342
0
LINE
8
BLACK
6
CONTINUOUS
10
0.240771
20
0.852342
11
0.25
21
0.85315
0
LINE
8
BLACK
6
CONTINUOUS
10
0.25
20
0.85315
11
0.259229
21
0.852342
0
LINE
8
BLACK
6
CONTINUOUS
10
0.190021
20
0.836802
11
0.192576
21
0.835095
0
LINE
8
BLACK
6
CONTINUOUS
10
0.192576
20
0.835095
11
0.194283
21
0.832541
0
LINE
8
BLACK
6
CONTINUOUS
10
0.194283
20
0.832541
11
0.194882
21
0.829528
0
LINE
8
BLACK
6
CONTINUOUS
10
0.194882
20
0.829528
11
0.194882
21
0.770472
0
LINE
8
BLACK
6
CONTINUOUS
10
0.194882
20
0.770472
11
0.194283
21
0.767459
0
LINE
8
BLACK
6
CONTINUOUS
10
0.194283
20
0.767459
11
0.192576
21
0.764905
0
LINE
8
BLACK
6
CONTINUOUS
10
0.192576
20
0.764905
11
0.190021
21
0.763198
0
LINE
8
BLACK
6
CONTINUOUS
10
0.190021
20
0.763198
11
0.187008
21
0.762598
0
LINE
8
BLACK
6
CONTINUOUS
10
0.187008
20
0.762598
11
0.149606
21
0.762598
0
LINE
8
BLACK
6
CONTINUOUS
10
0.149606
20
0.762598
11
0.146593
21
0.763198
0
LINE
8
BLACK
6
CONTINUOUS
10
0.146593
20
0.763198
11
0.144039
21
0.764905
0
LINE
8
BLACK
6
CONTINUOUS
10
0.144039
20
0.764905
11
0.142332
21
0.767459
0
LINE
8
BLACK
6
CONTINUOUS
10
0.142332
20
0.767459
11
0.141732
21
0.770472
0
LINE
8
BLACK
6
CONTINUOUS
10
0.141732
20
0.770472
11
0.141732
21
0.829528
0
LINE
8
BLACK
6
CONTINUOUS
10
0.141732
20
0.829528
11
0.142332
21
0.832541
0
LINE
8
BLACK
6
CONTINUOUS
10
0.142332
20
0.832541
11
0.144039
21
0.835095
0
LINE
8
BLACK
6
CONTINUOUS
10
0.144039
20
0.835095
11
0.146593
21
0.836802
0
LINE
8
BLACK
6
CONTINUOUS
10
0.146593
20
0.836802
11
0.149606
21
0.837402
0
LINE
8
BLACK
6
CONTINUOUS
10
0.149606
20
0.837402
11
0.187008
21
0.837402
0
LINE
8
BLACK
6
CONTINUOUS
10
0.187008
20
0.837402
11
0.190021
21
0.836802
0
LINE
8
BLACK
6
CONTINUOUS
10
0.353407
20
0.836802
11
0.355961
21
0.835095
0
LINE
8
BLACK
6
CONTINUOUS
10
0.355961
20
0.835095
11
0.357668
21
0.832541
0
LINE
8
BLACK
6
CONTINUOUS
10
0.357668
20
0.832541
11
0.358268
21
0.829528
0
LINE
8
BLACK
6
CONTINUOUS
10
0.358268
20
0.829528
11
0.358268
21
0.770472
0
LINE
8
BLACK
6
CONTINUOUS
10
0.358268
20
0.770472
11
0.357668
21
0.767459
0
LINE
8
BLACK
6
CONTINUOUS
10
0.357668
20
0.767459
11
0.355961
21
0.764905
0
LINE
8
BLACK
6
CONTINUOUS
10
0.355961
20
0.764905
11
0.353407
21
0.763198
0
LINE
8
BLACK
6
CONTINUOUS
10
0.353407
20
0.763198
11
0.350394
21
0.762598
0
LINE
8
BLACK
6
CONTINUOUS
10
0.350394
20
0.762598
11
0.312992
21
0.762598
0
LINE
8
BLACK
6
CONTINUOUS
10
0.312992
20
0.762598
11
0.309979
21
0.763198
0
LINE
8
BLACK
6
CONTINUOUS
10
0.309979
20
0.763198
11
0.307424
21
0.764905
0
LINE
8
BLACK
6
CONTINUOUS
10
0.307424
20
0.764905
11
0.305717
21
0.767459
0
LINE
8
BLACK
6
CONTINUOUS
10
0.305717
20
0.767459
11
0.305118
21
0.770472
0
LINE
8
BLACK
6
CONTINUOUS
10
0.305118
20
0.770472
11
0.305118
21
0.829528
0
LINE
8
BLACK
6
CONTINUOUS
10
0.305118
20
0.829528
11
0.305717
21
0.832541
0
LINE
8
BLACK
6
CONTINUOUS
10
0.305717
20
0.832541
11
0.307424
21
0.835095
0
LINE
8
BLACK
6
CONTINUOUS
10
0.307424
20
0.835095
11
0.309979
21
0.836802
0
LINE
8
BLACK
6
CONTINUOUS
10
0.309979
20
0.836802
11
0.312992
21
0.837402
0
LINE
8
BLACK
6
CONTINUOUS
10
0.312992
20
0.837402
11
0.350394
21
0.837402
0
LINE
8
BLACK
6
CONTINUOUS
10
0.350394
20
0.837402
11
0.353407
21
0.836802
0
LINE
8
BLACK
6
CONTINUOUS
10
0.433013
20
0.887275
11
0.435568
21
0.885568
0
LINE
8
BLACK
6
CONTINUOUS
10
0.435568
20
0.885568
11
0.437275
21
0.883013
0
LINE
8
BLACK
6
CONTINUOUS
10
0.437275
20
0.883013
11
0.437874
21
0.88
0
LINE
8
BLACK
6
CONTINUOUS
10
0.437874
20
0.88
11
0.437874
21
0.82
0
LINE
8
BLACK
6
CONTINUOUS
10
0.437874
20
0.82
11
0.437275
21
0.816987
0
LINE
8
BLACK
6
CONTINUOUS
10
0.437275
20
0.816987
11
0.435568
21
0.814432
0
LINE
8
BLACK
6
CONTINUOUS
10
0.435568
20
0.814432
11
0.433013
21
0.812725
0
LINE
8
BLACK
6
CONTINUOUS
10
0.433013
20
0.812725
11
0.43
21
0.812126
0
LINE
8
BLACK
6
CONTINUOUS
10
0.43
20
0.812126
11
0.37
21
0.812126
0
LINE
8
BLACK
6
CONTINUOUS
10
0.37
20
0.812126
11
0.366987
21
0.812725
0
LINE
8
BLACK
6
CONTINUOUS
10
0.366987
20
0.812725
11
0.364432
21
0.814432
0
LINE
8
BLACK
6
CONTINUOUS
10
0.364432
20
0.814432
11
0.362725
21
0.816987
0
LINE
8
BLACK
6
CONTINUOUS
10
0.362725
20
0.816987
11
0.362126
21
0.82
0
LINE
8
BLACK
6
CONTINUOUS
10
0.362126
20
0.82
11
0.362126
21
0.88
0
LINE
8
BLACK
6
CONTINUOUS
10
0.362126
20
0.88
11
0.362725
21
0.883013
0
LINE
8
BLACK
6
CONTINUOUS
10
0.362725
20
0.883013
11
0.364432
21
0.885568
0
LINE
8
BLACK
6
CONTINUOUS
10
0.364432
20
0.885568
11
0.366987
21
0.887275
0
LINE
8
BLACK
6
CONTINUOUS
10
0.366987
20
0.887275
11
0.37
21
0.887874
0
LINE
8
BLACK
6
CONTINUOUS
10
0.37
20
0.887874
11
0.43
21
0.887874
0
LINE
8
BLACK
6
CONTINUOUS
10
0.43
20
0.887874
11
0.433013
21
0.887275
0
LINE
8
BLACK
6
CONTINUOUS
10
0.533013
20
0.887275
11
0.535568
21
0.885568
0
LINE
8
BLACK
6
CONTINUOUS
10
0.535568
20
0.885568
11
0.537275
21
0.883013
0
LINE
8
BLACK
6
CONTINUOUS
10
0.537275
20
0.883013
11
0.537874
21
0.88
0
LINE
8
BLACK
6
CONTINUOUS
10
0.537874
20
0.88
11
0.537874
21
0.82
0
LINE
8
BLACK
6
CONTINUOUS
10
0.537874
20
0.82
11
0.537275
21
0.816987
0
LINE
8
BLACK
6
CONTINUOUS
10
0.537275
20
0.816987
11
0.535568
21
0.814432
0
LINE
8
BLACK
6
CONTINUOUS
10
0.535568
20
0.814432
11
0.533013
21
0.812725
0
LINE
8
BLACK
6
CONTINUOUS
10
0.533013
20
0.812725
11
0.53
21
0.812126
0
LINE
8
BLACK
6
CONTINUOUS
10
0.53
20
0.812126
11
0.47
21
0.812126
0
LINE
8
BLACK
6
CONTINUOUS
10
0.47
20
0.812126
11
0.466987
21
0.812725
0
LINE
8
BLACK
6
CONTINUOUS
10
0.466987
20
0.812725
11
0.464432
21
0.814432
0
LINE
8
BLACK
6
CONTINUOUS
10
0.464432
20
0.814432
11
0.462725
21
0.816987
0
LINE
8
BLACK
6
CONTINUOUS
10
0.462725
20
0.816987
11
0.462126
21
0.82
0
LINE
8
BLACK
6
CONTINUOUS
10
0.462126
20
0.82
11
0.462126
21
0.88
0
LINE
8
BLACK
6
CONTINUOUS
10
0.462126
20
0.88
11
0.462725
21
0.883013
0
LINE
8
BLACK
6
CONTINUOUS
10
0.462725
20
0.883013
11
0.464432
21
0.885568
0
LINE
8
BLACK
6
CONTINUOUS
10
0.464432
20
0.885568
11
0.466987
21
0.887275
0
LINE
8
BLACK
6
CONTINUOUS
10
0.466987
20
0.887275
11
0.47
21
0.887874
0
LINE
8
BLACK
6
CONTINUOUS
10
0.47
20
0.887874
11
0.53
21
0.887874
0
LINE
8
BLACK
6
CONTINUOUS
10
0.53
20
0.887874
11
0.533013
21
0.887275
0
LINE
8
BLACK
6
CONTINUOUS
10
0.633013
20
0.887275
11
0.635568
21
0.885568
0
LINE
8
BLACK
6
CONTINUOUS
10
0.635568
20
0.885568
11
0.637275
21
0.883013
0
LINE
8
BLACK
6
CONTINUOUS
10
0.637275
20
0.883013
11
0.637874
21
0.88
0
LINE
8
BLACK
6
CONTINUOUS
10
0.637874
20
0.88
11
0.637874
21
0.82
0
LINE
8
BLACK
6
CONTINUOUS
10
0.637874
20
0.82
11
0.637275
21
0.816987
0
LINE
8
BLACK
6
CONTINUOUS
10
0.637275
20
0.816987
11
0.635568
21
0.814432
0
LINE
8
BLACK
6
CONTINUOUS
10
0.635568
20
0.814432
11
0.633013
21
0.812725
0
LINE
8
BLACK
6
CONTINUOUS
10
0.633013
20
0.812725
11
0.63
21
0.812126
0
LINE
8
BLACK
6
CONTINUOUS
10
0.63
20
0.812126
11
0.57
21
0.812126
0
LINE
8
BLACK
6
CONTINUOUS
10
0.57
20
0.812126
11
0.566987
21
0.812725
0
LINE
8
BLACK
6
CONTINUOUS
10
0.566987
20
0.812725
11
0.564432
21
0.814432
0
LINE
8
BLACK
6
CONTINUOUS
10
0.564432
20
0.814432
11
0.562725
21
0.816987
0
LINE
8
BLACK
6
CONTINUOUS
10
0.562725
20
0.816987
11
0.562126
21
0.82
0
LINE
8
BLACK
6
CONTINUOUS
10
0.562126
20
0.82
11
0.562126
21
0.88
0
LINE
8
BLACK
6
CONTINUOUS
10
0.562126
20
0.88
11
0.562725
21
0.883013
0
LINE
8
BLACK
6
CONTINUOUS
10
0.562725
20
0.883013
11
0.564432
21
0.885568
0
LINE
8
BLACK
6
CONTINUOUS
10
0.564432
20
0.885568
11
0.566987
21
0.887275
0
LINE
8
BLACK
6
CONTINUOUS
10
0.566987
20
0.887275
11
0.57
21
0.887874
0
LINE
8
BLACK
6
CONTINUOUS
10
0.57
20
0.887874
11
0.63
21
0.887874
0
LINE
8
BLACK
6
CONTINUOUS
10
0.63
20
0.887874
11
0.633013
21
0.887275
0
LINE
8
BLACK
6
CONTINUOUS
10
0.733013
20
0.887275
11
0.735568
21
0.885568
0
LINE
8
BLACK
6
CONTINUOUS
10
0.735568
20
0.885568
11
0.737275
21
0.883013
0
LINE
8
BLACK
6
CONTINUOUS
10
0.737275
20
0.883013
11
0.737874
21
0.88
0
LINE
8
BLACK
6
CONTINUOUS
10
0.737874
20
0.88
11
0.737874
21
0.82
0
LINE
8
BLACK
6
CONTINUOUS
10
0.737874
20
0.82
11
0.737275
21
0.816987
0
LINE
8
BLACK
6
CONTINUOUS
10
0.737275
20
0.816987
11
0.735568
21
0.814432
0
LINE
8
BLACK
6
CONTINUOUS
10
0.735568
20
0.814432
11
0.733013
21
0.812725
0
LINE
8
BLACK
6
CONTINUOUS
10
0.733013
20
0.812725
11
0.73
21
0.812126
0
LINE
8
BLACK
6
CONTINUOUS
10
0.73
20
0.812126
11
0.67
21
0.812126
0
LINE
8
BLACK
6
CONTINUOUS
10
0.67
20
0.812126
11
0.666987
21
0.812725
0
LINE
8
BLACK
6
CONTINUOUS
10
0.666987
20
0.812725
11
0.664432
21
0.814432
0
LINE
8
BLACK
6
CONTINUOUS
10
0.664432
20
0.814432
11
0.662725
21
0.816987
0
LINE
8
BLACK
6
CONTINUOUS
10
0.662725
20
0.816987
11
0.662126
21
0.82
0
LINE
8
BLACK
6
CONTINUOUS
10
0.662126
20
0.82
11
0.662126
21
0.88
0
LINE
8
BLACK
6
CONTINUOUS
10
0.662126
20
0.88
11
0.662725
21
0.883013
0
LINE
8
BLACK
6
CONTINUOUS
10
0.662725
20
0.883013
11
0.664432
21
0.885568
0
LINE
8
BLACK
6
CONTINUOUS
10
0.664432
20
0.885568
11
0.666987
21
0.887275
0
LINE
8
BLACK
6
CONTINUOUS
10
0.666987
20
0.887275
11
0.67
21
0.887874
0
LINE
8
BLACK
6
CONTINUOUS
10
0.67
20
0.887874
11
0.73
21
0.887874
0
LINE
8
BLACK
6
CONTINUOUS
10
0.73
20
0.887874
11
0.733013
21
0.887275
0
LINE
8
BLACK
6
CONTINUOUS
10
0.833013
20
0.887275
11
0.835568
21
0.885568
0
LINE
8
BLACK
6
CONTINUOUS
10
0.835568
20
0.885568
11
0.837275
21
0.883013
0
LINE
8
BLACK
6
CONTINUOUS
10
0.837275
20
0.883013
11
0.837874
21
0.88
0
LINE
8
BLACK
6
CONTINUOUS
10
0.837874
20
0.88
11
0.837874
21
0.82
0
LINE
8
BLACK
6
CONTINUOUS
10
0.837874
20
0.82
11
0.837275
21
0.816987
0
LINE
8
BLACK
6
CONTINUOUS
10
0.837275
20
0.816987
11
0.835568
21
0.814432
0
LINE
8
BLACK
6
CONTINUOUS
10
0.835568
20
0.814432
11
0.833013
21
0.812725
0
LINE
8
BLACK
6
CONTINUOUS
10
0.833013
20
0.812725
11
0.83
21
0.812126
0
LINE
8
BLACK
6
CONTINUOUS
10
0.83
20
0.812126
11
0.77
21
0.812126
0
LINE
8
BLACK
6
CONTINUOUS
10
0.77
20
0.812126
11
0.766987
21
0.812725
0
LINE
8
BLACK
6
CONTINUOUS
10
0.766987
20
0.812725
11
0.764432
21
0.814432
0
LINE
8
BLACK
6
CONTINUOUS
10
0.764432
20
0.814432
11
0.762725
21
0.816987
0
LINE
8
BLACK
6
CONTINUOUS
10
0.762725
20
0.816987
11
0.762126
21
0.82
0
LINE
8
BLACK
6
CONTINUOUS
10
0.762126
20
0.82
11
0.762126
21
0.88
0
LINE
8
BLACK
6
CONTINUOUS
10
0.762126
20
0.88
11
0.762725
21
0.883013
0
LINE
8
BLACK
6
CONTINUOUS
10
0.762725
20
0.883013
11
0.764432
21
0.885568
0
LINE
8
BLACK
6
CONTINUOUS
10
0.764432
20
0.885568
11
0.766987
21
0.887275
0
LINE
8
BLACK
6
CONTINUOUS
10
0.766987
20
0.887275
11
0.77
21
0.887874
0
LINE
8
BLACK
6
CONTINUOUS
10
0.77
20
0.887874
11
0.83
21
0.887874
0
LINE
8
BLACK
6
CONTINUOUS
10
0.83
20
0.887874
11
0.833013
21
0.887275
0
LINE
8
BLACK
6
CONTINUOUS
10
0.933013
20
0.887275
11
0.935568
21
0.885568
0
LINE
8
BLACK
6
CONTINUOUS
10
0.935568
20
0.885568
11
0.937275
21
0.883013
0
LINE
8
BLACK
6
CONTINUOUS
10
0.937275
20
0.883013
11
0.937874
21
0.88
0
LINE
8
BLACK
6
CONTINUOUS
10
0.937874
20
0.88
11
0.937874
21
0.82
0
LINE
8
BLACK
6
CONTINUOUS
10
0.937874
20
0.82
11
0.937275
21
0.816987
0
LINE
8
BLACK
6
CONTINUOUS
10
0.937275
20
0.816987
11
0.935568
21
0.814432
0
LINE
8
BLACK
6
CONTINUOUS
10
0.935568
20
0.814432
11
0.933013
21
0.812725
0
LINE
8
BLACK
6
CONTINUOUS
10
0.933013
20
0.812725
11
0.93
21
0.812126
0
LINE
8
BLACK
6
CONTINUOUS
10
0.93
20
0.812126
11
0.87
21
0.812126
0
LINE
8
BLACK
6
CONTINUOUS
10
0.87
20
0.812126
11
0.866987
21
0.812725
0
LINE
8
BLACK
6
CONTINUOUS
10
0.866987
20
0.812725
11
0.864432
21
0.814432
0
LINE
8
BLACK
6
CONTINUOUS
10
0.864432
20
0.814432
11
0.862725
21
0.816987
0
LINE
8
BLACK
6
CONTINUOUS
10
0.862725
20
0.816987
11
0.862126
21
0.82
0
LINE
8
BLACK
6
CONTINUOUS
10
0.862126
20
0.82
11
0.862126
21
0.88
0
LINE
8
BLACK
6
CONTINUOUS
10
0.862126
20
0.88
11
0.862725
21
0.883013
0
LINE
8
BLACK
6
CONTINUOUS
10
0.862725
20
0.883013
11
0.864432
21
0.885568
0
LINE
8
BLACK
6
CONTINUOUS
10
0.864432
20
0.885568
11
0.866987
21
0.887275
0
LINE
8
BLACK
6
CONTINUOUS
10
0.866987
20
0.887275
11
0.87
21
0.887874
0
LINE
8
BLACK
6
CONTINUOUS
10
0.87
20
0.887874
11
0.93
21
0.887874
0
LINE
8
BLACK
6
CONTINUOUS
10
0.93
20
0.887874
11
0.933013
21
0.887275
0
LINE
8
BLACK
6
CONTINUOUS
10
1.03301
20
0.887275
11
1.03557
21
0.885568
0
LINE
8
BLACK
6
CONTINUOUS
10
1.03557
20
0.885568
11
1.03727
21
0.883013
0
LINE
8
BLACK
6
CONTINUOUS
10
1.03727
20
0.883013
11
1.03787
21
0.88
0
LINE
8
BLACK
6
CONTINUOUS
10
1.03787
20
0.88
11
1.03787
21
0.82
0
LINE
8
BLACK
6
CONTINUOUS
10
1.03787
20
0.82
11
1.03727
21
0.816987
0
LINE
8
BLACK
6
CONTINUOUS
10
1.03727
20
0.816987
11
1.03557
21
0.814432
0
LINE
8
BLACK
6
CONTINUOUS
10
1.03557
20
0.814432
11
1.03301
21
0.812725
0
LINE
8
BLACK
6
CONTINUOUS
10
1.03301
20
0.812725
11
1.03
21
0.812126
0
LINE
8
BLACK
6
CONTINUOUS
10
1.03
20
0.812126
11
0.97
21
0.812126
0
LINE
8
BLACK
6
CONTINUOUS
10
0.97
20
0.812126
11
0.966987
21
0.812725
0
LINE
8
BLACK
6
CONTINUOUS
10
0.966987
20
0.812725
11
0.964432
21
0.814432
0
LINE
8
BLACK
6
CONTINUOUS
10
0.964432
20
0.814432
11
0.962725
21
0.816987
0
LINE
8
BLACK
6
CONTINUOUS
10
0.962725
20
0.816987
11
0.962126
21
0.82
0
LINE
8
BLACK
6
CONTINUOUS
10
0.962126
20
0.82
11
0.962126
21
0.88
0
LINE
8
BLACK
6
CONTINUOUS
10
0.962126
20
0.88
11
0.962725
21
0.883013
0
LINE
8
BLACK
6
CONTINUOUS
10
0.962725
20
0.883013
11
0.964432
21
0.885568
0
LINE
8
BLACK
6
CONTINUOUS
10
0.964432
20
0.885568
11
0.966987
21
0.887275
0
LINE
8
BLACK
6
CONTINUOUS
10
0.966987
20
0.887275
11
0.97
21
0.887874
0
LINE
8
BLACK
6
CONTINUOUS
10
0.97
20
0.887874
11
1.03
21
0.887874
0
LINE
8
BLACK
6
CONTINUOUS
10
1.03
20
0.887874
11
1.03301
21
0.887275
0
LINE
8
BLACK
6
CONTINUOUS
10
0.220513
20
0.959775
11
0.223068
21
0.958068
0
LINE
8
BLACK
6
CONTINUOUS
10
0.223068
20
0.958068
11
0.224775
21
0.955513
0
LINE
8
BLACK
6
CONTINUOUS
10
0.224775
20
0.955513
11
0.225374
21
0.9525
0
LINE
8
BLACK
6
CONTINUOUS
10
0.225374
20
0.9525
11
0.225374
21
0.8975
0
LINE
8
BLACK
6
CONTINUOUS
10
0.225374
20
0.8975
11
0.224775
21
0.894487
0
LINE
8
BLACK
6
CONTINUOUS
10
0.224775
20
0.894487
11
0.223068
21
0.891932
0
LINE
8
BLACK
6
CONTINUOUS
10
0.223068
20
0.891932
11
0.220513
21
0.890225
0
LINE
8
BLACK
6
CONTINUOUS
10
0.220513
20
0.890225
11
0.2175
21
0.889626
0
LINE
8
BLACK
6
CONTINUOUS
10
0.2175
20
0.889626
11
0.1825
21
0.889626
0
LINE
8
BLACK
6
CONTINUOUS
10
0.1825
20
0.889626
11
0.179487
21
0.890225
0
LINE
8
BLACK
6
CONTINUOUS
10
0.179487
20
0.890225
11
0.176932
21
0.891932
0
LINE
8
BLACK
6
CONTINUOUS
10
0.176932
20
0.891932
11
0.175225
21
0.894487
0
LINE
8
BLACK
6
CONTINUOUS
10
0.175225
20
0.894487
11
0.174626
21
0.8975
0
LINE
8
BLACK
6
CONTINUOUS
10
0.174626
20
0.8975
11
0.174626
21
0.9525
0
LINE
8
BLACK
6
CONTINUOUS
10
0.174626
20
0.9525
11
0.175225
21
0.955513
0
LINE
8
BLACK
6
CONTINUOUS
10
0.175225
20
0.955513
11
0.176932
21
0.958068
0
LINE
8
BLACK
6
CONTINUOUS
10
0.176932
20
0.958068
11
0.179487
21
0.959775
0
LINE
8
BLACK
6
CONTINUOUS
10
0.179487
20
0.959775
11
0.1825
21
0.960374
0
LINE
8
BLACK
6
CONTINUOUS
10
0.1825
20
0.960374
11
0.2175
21
0.960374
0
LINE
8
BLACK
6
CONTINUOUS
10
0.2175
20
0.960374
11
0.220513
21
0.959775
0
LINE
8
BLACK
6
CONTINUOUS
10
0.295513
20
0.959775
11
0.298068
21
0.958068
0
LINE
8
BLACK
6
CONTINUOUS
10
0.298068
20
0.958068
11
0.299775
21
0.955513
0
LINE
8
BLACK
6
CONTINUOUS
10
0.299775
20
0.955513
11
0.300374
21
0.9525
0
LINE
8
BLACK
6
CONTINUOUS
10
0.300374
20
0.9525
11
0.300374
21
0.8975
0
LINE
8
BLACK
6
CONTINUOUS
10
0.300374
20
0.8975
11
0.299775
21
0.894487
0
LINE
8
BLACK
6
CONTINUOUS
10
0.299775
20
0.894487
11
0.298068
21
0.891932
0
LINE
8
BLACK
6
CONTINUOUS
10
0.298068
20
0.891932
11
0.295513
21
0.890225
0
LINE
8
BLACK
6
CONTINUOUS
10
0.295513
20
0.890225
11
0.2925
21
0.889626
0
LINE
8
BLACK
6
CONTINUOUS
10
0.2925
20
0.889626
11
0.2575
21
0.889626
0
LINE
8
BLACK
6
CONTINUOUS
10
0.2575
20
0.889626
11
0.254487
21
0.890225
0
LINE
8
BLACK
6
CONTINUOUS
10
0.254487
20
0.890225
11
0.251932
21
0.891932
0
LINE
8
BLACK
6
CONTINUOUS
10
0.251932
20
0.891932
11
0.250225
21
0.894487
0
LINE
8
BLACK
6
CONTINUOUS
10
0.250225
20
0.894487
11
0.249626
21
0.8975
0
LINE
8
BLACK
6
CONTINUOUS
10
0.249626
20
0.8975
11
0.249626
21
0.9525
0
LINE
8
BLACK
6
CONTINUOUS
10
0.249626
20
0.9525
11
0.250225
21
0.955513
0
LINE
8
BLACK
6
CONTINUOUS
10
0.250225
20
0.955513
11
0.251932
21
0.958068
0
LINE
8
BLACK
6
CONTINUOUS
10
0.251932
20
0.958068
11
0.254487
21
0.959775
0
LINE
8
BLACK
6
CONTINUOUS
10
0.254487
20
0.959775
11
0.2575
21
0.960374
0
LINE
8
BLACK
6
CONTINUOUS
10
0.2575
20
0.960374
11
0.2925
21
0.960374
0
LINE
8
BLACK
6
CONTINUOUS
10
0.2925
20
0.960374
11
0.295513
21
0.959775
  0
ENDSEC
  0
EOF
