  0
SECTION
  2
HEADER
  9
$ANGBASE
  50
0.0
  9
$ANGDIR
  70
1
  9
$MEASUREMENT
  70
0
  0
ENDSEC
  0
SECTION
  2
TABLES
  0
TABLE
  2
LTYPE
  70
4
  0
LTYPE
  5
40F
  2
CONTINUOUS
  70
0
  3
Solid line
  72
65
  73
0
  40
0.0
  0
LTYPE
  5
410
  2
DASHDOT
 70
0
  3
Dash Dot ____ _ ____ _
 72
65
 73
4
 40
2.0
 49
1.25
 49
-0.25
 49
0.25
 49
-0.25
  0
LTYPE
  5
411
  2
DASHED
 70
0
  3
Dashed __ __ __ __ __
 72
65
 73
2
 40
0.75
 49
0.5
 49
-0.25
  0
LTYPE
  5
43B
  2
DOTTED
 70
0
  3
Dotted .  .  .  .
 72
65
 73
2
 40
0.2
 49
0.0
 49
-0.2
  0
ENDTAB
  0
TABLE
  2
STYLE
  70
4
  0
STYLE
  2
KICAD
  70
0
  40
0
  41
1
  42
1
  50
0
  71
0
  3
isocp.shx
  0
STYLE
  2
KICADB
  70
0
  40
0
  41
1
  42
1
  50
0
  71
0
  3
isocp.shx
  0
STYLE
  2
KICADI
  70
0
  40
0
  41
1
  42
1
  50
15
  71
0
  3
isocp.shx
  0
STYLE
  2
KICADBI
  70
0
  40
0
  41
1
  42
1
  50
15
  71
0
  3
isocp.shx
  0
ENDTAB
  0
TABLE
  2
LAYER
  70
1
  0
LAYER
  2
BLACK
  70
0
  62
7
  6
CONTINUOUS
  0
ENDTAB
  0
ENDSEC
  0
SECTION
  2
ENTITIES
0
LINE
8
BLACK
6
CONTINUOUS
10
0.0086502
20
0.117793
11
0.0221317
21
0.116018
0
LINE
8
BLACK
6
CONTINUOUS
10
0.0221317
20
0.116018
11
0.0353198
21
0.112706
0
LINE
8
BLACK
6
CONTINUOUS
10
0.0353198
20
0.112706
11
0.0480398
21
0.107899
0
LINE
8
BLACK
6
CONTINUOUS
10
0.0480398
20
0.107899
11
0.060123
21
0.101662
0
LINE
8
BLACK
6
CONTINUOUS
10
0.060123
20
0.101662
11
0.0714093
21
0.0940783
0
LINE
8
BLACK
6
CONTINUOUS
10
0.0714093
20
0.0940783
11
0.0817492
21
0.0852473
0
LINE
8
BLACK
6
CONTINUOUS
10
0.0817492
20
0.0852473
11
0.0910055
21
0.0752863
0
LINE
8
BLACK
6
CONTINUOUS
10
0.0910055
20
0.0752863
11
0.0990556
21
0.0643274
0
LINE
8
BLACK
6
CONTINUOUS
10
0.0990556
20
0.0643274
11
0.105793
21
0.052516
0
LINE
8
BLACK
6
CONTINUOUS
10
0.105793
20
0.052516
11
0.111128
21
0.0400084
0
LINE
8
BLACK
6
CONTINUOUS
10
0.111128
20
0.0400084
11
0.11499
21
0.0269706
0
LINE
8
BLACK
6
CONTINUOUS
10
0.11499
20
0.0269706
11
0.117327
21
0.0135752
0
LINE
8
BLACK
6
CONTINUOUS
10
0.117327
20
0.0135752
11
0.11811
21
0
0
LINE
8
BLACK
6
CONTINUOUS
10
0.11811
20
0
11
0.117877
21
-0.00741622
0
LINE
8
BLACK
6
CONTINUOUS
10
0.117877
20
-0.00741622
11
0.116244
21
-0.0209155
0
LINE
8
BLACK
6
CONTINUOUS
10
0.116244
20
-0.0209155
11
0.113069
21
-0.0341376
0
LINE
8
BLACK
6
CONTINUOUS
10
0.113069
20
-0.0341376
11
0.108396
21
-0.0469072
0
LINE
8
BLACK
6
CONTINUOUS
10
0.108396
20
-0.0469072
11
0.102286
21
-0.0590551
0
LINE
8
BLACK
6
CONTINUOUS
10
0.102286
20
-0.0590551
11
0.0948209
21
-0.0704203
0
LINE
8
BLACK
6
CONTINUOUS
10
0.0948209
20
-0.0704203
11
0.0860987
21
-0.080852
0
LINE
8
BLACK
6
CONTINUOUS
10
0.0860987
20
-0.080852
11
0.0762352
21
-0.0902121
0
LINE
8
BLACK
6
CONTINUOUS
10
0.0762352
20
-0.0902121
11
0.0653612
21
-0.0983765
0
LINE
8
BLACK
6
CONTINUOUS
10
0.0653612
20
-0.0983765
11
0.0536209
21
-0.105237
0
LINE
8
BLACK
6
CONTINUOUS
10
0.0536209
20
-0.105237
11
0.0411699
21
-0.110703
0
LINE
8
BLACK
6
CONTINUOUS
10
0.0411699
20
-0.110703
11
0.0281732
21
-0.114701
0
LINE
8
BLACK
6
CONTINUOUS
10
0.0281732
20
-0.114701
11
0.0148031
21
-0.117179
0
LINE
8
BLACK
6
CONTINUOUS
10
0.0148031
20
-0.117179
11
0.00123681
21
-0.118104
0
LINE
8
BLACK
6
CONTINUOUS
10
0.00123681
20
-0.118104
11
-0.0123459
21
-0.117463
0
LINE
8
BLACK
6
CONTINUOUS
10
-0.0123459
20
-0.117463
11
-0.025765
21
-0.115266
0
LINE
8
BLACK
6
CONTINUOUS
10
-0.025765
20
-0.115266
11
-0.0388425
21
-0.111541
0
LINE
8
BLACK
6
CONTINUOUS
10
-0.0388425
20
-0.111541
11
-0.0514052
21
-0.106337
0
LINE
8
BLACK
6
CONTINUOUS
10
-0.0514052
20
-0.106337
11
-0.0632866
21
-0.0997238
0
LINE
8
BLACK
6
CONTINUOUS
10
-0.0632866
20
-0.0997238
11
-0.0743292
21
-0.0917889
0
LINE
8
BLACK
6
CONTINUOUS
10
-0.0743292
20
-0.0917889
11
-0.0843865
21
-0.0826374
0
LINE
8
BLACK
6
CONTINUOUS
10
-0.0843865
20
-0.0826374
11
-0.0933254
21
-0.0723906
0
LINE
8
BLACK
6
CONTINUOUS
10
-0.0933254
20
-0.0723906
11
-0.101027
21
-0.0611843
0
LINE
8
BLACK
6
CONTINUOUS
10
-0.101027
20
-0.0611843
11
-0.10739
21
-0.049167
0
LINE
8
BLACK
6
CONTINUOUS
10
-0.10739
20
-0.049167
11
-0.11233
21
-0.0364981
0
LINE
8
BLACK
6
CONTINUOUS
10
-0.11233
20
-0.0364981
11
-0.11578
21
-0.0233454
0
LINE
8
BLACK
6
CONTINUOUS
10
-0.11578
20
-0.0233454
11
-0.117696
21
-0.00988323
0
LINE
8
BLACK
6
CONTINUOUS
10
-0.117696
20
-0.00988323
11
-0.118052
21
0.00370992
0
LINE
8
BLACK
6
CONTINUOUS
10
-0.118052
20
0.00370992
11
-0.116843
21
0.0172539
0
LINE
8
BLACK
6
CONTINUOUS
10
-0.116843
20
0.0172539
11
-0.114086
21
0.0305692
0
LINE
8
BLACK
6
CONTINUOUS
10
-0.114086
20
0.0305692
11
-0.109816
21
0.0434793
0
LINE
8
BLACK
6
CONTINUOUS
10
-0.109816
20
0.0434793
11
-0.104091
21
0.0558131
0
LINE
8
BLACK
6
CONTINUOUS
10
-0.104091
20
0.0558131
11
-0.0969861
21
0.0674071
0
LINE
8
BLACK
6
CONTINUOUS
10
-0.0969861
20
0.0674071
11
-0.0885958
21
0.0781077
0
LINE
8
BLACK
6
CONTINUOUS
10
-0.0885958
20
0.0781077
11
-0.0790312
21
0.087773
0
LINE
8
BLACK
6
CONTINUOUS
10
-0.0790312
20
0.087773
11
-0.0684191
21
0.0962749
0
LINE
8
BLACK
6
CONTINUOUS
10
-0.0684191
20
0.0962749
11
-0.0569
21
0.103501
0
LINE
8
BLACK
6
CONTINUOUS
10
-0.0569
20
0.103501
11
-0.0446269
21
0.109355
0
LINE
8
BLACK
6
CONTINUOUS
10
-0.0446269
20
0.109355
11
-0.0317622
21
0.113759
0
LINE
8
BLACK
6
CONTINUOUS
10
-0.0317622
20
0.113759
11
-0.0184765
21
0.116656
0
LINE
8
BLACK
6
CONTINUOUS
10
-0.0184765
20
0.116656
11
-0.00494594
21
0.118007
0
LINE
8
BLACK
6
CONTINUOUS
10
-0.00494594
20
0.118007
11
0.0086502
21
0.117793
0
LINE
8
BLACK
6
CONTINUOUS
10
1.20865
20
0.117793
11
1.22213
21
0.116018
0
LINE
8
BLACK
6
CONTINUOUS
10
1.22213
20
0.116018
11
1.23532
21
0.112706
0
LINE
8
BLACK
6
CONTINUOUS
10
1.23532
20
0.112706
11
1.24804
21
0.107899
0
LINE
8
BLACK
6
CONTINUOUS
10
1.24804
20
0.107899
11
1.26012
21
0.101662
0
LINE
8
BLACK
6
CONTINUOUS
10
1.26012
20
0.101662
11
1.27141
21
0.0940783
0
LINE
8
BLACK
6
CONTINUOUS
10
1.27141
20
0.0940783
11
1.28175
21
0.0852473
0
LINE
8
BLACK
6
CONTINUOUS
10
1.28175
20
0.0852473
11
1.29101
21
0.0752863
0
LINE
8
BLACK
6
CONTINUOUS
10
1.29101
20
0.0752863
11
1.29906
21
0.0643274
0
LINE
8
BLACK
6
CONTINUOUS
10
1.29906
20
0.0643274
11
1.30579
21
0.052516
0
LINE
8
BLACK
6
CONTINUOUS
10
1.30579
20
0.052516
11
1.31113
21
0.0400084
0
LINE
8
BLACK
6
CONTINUOUS
10
1.31113
20
0.0400084
11
1.31499
21
0.0269706
0
LINE
8
BLACK
6
CONTINUOUS
10
1.31499
20
0.0269706
11
1.31733
21
0.0135752
0
LINE
8
BLACK
6
CONTINUOUS
10
1.31733
20
0.0135752
11
1.31811
21
0
0
LINE
8
BLACK
6
CONTINUOUS
10
1.31811
20
0
11
1.31788
21
-0.00741622
0
LINE
8
BLACK
6
CONTINUOUS
10
1.31788
20
-0.00741622
11
1.31624
21
-0.0209155
0
LINE
8
BLACK
6
CONTINUOUS
10
1.31624
20
-0.0209155
11
1.31307
21
-0.0341376
0
LINE
8
BLACK
6
CONTINUOUS
10
1.31307
20
-0.0341376
11
1.3084
21
-0.0469072
0
LINE
8
BLACK
6
CONTINUOUS
10
1.3084
20
-0.0469072
11
1.30229
21
-0.0590551
0
LINE
8
BLACK
6
CONTINUOUS
10
1.30229
20
-0.0590551
11
1.29482
21
-0.0704203
0
LINE
8
BLACK
6
CONTINUOUS
10
1.29482
20
-0.0704203
11
1.2861
21
-0.080852
0
LINE
8
BLACK
6
CONTINUOUS
10
1.2861
20
-0.080852
11
1.27624
21
-0.0902121
0
LINE
8
BLACK
6
CONTINUOUS
10
1.27624
20
-0.0902121
11
1.26536
21
-0.0983765
0
LINE
8
BLACK
6
CONTINUOUS
10
1.26536
20
-0.0983765
11
1.25362
21
-0.105237
0
LINE
8
BLACK
6
CONTINUOUS
10
1.25362
20
-0.105237
11
1.24117
21
-0.110703
0
LINE
8
BLACK
6
CONTINUOUS
10
1.24117
20
-0.110703
11
1.22817
21
-0.114701
0
LINE
8
BLACK
6
CONTINUOUS
10
1.22817
20
-0.114701
11
1.2148
21
-0.117179
0
LINE
8
BLACK
6
CONTINUOUS
10
1.2148
20
-0.117179
11
1.20124
21
-0.118104
0
LINE
8
BLACK
6
CONTINUOUS
10
1.20124
20
-0.118104
11
1.18765
21
-0.117463
0
LINE
8
BLACK
6
CONTINUOUS
10
1.18765
20
-0.117463
11
1.17424
21
-0.115266
0
LINE
8
BLACK
6
CONTINUOUS
10
1.17424
20
-0.115266
11
1.16116
21
-0.111541
0
LINE
8
BLACK
6
CONTINUOUS
10
1.16116
20
-0.111541
11
1.14859
21
-0.106337
0
LINE
8
BLACK
6
CONTINUOUS
10
1.14859
20
-0.106337
11
1.13671
21
-0.0997238
0
LINE
8
BLACK
6
CONTINUOUS
10
1.13671
20
-0.0997238
11
1.12567
21
-0.0917889
0
LINE
8
BLACK
6
CONTINUOUS
10
1.12567
20
-0.0917889
11
1.11561
21
-0.0826374
0
LINE
8
BLACK
6
CONTINUOUS
10
1.11561
20
-0.0826374
11
1.10667
21
-0.0723906
0
LINE
8
BLACK
6
CONTINUOUS
10
1.10667
20
-0.0723906
11
1.09897
21
-0.0611843
0
LINE
8
BLACK
6
CONTINUOUS
10
1.09897
20
-0.0611843
11
1.09261
21
-0.049167
0
LINE
8
BLACK
6
CONTINUOUS
10
1.09261
20
-0.049167
11
1.08767
21
-0.0364981
0
LINE
8
BLACK
6
CONTINUOUS
10
1.08767
20
-0.0364981
11
1.08422
21
-0.0233454
0
LINE
8
BLACK
6
CONTINUOUS
10
1.08422
20
-0.0233454
11
1.0823
21
-0.00988323
0
LINE
8
BLACK
6
CONTINUOUS
10
1.0823
20
-0.00988323
11
1.08195
21
0.00370992
0
LINE
8
BLACK
6
CONTINUOUS
10
1.08195
20
0.00370992
11
1.08316
21
0.0172539
0
LINE
8
BLACK
6
CONTINUOUS
10
1.08316
20
0.0172539
11
1.08591
21
0.0305692
0
LINE
8
BLACK
6
CONTINUOUS
10
1.08591
20
0.0305692
11
1.09018
21
0.0434793
0
LINE
8
BLACK
6
CONTINUOUS
10
1.09018
20
0.0434793
11
1.09591
21
0.0558131
0
LINE
8
BLACK
6
CONTINUOUS
10
1.09591
20
0.0558131
11
1.10301
21
0.0674071
0
LINE
8
BLACK
6
CONTINUOUS
10
1.10301
20
0.0674071
11
1.1114
21
0.0781077
0
LINE
8
BLACK
6
CONTINUOUS
10
1.1114
20
0.0781077
11
1.12097
21
0.087773
0
LINE
8
BLACK
6
CONTINUOUS
10
1.12097
20
0.087773
11
1.13158
21
0.0962749
0
LINE
8
BLACK
6
CONTINUOUS
10
1.13158
20
0.0962749
11
1.1431
21
0.103501
0
LINE
8
BLACK
6
CONTINUOUS
10
1.1431
20
0.103501
11
1.15537
21
0.109355
0
LINE
8
BLACK
6
CONTINUOUS
10
1.15537
20
0.109355
11
1.16824
21
0.113759
0
LINE
8
BLACK
6
CONTINUOUS
10
1.16824
20
0.113759
11
1.18152
21
0.116656
0
LINE
8
BLACK
6
CONTINUOUS
10
1.18152
20
0.116656
11
1.19505
21
0.118007
0
LINE
8
BLACK
6
CONTINUOUS
10
1.19505
20
0.118007
11
1.20865
21
0.117793
0
LINE
8
BLACK
6
CONTINUOUS
10
1.20865
20
0.917793
11
1.22213
21
0.916018
0
LINE
8
BLACK
6
CONTINUOUS
10
1.22213
20
0.916018
11
1.23532
21
0.912706
0
LINE
8
BLACK
6
CONTINUOUS
10
1.23532
20
0.912706
11
1.24804
21
0.907899
0
LINE
8
BLACK
6
CONTINUOUS
10
1.24804
20
0.907899
11
1.26012
21
0.901662
0
LINE
8
BLACK
6
CONTINUOUS
10
1.26012
20
0.901662
11
1.27141
21
0.894078
0
LINE
8
BLACK
6
CONTINUOUS
10
1.27141
20
0.894078
11
1.28175
21
0.885247
0
LINE
8
BLACK
6
CONTINUOUS
10
1.28175
20
0.885247
11
1.29101
21
0.875286
0
LINE
8
BLACK
6
CONTINUOUS
10
1.29101
20
0.875286
11
1.29906
21
0.864327
0
LINE
8
BLACK
6
CONTINUOUS
10
1.29906
20
0.864327
11
1.30579
21
0.852516
0
LINE
8
BLACK
6
CONTINUOUS
10
1.30579
20
0.852516
11
1.31113
21
0.840008
0
LINE
8
BLACK
6
CONTINUOUS
10
1.31113
20
0.840008
11
1.31499
21
0.826971
0
LINE
8
BLACK
6
CONTINUOUS
10
1.31499
20
0.826971
11
1.31733
21
0.813575
0
LINE
8
BLACK
6
CONTINUOUS
10
1.31733
20
0.813575
11
1.31811
21
0.8
0
LINE
8
BLACK
6
CONTINUOUS
10
1.31811
20
0.8
11
1.31788
21
0.792584
0
LINE
8
BLACK
6
CONTINUOUS
10
1.31788
20
0.792584
11
1.31624
21
0.779084
0
LINE
8
BLACK
6
CONTINUOUS
10
1.31624
20
0.779084
11
1.31307
21
0.765862
0
LINE
8
BLACK
6
CONTINUOUS
10
1.31307
20
0.765862
11
1.3084
21
0.753093
0
LINE
8
BLACK
6
CONTINUOUS
10
1.3084
20
0.753093
11
1.30229
21
0.740945
0
LINE
8
BLACK
6
CONTINUOUS
10
1.30229
20
0.740945
11
1.29482
21
0.72958
0
LINE
8
BLACK
6
CONTINUOUS
10
1.29482
20
0.72958
11
1.2861
21
0.719148
0
LINE
8
BLACK
6
CONTINUOUS
10
1.2861
20
0.719148
11
1.27624
21
0.709788
0
LINE
8
BLACK
6
CONTINUOUS
10
1.27624
20
0.709788
11
1.26536
21
0.701623
0
LINE
8
BLACK
6
CONTINUOUS
10
1.26536
20
0.701623
11
1.25362
21
0.694763
0
LINE
8
BLACK
6
CONTINUOUS
10
1.25362
20
0.694763
11
1.24117
21
0.689297
0
LINE
8
BLACK
6
CONTINUOUS
10
1.24117
20
0.689297
11
1.22817
21
0.685299
0
LINE
8
BLACK
6
CONTINUOUS
10
1.22817
20
0.685299
11
1.2148
21
0.682821
0
LINE
8
BLACK
6
CONTINUOUS
10
1.2148
20
0.682821
11
1.20124
21
0.681896
0
LINE
8
BLACK
6
CONTINUOUS
10
1.20124
20
0.681896
11
1.18765
21
0.682537
0
LINE
8
BLACK
6
CONTINUOUS
10
1.18765
20
0.682537
11
1.17424
21
0.684734
0
LINE
8
BLACK
6
CONTINUOUS
10
1.17424
20
0.684734
11
1.16116
21
0.688459
0
LINE
8
BLACK
6
CONTINUOUS
10
1.16116
20
0.688459
11
1.14859
21
0.693663
0
LINE
8
BLACK
6
CONTINUOUS
10
1.14859
20
0.693663
11
1.13671
21
0.700276
0
LINE
8
BLACK
6
CONTINUOUS
10
1.13671
20
0.700276
11
1.12567
21
0.708211
0
LINE
8
BLACK
6
CONTINUOUS
10
1.12567
20
0.708211
11
1.11561
21
0.717363
0
LINE
8
BLACK
6
CONTINUOUS
10
1.11561
20
0.717363
11
1.10667
21
0.727609
0
LINE
8
BLACK
6
CONTINUOUS
10
1.10667
20
0.727609
11
1.09897
21
0.738816
0
LINE
8
BLACK
6
CONTINUOUS
10
1.09897
20
0.738816
11
1.09261
21
0.750833
0
LINE
8
BLACK
6
CONTINUOUS
10
1.09261
20
0.750833
11
1.08767
21
0.763502
0
LINE
8
BLACK
6
CONTINUOUS
10
1.08767
20
0.763502
11
1.08422
21
0.776655
0
LINE
8
BLACK
6
CONTINUOUS
10
1.08422
20
0.776655
11
1.0823
21
0.790117
0
LINE
8
BLACK
6
CONTINUOUS
10
1.0823
20
0.790117
11
1.08195
21
0.80371
0
LINE
8
BLACK
6
CONTINUOUS
10
1.08195
20
0.80371
11
1.08316
21
0.817254
0
LINE
8
BLACK
6
CONTINUOUS
10
1.08316
20
0.817254
11
1.08591
21
0.830569
0
LINE
8
BLACK
6
CONTINUOUS
10
1.08591
20
0.830569
11
1.09018
21
0.843479
0
LINE
8
BLACK
6
CONTINUOUS
10
1.09018
20
0.843479
11
1.09591
21
0.855813
0
LINE
8
BLACK
6
CONTINUOUS
10
1.09591
20
0.855813
11
1.10301
21
0.867407
0
LINE
8
BLACK
6
CONTINUOUS
10
1.10301
20
0.867407
11
1.1114
21
0.878108
0
LINE
8
BLACK
6
CONTINUOUS
10
1.1114
20
0.878108
11
1.12097
21
0.887773
0
LINE
8
BLACK
6
CONTINUOUS
10
1.12097
20
0.887773
11
1.13158
21
0.896275
0
LINE
8
BLACK
6
CONTINUOUS
10
1.13158
20
0.896275
11
1.1431
21
0.903501
0
LINE
8
BLACK
6
CONTINUOUS
10
1.1431
20
0.903501
11
1.15537
21
0.909355
0
LINE
8
BLACK
6
CONTINUOUS
10
1.15537
20
0.909355
11
1.16824
21
0.913759
0
LINE
8
BLACK
6
CONTINUOUS
10
1.16824
20
0.913759
11
1.18152
21
0.916656
0
LINE
8
BLACK
6
CONTINUOUS
10
1.18152
20
0.916656
11
1.19505
21
0.918007
0
LINE
8
BLACK
6
CONTINUOUS
10
1.19505
20
0.918007
11
1.20865
21
0.917793
0
LINE
8
BLACK
6
CONTINUOUS
10
0.0086502
20
0.917793
11
0.0221317
21
0.916018
0
LINE
8
BLACK
6
CONTINUOUS
10
0.0221317
20
0.916018
11
0.0353198
21
0.912706
0
LINE
8
BLACK
6
CONTINUOUS
10
0.0353198
20
0.912706
11
0.0480398
21
0.907899
0
LINE
8
BLACK
6
CONTINUOUS
10
0.0480398
20
0.907899
11
0.060123
21
0.901662
0
LINE
8
BLACK
6
CONTINUOUS
10
0.060123
20
0.901662
11
0.0714093
21
0.894078
0
LINE
8
BLACK
6
CONTINUOUS
10
0.0714093
20
0.894078
11
0.0817492
21
0.885247
0
LINE
8
BLACK
6
CONTINUOUS
10
0.0817492
20
0.885247
11
0.0910055
21
0.875286
0
LINE
8
BLACK
6
CONTINUOUS
10
0.0910055
20
0.875286
11
0.0990556
21
0.864327
0
LINE
8
BLACK
6
CONTINUOUS
10
0.0990556
20
0.864327
11
0.105793
21
0.852516
0
LINE
8
BLACK
6
CONTINUOUS
10
0.105793
20
0.852516
11
0.111128
21
0.840008
0
LINE
8
BLACK
6
CONTINUOUS
10
0.111128
20
0.840008
11
0.11499
21
0.826971
0
LINE
8
BLACK
6
CONTINUOUS
10
0.11499
20
0.826971
11
0.117327
21
0.813575
0
LINE
8
BLACK
6
CONTINUOUS
10
0.117327
20
0.813575
11
0.11811
21
0.8
0
LINE
8
BLACK
6
CONTINUOUS
10
0.11811
20
0.8
11
0.117877
21
0.792584
0
LINE
8
BLACK
6
CONTINUOUS
10
0.117877
20
0.792584
11
0.116244
21
0.779084
0
LINE
8
BLACK
6
CONTINUOUS
10
0.116244
20
0.779084
11
0.113069
21
0.765862
0
LINE
8
BLACK
6
CONTINUOUS
10
0.113069
20
0.765862
11
0.108396
21
0.753093
0
LINE
8
BLACK
6
CONTINUOUS
10
0.108396
20
0.753093
11
0.102286
21
0.740945
0
LINE
8
BLACK
6
CONTINUOUS
10
0.102286
20
0.740945
11
0.0948209
21
0.72958
0
LINE
8
BLACK
6
CONTINUOUS
10
0.0948209
20
0.72958
11
0.0860987
21
0.719148
0
LINE
8
BLACK
6
CONTINUOUS
10
0.0860987
20
0.719148
11
0.0762352
21
0.709788
0
LINE
8
BLACK
6
CONTINUOUS
10
0.0762352
20
0.709788
11
0.0653612
21
0.701623
0
LINE
8
BLACK
6
CONTINUOUS
10
0.0653612
20
0.701623
11
0.0536209
21
0.694763
0
LINE
8
BLACK
6
CONTINUOUS
10
0.0536209
20
0.694763
11
0.0411699
21
0.689297
0
LINE
8
BLACK
6
CONTINUOUS
10
0.0411699
20
0.689297
11
0.0281732
21
0.685299
0
LINE
8
BLACK
6
CONTINUOUS
10
0.0281732
20
0.685299
11
0.0148031
21
0.682821
0
LINE
8
BLACK
6
CONTINUOUS
10
0.0148031
20
0.682821
11
0.00123681
21
0.681896
0
LINE
8
BLACK
6
CONTINUOUS
10
0.00123681
20
0.681896
11
-0.0123459
21
0.682537
0
LINE
8
BLACK
6
CONTINUOUS
10
-0.0123459
20
0.682537
11
-0.025765
21
0.684734
0
LINE
8
BLACK
6
CONTINUOUS
10
-0.025765
20
0.684734
11
-0.0388425
21
0.688459
0
LINE
8
BLACK
6
CONTINUOUS
10
-0.0388425
20
0.688459
11
-0.0514052
21
0.693663
0
LINE
8
BLACK
6
CONTINUOUS
10
-0.0514052
20
0.693663
11
-0.0632866
21
0.700276
0
LINE
8
BLACK
6
CONTINUOUS
10
-0.0632866
20
0.700276
11
-0.0743292
21
0.708211
0
LINE
8
BLACK
6
CONTINUOUS
10
-0.0743292
20
0.708211
11
-0.0843865
21
0.717363
0
LINE
8
BLACK
6
CONTINUOUS
10
-0.0843865
20
0.717363
11
-0.0933254
21
0.727609
0
LINE
8
BLACK
6
CONTINUOUS
10
-0.0933254
20
0.727609
11
-0.101027
21
0.738816
0
LINE
8
BLACK
6
CONTINUOUS
10
-0.101027
20
0.738816
11
-0.10739
21
0.750833
0
LINE
8
BLACK
6
CONTINUOUS
10
-0.10739
20
0.750833
11
-0.11233
21
0.763502
0
LINE
8
BLACK
6
CONTINUOUS
10
-0.11233
20
0.763502
11
-0.11578
21
0.776655
0
LINE
8
BLACK
6
CONTINUOUS
10
-0.11578
20
0.776655
11
-0.117696
21
0.790117
0
LINE
8
BLACK
6
CONTINUOUS
10
-0.117696
20
0.790117
11
-0.118052
21
0.80371
0
LINE
8
BLACK
6
CONTINUOUS
10
-0.118052
20
0.80371
11
-0.116843
21
0.817254
0
LINE
8
BLACK
6
CONTINUOUS
10
-0.116843
20
0.817254
11
-0.114086
21
0.830569
0
LINE
8
BLACK
6
CONTINUOUS
10
-0.114086
20
0.830569
11
-0.109816
21
0.843479
0
LINE
8
BLACK
6
CONTINUOUS
10
-0.109816
20
0.843479
11
-0.104091
21
0.855813
0
LINE
8
BLACK
6
CONTINUOUS
10
-0.104091
20
0.855813
11
-0.0969861
21
0.867407
0
LINE
8
BLACK
6
CONTINUOUS
10
-0.0969861
20
0.867407
11
-0.0885958
21
0.878108
0
LINE
8
BLACK
6
CONTINUOUS
10
-0.0885958
20
0.878108
11
-0.0790312
21
0.887773
0
LINE
8
BLACK
6
CONTINUOUS
10
-0.0790312
20
0.887773
11
-0.0684191
21
0.896275
0
LINE
8
BLACK
6
CONTINUOUS
10
-0.0684191
20
0.896275
11
-0.0569
21
0.903501
0
LINE
8
BLACK
6
CONTINUOUS
10
-0.0569
20
0.903501
11
-0.0446269
21
0.909355
0
LINE
8
BLACK
6
CONTINUOUS
10
-0.0446269
20
0.909355
11
-0.0317622
21
0.913759
0
LINE
8
BLACK
6
CONTINUOUS
10
-0.0317622
20
0.913759
11
-0.0184765
21
0.916656
0
LINE
8
BLACK
6
CONTINUOUS
10
-0.0184765
20
0.916656
11
-0.00494594
21
0.918007
0
LINE
8
BLACK
6
CONTINUOUS
10
-0.00494594
20
0.918007
11
0.0086502
21
0.917793
  0
ENDSEC
  0
EOF
