  0
SECTION
  2
HEADER
  9
$ANGBASE
  50
0.0
  9
$ANGDIR
  70
1
  9
$MEASUREMENT
  70
0
  0
ENDSEC
  0
SECTION
  2
TABLES
  0
TABLE
  2
LTYPE
  70
4
  0
LTYPE
  5
40F
  2
CONTINUOUS
  70
0
  3
Solid line
  72
65
  73
0
  40
0.0
  0
LTYPE
  5
410
  2
DASHDOT
 70
0
  3
Dash Dot ____ _ ____ _
 72
65
 73
4
 40
2.0
 49
1.25
 49
-0.25
 49
0.25
 49
-0.25
  0
LTYPE
  5
411
  2
DASHED
 70
0
  3
Dashed __ __ __ __ __
 72
65
 73
2
 40
0.75
 49
0.5
 49
-0.25
  0
LTYPE
  5
43B
  2
DOTTED
 70
0
  3
Dotted .  .  .  .
 72
65
 73
2
 40
0.2
 49
0.0
 49
-0.2
  0
ENDTAB
  0
TABLE
  2
STYLE
  70
4
  0
STYLE
  2
KICAD
  70
0
  40
0
  41
1
  42
1
  50
0
  71
0
  3
isocp.shx
  0
STYLE
  2
KICADB
  70
0
  40
0
  41
1
  42
1
  50
0
  71
0
  3
isocp.shx
  0
STYLE
  2
KICADI
  70
0
  40
0
  41
1
  42
1
  50
15
  71
0
  3
isocp.shx
  0
STYLE
  2
KICADBI
  70
0
  40
0
  41
1
  42
1
  50
15
  71
0
  3
isocp.shx
  0
ENDTAB
  0
TABLE
  2
LAYER
  70
1
  0
LAYER
  2
BLACK
  70
0
  62
7
  6
CONTINUOUS
  0
ENDTAB
  0
ENDSEC
  0
SECTION
  2
ENTITIES
0
LINE
8
BLACK
6
CONTINUOUS
10
0.0141057
20
0.125192
11
0.0280341
21
0.122826
0
LINE
8
BLACK
6
CONTINUOUS
10
0.0280341
20
0.122826
11
0.04161
21
0.118914
0
LINE
8
BLACK
6
CONTINUOUS
10
0.04161
20
0.118914
11
0.0546625
21
0.113508
0
LINE
8
BLACK
6
CONTINUOUS
10
0.0546625
20
0.113508
11
0.0670277
21
0.106674
0
LINE
8
BLACK
6
CONTINUOUS
10
0.0670277
20
0.106674
11
0.0785499
21
0.0984985
0
LINE
8
BLACK
6
CONTINUOUS
10
0.0785499
20
0.0984985
11
0.0890843
21
0.0890843
0
LINE
8
BLACK
6
CONTINUOUS
10
0.0890843
20
0.0890843
11
0.0984985
21
0.0785499
0
LINE
8
BLACK
6
CONTINUOUS
10
0.0984985
20
0.0785499
11
0.106674
21
0.0670277
0
LINE
8
BLACK
6
CONTINUOUS
10
0.106674
20
0.0670277
11
0.113508
21
0.0546625
0
LINE
8
BLACK
6
CONTINUOUS
10
0.113508
20
0.0546625
11
0.118914
21
0.04161
0
LINE
8
BLACK
6
CONTINUOUS
10
0.118914
20
0.04161
11
0.122826
21
0.0280341
0
LINE
8
BLACK
6
CONTINUOUS
10
0.122826
20
0.0280341
11
0.125192
21
0.0141057
0
LINE
8
BLACK
6
CONTINUOUS
10
0.125192
20
0.0141057
11
0.125984
21
0
0
LINE
8
BLACK
6
CONTINUOUS
10
0.125984
20
0
11
0.125192
21
-0.0141057
0
LINE
8
BLACK
6
CONTINUOUS
10
0.125192
20
-0.0141057
11
0.122826
21
-0.0280341
0
LINE
8
BLACK
6
CONTINUOUS
10
0.122826
20
-0.0280341
11
0.118914
21
-0.04161
0
LINE
8
BLACK
6
CONTINUOUS
10
0.118914
20
-0.04161
11
0.113508
21
-0.0546625
0
LINE
8
BLACK
6
CONTINUOUS
10
0.113508
20
-0.0546625
11
0.106674
21
-0.0670277
0
LINE
8
BLACK
6
CONTINUOUS
10
0.106674
20
-0.0670277
11
0.0984985
21
-0.0785499
0
LINE
8
BLACK
6
CONTINUOUS
10
0.0984985
20
-0.0785499
11
0.0890843
21
-0.0890843
0
LINE
8
BLACK
6
CONTINUOUS
10
0.0890843
20
-0.0890843
11
0.0785499
21
-0.0984985
0
LINE
8
BLACK
6
CONTINUOUS
10
0.0785499
20
-0.0984985
11
0.0670277
21
-0.106674
0
LINE
8
BLACK
6
CONTINUOUS
10
0.0670277
20
-0.106674
11
0.0546625
21
-0.113508
0
LINE
8
BLACK
6
CONTINUOUS
10
0.0546625
20
-0.113508
11
0.04161
21
-0.118914
0
LINE
8
BLACK
6
CONTINUOUS
10
0.04161
20
-0.118914
11
0.0280341
21
-0.122826
0
LINE
8
BLACK
6
CONTINUOUS
10
0.0280341
20
-0.122826
11
0.0141057
21
-0.125192
0
LINE
8
BLACK
6
CONTINUOUS
10
0.0141057
20
-0.125192
11
0
21
-0.125984
0
LINE
8
BLACK
6
CONTINUOUS
10
0
20
-0.125984
11
-0.0141057
21
-0.125192
0
LINE
8
BLACK
6
CONTINUOUS
10
-0.0141057
20
-0.125192
11
-0.0280341
21
-0.122826
0
LINE
8
BLACK
6
CONTINUOUS
10
-0.0280341
20
-0.122826
11
-0.04161
21
-0.118914
0
LINE
8
BLACK
6
CONTINUOUS
10
-0.04161
20
-0.118914
11
-0.0546625
21
-0.113508
0
LINE
8
BLACK
6
CONTINUOUS
10
-0.0546625
20
-0.113508
11
-0.0670277
21
-0.106674
0
LINE
8
BLACK
6
CONTINUOUS
10
-0.0670277
20
-0.106674
11
-0.0785499
21
-0.0984985
0
LINE
8
BLACK
6
CONTINUOUS
10
-0.0785499
20
-0.0984985
11
-0.0890843
21
-0.0890843
0
LINE
8
BLACK
6
CONTINUOUS
10
-0.0890843
20
-0.0890843
11
-0.0984985
21
-0.0785499
0
LINE
8
BLACK
6
CONTINUOUS
10
-0.0984985
20
-0.0785499
11
-0.106674
21
-0.0670277
0
LINE
8
BLACK
6
CONTINUOUS
10
-0.106674
20
-0.0670277
11
-0.113508
21
-0.0546625
0
LINE
8
BLACK
6
CONTINUOUS
10
-0.113508
20
-0.0546625
11
-0.118914
21
-0.04161
0
LINE
8
BLACK
6
CONTINUOUS
10
-0.118914
20
-0.04161
11
-0.122826
21
-0.0280341
0
LINE
8
BLACK
6
CONTINUOUS
10
-0.122826
20
-0.0280341
11
-0.125192
21
-0.0141057
0
LINE
8
BLACK
6
CONTINUOUS
10
-0.125192
20
-0.0141057
11
-0.125984
21
0
0
LINE
8
BLACK
6
CONTINUOUS
10
-0.125984
20
0
11
-0.125192
21
0.0141057
0
LINE
8
BLACK
6
CONTINUOUS
10
-0.125192
20
0.0141057
11
-0.122826
21
0.0280341
0
LINE
8
BLACK
6
CONTINUOUS
10
-0.122826
20
0.0280341
11
-0.118914
21
0.04161
0
LINE
8
BLACK
6
CONTINUOUS
10
-0.118914
20
0.04161
11
-0.113508
21
0.0546625
0
LINE
8
BLACK
6
CONTINUOUS
10
-0.113508
20
0.0546625
11
-0.106674
21
0.0670277
0
LINE
8
BLACK
6
CONTINUOUS
10
-0.106674
20
0.0670277
11
-0.0984985
21
0.0785499
0
LINE
8
BLACK
6
CONTINUOUS
10
-0.0984985
20
0.0785499
11
-0.0890843
21
0.0890843
0
LINE
8
BLACK
6
CONTINUOUS
10
-0.0890843
20
0.0890843
11
-0.0785499
21
0.0984985
0
LINE
8
BLACK
6
CONTINUOUS
10
-0.0785499
20
0.0984985
11
-0.0670277
21
0.106674
0
LINE
8
BLACK
6
CONTINUOUS
10
-0.0670277
20
0.106674
11
-0.0546625
21
0.113508
0
LINE
8
BLACK
6
CONTINUOUS
10
-0.0546625
20
0.113508
11
-0.04161
21
0.118914
0
LINE
8
BLACK
6
CONTINUOUS
10
-0.04161
20
0.118914
11
-0.0280341
21
0.122826
0
LINE
8
BLACK
6
CONTINUOUS
10
-0.0280341
20
0.122826
11
-0.0141057
21
0.125192
0
LINE
8
BLACK
6
CONTINUOUS
10
-0.0141057
20
0.125192
11
0
21
0.125984
0
LINE
8
BLACK
6
CONTINUOUS
10
0
20
0.125984
11
0.0141057
21
0.125192
0
LINE
8
BLACK
6
CONTINUOUS
10
1.21411
20
0.125192
11
1.22803
21
0.122826
0
LINE
8
BLACK
6
CONTINUOUS
10
1.22803
20
0.122826
11
1.24161
21
0.118914
0
LINE
8
BLACK
6
CONTINUOUS
10
1.24161
20
0.118914
11
1.25466
21
0.113508
0
LINE
8
BLACK
6
CONTINUOUS
10
1.25466
20
0.113508
11
1.26703
21
0.106674
0
LINE
8
BLACK
6
CONTINUOUS
10
1.26703
20
0.106674
11
1.27855
21
0.0984985
0
LINE
8
BLACK
6
CONTINUOUS
10
1.27855
20
0.0984985
11
1.28908
21
0.0890843
0
LINE
8
BLACK
6
CONTINUOUS
10
1.28908
20
0.0890843
11
1.2985
21
0.0785499
0
LINE
8
BLACK
6
CONTINUOUS
10
1.2985
20
0.0785499
11
1.30667
21
0.0670277
0
LINE
8
BLACK
6
CONTINUOUS
10
1.30667
20
0.0670277
11
1.31351
21
0.0546625
0
LINE
8
BLACK
6
CONTINUOUS
10
1.31351
20
0.0546625
11
1.31891
21
0.04161
0
LINE
8
BLACK
6
CONTINUOUS
10
1.31891
20
0.04161
11
1.32283
21
0.0280341
0
LINE
8
BLACK
6
CONTINUOUS
10
1.32283
20
0.0280341
11
1.32519
21
0.0141057
0
LINE
8
BLACK
6
CONTINUOUS
10
1.32519
20
0.0141057
11
1.32598
21
0
0
LINE
8
BLACK
6
CONTINUOUS
10
1.32598
20
0
11
1.32519
21
-0.0141057
0
LINE
8
BLACK
6
CONTINUOUS
10
1.32519
20
-0.0141057
11
1.32283
21
-0.0280341
0
LINE
8
BLACK
6
CONTINUOUS
10
1.32283
20
-0.0280341
11
1.31891
21
-0.04161
0
LINE
8
BLACK
6
CONTINUOUS
10
1.31891
20
-0.04161
11
1.31351
21
-0.0546625
0
LINE
8
BLACK
6
CONTINUOUS
10
1.31351
20
-0.0546625
11
1.30667
21
-0.0670277
0
LINE
8
BLACK
6
CONTINUOUS
10
1.30667
20
-0.0670277
11
1.2985
21
-0.0785499
0
LINE
8
BLACK
6
CONTINUOUS
10
1.2985
20
-0.0785499
11
1.28908
21
-0.0890843
0
LINE
8
BLACK
6
CONTINUOUS
10
1.28908
20
-0.0890843
11
1.27855
21
-0.0984985
0
LINE
8
BLACK
6
CONTINUOUS
10
1.27855
20
-0.0984985
11
1.26703
21
-0.106674
0
LINE
8
BLACK
6
CONTINUOUS
10
1.26703
20
-0.106674
11
1.25466
21
-0.113508
0
LINE
8
BLACK
6
CONTINUOUS
10
1.25466
20
-0.113508
11
1.24161
21
-0.118914
0
LINE
8
BLACK
6
CONTINUOUS
10
1.24161
20
-0.118914
11
1.22803
21
-0.122826
0
LINE
8
BLACK
6
CONTINUOUS
10
1.22803
20
-0.122826
11
1.21411
21
-0.125192
0
LINE
8
BLACK
6
CONTINUOUS
10
1.21411
20
-0.125192
11
1.2
21
-0.125984
0
LINE
8
BLACK
6
CONTINUOUS
10
1.2
20
-0.125984
11
1.18589
21
-0.125192
0
LINE
8
BLACK
6
CONTINUOUS
10
1.18589
20
-0.125192
11
1.17197
21
-0.122826
0
LINE
8
BLACK
6
CONTINUOUS
10
1.17197
20
-0.122826
11
1.15839
21
-0.118914
0
LINE
8
BLACK
6
CONTINUOUS
10
1.15839
20
-0.118914
11
1.14534
21
-0.113508
0
LINE
8
BLACK
6
CONTINUOUS
10
1.14534
20
-0.113508
11
1.13297
21
-0.106674
0
LINE
8
BLACK
6
CONTINUOUS
10
1.13297
20
-0.106674
11
1.12145
21
-0.0984985
0
LINE
8
BLACK
6
CONTINUOUS
10
1.12145
20
-0.0984985
11
1.11092
21
-0.0890843
0
LINE
8
BLACK
6
CONTINUOUS
10
1.11092
20
-0.0890843
11
1.1015
21
-0.0785499
0
LINE
8
BLACK
6
CONTINUOUS
10
1.1015
20
-0.0785499
11
1.09333
21
-0.0670277
0
LINE
8
BLACK
6
CONTINUOUS
10
1.09333
20
-0.0670277
11
1.08649
21
-0.0546625
0
LINE
8
BLACK
6
CONTINUOUS
10
1.08649
20
-0.0546625
11
1.08109
21
-0.04161
0
LINE
8
BLACK
6
CONTINUOUS
10
1.08109
20
-0.04161
11
1.07717
21
-0.0280341
0
LINE
8
BLACK
6
CONTINUOUS
10
1.07717
20
-0.0280341
11
1.07481
21
-0.0141057
0
LINE
8
BLACK
6
CONTINUOUS
10
1.07481
20
-0.0141057
11
1.07402
21
0
0
LINE
8
BLACK
6
CONTINUOUS
10
1.07402
20
0
11
1.07481
21
0.0141057
0
LINE
8
BLACK
6
CONTINUOUS
10
1.07481
20
0.0141057
11
1.07717
21
0.0280341
0
LINE
8
BLACK
6
CONTINUOUS
10
1.07717
20
0.0280341
11
1.08109
21
0.04161
0
LINE
8
BLACK
6
CONTINUOUS
10
1.08109
20
0.04161
11
1.08649
21
0.0546625
0
LINE
8
BLACK
6
CONTINUOUS
10
1.08649
20
0.0546625
11
1.09333
21
0.0670277
0
LINE
8
BLACK
6
CONTINUOUS
10
1.09333
20
0.0670277
11
1.1015
21
0.0785499
0
LINE
8
BLACK
6
CONTINUOUS
10
1.1015
20
0.0785499
11
1.11092
21
0.0890843
0
LINE
8
BLACK
6
CONTINUOUS
10
1.11092
20
0.0890843
11
1.12145
21
0.0984985
0
LINE
8
BLACK
6
CONTINUOUS
10
1.12145
20
0.0984985
11
1.13297
21
0.106674
0
LINE
8
BLACK
6
CONTINUOUS
10
1.13297
20
0.106674
11
1.14534
21
0.113508
0
LINE
8
BLACK
6
CONTINUOUS
10
1.14534
20
0.113508
11
1.15839
21
0.118914
0
LINE
8
BLACK
6
CONTINUOUS
10
1.15839
20
0.118914
11
1.17197
21
0.122826
0
LINE
8
BLACK
6
CONTINUOUS
10
1.17197
20
0.122826
11
1.18589
21
0.125192
0
LINE
8
BLACK
6
CONTINUOUS
10
1.18589
20
0.125192
11
1.2
21
0.125984
0
LINE
8
BLACK
6
CONTINUOUS
10
1.2
20
0.125984
11
1.21411
21
0.125192
0
LINE
8
BLACK
6
CONTINUOUS
10
0.483013
20
-0.0127254
11
0.485568
21
-0.0144322
0
LINE
8
BLACK
6
CONTINUOUS
10
0.485568
20
-0.0144322
11
0.487275
21
-0.0169867
0
LINE
8
BLACK
6
CONTINUOUS
10
0.487275
20
-0.0169867
11
0.487874
21
-0.02
0
LINE
8
BLACK
6
CONTINUOUS
10
0.487874
20
-0.02
11
0.487874
21
-0.08
0
LINE
8
BLACK
6
CONTINUOUS
10
0.487874
20
-0.08
11
0.487275
21
-0.0830133
0
LINE
8
BLACK
6
CONTINUOUS
10
0.487275
20
-0.0830133
11
0.485568
21
-0.0855678
0
LINE
8
BLACK
6
CONTINUOUS
10
0.485568
20
-0.0855678
11
0.483013
21
-0.0872746
0
LINE
8
BLACK
6
CONTINUOUS
10
0.483013
20
-0.0872746
11
0.48
21
-0.087874
0
LINE
8
BLACK
6
CONTINUOUS
10
0.48
20
-0.087874
11
0.42
21
-0.087874
0
LINE
8
BLACK
6
CONTINUOUS
10
0.42
20
-0.087874
11
0.416987
21
-0.0872746
0
LINE
8
BLACK
6
CONTINUOUS
10
0.416987
20
-0.0872746
11
0.414432
21
-0.0855678
0
LINE
8
BLACK
6
CONTINUOUS
10
0.414432
20
-0.0855678
11
0.412725
21
-0.0830133
0
LINE
8
BLACK
6
CONTINUOUS
10
0.412725
20
-0.0830133
11
0.412126
21
-0.08
0
LINE
8
BLACK
6
CONTINUOUS
10
0.412126
20
-0.08
11
0.412126
21
-0.02
0
LINE
8
BLACK
6
CONTINUOUS
10
0.412126
20
-0.02
11
0.412725
21
-0.0169867
0
LINE
8
BLACK
6
CONTINUOUS
10
0.412725
20
-0.0169867
11
0.414432
21
-0.0144322
0
LINE
8
BLACK
6
CONTINUOUS
10
0.414432
20
-0.0144322
11
0.416987
21
-0.0127254
0
LINE
8
BLACK
6
CONTINUOUS
10
0.416987
20
-0.0127254
11
0.42
21
-0.012126
0
LINE
8
BLACK
6
CONTINUOUS
10
0.42
20
-0.012126
11
0.48
21
-0.012126
0
LINE
8
BLACK
6
CONTINUOUS
10
0.48
20
-0.012126
11
0.483013
21
-0.0127254
0
LINE
8
BLACK
6
CONTINUOUS
10
0.583013
20
-0.0127254
11
0.585568
21
-0.0144322
0
LINE
8
BLACK
6
CONTINUOUS
10
0.585568
20
-0.0144322
11
0.587275
21
-0.0169867
0
LINE
8
BLACK
6
CONTINUOUS
10
0.587275
20
-0.0169867
11
0.587874
21
-0.02
0
LINE
8
BLACK
6
CONTINUOUS
10
0.587874
20
-0.02
11
0.587874
21
-0.08
0
LINE
8
BLACK
6
CONTINUOUS
10
0.587874
20
-0.08
11
0.587275
21
-0.0830133
0
LINE
8
BLACK
6
CONTINUOUS
10
0.587275
20
-0.0830133
11
0.585568
21
-0.0855678
0
LINE
8
BLACK
6
CONTINUOUS
10
0.585568
20
-0.0855678
11
0.583013
21
-0.0872746
0
LINE
8
BLACK
6
CONTINUOUS
10
0.583013
20
-0.0872746
11
0.58
21
-0.087874
0
LINE
8
BLACK
6
CONTINUOUS
10
0.58
20
-0.087874
11
0.52
21
-0.087874
0
LINE
8
BLACK
6
CONTINUOUS
10
0.52
20
-0.087874
11
0.516987
21
-0.0872746
0
LINE
8
BLACK
6
CONTINUOUS
10
0.516987
20
-0.0872746
11
0.514432
21
-0.0855678
0
LINE
8
BLACK
6
CONTINUOUS
10
0.514432
20
-0.0855678
11
0.512725
21
-0.0830133
0
LINE
8
BLACK
6
CONTINUOUS
10
0.512725
20
-0.0830133
11
0.512126
21
-0.08
0
LINE
8
BLACK
6
CONTINUOUS
10
0.512126
20
-0.08
11
0.512126
21
-0.02
0
LINE
8
BLACK
6
CONTINUOUS
10
0.512126
20
-0.02
11
0.512725
21
-0.0169867
0
LINE
8
BLACK
6
CONTINUOUS
10
0.512725
20
-0.0169867
11
0.514432
21
-0.0144322
0
LINE
8
BLACK
6
CONTINUOUS
10
0.514432
20
-0.0144322
11
0.516987
21
-0.0127254
0
LINE
8
BLACK
6
CONTINUOUS
10
0.516987
20
-0.0127254
11
0.52
21
-0.012126
0
LINE
8
BLACK
6
CONTINUOUS
10
0.52
20
-0.012126
11
0.58
21
-0.012126
0
LINE
8
BLACK
6
CONTINUOUS
10
0.58
20
-0.012126
11
0.583013
21
-0.0127254
0
LINE
8
BLACK
6
CONTINUOUS
10
0.683013
20
-0.0127254
11
0.685568
21
-0.0144322
0
LINE
8
BLACK
6
CONTINUOUS
10
0.685568
20
-0.0144322
11
0.687275
21
-0.0169867
0
LINE
8
BLACK
6
CONTINUOUS
10
0.687275
20
-0.0169867
11
0.687874
21
-0.02
0
LINE
8
BLACK
6
CONTINUOUS
10
0.687874
20
-0.02
11
0.687874
21
-0.08
0
LINE
8
BLACK
6
CONTINUOUS
10
0.687874
20
-0.08
11
0.687275
21
-0.0830133
0
LINE
8
BLACK
6
CONTINUOUS
10
0.687275
20
-0.0830133
11
0.685568
21
-0.0855678
0
LINE
8
BLACK
6
CONTINUOUS
10
0.685568
20
-0.0855678
11
0.683013
21
-0.0872746
0
LINE
8
BLACK
6
CONTINUOUS
10
0.683013
20
-0.0872746
11
0.68
21
-0.087874
0
LINE
8
BLACK
6
CONTINUOUS
10
0.68
20
-0.087874
11
0.62
21
-0.087874
0
LINE
8
BLACK
6
CONTINUOUS
10
0.62
20
-0.087874
11
0.616987
21
-0.0872746
0
LINE
8
BLACK
6
CONTINUOUS
10
0.616987
20
-0.0872746
11
0.614432
21
-0.0855678
0
LINE
8
BLACK
6
CONTINUOUS
10
0.614432
20
-0.0855678
11
0.612725
21
-0.0830133
0
LINE
8
BLACK
6
CONTINUOUS
10
0.612725
20
-0.0830133
11
0.612126
21
-0.08
0
LINE
8
BLACK
6
CONTINUOUS
10
0.612126
20
-0.08
11
0.612126
21
-0.02
0
LINE
8
BLACK
6
CONTINUOUS
10
0.612126
20
-0.02
11
0.612725
21
-0.0169867
0
LINE
8
BLACK
6
CONTINUOUS
10
0.612725
20
-0.0169867
11
0.614432
21
-0.0144322
0
LINE
8
BLACK
6
CONTINUOUS
10
0.614432
20
-0.0144322
11
0.616987
21
-0.0127254
0
LINE
8
BLACK
6
CONTINUOUS
10
0.616987
20
-0.0127254
11
0.62
21
-0.012126
0
LINE
8
BLACK
6
CONTINUOUS
10
0.62
20
-0.012126
11
0.68
21
-0.012126
0
LINE
8
BLACK
6
CONTINUOUS
10
0.68
20
-0.012126
11
0.683013
21
-0.0127254
0
LINE
8
BLACK
6
CONTINUOUS
10
0.833013
20
-0.0127254
11
0.835568
21
-0.0144322
0
LINE
8
BLACK
6
CONTINUOUS
10
0.835568
20
-0.0144322
11
0.837275
21
-0.0169867
0
LINE
8
BLACK
6
CONTINUOUS
10
0.837275
20
-0.0169867
11
0.837874
21
-0.02
0
LINE
8
BLACK
6
CONTINUOUS
10
0.837874
20
-0.02
11
0.837874
21
-0.08
0
LINE
8
BLACK
6
CONTINUOUS
10
0.837874
20
-0.08
11
0.837275
21
-0.0830133
0
LINE
8
BLACK
6
CONTINUOUS
10
0.837275
20
-0.0830133
11
0.835568
21
-0.0855678
0
LINE
8
BLACK
6
CONTINUOUS
10
0.835568
20
-0.0855678
11
0.833013
21
-0.0872746
0
LINE
8
BLACK
6
CONTINUOUS
10
0.833013
20
-0.0872746
11
0.83
21
-0.087874
0
LINE
8
BLACK
6
CONTINUOUS
10
0.83
20
-0.087874
11
0.77
21
-0.087874
0
LINE
8
BLACK
6
CONTINUOUS
10
0.77
20
-0.087874
11
0.766987
21
-0.0872746
0
LINE
8
BLACK
6
CONTINUOUS
10
0.766987
20
-0.0872746
11
0.764432
21
-0.0855678
0
LINE
8
BLACK
6
CONTINUOUS
10
0.764432
20
-0.0855678
11
0.762725
21
-0.0830133
0
LINE
8
BLACK
6
CONTINUOUS
10
0.762725
20
-0.0830133
11
0.762126
21
-0.08
0
LINE
8
BLACK
6
CONTINUOUS
10
0.762126
20
-0.08
11
0.762126
21
-0.02
0
LINE
8
BLACK
6
CONTINUOUS
10
0.762126
20
-0.02
11
0.762725
21
-0.0169867
0
LINE
8
BLACK
6
CONTINUOUS
10
0.762725
20
-0.0169867
11
0.764432
21
-0.0144322
0
LINE
8
BLACK
6
CONTINUOUS
10
0.764432
20
-0.0144322
11
0.766987
21
-0.0127254
0
LINE
8
BLACK
6
CONTINUOUS
10
0.766987
20
-0.0127254
11
0.77
21
-0.012126
0
LINE
8
BLACK
6
CONTINUOUS
10
0.77
20
-0.012126
11
0.83
21
-0.012126
0
LINE
8
BLACK
6
CONTINUOUS
10
0.83
20
-0.012126
11
0.833013
21
-0.0127254
0
LINE
8
BLACK
6
CONTINUOUS
10
0.933013
20
-0.0127254
11
0.935568
21
-0.0144322
0
LINE
8
BLACK
6
CONTINUOUS
10
0.935568
20
-0.0144322
11
0.937275
21
-0.0169867
0
LINE
8
BLACK
6
CONTINUOUS
10
0.937275
20
-0.0169867
11
0.937874
21
-0.02
0
LINE
8
BLACK
6
CONTINUOUS
10
0.937874
20
-0.02
11
0.937874
21
-0.08
0
LINE
8
BLACK
6
CONTINUOUS
10
0.937874
20
-0.08
11
0.937275
21
-0.0830133
0
LINE
8
BLACK
6
CONTINUOUS
10
0.937275
20
-0.0830133
11
0.935568
21
-0.0855678
0
LINE
8
BLACK
6
CONTINUOUS
10
0.935568
20
-0.0855678
11
0.933013
21
-0.0872746
0
LINE
8
BLACK
6
CONTINUOUS
10
0.933013
20
-0.0872746
11
0.93
21
-0.087874
0
LINE
8
BLACK
6
CONTINUOUS
10
0.93
20
-0.087874
11
0.87
21
-0.087874
0
LINE
8
BLACK
6
CONTINUOUS
10
0.87
20
-0.087874
11
0.866987
21
-0.0872746
0
LINE
8
BLACK
6
CONTINUOUS
10
0.866987
20
-0.0872746
11
0.864432
21
-0.0855678
0
LINE
8
BLACK
6
CONTINUOUS
10
0.864432
20
-0.0855678
11
0.862725
21
-0.0830133
0
LINE
8
BLACK
6
CONTINUOUS
10
0.862725
20
-0.0830133
11
0.862126
21
-0.08
0
LINE
8
BLACK
6
CONTINUOUS
10
0.862126
20
-0.08
11
0.862126
21
-0.02
0
LINE
8
BLACK
6
CONTINUOUS
10
0.862126
20
-0.02
11
0.862725
21
-0.0169867
0
LINE
8
BLACK
6
CONTINUOUS
10
0.862725
20
-0.0169867
11
0.864432
21
-0.0144322
0
LINE
8
BLACK
6
CONTINUOUS
10
0.864432
20
-0.0144322
11
0.866987
21
-0.0127254
0
LINE
8
BLACK
6
CONTINUOUS
10
0.866987
20
-0.0127254
11
0.87
21
-0.012126
0
LINE
8
BLACK
6
CONTINUOUS
10
0.87
20
-0.012126
11
0.93
21
-0.012126
0
LINE
8
BLACK
6
CONTINUOUS
10
0.93
20
-0.012126
11
0.933013
21
-0.0127254
0
LINE
8
BLACK
6
CONTINUOUS
10
1.03301
20
-0.0127254
11
1.03557
21
-0.0144322
0
LINE
8
BLACK
6
CONTINUOUS
10
1.03557
20
-0.0144322
11
1.03727
21
-0.0169867
0
LINE
8
BLACK
6
CONTINUOUS
10
1.03727
20
-0.0169867
11
1.03787
21
-0.02
0
LINE
8
BLACK
6
CONTINUOUS
10
1.03787
20
-0.02
11
1.03787
21
-0.08
0
LINE
8
BLACK
6
CONTINUOUS
10
1.03787
20
-0.08
11
1.03727
21
-0.0830133
0
LINE
8
BLACK
6
CONTINUOUS
10
1.03727
20
-0.0830133
11
1.03557
21
-0.0855678
0
LINE
8
BLACK
6
CONTINUOUS
10
1.03557
20
-0.0855678
11
1.03301
21
-0.0872746
0
LINE
8
BLACK
6
CONTINUOUS
10
1.03301
20
-0.0872746
11
1.03
21
-0.087874
0
LINE
8
BLACK
6
CONTINUOUS
10
1.03
20
-0.087874
11
0.97
21
-0.087874
0
LINE
8
BLACK
6
CONTINUOUS
10
0.97
20
-0.087874
11
0.966987
21
-0.0872746
0
LINE
8
BLACK
6
CONTINUOUS
10
0.966987
20
-0.0872746
11
0.964432
21
-0.0855678
0
LINE
8
BLACK
6
CONTINUOUS
10
0.964432
20
-0.0855678
11
0.962725
21
-0.0830133
0
LINE
8
BLACK
6
CONTINUOUS
10
0.962725
20
-0.0830133
11
0.962126
21
-0.08
0
LINE
8
BLACK
6
CONTINUOUS
10
0.962126
20
-0.08
11
0.962126
21
-0.02
0
LINE
8
BLACK
6
CONTINUOUS
10
0.962126
20
-0.02
11
0.962725
21
-0.0169867
0
LINE
8
BLACK
6
CONTINUOUS
10
0.962725
20
-0.0169867
11
0.964432
21
-0.0144322
0
LINE
8
BLACK
6
CONTINUOUS
10
0.964432
20
-0.0144322
11
0.966987
21
-0.0127254
0
LINE
8
BLACK
6
CONTINUOUS
10
0.966987
20
-0.0127254
11
0.97
21
-0.012126
0
LINE
8
BLACK
6
CONTINUOUS
10
0.97
20
-0.012126
11
1.03
21
-0.012126
0
LINE
8
BLACK
6
CONTINUOUS
10
1.03
20
-0.012126
11
1.03301
21
-0.0127254
0
LINE
8
BLACK
6
CONTINUOUS
10
0.259229
20
0.0523421
11
0.268178
21
0.0499443
0
LINE
8
BLACK
6
CONTINUOUS
10
0.268178
20
0.0499443
11
0.276575
21
0.0460289
0
LINE
8
BLACK
6
CONTINUOUS
10
0.276575
20
0.0460289
11
0.284164
21
0.040715
0
LINE
8
BLACK
6
CONTINUOUS
10
0.284164
20
0.040715
11
0.290715
21
0.0341639
0
LINE
8
BLACK
6
CONTINUOUS
10
0.290715
20
0.0341639
11
0.296029
21
0.0265748
0
LINE
8
BLACK
6
CONTINUOUS
10
0.296029
20
0.0265748
11
0.299944
21
0.0181782
0
LINE
8
BLACK
6
CONTINUOUS
10
0.299944
20
0.0181782
11
0.302342
21
0.00922933
0
LINE
8
BLACK
6
CONTINUOUS
10
0.302342
20
0.00922933
11
0.30315
21
0
0
LINE
8
BLACK
6
CONTINUOUS
10
0.30315
20
0
11
0.302342
21
-0.00922933
0
LINE
8
BLACK
6
CONTINUOUS
10
0.302342
20
-0.00922933
11
0.299944
21
-0.0181782
0
LINE
8
BLACK
6
CONTINUOUS
10
0.299944
20
-0.0181782
11
0.296029
21
-0.0265748
0
LINE
8
BLACK
6
CONTINUOUS
10
0.296029
20
-0.0265748
11
0.290715
21
-0.0341639
0
LINE
8
BLACK
6
CONTINUOUS
10
0.290715
20
-0.0341639
11
0.284164
21
-0.040715
0
LINE
8
BLACK
6
CONTINUOUS
10
0.284164
20
-0.040715
11
0.276575
21
-0.0460289
0
LINE
8
BLACK
6
CONTINUOUS
10
0.276575
20
-0.0460289
11
0.268178
21
-0.0499443
0
LINE
8
BLACK
6
CONTINUOUS
10
0.268178
20
-0.0499443
11
0.259229
21
-0.0523421
0
LINE
8
BLACK
6
CONTINUOUS
10
0.259229
20
-0.0523421
11
0.25
21
-0.0531496
0
LINE
8
BLACK
6
CONTINUOUS
10
0.25
20
-0.0531496
11
0.240771
21
-0.0523421
0
LINE
8
BLACK
6
CONTINUOUS
10
0.240771
20
-0.0523421
11
0.231822
21
-0.0499443
0
LINE
8
BLACK
6
CONTINUOUS
10
0.231822
20
-0.0499443
11
0.223425
21
-0.0460289
0
LINE
8
BLACK
6
CONTINUOUS
10
0.223425
20
-0.0460289
11
0.215836
21
-0.040715
0
LINE
8
BLACK
6
CONTINUOUS
10
0.215836
20
-0.040715
11
0.209285
21
-0.0341639
0
LINE
8
BLACK
6
CONTINUOUS
10
0.209285
20
-0.0341639
11
0.203971
21
-0.0265748
0
LINE
8
BLACK
6
CONTINUOUS
10
0.203971
20
-0.0265748
11
0.200056
21
-0.0181782
0
LINE
8
BLACK
6
CONTINUOUS
10
0.200056
20
-0.0181782
11
0.197658
21
-0.00922933
0
LINE
8
BLACK
6
CONTINUOUS
10
0.197658
20
-0.00922933
11
0.19685
21
0
0
LINE
8
BLACK
6
CONTINUOUS
10
0.19685
20
0
11
0.197658
21
0.00922933
0
LINE
8
BLACK
6
CONTINUOUS
10
0.197658
20
0.00922933
11
0.200056
21
0.0181782
0
LINE
8
BLACK
6
CONTINUOUS
10
0.200056
20
0.0181782
11
0.203971
21
0.0265748
0
LINE
8
BLACK
6
CONTINUOUS
10
0.203971
20
0.0265748
11
0.209285
21
0.0341639
0
LINE
8
BLACK
6
CONTINUOUS
10
0.209285
20
0.0341639
11
0.215836
21
0.040715
0
LINE
8
BLACK
6
CONTINUOUS
10
0.215836
20
0.040715
11
0.223425
21
0.0460289
0
LINE
8
BLACK
6
CONTINUOUS
10
0.223425
20
0.0460289
11
0.231822
21
0.0499443
0
LINE
8
BLACK
6
CONTINUOUS
10
0.231822
20
0.0499443
11
0.240771
21
0.0523421
0
LINE
8
BLACK
6
CONTINUOUS
10
0.240771
20
0.0523421
11
0.25
21
0.0531496
0
LINE
8
BLACK
6
CONTINUOUS
10
0.25
20
0.0531496
11
0.259229
21
0.0523421
0
LINE
8
BLACK
6
CONTINUOUS
10
0.483013
20
0.0872746
11
0.485568
21
0.0855678
0
LINE
8
BLACK
6
CONTINUOUS
10
0.485568
20
0.0855678
11
0.487275
21
0.0830133
0
LINE
8
BLACK
6
CONTINUOUS
10
0.487275
20
0.0830133
11
0.487874
21
0.08
0
LINE
8
BLACK
6
CONTINUOUS
10
0.487874
20
0.08
11
0.487874
21
0.02
0
LINE
8
BLACK
6
CONTINUOUS
10
0.487874
20
0.02
11
0.487275
21
0.0169867
0
LINE
8
BLACK
6
CONTINUOUS
10
0.487275
20
0.0169867
11
0.485568
21
0.0144322
0
LINE
8
BLACK
6
CONTINUOUS
10
0.485568
20
0.0144322
11
0.483013
21
0.0127254
0
LINE
8
BLACK
6
CONTINUOUS
10
0.483013
20
0.0127254
11
0.48
21
0.012126
0
LINE
8
BLACK
6
CONTINUOUS
10
0.48
20
0.012126
11
0.42
21
0.012126
0
LINE
8
BLACK
6
CONTINUOUS
10
0.42
20
0.012126
11
0.416987
21
0.0127254
0
LINE
8
BLACK
6
CONTINUOUS
10
0.416987
20
0.0127254
11
0.414432
21
0.0144322
0
LINE
8
BLACK
6
CONTINUOUS
10
0.414432
20
0.0144322
11
0.412725
21
0.0169867
0
LINE
8
BLACK
6
CONTINUOUS
10
0.412725
20
0.0169867
11
0.412126
21
0.02
0
LINE
8
BLACK
6
CONTINUOUS
10
0.412126
20
0.02
11
0.412126
21
0.08
0
LINE
8
BLACK
6
CONTINUOUS
10
0.412126
20
0.08
11
0.412725
21
0.0830133
0
LINE
8
BLACK
6
CONTINUOUS
10
0.412725
20
0.0830133
11
0.414432
21
0.0855678
0
LINE
8
BLACK
6
CONTINUOUS
10
0.414432
20
0.0855678
11
0.416987
21
0.0872746
0
LINE
8
BLACK
6
CONTINUOUS
10
0.416987
20
0.0872746
11
0.42
21
0.087874
0
LINE
8
BLACK
6
CONTINUOUS
10
0.42
20
0.087874
11
0.48
21
0.087874
0
LINE
8
BLACK
6
CONTINUOUS
10
0.48
20
0.087874
11
0.483013
21
0.0872746
0
LINE
8
BLACK
6
CONTINUOUS
10
0.583013
20
0.0872746
11
0.585568
21
0.0855678
0
LINE
8
BLACK
6
CONTINUOUS
10
0.585568
20
0.0855678
11
0.587275
21
0.0830133
0
LINE
8
BLACK
6
CONTINUOUS
10
0.587275
20
0.0830133
11
0.587874
21
0.08
0
LINE
8
BLACK
6
CONTINUOUS
10
0.587874
20
0.08
11
0.587874
21
0.02
0
LINE
8
BLACK
6
CONTINUOUS
10
0.587874
20
0.02
11
0.587275
21
0.0169867
0
LINE
8
BLACK
6
CONTINUOUS
10
0.587275
20
0.0169867
11
0.585568
21
0.0144322
0
LINE
8
BLACK
6
CONTINUOUS
10
0.585568
20
0.0144322
11
0.583013
21
0.0127254
0
LINE
8
BLACK
6
CONTINUOUS
10
0.583013
20
0.0127254
11
0.58
21
0.012126
0
LINE
8
BLACK
6
CONTINUOUS
10
0.58
20
0.012126
11
0.52
21
0.012126
0
LINE
8
BLACK
6
CONTINUOUS
10
0.52
20
0.012126
11
0.516987
21
0.0127254
0
LINE
8
BLACK
6
CONTINUOUS
10
0.516987
20
0.0127254
11
0.514432
21
0.0144322
0
LINE
8
BLACK
6
CONTINUOUS
10
0.514432
20
0.0144322
11
0.512725
21
0.0169867
0
LINE
8
BLACK
6
CONTINUOUS
10
0.512725
20
0.0169867
11
0.512126
21
0.02
0
LINE
8
BLACK
6
CONTINUOUS
10
0.512126
20
0.02
11
0.512126
21
0.08
0
LINE
8
BLACK
6
CONTINUOUS
10
0.512126
20
0.08
11
0.512725
21
0.0830133
0
LINE
8
BLACK
6
CONTINUOUS
10
0.512725
20
0.0830133
11
0.514432
21
0.0855678
0
LINE
8
BLACK
6
CONTINUOUS
10
0.514432
20
0.0855678
11
0.516987
21
0.0872746
0
LINE
8
BLACK
6
CONTINUOUS
10
0.516987
20
0.0872746
11
0.52
21
0.087874
0
LINE
8
BLACK
6
CONTINUOUS
10
0.52
20
0.087874
11
0.58
21
0.087874
0
LINE
8
BLACK
6
CONTINUOUS
10
0.58
20
0.087874
11
0.583013
21
0.0872746
0
LINE
8
BLACK
6
CONTINUOUS
10
0.683013
20
0.0872746
11
0.685568
21
0.0855678
0
LINE
8
BLACK
6
CONTINUOUS
10
0.685568
20
0.0855678
11
0.687275
21
0.0830133
0
LINE
8
BLACK
6
CONTINUOUS
10
0.687275
20
0.0830133
11
0.687874
21
0.08
0
LINE
8
BLACK
6
CONTINUOUS
10
0.687874
20
0.08
11
0.687874
21
0.02
0
LINE
8
BLACK
6
CONTINUOUS
10
0.687874
20
0.02
11
0.687275
21
0.0169867
0
LINE
8
BLACK
6
CONTINUOUS
10
0.687275
20
0.0169867
11
0.685568
21
0.0144322
0
LINE
8
BLACK
6
CONTINUOUS
10
0.685568
20
0.0144322
11
0.683013
21
0.0127254
0
LINE
8
BLACK
6
CONTINUOUS
10
0.683013
20
0.0127254
11
0.68
21
0.012126
0
LINE
8
BLACK
6
CONTINUOUS
10
0.68
20
0.012126
11
0.62
21
0.012126
0
LINE
8
BLACK
6
CONTINUOUS
10
0.62
20
0.012126
11
0.616987
21
0.0127254
0
LINE
8
BLACK
6
CONTINUOUS
10
0.616987
20
0.0127254
11
0.614432
21
0.0144322
0
LINE
8
BLACK
6
CONTINUOUS
10
0.614432
20
0.0144322
11
0.612725
21
0.0169867
0
LINE
8
BLACK
6
CONTINUOUS
10
0.612725
20
0.0169867
11
0.612126
21
0.02
0
LINE
8
BLACK
6
CONTINUOUS
10
0.612126
20
0.02
11
0.612126
21
0.08
0
LINE
8
BLACK
6
CONTINUOUS
10
0.612126
20
0.08
11
0.612725
21
0.0830133
0
LINE
8
BLACK
6
CONTINUOUS
10
0.612725
20
0.0830133
11
0.614432
21
0.0855678
0
LINE
8
BLACK
6
CONTINUOUS
10
0.614432
20
0.0855678
11
0.616987
21
0.0872746
0
LINE
8
BLACK
6
CONTINUOUS
10
0.616987
20
0.0872746
11
0.62
21
0.087874
0
LINE
8
BLACK
6
CONTINUOUS
10
0.62
20
0.087874
11
0.68
21
0.087874
0
LINE
8
BLACK
6
CONTINUOUS
10
0.68
20
0.087874
11
0.683013
21
0.0872746
0
LINE
8
BLACK
6
CONTINUOUS
10
0.833013
20
0.0872746
11
0.835568
21
0.0855678
0
LINE
8
BLACK
6
CONTINUOUS
10
0.835568
20
0.0855678
11
0.837275
21
0.0830133
0
LINE
8
BLACK
6
CONTINUOUS
10
0.837275
20
0.0830133
11
0.837874
21
0.08
0
LINE
8
BLACK
6
CONTINUOUS
10
0.837874
20
0.08
11
0.837874
21
0.02
0
LINE
8
BLACK
6
CONTINUOUS
10
0.837874
20
0.02
11
0.837275
21
0.0169867
0
LINE
8
BLACK
6
CONTINUOUS
10
0.837275
20
0.0169867
11
0.835568
21
0.0144322
0
LINE
8
BLACK
6
CONTINUOUS
10
0.835568
20
0.0144322
11
0.833013
21
0.0127254
0
LINE
8
BLACK
6
CONTINUOUS
10
0.833013
20
0.0127254
11
0.83
21
0.012126
0
LINE
8
BLACK
6
CONTINUOUS
10
0.83
20
0.012126
11
0.77
21
0.012126
0
LINE
8
BLACK
6
CONTINUOUS
10
0.77
20
0.012126
11
0.766987
21
0.0127254
0
LINE
8
BLACK
6
CONTINUOUS
10
0.766987
20
0.0127254
11
0.764432
21
0.0144322
0
LINE
8
BLACK
6
CONTINUOUS
10
0.764432
20
0.0144322
11
0.762725
21
0.0169867
0
LINE
8
BLACK
6
CONTINUOUS
10
0.762725
20
0.0169867
11
0.762126
21
0.02
0
LINE
8
BLACK
6
CONTINUOUS
10
0.762126
20
0.02
11
0.762126
21
0.08
0
LINE
8
BLACK
6
CONTINUOUS
10
0.762126
20
0.08
11
0.762725
21
0.0830133
0
LINE
8
BLACK
6
CONTINUOUS
10
0.762725
20
0.0830133
11
0.764432
21
0.0855678
0
LINE
8
BLACK
6
CONTINUOUS
10
0.764432
20
0.0855678
11
0.766987
21
0.0872746
0
LINE
8
BLACK
6
CONTINUOUS
10
0.766987
20
0.0872746
11
0.77
21
0.087874
0
LINE
8
BLACK
6
CONTINUOUS
10
0.77
20
0.087874
11
0.83
21
0.087874
0
LINE
8
BLACK
6
CONTINUOUS
10
0.83
20
0.087874
11
0.833013
21
0.0872746
0
LINE
8
BLACK
6
CONTINUOUS
10
0.933013
20
0.0872746
11
0.935568
21
0.0855678
0
LINE
8
BLACK
6
CONTINUOUS
10
0.935568
20
0.0855678
11
0.937275
21
0.0830133
0
LINE
8
BLACK
6
CONTINUOUS
10
0.937275
20
0.0830133
11
0.937874
21
0.08
0
LINE
8
BLACK
6
CONTINUOUS
10
0.937874
20
0.08
11
0.937874
21
0.02
0
LINE
8
BLACK
6
CONTINUOUS
10
0.937874
20
0.02
11
0.937275
21
0.0169867
0
LINE
8
BLACK
6
CONTINUOUS
10
0.937275
20
0.0169867
11
0.935568
21
0.0144322
0
LINE
8
BLACK
6
CONTINUOUS
10
0.935568
20
0.0144322
11
0.933013
21
0.0127254
0
LINE
8
BLACK
6
CONTINUOUS
10
0.933013
20
0.0127254
11
0.93
21
0.012126
0
LINE
8
BLACK
6
CONTINUOUS
10
0.93
20
0.012126
11
0.87
21
0.012126
0
LINE
8
BLACK
6
CONTINUOUS
10
0.87
20
0.012126
11
0.866987
21
0.0127254
0
LINE
8
BLACK
6
CONTINUOUS
10
0.866987
20
0.0127254
11
0.864432
21
0.0144322
0
LINE
8
BLACK
6
CONTINUOUS
10
0.864432
20
0.0144322
11
0.862725
21
0.0169867
0
LINE
8
BLACK
6
CONTINUOUS
10
0.862725
20
0.0169867
11
0.862126
21
0.02
0
LINE
8
BLACK
6
CONTINUOUS
10
0.862126
20
0.02
11
0.862126
21
0.08
0
LINE
8
BLACK
6
CONTINUOUS
10
0.862126
20
0.08
11
0.862725
21
0.0830133
0
LINE
8
BLACK
6
CONTINUOUS
10
0.862725
20
0.0830133
11
0.864432
21
0.0855678
0
LINE
8
BLACK
6
CONTINUOUS
10
0.864432
20
0.0855678
11
0.866987
21
0.0872746
0
LINE
8
BLACK
6
CONTINUOUS
10
0.866987
20
0.0872746
11
0.87
21
0.087874
0
LINE
8
BLACK
6
CONTINUOUS
10
0.87
20
0.087874
11
0.93
21
0.087874
0
LINE
8
BLACK
6
CONTINUOUS
10
0.93
20
0.087874
11
0.933013
21
0.0872746
0
LINE
8
BLACK
6
CONTINUOUS
10
1.03301
20
0.0872746
11
1.03557
21
0.0855678
0
LINE
8
BLACK
6
CONTINUOUS
10
1.03557
20
0.0855678
11
1.03727
21
0.0830133
0
LINE
8
BLACK
6
CONTINUOUS
10
1.03727
20
0.0830133
11
1.03787
21
0.08
0
LINE
8
BLACK
6
CONTINUOUS
10
1.03787
20
0.08
11
1.03787
21
0.02
0
LINE
8
BLACK
6
CONTINUOUS
10
1.03787
20
0.02
11
1.03727
21
0.0169867
0
LINE
8
BLACK
6
CONTINUOUS
10
1.03727
20
0.0169867
11
1.03557
21
0.0144322
0
LINE
8
BLACK
6
CONTINUOUS
10
1.03557
20
0.0144322
11
1.03301
21
0.0127254
0
LINE
8
BLACK
6
CONTINUOUS
10
1.03301
20
0.0127254
11
1.03
21
0.012126
0
LINE
8
BLACK
6
CONTINUOUS
10
1.03
20
0.012126
11
0.97
21
0.012126
0
LINE
8
BLACK
6
CONTINUOUS
10
0.97
20
0.012126
11
0.966987
21
0.0127254
0
LINE
8
BLACK
6
CONTINUOUS
10
0.966987
20
0.0127254
11
0.964432
21
0.0144322
0
LINE
8
BLACK
6
CONTINUOUS
10
0.964432
20
0.0144322
11
0.962725
21
0.0169867
0
LINE
8
BLACK
6
CONTINUOUS
10
0.962725
20
0.0169867
11
0.962126
21
0.02
0
LINE
8
BLACK
6
CONTINUOUS
10
0.962126
20
0.02
11
0.962126
21
0.08
0
LINE
8
BLACK
6
CONTINUOUS
10
0.962126
20
0.08
11
0.962725
21
0.0830133
0
LINE
8
BLACK
6
CONTINUOUS
10
0.962725
20
0.0830133
11
0.964432
21
0.0855678
0
LINE
8
BLACK
6
CONTINUOUS
10
0.964432
20
0.0855678
11
0.966987
21
0.0872746
0
LINE
8
BLACK
6
CONTINUOUS
10
0.966987
20
0.0872746
11
0.97
21
0.087874
0
LINE
8
BLACK
6
CONTINUOUS
10
0.97
20
0.087874
11
1.03
21
0.087874
0
LINE
8
BLACK
6
CONTINUOUS
10
1.03
20
0.087874
11
1.03301
21
0.0872746
0
LINE
8
BLACK
6
CONTINUOUS
10
0.235493
20
0.233195
11
0.246196
21
0.230867
0
LINE
8
BLACK
6
CONTINUOUS
10
0.246196
20
0.230867
11
0.256459
21
0.227039
0
LINE
8
BLACK
6
CONTINUOUS
10
0.256459
20
0.227039
11
0.266073
21
0.221789
0
LINE
8
BLACK
6
CONTINUOUS
10
0.266073
20
0.221789
11
0.274842
21
0.215225
0
LINE
8
BLACK
6
CONTINUOUS
10
0.274842
20
0.215225
11
0.282587
21
0.207479
0
LINE
8
BLACK
6
CONTINUOUS
10
0.282587
20
0.207479
11
0.289151
21
0.198711
0
LINE
8
BLACK
6
CONTINUOUS
10
0.289151
20
0.198711
11
0.294401
21
0.189097
0
LINE
8
BLACK
6
CONTINUOUS
10
0.294401
20
0.189097
11
0.298229
21
0.178834
0
LINE
8
BLACK
6
CONTINUOUS
10
0.298229
20
0.178834
11
0.300557
21
0.16813
0
LINE
8
BLACK
6
CONTINUOUS
10
0.300557
20
0.16813
11
0.301339
21
0.157205
0
LINE
8
BLACK
6
CONTINUOUS
10
0.301339
20
0.157205
11
0.300557
21
0.146279
0
LINE
8
BLACK
6
CONTINUOUS
10
0.300557
20
0.146279
11
0.298229
21
0.135576
0
LINE
8
BLACK
6
CONTINUOUS
10
0.298229
20
0.135576
11
0.294401
21
0.125313
0
LINE
8
BLACK
6
CONTINUOUS
10
0.294401
20
0.125313
11
0.289151
21
0.115699
0
LINE
8
BLACK
6
CONTINUOUS
10
0.289151
20
0.115699
11
0.282587
21
0.10693
0
LINE
8
BLACK
6
CONTINUOUS
10
0.282587
20
0.10693
11
0.274842
21
0.0991846
0
LINE
8
BLACK
6
CONTINUOUS
10
0.274842
20
0.0991846
11
0.266073
21
0.0926203
0
LINE
8
BLACK
6
CONTINUOUS
10
0.266073
20
0.0926203
11
0.256459
21
0.0873708
0
LINE
8
BLACK
6
CONTINUOUS
10
0.256459
20
0.0873708
11
0.246196
21
0.0835429
0
LINE
8
BLACK
6
CONTINUOUS
10
0.246196
20
0.0835429
11
0.235493
21
0.0812145
0
LINE
8
BLACK
6
CONTINUOUS
10
0.235493
20
0.0812145
11
0.224567
21
0.0804331
0
LINE
8
BLACK
6
CONTINUOUS
10
0.224567
20
0.0804331
11
0.213641
21
0.0812145
0
LINE
8
BLACK
6
CONTINUOUS
10
0.213641
20
0.0812145
11
0.202938
21
0.0835429
0
LINE
8
BLACK
6
CONTINUOUS
10
0.202938
20
0.0835429
11
0.192675
21
0.0873708
0
LINE
8
BLACK
6
CONTINUOUS
10
0.192675
20
0.0873708
11
0.183061
21
0.0926203
0
LINE
8
BLACK
6
CONTINUOUS
10
0.183061
20
0.0926203
11
0.174292
21
0.0991846
0
LINE
8
BLACK
6
CONTINUOUS
10
0.174292
20
0.0991846
11
0.166547
21
0.10693
0
LINE
8
BLACK
6
CONTINUOUS
10
0.166547
20
0.10693
11
0.159983
21
0.115699
0
LINE
8
BLACK
6
CONTINUOUS
10
0.159983
20
0.115699
11
0.154733
21
0.125313
0
LINE
8
BLACK
6
CONTINUOUS
10
0.154733
20
0.125313
11
0.150905
21
0.135576
0
LINE
8
BLACK
6
CONTINUOUS
10
0.150905
20
0.135576
11
0.148577
21
0.146279
0
LINE
8
BLACK
6
CONTINUOUS
10
0.148577
20
0.146279
11
0.147795
21
0.157205
0
LINE
8
BLACK
6
CONTINUOUS
10
0.147795
20
0.157205
11
0.148577
21
0.16813
0
LINE
8
BLACK
6
CONTINUOUS
10
0.148577
20
0.16813
11
0.150905
21
0.178834
0
LINE
8
BLACK
6
CONTINUOUS
10
0.150905
20
0.178834
11
0.154733
21
0.189097
0
LINE
8
BLACK
6
CONTINUOUS
10
0.154733
20
0.189097
11
0.159983
21
0.198711
0
LINE
8
BLACK
6
CONTINUOUS
10
0.159983
20
0.198711
11
0.166547
21
0.207479
0
LINE
8
BLACK
6
CONTINUOUS
10
0.166547
20
0.207479
11
0.174292
21
0.215225
0
LINE
8
BLACK
6
CONTINUOUS
10
0.174292
20
0.215225
11
0.183061
21
0.221789
0
LINE
8
BLACK
6
CONTINUOUS
10
0.183061
20
0.221789
11
0.192675
21
0.227039
0
LINE
8
BLACK
6
CONTINUOUS
10
0.192675
20
0.227039
11
0.202938
21
0.230867
0
LINE
8
BLACK
6
CONTINUOUS
10
0.202938
20
0.230867
11
0.213641
21
0.233195
0
LINE
8
BLACK
6
CONTINUOUS
10
0.213641
20
0.233195
11
0.224567
21
0.233976
0
LINE
8
BLACK
6
CONTINUOUS
10
0.224567
20
0.233976
11
0.235493
21
0.233195
0
LINE
8
BLACK
6
CONTINUOUS
10
1.18301
20
0.237275
11
1.18557
21
0.235568
0
LINE
8
BLACK
6
CONTINUOUS
10
1.18557
20
0.235568
11
1.18727
21
0.233013
0
LINE
8
BLACK
6
CONTINUOUS
10
1.18727
20
0.233013
11
1.18787
21
0.23
0
LINE
8
BLACK
6
CONTINUOUS
10
1.18787
20
0.23
11
1.18787
21
0.17
0
LINE
8
BLACK
6
CONTINUOUS
10
1.18787
20
0.17
11
1.18727
21
0.166987
0
LINE
8
BLACK
6
CONTINUOUS
10
1.18727
20
0.166987
11
1.18557
21
0.164432
0
LINE
8
BLACK
6
CONTINUOUS
10
1.18557
20
0.164432
11
1.18301
21
0.162725
0
LINE
8
BLACK
6
CONTINUOUS
10
1.18301
20
0.162725
11
1.18
21
0.162126
0
LINE
8
BLACK
6
CONTINUOUS
10
1.18
20
0.162126
11
1.12
21
0.162126
0
LINE
8
BLACK
6
CONTINUOUS
10
1.12
20
0.162126
11
1.11699
21
0.162725
0
LINE
8
BLACK
6
CONTINUOUS
10
1.11699
20
0.162725
11
1.11443
21
0.164432
0
LINE
8
BLACK
6
CONTINUOUS
10
1.11443
20
0.164432
11
1.11273
21
0.166987
0
LINE
8
BLACK
6
CONTINUOUS
10
1.11273
20
0.166987
11
1.11213
21
0.17
0
LINE
8
BLACK
6
CONTINUOUS
10
1.11213
20
0.17
11
1.11213
21
0.23
0
LINE
8
BLACK
6
CONTINUOUS
10
1.11213
20
0.23
11
1.11273
21
0.233013
0
LINE
8
BLACK
6
CONTINUOUS
10
1.11273
20
0.233013
11
1.11443
21
0.235568
0
LINE
8
BLACK
6
CONTINUOUS
10
1.11443
20
0.235568
11
1.11699
21
0.237275
0
LINE
8
BLACK
6
CONTINUOUS
10
1.11699
20
0.237275
11
1.12
21
0.237874
0
LINE
8
BLACK
6
CONTINUOUS
10
1.12
20
0.237874
11
1.18
21
0.237874
0
LINE
8
BLACK
6
CONTINUOUS
10
1.18
20
0.237874
11
1.18301
21
0.237275
0
LINE
8
BLACK
6
CONTINUOUS
10
1.28301
20
0.237275
11
1.28557
21
0.235568
0
LINE
8
BLACK
6
CONTINUOUS
10
1.28557
20
0.235568
11
1.28727
21
0.233013
0
LINE
8
BLACK
6
CONTINUOUS
10
1.28727
20
0.233013
11
1.28787
21
0.23
0
LINE
8
BLACK
6
CONTINUOUS
10
1.28787
20
0.23
11
1.28787
21
0.17
0
LINE
8
BLACK
6
CONTINUOUS
10
1.28787
20
0.17
11
1.28727
21
0.166987
0
LINE
8
BLACK
6
CONTINUOUS
10
1.28727
20
0.166987
11
1.28557
21
0.164432
0
LINE
8
BLACK
6
CONTINUOUS
10
1.28557
20
0.164432
11
1.28301
21
0.162725
0
LINE
8
BLACK
6
CONTINUOUS
10
1.28301
20
0.162725
11
1.28
21
0.162126
0
LINE
8
BLACK
6
CONTINUOUS
10
1.28
20
0.162126
11
1.22
21
0.162126
0
LINE
8
BLACK
6
CONTINUOUS
10
1.22
20
0.162126
11
1.21699
21
0.162725
0
LINE
8
BLACK
6
CONTINUOUS
10
1.21699
20
0.162725
11
1.21443
21
0.164432
0
LINE
8
BLACK
6
CONTINUOUS
10
1.21443
20
0.164432
11
1.21273
21
0.166987
0
LINE
8
BLACK
6
CONTINUOUS
10
1.21273
20
0.166987
11
1.21213
21
0.17
0
LINE
8
BLACK
6
CONTINUOUS
10
1.21213
20
0.17
11
1.21213
21
0.23
0
LINE
8
BLACK
6
CONTINUOUS
10
1.21213
20
0.23
11
1.21273
21
0.233013
0
LINE
8
BLACK
6
CONTINUOUS
10
1.21273
20
0.233013
11
1.21443
21
0.235568
0
LINE
8
BLACK
6
CONTINUOUS
10
1.21443
20
0.235568
11
1.21699
21
0.237275
0
LINE
8
BLACK
6
CONTINUOUS
10
1.21699
20
0.237275
11
1.22
21
0.237874
0
LINE
8
BLACK
6
CONTINUOUS
10
1.22
20
0.237874
11
1.28
21
0.237874
0
LINE
8
BLACK
6
CONTINUOUS
10
1.28
20
0.237874
11
1.28301
21
0.237275
0
LINE
8
BLACK
6
CONTINUOUS
10
1.18301
20
0.337275
11
1.18557
21
0.335568
0
LINE
8
BLACK
6
CONTINUOUS
10
1.18557
20
0.335568
11
1.18727
21
0.333013
0
LINE
8
BLACK
6
CONTINUOUS
10
1.18727
20
0.333013
11
1.18787
21
0.33
0
LINE
8
BLACK
6
CONTINUOUS
10
1.18787
20
0.33
11
1.18787
21
0.27
0
LINE
8
BLACK
6
CONTINUOUS
10
1.18787
20
0.27
11
1.18727
21
0.266987
0
LINE
8
BLACK
6
CONTINUOUS
10
1.18727
20
0.266987
11
1.18557
21
0.264432
0
LINE
8
BLACK
6
CONTINUOUS
10
1.18557
20
0.264432
11
1.18301
21
0.262725
0
LINE
8
BLACK
6
CONTINUOUS
10
1.18301
20
0.262725
11
1.18
21
0.262126
0
LINE
8
BLACK
6
CONTINUOUS
10
1.18
20
0.262126
11
1.12
21
0.262126
0
LINE
8
BLACK
6
CONTINUOUS
10
1.12
20
0.262126
11
1.11699
21
0.262725
0
LINE
8
BLACK
6
CONTINUOUS
10
1.11699
20
0.262725
11
1.11443
21
0.264432
0
LINE
8
BLACK
6
CONTINUOUS
10
1.11443
20
0.264432
11
1.11273
21
0.266987
0
LINE
8
BLACK
6
CONTINUOUS
10
1.11273
20
0.266987
11
1.11213
21
0.27
0
LINE
8
BLACK
6
CONTINUOUS
10
1.11213
20
0.27
11
1.11213
21
0.33
0
LINE
8
BLACK
6
CONTINUOUS
10
1.11213
20
0.33
11
1.11273
21
0.333013
0
LINE
8
BLACK
6
CONTINUOUS
10
1.11273
20
0.333013
11
1.11443
21
0.335568
0
LINE
8
BLACK
6
CONTINUOUS
10
1.11443
20
0.335568
11
1.11699
21
0.337275
0
LINE
8
BLACK
6
CONTINUOUS
10
1.11699
20
0.337275
11
1.12
21
0.337874
0
LINE
8
BLACK
6
CONTINUOUS
10
1.12
20
0.337874
11
1.18
21
0.337874
0
LINE
8
BLACK
6
CONTINUOUS
10
1.18
20
0.337874
11
1.18301
21
0.337275
0
LINE
8
BLACK
6
CONTINUOUS
10
1.28301
20
0.337275
11
1.28557
21
0.335568
0
LINE
8
BLACK
6
CONTINUOUS
10
1.28557
20
0.335568
11
1.28727
21
0.333013
0
LINE
8
BLACK
6
CONTINUOUS
10
1.28727
20
0.333013
11
1.28787
21
0.33
0
LINE
8
BLACK
6
CONTINUOUS
10
1.28787
20
0.33
11
1.28787
21
0.27
0
LINE
8
BLACK
6
CONTINUOUS
10
1.28787
20
0.27
11
1.28727
21
0.266987
0
LINE
8
BLACK
6
CONTINUOUS
10
1.28727
20
0.266987
11
1.28557
21
0.264432
0
LINE
8
BLACK
6
CONTINUOUS
10
1.28557
20
0.264432
11
1.28301
21
0.262725
0
LINE
8
BLACK
6
CONTINUOUS
10
1.28301
20
0.262725
11
1.28
21
0.262126
0
LINE
8
BLACK
6
CONTINUOUS
10
1.28
20
0.262126
11
1.22
21
0.262126
0
LINE
8
BLACK
6
CONTINUOUS
10
1.22
20
0.262126
11
1.21699
21
0.262725
0
LINE
8
BLACK
6
CONTINUOUS
10
1.21699
20
0.262725
11
1.21443
21
0.264432
0
LINE
8
BLACK
6
CONTINUOUS
10
1.21443
20
0.264432
11
1.21273
21
0.266987
0
LINE
8
BLACK
6
CONTINUOUS
10
1.21273
20
0.266987
11
1.21213
21
0.27
0
LINE
8
BLACK
6
CONTINUOUS
10
1.21213
20
0.27
11
1.21213
21
0.33
0
LINE
8
BLACK
6
CONTINUOUS
10
1.21213
20
0.33
11
1.21273
21
0.333013
0
LINE
8
BLACK
6
CONTINUOUS
10
1.21273
20
0.333013
11
1.21443
21
0.335568
0
LINE
8
BLACK
6
CONTINUOUS
10
1.21443
20
0.335568
11
1.21699
21
0.337275
0
LINE
8
BLACK
6
CONTINUOUS
10
1.21699
20
0.337275
11
1.22
21
0.337874
0
LINE
8
BLACK
6
CONTINUOUS
10
1.22
20
0.337874
11
1.28
21
0.337874
0
LINE
8
BLACK
6
CONTINUOUS
10
1.28
20
0.337874
11
1.28301
21
0.337275
0
LINE
8
BLACK
6
CONTINUOUS
10
0.446478
20
0.385739
11
0.449032
21
0.384032
0
LINE
8
BLACK
6
CONTINUOUS
10
0.449032
20
0.384032
11
0.450739
21
0.381478
0
LINE
8
BLACK
6
CONTINUOUS
10
0.450739
20
0.381478
11
0.451339
21
0.378465
0
LINE
8
BLACK
6
CONTINUOUS
10
0.451339
20
0.378465
11
0.451339
21
0.311535
0
LINE
8
BLACK
6
CONTINUOUS
10
0.451339
20
0.311535
11
0.450739
21
0.308522
0
LINE
8
BLACK
6
CONTINUOUS
10
0.450739
20
0.308522
11
0.449032
21
0.305968
0
LINE
8
BLACK
6
CONTINUOUS
10
0.449032
20
0.305968
11
0.446478
21
0.304261
0
LINE
8
BLACK
6
CONTINUOUS
10
0.446478
20
0.304261
11
0.443465
21
0.303661
0
LINE
8
BLACK
6
CONTINUOUS
10
0.443465
20
0.303661
11
0.376535
21
0.303661
0
LINE
8
BLACK
6
CONTINUOUS
10
0.376535
20
0.303661
11
0.373522
21
0.304261
0
LINE
8
BLACK
6
CONTINUOUS
10
0.373522
20
0.304261
11
0.370968
21
0.305968
0
LINE
8
BLACK
6
CONTINUOUS
10
0.370968
20
0.305968
11
0.369261
21
0.308522
0
LINE
8
BLACK
6
CONTINUOUS
10
0.369261
20
0.308522
11
0.368661
21
0.311535
0
LINE
8
BLACK
6
CONTINUOUS
10
0.368661
20
0.311535
11
0.368661
21
0.327702
0
LINE
8
BLACK
6
CONTINUOUS
10
0.368661
20
0.327702
11
0.365632
21
0.322034
0
LINE
8
BLACK
6
CONTINUOUS
10
0.365632
20
0.322034
11
0.360491
21
0.315769
0
LINE
8
BLACK
6
CONTINUOUS
10
0.360491
20
0.315769
11
0.354226
21
0.310628
0
LINE
8
BLACK
6
CONTINUOUS
10
0.354226
20
0.310628
11
0.347079
21
0.306808
0
LINE
8
BLACK
6
CONTINUOUS
10
0.347079
20
0.306808
11
0.339325
21
0.304456
0
LINE
8
BLACK
6
CONTINUOUS
10
0.339325
20
0.304456
11
0.33126
21
0.303661
0
LINE
8
BLACK
6
CONTINUOUS
10
0.33126
20
0.303661
11
0.323195
21
0.304456
0
LINE
8
BLACK
6
CONTINUOUS
10
0.323195
20
0.304456
11
0.31544
21
0.306808
0
LINE
8
BLACK
6
CONTINUOUS
10
0.31544
20
0.306808
11
0.308293
21
0.310628
0
LINE
8
BLACK
6
CONTINUOUS
10
0.308293
20
0.310628
11
0.302029
21
0.315769
0
LINE
8
BLACK
6
CONTINUOUS
10
0.302029
20
0.315769
11
0.296888
21
0.322034
0
LINE
8
BLACK
6
CONTINUOUS
10
0.296888
20
0.322034
11
0.293068
21
0.32918
0
LINE
8
BLACK
6
CONTINUOUS
10
0.293068
20
0.32918
11
0.290716
21
0.336935
0
LINE
8
BLACK
6
CONTINUOUS
10
0.290716
20
0.336935
11
0.289921
21
0.345
0
LINE
8
BLACK
6
CONTINUOUS
10
0.289921
20
0.345
11
0.290716
21
0.353065
0
LINE
8
BLACK
6
CONTINUOUS
10
0.290716
20
0.353065
11
0.293068
21
0.36082
0
LINE
8
BLACK
6
CONTINUOUS
10
0.293068
20
0.36082
11
0.296888
21
0.367966
0
LINE
8
BLACK
6
CONTINUOUS
10
0.296888
20
0.367966
11
0.302029
21
0.374231
0
LINE
8
BLACK
6
CONTINUOUS
10
0.302029
20
0.374231
11
0.308293
21
0.379372
0
LINE
8
BLACK
6
CONTINUOUS
10
0.308293
20
0.379372
11
0.31544
21
0.383192
0
LINE
8
BLACK
6
CONTINUOUS
10
0.31544
20
0.383192
11
0.323195
21
0.385544
0
LINE
8
BLACK
6
CONTINUOUS
10
0.323195
20
0.385544
11
0.33126
21
0.386339
0
LINE
8
BLACK
6
CONTINUOUS
10
0.33126
20
0.386339
11
0.339325
21
0.385544
0
LINE
8
BLACK
6
CONTINUOUS
10
0.339325
20
0.385544
11
0.347079
21
0.383192
0
LINE
8
BLACK
6
CONTINUOUS
10
0.347079
20
0.383192
11
0.354226
21
0.379372
0
LINE
8
BLACK
6
CONTINUOUS
10
0.354226
20
0.379372
11
0.360491
21
0.374231
0
LINE
8
BLACK
6
CONTINUOUS
10
0.360491
20
0.374231
11
0.365632
21
0.367966
0
LINE
8
BLACK
6
CONTINUOUS
10
0.365632
20
0.367966
11
0.368661
21
0.362298
0
LINE
8
BLACK
6
CONTINUOUS
10
0.368661
20
0.362298
11
0.368661
21
0.378465
0
LINE
8
BLACK
6
CONTINUOUS
10
0.368661
20
0.378465
11
0.369261
21
0.381478
0
LINE
8
BLACK
6
CONTINUOUS
10
0.369261
20
0.381478
11
0.370968
21
0.384032
0
LINE
8
BLACK
6
CONTINUOUS
10
0.370968
20
0.384032
11
0.373522
21
0.385739
0
LINE
8
BLACK
6
CONTINUOUS
10
0.373522
20
0.385739
11
0.376535
21
0.386339
0
LINE
8
BLACK
6
CONTINUOUS
10
0.376535
20
0.386339
11
0.443465
21
0.386339
0
LINE
8
BLACK
6
CONTINUOUS
10
0.443465
20
0.386339
11
0.446478
21
0.385739
0
LINE
8
BLACK
6
CONTINUOUS
10
1.18301
20
0.437275
11
1.18557
21
0.435568
0
LINE
8
BLACK
6
CONTINUOUS
10
1.18557
20
0.435568
11
1.18727
21
0.433013
0
LINE
8
BLACK
6
CONTINUOUS
10
1.18727
20
0.433013
11
1.18787
21
0.43
0
LINE
8
BLACK
6
CONTINUOUS
10
1.18787
20
0.43
11
1.18787
21
0.37
0
LINE
8
BLACK
6
CONTINUOUS
10
1.18787
20
0.37
11
1.18727
21
0.366987
0
LINE
8
BLACK
6
CONTINUOUS
10
1.18727
20
0.366987
11
1.18557
21
0.364432
0
LINE
8
BLACK
6
CONTINUOUS
10
1.18557
20
0.364432
11
1.18301
21
0.362725
0
LINE
8
BLACK
6
CONTINUOUS
10
1.18301
20
0.362725
11
1.18
21
0.362126
0
LINE
8
BLACK
6
CONTINUOUS
10
1.18
20
0.362126
11
1.12
21
0.362126
0
LINE
8
BLACK
6
CONTINUOUS
10
1.12
20
0.362126
11
1.11699
21
0.362725
0
LINE
8
BLACK
6
CONTINUOUS
10
1.11699
20
0.362725
11
1.11443
21
0.364432
0
LINE
8
BLACK
6
CONTINUOUS
10
1.11443
20
0.364432
11
1.11273
21
0.366987
0
LINE
8
BLACK
6
CONTINUOUS
10
1.11273
20
0.366987
11
1.11213
21
0.37
0
LINE
8
BLACK
6
CONTINUOUS
10
1.11213
20
0.37
11
1.11213
21
0.43
0
LINE
8
BLACK
6
CONTINUOUS
10
1.11213
20
0.43
11
1.11273
21
0.433013
0
LINE
8
BLACK
6
CONTINUOUS
10
1.11273
20
0.433013
11
1.11443
21
0.435568
0
LINE
8
BLACK
6
CONTINUOUS
10
1.11443
20
0.435568
11
1.11699
21
0.437275
0
LINE
8
BLACK
6
CONTINUOUS
10
1.11699
20
0.437275
11
1.12
21
0.437874
0
LINE
8
BLACK
6
CONTINUOUS
10
1.12
20
0.437874
11
1.18
21
0.437874
0
LINE
8
BLACK
6
CONTINUOUS
10
1.18
20
0.437874
11
1.18301
21
0.437275
0
LINE
8
BLACK
6
CONTINUOUS
10
1.28301
20
0.437275
11
1.28557
21
0.435568
0
LINE
8
BLACK
6
CONTINUOUS
10
1.28557
20
0.435568
11
1.28727
21
0.433013
0
LINE
8
BLACK
6
CONTINUOUS
10
1.28727
20
0.433013
11
1.28787
21
0.43
0
LINE
8
BLACK
6
CONTINUOUS
10
1.28787
20
0.43
11
1.28787
21
0.37
0
LINE
8
BLACK
6
CONTINUOUS
10
1.28787
20
0.37
11
1.28727
21
0.366987
0
LINE
8
BLACK
6
CONTINUOUS
10
1.28727
20
0.366987
11
1.28557
21
0.364432
0
LINE
8
BLACK
6
CONTINUOUS
10
1.28557
20
0.364432
11
1.28301
21
0.362725
0
LINE
8
BLACK
6
CONTINUOUS
10
1.28301
20
0.362725
11
1.28
21
0.362126
0
LINE
8
BLACK
6
CONTINUOUS
10
1.28
20
0.362126
11
1.22
21
0.362126
0
LINE
8
BLACK
6
CONTINUOUS
10
1.22
20
0.362126
11
1.21699
21
0.362725
0
LINE
8
BLACK
6
CONTINUOUS
10
1.21699
20
0.362725
11
1.21443
21
0.364432
0
LINE
8
BLACK
6
CONTINUOUS
10
1.21443
20
0.364432
11
1.21273
21
0.366987
0
LINE
8
BLACK
6
CONTINUOUS
10
1.21273
20
0.366987
11
1.21213
21
0.37
0
LINE
8
BLACK
6
CONTINUOUS
10
1.21213
20
0.37
11
1.21213
21
0.43
0
LINE
8
BLACK
6
CONTINUOUS
10
1.21213
20
0.43
11
1.21273
21
0.433013
0
LINE
8
BLACK
6
CONTINUOUS
10
1.21273
20
0.433013
11
1.21443
21
0.435568
0
LINE
8
BLACK
6
CONTINUOUS
10
1.21443
20
0.435568
11
1.21699
21
0.437275
0
LINE
8
BLACK
6
CONTINUOUS
10
1.21699
20
0.437275
11
1.22
21
0.437874
0
LINE
8
BLACK
6
CONTINUOUS
10
1.22
20
0.437874
11
1.28
21
0.437874
0
LINE
8
BLACK
6
CONTINUOUS
10
1.28
20
0.437874
11
1.28301
21
0.437275
0
LINE
8
BLACK
6
CONTINUOUS
10
0.418065
20
0.483969
11
0.42582
21
0.481617
0
LINE
8
BLACK
6
CONTINUOUS
10
0.42582
20
0.481617
11
0.432966
21
0.477797
0
LINE
8
BLACK
6
CONTINUOUS
10
0.432966
20
0.477797
11
0.439231
21
0.472656
0
LINE
8
BLACK
6
CONTINUOUS
10
0.439231
20
0.472656
11
0.444372
21
0.466392
0
LINE
8
BLACK
6
CONTINUOUS
10
0.444372
20
0.466392
11
0.448192
21
0.459245
0
LINE
8
BLACK
6
CONTINUOUS
10
0.448192
20
0.459245
11
0.450544
21
0.45149
0
LINE
8
BLACK
6
CONTINUOUS
10
0.450544
20
0.45149
11
0.451339
21
0.443425
0
LINE
8
BLACK
6
CONTINUOUS
10
0.451339
20
0.443425
11
0.450544
21
0.43536
0
LINE
8
BLACK
6
CONTINUOUS
10
0.450544
20
0.43536
11
0.448192
21
0.427606
0
LINE
8
BLACK
6
CONTINUOUS
10
0.448192
20
0.427606
11
0.444372
21
0.420459
0
LINE
8
BLACK
6
CONTINUOUS
10
0.444372
20
0.420459
11
0.439231
21
0.414194
0
LINE
8
BLACK
6
CONTINUOUS
10
0.439231
20
0.414194
11
0.432966
21
0.409053
0
LINE
8
BLACK
6
CONTINUOUS
10
0.432966
20
0.409053
11
0.42582
21
0.405233
0
LINE
8
BLACK
6
CONTINUOUS
10
0.42582
20
0.405233
11
0.418065
21
0.402881
0
LINE
8
BLACK
6
CONTINUOUS
10
0.418065
20
0.402881
11
0.41
21
0.402087
0
LINE
8
BLACK
6
CONTINUOUS
10
0.41
20
0.402087
11
0.401935
21
0.402881
0
LINE
8
BLACK
6
CONTINUOUS
10
0.401935
20
0.402881
11
0.39418
21
0.405233
0
LINE
8
BLACK
6
CONTINUOUS
10
0.39418
20
0.405233
11
0.387034
21
0.409053
0
LINE
8
BLACK
6
CONTINUOUS
10
0.387034
20
0.409053
11
0.380769
21
0.414194
0
LINE
8
BLACK
6
CONTINUOUS
10
0.380769
20
0.414194
11
0.375628
21
0.420459
0
LINE
8
BLACK
6
CONTINUOUS
10
0.375628
20
0.420459
11
0.371808
21
0.427606
0
LINE
8
BLACK
6
CONTINUOUS
10
0.371808
20
0.427606
11
0.37063
21
0.43149
0
LINE
8
BLACK
6
CONTINUOUS
10
0.37063
20
0.43149
11
0.369452
21
0.427606
0
LINE
8
BLACK
6
CONTINUOUS
10
0.369452
20
0.427606
11
0.365632
21
0.420459
0
LINE
8
BLACK
6
CONTINUOUS
10
0.365632
20
0.420459
11
0.360491
21
0.414194
0
LINE
8
BLACK
6
CONTINUOUS
10
0.360491
20
0.414194
11
0.354226
21
0.409053
0
LINE
8
BLACK
6
CONTINUOUS
10
0.354226
20
0.409053
11
0.347079
21
0.405233
0
LINE
8
BLACK
6
CONTINUOUS
10
0.347079
20
0.405233
11
0.339325
21
0.402881
0
LINE
8
BLACK
6
CONTINUOUS
10
0.339325
20
0.402881
11
0.33126
21
0.402087
0
LINE
8
BLACK
6
CONTINUOUS
10
0.33126
20
0.402087
11
0.323195
21
0.402881
0
LINE
8
BLACK
6
CONTINUOUS
10
0.323195
20
0.402881
11
0.31544
21
0.405233
0
LINE
8
BLACK
6
CONTINUOUS
10
0.31544
20
0.405233
11
0.308293
21
0.409053
0
LINE
8
BLACK
6
CONTINUOUS
10
0.308293
20
0.409053
11
0.302029
21
0.414194
0
LINE
8
BLACK
6
CONTINUOUS
10
0.302029
20
0.414194
11
0.296888
21
0.420459
0
LINE
8
BLACK
6
CONTINUOUS
10
0.296888
20
0.420459
11
0.293068
21
0.427606
0
LINE
8
BLACK
6
CONTINUOUS
10
0.293068
20
0.427606
11
0.290716
21
0.43536
0
LINE
8
BLACK
6
CONTINUOUS
10
0.290716
20
0.43536
11
0.289921
21
0.443425
0
LINE
8
BLACK
6
CONTINUOUS
10
0.289921
20
0.443425
11
0.290716
21
0.45149
0
LINE
8
BLACK
6
CONTINUOUS
10
0.290716
20
0.45149
11
0.293068
21
0.459245
0
LINE
8
BLACK
6
CONTINUOUS
10
0.293068
20
0.459245
11
0.296888
21
0.466392
0
LINE
8
BLACK
6
CONTINUOUS
10
0.296888
20
0.466392
11
0.302029
21
0.472656
0
LINE
8
BLACK
6
CONTINUOUS
10
0.302029
20
0.472656
11
0.308293
21
0.477797
0
LINE
8
BLACK
6
CONTINUOUS
10
0.308293
20
0.477797
11
0.31544
21
0.481617
0
LINE
8
BLACK
6
CONTINUOUS
10
0.31544
20
0.481617
11
0.323195
21
0.483969
0
LINE
8
BLACK
6
CONTINUOUS
10
0.323195
20
0.483969
11
0.33126
21
0.484764
0
LINE
8
BLACK
6
CONTINUOUS
10
0.33126
20
0.484764
11
0.339325
21
0.483969
0
LINE
8
BLACK
6
CONTINUOUS
10
0.339325
20
0.483969
11
0.347079
21
0.481617
0
LINE
8
BLACK
6
CONTINUOUS
10
0.347079
20
0.481617
11
0.354226
21
0.477797
0
LINE
8
BLACK
6
CONTINUOUS
10
0.354226
20
0.477797
11
0.360491
21
0.472656
0
LINE
8
BLACK
6
CONTINUOUS
10
0.360491
20
0.472656
11
0.365632
21
0.466392
0
LINE
8
BLACK
6
CONTINUOUS
10
0.365632
20
0.466392
11
0.369452
21
0.459245
0
LINE
8
BLACK
6
CONTINUOUS
10
0.369452
20
0.459245
11
0.37063
21
0.455361
0
LINE
8
BLACK
6
CONTINUOUS
10
0.37063
20
0.455361
11
0.371808
21
0.459245
0
LINE
8
BLACK
6
CONTINUOUS
10
0.371808
20
0.459245
11
0.375628
21
0.466392
0
LINE
8
BLACK
6
CONTINUOUS
10
0.375628
20
0.466392
11
0.380769
21
0.472656
0
LINE
8
BLACK
6
CONTINUOUS
10
0.380769
20
0.472656
11
0.387034
21
0.477797
0
LINE
8
BLACK
6
CONTINUOUS
10
0.387034
20
0.477797
11
0.39418
21
0.481617
0
LINE
8
BLACK
6
CONTINUOUS
10
0.39418
20
0.481617
11
0.401935
21
0.483969
0
LINE
8
BLACK
6
CONTINUOUS
10
0.401935
20
0.483969
11
0.41
21
0.484764
0
LINE
8
BLACK
6
CONTINUOUS
10
0.41
20
0.484764
11
0.418065
21
0.483969
0
LINE
8
BLACK
6
CONTINUOUS
10
1.18301
20
0.537275
11
1.18557
21
0.535568
0
LINE
8
BLACK
6
CONTINUOUS
10
1.18557
20
0.535568
11
1.18727
21
0.533013
0
LINE
8
BLACK
6
CONTINUOUS
10
1.18727
20
0.533013
11
1.18787
21
0.53
0
LINE
8
BLACK
6
CONTINUOUS
10
1.18787
20
0.53
11
1.18787
21
0.47
0
LINE
8
BLACK
6
CONTINUOUS
10
1.18787
20
0.47
11
1.18727
21
0.466987
0
LINE
8
BLACK
6
CONTINUOUS
10
1.18727
20
0.466987
11
1.18557
21
0.464432
0
LINE
8
BLACK
6
CONTINUOUS
10
1.18557
20
0.464432
11
1.18301
21
0.462725
0
LINE
8
BLACK
6
CONTINUOUS
10
1.18301
20
0.462725
11
1.18
21
0.462126
0
LINE
8
BLACK
6
CONTINUOUS
10
1.18
20
0.462126
11
1.12
21
0.462126
0
LINE
8
BLACK
6
CONTINUOUS
10
1.12
20
0.462126
11
1.11699
21
0.462725
0
LINE
8
BLACK
6
CONTINUOUS
10
1.11699
20
0.462725
11
1.11443
21
0.464432
0
LINE
8
BLACK
6
CONTINUOUS
10
1.11443
20
0.464432
11
1.11273
21
0.466987
0
LINE
8
BLACK
6
CONTINUOUS
10
1.11273
20
0.466987
11
1.11213
21
0.47
0
LINE
8
BLACK
6
CONTINUOUS
10
1.11213
20
0.47
11
1.11213
21
0.53
0
LINE
8
BLACK
6
CONTINUOUS
10
1.11213
20
0.53
11
1.11273
21
0.533013
0
LINE
8
BLACK
6
CONTINUOUS
10
1.11273
20
0.533013
11
1.11443
21
0.535568
0
LINE
8
BLACK
6
CONTINUOUS
10
1.11443
20
0.535568
11
1.11699
21
0.537275
0
LINE
8
BLACK
6
CONTINUOUS
10
1.11699
20
0.537275
11
1.12
21
0.537874
0
LINE
8
BLACK
6
CONTINUOUS
10
1.12
20
0.537874
11
1.18
21
0.537874
0
LINE
8
BLACK
6
CONTINUOUS
10
1.18
20
0.537874
11
1.18301
21
0.537275
0
LINE
8
BLACK
6
CONTINUOUS
10
1.28301
20
0.537275
11
1.28557
21
0.535568
0
LINE
8
BLACK
6
CONTINUOUS
10
1.28557
20
0.535568
11
1.28727
21
0.533013
0
LINE
8
BLACK
6
CONTINUOUS
10
1.28727
20
0.533013
11
1.28787
21
0.53
0
LINE
8
BLACK
6
CONTINUOUS
10
1.28787
20
0.53
11
1.28787
21
0.47
0
LINE
8
BLACK
6
CONTINUOUS
10
1.28787
20
0.47
11
1.28727
21
0.466987
0
LINE
8
BLACK
6
CONTINUOUS
10
1.28727
20
0.466987
11
1.28557
21
0.464432
0
LINE
8
BLACK
6
CONTINUOUS
10
1.28557
20
0.464432
11
1.28301
21
0.462725
0
LINE
8
BLACK
6
CONTINUOUS
10
1.28301
20
0.462725
11
1.28
21
0.462126
0
LINE
8
BLACK
6
CONTINUOUS
10
1.28
20
0.462126
11
1.22
21
0.462126
0
LINE
8
BLACK
6
CONTINUOUS
10
1.22
20
0.462126
11
1.21699
21
0.462725
0
LINE
8
BLACK
6
CONTINUOUS
10
1.21699
20
0.462725
11
1.21443
21
0.464432
0
LINE
8
BLACK
6
CONTINUOUS
10
1.21443
20
0.464432
11
1.21273
21
0.466987
0
LINE
8
BLACK
6
CONTINUOUS
10
1.21273
20
0.466987
11
1.21213
21
0.47
0
LINE
8
BLACK
6
CONTINUOUS
10
1.21213
20
0.47
11
1.21213
21
0.53
0
LINE
8
BLACK
6
CONTINUOUS
10
1.21213
20
0.53
11
1.21273
21
0.533013
0
LINE
8
BLACK
6
CONTINUOUS
10
1.21273
20
0.533013
11
1.21443
21
0.535568
0
LINE
8
BLACK
6
CONTINUOUS
10
1.21443
20
0.535568
11
1.21699
21
0.537275
0
LINE
8
BLACK
6
CONTINUOUS
10
1.21699
20
0.537275
11
1.22
21
0.537874
0
LINE
8
BLACK
6
CONTINUOUS
10
1.22
20
0.537874
11
1.28
21
0.537874
0
LINE
8
BLACK
6
CONTINUOUS
10
1.28
20
0.537874
11
1.28301
21
0.537275
0
LINE
8
BLACK
6
CONTINUOUS
10
0.235493
20
0.707211
11
0.246196
21
0.704882
0
LINE
8
BLACK
6
CONTINUOUS
10
0.246196
20
0.704882
11
0.256459
21
0.701054
0
LINE
8
BLACK
6
CONTINUOUS
10
0.256459
20
0.701054
11
0.266073
21
0.695805
0
LINE
8
BLACK
6
CONTINUOUS
10
0.266073
20
0.695805
11
0.274842
21
0.689241
0
LINE
8
BLACK
6
CONTINUOUS
10
0.274842
20
0.689241
11
0.282587
21
0.681495
0
LINE
8
BLACK
6
CONTINUOUS
10
0.282587
20
0.681495
11
0.289151
21
0.672726
0
LINE
8
BLACK
6
CONTINUOUS
10
0.289151
20
0.672726
11
0.294401
21
0.663113
0
LINE
8
BLACK
6
CONTINUOUS
10
0.294401
20
0.663113
11
0.298229
21
0.65285
0
LINE
8
BLACK
6
CONTINUOUS
10
0.298229
20
0.65285
11
0.300557
21
0.642146
0
LINE
8
BLACK
6
CONTINUOUS
10
0.300557
20
0.642146
11
0.301339
21
0.63122
0
LINE
8
BLACK
6
CONTINUOUS
10
0.301339
20
0.63122
11
0.300557
21
0.620295
0
LINE
8
BLACK
6
CONTINUOUS
10
0.300557
20
0.620295
11
0.298229
21
0.609591
0
LINE
8
BLACK
6
CONTINUOUS
10
0.298229
20
0.609591
11
0.294401
21
0.599328
0
LINE
8
BLACK
6
CONTINUOUS
10
0.294401
20
0.599328
11
0.289151
21
0.589715
0
LINE
8
BLACK
6
CONTINUOUS
10
0.289151
20
0.589715
11
0.282587
21
0.580946
0
LINE
8
BLACK
6
CONTINUOUS
10
0.282587
20
0.580946
11
0.274842
21
0.5732
0
LINE
8
BLACK
6
CONTINUOUS
10
0.274842
20
0.5732
11
0.266073
21
0.566636
0
LINE
8
BLACK
6
CONTINUOUS
10
0.266073
20
0.566636
11
0.256459
21
0.561387
0
LINE
8
BLACK
6
CONTINUOUS
10
0.256459
20
0.561387
11
0.246196
21
0.557559
0
LINE
8
BLACK
6
CONTINUOUS
10
0.246196
20
0.557559
11
0.235493
21
0.55523
0
LINE
8
BLACK
6
CONTINUOUS
10
0.235493
20
0.55523
11
0.224567
21
0.554449
0
LINE
8
BLACK
6
CONTINUOUS
10
0.224567
20
0.554449
11
0.213641
21
0.55523
0
LINE
8
BLACK
6
CONTINUOUS
10
0.213641
20
0.55523
11
0.202938
21
0.557559
0
LINE
8
BLACK
6
CONTINUOUS
10
0.202938
20
0.557559
11
0.192675
21
0.561387
0
LINE
8
BLACK
6
CONTINUOUS
10
0.192675
20
0.561387
11
0.183061
21
0.566636
0
LINE
8
BLACK
6
CONTINUOUS
10
0.183061
20
0.566636
11
0.174292
21
0.5732
0
LINE
8
BLACK
6
CONTINUOUS
10
0.174292
20
0.5732
11
0.166547
21
0.580946
0
LINE
8
BLACK
6
CONTINUOUS
10
0.166547
20
0.580946
11
0.159983
21
0.589715
0
LINE
8
BLACK
6
CONTINUOUS
10
0.159983
20
0.589715
11
0.154733
21
0.599328
0
LINE
8
BLACK
6
CONTINUOUS
10
0.154733
20
0.599328
11
0.150905
21
0.609591
0
LINE
8
BLACK
6
CONTINUOUS
10
0.150905
20
0.609591
11
0.148577
21
0.620295
0
LINE
8
BLACK
6
CONTINUOUS
10
0.148577
20
0.620295
11
0.147795
21
0.63122
0
LINE
8
BLACK
6
CONTINUOUS
10
0.147795
20
0.63122
11
0.148577
21
0.642146
0
LINE
8
BLACK
6
CONTINUOUS
10
0.148577
20
0.642146
11
0.150905
21
0.65285
0
LINE
8
BLACK
6
CONTINUOUS
10
0.150905
20
0.65285
11
0.154733
21
0.663113
0
LINE
8
BLACK
6
CONTINUOUS
10
0.154733
20
0.663113
11
0.159983
21
0.672726
0
LINE
8
BLACK
6
CONTINUOUS
10
0.159983
20
0.672726
11
0.166547
21
0.681495
0
LINE
8
BLACK
6
CONTINUOUS
10
0.166547
20
0.681495
11
0.174292
21
0.689241
0
LINE
8
BLACK
6
CONTINUOUS
10
0.174292
20
0.689241
11
0.183061
21
0.695805
0
LINE
8
BLACK
6
CONTINUOUS
10
0.183061
20
0.695805
11
0.192675
21
0.701054
0
LINE
8
BLACK
6
CONTINUOUS
10
0.192675
20
0.701054
11
0.202938
21
0.704882
0
LINE
8
BLACK
6
CONTINUOUS
10
0.202938
20
0.704882
11
0.213641
21
0.707211
0
LINE
8
BLACK
6
CONTINUOUS
10
0.213641
20
0.707211
11
0.224567
21
0.707992
0
LINE
8
BLACK
6
CONTINUOUS
10
0.224567
20
0.707992
11
0.235493
21
0.707211
0
LINE
8
BLACK
6
CONTINUOUS
10
1.18301
20
0.637275
11
1.18557
21
0.635568
0
LINE
8
BLACK
6
CONTINUOUS
10
1.18557
20
0.635568
11
1.18727
21
0.633013
0
LINE
8
BLACK
6
CONTINUOUS
10
1.18727
20
0.633013
11
1.18787
21
0.63
0
LINE
8
BLACK
6
CONTINUOUS
10
1.18787
20
0.63
11
1.18787
21
0.57
0
LINE
8
BLACK
6
CONTINUOUS
10
1.18787
20
0.57
11
1.18727
21
0.566987
0
LINE
8
BLACK
6
CONTINUOUS
10
1.18727
20
0.566987
11
1.18557
21
0.564432
0
LINE
8
BLACK
6
CONTINUOUS
10
1.18557
20
0.564432
11
1.18301
21
0.562725
0
LINE
8
BLACK
6
CONTINUOUS
10
1.18301
20
0.562725
11
1.18
21
0.562126
0
LINE
8
BLACK
6
CONTINUOUS
10
1.18
20
0.562126
11
1.12
21
0.562126
0
LINE
8
BLACK
6
CONTINUOUS
10
1.12
20
0.562126
11
1.11699
21
0.562725
0
LINE
8
BLACK
6
CONTINUOUS
10
1.11699
20
0.562725
11
1.11443
21
0.564432
0
LINE
8
BLACK
6
CONTINUOUS
10
1.11443
20
0.564432
11
1.11273
21
0.566987
0
LINE
8
BLACK
6
CONTINUOUS
10
1.11273
20
0.566987
11
1.11213
21
0.57
0
LINE
8
BLACK
6
CONTINUOUS
10
1.11213
20
0.57
11
1.11213
21
0.63
0
LINE
8
BLACK
6
CONTINUOUS
10
1.11213
20
0.63
11
1.11273
21
0.633013
0
LINE
8
BLACK
6
CONTINUOUS
10
1.11273
20
0.633013
11
1.11443
21
0.635568
0
LINE
8
BLACK
6
CONTINUOUS
10
1.11443
20
0.635568
11
1.11699
21
0.637275
0
LINE
8
BLACK
6
CONTINUOUS
10
1.11699
20
0.637275
11
1.12
21
0.637874
0
LINE
8
BLACK
6
CONTINUOUS
10
1.12
20
0.637874
11
1.18
21
0.637874
0
LINE
8
BLACK
6
CONTINUOUS
10
1.18
20
0.637874
11
1.18301
21
0.637275
0
LINE
8
BLACK
6
CONTINUOUS
10
1.28301
20
0.637275
11
1.28557
21
0.635568
0
LINE
8
BLACK
6
CONTINUOUS
10
1.28557
20
0.635568
11
1.28727
21
0.633013
0
LINE
8
BLACK
6
CONTINUOUS
10
1.28727
20
0.633013
11
1.28787
21
0.63
0
LINE
8
BLACK
6
CONTINUOUS
10
1.28787
20
0.63
11
1.28787
21
0.57
0
LINE
8
BLACK
6
CONTINUOUS
10
1.28787
20
0.57
11
1.28727
21
0.566987
0
LINE
8
BLACK
6
CONTINUOUS
10
1.28727
20
0.566987
11
1.28557
21
0.564432
0
LINE
8
BLACK
6
CONTINUOUS
10
1.28557
20
0.564432
11
1.28301
21
0.562725
0
LINE
8
BLACK
6
CONTINUOUS
10
1.28301
20
0.562725
11
1.28
21
0.562126
0
LINE
8
BLACK
6
CONTINUOUS
10
1.28
20
0.562126
11
1.22
21
0.562126
0
LINE
8
BLACK
6
CONTINUOUS
10
1.22
20
0.562126
11
1.21699
21
0.562725
0
LINE
8
BLACK
6
CONTINUOUS
10
1.21699
20
0.562725
11
1.21443
21
0.564432
0
LINE
8
BLACK
6
CONTINUOUS
10
1.21443
20
0.564432
11
1.21273
21
0.566987
0
LINE
8
BLACK
6
CONTINUOUS
10
1.21273
20
0.566987
11
1.21213
21
0.57
0
LINE
8
BLACK
6
CONTINUOUS
10
1.21213
20
0.57
11
1.21213
21
0.63
0
LINE
8
BLACK
6
CONTINUOUS
10
1.21213
20
0.63
11
1.21273
21
0.633013
0
LINE
8
BLACK
6
CONTINUOUS
10
1.21273
20
0.633013
11
1.21443
21
0.635568
0
LINE
8
BLACK
6
CONTINUOUS
10
1.21443
20
0.635568
11
1.21699
21
0.637275
0
LINE
8
BLACK
6
CONTINUOUS
10
1.21699
20
0.637275
11
1.22
21
0.637874
0
LINE
8
BLACK
6
CONTINUOUS
10
1.22
20
0.637874
11
1.28
21
0.637874
0
LINE
8
BLACK
6
CONTINUOUS
10
1.28
20
0.637874
11
1.28301
21
0.637275
0
LINE
8
BLACK
6
CONTINUOUS
10
0.0141057
20
0.925192
11
0.0280341
21
0.922826
0
LINE
8
BLACK
6
CONTINUOUS
10
0.0280341
20
0.922826
11
0.04161
21
0.918914
0
LINE
8
BLACK
6
CONTINUOUS
10
0.04161
20
0.918914
11
0.0546625
21
0.913508
0
LINE
8
BLACK
6
CONTINUOUS
10
0.0546625
20
0.913508
11
0.0670277
21
0.906674
0
LINE
8
BLACK
6
CONTINUOUS
10
0.0670277
20
0.906674
11
0.0785499
21
0.898498
0
LINE
8
BLACK
6
CONTINUOUS
10
0.0785499
20
0.898498
11
0.0890843
21
0.889084
0
LINE
8
BLACK
6
CONTINUOUS
10
0.0890843
20
0.889084
11
0.0984985
21
0.87855
0
LINE
8
BLACK
6
CONTINUOUS
10
0.0984985
20
0.87855
11
0.106674
21
0.867028
0
LINE
8
BLACK
6
CONTINUOUS
10
0.106674
20
0.867028
11
0.113508
21
0.854663
0
LINE
8
BLACK
6
CONTINUOUS
10
0.113508
20
0.854663
11
0.118914
21
0.84161
0
LINE
8
BLACK
6
CONTINUOUS
10
0.118914
20
0.84161
11
0.122826
21
0.828034
0
LINE
8
BLACK
6
CONTINUOUS
10
0.122826
20
0.828034
11
0.125192
21
0.814106
0
LINE
8
BLACK
6
CONTINUOUS
10
0.125192
20
0.814106
11
0.125984
21
0.8
0
LINE
8
BLACK
6
CONTINUOUS
10
0.125984
20
0.8
11
0.125192
21
0.785894
0
LINE
8
BLACK
6
CONTINUOUS
10
0.125192
20
0.785894
11
0.122826
21
0.771966
0
LINE
8
BLACK
6
CONTINUOUS
10
0.122826
20
0.771966
11
0.118914
21
0.75839
0
LINE
8
BLACK
6
CONTINUOUS
10
0.118914
20
0.75839
11
0.113508
21
0.745337
0
LINE
8
BLACK
6
CONTINUOUS
10
0.113508
20
0.745337
11
0.106674
21
0.732972
0
LINE
8
BLACK
6
CONTINUOUS
10
0.106674
20
0.732972
11
0.0984985
21
0.72145
0
LINE
8
BLACK
6
CONTINUOUS
10
0.0984985
20
0.72145
11
0.0890843
21
0.710916
0
LINE
8
BLACK
6
CONTINUOUS
10
0.0890843
20
0.710916
11
0.0785499
21
0.701502
0
LINE
8
BLACK
6
CONTINUOUS
10
0.0785499
20
0.701502
11
0.0670277
21
0.693326
0
LINE
8
BLACK
6
CONTINUOUS
10
0.0670277
20
0.693326
11
0.0546625
21
0.686492
0
LINE
8
BLACK
6
CONTINUOUS
10
0.0546625
20
0.686492
11
0.04161
21
0.681086
0
LINE
8
BLACK
6
CONTINUOUS
10
0.04161
20
0.681086
11
0.0280341
21
0.677174
0
LINE
8
BLACK
6
CONTINUOUS
10
0.0280341
20
0.677174
11
0.0141057
21
0.674808
0
LINE
8
BLACK
6
CONTINUOUS
10
0.0141057
20
0.674808
11
0
21
0.674016
0
LINE
8
BLACK
6
CONTINUOUS
10
0
20
0.674016
11
-0.0141057
21
0.674808
0
LINE
8
BLACK
6
CONTINUOUS
10
-0.0141057
20
0.674808
11
-0.0280341
21
0.677174
0
LINE
8
BLACK
6
CONTINUOUS
10
-0.0280341
20
0.677174
11
-0.04161
21
0.681086
0
LINE
8
BLACK
6
CONTINUOUS
10
-0.04161
20
0.681086
11
-0.0546625
21
0.686492
0
LINE
8
BLACK
6
CONTINUOUS
10
-0.0546625
20
0.686492
11
-0.0670277
21
0.693326
0
LINE
8
BLACK
6
CONTINUOUS
10
-0.0670277
20
0.693326
11
-0.0785499
21
0.701502
0
LINE
8
BLACK
6
CONTINUOUS
10
-0.0785499
20
0.701502
11
-0.0890843
21
0.710916
0
LINE
8
BLACK
6
CONTINUOUS
10
-0.0890843
20
0.710916
11
-0.0984985
21
0.72145
0
LINE
8
BLACK
6
CONTINUOUS
10
-0.0984985
20
0.72145
11
-0.106674
21
0.732972
0
LINE
8
BLACK
6
CONTINUOUS
10
-0.106674
20
0.732972
11
-0.113508
21
0.745337
0
LINE
8
BLACK
6
CONTINUOUS
10
-0.113508
20
0.745337
11
-0.118914
21
0.75839
0
LINE
8
BLACK
6
CONTINUOUS
10
-0.118914
20
0.75839
11
-0.122826
21
0.771966
0
LINE
8
BLACK
6
CONTINUOUS
10
-0.122826
20
0.771966
11
-0.125192
21
0.785894
0
LINE
8
BLACK
6
CONTINUOUS
10
-0.125192
20
0.785894
11
-0.125984
21
0.8
0
LINE
8
BLACK
6
CONTINUOUS
10
-0.125984
20
0.8
11
-0.125192
21
0.814106
0
LINE
8
BLACK
6
CONTINUOUS
10
-0.125192
20
0.814106
11
-0.122826
21
0.828034
0
LINE
8
BLACK
6
CONTINUOUS
10
-0.122826
20
0.828034
11
-0.118914
21
0.84161
0
LINE
8
BLACK
6
CONTINUOUS
10
-0.118914
20
0.84161
11
-0.113508
21
0.854663
0
LINE
8
BLACK
6
CONTINUOUS
10
-0.113508
20
0.854663
11
-0.106674
21
0.867028
0
LINE
8
BLACK
6
CONTINUOUS
10
-0.106674
20
0.867028
11
-0.0984985
21
0.87855
0
LINE
8
BLACK
6
CONTINUOUS
10
-0.0984985
20
0.87855
11
-0.0890843
21
0.889084
0
LINE
8
BLACK
6
CONTINUOUS
10
-0.0890843
20
0.889084
11
-0.0785499
21
0.898498
0
LINE
8
BLACK
6
CONTINUOUS
10
-0.0785499
20
0.898498
11
-0.0670277
21
0.906674
0
LINE
8
BLACK
6
CONTINUOUS
10
-0.0670277
20
0.906674
11
-0.0546625
21
0.913508
0
LINE
8
BLACK
6
CONTINUOUS
10
-0.0546625
20
0.913508
11
-0.04161
21
0.918914
0
LINE
8
BLACK
6
CONTINUOUS
10
-0.04161
20
0.918914
11
-0.0280341
21
0.922826
0
LINE
8
BLACK
6
CONTINUOUS
10
-0.0280341
20
0.922826
11
-0.0141057
21
0.925192
0
LINE
8
BLACK
6
CONTINUOUS
10
-0.0141057
20
0.925192
11
0
21
0.925984
0
LINE
8
BLACK
6
CONTINUOUS
10
0
20
0.925984
11
0.0141057
21
0.925192
0
LINE
8
BLACK
6
CONTINUOUS
10
1.21411
20
0.925192
11
1.22803
21
0.922826
0
LINE
8
BLACK
6
CONTINUOUS
10
1.22803
20
0.922826
11
1.24161
21
0.918914
0
LINE
8
BLACK
6
CONTINUOUS
10
1.24161
20
0.918914
11
1.25466
21
0.913508
0
LINE
8
BLACK
6
CONTINUOUS
10
1.25466
20
0.913508
11
1.26703
21
0.906674
0
LINE
8
BLACK
6
CONTINUOUS
10
1.26703
20
0.906674
11
1.27855
21
0.898498
0
LINE
8
BLACK
6
CONTINUOUS
10
1.27855
20
0.898498
11
1.28908
21
0.889084
0
LINE
8
BLACK
6
CONTINUOUS
10
1.28908
20
0.889084
11
1.2985
21
0.87855
0
LINE
8
BLACK
6
CONTINUOUS
10
1.2985
20
0.87855
11
1.30667
21
0.867028
0
LINE
8
BLACK
6
CONTINUOUS
10
1.30667
20
0.867028
11
1.31351
21
0.854663
0
LINE
8
BLACK
6
CONTINUOUS
10
1.31351
20
0.854663
11
1.31891
21
0.84161
0
LINE
8
BLACK
6
CONTINUOUS
10
1.31891
20
0.84161
11
1.32283
21
0.828034
0
LINE
8
BLACK
6
CONTINUOUS
10
1.32283
20
0.828034
11
1.32519
21
0.814106
0
LINE
8
BLACK
6
CONTINUOUS
10
1.32519
20
0.814106
11
1.32598
21
0.8
0
LINE
8
BLACK
6
CONTINUOUS
10
1.32598
20
0.8
11
1.32519
21
0.785894
0
LINE
8
BLACK
6
CONTINUOUS
10
1.32519
20
0.785894
11
1.32283
21
0.771966
0
LINE
8
BLACK
6
CONTINUOUS
10
1.32283
20
0.771966
11
1.31891
21
0.75839
0
LINE
8
BLACK
6
CONTINUOUS
10
1.31891
20
0.75839
11
1.31351
21
0.745337
0
LINE
8
BLACK
6
CONTINUOUS
10
1.31351
20
0.745337
11
1.30667
21
0.732972
0
LINE
8
BLACK
6
CONTINUOUS
10
1.30667
20
0.732972
11
1.2985
21
0.72145
0
LINE
8
BLACK
6
CONTINUOUS
10
1.2985
20
0.72145
11
1.28908
21
0.710916
0
LINE
8
BLACK
6
CONTINUOUS
10
1.28908
20
0.710916
11
1.27855
21
0.701502
0
LINE
8
BLACK
6
CONTINUOUS
10
1.27855
20
0.701502
11
1.26703
21
0.693326
0
LINE
8
BLACK
6
CONTINUOUS
10
1.26703
20
0.693326
11
1.25466
21
0.686492
0
LINE
8
BLACK
6
CONTINUOUS
10
1.25466
20
0.686492
11
1.24161
21
0.681086
0
LINE
8
BLACK
6
CONTINUOUS
10
1.24161
20
0.681086
11
1.22803
21
0.677174
0
LINE
8
BLACK
6
CONTINUOUS
10
1.22803
20
0.677174
11
1.21411
21
0.674808
0
LINE
8
BLACK
6
CONTINUOUS
10
1.21411
20
0.674808
11
1.2
21
0.674016
0
LINE
8
BLACK
6
CONTINUOUS
10
1.2
20
0.674016
11
1.18589
21
0.674808
0
LINE
8
BLACK
6
CONTINUOUS
10
1.18589
20
0.674808
11
1.17197
21
0.677174
0
LINE
8
BLACK
6
CONTINUOUS
10
1.17197
20
0.677174
11
1.15839
21
0.681086
0
LINE
8
BLACK
6
CONTINUOUS
10
1.15839
20
0.681086
11
1.14534
21
0.686492
0
LINE
8
BLACK
6
CONTINUOUS
10
1.14534
20
0.686492
11
1.13297
21
0.693326
0
LINE
8
BLACK
6
CONTINUOUS
10
1.13297
20
0.693326
11
1.12145
21
0.701502
0
LINE
8
BLACK
6
CONTINUOUS
10
1.12145
20
0.701502
11
1.11092
21
0.710916
0
LINE
8
BLACK
6
CONTINUOUS
10
1.11092
20
0.710916
11
1.1015
21
0.72145
0
LINE
8
BLACK
6
CONTINUOUS
10
1.1015
20
0.72145
11
1.09333
21
0.732972
0
LINE
8
BLACK
6
CONTINUOUS
10
1.09333
20
0.732972
11
1.08649
21
0.745337
0
LINE
8
BLACK
6
CONTINUOUS
10
1.08649
20
0.745337
11
1.08109
21
0.75839
0
LINE
8
BLACK
6
CONTINUOUS
10
1.08109
20
0.75839
11
1.07717
21
0.771966
0
LINE
8
BLACK
6
CONTINUOUS
10
1.07717
20
0.771966
11
1.07481
21
0.785894
0
LINE
8
BLACK
6
CONTINUOUS
10
1.07481
20
0.785894
11
1.07402
21
0.8
0
LINE
8
BLACK
6
CONTINUOUS
10
1.07402
20
0.8
11
1.07481
21
0.814106
0
LINE
8
BLACK
6
CONTINUOUS
10
1.07481
20
0.814106
11
1.07717
21
0.828034
0
LINE
8
BLACK
6
CONTINUOUS
10
1.07717
20
0.828034
11
1.08109
21
0.84161
0
LINE
8
BLACK
6
CONTINUOUS
10
1.08109
20
0.84161
11
1.08649
21
0.854663
0
LINE
8
BLACK
6
CONTINUOUS
10
1.08649
20
0.854663
11
1.09333
21
0.867028
0
LINE
8
BLACK
6
CONTINUOUS
10
1.09333
20
0.867028
11
1.1015
21
0.87855
0
LINE
8
BLACK
6
CONTINUOUS
10
1.1015
20
0.87855
11
1.11092
21
0.889084
0
LINE
8
BLACK
6
CONTINUOUS
10
1.11092
20
0.889084
11
1.12145
21
0.898498
0
LINE
8
BLACK
6
CONTINUOUS
10
1.12145
20
0.898498
11
1.13297
21
0.906674
0
LINE
8
BLACK
6
CONTINUOUS
10
1.13297
20
0.906674
11
1.14534
21
0.913508
0
LINE
8
BLACK
6
CONTINUOUS
10
1.14534
20
0.913508
11
1.15839
21
0.918914
0
LINE
8
BLACK
6
CONTINUOUS
10
1.15839
20
0.918914
11
1.17197
21
0.922826
0
LINE
8
BLACK
6
CONTINUOUS
10
1.17197
20
0.922826
11
1.18589
21
0.925192
0
LINE
8
BLACK
6
CONTINUOUS
10
1.18589
20
0.925192
11
1.2
21
0.925984
0
LINE
8
BLACK
6
CONTINUOUS
10
1.2
20
0.925984
11
1.21411
21
0.925192
0
LINE
8
BLACK
6
CONTINUOUS
10
0.433013
20
0.787275
11
0.435568
21
0.785568
0
LINE
8
BLACK
6
CONTINUOUS
10
0.435568
20
0.785568
11
0.437275
21
0.783013
0
LINE
8
BLACK
6
CONTINUOUS
10
0.437275
20
0.783013
11
0.437874
21
0.78
0
LINE
8
BLACK
6
CONTINUOUS
10
0.437874
20
0.78
11
0.437874
21
0.72
0
LINE
8
BLACK
6
CONTINUOUS
10
0.437874
20
0.72
11
0.437275
21
0.716987
0
LINE
8
BLACK
6
CONTINUOUS
10
0.437275
20
0.716987
11
0.435568
21
0.714432
0
LINE
8
BLACK
6
CONTINUOUS
10
0.435568
20
0.714432
11
0.433013
21
0.712725
0
LINE
8
BLACK
6
CONTINUOUS
10
0.433013
20
0.712725
11
0.43
21
0.712126
0
LINE
8
BLACK
6
CONTINUOUS
10
0.43
20
0.712126
11
0.37
21
0.712126
0
LINE
8
BLACK
6
CONTINUOUS
10
0.37
20
0.712126
11
0.366987
21
0.712725
0
LINE
8
BLACK
6
CONTINUOUS
10
0.366987
20
0.712725
11
0.364432
21
0.714432
0
LINE
8
BLACK
6
CONTINUOUS
10
0.364432
20
0.714432
11
0.362725
21
0.716987
0
LINE
8
BLACK
6
CONTINUOUS
10
0.362725
20
0.716987
11
0.362126
21
0.72
0
LINE
8
BLACK
6
CONTINUOUS
10
0.362126
20
0.72
11
0.362126
21
0.78
0
LINE
8
BLACK
6
CONTINUOUS
10
0.362126
20
0.78
11
0.362725
21
0.783013
0
LINE
8
BLACK
6
CONTINUOUS
10
0.362725
20
0.783013
11
0.364432
21
0.785568
0
LINE
8
BLACK
6
CONTINUOUS
10
0.364432
20
0.785568
11
0.366987
21
0.787275
0
LINE
8
BLACK
6
CONTINUOUS
10
0.366987
20
0.787275
11
0.37
21
0.787874
0
LINE
8
BLACK
6
CONTINUOUS
10
0.37
20
0.787874
11
0.43
21
0.787874
0
LINE
8
BLACK
6
CONTINUOUS
10
0.43
20
0.787874
11
0.433013
21
0.787275
0
LINE
8
BLACK
6
CONTINUOUS
10
0.533013
20
0.787275
11
0.535568
21
0.785568
0
LINE
8
BLACK
6
CONTINUOUS
10
0.535568
20
0.785568
11
0.537275
21
0.783013
0
LINE
8
BLACK
6
CONTINUOUS
10
0.537275
20
0.783013
11
0.537874
21
0.78
0
LINE
8
BLACK
6
CONTINUOUS
10
0.537874
20
0.78
11
0.537874
21
0.72
0
LINE
8
BLACK
6
CONTINUOUS
10
0.537874
20
0.72
11
0.537275
21
0.716987
0
LINE
8
BLACK
6
CONTINUOUS
10
0.537275
20
0.716987
11
0.535568
21
0.714432
0
LINE
8
BLACK
6
CONTINUOUS
10
0.535568
20
0.714432
11
0.533013
21
0.712725
0
LINE
8
BLACK
6
CONTINUOUS
10
0.533013
20
0.712725
11
0.53
21
0.712126
0
LINE
8
BLACK
6
CONTINUOUS
10
0.53
20
0.712126
11
0.47
21
0.712126
0
LINE
8
BLACK
6
CONTINUOUS
10
0.47
20
0.712126
11
0.466987
21
0.712725
0
LINE
8
BLACK
6
CONTINUOUS
10
0.466987
20
0.712725
11
0.464432
21
0.714432
0
LINE
8
BLACK
6
CONTINUOUS
10
0.464432
20
0.714432
11
0.462725
21
0.716987
0
LINE
8
BLACK
6
CONTINUOUS
10
0.462725
20
0.716987
11
0.462126
21
0.72
0
LINE
8
BLACK
6
CONTINUOUS
10
0.462126
20
0.72
11
0.462126
21
0.78
0
LINE
8
BLACK
6
CONTINUOUS
10
0.462126
20
0.78
11
0.462725
21
0.783013
0
LINE
8
BLACK
6
CONTINUOUS
10
0.462725
20
0.783013
11
0.464432
21
0.785568
0
LINE
8
BLACK
6
CONTINUOUS
10
0.464432
20
0.785568
11
0.466987
21
0.787275
0
LINE
8
BLACK
6
CONTINUOUS
10
0.466987
20
0.787275
11
0.47
21
0.787874
0
LINE
8
BLACK
6
CONTINUOUS
10
0.47
20
0.787874
11
0.53
21
0.787874
0
LINE
8
BLACK
6
CONTINUOUS
10
0.53
20
0.787874
11
0.533013
21
0.787275
0
LINE
8
BLACK
6
CONTINUOUS
10
0.633013
20
0.787275
11
0.635568
21
0.785568
0
LINE
8
BLACK
6
CONTINUOUS
10
0.635568
20
0.785568
11
0.637275
21
0.783013
0
LINE
8
BLACK
6
CONTINUOUS
10
0.637275
20
0.783013
11
0.637874
21
0.78
0
LINE
8
BLACK
6
CONTINUOUS
10
0.637874
20
0.78
11
0.637874
21
0.72
0
LINE
8
BLACK
6
CONTINUOUS
10
0.637874
20
0.72
11
0.637275
21
0.716987
0
LINE
8
BLACK
6
CONTINUOUS
10
0.637275
20
0.716987
11
0.635568
21
0.714432
0
LINE
8
BLACK
6
CONTINUOUS
10
0.635568
20
0.714432
11
0.633013
21
0.712725
0
LINE
8
BLACK
6
CONTINUOUS
10
0.633013
20
0.712725
11
0.63
21
0.712126
0
LINE
8
BLACK
6
CONTINUOUS
10
0.63
20
0.712126
11
0.57
21
0.712126
0
LINE
8
BLACK
6
CONTINUOUS
10
0.57
20
0.712126
11
0.566987
21
0.712725
0
LINE
8
BLACK
6
CONTINUOUS
10
0.566987
20
0.712725
11
0.564432
21
0.714432
0
LINE
8
BLACK
6
CONTINUOUS
10
0.564432
20
0.714432
11
0.562725
21
0.716987
0
LINE
8
BLACK
6
CONTINUOUS
10
0.562725
20
0.716987
11
0.562126
21
0.72
0
LINE
8
BLACK
6
CONTINUOUS
10
0.562126
20
0.72
11
0.562126
21
0.78
0
LINE
8
BLACK
6
CONTINUOUS
10
0.562126
20
0.78
11
0.562725
21
0.783013
0
LINE
8
BLACK
6
CONTINUOUS
10
0.562725
20
0.783013
11
0.564432
21
0.785568
0
LINE
8
BLACK
6
CONTINUOUS
10
0.564432
20
0.785568
11
0.566987
21
0.787275
0
LINE
8
BLACK
6
CONTINUOUS
10
0.566987
20
0.787275
11
0.57
21
0.787874
0
LINE
8
BLACK
6
CONTINUOUS
10
0.57
20
0.787874
11
0.63
21
0.787874
0
LINE
8
BLACK
6
CONTINUOUS
10
0.63
20
0.787874
11
0.633013
21
0.787275
0
LINE
8
BLACK
6
CONTINUOUS
10
0.733013
20
0.787275
11
0.735568
21
0.785568
0
LINE
8
BLACK
6
CONTINUOUS
10
0.735568
20
0.785568
11
0.737275
21
0.783013
0
LINE
8
BLACK
6
CONTINUOUS
10
0.737275
20
0.783013
11
0.737874
21
0.78
0
LINE
8
BLACK
6
CONTINUOUS
10
0.737874
20
0.78
11
0.737874
21
0.72
0
LINE
8
BLACK
6
CONTINUOUS
10
0.737874
20
0.72
11
0.737275
21
0.716987
0
LINE
8
BLACK
6
CONTINUOUS
10
0.737275
20
0.716987
11
0.735568
21
0.714432
0
LINE
8
BLACK
6
CONTINUOUS
10
0.735568
20
0.714432
11
0.733013
21
0.712725
0
LINE
8
BLACK
6
CONTINUOUS
10
0.733013
20
0.712725
11
0.73
21
0.712126
0
LINE
8
BLACK
6
CONTINUOUS
10
0.73
20
0.712126
11
0.67
21
0.712126
0
LINE
8
BLACK
6
CONTINUOUS
10
0.67
20
0.712126
11
0.666987
21
0.712725
0
LINE
8
BLACK
6
CONTINUOUS
10
0.666987
20
0.712725
11
0.664432
21
0.714432
0
LINE
8
BLACK
6
CONTINUOUS
10
0.664432
20
0.714432
11
0.662725
21
0.716987
0
LINE
8
BLACK
6
CONTINUOUS
10
0.662725
20
0.716987
11
0.662126
21
0.72
0
LINE
8
BLACK
6
CONTINUOUS
10
0.662126
20
0.72
11
0.662126
21
0.78
0
LINE
8
BLACK
6
CONTINUOUS
10
0.662126
20
0.78
11
0.662725
21
0.783013
0
LINE
8
BLACK
6
CONTINUOUS
10
0.662725
20
0.783013
11
0.664432
21
0.785568
0
LINE
8
BLACK
6
CONTINUOUS
10
0.664432
20
0.785568
11
0.666987
21
0.787275
0
LINE
8
BLACK
6
CONTINUOUS
10
0.666987
20
0.787275
11
0.67
21
0.787874
0
LINE
8
BLACK
6
CONTINUOUS
10
0.67
20
0.787874
11
0.73
21
0.787874
0
LINE
8
BLACK
6
CONTINUOUS
10
0.73
20
0.787874
11
0.733013
21
0.787275
0
LINE
8
BLACK
6
CONTINUOUS
10
0.833013
20
0.787275
11
0.835568
21
0.785568
0
LINE
8
BLACK
6
CONTINUOUS
10
0.835568
20
0.785568
11
0.837275
21
0.783013
0
LINE
8
BLACK
6
CONTINUOUS
10
0.837275
20
0.783013
11
0.837874
21
0.78
0
LINE
8
BLACK
6
CONTINUOUS
10
0.837874
20
0.78
11
0.837874
21
0.72
0
LINE
8
BLACK
6
CONTINUOUS
10
0.837874
20
0.72
11
0.837275
21
0.716987
0
LINE
8
BLACK
6
CONTINUOUS
10
0.837275
20
0.716987
11
0.835568
21
0.714432
0
LINE
8
BLACK
6
CONTINUOUS
10
0.835568
20
0.714432
11
0.833013
21
0.712725
0
LINE
8
BLACK
6
CONTINUOUS
10
0.833013
20
0.712725
11
0.83
21
0.712126
0
LINE
8
BLACK
6
CONTINUOUS
10
0.83
20
0.712126
11
0.77
21
0.712126
0
LINE
8
BLACK
6
CONTINUOUS
10
0.77
20
0.712126
11
0.766987
21
0.712725
0
LINE
8
BLACK
6
CONTINUOUS
10
0.766987
20
0.712725
11
0.764432
21
0.714432
0
LINE
8
BLACK
6
CONTINUOUS
10
0.764432
20
0.714432
11
0.762725
21
0.716987
0
LINE
8
BLACK
6
CONTINUOUS
10
0.762725
20
0.716987
11
0.762126
21
0.72
0
LINE
8
BLACK
6
CONTINUOUS
10
0.762126
20
0.72
11
0.762126
21
0.78
0
LINE
8
BLACK
6
CONTINUOUS
10
0.762126
20
0.78
11
0.762725
21
0.783013
0
LINE
8
BLACK
6
CONTINUOUS
10
0.762725
20
0.783013
11
0.764432
21
0.785568
0
LINE
8
BLACK
6
CONTINUOUS
10
0.764432
20
0.785568
11
0.766987
21
0.787275
0
LINE
8
BLACK
6
CONTINUOUS
10
0.766987
20
0.787275
11
0.77
21
0.787874
0
LINE
8
BLACK
6
CONTINUOUS
10
0.77
20
0.787874
11
0.83
21
0.787874
0
LINE
8
BLACK
6
CONTINUOUS
10
0.83
20
0.787874
11
0.833013
21
0.787275
0
LINE
8
BLACK
6
CONTINUOUS
10
0.933013
20
0.787275
11
0.935568
21
0.785568
0
LINE
8
BLACK
6
CONTINUOUS
10
0.935568
20
0.785568
11
0.937275
21
0.783013
0
LINE
8
BLACK
6
CONTINUOUS
10
0.937275
20
0.783013
11
0.937874
21
0.78
0
LINE
8
BLACK
6
CONTINUOUS
10
0.937874
20
0.78
11
0.937874
21
0.72
0
LINE
8
BLACK
6
CONTINUOUS
10
0.937874
20
0.72
11
0.937275
21
0.716987
0
LINE
8
BLACK
6
CONTINUOUS
10
0.937275
20
0.716987
11
0.935568
21
0.714432
0
LINE
8
BLACK
6
CONTINUOUS
10
0.935568
20
0.714432
11
0.933013
21
0.712725
0
LINE
8
BLACK
6
CONTINUOUS
10
0.933013
20
0.712725
11
0.93
21
0.712126
0
LINE
8
BLACK
6
CONTINUOUS
10
0.93
20
0.712126
11
0.87
21
0.712126
0
LINE
8
BLACK
6
CONTINUOUS
10
0.87
20
0.712126
11
0.866987
21
0.712725
0
LINE
8
BLACK
6
CONTINUOUS
10
0.866987
20
0.712725
11
0.864432
21
0.714432
0
LINE
8
BLACK
6
CONTINUOUS
10
0.864432
20
0.714432
11
0.862725
21
0.716987
0
LINE
8
BLACK
6
CONTINUOUS
10
0.862725
20
0.716987
11
0.862126
21
0.72
0
LINE
8
BLACK
6
CONTINUOUS
10
0.862126
20
0.72
11
0.862126
21
0.78
0
LINE
8
BLACK
6
CONTINUOUS
10
0.862126
20
0.78
11
0.862725
21
0.783013
0
LINE
8
BLACK
6
CONTINUOUS
10
0.862725
20
0.783013
11
0.864432
21
0.785568
0
LINE
8
BLACK
6
CONTINUOUS
10
0.864432
20
0.785568
11
0.866987
21
0.787275
0
LINE
8
BLACK
6
CONTINUOUS
10
0.866987
20
0.787275
11
0.87
21
0.787874
0
LINE
8
BLACK
6
CONTINUOUS
10
0.87
20
0.787874
11
0.93
21
0.787874
0
LINE
8
BLACK
6
CONTINUOUS
10
0.93
20
0.787874
11
0.933013
21
0.787275
0
LINE
8
BLACK
6
CONTINUOUS
10
1.03301
20
0.787275
11
1.03557
21
0.785568
0
LINE
8
BLACK
6
CONTINUOUS
10
1.03557
20
0.785568
11
1.03727
21
0.783013
0
LINE
8
BLACK
6
CONTINUOUS
10
1.03727
20
0.783013
11
1.03787
21
0.78
0
LINE
8
BLACK
6
CONTINUOUS
10
1.03787
20
0.78
11
1.03787
21
0.72
0
LINE
8
BLACK
6
CONTINUOUS
10
1.03787
20
0.72
11
1.03727
21
0.716987
0
LINE
8
BLACK
6
CONTINUOUS
10
1.03727
20
0.716987
11
1.03557
21
0.714432
0
LINE
8
BLACK
6
CONTINUOUS
10
1.03557
20
0.714432
11
1.03301
21
0.712725
0
LINE
8
BLACK
6
CONTINUOUS
10
1.03301
20
0.712725
11
1.03
21
0.712126
0
LINE
8
BLACK
6
CONTINUOUS
10
1.03
20
0.712126
11
0.97
21
0.712126
0
LINE
8
BLACK
6
CONTINUOUS
10
0.97
20
0.712126
11
0.966987
21
0.712725
0
LINE
8
BLACK
6
CONTINUOUS
10
0.966987
20
0.712725
11
0.964432
21
0.714432
0
LINE
8
BLACK
6
CONTINUOUS
10
0.964432
20
0.714432
11
0.962725
21
0.716987
0
LINE
8
BLACK
6
CONTINUOUS
10
0.962725
20
0.716987
11
0.962126
21
0.72
0
LINE
8
BLACK
6
CONTINUOUS
10
0.962126
20
0.72
11
0.962126
21
0.78
0
LINE
8
BLACK
6
CONTINUOUS
10
0.962126
20
0.78
11
0.962725
21
0.783013
0
LINE
8
BLACK
6
CONTINUOUS
10
0.962725
20
0.783013
11
0.964432
21
0.785568
0
LINE
8
BLACK
6
CONTINUOUS
10
0.964432
20
0.785568
11
0.966987
21
0.787275
0
LINE
8
BLACK
6
CONTINUOUS
10
0.966987
20
0.787275
11
0.97
21
0.787874
0
LINE
8
BLACK
6
CONTINUOUS
10
0.97
20
0.787874
11
1.03
21
0.787874
0
LINE
8
BLACK
6
CONTINUOUS
10
1.03
20
0.787874
11
1.03301
21
0.787275
0
LINE
8
BLACK
6
CONTINUOUS
10
0.259229
20
0.852342
11
0.268178
21
0.849944
0
LINE
8
BLACK
6
CONTINUOUS
10
0.268178
20
0.849944
11
0.276575
21
0.846029
0
LINE
8
BLACK
6
CONTINUOUS
10
0.276575
20
0.846029
11
0.284164
21
0.840715
0
LINE
8
BLACK
6
CONTINUOUS
10
0.284164
20
0.840715
11
0.290715
21
0.834164
0
LINE
8
BLACK
6
CONTINUOUS
10
0.290715
20
0.834164
11
0.296029
21
0.826575
0
LINE
8
BLACK
6
CONTINUOUS
10
0.296029
20
0.826575
11
0.299944
21
0.818178
0
LINE
8
BLACK
6
CONTINUOUS
10
0.299944
20
0.818178
11
0.302342
21
0.809229
0
LINE
8
BLACK
6
CONTINUOUS
10
0.302342
20
0.809229
11
0.30315
21
0.8
0
LINE
8
BLACK
6
CONTINUOUS
10
0.30315
20
0.8
11
0.302342
21
0.790771
0
LINE
8
BLACK
6
CONTINUOUS
10
0.302342
20
0.790771
11
0.299944
21
0.781822
0
LINE
8
BLACK
6
CONTINUOUS
10
0.299944
20
0.781822
11
0.296029
21
0.773425
0
LINE
8
BLACK
6
CONTINUOUS
10
0.296029
20
0.773425
11
0.290715
21
0.765836
0
LINE
8
BLACK
6
CONTINUOUS
10
0.290715
20
0.765836
11
0.284164
21
0.759285
0
LINE
8
BLACK
6
CONTINUOUS
10
0.284164
20
0.759285
11
0.276575
21
0.753971
0
LINE
8
BLACK
6
CONTINUOUS
10
0.276575
20
0.753971
11
0.268178
21
0.750056
0
LINE
8
BLACK
6
CONTINUOUS
10
0.268178
20
0.750056
11
0.259229
21
0.747658
0
LINE
8
BLACK
6
CONTINUOUS
10
0.259229
20
0.747658
11
0.25
21
0.74685
0
LINE
8
BLACK
6
CONTINUOUS
10
0.25
20
0.74685
11
0.240771
21
0.747658
0
LINE
8
BLACK
6
CONTINUOUS
10
0.240771
20
0.747658
11
0.231822
21
0.750056
0
LINE
8
BLACK
6
CONTINUOUS
10
0.231822
20
0.750056
11
0.223425
21
0.753971
0
LINE
8
BLACK
6
CONTINUOUS
10
0.223425
20
0.753971
11
0.215836
21
0.759285
0
LINE
8
BLACK
6
CONTINUOUS
10
0.215836
20
0.759285
11
0.209285
21
0.765836
0
LINE
8
BLACK
6
CONTINUOUS
10
0.209285
20
0.765836
11
0.203971
21
0.773425
0
LINE
8
BLACK
6
CONTINUOUS
10
0.203971
20
0.773425
11
0.200056
21
0.781822
0
LINE
8
BLACK
6
CONTINUOUS
10
0.200056
20
0.781822
11
0.197658
21
0.790771
0
LINE
8
BLACK
6
CONTINUOUS
10
0.197658
20
0.790771
11
0.19685
21
0.8
0
LINE
8
BLACK
6
CONTINUOUS
10
0.19685
20
0.8
11
0.197658
21
0.809229
0
LINE
8
BLACK
6
CONTINUOUS
10
0.197658
20
0.809229
11
0.200056
21
0.818178
0
LINE
8
BLACK
6
CONTINUOUS
10
0.200056
20
0.818178
11
0.203971
21
0.826575
0
LINE
8
BLACK
6
CONTINUOUS
10
0.203971
20
0.826575
11
0.209285
21
0.834164
0
LINE
8
BLACK
6
CONTINUOUS
10
0.209285
20
0.834164
11
0.215836
21
0.840715
0
LINE
8
BLACK
6
CONTINUOUS
10
0.215836
20
0.840715
11
0.223425
21
0.846029
0
LINE
8
BLACK
6
CONTINUOUS
10
0.223425
20
0.846029
11
0.231822
21
0.849944
0
LINE
8
BLACK
6
CONTINUOUS
10
0.231822
20
0.849944
11
0.240771
21
0.852342
0
LINE
8
BLACK
6
CONTINUOUS
10
0.240771
20
0.852342
11
0.25
21
0.85315
0
LINE
8
BLACK
6
CONTINUOUS
10
0.25
20
0.85315
11
0.259229
21
0.852342
0
LINE
8
BLACK
6
CONTINUOUS
10
0.433013
20
0.887275
11
0.435568
21
0.885568
0
LINE
8
BLACK
6
CONTINUOUS
10
0.435568
20
0.885568
11
0.437275
21
0.883013
0
LINE
8
BLACK
6
CONTINUOUS
10
0.437275
20
0.883013
11
0.437874
21
0.88
0
LINE
8
BLACK
6
CONTINUOUS
10
0.437874
20
0.88
11
0.437874
21
0.82
0
LINE
8
BLACK
6
CONTINUOUS
10
0.437874
20
0.82
11
0.437275
21
0.816987
0
LINE
8
BLACK
6
CONTINUOUS
10
0.437275
20
0.816987
11
0.435568
21
0.814432
0
LINE
8
BLACK
6
CONTINUOUS
10
0.435568
20
0.814432
11
0.433013
21
0.812725
0
LINE
8
BLACK
6
CONTINUOUS
10
0.433013
20
0.812725
11
0.43
21
0.812126
0
LINE
8
BLACK
6
CONTINUOUS
10
0.43
20
0.812126
11
0.37
21
0.812126
0
LINE
8
BLACK
6
CONTINUOUS
10
0.37
20
0.812126
11
0.366987
21
0.812725
0
LINE
8
BLACK
6
CONTINUOUS
10
0.366987
20
0.812725
11
0.364432
21
0.814432
0
LINE
8
BLACK
6
CONTINUOUS
10
0.364432
20
0.814432
11
0.362725
21
0.816987
0
LINE
8
BLACK
6
CONTINUOUS
10
0.362725
20
0.816987
11
0.362126
21
0.82
0
LINE
8
BLACK
6
CONTINUOUS
10
0.362126
20
0.82
11
0.362126
21
0.88
0
LINE
8
BLACK
6
CONTINUOUS
10
0.362126
20
0.88
11
0.362725
21
0.883013
0
LINE
8
BLACK
6
CONTINUOUS
10
0.362725
20
0.883013
11
0.364432
21
0.885568
0
LINE
8
BLACK
6
CONTINUOUS
10
0.364432
20
0.885568
11
0.366987
21
0.887275
0
LINE
8
BLACK
6
CONTINUOUS
10
0.366987
20
0.887275
11
0.37
21
0.887874
0
LINE
8
BLACK
6
CONTINUOUS
10
0.37
20
0.887874
11
0.43
21
0.887874
0
LINE
8
BLACK
6
CONTINUOUS
10
0.43
20
0.887874
11
0.433013
21
0.887275
0
LINE
8
BLACK
6
CONTINUOUS
10
0.533013
20
0.887275
11
0.535568
21
0.885568
0
LINE
8
BLACK
6
CONTINUOUS
10
0.535568
20
0.885568
11
0.537275
21
0.883013
0
LINE
8
BLACK
6
CONTINUOUS
10
0.537275
20
0.883013
11
0.537874
21
0.88
0
LINE
8
BLACK
6
CONTINUOUS
10
0.537874
20
0.88
11
0.537874
21
0.82
0
LINE
8
BLACK
6
CONTINUOUS
10
0.537874
20
0.82
11
0.537275
21
0.816987
0
LINE
8
BLACK
6
CONTINUOUS
10
0.537275
20
0.816987
11
0.535568
21
0.814432
0
LINE
8
BLACK
6
CONTINUOUS
10
0.535568
20
0.814432
11
0.533013
21
0.812725
0
LINE
8
BLACK
6
CONTINUOUS
10
0.533013
20
0.812725
11
0.53
21
0.812126
0
LINE
8
BLACK
6
CONTINUOUS
10
0.53
20
0.812126
11
0.47
21
0.812126
0
LINE
8
BLACK
6
CONTINUOUS
10
0.47
20
0.812126
11
0.466987
21
0.812725
0
LINE
8
BLACK
6
CONTINUOUS
10
0.466987
20
0.812725
11
0.464432
21
0.814432
0
LINE
8
BLACK
6
CONTINUOUS
10
0.464432
20
0.814432
11
0.462725
21
0.816987
0
LINE
8
BLACK
6
CONTINUOUS
10
0.462725
20
0.816987
11
0.462126
21
0.82
0
LINE
8
BLACK
6
CONTINUOUS
10
0.462126
20
0.82
11
0.462126
21
0.88
0
LINE
8
BLACK
6
CONTINUOUS
10
0.462126
20
0.88
11
0.462725
21
0.883013
0
LINE
8
BLACK
6
CONTINUOUS
10
0.462725
20
0.883013
11
0.464432
21
0.885568
0
LINE
8
BLACK
6
CONTINUOUS
10
0.464432
20
0.885568
11
0.466987
21
0.887275
0
LINE
8
BLACK
6
CONTINUOUS
10
0.466987
20
0.887275
11
0.47
21
0.887874
0
LINE
8
BLACK
6
CONTINUOUS
10
0.47
20
0.887874
11
0.53
21
0.887874
0
LINE
8
BLACK
6
CONTINUOUS
10
0.53
20
0.887874
11
0.533013
21
0.887275
0
LINE
8
BLACK
6
CONTINUOUS
10
0.633013
20
0.887275
11
0.635568
21
0.885568
0
LINE
8
BLACK
6
CONTINUOUS
10
0.635568
20
0.885568
11
0.637275
21
0.883013
0
LINE
8
BLACK
6
CONTINUOUS
10
0.637275
20
0.883013
11
0.637874
21
0.88
0
LINE
8
BLACK
6
CONTINUOUS
10
0.637874
20
0.88
11
0.637874
21
0.82
0
LINE
8
BLACK
6
CONTINUOUS
10
0.637874
20
0.82
11
0.637275
21
0.816987
0
LINE
8
BLACK
6
CONTINUOUS
10
0.637275
20
0.816987
11
0.635568
21
0.814432
0
LINE
8
BLACK
6
CONTINUOUS
10
0.635568
20
0.814432
11
0.633013
21
0.812725
0
LINE
8
BLACK
6
CONTINUOUS
10
0.633013
20
0.812725
11
0.63
21
0.812126
0
LINE
8
BLACK
6
CONTINUOUS
10
0.63
20
0.812126
11
0.57
21
0.812126
0
LINE
8
BLACK
6
CONTINUOUS
10
0.57
20
0.812126
11
0.566987
21
0.812725
0
LINE
8
BLACK
6
CONTINUOUS
10
0.566987
20
0.812725
11
0.564432
21
0.814432
0
LINE
8
BLACK
6
CONTINUOUS
10
0.564432
20
0.814432
11
0.562725
21
0.816987
0
LINE
8
BLACK
6
CONTINUOUS
10
0.562725
20
0.816987
11
0.562126
21
0.82
0
LINE
8
BLACK
6
CONTINUOUS
10
0.562126
20
0.82
11
0.562126
21
0.88
0
LINE
8
BLACK
6
CONTINUOUS
10
0.562126
20
0.88
11
0.562725
21
0.883013
0
LINE
8
BLACK
6
CONTINUOUS
10
0.562725
20
0.883013
11
0.564432
21
0.885568
0
LINE
8
BLACK
6
CONTINUOUS
10
0.564432
20
0.885568
11
0.566987
21
0.887275
0
LINE
8
BLACK
6
CONTINUOUS
10
0.566987
20
0.887275
11
0.57
21
0.887874
0
LINE
8
BLACK
6
CONTINUOUS
10
0.57
20
0.887874
11
0.63
21
0.887874
0
LINE
8
BLACK
6
CONTINUOUS
10
0.63
20
0.887874
11
0.633013
21
0.887275
0
LINE
8
BLACK
6
CONTINUOUS
10
0.733013
20
0.887275
11
0.735568
21
0.885568
0
LINE
8
BLACK
6
CONTINUOUS
10
0.735568
20
0.885568
11
0.737275
21
0.883013
0
LINE
8
BLACK
6
CONTINUOUS
10
0.737275
20
0.883013
11
0.737874
21
0.88
0
LINE
8
BLACK
6
CONTINUOUS
10
0.737874
20
0.88
11
0.737874
21
0.82
0
LINE
8
BLACK
6
CONTINUOUS
10
0.737874
20
0.82
11
0.737275
21
0.816987
0
LINE
8
BLACK
6
CONTINUOUS
10
0.737275
20
0.816987
11
0.735568
21
0.814432
0
LINE
8
BLACK
6
CONTINUOUS
10
0.735568
20
0.814432
11
0.733013
21
0.812725
0
LINE
8
BLACK
6
CONTINUOUS
10
0.733013
20
0.812725
11
0.73
21
0.812126
0
LINE
8
BLACK
6
CONTINUOUS
10
0.73
20
0.812126
11
0.67
21
0.812126
0
LINE
8
BLACK
6
CONTINUOUS
10
0.67
20
0.812126
11
0.666987
21
0.812725
0
LINE
8
BLACK
6
CONTINUOUS
10
0.666987
20
0.812725
11
0.664432
21
0.814432
0
LINE
8
BLACK
6
CONTINUOUS
10
0.664432
20
0.814432
11
0.662725
21
0.816987
0
LINE
8
BLACK
6
CONTINUOUS
10
0.662725
20
0.816987
11
0.662126
21
0.82
0
LINE
8
BLACK
6
CONTINUOUS
10
0.662126
20
0.82
11
0.662126
21
0.88
0
LINE
8
BLACK
6
CONTINUOUS
10
0.662126
20
0.88
11
0.662725
21
0.883013
0
LINE
8
BLACK
6
CONTINUOUS
10
0.662725
20
0.883013
11
0.664432
21
0.885568
0
LINE
8
BLACK
6
CONTINUOUS
10
0.664432
20
0.885568
11
0.666987
21
0.887275
0
LINE
8
BLACK
6
CONTINUOUS
10
0.666987
20
0.887275
11
0.67
21
0.887874
0
LINE
8
BLACK
6
CONTINUOUS
10
0.67
20
0.887874
11
0.73
21
0.887874
0
LINE
8
BLACK
6
CONTINUOUS
10
0.73
20
0.887874
11
0.733013
21
0.887275
0
LINE
8
BLACK
6
CONTINUOUS
10
0.833013
20
0.887275
11
0.835568
21
0.885568
0
LINE
8
BLACK
6
CONTINUOUS
10
0.835568
20
0.885568
11
0.837275
21
0.883013
0
LINE
8
BLACK
6
CONTINUOUS
10
0.837275
20
0.883013
11
0.837874
21
0.88
0
LINE
8
BLACK
6
CONTINUOUS
10
0.837874
20
0.88
11
0.837874
21
0.82
0
LINE
8
BLACK
6
CONTINUOUS
10
0.837874
20
0.82
11
0.837275
21
0.816987
0
LINE
8
BLACK
6
CONTINUOUS
10
0.837275
20
0.816987
11
0.835568
21
0.814432
0
LINE
8
BLACK
6
CONTINUOUS
10
0.835568
20
0.814432
11
0.833013
21
0.812725
0
LINE
8
BLACK
6
CONTINUOUS
10
0.833013
20
0.812725
11
0.83
21
0.812126
0
LINE
8
BLACK
6
CONTINUOUS
10
0.83
20
0.812126
11
0.77
21
0.812126
0
LINE
8
BLACK
6
CONTINUOUS
10
0.77
20
0.812126
11
0.766987
21
0.812725
0
LINE
8
BLACK
6
CONTINUOUS
10
0.766987
20
0.812725
11
0.764432
21
0.814432
0
LINE
8
BLACK
6
CONTINUOUS
10
0.764432
20
0.814432
11
0.762725
21
0.816987
0
LINE
8
BLACK
6
CONTINUOUS
10
0.762725
20
0.816987
11
0.762126
21
0.82
0
LINE
8
BLACK
6
CONTINUOUS
10
0.762126
20
0.82
11
0.762126
21
0.88
0
LINE
8
BLACK
6
CONTINUOUS
10
0.762126
20
0.88
11
0.762725
21
0.883013
0
LINE
8
BLACK
6
CONTINUOUS
10
0.762725
20
0.883013
11
0.764432
21
0.885568
0
LINE
8
BLACK
6
CONTINUOUS
10
0.764432
20
0.885568
11
0.766987
21
0.887275
0
LINE
8
BLACK
6
CONTINUOUS
10
0.766987
20
0.887275
11
0.77
21
0.887874
0
LINE
8
BLACK
6
CONTINUOUS
10
0.77
20
0.887874
11
0.83
21
0.887874
0
LINE
8
BLACK
6
CONTINUOUS
10
0.83
20
0.887874
11
0.833013
21
0.887275
0
LINE
8
BLACK
6
CONTINUOUS
10
0.933013
20
0.887275
11
0.935568
21
0.885568
0
LINE
8
BLACK
6
CONTINUOUS
10
0.935568
20
0.885568
11
0.937275
21
0.883013
0
LINE
8
BLACK
6
CONTINUOUS
10
0.937275
20
0.883013
11
0.937874
21
0.88
0
LINE
8
BLACK
6
CONTINUOUS
10
0.937874
20
0.88
11
0.937874
21
0.82
0
LINE
8
BLACK
6
CONTINUOUS
10
0.937874
20
0.82
11
0.937275
21
0.816987
0
LINE
8
BLACK
6
CONTINUOUS
10
0.937275
20
0.816987
11
0.935568
21
0.814432
0
LINE
8
BLACK
6
CONTINUOUS
10
0.935568
20
0.814432
11
0.933013
21
0.812725
0
LINE
8
BLACK
6
CONTINUOUS
10
0.933013
20
0.812725
11
0.93
21
0.812126
0
LINE
8
BLACK
6
CONTINUOUS
10
0.93
20
0.812126
11
0.87
21
0.812126
0
LINE
8
BLACK
6
CONTINUOUS
10
0.87
20
0.812126
11
0.866987
21
0.812725
0
LINE
8
BLACK
6
CONTINUOUS
10
0.866987
20
0.812725
11
0.864432
21
0.814432
0
LINE
8
BLACK
6
CONTINUOUS
10
0.864432
20
0.814432
11
0.862725
21
0.816987
0
LINE
8
BLACK
6
CONTINUOUS
10
0.862725
20
0.816987
11
0.862126
21
0.82
0
LINE
8
BLACK
6
CONTINUOUS
10
0.862126
20
0.82
11
0.862126
21
0.88
0
LINE
8
BLACK
6
CONTINUOUS
10
0.862126
20
0.88
11
0.862725
21
0.883013
0
LINE
8
BLACK
6
CONTINUOUS
10
0.862725
20
0.883013
11
0.864432
21
0.885568
0
LINE
8
BLACK
6
CONTINUOUS
10
0.864432
20
0.885568
11
0.866987
21
0.887275
0
LINE
8
BLACK
6
CONTINUOUS
10
0.866987
20
0.887275
11
0.87
21
0.887874
0
LINE
8
BLACK
6
CONTINUOUS
10
0.87
20
0.887874
11
0.93
21
0.887874
0
LINE
8
BLACK
6
CONTINUOUS
10
0.93
20
0.887874
11
0.933013
21
0.887275
0
LINE
8
BLACK
6
CONTINUOUS
10
1.03301
20
0.887275
11
1.03557
21
0.885568
0
LINE
8
BLACK
6
CONTINUOUS
10
1.03557
20
0.885568
11
1.03727
21
0.883013
0
LINE
8
BLACK
6
CONTINUOUS
10
1.03727
20
0.883013
11
1.03787
21
0.88
0
LINE
8
BLACK
6
CONTINUOUS
10
1.03787
20
0.88
11
1.03787
21
0.82
0
LINE
8
BLACK
6
CONTINUOUS
10
1.03787
20
0.82
11
1.03727
21
0.816987
0
LINE
8
BLACK
6
CONTINUOUS
10
1.03727
20
0.816987
11
1.03557
21
0.814432
0
LINE
8
BLACK
6
CONTINUOUS
10
1.03557
20
0.814432
11
1.03301
21
0.812725
0
LINE
8
BLACK
6
CONTINUOUS
10
1.03301
20
0.812725
11
1.03
21
0.812126
0
LINE
8
BLACK
6
CONTINUOUS
10
1.03
20
0.812126
11
0.97
21
0.812126
0
LINE
8
BLACK
6
CONTINUOUS
10
0.97
20
0.812126
11
0.966987
21
0.812725
0
LINE
8
BLACK
6
CONTINUOUS
10
0.966987
20
0.812725
11
0.964432
21
0.814432
0
LINE
8
BLACK
6
CONTINUOUS
10
0.964432
20
0.814432
11
0.962725
21
0.816987
0
LINE
8
BLACK
6
CONTINUOUS
10
0.962725
20
0.816987
11
0.962126
21
0.82
0
LINE
8
BLACK
6
CONTINUOUS
10
0.962126
20
0.82
11
0.962126
21
0.88
0
LINE
8
BLACK
6
CONTINUOUS
10
0.962126
20
0.88
11
0.962725
21
0.883013
0
LINE
8
BLACK
6
CONTINUOUS
10
0.962725
20
0.883013
11
0.964432
21
0.885568
0
LINE
8
BLACK
6
CONTINUOUS
10
0.964432
20
0.885568
11
0.966987
21
0.887275
0
LINE
8
BLACK
6
CONTINUOUS
10
0.966987
20
0.887275
11
0.97
21
0.887874
0
LINE
8
BLACK
6
CONTINUOUS
10
0.97
20
0.887874
11
1.03
21
0.887874
0
LINE
8
BLACK
6
CONTINUOUS
10
1.03
20
0.887874
11
1.03301
21
0.887275
  0
ENDSEC
  0
EOF
