  0
SECTION
  2
HEADER
  9
$ANGBASE
  50
0.0
  9
$ANGDIR
  70
1
  9
$MEASUREMENT
  70
0
  0
ENDSEC
  0
SECTION
  2
TABLES
  0
TABLE
  2
LTYPE
  70
4
  0
LTYPE
  5
40F
  2
CONTINUOUS
  70
0
  3
Solid line
  72
65
  73
0
  40
0.0
  0
LTYPE
  5
410
  2
DASHDOT
 70
0
  3
Dash Dot ____ _ ____ _
 72
65
 73
4
 40
2.0
 49
1.25
 49
-0.25
 49
0.25
 49
-0.25
  0
LTYPE
  5
411
  2
DASHED
 70
0
  3
Dashed __ __ __ __ __
 72
65
 73
2
 40
0.75
 49
0.5
 49
-0.25
  0
LTYPE
  5
43B
  2
DOTTED
 70
0
  3
Dotted .  .  .  .
 72
65
 73
2
 40
0.2
 49
0.0
 49
-0.2
  0
ENDTAB
  0
TABLE
  2
STYLE
  70
4
  0
STYLE
  2
KICAD
  70
0
  40
0
  41
1
  42
1
  50
0
  71
0
  3
isocp.shx
  0
STYLE
  2
KICADB
  70
0
  40
0
  41
1
  42
1
  50
0
  71
0
  3
isocp.shx
  0
STYLE
  2
KICADI
  70
0
  40
0
  41
1
  42
1
  50
15
  71
0
  3
isocp.shx
  0
STYLE
  2
KICADBI
  70
0
  40
0
  41
1
  42
1
  50
15
  71
0
  3
isocp.shx
  0
ENDTAB
  0
TABLE
  2
LAYER
  70
1
  0
LAYER
  2
BLACK
  70
0
  62
7
  6
CONTINUOUS
  0
ENDTAB
  0
ENDSEC
  0
SECTION
  2
ENTITIES
0
LINE
8
BLACK
6
CONTINUOUS
10
0.250601
20
-0.0840595
11
0.251878
21
-0.084913
0
LINE
8
BLACK
6
CONTINUOUS
10
0.251878
20
-0.084913
11
0.252732
21
-0.0861902
0
LINE
8
BLACK
6
CONTINUOUS
10
0.252732
20
-0.0861902
11
0.253031
21
-0.0876969
0
LINE
8
BLACK
6
CONTINUOUS
10
0.253031
20
-0.0876969
11
0.253031
21
-0.142697
0
LINE
8
BLACK
6
CONTINUOUS
10
0.253031
20
-0.142697
11
0.252732
21
-0.144203
0
LINE
8
BLACK
6
CONTINUOUS
10
0.252732
20
-0.144203
11
0.251878
21
-0.145481
0
LINE
8
BLACK
6
CONTINUOUS
10
0.251878
20
-0.145481
11
0.250601
21
-0.146334
0
LINE
8
BLACK
6
CONTINUOUS
10
0.250601
20
-0.146334
11
0.249094
21
-0.146634
0
LINE
8
BLACK
6
CONTINUOUS
10
0.249094
20
-0.146634
11
0.214094
21
-0.146634
0
LINE
8
BLACK
6
CONTINUOUS
10
0.214094
20
-0.146634
11
0.212588
21
-0.146334
0
LINE
8
BLACK
6
CONTINUOUS
10
0.212588
20
-0.146334
11
0.211311
21
-0.145481
0
LINE
8
BLACK
6
CONTINUOUS
10
0.211311
20
-0.145481
11
0.210457
21
-0.144203
0
LINE
8
BLACK
6
CONTINUOUS
10
0.210457
20
-0.144203
11
0.210157
21
-0.142697
0
LINE
8
BLACK
6
CONTINUOUS
10
0.210157
20
-0.142697
11
0.210157
21
-0.0876969
0
LINE
8
BLACK
6
CONTINUOUS
10
0.210157
20
-0.0876969
11
0.210457
21
-0.0861902
0
LINE
8
BLACK
6
CONTINUOUS
10
0.210457
20
-0.0861902
11
0.211311
21
-0.084913
0
LINE
8
BLACK
6
CONTINUOUS
10
0.211311
20
-0.084913
11
0.212588
21
-0.0840595
0
LINE
8
BLACK
6
CONTINUOUS
10
0.212588
20
-0.0840595
11
0.214094
21
-0.0837598
0
LINE
8
BLACK
6
CONTINUOUS
10
0.214094
20
-0.0837598
11
0.249094
21
-0.0837598
0
LINE
8
BLACK
6
CONTINUOUS
10
0.249094
20
-0.0837598
11
0.250601
21
-0.0840595
0
LINE
8
BLACK
6
CONTINUOUS
10
0.325601
20
-0.0840595
11
0.326878
21
-0.084913
0
LINE
8
BLACK
6
CONTINUOUS
10
0.326878
20
-0.084913
11
0.327732
21
-0.0861902
0
LINE
8
BLACK
6
CONTINUOUS
10
0.327732
20
-0.0861902
11
0.328031
21
-0.0876969
0
LINE
8
BLACK
6
CONTINUOUS
10
0.328031
20
-0.0876969
11
0.328031
21
-0.142697
0
LINE
8
BLACK
6
CONTINUOUS
10
0.328031
20
-0.142697
11
0.327732
21
-0.144203
0
LINE
8
BLACK
6
CONTINUOUS
10
0.327732
20
-0.144203
11
0.326878
21
-0.145481
0
LINE
8
BLACK
6
CONTINUOUS
10
0.326878
20
-0.145481
11
0.325601
21
-0.146334
0
LINE
8
BLACK
6
CONTINUOUS
10
0.325601
20
-0.146334
11
0.324094
21
-0.146634
0
LINE
8
BLACK
6
CONTINUOUS
10
0.324094
20
-0.146634
11
0.289094
21
-0.146634
0
LINE
8
BLACK
6
CONTINUOUS
10
0.289094
20
-0.146634
11
0.287588
21
-0.146334
0
LINE
8
BLACK
6
CONTINUOUS
10
0.287588
20
-0.146334
11
0.286311
21
-0.145481
0
LINE
8
BLACK
6
CONTINUOUS
10
0.286311
20
-0.145481
11
0.285457
21
-0.144203
0
LINE
8
BLACK
6
CONTINUOUS
10
0.285457
20
-0.144203
11
0.285157
21
-0.142697
0
LINE
8
BLACK
6
CONTINUOUS
10
0.285157
20
-0.142697
11
0.285157
21
-0.0876969
0
LINE
8
BLACK
6
CONTINUOUS
10
0.285157
20
-0.0876969
11
0.285457
21
-0.0861902
0
LINE
8
BLACK
6
CONTINUOUS
10
0.285457
20
-0.0861902
11
0.286311
21
-0.084913
0
LINE
8
BLACK
6
CONTINUOUS
10
0.286311
20
-0.084913
11
0.287588
21
-0.0840595
0
LINE
8
BLACK
6
CONTINUOUS
10
0.287588
20
-0.0840595
11
0.289094
21
-0.0837598
0
LINE
8
BLACK
6
CONTINUOUS
10
0.289094
20
-0.0837598
11
0.324094
21
-0.0837598
0
LINE
8
BLACK
6
CONTINUOUS
10
0.324094
20
-0.0837598
11
0.325601
21
-0.0840595
0
LINE
8
BLACK
6
CONTINUOUS
10
0.013665
20
0.12128
11
0.0271581
21
0.118987
0
LINE
8
BLACK
6
CONTINUOUS
10
0.0271581
20
0.118987
11
0.0403096
21
0.115198
0
LINE
8
BLACK
6
CONTINUOUS
10
0.0403096
20
0.115198
11
0.0529543
21
0.109961
0
LINE
8
BLACK
6
CONTINUOUS
10
0.0529543
20
0.109961
11
0.064933
21
0.10334
0
LINE
8
BLACK
6
CONTINUOUS
10
0.064933
20
0.10334
11
0.0760952
21
0.0954204
0
LINE
8
BLACK
6
CONTINUOUS
10
0.0760952
20
0.0954204
11
0.0863004
21
0.0863004
0
LINE
8
BLACK
6
CONTINUOUS
10
0.0863004
20
0.0863004
11
0.0954204
21
0.0760952
0
LINE
8
BLACK
6
CONTINUOUS
10
0.0954204
20
0.0760952
11
0.10334
21
0.064933
0
LINE
8
BLACK
6
CONTINUOUS
10
0.10334
20
0.064933
11
0.109961
21
0.0529543
0
LINE
8
BLACK
6
CONTINUOUS
10
0.109961
20
0.0529543
11
0.115198
21
0.0403096
0
LINE
8
BLACK
6
CONTINUOUS
10
0.115198
20
0.0403096
11
0.118987
21
0.0271581
0
LINE
8
BLACK
6
CONTINUOUS
10
0.118987
20
0.0271581
11
0.12128
21
0.013665
0
LINE
8
BLACK
6
CONTINUOUS
10
0.12128
20
0.013665
11
0.122047
21
0
0
LINE
8
BLACK
6
CONTINUOUS
10
0.122047
20
0
11
0.12128
21
-0.013665
0
LINE
8
BLACK
6
CONTINUOUS
10
0.12128
20
-0.013665
11
0.118987
21
-0.0271581
0
LINE
8
BLACK
6
CONTINUOUS
10
0.118987
20
-0.0271581
11
0.115198
21
-0.0403096
0
LINE
8
BLACK
6
CONTINUOUS
10
0.115198
20
-0.0403096
11
0.109961
21
-0.0529543
0
LINE
8
BLACK
6
CONTINUOUS
10
0.109961
20
-0.0529543
11
0.10334
21
-0.064933
0
LINE
8
BLACK
6
CONTINUOUS
10
0.10334
20
-0.064933
11
0.0954204
21
-0.0760952
0
LINE
8
BLACK
6
CONTINUOUS
10
0.0954204
20
-0.0760952
11
0.0863004
21
-0.0863004
0
LINE
8
BLACK
6
CONTINUOUS
10
0.0863004
20
-0.0863004
11
0.0760952
21
-0.0954204
0
LINE
8
BLACK
6
CONTINUOUS
10
0.0760952
20
-0.0954204
11
0.064933
21
-0.10334
0
LINE
8
BLACK
6
CONTINUOUS
10
0.064933
20
-0.10334
11
0.0529543
21
-0.109961
0
LINE
8
BLACK
6
CONTINUOUS
10
0.0529543
20
-0.109961
11
0.0403096
21
-0.115198
0
LINE
8
BLACK
6
CONTINUOUS
10
0.0403096
20
-0.115198
11
0.0271581
21
-0.118987
0
LINE
8
BLACK
6
CONTINUOUS
10
0.0271581
20
-0.118987
11
0.013665
21
-0.12128
0
LINE
8
BLACK
6
CONTINUOUS
10
0.013665
20
-0.12128
11
0
21
-0.122047
0
LINE
8
BLACK
6
CONTINUOUS
10
0
20
-0.122047
11
-0.013665
21
-0.12128
0
LINE
8
BLACK
6
CONTINUOUS
10
-0.013665
20
-0.12128
11
-0.0271581
21
-0.118987
0
LINE
8
BLACK
6
CONTINUOUS
10
-0.0271581
20
-0.118987
11
-0.0403096
21
-0.115198
0
LINE
8
BLACK
6
CONTINUOUS
10
-0.0403096
20
-0.115198
11
-0.0529543
21
-0.109961
0
LINE
8
BLACK
6
CONTINUOUS
10
-0.0529543
20
-0.109961
11
-0.064933
21
-0.10334
0
LINE
8
BLACK
6
CONTINUOUS
10
-0.064933
20
-0.10334
11
-0.0760952
21
-0.0954204
0
LINE
8
BLACK
6
CONTINUOUS
10
-0.0760952
20
-0.0954204
11
-0.0863004
21
-0.0863004
0
LINE
8
BLACK
6
CONTINUOUS
10
-0.0863004
20
-0.0863004
11
-0.0954204
21
-0.0760952
0
LINE
8
BLACK
6
CONTINUOUS
10
-0.0954204
20
-0.0760952
11
-0.10334
21
-0.064933
0
LINE
8
BLACK
6
CONTINUOUS
10
-0.10334
20
-0.064933
11
-0.109961
21
-0.0529543
0
LINE
8
BLACK
6
CONTINUOUS
10
-0.109961
20
-0.0529543
11
-0.115198
21
-0.0403096
0
LINE
8
BLACK
6
CONTINUOUS
10
-0.115198
20
-0.0403096
11
-0.118987
21
-0.0271581
0
LINE
8
BLACK
6
CONTINUOUS
10
-0.118987
20
-0.0271581
11
-0.12128
21
-0.013665
0
LINE
8
BLACK
6
CONTINUOUS
10
-0.12128
20
-0.013665
11
-0.122047
21
0
0
LINE
8
BLACK
6
CONTINUOUS
10
-0.122047
20
0
11
-0.12128
21
0.013665
0
LINE
8
BLACK
6
CONTINUOUS
10
-0.12128
20
0.013665
11
-0.118987
21
0.0271581
0
LINE
8
BLACK
6
CONTINUOUS
10
-0.118987
20
0.0271581
11
-0.115198
21
0.0403096
0
LINE
8
BLACK
6
CONTINUOUS
10
-0.115198
20
0.0403096
11
-0.109961
21
0.0529543
0
LINE
8
BLACK
6
CONTINUOUS
10
-0.109961
20
0.0529543
11
-0.10334
21
0.064933
0
LINE
8
BLACK
6
CONTINUOUS
10
-0.10334
20
0.064933
11
-0.0954204
21
0.0760952
0
LINE
8
BLACK
6
CONTINUOUS
10
-0.0954204
20
0.0760952
11
-0.0863004
21
0.0863004
0
LINE
8
BLACK
6
CONTINUOUS
10
-0.0863004
20
0.0863004
11
-0.0760952
21
0.0954204
0
LINE
8
BLACK
6
CONTINUOUS
10
-0.0760952
20
0.0954204
11
-0.064933
21
0.10334
0
LINE
8
BLACK
6
CONTINUOUS
10
-0.064933
20
0.10334
11
-0.0529543
21
0.109961
0
LINE
8
BLACK
6
CONTINUOUS
10
-0.0529543
20
0.109961
11
-0.0403096
21
0.115198
0
LINE
8
BLACK
6
CONTINUOUS
10
-0.0403096
20
0.115198
11
-0.0271581
21
0.118987
0
LINE
8
BLACK
6
CONTINUOUS
10
-0.0271581
20
0.118987
11
-0.013665
21
0.12128
0
LINE
8
BLACK
6
CONTINUOUS
10
-0.013665
20
0.12128
11
0
21
0.122047
0
LINE
8
BLACK
6
CONTINUOUS
10
0
20
0.122047
11
0.013665
21
0.12128
0
LINE
8
BLACK
6
CONTINUOUS
10
1.21366
20
0.12128
11
1.22716
21
0.118987
0
LINE
8
BLACK
6
CONTINUOUS
10
1.22716
20
0.118987
11
1.24031
21
0.115198
0
LINE
8
BLACK
6
CONTINUOUS
10
1.24031
20
0.115198
11
1.25295
21
0.109961
0
LINE
8
BLACK
6
CONTINUOUS
10
1.25295
20
0.109961
11
1.26493
21
0.10334
0
LINE
8
BLACK
6
CONTINUOUS
10
1.26493
20
0.10334
11
1.2761
21
0.0954204
0
LINE
8
BLACK
6
CONTINUOUS
10
1.2761
20
0.0954204
11
1.2863
21
0.0863004
0
LINE
8
BLACK
6
CONTINUOUS
10
1.2863
20
0.0863004
11
1.29542
21
0.0760952
0
LINE
8
BLACK
6
CONTINUOUS
10
1.29542
20
0.0760952
11
1.30334
21
0.064933
0
LINE
8
BLACK
6
CONTINUOUS
10
1.30334
20
0.064933
11
1.30996
21
0.0529543
0
LINE
8
BLACK
6
CONTINUOUS
10
1.30996
20
0.0529543
11
1.3152
21
0.0403096
0
LINE
8
BLACK
6
CONTINUOUS
10
1.3152
20
0.0403096
11
1.31899
21
0.0271581
0
LINE
8
BLACK
6
CONTINUOUS
10
1.31899
20
0.0271581
11
1.32128
21
0.013665
0
LINE
8
BLACK
6
CONTINUOUS
10
1.32128
20
0.013665
11
1.32205
21
0
0
LINE
8
BLACK
6
CONTINUOUS
10
1.32205
20
0
11
1.32128
21
-0.013665
0
LINE
8
BLACK
6
CONTINUOUS
10
1.32128
20
-0.013665
11
1.31899
21
-0.0271581
0
LINE
8
BLACK
6
CONTINUOUS
10
1.31899
20
-0.0271581
11
1.3152
21
-0.0403096
0
LINE
8
BLACK
6
CONTINUOUS
10
1.3152
20
-0.0403096
11
1.30996
21
-0.0529543
0
LINE
8
BLACK
6
CONTINUOUS
10
1.30996
20
-0.0529543
11
1.30334
21
-0.064933
0
LINE
8
BLACK
6
CONTINUOUS
10
1.30334
20
-0.064933
11
1.29542
21
-0.0760952
0
LINE
8
BLACK
6
CONTINUOUS
10
1.29542
20
-0.0760952
11
1.2863
21
-0.0863004
0
LINE
8
BLACK
6
CONTINUOUS
10
1.2863
20
-0.0863004
11
1.2761
21
-0.0954204
0
LINE
8
BLACK
6
CONTINUOUS
10
1.2761
20
-0.0954204
11
1.26493
21
-0.10334
0
LINE
8
BLACK
6
CONTINUOUS
10
1.26493
20
-0.10334
11
1.25295
21
-0.109961
0
LINE
8
BLACK
6
CONTINUOUS
10
1.25295
20
-0.109961
11
1.24031
21
-0.115198
0
LINE
8
BLACK
6
CONTINUOUS
10
1.24031
20
-0.115198
11
1.22716
21
-0.118987
0
LINE
8
BLACK
6
CONTINUOUS
10
1.22716
20
-0.118987
11
1.21366
21
-0.12128
0
LINE
8
BLACK
6
CONTINUOUS
10
1.21366
20
-0.12128
11
1.2
21
-0.122047
0
LINE
8
BLACK
6
CONTINUOUS
10
1.2
20
-0.122047
11
1.18634
21
-0.12128
0
LINE
8
BLACK
6
CONTINUOUS
10
1.18634
20
-0.12128
11
1.17284
21
-0.118987
0
LINE
8
BLACK
6
CONTINUOUS
10
1.17284
20
-0.118987
11
1.15969
21
-0.115198
0
LINE
8
BLACK
6
CONTINUOUS
10
1.15969
20
-0.115198
11
1.14705
21
-0.109961
0
LINE
8
BLACK
6
CONTINUOUS
10
1.14705
20
-0.109961
11
1.13507
21
-0.10334
0
LINE
8
BLACK
6
CONTINUOUS
10
1.13507
20
-0.10334
11
1.1239
21
-0.0954204
0
LINE
8
BLACK
6
CONTINUOUS
10
1.1239
20
-0.0954204
11
1.1137
21
-0.0863004
0
LINE
8
BLACK
6
CONTINUOUS
10
1.1137
20
-0.0863004
11
1.10458
21
-0.0760952
0
LINE
8
BLACK
6
CONTINUOUS
10
1.10458
20
-0.0760952
11
1.09666
21
-0.064933
0
LINE
8
BLACK
6
CONTINUOUS
10
1.09666
20
-0.064933
11
1.09004
21
-0.0529543
0
LINE
8
BLACK
6
CONTINUOUS
10
1.09004
20
-0.0529543
11
1.0848
21
-0.0403096
0
LINE
8
BLACK
6
CONTINUOUS
10
1.0848
20
-0.0403096
11
1.08101
21
-0.0271581
0
LINE
8
BLACK
6
CONTINUOUS
10
1.08101
20
-0.0271581
11
1.07872
21
-0.013665
0
LINE
8
BLACK
6
CONTINUOUS
10
1.07872
20
-0.013665
11
1.07795
21
0
0
LINE
8
BLACK
6
CONTINUOUS
10
1.07795
20
0
11
1.07872
21
0.013665
0
LINE
8
BLACK
6
CONTINUOUS
10
1.07872
20
0.013665
11
1.08101
21
0.0271581
0
LINE
8
BLACK
6
CONTINUOUS
10
1.08101
20
0.0271581
11
1.0848
21
0.0403096
0
LINE
8
BLACK
6
CONTINUOUS
10
1.0848
20
0.0403096
11
1.09004
21
0.0529543
0
LINE
8
BLACK
6
CONTINUOUS
10
1.09004
20
0.0529543
11
1.09666
21
0.064933
0
LINE
8
BLACK
6
CONTINUOUS
10
1.09666
20
0.064933
11
1.10458
21
0.0760952
0
LINE
8
BLACK
6
CONTINUOUS
10
1.10458
20
0.0760952
11
1.1137
21
0.0863004
0
LINE
8
BLACK
6
CONTINUOUS
10
1.1137
20
0.0863004
11
1.1239
21
0.0954204
0
LINE
8
BLACK
6
CONTINUOUS
10
1.1239
20
0.0954204
11
1.13507
21
0.10334
0
LINE
8
BLACK
6
CONTINUOUS
10
1.13507
20
0.10334
11
1.14705
21
0.109961
0
LINE
8
BLACK
6
CONTINUOUS
10
1.14705
20
0.109961
11
1.15969
21
0.115198
0
LINE
8
BLACK
6
CONTINUOUS
10
1.15969
20
0.115198
11
1.17284
21
0.118987
0
LINE
8
BLACK
6
CONTINUOUS
10
1.17284
20
0.118987
11
1.18634
21
0.12128
0
LINE
8
BLACK
6
CONTINUOUS
10
1.18634
20
0.12128
11
1.2
21
0.122047
0
LINE
8
BLACK
6
CONTINUOUS
10
1.2
20
0.122047
11
1.21366
21
0.12128
0
LINE
8
BLACK
6
CONTINUOUS
10
0.481507
20
-0.0163627
11
0.482784
21
-0.0172161
0
LINE
8
BLACK
6
CONTINUOUS
10
0.482784
20
-0.0172161
11
0.483637
21
-0.0184934
0
LINE
8
BLACK
6
CONTINUOUS
10
0.483637
20
-0.0184934
11
0.483937
21
-0.02
0
LINE
8
BLACK
6
CONTINUOUS
10
0.483937
20
-0.02
11
0.483937
21
-0.08
0
LINE
8
BLACK
6
CONTINUOUS
10
0.483937
20
-0.08
11
0.483637
21
-0.0815066
0
LINE
8
BLACK
6
CONTINUOUS
10
0.483637
20
-0.0815066
11
0.482784
21
-0.0827839
0
LINE
8
BLACK
6
CONTINUOUS
10
0.482784
20
-0.0827839
11
0.481507
21
-0.0836373
0
LINE
8
BLACK
6
CONTINUOUS
10
0.481507
20
-0.0836373
11
0.48
21
-0.083937
0
LINE
8
BLACK
6
CONTINUOUS
10
0.48
20
-0.083937
11
0.42
21
-0.083937
0
LINE
8
BLACK
6
CONTINUOUS
10
0.42
20
-0.083937
11
0.418493
21
-0.0836373
0
LINE
8
BLACK
6
CONTINUOUS
10
0.418493
20
-0.0836373
11
0.417216
21
-0.0827839
0
LINE
8
BLACK
6
CONTINUOUS
10
0.417216
20
-0.0827839
11
0.416363
21
-0.0815066
0
LINE
8
BLACK
6
CONTINUOUS
10
0.416363
20
-0.0815066
11
0.416063
21
-0.08
0
LINE
8
BLACK
6
CONTINUOUS
10
0.416063
20
-0.08
11
0.416063
21
-0.02
0
LINE
8
BLACK
6
CONTINUOUS
10
0.416063
20
-0.02
11
0.416363
21
-0.0184934
0
LINE
8
BLACK
6
CONTINUOUS
10
0.416363
20
-0.0184934
11
0.417216
21
-0.0172161
0
LINE
8
BLACK
6
CONTINUOUS
10
0.417216
20
-0.0172161
11
0.418493
21
-0.0163627
0
LINE
8
BLACK
6
CONTINUOUS
10
0.418493
20
-0.0163627
11
0.42
21
-0.016063
0
LINE
8
BLACK
6
CONTINUOUS
10
0.42
20
-0.016063
11
0.48
21
-0.016063
0
LINE
8
BLACK
6
CONTINUOUS
10
0.48
20
-0.016063
11
0.481507
21
-0.0163627
0
LINE
8
BLACK
6
CONTINUOUS
10
0.581507
20
-0.0163627
11
0.582784
21
-0.0172161
0
LINE
8
BLACK
6
CONTINUOUS
10
0.582784
20
-0.0172161
11
0.583637
21
-0.0184934
0
LINE
8
BLACK
6
CONTINUOUS
10
0.583637
20
-0.0184934
11
0.583937
21
-0.02
0
LINE
8
BLACK
6
CONTINUOUS
10
0.583937
20
-0.02
11
0.583937
21
-0.08
0
LINE
8
BLACK
6
CONTINUOUS
10
0.583937
20
-0.08
11
0.583637
21
-0.0815066
0
LINE
8
BLACK
6
CONTINUOUS
10
0.583637
20
-0.0815066
11
0.582784
21
-0.0827839
0
LINE
8
BLACK
6
CONTINUOUS
10
0.582784
20
-0.0827839
11
0.581507
21
-0.0836373
0
LINE
8
BLACK
6
CONTINUOUS
10
0.581507
20
-0.0836373
11
0.58
21
-0.083937
0
LINE
8
BLACK
6
CONTINUOUS
10
0.58
20
-0.083937
11
0.52
21
-0.083937
0
LINE
8
BLACK
6
CONTINUOUS
10
0.52
20
-0.083937
11
0.518493
21
-0.0836373
0
LINE
8
BLACK
6
CONTINUOUS
10
0.518493
20
-0.0836373
11
0.517216
21
-0.0827839
0
LINE
8
BLACK
6
CONTINUOUS
10
0.517216
20
-0.0827839
11
0.516363
21
-0.0815066
0
LINE
8
BLACK
6
CONTINUOUS
10
0.516363
20
-0.0815066
11
0.516063
21
-0.08
0
LINE
8
BLACK
6
CONTINUOUS
10
0.516063
20
-0.08
11
0.516063
21
-0.02
0
LINE
8
BLACK
6
CONTINUOUS
10
0.516063
20
-0.02
11
0.516363
21
-0.0184934
0
LINE
8
BLACK
6
CONTINUOUS
10
0.516363
20
-0.0184934
11
0.517216
21
-0.0172161
0
LINE
8
BLACK
6
CONTINUOUS
10
0.517216
20
-0.0172161
11
0.518493
21
-0.0163627
0
LINE
8
BLACK
6
CONTINUOUS
10
0.518493
20
-0.0163627
11
0.52
21
-0.016063
0
LINE
8
BLACK
6
CONTINUOUS
10
0.52
20
-0.016063
11
0.58
21
-0.016063
0
LINE
8
BLACK
6
CONTINUOUS
10
0.58
20
-0.016063
11
0.581507
21
-0.0163627
0
LINE
8
BLACK
6
CONTINUOUS
10
0.681507
20
-0.0163627
11
0.682784
21
-0.0172161
0
LINE
8
BLACK
6
CONTINUOUS
10
0.682784
20
-0.0172161
11
0.683637
21
-0.0184934
0
LINE
8
BLACK
6
CONTINUOUS
10
0.683637
20
-0.0184934
11
0.683937
21
-0.02
0
LINE
8
BLACK
6
CONTINUOUS
10
0.683937
20
-0.02
11
0.683937
21
-0.08
0
LINE
8
BLACK
6
CONTINUOUS
10
0.683937
20
-0.08
11
0.683637
21
-0.0815066
0
LINE
8
BLACK
6
CONTINUOUS
10
0.683637
20
-0.0815066
11
0.682784
21
-0.0827839
0
LINE
8
BLACK
6
CONTINUOUS
10
0.682784
20
-0.0827839
11
0.681507
21
-0.0836373
0
LINE
8
BLACK
6
CONTINUOUS
10
0.681507
20
-0.0836373
11
0.68
21
-0.083937
0
LINE
8
BLACK
6
CONTINUOUS
10
0.68
20
-0.083937
11
0.62
21
-0.083937
0
LINE
8
BLACK
6
CONTINUOUS
10
0.62
20
-0.083937
11
0.618493
21
-0.0836373
0
LINE
8
BLACK
6
CONTINUOUS
10
0.618493
20
-0.0836373
11
0.617216
21
-0.0827839
0
LINE
8
BLACK
6
CONTINUOUS
10
0.617216
20
-0.0827839
11
0.616363
21
-0.0815066
0
LINE
8
BLACK
6
CONTINUOUS
10
0.616363
20
-0.0815066
11
0.616063
21
-0.08
0
LINE
8
BLACK
6
CONTINUOUS
10
0.616063
20
-0.08
11
0.616063
21
-0.02
0
LINE
8
BLACK
6
CONTINUOUS
10
0.616063
20
-0.02
11
0.616363
21
-0.0184934
0
LINE
8
BLACK
6
CONTINUOUS
10
0.616363
20
-0.0184934
11
0.617216
21
-0.0172161
0
LINE
8
BLACK
6
CONTINUOUS
10
0.617216
20
-0.0172161
11
0.618493
21
-0.0163627
0
LINE
8
BLACK
6
CONTINUOUS
10
0.618493
20
-0.0163627
11
0.62
21
-0.016063
0
LINE
8
BLACK
6
CONTINUOUS
10
0.62
20
-0.016063
11
0.68
21
-0.016063
0
LINE
8
BLACK
6
CONTINUOUS
10
0.68
20
-0.016063
11
0.681507
21
-0.0163627
0
LINE
8
BLACK
6
CONTINUOUS
10
0.831507
20
-0.0163627
11
0.832784
21
-0.0172161
0
LINE
8
BLACK
6
CONTINUOUS
10
0.832784
20
-0.0172161
11
0.833637
21
-0.0184934
0
LINE
8
BLACK
6
CONTINUOUS
10
0.833637
20
-0.0184934
11
0.833937
21
-0.02
0
LINE
8
BLACK
6
CONTINUOUS
10
0.833937
20
-0.02
11
0.833937
21
-0.08
0
LINE
8
BLACK
6
CONTINUOUS
10
0.833937
20
-0.08
11
0.833637
21
-0.0815066
0
LINE
8
BLACK
6
CONTINUOUS
10
0.833637
20
-0.0815066
11
0.832784
21
-0.0827839
0
LINE
8
BLACK
6
CONTINUOUS
10
0.832784
20
-0.0827839
11
0.831507
21
-0.0836373
0
LINE
8
BLACK
6
CONTINUOUS
10
0.831507
20
-0.0836373
11
0.83
21
-0.083937
0
LINE
8
BLACK
6
CONTINUOUS
10
0.83
20
-0.083937
11
0.77
21
-0.083937
0
LINE
8
BLACK
6
CONTINUOUS
10
0.77
20
-0.083937
11
0.768493
21
-0.0836373
0
LINE
8
BLACK
6
CONTINUOUS
10
0.768493
20
-0.0836373
11
0.767216
21
-0.0827839
0
LINE
8
BLACK
6
CONTINUOUS
10
0.767216
20
-0.0827839
11
0.766363
21
-0.0815066
0
LINE
8
BLACK
6
CONTINUOUS
10
0.766363
20
-0.0815066
11
0.766063
21
-0.08
0
LINE
8
BLACK
6
CONTINUOUS
10
0.766063
20
-0.08
11
0.766063
21
-0.02
0
LINE
8
BLACK
6
CONTINUOUS
10
0.766063
20
-0.02
11
0.766363
21
-0.0184934
0
LINE
8
BLACK
6
CONTINUOUS
10
0.766363
20
-0.0184934
11
0.767216
21
-0.0172161
0
LINE
8
BLACK
6
CONTINUOUS
10
0.767216
20
-0.0172161
11
0.768493
21
-0.0163627
0
LINE
8
BLACK
6
CONTINUOUS
10
0.768493
20
-0.0163627
11
0.77
21
-0.016063
0
LINE
8
BLACK
6
CONTINUOUS
10
0.77
20
-0.016063
11
0.83
21
-0.016063
0
LINE
8
BLACK
6
CONTINUOUS
10
0.83
20
-0.016063
11
0.831507
21
-0.0163627
0
LINE
8
BLACK
6
CONTINUOUS
10
0.931507
20
-0.0163627
11
0.932784
21
-0.0172161
0
LINE
8
BLACK
6
CONTINUOUS
10
0.932784
20
-0.0172161
11
0.933637
21
-0.0184934
0
LINE
8
BLACK
6
CONTINUOUS
10
0.933637
20
-0.0184934
11
0.933937
21
-0.02
0
LINE
8
BLACK
6
CONTINUOUS
10
0.933937
20
-0.02
11
0.933937
21
-0.08
0
LINE
8
BLACK
6
CONTINUOUS
10
0.933937
20
-0.08
11
0.933637
21
-0.0815066
0
LINE
8
BLACK
6
CONTINUOUS
10
0.933637
20
-0.0815066
11
0.932784
21
-0.0827839
0
LINE
8
BLACK
6
CONTINUOUS
10
0.932784
20
-0.0827839
11
0.931507
21
-0.0836373
0
LINE
8
BLACK
6
CONTINUOUS
10
0.931507
20
-0.0836373
11
0.93
21
-0.083937
0
LINE
8
BLACK
6
CONTINUOUS
10
0.93
20
-0.083937
11
0.87
21
-0.083937
0
LINE
8
BLACK
6
CONTINUOUS
10
0.87
20
-0.083937
11
0.868493
21
-0.0836373
0
LINE
8
BLACK
6
CONTINUOUS
10
0.868493
20
-0.0836373
11
0.867216
21
-0.0827839
0
LINE
8
BLACK
6
CONTINUOUS
10
0.867216
20
-0.0827839
11
0.866363
21
-0.0815066
0
LINE
8
BLACK
6
CONTINUOUS
10
0.866363
20
-0.0815066
11
0.866063
21
-0.08
0
LINE
8
BLACK
6
CONTINUOUS
10
0.866063
20
-0.08
11
0.866063
21
-0.02
0
LINE
8
BLACK
6
CONTINUOUS
10
0.866063
20
-0.02
11
0.866363
21
-0.0184934
0
LINE
8
BLACK
6
CONTINUOUS
10
0.866363
20
-0.0184934
11
0.867216
21
-0.0172161
0
LINE
8
BLACK
6
CONTINUOUS
10
0.867216
20
-0.0172161
11
0.868493
21
-0.0163627
0
LINE
8
BLACK
6
CONTINUOUS
10
0.868493
20
-0.0163627
11
0.87
21
-0.016063
0
LINE
8
BLACK
6
CONTINUOUS
10
0.87
20
-0.016063
11
0.93
21
-0.016063
0
LINE
8
BLACK
6
CONTINUOUS
10
0.93
20
-0.016063
11
0.931507
21
-0.0163627
0
LINE
8
BLACK
6
CONTINUOUS
10
1.03151
20
-0.0163627
11
1.03278
21
-0.0172161
0
LINE
8
BLACK
6
CONTINUOUS
10
1.03278
20
-0.0172161
11
1.03364
21
-0.0184934
0
LINE
8
BLACK
6
CONTINUOUS
10
1.03364
20
-0.0184934
11
1.03394
21
-0.02
0
LINE
8
BLACK
6
CONTINUOUS
10
1.03394
20
-0.02
11
1.03394
21
-0.08
0
LINE
8
BLACK
6
CONTINUOUS
10
1.03394
20
-0.08
11
1.03364
21
-0.0815066
0
LINE
8
BLACK
6
CONTINUOUS
10
1.03364
20
-0.0815066
11
1.03278
21
-0.0827839
0
LINE
8
BLACK
6
CONTINUOUS
10
1.03278
20
-0.0827839
11
1.03151
21
-0.0836373
0
LINE
8
BLACK
6
CONTINUOUS
10
1.03151
20
-0.0836373
11
1.03
21
-0.083937
0
LINE
8
BLACK
6
CONTINUOUS
10
1.03
20
-0.083937
11
0.97
21
-0.083937
0
LINE
8
BLACK
6
CONTINUOUS
10
0.97
20
-0.083937
11
0.968493
21
-0.0836373
0
LINE
8
BLACK
6
CONTINUOUS
10
0.968493
20
-0.0836373
11
0.967216
21
-0.0827839
0
LINE
8
BLACK
6
CONTINUOUS
10
0.967216
20
-0.0827839
11
0.966363
21
-0.0815066
0
LINE
8
BLACK
6
CONTINUOUS
10
0.966363
20
-0.0815066
11
0.966063
21
-0.08
0
LINE
8
BLACK
6
CONTINUOUS
10
0.966063
20
-0.08
11
0.966063
21
-0.02
0
LINE
8
BLACK
6
CONTINUOUS
10
0.966063
20
-0.02
11
0.966363
21
-0.0184934
0
LINE
8
BLACK
6
CONTINUOUS
10
0.966363
20
-0.0184934
11
0.967216
21
-0.0172161
0
LINE
8
BLACK
6
CONTINUOUS
10
0.967216
20
-0.0172161
11
0.968493
21
-0.0163627
0
LINE
8
BLACK
6
CONTINUOUS
10
0.968493
20
-0.0163627
11
0.97
21
-0.016063
0
LINE
8
BLACK
6
CONTINUOUS
10
0.97
20
-0.016063
11
1.03
21
-0.016063
0
LINE
8
BLACK
6
CONTINUOUS
10
1.03
20
-0.016063
11
1.03151
21
-0.0163627
0
LINE
8
BLACK
6
CONTINUOUS
10
0.197869
20
0.0331606
11
0.201717
21
0.0314619
0
LINE
8
BLACK
6
CONTINUOUS
10
0.201717
20
0.0314619
11
0.20469
21
0.0284882
0
LINE
8
BLACK
6
CONTINUOUS
10
0.20469
20
0.0284882
11
0.206389
21
0.024641
0
LINE
8
BLACK
6
CONTINUOUS
10
0.206389
20
0.024641
11
0.206693
21
0.0220209
0
LINE
8
BLACK
6
CONTINUOUS
10
0.206693
20
0.0220209
11
0.206693
21
-0.022021
0
LINE
8
BLACK
6
CONTINUOUS
10
0.206693
20
-0.022021
11
0.206389
21
-0.024641
0
LINE
8
BLACK
6
CONTINUOUS
10
0.206389
20
-0.024641
11
0.20469
21
-0.0284882
0
LINE
8
BLACK
6
CONTINUOUS
10
0.20469
20
-0.0284882
11
0.201717
21
-0.0314619
0
LINE
8
BLACK
6
CONTINUOUS
10
0.201717
20
-0.0314619
11
0.197869
21
-0.0331606
0
LINE
8
BLACK
6
CONTINUOUS
10
0.197869
20
-0.0331606
11
0.195249
21
-0.0334645
0
LINE
8
BLACK
6
CONTINUOUS
10
0.195249
20
-0.0334645
11
0.153963
21
-0.0334646
0
LINE
8
BLACK
6
CONTINUOUS
10
0.153963
20
-0.0334646
11
0.151343
21
-0.0331606
0
LINE
8
BLACK
6
CONTINUOUS
10
0.151343
20
-0.0331606
11
0.147496
21
-0.0314619
0
LINE
8
BLACK
6
CONTINUOUS
10
0.147496
20
-0.0314619
11
0.144522
21
-0.0284882
0
LINE
8
BLACK
6
CONTINUOUS
10
0.144522
20
-0.0284882
11
0.142824
21
-0.024641
0
LINE
8
BLACK
6
CONTINUOUS
10
0.142824
20
-0.024641
11
0.14252
21
-0.0220209
0
LINE
8
BLACK
6
CONTINUOUS
10
0.14252
20
-0.0220209
11
0.14252
21
0.022021
0
LINE
8
BLACK
6
CONTINUOUS
10
0.14252
20
0.022021
11
0.142824
21
0.024641
0
LINE
8
BLACK
6
CONTINUOUS
10
0.142824
20
0.024641
11
0.144522
21
0.0284882
0
LINE
8
BLACK
6
CONTINUOUS
10
0.144522
20
0.0284882
11
0.147496
21
0.0314619
0
LINE
8
BLACK
6
CONTINUOUS
10
0.147496
20
0.0314619
11
0.151343
21
0.0331606
0
LINE
8
BLACK
6
CONTINUOUS
10
0.151343
20
0.0331606
11
0.153963
21
0.0334645
0
LINE
8
BLACK
6
CONTINUOUS
10
0.153963
20
0.0334645
11
0.195249
21
0.0334646
0
LINE
8
BLACK
6
CONTINUOUS
10
0.195249
20
0.0334646
11
0.197869
21
0.0331606
0
LINE
8
BLACK
6
CONTINUOUS
10
0.348657
20
0.0331606
11
0.352504
21
0.0314619
0
LINE
8
BLACK
6
CONTINUOUS
10
0.352504
20
0.0314619
11
0.355478
21
0.0284882
0
LINE
8
BLACK
6
CONTINUOUS
10
0.355478
20
0.0284882
11
0.357176
21
0.024641
0
LINE
8
BLACK
6
CONTINUOUS
10
0.357176
20
0.024641
11
0.35748
21
0.0220209
0
LINE
8
BLACK
6
CONTINUOUS
10
0.35748
20
0.0220209
11
0.35748
21
-0.022021
0
LINE
8
BLACK
6
CONTINUOUS
10
0.35748
20
-0.022021
11
0.357176
21
-0.024641
0
LINE
8
BLACK
6
CONTINUOUS
10
0.357176
20
-0.024641
11
0.355478
21
-0.0284882
0
LINE
8
BLACK
6
CONTINUOUS
10
0.355478
20
-0.0284882
11
0.352504
21
-0.0314619
0
LINE
8
BLACK
6
CONTINUOUS
10
0.352504
20
-0.0314619
11
0.348657
21
-0.0331606
0
LINE
8
BLACK
6
CONTINUOUS
10
0.348657
20
-0.0331606
11
0.346037
21
-0.0334645
0
LINE
8
BLACK
6
CONTINUOUS
10
0.346037
20
-0.0334645
11
0.304751
21
-0.0334646
0
LINE
8
BLACK
6
CONTINUOUS
10
0.304751
20
-0.0334646
11
0.302131
21
-0.0331606
0
LINE
8
BLACK
6
CONTINUOUS
10
0.302131
20
-0.0331606
11
0.298283
21
-0.0314619
0
LINE
8
BLACK
6
CONTINUOUS
10
0.298283
20
-0.0314619
11
0.29531
21
-0.0284882
0
LINE
8
BLACK
6
CONTINUOUS
10
0.29531
20
-0.0284882
11
0.293611
21
-0.024641
0
LINE
8
BLACK
6
CONTINUOUS
10
0.293611
20
-0.024641
11
0.293307
21
-0.0220209
0
LINE
8
BLACK
6
CONTINUOUS
10
0.293307
20
-0.0220209
11
0.293307
21
0.022021
0
LINE
8
BLACK
6
CONTINUOUS
10
0.293307
20
0.022021
11
0.293611
21
0.024641
0
LINE
8
BLACK
6
CONTINUOUS
10
0.293611
20
0.024641
11
0.29531
21
0.0284882
0
LINE
8
BLACK
6
CONTINUOUS
10
0.29531
20
0.0284882
11
0.298283
21
0.0314619
0
LINE
8
BLACK
6
CONTINUOUS
10
0.298283
20
0.0314619
11
0.302131
21
0.0331606
0
LINE
8
BLACK
6
CONTINUOUS
10
0.302131
20
0.0331606
11
0.304751
21
0.0334645
0
LINE
8
BLACK
6
CONTINUOUS
10
0.304751
20
0.0334645
11
0.346037
21
0.0334646
0
LINE
8
BLACK
6
CONTINUOUS
10
0.346037
20
0.0334646
11
0.348657
21
0.0331606
0
LINE
8
BLACK
6
CONTINUOUS
10
0.481507
20
0.0836373
11
0.482784
21
0.0827839
0
LINE
8
BLACK
6
CONTINUOUS
10
0.482784
20
0.0827839
11
0.483637
21
0.0815066
0
LINE
8
BLACK
6
CONTINUOUS
10
0.483637
20
0.0815066
11
0.483937
21
0.08
0
LINE
8
BLACK
6
CONTINUOUS
10
0.483937
20
0.08
11
0.483937
21
0.02
0
LINE
8
BLACK
6
CONTINUOUS
10
0.483937
20
0.02
11
0.483637
21
0.0184934
0
LINE
8
BLACK
6
CONTINUOUS
10
0.483637
20
0.0184934
11
0.482784
21
0.0172161
0
LINE
8
BLACK
6
CONTINUOUS
10
0.482784
20
0.0172161
11
0.481507
21
0.0163627
0
LINE
8
BLACK
6
CONTINUOUS
10
0.481507
20
0.0163627
11
0.48
21
0.016063
0
LINE
8
BLACK
6
CONTINUOUS
10
0.48
20
0.016063
11
0.42
21
0.016063
0
LINE
8
BLACK
6
CONTINUOUS
10
0.42
20
0.016063
11
0.418493
21
0.0163627
0
LINE
8
BLACK
6
CONTINUOUS
10
0.418493
20
0.0163627
11
0.417216
21
0.0172161
0
LINE
8
BLACK
6
CONTINUOUS
10
0.417216
20
0.0172161
11
0.416363
21
0.0184934
0
LINE
8
BLACK
6
CONTINUOUS
10
0.416363
20
0.0184934
11
0.416063
21
0.02
0
LINE
8
BLACK
6
CONTINUOUS
10
0.416063
20
0.02
11
0.416063
21
0.08
0
LINE
8
BLACK
6
CONTINUOUS
10
0.416063
20
0.08
11
0.416363
21
0.0815066
0
LINE
8
BLACK
6
CONTINUOUS
10
0.416363
20
0.0815066
11
0.417216
21
0.0827839
0
LINE
8
BLACK
6
CONTINUOUS
10
0.417216
20
0.0827839
11
0.418493
21
0.0836373
0
LINE
8
BLACK
6
CONTINUOUS
10
0.418493
20
0.0836373
11
0.42
21
0.083937
0
LINE
8
BLACK
6
CONTINUOUS
10
0.42
20
0.083937
11
0.48
21
0.083937
0
LINE
8
BLACK
6
CONTINUOUS
10
0.48
20
0.083937
11
0.481507
21
0.0836373
0
LINE
8
BLACK
6
CONTINUOUS
10
0.581507
20
0.0836373
11
0.582784
21
0.0827839
0
LINE
8
BLACK
6
CONTINUOUS
10
0.582784
20
0.0827839
11
0.583637
21
0.0815066
0
LINE
8
BLACK
6
CONTINUOUS
10
0.583637
20
0.0815066
11
0.583937
21
0.08
0
LINE
8
BLACK
6
CONTINUOUS
10
0.583937
20
0.08
11
0.583937
21
0.02
0
LINE
8
BLACK
6
CONTINUOUS
10
0.583937
20
0.02
11
0.583637
21
0.0184934
0
LINE
8
BLACK
6
CONTINUOUS
10
0.583637
20
0.0184934
11
0.582784
21
0.0172161
0
LINE
8
BLACK
6
CONTINUOUS
10
0.582784
20
0.0172161
11
0.581507
21
0.0163627
0
LINE
8
BLACK
6
CONTINUOUS
10
0.581507
20
0.0163627
11
0.58
21
0.016063
0
LINE
8
BLACK
6
CONTINUOUS
10
0.58
20
0.016063
11
0.52
21
0.016063
0
LINE
8
BLACK
6
CONTINUOUS
10
0.52
20
0.016063
11
0.518493
21
0.0163627
0
LINE
8
BLACK
6
CONTINUOUS
10
0.518493
20
0.0163627
11
0.517216
21
0.0172161
0
LINE
8
BLACK
6
CONTINUOUS
10
0.517216
20
0.0172161
11
0.516363
21
0.0184934
0
LINE
8
BLACK
6
CONTINUOUS
10
0.516363
20
0.0184934
11
0.516063
21
0.02
0
LINE
8
BLACK
6
CONTINUOUS
10
0.516063
20
0.02
11
0.516063
21
0.08
0
LINE
8
BLACK
6
CONTINUOUS
10
0.516063
20
0.08
11
0.516363
21
0.0815066
0
LINE
8
BLACK
6
CONTINUOUS
10
0.516363
20
0.0815066
11
0.517216
21
0.0827839
0
LINE
8
BLACK
6
CONTINUOUS
10
0.517216
20
0.0827839
11
0.518493
21
0.0836373
0
LINE
8
BLACK
6
CONTINUOUS
10
0.518493
20
0.0836373
11
0.52
21
0.083937
0
LINE
8
BLACK
6
CONTINUOUS
10
0.52
20
0.083937
11
0.58
21
0.083937
0
LINE
8
BLACK
6
CONTINUOUS
10
0.58
20
0.083937
11
0.581507
21
0.0836373
0
LINE
8
BLACK
6
CONTINUOUS
10
0.681507
20
0.0836373
11
0.682784
21
0.0827839
0
LINE
8
BLACK
6
CONTINUOUS
10
0.682784
20
0.0827839
11
0.683637
21
0.0815066
0
LINE
8
BLACK
6
CONTINUOUS
10
0.683637
20
0.0815066
11
0.683937
21
0.08
0
LINE
8
BLACK
6
CONTINUOUS
10
0.683937
20
0.08
11
0.683937
21
0.02
0
LINE
8
BLACK
6
CONTINUOUS
10
0.683937
20
0.02
11
0.683637
21
0.0184934
0
LINE
8
BLACK
6
CONTINUOUS
10
0.683637
20
0.0184934
11
0.682784
21
0.0172161
0
LINE
8
BLACK
6
CONTINUOUS
10
0.682784
20
0.0172161
11
0.681507
21
0.0163627
0
LINE
8
BLACK
6
CONTINUOUS
10
0.681507
20
0.0163627
11
0.68
21
0.016063
0
LINE
8
BLACK
6
CONTINUOUS
10
0.68
20
0.016063
11
0.62
21
0.016063
0
LINE
8
BLACK
6
CONTINUOUS
10
0.62
20
0.016063
11
0.618493
21
0.0163627
0
LINE
8
BLACK
6
CONTINUOUS
10
0.618493
20
0.0163627
11
0.617216
21
0.0172161
0
LINE
8
BLACK
6
CONTINUOUS
10
0.617216
20
0.0172161
11
0.616363
21
0.0184934
0
LINE
8
BLACK
6
CONTINUOUS
10
0.616363
20
0.0184934
11
0.616063
21
0.02
0
LINE
8
BLACK
6
CONTINUOUS
10
0.616063
20
0.02
11
0.616063
21
0.08
0
LINE
8
BLACK
6
CONTINUOUS
10
0.616063
20
0.08
11
0.616363
21
0.0815066
0
LINE
8
BLACK
6
CONTINUOUS
10
0.616363
20
0.0815066
11
0.617216
21
0.0827839
0
LINE
8
BLACK
6
CONTINUOUS
10
0.617216
20
0.0827839
11
0.618493
21
0.0836373
0
LINE
8
BLACK
6
CONTINUOUS
10
0.618493
20
0.0836373
11
0.62
21
0.083937
0
LINE
8
BLACK
6
CONTINUOUS
10
0.62
20
0.083937
11
0.68
21
0.083937
0
LINE
8
BLACK
6
CONTINUOUS
10
0.68
20
0.083937
11
0.681507
21
0.0836373
0
LINE
8
BLACK
6
CONTINUOUS
10
0.831507
20
0.0836373
11
0.832784
21
0.0827839
0
LINE
8
BLACK
6
CONTINUOUS
10
0.832784
20
0.0827839
11
0.833637
21
0.0815066
0
LINE
8
BLACK
6
CONTINUOUS
10
0.833637
20
0.0815066
11
0.833937
21
0.08
0
LINE
8
BLACK
6
CONTINUOUS
10
0.833937
20
0.08
11
0.833937
21
0.02
0
LINE
8
BLACK
6
CONTINUOUS
10
0.833937
20
0.02
11
0.833637
21
0.0184934
0
LINE
8
BLACK
6
CONTINUOUS
10
0.833637
20
0.0184934
11
0.832784
21
0.0172161
0
LINE
8
BLACK
6
CONTINUOUS
10
0.832784
20
0.0172161
11
0.831507
21
0.0163627
0
LINE
8
BLACK
6
CONTINUOUS
10
0.831507
20
0.0163627
11
0.83
21
0.016063
0
LINE
8
BLACK
6
CONTINUOUS
10
0.83
20
0.016063
11
0.77
21
0.016063
0
LINE
8
BLACK
6
CONTINUOUS
10
0.77
20
0.016063
11
0.768493
21
0.0163627
0
LINE
8
BLACK
6
CONTINUOUS
10
0.768493
20
0.0163627
11
0.767216
21
0.0172161
0
LINE
8
BLACK
6
CONTINUOUS
10
0.767216
20
0.0172161
11
0.766363
21
0.0184934
0
LINE
8
BLACK
6
CONTINUOUS
10
0.766363
20
0.0184934
11
0.766063
21
0.02
0
LINE
8
BLACK
6
CONTINUOUS
10
0.766063
20
0.02
11
0.766063
21
0.08
0
LINE
8
BLACK
6
CONTINUOUS
10
0.766063
20
0.08
11
0.766363
21
0.0815066
0
LINE
8
BLACK
6
CONTINUOUS
10
0.766363
20
0.0815066
11
0.767216
21
0.0827839
0
LINE
8
BLACK
6
CONTINUOUS
10
0.767216
20
0.0827839
11
0.768493
21
0.0836373
0
LINE
8
BLACK
6
CONTINUOUS
10
0.768493
20
0.0836373
11
0.77
21
0.083937
0
LINE
8
BLACK
6
CONTINUOUS
10
0.77
20
0.083937
11
0.83
21
0.083937
0
LINE
8
BLACK
6
CONTINUOUS
10
0.83
20
0.083937
11
0.831507
21
0.0836373
0
LINE
8
BLACK
6
CONTINUOUS
10
0.931507
20
0.0836373
11
0.932784
21
0.0827839
0
LINE
8
BLACK
6
CONTINUOUS
10
0.932784
20
0.0827839
11
0.933637
21
0.0815066
0
LINE
8
BLACK
6
CONTINUOUS
10
0.933637
20
0.0815066
11
0.933937
21
0.08
0
LINE
8
BLACK
6
CONTINUOUS
10
0.933937
20
0.08
11
0.933937
21
0.02
0
LINE
8
BLACK
6
CONTINUOUS
10
0.933937
20
0.02
11
0.933637
21
0.0184934
0
LINE
8
BLACK
6
CONTINUOUS
10
0.933637
20
0.0184934
11
0.932784
21
0.0172161
0
LINE
8
BLACK
6
CONTINUOUS
10
0.932784
20
0.0172161
11
0.931507
21
0.0163627
0
LINE
8
BLACK
6
CONTINUOUS
10
0.931507
20
0.0163627
11
0.93
21
0.016063
0
LINE
8
BLACK
6
CONTINUOUS
10
0.93
20
0.016063
11
0.87
21
0.016063
0
LINE
8
BLACK
6
CONTINUOUS
10
0.87
20
0.016063
11
0.868493
21
0.0163627
0
LINE
8
BLACK
6
CONTINUOUS
10
0.868493
20
0.0163627
11
0.867216
21
0.0172161
0
LINE
8
BLACK
6
CONTINUOUS
10
0.867216
20
0.0172161
11
0.866363
21
0.0184934
0
LINE
8
BLACK
6
CONTINUOUS
10
0.866363
20
0.0184934
11
0.866063
21
0.02
0
LINE
8
BLACK
6
CONTINUOUS
10
0.866063
20
0.02
11
0.866063
21
0.08
0
LINE
8
BLACK
6
CONTINUOUS
10
0.866063
20
0.08
11
0.866363
21
0.0815066
0
LINE
8
BLACK
6
CONTINUOUS
10
0.866363
20
0.0815066
11
0.867216
21
0.0827839
0
LINE
8
BLACK
6
CONTINUOUS
10
0.867216
20
0.0827839
11
0.868493
21
0.0836373
0
LINE
8
BLACK
6
CONTINUOUS
10
0.868493
20
0.0836373
11
0.87
21
0.083937
0
LINE
8
BLACK
6
CONTINUOUS
10
0.87
20
0.083937
11
0.93
21
0.083937
0
LINE
8
BLACK
6
CONTINUOUS
10
0.93
20
0.083937
11
0.931507
21
0.0836373
0
LINE
8
BLACK
6
CONTINUOUS
10
1.03151
20
0.0836373
11
1.03278
21
0.0827839
0
LINE
8
BLACK
6
CONTINUOUS
10
1.03278
20
0.0827839
11
1.03364
21
0.0815066
0
LINE
8
BLACK
6
CONTINUOUS
10
1.03364
20
0.0815066
11
1.03394
21
0.08
0
LINE
8
BLACK
6
CONTINUOUS
10
1.03394
20
0.08
11
1.03394
21
0.02
0
LINE
8
BLACK
6
CONTINUOUS
10
1.03394
20
0.02
11
1.03364
21
0.0184934
0
LINE
8
BLACK
6
CONTINUOUS
10
1.03364
20
0.0184934
11
1.03278
21
0.0172161
0
LINE
8
BLACK
6
CONTINUOUS
10
1.03278
20
0.0172161
11
1.03151
21
0.0163627
0
LINE
8
BLACK
6
CONTINUOUS
10
1.03151
20
0.0163627
11
1.03
21
0.016063
0
LINE
8
BLACK
6
CONTINUOUS
10
1.03
20
0.016063
11
0.97
21
0.016063
0
LINE
8
BLACK
6
CONTINUOUS
10
0.97
20
0.016063
11
0.968493
21
0.0163627
0
LINE
8
BLACK
6
CONTINUOUS
10
0.968493
20
0.0163627
11
0.967216
21
0.0172161
0
LINE
8
BLACK
6
CONTINUOUS
10
0.967216
20
0.0172161
11
0.966363
21
0.0184934
0
LINE
8
BLACK
6
CONTINUOUS
10
0.966363
20
0.0184934
11
0.966063
21
0.02
0
LINE
8
BLACK
6
CONTINUOUS
10
0.966063
20
0.02
11
0.966063
21
0.08
0
LINE
8
BLACK
6
CONTINUOUS
10
0.966063
20
0.08
11
0.966363
21
0.0815066
0
LINE
8
BLACK
6
CONTINUOUS
10
0.966363
20
0.0815066
11
0.967216
21
0.0827839
0
LINE
8
BLACK
6
CONTINUOUS
10
0.967216
20
0.0827839
11
0.968493
21
0.0836373
0
LINE
8
BLACK
6
CONTINUOUS
10
0.968493
20
0.0836373
11
0.97
21
0.083937
0
LINE
8
BLACK
6
CONTINUOUS
10
0.97
20
0.083937
11
1.03
21
0.083937
0
LINE
8
BLACK
6
CONTINUOUS
10
1.03
20
0.083937
11
1.03151
21
0.0836373
0
LINE
8
BLACK
6
CONTINUOUS
10
0.234932
20
0.229298
11
0.245087
21
0.227089
0
LINE
8
BLACK
6
CONTINUOUS
10
0.245087
20
0.227089
11
0.254824
21
0.223457
0
LINE
8
BLACK
6
CONTINUOUS
10
0.254824
20
0.223457
11
0.263944
21
0.218477
0
LINE
8
BLACK
6
CONTINUOUS
10
0.263944
20
0.218477
11
0.272263
21
0.212249
0
LINE
8
BLACK
6
CONTINUOUS
10
0.272263
20
0.212249
11
0.279612
21
0.204901
0
LINE
8
BLACK
6
CONTINUOUS
10
0.279612
20
0.204901
11
0.285839
21
0.196582
0
LINE
8
BLACK
6
CONTINUOUS
10
0.285839
20
0.196582
11
0.29082
21
0.187461
0
LINE
8
BLACK
6
CONTINUOUS
10
0.29082
20
0.187461
11
0.294451
21
0.177725
0
LINE
8
BLACK
6
CONTINUOUS
10
0.294451
20
0.177725
11
0.29666
21
0.16757
0
LINE
8
BLACK
6
CONTINUOUS
10
0.29666
20
0.16757
11
0.297402
21
0.157205
0
LINE
8
BLACK
6
CONTINUOUS
10
0.297402
20
0.157205
11
0.29666
21
0.146839
0
LINE
8
BLACK
6
CONTINUOUS
10
0.29666
20
0.146839
11
0.294451
21
0.136685
0
LINE
8
BLACK
6
CONTINUOUS
10
0.294451
20
0.136685
11
0.29082
21
0.126948
0
LINE
8
BLACK
6
CONTINUOUS
10
0.29082
20
0.126948
11
0.285839
21
0.117827
0
LINE
8
BLACK
6
CONTINUOUS
10
0.285839
20
0.117827
11
0.279612
21
0.109508
0
LINE
8
BLACK
6
CONTINUOUS
10
0.279612
20
0.109508
11
0.272263
21
0.10216
0
LINE
8
BLACK
6
CONTINUOUS
10
0.272263
20
0.10216
11
0.263944
21
0.0959323
0
LINE
8
BLACK
6
CONTINUOUS
10
0.263944
20
0.0959323
11
0.254824
21
0.090952
0
LINE
8
BLACK
6
CONTINUOUS
10
0.254824
20
0.090952
11
0.245087
21
0.0873204
0
LINE
8
BLACK
6
CONTINUOUS
10
0.245087
20
0.0873204
11
0.234932
21
0.0851114
0
LINE
8
BLACK
6
CONTINUOUS
10
0.234932
20
0.0851114
11
0.224567
21
0.0843701
0
LINE
8
BLACK
6
CONTINUOUS
10
0.224567
20
0.0843701
11
0.214201
21
0.0851114
0
LINE
8
BLACK
6
CONTINUOUS
10
0.214201
20
0.0851114
11
0.204047
21
0.0873204
0
LINE
8
BLACK
6
CONTINUOUS
10
0.204047
20
0.0873204
11
0.19431
21
0.090952
0
LINE
8
BLACK
6
CONTINUOUS
10
0.19431
20
0.090952
11
0.18519
21
0.0959323
0
LINE
8
BLACK
6
CONTINUOUS
10
0.18519
20
0.0959323
11
0.17687
21
0.10216
0
LINE
8
BLACK
6
CONTINUOUS
10
0.17687
20
0.10216
11
0.169522
21
0.109508
0
LINE
8
BLACK
6
CONTINUOUS
10
0.169522
20
0.109508
11
0.163295
21
0.117827
0
LINE
8
BLACK
6
CONTINUOUS
10
0.163295
20
0.117827
11
0.158314
21
0.126948
0
LINE
8
BLACK
6
CONTINUOUS
10
0.158314
20
0.126948
11
0.154683
21
0.136685
0
LINE
8
BLACK
6
CONTINUOUS
10
0.154683
20
0.136685
11
0.152474
21
0.146839
0
LINE
8
BLACK
6
CONTINUOUS
10
0.152474
20
0.146839
11
0.151732
21
0.157205
0
LINE
8
BLACK
6
CONTINUOUS
10
0.151732
20
0.157205
11
0.152474
21
0.16757
0
LINE
8
BLACK
6
CONTINUOUS
10
0.152474
20
0.16757
11
0.154683
21
0.177725
0
LINE
8
BLACK
6
CONTINUOUS
10
0.154683
20
0.177725
11
0.158314
21
0.187461
0
LINE
8
BLACK
6
CONTINUOUS
10
0.158314
20
0.187461
11
0.163295
21
0.196582
0
LINE
8
BLACK
6
CONTINUOUS
10
0.163295
20
0.196582
11
0.169522
21
0.204901
0
LINE
8
BLACK
6
CONTINUOUS
10
0.169522
20
0.204901
11
0.17687
21
0.212249
0
LINE
8
BLACK
6
CONTINUOUS
10
0.17687
20
0.212249
11
0.18519
21
0.218477
0
LINE
8
BLACK
6
CONTINUOUS
10
0.18519
20
0.218477
11
0.19431
21
0.223457
0
LINE
8
BLACK
6
CONTINUOUS
10
0.19431
20
0.223457
11
0.204047
21
0.227089
0
LINE
8
BLACK
6
CONTINUOUS
10
0.204047
20
0.227089
11
0.214201
21
0.229298
0
LINE
8
BLACK
6
CONTINUOUS
10
0.214201
20
0.229298
11
0.224567
21
0.230039
0
LINE
8
BLACK
6
CONTINUOUS
10
0.224567
20
0.230039
11
0.234932
21
0.229298
0
LINE
8
BLACK
6
CONTINUOUS
10
1.05237
20
0.23444
11
1.05975
21
0.2322
0
LINE
8
BLACK
6
CONTINUOUS
10
1.05975
20
0.2322
11
1.06656
21
0.228562
0
LINE
8
BLACK
6
CONTINUOUS
10
1.06656
20
0.228562
11
1.07252
21
0.223666
0
LINE
8
BLACK
6
CONTINUOUS
10
1.07252
20
0.223666
11
1.07742
21
0.2177
0
LINE
8
BLACK
6
CONTINUOUS
10
1.07742
20
0.2177
11
1.08106
21
0.210893
0
LINE
8
BLACK
6
CONTINUOUS
10
1.08106
20
0.210893
11
1.0833
21
0.203507
0
LINE
8
BLACK
6
CONTINUOUS
10
1.0833
20
0.203507
11
1.08406
21
0.195827
0
LINE
8
BLACK
6
CONTINUOUS
10
1.08406
20
0.195827
11
1.0833
21
0.188146
0
LINE
8
BLACK
6
CONTINUOUS
10
1.0833
20
0.188146
11
1.08106
21
0.180761
0
LINE
8
BLACK
6
CONTINUOUS
10
1.08106
20
0.180761
11
1.07742
21
0.173954
0
LINE
8
BLACK
6
CONTINUOUS
10
1.07742
20
0.173954
11
1.07252
21
0.167988
0
LINE
8
BLACK
6
CONTINUOUS
10
1.07252
20
0.167988
11
1.06656
21
0.163092
0
LINE
8
BLACK
6
CONTINUOUS
10
1.06656
20
0.163092
11
1.05975
21
0.159454
0
LINE
8
BLACK
6
CONTINUOUS
10
1.05975
20
0.159454
11
1.05237
21
0.157213
0
LINE
8
BLACK
6
CONTINUOUS
10
1.05237
20
0.157213
11
1.04469
21
0.156457
0
LINE
8
BLACK
6
CONTINUOUS
10
1.04469
20
0.156457
11
1.037
21
0.157213
0
LINE
8
BLACK
6
CONTINUOUS
10
1.037
20
0.157213
11
1.02962
21
0.159454
0
LINE
8
BLACK
6
CONTINUOUS
10
1.02962
20
0.159454
11
1.02281
21
0.163092
0
LINE
8
BLACK
6
CONTINUOUS
10
1.02281
20
0.163092
11
1.01685
21
0.167988
0
LINE
8
BLACK
6
CONTINUOUS
10
1.01685
20
0.167988
11
1.01195
21
0.173954
0
LINE
8
BLACK
6
CONTINUOUS
10
1.01195
20
0.173954
11
1.00831
21
0.180761
0
LINE
8
BLACK
6
CONTINUOUS
10
1.00831
20
0.180761
11
1.00607
21
0.188146
0
LINE
8
BLACK
6
CONTINUOUS
10
1.00607
20
0.188146
11
1.00531
21
0.195827
0
LINE
8
BLACK
6
CONTINUOUS
10
1.00531
20
0.195827
11
1.00607
21
0.203507
0
LINE
8
BLACK
6
CONTINUOUS
10
1.00607
20
0.203507
11
1.00831
21
0.210893
0
LINE
8
BLACK
6
CONTINUOUS
10
1.00831
20
0.210893
11
1.01195
21
0.2177
0
LINE
8
BLACK
6
CONTINUOUS
10
1.01195
20
0.2177
11
1.01685
21
0.223666
0
LINE
8
BLACK
6
CONTINUOUS
10
1.01685
20
0.223666
11
1.02281
21
0.228562
0
LINE
8
BLACK
6
CONTINUOUS
10
1.02281
20
0.228562
11
1.02962
21
0.2322
0
LINE
8
BLACK
6
CONTINUOUS
10
1.02962
20
0.2322
11
1.037
21
0.23444
0
LINE
8
BLACK
6
CONTINUOUS
10
1.037
20
0.23444
11
1.04469
21
0.235197
0
LINE
8
BLACK
6
CONTINUOUS
10
1.04469
20
0.235197
11
1.05237
21
0.23444
0
LINE
8
BLACK
6
CONTINUOUS
10
1.18092
20
0.234189
11
1.18219
21
0.233335
0
LINE
8
BLACK
6
CONTINUOUS
10
1.18219
20
0.233335
11
1.18305
21
0.232058
0
LINE
8
BLACK
6
CONTINUOUS
10
1.18305
20
0.232058
11
1.18335
21
0.230551
0
LINE
8
BLACK
6
CONTINUOUS
10
1.18335
20
0.230551
11
1.18335
21
0.170551
0
LINE
8
BLACK
6
CONTINUOUS
10
1.18335
20
0.170551
11
1.18305
21
0.169045
0
LINE
8
BLACK
6
CONTINUOUS
10
1.18305
20
0.169045
11
1.18219
21
0.167767
0
LINE
8
BLACK
6
CONTINUOUS
10
1.18219
20
0.167767
11
1.18092
21
0.166914
0
LINE
8
BLACK
6
CONTINUOUS
10
1.18092
20
0.166914
11
1.17941
21
0.166614
0
LINE
8
BLACK
6
CONTINUOUS
10
1.17941
20
0.166614
11
1.11941
21
0.166614
0
LINE
8
BLACK
6
CONTINUOUS
10
1.11941
20
0.166614
11
1.1179
21
0.166914
0
LINE
8
BLACK
6
CONTINUOUS
10
1.1179
20
0.166914
11
1.11663
21
0.167767
0
LINE
8
BLACK
6
CONTINUOUS
10
1.11663
20
0.167767
11
1.11577
21
0.169045
0
LINE
8
BLACK
6
CONTINUOUS
10
1.11577
20
0.169045
11
1.11547
21
0.170551
0
LINE
8
BLACK
6
CONTINUOUS
10
1.11547
20
0.170551
11
1.11547
21
0.230551
0
LINE
8
BLACK
6
CONTINUOUS
10
1.11547
20
0.230551
11
1.11577
21
0.232058
0
LINE
8
BLACK
6
CONTINUOUS
10
1.11577
20
0.232058
11
1.11663
21
0.233335
0
LINE
8
BLACK
6
CONTINUOUS
10
1.11663
20
0.233335
11
1.1179
21
0.234189
0
LINE
8
BLACK
6
CONTINUOUS
10
1.1179
20
0.234189
11
1.11941
21
0.234488
0
LINE
8
BLACK
6
CONTINUOUS
10
1.11941
20
0.234488
11
1.17941
21
0.234488
0
LINE
8
BLACK
6
CONTINUOUS
10
1.17941
20
0.234488
11
1.18092
21
0.234189
0
LINE
8
BLACK
6
CONTINUOUS
10
1.28092
20
0.234189
11
1.28219
21
0.233335
0
LINE
8
BLACK
6
CONTINUOUS
10
1.28219
20
0.233335
11
1.28305
21
0.232058
0
LINE
8
BLACK
6
CONTINUOUS
10
1.28305
20
0.232058
11
1.28335
21
0.230551
0
LINE
8
BLACK
6
CONTINUOUS
10
1.28335
20
0.230551
11
1.28335
21
0.170551
0
LINE
8
BLACK
6
CONTINUOUS
10
1.28335
20
0.170551
11
1.28305
21
0.169045
0
LINE
8
BLACK
6
CONTINUOUS
10
1.28305
20
0.169045
11
1.28219
21
0.167767
0
LINE
8
BLACK
6
CONTINUOUS
10
1.28219
20
0.167767
11
1.28092
21
0.166914
0
LINE
8
BLACK
6
CONTINUOUS
10
1.28092
20
0.166914
11
1.27941
21
0.166614
0
LINE
8
BLACK
6
CONTINUOUS
10
1.27941
20
0.166614
11
1.21941
21
0.166614
0
LINE
8
BLACK
6
CONTINUOUS
10
1.21941
20
0.166614
11
1.2179
21
0.166914
0
LINE
8
BLACK
6
CONTINUOUS
10
1.2179
20
0.166914
11
1.21663
21
0.167767
0
LINE
8
BLACK
6
CONTINUOUS
10
1.21663
20
0.167767
11
1.21577
21
0.169045
0
LINE
8
BLACK
6
CONTINUOUS
10
1.21577
20
0.169045
11
1.21547
21
0.170551
0
LINE
8
BLACK
6
CONTINUOUS
10
1.21547
20
0.170551
11
1.21547
21
0.230551
0
LINE
8
BLACK
6
CONTINUOUS
10
1.21547
20
0.230551
11
1.21577
21
0.232058
0
LINE
8
BLACK
6
CONTINUOUS
10
1.21577
20
0.232058
11
1.21663
21
0.233335
0
LINE
8
BLACK
6
CONTINUOUS
10
1.21663
20
0.233335
11
1.2179
21
0.234189
0
LINE
8
BLACK
6
CONTINUOUS
10
1.2179
20
0.234189
11
1.21941
21
0.234488
0
LINE
8
BLACK
6
CONTINUOUS
10
1.21941
20
0.234488
11
1.27941
21
0.234488
0
LINE
8
BLACK
6
CONTINUOUS
10
1.27941
20
0.234488
11
1.28092
21
0.234189
0
LINE
8
BLACK
6
CONTINUOUS
10
0.976034
20
0.237141
11
0.977311
21
0.236288
0
LINE
8
BLACK
6
CONTINUOUS
10
0.977311
20
0.236288
11
0.978165
21
0.235011
0
LINE
8
BLACK
6
CONTINUOUS
10
0.978165
20
0.235011
11
0.978465
21
0.233504
0
LINE
8
BLACK
6
CONTINUOUS
10
0.978465
20
0.233504
11
0.978465
21
0.213819
0
LINE
8
BLACK
6
CONTINUOUS
10
0.978465
20
0.213819
11
0.978264
21
0.212812
0
LINE
8
BLACK
6
CONTINUOUS
10
0.978264
20
0.212812
11
0.978264
21
0.211017
0
LINE
8
BLACK
6
CONTINUOUS
10
0.978264
20
0.211017
11
0.978105
21
0.209908
0
LINE
8
BLACK
6
CONTINUOUS
10
0.978105
20
0.209908
11
0.976526
21
0.204532
0
LINE
8
BLACK
6
CONTINUOUS
10
0.976526
20
0.204532
11
0.976061
21
0.203513
0
LINE
8
BLACK
6
CONTINUOUS
10
0.976061
20
0.203513
11
0.973031
21
0.198799
0
LINE
8
BLACK
6
CONTINUOUS
10
0.973031
20
0.198799
11
0.972298
21
0.197953
0
LINE
8
BLACK
6
CONTINUOUS
10
0.972298
20
0.197953
11
0.968063
21
0.194283
0
LINE
8
BLACK
6
CONTINUOUS
10
0.968063
20
0.194283
11
0.967121
21
0.193678
0
LINE
8
BLACK
6
CONTINUOUS
10
0.967121
20
0.193678
11
0.962024
21
0.19135
0
LINE
8
BLACK
6
CONTINUOUS
10
0.962024
20
0.19135
11
0.960949
21
0.191034
0
LINE
8
BLACK
6
CONTINUOUS
10
0.960949
20
0.191034
11
0.955403
21
0.190237
0
LINE
8
BLACK
6
CONTINUOUS
10
0.955403
20
0.190237
11
0.954843
21
0.190197
0
LINE
8
BLACK
6
CONTINUOUS
10
0.954843
20
0.190197
11
0.935157
21
0.190197
0
LINE
8
BLACK
6
CONTINUOUS
10
0.935157
20
0.190197
11
0.934597
21
0.190237
0
LINE
8
BLACK
6
CONTINUOUS
10
0.934597
20
0.190237
11
0.929051
21
0.191034
0
LINE
8
BLACK
6
CONTINUOUS
10
0.929051
20
0.191034
11
0.927976
21
0.19135
0
LINE
8
BLACK
6
CONTINUOUS
10
0.927976
20
0.19135
11
0.922879
21
0.193678
0
LINE
8
BLACK
6
CONTINUOUS
10
0.922879
20
0.193678
11
0.921937
21
0.194283
0
LINE
8
BLACK
6
CONTINUOUS
10
0.921937
20
0.194283
11
0.917702
21
0.197953
0
LINE
8
BLACK
6
CONTINUOUS
10
0.917702
20
0.197953
11
0.916969
21
0.198799
0
LINE
8
BLACK
6
CONTINUOUS
10
0.916969
20
0.198799
11
0.913939
21
0.203513
0
LINE
8
BLACK
6
CONTINUOUS
10
0.913939
20
0.203513
11
0.913474
21
0.204532
0
LINE
8
BLACK
6
CONTINUOUS
10
0.913474
20
0.204532
11
0.911895
21
0.209908
0
LINE
8
BLACK
6
CONTINUOUS
10
0.911895
20
0.209908
11
0.911736
21
0.211017
0
LINE
8
BLACK
6
CONTINUOUS
10
0.911736
20
0.211017
11
0.911736
21
0.212812
0
LINE
8
BLACK
6
CONTINUOUS
10
0.911736
20
0.212812
11
0.911535
21
0.213819
0
LINE
8
BLACK
6
CONTINUOUS
10
0.911535
20
0.213819
11
0.911535
21
0.233504
0
LINE
8
BLACK
6
CONTINUOUS
10
0.911535
20
0.233504
11
0.911835
21
0.235011
0
LINE
8
BLACK
6
CONTINUOUS
10
0.911835
20
0.235011
11
0.912689
21
0.236288
0
LINE
8
BLACK
6
CONTINUOUS
10
0.912689
20
0.236288
11
0.913966
21
0.237141
0
LINE
8
BLACK
6
CONTINUOUS
10
0.913966
20
0.237141
11
0.915472
21
0.237441
0
LINE
8
BLACK
6
CONTINUOUS
10
0.915472
20
0.237441
11
0.974528
21
0.237441
0
LINE
8
BLACK
6
CONTINUOUS
10
0.974528
20
0.237441
11
0.976034
21
0.237141
0
LINE
8
BLACK
6
CONTINUOUS
10
-0.0641784
20
0.313797
11
-0.0601033
21
0.311805
0
LINE
8
BLACK
6
CONTINUOUS
10
-0.0601033
20
0.311805
11
-0.0568958
21
0.308598
0
LINE
8
BLACK
6
CONTINUOUS
10
-0.0568958
20
0.308598
11
-0.0549035
21
0.304522
0
LINE
8
BLACK
6
CONTINUOUS
10
-0.0549035
20
0.304522
11
-0.0543307
21
0.300591
0
LINE
8
BLACK
6
CONTINUOUS
10
-0.0543307
20
0.300591
11
-0.0543307
21
0.249409
0
LINE
8
BLACK
6
CONTINUOUS
10
-0.0543307
20
0.249409
11
-0.0549035
21
0.245478
0
LINE
8
BLACK
6
CONTINUOUS
10
-0.0549035
20
0.245478
11
-0.0568958
21
0.241402
0
LINE
8
BLACK
6
CONTINUOUS
10
-0.0568958
20
0.241402
11
-0.0601033
21
0.238195
0
LINE
8
BLACK
6
CONTINUOUS
10
-0.0601033
20
0.238195
11
-0.0641784
21
0.236203
0
LINE
8
BLACK
6
CONTINUOUS
10
-0.0641784
20
0.236203
11
-0.0681102
21
0.23563
0
LINE
8
BLACK
6
CONTINUOUS
10
-0.0681102
20
0.23563
11
-0.14685
21
0.23563
0
LINE
8
BLACK
6
CONTINUOUS
10
-0.14685
20
0.23563
11
-0.150782
21
0.236203
0
LINE
8
BLACK
6
CONTINUOUS
10
-0.150782
20
0.236203
11
-0.154857
21
0.238195
0
LINE
8
BLACK
6
CONTINUOUS
10
-0.154857
20
0.238195
11
-0.158065
21
0.241402
0
LINE
8
BLACK
6
CONTINUOUS
10
-0.158065
20
0.241402
11
-0.160057
21
0.245478
0
LINE
8
BLACK
6
CONTINUOUS
10
-0.160057
20
0.245478
11
-0.16063
21
0.249409
0
LINE
8
BLACK
6
CONTINUOUS
10
-0.16063
20
0.249409
11
-0.16063
21
0.300591
0
LINE
8
BLACK
6
CONTINUOUS
10
-0.16063
20
0.300591
11
-0.160057
21
0.304522
0
LINE
8
BLACK
6
CONTINUOUS
10
-0.160057
20
0.304522
11
-0.158065
21
0.308598
0
LINE
8
BLACK
6
CONTINUOUS
10
-0.158065
20
0.308598
11
-0.154857
21
0.311805
0
LINE
8
BLACK
6
CONTINUOUS
10
-0.154857
20
0.311805
11
-0.150782
21
0.313797
0
LINE
8
BLACK
6
CONTINUOUS
10
-0.150782
20
0.313797
11
-0.14685
21
0.31437
0
LINE
8
BLACK
6
CONTINUOUS
10
-0.14685
20
0.31437
11
-0.0681102
21
0.31437
0
LINE
8
BLACK
6
CONTINUOUS
10
-0.0681102
20
0.31437
11
-0.0641784
21
0.313797
0
LINE
8
BLACK
6
CONTINUOUS
10
0.0933019
20
0.313797
11
0.097377
21
0.311805
0
LINE
8
BLACK
6
CONTINUOUS
10
0.097377
20
0.311805
11
0.100585
21
0.308598
0
LINE
8
BLACK
6
CONTINUOUS
10
0.100585
20
0.308598
11
0.102577
21
0.304522
0
LINE
8
BLACK
6
CONTINUOUS
10
0.102577
20
0.304522
11
0.10315
21
0.300591
0
LINE
8
BLACK
6
CONTINUOUS
10
0.10315
20
0.300591
11
0.10315
21
0.249409
0
LINE
8
BLACK
6
CONTINUOUS
10
0.10315
20
0.249409
11
0.102577
21
0.245478
0
LINE
8
BLACK
6
CONTINUOUS
10
0.102577
20
0.245478
11
0.100585
21
0.241402
0
LINE
8
BLACK
6
CONTINUOUS
10
0.100585
20
0.241402
11
0.097377
21
0.238195
0
LINE
8
BLACK
6
CONTINUOUS
10
0.097377
20
0.238195
11
0.0933019
21
0.236203
0
LINE
8
BLACK
6
CONTINUOUS
10
0.0933019
20
0.236203
11
0.0893701
21
0.23563
0
LINE
8
BLACK
6
CONTINUOUS
10
0.0893701
20
0.23563
11
0.0106299
21
0.23563
0
LINE
8
BLACK
6
CONTINUOUS
10
0.0106299
20
0.23563
11
0.00669811
21
0.236203
0
LINE
8
BLACK
6
CONTINUOUS
10
0.00669811
20
0.236203
11
0.00262295
21
0.238195
0
LINE
8
BLACK
6
CONTINUOUS
10
0.00262295
20
0.238195
11
-0.000584528
21
0.241402
0
LINE
8
BLACK
6
CONTINUOUS
10
-0.000584528
20
0.241402
11
-0.00257677
21
0.245478
0
LINE
8
BLACK
6
CONTINUOUS
10
-0.00257677
20
0.245478
11
-0.00314961
21
0.249409
0
LINE
8
BLACK
6
CONTINUOUS
10
-0.00314961
20
0.249409
11
-0.00314961
21
0.300591
0
LINE
8
BLACK
6
CONTINUOUS
10
-0.00314961
20
0.300591
11
-0.00257677
21
0.304522
0
LINE
8
BLACK
6
CONTINUOUS
10
-0.00257677
20
0.304522
11
-0.000584528
21
0.308598
0
LINE
8
BLACK
6
CONTINUOUS
10
-0.000584528
20
0.308598
11
0.00262295
21
0.311805
0
LINE
8
BLACK
6
CONTINUOUS
10
0.00262295
20
0.311805
11
0.00669811
21
0.313797
0
LINE
8
BLACK
6
CONTINUOUS
10
0.00669811
20
0.313797
11
0.0106299
21
0.31437
0
LINE
8
BLACK
6
CONTINUOUS
10
0.0106299
20
0.31437
11
0.0893701
21
0.31437
0
LINE
8
BLACK
6
CONTINUOUS
10
0.0893701
20
0.31437
11
0.0933019
21
0.313797
0
LINE
8
BLACK
6
CONTINUOUS
10
0.955403
20
0.288582
11
0.960949
21
0.287785
0
LINE
8
BLACK
6
CONTINUOUS
10
0.960949
20
0.287785
11
0.962024
21
0.287469
0
LINE
8
BLACK
6
CONTINUOUS
10
0.962024
20
0.287469
11
0.967121
21
0.285141
0
LINE
8
BLACK
6
CONTINUOUS
10
0.967121
20
0.285141
11
0.968063
21
0.284536
0
LINE
8
BLACK
6
CONTINUOUS
10
0.968063
20
0.284536
11
0.972298
21
0.280866
0
LINE
8
BLACK
6
CONTINUOUS
10
0.972298
20
0.280866
11
0.973031
21
0.280019
0
LINE
8
BLACK
6
CONTINUOUS
10
0.973031
20
0.280019
11
0.976061
21
0.275306
0
LINE
8
BLACK
6
CONTINUOUS
10
0.976061
20
0.275306
11
0.976526
21
0.274287
0
LINE
8
BLACK
6
CONTINUOUS
10
0.976526
20
0.274287
11
0.978105
21
0.268911
0
LINE
8
BLACK
6
CONTINUOUS
10
0.978105
20
0.268911
11
0.978264
21
0.267801
0
LINE
8
BLACK
6
CONTINUOUS
10
0.978264
20
0.267801
11
0.978264
21
0.266007
0
LINE
8
BLACK
6
CONTINUOUS
10
0.978264
20
0.266007
11
0.978465
21
0.265
0
LINE
8
BLACK
6
CONTINUOUS
10
0.978465
20
0.265
11
0.978465
21
0.245315
0
LINE
8
BLACK
6
CONTINUOUS
10
0.978465
20
0.245315
11
0.978165
21
0.243808
0
LINE
8
BLACK
6
CONTINUOUS
10
0.978165
20
0.243808
11
0.977311
21
0.242531
0
LINE
8
BLACK
6
CONTINUOUS
10
0.977311
20
0.242531
11
0.976034
21
0.241678
0
LINE
8
BLACK
6
CONTINUOUS
10
0.976034
20
0.241678
11
0.974528
21
0.241378
0
LINE
8
BLACK
6
CONTINUOUS
10
0.974528
20
0.241378
11
0.915472
21
0.241378
0
LINE
8
BLACK
6
CONTINUOUS
10
0.915472
20
0.241378
11
0.913966
21
0.241678
0
LINE
8
BLACK
6
CONTINUOUS
10
0.913966
20
0.241678
11
0.912689
21
0.242531
0
LINE
8
BLACK
6
CONTINUOUS
10
0.912689
20
0.242531
11
0.911835
21
0.243808
0
LINE
8
BLACK
6
CONTINUOUS
10
0.911835
20
0.243808
11
0.911535
21
0.245315
0
LINE
8
BLACK
6
CONTINUOUS
10
0.911535
20
0.245315
11
0.911535
21
0.265
0
LINE
8
BLACK
6
CONTINUOUS
10
0.911535
20
0.265
11
0.911736
21
0.266007
0
LINE
8
BLACK
6
CONTINUOUS
10
0.911736
20
0.266007
11
0.911736
21
0.267801
0
LINE
8
BLACK
6
CONTINUOUS
10
0.911736
20
0.267801
11
0.911895
21
0.268911
0
LINE
8
BLACK
6
CONTINUOUS
10
0.911895
20
0.268911
11
0.913474
21
0.274287
0
LINE
8
BLACK
6
CONTINUOUS
10
0.913474
20
0.274287
11
0.913939
21
0.275306
0
LINE
8
BLACK
6
CONTINUOUS
10
0.913939
20
0.275306
11
0.916969
21
0.280019
0
LINE
8
BLACK
6
CONTINUOUS
10
0.916969
20
0.280019
11
0.917702
21
0.280866
0
LINE
8
BLACK
6
CONTINUOUS
10
0.917702
20
0.280866
11
0.921937
21
0.284536
0
LINE
8
BLACK
6
CONTINUOUS
10
0.921937
20
0.284536
11
0.922879
21
0.285141
0
LINE
8
BLACK
6
CONTINUOUS
10
0.922879
20
0.285141
11
0.927976
21
0.287469
0
LINE
8
BLACK
6
CONTINUOUS
10
0.927976
20
0.287469
11
0.929051
21
0.287785
0
LINE
8
BLACK
6
CONTINUOUS
10
0.929051
20
0.287785
11
0.934597
21
0.288582
0
LINE
8
BLACK
6
CONTINUOUS
10
0.934597
20
0.288582
11
0.935157
21
0.288622
0
LINE
8
BLACK
6
CONTINUOUS
10
0.935157
20
0.288622
11
0.954843
21
0.288622
0
LINE
8
BLACK
6
CONTINUOUS
10
0.954843
20
0.288622
11
0.955403
21
0.288582
0
LINE
8
BLACK
6
CONTINUOUS
10
1.18092
20
0.334189
11
1.18219
21
0.333335
0
LINE
8
BLACK
6
CONTINUOUS
10
1.18219
20
0.333335
11
1.18305
21
0.332058
0
LINE
8
BLACK
6
CONTINUOUS
10
1.18305
20
0.332058
11
1.18335
21
0.330551
0
LINE
8
BLACK
6
CONTINUOUS
10
1.18335
20
0.330551
11
1.18335
21
0.270551
0
LINE
8
BLACK
6
CONTINUOUS
10
1.18335
20
0.270551
11
1.18305
21
0.269045
0
LINE
8
BLACK
6
CONTINUOUS
10
1.18305
20
0.269045
11
1.18219
21
0.267767
0
LINE
8
BLACK
6
CONTINUOUS
10
1.18219
20
0.267767
11
1.18092
21
0.266914
0
LINE
8
BLACK
6
CONTINUOUS
10
1.18092
20
0.266914
11
1.17941
21
0.266614
0
LINE
8
BLACK
6
CONTINUOUS
10
1.17941
20
0.266614
11
1.11941
21
0.266614
0
LINE
8
BLACK
6
CONTINUOUS
10
1.11941
20
0.266614
11
1.1179
21
0.266914
0
LINE
8
BLACK
6
CONTINUOUS
10
1.1179
20
0.266914
11
1.11663
21
0.267767
0
LINE
8
BLACK
6
CONTINUOUS
10
1.11663
20
0.267767
11
1.11577
21
0.269045
0
LINE
8
BLACK
6
CONTINUOUS
10
1.11577
20
0.269045
11
1.11547
21
0.270551
0
LINE
8
BLACK
6
CONTINUOUS
10
1.11547
20
0.270551
11
1.11547
21
0.330551
0
LINE
8
BLACK
6
CONTINUOUS
10
1.11547
20
0.330551
11
1.11577
21
0.332058
0
LINE
8
BLACK
6
CONTINUOUS
10
1.11577
20
0.332058
11
1.11663
21
0.333335
0
LINE
8
BLACK
6
CONTINUOUS
10
1.11663
20
0.333335
11
1.1179
21
0.334189
0
LINE
8
BLACK
6
CONTINUOUS
10
1.1179
20
0.334189
11
1.11941
21
0.334488
0
LINE
8
BLACK
6
CONTINUOUS
10
1.11941
20
0.334488
11
1.17941
21
0.334488
0
LINE
8
BLACK
6
CONTINUOUS
10
1.17941
20
0.334488
11
1.18092
21
0.334189
0
LINE
8
BLACK
6
CONTINUOUS
10
1.28092
20
0.334189
11
1.28219
21
0.333335
0
LINE
8
BLACK
6
CONTINUOUS
10
1.28219
20
0.333335
11
1.28305
21
0.332058
0
LINE
8
BLACK
6
CONTINUOUS
10
1.28305
20
0.332058
11
1.28335
21
0.330551
0
LINE
8
BLACK
6
CONTINUOUS
10
1.28335
20
0.330551
11
1.28335
21
0.270551
0
LINE
8
BLACK
6
CONTINUOUS
10
1.28335
20
0.270551
11
1.28305
21
0.269045
0
LINE
8
BLACK
6
CONTINUOUS
10
1.28305
20
0.269045
11
1.28219
21
0.267767
0
LINE
8
BLACK
6
CONTINUOUS
10
1.28219
20
0.267767
11
1.28092
21
0.266914
0
LINE
8
BLACK
6
CONTINUOUS
10
1.28092
20
0.266914
11
1.27941
21
0.266614
0
LINE
8
BLACK
6
CONTINUOUS
10
1.27941
20
0.266614
11
1.21941
21
0.266614
0
LINE
8
BLACK
6
CONTINUOUS
10
1.21941
20
0.266614
11
1.2179
21
0.266914
0
LINE
8
BLACK
6
CONTINUOUS
10
1.2179
20
0.266914
11
1.21663
21
0.267767
0
LINE
8
BLACK
6
CONTINUOUS
10
1.21663
20
0.267767
11
1.21577
21
0.269045
0
LINE
8
BLACK
6
CONTINUOUS
10
1.21577
20
0.269045
11
1.21547
21
0.270551
0
LINE
8
BLACK
6
CONTINUOUS
10
1.21547
20
0.270551
11
1.21547
21
0.330551
0
LINE
8
BLACK
6
CONTINUOUS
10
1.21547
20
0.330551
11
1.21577
21
0.332058
0
LINE
8
BLACK
6
CONTINUOUS
10
1.21577
20
0.332058
11
1.21663
21
0.333335
0
LINE
8
BLACK
6
CONTINUOUS
10
1.21663
20
0.333335
11
1.2179
21
0.334189
0
LINE
8
BLACK
6
CONTINUOUS
10
1.2179
20
0.334189
11
1.21941
21
0.334488
0
LINE
8
BLACK
6
CONTINUOUS
10
1.21941
20
0.334488
11
1.27941
21
0.334488
0
LINE
8
BLACK
6
CONTINUOUS
10
1.27941
20
0.334488
11
1.28092
21
0.334189
0
LINE
8
BLACK
6
CONTINUOUS
10
0.338557
20
0.381683
11
0.345573
21
0.379555
0
LINE
8
BLACK
6
CONTINUOUS
10
0.345573
20
0.379555
11
0.352039
21
0.376098
0
LINE
8
BLACK
6
CONTINUOUS
10
0.352039
20
0.376098
11
0.357707
21
0.371447
0
LINE
8
BLACK
6
CONTINUOUS
10
0.357707
20
0.371447
11
0.362358
21
0.365779
0
LINE
8
BLACK
6
CONTINUOUS
10
0.362358
20
0.365779
11
0.365814
21
0.359313
0
LINE
8
BLACK
6
CONTINUOUS
10
0.365814
20
0.359313
11
0.367943
21
0.352297
0
LINE
8
BLACK
6
CONTINUOUS
10
0.367943
20
0.352297
11
0.368661
21
0.345
0
LINE
8
BLACK
6
CONTINUOUS
10
0.368661
20
0.345
11
0.367943
21
0.337703
0
LINE
8
BLACK
6
CONTINUOUS
10
0.367943
20
0.337703
11
0.365814
21
0.330687
0
LINE
8
BLACK
6
CONTINUOUS
10
0.365814
20
0.330687
11
0.362358
21
0.324221
0
LINE
8
BLACK
6
CONTINUOUS
10
0.362358
20
0.324221
11
0.357707
21
0.318553
0
LINE
8
BLACK
6
CONTINUOUS
10
0.357707
20
0.318553
11
0.352039
21
0.313902
0
LINE
8
BLACK
6
CONTINUOUS
10
0.352039
20
0.313902
11
0.345573
21
0.310445
0
LINE
8
BLACK
6
CONTINUOUS
10
0.345573
20
0.310445
11
0.338557
21
0.308317
0
LINE
8
BLACK
6
CONTINUOUS
10
0.338557
20
0.308317
11
0.33126
21
0.307598
0
LINE
8
BLACK
6
CONTINUOUS
10
0.33126
20
0.307598
11
0.323963
21
0.308317
0
LINE
8
BLACK
6
CONTINUOUS
10
0.323963
20
0.308317
11
0.316947
21
0.310445
0
LINE
8
BLACK
6
CONTINUOUS
10
0.316947
20
0.310445
11
0.310481
21
0.313902
0
LINE
8
BLACK
6
CONTINUOUS
10
0.310481
20
0.313902
11
0.304813
21
0.318553
0
LINE
8
BLACK
6
CONTINUOUS
10
0.304813
20
0.318553
11
0.300162
21
0.324221
0
LINE
8
BLACK
6
CONTINUOUS
10
0.300162
20
0.324221
11
0.296705
21
0.330687
0
LINE
8
BLACK
6
CONTINUOUS
10
0.296705
20
0.330687
11
0.294577
21
0.337703
0
LINE
8
BLACK
6
CONTINUOUS
10
0.294577
20
0.337703
11
0.293858
21
0.345
0
LINE
8
BLACK
6
CONTINUOUS
10
0.293858
20
0.345
11
0.294577
21
0.352297
0
LINE
8
BLACK
6
CONTINUOUS
10
0.294577
20
0.352297
11
0.296705
21
0.359313
0
LINE
8
BLACK
6
CONTINUOUS
10
0.296705
20
0.359313
11
0.300162
21
0.365779
0
LINE
8
BLACK
6
CONTINUOUS
10
0.300162
20
0.365779
11
0.304813
21
0.371447
0
LINE
8
BLACK
6
CONTINUOUS
10
0.304813
20
0.371447
11
0.310481
21
0.376098
0
LINE
8
BLACK
6
CONTINUOUS
10
0.310481
20
0.376098
11
0.316947
21
0.379555
0
LINE
8
BLACK
6
CONTINUOUS
10
0.316947
20
0.379555
11
0.323963
21
0.381683
0
LINE
8
BLACK
6
CONTINUOUS
10
0.323963
20
0.381683
11
0.33126
21
0.382402
0
LINE
8
BLACK
6
CONTINUOUS
10
0.33126
20
0.382402
11
0.338557
21
0.381683
0
LINE
8
BLACK
6
CONTINUOUS
10
0.444971
20
0.382102
11
0.446248
21
0.381248
0
LINE
8
BLACK
6
CONTINUOUS
10
0.446248
20
0.381248
11
0.447102
21
0.379971
0
LINE
8
BLACK
6
CONTINUOUS
10
0.447102
20
0.379971
11
0.447402
21
0.378465
0
LINE
8
BLACK
6
CONTINUOUS
10
0.447402
20
0.378465
11
0.447402
21
0.311535
0
LINE
8
BLACK
6
CONTINUOUS
10
0.447402
20
0.311535
11
0.447102
21
0.310029
0
LINE
8
BLACK
6
CONTINUOUS
10
0.447102
20
0.310029
11
0.446248
21
0.308752
0
LINE
8
BLACK
6
CONTINUOUS
10
0.446248
20
0.308752
11
0.444971
21
0.307898
0
LINE
8
BLACK
6
CONTINUOUS
10
0.444971
20
0.307898
11
0.443465
21
0.307598
0
LINE
8
BLACK
6
CONTINUOUS
10
0.443465
20
0.307598
11
0.376535
21
0.307598
0
LINE
8
BLACK
6
CONTINUOUS
10
0.376535
20
0.307598
11
0.375029
21
0.307898
0
LINE
8
BLACK
6
CONTINUOUS
10
0.375029
20
0.307898
11
0.373752
21
0.308752
0
LINE
8
BLACK
6
CONTINUOUS
10
0.373752
20
0.308752
11
0.372898
21
0.310029
0
LINE
8
BLACK
6
CONTINUOUS
10
0.372898
20
0.310029
11
0.372598
21
0.311535
0
LINE
8
BLACK
6
CONTINUOUS
10
0.372598
20
0.311535
11
0.372598
21
0.378465
0
LINE
8
BLACK
6
CONTINUOUS
10
0.372598
20
0.378465
11
0.372898
21
0.379971
0
LINE
8
BLACK
6
CONTINUOUS
10
0.372898
20
0.379971
11
0.373752
21
0.381248
0
LINE
8
BLACK
6
CONTINUOUS
10
0.373752
20
0.381248
11
0.375029
21
0.382102
0
LINE
8
BLACK
6
CONTINUOUS
10
0.375029
20
0.382102
11
0.376535
21
0.382402
0
LINE
8
BLACK
6
CONTINUOUS
10
0.376535
20
0.382402
11
0.443465
21
0.382402
0
LINE
8
BLACK
6
CONTINUOUS
10
0.443465
20
0.382402
11
0.444971
21
0.382102
0
LINE
8
BLACK
6
CONTINUOUS
10
0.961507
20
0.386137
11
0.962784
21
0.385284
0
LINE
8
BLACK
6
CONTINUOUS
10
0.962784
20
0.385284
11
0.963637
21
0.384007
0
LINE
8
BLACK
6
CONTINUOUS
10
0.963637
20
0.384007
11
0.963937
21
0.3825
0
LINE
8
BLACK
6
CONTINUOUS
10
0.963937
20
0.3825
11
0.963937
21
0.3275
0
LINE
8
BLACK
6
CONTINUOUS
10
0.963937
20
0.3275
11
0.963637
21
0.325993
0
LINE
8
BLACK
6
CONTINUOUS
10
0.963637
20
0.325993
11
0.962784
21
0.324716
0
LINE
8
BLACK
6
CONTINUOUS
10
0.962784
20
0.324716
11
0.961507
21
0.323863
0
LINE
8
BLACK
6
CONTINUOUS
10
0.961507
20
0.323863
11
0.96
21
0.323563
0
LINE
8
BLACK
6
CONTINUOUS
10
0.96
20
0.323563
11
0.925
21
0.323563
0
LINE
8
BLACK
6
CONTINUOUS
10
0.925
20
0.323563
11
0.923493
21
0.323863
0
LINE
8
BLACK
6
CONTINUOUS
10
0.923493
20
0.323863
11
0.922216
21
0.324716
0
LINE
8
BLACK
6
CONTINUOUS
10
0.922216
20
0.324716
11
0.921363
21
0.325993
0
LINE
8
BLACK
6
CONTINUOUS
10
0.921363
20
0.325993
11
0.921063
21
0.3275
0
LINE
8
BLACK
6
CONTINUOUS
10
0.921063
20
0.3275
11
0.921063
21
0.3825
0
LINE
8
BLACK
6
CONTINUOUS
10
0.921063
20
0.3825
11
0.921363
21
0.384007
0
LINE
8
BLACK
6
CONTINUOUS
10
0.921363
20
0.384007
11
0.922216
21
0.385284
0
LINE
8
BLACK
6
CONTINUOUS
10
0.922216
20
0.385284
11
0.923493
21
0.386137
0
LINE
8
BLACK
6
CONTINUOUS
10
0.923493
20
0.386137
11
0.925
21
0.386437
0
LINE
8
BLACK
6
CONTINUOUS
10
0.925
20
0.386437
11
0.96
21
0.386437
0
LINE
8
BLACK
6
CONTINUOUS
10
0.96
20
0.386437
11
0.961507
21
0.386137
0
LINE
8
BLACK
6
CONTINUOUS
10
1.03651
20
0.386137
11
1.03778
21
0.385284
0
LINE
8
BLACK
6
CONTINUOUS
10
1.03778
20
0.385284
11
1.03864
21
0.384007
0
LINE
8
BLACK
6
CONTINUOUS
10
1.03864
20
0.384007
11
1.03894
21
0.3825
0
LINE
8
BLACK
6
CONTINUOUS
10
1.03894
20
0.3825
11
1.03894
21
0.3275
0
LINE
8
BLACK
6
CONTINUOUS
10
1.03894
20
0.3275
11
1.03864
21
0.325993
0
LINE
8
BLACK
6
CONTINUOUS
10
1.03864
20
0.325993
11
1.03778
21
0.324716
0
LINE
8
BLACK
6
CONTINUOUS
10
1.03778
20
0.324716
11
1.03651
21
0.323863
0
LINE
8
BLACK
6
CONTINUOUS
10
1.03651
20
0.323863
11
1.035
21
0.323563
0
LINE
8
BLACK
6
CONTINUOUS
10
1.035
20
0.323563
11
1
21
0.323563
0
LINE
8
BLACK
6
CONTINUOUS
10
1
20
0.323563
11
0.998493
21
0.323863
0
LINE
8
BLACK
6
CONTINUOUS
10
0.998493
20
0.323863
11
0.997216
21
0.324716
0
LINE
8
BLACK
6
CONTINUOUS
10
0.997216
20
0.324716
11
0.996363
21
0.325993
0
LINE
8
BLACK
6
CONTINUOUS
10
0.996363
20
0.325993
11
0.996063
21
0.3275
0
LINE
8
BLACK
6
CONTINUOUS
10
0.996063
20
0.3275
11
0.996063
21
0.3825
0
LINE
8
BLACK
6
CONTINUOUS
10
0.996063
20
0.3825
11
0.996363
21
0.384007
0
LINE
8
BLACK
6
CONTINUOUS
10
0.996363
20
0.384007
11
0.997216
21
0.385284
0
LINE
8
BLACK
6
CONTINUOUS
10
0.997216
20
0.385284
11
0.998493
21
0.386137
0
LINE
8
BLACK
6
CONTINUOUS
10
0.998493
20
0.386137
11
1
21
0.386437
0
LINE
8
BLACK
6
CONTINUOUS
10
1
20
0.386437
11
1.035
21
0.386437
0
LINE
8
BLACK
6
CONTINUOUS
10
1.035
20
0.386437
11
1.03651
21
0.386137
0
LINE
8
BLACK
6
CONTINUOUS
10
0.740539
20
0.393411
11
0.742614
21
0.392024
0
LINE
8
BLACK
6
CONTINUOUS
10
0.742614
20
0.392024
11
0.744001
21
0.389948
0
LINE
8
BLACK
6
CONTINUOUS
10
0.744001
20
0.389948
11
0.744488
21
0.3875
0
LINE
8
BLACK
6
CONTINUOUS
10
0.744488
20
0.3875
11
0.744488
21
0.359941
0
LINE
8
BLACK
6
CONTINUOUS
10
0.744488
20
0.359941
11
0.744001
21
0.357493
0
LINE
8
BLACK
6
CONTINUOUS
10
0.744001
20
0.357493
11
0.742614
21
0.355417
0
LINE
8
BLACK
6
CONTINUOUS
10
0.742614
20
0.355417
11
0.740539
21
0.35403
0
LINE
8
BLACK
6
CONTINUOUS
10
0.740539
20
0.35403
11
0.738091
21
0.353543
0
LINE
8
BLACK
6
CONTINUOUS
10
0.738091
20
0.353543
11
0.733169
21
0.353543
0
LINE
8
BLACK
6
CONTINUOUS
10
0.733169
20
0.353543
11
0.730721
21
0.35403
0
LINE
8
BLACK
6
CONTINUOUS
10
0.730721
20
0.35403
11
0.728645
21
0.355417
0
LINE
8
BLACK
6
CONTINUOUS
10
0.728645
20
0.355417
11
0.727259
21
0.357493
0
LINE
8
BLACK
6
CONTINUOUS
10
0.727259
20
0.357493
11
0.726772
21
0.359941
0
LINE
8
BLACK
6
CONTINUOUS
10
0.726772
20
0.359941
11
0.726772
21
0.3875
0
LINE
8
BLACK
6
CONTINUOUS
10
0.726772
20
0.3875
11
0.727259
21
0.389948
0
LINE
8
BLACK
6
CONTINUOUS
10
0.727259
20
0.389948
11
0.728645
21
0.392024
0
LINE
8
BLACK
6
CONTINUOUS
10
0.728645
20
0.392024
11
0.730721
21
0.393411
0
LINE
8
BLACK
6
CONTINUOUS
10
0.730721
20
0.393411
11
0.733169
21
0.393898
0
LINE
8
BLACK
6
CONTINUOUS
10
0.733169
20
0.393898
11
0.738091
21
0.393898
0
LINE
8
BLACK
6
CONTINUOUS
10
0.738091
20
0.393898
11
0.740539
21
0.393411
0
LINE
8
BLACK
6
CONTINUOUS
10
0.760224
20
0.393411
11
0.762299
21
0.392024
0
LINE
8
BLACK
6
CONTINUOUS
10
0.762299
20
0.392024
11
0.763686
21
0.389948
0
LINE
8
BLACK
6
CONTINUOUS
10
0.763686
20
0.389948
11
0.764173
21
0.3875
0
LINE
8
BLACK
6
CONTINUOUS
10
0.764173
20
0.3875
11
0.764173
21
0.359941
0
LINE
8
BLACK
6
CONTINUOUS
10
0.764173
20
0.359941
11
0.763686
21
0.357493
0
LINE
8
BLACK
6
CONTINUOUS
10
0.763686
20
0.357493
11
0.762299
21
0.355417
0
LINE
8
BLACK
6
CONTINUOUS
10
0.762299
20
0.355417
11
0.760224
21
0.35403
0
LINE
8
BLACK
6
CONTINUOUS
10
0.760224
20
0.35403
11
0.757776
21
0.353543
0
LINE
8
BLACK
6
CONTINUOUS
10
0.757776
20
0.353543
11
0.752854
21
0.353543
0
LINE
8
BLACK
6
CONTINUOUS
10
0.752854
20
0.353543
11
0.750406
21
0.35403
0
LINE
8
BLACK
6
CONTINUOUS
10
0.750406
20
0.35403
11
0.748331
21
0.355417
0
LINE
8
BLACK
6
CONTINUOUS
10
0.748331
20
0.355417
11
0.746944
21
0.357493
0
LINE
8
BLACK
6
CONTINUOUS
10
0.746944
20
0.357493
11
0.746457
21
0.359941
0
LINE
8
BLACK
6
CONTINUOUS
10
0.746457
20
0.359941
11
0.746457
21
0.3875
0
LINE
8
BLACK
6
CONTINUOUS
10
0.746457
20
0.3875
11
0.746944
21
0.389948
0
LINE
8
BLACK
6
CONTINUOUS
10
0.746944
20
0.389948
11
0.748331
21
0.392024
0
LINE
8
BLACK
6
CONTINUOUS
10
0.748331
20
0.392024
11
0.750406
21
0.393411
0
LINE
8
BLACK
6
CONTINUOUS
10
0.750406
20
0.393411
11
0.752854
21
0.393898
0
LINE
8
BLACK
6
CONTINUOUS
10
0.752854
20
0.393898
11
0.757776
21
0.393898
0
LINE
8
BLACK
6
CONTINUOUS
10
0.757776
20
0.393898
11
0.760224
21
0.393411
0
LINE
8
BLACK
6
CONTINUOUS
10
0.779909
20
0.393411
11
0.781984
21
0.392024
0
LINE
8
BLACK
6
CONTINUOUS
10
0.781984
20
0.392024
11
0.783371
21
0.389948
0
LINE
8
BLACK
6
CONTINUOUS
10
0.783371
20
0.389948
11
0.783858
21
0.3875
0
LINE
8
BLACK
6
CONTINUOUS
10
0.783858
20
0.3875
11
0.783858
21
0.359941
0
LINE
8
BLACK
6
CONTINUOUS
10
0.783858
20
0.359941
11
0.783371
21
0.357493
0
LINE
8
BLACK
6
CONTINUOUS
10
0.783371
20
0.357493
11
0.781984
21
0.355417
0
LINE
8
BLACK
6
CONTINUOUS
10
0.781984
20
0.355417
11
0.779909
21
0.35403
0
LINE
8
BLACK
6
CONTINUOUS
10
0.779909
20
0.35403
11
0.777461
21
0.353543
0
LINE
8
BLACK
6
CONTINUOUS
10
0.777461
20
0.353543
11
0.772539
21
0.353543
0
LINE
8
BLACK
6
CONTINUOUS
10
0.772539
20
0.353543
11
0.770091
21
0.35403
0
LINE
8
BLACK
6
CONTINUOUS
10
0.770091
20
0.35403
11
0.768016
21
0.355417
0
LINE
8
BLACK
6
CONTINUOUS
10
0.768016
20
0.355417
11
0.766629
21
0.357493
0
LINE
8
BLACK
6
CONTINUOUS
10
0.766629
20
0.357493
11
0.766142
21
0.359941
0
LINE
8
BLACK
6
CONTINUOUS
10
0.766142
20
0.359941
11
0.766142
21
0.3875
0
LINE
8
BLACK
6
CONTINUOUS
10
0.766142
20
0.3875
11
0.766629
21
0.389948
0
LINE
8
BLACK
6
CONTINUOUS
10
0.766629
20
0.389948
11
0.768016
21
0.392024
0
LINE
8
BLACK
6
CONTINUOUS
10
0.768016
20
0.392024
11
0.770091
21
0.393411
0
LINE
8
BLACK
6
CONTINUOUS
10
0.770091
20
0.393411
11
0.772539
21
0.393898
0
LINE
8
BLACK
6
CONTINUOUS
10
0.772539
20
0.393898
11
0.777461
21
0.393898
0
LINE
8
BLACK
6
CONTINUOUS
10
0.777461
20
0.393898
11
0.779909
21
0.393411
0
LINE
8
BLACK
6
CONTINUOUS
10
0.799594
20
0.393411
11
0.801669
21
0.392024
0
LINE
8
BLACK
6
CONTINUOUS
10
0.801669
20
0.392024
11
0.803056
21
0.389948
0
LINE
8
BLACK
6
CONTINUOUS
10
0.803056
20
0.389948
11
0.803543
21
0.3875
0
LINE
8
BLACK
6
CONTINUOUS
10
0.803543
20
0.3875
11
0.803543
21
0.359941
0
LINE
8
BLACK
6
CONTINUOUS
10
0.803543
20
0.359941
11
0.803056
21
0.357493
0
LINE
8
BLACK
6
CONTINUOUS
10
0.803056
20
0.357493
11
0.801669
21
0.355417
0
LINE
8
BLACK
6
CONTINUOUS
10
0.801669
20
0.355417
11
0.799594
21
0.35403
0
LINE
8
BLACK
6
CONTINUOUS
10
0.799594
20
0.35403
11
0.797146
21
0.353543
0
LINE
8
BLACK
6
CONTINUOUS
10
0.797146
20
0.353543
11
0.792224
21
0.353543
0
LINE
8
BLACK
6
CONTINUOUS
10
0.792224
20
0.353543
11
0.789776
21
0.35403
0
LINE
8
BLACK
6
CONTINUOUS
10
0.789776
20
0.35403
11
0.787701
21
0.355417
0
LINE
8
BLACK
6
CONTINUOUS
10
0.787701
20
0.355417
11
0.786314
21
0.357493
0
LINE
8
BLACK
6
CONTINUOUS
10
0.786314
20
0.357493
11
0.785827
21
0.359941
0
LINE
8
BLACK
6
CONTINUOUS
10
0.785827
20
0.359941
11
0.785827
21
0.3875
0
LINE
8
BLACK
6
CONTINUOUS
10
0.785827
20
0.3875
11
0.786314
21
0.389948
0
LINE
8
BLACK
6
CONTINUOUS
10
0.786314
20
0.389948
11
0.787701
21
0.392024
0
LINE
8
BLACK
6
CONTINUOUS
10
0.787701
20
0.392024
11
0.789776
21
0.393411
0
LINE
8
BLACK
6
CONTINUOUS
10
0.789776
20
0.393411
11
0.792224
21
0.393898
0
LINE
8
BLACK
6
CONTINUOUS
10
0.792224
20
0.393898
11
0.797146
21
0.393898
0
LINE
8
BLACK
6
CONTINUOUS
10
0.797146
20
0.393898
11
0.799594
21
0.393411
0
LINE
8
BLACK
6
CONTINUOUS
10
0.819279
20
0.393411
11
0.821355
21
0.392024
0
LINE
8
BLACK
6
CONTINUOUS
10
0.821355
20
0.392024
11
0.822741
21
0.389948
0
LINE
8
BLACK
6
CONTINUOUS
10
0.822741
20
0.389948
11
0.823228
21
0.3875
0
LINE
8
BLACK
6
CONTINUOUS
10
0.823228
20
0.3875
11
0.823228
21
0.359941
0
LINE
8
BLACK
6
CONTINUOUS
10
0.823228
20
0.359941
11
0.822741
21
0.357493
0
LINE
8
BLACK
6
CONTINUOUS
10
0.822741
20
0.357493
11
0.821355
21
0.355417
0
LINE
8
BLACK
6
CONTINUOUS
10
0.821355
20
0.355417
11
0.819279
21
0.35403
0
LINE
8
BLACK
6
CONTINUOUS
10
0.819279
20
0.35403
11
0.816831
21
0.353543
0
LINE
8
BLACK
6
CONTINUOUS
10
0.816831
20
0.353543
11
0.811909
21
0.353543
0
LINE
8
BLACK
6
CONTINUOUS
10
0.811909
20
0.353543
11
0.809461
21
0.35403
0
LINE
8
BLACK
6
CONTINUOUS
10
0.809461
20
0.35403
11
0.807386
21
0.355417
0
LINE
8
BLACK
6
CONTINUOUS
10
0.807386
20
0.355417
11
0.805999
21
0.357493
0
LINE
8
BLACK
6
CONTINUOUS
10
0.805999
20
0.357493
11
0.805512
21
0.359941
0
LINE
8
BLACK
6
CONTINUOUS
10
0.805512
20
0.359941
11
0.805512
21
0.3875
0
LINE
8
BLACK
6
CONTINUOUS
10
0.805512
20
0.3875
11
0.805999
21
0.389948
0
LINE
8
BLACK
6
CONTINUOUS
10
0.805999
20
0.389948
11
0.807386
21
0.392024
0
LINE
8
BLACK
6
CONTINUOUS
10
0.807386
20
0.392024
11
0.809461
21
0.393411
0
LINE
8
BLACK
6
CONTINUOUS
10
0.809461
20
0.393411
11
0.811909
21
0.393898
0
LINE
8
BLACK
6
CONTINUOUS
10
0.811909
20
0.393898
11
0.816831
21
0.393898
0
LINE
8
BLACK
6
CONTINUOUS
10
0.816831
20
0.393898
11
0.819279
21
0.393411
0
LINE
8
BLACK
6
CONTINUOUS
10
1.18092
20
0.434189
11
1.18219
21
0.433335
0
LINE
8
BLACK
6
CONTINUOUS
10
1.18219
20
0.433335
11
1.18305
21
0.432058
0
LINE
8
BLACK
6
CONTINUOUS
10
1.18305
20
0.432058
11
1.18335
21
0.430551
0
LINE
8
BLACK
6
CONTINUOUS
10
1.18335
20
0.430551
11
1.18335
21
0.370551
0
LINE
8
BLACK
6
CONTINUOUS
10
1.18335
20
0.370551
11
1.18305
21
0.369045
0
LINE
8
BLACK
6
CONTINUOUS
10
1.18305
20
0.369045
11
1.18219
21
0.367767
0
LINE
8
BLACK
6
CONTINUOUS
10
1.18219
20
0.367767
11
1.18092
21
0.366914
0
LINE
8
BLACK
6
CONTINUOUS
10
1.18092
20
0.366914
11
1.17941
21
0.366614
0
LINE
8
BLACK
6
CONTINUOUS
10
1.17941
20
0.366614
11
1.11941
21
0.366614
0
LINE
8
BLACK
6
CONTINUOUS
10
1.11941
20
0.366614
11
1.1179
21
0.366914
0
LINE
8
BLACK
6
CONTINUOUS
10
1.1179
20
0.366914
11
1.11663
21
0.367767
0
LINE
8
BLACK
6
CONTINUOUS
10
1.11663
20
0.367767
11
1.11577
21
0.369045
0
LINE
8
BLACK
6
CONTINUOUS
10
1.11577
20
0.369045
11
1.11547
21
0.370551
0
LINE
8
BLACK
6
CONTINUOUS
10
1.11547
20
0.370551
11
1.11547
21
0.430551
0
LINE
8
BLACK
6
CONTINUOUS
10
1.11547
20
0.430551
11
1.11577
21
0.432058
0
LINE
8
BLACK
6
CONTINUOUS
10
1.11577
20
0.432058
11
1.11663
21
0.433335
0
LINE
8
BLACK
6
CONTINUOUS
10
1.11663
20
0.433335
11
1.1179
21
0.434189
0
LINE
8
BLACK
6
CONTINUOUS
10
1.1179
20
0.434189
11
1.11941
21
0.434488
0
LINE
8
BLACK
6
CONTINUOUS
10
1.11941
20
0.434488
11
1.17941
21
0.434488
0
LINE
8
BLACK
6
CONTINUOUS
10
1.17941
20
0.434488
11
1.18092
21
0.434189
0
LINE
8
BLACK
6
CONTINUOUS
10
1.28092
20
0.434189
11
1.28219
21
0.433335
0
LINE
8
BLACK
6
CONTINUOUS
10
1.28219
20
0.433335
11
1.28305
21
0.432058
0
LINE
8
BLACK
6
CONTINUOUS
10
1.28305
20
0.432058
11
1.28335
21
0.430551
0
LINE
8
BLACK
6
CONTINUOUS
10
1.28335
20
0.430551
11
1.28335
21
0.370551
0
LINE
8
BLACK
6
CONTINUOUS
10
1.28335
20
0.370551
11
1.28305
21
0.369045
0
LINE
8
BLACK
6
CONTINUOUS
10
1.28305
20
0.369045
11
1.28219
21
0.367767
0
LINE
8
BLACK
6
CONTINUOUS
10
1.28219
20
0.367767
11
1.28092
21
0.366914
0
LINE
8
BLACK
6
CONTINUOUS
10
1.28092
20
0.366914
11
1.27941
21
0.366614
0
LINE
8
BLACK
6
CONTINUOUS
10
1.27941
20
0.366614
11
1.21941
21
0.366614
0
LINE
8
BLACK
6
CONTINUOUS
10
1.21941
20
0.366614
11
1.2179
21
0.366914
0
LINE
8
BLACK
6
CONTINUOUS
10
1.2179
20
0.366914
11
1.21663
21
0.367767
0
LINE
8
BLACK
6
CONTINUOUS
10
1.21663
20
0.367767
11
1.21577
21
0.369045
0
LINE
8
BLACK
6
CONTINUOUS
10
1.21577
20
0.369045
11
1.21547
21
0.370551
0
LINE
8
BLACK
6
CONTINUOUS
10
1.21547
20
0.370551
11
1.21547
21
0.430551
0
LINE
8
BLACK
6
CONTINUOUS
10
1.21547
20
0.430551
11
1.21577
21
0.432058
0
LINE
8
BLACK
6
CONTINUOUS
10
1.21577
20
0.432058
11
1.21663
21
0.433335
0
LINE
8
BLACK
6
CONTINUOUS
10
1.21663
20
0.433335
11
1.2179
21
0.434189
0
LINE
8
BLACK
6
CONTINUOUS
10
1.2179
20
0.434189
11
1.21941
21
0.434488
0
LINE
8
BLACK
6
CONTINUOUS
10
1.21941
20
0.434488
11
1.27941
21
0.434488
0
LINE
8
BLACK
6
CONTINUOUS
10
1.27941
20
0.434488
11
1.28092
21
0.434189
0
LINE
8
BLACK
6
CONTINUOUS
10
-0.0959934
20
0.421137
11
-0.0947161
21
0.420284
0
LINE
8
BLACK
6
CONTINUOUS
10
-0.0947161
20
0.420284
11
-0.0938627
21
0.419007
0
LINE
8
BLACK
6
CONTINUOUS
10
-0.0938627
20
0.419007
11
-0.093563
21
0.4175
0
LINE
8
BLACK
6
CONTINUOUS
10
-0.093563
20
0.4175
11
-0.093563
21
0.3825
0
LINE
8
BLACK
6
CONTINUOUS
10
-0.093563
20
0.3825
11
-0.0938627
21
0.380993
0
LINE
8
BLACK
6
CONTINUOUS
10
-0.0938627
20
0.380993
11
-0.0947161
21
0.379716
0
LINE
8
BLACK
6
CONTINUOUS
10
-0.0947161
20
0.379716
11
-0.0959934
21
0.378863
0
LINE
8
BLACK
6
CONTINUOUS
10
-0.0959934
20
0.378863
11
-0.0975
21
0.378563
0
LINE
8
BLACK
6
CONTINUOUS
10
-0.0975
20
0.378563
11
-0.1525
21
0.378563
0
LINE
8
BLACK
6
CONTINUOUS
10
-0.1525
20
0.378563
11
-0.154007
21
0.378863
0
LINE
8
BLACK
6
CONTINUOUS
10
-0.154007
20
0.378863
11
-0.155284
21
0.379716
0
LINE
8
BLACK
6
CONTINUOUS
10
-0.155284
20
0.379716
11
-0.156137
21
0.380993
0
LINE
8
BLACK
6
CONTINUOUS
10
-0.156137
20
0.380993
11
-0.156437
21
0.3825
0
LINE
8
BLACK
6
CONTINUOUS
10
-0.156437
20
0.3825
11
-0.156437
21
0.4175
0
LINE
8
BLACK
6
CONTINUOUS
10
-0.156437
20
0.4175
11
-0.156137
21
0.419007
0
LINE
8
BLACK
6
CONTINUOUS
10
-0.156137
20
0.419007
11
-0.155284
21
0.420284
0
LINE
8
BLACK
6
CONTINUOUS
10
-0.155284
20
0.420284
11
-0.154007
21
0.421137
0
LINE
8
BLACK
6
CONTINUOUS
10
-0.154007
20
0.421137
11
-0.1525
21
0.421437
0
LINE
8
BLACK
6
CONTINUOUS
10
-0.1525
20
0.421437
11
-0.0975
21
0.421437
0
LINE
8
BLACK
6
CONTINUOUS
10
-0.0975
20
0.421437
11
-0.0959934
21
0.421137
0
LINE
8
BLACK
6
CONTINUOUS
10
0.00400661
20
0.421137
11
0.0052839
21
0.420284
0
LINE
8
BLACK
6
CONTINUOUS
10
0.0052839
20
0.420284
11
0.00613732
21
0.419007
0
LINE
8
BLACK
6
CONTINUOUS
10
0.00613732
20
0.419007
11
0.00643701
21
0.4175
0
LINE
8
BLACK
6
CONTINUOUS
10
0.00643701
20
0.4175
11
0.00643701
21
0.3825
0
LINE
8
BLACK
6
CONTINUOUS
10
0.00643701
20
0.3825
11
0.00613732
21
0.380993
0
LINE
8
BLACK
6
CONTINUOUS
10
0.00613732
20
0.380993
11
0.0052839
21
0.379716
0
LINE
8
BLACK
6
CONTINUOUS
10
0.0052839
20
0.379716
11
0.00400661
21
0.378863
0
LINE
8
BLACK
6
CONTINUOUS
10
0.00400661
20
0.378863
11
0.0025
21
0.378563
0
LINE
8
BLACK
6
CONTINUOUS
10
0.0025
20
0.378563
11
-0.0525
21
0.378563
0
LINE
8
BLACK
6
CONTINUOUS
10
-0.0525
20
0.378563
11
-0.0540066
21
0.378863
0
LINE
8
BLACK
6
CONTINUOUS
10
-0.0540066
20
0.378863
11
-0.0552839
21
0.379716
0
LINE
8
BLACK
6
CONTINUOUS
10
-0.0552839
20
0.379716
11
-0.0561373
21
0.380993
0
LINE
8
BLACK
6
CONTINUOUS
10
-0.0561373
20
0.380993
11
-0.056437
21
0.3825
0
LINE
8
BLACK
6
CONTINUOUS
10
-0.056437
20
0.3825
11
-0.056437
21
0.4175
0
LINE
8
BLACK
6
CONTINUOUS
10
-0.056437
20
0.4175
11
-0.0561373
21
0.419007
0
LINE
8
BLACK
6
CONTINUOUS
10
-0.0561373
20
0.419007
11
-0.0552839
21
0.420284
0
LINE
8
BLACK
6
CONTINUOUS
10
-0.0552839
20
0.420284
11
-0.0540066
21
0.421137
0
LINE
8
BLACK
6
CONTINUOUS
10
-0.0540066
20
0.421137
11
-0.0525
21
0.421437
0
LINE
8
BLACK
6
CONTINUOUS
10
-0.0525
20
0.421437
11
0.0025
21
0.421437
0
LINE
8
BLACK
6
CONTINUOUS
10
0.0025
20
0.421437
11
0.00400661
21
0.421137
0
LINE
8
BLACK
6
CONTINUOUS
10
0.110365
20
0.520566
11
0.111642
21
0.519713
0
LINE
8
BLACK
6
CONTINUOUS
10
0.111642
20
0.519713
11
0.112496
21
0.518436
0
LINE
8
BLACK
6
CONTINUOUS
10
0.112496
20
0.518436
11
0.112795
21
0.516929
0
LINE
8
BLACK
6
CONTINUOUS
10
0.112795
20
0.516929
11
0.112795
21
0.383071
0
LINE
8
BLACK
6
CONTINUOUS
10
0.112795
20
0.383071
11
0.112496
21
0.381564
0
LINE
8
BLACK
6
CONTINUOUS
10
0.112496
20
0.381564
11
0.111642
21
0.380287
0
LINE
8
BLACK
6
CONTINUOUS
10
0.111642
20
0.380287
11
0.110365
21
0.379434
0
LINE
8
BLACK
6
CONTINUOUS
10
0.110365
20
0.379434
11
0.108858
21
0.379134
0
LINE
8
BLACK
6
CONTINUOUS
10
0.108858
20
0.379134
11
0.0340551
21
0.379134
0
LINE
8
BLACK
6
CONTINUOUS
10
0.0340551
20
0.379134
11
0.0325485
21
0.379434
0
LINE
8
BLACK
6
CONTINUOUS
10
0.0325485
20
0.379434
11
0.0312712
21
0.380287
0
LINE
8
BLACK
6
CONTINUOUS
10
0.0312712
20
0.380287
11
0.0304178
21
0.381564
0
LINE
8
BLACK
6
CONTINUOUS
10
0.0304178
20
0.381564
11
0.0301181
21
0.383071
0
LINE
8
BLACK
6
CONTINUOUS
10
0.0301181
20
0.383071
11
0.0301181
21
0.516929
0
LINE
8
BLACK
6
CONTINUOUS
10
0.0301181
20
0.516929
11
0.0304178
21
0.518436
0
LINE
8
BLACK
6
CONTINUOUS
10
0.0304178
20
0.518436
11
0.0312712
21
0.519713
0
LINE
8
BLACK
6
CONTINUOUS
10
0.0312712
20
0.519713
11
0.0325485
21
0.520566
0
LINE
8
BLACK
6
CONTINUOUS
10
0.0325485
20
0.520566
11
0.0340551
21
0.520866
0
LINE
8
BLACK
6
CONTINUOUS
10
0.0340551
20
0.520866
11
0.108858
21
0.520866
0
LINE
8
BLACK
6
CONTINUOUS
10
0.108858
20
0.520866
11
0.110365
21
0.520566
0
LINE
8
BLACK
6
CONTINUOUS
10
0.263908
20
0.520566
11
0.265185
21
0.519713
0
LINE
8
BLACK
6
CONTINUOUS
10
0.265185
20
0.519713
11
0.266039
21
0.518436
0
LINE
8
BLACK
6
CONTINUOUS
10
0.266039
20
0.518436
11
0.266339
21
0.516929
0
LINE
8
BLACK
6
CONTINUOUS
10
0.266339
20
0.516929
11
0.266339
21
0.383071
0
LINE
8
BLACK
6
CONTINUOUS
10
0.266339
20
0.383071
11
0.266039
21
0.381564
0
LINE
8
BLACK
6
CONTINUOUS
10
0.266039
20
0.381564
11
0.265185
21
0.380287
0
LINE
8
BLACK
6
CONTINUOUS
10
0.265185
20
0.380287
11
0.263908
21
0.379434
0
LINE
8
BLACK
6
CONTINUOUS
10
0.263908
20
0.379434
11
0.262402
21
0.379134
0
LINE
8
BLACK
6
CONTINUOUS
10
0.262402
20
0.379134
11
0.187598
21
0.379134
0
LINE
8
BLACK
6
CONTINUOUS
10
0.187598
20
0.379134
11
0.186092
21
0.379434
0
LINE
8
BLACK
6
CONTINUOUS
10
0.186092
20
0.379434
11
0.184815
21
0.380287
0
LINE
8
BLACK
6
CONTINUOUS
10
0.184815
20
0.380287
11
0.183961
21
0.381564
0
LINE
8
BLACK
6
CONTINUOUS
10
0.183961
20
0.381564
11
0.183661
21
0.383071
0
LINE
8
BLACK
6
CONTINUOUS
10
0.183661
20
0.383071
11
0.183661
21
0.516929
0
LINE
8
BLACK
6
CONTINUOUS
10
0.183661
20
0.516929
11
0.183961
21
0.518436
0
LINE
8
BLACK
6
CONTINUOUS
10
0.183961
20
0.518436
11
0.184815
21
0.519713
0
LINE
8
BLACK
6
CONTINUOUS
10
0.184815
20
0.519713
11
0.186092
21
0.520566
0
LINE
8
BLACK
6
CONTINUOUS
10
0.186092
20
0.520566
11
0.187598
21
0.520866
0
LINE
8
BLACK
6
CONTINUOUS
10
0.187598
20
0.520866
11
0.262402
21
0.520866
0
LINE
8
BLACK
6
CONTINUOUS
10
0.262402
20
0.520866
11
0.263908
21
0.520566
0
LINE
8
BLACK
6
CONTINUOUS
10
0.825719
20
0.50285
11
0.826996
21
0.501996
0
LINE
8
BLACK
6
CONTINUOUS
10
0.826996
20
0.501996
11
0.82785
21
0.500719
0
LINE
8
BLACK
6
CONTINUOUS
10
0.82785
20
0.500719
11
0.82815
21
0.499213
0
LINE
8
BLACK
6
CONTINUOUS
10
0.82815
20
0.499213
11
0.82815
21
0.400787
0
LINE
8
BLACK
6
CONTINUOUS
10
0.82815
20
0.400787
11
0.82785
21
0.399281
0
LINE
8
BLACK
6
CONTINUOUS
10
0.82785
20
0.399281
11
0.826996
21
0.398004
0
LINE
8
BLACK
6
CONTINUOUS
10
0.826996
20
0.398004
11
0.825719
21
0.39715
0
LINE
8
BLACK
6
CONTINUOUS
10
0.825719
20
0.39715
11
0.824213
21
0.39685
0
LINE
8
BLACK
6
CONTINUOUS
10
0.824213
20
0.39685
11
0.725787
21
0.39685
0
LINE
8
BLACK
6
CONTINUOUS
10
0.725787
20
0.39685
11
0.724281
21
0.39715
0
LINE
8
BLACK
6
CONTINUOUS
10
0.724281
20
0.39715
11
0.723004
21
0.398004
0
LINE
8
BLACK
6
CONTINUOUS
10
0.723004
20
0.398004
11
0.72215
21
0.399281
0
LINE
8
BLACK
6
CONTINUOUS
10
0.72215
20
0.399281
11
0.72185
21
0.400787
0
LINE
8
BLACK
6
CONTINUOUS
10
0.72185
20
0.400787
11
0.72185
21
0.499213
0
LINE
8
BLACK
6
CONTINUOUS
10
0.72185
20
0.499213
11
0.72215
21
0.500719
0
LINE
8
BLACK
6
CONTINUOUS
10
0.72215
20
0.500719
11
0.723004
21
0.501996
0
LINE
8
BLACK
6
CONTINUOUS
10
0.723004
20
0.501996
11
0.724281
21
0.50285
0
LINE
8
BLACK
6
CONTINUOUS
10
0.724281
20
0.50285
11
0.725787
21
0.50315
0
LINE
8
BLACK
6
CONTINUOUS
10
0.725787
20
0.50315
11
0.824213
21
0.50315
0
LINE
8
BLACK
6
CONTINUOUS
10
0.824213
20
0.50315
11
0.825719
21
0.50285
0
LINE
8
BLACK
6
CONTINUOUS
10
0.714948
20
0.419001
11
0.717024
21
0.417614
0
LINE
8
BLACK
6
CONTINUOUS
10
0.717024
20
0.417614
11
0.718411
21
0.415539
0
LINE
8
BLACK
6
CONTINUOUS
10
0.718411
20
0.415539
11
0.718898
21
0.413091
0
LINE
8
BLACK
6
CONTINUOUS
10
0.718898
20
0.413091
11
0.718898
21
0.408169
0
LINE
8
BLACK
6
CONTINUOUS
10
0.718898
20
0.408169
11
0.718411
21
0.405721
0
LINE
8
BLACK
6
CONTINUOUS
10
0.718411
20
0.405721
11
0.717024
21
0.403645
0
LINE
8
BLACK
6
CONTINUOUS
10
0.717024
20
0.403645
11
0.714948
21
0.402259
0
LINE
8
BLACK
6
CONTINUOUS
10
0.714948
20
0.402259
11
0.7125
21
0.401772
0
LINE
8
BLACK
6
CONTINUOUS
10
0.7125
20
0.401772
11
0.684941
21
0.401772
0
LINE
8
BLACK
6
CONTINUOUS
10
0.684941
20
0.401772
11
0.682493
21
0.402259
0
LINE
8
BLACK
6
CONTINUOUS
10
0.682493
20
0.402259
11
0.680417
21
0.403645
0
LINE
8
BLACK
6
CONTINUOUS
10
0.680417
20
0.403645
11
0.67903
21
0.405721
0
LINE
8
BLACK
6
CONTINUOUS
10
0.67903
20
0.405721
11
0.678543
21
0.408169
0
LINE
8
BLACK
6
CONTINUOUS
10
0.678543
20
0.408169
11
0.678543
21
0.413091
0
LINE
8
BLACK
6
CONTINUOUS
10
0.678543
20
0.413091
11
0.67903
21
0.415539
0
LINE
8
BLACK
6
CONTINUOUS
10
0.67903
20
0.415539
11
0.680417
21
0.417614
0
LINE
8
BLACK
6
CONTINUOUS
10
0.680417
20
0.417614
11
0.682493
21
0.419001
0
LINE
8
BLACK
6
CONTINUOUS
10
0.682493
20
0.419001
11
0.684941
21
0.419488
0
LINE
8
BLACK
6
CONTINUOUS
10
0.684941
20
0.419488
11
0.7125
21
0.419488
0
LINE
8
BLACK
6
CONTINUOUS
10
0.7125
20
0.419488
11
0.714948
21
0.419001
0
LINE
8
BLACK
6
CONTINUOUS
10
0.867507
20
0.419001
11
0.869583
21
0.417614
0
LINE
8
BLACK
6
CONTINUOUS
10
0.869583
20
0.417614
11
0.87097
21
0.415539
0
LINE
8
BLACK
6
CONTINUOUS
10
0.87097
20
0.415539
11
0.871457
21
0.413091
0
LINE
8
BLACK
6
CONTINUOUS
10
0.871457
20
0.413091
11
0.871457
21
0.408169
0
LINE
8
BLACK
6
CONTINUOUS
10
0.871457
20
0.408169
11
0.87097
21
0.405721
0
LINE
8
BLACK
6
CONTINUOUS
10
0.87097
20
0.405721
11
0.869583
21
0.403645
0
LINE
8
BLACK
6
CONTINUOUS
10
0.869583
20
0.403645
11
0.867507
21
0.402259
0
LINE
8
BLACK
6
CONTINUOUS
10
0.867507
20
0.402259
11
0.865059
21
0.401772
0
LINE
8
BLACK
6
CONTINUOUS
10
0.865059
20
0.401772
11
0.8375
21
0.401772
0
LINE
8
BLACK
6
CONTINUOUS
10
0.8375
20
0.401772
11
0.835052
21
0.402259
0
LINE
8
BLACK
6
CONTINUOUS
10
0.835052
20
0.402259
11
0.832976
21
0.403645
0
LINE
8
BLACK
6
CONTINUOUS
10
0.832976
20
0.403645
11
0.831589
21
0.405721
0
LINE
8
BLACK
6
CONTINUOUS
10
0.831589
20
0.405721
11
0.831102
21
0.408169
0
LINE
8
BLACK
6
CONTINUOUS
10
0.831102
20
0.408169
11
0.831102
21
0.413091
0
LINE
8
BLACK
6
CONTINUOUS
10
0.831102
20
0.413091
11
0.831589
21
0.415539
0
LINE
8
BLACK
6
CONTINUOUS
10
0.831589
20
0.415539
11
0.832976
21
0.417614
0
LINE
8
BLACK
6
CONTINUOUS
10
0.832976
20
0.417614
11
0.835052
21
0.419001
0
LINE
8
BLACK
6
CONTINUOUS
10
0.835052
20
0.419001
11
0.8375
21
0.419488
0
LINE
8
BLACK
6
CONTINUOUS
10
0.8375
20
0.419488
11
0.865059
21
0.419488
0
LINE
8
BLACK
6
CONTINUOUS
10
0.865059
20
0.419488
11
0.867507
21
0.419001
0
LINE
8
BLACK
6
CONTINUOUS
10
0.338557
20
0.480108
11
0.345573
21
0.47798
0
LINE
8
BLACK
6
CONTINUOUS
10
0.345573
20
0.47798
11
0.352039
21
0.474523
0
LINE
8
BLACK
6
CONTINUOUS
10
0.352039
20
0.474523
11
0.357707
21
0.469872
0
LINE
8
BLACK
6
CONTINUOUS
10
0.357707
20
0.469872
11
0.362358
21
0.464204
0
LINE
8
BLACK
6
CONTINUOUS
10
0.362358
20
0.464204
11
0.365814
21
0.457738
0
LINE
8
BLACK
6
CONTINUOUS
10
0.365814
20
0.457738
11
0.367943
21
0.450722
0
LINE
8
BLACK
6
CONTINUOUS
10
0.367943
20
0.450722
11
0.368661
21
0.443425
0
LINE
8
BLACK
6
CONTINUOUS
10
0.368661
20
0.443425
11
0.367943
21
0.436129
0
LINE
8
BLACK
6
CONTINUOUS
10
0.367943
20
0.436129
11
0.365814
21
0.429112
0
LINE
8
BLACK
6
CONTINUOUS
10
0.365814
20
0.429112
11
0.362358
21
0.422646
0
LINE
8
BLACK
6
CONTINUOUS
10
0.362358
20
0.422646
11
0.357707
21
0.416978
0
LINE
8
BLACK
6
CONTINUOUS
10
0.357707
20
0.416978
11
0.352039
21
0.412327
0
LINE
8
BLACK
6
CONTINUOUS
10
0.352039
20
0.412327
11
0.345573
21
0.408871
0
LINE
8
BLACK
6
CONTINUOUS
10
0.345573
20
0.408871
11
0.338557
21
0.406742
0
LINE
8
BLACK
6
CONTINUOUS
10
0.338557
20
0.406742
11
0.33126
21
0.406024
0
LINE
8
BLACK
6
CONTINUOUS
10
0.33126
20
0.406024
11
0.323963
21
0.406742
0
LINE
8
BLACK
6
CONTINUOUS
10
0.323963
20
0.406742
11
0.316947
21
0.408871
0
LINE
8
BLACK
6
CONTINUOUS
10
0.316947
20
0.408871
11
0.310481
21
0.412327
0
LINE
8
BLACK
6
CONTINUOUS
10
0.310481
20
0.412327
11
0.304813
21
0.416978
0
LINE
8
BLACK
6
CONTINUOUS
10
0.304813
20
0.416978
11
0.300162
21
0.422646
0
LINE
8
BLACK
6
CONTINUOUS
10
0.300162
20
0.422646
11
0.296705
21
0.429112
0
LINE
8
BLACK
6
CONTINUOUS
10
0.296705
20
0.429112
11
0.294577
21
0.436129
0
LINE
8
BLACK
6
CONTINUOUS
10
0.294577
20
0.436129
11
0.293858
21
0.443425
0
LINE
8
BLACK
6
CONTINUOUS
10
0.293858
20
0.443425
11
0.294577
21
0.450722
0
LINE
8
BLACK
6
CONTINUOUS
10
0.294577
20
0.450722
11
0.296705
21
0.457738
0
LINE
8
BLACK
6
CONTINUOUS
10
0.296705
20
0.457738
11
0.300162
21
0.464204
0
LINE
8
BLACK
6
CONTINUOUS
10
0.300162
20
0.464204
11
0.304813
21
0.469872
0
LINE
8
BLACK
6
CONTINUOUS
10
0.304813
20
0.469872
11
0.310481
21
0.474523
0
LINE
8
BLACK
6
CONTINUOUS
10
0.310481
20
0.474523
11
0.316947
21
0.47798
0
LINE
8
BLACK
6
CONTINUOUS
10
0.316947
20
0.47798
11
0.323963
21
0.480108
0
LINE
8
BLACK
6
CONTINUOUS
10
0.323963
20
0.480108
11
0.33126
21
0.480827
0
LINE
8
BLACK
6
CONTINUOUS
10
0.33126
20
0.480827
11
0.338557
21
0.480108
0
LINE
8
BLACK
6
CONTINUOUS
10
0.417297
20
0.480108
11
0.424313
21
0.47798
0
LINE
8
BLACK
6
CONTINUOUS
10
0.424313
20
0.47798
11
0.430779
21
0.474523
0
LINE
8
BLACK
6
CONTINUOUS
10
0.430779
20
0.474523
11
0.436447
21
0.469872
0
LINE
8
BLACK
6
CONTINUOUS
10
0.436447
20
0.469872
11
0.441098
21
0.464204
0
LINE
8
BLACK
6
CONTINUOUS
10
0.441098
20
0.464204
11
0.444555
21
0.457738
0
LINE
8
BLACK
6
CONTINUOUS
10
0.444555
20
0.457738
11
0.446683
21
0.450722
0
LINE
8
BLACK
6
CONTINUOUS
10
0.446683
20
0.450722
11
0.447402
21
0.443425
0
LINE
8
BLACK
6
CONTINUOUS
10
0.447402
20
0.443425
11
0.446683
21
0.436129
0
LINE
8
BLACK
6
CONTINUOUS
10
0.446683
20
0.436129
11
0.444555
21
0.429112
0
LINE
8
BLACK
6
CONTINUOUS
10
0.444555
20
0.429112
11
0.441098
21
0.422646
0
LINE
8
BLACK
6
CONTINUOUS
10
0.441098
20
0.422646
11
0.436447
21
0.416978
0
LINE
8
BLACK
6
CONTINUOUS
10
0.436447
20
0.416978
11
0.430779
21
0.412327
0
LINE
8
BLACK
6
CONTINUOUS
10
0.430779
20
0.412327
11
0.424313
21
0.408871
0
LINE
8
BLACK
6
CONTINUOUS
10
0.424313
20
0.408871
11
0.417297
21
0.406742
0
LINE
8
BLACK
6
CONTINUOUS
10
0.417297
20
0.406742
11
0.41
21
0.406024
0
LINE
8
BLACK
6
CONTINUOUS
10
0.41
20
0.406024
11
0.402703
21
0.406742
0
LINE
8
BLACK
6
CONTINUOUS
10
0.402703
20
0.406742
11
0.395687
21
0.408871
0
LINE
8
BLACK
6
CONTINUOUS
10
0.395687
20
0.408871
11
0.389221
21
0.412327
0
LINE
8
BLACK
6
CONTINUOUS
10
0.389221
20
0.412327
11
0.383553
21
0.416978
0
LINE
8
BLACK
6
CONTINUOUS
10
0.383553
20
0.416978
11
0.378902
21
0.422646
0
LINE
8
BLACK
6
CONTINUOUS
10
0.378902
20
0.422646
11
0.375445
21
0.429112
0
LINE
8
BLACK
6
CONTINUOUS
10
0.375445
20
0.429112
11
0.373317
21
0.436129
0
LINE
8
BLACK
6
CONTINUOUS
10
0.373317
20
0.436129
11
0.372598
21
0.443425
0
LINE
8
BLACK
6
CONTINUOUS
10
0.372598
20
0.443425
11
0.373317
21
0.450722
0
LINE
8
BLACK
6
CONTINUOUS
10
0.373317
20
0.450722
11
0.375445
21
0.457738
0
LINE
8
BLACK
6
CONTINUOUS
10
0.375445
20
0.457738
11
0.378902
21
0.464204
0
LINE
8
BLACK
6
CONTINUOUS
10
0.378902
20
0.464204
11
0.383553
21
0.469872
0
LINE
8
BLACK
6
CONTINUOUS
10
0.383553
20
0.469872
11
0.389221
21
0.474523
0
LINE
8
BLACK
6
CONTINUOUS
10
0.389221
20
0.474523
11
0.395687
21
0.47798
0
LINE
8
BLACK
6
CONTINUOUS
10
0.395687
20
0.47798
11
0.402703
21
0.480108
0
LINE
8
BLACK
6
CONTINUOUS
10
0.402703
20
0.480108
11
0.41
21
0.480827
0
LINE
8
BLACK
6
CONTINUOUS
10
0.41
20
0.480827
11
0.417297
21
0.480108
0
LINE
8
BLACK
6
CONTINUOUS
10
0.714948
20
0.438686
11
0.717024
21
0.437299
0
LINE
8
BLACK
6
CONTINUOUS
10
0.717024
20
0.437299
11
0.718411
21
0.435224
0
LINE
8
BLACK
6
CONTINUOUS
10
0.718411
20
0.435224
11
0.718898
21
0.432776
0
LINE
8
BLACK
6
CONTINUOUS
10
0.718898
20
0.432776
11
0.718898
21
0.427854
0
LINE
8
BLACK
6
CONTINUOUS
10
0.718898
20
0.427854
11
0.718411
21
0.425406
0
LINE
8
BLACK
6
CONTINUOUS
10
0.718411
20
0.425406
11
0.717024
21
0.423331
0
LINE
8
BLACK
6
CONTINUOUS
10
0.717024
20
0.423331
11
0.714948
21
0.421944
0
LINE
8
BLACK
6
CONTINUOUS
10
0.714948
20
0.421944
11
0.7125
21
0.421457
0
LINE
8
BLACK
6
CONTINUOUS
10
0.7125
20
0.421457
11
0.684941
21
0.421457
0
LINE
8
BLACK
6
CONTINUOUS
10
0.684941
20
0.421457
11
0.682493
21
0.421944
0
LINE
8
BLACK
6
CONTINUOUS
10
0.682493
20
0.421944
11
0.680417
21
0.423331
0
LINE
8
BLACK
6
CONTINUOUS
10
0.680417
20
0.423331
11
0.67903
21
0.425406
0
LINE
8
BLACK
6
CONTINUOUS
10
0.67903
20
0.425406
11
0.678543
21
0.427854
0
LINE
8
BLACK
6
CONTINUOUS
10
0.678543
20
0.427854
11
0.678543
21
0.432776
0
LINE
8
BLACK
6
CONTINUOUS
10
0.678543
20
0.432776
11
0.67903
21
0.435224
0
LINE
8
BLACK
6
CONTINUOUS
10
0.67903
20
0.435224
11
0.680417
21
0.437299
0
LINE
8
BLACK
6
CONTINUOUS
10
0.680417
20
0.437299
11
0.682493
21
0.438686
0
LINE
8
BLACK
6
CONTINUOUS
10
0.682493
20
0.438686
11
0.684941
21
0.439173
0
LINE
8
BLACK
6
CONTINUOUS
10
0.684941
20
0.439173
11
0.7125
21
0.439173
0
LINE
8
BLACK
6
CONTINUOUS
10
0.7125
20
0.439173
11
0.714948
21
0.438686
0
LINE
8
BLACK
6
CONTINUOUS
10
0.867507
20
0.438686
11
0.869583
21
0.437299
0
LINE
8
BLACK
6
CONTINUOUS
10
0.869583
20
0.437299
11
0.87097
21
0.435224
0
LINE
8
BLACK
6
CONTINUOUS
10
0.87097
20
0.435224
11
0.871457
21
0.432776
0
LINE
8
BLACK
6
CONTINUOUS
10
0.871457
20
0.432776
11
0.871457
21
0.427854
0
LINE
8
BLACK
6
CONTINUOUS
10
0.871457
20
0.427854
11
0.87097
21
0.425406
0
LINE
8
BLACK
6
CONTINUOUS
10
0.87097
20
0.425406
11
0.869583
21
0.423331
0
LINE
8
BLACK
6
CONTINUOUS
10
0.869583
20
0.423331
11
0.867507
21
0.421944
0
LINE
8
BLACK
6
CONTINUOUS
10
0.867507
20
0.421944
11
0.865059
21
0.421457
0
LINE
8
BLACK
6
CONTINUOUS
10
0.865059
20
0.421457
11
0.8375
21
0.421457
0
LINE
8
BLACK
6
CONTINUOUS
10
0.8375
20
0.421457
11
0.835052
21
0.421944
0
LINE
8
BLACK
6
CONTINUOUS
10
0.835052
20
0.421944
11
0.832976
21
0.423331
0
LINE
8
BLACK
6
CONTINUOUS
10
0.832976
20
0.423331
11
0.831589
21
0.425406
0
LINE
8
BLACK
6
CONTINUOUS
10
0.831589
20
0.425406
11
0.831102
21
0.427854
0
LINE
8
BLACK
6
CONTINUOUS
10
0.831102
20
0.427854
11
0.831102
21
0.432776
0
LINE
8
BLACK
6
CONTINUOUS
10
0.831102
20
0.432776
11
0.831589
21
0.435224
0
LINE
8
BLACK
6
CONTINUOUS
10
0.831589
20
0.435224
11
0.832976
21
0.437299
0
LINE
8
BLACK
6
CONTINUOUS
10
0.832976
20
0.437299
11
0.835052
21
0.438686
0
LINE
8
BLACK
6
CONTINUOUS
10
0.835052
20
0.438686
11
0.8375
21
0.439173
0
LINE
8
BLACK
6
CONTINUOUS
10
0.8375
20
0.439173
11
0.865059
21
0.439173
0
LINE
8
BLACK
6
CONTINUOUS
10
0.865059
20
0.439173
11
0.867507
21
0.438686
0
LINE
8
BLACK
6
CONTINUOUS
10
0.714948
20
0.458371
11
0.717024
21
0.456984
0
LINE
8
BLACK
6
CONTINUOUS
10
0.717024
20
0.456984
11
0.718411
21
0.454909
0
LINE
8
BLACK
6
CONTINUOUS
10
0.718411
20
0.454909
11
0.718898
21
0.452461
0
LINE
8
BLACK
6
CONTINUOUS
10
0.718898
20
0.452461
11
0.718898
21
0.447539
0
LINE
8
BLACK
6
CONTINUOUS
10
0.718898
20
0.447539
11
0.718411
21
0.445091
0
LINE
8
BLACK
6
CONTINUOUS
10
0.718411
20
0.445091
11
0.717024
21
0.443016
0
LINE
8
BLACK
6
CONTINUOUS
10
0.717024
20
0.443016
11
0.714948
21
0.441629
0
LINE
8
BLACK
6
CONTINUOUS
10
0.714948
20
0.441629
11
0.7125
21
0.441142
0
LINE
8
BLACK
6
CONTINUOUS
10
0.7125
20
0.441142
11
0.684941
21
0.441142
0
LINE
8
BLACK
6
CONTINUOUS
10
0.684941
20
0.441142
11
0.682493
21
0.441629
0
LINE
8
BLACK
6
CONTINUOUS
10
0.682493
20
0.441629
11
0.680417
21
0.443016
0
LINE
8
BLACK
6
CONTINUOUS
10
0.680417
20
0.443016
11
0.67903
21
0.445091
0
LINE
8
BLACK
6
CONTINUOUS
10
0.67903
20
0.445091
11
0.678543
21
0.447539
0
LINE
8
BLACK
6
CONTINUOUS
10
0.678543
20
0.447539
11
0.678543
21
0.452461
0
LINE
8
BLACK
6
CONTINUOUS
10
0.678543
20
0.452461
11
0.67903
21
0.454909
0
LINE
8
BLACK
6
CONTINUOUS
10
0.67903
20
0.454909
11
0.680417
21
0.456984
0
LINE
8
BLACK
6
CONTINUOUS
10
0.680417
20
0.456984
11
0.682493
21
0.458371
0
LINE
8
BLACK
6
CONTINUOUS
10
0.682493
20
0.458371
11
0.684941
21
0.458858
0
LINE
8
BLACK
6
CONTINUOUS
10
0.684941
20
0.458858
11
0.7125
21
0.458858
0
LINE
8
BLACK
6
CONTINUOUS
10
0.7125
20
0.458858
11
0.714948
21
0.458371
0
LINE
8
BLACK
6
CONTINUOUS
10
0.867507
20
0.458371
11
0.869583
21
0.456984
0
LINE
8
BLACK
6
CONTINUOUS
10
0.869583
20
0.456984
11
0.87097
21
0.454909
0
LINE
8
BLACK
6
CONTINUOUS
10
0.87097
20
0.454909
11
0.871457
21
0.452461
0
LINE
8
BLACK
6
CONTINUOUS
10
0.871457
20
0.452461
11
0.871457
21
0.447539
0
LINE
8
BLACK
6
CONTINUOUS
10
0.871457
20
0.447539
11
0.87097
21
0.445091
0
LINE
8
BLACK
6
CONTINUOUS
10
0.87097
20
0.445091
11
0.869583
21
0.443016
0
LINE
8
BLACK
6
CONTINUOUS
10
0.869583
20
0.443016
11
0.867507
21
0.441629
0
LINE
8
BLACK
6
CONTINUOUS
10
0.867507
20
0.441629
11
0.865059
21
0.441142
0
LINE
8
BLACK
6
CONTINUOUS
10
0.865059
20
0.441142
11
0.8375
21
0.441142
0
LINE
8
BLACK
6
CONTINUOUS
10
0.8375
20
0.441142
11
0.835052
21
0.441629
0
LINE
8
BLACK
6
CONTINUOUS
10
0.835052
20
0.441629
11
0.832976
21
0.443016
0
LINE
8
BLACK
6
CONTINUOUS
10
0.832976
20
0.443016
11
0.831589
21
0.445091
0
LINE
8
BLACK
6
CONTINUOUS
10
0.831589
20
0.445091
11
0.831102
21
0.447539
0
LINE
8
BLACK
6
CONTINUOUS
10
0.831102
20
0.447539
11
0.831102
21
0.452461
0
LINE
8
BLACK
6
CONTINUOUS
10
0.831102
20
0.452461
11
0.831589
21
0.454909
0
LINE
8
BLACK
6
CONTINUOUS
10
0.831589
20
0.454909
11
0.832976
21
0.456984
0
LINE
8
BLACK
6
CONTINUOUS
10
0.832976
20
0.456984
11
0.835052
21
0.458371
0
LINE
8
BLACK
6
CONTINUOUS
10
0.835052
20
0.458371
11
0.8375
21
0.458858
0
LINE
8
BLACK
6
CONTINUOUS
10
0.8375
20
0.458858
11
0.865059
21
0.458858
0
LINE
8
BLACK
6
CONTINUOUS
10
0.865059
20
0.458858
11
0.867507
21
0.458371
0
LINE
8
BLACK
6
CONTINUOUS
10
-0.0959934
20
0.496137
11
-0.0947161
21
0.495284
0
LINE
8
BLACK
6
CONTINUOUS
10
-0.0947161
20
0.495284
11
-0.0938627
21
0.494007
0
LINE
8
BLACK
6
CONTINUOUS
10
-0.0938627
20
0.494007
11
-0.093563
21
0.4925
0
LINE
8
BLACK
6
CONTINUOUS
10
-0.093563
20
0.4925
11
-0.093563
21
0.4575
0
LINE
8
BLACK
6
CONTINUOUS
10
-0.093563
20
0.4575
11
-0.0938627
21
0.455993
0
LINE
8
BLACK
6
CONTINUOUS
10
-0.0938627
20
0.455993
11
-0.0947161
21
0.454716
0
LINE
8
BLACK
6
CONTINUOUS
10
-0.0947161
20
0.454716
11
-0.0959934
21
0.453863
0
LINE
8
BLACK
6
CONTINUOUS
10
-0.0959934
20
0.453863
11
-0.0975
21
0.453563
0
LINE
8
BLACK
6
CONTINUOUS
10
-0.0975
20
0.453563
11
-0.1525
21
0.453563
0
LINE
8
BLACK
6
CONTINUOUS
10
-0.1525
20
0.453563
11
-0.154007
21
0.453863
0
LINE
8
BLACK
6
CONTINUOUS
10
-0.154007
20
0.453863
11
-0.155284
21
0.454716
0
LINE
8
BLACK
6
CONTINUOUS
10
-0.155284
20
0.454716
11
-0.156137
21
0.455993
0
LINE
8
BLACK
6
CONTINUOUS
10
-0.156137
20
0.455993
11
-0.156437
21
0.4575
0
LINE
8
BLACK
6
CONTINUOUS
10
-0.156437
20
0.4575
11
-0.156437
21
0.4925
0
LINE
8
BLACK
6
CONTINUOUS
10
-0.156437
20
0.4925
11
-0.156137
21
0.494007
0
LINE
8
BLACK
6
CONTINUOUS
10
-0.156137
20
0.494007
11
-0.155284
21
0.495284
0
LINE
8
BLACK
6
CONTINUOUS
10
-0.155284
20
0.495284
11
-0.154007
21
0.496137
0
LINE
8
BLACK
6
CONTINUOUS
10
-0.154007
20
0.496137
11
-0.1525
21
0.496437
0
LINE
8
BLACK
6
CONTINUOUS
10
-0.1525
20
0.496437
11
-0.0975
21
0.496437
0
LINE
8
BLACK
6
CONTINUOUS
10
-0.0975
20
0.496437
11
-0.0959934
21
0.496137
0
LINE
8
BLACK
6
CONTINUOUS
10
0.00400661
20
0.496137
11
0.0052839
21
0.495284
0
LINE
8
BLACK
6
CONTINUOUS
10
0.0052839
20
0.495284
11
0.00613732
21
0.494007
0
LINE
8
BLACK
6
CONTINUOUS
10
0.00613732
20
0.494007
11
0.00643701
21
0.4925
0
LINE
8
BLACK
6
CONTINUOUS
10
0.00643701
20
0.4925
11
0.00643701
21
0.4575
0
LINE
8
BLACK
6
CONTINUOUS
10
0.00643701
20
0.4575
11
0.00613732
21
0.455993
0
LINE
8
BLACK
6
CONTINUOUS
10
0.00613732
20
0.455993
11
0.0052839
21
0.454716
0
LINE
8
BLACK
6
CONTINUOUS
10
0.0052839
20
0.454716
11
0.00400661
21
0.453863
0
LINE
8
BLACK
6
CONTINUOUS
10
0.00400661
20
0.453863
11
0.0025
21
0.453563
0
LINE
8
BLACK
6
CONTINUOUS
10
0.0025
20
0.453563
11
-0.0525
21
0.453563
0
LINE
8
BLACK
6
CONTINUOUS
10
-0.0525
20
0.453563
11
-0.0540066
21
0.453863
0
LINE
8
BLACK
6
CONTINUOUS
10
-0.0540066
20
0.453863
11
-0.0552839
21
0.454716
0
LINE
8
BLACK
6
CONTINUOUS
10
-0.0552839
20
0.454716
11
-0.0561373
21
0.455993
0
LINE
8
BLACK
6
CONTINUOUS
10
-0.0561373
20
0.455993
11
-0.056437
21
0.4575
0
LINE
8
BLACK
6
CONTINUOUS
10
-0.056437
20
0.4575
11
-0.056437
21
0.4925
0
LINE
8
BLACK
6
CONTINUOUS
10
-0.056437
20
0.4925
11
-0.0561373
21
0.494007
0
LINE
8
BLACK
6
CONTINUOUS
10
-0.0561373
20
0.494007
11
-0.0552839
21
0.495284
0
LINE
8
BLACK
6
CONTINUOUS
10
-0.0552839
20
0.495284
11
-0.0540066
21
0.496137
0
LINE
8
BLACK
6
CONTINUOUS
10
-0.0540066
20
0.496137
11
-0.0525
21
0.496437
0
LINE
8
BLACK
6
CONTINUOUS
10
-0.0525
20
0.496437
11
0.0025
21
0.496437
0
LINE
8
BLACK
6
CONTINUOUS
10
0.0025
20
0.496437
11
0.00400661
21
0.496137
0
LINE
8
BLACK
6
CONTINUOUS
10
0.714948
20
0.478056
11
0.717024
21
0.476669
0
LINE
8
BLACK
6
CONTINUOUS
10
0.717024
20
0.476669
11
0.718411
21
0.474594
0
LINE
8
BLACK
6
CONTINUOUS
10
0.718411
20
0.474594
11
0.718898
21
0.472146
0
LINE
8
BLACK
6
CONTINUOUS
10
0.718898
20
0.472146
11
0.718898
21
0.467224
0
LINE
8
BLACK
6
CONTINUOUS
10
0.718898
20
0.467224
11
0.718411
21
0.464776
0
LINE
8
BLACK
6
CONTINUOUS
10
0.718411
20
0.464776
11
0.717024
21
0.462701
0
LINE
8
BLACK
6
CONTINUOUS
10
0.717024
20
0.462701
11
0.714948
21
0.461314
0
LINE
8
BLACK
6
CONTINUOUS
10
0.714948
20
0.461314
11
0.7125
21
0.460827
0
LINE
8
BLACK
6
CONTINUOUS
10
0.7125
20
0.460827
11
0.684941
21
0.460827
0
LINE
8
BLACK
6
CONTINUOUS
10
0.684941
20
0.460827
11
0.682493
21
0.461314
0
LINE
8
BLACK
6
CONTINUOUS
10
0.682493
20
0.461314
11
0.680417
21
0.462701
0
LINE
8
BLACK
6
CONTINUOUS
10
0.680417
20
0.462701
11
0.67903
21
0.464776
0
LINE
8
BLACK
6
CONTINUOUS
10
0.67903
20
0.464776
11
0.678543
21
0.467224
0
LINE
8
BLACK
6
CONTINUOUS
10
0.678543
20
0.467224
11
0.678543
21
0.472146
0
LINE
8
BLACK
6
CONTINUOUS
10
0.678543
20
0.472146
11
0.67903
21
0.474594
0
LINE
8
BLACK
6
CONTINUOUS
10
0.67903
20
0.474594
11
0.680417
21
0.476669
0
LINE
8
BLACK
6
CONTINUOUS
10
0.680417
20
0.476669
11
0.682493
21
0.478056
0
LINE
8
BLACK
6
CONTINUOUS
10
0.682493
20
0.478056
11
0.684941
21
0.478543
0
LINE
8
BLACK
6
CONTINUOUS
10
0.684941
20
0.478543
11
0.7125
21
0.478543
0
LINE
8
BLACK
6
CONTINUOUS
10
0.7125
20
0.478543
11
0.714948
21
0.478056
0
LINE
8
BLACK
6
CONTINUOUS
10
0.867507
20
0.478056
11
0.869583
21
0.476669
0
LINE
8
BLACK
6
CONTINUOUS
10
0.869583
20
0.476669
11
0.87097
21
0.474594
0
LINE
8
BLACK
6
CONTINUOUS
10
0.87097
20
0.474594
11
0.871457
21
0.472146
0
LINE
8
BLACK
6
CONTINUOUS
10
0.871457
20
0.472146
11
0.871457
21
0.467224
0
LINE
8
BLACK
6
CONTINUOUS
10
0.871457
20
0.467224
11
0.87097
21
0.464776
0
LINE
8
BLACK
6
CONTINUOUS
10
0.87097
20
0.464776
11
0.869583
21
0.462701
0
LINE
8
BLACK
6
CONTINUOUS
10
0.869583
20
0.462701
11
0.867507
21
0.461314
0
LINE
8
BLACK
6
CONTINUOUS
10
0.867507
20
0.461314
11
0.865059
21
0.460827
0
LINE
8
BLACK
6
CONTINUOUS
10
0.865059
20
0.460827
11
0.8375
21
0.460827
0
LINE
8
BLACK
6
CONTINUOUS
10
0.8375
20
0.460827
11
0.835052
21
0.461314
0
LINE
8
BLACK
6
CONTINUOUS
10
0.835052
20
0.461314
11
0.832976
21
0.462701
0
LINE
8
BLACK
6
CONTINUOUS
10
0.832976
20
0.462701
11
0.831589
21
0.464776
0
LINE
8
BLACK
6
CONTINUOUS
10
0.831589
20
0.464776
11
0.831102
21
0.467224
0
LINE
8
BLACK
6
CONTINUOUS
10
0.831102
20
0.467224
11
0.831102
21
0.472146
0
LINE
8
BLACK
6
CONTINUOUS
10
0.831102
20
0.472146
11
0.831589
21
0.474594
0
LINE
8
BLACK
6
CONTINUOUS
10
0.831589
20
0.474594
11
0.832976
21
0.476669
0
LINE
8
BLACK
6
CONTINUOUS
10
0.832976
20
0.476669
11
0.835052
21
0.478056
0
LINE
8
BLACK
6
CONTINUOUS
10
0.835052
20
0.478056
11
0.8375
21
0.478543
0
LINE
8
BLACK
6
CONTINUOUS
10
0.8375
20
0.478543
11
0.865059
21
0.478543
0
LINE
8
BLACK
6
CONTINUOUS
10
0.865059
20
0.478543
11
0.867507
21
0.478056
0
LINE
8
BLACK
6
CONTINUOUS
10
1.18092
20
0.534189
11
1.18219
21
0.533335
0
LINE
8
BLACK
6
CONTINUOUS
10
1.18219
20
0.533335
11
1.18305
21
0.532058
0
LINE
8
BLACK
6
CONTINUOUS
10
1.18305
20
0.532058
11
1.18335
21
0.530551
0
LINE
8
BLACK
6
CONTINUOUS
10
1.18335
20
0.530551
11
1.18335
21
0.470551
0
LINE
8
BLACK
6
CONTINUOUS
10
1.18335
20
0.470551
11
1.18305
21
0.469045
0
LINE
8
BLACK
6
CONTINUOUS
10
1.18305
20
0.469045
11
1.18219
21
0.467767
0
LINE
8
BLACK
6
CONTINUOUS
10
1.18219
20
0.467767
11
1.18092
21
0.466914
0
LINE
8
BLACK
6
CONTINUOUS
10
1.18092
20
0.466914
11
1.17941
21
0.466614
0
LINE
8
BLACK
6
CONTINUOUS
10
1.17941
20
0.466614
11
1.11941
21
0.466614
0
LINE
8
BLACK
6
CONTINUOUS
10
1.11941
20
0.466614
11
1.1179
21
0.466914
0
LINE
8
BLACK
6
CONTINUOUS
10
1.1179
20
0.466914
11
1.11663
21
0.467767
0
LINE
8
BLACK
6
CONTINUOUS
10
1.11663
20
0.467767
11
1.11577
21
0.469045
0
LINE
8
BLACK
6
CONTINUOUS
10
1.11577
20
0.469045
11
1.11547
21
0.470551
0
LINE
8
BLACK
6
CONTINUOUS
10
1.11547
20
0.470551
11
1.11547
21
0.530551
0
LINE
8
BLACK
6
CONTINUOUS
10
1.11547
20
0.530551
11
1.11577
21
0.532058
0
LINE
8
BLACK
6
CONTINUOUS
10
1.11577
20
0.532058
11
1.11663
21
0.533335
0
LINE
8
BLACK
6
CONTINUOUS
10
1.11663
20
0.533335
11
1.1179
21
0.534189
0
LINE
8
BLACK
6
CONTINUOUS
10
1.1179
20
0.534189
11
1.11941
21
0.534488
0
LINE
8
BLACK
6
CONTINUOUS
10
1.11941
20
0.534488
11
1.17941
21
0.534488
0
LINE
8
BLACK
6
CONTINUOUS
10
1.17941
20
0.534488
11
1.18092
21
0.534189
0
LINE
8
BLACK
6
CONTINUOUS
10
1.28092
20
0.534189
11
1.28219
21
0.533335
0
LINE
8
BLACK
6
CONTINUOUS
10
1.28219
20
0.533335
11
1.28305
21
0.532058
0
LINE
8
BLACK
6
CONTINUOUS
10
1.28305
20
0.532058
11
1.28335
21
0.530551
0
LINE
8
BLACK
6
CONTINUOUS
10
1.28335
20
0.530551
11
1.28335
21
0.470551
0
LINE
8
BLACK
6
CONTINUOUS
10
1.28335
20
0.470551
11
1.28305
21
0.469045
0
LINE
8
BLACK
6
CONTINUOUS
10
1.28305
20
0.469045
11
1.28219
21
0.467767
0
LINE
8
BLACK
6
CONTINUOUS
10
1.28219
20
0.467767
11
1.28092
21
0.466914
0
LINE
8
BLACK
6
CONTINUOUS
10
1.28092
20
0.466914
11
1.27941
21
0.466614
0
LINE
8
BLACK
6
CONTINUOUS
10
1.27941
20
0.466614
11
1.21941
21
0.466614
0
LINE
8
BLACK
6
CONTINUOUS
10
1.21941
20
0.466614
11
1.2179
21
0.466914
0
LINE
8
BLACK
6
CONTINUOUS
10
1.2179
20
0.466914
11
1.21663
21
0.467767
0
LINE
8
BLACK
6
CONTINUOUS
10
1.21663
20
0.467767
11
1.21577
21
0.469045
0
LINE
8
BLACK
6
CONTINUOUS
10
1.21577
20
0.469045
11
1.21547
21
0.470551
0
LINE
8
BLACK
6
CONTINUOUS
10
1.21547
20
0.470551
11
1.21547
21
0.530551
0
LINE
8
BLACK
6
CONTINUOUS
10
1.21547
20
0.530551
11
1.21577
21
0.532058
0
LINE
8
BLACK
6
CONTINUOUS
10
1.21577
20
0.532058
11
1.21663
21
0.533335
0
LINE
8
BLACK
6
CONTINUOUS
10
1.21663
20
0.533335
11
1.2179
21
0.534189
0
LINE
8
BLACK
6
CONTINUOUS
10
1.2179
20
0.534189
11
1.21941
21
0.534488
0
LINE
8
BLACK
6
CONTINUOUS
10
1.21941
20
0.534488
11
1.27941
21
0.534488
0
LINE
8
BLACK
6
CONTINUOUS
10
1.27941
20
0.534488
11
1.28092
21
0.534189
0
LINE
8
BLACK
6
CONTINUOUS
10
0.714948
20
0.497741
11
0.717024
21
0.496355
0
LINE
8
BLACK
6
CONTINUOUS
10
0.717024
20
0.496355
11
0.718411
21
0.494279
0
LINE
8
BLACK
6
CONTINUOUS
10
0.718411
20
0.494279
11
0.718898
21
0.491831
0
LINE
8
BLACK
6
CONTINUOUS
10
0.718898
20
0.491831
11
0.718898
21
0.486909
0
LINE
8
BLACK
6
CONTINUOUS
10
0.718898
20
0.486909
11
0.718411
21
0.484461
0
LINE
8
BLACK
6
CONTINUOUS
10
0.718411
20
0.484461
11
0.717024
21
0.482386
0
LINE
8
BLACK
6
CONTINUOUS
10
0.717024
20
0.482386
11
0.714948
21
0.480999
0
LINE
8
BLACK
6
CONTINUOUS
10
0.714948
20
0.480999
11
0.7125
21
0.480512
0
LINE
8
BLACK
6
CONTINUOUS
10
0.7125
20
0.480512
11
0.684941
21
0.480512
0
LINE
8
BLACK
6
CONTINUOUS
10
0.684941
20
0.480512
11
0.682493
21
0.480999
0
LINE
8
BLACK
6
CONTINUOUS
10
0.682493
20
0.480999
11
0.680417
21
0.482386
0
LINE
8
BLACK
6
CONTINUOUS
10
0.680417
20
0.482386
11
0.67903
21
0.484461
0
LINE
8
BLACK
6
CONTINUOUS
10
0.67903
20
0.484461
11
0.678543
21
0.486909
0
LINE
8
BLACK
6
CONTINUOUS
10
0.678543
20
0.486909
11
0.678543
21
0.491831
0
LINE
8
BLACK
6
CONTINUOUS
10
0.678543
20
0.491831
11
0.67903
21
0.494279
0
LINE
8
BLACK
6
CONTINUOUS
10
0.67903
20
0.494279
11
0.680417
21
0.496355
0
LINE
8
BLACK
6
CONTINUOUS
10
0.680417
20
0.496355
11
0.682493
21
0.497741
0
LINE
8
BLACK
6
CONTINUOUS
10
0.682493
20
0.497741
11
0.684941
21
0.498228
0
LINE
8
BLACK
6
CONTINUOUS
10
0.684941
20
0.498228
11
0.7125
21
0.498228
0
LINE
8
BLACK
6
CONTINUOUS
10
0.7125
20
0.498228
11
0.714948
21
0.497741
0
LINE
8
BLACK
6
CONTINUOUS
10
0.867507
20
0.497741
11
0.869583
21
0.496355
0
LINE
8
BLACK
6
CONTINUOUS
10
0.869583
20
0.496355
11
0.87097
21
0.494279
0
LINE
8
BLACK
6
CONTINUOUS
10
0.87097
20
0.494279
11
0.871457
21
0.491831
0
LINE
8
BLACK
6
CONTINUOUS
10
0.871457
20
0.491831
11
0.871457
21
0.486909
0
LINE
8
BLACK
6
CONTINUOUS
10
0.871457
20
0.486909
11
0.87097
21
0.484461
0
LINE
8
BLACK
6
CONTINUOUS
10
0.87097
20
0.484461
11
0.869583
21
0.482386
0
LINE
8
BLACK
6
CONTINUOUS
10
0.869583
20
0.482386
11
0.867507
21
0.480999
0
LINE
8
BLACK
6
CONTINUOUS
10
0.867507
20
0.480999
11
0.865059
21
0.480512
0
LINE
8
BLACK
6
CONTINUOUS
10
0.865059
20
0.480512
11
0.8375
21
0.480512
0
LINE
8
BLACK
6
CONTINUOUS
10
0.8375
20
0.480512
11
0.835052
21
0.480999
0
LINE
8
BLACK
6
CONTINUOUS
10
0.835052
20
0.480999
11
0.832976
21
0.482386
0
LINE
8
BLACK
6
CONTINUOUS
10
0.832976
20
0.482386
11
0.831589
21
0.484461
0
LINE
8
BLACK
6
CONTINUOUS
10
0.831589
20
0.484461
11
0.831102
21
0.486909
0
LINE
8
BLACK
6
CONTINUOUS
10
0.831102
20
0.486909
11
0.831102
21
0.491831
0
LINE
8
BLACK
6
CONTINUOUS
10
0.831102
20
0.491831
11
0.831589
21
0.494279
0
LINE
8
BLACK
6
CONTINUOUS
10
0.831589
20
0.494279
11
0.832976
21
0.496355
0
LINE
8
BLACK
6
CONTINUOUS
10
0.832976
20
0.496355
11
0.835052
21
0.497741
0
LINE
8
BLACK
6
CONTINUOUS
10
0.835052
20
0.497741
11
0.8375
21
0.498228
0
LINE
8
BLACK
6
CONTINUOUS
10
0.8375
20
0.498228
11
0.865059
21
0.498228
0
LINE
8
BLACK
6
CONTINUOUS
10
0.865059
20
0.498228
11
0.867507
21
0.497741
0
LINE
8
BLACK
6
CONTINUOUS
10
0.740539
20
0.54597
11
0.742614
21
0.544583
0
LINE
8
BLACK
6
CONTINUOUS
10
0.742614
20
0.544583
11
0.744001
21
0.542507
0
LINE
8
BLACK
6
CONTINUOUS
10
0.744001
20
0.542507
11
0.744488
21
0.540059
0
LINE
8
BLACK
6
CONTINUOUS
10
0.744488
20
0.540059
11
0.744488
21
0.5125
0
LINE
8
BLACK
6
CONTINUOUS
10
0.744488
20
0.5125
11
0.744001
21
0.510052
0
LINE
8
BLACK
6
CONTINUOUS
10
0.744001
20
0.510052
11
0.742614
21
0.507976
0
LINE
8
BLACK
6
CONTINUOUS
10
0.742614
20
0.507976
11
0.740539
21
0.506589
0
LINE
8
BLACK
6
CONTINUOUS
10
0.740539
20
0.506589
11
0.738091
21
0.506102
0
LINE
8
BLACK
6
CONTINUOUS
10
0.738091
20
0.506102
11
0.733169
21
0.506102
0
LINE
8
BLACK
6
CONTINUOUS
10
0.733169
20
0.506102
11
0.730721
21
0.506589
0
LINE
8
BLACK
6
CONTINUOUS
10
0.730721
20
0.506589
11
0.728645
21
0.507976
0
LINE
8
BLACK
6
CONTINUOUS
10
0.728645
20
0.507976
11
0.727259
21
0.510052
0
LINE
8
BLACK
6
CONTINUOUS
10
0.727259
20
0.510052
11
0.726772
21
0.5125
0
LINE
8
BLACK
6
CONTINUOUS
10
0.726772
20
0.5125
11
0.726772
21
0.540059
0
LINE
8
BLACK
6
CONTINUOUS
10
0.726772
20
0.540059
11
0.727259
21
0.542507
0
LINE
8
BLACK
6
CONTINUOUS
10
0.727259
20
0.542507
11
0.728645
21
0.544583
0
LINE
8
BLACK
6
CONTINUOUS
10
0.728645
20
0.544583
11
0.730721
21
0.54597
0
LINE
8
BLACK
6
CONTINUOUS
10
0.730721
20
0.54597
11
0.733169
21
0.546457
0
LINE
8
BLACK
6
CONTINUOUS
10
0.733169
20
0.546457
11
0.738091
21
0.546457
0
LINE
8
BLACK
6
CONTINUOUS
10
0.738091
20
0.546457
11
0.740539
21
0.54597
0
LINE
8
BLACK
6
CONTINUOUS
10
0.760224
20
0.54597
11
0.762299
21
0.544583
0
LINE
8
BLACK
6
CONTINUOUS
10
0.762299
20
0.544583
11
0.763686
21
0.542507
0
LINE
8
BLACK
6
CONTINUOUS
10
0.763686
20
0.542507
11
0.764173
21
0.540059
0
LINE
8
BLACK
6
CONTINUOUS
10
0.764173
20
0.540059
11
0.764173
21
0.5125
0
LINE
8
BLACK
6
CONTINUOUS
10
0.764173
20
0.5125
11
0.763686
21
0.510052
0
LINE
8
BLACK
6
CONTINUOUS
10
0.763686
20
0.510052
11
0.762299
21
0.507976
0
LINE
8
BLACK
6
CONTINUOUS
10
0.762299
20
0.507976
11
0.760224
21
0.506589
0
LINE
8
BLACK
6
CONTINUOUS
10
0.760224
20
0.506589
11
0.757776
21
0.506102
0
LINE
8
BLACK
6
CONTINUOUS
10
0.757776
20
0.506102
11
0.752854
21
0.506102
0
LINE
8
BLACK
6
CONTINUOUS
10
0.752854
20
0.506102
11
0.750406
21
0.506589
0
LINE
8
BLACK
6
CONTINUOUS
10
0.750406
20
0.506589
11
0.748331
21
0.507976
0
LINE
8
BLACK
6
CONTINUOUS
10
0.748331
20
0.507976
11
0.746944
21
0.510052
0
LINE
8
BLACK
6
CONTINUOUS
10
0.746944
20
0.510052
11
0.746457
21
0.5125
0
LINE
8
BLACK
6
CONTINUOUS
10
0.746457
20
0.5125
11
0.746457
21
0.540059
0
LINE
8
BLACK
6
CONTINUOUS
10
0.746457
20
0.540059
11
0.746944
21
0.542507
0
LINE
8
BLACK
6
CONTINUOUS
10
0.746944
20
0.542507
11
0.748331
21
0.544583
0
LINE
8
BLACK
6
CONTINUOUS
10
0.748331
20
0.544583
11
0.750406
21
0.54597
0
LINE
8
BLACK
6
CONTINUOUS
10
0.750406
20
0.54597
11
0.752854
21
0.546457
0
LINE
8
BLACK
6
CONTINUOUS
10
0.752854
20
0.546457
11
0.757776
21
0.546457
0
LINE
8
BLACK
6
CONTINUOUS
10
0.757776
20
0.546457
11
0.760224
21
0.54597
0
LINE
8
BLACK
6
CONTINUOUS
10
0.779909
20
0.54597
11
0.781984
21
0.544583
0
LINE
8
BLACK
6
CONTINUOUS
10
0.781984
20
0.544583
11
0.783371
21
0.542507
0
LINE
8
BLACK
6
CONTINUOUS
10
0.783371
20
0.542507
11
0.783858
21
0.540059
0
LINE
8
BLACK
6
CONTINUOUS
10
0.783858
20
0.540059
11
0.783858
21
0.5125
0
LINE
8
BLACK
6
CONTINUOUS
10
0.783858
20
0.5125
11
0.783371
21
0.510052
0
LINE
8
BLACK
6
CONTINUOUS
10
0.783371
20
0.510052
11
0.781984
21
0.507976
0
LINE
8
BLACK
6
CONTINUOUS
10
0.781984
20
0.507976
11
0.779909
21
0.506589
0
LINE
8
BLACK
6
CONTINUOUS
10
0.779909
20
0.506589
11
0.777461
21
0.506102
0
LINE
8
BLACK
6
CONTINUOUS
10
0.777461
20
0.506102
11
0.772539
21
0.506102
0
LINE
8
BLACK
6
CONTINUOUS
10
0.772539
20
0.506102
11
0.770091
21
0.506589
0
LINE
8
BLACK
6
CONTINUOUS
10
0.770091
20
0.506589
11
0.768016
21
0.507976
0
LINE
8
BLACK
6
CONTINUOUS
10
0.768016
20
0.507976
11
0.766629
21
0.510052
0
LINE
8
BLACK
6
CONTINUOUS
10
0.766629
20
0.510052
11
0.766142
21
0.5125
0
LINE
8
BLACK
6
CONTINUOUS
10
0.766142
20
0.5125
11
0.766142
21
0.540059
0
LINE
8
BLACK
6
CONTINUOUS
10
0.766142
20
0.540059
11
0.766629
21
0.542507
0
LINE
8
BLACK
6
CONTINUOUS
10
0.766629
20
0.542507
11
0.768016
21
0.544583
0
LINE
8
BLACK
6
CONTINUOUS
10
0.768016
20
0.544583
11
0.770091
21
0.54597
0
LINE
8
BLACK
6
CONTINUOUS
10
0.770091
20
0.54597
11
0.772539
21
0.546457
0
LINE
8
BLACK
6
CONTINUOUS
10
0.772539
20
0.546457
11
0.777461
21
0.546457
0
LINE
8
BLACK
6
CONTINUOUS
10
0.777461
20
0.546457
11
0.779909
21
0.54597
0
LINE
8
BLACK
6
CONTINUOUS
10
0.799594
20
0.54597
11
0.801669
21
0.544583
0
LINE
8
BLACK
6
CONTINUOUS
10
0.801669
20
0.544583
11
0.803056
21
0.542507
0
LINE
8
BLACK
6
CONTINUOUS
10
0.803056
20
0.542507
11
0.803543
21
0.540059
0
LINE
8
BLACK
6
CONTINUOUS
10
0.803543
20
0.540059
11
0.803543
21
0.5125
0
LINE
8
BLACK
6
CONTINUOUS
10
0.803543
20
0.5125
11
0.803056
21
0.510052
0
LINE
8
BLACK
6
CONTINUOUS
10
0.803056
20
0.510052
11
0.801669
21
0.507976
0
LINE
8
BLACK
6
CONTINUOUS
10
0.801669
20
0.507976
11
0.799594
21
0.506589
0
LINE
8
BLACK
6
CONTINUOUS
10
0.799594
20
0.506589
11
0.797146
21
0.506102
0
LINE
8
BLACK
6
CONTINUOUS
10
0.797146
20
0.506102
11
0.792224
21
0.506102
0
LINE
8
BLACK
6
CONTINUOUS
10
0.792224
20
0.506102
11
0.789776
21
0.506589
0
LINE
8
BLACK
6
CONTINUOUS
10
0.789776
20
0.506589
11
0.787701
21
0.507976
0
LINE
8
BLACK
6
CONTINUOUS
10
0.787701
20
0.507976
11
0.786314
21
0.510052
0
LINE
8
BLACK
6
CONTINUOUS
10
0.786314
20
0.510052
11
0.785827
21
0.5125
0
LINE
8
BLACK
6
CONTINUOUS
10
0.785827
20
0.5125
11
0.785827
21
0.540059
0
LINE
8
BLACK
6
CONTINUOUS
10
0.785827
20
0.540059
11
0.786314
21
0.542507
0
LINE
8
BLACK
6
CONTINUOUS
10
0.786314
20
0.542507
11
0.787701
21
0.544583
0
LINE
8
BLACK
6
CONTINUOUS
10
0.787701
20
0.544583
11
0.789776
21
0.54597
0
LINE
8
BLACK
6
CONTINUOUS
10
0.789776
20
0.54597
11
0.792224
21
0.546457
0
LINE
8
BLACK
6
CONTINUOUS
10
0.792224
20
0.546457
11
0.797146
21
0.546457
0
LINE
8
BLACK
6
CONTINUOUS
10
0.797146
20
0.546457
11
0.799594
21
0.54597
0
LINE
8
BLACK
6
CONTINUOUS
10
0.819279
20
0.54597
11
0.821355
21
0.544583
0
LINE
8
BLACK
6
CONTINUOUS
10
0.821355
20
0.544583
11
0.822741
21
0.542507
0
LINE
8
BLACK
6
CONTINUOUS
10
0.822741
20
0.542507
11
0.823228
21
0.540059
0
LINE
8
BLACK
6
CONTINUOUS
10
0.823228
20
0.540059
11
0.823228
21
0.5125
0
LINE
8
BLACK
6
CONTINUOUS
10
0.823228
20
0.5125
11
0.822741
21
0.510052
0
LINE
8
BLACK
6
CONTINUOUS
10
0.822741
20
0.510052
11
0.821355
21
0.507976
0
LINE
8
BLACK
6
CONTINUOUS
10
0.821355
20
0.507976
11
0.819279
21
0.506589
0
LINE
8
BLACK
6
CONTINUOUS
10
0.819279
20
0.506589
11
0.816831
21
0.506102
0
LINE
8
BLACK
6
CONTINUOUS
10
0.816831
20
0.506102
11
0.811909
21
0.506102
0
LINE
8
BLACK
6
CONTINUOUS
10
0.811909
20
0.506102
11
0.809461
21
0.506589
0
LINE
8
BLACK
6
CONTINUOUS
10
0.809461
20
0.506589
11
0.807386
21
0.507976
0
LINE
8
BLACK
6
CONTINUOUS
10
0.807386
20
0.507976
11
0.805999
21
0.510052
0
LINE
8
BLACK
6
CONTINUOUS
10
0.805999
20
0.510052
11
0.805512
21
0.5125
0
LINE
8
BLACK
6
CONTINUOUS
10
0.805512
20
0.5125
11
0.805512
21
0.540059
0
LINE
8
BLACK
6
CONTINUOUS
10
0.805512
20
0.540059
11
0.805999
21
0.542507
0
LINE
8
BLACK
6
CONTINUOUS
10
0.805999
20
0.542507
11
0.807386
21
0.544583
0
LINE
8
BLACK
6
CONTINUOUS
10
0.807386
20
0.544583
11
0.809461
21
0.54597
0
LINE
8
BLACK
6
CONTINUOUS
10
0.809461
20
0.54597
11
0.811909
21
0.546457
0
LINE
8
BLACK
6
CONTINUOUS
10
0.811909
20
0.546457
11
0.816831
21
0.546457
0
LINE
8
BLACK
6
CONTINUOUS
10
0.816831
20
0.546457
11
0.819279
21
0.54597
0
LINE
8
BLACK
6
CONTINUOUS
10
0.434377
20
0.552597
11
0.43757
21
0.550464
0
LINE
8
BLACK
6
CONTINUOUS
10
0.43757
20
0.550464
11
0.439704
21
0.547271
0
LINE
8
BLACK
6
CONTINUOUS
10
0.439704
20
0.547271
11
0.440453
21
0.543504
0
LINE
8
BLACK
6
CONTINUOUS
10
0.440453
20
0.543504
11
0.440453
21
0.531693
0
LINE
8
BLACK
6
CONTINUOUS
10
0.440453
20
0.531693
11
0.439704
21
0.527926
0
LINE
8
BLACK
6
CONTINUOUS
10
0.439704
20
0.527926
11
0.43757
21
0.524733
0
LINE
8
BLACK
6
CONTINUOUS
10
0.43757
20
0.524733
11
0.434377
21
0.5226
0
LINE
8
BLACK
6
CONTINUOUS
10
0.434377
20
0.5226
11
0.43061
21
0.52185
0
LINE
8
BLACK
6
CONTINUOUS
10
0.43061
20
0.52185
11
0.390256
21
0.52185
0
LINE
8
BLACK
6
CONTINUOUS
10
0.390256
20
0.52185
11
0.386489
21
0.5226
0
LINE
8
BLACK
6
CONTINUOUS
10
0.386489
20
0.5226
11
0.383296
21
0.524733
0
LINE
8
BLACK
6
CONTINUOUS
10
0.383296
20
0.524733
11
0.381163
21
0.527926
0
LINE
8
BLACK
6
CONTINUOUS
10
0.381163
20
0.527926
11
0.380413
21
0.531693
0
LINE
8
BLACK
6
CONTINUOUS
10
0.380413
20
0.531693
11
0.380413
21
0.543504
0
LINE
8
BLACK
6
CONTINUOUS
10
0.380413
20
0.543504
11
0.381163
21
0.547271
0
LINE
8
BLACK
6
CONTINUOUS
10
0.381163
20
0.547271
11
0.383296
21
0.550464
0
LINE
8
BLACK
6
CONTINUOUS
10
0.383296
20
0.550464
11
0.386489
21
0.552597
0
LINE
8
BLACK
6
CONTINUOUS
10
0.386489
20
0.552597
11
0.390256
21
0.553346
0
LINE
8
BLACK
6
CONTINUOUS
10
0.390256
20
0.553346
11
0.43061
21
0.553346
0
LINE
8
BLACK
6
CONTINUOUS
10
0.43061
20
0.553346
11
0.434377
21
0.552597
0
LINE
8
BLACK
6
CONTINUOUS
10
0.523944
20
0.552597
11
0.527137
21
0.550464
0
LINE
8
BLACK
6
CONTINUOUS
10
0.527137
20
0.550464
11
0.52927
21
0.547271
0
LINE
8
BLACK
6
CONTINUOUS
10
0.52927
20
0.547271
11
0.53002
21
0.543504
0
LINE
8
BLACK
6
CONTINUOUS
10
0.53002
20
0.543504
11
0.53002
21
0.531693
0
LINE
8
BLACK
6
CONTINUOUS
10
0.53002
20
0.531693
11
0.52927
21
0.527926
0
LINE
8
BLACK
6
CONTINUOUS
10
0.52927
20
0.527926
11
0.527137
21
0.524733
0
LINE
8
BLACK
6
CONTINUOUS
10
0.527137
20
0.524733
11
0.523944
21
0.5226
0
LINE
8
BLACK
6
CONTINUOUS
10
0.523944
20
0.5226
11
0.520177
21
0.52185
0
LINE
8
BLACK
6
CONTINUOUS
10
0.520177
20
0.52185
11
0.479823
21
0.52185
0
LINE
8
BLACK
6
CONTINUOUS
10
0.479823
20
0.52185
11
0.476056
21
0.5226
0
LINE
8
BLACK
6
CONTINUOUS
10
0.476056
20
0.5226
11
0.472863
21
0.524733
0
LINE
8
BLACK
6
CONTINUOUS
10
0.472863
20
0.524733
11
0.47073
21
0.527926
0
LINE
8
BLACK
6
CONTINUOUS
10
0.47073
20
0.527926
11
0.46998
21
0.531693
0
LINE
8
BLACK
6
CONTINUOUS
10
0.46998
20
0.531693
11
0.46998
21
0.543504
0
LINE
8
BLACK
6
CONTINUOUS
10
0.46998
20
0.543504
11
0.47073
21
0.547271
0
LINE
8
BLACK
6
CONTINUOUS
10
0.47073
20
0.547271
11
0.472863
21
0.550464
0
LINE
8
BLACK
6
CONTINUOUS
10
0.472863
20
0.550464
11
0.476056
21
0.552597
0
LINE
8
BLACK
6
CONTINUOUS
10
0.476056
20
0.552597
11
0.479823
21
0.553346
0
LINE
8
BLACK
6
CONTINUOUS
10
0.479823
20
0.553346
11
0.520177
21
0.553346
0
LINE
8
BLACK
6
CONTINUOUS
10
0.520177
20
0.553346
11
0.523944
21
0.552597
0
LINE
8
BLACK
6
CONTINUOUS
10
-0.0809934
20
0.606137
11
-0.0797161
21
0.605284
0
LINE
8
BLACK
6
CONTINUOUS
10
-0.0797161
20
0.605284
11
-0.0788627
21
0.604007
0
LINE
8
BLACK
6
CONTINUOUS
10
-0.0788627
20
0.604007
11
-0.078563
21
0.6025
0
LINE
8
BLACK
6
CONTINUOUS
10
-0.078563
20
0.6025
11
-0.078563
21
0.5475
0
LINE
8
BLACK
6
CONTINUOUS
10
-0.078563
20
0.5475
11
-0.0788627
21
0.545993
0
LINE
8
BLACK
6
CONTINUOUS
10
-0.0788627
20
0.545993
11
-0.0797161
21
0.544716
0
LINE
8
BLACK
6
CONTINUOUS
10
-0.0797161
20
0.544716
11
-0.0809934
21
0.543863
0
LINE
8
BLACK
6
CONTINUOUS
10
-0.0809934
20
0.543863
11
-0.0825
21
0.543563
0
LINE
8
BLACK
6
CONTINUOUS
10
-0.0825
20
0.543563
11
-0.1175
21
0.543563
0
LINE
8
BLACK
6
CONTINUOUS
10
-0.1175
20
0.543563
11
-0.119007
21
0.543863
0
LINE
8
BLACK
6
CONTINUOUS
10
-0.119007
20
0.543863
11
-0.120284
21
0.544716
0
LINE
8
BLACK
6
CONTINUOUS
10
-0.120284
20
0.544716
11
-0.121137
21
0.545993
0
LINE
8
BLACK
6
CONTINUOUS
10
-0.121137
20
0.545993
11
-0.121437
21
0.5475
0
LINE
8
BLACK
6
CONTINUOUS
10
-0.121437
20
0.5475
11
-0.121437
21
0.6025
0
LINE
8
BLACK
6
CONTINUOUS
10
-0.121437
20
0.6025
11
-0.121137
21
0.604007
0
LINE
8
BLACK
6
CONTINUOUS
10
-0.121137
20
0.604007
11
-0.120284
21
0.605284
0
LINE
8
BLACK
6
CONTINUOUS
10
-0.120284
20
0.605284
11
-0.119007
21
0.606137
0
LINE
8
BLACK
6
CONTINUOUS
10
-0.119007
20
0.606137
11
-0.1175
21
0.606437
0
LINE
8
BLACK
6
CONTINUOUS
10
-0.1175
20
0.606437
11
-0.0825
21
0.606437
0
LINE
8
BLACK
6
CONTINUOUS
10
-0.0825
20
0.606437
11
-0.0809934
21
0.606137
0
LINE
8
BLACK
6
CONTINUOUS
10
-0.00599339
20
0.606137
11
-0.0047161
21
0.605284
0
LINE
8
BLACK
6
CONTINUOUS
10
-0.0047161
20
0.605284
11
-0.00386268
21
0.604007
0
LINE
8
BLACK
6
CONTINUOUS
10
-0.00386268
20
0.604007
11
-0.00356299
21
0.6025
0
LINE
8
BLACK
6
CONTINUOUS
10
-0.00356299
20
0.6025
11
-0.00356299
21
0.5475
0
LINE
8
BLACK
6
CONTINUOUS
10
-0.00356299
20
0.5475
11
-0.00386268
21
0.545993
0
LINE
8
BLACK
6
CONTINUOUS
10
-0.00386268
20
0.545993
11
-0.0047161
21
0.544716
0
LINE
8
BLACK
6
CONTINUOUS
10
-0.0047161
20
0.544716
11
-0.00599339
21
0.543863
0
LINE
8
BLACK
6
CONTINUOUS
10
-0.00599339
20
0.543863
11
-0.0075
21
0.543563
0
LINE
8
BLACK
6
CONTINUOUS
10
-0.0075
20
0.543563
11
-0.0425
21
0.543563
0
LINE
8
BLACK
6
CONTINUOUS
10
-0.0425
20
0.543563
11
-0.0440066
21
0.543863
0
LINE
8
BLACK
6
CONTINUOUS
10
-0.0440066
20
0.543863
11
-0.0452839
21
0.544716
0
LINE
8
BLACK
6
CONTINUOUS
10
-0.0452839
20
0.544716
11
-0.0461373
21
0.545993
0
LINE
8
BLACK
6
CONTINUOUS
10
-0.0461373
20
0.545993
11
-0.046437
21
0.5475
0
LINE
8
BLACK
6
CONTINUOUS
10
-0.046437
20
0.5475
11
-0.046437
21
0.6025
0
LINE
8
BLACK
6
CONTINUOUS
10
-0.046437
20
0.6025
11
-0.0461373
21
0.604007
0
LINE
8
BLACK
6
CONTINUOUS
10
-0.0461373
20
0.604007
11
-0.0452839
21
0.605284
0
LINE
8
BLACK
6
CONTINUOUS
10
-0.0452839
20
0.605284
11
-0.0440066
21
0.606137
0
LINE
8
BLACK
6
CONTINUOUS
10
-0.0440066
20
0.606137
11
-0.0425
21
0.606437
0
LINE
8
BLACK
6
CONTINUOUS
10
-0.0425
20
0.606437
11
-0.0075
21
0.606437
0
LINE
8
BLACK
6
CONTINUOUS
10
-0.0075
20
0.606437
11
-0.00599339
21
0.606137
0
LINE
8
BLACK
6
CONTINUOUS
10
0.234932
20
0.703314
11
0.245087
21
0.701105
0
LINE
8
BLACK
6
CONTINUOUS
10
0.245087
20
0.701105
11
0.254824
21
0.697473
0
LINE
8
BLACK
6
CONTINUOUS
10
0.254824
20
0.697473
11
0.263944
21
0.692493
0
LINE
8
BLACK
6
CONTINUOUS
10
0.263944
20
0.692493
11
0.272263
21
0.686265
0
LINE
8
BLACK
6
CONTINUOUS
10
0.272263
20
0.686265
11
0.279612
21
0.678917
0
LINE
8
BLACK
6
CONTINUOUS
10
0.279612
20
0.678917
11
0.285839
21
0.670598
0
LINE
8
BLACK
6
CONTINUOUS
10
0.285839
20
0.670598
11
0.29082
21
0.661477
0
LINE
8
BLACK
6
CONTINUOUS
10
0.29082
20
0.661477
11
0.294451
21
0.65174
0
LINE
8
BLACK
6
CONTINUOUS
10
0.294451
20
0.65174
11
0.29666
21
0.641586
0
LINE
8
BLACK
6
CONTINUOUS
10
0.29666
20
0.641586
11
0.297402
21
0.63122
0
LINE
8
BLACK
6
CONTINUOUS
10
0.297402
20
0.63122
11
0.29666
21
0.620855
0
LINE
8
BLACK
6
CONTINUOUS
10
0.29666
20
0.620855
11
0.294451
21
0.610701
0
LINE
8
BLACK
6
CONTINUOUS
10
0.294451
20
0.610701
11
0.29082
21
0.600964
0
LINE
8
BLACK
6
CONTINUOUS
10
0.29082
20
0.600964
11
0.285839
21
0.591843
0
LINE
8
BLACK
6
CONTINUOUS
10
0.285839
20
0.591843
11
0.279612
21
0.583524
0
LINE
8
BLACK
6
CONTINUOUS
10
0.279612
20
0.583524
11
0.272263
21
0.576176
0
LINE
8
BLACK
6
CONTINUOUS
10
0.272263
20
0.576176
11
0.263944
21
0.569948
0
LINE
8
BLACK
6
CONTINUOUS
10
0.263944
20
0.569948
11
0.254824
21
0.564968
0
LINE
8
BLACK
6
CONTINUOUS
10
0.254824
20
0.564968
11
0.245087
21
0.561336
0
LINE
8
BLACK
6
CONTINUOUS
10
0.245087
20
0.561336
11
0.234932
21
0.559127
0
LINE
8
BLACK
6
CONTINUOUS
10
0.234932
20
0.559127
11
0.224567
21
0.558386
0
LINE
8
BLACK
6
CONTINUOUS
10
0.224567
20
0.558386
11
0.214201
21
0.559127
0
LINE
8
BLACK
6
CONTINUOUS
10
0.214201
20
0.559127
11
0.204047
21
0.561336
0
LINE
8
BLACK
6
CONTINUOUS
10
0.204047
20
0.561336
11
0.19431
21
0.564968
0
LINE
8
BLACK
6
CONTINUOUS
10
0.19431
20
0.564968
11
0.18519
21
0.569948
0
LINE
8
BLACK
6
CONTINUOUS
10
0.18519
20
0.569948
11
0.17687
21
0.576176
0
LINE
8
BLACK
6
CONTINUOUS
10
0.17687
20
0.576176
11
0.169522
21
0.583524
0
LINE
8
BLACK
6
CONTINUOUS
10
0.169522
20
0.583524
11
0.163295
21
0.591843
0
LINE
8
BLACK
6
CONTINUOUS
10
0.163295
20
0.591843
11
0.158314
21
0.600964
0
LINE
8
BLACK
6
CONTINUOUS
10
0.158314
20
0.600964
11
0.154683
21
0.610701
0
LINE
8
BLACK
6
CONTINUOUS
10
0.154683
20
0.610701
11
0.152474
21
0.620855
0
LINE
8
BLACK
6
CONTINUOUS
10
0.152474
20
0.620855
11
0.151732
21
0.63122
0
LINE
8
BLACK
6
CONTINUOUS
10
0.151732
20
0.63122
11
0.152474
21
0.641586
0
LINE
8
BLACK
6
CONTINUOUS
10
0.152474
20
0.641586
11
0.154683
21
0.65174
0
LINE
8
BLACK
6
CONTINUOUS
10
0.154683
20
0.65174
11
0.158314
21
0.661477
0
LINE
8
BLACK
6
CONTINUOUS
10
0.158314
20
0.661477
11
0.163295
21
0.670598
0
LINE
8
BLACK
6
CONTINUOUS
10
0.163295
20
0.670598
11
0.169522
21
0.678917
0
LINE
8
BLACK
6
CONTINUOUS
10
0.169522
20
0.678917
11
0.17687
21
0.686265
0
LINE
8
BLACK
6
CONTINUOUS
10
0.17687
20
0.686265
11
0.18519
21
0.692493
0
LINE
8
BLACK
6
CONTINUOUS
10
0.18519
20
0.692493
11
0.19431
21
0.697473
0
LINE
8
BLACK
6
CONTINUOUS
10
0.19431
20
0.697473
11
0.204047
21
0.701105
0
LINE
8
BLACK
6
CONTINUOUS
10
0.204047
20
0.701105
11
0.214201
21
0.703314
0
LINE
8
BLACK
6
CONTINUOUS
10
0.214201
20
0.703314
11
0.224567
21
0.704055
0
LINE
8
BLACK
6
CONTINUOUS
10
0.224567
20
0.704055
11
0.234932
21
0.703314
0
LINE
8
BLACK
6
CONTINUOUS
10
0.434377
20
0.589999
11
0.43757
21
0.587865
0
LINE
8
BLACK
6
CONTINUOUS
10
0.43757
20
0.587865
11
0.439704
21
0.584672
0
LINE
8
BLACK
6
CONTINUOUS
10
0.439704
20
0.584672
11
0.440453
21
0.580906
0
LINE
8
BLACK
6
CONTINUOUS
10
0.440453
20
0.580906
11
0.440453
21
0.569094
0
LINE
8
BLACK
6
CONTINUOUS
10
0.440453
20
0.569094
11
0.439704
21
0.565328
0
LINE
8
BLACK
6
CONTINUOUS
10
0.439704
20
0.565328
11
0.43757
21
0.562135
0
LINE
8
BLACK
6
CONTINUOUS
10
0.43757
20
0.562135
11
0.434377
21
0.560001
0
LINE
8
BLACK
6
CONTINUOUS
10
0.434377
20
0.560001
11
0.43061
21
0.559252
0
LINE
8
BLACK
6
CONTINUOUS
10
0.43061
20
0.559252
11
0.390256
21
0.559252
0
LINE
8
BLACK
6
CONTINUOUS
10
0.390256
20
0.559252
11
0.386489
21
0.560001
0
LINE
8
BLACK
6
CONTINUOUS
10
0.386489
20
0.560001
11
0.383296
21
0.562135
0
LINE
8
BLACK
6
CONTINUOUS
10
0.383296
20
0.562135
11
0.381163
21
0.565328
0
LINE
8
BLACK
6
CONTINUOUS
10
0.381163
20
0.565328
11
0.380413
21
0.569094
0
LINE
8
BLACK
6
CONTINUOUS
10
0.380413
20
0.569094
11
0.380413
21
0.580906
0
LINE
8
BLACK
6
CONTINUOUS
10
0.380413
20
0.580906
11
0.381163
21
0.584672
0
LINE
8
BLACK
6
CONTINUOUS
10
0.381163
20
0.584672
11
0.383296
21
0.587865
0
LINE
8
BLACK
6
CONTINUOUS
10
0.383296
20
0.587865
11
0.386489
21
0.589999
0
LINE
8
BLACK
6
CONTINUOUS
10
0.386489
20
0.589999
11
0.390256
21
0.590748
0
LINE
8
BLACK
6
CONTINUOUS
10
0.390256
20
0.590748
11
0.43061
21
0.590748
0
LINE
8
BLACK
6
CONTINUOUS
10
0.43061
20
0.590748
11
0.434377
21
0.589999
0
LINE
8
BLACK
6
CONTINUOUS
10
0.523944
20
0.589999
11
0.527137
21
0.587865
0
LINE
8
BLACK
6
CONTINUOUS
10
0.527137
20
0.587865
11
0.52927
21
0.584672
0
LINE
8
BLACK
6
CONTINUOUS
10
0.52927
20
0.584672
11
0.53002
21
0.580906
0
LINE
8
BLACK
6
CONTINUOUS
10
0.53002
20
0.580906
11
0.53002
21
0.569094
0
LINE
8
BLACK
6
CONTINUOUS
10
0.53002
20
0.569094
11
0.52927
21
0.565328
0
LINE
8
BLACK
6
CONTINUOUS
10
0.52927
20
0.565328
11
0.527137
21
0.562135
0
LINE
8
BLACK
6
CONTINUOUS
10
0.527137
20
0.562135
11
0.523944
21
0.560001
0
LINE
8
BLACK
6
CONTINUOUS
10
0.523944
20
0.560001
11
0.520177
21
0.559252
0
LINE
8
BLACK
6
CONTINUOUS
10
0.520177
20
0.559252
11
0.479823
21
0.559252
0
LINE
8
BLACK
6
CONTINUOUS
10
0.479823
20
0.559252
11
0.476056
21
0.560001
0
LINE
8
BLACK
6
CONTINUOUS
10
0.476056
20
0.560001
11
0.472863
21
0.562135
0
LINE
8
BLACK
6
CONTINUOUS
10
0.472863
20
0.562135
11
0.47073
21
0.565328
0
LINE
8
BLACK
6
CONTINUOUS
10
0.47073
20
0.565328
11
0.46998
21
0.569094
0
LINE
8
BLACK
6
CONTINUOUS
10
0.46998
20
0.569094
11
0.46998
21
0.580906
0
LINE
8
BLACK
6
CONTINUOUS
10
0.46998
20
0.580906
11
0.47073
21
0.584672
0
LINE
8
BLACK
6
CONTINUOUS
10
0.47073
20
0.584672
11
0.472863
21
0.587865
0
LINE
8
BLACK
6
CONTINUOUS
10
0.472863
20
0.587865
11
0.476056
21
0.589999
0
LINE
8
BLACK
6
CONTINUOUS
10
0.476056
20
0.589999
11
0.479823
21
0.590748
0
LINE
8
BLACK
6
CONTINUOUS
10
0.479823
20
0.590748
11
0.520177
21
0.590748
0
LINE
8
BLACK
6
CONTINUOUS
10
0.520177
20
0.590748
11
0.523944
21
0.589999
0
LINE
8
BLACK
6
CONTINUOUS
10
1.18092
20
0.634189
11
1.18219
21
0.633335
0
LINE
8
BLACK
6
CONTINUOUS
10
1.18219
20
0.633335
11
1.18305
21
0.632058
0
LINE
8
BLACK
6
CONTINUOUS
10
1.18305
20
0.632058
11
1.18335
21
0.630551
0
LINE
8
BLACK
6
CONTINUOUS
10
1.18335
20
0.630551
11
1.18335
21
0.570551
0
LINE
8
BLACK
6
CONTINUOUS
10
1.18335
20
0.570551
11
1.18305
21
0.569045
0
LINE
8
BLACK
6
CONTINUOUS
10
1.18305
20
0.569045
11
1.18219
21
0.567767
0
LINE
8
BLACK
6
CONTINUOUS
10
1.18219
20
0.567767
11
1.18092
21
0.566914
0
LINE
8
BLACK
6
CONTINUOUS
10
1.18092
20
0.566914
11
1.17941
21
0.566614
0
LINE
8
BLACK
6
CONTINUOUS
10
1.17941
20
0.566614
11
1.11941
21
0.566614
0
LINE
8
BLACK
6
CONTINUOUS
10
1.11941
20
0.566614
11
1.1179
21
0.566914
0
LINE
8
BLACK
6
CONTINUOUS
10
1.1179
20
0.566914
11
1.11663
21
0.567767
0
LINE
8
BLACK
6
CONTINUOUS
10
1.11663
20
0.567767
11
1.11577
21
0.569045
0
LINE
8
BLACK
6
CONTINUOUS
10
1.11577
20
0.569045
11
1.11547
21
0.570551
0
LINE
8
BLACK
6
CONTINUOUS
10
1.11547
20
0.570551
11
1.11547
21
0.630551
0
LINE
8
BLACK
6
CONTINUOUS
10
1.11547
20
0.630551
11
1.11577
21
0.632058
0
LINE
8
BLACK
6
CONTINUOUS
10
1.11577
20
0.632058
11
1.11663
21
0.633335
0
LINE
8
BLACK
6
CONTINUOUS
10
1.11663
20
0.633335
11
1.1179
21
0.634189
0
LINE
8
BLACK
6
CONTINUOUS
10
1.1179
20
0.634189
11
1.11941
21
0.634488
0
LINE
8
BLACK
6
CONTINUOUS
10
1.11941
20
0.634488
11
1.17941
21
0.634488
0
LINE
8
BLACK
6
CONTINUOUS
10
1.17941
20
0.634488
11
1.18092
21
0.634189
0
LINE
8
BLACK
6
CONTINUOUS
10
1.28092
20
0.634189
11
1.28219
21
0.633335
0
LINE
8
BLACK
6
CONTINUOUS
10
1.28219
20
0.633335
11
1.28305
21
0.632058
0
LINE
8
BLACK
6
CONTINUOUS
10
1.28305
20
0.632058
11
1.28335
21
0.630551
0
LINE
8
BLACK
6
CONTINUOUS
10
1.28335
20
0.630551
11
1.28335
21
0.570551
0
LINE
8
BLACK
6
CONTINUOUS
10
1.28335
20
0.570551
11
1.28305
21
0.569045
0
LINE
8
BLACK
6
CONTINUOUS
10
1.28305
20
0.569045
11
1.28219
21
0.567767
0
LINE
8
BLACK
6
CONTINUOUS
10
1.28219
20
0.567767
11
1.28092
21
0.566914
0
LINE
8
BLACK
6
CONTINUOUS
10
1.28092
20
0.566914
11
1.27941
21
0.566614
0
LINE
8
BLACK
6
CONTINUOUS
10
1.27941
20
0.566614
11
1.21941
21
0.566614
0
LINE
8
BLACK
6
CONTINUOUS
10
1.21941
20
0.566614
11
1.2179
21
0.566914
0
LINE
8
BLACK
6
CONTINUOUS
10
1.2179
20
0.566914
11
1.21663
21
0.567767
0
LINE
8
BLACK
6
CONTINUOUS
10
1.21663
20
0.567767
11
1.21577
21
0.569045
0
LINE
8
BLACK
6
CONTINUOUS
10
1.21577
20
0.569045
11
1.21547
21
0.570551
0
LINE
8
BLACK
6
CONTINUOUS
10
1.21547
20
0.570551
11
1.21547
21
0.630551
0
LINE
8
BLACK
6
CONTINUOUS
10
1.21547
20
0.630551
11
1.21577
21
0.632058
0
LINE
8
BLACK
6
CONTINUOUS
10
1.21577
20
0.632058
11
1.21663
21
0.633335
0
LINE
8
BLACK
6
CONTINUOUS
10
1.21663
20
0.633335
11
1.2179
21
0.634189
0
LINE
8
BLACK
6
CONTINUOUS
10
1.2179
20
0.634189
11
1.21941
21
0.634488
0
LINE
8
BLACK
6
CONTINUOUS
10
1.21941
20
0.634488
11
1.27941
21
0.634488
0
LINE
8
BLACK
6
CONTINUOUS
10
1.27941
20
0.634488
11
1.28092
21
0.634189
0
LINE
8
BLACK
6
CONTINUOUS
10
0.653416
20
0.609484
11
0.654693
21
0.60863
0
LINE
8
BLACK
6
CONTINUOUS
10
0.654693
20
0.60863
11
0.655547
21
0.607353
0
LINE
8
BLACK
6
CONTINUOUS
10
0.655547
20
0.607353
11
0.655846
21
0.605846
0
LINE
8
BLACK
6
CONTINUOUS
10
0.655846
20
0.605846
11
0.655846
21
0.570846
0
LINE
8
BLACK
6
CONTINUOUS
10
0.655846
20
0.570846
11
0.655547
21
0.56934
0
LINE
8
BLACK
6
CONTINUOUS
10
0.655547
20
0.56934
11
0.654693
21
0.568063
0
LINE
8
BLACK
6
CONTINUOUS
10
0.654693
20
0.568063
11
0.653416
21
0.567209
0
LINE
8
BLACK
6
CONTINUOUS
10
0.653416
20
0.567209
11
0.651909
21
0.566909
0
LINE
8
BLACK
6
CONTINUOUS
10
0.651909
20
0.566909
11
0.596909
21
0.566909
0
LINE
8
BLACK
6
CONTINUOUS
10
0.596909
20
0.566909
11
0.595403
21
0.567209
0
LINE
8
BLACK
6
CONTINUOUS
10
0.595403
20
0.567209
11
0.594126
21
0.568063
0
LINE
8
BLACK
6
CONTINUOUS
10
0.594126
20
0.568063
11
0.593272
21
0.56934
0
LINE
8
BLACK
6
CONTINUOUS
10
0.593272
20
0.56934
11
0.592972
21
0.570846
0
LINE
8
BLACK
6
CONTINUOUS
10
0.592972
20
0.570846
11
0.592972
21
0.605846
0
LINE
8
BLACK
6
CONTINUOUS
10
0.592972
20
0.605846
11
0.593272
21
0.607353
0
LINE
8
BLACK
6
CONTINUOUS
10
0.593272
20
0.607353
11
0.594126
21
0.60863
0
LINE
8
BLACK
6
CONTINUOUS
10
0.594126
20
0.60863
11
0.595403
21
0.609484
0
LINE
8
BLACK
6
CONTINUOUS
10
0.595403
20
0.609484
11
0.596909
21
0.609783
0
LINE
8
BLACK
6
CONTINUOUS
10
0.596909
20
0.609783
11
0.651909
21
0.609783
0
LINE
8
BLACK
6
CONTINUOUS
10
0.651909
20
0.609783
11
0.653416
21
0.609484
0
LINE
8
BLACK
6
CONTINUOUS
10
0.0917358
20
0.647826
11
0.0991214
21
0.645586
0
LINE
8
BLACK
6
CONTINUOUS
10
0.0991214
20
0.645586
11
0.105928
21
0.641948
0
LINE
8
BLACK
6
CONTINUOUS
10
0.105928
20
0.641948
11
0.111894
21
0.637051
0
LINE
8
BLACK
6
CONTINUOUS
10
0.111894
20
0.637051
11
0.11679
21
0.631085
0
LINE
8
BLACK
6
CONTINUOUS
10
0.11679
20
0.631085
11
0.120428
21
0.624279
0
LINE
8
BLACK
6
CONTINUOUS
10
0.120428
20
0.624279
11
0.122669
21
0.616893
0
LINE
8
BLACK
6
CONTINUOUS
10
0.122669
20
0.616893
11
0.123425
21
0.609213
0
LINE
8
BLACK
6
CONTINUOUS
10
0.123425
20
0.609213
11
0.122669
21
0.601532
0
LINE
8
BLACK
6
CONTINUOUS
10
0.122669
20
0.601532
11
0.120428
21
0.594146
0
LINE
8
BLACK
6
CONTINUOUS
10
0.120428
20
0.594146
11
0.11679
21
0.58734
0
LINE
8
BLACK
6
CONTINUOUS
10
0.11679
20
0.58734
11
0.111894
21
0.581374
0
LINE
8
BLACK
6
CONTINUOUS
10
0.111894
20
0.581374
11
0.105928
21
0.576478
0
LINE
8
BLACK
6
CONTINUOUS
10
0.105928
20
0.576478
11
0.0991214
21
0.572839
0
LINE
8
BLACK
6
CONTINUOUS
10
0.0991214
20
0.572839
11
0.0917358
21
0.570599
0
LINE
8
BLACK
6
CONTINUOUS
10
0.0917358
20
0.570599
11
0.0840551
21
0.569843
0
LINE
8
BLACK
6
CONTINUOUS
10
0.0840551
20
0.569843
11
0.0763744
21
0.570599
0
LINE
8
BLACK
6
CONTINUOUS
10
0.0763744
20
0.570599
11
0.0689889
21
0.572839
0
LINE
8
BLACK
6
CONTINUOUS
10
0.0689889
20
0.572839
11
0.0621823
21
0.576478
0
LINE
8
BLACK
6
CONTINUOUS
10
0.0621823
20
0.576478
11
0.0562163
21
0.581374
0
LINE
8
BLACK
6
CONTINUOUS
10
0.0562163
20
0.581374
11
0.0513201
21
0.58734
0
LINE
8
BLACK
6
CONTINUOUS
10
0.0513201
20
0.58734
11
0.0476819
21
0.594146
0
LINE
8
BLACK
6
CONTINUOUS
10
0.0476819
20
0.594146
11
0.0454415
21
0.601532
0
LINE
8
BLACK
6
CONTINUOUS
10
0.0454415
20
0.601532
11
0.044685
21
0.609213
0
LINE
8
BLACK
6
CONTINUOUS
10
0.044685
20
0.609213
11
0.0454415
21
0.616893
0
LINE
8
BLACK
6
CONTINUOUS
10
0.0454415
20
0.616893
11
0.0476819
21
0.624279
0
LINE
8
BLACK
6
CONTINUOUS
10
0.0476819
20
0.624279
11
0.0513201
21
0.631085
0
LINE
8
BLACK
6
CONTINUOUS
10
0.0513201
20
0.631085
11
0.0562163
21
0.637051
0
LINE
8
BLACK
6
CONTINUOUS
10
0.0562163
20
0.637051
11
0.0621823
21
0.641948
0
LINE
8
BLACK
6
CONTINUOUS
10
0.0621823
20
0.641948
11
0.0689889
21
0.645586
0
LINE
8
BLACK
6
CONTINUOUS
10
0.0689889
20
0.645586
11
0.0763744
21
0.647826
0
LINE
8
BLACK
6
CONTINUOUS
10
0.0763744
20
0.647826
11
0.0840551
21
0.648583
0
LINE
8
BLACK
6
CONTINUOUS
10
0.0840551
20
0.648583
11
0.0917358
21
0.647826
0
LINE
8
BLACK
6
CONTINUOUS
10
0.434377
20
0.6274
11
0.43757
21
0.625267
0
LINE
8
BLACK
6
CONTINUOUS
10
0.43757
20
0.625267
11
0.439704
21
0.622074
0
LINE
8
BLACK
6
CONTINUOUS
10
0.439704
20
0.622074
11
0.440453
21
0.618307
0
LINE
8
BLACK
6
CONTINUOUS
10
0.440453
20
0.618307
11
0.440453
21
0.606496
0
LINE
8
BLACK
6
CONTINUOUS
10
0.440453
20
0.606496
11
0.439704
21
0.602729
0
LINE
8
BLACK
6
CONTINUOUS
10
0.439704
20
0.602729
11
0.43757
21
0.599536
0
LINE
8
BLACK
6
CONTINUOUS
10
0.43757
20
0.599536
11
0.434377
21
0.597403
0
LINE
8
BLACK
6
CONTINUOUS
10
0.434377
20
0.597403
11
0.43061
21
0.596654
0
LINE
8
BLACK
6
CONTINUOUS
10
0.43061
20
0.596654
11
0.390256
21
0.596654
0
LINE
8
BLACK
6
CONTINUOUS
10
0.390256
20
0.596654
11
0.386489
21
0.597403
0
LINE
8
BLACK
6
CONTINUOUS
10
0.386489
20
0.597403
11
0.383296
21
0.599536
0
LINE
8
BLACK
6
CONTINUOUS
10
0.383296
20
0.599536
11
0.381163
21
0.602729
0
LINE
8
BLACK
6
CONTINUOUS
10
0.381163
20
0.602729
11
0.380413
21
0.606496
0
LINE
8
BLACK
6
CONTINUOUS
10
0.380413
20
0.606496
11
0.380413
21
0.618307
0
LINE
8
BLACK
6
CONTINUOUS
10
0.380413
20
0.618307
11
0.381163
21
0.622074
0
LINE
8
BLACK
6
CONTINUOUS
10
0.381163
20
0.622074
11
0.383296
21
0.625267
0
LINE
8
BLACK
6
CONTINUOUS
10
0.383296
20
0.625267
11
0.386489
21
0.6274
0
LINE
8
BLACK
6
CONTINUOUS
10
0.386489
20
0.6274
11
0.390256
21
0.62815
0
LINE
8
BLACK
6
CONTINUOUS
10
0.390256
20
0.62815
11
0.43061
21
0.62815
0
LINE
8
BLACK
6
CONTINUOUS
10
0.43061
20
0.62815
11
0.434377
21
0.6274
0
LINE
8
BLACK
6
CONTINUOUS
10
0.523944
20
0.6274
11
0.527137
21
0.625267
0
LINE
8
BLACK
6
CONTINUOUS
10
0.527137
20
0.625267
11
0.52927
21
0.622074
0
LINE
8
BLACK
6
CONTINUOUS
10
0.52927
20
0.622074
11
0.53002
21
0.618307
0
LINE
8
BLACK
6
CONTINUOUS
10
0.53002
20
0.618307
11
0.53002
21
0.606496
0
LINE
8
BLACK
6
CONTINUOUS
10
0.53002
20
0.606496
11
0.52927
21
0.602729
0
LINE
8
BLACK
6
CONTINUOUS
10
0.52927
20
0.602729
11
0.527137
21
0.599536
0
LINE
8
BLACK
6
CONTINUOUS
10
0.527137
20
0.599536
11
0.523944
21
0.597403
0
LINE
8
BLACK
6
CONTINUOUS
10
0.523944
20
0.597403
11
0.520177
21
0.596654
0
LINE
8
BLACK
6
CONTINUOUS
10
0.520177
20
0.596654
11
0.479823
21
0.596654
0
LINE
8
BLACK
6
CONTINUOUS
10
0.479823
20
0.596654
11
0.476056
21
0.597403
0
LINE
8
BLACK
6
CONTINUOUS
10
0.476056
20
0.597403
11
0.472863
21
0.599536
0
LINE
8
BLACK
6
CONTINUOUS
10
0.472863
20
0.599536
11
0.47073
21
0.602729
0
LINE
8
BLACK
6
CONTINUOUS
10
0.47073
20
0.602729
11
0.46998
21
0.606496
0
LINE
8
BLACK
6
CONTINUOUS
10
0.46998
20
0.606496
11
0.46998
21
0.618307
0
LINE
8
BLACK
6
CONTINUOUS
10
0.46998
20
0.618307
11
0.47073
21
0.622074
0
LINE
8
BLACK
6
CONTINUOUS
10
0.47073
20
0.622074
11
0.472863
21
0.625267
0
LINE
8
BLACK
6
CONTINUOUS
10
0.472863
20
0.625267
11
0.476056
21
0.6274
0
LINE
8
BLACK
6
CONTINUOUS
10
0.476056
20
0.6274
11
0.479823
21
0.62815
0
LINE
8
BLACK
6
CONTINUOUS
10
0.479823
20
0.62815
11
0.520177
21
0.62815
0
LINE
8
BLACK
6
CONTINUOUS
10
0.520177
20
0.62815
11
0.523944
21
0.6274
0
LINE
8
BLACK
6
CONTINUOUS
10
0.724007
20
0.676137
11
0.725284
21
0.675284
0
LINE
8
BLACK
6
CONTINUOUS
10
0.725284
20
0.675284
11
0.726137
21
0.674007
0
LINE
8
BLACK
6
CONTINUOUS
10
0.726137
20
0.674007
11
0.726437
21
0.6725
0
LINE
8
BLACK
6
CONTINUOUS
10
0.726437
20
0.6725
11
0.726437
21
0.6175
0
LINE
8
BLACK
6
CONTINUOUS
10
0.726437
20
0.6175
11
0.726137
21
0.615993
0
LINE
8
BLACK
6
CONTINUOUS
10
0.726137
20
0.615993
11
0.725284
21
0.614716
0
LINE
8
BLACK
6
CONTINUOUS
10
0.725284
20
0.614716
11
0.724007
21
0.613863
0
LINE
8
BLACK
6
CONTINUOUS
10
0.724007
20
0.613863
11
0.7225
21
0.613563
0
LINE
8
BLACK
6
CONTINUOUS
10
0.7225
20
0.613563
11
0.6875
21
0.613563
0
LINE
8
BLACK
6
CONTINUOUS
10
0.6875
20
0.613563
11
0.685993
21
0.613863
0
LINE
8
BLACK
6
CONTINUOUS
10
0.685993
20
0.613863
11
0.684716
21
0.614716
0
LINE
8
BLACK
6
CONTINUOUS
10
0.684716
20
0.614716
11
0.683863
21
0.615993
0
LINE
8
BLACK
6
CONTINUOUS
10
0.683863
20
0.615993
11
0.683563
21
0.6175
0
LINE
8
BLACK
6
CONTINUOUS
10
0.683563
20
0.6175
11
0.683563
21
0.6725
0
LINE
8
BLACK
6
CONTINUOUS
10
0.683563
20
0.6725
11
0.683863
21
0.674007
0
LINE
8
BLACK
6
CONTINUOUS
10
0.683863
20
0.674007
11
0.684716
21
0.675284
0
LINE
8
BLACK
6
CONTINUOUS
10
0.684716
20
0.675284
11
0.685993
21
0.676137
0
LINE
8
BLACK
6
CONTINUOUS
10
0.685993
20
0.676137
11
0.6875
21
0.676437
0
LINE
8
BLACK
6
CONTINUOUS
10
0.6875
20
0.676437
11
0.7225
21
0.676437
0
LINE
8
BLACK
6
CONTINUOUS
10
0.7225
20
0.676437
11
0.724007
21
0.676137
0
LINE
8
BLACK
6
CONTINUOUS
10
0.799007
20
0.676137
11
0.800284
21
0.675284
0
LINE
8
BLACK
6
CONTINUOUS
10
0.800284
20
0.675284
11
0.801137
21
0.674007
0
LINE
8
BLACK
6
CONTINUOUS
10
0.801137
20
0.674007
11
0.801437
21
0.6725
0
LINE
8
BLACK
6
CONTINUOUS
10
0.801437
20
0.6725
11
0.801437
21
0.6175
0
LINE
8
BLACK
6
CONTINUOUS
10
0.801437
20
0.6175
11
0.801137
21
0.615993
0
LINE
8
BLACK
6
CONTINUOUS
10
0.801137
20
0.615993
11
0.800284
21
0.614716
0
LINE
8
BLACK
6
CONTINUOUS
10
0.800284
20
0.614716
11
0.799007
21
0.613863
0
LINE
8
BLACK
6
CONTINUOUS
10
0.799007
20
0.613863
11
0.7975
21
0.613563
0
LINE
8
BLACK
6
CONTINUOUS
10
0.7975
20
0.613563
11
0.7625
21
0.613563
0
LINE
8
BLACK
6
CONTINUOUS
10
0.7625
20
0.613563
11
0.760993
21
0.613863
0
LINE
8
BLACK
6
CONTINUOUS
10
0.760993
20
0.613863
11
0.759716
21
0.614716
0
LINE
8
BLACK
6
CONTINUOUS
10
0.759716
20
0.614716
11
0.758863
21
0.615993
0
LINE
8
BLACK
6
CONTINUOUS
10
0.758863
20
0.615993
11
0.758563
21
0.6175
0
LINE
8
BLACK
6
CONTINUOUS
10
0.758563
20
0.6175
11
0.758563
21
0.6725
0
LINE
8
BLACK
6
CONTINUOUS
10
0.758563
20
0.6725
11
0.758863
21
0.674007
0
LINE
8
BLACK
6
CONTINUOUS
10
0.758863
20
0.674007
11
0.759716
21
0.675284
0
LINE
8
BLACK
6
CONTINUOUS
10
0.759716
20
0.675284
11
0.760993
21
0.676137
0
LINE
8
BLACK
6
CONTINUOUS
10
0.760993
20
0.676137
11
0.7625
21
0.676437
0
LINE
8
BLACK
6
CONTINUOUS
10
0.7625
20
0.676437
11
0.7975
21
0.676437
0
LINE
8
BLACK
6
CONTINUOUS
10
0.7975
20
0.676437
11
0.799007
21
0.676137
0
LINE
8
BLACK
6
CONTINUOUS
10
0.864007
20
0.676137
11
0.865284
21
0.675284
0
LINE
8
BLACK
6
CONTINUOUS
10
0.865284
20
0.675284
11
0.866137
21
0.674007
0
LINE
8
BLACK
6
CONTINUOUS
10
0.866137
20
0.674007
11
0.866437
21
0.6725
0
LINE
8
BLACK
6
CONTINUOUS
10
0.866437
20
0.6725
11
0.866437
21
0.6175
0
LINE
8
BLACK
6
CONTINUOUS
10
0.866437
20
0.6175
11
0.866137
21
0.615993
0
LINE
8
BLACK
6
CONTINUOUS
10
0.866137
20
0.615993
11
0.865284
21
0.614716
0
LINE
8
BLACK
6
CONTINUOUS
10
0.865284
20
0.614716
11
0.864007
21
0.613863
0
LINE
8
BLACK
6
CONTINUOUS
10
0.864007
20
0.613863
11
0.8625
21
0.613563
0
LINE
8
BLACK
6
CONTINUOUS
10
0.8625
20
0.613563
11
0.8275
21
0.613563
0
LINE
8
BLACK
6
CONTINUOUS
10
0.8275
20
0.613563
11
0.825993
21
0.613863
0
LINE
8
BLACK
6
CONTINUOUS
10
0.825993
20
0.613863
11
0.824716
21
0.614716
0
LINE
8
BLACK
6
CONTINUOUS
10
0.824716
20
0.614716
11
0.823863
21
0.615993
0
LINE
8
BLACK
6
CONTINUOUS
10
0.823863
20
0.615993
11
0.823563
21
0.6175
0
LINE
8
BLACK
6
CONTINUOUS
10
0.823563
20
0.6175
11
0.823563
21
0.6725
0
LINE
8
BLACK
6
CONTINUOUS
10
0.823563
20
0.6725
11
0.823863
21
0.674007
0
LINE
8
BLACK
6
CONTINUOUS
10
0.823863
20
0.674007
11
0.824716
21
0.675284
0
LINE
8
BLACK
6
CONTINUOUS
10
0.824716
20
0.675284
11
0.825993
21
0.676137
0
LINE
8
BLACK
6
CONTINUOUS
10
0.825993
20
0.676137
11
0.8275
21
0.676437
0
LINE
8
BLACK
6
CONTINUOUS
10
0.8275
20
0.676437
11
0.8625
21
0.676437
0
LINE
8
BLACK
6
CONTINUOUS
10
0.8625
20
0.676437
11
0.864007
21
0.676137
0
LINE
8
BLACK
6
CONTINUOUS
10
0.939007
20
0.676137
11
0.940284
21
0.675284
0
LINE
8
BLACK
6
CONTINUOUS
10
0.940284
20
0.675284
11
0.941137
21
0.674007
0
LINE
8
BLACK
6
CONTINUOUS
10
0.941137
20
0.674007
11
0.941437
21
0.6725
0
LINE
8
BLACK
6
CONTINUOUS
10
0.941437
20
0.6725
11
0.941437
21
0.6175
0
LINE
8
BLACK
6
CONTINUOUS
10
0.941437
20
0.6175
11
0.941137
21
0.615993
0
LINE
8
BLACK
6
CONTINUOUS
10
0.941137
20
0.615993
11
0.940284
21
0.614716
0
LINE
8
BLACK
6
CONTINUOUS
10
0.940284
20
0.614716
11
0.939007
21
0.613863
0
LINE
8
BLACK
6
CONTINUOUS
10
0.939007
20
0.613863
11
0.9375
21
0.613563
0
LINE
8
BLACK
6
CONTINUOUS
10
0.9375
20
0.613563
11
0.9025
21
0.613563
0
LINE
8
BLACK
6
CONTINUOUS
10
0.9025
20
0.613563
11
0.900993
21
0.613863
0
LINE
8
BLACK
6
CONTINUOUS
10
0.900993
20
0.613863
11
0.899716
21
0.614716
0
LINE
8
BLACK
6
CONTINUOUS
10
0.899716
20
0.614716
11
0.898863
21
0.615993
0
LINE
8
BLACK
6
CONTINUOUS
10
0.898863
20
0.615993
11
0.898563
21
0.6175
0
LINE
8
BLACK
6
CONTINUOUS
10
0.898563
20
0.6175
11
0.898563
21
0.6725
0
LINE
8
BLACK
6
CONTINUOUS
10
0.898563
20
0.6725
11
0.898863
21
0.674007
0
LINE
8
BLACK
6
CONTINUOUS
10
0.898863
20
0.674007
11
0.899716
21
0.675284
0
LINE
8
BLACK
6
CONTINUOUS
10
0.899716
20
0.675284
11
0.900993
21
0.676137
0
LINE
8
BLACK
6
CONTINUOUS
10
0.900993
20
0.676137
11
0.9025
21
0.676437
0
LINE
8
BLACK
6
CONTINUOUS
10
0.9025
20
0.676437
11
0.9375
21
0.676437
0
LINE
8
BLACK
6
CONTINUOUS
10
0.9375
20
0.676437
11
0.939007
21
0.676137
0
LINE
8
BLACK
6
CONTINUOUS
10
1.00401
20
0.676137
11
1.00528
21
0.675284
0
LINE
8
BLACK
6
CONTINUOUS
10
1.00528
20
0.675284
11
1.00614
21
0.674007
0
LINE
8
BLACK
6
CONTINUOUS
10
1.00614
20
0.674007
11
1.00644
21
0.6725
0
LINE
8
BLACK
6
CONTINUOUS
10
1.00644
20
0.6725
11
1.00644
21
0.6175
0
LINE
8
BLACK
6
CONTINUOUS
10
1.00644
20
0.6175
11
1.00614
21
0.615993
0
LINE
8
BLACK
6
CONTINUOUS
10
1.00614
20
0.615993
11
1.00528
21
0.614716
0
LINE
8
BLACK
6
CONTINUOUS
10
1.00528
20
0.614716
11
1.00401
21
0.613863
0
LINE
8
BLACK
6
CONTINUOUS
10
1.00401
20
0.613863
11
1.0025
21
0.613563
0
LINE
8
BLACK
6
CONTINUOUS
10
1.0025
20
0.613563
11
0.9675
21
0.613563
0
LINE
8
BLACK
6
CONTINUOUS
10
0.9675
20
0.613563
11
0.965993
21
0.613863
0
LINE
8
BLACK
6
CONTINUOUS
10
0.965993
20
0.613863
11
0.964716
21
0.614716
0
LINE
8
BLACK
6
CONTINUOUS
10
0.964716
20
0.614716
11
0.963863
21
0.615993
0
LINE
8
BLACK
6
CONTINUOUS
10
0.963863
20
0.615993
11
0.963563
21
0.6175
0
LINE
8
BLACK
6
CONTINUOUS
10
0.963563
20
0.6175
11
0.963563
21
0.6725
0
LINE
8
BLACK
6
CONTINUOUS
10
0.963563
20
0.6725
11
0.963863
21
0.674007
0
LINE
8
BLACK
6
CONTINUOUS
10
0.963863
20
0.674007
11
0.964716
21
0.675284
0
LINE
8
BLACK
6
CONTINUOUS
10
0.964716
20
0.675284
11
0.965993
21
0.676137
0
LINE
8
BLACK
6
CONTINUOUS
10
0.965993
20
0.676137
11
0.9675
21
0.676437
0
LINE
8
BLACK
6
CONTINUOUS
10
0.9675
20
0.676437
11
1.0025
21
0.676437
0
LINE
8
BLACK
6
CONTINUOUS
10
1.0025
20
0.676437
11
1.00401
21
0.676137
0
LINE
8
BLACK
6
CONTINUOUS
10
1.07901
20
0.676137
11
1.08028
21
0.675284
0
LINE
8
BLACK
6
CONTINUOUS
10
1.08028
20
0.675284
11
1.08114
21
0.674007
0
LINE
8
BLACK
6
CONTINUOUS
10
1.08114
20
0.674007
11
1.08144
21
0.6725
0
LINE
8
BLACK
6
CONTINUOUS
10
1.08144
20
0.6725
11
1.08144
21
0.6175
0
LINE
8
BLACK
6
CONTINUOUS
10
1.08144
20
0.6175
11
1.08114
21
0.615993
0
LINE
8
BLACK
6
CONTINUOUS
10
1.08114
20
0.615993
11
1.08028
21
0.614716
0
LINE
8
BLACK
6
CONTINUOUS
10
1.08028
20
0.614716
11
1.07901
21
0.613863
0
LINE
8
BLACK
6
CONTINUOUS
10
1.07901
20
0.613863
11
1.0775
21
0.613563
0
LINE
8
BLACK
6
CONTINUOUS
10
1.0775
20
0.613563
11
1.0425
21
0.613563
0
LINE
8
BLACK
6
CONTINUOUS
10
1.0425
20
0.613563
11
1.04099
21
0.613863
0
LINE
8
BLACK
6
CONTINUOUS
10
1.04099
20
0.613863
11
1.03972
21
0.614716
0
LINE
8
BLACK
6
CONTINUOUS
10
1.03972
20
0.614716
11
1.03886
21
0.615993
0
LINE
8
BLACK
6
CONTINUOUS
10
1.03886
20
0.615993
11
1.03856
21
0.6175
0
LINE
8
BLACK
6
CONTINUOUS
10
1.03856
20
0.6175
11
1.03856
21
0.6725
0
LINE
8
BLACK
6
CONTINUOUS
10
1.03856
20
0.6725
11
1.03886
21
0.674007
0
LINE
8
BLACK
6
CONTINUOUS
10
1.03886
20
0.674007
11
1.03972
21
0.675284
0
LINE
8
BLACK
6
CONTINUOUS
10
1.03972
20
0.675284
11
1.04099
21
0.676137
0
LINE
8
BLACK
6
CONTINUOUS
10
1.04099
20
0.676137
11
1.0425
21
0.676437
0
LINE
8
BLACK
6
CONTINUOUS
10
1.0425
20
0.676437
11
1.0775
21
0.676437
0
LINE
8
BLACK
6
CONTINUOUS
10
1.0775
20
0.676437
11
1.07901
21
0.676137
0
LINE
8
BLACK
6
CONTINUOUS
10
0.653416
20
0.684484
11
0.654693
21
0.68363
0
LINE
8
BLACK
6
CONTINUOUS
10
0.654693
20
0.68363
11
0.655547
21
0.682353
0
LINE
8
BLACK
6
CONTINUOUS
10
0.655547
20
0.682353
11
0.655846
21
0.680846
0
LINE
8
BLACK
6
CONTINUOUS
10
0.655846
20
0.680846
11
0.655846
21
0.645846
0
LINE
8
BLACK
6
CONTINUOUS
10
0.655846
20
0.645846
11
0.655547
21
0.64434
0
LINE
8
BLACK
6
CONTINUOUS
10
0.655547
20
0.64434
11
0.654693
21
0.643063
0
LINE
8
BLACK
6
CONTINUOUS
10
0.654693
20
0.643063
11
0.653416
21
0.642209
0
LINE
8
BLACK
6
CONTINUOUS
10
0.653416
20
0.642209
11
0.651909
21
0.641909
0
LINE
8
BLACK
6
CONTINUOUS
10
0.651909
20
0.641909
11
0.596909
21
0.641909
0
LINE
8
BLACK
6
CONTINUOUS
10
0.596909
20
0.641909
11
0.595403
21
0.642209
0
LINE
8
BLACK
6
CONTINUOUS
10
0.595403
20
0.642209
11
0.594126
21
0.643063
0
LINE
8
BLACK
6
CONTINUOUS
10
0.594126
20
0.643063
11
0.593272
21
0.64434
0
LINE
8
BLACK
6
CONTINUOUS
10
0.593272
20
0.64434
11
0.592972
21
0.645846
0
LINE
8
BLACK
6
CONTINUOUS
10
0.592972
20
0.645846
11
0.592972
21
0.680846
0
LINE
8
BLACK
6
CONTINUOUS
10
0.592972
20
0.680846
11
0.593272
21
0.682353
0
LINE
8
BLACK
6
CONTINUOUS
10
0.593272
20
0.682353
11
0.594126
21
0.68363
0
LINE
8
BLACK
6
CONTINUOUS
10
0.594126
20
0.68363
11
0.595403
21
0.684484
0
LINE
8
BLACK
6
CONTINUOUS
10
0.595403
20
0.684484
11
0.596909
21
0.684783
0
LINE
8
BLACK
6
CONTINUOUS
10
0.596909
20
0.684783
11
0.651909
21
0.684783
0
LINE
8
BLACK
6
CONTINUOUS
10
0.651909
20
0.684783
11
0.653416
21
0.684484
0
LINE
8
BLACK
6
CONTINUOUS
10
0.013665
20
0.92128
11
0.0271581
21
0.918987
0
LINE
8
BLACK
6
CONTINUOUS
10
0.0271581
20
0.918987
11
0.0403096
21
0.915198
0
LINE
8
BLACK
6
CONTINUOUS
10
0.0403096
20
0.915198
11
0.0529543
21
0.909961
0
LINE
8
BLACK
6
CONTINUOUS
10
0.0529543
20
0.909961
11
0.064933
21
0.90334
0
LINE
8
BLACK
6
CONTINUOUS
10
0.064933
20
0.90334
11
0.0760952
21
0.89542
0
LINE
8
BLACK
6
CONTINUOUS
10
0.0760952
20
0.89542
11
0.0863004
21
0.8863
0
LINE
8
BLACK
6
CONTINUOUS
10
0.0863004
20
0.8863
11
0.0954204
21
0.876095
0
LINE
8
BLACK
6
CONTINUOUS
10
0.0954204
20
0.876095
11
0.10334
21
0.864933
0
LINE
8
BLACK
6
CONTINUOUS
10
0.10334
20
0.864933
11
0.109961
21
0.852954
0
LINE
8
BLACK
6
CONTINUOUS
10
0.109961
20
0.852954
11
0.115198
21
0.84031
0
LINE
8
BLACK
6
CONTINUOUS
10
0.115198
20
0.84031
11
0.118987
21
0.827158
0
LINE
8
BLACK
6
CONTINUOUS
10
0.118987
20
0.827158
11
0.12128
21
0.813665
0
LINE
8
BLACK
6
CONTINUOUS
10
0.12128
20
0.813665
11
0.122047
21
0.8
0
LINE
8
BLACK
6
CONTINUOUS
10
0.122047
20
0.8
11
0.12128
21
0.786335
0
LINE
8
BLACK
6
CONTINUOUS
10
0.12128
20
0.786335
11
0.118987
21
0.772842
0
LINE
8
BLACK
6
CONTINUOUS
10
0.118987
20
0.772842
11
0.115198
21
0.75969
0
LINE
8
BLACK
6
CONTINUOUS
10
0.115198
20
0.75969
11
0.109961
21
0.747046
0
LINE
8
BLACK
6
CONTINUOUS
10
0.109961
20
0.747046
11
0.10334
21
0.735067
0
LINE
8
BLACK
6
CONTINUOUS
10
0.10334
20
0.735067
11
0.0954204
21
0.723905
0
LINE
8
BLACK
6
CONTINUOUS
10
0.0954204
20
0.723905
11
0.0863004
21
0.7137
0
LINE
8
BLACK
6
CONTINUOUS
10
0.0863004
20
0.7137
11
0.0760952
21
0.70458
0
LINE
8
BLACK
6
CONTINUOUS
10
0.0760952
20
0.70458
11
0.064933
21
0.69666
0
LINE
8
BLACK
6
CONTINUOUS
10
0.064933
20
0.69666
11
0.0529543
21
0.690039
0
LINE
8
BLACK
6
CONTINUOUS
10
0.0529543
20
0.690039
11
0.0403096
21
0.684802
0
LINE
8
BLACK
6
CONTINUOUS
10
0.0403096
20
0.684802
11
0.0271581
21
0.681013
0
LINE
8
BLACK
6
CONTINUOUS
10
0.0271581
20
0.681013
11
0.013665
21
0.67872
0
LINE
8
BLACK
6
CONTINUOUS
10
0.013665
20
0.67872
11
0
21
0.677953
0
LINE
8
BLACK
6
CONTINUOUS
10
0
20
0.677953
11
-0.013665
21
0.67872
0
LINE
8
BLACK
6
CONTINUOUS
10
-0.013665
20
0.67872
11
-0.0271581
21
0.681013
0
LINE
8
BLACK
6
CONTINUOUS
10
-0.0271581
20
0.681013
11
-0.0403096
21
0.684802
0
LINE
8
BLACK
6
CONTINUOUS
10
-0.0403096
20
0.684802
11
-0.0529543
21
0.690039
0
LINE
8
BLACK
6
CONTINUOUS
10
-0.0529543
20
0.690039
11
-0.064933
21
0.69666
0
LINE
8
BLACK
6
CONTINUOUS
10
-0.064933
20
0.69666
11
-0.0760952
21
0.70458
0
LINE
8
BLACK
6
CONTINUOUS
10
-0.0760952
20
0.70458
11
-0.0863004
21
0.7137
0
LINE
8
BLACK
6
CONTINUOUS
10
-0.0863004
20
0.7137
11
-0.0954204
21
0.723905
0
LINE
8
BLACK
6
CONTINUOUS
10
-0.0954204
20
0.723905
11
-0.10334
21
0.735067
0
LINE
8
BLACK
6
CONTINUOUS
10
-0.10334
20
0.735067
11
-0.109961
21
0.747046
0
LINE
8
BLACK
6
CONTINUOUS
10
-0.109961
20
0.747046
11
-0.115198
21
0.75969
0
LINE
8
BLACK
6
CONTINUOUS
10
-0.115198
20
0.75969
11
-0.118987
21
0.772842
0
LINE
8
BLACK
6
CONTINUOUS
10
-0.118987
20
0.772842
11
-0.12128
21
0.786335
0
LINE
8
BLACK
6
CONTINUOUS
10
-0.12128
20
0.786335
11
-0.122047
21
0.8
0
LINE
8
BLACK
6
CONTINUOUS
10
-0.122047
20
0.8
11
-0.12128
21
0.813665
0
LINE
8
BLACK
6
CONTINUOUS
10
-0.12128
20
0.813665
11
-0.118987
21
0.827158
0
LINE
8
BLACK
6
CONTINUOUS
10
-0.118987
20
0.827158
11
-0.115198
21
0.84031
0
LINE
8
BLACK
6
CONTINUOUS
10
-0.115198
20
0.84031
11
-0.109961
21
0.852954
0
LINE
8
BLACK
6
CONTINUOUS
10
-0.109961
20
0.852954
11
-0.10334
21
0.864933
0
LINE
8
BLACK
6
CONTINUOUS
10
-0.10334
20
0.864933
11
-0.0954204
21
0.876095
0
LINE
8
BLACK
6
CONTINUOUS
10
-0.0954204
20
0.876095
11
-0.0863004
21
0.8863
0
LINE
8
BLACK
6
CONTINUOUS
10
-0.0863004
20
0.8863
11
-0.0760952
21
0.89542
0
LINE
8
BLACK
6
CONTINUOUS
10
-0.0760952
20
0.89542
11
-0.064933
21
0.90334
0
LINE
8
BLACK
6
CONTINUOUS
10
-0.064933
20
0.90334
11
-0.0529543
21
0.909961
0
LINE
8
BLACK
6
CONTINUOUS
10
-0.0529543
20
0.909961
11
-0.0403096
21
0.915198
0
LINE
8
BLACK
6
CONTINUOUS
10
-0.0403096
20
0.915198
11
-0.0271581
21
0.918987
0
LINE
8
BLACK
6
CONTINUOUS
10
-0.0271581
20
0.918987
11
-0.013665
21
0.92128
0
LINE
8
BLACK
6
CONTINUOUS
10
-0.013665
20
0.92128
11
0
21
0.922047
0
LINE
8
BLACK
6
CONTINUOUS
10
0
20
0.922047
11
0.013665
21
0.92128
0
LINE
8
BLACK
6
CONTINUOUS
10
1.21366
20
0.92128
11
1.22716
21
0.918987
0
LINE
8
BLACK
6
CONTINUOUS
10
1.22716
20
0.918987
11
1.24031
21
0.915198
0
LINE
8
BLACK
6
CONTINUOUS
10
1.24031
20
0.915198
11
1.25295
21
0.909961
0
LINE
8
BLACK
6
CONTINUOUS
10
1.25295
20
0.909961
11
1.26493
21
0.90334
0
LINE
8
BLACK
6
CONTINUOUS
10
1.26493
20
0.90334
11
1.2761
21
0.89542
0
LINE
8
BLACK
6
CONTINUOUS
10
1.2761
20
0.89542
11
1.2863
21
0.8863
0
LINE
8
BLACK
6
CONTINUOUS
10
1.2863
20
0.8863
11
1.29542
21
0.876095
0
LINE
8
BLACK
6
CONTINUOUS
10
1.29542
20
0.876095
11
1.30334
21
0.864933
0
LINE
8
BLACK
6
CONTINUOUS
10
1.30334
20
0.864933
11
1.30996
21
0.852954
0
LINE
8
BLACK
6
CONTINUOUS
10
1.30996
20
0.852954
11
1.3152
21
0.84031
0
LINE
8
BLACK
6
CONTINUOUS
10
1.3152
20
0.84031
11
1.31899
21
0.827158
0
LINE
8
BLACK
6
CONTINUOUS
10
1.31899
20
0.827158
11
1.32128
21
0.813665
0
LINE
8
BLACK
6
CONTINUOUS
10
1.32128
20
0.813665
11
1.32205
21
0.8
0
LINE
8
BLACK
6
CONTINUOUS
10
1.32205
20
0.8
11
1.32128
21
0.786335
0
LINE
8
BLACK
6
CONTINUOUS
10
1.32128
20
0.786335
11
1.31899
21
0.772842
0
LINE
8
BLACK
6
CONTINUOUS
10
1.31899
20
0.772842
11
1.3152
21
0.75969
0
LINE
8
BLACK
6
CONTINUOUS
10
1.3152
20
0.75969
11
1.30996
21
0.747046
0
LINE
8
BLACK
6
CONTINUOUS
10
1.30996
20
0.747046
11
1.30334
21
0.735067
0
LINE
8
BLACK
6
CONTINUOUS
10
1.30334
20
0.735067
11
1.29542
21
0.723905
0
LINE
8
BLACK
6
CONTINUOUS
10
1.29542
20
0.723905
11
1.2863
21
0.7137
0
LINE
8
BLACK
6
CONTINUOUS
10
1.2863
20
0.7137
11
1.2761
21
0.70458
0
LINE
8
BLACK
6
CONTINUOUS
10
1.2761
20
0.70458
11
1.26493
21
0.69666
0
LINE
8
BLACK
6
CONTINUOUS
10
1.26493
20
0.69666
11
1.25295
21
0.690039
0
LINE
8
BLACK
6
CONTINUOUS
10
1.25295
20
0.690039
11
1.24031
21
0.684802
0
LINE
8
BLACK
6
CONTINUOUS
10
1.24031
20
0.684802
11
1.22716
21
0.681013
0
LINE
8
BLACK
6
CONTINUOUS
10
1.22716
20
0.681013
11
1.21366
21
0.67872
0
LINE
8
BLACK
6
CONTINUOUS
10
1.21366
20
0.67872
11
1.2
21
0.677953
0
LINE
8
BLACK
6
CONTINUOUS
10
1.2
20
0.677953
11
1.18634
21
0.67872
0
LINE
8
BLACK
6
CONTINUOUS
10
1.18634
20
0.67872
11
1.17284
21
0.681013
0
LINE
8
BLACK
6
CONTINUOUS
10
1.17284
20
0.681013
11
1.15969
21
0.684802
0
LINE
8
BLACK
6
CONTINUOUS
10
1.15969
20
0.684802
11
1.14705
21
0.690039
0
LINE
8
BLACK
6
CONTINUOUS
10
1.14705
20
0.690039
11
1.13507
21
0.69666
0
LINE
8
BLACK
6
CONTINUOUS
10
1.13507
20
0.69666
11
1.1239
21
0.70458
0
LINE
8
BLACK
6
CONTINUOUS
10
1.1239
20
0.70458
11
1.1137
21
0.7137
0
LINE
8
BLACK
6
CONTINUOUS
10
1.1137
20
0.7137
11
1.10458
21
0.723905
0
LINE
8
BLACK
6
CONTINUOUS
10
1.10458
20
0.723905
11
1.09666
21
0.735067
0
LINE
8
BLACK
6
CONTINUOUS
10
1.09666
20
0.735067
11
1.09004
21
0.747046
0
LINE
8
BLACK
6
CONTINUOUS
10
1.09004
20
0.747046
11
1.0848
21
0.75969
0
LINE
8
BLACK
6
CONTINUOUS
10
1.0848
20
0.75969
11
1.08101
21
0.772842
0
LINE
8
BLACK
6
CONTINUOUS
10
1.08101
20
0.772842
11
1.07872
21
0.786335
0
LINE
8
BLACK
6
CONTINUOUS
10
1.07872
20
0.786335
11
1.07795
21
0.8
0
LINE
8
BLACK
6
CONTINUOUS
10
1.07795
20
0.8
11
1.07872
21
0.813665
0
LINE
8
BLACK
6
CONTINUOUS
10
1.07872
20
0.813665
11
1.08101
21
0.827158
0
LINE
8
BLACK
6
CONTINUOUS
10
1.08101
20
0.827158
11
1.0848
21
0.84031
0
LINE
8
BLACK
6
CONTINUOUS
10
1.0848
20
0.84031
11
1.09004
21
0.852954
0
LINE
8
BLACK
6
CONTINUOUS
10
1.09004
20
0.852954
11
1.09666
21
0.864933
0
LINE
8
BLACK
6
CONTINUOUS
10
1.09666
20
0.864933
11
1.10458
21
0.876095
0
LINE
8
BLACK
6
CONTINUOUS
10
1.10458
20
0.876095
11
1.1137
21
0.8863
0
LINE
8
BLACK
6
CONTINUOUS
10
1.1137
20
0.8863
11
1.1239
21
0.89542
0
LINE
8
BLACK
6
CONTINUOUS
10
1.1239
20
0.89542
11
1.13507
21
0.90334
0
LINE
8
BLACK
6
CONTINUOUS
10
1.13507
20
0.90334
11
1.14705
21
0.909961
0
LINE
8
BLACK
6
CONTINUOUS
10
1.14705
20
0.909961
11
1.15969
21
0.915198
0
LINE
8
BLACK
6
CONTINUOUS
10
1.15969
20
0.915198
11
1.17284
21
0.918987
0
LINE
8
BLACK
6
CONTINUOUS
10
1.17284
20
0.918987
11
1.18634
21
0.92128
0
LINE
8
BLACK
6
CONTINUOUS
10
1.18634
20
0.92128
11
1.2
21
0.922047
0
LINE
8
BLACK
6
CONTINUOUS
10
1.2
20
0.922047
11
1.21366
21
0.92128
0
LINE
8
BLACK
6
CONTINUOUS
10
0.433672
20
0.784582
11
0.434949
21
0.783729
0
LINE
8
BLACK
6
CONTINUOUS
10
0.434949
20
0.783729
11
0.435803
21
0.782451
0
LINE
8
BLACK
6
CONTINUOUS
10
0.435803
20
0.782451
11
0.436102
21
0.780945
0
LINE
8
BLACK
6
CONTINUOUS
10
0.436102
20
0.780945
11
0.436102
21
0.720945
0
LINE
8
BLACK
6
CONTINUOUS
10
0.436102
20
0.720945
11
0.435803
21
0.719438
0
LINE
8
BLACK
6
CONTINUOUS
10
0.435803
20
0.719438
11
0.434949
21
0.718161
0
LINE
8
BLACK
6
CONTINUOUS
10
0.434949
20
0.718161
11
0.433672
21
0.717308
0
LINE
8
BLACK
6
CONTINUOUS
10
0.433672
20
0.717308
11
0.432165
21
0.717008
0
LINE
8
BLACK
6
CONTINUOUS
10
0.432165
20
0.717008
11
0.372165
21
0.717008
0
LINE
8
BLACK
6
CONTINUOUS
10
0.372165
20
0.717008
11
0.370659
21
0.717308
0
LINE
8
BLACK
6
CONTINUOUS
10
0.370659
20
0.717308
11
0.369381
21
0.718161
0
LINE
8
BLACK
6
CONTINUOUS
10
0.369381
20
0.718161
11
0.368528
21
0.719438
0
LINE
8
BLACK
6
CONTINUOUS
10
0.368528
20
0.719438
11
0.368228
21
0.720945
0
LINE
8
BLACK
6
CONTINUOUS
10
0.368228
20
0.720945
11
0.368228
21
0.780945
0
LINE
8
BLACK
6
CONTINUOUS
10
0.368228
20
0.780945
11
0.368528
21
0.782451
0
LINE
8
BLACK
6
CONTINUOUS
10
0.368528
20
0.782451
11
0.369381
21
0.783729
0
LINE
8
BLACK
6
CONTINUOUS
10
0.369381
20
0.783729
11
0.370659
21
0.784582
0
LINE
8
BLACK
6
CONTINUOUS
10
0.370659
20
0.784582
11
0.372165
21
0.784882
0
LINE
8
BLACK
6
CONTINUOUS
10
0.372165
20
0.784882
11
0.432165
21
0.784882
0
LINE
8
BLACK
6
CONTINUOUS
10
0.432165
20
0.784882
11
0.433672
21
0.784582
0
LINE
8
BLACK
6
CONTINUOUS
10
0.533672
20
0.784582
11
0.534949
21
0.783729
0
LINE
8
BLACK
6
CONTINUOUS
10
0.534949
20
0.783729
11
0.535803
21
0.782451
0
LINE
8
BLACK
6
CONTINUOUS
10
0.535803
20
0.782451
11
0.536102
21
0.780945
0
LINE
8
BLACK
6
CONTINUOUS
10
0.536102
20
0.780945
11
0.536102
21
0.720945
0
LINE
8
BLACK
6
CONTINUOUS
10
0.536102
20
0.720945
11
0.535803
21
0.719438
0
LINE
8
BLACK
6
CONTINUOUS
10
0.535803
20
0.719438
11
0.534949
21
0.718161
0
LINE
8
BLACK
6
CONTINUOUS
10
0.534949
20
0.718161
11
0.533672
21
0.717308
0
LINE
8
BLACK
6
CONTINUOUS
10
0.533672
20
0.717308
11
0.532165
21
0.717008
0
LINE
8
BLACK
6
CONTINUOUS
10
0.532165
20
0.717008
11
0.472165
21
0.717008
0
LINE
8
BLACK
6
CONTINUOUS
10
0.472165
20
0.717008
11
0.470659
21
0.717308
0
LINE
8
BLACK
6
CONTINUOUS
10
0.470659
20
0.717308
11
0.469381
21
0.718161
0
LINE
8
BLACK
6
CONTINUOUS
10
0.469381
20
0.718161
11
0.468528
21
0.719438
0
LINE
8
BLACK
6
CONTINUOUS
10
0.468528
20
0.719438
11
0.468228
21
0.720945
0
LINE
8
BLACK
6
CONTINUOUS
10
0.468228
20
0.720945
11
0.468228
21
0.780945
0
LINE
8
BLACK
6
CONTINUOUS
10
0.468228
20
0.780945
11
0.468528
21
0.782451
0
LINE
8
BLACK
6
CONTINUOUS
10
0.468528
20
0.782451
11
0.469381
21
0.783729
0
LINE
8
BLACK
6
CONTINUOUS
10
0.469381
20
0.783729
11
0.470659
21
0.784582
0
LINE
8
BLACK
6
CONTINUOUS
10
0.470659
20
0.784582
11
0.472165
21
0.784882
0
LINE
8
BLACK
6
CONTINUOUS
10
0.472165
20
0.784882
11
0.532165
21
0.784882
0
LINE
8
BLACK
6
CONTINUOUS
10
0.532165
20
0.784882
11
0.533672
21
0.784582
0
LINE
8
BLACK
6
CONTINUOUS
10
0.633672
20
0.784582
11
0.634949
21
0.783729
0
LINE
8
BLACK
6
CONTINUOUS
10
0.634949
20
0.783729
11
0.635803
21
0.782451
0
LINE
8
BLACK
6
CONTINUOUS
10
0.635803
20
0.782451
11
0.636102
21
0.780945
0
LINE
8
BLACK
6
CONTINUOUS
10
0.636102
20
0.780945
11
0.636102
21
0.720945
0
LINE
8
BLACK
6
CONTINUOUS
10
0.636102
20
0.720945
11
0.635803
21
0.719438
0
LINE
8
BLACK
6
CONTINUOUS
10
0.635803
20
0.719438
11
0.634949
21
0.718161
0
LINE
8
BLACK
6
CONTINUOUS
10
0.634949
20
0.718161
11
0.633672
21
0.717308
0
LINE
8
BLACK
6
CONTINUOUS
10
0.633672
20
0.717308
11
0.632165
21
0.717008
0
LINE
8
BLACK
6
CONTINUOUS
10
0.632165
20
0.717008
11
0.572165
21
0.717008
0
LINE
8
BLACK
6
CONTINUOUS
10
0.572165
20
0.717008
11
0.570659
21
0.717308
0
LINE
8
BLACK
6
CONTINUOUS
10
0.570659
20
0.717308
11
0.569381
21
0.718161
0
LINE
8
BLACK
6
CONTINUOUS
10
0.569381
20
0.718161
11
0.568528
21
0.719438
0
LINE
8
BLACK
6
CONTINUOUS
10
0.568528
20
0.719438
11
0.568228
21
0.720945
0
LINE
8
BLACK
6
CONTINUOUS
10
0.568228
20
0.720945
11
0.568228
21
0.780945
0
LINE
8
BLACK
6
CONTINUOUS
10
0.568228
20
0.780945
11
0.568528
21
0.782451
0
LINE
8
BLACK
6
CONTINUOUS
10
0.568528
20
0.782451
11
0.569381
21
0.783729
0
LINE
8
BLACK
6
CONTINUOUS
10
0.569381
20
0.783729
11
0.570659
21
0.784582
0
LINE
8
BLACK
6
CONTINUOUS
10
0.570659
20
0.784582
11
0.572165
21
0.784882
0
LINE
8
BLACK
6
CONTINUOUS
10
0.572165
20
0.784882
11
0.632165
21
0.784882
0
LINE
8
BLACK
6
CONTINUOUS
10
0.632165
20
0.784882
11
0.633672
21
0.784582
0
LINE
8
BLACK
6
CONTINUOUS
10
0.733672
20
0.784582
11
0.734949
21
0.783729
0
LINE
8
BLACK
6
CONTINUOUS
10
0.734949
20
0.783729
11
0.735803
21
0.782451
0
LINE
8
BLACK
6
CONTINUOUS
10
0.735803
20
0.782451
11
0.736102
21
0.780945
0
LINE
8
BLACK
6
CONTINUOUS
10
0.736102
20
0.780945
11
0.736102
21
0.720945
0
LINE
8
BLACK
6
CONTINUOUS
10
0.736102
20
0.720945
11
0.735803
21
0.719438
0
LINE
8
BLACK
6
CONTINUOUS
10
0.735803
20
0.719438
11
0.734949
21
0.718161
0
LINE
8
BLACK
6
CONTINUOUS
10
0.734949
20
0.718161
11
0.733672
21
0.717308
0
LINE
8
BLACK
6
CONTINUOUS
10
0.733672
20
0.717308
11
0.732165
21
0.717008
0
LINE
8
BLACK
6
CONTINUOUS
10
0.732165
20
0.717008
11
0.672165
21
0.717008
0
LINE
8
BLACK
6
CONTINUOUS
10
0.672165
20
0.717008
11
0.670659
21
0.717308
0
LINE
8
BLACK
6
CONTINUOUS
10
0.670659
20
0.717308
11
0.669381
21
0.718161
0
LINE
8
BLACK
6
CONTINUOUS
10
0.669381
20
0.718161
11
0.668528
21
0.719438
0
LINE
8
BLACK
6
CONTINUOUS
10
0.668528
20
0.719438
11
0.668228
21
0.720945
0
LINE
8
BLACK
6
CONTINUOUS
10
0.668228
20
0.720945
11
0.668228
21
0.780945
0
LINE
8
BLACK
6
CONTINUOUS
10
0.668228
20
0.780945
11
0.668528
21
0.782451
0
LINE
8
BLACK
6
CONTINUOUS
10
0.668528
20
0.782451
11
0.669381
21
0.783729
0
LINE
8
BLACK
6
CONTINUOUS
10
0.669381
20
0.783729
11
0.670659
21
0.784582
0
LINE
8
BLACK
6
CONTINUOUS
10
0.670659
20
0.784582
11
0.672165
21
0.784882
0
LINE
8
BLACK
6
CONTINUOUS
10
0.672165
20
0.784882
11
0.732165
21
0.784882
0
LINE
8
BLACK
6
CONTINUOUS
10
0.732165
20
0.784882
11
0.733672
21
0.784582
0
LINE
8
BLACK
6
CONTINUOUS
10
0.833672
20
0.784582
11
0.834949
21
0.783729
0
LINE
8
BLACK
6
CONTINUOUS
10
0.834949
20
0.783729
11
0.835803
21
0.782451
0
LINE
8
BLACK
6
CONTINUOUS
10
0.835803
20
0.782451
11
0.836102
21
0.780945
0
LINE
8
BLACK
6
CONTINUOUS
10
0.836102
20
0.780945
11
0.836102
21
0.720945
0
LINE
8
BLACK
6
CONTINUOUS
10
0.836102
20
0.720945
11
0.835803
21
0.719438
0
LINE
8
BLACK
6
CONTINUOUS
10
0.835803
20
0.719438
11
0.834949
21
0.718161
0
LINE
8
BLACK
6
CONTINUOUS
10
0.834949
20
0.718161
11
0.833672
21
0.717308
0
LINE
8
BLACK
6
CONTINUOUS
10
0.833672
20
0.717308
11
0.832165
21
0.717008
0
LINE
8
BLACK
6
CONTINUOUS
10
0.832165
20
0.717008
11
0.772165
21
0.717008
0
LINE
8
BLACK
6
CONTINUOUS
10
0.772165
20
0.717008
11
0.770659
21
0.717308
0
LINE
8
BLACK
6
CONTINUOUS
10
0.770659
20
0.717308
11
0.769381
21
0.718161
0
LINE
8
BLACK
6
CONTINUOUS
10
0.769381
20
0.718161
11
0.768528
21
0.719438
0
LINE
8
BLACK
6
CONTINUOUS
10
0.768528
20
0.719438
11
0.768228
21
0.720945
0
LINE
8
BLACK
6
CONTINUOUS
10
0.768228
20
0.720945
11
0.768228
21
0.780945
0
LINE
8
BLACK
6
CONTINUOUS
10
0.768228
20
0.780945
11
0.768528
21
0.782451
0
LINE
8
BLACK
6
CONTINUOUS
10
0.768528
20
0.782451
11
0.769381
21
0.783729
0
LINE
8
BLACK
6
CONTINUOUS
10
0.769381
20
0.783729
11
0.770659
21
0.784582
0
LINE
8
BLACK
6
CONTINUOUS
10
0.770659
20
0.784582
11
0.772165
21
0.784882
0
LINE
8
BLACK
6
CONTINUOUS
10
0.772165
20
0.784882
11
0.832165
21
0.784882
0
LINE
8
BLACK
6
CONTINUOUS
10
0.832165
20
0.784882
11
0.833672
21
0.784582
0
LINE
8
BLACK
6
CONTINUOUS
10
0.933672
20
0.784582
11
0.934949
21
0.783729
0
LINE
8
BLACK
6
CONTINUOUS
10
0.934949
20
0.783729
11
0.935803
21
0.782451
0
LINE
8
BLACK
6
CONTINUOUS
10
0.935803
20
0.782451
11
0.936102
21
0.780945
0
LINE
8
BLACK
6
CONTINUOUS
10
0.936102
20
0.780945
11
0.936102
21
0.720945
0
LINE
8
BLACK
6
CONTINUOUS
10
0.936102
20
0.720945
11
0.935803
21
0.719438
0
LINE
8
BLACK
6
CONTINUOUS
10
0.935803
20
0.719438
11
0.934949
21
0.718161
0
LINE
8
BLACK
6
CONTINUOUS
10
0.934949
20
0.718161
11
0.933672
21
0.717308
0
LINE
8
BLACK
6
CONTINUOUS
10
0.933672
20
0.717308
11
0.932165
21
0.717008
0
LINE
8
BLACK
6
CONTINUOUS
10
0.932165
20
0.717008
11
0.872165
21
0.717008
0
LINE
8
BLACK
6
CONTINUOUS
10
0.872165
20
0.717008
11
0.870659
21
0.717308
0
LINE
8
BLACK
6
CONTINUOUS
10
0.870659
20
0.717308
11
0.869381
21
0.718161
0
LINE
8
BLACK
6
CONTINUOUS
10
0.869381
20
0.718161
11
0.868528
21
0.719438
0
LINE
8
BLACK
6
CONTINUOUS
10
0.868528
20
0.719438
11
0.868228
21
0.720945
0
LINE
8
BLACK
6
CONTINUOUS
10
0.868228
20
0.720945
11
0.868228
21
0.780945
0
LINE
8
BLACK
6
CONTINUOUS
10
0.868228
20
0.780945
11
0.868528
21
0.782451
0
LINE
8
BLACK
6
CONTINUOUS
10
0.868528
20
0.782451
11
0.869381
21
0.783729
0
LINE
8
BLACK
6
CONTINUOUS
10
0.869381
20
0.783729
11
0.870659
21
0.784582
0
LINE
8
BLACK
6
CONTINUOUS
10
0.870659
20
0.784582
11
0.872165
21
0.784882
0
LINE
8
BLACK
6
CONTINUOUS
10
0.872165
20
0.784882
11
0.932165
21
0.784882
0
LINE
8
BLACK
6
CONTINUOUS
10
0.932165
20
0.784882
11
0.933672
21
0.784582
0
LINE
8
BLACK
6
CONTINUOUS
10
1.03367
20
0.784582
11
1.03495
21
0.783729
0
LINE
8
BLACK
6
CONTINUOUS
10
1.03495
20
0.783729
11
1.0358
21
0.782451
0
LINE
8
BLACK
6
CONTINUOUS
10
1.0358
20
0.782451
11
1.0361
21
0.780945
0
LINE
8
BLACK
6
CONTINUOUS
10
1.0361
20
0.780945
11
1.0361
21
0.720945
0
LINE
8
BLACK
6
CONTINUOUS
10
1.0361
20
0.720945
11
1.0358
21
0.719438
0
LINE
8
BLACK
6
CONTINUOUS
10
1.0358
20
0.719438
11
1.03495
21
0.718161
0
LINE
8
BLACK
6
CONTINUOUS
10
1.03495
20
0.718161
11
1.03367
21
0.717308
0
LINE
8
BLACK
6
CONTINUOUS
10
1.03367
20
0.717308
11
1.03217
21
0.717008
0
LINE
8
BLACK
6
CONTINUOUS
10
1.03217
20
0.717008
11
0.972165
21
0.717008
0
LINE
8
BLACK
6
CONTINUOUS
10
0.972165
20
0.717008
11
0.970659
21
0.717308
0
LINE
8
BLACK
6
CONTINUOUS
10
0.970659
20
0.717308
11
0.969381
21
0.718161
0
LINE
8
BLACK
6
CONTINUOUS
10
0.969381
20
0.718161
11
0.968528
21
0.719438
0
LINE
8
BLACK
6
CONTINUOUS
10
0.968528
20
0.719438
11
0.968228
21
0.720945
0
LINE
8
BLACK
6
CONTINUOUS
10
0.968228
20
0.720945
11
0.968228
21
0.780945
0
LINE
8
BLACK
6
CONTINUOUS
10
0.968228
20
0.780945
11
0.968528
21
0.782451
0
LINE
8
BLACK
6
CONTINUOUS
10
0.968528
20
0.782451
11
0.969381
21
0.783729
0
LINE
8
BLACK
6
CONTINUOUS
10
0.969381
20
0.783729
11
0.970659
21
0.784582
0
LINE
8
BLACK
6
CONTINUOUS
10
0.970659
20
0.784582
11
0.972165
21
0.784882
0
LINE
8
BLACK
6
CONTINUOUS
10
0.972165
20
0.784882
11
1.03217
21
0.784882
0
LINE
8
BLACK
6
CONTINUOUS
10
1.03217
20
0.784882
11
1.03367
21
0.784582
0
LINE
8
BLACK
6
CONTINUOUS
10
0.197869
20
0.833161
11
0.201717
21
0.831462
0
LINE
8
BLACK
6
CONTINUOUS
10
0.201717
20
0.831462
11
0.20469
21
0.828488
0
LINE
8
BLACK
6
CONTINUOUS
10
0.20469
20
0.828488
11
0.206389
21
0.824641
0
LINE
8
BLACK
6
CONTINUOUS
10
0.206389
20
0.824641
11
0.206693
21
0.822021
0
LINE
8
BLACK
6
CONTINUOUS
10
0.206693
20
0.822021
11
0.206693
21
0.777979
0
LINE
8
BLACK
6
CONTINUOUS
10
0.206693
20
0.777979
11
0.206389
21
0.775359
0
LINE
8
BLACK
6
CONTINUOUS
10
0.206389
20
0.775359
11
0.20469
21
0.771512
0
LINE
8
BLACK
6
CONTINUOUS
10
0.20469
20
0.771512
11
0.201717
21
0.768538
0
LINE
8
BLACK
6
CONTINUOUS
10
0.201717
20
0.768538
11
0.197869
21
0.766839
0
LINE
8
BLACK
6
CONTINUOUS
10
0.197869
20
0.766839
11
0.195249
21
0.766535
0
LINE
8
BLACK
6
CONTINUOUS
10
0.195249
20
0.766535
11
0.153963
21
0.766535
0
LINE
8
BLACK
6
CONTINUOUS
10
0.153963
20
0.766535
11
0.151343
21
0.766839
0
LINE
8
BLACK
6
CONTINUOUS
10
0.151343
20
0.766839
11
0.147496
21
0.768538
0
LINE
8
BLACK
6
CONTINUOUS
10
0.147496
20
0.768538
11
0.144522
21
0.771512
0
LINE
8
BLACK
6
CONTINUOUS
10
0.144522
20
0.771512
11
0.142824
21
0.775359
0
LINE
8
BLACK
6
CONTINUOUS
10
0.142824
20
0.775359
11
0.14252
21
0.777979
0
LINE
8
BLACK
6
CONTINUOUS
10
0.14252
20
0.777979
11
0.14252
21
0.822021
0
LINE
8
BLACK
6
CONTINUOUS
10
0.14252
20
0.822021
11
0.142824
21
0.824641
0
LINE
8
BLACK
6
CONTINUOUS
10
0.142824
20
0.824641
11
0.144522
21
0.828488
0
LINE
8
BLACK
6
CONTINUOUS
10
0.144522
20
0.828488
11
0.147496
21
0.831462
0
LINE
8
BLACK
6
CONTINUOUS
10
0.147496
20
0.831462
11
0.151343
21
0.833161
0
LINE
8
BLACK
6
CONTINUOUS
10
0.151343
20
0.833161
11
0.153963
21
0.833465
0
LINE
8
BLACK
6
CONTINUOUS
10
0.153963
20
0.833465
11
0.195249
21
0.833465
0
LINE
8
BLACK
6
CONTINUOUS
10
0.195249
20
0.833465
11
0.197869
21
0.833161
0
LINE
8
BLACK
6
CONTINUOUS
10
0.348657
20
0.833161
11
0.352504
21
0.831462
0
LINE
8
BLACK
6
CONTINUOUS
10
0.352504
20
0.831462
11
0.355478
21
0.828488
0
LINE
8
BLACK
6
CONTINUOUS
10
0.355478
20
0.828488
11
0.357176
21
0.824641
0
LINE
8
BLACK
6
CONTINUOUS
10
0.357176
20
0.824641
11
0.35748
21
0.822021
0
LINE
8
BLACK
6
CONTINUOUS
10
0.35748
20
0.822021
11
0.35748
21
0.777979
0
LINE
8
BLACK
6
CONTINUOUS
10
0.35748
20
0.777979
11
0.357176
21
0.775359
0
LINE
8
BLACK
6
CONTINUOUS
10
0.357176
20
0.775359
11
0.355478
21
0.771512
0
LINE
8
BLACK
6
CONTINUOUS
10
0.355478
20
0.771512
11
0.352504
21
0.768538
0
LINE
8
BLACK
6
CONTINUOUS
10
0.352504
20
0.768538
11
0.348657
21
0.766839
0
LINE
8
BLACK
6
CONTINUOUS
10
0.348657
20
0.766839
11
0.346037
21
0.766535
0
LINE
8
BLACK
6
CONTINUOUS
10
0.346037
20
0.766535
11
0.304751
21
0.766535
0
LINE
8
BLACK
6
CONTINUOUS
10
0.304751
20
0.766535
11
0.302131
21
0.766839
0
LINE
8
BLACK
6
CONTINUOUS
10
0.302131
20
0.766839
11
0.298283
21
0.768538
0
LINE
8
BLACK
6
CONTINUOUS
10
0.298283
20
0.768538
11
0.29531
21
0.771512
0
LINE
8
BLACK
6
CONTINUOUS
10
0.29531
20
0.771512
11
0.293611
21
0.775359
0
LINE
8
BLACK
6
CONTINUOUS
10
0.293611
20
0.775359
11
0.293307
21
0.777979
0
LINE
8
BLACK
6
CONTINUOUS
10
0.293307
20
0.777979
11
0.293307
21
0.822021
0
LINE
8
BLACK
6
CONTINUOUS
10
0.293307
20
0.822021
11
0.293611
21
0.824641
0
LINE
8
BLACK
6
CONTINUOUS
10
0.293611
20
0.824641
11
0.29531
21
0.828488
0
LINE
8
BLACK
6
CONTINUOUS
10
0.29531
20
0.828488
11
0.298283
21
0.831462
0
LINE
8
BLACK
6
CONTINUOUS
10
0.298283
20
0.831462
11
0.302131
21
0.833161
0
LINE
8
BLACK
6
CONTINUOUS
10
0.302131
20
0.833161
11
0.304751
21
0.833465
0
LINE
8
BLACK
6
CONTINUOUS
10
0.304751
20
0.833465
11
0.346037
21
0.833465
0
LINE
8
BLACK
6
CONTINUOUS
10
0.346037
20
0.833465
11
0.348657
21
0.833161
0
LINE
8
BLACK
6
CONTINUOUS
10
0.433672
20
0.884582
11
0.434949
21
0.883729
0
LINE
8
BLACK
6
CONTINUOUS
10
0.434949
20
0.883729
11
0.435803
21
0.882451
0
LINE
8
BLACK
6
CONTINUOUS
10
0.435803
20
0.882451
11
0.436102
21
0.880945
0
LINE
8
BLACK
6
CONTINUOUS
10
0.436102
20
0.880945
11
0.436102
21
0.820945
0
LINE
8
BLACK
6
CONTINUOUS
10
0.436102
20
0.820945
11
0.435803
21
0.819438
0
LINE
8
BLACK
6
CONTINUOUS
10
0.435803
20
0.819438
11
0.434949
21
0.818161
0
LINE
8
BLACK
6
CONTINUOUS
10
0.434949
20
0.818161
11
0.433672
21
0.817308
0
LINE
8
BLACK
6
CONTINUOUS
10
0.433672
20
0.817308
11
0.432165
21
0.817008
0
LINE
8
BLACK
6
CONTINUOUS
10
0.432165
20
0.817008
11
0.372165
21
0.817008
0
LINE
8
BLACK
6
CONTINUOUS
10
0.372165
20
0.817008
11
0.370659
21
0.817308
0
LINE
8
BLACK
6
CONTINUOUS
10
0.370659
20
0.817308
11
0.369381
21
0.818161
0
LINE
8
BLACK
6
CONTINUOUS
10
0.369381
20
0.818161
11
0.368528
21
0.819438
0
LINE
8
BLACK
6
CONTINUOUS
10
0.368528
20
0.819438
11
0.368228
21
0.820945
0
LINE
8
BLACK
6
CONTINUOUS
10
0.368228
20
0.820945
11
0.368228
21
0.880945
0
LINE
8
BLACK
6
CONTINUOUS
10
0.368228
20
0.880945
11
0.368528
21
0.882451
0
LINE
8
BLACK
6
CONTINUOUS
10
0.368528
20
0.882451
11
0.369381
21
0.883729
0
LINE
8
BLACK
6
CONTINUOUS
10
0.369381
20
0.883729
11
0.370659
21
0.884582
0
LINE
8
BLACK
6
CONTINUOUS
10
0.370659
20
0.884582
11
0.372165
21
0.884882
0
LINE
8
BLACK
6
CONTINUOUS
10
0.372165
20
0.884882
11
0.432165
21
0.884882
0
LINE
8
BLACK
6
CONTINUOUS
10
0.432165
20
0.884882
11
0.433672
21
0.884582
0
LINE
8
BLACK
6
CONTINUOUS
10
0.533672
20
0.884582
11
0.534949
21
0.883729
0
LINE
8
BLACK
6
CONTINUOUS
10
0.534949
20
0.883729
11
0.535803
21
0.882451
0
LINE
8
BLACK
6
CONTINUOUS
10
0.535803
20
0.882451
11
0.536102
21
0.880945
0
LINE
8
BLACK
6
CONTINUOUS
10
0.536102
20
0.880945
11
0.536102
21
0.820945
0
LINE
8
BLACK
6
CONTINUOUS
10
0.536102
20
0.820945
11
0.535803
21
0.819438
0
LINE
8
BLACK
6
CONTINUOUS
10
0.535803
20
0.819438
11
0.534949
21
0.818161
0
LINE
8
BLACK
6
CONTINUOUS
10
0.534949
20
0.818161
11
0.533672
21
0.817308
0
LINE
8
BLACK
6
CONTINUOUS
10
0.533672
20
0.817308
11
0.532165
21
0.817008
0
LINE
8
BLACK
6
CONTINUOUS
10
0.532165
20
0.817008
11
0.472165
21
0.817008
0
LINE
8
BLACK
6
CONTINUOUS
10
0.472165
20
0.817008
11
0.470659
21
0.817308
0
LINE
8
BLACK
6
CONTINUOUS
10
0.470659
20
0.817308
11
0.469381
21
0.818161
0
LINE
8
BLACK
6
CONTINUOUS
10
0.469381
20
0.818161
11
0.468528
21
0.819438
0
LINE
8
BLACK
6
CONTINUOUS
10
0.468528
20
0.819438
11
0.468228
21
0.820945
0
LINE
8
BLACK
6
CONTINUOUS
10
0.468228
20
0.820945
11
0.468228
21
0.880945
0
LINE
8
BLACK
6
CONTINUOUS
10
0.468228
20
0.880945
11
0.468528
21
0.882451
0
LINE
8
BLACK
6
CONTINUOUS
10
0.468528
20
0.882451
11
0.469381
21
0.883729
0
LINE
8
BLACK
6
CONTINUOUS
10
0.469381
20
0.883729
11
0.470659
21
0.884582
0
LINE
8
BLACK
6
CONTINUOUS
10
0.470659
20
0.884582
11
0.472165
21
0.884882
0
LINE
8
BLACK
6
CONTINUOUS
10
0.472165
20
0.884882
11
0.532165
21
0.884882
0
LINE
8
BLACK
6
CONTINUOUS
10
0.532165
20
0.884882
11
0.533672
21
0.884582
0
LINE
8
BLACK
6
CONTINUOUS
10
0.633672
20
0.884582
11
0.634949
21
0.883729
0
LINE
8
BLACK
6
CONTINUOUS
10
0.634949
20
0.883729
11
0.635803
21
0.882451
0
LINE
8
BLACK
6
CONTINUOUS
10
0.635803
20
0.882451
11
0.636102
21
0.880945
0
LINE
8
BLACK
6
CONTINUOUS
10
0.636102
20
0.880945
11
0.636102
21
0.820945
0
LINE
8
BLACK
6
CONTINUOUS
10
0.636102
20
0.820945
11
0.635803
21
0.819438
0
LINE
8
BLACK
6
CONTINUOUS
10
0.635803
20
0.819438
11
0.634949
21
0.818161
0
LINE
8
BLACK
6
CONTINUOUS
10
0.634949
20
0.818161
11
0.633672
21
0.817308
0
LINE
8
BLACK
6
CONTINUOUS
10
0.633672
20
0.817308
11
0.632165
21
0.817008
0
LINE
8
BLACK
6
CONTINUOUS
10
0.632165
20
0.817008
11
0.572165
21
0.817008
0
LINE
8
BLACK
6
CONTINUOUS
10
0.572165
20
0.817008
11
0.570659
21
0.817308
0
LINE
8
BLACK
6
CONTINUOUS
10
0.570659
20
0.817308
11
0.569381
21
0.818161
0
LINE
8
BLACK
6
CONTINUOUS
10
0.569381
20
0.818161
11
0.568528
21
0.819438
0
LINE
8
BLACK
6
CONTINUOUS
10
0.568528
20
0.819438
11
0.568228
21
0.820945
0
LINE
8
BLACK
6
CONTINUOUS
10
0.568228
20
0.820945
11
0.568228
21
0.880945
0
LINE
8
BLACK
6
CONTINUOUS
10
0.568228
20
0.880945
11
0.568528
21
0.882451
0
LINE
8
BLACK
6
CONTINUOUS
10
0.568528
20
0.882451
11
0.569381
21
0.883729
0
LINE
8
BLACK
6
CONTINUOUS
10
0.569381
20
0.883729
11
0.570659
21
0.884582
0
LINE
8
BLACK
6
CONTINUOUS
10
0.570659
20
0.884582
11
0.572165
21
0.884882
0
LINE
8
BLACK
6
CONTINUOUS
10
0.572165
20
0.884882
11
0.632165
21
0.884882
0
LINE
8
BLACK
6
CONTINUOUS
10
0.632165
20
0.884882
11
0.633672
21
0.884582
0
LINE
8
BLACK
6
CONTINUOUS
10
0.733672
20
0.884582
11
0.734949
21
0.883729
0
LINE
8
BLACK
6
CONTINUOUS
10
0.734949
20
0.883729
11
0.735803
21
0.882451
0
LINE
8
BLACK
6
CONTINUOUS
10
0.735803
20
0.882451
11
0.736102
21
0.880945
0
LINE
8
BLACK
6
CONTINUOUS
10
0.736102
20
0.880945
11
0.736102
21
0.820945
0
LINE
8
BLACK
6
CONTINUOUS
10
0.736102
20
0.820945
11
0.735803
21
0.819438
0
LINE
8
BLACK
6
CONTINUOUS
10
0.735803
20
0.819438
11
0.734949
21
0.818161
0
LINE
8
BLACK
6
CONTINUOUS
10
0.734949
20
0.818161
11
0.733672
21
0.817308
0
LINE
8
BLACK
6
CONTINUOUS
10
0.733672
20
0.817308
11
0.732165
21
0.817008
0
LINE
8
BLACK
6
CONTINUOUS
10
0.732165
20
0.817008
11
0.672165
21
0.817008
0
LINE
8
BLACK
6
CONTINUOUS
10
0.672165
20
0.817008
11
0.670659
21
0.817308
0
LINE
8
BLACK
6
CONTINUOUS
10
0.670659
20
0.817308
11
0.669381
21
0.818161
0
LINE
8
BLACK
6
CONTINUOUS
10
0.669381
20
0.818161
11
0.668528
21
0.819438
0
LINE
8
BLACK
6
CONTINUOUS
10
0.668528
20
0.819438
11
0.668228
21
0.820945
0
LINE
8
BLACK
6
CONTINUOUS
10
0.668228
20
0.820945
11
0.668228
21
0.880945
0
LINE
8
BLACK
6
CONTINUOUS
10
0.668228
20
0.880945
11
0.668528
21
0.882451
0
LINE
8
BLACK
6
CONTINUOUS
10
0.668528
20
0.882451
11
0.669381
21
0.883729
0
LINE
8
BLACK
6
CONTINUOUS
10
0.669381
20
0.883729
11
0.670659
21
0.884582
0
LINE
8
BLACK
6
CONTINUOUS
10
0.670659
20
0.884582
11
0.672165
21
0.884882
0
LINE
8
BLACK
6
CONTINUOUS
10
0.672165
20
0.884882
11
0.732165
21
0.884882
0
LINE
8
BLACK
6
CONTINUOUS
10
0.732165
20
0.884882
11
0.733672
21
0.884582
0
LINE
8
BLACK
6
CONTINUOUS
10
0.833672
20
0.884582
11
0.834949
21
0.883729
0
LINE
8
BLACK
6
CONTINUOUS
10
0.834949
20
0.883729
11
0.835803
21
0.882451
0
LINE
8
BLACK
6
CONTINUOUS
10
0.835803
20
0.882451
11
0.836102
21
0.880945
0
LINE
8
BLACK
6
CONTINUOUS
10
0.836102
20
0.880945
11
0.836102
21
0.820945
0
LINE
8
BLACK
6
CONTINUOUS
10
0.836102
20
0.820945
11
0.835803
21
0.819438
0
LINE
8
BLACK
6
CONTINUOUS
10
0.835803
20
0.819438
11
0.834949
21
0.818161
0
LINE
8
BLACK
6
CONTINUOUS
10
0.834949
20
0.818161
11
0.833672
21
0.817308
0
LINE
8
BLACK
6
CONTINUOUS
10
0.833672
20
0.817308
11
0.832165
21
0.817008
0
LINE
8
BLACK
6
CONTINUOUS
10
0.832165
20
0.817008
11
0.772165
21
0.817008
0
LINE
8
BLACK
6
CONTINUOUS
10
0.772165
20
0.817008
11
0.770659
21
0.817308
0
LINE
8
BLACK
6
CONTINUOUS
10
0.770659
20
0.817308
11
0.769381
21
0.818161
0
LINE
8
BLACK
6
CONTINUOUS
10
0.769381
20
0.818161
11
0.768528
21
0.819438
0
LINE
8
BLACK
6
CONTINUOUS
10
0.768528
20
0.819438
11
0.768228
21
0.820945
0
LINE
8
BLACK
6
CONTINUOUS
10
0.768228
20
0.820945
11
0.768228
21
0.880945
0
LINE
8
BLACK
6
CONTINUOUS
10
0.768228
20
0.880945
11
0.768528
21
0.882451
0
LINE
8
BLACK
6
CONTINUOUS
10
0.768528
20
0.882451
11
0.769381
21
0.883729
0
LINE
8
BLACK
6
CONTINUOUS
10
0.769381
20
0.883729
11
0.770659
21
0.884582
0
LINE
8
BLACK
6
CONTINUOUS
10
0.770659
20
0.884582
11
0.772165
21
0.884882
0
LINE
8
BLACK
6
CONTINUOUS
10
0.772165
20
0.884882
11
0.832165
21
0.884882
0
LINE
8
BLACK
6
CONTINUOUS
10
0.832165
20
0.884882
11
0.833672
21
0.884582
0
LINE
8
BLACK
6
CONTINUOUS
10
0.933672
20
0.884582
11
0.934949
21
0.883729
0
LINE
8
BLACK
6
CONTINUOUS
10
0.934949
20
0.883729
11
0.935803
21
0.882451
0
LINE
8
BLACK
6
CONTINUOUS
10
0.935803
20
0.882451
11
0.936102
21
0.880945
0
LINE
8
BLACK
6
CONTINUOUS
10
0.936102
20
0.880945
11
0.936102
21
0.820945
0
LINE
8
BLACK
6
CONTINUOUS
10
0.936102
20
0.820945
11
0.935803
21
0.819438
0
LINE
8
BLACK
6
CONTINUOUS
10
0.935803
20
0.819438
11
0.934949
21
0.818161
0
LINE
8
BLACK
6
CONTINUOUS
10
0.934949
20
0.818161
11
0.933672
21
0.817308
0
LINE
8
BLACK
6
CONTINUOUS
10
0.933672
20
0.817308
11
0.932165
21
0.817008
0
LINE
8
BLACK
6
CONTINUOUS
10
0.932165
20
0.817008
11
0.872165
21
0.817008
0
LINE
8
BLACK
6
CONTINUOUS
10
0.872165
20
0.817008
11
0.870659
21
0.817308
0
LINE
8
BLACK
6
CONTINUOUS
10
0.870659
20
0.817308
11
0.869381
21
0.818161
0
LINE
8
BLACK
6
CONTINUOUS
10
0.869381
20
0.818161
11
0.868528
21
0.819438
0
LINE
8
BLACK
6
CONTINUOUS
10
0.868528
20
0.819438
11
0.868228
21
0.820945
0
LINE
8
BLACK
6
CONTINUOUS
10
0.868228
20
0.820945
11
0.868228
21
0.880945
0
LINE
8
BLACK
6
CONTINUOUS
10
0.868228
20
0.880945
11
0.868528
21
0.882451
0
LINE
8
BLACK
6
CONTINUOUS
10
0.868528
20
0.882451
11
0.869381
21
0.883729
0
LINE
8
BLACK
6
CONTINUOUS
10
0.869381
20
0.883729
11
0.870659
21
0.884582
0
LINE
8
BLACK
6
CONTINUOUS
10
0.870659
20
0.884582
11
0.872165
21
0.884882
0
LINE
8
BLACK
6
CONTINUOUS
10
0.872165
20
0.884882
11
0.932165
21
0.884882
0
LINE
8
BLACK
6
CONTINUOUS
10
0.932165
20
0.884882
11
0.933672
21
0.884582
0
LINE
8
BLACK
6
CONTINUOUS
10
1.03367
20
0.884582
11
1.03495
21
0.883729
0
LINE
8
BLACK
6
CONTINUOUS
10
1.03495
20
0.883729
11
1.0358
21
0.882451
0
LINE
8
BLACK
6
CONTINUOUS
10
1.0358
20
0.882451
11
1.0361
21
0.880945
0
LINE
8
BLACK
6
CONTINUOUS
10
1.0361
20
0.880945
11
1.0361
21
0.820945
0
LINE
8
BLACK
6
CONTINUOUS
10
1.0361
20
0.820945
11
1.0358
21
0.819438
0
LINE
8
BLACK
6
CONTINUOUS
10
1.0358
20
0.819438
11
1.03495
21
0.818161
0
LINE
8
BLACK
6
CONTINUOUS
10
1.03495
20
0.818161
11
1.03367
21
0.817308
0
LINE
8
BLACK
6
CONTINUOUS
10
1.03367
20
0.817308
11
1.03217
21
0.817008
0
LINE
8
BLACK
6
CONTINUOUS
10
1.03217
20
0.817008
11
0.972165
21
0.817008
0
LINE
8
BLACK
6
CONTINUOUS
10
0.972165
20
0.817008
11
0.970659
21
0.817308
0
LINE
8
BLACK
6
CONTINUOUS
10
0.970659
20
0.817308
11
0.969381
21
0.818161
0
LINE
8
BLACK
6
CONTINUOUS
10
0.969381
20
0.818161
11
0.968528
21
0.819438
0
LINE
8
BLACK
6
CONTINUOUS
10
0.968528
20
0.819438
11
0.968228
21
0.820945
0
LINE
8
BLACK
6
CONTINUOUS
10
0.968228
20
0.820945
11
0.968228
21
0.880945
0
LINE
8
BLACK
6
CONTINUOUS
10
0.968228
20
0.880945
11
0.968528
21
0.882451
0
LINE
8
BLACK
6
CONTINUOUS
10
0.968528
20
0.882451
11
0.969381
21
0.883729
0
LINE
8
BLACK
6
CONTINUOUS
10
0.969381
20
0.883729
11
0.970659
21
0.884582
0
LINE
8
BLACK
6
CONTINUOUS
10
0.970659
20
0.884582
11
0.972165
21
0.884882
0
LINE
8
BLACK
6
CONTINUOUS
10
0.972165
20
0.884882
11
1.03217
21
0.884882
0
LINE
8
BLACK
6
CONTINUOUS
10
1.03217
20
0.884882
11
1.03367
21
0.884582
0
LINE
8
BLACK
6
CONTINUOUS
10
0.219007
20
0.956137
11
0.220284
21
0.955284
0
LINE
8
BLACK
6
CONTINUOUS
10
0.220284
20
0.955284
11
0.221137
21
0.954007
0
LINE
8
BLACK
6
CONTINUOUS
10
0.221137
20
0.954007
11
0.221437
21
0.9525
0
LINE
8
BLACK
6
CONTINUOUS
10
0.221437
20
0.9525
11
0.221437
21
0.8975
0
LINE
8
BLACK
6
CONTINUOUS
10
0.221437
20
0.8975
11
0.221137
21
0.895993
0
LINE
8
BLACK
6
CONTINUOUS
10
0.221137
20
0.895993
11
0.220284
21
0.894716
0
LINE
8
BLACK
6
CONTINUOUS
10
0.220284
20
0.894716
11
0.219007
21
0.893863
0
LINE
8
BLACK
6
CONTINUOUS
10
0.219007
20
0.893863
11
0.2175
21
0.893563
0
LINE
8
BLACK
6
CONTINUOUS
10
0.2175
20
0.893563
11
0.1825
21
0.893563
0
LINE
8
BLACK
6
CONTINUOUS
10
0.1825
20
0.893563
11
0.180993
21
0.893863
0
LINE
8
BLACK
6
CONTINUOUS
10
0.180993
20
0.893863
11
0.179716
21
0.894716
0
LINE
8
BLACK
6
CONTINUOUS
10
0.179716
20
0.894716
11
0.178863
21
0.895993
0
LINE
8
BLACK
6
CONTINUOUS
10
0.178863
20
0.895993
11
0.178563
21
0.8975
0
LINE
8
BLACK
6
CONTINUOUS
10
0.178563
20
0.8975
11
0.178563
21
0.9525
0
LINE
8
BLACK
6
CONTINUOUS
10
0.178563
20
0.9525
11
0.178863
21
0.954007
0
LINE
8
BLACK
6
CONTINUOUS
10
0.178863
20
0.954007
11
0.179716
21
0.955284
0
LINE
8
BLACK
6
CONTINUOUS
10
0.179716
20
0.955284
11
0.180993
21
0.956137
0
LINE
8
BLACK
6
CONTINUOUS
10
0.180993
20
0.956137
11
0.1825
21
0.956437
0
LINE
8
BLACK
6
CONTINUOUS
10
0.1825
20
0.956437
11
0.2175
21
0.956437
0
LINE
8
BLACK
6
CONTINUOUS
10
0.2175
20
0.956437
11
0.219007
21
0.956137
0
LINE
8
BLACK
6
CONTINUOUS
10
0.294007
20
0.956137
11
0.295284
21
0.955284
0
LINE
8
BLACK
6
CONTINUOUS
10
0.295284
20
0.955284
11
0.296137
21
0.954007
0
LINE
8
BLACK
6
CONTINUOUS
10
0.296137
20
0.954007
11
0.296437
21
0.9525
0
LINE
8
BLACK
6
CONTINUOUS
10
0.296437
20
0.9525
11
0.296437
21
0.8975
0
LINE
8
BLACK
6
CONTINUOUS
10
0.296437
20
0.8975
11
0.296137
21
0.895993
0
LINE
8
BLACK
6
CONTINUOUS
10
0.296137
20
0.895993
11
0.295284
21
0.894716
0
LINE
8
BLACK
6
CONTINUOUS
10
0.295284
20
0.894716
11
0.294007
21
0.893863
0
LINE
8
BLACK
6
CONTINUOUS
10
0.294007
20
0.893863
11
0.2925
21
0.893563
0
LINE
8
BLACK
6
CONTINUOUS
10
0.2925
20
0.893563
11
0.2575
21
0.893563
0
LINE
8
BLACK
6
CONTINUOUS
10
0.2575
20
0.893563
11
0.255993
21
0.893863
0
LINE
8
BLACK
6
CONTINUOUS
10
0.255993
20
0.893863
11
0.254716
21
0.894716
0
LINE
8
BLACK
6
CONTINUOUS
10
0.254716
20
0.894716
11
0.253863
21
0.895993
0
LINE
8
BLACK
6
CONTINUOUS
10
0.253863
20
0.895993
11
0.253563
21
0.8975
0
LINE
8
BLACK
6
CONTINUOUS
10
0.253563
20
0.8975
11
0.253563
21
0.9525
0
LINE
8
BLACK
6
CONTINUOUS
10
0.253563
20
0.9525
11
0.253863
21
0.954007
0
LINE
8
BLACK
6
CONTINUOUS
10
0.253863
20
0.954007
11
0.254716
21
0.955284
0
LINE
8
BLACK
6
CONTINUOUS
10
0.254716
20
0.955284
11
0.255993
21
0.956137
0
LINE
8
BLACK
6
CONTINUOUS
10
0.255993
20
0.956137
11
0.2575
21
0.956437
0
LINE
8
BLACK
6
CONTINUOUS
10
0.2575
20
0.956437
11
0.2925
21
0.956437
0
LINE
8
BLACK
6
CONTINUOUS
10
0.2925
20
0.956437
11
0.294007
21
0.956137
  0
ENDSEC
  0
EOF
