  0
SECTION
  2
HEADER
  9
$ANGBASE
  50
0.0
  9
$ANGDIR
  70
1
  9
$MEASUREMENT
  70
0
  0
ENDSEC
  0
SECTION
  2
TABLES
  0
TABLE
  2
LTYPE
  70
4
  0
LTYPE
  5
40F
  2
CONTINUOUS
  70
0
  3
Solid line
  72
65
  73
0
  40
0.0
  0
LTYPE
  5
410
  2
DASHDOT
 70
0
  3
Dash Dot ____ _ ____ _
 72
65
 73
4
 40
2.0
 49
1.25
 49
-0.25
 49
0.25
 49
-0.25
  0
LTYPE
  5
411
  2
DASHED
 70
0
  3
Dashed __ __ __ __ __
 72
65
 73
2
 40
0.75
 49
0.5
 49
-0.25
  0
LTYPE
  5
43B
  2
DOTTED
 70
0
  3
Dotted .  .  .  .
 72
65
 73
2
 40
0.2
 49
0.0
 49
-0.2
  0
ENDTAB
  0
TABLE
  2
STYLE
  70
4
  0
STYLE
  2
KICAD
  70
0
  40
0
  41
1
  42
1
  50
0
  71
0
  3
isocp.shx
  0
STYLE
  2
KICADB
  70
0
  40
0
  41
1
  42
1
  50
0
  71
0
  3
isocp.shx
  0
STYLE
  2
KICADI
  70
0
  40
0
  41
1
  42
1
  50
15
  71
0
  3
isocp.shx
  0
STYLE
  2
KICADBI
  70
0
  40
0
  41
1
  42
1
  50
15
  71
0
  3
isocp.shx
  0
ENDTAB
  0
TABLE
  2
LAYER
  70
1
  0
LAYER
  2
BLACK
  70
0
  62
7
  6
CONTINUOUS
  0
ENDTAB
  0
ENDSEC
  0
SECTION
  2
ENTITIES
0
LINE
8
BLACK
6
CONTINUOUS
10
0.700384
20
0.102885
11
0.700513
21
0.102908
0
LINE
8
BLACK
6
CONTINUOUS
10
0.700513
20
0.102908
11
0.700626
21
0.102842
0
LINE
8
BLACK
6
CONTINUOUS
10
0.700626
20
0.102842
11
0.70101
21
0.102775
0
LINE
8
BLACK
6
CONTINUOUS
10
0.70101
20
0.102775
11
0.701598
21
0.102282
0
LINE
8
BLACK
6
CONTINUOUS
10
0.701598
20
0.102282
11
0.702262
21
0.101898
0
LINE
8
BLACK
6
CONTINUOUS
10
0.702262
20
0.101898
11
0.702353
21
0.101648
0
LINE
8
BLACK
6
CONTINUOUS
10
0.702353
20
0.101648
11
0.702557
21
0.101476
0
LINE
8
BLACK
6
CONTINUOUS
10
0.702557
20
0.101476
11
0.70269
21
0.100721
0
LINE
8
BLACK
6
CONTINUOUS
10
0.70269
20
0.100721
11
0.702953
21
0.1
0
LINE
8
BLACK
6
CONTINUOUS
10
0.702953
20
0.1
11
0.702953
21
-0.1
0
LINE
8
BLACK
6
CONTINUOUS
10
0.702953
20
-0.1
11
0.702885
21
-0.100384
0
LINE
8
BLACK
6
CONTINUOUS
10
0.702885
20
-0.100384
11
0.702908
21
-0.100513
0
LINE
8
BLACK
6
CONTINUOUS
10
0.702908
20
-0.100513
11
0.702842
21
-0.100626
0
LINE
8
BLACK
6
CONTINUOUS
10
0.702842
20
-0.100626
11
0.702775
21
-0.10101
0
LINE
8
BLACK
6
CONTINUOUS
10
0.702775
20
-0.10101
11
0.702282
21
-0.101598
0
LINE
8
BLACK
6
CONTINUOUS
10
0.702282
20
-0.101598
11
0.701898
21
-0.102262
0
LINE
8
BLACK
6
CONTINUOUS
10
0.701898
20
-0.102262
11
0.701648
21
-0.102353
0
LINE
8
BLACK
6
CONTINUOUS
10
0.701648
20
-0.102353
11
0.701476
21
-0.102557
0
LINE
8
BLACK
6
CONTINUOUS
10
0.701476
20
-0.102557
11
0.700721
21
-0.10269
0
LINE
8
BLACK
6
CONTINUOUS
10
0.700721
20
-0.10269
11
0.7
21
-0.102953
0
LINE
8
BLACK
6
CONTINUOUS
10
0.7
20
-0.102953
11
0.4
21
-0.102953
0
LINE
8
BLACK
6
CONTINUOUS
10
0.4
20
-0.102953
11
0.399616
21
-0.102885
0
LINE
8
BLACK
6
CONTINUOUS
10
0.399616
20
-0.102885
11
0.399487
21
-0.102908
0
LINE
8
BLACK
6
CONTINUOUS
10
0.399487
20
-0.102908
11
0.399374
21
-0.102842
0
LINE
8
BLACK
6
CONTINUOUS
10
0.399374
20
-0.102842
11
0.39899
21
-0.102775
0
LINE
8
BLACK
6
CONTINUOUS
10
0.39899
20
-0.102775
11
0.398402
21
-0.102282
0
LINE
8
BLACK
6
CONTINUOUS
10
0.398402
20
-0.102282
11
0.397738
21
-0.101898
0
LINE
8
BLACK
6
CONTINUOUS
10
0.397738
20
-0.101898
11
0.397647
21
-0.101648
0
LINE
8
BLACK
6
CONTINUOUS
10
0.397647
20
-0.101648
11
0.397443
21
-0.101476
0
LINE
8
BLACK
6
CONTINUOUS
10
0.397443
20
-0.101476
11
0.39731
21
-0.100721
0
LINE
8
BLACK
6
CONTINUOUS
10
0.39731
20
-0.100721
11
0.397047
21
-0.1
0
LINE
8
BLACK
6
CONTINUOUS
10
0.397047
20
-0.1
11
0.397047
21
0.1
0
LINE
8
BLACK
6
CONTINUOUS
10
0.397047
20
0.1
11
0.397115
21
0.100384
0
LINE
8
BLACK
6
CONTINUOUS
10
0.397115
20
0.100384
11
0.397092
21
0.100513
0
LINE
8
BLACK
6
CONTINUOUS
10
0.397092
20
0.100513
11
0.397158
21
0.100626
0
LINE
8
BLACK
6
CONTINUOUS
10
0.397158
20
0.100626
11
0.397225
21
0.10101
0
LINE
8
BLACK
6
CONTINUOUS
10
0.397225
20
0.10101
11
0.397718
21
0.101598
0
LINE
8
BLACK
6
CONTINUOUS
10
0.397718
20
0.101598
11
0.398102
21
0.102262
0
LINE
8
BLACK
6
CONTINUOUS
10
0.398102
20
0.102262
11
0.398352
21
0.102353
0
LINE
8
BLACK
6
CONTINUOUS
10
0.398352
20
0.102353
11
0.398524
21
0.102557
0
LINE
8
BLACK
6
CONTINUOUS
10
0.398524
20
0.102557
11
0.399279
21
0.10269
0
LINE
8
BLACK
6
CONTINUOUS
10
0.399279
20
0.10269
11
0.4
21
0.102953
0
LINE
8
BLACK
6
CONTINUOUS
10
0.4
20
0.102953
11
0.7
21
0.102953
0
LINE
8
BLACK
6
CONTINUOUS
10
0.7
20
0.102953
11
0.700384
21
0.102885
0
LINE
8
BLACK
6
CONTINUOUS
10
0.402953
20
0.0970472
11
0.402953
21
-0.0970472
0
LINE
8
BLACK
6
CONTINUOUS
10
0.402953
20
-0.0970472
11
0.697047
21
-0.0970472
0
LINE
8
BLACK
6
CONTINUOUS
10
0.697047
20
-0.0970472
11
0.697047
21
0.0970472
0
LINE
8
BLACK
6
CONTINUOUS
10
0.697047
20
0.0970472
11
0.402953
21
0.0970472
0
LINE
8
BLACK
6
CONTINUOUS
10
1.05038
20
0.102885
11
1.05051
21
0.102908
0
LINE
8
BLACK
6
CONTINUOUS
10
1.05051
20
0.102908
11
1.05063
21
0.102842
0
LINE
8
BLACK
6
CONTINUOUS
10
1.05063
20
0.102842
11
1.05101
21
0.102775
0
LINE
8
BLACK
6
CONTINUOUS
10
1.05101
20
0.102775
11
1.0516
21
0.102282
0
LINE
8
BLACK
6
CONTINUOUS
10
1.0516
20
0.102282
11
1.05226
21
0.101898
0
LINE
8
BLACK
6
CONTINUOUS
10
1.05226
20
0.101898
11
1.05235
21
0.101648
0
LINE
8
BLACK
6
CONTINUOUS
10
1.05235
20
0.101648
11
1.05256
21
0.101476
0
LINE
8
BLACK
6
CONTINUOUS
10
1.05256
20
0.101476
11
1.05269
21
0.100721
0
LINE
8
BLACK
6
CONTINUOUS
10
1.05269
20
0.100721
11
1.05295
21
0.1
0
LINE
8
BLACK
6
CONTINUOUS
10
1.05295
20
0.1
11
1.05295
21
-0.1
0
LINE
8
BLACK
6
CONTINUOUS
10
1.05295
20
-0.1
11
1.05289
21
-0.100384
0
LINE
8
BLACK
6
CONTINUOUS
10
1.05289
20
-0.100384
11
1.05291
21
-0.100513
0
LINE
8
BLACK
6
CONTINUOUS
10
1.05291
20
-0.100513
11
1.05284
21
-0.100626
0
LINE
8
BLACK
6
CONTINUOUS
10
1.05284
20
-0.100626
11
1.05277
21
-0.10101
0
LINE
8
BLACK
6
CONTINUOUS
10
1.05277
20
-0.10101
11
1.05228
21
-0.101598
0
LINE
8
BLACK
6
CONTINUOUS
10
1.05228
20
-0.101598
11
1.0519
21
-0.102262
0
LINE
8
BLACK
6
CONTINUOUS
10
1.0519
20
-0.102262
11
1.05165
21
-0.102353
0
LINE
8
BLACK
6
CONTINUOUS
10
1.05165
20
-0.102353
11
1.05148
21
-0.102557
0
LINE
8
BLACK
6
CONTINUOUS
10
1.05148
20
-0.102557
11
1.05072
21
-0.10269
0
LINE
8
BLACK
6
CONTINUOUS
10
1.05072
20
-0.10269
11
1.05
21
-0.102953
0
LINE
8
BLACK
6
CONTINUOUS
10
1.05
20
-0.102953
11
0.75
21
-0.102953
0
LINE
8
BLACK
6
CONTINUOUS
10
0.75
20
-0.102953
11
0.749616
21
-0.102885
0
LINE
8
BLACK
6
CONTINUOUS
10
0.749616
20
-0.102885
11
0.749487
21
-0.102908
0
LINE
8
BLACK
6
CONTINUOUS
10
0.749487
20
-0.102908
11
0.749374
21
-0.102842
0
LINE
8
BLACK
6
CONTINUOUS
10
0.749374
20
-0.102842
11
0.74899
21
-0.102775
0
LINE
8
BLACK
6
CONTINUOUS
10
0.74899
20
-0.102775
11
0.748402
21
-0.102282
0
LINE
8
BLACK
6
CONTINUOUS
10
0.748402
20
-0.102282
11
0.747738
21
-0.101898
0
LINE
8
BLACK
6
CONTINUOUS
10
0.747738
20
-0.101898
11
0.747647
21
-0.101648
0
LINE
8
BLACK
6
CONTINUOUS
10
0.747647
20
-0.101648
11
0.747443
21
-0.101476
0
LINE
8
BLACK
6
CONTINUOUS
10
0.747443
20
-0.101476
11
0.74731
21
-0.100721
0
LINE
8
BLACK
6
CONTINUOUS
10
0.74731
20
-0.100721
11
0.747047
21
-0.1
0
LINE
8
BLACK
6
CONTINUOUS
10
0.747047
20
-0.1
11
0.747047
21
0.1
0
LINE
8
BLACK
6
CONTINUOUS
10
0.747047
20
0.1
11
0.747115
21
0.100384
0
LINE
8
BLACK
6
CONTINUOUS
10
0.747115
20
0.100384
11
0.747092
21
0.100513
0
LINE
8
BLACK
6
CONTINUOUS
10
0.747092
20
0.100513
11
0.747158
21
0.100626
0
LINE
8
BLACK
6
CONTINUOUS
10
0.747158
20
0.100626
11
0.747225
21
0.10101
0
LINE
8
BLACK
6
CONTINUOUS
10
0.747225
20
0.10101
11
0.747718
21
0.101598
0
LINE
8
BLACK
6
CONTINUOUS
10
0.747718
20
0.101598
11
0.748102
21
0.102262
0
LINE
8
BLACK
6
CONTINUOUS
10
0.748102
20
0.102262
11
0.748352
21
0.102353
0
LINE
8
BLACK
6
CONTINUOUS
10
0.748352
20
0.102353
11
0.748524
21
0.102557
0
LINE
8
BLACK
6
CONTINUOUS
10
0.748524
20
0.102557
11
0.749279
21
0.10269
0
LINE
8
BLACK
6
CONTINUOUS
10
0.749279
20
0.10269
11
0.75
21
0.102953
0
LINE
8
BLACK
6
CONTINUOUS
10
0.75
20
0.102953
11
1.05
21
0.102953
0
LINE
8
BLACK
6
CONTINUOUS
10
1.05
20
0.102953
11
1.05038
21
0.102885
0
LINE
8
BLACK
6
CONTINUOUS
10
0.752953
20
0.0970472
11
0.752953
21
-0.0970472
0
LINE
8
BLACK
6
CONTINUOUS
10
0.752953
20
-0.0970472
11
1.04705
21
-0.0970472
0
LINE
8
BLACK
6
CONTINUOUS
10
1.04705
20
-0.0970472
11
1.04705
21
0.0970472
0
LINE
8
BLACK
6
CONTINUOUS
10
1.04705
20
0.0970472
11
0.752953
21
0.0970472
0
LINE
8
BLACK
6
CONTINUOUS
10
0.321951
20
0.0254578
11
0.322642
21
0.0235598
0
LINE
8
BLACK
6
CONTINUOUS
10
0.322642
20
0.0235598
11
0.322642
21
0.00819122
0
LINE
8
BLACK
6
CONTINUOUS
10
0.322642
20
0.00819122
11
0.340098
21
0.0256478
0
LINE
8
BLACK
6
CONTINUOUS
10
0.340098
20
0.0256478
11
0.340938
21
0.0262359
0
LINE
8
BLACK
6
CONTINUOUS
10
0.340938
20
0.0262359
11
0.34295
21
0.026412
0
LINE
8
BLACK
6
CONTINUOUS
10
0.34295
20
0.026412
11
0.344605
21
0.0252535
0
LINE
8
BLACK
6
CONTINUOUS
10
0.344605
20
0.0252535
11
0.345127
21
0.0233025
0
LINE
8
BLACK
6
CONTINUOUS
10
0.345127
20
0.0233025
11
0.344274
21
0.0214719
0
LINE
8
BLACK
6
CONTINUOUS
10
0.344274
20
0.0214719
11
0.329212
21
0.00640984
0
LINE
8
BLACK
6
CONTINUOUS
10
0.329212
20
0.00640984
11
0.344548
21
-0.0140386
0
LINE
8
BLACK
6
CONTINUOUS
10
0.344548
20
-0.0140386
11
0.345012
21
-0.0149533
0
LINE
8
BLACK
6
CONTINUOUS
10
0.345012
20
-0.0149533
11
0.344901
21
-0.0169702
0
LINE
8
BLACK
6
CONTINUOUS
10
0.344901
20
-0.0169702
11
0.34352
21
-0.0184442
0
LINE
8
BLACK
6
CONTINUOUS
10
0.34352
20
-0.0184442
11
0.341515
21
-0.0186858
0
LINE
8
BLACK
6
CONTINUOUS
10
0.341515
20
-0.0186858
11
0.339824
21
-0.0175819
0
LINE
8
BLACK
6
CONTINUOUS
10
0.339824
20
-0.0175819
11
0.324994
21
0.00219165
0
LINE
8
BLACK
6
CONTINUOUS
10
0.324994
20
0.00219165
11
0.322642
21
-0.000160433
0
LINE
8
BLACK
6
CONTINUOUS
10
0.322642
20
-0.000160433
11
0.322642
21
-0.0158102
0
LINE
8
BLACK
6
CONTINUOUS
10
0.322642
20
-0.0158102
11
0.322463
21
-0.0168202
0
LINE
8
BLACK
6
CONTINUOUS
10
0.322463
20
-0.0168202
11
0.321165
21
-0.0183674
0
LINE
8
BLACK
6
CONTINUOUS
10
0.321165
20
-0.0183674
11
0.319176
21
-0.0187181
0
LINE
8
BLACK
6
CONTINUOUS
10
0.319176
20
-0.0187181
11
0.317427
21
-0.0177082
0
LINE
8
BLACK
6
CONTINUOUS
10
0.317427
20
-0.0177082
11
0.316736
21
-0.0158102
0
LINE
8
BLACK
6
CONTINUOUS
10
0.316736
20
-0.0158102
11
0.316736
21
0.0235598
0
LINE
8
BLACK
6
CONTINUOUS
10
0.316736
20
0.0235598
11
0.316914
21
0.0245698
0
LINE
8
BLACK
6
CONTINUOUS
10
0.316914
20
0.0245698
11
0.318212
21
0.026117
0
LINE
8
BLACK
6
CONTINUOUS
10
0.318212
20
0.026117
11
0.320202
21
0.0264678
0
LINE
8
BLACK
6
CONTINUOUS
10
0.320202
20
0.0264678
11
0.321951
21
0.0254578
0
LINE
8
BLACK
6
CONTINUOUS
10
1.30289
20
0.149616
11
1.30291
21
0.149487
0
LINE
8
BLACK
6
CONTINUOUS
10
1.30291
20
0.149487
11
1.30284
21
0.149374
0
LINE
8
BLACK
6
CONTINUOUS
10
1.30284
20
0.149374
11
1.30277
21
0.14899
0
LINE
8
BLACK
6
CONTINUOUS
10
1.30277
20
0.14899
11
1.30228
21
0.148402
0
LINE
8
BLACK
6
CONTINUOUS
10
1.30228
20
0.148402
11
1.3019
21
0.147738
0
LINE
8
BLACK
6
CONTINUOUS
10
1.3019
20
0.147738
11
1.30165
21
0.147647
0
LINE
8
BLACK
6
CONTINUOUS
10
1.30165
20
0.147647
11
1.30148
21
0.147443
0
LINE
8
BLACK
6
CONTINUOUS
10
1.30148
20
0.147443
11
1.30072
21
0.14731
0
LINE
8
BLACK
6
CONTINUOUS
10
1.30072
20
0.14731
11
1.3
21
0.147047
0
LINE
8
BLACK
6
CONTINUOUS
10
1.3
20
0.147047
11
1.1
21
0.147047
0
LINE
8
BLACK
6
CONTINUOUS
10
1.1
20
0.147047
11
1.09962
21
0.147115
0
LINE
8
BLACK
6
CONTINUOUS
10
1.09962
20
0.147115
11
1.09949
21
0.147092
0
LINE
8
BLACK
6
CONTINUOUS
10
1.09949
20
0.147092
11
1.09937
21
0.147158
0
LINE
8
BLACK
6
CONTINUOUS
10
1.09937
20
0.147158
11
1.09899
21
0.147225
0
LINE
8
BLACK
6
CONTINUOUS
10
1.09899
20
0.147225
11
1.0984
21
0.147718
0
LINE
8
BLACK
6
CONTINUOUS
10
1.0984
20
0.147718
11
1.09774
21
0.148102
0
LINE
8
BLACK
6
CONTINUOUS
10
1.09774
20
0.148102
11
1.09765
21
0.148352
0
LINE
8
BLACK
6
CONTINUOUS
10
1.09765
20
0.148352
11
1.09744
21
0.148524
0
LINE
8
BLACK
6
CONTINUOUS
10
1.09744
20
0.148524
11
1.09731
21
0.149279
0
LINE
8
BLACK
6
CONTINUOUS
10
1.09731
20
0.149279
11
1.09705
21
0.15
0
LINE
8
BLACK
6
CONTINUOUS
10
1.09705
20
0.15
11
1.09705
21
0.65
0
LINE
8
BLACK
6
CONTINUOUS
10
1.09705
20
0.65
11
1.09711
21
0.650384
0
LINE
8
BLACK
6
CONTINUOUS
10
1.09711
20
0.650384
11
1.09709
21
0.650513
0
LINE
8
BLACK
6
CONTINUOUS
10
1.09709
20
0.650513
11
1.09716
21
0.650626
0
LINE
8
BLACK
6
CONTINUOUS
10
1.09716
20
0.650626
11
1.09723
21
0.65101
0
LINE
8
BLACK
6
CONTINUOUS
10
1.09723
20
0.65101
11
1.09772
21
0.651598
0
LINE
8
BLACK
6
CONTINUOUS
10
1.09772
20
0.651598
11
1.0981
21
0.652262
0
LINE
8
BLACK
6
CONTINUOUS
10
1.0981
20
0.652262
11
1.09835
21
0.652353
0
LINE
8
BLACK
6
CONTINUOUS
10
1.09835
20
0.652353
11
1.09852
21
0.652557
0
LINE
8
BLACK
6
CONTINUOUS
10
1.09852
20
0.652557
11
1.09928
21
0.65269
0
LINE
8
BLACK
6
CONTINUOUS
10
1.09928
20
0.65269
11
1.1
21
0.652953
0
LINE
8
BLACK
6
CONTINUOUS
10
1.1
20
0.652953
11
1.3
21
0.652953
0
LINE
8
BLACK
6
CONTINUOUS
10
1.3
20
0.652953
11
1.30038
21
0.652885
0
LINE
8
BLACK
6
CONTINUOUS
10
1.30038
20
0.652885
11
1.30051
21
0.652908
0
LINE
8
BLACK
6
CONTINUOUS
10
1.30051
20
0.652908
11
1.30063
21
0.652842
0
LINE
8
BLACK
6
CONTINUOUS
10
1.30063
20
0.652842
11
1.30101
21
0.652775
0
LINE
8
BLACK
6
CONTINUOUS
10
1.30101
20
0.652775
11
1.3016
21
0.652282
0
LINE
8
BLACK
6
CONTINUOUS
10
1.3016
20
0.652282
11
1.30226
21
0.651898
0
LINE
8
BLACK
6
CONTINUOUS
10
1.30226
20
0.651898
11
1.30235
21
0.651648
0
LINE
8
BLACK
6
CONTINUOUS
10
1.30235
20
0.651648
11
1.30256
21
0.651476
0
LINE
8
BLACK
6
CONTINUOUS
10
1.30256
20
0.651476
11
1.30269
21
0.650721
0
LINE
8
BLACK
6
CONTINUOUS
10
1.30269
20
0.650721
11
1.30295
21
0.65
0
LINE
8
BLACK
6
CONTINUOUS
10
1.30295
20
0.65
11
1.30295
21
0.15
0
LINE
8
BLACK
6
CONTINUOUS
10
1.30295
20
0.15
11
1.30289
21
0.149616
0
LINE
8
BLACK
6
CONTINUOUS
10
1.10295
20
0.247047
11
1.10295
21
0.152953
0
LINE
8
BLACK
6
CONTINUOUS
10
1.10295
20
0.152953
11
1.29705
21
0.152953
0
LINE
8
BLACK
6
CONTINUOUS
10
1.29705
20
0.152953
11
1.29705
21
0.247047
0
LINE
8
BLACK
6
CONTINUOUS
10
1.29705
20
0.247047
11
1.10295
21
0.247047
0
LINE
8
BLACK
6
CONTINUOUS
10
1.10295
20
0.347047
11
1.10295
21
0.252953
0
LINE
8
BLACK
6
CONTINUOUS
10
1.10295
20
0.252953
11
1.29705
21
0.252953
0
LINE
8
BLACK
6
CONTINUOUS
10
1.29705
20
0.252953
11
1.29705
21
0.347047
0
LINE
8
BLACK
6
CONTINUOUS
10
1.29705
20
0.347047
11
1.10295
21
0.347047
0
LINE
8
BLACK
6
CONTINUOUS
10
1.10295
20
0.447047
11
1.10295
21
0.352953
0
LINE
8
BLACK
6
CONTINUOUS
10
1.10295
20
0.352953
11
1.29705
21
0.352953
0
LINE
8
BLACK
6
CONTINUOUS
10
1.29705
20
0.352953
11
1.29705
21
0.447047
0
LINE
8
BLACK
6
CONTINUOUS
10
1.29705
20
0.447047
11
1.10295
21
0.447047
0
LINE
8
BLACK
6
CONTINUOUS
10
1.10295
20
0.547047
11
1.10295
21
0.452953
0
LINE
8
BLACK
6
CONTINUOUS
10
1.10295
20
0.452953
11
1.29705
21
0.452953
0
LINE
8
BLACK
6
CONTINUOUS
10
1.29705
20
0.452953
11
1.29705
21
0.547047
0
LINE
8
BLACK
6
CONTINUOUS
10
1.29705
20
0.547047
11
1.10295
21
0.547047
0
LINE
8
BLACK
6
CONTINUOUS
10
1.10295
20
0.647047
11
1.10295
21
0.552953
0
LINE
8
BLACK
6
CONTINUOUS
10
1.10295
20
0.552953
11
1.29705
21
0.552953
0
LINE
8
BLACK
6
CONTINUOUS
10
1.29705
20
0.552953
11
1.29705
21
0.647047
0
LINE
8
BLACK
6
CONTINUOUS
10
1.29705
20
0.647047
11
1.10295
21
0.647047
0
LINE
8
BLACK
6
CONTINUOUS
10
-0.182337
20
0.154632
11
-0.182913
21
0.156024
0
LINE
8
BLACK
6
CONTINUOUS
10
-0.182913
20
0.156024
11
-0.182913
21
0.632402
0
LINE
8
BLACK
6
CONTINUOUS
10
-0.182913
20
0.632402
11
-0.182337
21
0.633794
0
LINE
8
BLACK
6
CONTINUOUS
10
-0.182337
20
0.633794
11
-0.180945
21
0.63437
0
LINE
8
BLACK
6
CONTINUOUS
10
-0.180945
20
0.63437
11
0.468661
21
0.63437
0
LINE
8
BLACK
6
CONTINUOUS
10
0.468661
20
0.63437
11
0.470053
21
0.633794
0
LINE
8
BLACK
6
CONTINUOUS
10
0.470053
20
0.633794
11
0.47063
21
0.632402
0
LINE
8
BLACK
6
CONTINUOUS
10
0.47063
20
0.632402
11
0.47063
21
0.195394
0
LINE
8
BLACK
6
CONTINUOUS
10
0.47063
20
0.195394
11
0.470053
21
0.194002
0
LINE
8
BLACK
6
CONTINUOUS
10
0.470053
20
0.194002
11
0.430683
21
0.154632
0
LINE
8
BLACK
6
CONTINUOUS
10
0.430683
20
0.154632
11
0.429291
21
0.154055
0
LINE
8
BLACK
6
CONTINUOUS
10
0.429291
20
0.154055
11
-0.180945
21
0.154055
0
LINE
8
BLACK
6
CONTINUOUS
10
-0.180945
20
0.154055
11
-0.182337
21
0.154632
0
LINE
8
BLACK
6
CONTINUOUS
10
-0.178976
20
0.630433
11
-0.178976
21
0.157992
0
LINE
8
BLACK
6
CONTINUOUS
10
-0.178976
20
0.157992
11
0.428476
21
0.157992
0
LINE
8
BLACK
6
CONTINUOUS
10
0.428476
20
0.157992
11
0.466693
21
0.196209
0
LINE
8
BLACK
6
CONTINUOUS
10
0.466693
20
0.196209
11
0.466693
21
0.630433
0
LINE
8
BLACK
6
CONTINUOUS
10
0.466693
20
0.630433
11
-0.178976
21
0.630433
0
LINE
8
BLACK
6
CONTINUOUS
10
0.159202
20
0.418651
11
0.159369
21
0.41868
0
LINE
8
BLACK
6
CONTINUOUS
10
0.159369
20
0.41868
11
0.160111
21
0.418252
0
LINE
8
BLACK
6
CONTINUOUS
10
0.160111
20
0.418252
11
0.160896
21
0.417908
0
LINE
8
BLACK
6
CONTINUOUS
10
0.160896
20
0.417908
11
0.160971
21
0.417755
0
LINE
8
BLACK
6
CONTINUOUS
10
0.160971
20
0.417755
11
0.161118
21
0.41767
0
LINE
8
BLACK
6
CONTINUOUS
10
0.161118
20
0.41767
11
0.161411
21
0.416865
0
LINE
8
BLACK
6
CONTINUOUS
10
0.161411
20
0.416865
11
0.161791
21
0.416097
0
LINE
8
BLACK
6
CONTINUOUS
10
0.161791
20
0.416097
11
0.161751
21
0.415932
0
LINE
8
BLACK
6
CONTINUOUS
10
0.161751
20
0.415932
11
0.161809
21
0.415772
0
LINE
8
BLACK
6
CONTINUOUS
10
0.161809
20
0.415772
11
0.161809
21
0.379355
0
LINE
8
BLACK
6
CONTINUOUS
10
0.161809
20
0.379355
11
0.170105
21
0.379355
0
LINE
8
BLACK
6
CONTINUOUS
10
0.170105
20
0.379355
11
0.171115
21
0.379177
0
LINE
8
BLACK
6
CONTINUOUS
10
0.171115
20
0.379177
11
0.172662
21
0.377879
0
LINE
8
BLACK
6
CONTINUOUS
10
0.172662
20
0.377879
11
0.173013
21
0.37589
0
LINE
8
BLACK
6
CONTINUOUS
10
0.173013
20
0.37589
11
0.172003
21
0.37414
0
LINE
8
BLACK
6
CONTINUOUS
10
0.172003
20
0.37414
11
0.170105
21
0.37345
0
LINE
8
BLACK
6
CONTINUOUS
10
0.170105
20
0.37345
11
0.147608
21
0.37345
0
LINE
8
BLACK
6
CONTINUOUS
10
0.147608
20
0.37345
11
0.146598
21
0.373628
0
LINE
8
BLACK
6
CONTINUOUS
10
0.146598
20
0.373628
11
0.145051
21
0.374926
0
LINE
8
BLACK
6
CONTINUOUS
10
0.145051
20
0.374926
11
0.1447
21
0.376915
0
LINE
8
BLACK
6
CONTINUOUS
10
0.1447
20
0.376915
11
0.14571
21
0.378664
0
LINE
8
BLACK
6
CONTINUOUS
10
0.14571
20
0.378664
11
0.147608
21
0.379355
0
LINE
8
BLACK
6
CONTINUOUS
10
0.147608
20
0.379355
11
0.155904
21
0.379355
0
LINE
8
BLACK
6
CONTINUOUS
10
0.155904
20
0.379355
11
0.155904
21
0.406769
0
LINE
8
BLACK
6
CONTINUOUS
10
0.155904
20
0.406769
11
0.153445
21
0.404311
0
LINE
8
BLACK
6
CONTINUOUS
10
0.153445
20
0.404311
11
0.152722
21
0.403804
0
LINE
8
BLACK
6
CONTINUOUS
10
0.152722
20
0.403804
11
0.152678
21
0.403758
0
LINE
8
BLACK
6
CONTINUOUS
10
0.152678
20
0.403758
11
0.148928
21
0.401883
0
LINE
8
BLACK
6
CONTINUOUS
10
0.148928
20
0.401883
11
0.147945
21
0.40159
0
LINE
8
BLACK
6
CONTINUOUS
10
0.147945
20
0.40159
11
0.145981
21
0.40206
0
LINE
8
BLACK
6
CONTINUOUS
10
0.145981
20
0.40206
11
0.144778
21
0.403682
0
LINE
8
BLACK
6
CONTINUOUS
10
0.144778
20
0.403682
11
0.144899
21
0.405698
0
LINE
8
BLACK
6
CONTINUOUS
10
0.144899
20
0.405698
11
0.146287
21
0.407165
0
LINE
8
BLACK
6
CONTINUOUS
10
0.146287
20
0.407165
11
0.149608
21
0.408825
0
LINE
8
BLACK
6
CONTINUOUS
10
0.149608
20
0.408825
11
0.152812
21
0.412029
0
LINE
8
BLACK
6
CONTINUOUS
10
0.152812
20
0.412029
11
0.1564
21
0.41741
0
LINE
8
BLACK
6
CONTINUOUS
10
0.1564
20
0.41741
11
0.157108
21
0.418152
0
LINE
8
BLACK
6
CONTINUOUS
10
0.157108
20
0.418152
11
0.157271
21
0.4182
0
LINE
8
BLACK
6
CONTINUOUS
10
0.157271
20
0.4182
11
0.15738
21
0.41833
0
LINE
8
BLACK
6
CONTINUOUS
10
0.15738
20
0.41833
11
0.158224
21
0.418478
0
LINE
8
BLACK
6
CONTINUOUS
10
0.158224
20
0.418478
11
0.159046
21
0.418719
0
LINE
8
BLACK
6
CONTINUOUS
10
0.159046
20
0.418719
11
0.159202
21
0.418651
0
LINE
8
BLACK
6
CONTINUOUS
10
0.132997
20
0.41767
11
0.133688
21
0.415772
0
LINE
8
BLACK
6
CONTINUOUS
10
0.133688
20
0.415772
11
0.133688
21
0.387651
0
LINE
8
BLACK
6
CONTINUOUS
10
0.133688
20
0.387651
11
0.133534
21
0.386782
0
LINE
8
BLACK
6
CONTINUOUS
10
0.133534
20
0.386782
11
0.133536
21
0.386717
0
LINE
8
BLACK
6
CONTINUOUS
10
0.133536
20
0.386717
11
0.131661
21
0.381093
0
LINE
8
BLACK
6
CONTINUOUS
10
0.131661
20
0.381093
11
0.131173
21
0.380191
0
LINE
8
BLACK
6
CONTINUOUS
10
0.131173
20
0.380191
11
0.131023
21
0.380099
0
LINE
8
BLACK
6
CONTINUOUS
10
0.131023
20
0.380099
11
0.130948
21
0.379939
0
LINE
8
BLACK
6
CONTINUOUS
10
0.130948
20
0.379939
11
0.127199
21
0.376189
0
LINE
8
BLACK
6
CONTINUOUS
10
0.127199
20
0.376189
11
0.126358
21
0.375601
0
LINE
8
BLACK
6
CONTINUOUS
10
0.126358
20
0.375601
11
0.126183
21
0.375586
0
LINE
8
BLACK
6
CONTINUOUS
10
0.126183
20
0.375586
11
0.126044
21
0.375476
0
LINE
8
BLACK
6
CONTINUOUS
10
0.126044
20
0.375476
11
0.12042
21
0.373601
0
LINE
8
BLACK
6
CONTINUOUS
10
0.12042
20
0.373601
11
0.119547
21
0.373472
0
LINE
8
BLACK
6
CONTINUOUS
10
0.119547
20
0.373472
11
0.119486
21
0.37345
0
LINE
8
BLACK
6
CONTINUOUS
10
0.119486
20
0.37345
11
0.115737
21
0.37345
0
LINE
8
BLACK
6
CONTINUOUS
10
0.115737
20
0.37345
11
0.114727
21
0.373628
0
LINE
8
BLACK
6
CONTINUOUS
10
0.114727
20
0.373628
11
0.11318
21
0.374926
0
LINE
8
BLACK
6
CONTINUOUS
10
0.11318
20
0.374926
11
0.112829
21
0.376915
0
LINE
8
BLACK
6
CONTINUOUS
10
0.112829
20
0.376915
11
0.113839
21
0.378664
0
LINE
8
BLACK
6
CONTINUOUS
10
0.113839
20
0.378664
11
0.115737
21
0.379355
0
LINE
8
BLACK
6
CONTINUOUS
10
0.115737
20
0.379355
11
0.119007
21
0.379355
0
LINE
8
BLACK
6
CONTINUOUS
10
0.119007
20
0.379355
11
0.123516
21
0.380858
0
LINE
8
BLACK
6
CONTINUOUS
10
0.123516
20
0.380858
11
0.126279
21
0.383622
0
LINE
8
BLACK
6
CONTINUOUS
10
0.126279
20
0.383622
11
0.127782
21
0.38813
0
LINE
8
BLACK
6
CONTINUOUS
10
0.127782
20
0.38813
11
0.127782
21
0.415772
0
LINE
8
BLACK
6
CONTINUOUS
10
0.127782
20
0.415772
11
0.12796
21
0.416782
0
LINE
8
BLACK
6
CONTINUOUS
10
0.12796
20
0.416782
11
0.129259
21
0.41833
0
LINE
8
BLACK
6
CONTINUOUS
10
0.129259
20
0.41833
11
0.131248
21
0.41868
0
LINE
8
BLACK
6
CONTINUOUS
10
0.131248
20
0.41868
11
0.132997
21
0.41767
0
LINE
8
BLACK
6
CONTINUOUS
10
0.349616
20
0.697115
11
0.349487
21
0.697092
0
LINE
8
BLACK
6
CONTINUOUS
10
0.349487
20
0.697092
11
0.349374
21
0.697158
0
LINE
8
BLACK
6
CONTINUOUS
10
0.349374
20
0.697158
11
0.34899
21
0.697225
0
LINE
8
BLACK
6
CONTINUOUS
10
0.34899
20
0.697225
11
0.348402
21
0.697718
0
LINE
8
BLACK
6
CONTINUOUS
10
0.348402
20
0.697718
11
0.347738
21
0.698102
0
LINE
8
BLACK
6
CONTINUOUS
10
0.347738
20
0.698102
11
0.347647
21
0.698352
0
LINE
8
BLACK
6
CONTINUOUS
10
0.347647
20
0.698352
11
0.347443
21
0.698524
0
LINE
8
BLACK
6
CONTINUOUS
10
0.347443
20
0.698524
11
0.34731
21
0.699279
0
LINE
8
BLACK
6
CONTINUOUS
10
0.34731
20
0.699279
11
0.347047
21
0.7
0
LINE
8
BLACK
6
CONTINUOUS
10
0.347047
20
0.7
11
0.347047
21
0.9
0
LINE
8
BLACK
6
CONTINUOUS
10
0.347047
20
0.9
11
0.347115
21
0.900384
0
LINE
8
BLACK
6
CONTINUOUS
10
0.347115
20
0.900384
11
0.347092
21
0.900513
0
LINE
8
BLACK
6
CONTINUOUS
10
0.347092
20
0.900513
11
0.347158
21
0.900626
0
LINE
8
BLACK
6
CONTINUOUS
10
0.347158
20
0.900626
11
0.347225
21
0.90101
0
LINE
8
BLACK
6
CONTINUOUS
10
0.347225
20
0.90101
11
0.347718
21
0.901598
0
LINE
8
BLACK
6
CONTINUOUS
10
0.347718
20
0.901598
11
0.348102
21
0.902262
0
LINE
8
BLACK
6
CONTINUOUS
10
0.348102
20
0.902262
11
0.348352
21
0.902353
0
LINE
8
BLACK
6
CONTINUOUS
10
0.348352
20
0.902353
11
0.348524
21
0.902557
0
LINE
8
BLACK
6
CONTINUOUS
10
0.348524
20
0.902557
11
0.349279
21
0.90269
0
LINE
8
BLACK
6
CONTINUOUS
10
0.349279
20
0.90269
11
0.35
21
0.902953
0
LINE
8
BLACK
6
CONTINUOUS
10
0.35
20
0.902953
11
1.05
21
0.902953
0
LINE
8
BLACK
6
CONTINUOUS
10
1.05
20
0.902953
11
1.05038
21
0.902885
0
LINE
8
BLACK
6
CONTINUOUS
10
1.05038
20
0.902885
11
1.05051
21
0.902908
0
LINE
8
BLACK
6
CONTINUOUS
10
1.05051
20
0.902908
11
1.05063
21
0.902842
0
LINE
8
BLACK
6
CONTINUOUS
10
1.05063
20
0.902842
11
1.05101
21
0.902775
0
LINE
8
BLACK
6
CONTINUOUS
10
1.05101
20
0.902775
11
1.0516
21
0.902282
0
LINE
8
BLACK
6
CONTINUOUS
10
1.0516
20
0.902282
11
1.05226
21
0.901898
0
LINE
8
BLACK
6
CONTINUOUS
10
1.05226
20
0.901898
11
1.05235
21
0.901648
0
LINE
8
BLACK
6
CONTINUOUS
10
1.05235
20
0.901648
11
1.05256
21
0.901476
0
LINE
8
BLACK
6
CONTINUOUS
10
1.05256
20
0.901476
11
1.05269
21
0.900721
0
LINE
8
BLACK
6
CONTINUOUS
10
1.05269
20
0.900721
11
1.05295
21
0.9
0
LINE
8
BLACK
6
CONTINUOUS
10
1.05295
20
0.9
11
1.05295
21
0.7
0
LINE
8
BLACK
6
CONTINUOUS
10
1.05295
20
0.7
11
1.05289
21
0.699616
0
LINE
8
BLACK
6
CONTINUOUS
10
1.05289
20
0.699616
11
1.05291
21
0.699487
0
LINE
8
BLACK
6
CONTINUOUS
10
1.05291
20
0.699487
11
1.05284
21
0.699374
0
LINE
8
BLACK
6
CONTINUOUS
10
1.05284
20
0.699374
11
1.05277
21
0.69899
0
LINE
8
BLACK
6
CONTINUOUS
10
1.05277
20
0.69899
11
1.05228
21
0.698402
0
LINE
8
BLACK
6
CONTINUOUS
10
1.05228
20
0.698402
11
1.0519
21
0.697738
0
LINE
8
BLACK
6
CONTINUOUS
10
1.0519
20
0.697738
11
1.05165
21
0.697647
0
LINE
8
BLACK
6
CONTINUOUS
10
1.05165
20
0.697647
11
1.05148
21
0.697443
0
LINE
8
BLACK
6
CONTINUOUS
10
1.05148
20
0.697443
11
1.05072
21
0.69731
0
LINE
8
BLACK
6
CONTINUOUS
10
1.05072
20
0.69731
11
1.05
21
0.697047
0
LINE
8
BLACK
6
CONTINUOUS
10
1.05
20
0.697047
11
0.35
21
0.697047
0
LINE
8
BLACK
6
CONTINUOUS
10
0.35
20
0.697047
11
0.349616
21
0.697115
0
LINE
8
BLACK
6
CONTINUOUS
10
0.952953
20
0.897047
11
0.952953
21
0.702953
0
LINE
8
BLACK
6
CONTINUOUS
10
0.952953
20
0.702953
11
1.04705
21
0.702953
0
LINE
8
BLACK
6
CONTINUOUS
10
1.04705
20
0.702953
11
1.04705
21
0.897047
0
LINE
8
BLACK
6
CONTINUOUS
10
1.04705
20
0.897047
11
0.952953
21
0.897047
0
LINE
8
BLACK
6
CONTINUOUS
10
0.852953
20
0.897047
11
0.852953
21
0.702953
0
LINE
8
BLACK
6
CONTINUOUS
10
0.852953
20
0.702953
11
0.947047
21
0.702953
0
LINE
8
BLACK
6
CONTINUOUS
10
0.947047
20
0.702953
11
0.947047
21
0.897047
0
LINE
8
BLACK
6
CONTINUOUS
10
0.947047
20
0.897047
11
0.852953
21
0.897047
0
LINE
8
BLACK
6
CONTINUOUS
10
0.752953
20
0.897047
11
0.752953
21
0.702953
0
LINE
8
BLACK
6
CONTINUOUS
10
0.752953
20
0.702953
11
0.847047
21
0.702953
0
LINE
8
BLACK
6
CONTINUOUS
10
0.847047
20
0.702953
11
0.847047
21
0.897047
0
LINE
8
BLACK
6
CONTINUOUS
10
0.847047
20
0.897047
11
0.752953
21
0.897047
0
LINE
8
BLACK
6
CONTINUOUS
10
0.652953
20
0.897047
11
0.652953
21
0.702953
0
LINE
8
BLACK
6
CONTINUOUS
10
0.652953
20
0.702953
11
0.747047
21
0.702953
0
LINE
8
BLACK
6
CONTINUOUS
10
0.747047
20
0.702953
11
0.747047
21
0.897047
0
LINE
8
BLACK
6
CONTINUOUS
10
0.747047
20
0.897047
11
0.652953
21
0.897047
0
LINE
8
BLACK
6
CONTINUOUS
10
0.552953
20
0.897047
11
0.552953
21
0.702953
0
LINE
8
BLACK
6
CONTINUOUS
10
0.552953
20
0.702953
11
0.647047
21
0.702953
0
LINE
8
BLACK
6
CONTINUOUS
10
0.647047
20
0.702953
11
0.647047
21
0.897047
0
LINE
8
BLACK
6
CONTINUOUS
10
0.647047
20
0.897047
11
0.552953
21
0.897047
0
LINE
8
BLACK
6
CONTINUOUS
10
0.452953
20
0.797047
11
0.452953
21
0.702953
0
LINE
8
BLACK
6
CONTINUOUS
10
0.452953
20
0.702953
11
0.547047
21
0.702953
0
LINE
8
BLACK
6
CONTINUOUS
10
0.547047
20
0.702953
11
0.547047
21
0.797047
0
LINE
8
BLACK
6
CONTINUOUS
10
0.547047
20
0.797047
11
0.452953
21
0.797047
0
LINE
8
BLACK
6
CONTINUOUS
10
0.352953
20
0.797047
11
0.352953
21
0.702953
0
LINE
8
BLACK
6
CONTINUOUS
10
0.352953
20
0.702953
11
0.447047
21
0.702953
0
LINE
8
BLACK
6
CONTINUOUS
10
0.447047
20
0.702953
11
0.447047
21
0.797047
0
LINE
8
BLACK
6
CONTINUOUS
10
0.447047
20
0.797047
11
0.352953
21
0.797047
0
LINE
8
BLACK
6
CONTINUOUS
10
0.452953
20
0.897047
11
0.452953
21
0.802953
0
LINE
8
BLACK
6
CONTINUOUS
10
0.452953
20
0.802953
11
0.547047
21
0.802953
0
LINE
8
BLACK
6
CONTINUOUS
10
0.547047
20
0.802953
11
0.547047
21
0.897047
0
LINE
8
BLACK
6
CONTINUOUS
10
0.547047
20
0.897047
11
0.452953
21
0.897047
0
LINE
8
BLACK
6
CONTINUOUS
10
0.352953
20
0.897047
11
0.352953
21
0.802953
0
LINE
8
BLACK
6
CONTINUOUS
10
0.352953
20
0.802953
11
0.447047
21
0.802953
0
LINE
8
BLACK
6
CONTINUOUS
10
0.447047
20
0.802953
11
0.447047
21
0.897047
0
LINE
8
BLACK
6
CONTINUOUS
10
0.447047
20
0.897047
11
0.352953
21
0.897047
0
LINE
8
BLACK
6
CONTINUOUS
10
0.199236
20
0.730546
11
0.200784
21
0.729247
0
LINE
8
BLACK
6
CONTINUOUS
10
0.200784
20
0.729247
11
0.201134
21
0.727258
0
LINE
8
BLACK
6
CONTINUOUS
10
0.201134
20
0.727258
11
0.200124
21
0.725509
0
LINE
8
BLACK
6
CONTINUOUS
10
0.200124
20
0.725509
11
0.198226
21
0.724818
0
LINE
8
BLACK
6
CONTINUOUS
10
0.198226
20
0.724818
11
0.16823
21
0.724818
0
LINE
8
BLACK
6
CONTINUOUS
10
0.16823
20
0.724818
11
0.16722
21
0.724996
0
LINE
8
BLACK
6
CONTINUOUS
10
0.16722
20
0.724996
11
0.165673
21
0.726295
0
LINE
8
BLACK
6
CONTINUOUS
10
0.165673
20
0.726295
11
0.165322
21
0.728284
0
LINE
8
BLACK
6
CONTINUOUS
10
0.165322
20
0.728284
11
0.166332
21
0.730033
0
LINE
8
BLACK
6
CONTINUOUS
10
0.166332
20
0.730033
11
0.16823
21
0.730724
0
LINE
8
BLACK
6
CONTINUOUS
10
0.16823
20
0.730724
11
0.198226
21
0.730724
0
LINE
8
BLACK
6
CONTINUOUS
10
0.198226
20
0.730724
11
0.199236
21
0.730546
0
LINE
8
BLACK
6
CONTINUOUS
10
0.116606
20
0.77369
11
0.116671
21
0.773692
0
LINE
8
BLACK
6
CONTINUOUS
10
0.116671
20
0.773692
11
0.122295
21
0.771817
0
LINE
8
BLACK
6
CONTINUOUS
10
0.122295
20
0.771817
11
0.123197
21
0.771329
0
LINE
8
BLACK
6
CONTINUOUS
10
0.123197
20
0.771329
11
0.124254
21
0.769608
0
LINE
8
BLACK
6
CONTINUOUS
10
0.124254
20
0.769608
11
0.123958
21
0.76761
0
LINE
8
BLACK
6
CONTINUOUS
10
0.123958
20
0.76761
11
0.122446
21
0.76627
0
LINE
8
BLACK
6
CONTINUOUS
10
0.122446
20
0.76627
11
0.120427
21
0.766215
0
LINE
8
BLACK
6
CONTINUOUS
10
0.120427
20
0.766215
11
0.115258
21
0.767938
0
LINE
8
BLACK
6
CONTINUOUS
10
0.115258
20
0.767938
11
0.10706
21
0.767938
0
LINE
8
BLACK
6
CONTINUOUS
10
0.10706
20
0.767938
11
0.104362
21
0.766589
0
LINE
8
BLACK
6
CONTINUOUS
10
0.104362
20
0.766589
11
0.103165
21
0.765392
0
LINE
8
BLACK
6
CONTINUOUS
10
0.103165
20
0.765392
11
0.101817
21
0.762694
0
LINE
8
BLACK
6
CONTINUOUS
10
0.101817
20
0.762694
11
0.101817
21
0.760339
0
LINE
8
BLACK
6
CONTINUOUS
10
0.101817
20
0.760339
11
0.103165
21
0.757641
0
LINE
8
BLACK
6
CONTINUOUS
10
0.103165
20
0.757641
11
0.104362
21
0.756444
0
LINE
8
BLACK
6
CONTINUOUS
10
0.104362
20
0.756444
11
0.107394
21
0.754929
0
LINE
8
BLACK
6
CONTINUOUS
10
0.107394
20
0.754929
11
0.114578
21
0.753133
0
LINE
8
BLACK
6
CONTINUOUS
10
0.114578
20
0.753133
11
0.115044
21
0.752925
0
LINE
8
BLACK
6
CONTINUOUS
10
0.115044
20
0.752925
11
0.115183
21
0.752909
0
LINE
8
BLACK
6
CONTINUOUS
10
0.115183
20
0.752909
11
0.118932
21
0.751034
0
LINE
8
BLACK
6
CONTINUOUS
10
0.118932
20
0.751034
11
0.119641
21
0.750508
0
LINE
8
BLACK
6
CONTINUOUS
10
0.119641
20
0.750508
11
0.119699
21
0.750481
0
LINE
8
BLACK
6
CONTINUOUS
10
0.119699
20
0.750481
11
0.121574
21
0.748606
0
LINE
8
BLACK
6
CONTINUOUS
10
0.121574
20
0.748606
11
0.122081
21
0.747883
0
LINE
8
BLACK
6
CONTINUOUS
10
0.122081
20
0.747883
11
0.122127
21
0.747839
0
LINE
8
BLACK
6
CONTINUOUS
10
0.122127
20
0.747839
11
0.124002
21
0.74409
0
LINE
8
BLACK
6
CONTINUOUS
10
0.124002
20
0.74409
11
0.124294
21
0.743107
0
LINE
8
BLACK
6
CONTINUOUS
10
0.124294
20
0.743107
11
0.124253
21
0.742935
0
LINE
8
BLACK
6
CONTINUOUS
10
0.124253
20
0.742935
11
0.124314
21
0.742769
0
LINE
8
BLACK
6
CONTINUOUS
10
0.124314
20
0.742769
11
0.124314
21
0.73902
0
LINE
8
BLACK
6
CONTINUOUS
10
0.124314
20
0.73902
11
0.124136
21
0.73801
0
LINE
8
BLACK
6
CONTINUOUS
10
0.124136
20
0.73801
11
0.124022
21
0.737874
0
LINE
8
BLACK
6
CONTINUOUS
10
0.124022
20
0.737874
11
0.124002
21
0.737699
0
LINE
8
BLACK
6
CONTINUOUS
10
0.124002
20
0.737699
11
0.122127
21
0.733949
0
LINE
8
BLACK
6
CONTINUOUS
10
0.122127
20
0.733949
11
0.121601
21
0.73324
0
LINE
8
BLACK
6
CONTINUOUS
10
0.121601
20
0.73324
11
0.121574
21
0.733182
0
LINE
8
BLACK
6
CONTINUOUS
10
0.121574
20
0.733182
11
0.119699
21
0.731307
0
LINE
8
BLACK
6
CONTINUOUS
10
0.119699
20
0.731307
11
0.118976
21
0.730801
0
LINE
8
BLACK
6
CONTINUOUS
10
0.118976
20
0.730801
11
0.118932
21
0.730754
0
LINE
8
BLACK
6
CONTINUOUS
10
0.118932
20
0.730754
11
0.115183
21
0.728879
0
LINE
8
BLACK
6
CONTINUOUS
10
0.115183
20
0.728879
11
0.1142
21
0.728587
0
LINE
8
BLACK
6
CONTINUOUS
10
0.1142
20
0.728587
11
0.114028
21
0.728628
0
LINE
8
BLACK
6
CONTINUOUS
10
0.114028
20
0.728628
11
0.113862
21
0.728568
0
LINE
8
BLACK
6
CONTINUOUS
10
0.113862
20
0.728568
11
0.104488
21
0.728568
0
LINE
8
BLACK
6
CONTINUOUS
10
0.104488
20
0.728568
11
0.103619
21
0.728721
0
LINE
8
BLACK
6
CONTINUOUS
10
0.103619
20
0.728721
11
0.103554
21
0.728719
0
LINE
8
BLACK
6
CONTINUOUS
10
0.103554
20
0.728719
11
0.0979301
21
0.730594
0
LINE
8
BLACK
6
CONTINUOUS
10
0.0979301
20
0.730594
11
0.0970283
21
0.731082
0
LINE
8
BLACK
6
CONTINUOUS
10
0.0970283
20
0.731082
11
0.0959711
21
0.732803
0
LINE
8
BLACK
6
CONTINUOUS
10
0.0959711
20
0.732803
11
0.0962673
21
0.734801
0
LINE
8
BLACK
6
CONTINUOUS
10
0.0962673
20
0.734801
11
0.0977785
21
0.736141
0
LINE
8
BLACK
6
CONTINUOUS
10
0.0977785
20
0.736141
11
0.0997976
21
0.736196
0
LINE
8
BLACK
6
CONTINUOUS
10
0.0997976
20
0.736196
11
0.104967
21
0.734473
0
LINE
8
BLACK
6
CONTINUOUS
10
0.104967
20
0.734473
11
0.113165
21
0.734473
0
LINE
8
BLACK
6
CONTINUOUS
10
0.113165
20
0.734473
11
0.115862
21
0.735822
0
LINE
8
BLACK
6
CONTINUOUS
10
0.115862
20
0.735822
11
0.11706
21
0.737019
0
LINE
8
BLACK
6
CONTINUOUS
10
0.11706
20
0.737019
11
0.118408
21
0.739717
0
LINE
8
BLACK
6
CONTINUOUS
10
0.118408
20
0.739717
11
0.118408
21
0.742072
0
LINE
8
BLACK
6
CONTINUOUS
10
0.118408
20
0.742072
11
0.11706
21
0.744769
0
LINE
8
BLACK
6
CONTINUOUS
10
0.11706
20
0.744769
11
0.115862
21
0.745967
0
LINE
8
BLACK
6
CONTINUOUS
10
0.115862
20
0.745967
11
0.112831
21
0.747482
0
LINE
8
BLACK
6
CONTINUOUS
10
0.112831
20
0.747482
11
0.105647
21
0.749278
0
LINE
8
BLACK
6
CONTINUOUS
10
0.105647
20
0.749278
11
0.105181
21
0.749486
0
LINE
8
BLACK
6
CONTINUOUS
10
0.105181
20
0.749486
11
0.105042
21
0.749502
0
LINE
8
BLACK
6
CONTINUOUS
10
0.105042
20
0.749502
11
0.101293
21
0.751377
0
LINE
8
BLACK
6
CONTINUOUS
10
0.101293
20
0.751377
11
0.100584
21
0.751903
0
LINE
8
BLACK
6
CONTINUOUS
10
0.100584
20
0.751903
11
0.100525
21
0.75193
0
LINE
8
BLACK
6
CONTINUOUS
10
0.100525
20
0.75193
11
0.0986507
21
0.753804
0
LINE
8
BLACK
6
CONTINUOUS
10
0.0986507
20
0.753804
11
0.0981444
21
0.754528
0
LINE
8
BLACK
6
CONTINUOUS
10
0.0981444
20
0.754528
11
0.0980976
21
0.754572
0
LINE
8
BLACK
6
CONTINUOUS
10
0.0980976
20
0.754572
11
0.0962228
21
0.758321
0
LINE
8
BLACK
6
CONTINUOUS
10
0.0962228
20
0.758321
11
0.0959305
21
0.759304
0
LINE
8
BLACK
6
CONTINUOUS
10
0.0959305
20
0.759304
11
0.0959715
21
0.759476
0
LINE
8
BLACK
6
CONTINUOUS
10
0.0959715
20
0.759476
11
0.0959111
21
0.759642
0
LINE
8
BLACK
6
CONTINUOUS
10
0.0959111
20
0.759642
11
0.0959111
21
0.763391
0
LINE
8
BLACK
6
CONTINUOUS
10
0.0959111
20
0.763391
11
0.0960892
21
0.764401
0
LINE
8
BLACK
6
CONTINUOUS
10
0.0960892
20
0.764401
11
0.0962026
21
0.764537
0
LINE
8
BLACK
6
CONTINUOUS
10
0.0962026
20
0.764537
11
0.0962228
21
0.764712
0
LINE
8
BLACK
6
CONTINUOUS
10
0.0962228
20
0.764712
11
0.0980976
21
0.768461
0
LINE
8
BLACK
6
CONTINUOUS
10
0.0980976
20
0.768461
11
0.0986235
21
0.769171
0
LINE
8
BLACK
6
CONTINUOUS
10
0.0986235
20
0.769171
11
0.0986507
21
0.769229
0
LINE
8
BLACK
6
CONTINUOUS
10
0.0986507
20
0.769229
11
0.100525
21
0.771104
0
LINE
8
BLACK
6
CONTINUOUS
10
0.100525
20
0.771104
11
0.101249
21
0.77161
0
LINE
8
BLACK
6
CONTINUOUS
10
0.101249
20
0.77161
11
0.101293
21
0.771657
0
LINE
8
BLACK
6
CONTINUOUS
10
0.101293
20
0.771657
11
0.105042
21
0.773532
0
LINE
8
BLACK
6
CONTINUOUS
10
0.105042
20
0.773532
11
0.106025
21
0.773824
0
LINE
8
BLACK
6
CONTINUOUS
10
0.106025
20
0.773824
11
0.106197
21
0.773783
0
LINE
8
BLACK
6
CONTINUOUS
10
0.106197
20
0.773783
11
0.106363
21
0.773843
0
LINE
8
BLACK
6
CONTINUOUS
10
0.106363
20
0.773843
11
0.115737
21
0.773843
0
LINE
8
BLACK
6
CONTINUOUS
10
0.115737
20
0.773843
11
0.116606
21
0.77369
0
LINE
8
BLACK
6
CONTINUOUS
10
0.221734
20
0.773665
11
0.221869
21
0.773552
0
LINE
8
BLACK
6
CONTINUOUS
10
0.221869
20
0.773552
11
0.222044
21
0.773532
0
LINE
8
BLACK
6
CONTINUOUS
10
0.222044
20
0.773532
11
0.225794
21
0.771657
0
LINE
8
BLACK
6
CONTINUOUS
10
0.225794
20
0.771657
11
0.226503
21
0.771131
0
LINE
8
BLACK
6
CONTINUOUS
10
0.226503
20
0.771131
11
0.226561
21
0.771104
0
LINE
8
BLACK
6
CONTINUOUS
10
0.226561
20
0.771104
11
0.228436
21
0.769229
0
LINE
8
BLACK
6
CONTINUOUS
10
0.228436
20
0.769229
11
0.228942
21
0.768506
0
LINE
8
BLACK
6
CONTINUOUS
10
0.228942
20
0.768506
11
0.228989
21
0.768461
0
LINE
8
BLACK
6
CONTINUOUS
10
0.228989
20
0.768461
11
0.230864
21
0.764712
0
LINE
8
BLACK
6
CONTINUOUS
10
0.230864
20
0.764712
11
0.231156
21
0.763729
0
LINE
8
BLACK
6
CONTINUOUS
10
0.231156
20
0.763729
11
0.231115
21
0.763557
0
LINE
8
BLACK
6
CONTINUOUS
10
0.231115
20
0.763557
11
0.231175
21
0.763391
0
LINE
8
BLACK
6
CONTINUOUS
10
0.231175
20
0.763391
11
0.231175
21
0.759642
0
LINE
8
BLACK
6
CONTINUOUS
10
0.231175
20
0.759642
11
0.230997
21
0.758632
0
LINE
8
BLACK
6
CONTINUOUS
10
0.230997
20
0.758632
11
0.230884
21
0.758497
0
LINE
8
BLACK
6
CONTINUOUS
10
0.230884
20
0.758497
11
0.230864
21
0.758321
0
LINE
8
BLACK
6
CONTINUOUS
10
0.230864
20
0.758321
11
0.228989
21
0.754572
0
LINE
8
BLACK
6
CONTINUOUS
10
0.228989
20
0.754572
11
0.228463
21
0.753863
0
LINE
8
BLACK
6
CONTINUOUS
10
0.228463
20
0.753863
11
0.228436
21
0.753804
0
LINE
8
BLACK
6
CONTINUOUS
10
0.228436
20
0.753804
11
0.227554
21
0.752922
0
LINE
8
BLACK
6
CONTINUOUS
10
0.227554
20
0.752922
11
0.228183
21
0.752581
0
LINE
8
BLACK
6
CONTINUOUS
10
0.228183
20
0.752581
11
0.228276
21
0.752431
0
LINE
8
BLACK
6
CONTINUOUS
10
0.228276
20
0.752431
11
0.228436
21
0.752356
0
LINE
8
BLACK
6
CONTINUOUS
10
0.228436
20
0.752356
11
0.230311
21
0.750481
0
LINE
8
BLACK
6
CONTINUOUS
10
0.230311
20
0.750481
11
0.230817
21
0.749758
0
LINE
8
BLACK
6
CONTINUOUS
10
0.230817
20
0.749758
11
0.230864
21
0.749714
0
LINE
8
BLACK
6
CONTINUOUS
10
0.230864
20
0.749714
11
0.232739
21
0.745964
0
LINE
8
BLACK
6
CONTINUOUS
10
0.232739
20
0.745964
11
0.233031
21
0.744981
0
LINE
8
BLACK
6
CONTINUOUS
10
0.233031
20
0.744981
11
0.23299
21
0.74481
0
LINE
8
BLACK
6
CONTINUOUS
10
0.23299
20
0.74481
11
0.23305
21
0.744644
0
LINE
8
BLACK
6
CONTINUOUS
10
0.23305
20
0.744644
11
0.23305
21
0.73902
0
LINE
8
BLACK
6
CONTINUOUS
10
0.23305
20
0.73902
11
0.232872
21
0.73801
0
LINE
8
BLACK
6
CONTINUOUS
10
0.232872
20
0.73801
11
0.232759
21
0.737874
0
LINE
8
BLACK
6
CONTINUOUS
10
0.232759
20
0.737874
11
0.232739
21
0.737699
0
LINE
8
BLACK
6
CONTINUOUS
10
0.232739
20
0.737699
11
0.230864
21
0.733949
0
LINE
8
BLACK
6
CONTINUOUS
10
0.230864
20
0.733949
11
0.230338
21
0.73324
0
LINE
8
BLACK
6
CONTINUOUS
10
0.230338
20
0.73324
11
0.230311
21
0.733182
0
LINE
8
BLACK
6
CONTINUOUS
10
0.230311
20
0.733182
11
0.228436
21
0.731307
0
LINE
8
BLACK
6
CONTINUOUS
10
0.228436
20
0.731307
11
0.227713
21
0.730801
0
LINE
8
BLACK
6
CONTINUOUS
10
0.227713
20
0.730801
11
0.227668
21
0.730754
0
LINE
8
BLACK
6
CONTINUOUS
10
0.227668
20
0.730754
11
0.223919
21
0.728879
0
LINE
8
BLACK
6
CONTINUOUS
10
0.223919
20
0.728879
11
0.222936
21
0.728587
0
LINE
8
BLACK
6
CONTINUOUS
10
0.222936
20
0.728587
11
0.222764
21
0.728628
0
LINE
8
BLACK
6
CONTINUOUS
10
0.222764
20
0.728628
11
0.222598
21
0.728568
0
LINE
8
BLACK
6
CONTINUOUS
10
0.222598
20
0.728568
11
0.2076
21
0.728568
0
LINE
8
BLACK
6
CONTINUOUS
10
0.2076
20
0.728568
11
0.207217
21
0.728635
0
LINE
8
BLACK
6
CONTINUOUS
10
0.207217
20
0.728635
11
0.207088
21
0.728613
0
LINE
8
BLACK
6
CONTINUOUS
10
0.207088
20
0.728613
11
0.206974
21
0.728678
0
LINE
8
BLACK
6
CONTINUOUS
10
0.206974
20
0.728678
11
0.20659
21
0.728746
0
LINE
8
BLACK
6
CONTINUOUS
10
0.20659
20
0.728746
11
0.206003
21
0.729239
0
LINE
8
BLACK
6
CONTINUOUS
10
0.206003
20
0.729239
11
0.205338
21
0.729622
0
LINE
8
BLACK
6
CONTINUOUS
10
0.205338
20
0.729622
11
0.205247
21
0.729873
0
LINE
8
BLACK
6
CONTINUOUS
10
0.205247
20
0.729873
11
0.205043
21
0.730044
0
LINE
8
BLACK
6
CONTINUOUS
10
0.205043
20
0.730044
11
0.20491
21
0.7308
0
LINE
8
BLACK
6
CONTINUOUS
10
0.20491
20
0.7308
11
0.204648
21
0.73152
0
LINE
8
BLACK
6
CONTINUOUS
10
0.204648
20
0.73152
11
0.204648
21
0.770891
0
LINE
8
BLACK
6
CONTINUOUS
10
0.204648
20
0.770891
11
0.204715
21
0.771274
0
LINE
8
BLACK
6
CONTINUOUS
10
0.204715
20
0.771274
11
0.204692
21
0.771403
0
LINE
8
BLACK
6
CONTINUOUS
10
0.204692
20
0.771403
11
0.204758
21
0.771517
0
LINE
8
BLACK
6
CONTINUOUS
10
0.204758
20
0.771517
11
0.204826
21
0.7719
0
LINE
8
BLACK
6
CONTINUOUS
10
0.204826
20
0.7719
11
0.205319
21
0.772488
0
LINE
8
BLACK
6
CONTINUOUS
10
0.205319
20
0.772488
11
0.205702
21
0.773152
0
LINE
8
BLACK
6
CONTINUOUS
10
0.205702
20
0.773152
11
0.205953
21
0.773244
0
LINE
8
BLACK
6
CONTINUOUS
10
0.205953
20
0.773244
11
0.206124
21
0.773448
0
LINE
8
BLACK
6
CONTINUOUS
10
0.206124
20
0.773448
11
0.206879
21
0.773581
0
LINE
8
BLACK
6
CONTINUOUS
10
0.206879
20
0.773581
11
0.2076
21
0.773843
0
LINE
8
BLACK
6
CONTINUOUS
10
0.2076
20
0.773843
11
0.220724
21
0.773843
0
LINE
8
BLACK
6
CONTINUOUS
10
0.220724
20
0.773843
11
0.221734
21
0.773665
0
LINE
8
BLACK
6
CONTINUOUS
10
0.210553
20
0.74919
11
0.210553
21
0.734473
0
LINE
8
BLACK
6
CONTINUOUS
10
0.210553
20
0.734473
11
0.221901
21
0.734473
0
LINE
8
BLACK
6
CONTINUOUS
10
0.221901
20
0.734473
11
0.224599
21
0.735822
0
LINE
8
BLACK
6
CONTINUOUS
10
0.224599
20
0.735822
11
0.225796
21
0.737019
0
LINE
8
BLACK
6
CONTINUOUS
10
0.225796
20
0.737019
11
0.227145
21
0.739717
0
LINE
8
BLACK
6
CONTINUOUS
10
0.227145
20
0.739717
11
0.227145
21
0.743947
0
LINE
8
BLACK
6
CONTINUOUS
10
0.227145
20
0.743947
11
0.225796
21
0.746644
0
LINE
8
BLACK
6
CONTINUOUS
10
0.225796
20
0.746644
11
0.224753
21
0.747687
0
LINE
8
BLACK
6
CONTINUOUS
10
0.224753
20
0.747687
11
0.220244
21
0.74919
0
LINE
8
BLACK
6
CONTINUOUS
10
0.220244
20
0.74919
11
0.210553
21
0.74919
0
LINE
8
BLACK
6
CONTINUOUS
10
0.210553
20
0.767938
11
0.210553
21
0.755096
0
LINE
8
BLACK
6
CONTINUOUS
10
0.210553
20
0.755096
11
0.220027
21
0.755096
0
LINE
8
BLACK
6
CONTINUOUS
10
0.220027
20
0.755096
11
0.222724
21
0.756444
0
LINE
8
BLACK
6
CONTINUOUS
10
0.222724
20
0.756444
11
0.223921
21
0.757641
0
LINE
8
BLACK
6
CONTINUOUS
10
0.223921
20
0.757641
11
0.22527
21
0.760339
0
LINE
8
BLACK
6
CONTINUOUS
10
0.22527
20
0.760339
11
0.22527
21
0.762694
0
LINE
8
BLACK
6
CONTINUOUS
10
0.22527
20
0.762694
11
0.223921
21
0.765392
0
LINE
8
BLACK
6
CONTINUOUS
10
0.223921
20
0.765392
11
0.222724
21
0.766589
0
LINE
8
BLACK
6
CONTINUOUS
10
0.222724
20
0.766589
11
0.220027
21
0.767938
0
LINE
8
BLACK
6
CONTINUOUS
10
0.220027
20
0.767938
11
0.210553
21
0.767938
0
LINE
8
BLACK
6
CONTINUOUS
10
0.152367
20
0.773665
11
0.152502
21
0.773552
0
LINE
8
BLACK
6
CONTINUOUS
10
0.152502
20
0.773552
11
0.152678
21
0.773532
0
LINE
8
BLACK
6
CONTINUOUS
10
0.152678
20
0.773532
11
0.156427
21
0.771657
0
LINE
8
BLACK
6
CONTINUOUS
10
0.156427
20
0.771657
11
0.157136
21
0.771131
0
LINE
8
BLACK
6
CONTINUOUS
10
0.157136
20
0.771131
11
0.157195
21
0.771104
0
LINE
8
BLACK
6
CONTINUOUS
10
0.157195
20
0.771104
11
0.15907
21
0.769229
0
LINE
8
BLACK
6
CONTINUOUS
10
0.15907
20
0.769229
11
0.159576
21
0.768506
0
LINE
8
BLACK
6
CONTINUOUS
10
0.159576
20
0.768506
11
0.159623
21
0.768461
0
LINE
8
BLACK
6
CONTINUOUS
10
0.159623
20
0.768461
11
0.161497
21
0.764712
0
LINE
8
BLACK
6
CONTINUOUS
10
0.161497
20
0.764712
11
0.16179
21
0.763729
0
LINE
8
BLACK
6
CONTINUOUS
10
0.16179
20
0.763729
11
0.161749
21
0.763557
0
LINE
8
BLACK
6
CONTINUOUS
10
0.161749
20
0.763557
11
0.161809
21
0.763391
0
LINE
8
BLACK
6
CONTINUOUS
10
0.161809
20
0.763391
11
0.161809
21
0.759642
0
LINE
8
BLACK
6
CONTINUOUS
10
0.161809
20
0.759642
11
0.161631
21
0.758632
0
LINE
8
BLACK
6
CONTINUOUS
10
0.161631
20
0.758632
11
0.161518
21
0.758497
0
LINE
8
BLACK
6
CONTINUOUS
10
0.161518
20
0.758497
11
0.161497
21
0.758321
0
LINE
8
BLACK
6
CONTINUOUS
10
0.161497
20
0.758321
11
0.159623
21
0.754572
0
LINE
8
BLACK
6
CONTINUOUS
10
0.159623
20
0.754572
11
0.159097
21
0.753863
0
LINE
8
BLACK
6
CONTINUOUS
10
0.159097
20
0.753863
11
0.15907
21
0.753804
0
LINE
8
BLACK
6
CONTINUOUS
10
0.15907
20
0.753804
11
0.158187
21
0.752922
0
LINE
8
BLACK
6
CONTINUOUS
10
0.158187
20
0.752922
11
0.158817
21
0.752581
0
LINE
8
BLACK
6
CONTINUOUS
10
0.158817
20
0.752581
11
0.15891
21
0.752431
0
LINE
8
BLACK
6
CONTINUOUS
10
0.15891
20
0.752431
11
0.15907
21
0.752356
0
LINE
8
BLACK
6
CONTINUOUS
10
0.15907
20
0.752356
11
0.160944
21
0.750481
0
LINE
8
BLACK
6
CONTINUOUS
10
0.160944
20
0.750481
11
0.161451
21
0.749758
0
LINE
8
BLACK
6
CONTINUOUS
10
0.161451
20
0.749758
11
0.161497
21
0.749714
0
LINE
8
BLACK
6
CONTINUOUS
10
0.161497
20
0.749714
11
0.163372
21
0.745964
0
LINE
8
BLACK
6
CONTINUOUS
10
0.163372
20
0.745964
11
0.163665
21
0.744981
0
LINE
8
BLACK
6
CONTINUOUS
10
0.163665
20
0.744981
11
0.163624
21
0.74481
0
LINE
8
BLACK
6
CONTINUOUS
10
0.163624
20
0.74481
11
0.163684
21
0.744644
0
LINE
8
BLACK
6
CONTINUOUS
10
0.163684
20
0.744644
11
0.163684
21
0.73902
0
LINE
8
BLACK
6
CONTINUOUS
10
0.163684
20
0.73902
11
0.163506
21
0.73801
0
LINE
8
BLACK
6
CONTINUOUS
10
0.163506
20
0.73801
11
0.163392
21
0.737874
0
LINE
8
BLACK
6
CONTINUOUS
10
0.163392
20
0.737874
11
0.163372
21
0.737699
0
LINE
8
BLACK
6
CONTINUOUS
10
0.163372
20
0.737699
11
0.161497
21
0.733949
0
LINE
8
BLACK
6
CONTINUOUS
10
0.161497
20
0.733949
11
0.160971
21
0.73324
0
LINE
8
BLACK
6
CONTINUOUS
10
0.160971
20
0.73324
11
0.160944
21
0.733182
0
LINE
8
BLACK
6
CONTINUOUS
10
0.160944
20
0.733182
11
0.15907
21
0.731307
0
LINE
8
BLACK
6
CONTINUOUS
10
0.15907
20
0.731307
11
0.158346
21
0.730801
0
LINE
8
BLACK
6
CONTINUOUS
10
0.158346
20
0.730801
11
0.158302
21
0.730754
0
LINE
8
BLACK
6
CONTINUOUS
10
0.158302
20
0.730754
11
0.154553
21
0.728879
0
LINE
8
BLACK
6
CONTINUOUS
10
0.154553
20
0.728879
11
0.15357
21
0.728587
0
LINE
8
BLACK
6
CONTINUOUS
10
0.15357
20
0.728587
11
0.153398
21
0.728628
0
LINE
8
BLACK
6
CONTINUOUS
10
0.153398
20
0.728628
11
0.153232
21
0.728568
0
LINE
8
BLACK
6
CONTINUOUS
10
0.153232
20
0.728568
11
0.138234
21
0.728568
0
LINE
8
BLACK
6
CONTINUOUS
10
0.138234
20
0.728568
11
0.13785
21
0.728635
0
LINE
8
BLACK
6
CONTINUOUS
10
0.13785
20
0.728635
11
0.137721
21
0.728613
0
LINE
8
BLACK
6
CONTINUOUS
10
0.137721
20
0.728613
11
0.137608
21
0.728678
0
LINE
8
BLACK
6
CONTINUOUS
10
0.137608
20
0.728678
11
0.137224
21
0.728746
0
LINE
8
BLACK
6
CONTINUOUS
10
0.137224
20
0.728746
11
0.136636
21
0.729239
0
LINE
8
BLACK
6
CONTINUOUS
10
0.136636
20
0.729239
11
0.135972
21
0.729622
0
LINE
8
BLACK
6
CONTINUOUS
10
0.135972
20
0.729622
11
0.135881
21
0.729873
0
LINE
8
BLACK
6
CONTINUOUS
10
0.135881
20
0.729873
11
0.135677
21
0.730044
0
LINE
8
BLACK
6
CONTINUOUS
10
0.135677
20
0.730044
11
0.135544
21
0.7308
0
LINE
8
BLACK
6
CONTINUOUS
10
0.135544
20
0.7308
11
0.135281
21
0.73152
0
LINE
8
BLACK
6
CONTINUOUS
10
0.135281
20
0.73152
11
0.135281
21
0.770891
0
LINE
8
BLACK
6
CONTINUOUS
10
0.135281
20
0.770891
11
0.135349
21
0.771274
0
LINE
8
BLACK
6
CONTINUOUS
10
0.135349
20
0.771274
11
0.135326
21
0.771403
0
LINE
8
BLACK
6
CONTINUOUS
10
0.135326
20
0.771403
11
0.135392
21
0.771517
0
LINE
8
BLACK
6
CONTINUOUS
10
0.135392
20
0.771517
11
0.135459
21
0.7719
0
LINE
8
BLACK
6
CONTINUOUS
10
0.135459
20
0.7719
11
0.135952
21
0.772488
0
LINE
8
BLACK
6
CONTINUOUS
10
0.135952
20
0.772488
11
0.136336
21
0.773152
0
LINE
8
BLACK
6
CONTINUOUS
10
0.136336
20
0.773152
11
0.136586
21
0.773244
0
LINE
8
BLACK
6
CONTINUOUS
10
0.136586
20
0.773244
11
0.136758
21
0.773448
0
LINE
8
BLACK
6
CONTINUOUS
10
0.136758
20
0.773448
11
0.137513
21
0.773581
0
LINE
8
BLACK
6
CONTINUOUS
10
0.137513
20
0.773581
11
0.138234
21
0.773843
0
LINE
8
BLACK
6
CONTINUOUS
10
0.138234
20
0.773843
11
0.151357
21
0.773843
0
LINE
8
BLACK
6
CONTINUOUS
10
0.151357
20
0.773843
11
0.152367
21
0.773665
0
LINE
8
BLACK
6
CONTINUOUS
10
0.141187
20
0.74919
11
0.141187
21
0.734473
0
LINE
8
BLACK
6
CONTINUOUS
10
0.141187
20
0.734473
11
0.152535
21
0.734473
0
LINE
8
BLACK
6
CONTINUOUS
10
0.152535
20
0.734473
11
0.155233
21
0.735822
0
LINE
8
BLACK
6
CONTINUOUS
10
0.155233
20
0.735822
11
0.15643
21
0.737019
0
LINE
8
BLACK
6
CONTINUOUS
10
0.15643
20
0.737019
11
0.157778
21
0.739717
0
LINE
8
BLACK
6
CONTINUOUS
10
0.157778
20
0.739717
11
0.157778
21
0.743947
0
LINE
8
BLACK
6
CONTINUOUS
10
0.157778
20
0.743947
11
0.15643
21
0.746644
0
LINE
8
BLACK
6
CONTINUOUS
10
0.15643
20
0.746644
11
0.155387
21
0.747687
0
LINE
8
BLACK
6
CONTINUOUS
10
0.155387
20
0.747687
11
0.150878
21
0.74919
0
LINE
8
BLACK
6
CONTINUOUS
10
0.150878
20
0.74919
11
0.141187
21
0.74919
0
LINE
8
BLACK
6
CONTINUOUS
10
0.141187
20
0.767938
11
0.141187
21
0.755096
0
LINE
8
BLACK
6
CONTINUOUS
10
0.141187
20
0.755096
11
0.15066
21
0.755096
0
LINE
8
BLACK
6
CONTINUOUS
10
0.15066
20
0.755096
11
0.153358
21
0.756444
0
LINE
8
BLACK
6
CONTINUOUS
10
0.153358
20
0.756444
11
0.154555
21
0.757641
0
LINE
8
BLACK
6
CONTINUOUS
10
0.154555
20
0.757641
11
0.155904
21
0.760339
0
LINE
8
BLACK
6
CONTINUOUS
10
0.155904
20
0.760339
11
0.155904
21
0.762694
0
LINE
8
BLACK
6
CONTINUOUS
10
0.155904
20
0.762694
11
0.154555
21
0.765392
0
LINE
8
BLACK
6
CONTINUOUS
10
0.154555
20
0.765392
11
0.153358
21
0.766589
0
LINE
8
BLACK
6
CONTINUOUS
10
0.153358
20
0.766589
11
0.15066
21
0.767938
0
LINE
8
BLACK
6
CONTINUOUS
10
0.15066
20
0.767938
11
0.141187
21
0.767938
0
LINE
8
BLACK
6
CONTINUOUS
10
0.0842529
20
0.772789
11
0.0849437
21
0.770891
0
LINE
8
BLACK
6
CONTINUOUS
10
0.0849437
20
0.770891
11
0.0849437
21
0.73902
0
LINE
8
BLACK
6
CONTINUOUS
10
0.0849437
20
0.73902
11
0.0847657
21
0.73801
0
LINE
8
BLACK
6
CONTINUOUS
10
0.0847657
20
0.73801
11
0.0846522
21
0.737874
0
LINE
8
BLACK
6
CONTINUOUS
10
0.0846522
20
0.737874
11
0.084632
21
0.737699
0
LINE
8
BLACK
6
CONTINUOUS
10
0.084632
20
0.737699
11
0.0827572
21
0.733949
0
LINE
8
BLACK
6
CONTINUOUS
10
0.0827572
20
0.733949
11
0.0822313
21
0.73324
0
LINE
8
BLACK
6
CONTINUOUS
10
0.0822313
20
0.73324
11
0.0822041
21
0.733182
0
LINE
8
BLACK
6
CONTINUOUS
10
0.0822041
20
0.733182
11
0.0803294
21
0.731307
0
LINE
8
BLACK
6
CONTINUOUS
10
0.0803294
20
0.731307
11
0.0796063
21
0.730801
0
LINE
8
BLACK
6
CONTINUOUS
10
0.0796063
20
0.730801
11
0.079562
21
0.730754
0
LINE
8
BLACK
6
CONTINUOUS
10
0.079562
20
0.730754
11
0.0758124
21
0.728879
0
LINE
8
BLACK
6
CONTINUOUS
10
0.0758124
20
0.728879
11
0.0748295
21
0.728587
0
LINE
8
BLACK
6
CONTINUOUS
10
0.0748295
20
0.728587
11
0.0746578
21
0.728628
0
LINE
8
BLACK
6
CONTINUOUS
10
0.0746578
20
0.728628
11
0.0744919
21
0.728568
0
LINE
8
BLACK
6
CONTINUOUS
10
0.0744919
20
0.728568
11
0.0669929
21
0.728568
0
LINE
8
BLACK
6
CONTINUOUS
10
0.0669929
20
0.728568
11
0.065983
21
0.728746
0
LINE
8
BLACK
6
CONTINUOUS
10
0.065983
20
0.728746
11
0.0658477
21
0.728859
0
LINE
8
BLACK
6
CONTINUOUS
10
0.0658477
20
0.728859
11
0.0656724
21
0.728879
0
LINE
8
BLACK
6
CONTINUOUS
10
0.0656724
20
0.728879
11
0.0619228
21
0.730754
0
LINE
8
BLACK
6
CONTINUOUS
10
0.0619228
20
0.730754
11
0.0612137
21
0.73128
0
LINE
8
BLACK
6
CONTINUOUS
10
0.0612137
20
0.73128
11
0.0611554
21
0.731307
0
LINE
8
BLACK
6
CONTINUOUS
10
0.0611554
20
0.731307
11
0.0592806
21
0.733182
0
LINE
8
BLACK
6
CONTINUOUS
10
0.0592806
20
0.733182
11
0.0587743
21
0.733905
0
LINE
8
BLACK
6
CONTINUOUS
10
0.0587743
20
0.733905
11
0.0587275
21
0.733949
0
LINE
8
BLACK
6
CONTINUOUS
10
0.0587275
20
0.733949
11
0.0568528
21
0.737699
0
LINE
8
BLACK
6
CONTINUOUS
10
0.0568528
20
0.737699
11
0.0565604
21
0.738682
0
LINE
8
BLACK
6
CONTINUOUS
10
0.0565604
20
0.738682
11
0.0566014
21
0.738854
0
LINE
8
BLACK
6
CONTINUOUS
10
0.0566014
20
0.738854
11
0.056541
21
0.73902
0
LINE
8
BLACK
6
CONTINUOUS
10
0.056541
20
0.73902
11
0.056541
21
0.770891
0
LINE
8
BLACK
6
CONTINUOUS
10
0.056541
20
0.770891
11
0.0567191
21
0.7719
0
LINE
8
BLACK
6
CONTINUOUS
10
0.0567191
20
0.7719
11
0.0580174
21
0.773448
0
LINE
8
BLACK
6
CONTINUOUS
10
0.0580174
20
0.773448
11
0.0600065
21
0.773798
0
LINE
8
BLACK
6
CONTINUOUS
10
0.0600065
20
0.773798
11
0.0617557
21
0.772789
0
LINE
8
BLACK
6
CONTINUOUS
10
0.0617557
20
0.772789
11
0.0624465
21
0.770891
0
LINE
8
BLACK
6
CONTINUOUS
10
0.0624465
20
0.770891
11
0.0624465
21
0.739717
0
LINE
8
BLACK
6
CONTINUOUS
10
0.0624465
20
0.739717
11
0.0637953
21
0.737019
0
LINE
8
BLACK
6
CONTINUOUS
10
0.0637953
20
0.737019
11
0.0649924
21
0.735822
0
LINE
8
BLACK
6
CONTINUOUS
10
0.0649924
20
0.735822
11
0.0676899
21
0.734473
0
LINE
8
BLACK
6
CONTINUOUS
10
0.0676899
20
0.734473
11
0.0737949
21
0.734473
0
LINE
8
BLACK
6
CONTINUOUS
10
0.0737949
20
0.734473
11
0.0764924
21
0.735822
0
LINE
8
BLACK
6
CONTINUOUS
10
0.0764924
20
0.735822
11
0.0776895
21
0.737019
0
LINE
8
BLACK
6
CONTINUOUS
10
0.0776895
20
0.737019
11
0.0790382
21
0.739717
0
LINE
8
BLACK
6
CONTINUOUS
10
0.0790382
20
0.739717
11
0.0790382
21
0.770891
0
LINE
8
BLACK
6
CONTINUOUS
10
0.0790382
20
0.770891
11
0.0792163
21
0.7719
0
LINE
8
BLACK
6
CONTINUOUS
10
0.0792163
20
0.7719
11
0.0805146
21
0.773448
0
LINE
8
BLACK
6
CONTINUOUS
10
0.0805146
20
0.773448
11
0.0825037
21
0.773798
0
LINE
8
BLACK
6
CONTINUOUS
10
0.0825037
20
0.773798
11
0.0842529
21
0.772789
0
LINE
8
BLACK
6
CONTINUOUS
10
0.321951
20
0.825458
11
0.322642
21
0.82356
0
LINE
8
BLACK
6
CONTINUOUS
10
0.322642
20
0.82356
11
0.322642
21
0.808191
0
LINE
8
BLACK
6
CONTINUOUS
10
0.322642
20
0.808191
11
0.340098
21
0.825648
0
LINE
8
BLACK
6
CONTINUOUS
10
0.340098
20
0.825648
11
0.340938
21
0.826236
0
LINE
8
BLACK
6
CONTINUOUS
10
0.340938
20
0.826236
11
0.34295
21
0.826412
0
LINE
8
BLACK
6
CONTINUOUS
10
0.34295
20
0.826412
11
0.344605
21
0.825253
0
LINE
8
BLACK
6
CONTINUOUS
10
0.344605
20
0.825253
11
0.345127
21
0.823303
0
LINE
8
BLACK
6
CONTINUOUS
10
0.345127
20
0.823303
11
0.344274
21
0.821472
0
LINE
8
BLACK
6
CONTINUOUS
10
0.344274
20
0.821472
11
0.329212
21
0.80641
0
LINE
8
BLACK
6
CONTINUOUS
10
0.329212
20
0.80641
11
0.344548
21
0.785961
0
LINE
8
BLACK
6
CONTINUOUS
10
0.344548
20
0.785961
11
0.345012
21
0.785047
0
LINE
8
BLACK
6
CONTINUOUS
10
0.345012
20
0.785047
11
0.344901
21
0.78303
0
LINE
8
BLACK
6
CONTINUOUS
10
0.344901
20
0.78303
11
0.34352
21
0.781556
0
LINE
8
BLACK
6
CONTINUOUS
10
0.34352
20
0.781556
11
0.341515
21
0.781314
0
LINE
8
BLACK
6
CONTINUOUS
10
0.341515
20
0.781314
11
0.339824
21
0.782418
0
LINE
8
BLACK
6
CONTINUOUS
10
0.339824
20
0.782418
11
0.324994
21
0.802192
0
LINE
8
BLACK
6
CONTINUOUS
10
0.324994
20
0.802192
11
0.322642
21
0.79984
0
LINE
8
BLACK
6
CONTINUOUS
10
0.322642
20
0.79984
11
0.322642
21
0.78419
0
LINE
8
BLACK
6
CONTINUOUS
10
0.322642
20
0.78419
11
0.322463
21
0.78318
0
LINE
8
BLACK
6
CONTINUOUS
10
0.322463
20
0.78318
11
0.321165
21
0.781633
0
LINE
8
BLACK
6
CONTINUOUS
10
0.321165
20
0.781633
11
0.319176
21
0.781282
0
LINE
8
BLACK
6
CONTINUOUS
10
0.319176
20
0.781282
11
0.317427
21
0.782292
0
LINE
8
BLACK
6
CONTINUOUS
10
0.317427
20
0.782292
11
0.316736
21
0.78419
0
LINE
8
BLACK
6
CONTINUOUS
10
0.316736
20
0.78419
11
0.316736
21
0.82356
0
LINE
8
BLACK
6
CONTINUOUS
10
0.316736
20
0.82356
11
0.316914
21
0.82457
0
LINE
8
BLACK
6
CONTINUOUS
10
0.316914
20
0.82457
11
0.318212
21
0.826117
0
LINE
8
BLACK
6
CONTINUOUS
10
0.318212
20
0.826117
11
0.320202
21
0.826468
0
LINE
8
BLACK
6
CONTINUOUS
10
0.320202
20
0.826468
11
0.321951
21
0.825458
  0
ENDSEC
  0
EOF
