  0
SECTION
  2
HEADER
  9
$ANGBASE
  50
0.0
  9
$ANGDIR
  70
1
  9
$MEASUREMENT
  70
0
  0
ENDSEC
  0
SECTION
  2
TABLES
  0
TABLE
  2
LTYPE
  70
4
  0
LTYPE
  5
40F
  2
CONTINUOUS
  70
0
  3
Solid line
  72
65
  73
0
  40
0.0
  0
LTYPE
  5
410
  2
DASHDOT
 70
0
  3
Dash Dot ____ _ ____ _
 72
65
 73
4
 40
2.0
 49
1.25
 49
-0.25
 49
0.25
 49
-0.25
  0
LTYPE
  5
411
  2
DASHED
 70
0
  3
Dashed __ __ __ __ __
 72
65
 73
2
 40
0.75
 49
0.5
 49
-0.25
  0
LTYPE
  5
43B
  2
DOTTED
 70
0
  3
Dotted .  .  .  .
 72
65
 73
2
 40
0.2
 49
0.0
 49
-0.2
  0
ENDTAB
  0
TABLE
  2
STYLE
  70
4
  0
STYLE
  2
KICAD
  70
0
  40
0
  41
1
  42
1
  50
0
  71
0
  3
isocp.shx
  0
STYLE
  2
KICADB
  70
0
  40
0
  41
1
  42
1
  50
0
  71
0
  3
isocp.shx
  0
STYLE
  2
KICADI
  70
0
  40
0
  41
1
  42
1
  50
15
  71
0
  3
isocp.shx
  0
STYLE
  2
KICADBI
  70
0
  40
0
  41
1
  42
1
  50
15
  71
0
  3
isocp.shx
  0
ENDTAB
  0
TABLE
  2
LAYER
  70
1
  0
LAYER
  2
BLACK
  70
0
  62
7
  6
CONTINUOUS
  0
ENDTAB
  0
ENDSEC
  0
SECTION
  2
ENTITIES
0
LINE
8
BLACK
6
CONTINUOUS
10
0.0140628
20
0.12481
11
0.0279486
21
0.122451
0
LINE
8
BLACK
6
CONTINUOUS
10
0.0279486
20
0.122451
11
0.041483
21
0.118552
0
LINE
8
BLACK
6
CONTINUOUS
10
0.041483
20
0.118552
11
0.0544958
21
0.113162
0
LINE
8
BLACK
6
CONTINUOUS
10
0.0544958
20
0.113162
11
0.0668232
21
0.106349
0
LINE
8
BLACK
6
CONTINUOUS
10
0.0668232
20
0.106349
11
0.0783103
21
0.098198
0
LINE
8
BLACK
6
CONTINUOUS
10
0.0783103
20
0.098198
11
0.0888126
21
0.0888126
0
LINE
8
BLACK
6
CONTINUOUS
10
0.0888126
20
0.0888126
11
0.098198
21
0.0783103
0
LINE
8
BLACK
6
CONTINUOUS
10
0.098198
20
0.0783103
11
0.106349
21
0.0668232
0
LINE
8
BLACK
6
CONTINUOUS
10
0.106349
20
0.0668232
11
0.113162
21
0.0544958
0
LINE
8
BLACK
6
CONTINUOUS
10
0.113162
20
0.0544958
11
0.118552
21
0.041483
0
LINE
8
BLACK
6
CONTINUOUS
10
0.118552
20
0.041483
11
0.122451
21
0.0279486
0
LINE
8
BLACK
6
CONTINUOUS
10
0.122451
20
0.0279486
11
0.12481
21
0.0140628
0
LINE
8
BLACK
6
CONTINUOUS
10
0.12481
20
0.0140628
11
0.1256
21
0
0
LINE
8
BLACK
6
CONTINUOUS
10
0.1256
20
0
11
0.12481
21
-0.0140628
0
LINE
8
BLACK
6
CONTINUOUS
10
0.12481
20
-0.0140628
11
0.122451
21
-0.0279486
0
LINE
8
BLACK
6
CONTINUOUS
10
0.122451
20
-0.0279486
11
0.118552
21
-0.041483
0
LINE
8
BLACK
6
CONTINUOUS
10
0.118552
20
-0.041483
11
0.113162
21
-0.0544958
0
LINE
8
BLACK
6
CONTINUOUS
10
0.113162
20
-0.0544958
11
0.106349
21
-0.0668232
0
LINE
8
BLACK
6
CONTINUOUS
10
0.106349
20
-0.0668232
11
0.098198
21
-0.0783103
0
LINE
8
BLACK
6
CONTINUOUS
10
0.098198
20
-0.0783103
11
0.0888126
21
-0.0888126
0
LINE
8
BLACK
6
CONTINUOUS
10
0.0888126
20
-0.0888126
11
0.0783103
21
-0.098198
0
LINE
8
BLACK
6
CONTINUOUS
10
0.0783103
20
-0.098198
11
0.0668232
21
-0.106349
0
LINE
8
BLACK
6
CONTINUOUS
10
0.0668232
20
-0.106349
11
0.0544958
21
-0.113162
0
LINE
8
BLACK
6
CONTINUOUS
10
0.0544958
20
-0.113162
11
0.041483
21
-0.118552
0
LINE
8
BLACK
6
CONTINUOUS
10
0.041483
20
-0.118552
11
0.0279486
21
-0.122451
0
LINE
8
BLACK
6
CONTINUOUS
10
0.0279486
20
-0.122451
11
0.0140628
21
-0.12481
0
LINE
8
BLACK
6
CONTINUOUS
10
0.0140628
20
-0.12481
11
0
21
-0.1256
0
LINE
8
BLACK
6
CONTINUOUS
10
0
20
-0.1256
11
-0.0140628
21
-0.12481
0
LINE
8
BLACK
6
CONTINUOUS
10
-0.0140628
20
-0.12481
11
-0.0279486
21
-0.122451
0
LINE
8
BLACK
6
CONTINUOUS
10
-0.0279486
20
-0.122451
11
-0.041483
21
-0.118552
0
LINE
8
BLACK
6
CONTINUOUS
10
-0.041483
20
-0.118552
11
-0.0544958
21
-0.113162
0
LINE
8
BLACK
6
CONTINUOUS
10
-0.0544958
20
-0.113162
11
-0.0668232
21
-0.106349
0
LINE
8
BLACK
6
CONTINUOUS
10
-0.0668232
20
-0.106349
11
-0.0783103
21
-0.098198
0
LINE
8
BLACK
6
CONTINUOUS
10
-0.0783103
20
-0.098198
11
-0.0888126
21
-0.0888126
0
LINE
8
BLACK
6
CONTINUOUS
10
-0.0888126
20
-0.0888126
11
-0.098198
21
-0.0783103
0
LINE
8
BLACK
6
CONTINUOUS
10
-0.098198
20
-0.0783103
11
-0.106349
21
-0.0668232
0
LINE
8
BLACK
6
CONTINUOUS
10
-0.106349
20
-0.0668232
11
-0.113162
21
-0.0544958
0
LINE
8
BLACK
6
CONTINUOUS
10
-0.113162
20
-0.0544958
11
-0.118552
21
-0.041483
0
LINE
8
BLACK
6
CONTINUOUS
10
-0.118552
20
-0.041483
11
-0.122451
21
-0.0279486
0
LINE
8
BLACK
6
CONTINUOUS
10
-0.122451
20
-0.0279486
11
-0.12481
21
-0.0140628
0
LINE
8
BLACK
6
CONTINUOUS
10
-0.12481
20
-0.0140628
11
-0.1256
21
0
0
LINE
8
BLACK
6
CONTINUOUS
10
-0.1256
20
0
11
-0.12481
21
0.0140628
0
LINE
8
BLACK
6
CONTINUOUS
10
-0.12481
20
0.0140628
11
-0.122451
21
0.0279486
0
LINE
8
BLACK
6
CONTINUOUS
10
-0.122451
20
0.0279486
11
-0.118552
21
0.041483
0
LINE
8
BLACK
6
CONTINUOUS
10
-0.118552
20
0.041483
11
-0.113162
21
0.0544958
0
LINE
8
BLACK
6
CONTINUOUS
10
-0.113162
20
0.0544958
11
-0.106349
21
0.0668232
0
LINE
8
BLACK
6
CONTINUOUS
10
-0.106349
20
0.0668232
11
-0.098198
21
0.0783103
0
LINE
8
BLACK
6
CONTINUOUS
10
-0.098198
20
0.0783103
11
-0.0888126
21
0.0888126
0
LINE
8
BLACK
6
CONTINUOUS
10
-0.0888126
20
0.0888126
11
-0.0783103
21
0.098198
0
LINE
8
BLACK
6
CONTINUOUS
10
-0.0783103
20
0.098198
11
-0.0668232
21
0.106349
0
LINE
8
BLACK
6
CONTINUOUS
10
-0.0668232
20
0.106349
11
-0.0544958
21
0.113162
0
LINE
8
BLACK
6
CONTINUOUS
10
-0.0544958
20
0.113162
11
-0.041483
21
0.118552
0
LINE
8
BLACK
6
CONTINUOUS
10
-0.041483
20
0.118552
11
-0.0279486
21
0.122451
0
LINE
8
BLACK
6
CONTINUOUS
10
-0.0279486
20
0.122451
11
-0.0140628
21
0.12481
0
LINE
8
BLACK
6
CONTINUOUS
10
-0.0140628
20
0.12481
11
0
21
0.1256
0
LINE
8
BLACK
6
CONTINUOUS
10
0
20
0.1256
11
0.0140628
21
0.12481
0
LINE
8
BLACK
6
CONTINUOUS
10
-0.110038
20
-0.0128617
11
-0.107801
21
-0.0255493
0
LINE
8
BLACK
6
CONTINUOUS
10
-0.107801
20
-0.0255493
11
-0.104106
21
-0.0378915
0
LINE
8
BLACK
6
CONTINUOUS
10
-0.104106
20
-0.0378915
11
-0.0990033
21
-0.0497213
0
LINE
8
BLACK
6
CONTINUOUS
10
-0.0990033
20
-0.0497213
11
-0.0925616
21
-0.0608787
0
LINE
8
BLACK
6
CONTINUOUS
10
-0.0925616
20
-0.0608787
11
-0.0848681
21
-0.0712128
0
LINE
8
BLACK
6
CONTINUOUS
10
-0.0848681
20
-0.0712128
11
-0.076027
21
-0.0805839
0
LINE
8
BLACK
6
CONTINUOUS
10
-0.076027
20
-0.0805839
11
-0.0661577
21
-0.0888652
0
LINE
8
BLACK
6
CONTINUOUS
10
-0.0661577
20
-0.0888652
11
-0.0553937
21
-0.0959447
0
LINE
8
BLACK
6
CONTINUOUS
10
-0.0553937
20
-0.0959447
11
-0.0438807
21
-0.101727
0
LINE
8
BLACK
6
CONTINUOUS
10
-0.0438807
20
-0.101727
11
-0.0317742
21
-0.106133
0
LINE
8
BLACK
6
CONTINUOUS
10
-0.0317742
20
-0.106133
11
-0.019238
21
-0.109104
0
LINE
8
BLACK
6
CONTINUOUS
10
-0.019238
20
-0.109104
11
-0.00644173
21
-0.1106
0
LINE
8
BLACK
6
CONTINUOUS
10
-0.00644173
20
-0.1106
11
0.00644173
21
-0.1106
0
LINE
8
BLACK
6
CONTINUOUS
10
0.00644173
20
-0.1106
11
0.019238
21
-0.109104
0
LINE
8
BLACK
6
CONTINUOUS
10
0.019238
20
-0.109104
11
0.0317742
21
-0.106133
0
LINE
8
BLACK
6
CONTINUOUS
10
0.0317742
20
-0.106133
11
0.0438807
21
-0.101727
0
LINE
8
BLACK
6
CONTINUOUS
10
0.0438807
20
-0.101727
11
0.0553937
21
-0.0959447
0
LINE
8
BLACK
6
CONTINUOUS
10
0.0553937
20
-0.0959447
11
0.0661577
21
-0.0888652
0
LINE
8
BLACK
6
CONTINUOUS
10
0.0661577
20
-0.0888652
11
0.076027
21
-0.0805839
0
LINE
8
BLACK
6
CONTINUOUS
10
0.076027
20
-0.0805839
11
0.0848681
21
-0.0712128
0
LINE
8
BLACK
6
CONTINUOUS
10
0.0848681
20
-0.0712128
11
0.0925616
21
-0.0608787
0
LINE
8
BLACK
6
CONTINUOUS
10
0.0925616
20
-0.0608787
11
0.0990033
21
-0.0497213
0
LINE
8
BLACK
6
CONTINUOUS
10
0.0990033
20
-0.0497213
11
0.104106
21
-0.0378915
0
LINE
8
BLACK
6
CONTINUOUS
10
0.104106
20
-0.0378915
11
0.107801
21
-0.0255493
0
LINE
8
BLACK
6
CONTINUOUS
10
0.107801
20
-0.0255493
11
0.110038
21
-0.0128617
0
LINE
8
BLACK
6
CONTINUOUS
10
0.110038
20
-0.0128617
11
0.110787
21
0
0
LINE
8
BLACK
6
CONTINUOUS
10
0.110787
20
0
11
0.110038
21
0.0128617
0
LINE
8
BLACK
6
CONTINUOUS
10
0.110038
20
0.0128617
11
0.107801
21
0.0255493
0
LINE
8
BLACK
6
CONTINUOUS
10
0.107801
20
0.0255493
11
0.104106
21
0.0378915
0
LINE
8
BLACK
6
CONTINUOUS
10
0.104106
20
0.0378915
11
0.0990033
21
0.0497213
0
LINE
8
BLACK
6
CONTINUOUS
10
0.0990033
20
0.0497213
11
0.0925616
21
0.0608787
0
LINE
8
BLACK
6
CONTINUOUS
10
0.0925616
20
0.0608787
11
0.0848681
21
0.0712128
0
LINE
8
BLACK
6
CONTINUOUS
10
0.0848681
20
0.0712128
11
0.076027
21
0.0805839
0
LINE
8
BLACK
6
CONTINUOUS
10
0.076027
20
0.0805839
11
0.0661577
21
0.0888652
0
LINE
8
BLACK
6
CONTINUOUS
10
0.0661577
20
0.0888652
11
0.0553937
21
0.0959447
0
LINE
8
BLACK
6
CONTINUOUS
10
0.0553937
20
0.0959447
11
0.0438807
21
0.101727
0
LINE
8
BLACK
6
CONTINUOUS
10
0.0438807
20
0.101727
11
0.0317742
21
0.106133
0
LINE
8
BLACK
6
CONTINUOUS
10
0.0317742
20
0.106133
11
0.019238
21
0.109104
0
LINE
8
BLACK
6
CONTINUOUS
10
0.019238
20
0.109104
11
0.00644173
21
0.1106
0
LINE
8
BLACK
6
CONTINUOUS
10
0.00644173
20
0.1106
11
-0.00644173
21
0.1106
0
LINE
8
BLACK
6
CONTINUOUS
10
-0.00644173
20
0.1106
11
-0.019238
21
0.109104
0
LINE
8
BLACK
6
CONTINUOUS
10
-0.019238
20
0.109104
11
-0.0317742
21
0.106133
0
LINE
8
BLACK
6
CONTINUOUS
10
-0.0317742
20
0.106133
11
-0.0438807
21
0.101727
0
LINE
8
BLACK
6
CONTINUOUS
10
-0.0438807
20
0.101727
11
-0.0553937
21
0.0959447
0
LINE
8
BLACK
6
CONTINUOUS
10
-0.0553937
20
0.0959447
11
-0.0661577
21
0.0888652
0
LINE
8
BLACK
6
CONTINUOUS
10
-0.0661577
20
0.0888652
11
-0.076027
21
0.0805839
0
LINE
8
BLACK
6
CONTINUOUS
10
-0.076027
20
0.0805839
11
-0.0848681
21
0.0712128
0
LINE
8
BLACK
6
CONTINUOUS
10
-0.0848681
20
0.0712128
11
-0.0925616
21
0.0608787
0
LINE
8
BLACK
6
CONTINUOUS
10
-0.0925616
20
0.0608787
11
-0.0990033
21
0.0497213
0
LINE
8
BLACK
6
CONTINUOUS
10
-0.0990033
20
0.0497213
11
-0.104106
21
0.0378915
0
LINE
8
BLACK
6
CONTINUOUS
10
-0.104106
20
0.0378915
11
-0.107801
21
0.0255493
0
LINE
8
BLACK
6
CONTINUOUS
10
-0.107801
20
0.0255493
11
-0.110038
21
0.0128617
0
LINE
8
BLACK
6
CONTINUOUS
10
-0.110038
20
0.0128617
11
-0.110787
21
0
0
LINE
8
BLACK
6
CONTINUOUS
10
-0.110787
20
0
11
-0.110038
21
-0.0128617
0
LINE
8
BLACK
6
CONTINUOUS
10
1.21406
20
0.12481
11
1.22795
21
0.122451
0
LINE
8
BLACK
6
CONTINUOUS
10
1.22795
20
0.122451
11
1.24148
21
0.118552
0
LINE
8
BLACK
6
CONTINUOUS
10
1.24148
20
0.118552
11
1.2545
21
0.113162
0
LINE
8
BLACK
6
CONTINUOUS
10
1.2545
20
0.113162
11
1.26682
21
0.106349
0
LINE
8
BLACK
6
CONTINUOUS
10
1.26682
20
0.106349
11
1.27831
21
0.098198
0
LINE
8
BLACK
6
CONTINUOUS
10
1.27831
20
0.098198
11
1.28881
21
0.0888126
0
LINE
8
BLACK
6
CONTINUOUS
10
1.28881
20
0.0888126
11
1.2982
21
0.0783103
0
LINE
8
BLACK
6
CONTINUOUS
10
1.2982
20
0.0783103
11
1.30635
21
0.0668232
0
LINE
8
BLACK
6
CONTINUOUS
10
1.30635
20
0.0668232
11
1.31316
21
0.0544958
0
LINE
8
BLACK
6
CONTINUOUS
10
1.31316
20
0.0544958
11
1.31855
21
0.041483
0
LINE
8
BLACK
6
CONTINUOUS
10
1.31855
20
0.041483
11
1.32245
21
0.0279486
0
LINE
8
BLACK
6
CONTINUOUS
10
1.32245
20
0.0279486
11
1.32481
21
0.0140628
0
LINE
8
BLACK
6
CONTINUOUS
10
1.32481
20
0.0140628
11
1.3256
21
0
0
LINE
8
BLACK
6
CONTINUOUS
10
1.3256
20
0
11
1.32481
21
-0.0140628
0
LINE
8
BLACK
6
CONTINUOUS
10
1.32481
20
-0.0140628
11
1.32245
21
-0.0279486
0
LINE
8
BLACK
6
CONTINUOUS
10
1.32245
20
-0.0279486
11
1.31855
21
-0.041483
0
LINE
8
BLACK
6
CONTINUOUS
10
1.31855
20
-0.041483
11
1.31316
21
-0.0544958
0
LINE
8
BLACK
6
CONTINUOUS
10
1.31316
20
-0.0544958
11
1.30635
21
-0.0668232
0
LINE
8
BLACK
6
CONTINUOUS
10
1.30635
20
-0.0668232
11
1.2982
21
-0.0783103
0
LINE
8
BLACK
6
CONTINUOUS
10
1.2982
20
-0.0783103
11
1.28881
21
-0.0888126
0
LINE
8
BLACK
6
CONTINUOUS
10
1.28881
20
-0.0888126
11
1.27831
21
-0.098198
0
LINE
8
BLACK
6
CONTINUOUS
10
1.27831
20
-0.098198
11
1.26682
21
-0.106349
0
LINE
8
BLACK
6
CONTINUOUS
10
1.26682
20
-0.106349
11
1.2545
21
-0.113162
0
LINE
8
BLACK
6
CONTINUOUS
10
1.2545
20
-0.113162
11
1.24148
21
-0.118552
0
LINE
8
BLACK
6
CONTINUOUS
10
1.24148
20
-0.118552
11
1.22795
21
-0.122451
0
LINE
8
BLACK
6
CONTINUOUS
10
1.22795
20
-0.122451
11
1.21406
21
-0.12481
0
LINE
8
BLACK
6
CONTINUOUS
10
1.21406
20
-0.12481
11
1.2
21
-0.1256
0
LINE
8
BLACK
6
CONTINUOUS
10
1.2
20
-0.1256
11
1.18594
21
-0.12481
0
LINE
8
BLACK
6
CONTINUOUS
10
1.18594
20
-0.12481
11
1.17205
21
-0.122451
0
LINE
8
BLACK
6
CONTINUOUS
10
1.17205
20
-0.122451
11
1.15852
21
-0.118552
0
LINE
8
BLACK
6
CONTINUOUS
10
1.15852
20
-0.118552
11
1.1455
21
-0.113162
0
LINE
8
BLACK
6
CONTINUOUS
10
1.1455
20
-0.113162
11
1.13318
21
-0.106349
0
LINE
8
BLACK
6
CONTINUOUS
10
1.13318
20
-0.106349
11
1.12169
21
-0.098198
0
LINE
8
BLACK
6
CONTINUOUS
10
1.12169
20
-0.098198
11
1.11119
21
-0.0888126
0
LINE
8
BLACK
6
CONTINUOUS
10
1.11119
20
-0.0888126
11
1.1018
21
-0.0783103
0
LINE
8
BLACK
6
CONTINUOUS
10
1.1018
20
-0.0783103
11
1.09365
21
-0.0668232
0
LINE
8
BLACK
6
CONTINUOUS
10
1.09365
20
-0.0668232
11
1.08684
21
-0.0544958
0
LINE
8
BLACK
6
CONTINUOUS
10
1.08684
20
-0.0544958
11
1.08145
21
-0.041483
0
LINE
8
BLACK
6
CONTINUOUS
10
1.08145
20
-0.041483
11
1.07755
21
-0.0279486
0
LINE
8
BLACK
6
CONTINUOUS
10
1.07755
20
-0.0279486
11
1.07519
21
-0.0140628
0
LINE
8
BLACK
6
CONTINUOUS
10
1.07519
20
-0.0140628
11
1.0744
21
0
0
LINE
8
BLACK
6
CONTINUOUS
10
1.0744
20
0
11
1.07519
21
0.0140628
0
LINE
8
BLACK
6
CONTINUOUS
10
1.07519
20
0.0140628
11
1.07755
21
0.0279486
0
LINE
8
BLACK
6
CONTINUOUS
10
1.07755
20
0.0279486
11
1.08145
21
0.041483
0
LINE
8
BLACK
6
CONTINUOUS
10
1.08145
20
0.041483
11
1.08684
21
0.0544958
0
LINE
8
BLACK
6
CONTINUOUS
10
1.08684
20
0.0544958
11
1.09365
21
0.0668232
0
LINE
8
BLACK
6
CONTINUOUS
10
1.09365
20
0.0668232
11
1.1018
21
0.0783103
0
LINE
8
BLACK
6
CONTINUOUS
10
1.1018
20
0.0783103
11
1.11119
21
0.0888126
0
LINE
8
BLACK
6
CONTINUOUS
10
1.11119
20
0.0888126
11
1.12169
21
0.098198
0
LINE
8
BLACK
6
CONTINUOUS
10
1.12169
20
0.098198
11
1.13318
21
0.106349
0
LINE
8
BLACK
6
CONTINUOUS
10
1.13318
20
0.106349
11
1.1455
21
0.113162
0
LINE
8
BLACK
6
CONTINUOUS
10
1.1455
20
0.113162
11
1.15852
21
0.118552
0
LINE
8
BLACK
6
CONTINUOUS
10
1.15852
20
0.118552
11
1.17205
21
0.122451
0
LINE
8
BLACK
6
CONTINUOUS
10
1.17205
20
0.122451
11
1.18594
21
0.12481
0
LINE
8
BLACK
6
CONTINUOUS
10
1.18594
20
0.12481
11
1.2
21
0.1256
0
LINE
8
BLACK
6
CONTINUOUS
10
1.2
20
0.1256
11
1.21406
21
0.12481
0
LINE
8
BLACK
6
CONTINUOUS
10
1.08996
20
-0.0128617
11
1.0922
21
-0.0255493
0
LINE
8
BLACK
6
CONTINUOUS
10
1.0922
20
-0.0255493
11
1.09589
21
-0.0378915
0
LINE
8
BLACK
6
CONTINUOUS
10
1.09589
20
-0.0378915
11
1.101
21
-0.0497213
0
LINE
8
BLACK
6
CONTINUOUS
10
1.101
20
-0.0497213
11
1.10744
21
-0.0608787
0
LINE
8
BLACK
6
CONTINUOUS
10
1.10744
20
-0.0608787
11
1.11513
21
-0.0712128
0
LINE
8
BLACK
6
CONTINUOUS
10
1.11513
20
-0.0712128
11
1.12397
21
-0.0805839
0
LINE
8
BLACK
6
CONTINUOUS
10
1.12397
20
-0.0805839
11
1.13384
21
-0.0888652
0
LINE
8
BLACK
6
CONTINUOUS
10
1.13384
20
-0.0888652
11
1.14461
21
-0.0959447
0
LINE
8
BLACK
6
CONTINUOUS
10
1.14461
20
-0.0959447
11
1.15612
21
-0.101727
0
LINE
8
BLACK
6
CONTINUOUS
10
1.15612
20
-0.101727
11
1.16823
21
-0.106133
0
LINE
8
BLACK
6
CONTINUOUS
10
1.16823
20
-0.106133
11
1.18076
21
-0.109104
0
LINE
8
BLACK
6
CONTINUOUS
10
1.18076
20
-0.109104
11
1.19356
21
-0.1106
0
LINE
8
BLACK
6
CONTINUOUS
10
1.19356
20
-0.1106
11
1.20644
21
-0.1106
0
LINE
8
BLACK
6
CONTINUOUS
10
1.20644
20
-0.1106
11
1.21924
21
-0.109104
0
LINE
8
BLACK
6
CONTINUOUS
10
1.21924
20
-0.109104
11
1.23177
21
-0.106133
0
LINE
8
BLACK
6
CONTINUOUS
10
1.23177
20
-0.106133
11
1.24388
21
-0.101727
0
LINE
8
BLACK
6
CONTINUOUS
10
1.24388
20
-0.101727
11
1.25539
21
-0.0959447
0
LINE
8
BLACK
6
CONTINUOUS
10
1.25539
20
-0.0959447
11
1.26616
21
-0.0888652
0
LINE
8
BLACK
6
CONTINUOUS
10
1.26616
20
-0.0888652
11
1.27603
21
-0.0805839
0
LINE
8
BLACK
6
CONTINUOUS
10
1.27603
20
-0.0805839
11
1.28487
21
-0.0712128
0
LINE
8
BLACK
6
CONTINUOUS
10
1.28487
20
-0.0712128
11
1.29256
21
-0.0608787
0
LINE
8
BLACK
6
CONTINUOUS
10
1.29256
20
-0.0608787
11
1.299
21
-0.0497213
0
LINE
8
BLACK
6
CONTINUOUS
10
1.299
20
-0.0497213
11
1.30411
21
-0.0378915
0
LINE
8
BLACK
6
CONTINUOUS
10
1.30411
20
-0.0378915
11
1.3078
21
-0.0255493
0
LINE
8
BLACK
6
CONTINUOUS
10
1.3078
20
-0.0255493
11
1.31004
21
-0.0128617
0
LINE
8
BLACK
6
CONTINUOUS
10
1.31004
20
-0.0128617
11
1.31079
21
0
0
LINE
8
BLACK
6
CONTINUOUS
10
1.31079
20
0
11
1.31004
21
0.0128617
0
LINE
8
BLACK
6
CONTINUOUS
10
1.31004
20
0.0128617
11
1.3078
21
0.0255493
0
LINE
8
BLACK
6
CONTINUOUS
10
1.3078
20
0.0255493
11
1.30411
21
0.0378915
0
LINE
8
BLACK
6
CONTINUOUS
10
1.30411
20
0.0378915
11
1.299
21
0.0497213
0
LINE
8
BLACK
6
CONTINUOUS
10
1.299
20
0.0497213
11
1.29256
21
0.0608787
0
LINE
8
BLACK
6
CONTINUOUS
10
1.29256
20
0.0608787
11
1.28487
21
0.0712128
0
LINE
8
BLACK
6
CONTINUOUS
10
1.28487
20
0.0712128
11
1.27603
21
0.0805839
0
LINE
8
BLACK
6
CONTINUOUS
10
1.27603
20
0.0805839
11
1.26616
21
0.0888652
0
LINE
8
BLACK
6
CONTINUOUS
10
1.26616
20
0.0888652
11
1.25539
21
0.0959447
0
LINE
8
BLACK
6
CONTINUOUS
10
1.25539
20
0.0959447
11
1.24388
21
0.101727
0
LINE
8
BLACK
6
CONTINUOUS
10
1.24388
20
0.101727
11
1.23177
21
0.106133
0
LINE
8
BLACK
6
CONTINUOUS
10
1.23177
20
0.106133
11
1.21924
21
0.109104
0
LINE
8
BLACK
6
CONTINUOUS
10
1.21924
20
0.109104
11
1.20644
21
0.1106
0
LINE
8
BLACK
6
CONTINUOUS
10
1.20644
20
0.1106
11
1.19356
21
0.1106
0
LINE
8
BLACK
6
CONTINUOUS
10
1.19356
20
0.1106
11
1.18076
21
0.109104
0
LINE
8
BLACK
6
CONTINUOUS
10
1.18076
20
0.109104
11
1.16823
21
0.106133
0
LINE
8
BLACK
6
CONTINUOUS
10
1.16823
20
0.106133
11
1.15612
21
0.101727
0
LINE
8
BLACK
6
CONTINUOUS
10
1.15612
20
0.101727
11
1.14461
21
0.0959447
0
LINE
8
BLACK
6
CONTINUOUS
10
1.14461
20
0.0959447
11
1.13384
21
0.0888652
0
LINE
8
BLACK
6
CONTINUOUS
10
1.13384
20
0.0888652
11
1.12397
21
0.0805839
0
LINE
8
BLACK
6
CONTINUOUS
10
1.12397
20
0.0805839
11
1.11513
21
0.0712128
0
LINE
8
BLACK
6
CONTINUOUS
10
1.11513
20
0.0712128
11
1.10744
21
0.0608787
0
LINE
8
BLACK
6
CONTINUOUS
10
1.10744
20
0.0608787
11
1.101
21
0.0497213
0
LINE
8
BLACK
6
CONTINUOUS
10
1.101
20
0.0497213
11
1.09589
21
0.0378915
0
LINE
8
BLACK
6
CONTINUOUS
10
1.09589
20
0.0378915
11
1.0922
21
0.0255493
0
LINE
8
BLACK
6
CONTINUOUS
10
1.0922
20
0.0255493
11
1.08996
21
0.0128617
0
LINE
8
BLACK
6
CONTINUOUS
10
1.08996
20
0.0128617
11
1.08921
21
0
0
LINE
8
BLACK
6
CONTINUOUS
10
1.08921
20
0
11
1.08996
21
-0.0128617
0
LINE
8
BLACK
6
CONTINUOUS
10
0.700384
20
0.102885
11
0.700513
21
0.102908
0
LINE
8
BLACK
6
CONTINUOUS
10
0.700513
20
0.102908
11
0.700626
21
0.102842
0
LINE
8
BLACK
6
CONTINUOUS
10
0.700626
20
0.102842
11
0.70101
21
0.102775
0
LINE
8
BLACK
6
CONTINUOUS
10
0.70101
20
0.102775
11
0.701598
21
0.102282
0
LINE
8
BLACK
6
CONTINUOUS
10
0.701598
20
0.102282
11
0.702262
21
0.101898
0
LINE
8
BLACK
6
CONTINUOUS
10
0.702262
20
0.101898
11
0.702353
21
0.101648
0
LINE
8
BLACK
6
CONTINUOUS
10
0.702353
20
0.101648
11
0.702557
21
0.101476
0
LINE
8
BLACK
6
CONTINUOUS
10
0.702557
20
0.101476
11
0.70269
21
0.100721
0
LINE
8
BLACK
6
CONTINUOUS
10
0.70269
20
0.100721
11
0.702953
21
0.1
0
LINE
8
BLACK
6
CONTINUOUS
10
0.702953
20
0.1
11
0.702953
21
-0.1
0
LINE
8
BLACK
6
CONTINUOUS
10
0.702953
20
-0.1
11
0.702885
21
-0.100384
0
LINE
8
BLACK
6
CONTINUOUS
10
0.702885
20
-0.100384
11
0.702908
21
-0.100513
0
LINE
8
BLACK
6
CONTINUOUS
10
0.702908
20
-0.100513
11
0.702842
21
-0.100626
0
LINE
8
BLACK
6
CONTINUOUS
10
0.702842
20
-0.100626
11
0.702775
21
-0.10101
0
LINE
8
BLACK
6
CONTINUOUS
10
0.702775
20
-0.10101
11
0.702282
21
-0.101598
0
LINE
8
BLACK
6
CONTINUOUS
10
0.702282
20
-0.101598
11
0.701898
21
-0.102262
0
LINE
8
BLACK
6
CONTINUOUS
10
0.701898
20
-0.102262
11
0.701648
21
-0.102353
0
LINE
8
BLACK
6
CONTINUOUS
10
0.701648
20
-0.102353
11
0.701476
21
-0.102557
0
LINE
8
BLACK
6
CONTINUOUS
10
0.701476
20
-0.102557
11
0.700721
21
-0.10269
0
LINE
8
BLACK
6
CONTINUOUS
10
0.700721
20
-0.10269
11
0.7
21
-0.102953
0
LINE
8
BLACK
6
CONTINUOUS
10
0.7
20
-0.102953
11
0.4
21
-0.102953
0
LINE
8
BLACK
6
CONTINUOUS
10
0.4
20
-0.102953
11
0.399616
21
-0.102885
0
LINE
8
BLACK
6
CONTINUOUS
10
0.399616
20
-0.102885
11
0.399487
21
-0.102908
0
LINE
8
BLACK
6
CONTINUOUS
10
0.399487
20
-0.102908
11
0.399374
21
-0.102842
0
LINE
8
BLACK
6
CONTINUOUS
10
0.399374
20
-0.102842
11
0.39899
21
-0.102775
0
LINE
8
BLACK
6
CONTINUOUS
10
0.39899
20
-0.102775
11
0.398402
21
-0.102282
0
LINE
8
BLACK
6
CONTINUOUS
10
0.398402
20
-0.102282
11
0.397738
21
-0.101898
0
LINE
8
BLACK
6
CONTINUOUS
10
0.397738
20
-0.101898
11
0.397647
21
-0.101648
0
LINE
8
BLACK
6
CONTINUOUS
10
0.397647
20
-0.101648
11
0.397443
21
-0.101476
0
LINE
8
BLACK
6
CONTINUOUS
10
0.397443
20
-0.101476
11
0.39731
21
-0.100721
0
LINE
8
BLACK
6
CONTINUOUS
10
0.39731
20
-0.100721
11
0.397047
21
-0.1
0
LINE
8
BLACK
6
CONTINUOUS
10
0.397047
20
-0.1
11
0.397047
21
0.1
0
LINE
8
BLACK
6
CONTINUOUS
10
0.397047
20
0.1
11
0.397115
21
0.100384
0
LINE
8
BLACK
6
CONTINUOUS
10
0.397115
20
0.100384
11
0.397092
21
0.100513
0
LINE
8
BLACK
6
CONTINUOUS
10
0.397092
20
0.100513
11
0.397158
21
0.100626
0
LINE
8
BLACK
6
CONTINUOUS
10
0.397158
20
0.100626
11
0.397225
21
0.10101
0
LINE
8
BLACK
6
CONTINUOUS
10
0.397225
20
0.10101
11
0.397718
21
0.101598
0
LINE
8
BLACK
6
CONTINUOUS
10
0.397718
20
0.101598
11
0.398102
21
0.102262
0
LINE
8
BLACK
6
CONTINUOUS
10
0.398102
20
0.102262
11
0.398352
21
0.102353
0
LINE
8
BLACK
6
CONTINUOUS
10
0.398352
20
0.102353
11
0.398524
21
0.102557
0
LINE
8
BLACK
6
CONTINUOUS
10
0.398524
20
0.102557
11
0.399279
21
0.10269
0
LINE
8
BLACK
6
CONTINUOUS
10
0.399279
20
0.10269
11
0.4
21
0.102953
0
LINE
8
BLACK
6
CONTINUOUS
10
0.4
20
0.102953
11
0.7
21
0.102953
0
LINE
8
BLACK
6
CONTINUOUS
10
0.7
20
0.102953
11
0.700384
21
0.102885
0
LINE
8
BLACK
6
CONTINUOUS
10
0.402953
20
0.0970472
11
0.402953
21
-0.0970472
0
LINE
8
BLACK
6
CONTINUOUS
10
0.402953
20
-0.0970472
11
0.697047
21
-0.0970472
0
LINE
8
BLACK
6
CONTINUOUS
10
0.697047
20
-0.0970472
11
0.697047
21
0.0970472
0
LINE
8
BLACK
6
CONTINUOUS
10
0.697047
20
0.0970472
11
0.402953
21
0.0970472
0
LINE
8
BLACK
6
CONTINUOUS
10
1.05038
20
0.102885
11
1.05051
21
0.102908
0
LINE
8
BLACK
6
CONTINUOUS
10
1.05051
20
0.102908
11
1.05063
21
0.102842
0
LINE
8
BLACK
6
CONTINUOUS
10
1.05063
20
0.102842
11
1.05101
21
0.102775
0
LINE
8
BLACK
6
CONTINUOUS
10
1.05101
20
0.102775
11
1.0516
21
0.102282
0
LINE
8
BLACK
6
CONTINUOUS
10
1.0516
20
0.102282
11
1.05226
21
0.101898
0
LINE
8
BLACK
6
CONTINUOUS
10
1.05226
20
0.101898
11
1.05235
21
0.101648
0
LINE
8
BLACK
6
CONTINUOUS
10
1.05235
20
0.101648
11
1.05256
21
0.101476
0
LINE
8
BLACK
6
CONTINUOUS
10
1.05256
20
0.101476
11
1.05269
21
0.100721
0
LINE
8
BLACK
6
CONTINUOUS
10
1.05269
20
0.100721
11
1.05295
21
0.1
0
LINE
8
BLACK
6
CONTINUOUS
10
1.05295
20
0.1
11
1.05295
21
-0.1
0
LINE
8
BLACK
6
CONTINUOUS
10
1.05295
20
-0.1
11
1.05289
21
-0.100384
0
LINE
8
BLACK
6
CONTINUOUS
10
1.05289
20
-0.100384
11
1.05291
21
-0.100513
0
LINE
8
BLACK
6
CONTINUOUS
10
1.05291
20
-0.100513
11
1.05284
21
-0.100626
0
LINE
8
BLACK
6
CONTINUOUS
10
1.05284
20
-0.100626
11
1.05277
21
-0.10101
0
LINE
8
BLACK
6
CONTINUOUS
10
1.05277
20
-0.10101
11
1.05228
21
-0.101598
0
LINE
8
BLACK
6
CONTINUOUS
10
1.05228
20
-0.101598
11
1.0519
21
-0.102262
0
LINE
8
BLACK
6
CONTINUOUS
10
1.0519
20
-0.102262
11
1.05165
21
-0.102353
0
LINE
8
BLACK
6
CONTINUOUS
10
1.05165
20
-0.102353
11
1.05148
21
-0.102557
0
LINE
8
BLACK
6
CONTINUOUS
10
1.05148
20
-0.102557
11
1.05072
21
-0.10269
0
LINE
8
BLACK
6
CONTINUOUS
10
1.05072
20
-0.10269
11
1.05
21
-0.102953
0
LINE
8
BLACK
6
CONTINUOUS
10
1.05
20
-0.102953
11
0.75
21
-0.102953
0
LINE
8
BLACK
6
CONTINUOUS
10
0.75
20
-0.102953
11
0.749616
21
-0.102885
0
LINE
8
BLACK
6
CONTINUOUS
10
0.749616
20
-0.102885
11
0.749487
21
-0.102908
0
LINE
8
BLACK
6
CONTINUOUS
10
0.749487
20
-0.102908
11
0.749374
21
-0.102842
0
LINE
8
BLACK
6
CONTINUOUS
10
0.749374
20
-0.102842
11
0.74899
21
-0.102775
0
LINE
8
BLACK
6
CONTINUOUS
10
0.74899
20
-0.102775
11
0.748402
21
-0.102282
0
LINE
8
BLACK
6
CONTINUOUS
10
0.748402
20
-0.102282
11
0.747738
21
-0.101898
0
LINE
8
BLACK
6
CONTINUOUS
10
0.747738
20
-0.101898
11
0.747647
21
-0.101648
0
LINE
8
BLACK
6
CONTINUOUS
10
0.747647
20
-0.101648
11
0.747443
21
-0.101476
0
LINE
8
BLACK
6
CONTINUOUS
10
0.747443
20
-0.101476
11
0.74731
21
-0.100721
0
LINE
8
BLACK
6
CONTINUOUS
10
0.74731
20
-0.100721
11
0.747047
21
-0.1
0
LINE
8
BLACK
6
CONTINUOUS
10
0.747047
20
-0.1
11
0.747047
21
0.1
0
LINE
8
BLACK
6
CONTINUOUS
10
0.747047
20
0.1
11
0.747115
21
0.100384
0
LINE
8
BLACK
6
CONTINUOUS
10
0.747115
20
0.100384
11
0.747092
21
0.100513
0
LINE
8
BLACK
6
CONTINUOUS
10
0.747092
20
0.100513
11
0.747158
21
0.100626
0
LINE
8
BLACK
6
CONTINUOUS
10
0.747158
20
0.100626
11
0.747225
21
0.10101
0
LINE
8
BLACK
6
CONTINUOUS
10
0.747225
20
0.10101
11
0.747718
21
0.101598
0
LINE
8
BLACK
6
CONTINUOUS
10
0.747718
20
0.101598
11
0.748102
21
0.102262
0
LINE
8
BLACK
6
CONTINUOUS
10
0.748102
20
0.102262
11
0.748352
21
0.102353
0
LINE
8
BLACK
6
CONTINUOUS
10
0.748352
20
0.102353
11
0.748524
21
0.102557
0
LINE
8
BLACK
6
CONTINUOUS
10
0.748524
20
0.102557
11
0.749279
21
0.10269
0
LINE
8
BLACK
6
CONTINUOUS
10
0.749279
20
0.10269
11
0.75
21
0.102953
0
LINE
8
BLACK
6
CONTINUOUS
10
0.75
20
0.102953
11
1.05
21
0.102953
0
LINE
8
BLACK
6
CONTINUOUS
10
1.05
20
0.102953
11
1.05038
21
0.102885
0
LINE
8
BLACK
6
CONTINUOUS
10
0.752953
20
0.0970472
11
0.752953
21
-0.0970472
0
LINE
8
BLACK
6
CONTINUOUS
10
0.752953
20
-0.0970472
11
1.04705
21
-0.0970472
0
LINE
8
BLACK
6
CONTINUOUS
10
1.04705
20
-0.0970472
11
1.04705
21
0.0970472
0
LINE
8
BLACK
6
CONTINUOUS
10
1.04705
20
0.0970472
11
0.752953
21
0.0970472
0
LINE
8
BLACK
6
CONTINUOUS
10
0.344341
20
0.021925
11
0.345134
21
0.0200676
0
LINE
8
BLACK
6
CONTINUOUS
10
0.345134
20
0.0200676
11
0.344548
21
0.0181346
0
LINE
8
BLACK
6
CONTINUOUS
10
0.344548
20
0.0181346
11
0.329212
21
-0.00231382
0
LINE
8
BLACK
6
CONTINUOUS
10
0.329212
20
-0.00231382
11
0.344274
21
-0.0173759
0
LINE
8
BLACK
6
CONTINUOUS
10
0.344274
20
-0.0173759
11
0.344862
21
-0.0182159
0
LINE
8
BLACK
6
CONTINUOUS
10
0.344862
20
-0.0182159
11
0.345038
21
-0.020228
0
LINE
8
BLACK
6
CONTINUOUS
10
0.345038
20
-0.020228
11
0.34388
21
-0.0218826
0
LINE
8
BLACK
6
CONTINUOUS
10
0.34388
20
-0.0218826
11
0.341929
21
-0.0224053
0
LINE
8
BLACK
6
CONTINUOUS
10
0.341929
20
-0.0224053
11
0.340098
21
-0.0215517
0
LINE
8
BLACK
6
CONTINUOUS
10
0.340098
20
-0.0215517
11
0.322642
21
-0.0040952
0
LINE
8
BLACK
6
CONTINUOUS
10
0.322642
20
-0.0040952
11
0.322642
21
-0.0194638
0
LINE
8
BLACK
6
CONTINUOUS
10
0.322642
20
-0.0194638
11
0.322463
21
-0.0204737
0
LINE
8
BLACK
6
CONTINUOUS
10
0.322463
20
-0.0204737
11
0.321165
21
-0.0220209
0
LINE
8
BLACK
6
CONTINUOUS
10
0.321165
20
-0.0220209
11
0.319176
21
-0.0223717
0
LINE
8
BLACK
6
CONTINUOUS
10
0.319176
20
-0.0223717
11
0.317427
21
-0.0213618
0
LINE
8
BLACK
6
CONTINUOUS
10
0.317427
20
-0.0213618
11
0.316736
21
-0.0194638
0
LINE
8
BLACK
6
CONTINUOUS
10
0.316736
20
-0.0194638
11
0.316736
21
0.0199063
0
LINE
8
BLACK
6
CONTINUOUS
10
0.316736
20
0.0199063
11
0.316914
21
0.0209162
0
LINE
8
BLACK
6
CONTINUOUS
10
0.316914
20
0.0209162
11
0.318212
21
0.0224635
0
LINE
8
BLACK
6
CONTINUOUS
10
0.318212
20
0.0224635
11
0.320202
21
0.0228142
0
LINE
8
BLACK
6
CONTINUOUS
10
0.320202
20
0.0228142
11
0.321951
21
0.0218043
0
LINE
8
BLACK
6
CONTINUOUS
10
0.321951
20
0.0218043
11
0.322642
21
0.0199063
0
LINE
8
BLACK
6
CONTINUOUS
10
0.322642
20
0.0199063
11
0.322642
21
0.00425646
0
LINE
8
BLACK
6
CONTINUOUS
10
0.322642
20
0.00425646
11
0.324994
21
0.00190441
0
LINE
8
BLACK
6
CONTINUOUS
10
0.324994
20
0.00190441
11
0.339824
21
0.021678
0
LINE
8
BLACK
6
CONTINUOUS
10
0.339824
20
0.021678
11
0.340572
21
0.0223791
0
LINE
8
BLACK
6
CONTINUOUS
10
0.340572
20
0.0223791
11
0.342539
21
0.0228379
0
LINE
8
BLACK
6
CONTINUOUS
10
0.342539
20
0.0228379
11
0.344341
21
0.021925
0
LINE
8
BLACK
6
CONTINUOUS
10
0.132997
20
0.417574
11
0.133688
21
0.415676
0
LINE
8
BLACK
6
CONTINUOUS
10
0.133688
20
0.415676
11
0.133688
21
0.387555
0
LINE
8
BLACK
6
CONTINUOUS
10
0.133688
20
0.387555
11
0.133534
21
0.386686
0
LINE
8
BLACK
6
CONTINUOUS
10
0.133534
20
0.386686
11
0.133536
21
0.386621
0
LINE
8
BLACK
6
CONTINUOUS
10
0.133536
20
0.386621
11
0.131661
21
0.380997
0
LINE
8
BLACK
6
CONTINUOUS
10
0.131661
20
0.380997
11
0.131173
21
0.380095
0
LINE
8
BLACK
6
CONTINUOUS
10
0.131173
20
0.380095
11
0.131023
21
0.380003
0
LINE
8
BLACK
6
CONTINUOUS
10
0.131023
20
0.380003
11
0.130948
21
0.379843
0
LINE
8
BLACK
6
CONTINUOUS
10
0.130948
20
0.379843
11
0.127199
21
0.376093
0
LINE
8
BLACK
6
CONTINUOUS
10
0.127199
20
0.376093
11
0.126358
21
0.375505
0
LINE
8
BLACK
6
CONTINUOUS
10
0.126358
20
0.375505
11
0.126183
21
0.37549
0
LINE
8
BLACK
6
CONTINUOUS
10
0.126183
20
0.37549
11
0.126044
21
0.37538
0
LINE
8
BLACK
6
CONTINUOUS
10
0.126044
20
0.37538
11
0.12042
21
0.373505
0
LINE
8
BLACK
6
CONTINUOUS
10
0.12042
20
0.373505
11
0.119547
21
0.373376
0
LINE
8
BLACK
6
CONTINUOUS
10
0.119547
20
0.373376
11
0.119486
21
0.373354
0
LINE
8
BLACK
6
CONTINUOUS
10
0.119486
20
0.373354
11
0.115737
21
0.373354
0
LINE
8
BLACK
6
CONTINUOUS
10
0.115737
20
0.373354
11
0.114727
21
0.373532
0
LINE
8
BLACK
6
CONTINUOUS
10
0.114727
20
0.373532
11
0.11318
21
0.37483
0
LINE
8
BLACK
6
CONTINUOUS
10
0.11318
20
0.37483
11
0.112829
21
0.376819
0
LINE
8
BLACK
6
CONTINUOUS
10
0.112829
20
0.376819
11
0.113839
21
0.378568
0
LINE
8
BLACK
6
CONTINUOUS
10
0.113839
20
0.378568
11
0.115737
21
0.379259
0
LINE
8
BLACK
6
CONTINUOUS
10
0.115737
20
0.379259
11
0.119007
21
0.379259
0
LINE
8
BLACK
6
CONTINUOUS
10
0.119007
20
0.379259
11
0.123516
21
0.380762
0
LINE
8
BLACK
6
CONTINUOUS
10
0.123516
20
0.380762
11
0.126279
21
0.383526
0
LINE
8
BLACK
6
CONTINUOUS
10
0.126279
20
0.383526
11
0.127782
21
0.388034
0
LINE
8
BLACK
6
CONTINUOUS
10
0.127782
20
0.388034
11
0.127782
21
0.415676
0
LINE
8
BLACK
6
CONTINUOUS
10
0.127782
20
0.415676
11
0.12796
21
0.416686
0
LINE
8
BLACK
6
CONTINUOUS
10
0.12796
20
0.416686
11
0.129259
21
0.418234
0
LINE
8
BLACK
6
CONTINUOUS
10
0.129259
20
0.418234
11
0.131248
21
0.418584
0
LINE
8
BLACK
6
CONTINUOUS
10
0.131248
20
0.418584
11
0.132997
21
0.417574
0
LINE
8
BLACK
6
CONTINUOUS
10
0.159202
20
0.418555
11
0.159369
21
0.418584
0
LINE
8
BLACK
6
CONTINUOUS
10
0.159369
20
0.418584
11
0.160111
21
0.418156
0
LINE
8
BLACK
6
CONTINUOUS
10
0.160111
20
0.418156
11
0.160896
21
0.417812
0
LINE
8
BLACK
6
CONTINUOUS
10
0.160896
20
0.417812
11
0.160971
21
0.417659
0
LINE
8
BLACK
6
CONTINUOUS
10
0.160971
20
0.417659
11
0.161118
21
0.417574
0
LINE
8
BLACK
6
CONTINUOUS
10
0.161118
20
0.417574
11
0.161411
21
0.416769
0
LINE
8
BLACK
6
CONTINUOUS
10
0.161411
20
0.416769
11
0.161791
21
0.416001
0
LINE
8
BLACK
6
CONTINUOUS
10
0.161791
20
0.416001
11
0.161751
21
0.415836
0
LINE
8
BLACK
6
CONTINUOUS
10
0.161751
20
0.415836
11
0.161809
21
0.415676
0
LINE
8
BLACK
6
CONTINUOUS
10
0.161809
20
0.415676
11
0.161809
21
0.379259
0
LINE
8
BLACK
6
CONTINUOUS
10
0.161809
20
0.379259
11
0.170105
21
0.379259
0
LINE
8
BLACK
6
CONTINUOUS
10
0.170105
20
0.379259
11
0.171115
21
0.379081
0
LINE
8
BLACK
6
CONTINUOUS
10
0.171115
20
0.379081
11
0.172662
21
0.377783
0
LINE
8
BLACK
6
CONTINUOUS
10
0.172662
20
0.377783
11
0.173013
21
0.375794
0
LINE
8
BLACK
6
CONTINUOUS
10
0.173013
20
0.375794
11
0.172003
21
0.374044
0
LINE
8
BLACK
6
CONTINUOUS
10
0.172003
20
0.374044
11
0.170105
21
0.373354
0
LINE
8
BLACK
6
CONTINUOUS
10
0.170105
20
0.373354
11
0.147608
21
0.373354
0
LINE
8
BLACK
6
CONTINUOUS
10
0.147608
20
0.373354
11
0.146598
21
0.373532
0
LINE
8
BLACK
6
CONTINUOUS
10
0.146598
20
0.373532
11
0.145051
21
0.37483
0
LINE
8
BLACK
6
CONTINUOUS
10
0.145051
20
0.37483
11
0.1447
21
0.376819
0
LINE
8
BLACK
6
CONTINUOUS
10
0.1447
20
0.376819
11
0.14571
21
0.378568
0
LINE
8
BLACK
6
CONTINUOUS
10
0.14571
20
0.378568
11
0.147608
21
0.379259
0
LINE
8
BLACK
6
CONTINUOUS
10
0.147608
20
0.379259
11
0.155904
21
0.379259
0
LINE
8
BLACK
6
CONTINUOUS
10
0.155904
20
0.379259
11
0.155904
21
0.406673
0
LINE
8
BLACK
6
CONTINUOUS
10
0.155904
20
0.406673
11
0.153445
21
0.404215
0
LINE
8
BLACK
6
CONTINUOUS
10
0.153445
20
0.404215
11
0.152722
21
0.403708
0
LINE
8
BLACK
6
CONTINUOUS
10
0.152722
20
0.403708
11
0.152678
21
0.403662
0
LINE
8
BLACK
6
CONTINUOUS
10
0.152678
20
0.403662
11
0.148928
21
0.401787
0
LINE
8
BLACK
6
CONTINUOUS
10
0.148928
20
0.401787
11
0.147945
21
0.401494
0
LINE
8
BLACK
6
CONTINUOUS
10
0.147945
20
0.401494
11
0.145981
21
0.401964
0
LINE
8
BLACK
6
CONTINUOUS
10
0.145981
20
0.401964
11
0.144778
21
0.403586
0
LINE
8
BLACK
6
CONTINUOUS
10
0.144778
20
0.403586
11
0.144899
21
0.405602
0
LINE
8
BLACK
6
CONTINUOUS
10
0.144899
20
0.405602
11
0.146287
21
0.407069
0
LINE
8
BLACK
6
CONTINUOUS
10
0.146287
20
0.407069
11
0.149608
21
0.408729
0
LINE
8
BLACK
6
CONTINUOUS
10
0.149608
20
0.408729
11
0.152812
21
0.411933
0
LINE
8
BLACK
6
CONTINUOUS
10
0.152812
20
0.411933
11
0.1564
21
0.417314
0
LINE
8
BLACK
6
CONTINUOUS
10
0.1564
20
0.417314
11
0.157108
21
0.418056
0
LINE
8
BLACK
6
CONTINUOUS
10
0.157108
20
0.418056
11
0.157271
21
0.418104
0
LINE
8
BLACK
6
CONTINUOUS
10
0.157271
20
0.418104
11
0.15738
21
0.418234
0
LINE
8
BLACK
6
CONTINUOUS
10
0.15738
20
0.418234
11
0.158224
21
0.418382
0
LINE
8
BLACK
6
CONTINUOUS
10
0.158224
20
0.418382
11
0.159046
21
0.418623
0
LINE
8
BLACK
6
CONTINUOUS
10
0.159046
20
0.418623
11
0.159202
21
0.418555
0
LINE
8
BLACK
6
CONTINUOUS
10
0.468661
20
0.63437
11
0.470053
21
0.633794
0
LINE
8
BLACK
6
CONTINUOUS
10
0.470053
20
0.633794
11
0.47063
21
0.632402
0
LINE
8
BLACK
6
CONTINUOUS
10
0.47063
20
0.632402
11
0.47063
21
0.195394
0
LINE
8
BLACK
6
CONTINUOUS
10
0.47063
20
0.195394
11
0.47063
21
0.195394
0
LINE
8
BLACK
6
CONTINUOUS
10
0.47063
20
0.195394
11
0.470053
21
0.194002
0
LINE
8
BLACK
6
CONTINUOUS
10
0.470053
20
0.194002
11
0.430683
21
0.154632
0
LINE
8
BLACK
6
CONTINUOUS
10
0.430683
20
0.154632
11
0.429291
21
0.154055
0
LINE
8
BLACK
6
CONTINUOUS
10
0.429291
20
0.154055
11
-0.180945
21
0.154055
0
LINE
8
BLACK
6
CONTINUOUS
10
-0.180945
20
0.154055
11
-0.182337
21
0.154632
0
LINE
8
BLACK
6
CONTINUOUS
10
-0.182337
20
0.154632
11
-0.182913
21
0.156024
0
LINE
8
BLACK
6
CONTINUOUS
10
-0.182913
20
0.156024
11
-0.182913
21
0.156024
0
LINE
8
BLACK
6
CONTINUOUS
10
-0.182913
20
0.156024
11
-0.182913
21
0.632402
0
LINE
8
BLACK
6
CONTINUOUS
10
-0.182913
20
0.632402
11
-0.182337
21
0.633794
0
LINE
8
BLACK
6
CONTINUOUS
10
-0.182337
20
0.633794
11
-0.180945
21
0.63437
0
LINE
8
BLACK
6
CONTINUOUS
10
-0.180945
20
0.63437
11
0.468661
21
0.63437
0
LINE
8
BLACK
6
CONTINUOUS
10
-0.178976
20
0.630433
11
-0.178976
21
0.157992
0
LINE
8
BLACK
6
CONTINUOUS
10
-0.178976
20
0.157992
11
0.428476
21
0.157992
0
LINE
8
BLACK
6
CONTINUOUS
10
0.428476
20
0.157992
11
0.466693
21
0.196209
0
LINE
8
BLACK
6
CONTINUOUS
10
0.466693
20
0.196209
11
0.466693
21
0.630433
0
LINE
8
BLACK
6
CONTINUOUS
10
0.466693
20
0.630433
11
-0.178976
21
0.630433
0
LINE
8
BLACK
6
CONTINUOUS
10
0.0140628
20
0.92481
11
0.0279486
21
0.922451
0
LINE
8
BLACK
6
CONTINUOUS
10
0.0279486
20
0.922451
11
0.041483
21
0.918552
0
LINE
8
BLACK
6
CONTINUOUS
10
0.041483
20
0.918552
11
0.0544958
21
0.913162
0
LINE
8
BLACK
6
CONTINUOUS
10
0.0544958
20
0.913162
11
0.0668232
21
0.906349
0
LINE
8
BLACK
6
CONTINUOUS
10
0.0668232
20
0.906349
11
0.0783103
21
0.898198
0
LINE
8
BLACK
6
CONTINUOUS
10
0.0783103
20
0.898198
11
0.0888126
21
0.888813
0
LINE
8
BLACK
6
CONTINUOUS
10
0.0888126
20
0.888813
11
0.098198
21
0.87831
0
LINE
8
BLACK
6
CONTINUOUS
10
0.098198
20
0.87831
11
0.106349
21
0.866823
0
LINE
8
BLACK
6
CONTINUOUS
10
0.106349
20
0.866823
11
0.113162
21
0.854496
0
LINE
8
BLACK
6
CONTINUOUS
10
0.113162
20
0.854496
11
0.118552
21
0.841483
0
LINE
8
BLACK
6
CONTINUOUS
10
0.118552
20
0.841483
11
0.122451
21
0.827949
0
LINE
8
BLACK
6
CONTINUOUS
10
0.122451
20
0.827949
11
0.12481
21
0.814063
0
LINE
8
BLACK
6
CONTINUOUS
10
0.12481
20
0.814063
11
0.1256
21
0.8
0
LINE
8
BLACK
6
CONTINUOUS
10
0.1256
20
0.8
11
0.12481
21
0.785937
0
LINE
8
BLACK
6
CONTINUOUS
10
0.12481
20
0.785937
11
0.122451
21
0.772051
0
LINE
8
BLACK
6
CONTINUOUS
10
0.122451
20
0.772051
11
0.122348
21
0.771692
0
LINE
8
BLACK
6
CONTINUOUS
10
0.122348
20
0.771692
11
0.123197
21
0.771233
0
LINE
8
BLACK
6
CONTINUOUS
10
0.123197
20
0.771233
11
0.124254
21
0.769512
0
LINE
8
BLACK
6
CONTINUOUS
10
0.124254
20
0.769512
11
0.123958
21
0.767514
0
LINE
8
BLACK
6
CONTINUOUS
10
0.123958
20
0.767514
11
0.122446
21
0.766174
0
LINE
8
BLACK
6
CONTINUOUS
10
0.122446
20
0.766174
11
0.120744
21
0.766127
0
LINE
8
BLACK
6
CONTINUOUS
10
0.120744
20
0.766127
11
0.118552
21
0.758517
0
LINE
8
BLACK
6
CONTINUOUS
10
0.118552
20
0.758517
11
0.116016
21
0.752396
0
LINE
8
BLACK
6
CONTINUOUS
10
0.116016
20
0.752396
11
0.118932
21
0.750938
0
LINE
8
BLACK
6
CONTINUOUS
10
0.118932
20
0.750938
11
0.119641
21
0.750412
0
LINE
8
BLACK
6
CONTINUOUS
10
0.119641
20
0.750412
11
0.119699
21
0.750385
0
LINE
8
BLACK
6
CONTINUOUS
10
0.119699
20
0.750385
11
0.121574
21
0.748511
0
LINE
8
BLACK
6
CONTINUOUS
10
0.121574
20
0.748511
11
0.12208
21
0.747787
0
LINE
8
BLACK
6
CONTINUOUS
10
0.12208
20
0.747787
11
0.122127
21
0.747743
0
LINE
8
BLACK
6
CONTINUOUS
10
0.122127
20
0.747743
11
0.124002
21
0.743994
0
LINE
8
BLACK
6
CONTINUOUS
10
0.124002
20
0.743994
11
0.124294
21
0.743011
0
LINE
8
BLACK
6
CONTINUOUS
10
0.124294
20
0.743011
11
0.124253
21
0.742839
0
LINE
8
BLACK
6
CONTINUOUS
10
0.124253
20
0.742839
11
0.124314
21
0.742673
0
LINE
8
BLACK
6
CONTINUOUS
10
0.124314
20
0.742673
11
0.124314
21
0.738924
0
LINE
8
BLACK
6
CONTINUOUS
10
0.124314
20
0.738924
11
0.124136
21
0.737914
0
LINE
8
BLACK
6
CONTINUOUS
10
0.124136
20
0.737914
11
0.124022
21
0.737778
0
LINE
8
BLACK
6
CONTINUOUS
10
0.124022
20
0.737778
11
0.124002
21
0.737603
0
LINE
8
BLACK
6
CONTINUOUS
10
0.124002
20
0.737603
11
0.122127
21
0.733854
0
LINE
8
BLACK
6
CONTINUOUS
10
0.122127
20
0.733854
11
0.121601
21
0.733144
0
LINE
8
BLACK
6
CONTINUOUS
10
0.121601
20
0.733144
11
0.121574
21
0.733086
0
LINE
8
BLACK
6
CONTINUOUS
10
0.121574
20
0.733086
11
0.119699
21
0.731211
0
LINE
8
BLACK
6
CONTINUOUS
10
0.119699
20
0.731211
11
0.118976
21
0.730705
0
LINE
8
BLACK
6
CONTINUOUS
10
0.118976
20
0.730705
11
0.118932
21
0.730658
0
LINE
8
BLACK
6
CONTINUOUS
10
0.118932
20
0.730658
11
0.115183
21
0.728783
0
LINE
8
BLACK
6
CONTINUOUS
10
0.115183
20
0.728783
11
0.1142
21
0.728491
0
LINE
8
BLACK
6
CONTINUOUS
10
0.1142
20
0.728491
11
0.114028
21
0.728532
0
LINE
8
BLACK
6
CONTINUOUS
10
0.114028
20
0.728532
11
0.113862
21
0.728472
0
LINE
8
BLACK
6
CONTINUOUS
10
0.113862
20
0.728472
11
0.104488
21
0.728472
0
LINE
8
BLACK
6
CONTINUOUS
10
0.104488
20
0.728472
11
0.103619
21
0.728625
0
LINE
8
BLACK
6
CONTINUOUS
10
0.103619
20
0.728625
11
0.103554
21
0.728623
0
LINE
8
BLACK
6
CONTINUOUS
10
0.103554
20
0.728623
11
0.103201
21
0.728741
0
LINE
8
BLACK
6
CONTINUOUS
10
0.103201
20
0.728741
11
0.098198
21
0.72169
0
LINE
8
BLACK
6
CONTINUOUS
10
0.098198
20
0.72169
11
0.0888126
21
0.711187
0
LINE
8
BLACK
6
CONTINUOUS
10
0.0888126
20
0.711187
11
0.0783103
21
0.701802
0
LINE
8
BLACK
6
CONTINUOUS
10
0.0783103
20
0.701802
11
0.0668232
21
0.693651
0
LINE
8
BLACK
6
CONTINUOUS
10
0.0668232
20
0.693651
11
0.0544958
21
0.686838
0
LINE
8
BLACK
6
CONTINUOUS
10
0.0544958
20
0.686838
11
0.041483
21
0.681448
0
LINE
8
BLACK
6
CONTINUOUS
10
0.041483
20
0.681448
11
0.0279486
21
0.677549
0
LINE
8
BLACK
6
CONTINUOUS
10
0.0279486
20
0.677549
11
0.0140628
21
0.67519
0
LINE
8
BLACK
6
CONTINUOUS
10
0.0140628
20
0.67519
11
0
21
0.6744
0
LINE
8
BLACK
6
CONTINUOUS
10
0
20
0.6744
11
-0.0140628
21
0.67519
0
LINE
8
BLACK
6
CONTINUOUS
10
-0.0140628
20
0.67519
11
-0.0279486
21
0.677549
0
LINE
8
BLACK
6
CONTINUOUS
10
-0.0279486
20
0.677549
11
-0.041483
21
0.681448
0
LINE
8
BLACK
6
CONTINUOUS
10
-0.041483
20
0.681448
11
-0.0544958
21
0.686838
0
LINE
8
BLACK
6
CONTINUOUS
10
-0.0544958
20
0.686838
11
-0.0668232
21
0.693651
0
LINE
8
BLACK
6
CONTINUOUS
10
-0.0668232
20
0.693651
11
-0.0783103
21
0.701802
0
LINE
8
BLACK
6
CONTINUOUS
10
-0.0783103
20
0.701802
11
-0.0888126
21
0.711187
0
LINE
8
BLACK
6
CONTINUOUS
10
-0.0888126
20
0.711187
11
-0.098198
21
0.72169
0
LINE
8
BLACK
6
CONTINUOUS
10
-0.098198
20
0.72169
11
-0.106349
21
0.733177
0
LINE
8
BLACK
6
CONTINUOUS
10
-0.106349
20
0.733177
11
-0.113162
21
0.745504
0
LINE
8
BLACK
6
CONTINUOUS
10
-0.113162
20
0.745504
11
-0.118552
21
0.758517
0
LINE
8
BLACK
6
CONTINUOUS
10
-0.118552
20
0.758517
11
-0.122451
21
0.772051
0
LINE
8
BLACK
6
CONTINUOUS
10
-0.122451
20
0.772051
11
-0.12481
21
0.785937
0
LINE
8
BLACK
6
CONTINUOUS
10
-0.12481
20
0.785937
11
-0.1256
21
0.8
0
LINE
8
BLACK
6
CONTINUOUS
10
-0.1256
20
0.8
11
-0.12481
21
0.814063
0
LINE
8
BLACK
6
CONTINUOUS
10
-0.12481
20
0.814063
11
-0.122451
21
0.827949
0
LINE
8
BLACK
6
CONTINUOUS
10
-0.122451
20
0.827949
11
-0.118552
21
0.841483
0
LINE
8
BLACK
6
CONTINUOUS
10
-0.118552
20
0.841483
11
-0.113162
21
0.854496
0
LINE
8
BLACK
6
CONTINUOUS
10
-0.113162
20
0.854496
11
-0.106349
21
0.866823
0
LINE
8
BLACK
6
CONTINUOUS
10
-0.106349
20
0.866823
11
-0.098198
21
0.87831
0
LINE
8
BLACK
6
CONTINUOUS
10
-0.098198
20
0.87831
11
-0.0888126
21
0.888813
0
LINE
8
BLACK
6
CONTINUOUS
10
-0.0888126
20
0.888813
11
-0.0783103
21
0.898198
0
LINE
8
BLACK
6
CONTINUOUS
10
-0.0783103
20
0.898198
11
-0.0668232
21
0.906349
0
LINE
8
BLACK
6
CONTINUOUS
10
-0.0668232
20
0.906349
11
-0.0544958
21
0.913162
0
LINE
8
BLACK
6
CONTINUOUS
10
-0.0544958
20
0.913162
11
-0.041483
21
0.918552
0
LINE
8
BLACK
6
CONTINUOUS
10
-0.041483
20
0.918552
11
-0.0279486
21
0.922451
0
LINE
8
BLACK
6
CONTINUOUS
10
-0.0279486
20
0.922451
11
-0.0140628
21
0.92481
0
LINE
8
BLACK
6
CONTINUOUS
10
-0.0140628
20
0.92481
11
0
21
0.9256
0
LINE
8
BLACK
6
CONTINUOUS
10
0
20
0.9256
11
0.0140628
21
0.92481
0
LINE
8
BLACK
6
CONTINUOUS
10
0.0842529
20
0.772693
11
0.0849437
21
0.770795
0
LINE
8
BLACK
6
CONTINUOUS
10
0.0849437
20
0.770795
11
0.0849437
21
0.738924
0
LINE
8
BLACK
6
CONTINUOUS
10
0.0849437
20
0.738924
11
0.0847657
21
0.737914
0
LINE
8
BLACK
6
CONTINUOUS
10
0.0847657
20
0.737914
11
0.0846522
21
0.737778
0
LINE
8
BLACK
6
CONTINUOUS
10
0.0846522
20
0.737778
11
0.084632
21
0.737603
0
LINE
8
BLACK
6
CONTINUOUS
10
0.084632
20
0.737603
11
0.0827572
21
0.733854
0
LINE
8
BLACK
6
CONTINUOUS
10
0.0827572
20
0.733854
11
0.0822313
21
0.733144
0
LINE
8
BLACK
6
CONTINUOUS
10
0.0822313
20
0.733144
11
0.0822041
21
0.733086
0
LINE
8
BLACK
6
CONTINUOUS
10
0.0822041
20
0.733086
11
0.0803294
21
0.731211
0
LINE
8
BLACK
6
CONTINUOUS
10
0.0803294
20
0.731211
11
0.0796062
21
0.730705
0
LINE
8
BLACK
6
CONTINUOUS
10
0.0796062
20
0.730705
11
0.079562
21
0.730658
0
LINE
8
BLACK
6
CONTINUOUS
10
0.079562
20
0.730658
11
0.0758124
21
0.728783
0
LINE
8
BLACK
6
CONTINUOUS
10
0.0758124
20
0.728783
11
0.0748295
21
0.728491
0
LINE
8
BLACK
6
CONTINUOUS
10
0.0748295
20
0.728491
11
0.0746578
21
0.728532
0
LINE
8
BLACK
6
CONTINUOUS
10
0.0746578
20
0.728532
11
0.0744919
21
0.728472
0
LINE
8
BLACK
6
CONTINUOUS
10
0.0744919
20
0.728472
11
0.0669929
21
0.728472
0
LINE
8
BLACK
6
CONTINUOUS
10
0.0669929
20
0.728472
11
0.065983
21
0.72865
0
LINE
8
BLACK
6
CONTINUOUS
10
0.065983
20
0.72865
11
0.0658477
21
0.728763
0
LINE
8
BLACK
6
CONTINUOUS
10
0.0658477
20
0.728763
11
0.0656724
21
0.728783
0
LINE
8
BLACK
6
CONTINUOUS
10
0.0656724
20
0.728783
11
0.0619228
21
0.730658
0
LINE
8
BLACK
6
CONTINUOUS
10
0.0619228
20
0.730658
11
0.0612137
21
0.731184
0
LINE
8
BLACK
6
CONTINUOUS
10
0.0612137
20
0.731184
11
0.0611554
21
0.731211
0
LINE
8
BLACK
6
CONTINUOUS
10
0.0611554
20
0.731211
11
0.0592806
21
0.733086
0
LINE
8
BLACK
6
CONTINUOUS
10
0.0592806
20
0.733086
11
0.0587743
21
0.733809
0
LINE
8
BLACK
6
CONTINUOUS
10
0.0587743
20
0.733809
11
0.0587276
21
0.733854
0
LINE
8
BLACK
6
CONTINUOUS
10
0.0587276
20
0.733854
11
0.0568528
21
0.737603
0
LINE
8
BLACK
6
CONTINUOUS
10
0.0568528
20
0.737603
11
0.0565604
21
0.738586
0
LINE
8
BLACK
6
CONTINUOUS
10
0.0565604
20
0.738586
11
0.0566014
21
0.738758
0
LINE
8
BLACK
6
CONTINUOUS
10
0.0566014
20
0.738758
11
0.0565411
21
0.738924
0
LINE
8
BLACK
6
CONTINUOUS
10
0.0565411
20
0.738924
11
0.0565411
21
0.770795
0
LINE
8
BLACK
6
CONTINUOUS
10
0.0565411
20
0.770795
11
0.0567191
21
0.771804
0
LINE
8
BLACK
6
CONTINUOUS
10
0.0567191
20
0.771804
11
0.0580174
21
0.773352
0
LINE
8
BLACK
6
CONTINUOUS
10
0.0580174
20
0.773352
11
0.0600066
21
0.773702
0
LINE
8
BLACK
6
CONTINUOUS
10
0.0600066
20
0.773702
11
0.0617557
21
0.772693
0
LINE
8
BLACK
6
CONTINUOUS
10
0.0617557
20
0.772693
11
0.0624466
21
0.770795
0
LINE
8
BLACK
6
CONTINUOUS
10
0.0624466
20
0.770795
11
0.0624466
21
0.739621
0
LINE
8
BLACK
6
CONTINUOUS
10
0.0624466
20
0.739621
11
0.0637953
21
0.736923
0
LINE
8
BLACK
6
CONTINUOUS
10
0.0637953
20
0.736923
11
0.0649924
21
0.735726
0
LINE
8
BLACK
6
CONTINUOUS
10
0.0649924
20
0.735726
11
0.0676899
21
0.734377
0
LINE
8
BLACK
6
CONTINUOUS
10
0.0676899
20
0.734377
11
0.0737949
21
0.734377
0
LINE
8
BLACK
6
CONTINUOUS
10
0.0737949
20
0.734377
11
0.0764923
21
0.735726
0
LINE
8
BLACK
6
CONTINUOUS
10
0.0764923
20
0.735726
11
0.0776894
21
0.736923
0
LINE
8
BLACK
6
CONTINUOUS
10
0.0776894
20
0.736923
11
0.0790382
21
0.739621
0
LINE
8
BLACK
6
CONTINUOUS
10
0.0790382
20
0.739621
11
0.0790382
21
0.770795
0
LINE
8
BLACK
6
CONTINUOUS
10
0.0790382
20
0.770795
11
0.0792163
21
0.771804
0
LINE
8
BLACK
6
CONTINUOUS
10
0.0792163
20
0.771804
11
0.0805146
21
0.773352
0
LINE
8
BLACK
6
CONTINUOUS
10
0.0805146
20
0.773352
11
0.0825037
21
0.773702
0
LINE
8
BLACK
6
CONTINUOUS
10
0.0825037
20
0.773702
11
0.0842529
21
0.772693
0
LINE
8
BLACK
6
CONTINUOUS
10
0.113162
20
0.745504
11
0.107012
21
0.734377
0
LINE
8
BLACK
6
CONTINUOUS
10
0.107012
20
0.734377
11
0.113165
21
0.734377
0
LINE
8
BLACK
6
CONTINUOUS
10
0.113165
20
0.734377
11
0.115862
21
0.735726
0
LINE
8
BLACK
6
CONTINUOUS
10
0.115862
20
0.735726
11
0.11706
21
0.736923
0
LINE
8
BLACK
6
CONTINUOUS
10
0.11706
20
0.736923
11
0.118408
21
0.739621
0
LINE
8
BLACK
6
CONTINUOUS
10
0.118408
20
0.739621
11
0.118408
21
0.741976
0
LINE
8
BLACK
6
CONTINUOUS
10
0.118408
20
0.741976
11
0.11706
21
0.744674
0
LINE
8
BLACK
6
CONTINUOUS
10
0.11706
20
0.744674
11
0.115862
21
0.745871
0
LINE
8
BLACK
6
CONTINUOUS
10
0.115862
20
0.745871
11
0.113751
21
0.746926
0
LINE
8
BLACK
6
CONTINUOUS
10
0.113751
20
0.746926
11
0.113162
21
0.745504
0
LINE
8
BLACK
6
CONTINUOUS
10
0.104363
20
0.766493
11
0.103165
21
0.765296
0
LINE
8
BLACK
6
CONTINUOUS
10
0.103165
20
0.765296
11
0.101817
21
0.762598
0
LINE
8
BLACK
6
CONTINUOUS
10
0.101817
20
0.762598
11
0.101817
21
0.760243
0
LINE
8
BLACK
6
CONTINUOUS
10
0.101817
20
0.760243
11
0.102614
21
0.758649
0
LINE
8
BLACK
6
CONTINUOUS
10
0.102614
20
0.758649
11
0.104106
21
0.762108
0
LINE
8
BLACK
6
CONTINUOUS
10
0.104106
20
0.762108
11
0.105605
21
0.767114
0
LINE
8
BLACK
6
CONTINUOUS
10
0.105605
20
0.767114
11
0.104363
21
0.766493
0
LINE
8
BLACK
6
CONTINUOUS
10
-0.110038
20
0.787138
11
-0.107801
21
0.774451
0
LINE
8
BLACK
6
CONTINUOUS
10
-0.107801
20
0.774451
11
-0.104106
21
0.762108
0
LINE
8
BLACK
6
CONTINUOUS
10
-0.104106
20
0.762108
11
-0.0990033
21
0.750279
0
LINE
8
BLACK
6
CONTINUOUS
10
-0.0990033
20
0.750279
11
-0.0925616
21
0.739121
0
LINE
8
BLACK
6
CONTINUOUS
10
-0.0925616
20
0.739121
11
-0.0848681
21
0.728787
0
LINE
8
BLACK
6
CONTINUOUS
10
-0.0848681
20
0.728787
11
-0.076027
21
0.719416
0
LINE
8
BLACK
6
CONTINUOUS
10
-0.076027
20
0.719416
11
-0.0661577
21
0.711135
0
LINE
8
BLACK
6
CONTINUOUS
10
-0.0661577
20
0.711135
11
-0.0553937
21
0.704055
0
LINE
8
BLACK
6
CONTINUOUS
10
-0.0553937
20
0.704055
11
-0.0438807
21
0.698273
0
LINE
8
BLACK
6
CONTINUOUS
10
-0.0438807
20
0.698273
11
-0.0317742
21
0.693867
0
LINE
8
BLACK
6
CONTINUOUS
10
-0.0317742
20
0.693867
11
-0.019238
21
0.690896
0
LINE
8
BLACK
6
CONTINUOUS
10
-0.019238
20
0.690896
11
-0.00644173
21
0.6894
0
LINE
8
BLACK
6
CONTINUOUS
10
-0.00644173
20
0.6894
11
0.00644173
21
0.6894
0
LINE
8
BLACK
6
CONTINUOUS
10
0.00644173
20
0.6894
11
0.019238
21
0.690896
0
LINE
8
BLACK
6
CONTINUOUS
10
0.019238
20
0.690896
11
0.0317742
21
0.693867
0
LINE
8
BLACK
6
CONTINUOUS
10
0.0317742
20
0.693867
11
0.0438807
21
0.698273
0
LINE
8
BLACK
6
CONTINUOUS
10
0.0438807
20
0.698273
11
0.0553937
21
0.704055
0
LINE
8
BLACK
6
CONTINUOUS
10
0.0553937
20
0.704055
11
0.0661577
21
0.711135
0
LINE
8
BLACK
6
CONTINUOUS
10
0.0661577
20
0.711135
11
0.076027
21
0.719416
0
LINE
8
BLACK
6
CONTINUOUS
10
0.076027
20
0.719416
11
0.0848681
21
0.728787
0
LINE
8
BLACK
6
CONTINUOUS
10
0.0848681
20
0.728787
11
0.0925616
21
0.739121
0
LINE
8
BLACK
6
CONTINUOUS
10
0.0925616
20
0.739121
11
0.0990033
21
0.750279
0
LINE
8
BLACK
6
CONTINUOUS
10
0.0990033
20
0.750279
11
0.0999306
21
0.752429
0
LINE
8
BLACK
6
CONTINUOUS
10
0.0999306
20
0.752429
11
0.0986507
21
0.753709
0
LINE
8
BLACK
6
CONTINUOUS
10
0.0986507
20
0.753709
11
0.0981444
21
0.754432
0
LINE
8
BLACK
6
CONTINUOUS
10
0.0981444
20
0.754432
11
0.0980976
21
0.754476
0
LINE
8
BLACK
6
CONTINUOUS
10
0.0980976
20
0.754476
11
0.0962229
21
0.758225
0
LINE
8
BLACK
6
CONTINUOUS
10
0.0962229
20
0.758225
11
0.0959305
21
0.759208
0
LINE
8
BLACK
6
CONTINUOUS
10
0.0959305
20
0.759208
11
0.0959715
21
0.75938
0
LINE
8
BLACK
6
CONTINUOUS
10
0.0959715
20
0.75938
11
0.0959111
21
0.759546
0
LINE
8
BLACK
6
CONTINUOUS
10
0.0959111
20
0.759546
11
0.0959111
21
0.763295
0
LINE
8
BLACK
6
CONTINUOUS
10
0.0959111
20
0.763295
11
0.0960892
21
0.764305
0
LINE
8
BLACK
6
CONTINUOUS
10
0.0960892
20
0.764305
11
0.0962027
21
0.764441
0
LINE
8
BLACK
6
CONTINUOUS
10
0.0962027
20
0.764441
11
0.0962229
21
0.764616
0
LINE
8
BLACK
6
CONTINUOUS
10
0.0962229
20
0.764616
11
0.0980976
21
0.768366
0
LINE
8
BLACK
6
CONTINUOUS
10
0.0980976
20
0.768366
11
0.0986235
21
0.769075
0
LINE
8
BLACK
6
CONTINUOUS
10
0.0986235
20
0.769075
11
0.0986507
21
0.769133
0
LINE
8
BLACK
6
CONTINUOUS
10
0.0986507
20
0.769133
11
0.100526
21
0.771008
0
LINE
8
BLACK
6
CONTINUOUS
10
0.100526
20
0.771008
11
0.101249
21
0.771514
0
LINE
8
BLACK
6
CONTINUOUS
10
0.101249
20
0.771514
11
0.101293
21
0.771561
0
LINE
8
BLACK
6
CONTINUOUS
10
0.101293
20
0.771561
11
0.105042
21
0.773436
0
LINE
8
BLACK
6
CONTINUOUS
10
0.105042
20
0.773436
11
0.106025
21
0.773728
0
LINE
8
BLACK
6
CONTINUOUS
10
0.106025
20
0.773728
11
0.106197
21
0.773687
0
LINE
8
BLACK
6
CONTINUOUS
10
0.106197
20
0.773687
11
0.106363
21
0.773747
0
LINE
8
BLACK
6
CONTINUOUS
10
0.106363
20
0.773747
11
0.107591
21
0.773747
0
LINE
8
BLACK
6
CONTINUOUS
10
0.107591
20
0.773747
11
0.107801
21
0.774451
0
LINE
8
BLACK
6
CONTINUOUS
10
0.107801
20
0.774451
11
0.110038
21
0.787138
0
LINE
8
BLACK
6
CONTINUOUS
10
0.110038
20
0.787138
11
0.110787
21
0.8
0
LINE
8
BLACK
6
CONTINUOUS
10
0.110787
20
0.8
11
0.110038
21
0.812862
0
LINE
8
BLACK
6
CONTINUOUS
10
0.110038
20
0.812862
11
0.107801
21
0.825549
0
LINE
8
BLACK
6
CONTINUOUS
10
0.107801
20
0.825549
11
0.104106
21
0.837892
0
LINE
8
BLACK
6
CONTINUOUS
10
0.104106
20
0.837892
11
0.0990033
21
0.849721
0
LINE
8
BLACK
6
CONTINUOUS
10
0.0990033
20
0.849721
11
0.0925616
21
0.860879
0
LINE
8
BLACK
6
CONTINUOUS
10
0.0925616
20
0.860879
11
0.0848681
21
0.871213
0
LINE
8
BLACK
6
CONTINUOUS
10
0.0848681
20
0.871213
11
0.076027
21
0.880584
0
LINE
8
BLACK
6
CONTINUOUS
10
0.076027
20
0.880584
11
0.0661577
21
0.888865
0
LINE
8
BLACK
6
CONTINUOUS
10
0.0661577
20
0.888865
11
0.0553937
21
0.895945
0
LINE
8
BLACK
6
CONTINUOUS
10
0.0553937
20
0.895945
11
0.0438807
21
0.901727
0
LINE
8
BLACK
6
CONTINUOUS
10
0.0438807
20
0.901727
11
0.0317742
21
0.906133
0
LINE
8
BLACK
6
CONTINUOUS
10
0.0317742
20
0.906133
11
0.019238
21
0.909104
0
LINE
8
BLACK
6
CONTINUOUS
10
0.019238
20
0.909104
11
0.00644173
21
0.9106
0
LINE
8
BLACK
6
CONTINUOUS
10
0.00644173
20
0.9106
11
-0.00644173
21
0.9106
0
LINE
8
BLACK
6
CONTINUOUS
10
-0.00644173
20
0.9106
11
-0.019238
21
0.909104
0
LINE
8
BLACK
6
CONTINUOUS
10
-0.019238
20
0.909104
11
-0.0317742
21
0.906133
0
LINE
8
BLACK
6
CONTINUOUS
10
-0.0317742
20
0.906133
11
-0.0438807
21
0.901727
0
LINE
8
BLACK
6
CONTINUOUS
10
-0.0438807
20
0.901727
11
-0.0553937
21
0.895945
0
LINE
8
BLACK
6
CONTINUOUS
10
-0.0553937
20
0.895945
11
-0.0661577
21
0.888865
0
LINE
8
BLACK
6
CONTINUOUS
10
-0.0661577
20
0.888865
11
-0.076027
21
0.880584
0
LINE
8
BLACK
6
CONTINUOUS
10
-0.076027
20
0.880584
11
-0.0848681
21
0.871213
0
LINE
8
BLACK
6
CONTINUOUS
10
-0.0848681
20
0.871213
11
-0.0925616
21
0.860879
0
LINE
8
BLACK
6
CONTINUOUS
10
-0.0925616
20
0.860879
11
-0.0990033
21
0.849721
0
LINE
8
BLACK
6
CONTINUOUS
10
-0.0990033
20
0.849721
11
-0.104106
21
0.837892
0
LINE
8
BLACK
6
CONTINUOUS
10
-0.104106
20
0.837892
11
-0.107801
21
0.825549
0
LINE
8
BLACK
6
CONTINUOUS
10
-0.107801
20
0.825549
11
-0.110038
21
0.812862
0
LINE
8
BLACK
6
CONTINUOUS
10
-0.110038
20
0.812862
11
-0.110787
21
0.8
0
LINE
8
BLACK
6
CONTINUOUS
10
-0.110787
20
0.8
11
-0.110038
21
0.787138
0
LINE
8
BLACK
6
CONTINUOUS
10
1.21406
20
0.92481
11
1.22795
21
0.922451
0
LINE
8
BLACK
6
CONTINUOUS
10
1.22795
20
0.922451
11
1.24148
21
0.918552
0
LINE
8
BLACK
6
CONTINUOUS
10
1.24148
20
0.918552
11
1.2545
21
0.913162
0
LINE
8
BLACK
6
CONTINUOUS
10
1.2545
20
0.913162
11
1.26682
21
0.906349
0
LINE
8
BLACK
6
CONTINUOUS
10
1.26682
20
0.906349
11
1.27831
21
0.898198
0
LINE
8
BLACK
6
CONTINUOUS
10
1.27831
20
0.898198
11
1.28881
21
0.888813
0
LINE
8
BLACK
6
CONTINUOUS
10
1.28881
20
0.888813
11
1.2982
21
0.87831
0
LINE
8
BLACK
6
CONTINUOUS
10
1.2982
20
0.87831
11
1.30635
21
0.866823
0
LINE
8
BLACK
6
CONTINUOUS
10
1.30635
20
0.866823
11
1.31316
21
0.854496
0
LINE
8
BLACK
6
CONTINUOUS
10
1.31316
20
0.854496
11
1.31855
21
0.841483
0
LINE
8
BLACK
6
CONTINUOUS
10
1.31855
20
0.841483
11
1.32245
21
0.827949
0
LINE
8
BLACK
6
CONTINUOUS
10
1.32245
20
0.827949
11
1.32481
21
0.814063
0
LINE
8
BLACK
6
CONTINUOUS
10
1.32481
20
0.814063
11
1.3256
21
0.8
0
LINE
8
BLACK
6
CONTINUOUS
10
1.3256
20
0.8
11
1.32481
21
0.785937
0
LINE
8
BLACK
6
CONTINUOUS
10
1.32481
20
0.785937
11
1.32245
21
0.772051
0
LINE
8
BLACK
6
CONTINUOUS
10
1.32245
20
0.772051
11
1.31855
21
0.758517
0
LINE
8
BLACK
6
CONTINUOUS
10
1.31855
20
0.758517
11
1.31316
21
0.745504
0
LINE
8
BLACK
6
CONTINUOUS
10
1.31316
20
0.745504
11
1.30635
21
0.733177
0
LINE
8
BLACK
6
CONTINUOUS
10
1.30635
20
0.733177
11
1.2982
21
0.72169
0
LINE
8
BLACK
6
CONTINUOUS
10
1.2982
20
0.72169
11
1.28881
21
0.711187
0
LINE
8
BLACK
6
CONTINUOUS
10
1.28881
20
0.711187
11
1.27831
21
0.701802
0
LINE
8
BLACK
6
CONTINUOUS
10
1.27831
20
0.701802
11
1.26682
21
0.693651
0
LINE
8
BLACK
6
CONTINUOUS
10
1.26682
20
0.693651
11
1.2545
21
0.686838
0
LINE
8
BLACK
6
CONTINUOUS
10
1.2545
20
0.686838
11
1.24148
21
0.681448
0
LINE
8
BLACK
6
CONTINUOUS
10
1.24148
20
0.681448
11
1.22795
21
0.677549
0
LINE
8
BLACK
6
CONTINUOUS
10
1.22795
20
0.677549
11
1.21406
21
0.67519
0
LINE
8
BLACK
6
CONTINUOUS
10
1.21406
20
0.67519
11
1.2
21
0.6744
0
LINE
8
BLACK
6
CONTINUOUS
10
1.2
20
0.6744
11
1.18594
21
0.67519
0
LINE
8
BLACK
6
CONTINUOUS
10
1.18594
20
0.67519
11
1.17205
21
0.677549
0
LINE
8
BLACK
6
CONTINUOUS
10
1.17205
20
0.677549
11
1.15852
21
0.681448
0
LINE
8
BLACK
6
CONTINUOUS
10
1.15852
20
0.681448
11
1.1455
21
0.686838
0
LINE
8
BLACK
6
CONTINUOUS
10
1.1455
20
0.686838
11
1.13318
21
0.693651
0
LINE
8
BLACK
6
CONTINUOUS
10
1.13318
20
0.693651
11
1.12169
21
0.701802
0
LINE
8
BLACK
6
CONTINUOUS
10
1.12169
20
0.701802
11
1.11119
21
0.711187
0
LINE
8
BLACK
6
CONTINUOUS
10
1.11119
20
0.711187
11
1.1018
21
0.72169
0
LINE
8
BLACK
6
CONTINUOUS
10
1.1018
20
0.72169
11
1.09365
21
0.733177
0
LINE
8
BLACK
6
CONTINUOUS
10
1.09365
20
0.733177
11
1.08684
21
0.745504
0
LINE
8
BLACK
6
CONTINUOUS
10
1.08684
20
0.745504
11
1.08145
21
0.758517
0
LINE
8
BLACK
6
CONTINUOUS
10
1.08145
20
0.758517
11
1.07755
21
0.772051
0
LINE
8
BLACK
6
CONTINUOUS
10
1.07755
20
0.772051
11
1.07519
21
0.785937
0
LINE
8
BLACK
6
CONTINUOUS
10
1.07519
20
0.785937
11
1.0744
21
0.8
0
LINE
8
BLACK
6
CONTINUOUS
10
1.0744
20
0.8
11
1.07519
21
0.814063
0
LINE
8
BLACK
6
CONTINUOUS
10
1.07519
20
0.814063
11
1.07755
21
0.827949
0
LINE
8
BLACK
6
CONTINUOUS
10
1.07755
20
0.827949
11
1.08145
21
0.841483
0
LINE
8
BLACK
6
CONTINUOUS
10
1.08145
20
0.841483
11
1.08684
21
0.854496
0
LINE
8
BLACK
6
CONTINUOUS
10
1.08684
20
0.854496
11
1.09365
21
0.866823
0
LINE
8
BLACK
6
CONTINUOUS
10
1.09365
20
0.866823
11
1.1018
21
0.87831
0
LINE
8
BLACK
6
CONTINUOUS
10
1.1018
20
0.87831
11
1.11119
21
0.888813
0
LINE
8
BLACK
6
CONTINUOUS
10
1.11119
20
0.888813
11
1.12169
21
0.898198
0
LINE
8
BLACK
6
CONTINUOUS
10
1.12169
20
0.898198
11
1.13318
21
0.906349
0
LINE
8
BLACK
6
CONTINUOUS
10
1.13318
20
0.906349
11
1.1455
21
0.913162
0
LINE
8
BLACK
6
CONTINUOUS
10
1.1455
20
0.913162
11
1.15852
21
0.918552
0
LINE
8
BLACK
6
CONTINUOUS
10
1.15852
20
0.918552
11
1.17205
21
0.922451
0
LINE
8
BLACK
6
CONTINUOUS
10
1.17205
20
0.922451
11
1.18594
21
0.92481
0
LINE
8
BLACK
6
CONTINUOUS
10
1.18594
20
0.92481
11
1.2
21
0.9256
0
LINE
8
BLACK
6
CONTINUOUS
10
1.2
20
0.9256
11
1.21406
21
0.92481
0
LINE
8
BLACK
6
CONTINUOUS
10
1.08996
20
0.787138
11
1.0922
21
0.774451
0
LINE
8
BLACK
6
CONTINUOUS
10
1.0922
20
0.774451
11
1.09589
21
0.762108
0
LINE
8
BLACK
6
CONTINUOUS
10
1.09589
20
0.762108
11
1.101
21
0.750279
0
LINE
8
BLACK
6
CONTINUOUS
10
1.101
20
0.750279
11
1.10744
21
0.739121
0
LINE
8
BLACK
6
CONTINUOUS
10
1.10744
20
0.739121
11
1.11513
21
0.728787
0
LINE
8
BLACK
6
CONTINUOUS
10
1.11513
20
0.728787
11
1.12397
21
0.719416
0
LINE
8
BLACK
6
CONTINUOUS
10
1.12397
20
0.719416
11
1.13384
21
0.711135
0
LINE
8
BLACK
6
CONTINUOUS
10
1.13384
20
0.711135
11
1.14461
21
0.704055
0
LINE
8
BLACK
6
CONTINUOUS
10
1.14461
20
0.704055
11
1.15612
21
0.698273
0
LINE
8
BLACK
6
CONTINUOUS
10
1.15612
20
0.698273
11
1.16823
21
0.693867
0
LINE
8
BLACK
6
CONTINUOUS
10
1.16823
20
0.693867
11
1.18076
21
0.690896
0
LINE
8
BLACK
6
CONTINUOUS
10
1.18076
20
0.690896
11
1.19356
21
0.6894
0
LINE
8
BLACK
6
CONTINUOUS
10
1.19356
20
0.6894
11
1.20644
21
0.6894
0
LINE
8
BLACK
6
CONTINUOUS
10
1.20644
20
0.6894
11
1.21924
21
0.690896
0
LINE
8
BLACK
6
CONTINUOUS
10
1.21924
20
0.690896
11
1.23177
21
0.693867
0
LINE
8
BLACK
6
CONTINUOUS
10
1.23177
20
0.693867
11
1.24388
21
0.698273
0
LINE
8
BLACK
6
CONTINUOUS
10
1.24388
20
0.698273
11
1.25539
21
0.704055
0
LINE
8
BLACK
6
CONTINUOUS
10
1.25539
20
0.704055
11
1.26616
21
0.711135
0
LINE
8
BLACK
6
CONTINUOUS
10
1.26616
20
0.711135
11
1.27603
21
0.719416
0
LINE
8
BLACK
6
CONTINUOUS
10
1.27603
20
0.719416
11
1.28487
21
0.728787
0
LINE
8
BLACK
6
CONTINUOUS
10
1.28487
20
0.728787
11
1.29256
21
0.739121
0
LINE
8
BLACK
6
CONTINUOUS
10
1.29256
20
0.739121
11
1.299
21
0.750279
0
LINE
8
BLACK
6
CONTINUOUS
10
1.299
20
0.750279
11
1.30411
21
0.762108
0
LINE
8
BLACK
6
CONTINUOUS
10
1.30411
20
0.762108
11
1.3078
21
0.774451
0
LINE
8
BLACK
6
CONTINUOUS
10
1.3078
20
0.774451
11
1.31004
21
0.787138
0
LINE
8
BLACK
6
CONTINUOUS
10
1.31004
20
0.787138
11
1.31079
21
0.8
0
LINE
8
BLACK
6
CONTINUOUS
10
1.31079
20
0.8
11
1.31004
21
0.812862
0
LINE
8
BLACK
6
CONTINUOUS
10
1.31004
20
0.812862
11
1.3078
21
0.825549
0
LINE
8
BLACK
6
CONTINUOUS
10
1.3078
20
0.825549
11
1.30411
21
0.837892
0
LINE
8
BLACK
6
CONTINUOUS
10
1.30411
20
0.837892
11
1.299
21
0.849721
0
LINE
8
BLACK
6
CONTINUOUS
10
1.299
20
0.849721
11
1.29256
21
0.860879
0
LINE
8
BLACK
6
CONTINUOUS
10
1.29256
20
0.860879
11
1.28487
21
0.871213
0
LINE
8
BLACK
6
CONTINUOUS
10
1.28487
20
0.871213
11
1.27603
21
0.880584
0
LINE
8
BLACK
6
CONTINUOUS
10
1.27603
20
0.880584
11
1.26616
21
0.888865
0
LINE
8
BLACK
6
CONTINUOUS
10
1.26616
20
0.888865
11
1.25539
21
0.895945
0
LINE
8
BLACK
6
CONTINUOUS
10
1.25539
20
0.895945
11
1.24388
21
0.901727
0
LINE
8
BLACK
6
CONTINUOUS
10
1.24388
20
0.901727
11
1.23177
21
0.906133
0
LINE
8
BLACK
6
CONTINUOUS
10
1.23177
20
0.906133
11
1.21924
21
0.909104
0
LINE
8
BLACK
6
CONTINUOUS
10
1.21924
20
0.909104
11
1.20644
21
0.9106
0
LINE
8
BLACK
6
CONTINUOUS
10
1.20644
20
0.9106
11
1.19356
21
0.9106
0
LINE
8
BLACK
6
CONTINUOUS
10
1.19356
20
0.9106
11
1.18076
21
0.909104
0
LINE
8
BLACK
6
CONTINUOUS
10
1.18076
20
0.909104
11
1.16823
21
0.906133
0
LINE
8
BLACK
6
CONTINUOUS
10
1.16823
20
0.906133
11
1.15612
21
0.901727
0
LINE
8
BLACK
6
CONTINUOUS
10
1.15612
20
0.901727
11
1.14461
21
0.895945
0
LINE
8
BLACK
6
CONTINUOUS
10
1.14461
20
0.895945
11
1.13384
21
0.888865
0
LINE
8
BLACK
6
CONTINUOUS
10
1.13384
20
0.888865
11
1.12397
21
0.880584
0
LINE
8
BLACK
6
CONTINUOUS
10
1.12397
20
0.880584
11
1.11513
21
0.871213
0
LINE
8
BLACK
6
CONTINUOUS
10
1.11513
20
0.871213
11
1.10744
21
0.860879
0
LINE
8
BLACK
6
CONTINUOUS
10
1.10744
20
0.860879
11
1.101
21
0.849721
0
LINE
8
BLACK
6
CONTINUOUS
10
1.101
20
0.849721
11
1.09589
21
0.837892
0
LINE
8
BLACK
6
CONTINUOUS
10
1.09589
20
0.837892
11
1.0922
21
0.825549
0
LINE
8
BLACK
6
CONTINUOUS
10
1.0922
20
0.825549
11
1.08996
21
0.812862
0
LINE
8
BLACK
6
CONTINUOUS
10
1.08996
20
0.812862
11
1.08921
21
0.8
0
LINE
8
BLACK
6
CONTINUOUS
10
1.08921
20
0.8
11
1.08996
21
0.787138
0
LINE
8
BLACK
6
CONTINUOUS
10
0.199236
20
0.73045
11
0.200784
21
0.729151
0
LINE
8
BLACK
6
CONTINUOUS
10
0.200784
20
0.729151
11
0.201134
21
0.727162
0
LINE
8
BLACK
6
CONTINUOUS
10
0.201134
20
0.727162
11
0.200124
21
0.725413
0
LINE
8
BLACK
6
CONTINUOUS
10
0.200124
20
0.725413
11
0.198226
21
0.724722
0
LINE
8
BLACK
6
CONTINUOUS
10
0.198226
20
0.724722
11
0.16823
21
0.724722
0
LINE
8
BLACK
6
CONTINUOUS
10
0.16823
20
0.724722
11
0.16722
21
0.7249
0
LINE
8
BLACK
6
CONTINUOUS
10
0.16722
20
0.7249
11
0.165673
21
0.726199
0
LINE
8
BLACK
6
CONTINUOUS
10
0.165673
20
0.726199
11
0.165322
21
0.728188
0
LINE
8
BLACK
6
CONTINUOUS
10
0.165322
20
0.728188
11
0.166332
21
0.729937
0
LINE
8
BLACK
6
CONTINUOUS
10
0.166332
20
0.729937
11
0.16823
21
0.730628
0
LINE
8
BLACK
6
CONTINUOUS
10
0.16823
20
0.730628
11
0.198226
21
0.730628
0
LINE
8
BLACK
6
CONTINUOUS
10
0.198226
20
0.730628
11
0.199236
21
0.73045
0
LINE
8
BLACK
6
CONTINUOUS
10
0.152367
20
0.773569
11
0.152502
21
0.773456
0
LINE
8
BLACK
6
CONTINUOUS
10
0.152502
20
0.773456
11
0.152678
21
0.773436
0
LINE
8
BLACK
6
CONTINUOUS
10
0.152678
20
0.773436
11
0.156427
21
0.771561
0
LINE
8
BLACK
6
CONTINUOUS
10
0.156427
20
0.771561
11
0.157136
21
0.771035
0
LINE
8
BLACK
6
CONTINUOUS
10
0.157136
20
0.771035
11
0.157195
21
0.771008
0
LINE
8
BLACK
6
CONTINUOUS
10
0.157195
20
0.771008
11
0.15907
21
0.769133
0
LINE
8
BLACK
6
CONTINUOUS
10
0.15907
20
0.769133
11
0.159576
21
0.76841
0
LINE
8
BLACK
6
CONTINUOUS
10
0.159576
20
0.76841
11
0.159623
21
0.768366
0
LINE
8
BLACK
6
CONTINUOUS
10
0.159623
20
0.768366
11
0.161497
21
0.764616
0
LINE
8
BLACK
6
CONTINUOUS
10
0.161497
20
0.764616
11
0.16179
21
0.763633
0
LINE
8
BLACK
6
CONTINUOUS
10
0.16179
20
0.763633
11
0.161749
21
0.763461
0
LINE
8
BLACK
6
CONTINUOUS
10
0.161749
20
0.763461
11
0.161809
21
0.763295
0
LINE
8
BLACK
6
CONTINUOUS
10
0.161809
20
0.763295
11
0.161809
21
0.759546
0
LINE
8
BLACK
6
CONTINUOUS
10
0.161809
20
0.759546
11
0.161631
21
0.758536
0
LINE
8
BLACK
6
CONTINUOUS
10
0.161631
20
0.758536
11
0.161518
21
0.758401
0
LINE
8
BLACK
6
CONTINUOUS
10
0.161518
20
0.758401
11
0.161497
21
0.758225
0
LINE
8
BLACK
6
CONTINUOUS
10
0.161497
20
0.758225
11
0.159623
21
0.754476
0
LINE
8
BLACK
6
CONTINUOUS
10
0.159623
20
0.754476
11
0.159097
21
0.753767
0
LINE
8
BLACK
6
CONTINUOUS
10
0.159097
20
0.753767
11
0.15907
21
0.753709
0
LINE
8
BLACK
6
CONTINUOUS
10
0.15907
20
0.753709
11
0.158187
21
0.752826
0
LINE
8
BLACK
6
CONTINUOUS
10
0.158187
20
0.752826
11
0.158817
21
0.752485
0
LINE
8
BLACK
6
CONTINUOUS
10
0.158817
20
0.752485
11
0.15891
21
0.752335
0
LINE
8
BLACK
6
CONTINUOUS
10
0.15891
20
0.752335
11
0.15907
21
0.75226
0
LINE
8
BLACK
6
CONTINUOUS
10
0.15907
20
0.75226
11
0.160944
21
0.750385
0
LINE
8
BLACK
6
CONTINUOUS
10
0.160944
20
0.750385
11
0.161451
21
0.749662
0
LINE
8
BLACK
6
CONTINUOUS
10
0.161451
20
0.749662
11
0.161497
21
0.749618
0
LINE
8
BLACK
6
CONTINUOUS
10
0.161497
20
0.749618
11
0.163372
21
0.745868
0
LINE
8
BLACK
6
CONTINUOUS
10
0.163372
20
0.745868
11
0.163665
21
0.744885
0
LINE
8
BLACK
6
CONTINUOUS
10
0.163665
20
0.744885
11
0.163624
21
0.744714
0
LINE
8
BLACK
6
CONTINUOUS
10
0.163624
20
0.744714
11
0.163684
21
0.744548
0
LINE
8
BLACK
6
CONTINUOUS
10
0.163684
20
0.744548
11
0.163684
21
0.738924
0
LINE
8
BLACK
6
CONTINUOUS
10
0.163684
20
0.738924
11
0.163506
21
0.737914
0
LINE
8
BLACK
6
CONTINUOUS
10
0.163506
20
0.737914
11
0.163392
21
0.737778
0
LINE
8
BLACK
6
CONTINUOUS
10
0.163392
20
0.737778
11
0.163372
21
0.737603
0
LINE
8
BLACK
6
CONTINUOUS
10
0.163372
20
0.737603
11
0.161497
21
0.733854
0
LINE
8
BLACK
6
CONTINUOUS
10
0.161497
20
0.733854
11
0.160971
21
0.733144
0
LINE
8
BLACK
6
CONTINUOUS
10
0.160971
20
0.733144
11
0.160944
21
0.733086
0
LINE
8
BLACK
6
CONTINUOUS
10
0.160944
20
0.733086
11
0.15907
21
0.731211
0
LINE
8
BLACK
6
CONTINUOUS
10
0.15907
20
0.731211
11
0.158346
21
0.730705
0
LINE
8
BLACK
6
CONTINUOUS
10
0.158346
20
0.730705
11
0.158302
21
0.730658
0
LINE
8
BLACK
6
CONTINUOUS
10
0.158302
20
0.730658
11
0.154553
21
0.728783
0
LINE
8
BLACK
6
CONTINUOUS
10
0.154553
20
0.728783
11
0.15357
21
0.728491
0
LINE
8
BLACK
6
CONTINUOUS
10
0.15357
20
0.728491
11
0.153398
21
0.728532
0
LINE
8
BLACK
6
CONTINUOUS
10
0.153398
20
0.728532
11
0.153232
21
0.728472
0
LINE
8
BLACK
6
CONTINUOUS
10
0.153232
20
0.728472
11
0.138234
21
0.728472
0
LINE
8
BLACK
6
CONTINUOUS
10
0.138234
20
0.728472
11
0.13785
21
0.728539
0
LINE
8
BLACK
6
CONTINUOUS
10
0.13785
20
0.728539
11
0.137721
21
0.728517
0
LINE
8
BLACK
6
CONTINUOUS
10
0.137721
20
0.728517
11
0.137608
21
0.728582
0
LINE
8
BLACK
6
CONTINUOUS
10
0.137608
20
0.728582
11
0.137224
21
0.72865
0
LINE
8
BLACK
6
CONTINUOUS
10
0.137224
20
0.72865
11
0.136636
21
0.729143
0
LINE
8
BLACK
6
CONTINUOUS
10
0.136636
20
0.729143
11
0.135972
21
0.729526
0
LINE
8
BLACK
6
CONTINUOUS
10
0.135972
20
0.729526
11
0.135881
21
0.729777
0
LINE
8
BLACK
6
CONTINUOUS
10
0.135881
20
0.729777
11
0.135677
21
0.729948
0
LINE
8
BLACK
6
CONTINUOUS
10
0.135677
20
0.729948
11
0.135544
21
0.730704
0
LINE
8
BLACK
6
CONTINUOUS
10
0.135544
20
0.730704
11
0.135281
21
0.731424
0
LINE
8
BLACK
6
CONTINUOUS
10
0.135281
20
0.731424
11
0.135281
21
0.770795
0
LINE
8
BLACK
6
CONTINUOUS
10
0.135281
20
0.770795
11
0.135349
21
0.771178
0
LINE
8
BLACK
6
CONTINUOUS
10
0.135349
20
0.771178
11
0.135326
21
0.771307
0
LINE
8
BLACK
6
CONTINUOUS
10
0.135326
20
0.771307
11
0.135392
21
0.771421
0
LINE
8
BLACK
6
CONTINUOUS
10
0.135392
20
0.771421
11
0.135459
21
0.771804
0
LINE
8
BLACK
6
CONTINUOUS
10
0.135459
20
0.771804
11
0.135952
21
0.772392
0
LINE
8
BLACK
6
CONTINUOUS
10
0.135952
20
0.772392
11
0.136336
21
0.773056
0
LINE
8
BLACK
6
CONTINUOUS
10
0.136336
20
0.773056
11
0.136586
21
0.773148
0
LINE
8
BLACK
6
CONTINUOUS
10
0.136586
20
0.773148
11
0.136758
21
0.773352
0
LINE
8
BLACK
6
CONTINUOUS
10
0.136758
20
0.773352
11
0.137513
21
0.773485
0
LINE
8
BLACK
6
CONTINUOUS
10
0.137513
20
0.773485
11
0.138234
21
0.773747
0
LINE
8
BLACK
6
CONTINUOUS
10
0.138234
20
0.773747
11
0.151357
21
0.773747
0
LINE
8
BLACK
6
CONTINUOUS
10
0.151357
20
0.773747
11
0.152367
21
0.773569
0
LINE
8
BLACK
6
CONTINUOUS
10
0.141187
20
0.734377
11
0.152535
21
0.734377
0
LINE
8
BLACK
6
CONTINUOUS
10
0.152535
20
0.734377
11
0.155232
21
0.735726
0
LINE
8
BLACK
6
CONTINUOUS
10
0.155232
20
0.735726
11
0.15643
21
0.736923
0
LINE
8
BLACK
6
CONTINUOUS
10
0.15643
20
0.736923
11
0.157778
21
0.739621
0
LINE
8
BLACK
6
CONTINUOUS
10
0.157778
20
0.739621
11
0.157778
21
0.743851
0
LINE
8
BLACK
6
CONTINUOUS
10
0.157778
20
0.743851
11
0.15643
21
0.746548
0
LINE
8
BLACK
6
CONTINUOUS
10
0.15643
20
0.746548
11
0.155387
21
0.747591
0
LINE
8
BLACK
6
CONTINUOUS
10
0.155387
20
0.747591
11
0.150878
21
0.749094
0
LINE
8
BLACK
6
CONTINUOUS
10
0.150878
20
0.749094
11
0.141187
21
0.749094
0
LINE
8
BLACK
6
CONTINUOUS
10
0.141187
20
0.749094
11
0.141187
21
0.734377
0
LINE
8
BLACK
6
CONTINUOUS
10
0.141187
20
0.755
11
0.15066
21
0.755
0
LINE
8
BLACK
6
CONTINUOUS
10
0.15066
20
0.755
11
0.153358
21
0.756348
0
LINE
8
BLACK
6
CONTINUOUS
10
0.153358
20
0.756348
11
0.154555
21
0.757546
0
LINE
8
BLACK
6
CONTINUOUS
10
0.154555
20
0.757546
11
0.155904
21
0.760243
0
LINE
8
BLACK
6
CONTINUOUS
10
0.155904
20
0.760243
11
0.155904
21
0.762598
0
LINE
8
BLACK
6
CONTINUOUS
10
0.155904
20
0.762598
11
0.154555
21
0.765296
0
LINE
8
BLACK
6
CONTINUOUS
10
0.154555
20
0.765296
11
0.153358
21
0.766493
0
LINE
8
BLACK
6
CONTINUOUS
10
0.153358
20
0.766493
11
0.15066
21
0.767842
0
LINE
8
BLACK
6
CONTINUOUS
10
0.15066
20
0.767842
11
0.141187
21
0.767842
0
LINE
8
BLACK
6
CONTINUOUS
10
0.141187
20
0.767842
11
0.141187
21
0.755
0
LINE
8
BLACK
6
CONTINUOUS
10
0.221734
20
0.773569
11
0.221869
21
0.773456
0
LINE
8
BLACK
6
CONTINUOUS
10
0.221869
20
0.773456
11
0.222044
21
0.773436
0
LINE
8
BLACK
6
CONTINUOUS
10
0.222044
20
0.773436
11
0.225794
21
0.771561
0
LINE
8
BLACK
6
CONTINUOUS
10
0.225794
20
0.771561
11
0.226503
21
0.771035
0
LINE
8
BLACK
6
CONTINUOUS
10
0.226503
20
0.771035
11
0.226561
21
0.771008
0
LINE
8
BLACK
6
CONTINUOUS
10
0.226561
20
0.771008
11
0.228436
21
0.769133
0
LINE
8
BLACK
6
CONTINUOUS
10
0.228436
20
0.769133
11
0.228942
21
0.76841
0
LINE
8
BLACK
6
CONTINUOUS
10
0.228942
20
0.76841
11
0.228989
21
0.768366
0
LINE
8
BLACK
6
CONTINUOUS
10
0.228989
20
0.768366
11
0.230864
21
0.764616
0
LINE
8
BLACK
6
CONTINUOUS
10
0.230864
20
0.764616
11
0.231156
21
0.763633
0
LINE
8
BLACK
6
CONTINUOUS
10
0.231156
20
0.763633
11
0.231115
21
0.763461
0
LINE
8
BLACK
6
CONTINUOUS
10
0.231115
20
0.763461
11
0.231175
21
0.763295
0
LINE
8
BLACK
6
CONTINUOUS
10
0.231175
20
0.763295
11
0.231175
21
0.759546
0
LINE
8
BLACK
6
CONTINUOUS
10
0.231175
20
0.759546
11
0.230997
21
0.758536
0
LINE
8
BLACK
6
CONTINUOUS
10
0.230997
20
0.758536
11
0.230884
21
0.758401
0
LINE
8
BLACK
6
CONTINUOUS
10
0.230884
20
0.758401
11
0.230864
21
0.758225
0
LINE
8
BLACK
6
CONTINUOUS
10
0.230864
20
0.758225
11
0.228989
21
0.754476
0
LINE
8
BLACK
6
CONTINUOUS
10
0.228989
20
0.754476
11
0.228463
21
0.753767
0
LINE
8
BLACK
6
CONTINUOUS
10
0.228463
20
0.753767
11
0.228436
21
0.753709
0
LINE
8
BLACK
6
CONTINUOUS
10
0.228436
20
0.753709
11
0.227554
21
0.752826
0
LINE
8
BLACK
6
CONTINUOUS
10
0.227554
20
0.752826
11
0.228183
21
0.752485
0
LINE
8
BLACK
6
CONTINUOUS
10
0.228183
20
0.752485
11
0.228276
21
0.752335
0
LINE
8
BLACK
6
CONTINUOUS
10
0.228276
20
0.752335
11
0.228436
21
0.75226
0
LINE
8
BLACK
6
CONTINUOUS
10
0.228436
20
0.75226
11
0.230311
21
0.750385
0
LINE
8
BLACK
6
CONTINUOUS
10
0.230311
20
0.750385
11
0.230817
21
0.749662
0
LINE
8
BLACK
6
CONTINUOUS
10
0.230817
20
0.749662
11
0.230864
21
0.749618
0
LINE
8
BLACK
6
CONTINUOUS
10
0.230864
20
0.749618
11
0.232739
21
0.745868
0
LINE
8
BLACK
6
CONTINUOUS
10
0.232739
20
0.745868
11
0.233031
21
0.744885
0
LINE
8
BLACK
6
CONTINUOUS
10
0.233031
20
0.744885
11
0.23299
21
0.744714
0
LINE
8
BLACK
6
CONTINUOUS
10
0.23299
20
0.744714
11
0.23305
21
0.744548
0
LINE
8
BLACK
6
CONTINUOUS
10
0.23305
20
0.744548
11
0.23305
21
0.738924
0
LINE
8
BLACK
6
CONTINUOUS
10
0.23305
20
0.738924
11
0.232872
21
0.737914
0
LINE
8
BLACK
6
CONTINUOUS
10
0.232872
20
0.737914
11
0.232759
21
0.737778
0
LINE
8
BLACK
6
CONTINUOUS
10
0.232759
20
0.737778
11
0.232739
21
0.737603
0
LINE
8
BLACK
6
CONTINUOUS
10
0.232739
20
0.737603
11
0.230864
21
0.733854
0
LINE
8
BLACK
6
CONTINUOUS
10
0.230864
20
0.733854
11
0.230338
21
0.733144
0
LINE
8
BLACK
6
CONTINUOUS
10
0.230338
20
0.733144
11
0.230311
21
0.733086
0
LINE
8
BLACK
6
CONTINUOUS
10
0.230311
20
0.733086
11
0.228436
21
0.731211
0
LINE
8
BLACK
6
CONTINUOUS
10
0.228436
20
0.731211
11
0.227713
21
0.730705
0
LINE
8
BLACK
6
CONTINUOUS
10
0.227713
20
0.730705
11
0.227668
21
0.730658
0
LINE
8
BLACK
6
CONTINUOUS
10
0.227668
20
0.730658
11
0.223919
21
0.728783
0
LINE
8
BLACK
6
CONTINUOUS
10
0.223919
20
0.728783
11
0.222936
21
0.728491
0
LINE
8
BLACK
6
CONTINUOUS
10
0.222936
20
0.728491
11
0.222764
21
0.728532
0
LINE
8
BLACK
6
CONTINUOUS
10
0.222764
20
0.728532
11
0.222598
21
0.728472
0
LINE
8
BLACK
6
CONTINUOUS
10
0.222598
20
0.728472
11
0.2076
21
0.728472
0
LINE
8
BLACK
6
CONTINUOUS
10
0.2076
20
0.728472
11
0.207217
21
0.728539
0
LINE
8
BLACK
6
CONTINUOUS
10
0.207217
20
0.728539
11
0.207088
21
0.728517
0
LINE
8
BLACK
6
CONTINUOUS
10
0.207088
20
0.728517
11
0.206974
21
0.728582
0
LINE
8
BLACK
6
CONTINUOUS
10
0.206974
20
0.728582
11
0.20659
21
0.72865
0
LINE
8
BLACK
6
CONTINUOUS
10
0.20659
20
0.72865
11
0.206003
21
0.729143
0
LINE
8
BLACK
6
CONTINUOUS
10
0.206003
20
0.729143
11
0.205338
21
0.729526
0
LINE
8
BLACK
6
CONTINUOUS
10
0.205338
20
0.729526
11
0.205247
21
0.729777
0
LINE
8
BLACK
6
CONTINUOUS
10
0.205247
20
0.729777
11
0.205043
21
0.729948
0
LINE
8
BLACK
6
CONTINUOUS
10
0.205043
20
0.729948
11
0.20491
21
0.730704
0
LINE
8
BLACK
6
CONTINUOUS
10
0.20491
20
0.730704
11
0.204648
21
0.731424
0
LINE
8
BLACK
6
CONTINUOUS
10
0.204648
20
0.731424
11
0.204648
21
0.770795
0
LINE
8
BLACK
6
CONTINUOUS
10
0.204648
20
0.770795
11
0.204715
21
0.771178
0
LINE
8
BLACK
6
CONTINUOUS
10
0.204715
20
0.771178
11
0.204692
21
0.771307
0
LINE
8
BLACK
6
CONTINUOUS
10
0.204692
20
0.771307
11
0.204758
21
0.771421
0
LINE
8
BLACK
6
CONTINUOUS
10
0.204758
20
0.771421
11
0.204826
21
0.771804
0
LINE
8
BLACK
6
CONTINUOUS
10
0.204826
20
0.771804
11
0.205319
21
0.772392
0
LINE
8
BLACK
6
CONTINUOUS
10
0.205319
20
0.772392
11
0.205702
21
0.773056
0
LINE
8
BLACK
6
CONTINUOUS
10
0.205702
20
0.773056
11
0.205953
21
0.773148
0
LINE
8
BLACK
6
CONTINUOUS
10
0.205953
20
0.773148
11
0.206124
21
0.773352
0
LINE
8
BLACK
6
CONTINUOUS
10
0.206124
20
0.773352
11
0.206879
21
0.773485
0
LINE
8
BLACK
6
CONTINUOUS
10
0.206879
20
0.773485
11
0.2076
21
0.773747
0
LINE
8
BLACK
6
CONTINUOUS
10
0.2076
20
0.773747
11
0.220724
21
0.773747
0
LINE
8
BLACK
6
CONTINUOUS
10
0.220724
20
0.773747
11
0.221734
21
0.773569
0
LINE
8
BLACK
6
CONTINUOUS
10
0.210553
20
0.734377
11
0.221901
21
0.734377
0
LINE
8
BLACK
6
CONTINUOUS
10
0.221901
20
0.734377
11
0.224599
21
0.735726
0
LINE
8
BLACK
6
CONTINUOUS
10
0.224599
20
0.735726
11
0.225796
21
0.736923
0
LINE
8
BLACK
6
CONTINUOUS
10
0.225796
20
0.736923
11
0.227145
21
0.739621
0
LINE
8
BLACK
6
CONTINUOUS
10
0.227145
20
0.739621
11
0.227145
21
0.743851
0
LINE
8
BLACK
6
CONTINUOUS
10
0.227145
20
0.743851
11
0.225796
21
0.746548
0
LINE
8
BLACK
6
CONTINUOUS
10
0.225796
20
0.746548
11
0.224753
21
0.747591
0
LINE
8
BLACK
6
CONTINUOUS
10
0.224753
20
0.747591
11
0.220245
21
0.749094
0
LINE
8
BLACK
6
CONTINUOUS
10
0.220245
20
0.749094
11
0.210553
21
0.749094
0
LINE
8
BLACK
6
CONTINUOUS
10
0.210553
20
0.749094
11
0.210553
21
0.734377
0
LINE
8
BLACK
6
CONTINUOUS
10
0.210553
20
0.755
11
0.220027
21
0.755
0
LINE
8
BLACK
6
CONTINUOUS
10
0.220027
20
0.755
11
0.222724
21
0.756348
0
LINE
8
BLACK
6
CONTINUOUS
10
0.222724
20
0.756348
11
0.223921
21
0.757546
0
LINE
8
BLACK
6
CONTINUOUS
10
0.223921
20
0.757546
11
0.22527
21
0.760243
0
LINE
8
BLACK
6
CONTINUOUS
10
0.22527
20
0.760243
11
0.22527
21
0.762598
0
LINE
8
BLACK
6
CONTINUOUS
10
0.22527
20
0.762598
11
0.223921
21
0.765296
0
LINE
8
BLACK
6
CONTINUOUS
10
0.223921
20
0.765296
11
0.222724
21
0.766493
0
LINE
8
BLACK
6
CONTINUOUS
10
0.222724
20
0.766493
11
0.220027
21
0.767842
0
LINE
8
BLACK
6
CONTINUOUS
10
0.220027
20
0.767842
11
0.210553
21
0.767842
0
LINE
8
BLACK
6
CONTINUOUS
10
0.210553
20
0.767842
11
0.210553
21
0.755
0
LINE
8
BLACK
6
CONTINUOUS
10
0.344341
20
0.821925
11
0.345134
21
0.820068
0
LINE
8
BLACK
6
CONTINUOUS
10
0.345134
20
0.820068
11
0.344548
21
0.818135
0
LINE
8
BLACK
6
CONTINUOUS
10
0.344548
20
0.818135
11
0.329212
21
0.797686
0
LINE
8
BLACK
6
CONTINUOUS
10
0.329212
20
0.797686
11
0.344274
21
0.782624
0
LINE
8
BLACK
6
CONTINUOUS
10
0.344274
20
0.782624
11
0.344862
21
0.781784
0
LINE
8
BLACK
6
CONTINUOUS
10
0.344862
20
0.781784
11
0.345038
21
0.779772
0
LINE
8
BLACK
6
CONTINUOUS
10
0.345038
20
0.779772
11
0.34388
21
0.778117
0
LINE
8
BLACK
6
CONTINUOUS
10
0.34388
20
0.778117
11
0.341929
21
0.777595
0
LINE
8
BLACK
6
CONTINUOUS
10
0.341929
20
0.777595
11
0.340098
21
0.778448
0
LINE
8
BLACK
6
CONTINUOUS
10
0.340098
20
0.778448
11
0.322642
21
0.795905
0
LINE
8
BLACK
6
CONTINUOUS
10
0.322642
20
0.795905
11
0.322642
21
0.780536
0
LINE
8
BLACK
6
CONTINUOUS
10
0.322642
20
0.780536
11
0.322463
21
0.779526
0
LINE
8
BLACK
6
CONTINUOUS
10
0.322463
20
0.779526
11
0.321165
21
0.777979
0
LINE
8
BLACK
6
CONTINUOUS
10
0.321165
20
0.777979
11
0.319176
21
0.777628
0
LINE
8
BLACK
6
CONTINUOUS
10
0.319176
20
0.777628
11
0.317427
21
0.778638
0
LINE
8
BLACK
6
CONTINUOUS
10
0.317427
20
0.778638
11
0.316736
21
0.780536
0
LINE
8
BLACK
6
CONTINUOUS
10
0.316736
20
0.780536
11
0.316736
21
0.819906
0
LINE
8
BLACK
6
CONTINUOUS
10
0.316736
20
0.819906
11
0.316914
21
0.820916
0
LINE
8
BLACK
6
CONTINUOUS
10
0.316914
20
0.820916
11
0.318212
21
0.822463
0
LINE
8
BLACK
6
CONTINUOUS
10
0.318212
20
0.822463
11
0.320202
21
0.822814
0
LINE
8
BLACK
6
CONTINUOUS
10
0.320202
20
0.822814
11
0.321951
21
0.821804
0
LINE
8
BLACK
6
CONTINUOUS
10
0.321951
20
0.821804
11
0.322642
21
0.819906
0
LINE
8
BLACK
6
CONTINUOUS
10
0.322642
20
0.819906
11
0.322642
21
0.804256
0
LINE
8
BLACK
6
CONTINUOUS
10
0.322642
20
0.804256
11
0.324994
21
0.801904
0
LINE
8
BLACK
6
CONTINUOUS
10
0.324994
20
0.801904
11
0.339824
21
0.821678
0
LINE
8
BLACK
6
CONTINUOUS
10
0.339824
20
0.821678
11
0.340572
21
0.822379
0
LINE
8
BLACK
6
CONTINUOUS
10
0.340572
20
0.822379
11
0.342539
21
0.822838
0
LINE
8
BLACK
6
CONTINUOUS
10
0.342539
20
0.822838
11
0.344341
21
0.821925
  0
ENDSEC
  0
EOF
