  0
SECTION
  2
HEADER
  9
$ANGBASE
  50
0.0
  9
$ANGDIR
  70
1
  9
$MEASUREMENT
  70
0
  0
ENDSEC
  0
SECTION
  2
TABLES
  0
TABLE
  2
LTYPE
  70
4
  0
LTYPE
  5
40F
  2
CONTINUOUS
  70
0
  3
Solid line
  72
65
  73
0
  40
0.0
  0
LTYPE
  5
410
  2
DASHDOT
 70
0
  3
Dash Dot ____ _ ____ _
 72
65
 73
4
 40
2.0
 49
1.25
 49
-0.25
 49
0.25
 49
-0.25
  0
LTYPE
  5
411
  2
DASHED
 70
0
  3
Dashed __ __ __ __ __
 72
65
 73
2
 40
0.75
 49
0.5
 49
-0.25
  0
LTYPE
  5
43B
  2
DOTTED
 70
0
  3
Dotted .  .  .  .
 72
65
 73
2
 40
0.2
 49
0.0
 49
-0.2
  0
ENDTAB
  0
TABLE
  2
STYLE
  70
4
  0
STYLE
  2
KICAD
  70
0
  40
0
  41
1
  42
1
  50
0
  71
0
  3
isocp.shx
  0
STYLE
  2
KICADB
  70
0
  40
0
  41
1
  42
1
  50
0
  71
0
  3
isocp.shx
  0
STYLE
  2
KICADI
  70
0
  40
0
  41
1
  42
1
  50
15
  71
0
  3
isocp.shx
  0
STYLE
  2
KICADBI
  70
0
  40
0
  41
1
  42
1
  50
15
  71
0
  3
isocp.shx
  0
ENDTAB
  0
TABLE
  2
LAYER
  70
1
  0
LAYER
  2
BLACK
  70
0
  62
7
  6
CONTINUOUS
  0
ENDTAB
  0
ENDSEC
  0
SECTION
  2
ENTITIES
0
LINE
8
BLACK
6
CONTINUOUS
10
0.211356
20
-0.0832989
11
0.212047
21
-0.0851969
0
LINE
8
BLACK
6
CONTINUOUS
10
0.212047
20
-0.0851969
11
0.212047
21
-0.145197
0
LINE
8
BLACK
6
CONTINUOUS
10
0.212047
20
-0.145197
11
0.211869
21
-0.146207
0
LINE
8
BLACK
6
CONTINUOUS
10
0.211869
20
-0.146207
11
0.210571
21
-0.147754
0
LINE
8
BLACK
6
CONTINUOUS
10
0.210571
20
-0.147754
11
0.208582
21
-0.148105
0
LINE
8
BLACK
6
CONTINUOUS
10
0.208582
20
-0.148105
11
0.206833
21
-0.147095
0
LINE
8
BLACK
6
CONTINUOUS
10
0.206833
20
-0.147095
11
0.206142
21
-0.145197
0
LINE
8
BLACK
6
CONTINUOUS
10
0.206142
20
-0.145197
11
0.206142
21
-0.0851969
0
LINE
8
BLACK
6
CONTINUOUS
10
0.206142
20
-0.0851969
11
0.20632
21
-0.0841869
0
LINE
8
BLACK
6
CONTINUOUS
10
0.20632
20
-0.0841869
11
0.207618
21
-0.0826397
0
LINE
8
BLACK
6
CONTINUOUS
10
0.207618
20
-0.0826397
11
0.209607
21
-0.0822889
0
LINE
8
BLACK
6
CONTINUOUS
10
0.209607
20
-0.0822889
11
0.211356
21
-0.0832989
0
LINE
8
BLACK
6
CONTINUOUS
10
0.331356
20
-0.0832989
11
0.332047
21
-0.0851969
0
LINE
8
BLACK
6
CONTINUOUS
10
0.332047
20
-0.0851969
11
0.332047
21
-0.145197
0
LINE
8
BLACK
6
CONTINUOUS
10
0.332047
20
-0.145197
11
0.331869
21
-0.146207
0
LINE
8
BLACK
6
CONTINUOUS
10
0.331869
20
-0.146207
11
0.330571
21
-0.147754
0
LINE
8
BLACK
6
CONTINUOUS
10
0.330571
20
-0.147754
11
0.328582
21
-0.148105
0
LINE
8
BLACK
6
CONTINUOUS
10
0.328582
20
-0.148105
11
0.326833
21
-0.147095
0
LINE
8
BLACK
6
CONTINUOUS
10
0.326833
20
-0.147095
11
0.326142
21
-0.145197
0
LINE
8
BLACK
6
CONTINUOUS
10
0.326142
20
-0.145197
11
0.326142
21
-0.0851969
0
LINE
8
BLACK
6
CONTINUOUS
10
0.326142
20
-0.0851969
11
0.32632
21
-0.0841869
0
LINE
8
BLACK
6
CONTINUOUS
10
0.32632
20
-0.0841869
11
0.327618
21
-0.0826397
0
LINE
8
BLACK
6
CONTINUOUS
10
0.327618
20
-0.0826397
11
0.329607
21
-0.0822889
0
LINE
8
BLACK
6
CONTINUOUS
10
0.329607
20
-0.0822889
11
0.331356
21
-0.0832989
0
LINE
8
BLACK
6
CONTINUOUS
10
0.285765
20
-0.143527
11
0.286457
21
-0.145197
0
LINE
8
BLACK
6
CONTINUOUS
10
0.286457
20
-0.145197
11
0.285765
21
-0.146867
0
LINE
8
BLACK
6
CONTINUOUS
10
0.285765
20
-0.146867
11
0.284094
21
-0.147559
0
LINE
8
BLACK
6
CONTINUOUS
10
0.284094
20
-0.147559
11
0.254094
21
-0.147559
0
LINE
8
BLACK
6
CONTINUOUS
10
0.254094
20
-0.147559
11
0.252424
21
-0.146867
0
LINE
8
BLACK
6
CONTINUOUS
10
0.252424
20
-0.146867
11
0.251732
21
-0.145197
0
LINE
8
BLACK
6
CONTINUOUS
10
0.251732
20
-0.145197
11
0.252424
21
-0.143527
0
LINE
8
BLACK
6
CONTINUOUS
10
0.252424
20
-0.143527
11
0.254094
21
-0.142835
0
LINE
8
BLACK
6
CONTINUOUS
10
0.254094
20
-0.142835
11
0.284094
21
-0.142835
0
LINE
8
BLACK
6
CONTINUOUS
10
0.284094
20
-0.142835
11
0.285765
21
-0.143527
0
LINE
8
BLACK
6
CONTINUOUS
10
0.285765
20
-0.0835265
11
0.286457
21
-0.0851969
0
LINE
8
BLACK
6
CONTINUOUS
10
0.286457
20
-0.0851969
11
0.285765
21
-0.0868672
0
LINE
8
BLACK
6
CONTINUOUS
10
0.285765
20
-0.0868672
11
0.284094
21
-0.0875591
0
LINE
8
BLACK
6
CONTINUOUS
10
0.284094
20
-0.0875591
11
0.254094
21
-0.0875591
0
LINE
8
BLACK
6
CONTINUOUS
10
0.254094
20
-0.0875591
11
0.252424
21
-0.0868672
0
LINE
8
BLACK
6
CONTINUOUS
10
0.252424
20
-0.0868672
11
0.251732
21
-0.0851969
0
LINE
8
BLACK
6
CONTINUOUS
10
0.251732
20
-0.0851969
11
0.252424
21
-0.0835265
0
LINE
8
BLACK
6
CONTINUOUS
10
0.252424
20
-0.0835265
11
0.254094
21
-0.0828346
0
LINE
8
BLACK
6
CONTINUOUS
10
0.254094
20
-0.0828346
11
0.284094
21
-0.0828346
0
LINE
8
BLACK
6
CONTINUOUS
10
0.284094
20
-0.0828346
11
0.285765
21
-0.0835265
0
LINE
8
BLACK
6
CONTINUOUS
10
0.956811
20
0.29689
11
0.962648
21
0.296315
0
LINE
8
BLACK
6
CONTINUOUS
10
0.962648
20
0.296315
11
0.968261
21
0.294612
0
LINE
8
BLACK
6
CONTINUOUS
10
0.968261
20
0.294612
11
0.973434
21
0.291847
0
LINE
8
BLACK
6
CONTINUOUS
10
0.973434
20
0.291847
11
0.977969
21
0.288126
0
LINE
8
BLACK
6
CONTINUOUS
10
0.977969
20
0.288126
11
0.98169
21
0.283592
0
LINE
8
BLACK
6
CONTINUOUS
10
0.98169
20
0.283592
11
0.984455
21
0.278419
0
LINE
8
BLACK
6
CONTINUOUS
10
0.984455
20
0.278419
11
0.986157
21
0.272806
0
LINE
8
BLACK
6
CONTINUOUS
10
0.986157
20
0.272806
11
0.986732
21
0.266969
0
LINE
8
BLACK
6
CONTINUOUS
10
0.986732
20
0.266969
11
0.986732
21
0.21185
0
LINE
8
BLACK
6
CONTINUOUS
10
0.986732
20
0.21185
11
0.986732
21
0.21185
0
LINE
8
BLACK
6
CONTINUOUS
10
0.986732
20
0.21185
11
0.986157
21
0.206013
0
LINE
8
BLACK
6
CONTINUOUS
10
0.986157
20
0.206013
11
0.984455
21
0.2004
0
LINE
8
BLACK
6
CONTINUOUS
10
0.984455
20
0.2004
11
0.98169
21
0.195227
0
LINE
8
BLACK
6
CONTINUOUS
10
0.98169
20
0.195227
11
0.977969
21
0.190693
0
LINE
8
BLACK
6
CONTINUOUS
10
0.977969
20
0.190693
11
0.973434
21
0.186972
0
LINE
8
BLACK
6
CONTINUOUS
10
0.973434
20
0.186972
11
0.968261
21
0.184207
0
LINE
8
BLACK
6
CONTINUOUS
10
0.968261
20
0.184207
11
0.962648
21
0.182504
0
LINE
8
BLACK
6
CONTINUOUS
10
0.962648
20
0.182504
11
0.956811
21
0.181929
0
LINE
8
BLACK
6
CONTINUOUS
10
0.956811
20
0.181929
11
0.933189
21
0.181929
0
LINE
8
BLACK
6
CONTINUOUS
10
0.933189
20
0.181929
11
0.927352
21
0.182504
0
LINE
8
BLACK
6
CONTINUOUS
10
0.927352
20
0.182504
11
0.921739
21
0.184207
0
LINE
8
BLACK
6
CONTINUOUS
10
0.921739
20
0.184207
11
0.916566
21
0.186972
0
LINE
8
BLACK
6
CONTINUOUS
10
0.916566
20
0.186972
11
0.912031
21
0.190693
0
LINE
8
BLACK
6
CONTINUOUS
10
0.912031
20
0.190693
11
0.90831
21
0.195227
0
LINE
8
BLACK
6
CONTINUOUS
10
0.90831
20
0.195227
11
0.905545
21
0.2004
0
LINE
8
BLACK
6
CONTINUOUS
10
0.905545
20
0.2004
11
0.903843
21
0.206013
0
LINE
8
BLACK
6
CONTINUOUS
10
0.903843
20
0.206013
11
0.903268
21
0.21185
0
LINE
8
BLACK
6
CONTINUOUS
10
0.903268
20
0.21185
11
0.903268
21
0.21185
0
LINE
8
BLACK
6
CONTINUOUS
10
0.903268
20
0.21185
11
0.903268
21
0.266969
0
LINE
8
BLACK
6
CONTINUOUS
10
0.903268
20
0.266969
11
0.903268
21
0.266969
0
LINE
8
BLACK
6
CONTINUOUS
10
0.903268
20
0.266969
11
0.903843
21
0.272806
0
LINE
8
BLACK
6
CONTINUOUS
10
0.903843
20
0.272806
11
0.905545
21
0.278419
0
LINE
8
BLACK
6
CONTINUOUS
10
0.905545
20
0.278419
11
0.90831
21
0.283592
0
LINE
8
BLACK
6
CONTINUOUS
10
0.90831
20
0.283592
11
0.912031
21
0.288126
0
LINE
8
BLACK
6
CONTINUOUS
10
0.912031
20
0.288126
11
0.916566
21
0.291847
0
LINE
8
BLACK
6
CONTINUOUS
10
0.916566
20
0.291847
11
0.921739
21
0.294612
0
LINE
8
BLACK
6
CONTINUOUS
10
0.921739
20
0.294612
11
0.927352
21
0.296315
0
LINE
8
BLACK
6
CONTINUOUS
10
0.927352
20
0.296315
11
0.933189
21
0.29689
0
LINE
8
BLACK
6
CONTINUOUS
10
0.933189
20
0.29689
11
0.956811
21
0.29689
0
LINE
8
BLACK
6
CONTINUOUS
10
0.933189
20
0.292165
11
0.93035
21
0.292165
0
LINE
8
BLACK
6
CONTINUOUS
10
0.93035
20
0.292165
11
0.924814
21
0.290902
0
LINE
8
BLACK
6
CONTINUOUS
10
0.924814
20
0.290902
11
0.919699
21
0.288438
0
LINE
8
BLACK
6
CONTINUOUS
10
0.919699
20
0.288438
11
0.915259
21
0.284898
0
LINE
8
BLACK
6
CONTINUOUS
10
0.915259
20
0.284898
11
0.911719
21
0.280459
0
LINE
8
BLACK
6
CONTINUOUS
10
0.911719
20
0.280459
11
0.909256
21
0.275343
0
LINE
8
BLACK
6
CONTINUOUS
10
0.909256
20
0.275343
11
0.907992
21
0.269808
0
LINE
8
BLACK
6
CONTINUOUS
10
0.907992
20
0.269808
11
0.907992
21
0.266969
0
LINE
8
BLACK
6
CONTINUOUS
10
0.907992
20
0.266969
11
0.907992
21
0.266969
0
LINE
8
BLACK
6
CONTINUOUS
10
0.907992
20
0.266969
11
0.907992
21
0.21185
0
LINE
8
BLACK
6
CONTINUOUS
10
0.907992
20
0.21185
11
0.907992
21
0.21185
0
LINE
8
BLACK
6
CONTINUOUS
10
0.907992
20
0.21185
11
0.907992
21
0.209011
0
LINE
8
BLACK
6
CONTINUOUS
10
0.907992
20
0.209011
11
0.909256
21
0.203476
0
LINE
8
BLACK
6
CONTINUOUS
10
0.909256
20
0.203476
11
0.911719
21
0.19836
0
LINE
8
BLACK
6
CONTINUOUS
10
0.911719
20
0.19836
11
0.915259
21
0.193921
0
LINE
8
BLACK
6
CONTINUOUS
10
0.915259
20
0.193921
11
0.919699
21
0.190381
0
LINE
8
BLACK
6
CONTINUOUS
10
0.919699
20
0.190381
11
0.924814
21
0.187917
0
LINE
8
BLACK
6
CONTINUOUS
10
0.924814
20
0.187917
11
0.93035
21
0.186654
0
LINE
8
BLACK
6
CONTINUOUS
10
0.93035
20
0.186654
11
0.933189
21
0.186654
0
LINE
8
BLACK
6
CONTINUOUS
10
0.933189
20
0.186654
11
0.956811
21
0.186654
0
LINE
8
BLACK
6
CONTINUOUS
10
0.956811
20
0.186654
11
0.95965
21
0.186654
0
LINE
8
BLACK
6
CONTINUOUS
10
0.95965
20
0.186654
11
0.965186
21
0.187917
0
LINE
8
BLACK
6
CONTINUOUS
10
0.965186
20
0.187917
11
0.970301
21
0.190381
0
LINE
8
BLACK
6
CONTINUOUS
10
0.970301
20
0.190381
11
0.974741
21
0.193921
0
LINE
8
BLACK
6
CONTINUOUS
10
0.974741
20
0.193921
11
0.978281
21
0.19836
0
LINE
8
BLACK
6
CONTINUOUS
10
0.978281
20
0.19836
11
0.980744
21
0.203476
0
LINE
8
BLACK
6
CONTINUOUS
10
0.980744
20
0.203476
11
0.982008
21
0.209011
0
LINE
8
BLACK
6
CONTINUOUS
10
0.982008
20
0.209011
11
0.982008
21
0.21185
0
LINE
8
BLACK
6
CONTINUOUS
10
0.982008
20
0.21185
11
0.982008
21
0.21185
0
LINE
8
BLACK
6
CONTINUOUS
10
0.982008
20
0.21185
11
0.982008
21
0.266969
0
LINE
8
BLACK
6
CONTINUOUS
10
0.982008
20
0.266969
11
0.982008
21
0.269808
0
LINE
8
BLACK
6
CONTINUOUS
10
0.982008
20
0.269808
11
0.980744
21
0.275343
0
LINE
8
BLACK
6
CONTINUOUS
10
0.980744
20
0.275343
11
0.978281
21
0.280459
0
LINE
8
BLACK
6
CONTINUOUS
10
0.978281
20
0.280459
11
0.974741
21
0.284898
0
LINE
8
BLACK
6
CONTINUOUS
10
0.974741
20
0.284898
11
0.970301
21
0.288438
0
LINE
8
BLACK
6
CONTINUOUS
10
0.970301
20
0.288438
11
0.965186
21
0.290902
0
LINE
8
BLACK
6
CONTINUOUS
10
0.965186
20
0.290902
11
0.95965
21
0.292165
0
LINE
8
BLACK
6
CONTINUOUS
10
0.95965
20
0.292165
11
0.956811
21
0.292165
0
LINE
8
BLACK
6
CONTINUOUS
10
0.956811
20
0.292165
11
0.933189
21
0.292165
0
LINE
8
BLACK
6
CONTINUOUS
10
0.865678
20
0.218346
11
0.866791
21
0.216661
0
LINE
8
BLACK
6
CONTINUOUS
10
0.866791
20
0.216661
11
0.86656
21
0.214654
0
LINE
8
BLACK
6
CONTINUOUS
10
0.86656
20
0.214654
11
0.864685
21
0.210905
0
LINE
8
BLACK
6
CONTINUOUS
10
0.864685
20
0.210905
11
0.864159
21
0.210196
0
LINE
8
BLACK
6
CONTINUOUS
10
0.864159
20
0.210196
11
0.864132
21
0.210137
0
LINE
8
BLACK
6
CONTINUOUS
10
0.864132
20
0.210137
11
0.861673
21
0.207679
0
LINE
8
BLACK
6
CONTINUOUS
10
0.861673
20
0.207679
11
0.889087
21
0.207679
0
LINE
8
BLACK
6
CONTINUOUS
10
0.889087
20
0.207679
11
0.889087
21
0.215975
0
LINE
8
BLACK
6
CONTINUOUS
10
0.889087
20
0.215975
11
0.889265
21
0.216985
0
LINE
8
BLACK
6
CONTINUOUS
10
0.889265
20
0.216985
11
0.890564
21
0.218532
0
LINE
8
BLACK
6
CONTINUOUS
10
0.890564
20
0.218532
11
0.892553
21
0.218883
0
LINE
8
BLACK
6
CONTINUOUS
10
0.892553
20
0.218883
11
0.894302
21
0.217873
0
LINE
8
BLACK
6
CONTINUOUS
10
0.894302
20
0.217873
11
0.894993
21
0.215975
0
LINE
8
BLACK
6
CONTINUOUS
10
0.894993
20
0.215975
11
0.894993
21
0.193478
0
LINE
8
BLACK
6
CONTINUOUS
10
0.894993
20
0.193478
11
0.894815
21
0.192468
0
LINE
8
BLACK
6
CONTINUOUS
10
0.894815
20
0.192468
11
0.893516
21
0.190921
0
LINE
8
BLACK
6
CONTINUOUS
10
0.893516
20
0.190921
11
0.891527
21
0.19057
0
LINE
8
BLACK
6
CONTINUOUS
10
0.891527
20
0.19057
11
0.889778
21
0.19158
0
LINE
8
BLACK
6
CONTINUOUS
10
0.889778
20
0.19158
11
0.889087
21
0.193478
0
LINE
8
BLACK
6
CONTINUOUS
10
0.889087
20
0.193478
11
0.889087
21
0.201774
0
LINE
8
BLACK
6
CONTINUOUS
10
0.889087
20
0.201774
11
0.85267
21
0.201774
0
LINE
8
BLACK
6
CONTINUOUS
10
0.85267
20
0.201774
11
0.85166
21
0.201952
0
LINE
8
BLACK
6
CONTINUOUS
10
0.85166
20
0.201952
11
0.85153
21
0.202061
0
LINE
8
BLACK
6
CONTINUOUS
10
0.85153
20
0.202061
11
0.851361
21
0.202079
0
LINE
8
BLACK
6
CONTINUOUS
10
0.851361
20
0.202079
11
0.850769
21
0.202699
0
LINE
8
BLACK
6
CONTINUOUS
10
0.850769
20
0.202699
11
0.850113
21
0.20325
0
LINE
8
BLACK
6
CONTINUOUS
10
0.850113
20
0.20325
11
0.850083
21
0.203417
0
LINE
8
BLACK
6
CONTINUOUS
10
0.850083
20
0.203417
11
0.849966
21
0.20354
0
LINE
8
BLACK
6
CONTINUOUS
10
0.849966
20
0.20354
11
0.849911
21
0.204395
0
LINE
8
BLACK
6
CONTINUOUS
10
0.849911
20
0.204395
11
0.849762
21
0.205239
0
LINE
8
BLACK
6
CONTINUOUS
10
0.849762
20
0.205239
11
0.849847
21
0.205386
0
LINE
8
BLACK
6
CONTINUOUS
10
0.849847
20
0.205386
11
0.849836
21
0.205556
0
LINE
8
BLACK
6
CONTINUOUS
10
0.849836
20
0.205556
11
0.850344
21
0.206246
0
LINE
8
BLACK
6
CONTINUOUS
10
0.850344
20
0.206246
11
0.850772
21
0.206988
0
LINE
8
BLACK
6
CONTINUOUS
10
0.850772
20
0.206988
11
0.850932
21
0.207046
0
LINE
8
BLACK
6
CONTINUOUS
10
0.850932
20
0.207046
11
0.851032
21
0.207183
0
LINE
8
BLACK
6
CONTINUOUS
10
0.851032
20
0.207183
11
0.856413
21
0.210771
0
LINE
8
BLACK
6
CONTINUOUS
10
0.856413
20
0.210771
11
0.859617
21
0.213974
0
LINE
8
BLACK
6
CONTINUOUS
10
0.859617
20
0.213974
11
0.861278
21
0.217295
0
LINE
8
BLACK
6
CONTINUOUS
10
0.861278
20
0.217295
11
0.861889
21
0.218119
0
LINE
8
BLACK
6
CONTINUOUS
10
0.861889
20
0.218119
11
0.863742
21
0.218922
0
LINE
8
BLACK
6
CONTINUOUS
10
0.863742
20
0.218922
11
0.865678
21
0.218346
0
LINE
8
BLACK
6
CONTINUOUS
10
0.109449
20
0.342323
11
0.111119
21
0.341631
0
LINE
8
BLACK
6
CONTINUOUS
10
0.111119
20
0.341631
11
0.111811
21
0.339961
0
LINE
8
BLACK
6
CONTINUOUS
10
0.111811
20
0.339961
11
0.111811
21
0.210039
0
LINE
8
BLACK
6
CONTINUOUS
10
0.111811
20
0.210039
11
0.111119
21
0.208369
0
LINE
8
BLACK
6
CONTINUOUS
10
0.111119
20
0.208369
11
0.109449
21
0.207677
0
LINE
8
BLACK
6
CONTINUOUS
10
0.109449
20
0.207677
11
-0.10748
21
0.207677
0
LINE
8
BLACK
6
CONTINUOUS
10
-0.10748
20
0.207677
11
-0.109151
21
0.208369
0
LINE
8
BLACK
6
CONTINUOUS
10
-0.109151
20
0.208369
11
-0.109843
21
0.210039
0
LINE
8
BLACK
6
CONTINUOUS
10
-0.109843
20
0.210039
11
-0.109151
21
0.21171
0
LINE
8
BLACK
6
CONTINUOUS
10
-0.109151
20
0.21171
11
-0.10748
21
0.212402
0
LINE
8
BLACK
6
CONTINUOUS
10
-0.10748
20
0.212402
11
0.107087
21
0.212402
0
LINE
8
BLACK
6
CONTINUOUS
10
0.107087
20
0.212402
11
0.107087
21
0.337598
0
LINE
8
BLACK
6
CONTINUOUS
10
0.107087
20
0.337598
11
-0.10748
21
0.337598
0
LINE
8
BLACK
6
CONTINUOUS
10
-0.10748
20
0.337598
11
-0.109151
21
0.33829
0
LINE
8
BLACK
6
CONTINUOUS
10
-0.109151
20
0.33829
11
-0.109843
21
0.339961
0
LINE
8
BLACK
6
CONTINUOUS
10
-0.109843
20
0.339961
11
-0.109151
21
0.341631
0
LINE
8
BLACK
6
CONTINUOUS
10
-0.109151
20
0.341631
11
-0.10748
21
0.342323
0
LINE
8
BLACK
6
CONTINUOUS
10
-0.10748
20
0.342323
11
0.109449
21
0.342323
0
LINE
8
BLACK
6
CONTINUOUS
10
0.89305
20
0.256245
11
0.894597
21
0.254947
0
LINE
8
BLACK
6
CONTINUOUS
10
0.894597
20
0.254947
11
0.894948
21
0.252957
0
LINE
8
BLACK
6
CONTINUOUS
10
0.894948
20
0.252957
11
0.893938
21
0.251208
0
LINE
8
BLACK
6
CONTINUOUS
10
0.893938
20
0.251208
11
0.89204
21
0.250517
0
LINE
8
BLACK
6
CONTINUOUS
10
0.89204
20
0.250517
11
0.876245
21
0.250517
0
LINE
8
BLACK
6
CONTINUOUS
10
0.876245
20
0.250517
11
0.876245
21
0.238472
0
LINE
8
BLACK
6
CONTINUOUS
10
0.876245
20
0.238472
11
0.876067
21
0.237462
0
LINE
8
BLACK
6
CONTINUOUS
10
0.876067
20
0.237462
11
0.875954
21
0.237327
0
LINE
8
BLACK
6
CONTINUOUS
10
0.875954
20
0.237327
11
0.875933
21
0.237152
0
LINE
8
BLACK
6
CONTINUOUS
10
0.875933
20
0.237152
11
0.874059
21
0.233402
0
LINE
8
BLACK
6
CONTINUOUS
10
0.874059
20
0.233402
11
0.873533
21
0.232693
0
LINE
8
BLACK
6
CONTINUOUS
10
0.873533
20
0.232693
11
0.873506
21
0.232635
0
LINE
8
BLACK
6
CONTINUOUS
10
0.873506
20
0.232635
11
0.871631
21
0.23076
0
LINE
8
BLACK
6
CONTINUOUS
10
0.871631
20
0.23076
11
0.870908
21
0.230254
0
LINE
8
BLACK
6
CONTINUOUS
10
0.870908
20
0.230254
11
0.870863
21
0.230207
0
LINE
8
BLACK
6
CONTINUOUS
10
0.870863
20
0.230207
11
0.867114
21
0.228332
0
LINE
8
BLACK
6
CONTINUOUS
10
0.867114
20
0.228332
11
0.866131
21
0.22804
0
LINE
8
BLACK
6
CONTINUOUS
10
0.866131
20
0.22804
11
0.865959
21
0.228081
0
LINE
8
BLACK
6
CONTINUOUS
10
0.865959
20
0.228081
11
0.865793
21
0.22802
0
LINE
8
BLACK
6
CONTINUOUS
10
0.865793
20
0.22802
11
0.860169
21
0.22802
0
LINE
8
BLACK
6
CONTINUOUS
10
0.860169
20
0.22802
11
0.859159
21
0.228198
0
LINE
8
BLACK
6
CONTINUOUS
10
0.859159
20
0.228198
11
0.859024
21
0.228312
0
LINE
8
BLACK
6
CONTINUOUS
10
0.859024
20
0.228312
11
0.858849
21
0.228332
0
LINE
8
BLACK
6
CONTINUOUS
10
0.858849
20
0.228332
11
0.855099
21
0.230207
0
LINE
8
BLACK
6
CONTINUOUS
10
0.855099
20
0.230207
11
0.85439
21
0.230733
0
LINE
8
BLACK
6
CONTINUOUS
10
0.85439
20
0.230733
11
0.854332
21
0.23076
0
LINE
8
BLACK
6
CONTINUOUS
10
0.854332
20
0.23076
11
0.852457
21
0.232635
0
LINE
8
BLACK
6
CONTINUOUS
10
0.852457
20
0.232635
11
0.851951
21
0.233358
0
LINE
8
BLACK
6
CONTINUOUS
10
0.851951
20
0.233358
11
0.851904
21
0.233402
0
LINE
8
BLACK
6
CONTINUOUS
10
0.851904
20
0.233402
11
0.850029
21
0.237152
0
LINE
8
BLACK
6
CONTINUOUS
10
0.850029
20
0.237152
11
0.849737
21
0.238135
0
LINE
8
BLACK
6
CONTINUOUS
10
0.849737
20
0.238135
11
0.849778
21
0.238306
0
LINE
8
BLACK
6
CONTINUOUS
10
0.849778
20
0.238306
11
0.849717
21
0.238472
0
LINE
8
BLACK
6
CONTINUOUS
10
0.849717
20
0.238472
11
0.849717
21
0.25347
0
LINE
8
BLACK
6
CONTINUOUS
10
0.849717
20
0.25347
11
0.849785
21
0.253854
0
LINE
8
BLACK
6
CONTINUOUS
10
0.849785
20
0.253854
11
0.849762
21
0.253983
0
LINE
8
BLACK
6
CONTINUOUS
10
0.849762
20
0.253983
11
0.849828
21
0.254097
0
LINE
8
BLACK
6
CONTINUOUS
10
0.849828
20
0.254097
11
0.849895
21
0.25448
0
LINE
8
BLACK
6
CONTINUOUS
10
0.849895
20
0.25448
11
0.850388
21
0.255068
0
LINE
8
BLACK
6
CONTINUOUS
10
0.850388
20
0.255068
11
0.850772
21
0.255732
0
LINE
8
BLACK
6
CONTINUOUS
10
0.850772
20
0.255732
11
0.851022
21
0.255823
0
LINE
8
BLACK
6
CONTINUOUS
10
0.851022
20
0.255823
11
0.851194
21
0.256027
0
LINE
8
BLACK
6
CONTINUOUS
10
0.851194
20
0.256027
11
0.851949
21
0.256161
0
LINE
8
BLACK
6
CONTINUOUS
10
0.851949
20
0.256161
11
0.85267
21
0.256423
0
LINE
8
BLACK
6
CONTINUOUS
10
0.85267
20
0.256423
11
0.89204
21
0.256423
0
LINE
8
BLACK
6
CONTINUOUS
10
0.89204
20
0.256423
11
0.89305
21
0.256245
0
LINE
8
BLACK
6
CONTINUOUS
10
0.855623
20
0.239169
11
0.856972
21
0.236472
0
LINE
8
BLACK
6
CONTINUOUS
10
0.856972
20
0.236472
11
0.858169
21
0.235275
0
LINE
8
BLACK
6
CONTINUOUS
10
0.858169
20
0.235275
11
0.860866
21
0.233926
0
LINE
8
BLACK
6
CONTINUOUS
10
0.860866
20
0.233926
11
0.865096
21
0.233926
0
LINE
8
BLACK
6
CONTINUOUS
10
0.865096
20
0.233926
11
0.867794
21
0.235275
0
LINE
8
BLACK
6
CONTINUOUS
10
0.867794
20
0.235275
11
0.868991
21
0.236472
0
LINE
8
BLACK
6
CONTINUOUS
10
0.868991
20
0.236472
11
0.87034
21
0.239169
0
LINE
8
BLACK
6
CONTINUOUS
10
0.87034
20
0.239169
11
0.87034
21
0.250517
0
LINE
8
BLACK
6
CONTINUOUS
10
0.87034
20
0.250517
11
0.855623
21
0.250517
0
LINE
8
BLACK
6
CONTINUOUS
10
0.855623
20
0.250517
11
0.855623
21
0.239169
0
LINE
8
BLACK
6
CONTINUOUS
10
-0.0334561
20
0.273935
11
-0.0323433
21
0.27225
0
LINE
8
BLACK
6
CONTINUOUS
10
-0.0323433
20
0.27225
11
-0.0325742
21
0.270243
0
LINE
8
BLACK
6
CONTINUOUS
10
-0.0325742
20
0.270243
11
-0.034449
21
0.266494
0
LINE
8
BLACK
6
CONTINUOUS
10
-0.034449
20
0.266494
11
-0.0349749
21
0.265784
0
LINE
8
BLACK
6
CONTINUOUS
10
-0.0349749
20
0.265784
11
-0.0350021
21
0.265726
0
LINE
8
BLACK
6
CONTINUOUS
10
-0.0350021
20
0.265726
11
-0.0374605
21
0.263268
0
LINE
8
BLACK
6
CONTINUOUS
10
-0.0374605
20
0.263268
11
-0.0100465
21
0.263268
0
LINE
8
BLACK
6
CONTINUOUS
10
-0.0100465
20
0.263268
11
-0.0100465
21
0.271564
0
LINE
8
BLACK
6
CONTINUOUS
10
-0.0100465
20
0.271564
11
-0.00986843
21
0.272573
0
LINE
8
BLACK
6
CONTINUOUS
10
-0.00986843
20
0.272573
11
-0.00857012
21
0.274121
0
LINE
8
BLACK
6
CONTINUOUS
10
-0.00857012
20
0.274121
11
-0.00658098
21
0.274471
0
LINE
8
BLACK
6
CONTINUOUS
10
-0.00658098
20
0.274471
11
-0.00483181
21
0.273462
0
LINE
8
BLACK
6
CONTINUOUS
10
-0.00483181
20
0.273462
11
-0.00414098
21
0.271564
0
LINE
8
BLACK
6
CONTINUOUS
10
-0.00414098
20
0.271564
11
-0.00414098
21
0.249066
0
LINE
8
BLACK
6
CONTINUOUS
10
-0.00414098
20
0.249066
11
-0.00431906
21
0.248056
0
LINE
8
BLACK
6
CONTINUOUS
10
-0.00431906
20
0.248056
11
-0.00561736
21
0.246509
0
LINE
8
BLACK
6
CONTINUOUS
10
-0.00561736
20
0.246509
11
-0.0076065
21
0.246158
0
LINE
8
BLACK
6
CONTINUOUS
10
-0.0076065
20
0.246158
11
-0.00935567
21
0.247168
0
LINE
8
BLACK
6
CONTINUOUS
10
-0.00935567
20
0.247168
11
-0.0100465
21
0.249066
0
LINE
8
BLACK
6
CONTINUOUS
10
-0.0100465
20
0.249066
11
-0.0100465
21
0.257362
0
LINE
8
BLACK
6
CONTINUOUS
10
-0.0100465
20
0.257362
11
-0.0464638
21
0.257362
0
LINE
8
BLACK
6
CONTINUOUS
10
-0.0464638
20
0.257362
11
-0.0474737
21
0.25754
0
LINE
8
BLACK
6
CONTINUOUS
10
-0.0474737
20
0.25754
11
-0.0476038
21
0.257649
0
LINE
8
BLACK
6
CONTINUOUS
10
-0.0476038
20
0.257649
11
-0.0477726
21
0.257668
0
LINE
8
BLACK
6
CONTINUOUS
10
-0.0477726
20
0.257668
11
-0.0483645
21
0.258288
0
LINE
8
BLACK
6
CONTINUOUS
10
-0.0483645
20
0.258288
11
-0.049021
21
0.258839
0
LINE
8
BLACK
6
CONTINUOUS
10
-0.049021
20
0.258839
11
-0.0490505
21
0.259006
0
LINE
8
BLACK
6
CONTINUOUS
10
-0.0490505
20
0.259006
11
-0.0491678
21
0.259129
0
LINE
8
BLACK
6
CONTINUOUS
10
-0.0491678
20
0.259129
11
-0.0492229
21
0.259984
0
LINE
8
BLACK
6
CONTINUOUS
10
-0.0492229
20
0.259984
11
-0.0493717
21
0.260828
0
LINE
8
BLACK
6
CONTINUOUS
10
-0.0493717
20
0.260828
11
-0.0492869
21
0.260975
0
LINE
8
BLACK
6
CONTINUOUS
10
-0.0492869
20
0.260975
11
-0.0492978
21
0.261144
0
LINE
8
BLACK
6
CONTINUOUS
10
-0.0492978
20
0.261144
11
-0.0487903
21
0.261835
0
LINE
8
BLACK
6
CONTINUOUS
10
-0.0487903
20
0.261835
11
-0.0483618
21
0.262577
0
LINE
8
BLACK
6
CONTINUOUS
10
-0.0483618
20
0.262577
11
-0.0482023
21
0.262635
0
LINE
8
BLACK
6
CONTINUOUS
10
-0.0482023
20
0.262635
11
-0.0481017
21
0.262772
0
LINE
8
BLACK
6
CONTINUOUS
10
-0.0481017
20
0.262772
11
-0.0427207
21
0.266359
0
LINE
8
BLACK
6
CONTINUOUS
10
-0.0427207
20
0.266359
11
-0.0395167
21
0.269563
0
LINE
8
BLACK
6
CONTINUOUS
10
-0.0395167
20
0.269563
11
-0.0378563
21
0.272884
0
LINE
8
BLACK
6
CONTINUOUS
10
-0.0378563
20
0.272884
11
-0.0372454
21
0.273708
0
LINE
8
BLACK
6
CONTINUOUS
10
-0.0372454
20
0.273708
11
-0.0353922
21
0.274511
0
LINE
8
BLACK
6
CONTINUOUS
10
-0.0353922
20
0.274511
11
-0.0334561
21
0.273935
0
LINE
8
BLACK
6
CONTINUOUS
10
0.894302
20
0.289114
11
0.894993
21
0.287216
0
LINE
8
BLACK
6
CONTINUOUS
10
0.894993
20
0.287216
11
0.894993
21
0.283466
0
LINE
8
BLACK
6
CONTINUOUS
10
0.894993
20
0.283466
11
0.89484
21
0.282597
0
LINE
8
BLACK
6
CONTINUOUS
10
0.89484
20
0.282597
11
0.894841
21
0.282533
0
LINE
8
BLACK
6
CONTINUOUS
10
0.894841
20
0.282533
11
0.892967
21
0.276908
0
LINE
8
BLACK
6
CONTINUOUS
10
0.892967
20
0.276908
11
0.892478
21
0.276007
0
LINE
8
BLACK
6
CONTINUOUS
10
0.892478
20
0.276007
11
0.892328
21
0.275914
0
LINE
8
BLACK
6
CONTINUOUS
10
0.892328
20
0.275914
11
0.892253
21
0.275754
0
LINE
8
BLACK
6
CONTINUOUS
10
0.892253
20
0.275754
11
0.888504
21
0.272005
0
LINE
8
BLACK
6
CONTINUOUS
10
0.888504
20
0.272005
11
0.887664
21
0.271416
0
LINE
8
BLACK
6
CONTINUOUS
10
0.887664
20
0.271416
11
0.887488
21
0.271401
0
LINE
8
BLACK
6
CONTINUOUS
10
0.887488
20
0.271401
11
0.88735
21
0.271291
0
LINE
8
BLACK
6
CONTINUOUS
10
0.88735
20
0.271291
11
0.881725
21
0.269417
0
LINE
8
BLACK
6
CONTINUOUS
10
0.881725
20
0.269417
11
0.880852
21
0.269287
0
LINE
8
BLACK
6
CONTINUOUS
10
0.880852
20
0.269287
11
0.880791
21
0.269265
0
LINE
8
BLACK
6
CONTINUOUS
10
0.880791
20
0.269265
11
0.85267
21
0.269265
0
LINE
8
BLACK
6
CONTINUOUS
10
0.85267
20
0.269265
11
0.85166
21
0.269443
0
LINE
8
BLACK
6
CONTINUOUS
10
0.85166
20
0.269443
11
0.850113
21
0.270741
0
LINE
8
BLACK
6
CONTINUOUS
10
0.850113
20
0.270741
11
0.849762
21
0.272731
0
LINE
8
BLACK
6
CONTINUOUS
10
0.849762
20
0.272731
11
0.850772
21
0.27448
0
LINE
8
BLACK
6
CONTINUOUS
10
0.850772
20
0.27448
11
0.85267
21
0.275171
0
LINE
8
BLACK
6
CONTINUOUS
10
0.85267
20
0.275171
11
0.880312
21
0.275171
0
LINE
8
BLACK
6
CONTINUOUS
10
0.880312
20
0.275171
11
0.884821
21
0.276673
0
LINE
8
BLACK
6
CONTINUOUS
10
0.884821
20
0.276673
11
0.887585
21
0.279437
0
LINE
8
BLACK
6
CONTINUOUS
10
0.887585
20
0.279437
11
0.889087
21
0.283946
0
LINE
8
BLACK
6
CONTINUOUS
10
0.889087
20
0.283946
11
0.889087
21
0.287216
0
LINE
8
BLACK
6
CONTINUOUS
10
0.889087
20
0.287216
11
0.889265
21
0.288226
0
LINE
8
BLACK
6
CONTINUOUS
10
0.889265
20
0.288226
11
0.890564
21
0.289773
0
LINE
8
BLACK
6
CONTINUOUS
10
0.890564
20
0.289773
11
0.892553
21
0.290124
0
LINE
8
BLACK
6
CONTINUOUS
10
0.892553
20
0.290124
11
0.894302
21
0.289114
0
LINE
8
BLACK
6
CONTINUOUS
10
-0.00671024
20
0.311944
11
-0.00658098
21
0.311967
0
LINE
8
BLACK
6
CONTINUOUS
10
-0.00658098
20
0.311967
11
-0.0064674
21
0.311901
0
LINE
8
BLACK
6
CONTINUOUS
10
-0.0064674
20
0.311901
11
-0.00608382
21
0.311834
0
LINE
8
BLACK
6
CONTINUOUS
10
-0.00608382
20
0.311834
11
-0.00549614
21
0.31134
0
LINE
8
BLACK
6
CONTINUOUS
10
-0.00549614
20
0.31134
11
-0.00483181
21
0.310957
0
LINE
8
BLACK
6
CONTINUOUS
10
-0.00483181
20
0.310957
11
-0.00474071
21
0.310707
0
LINE
8
BLACK
6
CONTINUOUS
10
-0.00474071
20
0.310707
11
-0.00453657
21
0.310535
0
LINE
8
BLACK
6
CONTINUOUS
10
-0.00453657
20
0.310535
11
-0.00440335
21
0.30978
0
LINE
8
BLACK
6
CONTINUOUS
10
-0.00440335
20
0.30978
11
-0.00414098
21
0.309059
0
LINE
8
BLACK
6
CONTINUOUS
10
-0.00414098
20
0.309059
11
-0.00414098
21
0.299685
0
LINE
8
BLACK
6
CONTINUOUS
10
-0.00414098
20
0.299685
11
-0.00429429
21
0.298816
0
LINE
8
BLACK
6
CONTINUOUS
10
-0.00429429
20
0.298816
11
-0.00429252
21
0.298751
0
LINE
8
BLACK
6
CONTINUOUS
10
-0.00429252
20
0.298751
11
-0.00616728
21
0.293127
0
LINE
8
BLACK
6
CONTINUOUS
10
-0.00616728
20
0.293127
11
-0.00665559
21
0.292225
0
LINE
8
BLACK
6
CONTINUOUS
10
-0.00665559
20
0.292225
11
-0.00680598
21
0.292133
0
LINE
8
BLACK
6
CONTINUOUS
10
-0.00680598
20
0.292133
11
-0.00688059
21
0.291973
0
LINE
8
BLACK
6
CONTINUOUS
10
-0.00688059
20
0.291973
11
-0.0106302
21
0.288223
0
LINE
8
BLACK
6
CONTINUOUS
10
-0.0106302
20
0.288223
11
-0.0113533
21
0.287717
0
LINE
8
BLACK
6
CONTINUOUS
10
-0.0113533
20
0.287717
11
-0.0113976
21
0.28767
0
LINE
8
BLACK
6
CONTINUOUS
10
-0.0113976
20
0.28767
11
-0.0151471
21
0.285795
0
LINE
8
BLACK
6
CONTINUOUS
10
-0.0151471
20
0.285795
11
-0.0156356
21
0.28565
0
LINE
8
BLACK
6
CONTINUOUS
10
-0.0156356
20
0.28565
11
-0.0157515
21
0.285572
0
LINE
8
BLACK
6
CONTINUOUS
10
-0.0157515
20
0.285572
11
-0.0232505
21
0.283697
0
LINE
8
BLACK
6
CONTINUOUS
10
-0.0232505
20
0.283697
11
-0.0238384
21
0.283656
0
LINE
8
BLACK
6
CONTINUOUS
10
-0.0238384
20
0.283656
11
-0.0239667
21
0.283609
0
LINE
8
BLACK
6
CONTINUOUS
10
-0.0239667
20
0.283609
11
-0.0295909
21
0.283609
0
LINE
8
BLACK
6
CONTINUOUS
10
-0.0295909
20
0.283609
11
-0.0301713
21
0.283711
0
LINE
8
BLACK
6
CONTINUOUS
10
-0.0301713
20
0.283711
11
-0.0303071
21
0.283697
0
LINE
8
BLACK
6
CONTINUOUS
10
-0.0303071
20
0.283697
11
-0.0378061
21
0.285572
0
LINE
8
BLACK
6
CONTINUOUS
10
-0.0378061
20
0.285572
11
-0.0382716
21
0.285779
0
LINE
8
BLACK
6
CONTINUOUS
10
-0.0382716
20
0.285779
11
-0.0384105
21
0.285795
0
LINE
8
BLACK
6
CONTINUOUS
10
-0.0384105
20
0.285795
11
-0.04216
21
0.28767
0
LINE
8
BLACK
6
CONTINUOUS
10
-0.04216
20
0.28767
11
-0.0428691
21
0.288196
0
LINE
8
BLACK
6
CONTINUOUS
10
-0.0428691
20
0.288196
11
-0.0429274
21
0.288223
0
LINE
8
BLACK
6
CONTINUOUS
10
-0.0429274
20
0.288223
11
-0.046677
21
0.291973
0
LINE
8
BLACK
6
CONTINUOUS
10
-0.046677
20
0.291973
11
-0.0472652
21
0.292813
0
LINE
8
BLACK
6
CONTINUOUS
10
-0.0472652
20
0.292813
11
-0.0472806
21
0.292989
0
LINE
8
BLACK
6
CONTINUOUS
10
-0.0472806
20
0.292989
11
-0.0473903
21
0.293127
0
LINE
8
BLACK
6
CONTINUOUS
10
-0.0473903
20
0.293127
11
-0.049265
21
0.298751
0
LINE
8
BLACK
6
CONTINUOUS
10
-0.049265
20
0.298751
11
-0.0493945
21
0.299624
0
LINE
8
BLACK
6
CONTINUOUS
10
-0.0493945
20
0.299624
11
-0.0494166
21
0.299685
0
LINE
8
BLACK
6
CONTINUOUS
10
-0.0494166
20
0.299685
11
-0.0494166
21
0.309059
0
LINE
8
BLACK
6
CONTINUOUS
10
-0.0494166
20
0.309059
11
-0.049349
21
0.309442
0
LINE
8
BLACK
6
CONTINUOUS
10
-0.049349
20
0.309442
11
-0.0493717
21
0.309572
0
LINE
8
BLACK
6
CONTINUOUS
10
-0.0493717
20
0.309572
11
-0.0493061
21
0.309685
0
LINE
8
BLACK
6
CONTINUOUS
10
-0.0493061
20
0.309685
11
-0.0492385
21
0.310069
0
LINE
8
BLACK
6
CONTINUOUS
10
-0.0492385
20
0.310069
11
-0.0487454
21
0.310656
0
LINE
8
BLACK
6
CONTINUOUS
10
-0.0487454
20
0.310656
11
-0.0483618
21
0.311321
0
LINE
8
BLACK
6
CONTINUOUS
10
-0.0483618
20
0.311321
11
-0.0481115
21
0.311412
0
LINE
8
BLACK
6
CONTINUOUS
10
-0.0481115
20
0.311412
11
-0.0479402
21
0.311616
0
LINE
8
BLACK
6
CONTINUOUS
10
-0.0479402
20
0.311616
11
-0.0471846
21
0.311749
0
LINE
8
BLACK
6
CONTINUOUS
10
-0.0471846
20
0.311749
11
-0.0464638
21
0.312012
0
LINE
8
BLACK
6
CONTINUOUS
10
-0.0464638
20
0.312012
11
-0.00709374
21
0.312012
0
LINE
8
BLACK
6
CONTINUOUS
10
-0.00709374
20
0.312012
11
-0.00671024
21
0.311944
0
LINE
8
BLACK
6
CONTINUOUS
10
-0.0435111
20
0.300164
11
-0.0420083
21
0.295656
0
LINE
8
BLACK
6
CONTINUOUS
10
-0.0420083
20
0.295656
11
-0.0390904
21
0.292738
0
LINE
8
BLACK
6
CONTINUOUS
10
-0.0390904
20
0.292738
11
-0.0360594
21
0.291222
0
LINE
8
BLACK
6
CONTINUOUS
10
-0.0360594
20
0.291222
11
-0.0292274
21
0.289514
0
LINE
8
BLACK
6
CONTINUOUS
10
-0.0292274
20
0.289514
11
-0.0243302
21
0.289514
0
LINE
8
BLACK
6
CONTINUOUS
10
-0.0243302
20
0.289514
11
-0.0174981
21
0.291222
0
LINE
8
BLACK
6
CONTINUOUS
10
-0.0174981
20
0.291222
11
-0.0144672
21
0.292738
0
LINE
8
BLACK
6
CONTINUOUS
10
-0.0144672
20
0.292738
11
-0.0115493
21
0.295656
0
LINE
8
BLACK
6
CONTINUOUS
10
-0.0115493
20
0.295656
11
-0.0100465
21
0.300164
0
LINE
8
BLACK
6
CONTINUOUS
10
-0.0100465
20
0.300164
11
-0.0100465
21
0.306106
0
LINE
8
BLACK
6
CONTINUOUS
10
-0.0100465
20
0.306106
11
-0.0435111
21
0.306106
0
LINE
8
BLACK
6
CONTINUOUS
10
-0.0435111
20
0.306106
11
-0.0435111
21
0.300164
0
LINE
8
BLACK
6
CONTINUOUS
10
0.922262
20
0.386898
11
0.922953
21
0.385
0
LINE
8
BLACK
6
CONTINUOUS
10
0.922953
20
0.385
11
0.922953
21
0.325
0
LINE
8
BLACK
6
CONTINUOUS
10
0.922953
20
0.325
11
0.922775
21
0.32399
0
LINE
8
BLACK
6
CONTINUOUS
10
0.922775
20
0.32399
11
0.921476
21
0.322443
0
LINE
8
BLACK
6
CONTINUOUS
10
0.921476
20
0.322443
11
0.919487
21
0.322092
0
LINE
8
BLACK
6
CONTINUOUS
10
0.919487
20
0.322092
11
0.917738
21
0.323102
0
LINE
8
BLACK
6
CONTINUOUS
10
0.917738
20
0.323102
11
0.917047
21
0.325
0
LINE
8
BLACK
6
CONTINUOUS
10
0.917047
20
0.325
11
0.917047
21
0.385
0
LINE
8
BLACK
6
CONTINUOUS
10
0.917047
20
0.385
11
0.917225
21
0.38601
0
LINE
8
BLACK
6
CONTINUOUS
10
0.917225
20
0.38601
11
0.918524
21
0.387557
0
LINE
8
BLACK
6
CONTINUOUS
10
0.918524
20
0.387557
11
0.920513
21
0.387908
0
LINE
8
BLACK
6
CONTINUOUS
10
0.920513
20
0.387908
11
0.922262
21
0.386898
0
LINE
8
BLACK
6
CONTINUOUS
10
1.04226
20
0.386898
11
1.04295
21
0.385
0
LINE
8
BLACK
6
CONTINUOUS
10
1.04295
20
0.385
11
1.04295
21
0.325
0
LINE
8
BLACK
6
CONTINUOUS
10
1.04295
20
0.325
11
1.04277
21
0.32399
0
LINE
8
BLACK
6
CONTINUOUS
10
1.04277
20
0.32399
11
1.04148
21
0.322443
0
LINE
8
BLACK
6
CONTINUOUS
10
1.04148
20
0.322443
11
1.03949
21
0.322092
0
LINE
8
BLACK
6
CONTINUOUS
10
1.03949
20
0.322092
11
1.03774
21
0.323102
0
LINE
8
BLACK
6
CONTINUOUS
10
1.03774
20
0.323102
11
1.03705
21
0.325
0
LINE
8
BLACK
6
CONTINUOUS
10
1.03705
20
0.325
11
1.03705
21
0.385
0
LINE
8
BLACK
6
CONTINUOUS
10
1.03705
20
0.385
11
1.03723
21
0.38601
0
LINE
8
BLACK
6
CONTINUOUS
10
1.03723
20
0.38601
11
1.03852
21
0.387557
0
LINE
8
BLACK
6
CONTINUOUS
10
1.03852
20
0.387557
11
1.04051
21
0.387908
0
LINE
8
BLACK
6
CONTINUOUS
10
1.04051
20
0.387908
11
1.04226
21
0.386898
0
LINE
8
BLACK
6
CONTINUOUS
10
0.99667
20
0.32667
11
0.997362
21
0.325
0
LINE
8
BLACK
6
CONTINUOUS
10
0.997362
20
0.325
11
0.99667
21
0.32333
0
LINE
8
BLACK
6
CONTINUOUS
10
0.99667
20
0.32333
11
0.995
21
0.322638
0
LINE
8
BLACK
6
CONTINUOUS
10
0.995
20
0.322638
11
0.965
21
0.322638
0
LINE
8
BLACK
6
CONTINUOUS
10
0.965
20
0.322638
11
0.96333
21
0.32333
0
LINE
8
BLACK
6
CONTINUOUS
10
0.96333
20
0.32333
11
0.962638
21
0.325
0
LINE
8
BLACK
6
CONTINUOUS
10
0.962638
20
0.325
11
0.96333
21
0.32667
0
LINE
8
BLACK
6
CONTINUOUS
10
0.96333
20
0.32667
11
0.965
21
0.327362
0
LINE
8
BLACK
6
CONTINUOUS
10
0.965
20
0.327362
11
0.995
21
0.327362
0
LINE
8
BLACK
6
CONTINUOUS
10
0.995
20
0.327362
11
0.99667
21
0.32667
0
LINE
8
BLACK
6
CONTINUOUS
10
0.905741
20
0.360459
11
0.905875
21
0.360471
0
LINE
8
BLACK
6
CONTINUOUS
10
0.905875
20
0.360471
11
0.906603
21
0.359961
0
LINE
8
BLACK
6
CONTINUOUS
10
0.906603
20
0.359961
11
0.907373
21
0.359517
0
LINE
8
BLACK
6
CONTINUOUS
10
0.907373
20
0.359517
11
0.907419
21
0.35939
0
LINE
8
BLACK
6
CONTINUOUS
10
0.907419
20
0.35939
11
0.90753
21
0.359313
0
LINE
8
BLACK
6
CONTINUOUS
10
0.90753
20
0.359313
11
0.90776
21
0.358454
0
LINE
8
BLACK
6
CONTINUOUS
10
0.90776
20
0.358454
11
0.908064
21
0.357619
0
LINE
8
BLACK
6
CONTINUOUS
10
0.908064
20
0.357619
11
0.908064
21
0.333247
0
LINE
8
BLACK
6
CONTINUOUS
10
0.908064
20
0.333247
11
0.907886
21
0.332237
0
LINE
8
BLACK
6
CONTINUOUS
10
0.907886
20
0.332237
11
0.906587
21
0.33069
0
LINE
8
BLACK
6
CONTINUOUS
10
0.906587
20
0.33069
11
0.904598
21
0.330339
0
LINE
8
BLACK
6
CONTINUOUS
10
0.904598
20
0.330339
11
0.902849
21
0.331349
0
LINE
8
BLACK
6
CONTINUOUS
10
0.902849
20
0.331349
11
0.902158
21
0.333247
0
LINE
8
BLACK
6
CONTINUOUS
10
0.902158
20
0.333247
11
0.902158
21
0.350491
0
LINE
8
BLACK
6
CONTINUOUS
10
0.902158
20
0.350491
11
0.884702
21
0.333034
0
LINE
8
BLACK
6
CONTINUOUS
10
0.884702
20
0.333034
11
0.883862
21
0.332446
0
LINE
8
BLACK
6
CONTINUOUS
10
0.883862
20
0.332446
11
0.883686
21
0.33243
0
LINE
8
BLACK
6
CONTINUOUS
10
0.883686
20
0.33243
11
0.883548
21
0.332321
0
LINE
8
BLACK
6
CONTINUOUS
10
0.883548
20
0.332321
11
0.877923
21
0.330446
0
LINE
8
BLACK
6
CONTINUOUS
10
0.877923
20
0.330446
11
0.87705
21
0.330316
0
LINE
8
BLACK
6
CONTINUOUS
10
0.87705
20
0.330316
11
0.876989
21
0.330294
0
LINE
8
BLACK
6
CONTINUOUS
10
0.876989
20
0.330294
11
0.87324
21
0.330294
0
LINE
8
BLACK
6
CONTINUOUS
10
0.87324
20
0.330294
11
0.87223
21
0.330472
0
LINE
8
BLACK
6
CONTINUOUS
10
0.87223
20
0.330472
11
0.872095
21
0.330586
0
LINE
8
BLACK
6
CONTINUOUS
10
0.872095
20
0.330586
11
0.871919
21
0.330606
0
LINE
8
BLACK
6
CONTINUOUS
10
0.871919
20
0.330606
11
0.86817
21
0.332481
0
LINE
8
BLACK
6
CONTINUOUS
10
0.86817
20
0.332481
11
0.867461
21
0.333007
0
LINE
8
BLACK
6
CONTINUOUS
10
0.867461
20
0.333007
11
0.867403
21
0.333034
0
LINE
8
BLACK
6
CONTINUOUS
10
0.867403
20
0.333034
11
0.865528
21
0.334909
0
LINE
8
BLACK
6
CONTINUOUS
10
0.865528
20
0.334909
11
0.865021
21
0.335632
0
LINE
8
BLACK
6
CONTINUOUS
10
0.865021
20
0.335632
11
0.864975
21
0.335676
0
LINE
8
BLACK
6
CONTINUOUS
10
0.864975
20
0.335676
11
0.8631
21
0.339426
0
LINE
8
BLACK
6
CONTINUOUS
10
0.8631
20
0.339426
11
0.862808
21
0.340409
0
LINE
8
BLACK
6
CONTINUOUS
10
0.862808
20
0.340409
11
0.862849
21
0.34058
0
LINE
8
BLACK
6
CONTINUOUS
10
0.862849
20
0.34058
11
0.862788
21
0.340746
0
LINE
8
BLACK
6
CONTINUOUS
10
0.862788
20
0.340746
11
0.862788
21
0.35012
0
LINE
8
BLACK
6
CONTINUOUS
10
0.862788
20
0.35012
11
0.862966
21
0.35113
0
LINE
8
BLACK
6
CONTINUOUS
10
0.862966
20
0.35113
11
0.86308
21
0.351265
0
LINE
8
BLACK
6
CONTINUOUS
10
0.86308
20
0.351265
11
0.8631
21
0.351441
0
LINE
8
BLACK
6
CONTINUOUS
10
0.8631
20
0.351441
11
0.864975
21
0.35519
0
LINE
8
BLACK
6
CONTINUOUS
10
0.864975
20
0.35519
11
0.865501
21
0.355899
0
LINE
8
BLACK
6
CONTINUOUS
10
0.865501
20
0.355899
11
0.865528
21
0.355957
0
LINE
8
BLACK
6
CONTINUOUS
10
0.865528
20
0.355957
11
0.867403
21
0.357832
0
LINE
8
BLACK
6
CONTINUOUS
10
0.867403
20
0.357832
11
0.868243
21
0.35842
0
LINE
8
BLACK
6
CONTINUOUS
10
0.868243
20
0.35842
11
0.870255
21
0.358596
0
LINE
8
BLACK
6
CONTINUOUS
10
0.870255
20
0.358596
11
0.871909
21
0.357438
0
LINE
8
BLACK
6
CONTINUOUS
10
0.871909
20
0.357438
11
0.872432
21
0.355487
0
LINE
8
BLACK
6
CONTINUOUS
10
0.872432
20
0.355487
11
0.871578
21
0.353656
0
LINE
8
BLACK
6
CONTINUOUS
10
0.871578
20
0.353656
11
0.870042
21
0.35212
0
LINE
8
BLACK
6
CONTINUOUS
10
0.870042
20
0.35212
11
0.868694
21
0.349423
0
LINE
8
BLACK
6
CONTINUOUS
10
0.868694
20
0.349423
11
0.868694
21
0.341443
0
LINE
8
BLACK
6
CONTINUOUS
10
0.868694
20
0.341443
11
0.870042
21
0.338746
0
LINE
8
BLACK
6
CONTINUOUS
10
0.870042
20
0.338746
11
0.87124
21
0.337549
0
LINE
8
BLACK
6
CONTINUOUS
10
0.87124
20
0.337549
11
0.873937
21
0.3362
0
LINE
8
BLACK
6
CONTINUOUS
10
0.873937
20
0.3362
11
0.87651
21
0.3362
0
LINE
8
BLACK
6
CONTINUOUS
10
0.87651
20
0.3362
11
0.881019
21
0.337703
0
LINE
8
BLACK
6
CONTINUOUS
10
0.881019
20
0.337703
11
0.903023
21
0.359707
0
LINE
8
BLACK
6
CONTINUOUS
10
0.903023
20
0.359707
11
0.903551
21
0.360077
0
LINE
8
BLACK
6
CONTINUOUS
10
0.903551
20
0.360077
11
0.903635
21
0.360176
0
LINE
8
BLACK
6
CONTINUOUS
10
0.903635
20
0.360176
11
0.903713
21
0.36019
0
LINE
8
BLACK
6
CONTINUOUS
10
0.903713
20
0.36019
11
0.903863
21
0.360295
0
LINE
8
BLACK
6
CONTINUOUS
10
0.903863
20
0.360295
11
0.904749
21
0.360373
0
LINE
8
BLACK
6
CONTINUOUS
10
0.904749
20
0.360373
11
0.905624
21
0.360527
0
LINE
8
BLACK
6
CONTINUOUS
10
0.905624
20
0.360527
11
0.905741
21
0.360459
0
LINE
8
BLACK
6
CONTINUOUS
10
0.966809
20
0.375706
11
0.966873
21
0.375708
0
LINE
8
BLACK
6
CONTINUOUS
10
0.966873
20
0.375708
11
0.972497
21
0.373833
0
LINE
8
BLACK
6
CONTINUOUS
10
0.972497
20
0.373833
11
0.973399
21
0.373344
0
LINE
8
BLACK
6
CONTINUOUS
10
0.973399
20
0.373344
11
0.973491
21
0.373194
0
LINE
8
BLACK
6
CONTINUOUS
10
0.973491
20
0.373194
11
0.973651
21
0.373119
0
LINE
8
BLACK
6
CONTINUOUS
10
0.973651
20
0.373119
11
0.975526
21
0.371245
0
LINE
8
BLACK
6
CONTINUOUS
10
0.975526
20
0.371245
11
0.976114
21
0.370405
0
LINE
8
BLACK
6
CONTINUOUS
10
0.976114
20
0.370405
11
0.97629
21
0.368393
0
LINE
8
BLACK
6
CONTINUOUS
10
0.97629
20
0.368393
11
0.975132
21
0.366738
0
LINE
8
BLACK
6
CONTINUOUS
10
0.975132
20
0.366738
11
0.973181
21
0.366215
0
LINE
8
BLACK
6
CONTINUOUS
10
0.973181
20
0.366215
11
0.97135
21
0.367069
0
LINE
8
BLACK
6
CONTINUOUS
10
0.97135
20
0.367069
11
0.969968
21
0.368451
0
LINE
8
BLACK
6
CONTINUOUS
10
0.969968
20
0.368451
11
0.96546
21
0.369954
0
LINE
8
BLACK
6
CONTINUOUS
10
0.96546
20
0.369954
11
0.962669
21
0.369954
0
LINE
8
BLACK
6
CONTINUOUS
10
0.962669
20
0.369954
11
0.95816
21
0.368451
0
LINE
8
BLACK
6
CONTINUOUS
10
0.95816
20
0.368451
11
0.955243
21
0.365533
0
LINE
8
BLACK
6
CONTINUOUS
10
0.955243
20
0.365533
11
0.953727
21
0.362502
0
LINE
8
BLACK
6
CONTINUOUS
10
0.953727
20
0.362502
11
0.952019
21
0.35567
0
LINE
8
BLACK
6
CONTINUOUS
10
0.952019
20
0.35567
11
0.952019
21
0.350773
0
LINE
8
BLACK
6
CONTINUOUS
10
0.952019
20
0.350773
11
0.953727
21
0.343941
0
LINE
8
BLACK
6
CONTINUOUS
10
0.953727
20
0.343941
11
0.955243
21
0.34091
0
LINE
8
BLACK
6
CONTINUOUS
10
0.955243
20
0.34091
11
0.95816
21
0.337992
0
LINE
8
BLACK
6
CONTINUOUS
10
0.95816
20
0.337992
11
0.962669
21
0.336489
0
LINE
8
BLACK
6
CONTINUOUS
10
0.962669
20
0.336489
11
0.96546
21
0.336489
0
LINE
8
BLACK
6
CONTINUOUS
10
0.96546
20
0.336489
11
0.969969
21
0.337992
0
LINE
8
BLACK
6
CONTINUOUS
10
0.969969
20
0.337992
11
0.97135
21
0.339374
0
LINE
8
BLACK
6
CONTINUOUS
10
0.97135
20
0.339374
11
0.97219
21
0.339962
0
LINE
8
BLACK
6
CONTINUOUS
10
0.97219
20
0.339962
11
0.974203
21
0.340138
0
LINE
8
BLACK
6
CONTINUOUS
10
0.974203
20
0.340138
11
0.975857
21
0.338979
0
LINE
8
BLACK
6
CONTINUOUS
10
0.975857
20
0.338979
11
0.97638
21
0.337028
0
LINE
8
BLACK
6
CONTINUOUS
10
0.97638
20
0.337028
11
0.975526
21
0.335198
0
LINE
8
BLACK
6
CONTINUOUS
10
0.975526
20
0.335198
11
0.973651
21
0.333323
0
LINE
8
BLACK
6
CONTINUOUS
10
0.973651
20
0.333323
11
0.972811
21
0.332735
0
LINE
8
BLACK
6
CONTINUOUS
10
0.972811
20
0.332735
11
0.972636
21
0.33272
0
LINE
8
BLACK
6
CONTINUOUS
10
0.972636
20
0.33272
11
0.972497
21
0.33261
0
LINE
8
BLACK
6
CONTINUOUS
10
0.972497
20
0.33261
11
0.966873
21
0.330735
0
LINE
8
BLACK
6
CONTINUOUS
10
0.966873
20
0.330735
11
0.966
21
0.330606
0
LINE
8
BLACK
6
CONTINUOUS
10
0.966
20
0.330606
11
0.965939
21
0.330583
0
LINE
8
BLACK
6
CONTINUOUS
10
0.965939
20
0.330583
11
0.96219
21
0.330583
0
LINE
8
BLACK
6
CONTINUOUS
10
0.96219
20
0.330583
11
0.96132
21
0.330737
0
LINE
8
BLACK
6
CONTINUOUS
10
0.96132
20
0.330737
11
0.961256
21
0.330735
0
LINE
8
BLACK
6
CONTINUOUS
10
0.961256
20
0.330735
11
0.955632
21
0.33261
0
LINE
8
BLACK
6
CONTINUOUS
10
0.955632
20
0.33261
11
0.95473
21
0.333098
0
LINE
8
BLACK
6
CONTINUOUS
10
0.95473
20
0.333098
11
0.954638
21
0.333248
0
LINE
8
BLACK
6
CONTINUOUS
10
0.954638
20
0.333248
11
0.954478
21
0.333323
0
LINE
8
BLACK
6
CONTINUOUS
10
0.954478
20
0.333323
11
0.950728
21
0.337073
0
LINE
8
BLACK
6
CONTINUOUS
10
0.950728
20
0.337073
11
0.950222
21
0.337796
0
LINE
8
BLACK
6
CONTINUOUS
10
0.950222
20
0.337796
11
0.950175
21
0.33784
0
LINE
8
BLACK
6
CONTINUOUS
10
0.950175
20
0.33784
11
0.9483
21
0.34159
0
LINE
8
BLACK
6
CONTINUOUS
10
0.9483
20
0.34159
11
0.948155
21
0.342078
0
LINE
8
BLACK
6
CONTINUOUS
10
0.948155
20
0.342078
11
0.948077
21
0.342194
0
LINE
8
BLACK
6
CONTINUOUS
10
0.948077
20
0.342194
11
0.946202
21
0.349693
0
LINE
8
BLACK
6
CONTINUOUS
10
0.946202
20
0.349693
11
0.94616
21
0.350281
0
LINE
8
BLACK
6
CONTINUOUS
10
0.94616
20
0.350281
11
0.946114
21
0.350409
0
LINE
8
BLACK
6
CONTINUOUS
10
0.946114
20
0.350409
11
0.946114
21
0.356033
0
LINE
8
BLACK
6
CONTINUOUS
10
0.946114
20
0.356033
11
0.946216
21
0.356614
0
LINE
8
BLACK
6
CONTINUOUS
10
0.946216
20
0.356614
11
0.946202
21
0.35675
0
LINE
8
BLACK
6
CONTINUOUS
10
0.946202
20
0.35675
11
0.948077
21
0.364249
0
LINE
8
BLACK
6
CONTINUOUS
10
0.948077
20
0.364249
11
0.948284
21
0.364714
0
LINE
8
BLACK
6
CONTINUOUS
10
0.948284
20
0.364714
11
0.9483
21
0.364853
0
LINE
8
BLACK
6
CONTINUOUS
10
0.9483
20
0.364853
11
0.950175
21
0.368602
0
LINE
8
BLACK
6
CONTINUOUS
10
0.950175
20
0.368602
11
0.950701
21
0.369312
0
LINE
8
BLACK
6
CONTINUOUS
10
0.950701
20
0.369312
11
0.950728
21
0.36937
0
LINE
8
BLACK
6
CONTINUOUS
10
0.950728
20
0.36937
11
0.954478
21
0.373119
0
LINE
8
BLACK
6
CONTINUOUS
10
0.954478
20
0.373119
11
0.955318
21
0.373708
0
LINE
8
BLACK
6
CONTINUOUS
10
0.955318
20
0.373708
11
0.955493
21
0.373723
0
LINE
8
BLACK
6
CONTINUOUS
10
0.955493
20
0.373723
11
0.955632
21
0.373833
0
LINE
8
BLACK
6
CONTINUOUS
10
0.955632
20
0.373833
11
0.961256
21
0.375708
0
LINE
8
BLACK
6
CONTINUOUS
10
0.961256
20
0.375708
11
0.962129
21
0.375837
0
LINE
8
BLACK
6
CONTINUOUS
10
0.962129
20
0.375837
11
0.96219
21
0.375859
0
LINE
8
BLACK
6
CONTINUOUS
10
0.96219
20
0.375859
11
0.965939
21
0.375859
0
LINE
8
BLACK
6
CONTINUOUS
10
0.965939
20
0.375859
11
0.966809
21
0.375706
0
LINE
8
BLACK
6
CONTINUOUS
10
1.00444
20
0.375681
11
1.00458
21
0.375568
0
LINE
8
BLACK
6
CONTINUOUS
10
1.00458
20
0.375568
11
1.00476
21
0.375547
0
LINE
8
BLACK
6
CONTINUOUS
10
1.00476
20
0.375547
11
1.0085
21
0.373673
0
LINE
8
BLACK
6
CONTINUOUS
10
1.0085
20
0.373673
11
1.00921
21
0.373147
0
LINE
8
BLACK
6
CONTINUOUS
10
1.00921
20
0.373147
11
1.00927
21
0.373119
0
LINE
8
BLACK
6
CONTINUOUS
10
1.00927
20
0.373119
11
1.01115
21
0.371245
0
LINE
8
BLACK
6
CONTINUOUS
10
1.01115
20
0.371245
11
1.01165
21
0.370522
0
LINE
8
BLACK
6
CONTINUOUS
10
1.01165
20
0.370522
11
1.0117
21
0.370477
0
LINE
8
BLACK
6
CONTINUOUS
10
1.0117
20
0.370477
11
1.01357
21
0.366728
0
LINE
8
BLACK
6
CONTINUOUS
10
1.01357
20
0.366728
11
1.01387
21
0.365745
0
LINE
8
BLACK
6
CONTINUOUS
10
1.01387
20
0.365745
11
1.01383
21
0.365573
0
LINE
8
BLACK
6
CONTINUOUS
10
1.01383
20
0.365573
11
1.01389
21
0.365407
0
LINE
8
BLACK
6
CONTINUOUS
10
1.01389
20
0.365407
11
1.01389
21
0.356033
0
LINE
8
BLACK
6
CONTINUOUS
10
1.01389
20
0.356033
11
1.01371
21
0.355023
0
LINE
8
BLACK
6
CONTINUOUS
10
1.01371
20
0.355023
11
1.01359
21
0.354888
0
LINE
8
BLACK
6
CONTINUOUS
10
1.01359
20
0.354888
11
1.01357
21
0.354713
0
LINE
8
BLACK
6
CONTINUOUS
10
1.01357
20
0.354713
11
1.0117
21
0.350963
0
LINE
8
BLACK
6
CONTINUOUS
10
1.0117
20
0.350963
11
1.01117
21
0.350254
0
LINE
8
BLACK
6
CONTINUOUS
10
1.01117
20
0.350254
11
1.01115
21
0.350196
0
LINE
8
BLACK
6
CONTINUOUS
10
1.01115
20
0.350196
11
1.00927
21
0.348321
0
LINE
8
BLACK
6
CONTINUOUS
10
1.00927
20
0.348321
11
1.00855
21
0.347815
0
LINE
8
BLACK
6
CONTINUOUS
10
1.00855
20
0.347815
11
1.0085
21
0.347768
0
LINE
8
BLACK
6
CONTINUOUS
10
1.0085
20
0.347768
11
1.00476
21
0.345893
0
LINE
8
BLACK
6
CONTINUOUS
10
1.00476
20
0.345893
11
1.00377
21
0.345601
0
LINE
8
BLACK
6
CONTINUOUS
10
1.00377
20
0.345601
11
1.0036
21
0.345642
0
LINE
8
BLACK
6
CONTINUOUS
10
1.0036
20
0.345642
11
1.00343
21
0.345582
0
LINE
8
BLACK
6
CONTINUOUS
10
1.00343
20
0.345582
11
0.994061
21
0.345582
0
LINE
8
BLACK
6
CONTINUOUS
10
0.994061
20
0.345582
11
0.993051
21
0.34576
0
LINE
8
BLACK
6
CONTINUOUS
10
0.993051
20
0.34576
11
0.992916
21
0.345873
0
LINE
8
BLACK
6
CONTINUOUS
10
0.992916
20
0.345873
11
0.99274
21
0.345893
0
LINE
8
BLACK
6
CONTINUOUS
10
0.99274
20
0.345893
11
0.992006
21
0.34626
0
LINE
8
BLACK
6
CONTINUOUS
10
0.992006
20
0.34626
11
0.992983
21
0.336489
0
LINE
8
BLACK
6
CONTINUOUS
10
0.992983
20
0.336489
11
1.00906
21
0.336489
0
LINE
8
BLACK
6
CONTINUOUS
10
1.00906
20
0.336489
11
1.01007
21
0.336311
0
LINE
8
BLACK
6
CONTINUOUS
10
1.01007
20
0.336311
11
1.01162
21
0.335013
0
LINE
8
BLACK
6
CONTINUOUS
10
1.01162
20
0.335013
11
1.01197
21
0.333023
0
LINE
8
BLACK
6
CONTINUOUS
10
1.01197
20
0.333023
11
1.01096
21
0.331274
0
LINE
8
BLACK
6
CONTINUOUS
10
1.01096
20
0.331274
11
1.00906
21
0.330583
0
LINE
8
BLACK
6
CONTINUOUS
10
1.00906
20
0.330583
11
0.990311
21
0.330583
0
LINE
8
BLACK
6
CONTINUOUS
10
0.990311
20
0.330583
11
0.990157
21
0.330611
0
LINE
8
BLACK
6
CONTINUOUS
10
0.990157
20
0.330611
11
0.99009
21
0.330592
0
LINE
8
BLACK
6
CONTINUOUS
10
0.99009
20
0.330592
11
0.989979
21
0.330642
0
LINE
8
BLACK
6
CONTINUOUS
10
0.989979
20
0.330642
11
0.989301
21
0.330762
0
LINE
8
BLACK
6
CONTINUOUS
10
0.989301
20
0.330762
11
0.988821
21
0.331165
0
LINE
8
BLACK
6
CONTINUOUS
10
0.988821
20
0.331165
11
0.988249
21
0.331423
0
LINE
8
BLACK
6
CONTINUOUS
10
0.988249
20
0.331423
11
0.98807
21
0.331795
0
LINE
8
BLACK
6
CONTINUOUS
10
0.98807
20
0.331795
11
0.987754
21
0.33206
0
LINE
8
BLACK
6
CONTINUOUS
10
0.987754
20
0.33206
11
0.987645
21
0.332677
0
LINE
8
BLACK
6
CONTINUOUS
10
0.987645
20
0.332677
11
0.987373
21
0.333242
0
LINE
8
BLACK
6
CONTINUOUS
10
0.987373
20
0.333242
11
0.985498
21
0.35199
0
LINE
8
BLACK
6
CONTINUOUS
10
0.985498
20
0.35199
11
0.985575
21
0.353013
0
LINE
8
BLACK
6
CONTINUOUS
10
0.985575
20
0.353013
11
0.985586
21
0.353029
0
LINE
8
BLACK
6
CONTINUOUS
10
0.985586
20
0.353029
11
0.985584
21
0.353048
0
LINE
8
BLACK
6
CONTINUOUS
10
0.985584
20
0.353048
11
0.986153
21
0.353861
0
LINE
8
BLACK
6
CONTINUOUS
10
0.986153
20
0.353861
11
0.986713
21
0.354681
0
LINE
8
BLACK
6
CONTINUOUS
10
0.986713
20
0.354681
11
0.986732
21
0.354687
0
LINE
8
BLACK
6
CONTINUOUS
10
0.986732
20
0.354687
11
0.986743
21
0.354703
0
LINE
8
BLACK
6
CONTINUOUS
10
0.986743
20
0.354703
11
0.987702
21
0.35496
0
LINE
8
BLACK
6
CONTINUOUS
10
0.987702
20
0.35496
11
0.988657
21
0.355228
0
LINE
8
BLACK
6
CONTINUOUS
10
0.988657
20
0.355228
11
0.988675
21
0.35522
0
LINE
8
BLACK
6
CONTINUOUS
10
0.988675
20
0.35522
11
0.988694
21
0.355225
0
LINE
8
BLACK
6
CONTINUOUS
10
0.988694
20
0.355225
11
0.989592
21
0.354807
0
LINE
8
BLACK
6
CONTINUOUS
10
0.989592
20
0.354807
11
0.990498
21
0.354398
0
LINE
8
BLACK
6
CONTINUOUS
10
0.990498
20
0.354398
11
0.990507
21
0.35438
0
LINE
8
BLACK
6
CONTINUOUS
10
0.990507
20
0.35438
11
0.990524
21
0.354372
0
LINE
8
BLACK
6
CONTINUOUS
10
0.990524
20
0.354372
11
0.99206
21
0.352836
0
LINE
8
BLACK
6
CONTINUOUS
10
0.99206
20
0.352836
11
0.994758
21
0.351487
0
LINE
8
BLACK
6
CONTINUOUS
10
0.994758
20
0.351487
11
1.00274
21
0.351487
0
LINE
8
BLACK
6
CONTINUOUS
10
1.00274
20
0.351487
11
1.00543
21
0.352836
0
LINE
8
BLACK
6
CONTINUOUS
10
1.00543
20
0.352836
11
1.00663
21
0.354033
0
LINE
8
BLACK
6
CONTINUOUS
10
1.00663
20
0.354033
11
1.00798
21
0.35673
0
LINE
8
BLACK
6
CONTINUOUS
10
1.00798
20
0.35673
11
1.00798
21
0.36471
0
LINE
8
BLACK
6
CONTINUOUS
10
1.00798
20
0.36471
11
1.00663
21
0.367408
0
LINE
8
BLACK
6
CONTINUOUS
10
1.00663
20
0.367408
11
1.00543
21
0.368605
0
LINE
8
BLACK
6
CONTINUOUS
10
1.00543
20
0.368605
11
1.00274
21
0.369954
0
LINE
8
BLACK
6
CONTINUOUS
10
1.00274
20
0.369954
11
0.994758
21
0.369954
0
LINE
8
BLACK
6
CONTINUOUS
10
0.994758
20
0.369954
11
0.99206
21
0.368605
0
LINE
8
BLACK
6
CONTINUOUS
10
0.99206
20
0.368605
11
0.990524
21
0.367069
0
LINE
8
BLACK
6
CONTINUOUS
10
0.990524
20
0.367069
11
0.989684
21
0.366481
0
LINE
8
BLACK
6
CONTINUOUS
10
0.989684
20
0.366481
11
0.987672
21
0.366305
0
LINE
8
BLACK
6
CONTINUOUS
10
0.987672
20
0.366305
11
0.986018
21
0.367463
0
LINE
8
BLACK
6
CONTINUOUS
10
0.986018
20
0.367463
11
0.985495
21
0.369414
0
LINE
8
BLACK
6
CONTINUOUS
10
0.985495
20
0.369414
11
0.986349
21
0.371245
0
LINE
8
BLACK
6
CONTINUOUS
10
0.986349
20
0.371245
11
0.988223
21
0.373119
0
LINE
8
BLACK
6
CONTINUOUS
10
0.988223
20
0.373119
11
0.988946
21
0.373626
0
LINE
8
BLACK
6
CONTINUOUS
10
0.988946
20
0.373626
11
0.988991
21
0.373673
0
LINE
8
BLACK
6
CONTINUOUS
10
0.988991
20
0.373673
11
0.99274
21
0.375547
0
LINE
8
BLACK
6
CONTINUOUS
10
0.99274
20
0.375547
11
0.993723
21
0.37584
0
LINE
8
BLACK
6
CONTINUOUS
10
0.993723
20
0.37584
11
0.993895
21
0.375799
0
LINE
8
BLACK
6
CONTINUOUS
10
0.993895
20
0.375799
11
0.994061
21
0.375859
0
LINE
8
BLACK
6
CONTINUOUS
10
0.994061
20
0.375859
11
1.00343
21
0.375859
0
LINE
8
BLACK
6
CONTINUOUS
10
1.00343
20
0.375859
11
1.00444
21
0.375681
0
LINE
8
BLACK
6
CONTINUOUS
10
0.693599
20
0.397143
11
0.694291
21
0.395472
0
LINE
8
BLACK
6
CONTINUOUS
10
0.694291
20
0.395472
11
0.694291
21
0.369291
0
LINE
8
BLACK
6
CONTINUOUS
10
0.694291
20
0.369291
11
0.720472
21
0.369291
0
LINE
8
BLACK
6
CONTINUOUS
10
0.720472
20
0.369291
11
0.722143
21
0.368599
0
LINE
8
BLACK
6
CONTINUOUS
10
0.722143
20
0.368599
11
0.722835
21
0.366929
0
LINE
8
BLACK
6
CONTINUOUS
10
0.722835
20
0.366929
11
0.722143
21
0.365259
0
LINE
8
BLACK
6
CONTINUOUS
10
0.722143
20
0.365259
11
0.720472
21
0.364567
0
LINE
8
BLACK
6
CONTINUOUS
10
0.720472
20
0.364567
11
0.691929
21
0.364567
0
LINE
8
BLACK
6
CONTINUOUS
10
0.691929
20
0.364567
11
0.690259
21
0.365259
0
LINE
8
BLACK
6
CONTINUOUS
10
0.690259
20
0.365259
11
0.689567
21
0.366929
0
LINE
8
BLACK
6
CONTINUOUS
10
0.689567
20
0.366929
11
0.689567
21
0.366929
0
LINE
8
BLACK
6
CONTINUOUS
10
0.689567
20
0.366929
11
0.689567
21
0.395472
0
LINE
8
BLACK
6
CONTINUOUS
10
0.689567
20
0.395472
11
0.690259
21
0.397143
0
LINE
8
BLACK
6
CONTINUOUS
10
0.690259
20
0.397143
11
0.691929
21
0.397835
0
LINE
8
BLACK
6
CONTINUOUS
10
0.691929
20
0.397835
11
0.693599
21
0.397143
0
LINE
8
BLACK
6
CONTINUOUS
10
0.859741
20
0.397143
11
0.860433
21
0.395472
0
LINE
8
BLACK
6
CONTINUOUS
10
0.860433
20
0.395472
11
0.860433
21
0.366929
0
LINE
8
BLACK
6
CONTINUOUS
10
0.860433
20
0.366929
11
0.859741
21
0.365259
0
LINE
8
BLACK
6
CONTINUOUS
10
0.859741
20
0.365259
11
0.858071
21
0.364567
0
LINE
8
BLACK
6
CONTINUOUS
10
0.858071
20
0.364567
11
0.856401
21
0.365259
0
LINE
8
BLACK
6
CONTINUOUS
10
0.856401
20
0.365259
11
0.855709
21
0.366929
0
LINE
8
BLACK
6
CONTINUOUS
10
0.855709
20
0.366929
11
0.855709
21
0.395472
0
LINE
8
BLACK
6
CONTINUOUS
10
0.855709
20
0.395472
11
0.856401
21
0.397143
0
LINE
8
BLACK
6
CONTINUOUS
10
0.856401
20
0.397143
11
0.858071
21
0.397835
0
LINE
8
BLACK
6
CONTINUOUS
10
0.858071
20
0.397835
11
0.859741
21
0.397143
0
LINE
8
BLACK
6
CONTINUOUS
10
0.898622
20
0.397889
11
0.898757
21
0.397776
0
LINE
8
BLACK
6
CONTINUOUS
10
0.898757
20
0.397776
11
0.898932
21
0.397755
0
LINE
8
BLACK
6
CONTINUOUS
10
0.898932
20
0.397755
11
0.902682
21
0.395881
0
LINE
8
BLACK
6
CONTINUOUS
10
0.902682
20
0.395881
11
0.903391
21
0.395355
0
LINE
8
BLACK
6
CONTINUOUS
10
0.903391
20
0.395355
11
0.903449
21
0.395328
0
LINE
8
BLACK
6
CONTINUOUS
10
0.903449
20
0.395328
11
0.905324
21
0.393453
0
LINE
8
BLACK
6
CONTINUOUS
10
0.905324
20
0.393453
11
0.90583
21
0.39273
0
LINE
8
BLACK
6
CONTINUOUS
10
0.90583
20
0.39273
11
0.905877
21
0.392685
0
LINE
8
BLACK
6
CONTINUOUS
10
0.905877
20
0.392685
11
0.907752
21
0.388936
0
LINE
8
BLACK
6
CONTINUOUS
10
0.907752
20
0.388936
11
0.908044
21
0.387953
0
LINE
8
BLACK
6
CONTINUOUS
10
0.908044
20
0.387953
11
0.908003
21
0.387781
0
LINE
8
BLACK
6
CONTINUOUS
10
0.908003
20
0.387781
11
0.908064
21
0.387615
0
LINE
8
BLACK
6
CONTINUOUS
10
0.908064
20
0.387615
11
0.908064
21
0.380116
0
LINE
8
BLACK
6
CONTINUOUS
10
0.908064
20
0.380116
11
0.907886
21
0.379106
0
LINE
8
BLACK
6
CONTINUOUS
10
0.907886
20
0.379106
11
0.907772
21
0.378971
0
LINE
8
BLACK
6
CONTINUOUS
10
0.907772
20
0.378971
11
0.907752
21
0.378796
0
LINE
8
BLACK
6
CONTINUOUS
10
0.907752
20
0.378796
11
0.905877
21
0.375046
0
LINE
8
BLACK
6
CONTINUOUS
10
0.905877
20
0.375046
11
0.905351
21
0.374337
0
LINE
8
BLACK
6
CONTINUOUS
10
0.905351
20
0.374337
11
0.905324
21
0.374279
0
LINE
8
BLACK
6
CONTINUOUS
10
0.905324
20
0.374279
11
0.903449
21
0.372404
0
LINE
8
BLACK
6
CONTINUOUS
10
0.903449
20
0.372404
11
0.902726
21
0.371898
0
LINE
8
BLACK
6
CONTINUOUS
10
0.902726
20
0.371898
11
0.902682
21
0.371851
0
LINE
8
BLACK
6
CONTINUOUS
10
0.902682
20
0.371851
11
0.898932
21
0.369976
0
LINE
8
BLACK
6
CONTINUOUS
10
0.898932
20
0.369976
11
0.897949
21
0.369684
0
LINE
8
BLACK
6
CONTINUOUS
10
0.897949
20
0.369684
11
0.897778
21
0.369725
0
LINE
8
BLACK
6
CONTINUOUS
10
0.897778
20
0.369725
11
0.897612
21
0.369664
0
LINE
8
BLACK
6
CONTINUOUS
10
0.897612
20
0.369664
11
0.865741
21
0.369664
0
LINE
8
BLACK
6
CONTINUOUS
10
0.865741
20
0.369664
11
0.864731
21
0.369843
0
LINE
8
BLACK
6
CONTINUOUS
10
0.864731
20
0.369843
11
0.863184
21
0.371141
0
LINE
8
BLACK
6
CONTINUOUS
10
0.863184
20
0.371141
11
0.862833
21
0.37313
0
LINE
8
BLACK
6
CONTINUOUS
10
0.862833
20
0.37313
11
0.863843
21
0.374879
0
LINE
8
BLACK
6
CONTINUOUS
10
0.863843
20
0.374879
11
0.865741
21
0.37557
0
LINE
8
BLACK
6
CONTINUOUS
10
0.865741
20
0.37557
11
0.896915
21
0.37557
0
LINE
8
BLACK
6
CONTINUOUS
10
0.896915
20
0.37557
11
0.899612
21
0.376919
0
LINE
8
BLACK
6
CONTINUOUS
10
0.899612
20
0.376919
11
0.900809
21
0.378116
0
LINE
8
BLACK
6
CONTINUOUS
10
0.900809
20
0.378116
11
0.902158
21
0.380813
0
LINE
8
BLACK
6
CONTINUOUS
10
0.902158
20
0.380813
11
0.902158
21
0.386918
0
LINE
8
BLACK
6
CONTINUOUS
10
0.902158
20
0.386918
11
0.900809
21
0.389616
0
LINE
8
BLACK
6
CONTINUOUS
10
0.900809
20
0.389616
11
0.899612
21
0.390813
0
LINE
8
BLACK
6
CONTINUOUS
10
0.899612
20
0.390813
11
0.896915
21
0.392162
0
LINE
8
BLACK
6
CONTINUOUS
10
0.896915
20
0.392162
11
0.865741
21
0.392162
0
LINE
8
BLACK
6
CONTINUOUS
10
0.865741
20
0.392162
11
0.864731
21
0.39234
0
LINE
8
BLACK
6
CONTINUOUS
10
0.864731
20
0.39234
11
0.863184
21
0.393638
0
LINE
8
BLACK
6
CONTINUOUS
10
0.863184
20
0.393638
11
0.862833
21
0.395627
0
LINE
8
BLACK
6
CONTINUOUS
10
0.862833
20
0.395627
11
0.863843
21
0.397376
0
LINE
8
BLACK
6
CONTINUOUS
10
0.863843
20
0.397376
11
0.865741
21
0.398067
0
LINE
8
BLACK
6
CONTINUOUS
10
0.865741
20
0.398067
11
0.897612
21
0.398067
0
LINE
8
BLACK
6
CONTINUOUS
10
0.897612
20
0.398067
11
0.898622
21
0.397889
0
LINE
8
BLACK
6
CONTINUOUS
10
-0.0939901
20
0.380275
11
-0.0924428
21
0.378976
0
LINE
8
BLACK
6
CONTINUOUS
10
-0.0924428
20
0.378976
11
-0.0920921
21
0.376987
0
LINE
8
BLACK
6
CONTINUOUS
10
-0.0920921
20
0.376987
11
-0.093102
21
0.375238
0
LINE
8
BLACK
6
CONTINUOUS
10
-0.093102
20
0.375238
11
-0.095
21
0.374547
0
LINE
8
BLACK
6
CONTINUOUS
10
-0.095
20
0.374547
11
-0.155
21
0.374547
0
LINE
8
BLACK
6
CONTINUOUS
10
-0.155
20
0.374547
11
-0.15601
21
0.374725
0
LINE
8
BLACK
6
CONTINUOUS
10
-0.15601
20
0.374725
11
-0.157557
21
0.376024
0
LINE
8
BLACK
6
CONTINUOUS
10
-0.157557
20
0.376024
11
-0.157908
21
0.378013
0
LINE
8
BLACK
6
CONTINUOUS
10
-0.157908
20
0.378013
11
-0.156898
21
0.379762
0
LINE
8
BLACK
6
CONTINUOUS
10
-0.156898
20
0.379762
11
-0.155
21
0.380453
0
LINE
8
BLACK
6
CONTINUOUS
10
-0.155
20
0.380453
11
-0.095
21
0.380453
0
LINE
8
BLACK
6
CONTINUOUS
10
-0.095
20
0.380453
11
-0.0939901
21
0.380275
0
LINE
8
BLACK
6
CONTINUOUS
10
0.00600992
20
0.380275
11
0.00755717
21
0.378976
0
LINE
8
BLACK
6
CONTINUOUS
10
0.00755717
20
0.378976
11
0.00790791
21
0.376987
0
LINE
8
BLACK
6
CONTINUOUS
10
0.00790791
20
0.376987
11
0.00689799
21
0.375238
0
LINE
8
BLACK
6
CONTINUOUS
10
0.00689799
20
0.375238
11
0.005
21
0.374547
0
LINE
8
BLACK
6
CONTINUOUS
10
0.005
20
0.374547
11
-0.055
21
0.374547
0
LINE
8
BLACK
6
CONTINUOUS
10
-0.055
20
0.374547
11
-0.0560099
21
0.374725
0
LINE
8
BLACK
6
CONTINUOUS
10
-0.0560099
20
0.374725
11
-0.0575572
21
0.376024
0
LINE
8
BLACK
6
CONTINUOUS
10
-0.0575572
20
0.376024
11
-0.0579079
21
0.378013
0
LINE
8
BLACK
6
CONTINUOUS
10
-0.0579079
20
0.378013
11
-0.056898
21
0.379762
0
LINE
8
BLACK
6
CONTINUOUS
10
-0.056898
20
0.379762
11
-0.055
21
0.380453
0
LINE
8
BLACK
6
CONTINUOUS
10
-0.055
20
0.380453
11
0.005
21
0.380453
0
LINE
8
BLACK
6
CONTINUOUS
10
0.005
20
0.380453
11
0.00600992
21
0.380275
0
LINE
8
BLACK
6
CONTINUOUS
10
0.194238
20
0.382775
11
0.195786
21
0.381476
0
LINE
8
BLACK
6
CONTINUOUS
10
0.195786
20
0.381476
11
0.196136
21
0.379487
0
LINE
8
BLACK
6
CONTINUOUS
10
0.196136
20
0.379487
11
0.195126
21
0.377738
0
LINE
8
BLACK
6
CONTINUOUS
10
0.195126
20
0.377738
11
0.193228
21
0.377047
0
LINE
8
BLACK
6
CONTINUOUS
10
0.193228
20
0.377047
11
0.103228
21
0.377047
0
LINE
8
BLACK
6
CONTINUOUS
10
0.103228
20
0.377047
11
0.102218
21
0.377225
0
LINE
8
BLACK
6
CONTINUOUS
10
0.102218
20
0.377225
11
0.100671
21
0.378524
0
LINE
8
BLACK
6
CONTINUOUS
10
0.100671
20
0.378524
11
0.10032
21
0.380513
0
LINE
8
BLACK
6
CONTINUOUS
10
0.10032
20
0.380513
11
0.10133
21
0.382262
0
LINE
8
BLACK
6
CONTINUOUS
10
0.10133
20
0.382262
11
0.103228
21
0.382953
0
LINE
8
BLACK
6
CONTINUOUS
10
0.103228
20
0.382953
11
0.193228
21
0.382953
0
LINE
8
BLACK
6
CONTINUOUS
10
0.193228
20
0.382953
11
0.194238
21
0.382775
0
LINE
8
BLACK
6
CONTINUOUS
10
0.99667
20
0.38667
11
0.997362
21
0.385
0
LINE
8
BLACK
6
CONTINUOUS
10
0.997362
20
0.385
11
0.99667
21
0.38333
0
LINE
8
BLACK
6
CONTINUOUS
10
0.99667
20
0.38333
11
0.995
21
0.382638
0
LINE
8
BLACK
6
CONTINUOUS
10
0.995
20
0.382638
11
0.965
21
0.382638
0
LINE
8
BLACK
6
CONTINUOUS
10
0.965
20
0.382638
11
0.96333
21
0.38333
0
LINE
8
BLACK
6
CONTINUOUS
10
0.96333
20
0.38333
11
0.962638
21
0.385
0
LINE
8
BLACK
6
CONTINUOUS
10
0.962638
20
0.385
11
0.96333
21
0.38667
0
LINE
8
BLACK
6
CONTINUOUS
10
0.96333
20
0.38667
11
0.965
21
0.387362
0
LINE
8
BLACK
6
CONTINUOUS
10
0.965
20
0.387362
11
0.995
21
0.387362
0
LINE
8
BLACK
6
CONTINUOUS
10
0.995
20
0.387362
11
0.99667
21
0.38667
0
LINE
8
BLACK
6
CONTINUOUS
10
0.181117
20
0.440483
11
0.183314
21
0.438287
0
LINE
8
BLACK
6
CONTINUOUS
10
0.183314
20
0.438287
11
0.184117
21
0.435287
0
LINE
8
BLACK
6
CONTINUOUS
10
0.184117
20
0.435287
11
0.184117
21
0.401001
0
LINE
8
BLACK
6
CONTINUOUS
10
0.184117
20
0.401001
11
0.183314
21
0.398001
0
LINE
8
BLACK
6
CONTINUOUS
10
0.183314
20
0.398001
11
0.181117
21
0.395805
0
LINE
8
BLACK
6
CONTINUOUS
10
0.181117
20
0.395805
11
0.178117
21
0.395001
0
LINE
8
BLACK
6
CONTINUOUS
10
0.178117
20
0.395001
11
0.175117
21
0.395805
0
LINE
8
BLACK
6
CONTINUOUS
10
0.175117
20
0.395805
11
0.172921
21
0.398001
0
LINE
8
BLACK
6
CONTINUOUS
10
0.172921
20
0.398001
11
0.172117
21
0.401001
0
LINE
8
BLACK
6
CONTINUOUS
10
0.172117
20
0.401001
11
0.172117
21
0.412144
0
LINE
8
BLACK
6
CONTINUOUS
10
0.172117
20
0.412144
11
0.118117
21
0.412144
0
LINE
8
BLACK
6
CONTINUOUS
10
0.118117
20
0.412144
11
0.116798
21
0.412498
0
LINE
8
BLACK
6
CONTINUOUS
10
0.116798
20
0.412498
11
0.115458
21
0.412766
0
LINE
8
BLACK
6
CONTINUOUS
10
0.115458
20
0.412766
11
0.115309
21
0.412896
0
LINE
8
BLACK
6
CONTINUOUS
10
0.115309
20
0.412896
11
0.115117
21
0.412948
0
LINE
8
BLACK
6
CONTINUOUS
10
0.115117
20
0.412948
11
0.114151
21
0.413914
0
LINE
8
BLACK
6
CONTINUOUS
10
0.114151
20
0.413914
11
0.113125
21
0.414816
0
LINE
8
BLACK
6
CONTINUOUS
10
0.113125
20
0.414816
11
0.113061
21
0.415004
0
LINE
8
BLACK
6
CONTINUOUS
10
0.113061
20
0.415004
11
0.112921
21
0.415144
0
LINE
8
BLACK
6
CONTINUOUS
10
0.112921
20
0.415144
11
0.112568
21
0.416464
0
LINE
8
BLACK
6
CONTINUOUS
10
0.112568
20
0.416464
11
0.11213
21
0.417758
0
LINE
8
BLACK
6
CONTINUOUS
10
0.11213
20
0.417758
11
0.112169
21
0.417952
0
LINE
8
BLACK
6
CONTINUOUS
10
0.112169
20
0.417952
11
0.112117
21
0.418144
0
LINE
8
BLACK
6
CONTINUOUS
10
0.112117
20
0.418144
11
0.112471
21
0.419464
0
LINE
8
BLACK
6
CONTINUOUS
10
0.112471
20
0.419464
11
0.112739
21
0.420803
0
LINE
8
BLACK
6
CONTINUOUS
10
0.112739
20
0.420803
11
0.11287
21
0.420952
0
LINE
8
BLACK
6
CONTINUOUS
10
0.11287
20
0.420952
11
0.112921
21
0.421144
0
LINE
8
BLACK
6
CONTINUOUS
10
0.112921
20
0.421144
11
0.113887
21
0.42211
0
LINE
8
BLACK
6
CONTINUOUS
10
0.113887
20
0.42211
11
0.114789
21
0.423136
0
LINE
8
BLACK
6
CONTINUOUS
10
0.114789
20
0.423136
11
0.122866
21
0.428521
0
LINE
8
BLACK
6
CONTINUOUS
10
0.122866
20
0.428521
11
0.127472
21
0.433127
0
LINE
8
BLACK
6
CONTINUOUS
10
0.127472
20
0.433127
11
0.129894
21
0.43797
0
LINE
8
BLACK
6
CONTINUOUS
10
0.129894
20
0.43797
11
0.131954
21
0.440294
0
LINE
8
BLACK
6
CONTINUOUS
10
0.131954
20
0.440294
11
0.134901
21
0.441276
0
LINE
8
BLACK
6
CONTINUOUS
10
0.134901
20
0.441276
11
0.137944
21
0.440653
0
LINE
8
BLACK
6
CONTINUOUS
10
0.137944
20
0.440653
11
0.140267
21
0.438593
0
LINE
8
BLACK
6
CONTINUOUS
10
0.140267
20
0.438593
11
0.141249
21
0.435646
0
LINE
8
BLACK
6
CONTINUOUS
10
0.141249
20
0.435646
11
0.140627
21
0.432604
0
LINE
8
BLACK
6
CONTINUOUS
10
0.140627
20
0.432604
11
0.13777
21
0.426889
0
LINE
8
BLACK
6
CONTINUOUS
10
0.13777
20
0.426889
11
0.137129
21
0.426166
0
LINE
8
BLACK
6
CONTINUOUS
10
0.137129
20
0.426166
11
0.136646
21
0.42533
0
LINE
8
BLACK
6
CONTINUOUS
10
0.136646
20
0.42533
11
0.13546
21
0.424144
0
LINE
8
BLACK
6
CONTINUOUS
10
0.13546
20
0.424144
11
0.172117
21
0.424144
0
LINE
8
BLACK
6
CONTINUOUS
10
0.172117
20
0.424144
11
0.172117
21
0.435287
0
LINE
8
BLACK
6
CONTINUOUS
10
0.172117
20
0.435287
11
0.172921
21
0.438287
0
LINE
8
BLACK
6
CONTINUOUS
10
0.172921
20
0.438287
11
0.175117
21
0.440483
0
LINE
8
BLACK
6
CONTINUOUS
10
0.175117
20
0.440483
11
0.178117
21
0.441287
0
LINE
8
BLACK
6
CONTINUOUS
10
0.178117
20
0.441287
11
0.181117
21
0.440483
0
LINE
8
BLACK
6
CONTINUOUS
10
-0.15333
20
0.45417
11
-0.152638
21
0.4525
0
LINE
8
BLACK
6
CONTINUOUS
10
-0.152638
20
0.4525
11
-0.152638
21
0.4225
0
LINE
8
BLACK
6
CONTINUOUS
10
-0.152638
20
0.4225
11
-0.15333
21
0.42083
0
LINE
8
BLACK
6
CONTINUOUS
10
-0.15333
20
0.42083
11
-0.155
21
0.420138
0
LINE
8
BLACK
6
CONTINUOUS
10
-0.155
20
0.420138
11
-0.15667
21
0.42083
0
LINE
8
BLACK
6
CONTINUOUS
10
-0.15667
20
0.42083
11
-0.157362
21
0.4225
0
LINE
8
BLACK
6
CONTINUOUS
10
-0.157362
20
0.4225
11
-0.157362
21
0.4525
0
LINE
8
BLACK
6
CONTINUOUS
10
-0.157362
20
0.4525
11
-0.15667
21
0.45417
0
LINE
8
BLACK
6
CONTINUOUS
10
-0.15667
20
0.45417
11
-0.155
21
0.454862
0
LINE
8
BLACK
6
CONTINUOUS
10
-0.155
20
0.454862
11
-0.15333
21
0.45417
0
LINE
8
BLACK
6
CONTINUOUS
10
-0.0933297
20
0.45417
11
-0.0926378
21
0.4525
0
LINE
8
BLACK
6
CONTINUOUS
10
-0.0926378
20
0.4525
11
-0.0926378
21
0.4225
0
LINE
8
BLACK
6
CONTINUOUS
10
-0.0926378
20
0.4225
11
-0.0933297
21
0.42083
0
LINE
8
BLACK
6
CONTINUOUS
10
-0.0933297
20
0.42083
11
-0.095
21
0.420138
0
LINE
8
BLACK
6
CONTINUOUS
10
-0.095
20
0.420138
11
-0.0966703
21
0.42083
0
LINE
8
BLACK
6
CONTINUOUS
10
-0.0966703
20
0.42083
11
-0.0973622
21
0.4225
0
LINE
8
BLACK
6
CONTINUOUS
10
-0.0973622
20
0.4225
11
-0.0973622
21
0.4525
0
LINE
8
BLACK
6
CONTINUOUS
10
-0.0973622
20
0.4525
11
-0.0966703
21
0.45417
0
LINE
8
BLACK
6
CONTINUOUS
10
-0.0966703
20
0.45417
11
-0.095
21
0.454862
0
LINE
8
BLACK
6
CONTINUOUS
10
-0.095
20
0.454862
11
-0.0933297
21
0.45417
0
LINE
8
BLACK
6
CONTINUOUS
10
-0.0533297
20
0.45417
11
-0.0526378
21
0.4525
0
LINE
8
BLACK
6
CONTINUOUS
10
-0.0526378
20
0.4525
11
-0.0526378
21
0.4225
0
LINE
8
BLACK
6
CONTINUOUS
10
-0.0526378
20
0.4225
11
-0.0533297
21
0.42083
0
LINE
8
BLACK
6
CONTINUOUS
10
-0.0533297
20
0.42083
11
-0.055
21
0.420138
0
LINE
8
BLACK
6
CONTINUOUS
10
-0.055
20
0.420138
11
-0.0566703
21
0.42083
0
LINE
8
BLACK
6
CONTINUOUS
10
-0.0566703
20
0.42083
11
-0.0573622
21
0.4225
0
LINE
8
BLACK
6
CONTINUOUS
10
-0.0573622
20
0.4225
11
-0.0573622
21
0.4525
0
LINE
8
BLACK
6
CONTINUOUS
10
-0.0573622
20
0.4525
11
-0.0566703
21
0.45417
0
LINE
8
BLACK
6
CONTINUOUS
10
-0.0566703
20
0.45417
11
-0.055
21
0.454862
0
LINE
8
BLACK
6
CONTINUOUS
10
-0.055
20
0.454862
11
-0.0533297
21
0.45417
0
LINE
8
BLACK
6
CONTINUOUS
10
0.00667031
20
0.45417
11
0.0073622
21
0.4525
0
LINE
8
BLACK
6
CONTINUOUS
10
0.0073622
20
0.4525
11
0.0073622
21
0.4225
0
LINE
8
BLACK
6
CONTINUOUS
10
0.0073622
20
0.4225
11
0.00667031
21
0.42083
0
LINE
8
BLACK
6
CONTINUOUS
10
0.00667031
20
0.42083
11
0.005
21
0.420138
0
LINE
8
BLACK
6
CONTINUOUS
10
0.005
20
0.420138
11
0.00332969
21
0.42083
0
LINE
8
BLACK
6
CONTINUOUS
10
0.00332969
20
0.42083
11
0.0026378
21
0.4225
0
LINE
8
BLACK
6
CONTINUOUS
10
0.0026378
20
0.4225
11
0.0026378
21
0.4525
0
LINE
8
BLACK
6
CONTINUOUS
10
0.0026378
20
0.4525
11
0.00332969
21
0.45417
0
LINE
8
BLACK
6
CONTINUOUS
10
0.00332969
20
0.45417
11
0.005
21
0.454862
0
LINE
8
BLACK
6
CONTINUOUS
10
0.005
20
0.454862
11
0.00667031
21
0.45417
0
LINE
8
BLACK
6
CONTINUOUS
10
0.181117
20
0.489054
11
0.183314
21
0.486858
0
LINE
8
BLACK
6
CONTINUOUS
10
0.183314
20
0.486858
11
0.184117
21
0.483858
0
LINE
8
BLACK
6
CONTINUOUS
10
0.184117
20
0.483858
11
0.183314
21
0.480858
0
LINE
8
BLACK
6
CONTINUOUS
10
0.183314
20
0.480858
11
0.181117
21
0.478662
0
LINE
8
BLACK
6
CONTINUOUS
10
0.181117
20
0.478662
11
0.178117
21
0.477858
0
LINE
8
BLACK
6
CONTINUOUS
10
0.178117
20
0.477858
11
0.152689
21
0.477858
0
LINE
8
BLACK
6
CONTINUOUS
10
0.152689
20
0.477858
11
0.152689
21
0.463858
0
LINE
8
BLACK
6
CONTINUOUS
10
0.152689
20
0.463858
11
0.151885
21
0.460858
0
LINE
8
BLACK
6
CONTINUOUS
10
0.151885
20
0.460858
11
0.149689
21
0.458662
0
LINE
8
BLACK
6
CONTINUOUS
10
0.149689
20
0.458662
11
0.146689
21
0.457858
0
LINE
8
BLACK
6
CONTINUOUS
10
0.146689
20
0.457858
11
0.143689
21
0.458662
0
LINE
8
BLACK
6
CONTINUOUS
10
0.143689
20
0.458662
11
0.141493
21
0.460858
0
LINE
8
BLACK
6
CONTINUOUS
10
0.141493
20
0.460858
11
0.140689
21
0.463858
0
LINE
8
BLACK
6
CONTINUOUS
10
0.140689
20
0.463858
11
0.140689
21
0.477858
0
LINE
8
BLACK
6
CONTINUOUS
10
0.140689
20
0.477858
11
0.124117
21
0.477858
0
LINE
8
BLACK
6
CONTINUOUS
10
0.124117
20
0.477858
11
0.124117
21
0.455287
0
LINE
8
BLACK
6
CONTINUOUS
10
0.124117
20
0.455287
11
0.123314
21
0.452287
0
LINE
8
BLACK
6
CONTINUOUS
10
0.123314
20
0.452287
11
0.121117
21
0.450091
0
LINE
8
BLACK
6
CONTINUOUS
10
0.121117
20
0.450091
11
0.118117
21
0.449287
0
LINE
8
BLACK
6
CONTINUOUS
10
0.118117
20
0.449287
11
0.115117
21
0.450091
0
LINE
8
BLACK
6
CONTINUOUS
10
0.115117
20
0.450091
11
0.112921
21
0.452287
0
LINE
8
BLACK
6
CONTINUOUS
10
0.112921
20
0.452287
11
0.112117
21
0.455287
0
LINE
8
BLACK
6
CONTINUOUS
10
0.112117
20
0.455287
11
0.112117
21
0.483858
0
LINE
8
BLACK
6
CONTINUOUS
10
0.112117
20
0.483858
11
0.112921
21
0.486858
0
LINE
8
BLACK
6
CONTINUOUS
10
0.112921
20
0.486858
11
0.115117
21
0.489054
0
LINE
8
BLACK
6
CONTINUOUS
10
0.115117
20
0.489054
11
0.118117
21
0.489858
0
LINE
8
BLACK
6
CONTINUOUS
10
0.118117
20
0.489858
11
0.178117
21
0.489858
0
LINE
8
BLACK
6
CONTINUOUS
10
0.178117
20
0.489858
11
0.181117
21
0.489054
0
LINE
8
BLACK
6
CONTINUOUS
10
-0.0939901
20
0.500275
11
-0.0924428
21
0.498976
0
LINE
8
BLACK
6
CONTINUOUS
10
-0.0924428
20
0.498976
11
-0.0920921
21
0.496987
0
LINE
8
BLACK
6
CONTINUOUS
10
-0.0920921
20
0.496987
11
-0.093102
21
0.495238
0
LINE
8
BLACK
6
CONTINUOUS
10
-0.093102
20
0.495238
11
-0.095
21
0.494547
0
LINE
8
BLACK
6
CONTINUOUS
10
-0.095
20
0.494547
11
-0.155
21
0.494547
0
LINE
8
BLACK
6
CONTINUOUS
10
-0.155
20
0.494547
11
-0.15601
21
0.494725
0
LINE
8
BLACK
6
CONTINUOUS
10
-0.15601
20
0.494725
11
-0.157557
21
0.496024
0
LINE
8
BLACK
6
CONTINUOUS
10
-0.157557
20
0.496024
11
-0.157908
21
0.498013
0
LINE
8
BLACK
6
CONTINUOUS
10
-0.157908
20
0.498013
11
-0.156898
21
0.499762
0
LINE
8
BLACK
6
CONTINUOUS
10
-0.156898
20
0.499762
11
-0.155
21
0.500453
0
LINE
8
BLACK
6
CONTINUOUS
10
-0.155
20
0.500453
11
-0.095
21
0.500453
0
LINE
8
BLACK
6
CONTINUOUS
10
-0.095
20
0.500453
11
-0.0939901
21
0.500275
0
LINE
8
BLACK
6
CONTINUOUS
10
0.00600992
20
0.500275
11
0.00755717
21
0.498976
0
LINE
8
BLACK
6
CONTINUOUS
10
0.00755717
20
0.498976
11
0.00790791
21
0.496987
0
LINE
8
BLACK
6
CONTINUOUS
10
0.00790791
20
0.496987
11
0.00689799
21
0.495238
0
LINE
8
BLACK
6
CONTINUOUS
10
0.00689799
20
0.495238
11
0.005
21
0.494547
0
LINE
8
BLACK
6
CONTINUOUS
10
0.005
20
0.494547
11
-0.055
21
0.494547
0
LINE
8
BLACK
6
CONTINUOUS
10
-0.055
20
0.494547
11
-0.0560099
21
0.494725
0
LINE
8
BLACK
6
CONTINUOUS
10
-0.0560099
20
0.494725
11
-0.0575572
21
0.496024
0
LINE
8
BLACK
6
CONTINUOUS
10
-0.0575572
20
0.496024
11
-0.0579079
21
0.498013
0
LINE
8
BLACK
6
CONTINUOUS
10
-0.0579079
20
0.498013
11
-0.056898
21
0.499762
0
LINE
8
BLACK
6
CONTINUOUS
10
-0.056898
20
0.499762
11
-0.055
21
0.500453
0
LINE
8
BLACK
6
CONTINUOUS
10
-0.055
20
0.500453
11
0.005
21
0.500453
0
LINE
8
BLACK
6
CONTINUOUS
10
0.005
20
0.500453
11
0.00600992
21
0.500275
0
LINE
8
BLACK
6
CONTINUOUS
10
0.722143
20
0.534741
11
0.722835
21
0.533071
0
LINE
8
BLACK
6
CONTINUOUS
10
0.722835
20
0.533071
11
0.722143
21
0.531401
0
LINE
8
BLACK
6
CONTINUOUS
10
0.722143
20
0.531401
11
0.720472
21
0.530709
0
LINE
8
BLACK
6
CONTINUOUS
10
0.720472
20
0.530709
11
0.694291
21
0.530709
0
LINE
8
BLACK
6
CONTINUOUS
10
0.694291
20
0.530709
11
0.694291
21
0.504528
0
LINE
8
BLACK
6
CONTINUOUS
10
0.694291
20
0.504528
11
0.693599
21
0.502857
0
LINE
8
BLACK
6
CONTINUOUS
10
0.693599
20
0.502857
11
0.691929
21
0.502165
0
LINE
8
BLACK
6
CONTINUOUS
10
0.691929
20
0.502165
11
0.690259
21
0.502857
0
LINE
8
BLACK
6
CONTINUOUS
10
0.690259
20
0.502857
11
0.689567
21
0.504528
0
LINE
8
BLACK
6
CONTINUOUS
10
0.689567
20
0.504528
11
0.689567
21
0.533071
0
LINE
8
BLACK
6
CONTINUOUS
10
0.689567
20
0.533071
11
0.690259
21
0.534741
0
LINE
8
BLACK
6
CONTINUOUS
10
0.690259
20
0.534741
11
0.691929
21
0.535433
0
LINE
8
BLACK
6
CONTINUOUS
10
0.691929
20
0.535433
11
0.720472
21
0.535433
0
LINE
8
BLACK
6
CONTINUOUS
10
0.720472
20
0.535433
11
0.722143
21
0.534741
0
LINE
8
BLACK
6
CONTINUOUS
10
0.858071
20
0.535433
11
0.859741
21
0.534741
0
LINE
8
BLACK
6
CONTINUOUS
10
0.859741
20
0.534741
11
0.860433
21
0.533071
0
LINE
8
BLACK
6
CONTINUOUS
10
0.860433
20
0.533071
11
0.860433
21
0.504528
0
LINE
8
BLACK
6
CONTINUOUS
10
0.860433
20
0.504528
11
0.859741
21
0.502857
0
LINE
8
BLACK
6
CONTINUOUS
10
0.859741
20
0.502857
11
0.858071
21
0.502165
0
LINE
8
BLACK
6
CONTINUOUS
10
0.858071
20
0.502165
11
0.856401
21
0.502857
0
LINE
8
BLACK
6
CONTINUOUS
10
0.856401
20
0.502857
11
0.855709
21
0.504528
0
LINE
8
BLACK
6
CONTINUOUS
10
0.855709
20
0.504528
11
0.855709
21
0.530709
0
LINE
8
BLACK
6
CONTINUOUS
10
0.855709
20
0.530709
11
0.829528
21
0.530709
0
LINE
8
BLACK
6
CONTINUOUS
10
0.829528
20
0.530709
11
0.827857
21
0.531401
0
LINE
8
BLACK
6
CONTINUOUS
10
0.827857
20
0.531401
11
0.827165
21
0.533071
0
LINE
8
BLACK
6
CONTINUOUS
10
0.827165
20
0.533071
11
0.827857
21
0.534741
0
LINE
8
BLACK
6
CONTINUOUS
10
0.827857
20
0.534741
11
0.829528
21
0.535433
0
LINE
8
BLACK
6
CONTINUOUS
10
0.829528
20
0.535433
11
0.858071
21
0.535433
0
LINE
8
BLACK
6
CONTINUOUS
10
0.455217
20
0.515945
11
0.486713
21
0.515945
0
LINE
8
BLACK
6
CONTINUOUS
10
0.486713
20
0.515945
11
0.488383
21
0.515253
0
LINE
8
BLACK
6
CONTINUOUS
10
0.488383
20
0.515253
11
0.489075
21
0.513583
0
LINE
8
BLACK
6
CONTINUOUS
10
0.489075
20
0.513583
11
0.488383
21
0.511912
0
LINE
8
BLACK
6
CONTINUOUS
10
0.488383
20
0.511912
11
0.486713
21
0.51122
0
LINE
8
BLACK
6
CONTINUOUS
10
0.486713
20
0.51122
11
0.455217
21
0.51122
0
LINE
8
BLACK
6
CONTINUOUS
10
0.455217
20
0.51122
11
0.42372
21
0.51122
0
LINE
8
BLACK
6
CONTINUOUS
10
0.42372
20
0.51122
11
0.42205
21
0.511912
0
LINE
8
BLACK
6
CONTINUOUS
10
0.42205
20
0.511912
11
0.421358
21
0.513583
0
LINE
8
BLACK
6
CONTINUOUS
10
0.421358
20
0.513583
11
0.42205
21
0.515253
0
LINE
8
BLACK
6
CONTINUOUS
10
0.42205
20
0.515253
11
0.42372
21
0.515945
0
LINE
8
BLACK
6
CONTINUOUS
10
0.42372
20
0.515945
11
0.455217
21
0.515945
0
LINE
8
BLACK
6
CONTINUOUS
10
0.194238
20
0.522775
11
0.195786
21
0.521476
0
LINE
8
BLACK
6
CONTINUOUS
10
0.195786
20
0.521476
11
0.196136
21
0.519487
0
LINE
8
BLACK
6
CONTINUOUS
10
0.196136
20
0.519487
11
0.195126
21
0.517738
0
LINE
8
BLACK
6
CONTINUOUS
10
0.195126
20
0.517738
11
0.193228
21
0.517047
0
LINE
8
BLACK
6
CONTINUOUS
10
0.193228
20
0.517047
11
0.103228
21
0.517047
0
LINE
8
BLACK
6
CONTINUOUS
10
0.103228
20
0.517047
11
0.102218
21
0.517225
0
LINE
8
BLACK
6
CONTINUOUS
10
0.102218
20
0.517225
11
0.100671
21
0.518524
0
LINE
8
BLACK
6
CONTINUOUS
10
0.100671
20
0.518524
11
0.10032
21
0.520513
0
LINE
8
BLACK
6
CONTINUOUS
10
0.10032
20
0.520513
11
0.10133
21
0.522262
0
LINE
8
BLACK
6
CONTINUOUS
10
0.10133
20
0.522262
11
0.103228
21
0.522953
0
LINE
8
BLACK
6
CONTINUOUS
10
0.103228
20
0.522953
11
0.193228
21
0.522953
0
LINE
8
BLACK
6
CONTINUOUS
10
0.193228
20
0.522953
11
0.194238
21
0.522775
0
LINE
8
BLACK
6
CONTINUOUS
10
-0.120238
20
0.606898
11
-0.119547
21
0.605
0
LINE
8
BLACK
6
CONTINUOUS
10
-0.119547
20
0.605
11
-0.119547
21
0.545
0
LINE
8
BLACK
6
CONTINUOUS
10
-0.119547
20
0.545
11
-0.119725
21
0.54399
0
LINE
8
BLACK
6
CONTINUOUS
10
-0.119725
20
0.54399
11
-0.121024
21
0.542443
0
LINE
8
BLACK
6
CONTINUOUS
10
-0.121024
20
0.542443
11
-0.123013
21
0.542092
0
LINE
8
BLACK
6
CONTINUOUS
10
-0.123013
20
0.542092
11
-0.124762
21
0.543102
0
LINE
8
BLACK
6
CONTINUOUS
10
-0.124762
20
0.543102
11
-0.125453
21
0.545
0
LINE
8
BLACK
6
CONTINUOUS
10
-0.125453
20
0.545
11
-0.125453
21
0.605
0
LINE
8
BLACK
6
CONTINUOUS
10
-0.125453
20
0.605
11
-0.125275
21
0.60601
0
LINE
8
BLACK
6
CONTINUOUS
10
-0.125275
20
0.60601
11
-0.123976
21
0.607557
0
LINE
8
BLACK
6
CONTINUOUS
10
-0.123976
20
0.607557
11
-0.121987
21
0.607908
0
LINE
8
BLACK
6
CONTINUOUS
10
-0.121987
20
0.607908
11
-0.120238
21
0.606898
0
LINE
8
BLACK
6
CONTINUOUS
10
-0.000238071
20
0.606898
11
0.000452756
21
0.605
0
LINE
8
BLACK
6
CONTINUOUS
10
0.000452756
20
0.605
11
0.000452756
21
0.545
0
LINE
8
BLACK
6
CONTINUOUS
10
0.000452756
20
0.545
11
0.000274685
21
0.54399
0
LINE
8
BLACK
6
CONTINUOUS
10
0.000274685
20
0.54399
11
-0.00102362
21
0.542443
0
LINE
8
BLACK
6
CONTINUOUS
10
-0.00102362
20
0.542443
11
-0.00301276
21
0.542092
0
LINE
8
BLACK
6
CONTINUOUS
10
-0.00301276
20
0.542092
11
-0.00476193
21
0.543102
0
LINE
8
BLACK
6
CONTINUOUS
10
-0.00476193
20
0.543102
11
-0.00545276
21
0.545
0
LINE
8
BLACK
6
CONTINUOUS
10
-0.00545276
20
0.545
11
-0.00545276
21
0.605
0
LINE
8
BLACK
6
CONTINUOUS
10
-0.00545276
20
0.605
11
-0.00527469
21
0.60601
0
LINE
8
BLACK
6
CONTINUOUS
10
-0.00527469
20
0.60601
11
-0.00397638
21
0.607557
0
LINE
8
BLACK
6
CONTINUOUS
10
-0.00397638
20
0.607557
11
-0.00198724
21
0.607908
0
LINE
8
BLACK
6
CONTINUOUS
10
-0.00198724
20
0.607908
11
-0.000238071
21
0.606898
0
LINE
8
BLACK
6
CONTINUOUS
10
-0.0458297
20
0.54667
11
-0.0451378
21
0.545
0
LINE
8
BLACK
6
CONTINUOUS
10
-0.0451378
20
0.545
11
-0.0458297
21
0.54333
0
LINE
8
BLACK
6
CONTINUOUS
10
-0.0458297
20
0.54333
11
-0.0475
21
0.542638
0
LINE
8
BLACK
6
CONTINUOUS
10
-0.0475
20
0.542638
11
-0.0775
21
0.542638
0
LINE
8
BLACK
6
CONTINUOUS
10
-0.0775
20
0.542638
11
-0.0791703
21
0.54333
0
LINE
8
BLACK
6
CONTINUOUS
10
-0.0791703
20
0.54333
11
-0.0798622
21
0.545
0
LINE
8
BLACK
6
CONTINUOUS
10
-0.0798622
20
0.545
11
-0.0791703
21
0.54667
0
LINE
8
BLACK
6
CONTINUOUS
10
-0.0791703
20
0.54667
11
-0.0775
21
0.547362
0
LINE
8
BLACK
6
CONTINUOUS
10
-0.0775
20
0.547362
11
-0.0475
21
0.547362
0
LINE
8
BLACK
6
CONTINUOUS
10
-0.0475
20
0.547362
11
-0.0458297
21
0.54667
0
LINE
8
BLACK
6
CONTINUOUS
10
0.655419
20
0.568621
11
0.656967
21
0.567323
0
LINE
8
BLACK
6
CONTINUOUS
10
0.656967
20
0.567323
11
0.657317
21
0.565334
0
LINE
8
BLACK
6
CONTINUOUS
10
0.657317
20
0.565334
11
0.656307
21
0.563585
0
LINE
8
BLACK
6
CONTINUOUS
10
0.656307
20
0.563585
11
0.654409
21
0.562894
0
LINE
8
BLACK
6
CONTINUOUS
10
0.654409
20
0.562894
11
0.594409
21
0.562894
0
LINE
8
BLACK
6
CONTINUOUS
10
0.594409
20
0.562894
11
0.5934
21
0.563072
0
LINE
8
BLACK
6
CONTINUOUS
10
0.5934
20
0.563072
11
0.591852
21
0.56437
0
LINE
8
BLACK
6
CONTINUOUS
10
0.591852
20
0.56437
11
0.591502
21
0.566359
0
LINE
8
BLACK
6
CONTINUOUS
10
0.591502
20
0.566359
11
0.592511
21
0.568108
0
LINE
8
BLACK
6
CONTINUOUS
10
0.592511
20
0.568108
11
0.594409
21
0.568799
0
LINE
8
BLACK
6
CONTINUOUS
10
0.594409
20
0.568799
11
0.654409
21
0.568799
0
LINE
8
BLACK
6
CONTINUOUS
10
0.654409
20
0.568799
11
0.655419
21
0.568621
0
LINE
8
BLACK
6
CONTINUOUS
10
-0.0458297
20
0.60667
11
-0.0451378
21
0.605
0
LINE
8
BLACK
6
CONTINUOUS
10
-0.0451378
20
0.605
11
-0.0458297
21
0.60333
0
LINE
8
BLACK
6
CONTINUOUS
10
-0.0458297
20
0.60333
11
-0.0475
21
0.602638
0
LINE
8
BLACK
6
CONTINUOUS
10
-0.0475
20
0.602638
11
-0.0775
21
0.602638
0
LINE
8
BLACK
6
CONTINUOUS
10
-0.0775
20
0.602638
11
-0.0791703
21
0.60333
0
LINE
8
BLACK
6
CONTINUOUS
10
-0.0791703
20
0.60333
11
-0.0798622
21
0.605
0
LINE
8
BLACK
6
CONTINUOUS
10
-0.0798622
20
0.605
11
-0.0791703
21
0.60667
0
LINE
8
BLACK
6
CONTINUOUS
10
-0.0791703
20
0.60667
11
-0.0775
21
0.607362
0
LINE
8
BLACK
6
CONTINUOUS
10
-0.0775
20
0.607362
11
-0.0475
21
0.607362
0
LINE
8
BLACK
6
CONTINUOUS
10
-0.0475
20
0.607362
11
-0.0458297
21
0.60667
0
LINE
8
BLACK
6
CONTINUOUS
10
0.59608
20
0.642517
11
0.596772
21
0.640846
0
LINE
8
BLACK
6
CONTINUOUS
10
0.596772
20
0.640846
11
0.596772
21
0.610846
0
LINE
8
BLACK
6
CONTINUOUS
10
0.596772
20
0.610846
11
0.59608
21
0.609176
0
LINE
8
BLACK
6
CONTINUOUS
10
0.59608
20
0.609176
11
0.594409
21
0.608484
0
LINE
8
BLACK
6
CONTINUOUS
10
0.594409
20
0.608484
11
0.592739
21
0.609176
0
LINE
8
BLACK
6
CONTINUOUS
10
0.592739
20
0.609176
11
0.592047
21
0.610846
0
LINE
8
BLACK
6
CONTINUOUS
10
0.592047
20
0.610846
11
0.592047
21
0.640846
0
LINE
8
BLACK
6
CONTINUOUS
10
0.592047
20
0.640846
11
0.592739
21
0.642517
0
LINE
8
BLACK
6
CONTINUOUS
10
0.592739
20
0.642517
11
0.594409
21
0.643209
0
LINE
8
BLACK
6
CONTINUOUS
10
0.594409
20
0.643209
11
0.59608
21
0.642517
0
LINE
8
BLACK
6
CONTINUOUS
10
0.65608
20
0.642517
11
0.656772
21
0.640846
0
LINE
8
BLACK
6
CONTINUOUS
10
0.656772
20
0.640846
11
0.656772
21
0.610846
0
LINE
8
BLACK
6
CONTINUOUS
10
0.656772
20
0.610846
11
0.65608
21
0.609176
0
LINE
8
BLACK
6
CONTINUOUS
10
0.65608
20
0.609176
11
0.654409
21
0.608484
0
LINE
8
BLACK
6
CONTINUOUS
10
0.654409
20
0.608484
11
0.652739
21
0.609176
0
LINE
8
BLACK
6
CONTINUOUS
10
0.652739
20
0.609176
11
0.652047
21
0.610846
0
LINE
8
BLACK
6
CONTINUOUS
10
0.652047
20
0.610846
11
0.652047
21
0.640846
0
LINE
8
BLACK
6
CONTINUOUS
10
0.652047
20
0.640846
11
0.652739
21
0.642517
0
LINE
8
BLACK
6
CONTINUOUS
10
0.652739
20
0.642517
11
0.654409
21
0.643209
0
LINE
8
BLACK
6
CONTINUOUS
10
0.654409
20
0.643209
11
0.65608
21
0.642517
0
LINE
8
BLACK
6
CONTINUOUS
10
0.684762
20
0.676898
11
0.685453
21
0.675
0
LINE
8
BLACK
6
CONTINUOUS
10
0.685453
20
0.675
11
0.685453
21
0.615
0
LINE
8
BLACK
6
CONTINUOUS
10
0.685453
20
0.615
11
0.685275
21
0.61399
0
LINE
8
BLACK
6
CONTINUOUS
10
0.685275
20
0.61399
11
0.683976
21
0.612443
0
LINE
8
BLACK
6
CONTINUOUS
10
0.683976
20
0.612443
11
0.681987
21
0.612092
0
LINE
8
BLACK
6
CONTINUOUS
10
0.681987
20
0.612092
11
0.680238
21
0.613102
0
LINE
8
BLACK
6
CONTINUOUS
10
0.680238
20
0.613102
11
0.679547
21
0.615
0
LINE
8
BLACK
6
CONTINUOUS
10
0.679547
20
0.615
11
0.679547
21
0.675
0
LINE
8
BLACK
6
CONTINUOUS
10
0.679547
20
0.675
11
0.679725
21
0.67601
0
LINE
8
BLACK
6
CONTINUOUS
10
0.679725
20
0.67601
11
0.681024
21
0.677557
0
LINE
8
BLACK
6
CONTINUOUS
10
0.681024
20
0.677557
11
0.683013
21
0.677908
0
LINE
8
BLACK
6
CONTINUOUS
10
0.683013
20
0.677908
11
0.684762
21
0.676898
0
LINE
8
BLACK
6
CONTINUOUS
10
0.804762
20
0.676898
11
0.805453
21
0.675
0
LINE
8
BLACK
6
CONTINUOUS
10
0.805453
20
0.675
11
0.805453
21
0.615
0
LINE
8
BLACK
6
CONTINUOUS
10
0.805453
20
0.615
11
0.805275
21
0.61399
0
LINE
8
BLACK
6
CONTINUOUS
10
0.805275
20
0.61399
11
0.803976
21
0.612443
0
LINE
8
BLACK
6
CONTINUOUS
10
0.803976
20
0.612443
11
0.801987
21
0.612092
0
LINE
8
BLACK
6
CONTINUOUS
10
0.801987
20
0.612092
11
0.800238
21
0.613102
0
LINE
8
BLACK
6
CONTINUOUS
10
0.800238
20
0.613102
11
0.799547
21
0.615
0
LINE
8
BLACK
6
CONTINUOUS
10
0.799547
20
0.615
11
0.799547
21
0.675
0
LINE
8
BLACK
6
CONTINUOUS
10
0.799547
20
0.675
11
0.799725
21
0.67601
0
LINE
8
BLACK
6
CONTINUOUS
10
0.799725
20
0.67601
11
0.801024
21
0.677557
0
LINE
8
BLACK
6
CONTINUOUS
10
0.801024
20
0.677557
11
0.803013
21
0.677908
0
LINE
8
BLACK
6
CONTINUOUS
10
0.803013
20
0.677908
11
0.804762
21
0.676898
0
LINE
8
BLACK
6
CONTINUOUS
10
0.824762
20
0.676898
11
0.825453
21
0.675
0
LINE
8
BLACK
6
CONTINUOUS
10
0.825453
20
0.675
11
0.825453
21
0.615
0
LINE
8
BLACK
6
CONTINUOUS
10
0.825453
20
0.615
11
0.825275
21
0.61399
0
LINE
8
BLACK
6
CONTINUOUS
10
0.825275
20
0.61399
11
0.823976
21
0.612443
0
LINE
8
BLACK
6
CONTINUOUS
10
0.823976
20
0.612443
11
0.821987
21
0.612092
0
LINE
8
BLACK
6
CONTINUOUS
10
0.821987
20
0.612092
11
0.820238
21
0.613102
0
LINE
8
BLACK
6
CONTINUOUS
10
0.820238
20
0.613102
11
0.819547
21
0.615
0
LINE
8
BLACK
6
CONTINUOUS
10
0.819547
20
0.615
11
0.819547
21
0.675
0
LINE
8
BLACK
6
CONTINUOUS
10
0.819547
20
0.675
11
0.819725
21
0.67601
0
LINE
8
BLACK
6
CONTINUOUS
10
0.819725
20
0.67601
11
0.821024
21
0.677557
0
LINE
8
BLACK
6
CONTINUOUS
10
0.821024
20
0.677557
11
0.823013
21
0.677908
0
LINE
8
BLACK
6
CONTINUOUS
10
0.823013
20
0.677908
11
0.824762
21
0.676898
0
LINE
8
BLACK
6
CONTINUOUS
10
0.944762
20
0.676898
11
0.945453
21
0.675
0
LINE
8
BLACK
6
CONTINUOUS
10
0.945453
20
0.675
11
0.945453
21
0.615
0
LINE
8
BLACK
6
CONTINUOUS
10
0.945453
20
0.615
11
0.945275
21
0.61399
0
LINE
8
BLACK
6
CONTINUOUS
10
0.945275
20
0.61399
11
0.943976
21
0.612443
0
LINE
8
BLACK
6
CONTINUOUS
10
0.943976
20
0.612443
11
0.941987
21
0.612092
0
LINE
8
BLACK
6
CONTINUOUS
10
0.941987
20
0.612092
11
0.940238
21
0.613102
0
LINE
8
BLACK
6
CONTINUOUS
10
0.940238
20
0.613102
11
0.939547
21
0.615
0
LINE
8
BLACK
6
CONTINUOUS
10
0.939547
20
0.615
11
0.939547
21
0.675
0
LINE
8
BLACK
6
CONTINUOUS
10
0.939547
20
0.675
11
0.939725
21
0.67601
0
LINE
8
BLACK
6
CONTINUOUS
10
0.939725
20
0.67601
11
0.941024
21
0.677557
0
LINE
8
BLACK
6
CONTINUOUS
10
0.941024
20
0.677557
11
0.943013
21
0.677908
0
LINE
8
BLACK
6
CONTINUOUS
10
0.943013
20
0.677908
11
0.944762
21
0.676898
0
LINE
8
BLACK
6
CONTINUOUS
10
0.964762
20
0.676898
11
0.965453
21
0.675
0
LINE
8
BLACK
6
CONTINUOUS
10
0.965453
20
0.675
11
0.965453
21
0.615
0
LINE
8
BLACK
6
CONTINUOUS
10
0.965453
20
0.615
11
0.965275
21
0.61399
0
LINE
8
BLACK
6
CONTINUOUS
10
0.965275
20
0.61399
11
0.963976
21
0.612443
0
LINE
8
BLACK
6
CONTINUOUS
10
0.963976
20
0.612443
11
0.961987
21
0.612092
0
LINE
8
BLACK
6
CONTINUOUS
10
0.961987
20
0.612092
11
0.960238
21
0.613102
0
LINE
8
BLACK
6
CONTINUOUS
10
0.960238
20
0.613102
11
0.959547
21
0.615
0
LINE
8
BLACK
6
CONTINUOUS
10
0.959547
20
0.615
11
0.959547
21
0.675
0
LINE
8
BLACK
6
CONTINUOUS
10
0.959547
20
0.675
11
0.959725
21
0.67601
0
LINE
8
BLACK
6
CONTINUOUS
10
0.959725
20
0.67601
11
0.961024
21
0.677557
0
LINE
8
BLACK
6
CONTINUOUS
10
0.961024
20
0.677557
11
0.963013
21
0.677908
0
LINE
8
BLACK
6
CONTINUOUS
10
0.963013
20
0.677908
11
0.964762
21
0.676898
0
LINE
8
BLACK
6
CONTINUOUS
10
1.08476
20
0.676898
11
1.08545
21
0.675
0
LINE
8
BLACK
6
CONTINUOUS
10
1.08545
20
0.675
11
1.08545
21
0.615
0
LINE
8
BLACK
6
CONTINUOUS
10
1.08545
20
0.615
11
1.08527
21
0.61399
0
LINE
8
BLACK
6
CONTINUOUS
10
1.08527
20
0.61399
11
1.08398
21
0.612443
0
LINE
8
BLACK
6
CONTINUOUS
10
1.08398
20
0.612443
11
1.08199
21
0.612092
0
LINE
8
BLACK
6
CONTINUOUS
10
1.08199
20
0.612092
11
1.08024
21
0.613102
0
LINE
8
BLACK
6
CONTINUOUS
10
1.08024
20
0.613102
11
1.07955
21
0.615
0
LINE
8
BLACK
6
CONTINUOUS
10
1.07955
20
0.615
11
1.07955
21
0.675
0
LINE
8
BLACK
6
CONTINUOUS
10
1.07955
20
0.675
11
1.07973
21
0.67601
0
LINE
8
BLACK
6
CONTINUOUS
10
1.07973
20
0.67601
11
1.08102
21
0.677557
0
LINE
8
BLACK
6
CONTINUOUS
10
1.08102
20
0.677557
11
1.08301
21
0.677908
0
LINE
8
BLACK
6
CONTINUOUS
10
1.08301
20
0.677908
11
1.08476
21
0.676898
0
LINE
8
BLACK
6
CONTINUOUS
10
0.75917
20
0.61667
11
0.759862
21
0.615
0
LINE
8
BLACK
6
CONTINUOUS
10
0.759862
20
0.615
11
0.75917
21
0.61333
0
LINE
8
BLACK
6
CONTINUOUS
10
0.75917
20
0.61333
11
0.7575
21
0.612638
0
LINE
8
BLACK
6
CONTINUOUS
10
0.7575
20
0.612638
11
0.7275
21
0.612638
0
LINE
8
BLACK
6
CONTINUOUS
10
0.7275
20
0.612638
11
0.72583
21
0.61333
0
LINE
8
BLACK
6
CONTINUOUS
10
0.72583
20
0.61333
11
0.725138
21
0.615
0
LINE
8
BLACK
6
CONTINUOUS
10
0.725138
20
0.615
11
0.72583
21
0.61667
0
LINE
8
BLACK
6
CONTINUOUS
10
0.72583
20
0.61667
11
0.7275
21
0.617362
0
LINE
8
BLACK
6
CONTINUOUS
10
0.7275
20
0.617362
11
0.7575
21
0.617362
0
LINE
8
BLACK
6
CONTINUOUS
10
0.7575
20
0.617362
11
0.75917
21
0.61667
0
LINE
8
BLACK
6
CONTINUOUS
10
0.89917
20
0.61667
11
0.899862
21
0.615
0
LINE
8
BLACK
6
CONTINUOUS
10
0.899862
20
0.615
11
0.89917
21
0.61333
0
LINE
8
BLACK
6
CONTINUOUS
10
0.89917
20
0.61333
11
0.8975
21
0.612638
0
LINE
8
BLACK
6
CONTINUOUS
10
0.8975
20
0.612638
11
0.8675
21
0.612638
0
LINE
8
BLACK
6
CONTINUOUS
10
0.8675
20
0.612638
11
0.86583
21
0.61333
0
LINE
8
BLACK
6
CONTINUOUS
10
0.86583
20
0.61333
11
0.865138
21
0.615
0
LINE
8
BLACK
6
CONTINUOUS
10
0.865138
20
0.615
11
0.86583
21
0.61667
0
LINE
8
BLACK
6
CONTINUOUS
10
0.86583
20
0.61667
11
0.8675
21
0.617362
0
LINE
8
BLACK
6
CONTINUOUS
10
0.8675
20
0.617362
11
0.8975
21
0.617362
0
LINE
8
BLACK
6
CONTINUOUS
10
0.8975
20
0.617362
11
0.89917
21
0.61667
0
LINE
8
BLACK
6
CONTINUOUS
10
1.03917
20
0.61667
11
1.03986
21
0.615
0
LINE
8
BLACK
6
CONTINUOUS
10
1.03986
20
0.615
11
1.03917
21
0.61333
0
LINE
8
BLACK
6
CONTINUOUS
10
1.03917
20
0.61333
11
1.0375
21
0.612638
0
LINE
8
BLACK
6
CONTINUOUS
10
1.0375
20
0.612638
11
1.0075
21
0.612638
0
LINE
8
BLACK
6
CONTINUOUS
10
1.0075
20
0.612638
11
1.00583
21
0.61333
0
LINE
8
BLACK
6
CONTINUOUS
10
1.00583
20
0.61333
11
1.00514
21
0.615
0
LINE
8
BLACK
6
CONTINUOUS
10
1.00514
20
0.615
11
1.00583
21
0.61667
0
LINE
8
BLACK
6
CONTINUOUS
10
1.00583
20
0.61667
11
1.0075
21
0.617362
0
LINE
8
BLACK
6
CONTINUOUS
10
1.0075
20
0.617362
11
1.0375
21
0.617362
0
LINE
8
BLACK
6
CONTINUOUS
10
1.0375
20
0.617362
11
1.03917
21
0.61667
0
LINE
8
BLACK
6
CONTINUOUS
10
0.455217
20
0.63878
11
0.526083
21
0.63878
0
LINE
8
BLACK
6
CONTINUOUS
10
0.526083
20
0.63878
11
0.527753
21
0.638088
0
LINE
8
BLACK
6
CONTINUOUS
10
0.527753
20
0.638088
11
0.528445
21
0.636417
0
LINE
8
BLACK
6
CONTINUOUS
10
0.528445
20
0.636417
11
0.527753
21
0.634747
0
LINE
8
BLACK
6
CONTINUOUS
10
0.527753
20
0.634747
11
0.526083
21
0.634055
0
LINE
8
BLACK
6
CONTINUOUS
10
0.526083
20
0.634055
11
0.455217
21
0.634055
0
LINE
8
BLACK
6
CONTINUOUS
10
0.455217
20
0.634055
11
0.42372
21
0.634055
0
LINE
8
BLACK
6
CONTINUOUS
10
0.42372
20
0.634055
11
0.42205
21
0.634747
0
LINE
8
BLACK
6
CONTINUOUS
10
0.42205
20
0.634747
11
0.421358
21
0.636417
0
LINE
8
BLACK
6
CONTINUOUS
10
0.421358
20
0.636417
11
0.42205
21
0.638088
0
LINE
8
BLACK
6
CONTINUOUS
10
0.42205
20
0.638088
11
0.42372
21
0.63878
0
LINE
8
BLACK
6
CONTINUOUS
10
0.42372
20
0.63878
11
0.455217
21
0.63878
0
LINE
8
BLACK
6
CONTINUOUS
10
0.493226
20
0.688618
11
0.493396
21
0.688628
0
LINE
8
BLACK
6
CONTINUOUS
10
0.493396
20
0.688628
11
0.494086
21
0.688121
0
LINE
8
BLACK
6
CONTINUOUS
10
0.494086
20
0.688121
11
0.494828
21
0.687693
0
LINE
8
BLACK
6
CONTINUOUS
10
0.494828
20
0.687693
11
0.494886
21
0.687533
0
LINE
8
BLACK
6
CONTINUOUS
10
0.494886
20
0.687533
11
0.495023
21
0.687432
0
LINE
8
BLACK
6
CONTINUOUS
10
0.495023
20
0.687432
11
0.498611
21
0.682051
0
LINE
8
BLACK
6
CONTINUOUS
10
0.498611
20
0.682051
11
0.501815
21
0.678847
0
LINE
8
BLACK
6
CONTINUOUS
10
0.501815
20
0.678847
11
0.505136
21
0.677187
0
LINE
8
BLACK
6
CONTINUOUS
10
0.505136
20
0.677187
11
0.505959
21
0.676576
0
LINE
8
BLACK
6
CONTINUOUS
10
0.505959
20
0.676576
11
0.506763
21
0.674723
0
LINE
8
BLACK
6
CONTINUOUS
10
0.506763
20
0.674723
11
0.506187
21
0.672787
0
LINE
8
BLACK
6
CONTINUOUS
10
0.506187
20
0.672787
11
0.504501
21
0.671674
0
LINE
8
BLACK
6
CONTINUOUS
10
0.504501
20
0.671674
11
0.502495
21
0.671905
0
LINE
8
BLACK
6
CONTINUOUS
10
0.502495
20
0.671905
11
0.498745
21
0.67378
0
LINE
8
BLACK
6
CONTINUOUS
10
0.498745
20
0.67378
11
0.498036
21
0.674306
0
LINE
8
BLACK
6
CONTINUOUS
10
0.498036
20
0.674306
11
0.497978
21
0.674333
0
LINE
8
BLACK
6
CONTINUOUS
10
0.497978
20
0.674333
11
0.495519
21
0.676791
0
LINE
8
BLACK
6
CONTINUOUS
10
0.495519
20
0.676791
11
0.495519
21
0.649377
0
LINE
8
BLACK
6
CONTINUOUS
10
0.495519
20
0.649377
11
0.503815
21
0.649377
0
LINE
8
BLACK
6
CONTINUOUS
10
0.503815
20
0.649377
11
0.504825
21
0.649199
0
LINE
8
BLACK
6
CONTINUOUS
10
0.504825
20
0.649199
11
0.506372
21
0.647901
0
LINE
8
BLACK
6
CONTINUOUS
10
0.506372
20
0.647901
11
0.506723
21
0.645912
0
LINE
8
BLACK
6
CONTINUOUS
10
0.506723
20
0.645912
11
0.505713
21
0.644163
0
LINE
8
BLACK
6
CONTINUOUS
10
0.505713
20
0.644163
11
0.503815
21
0.643472
0
LINE
8
BLACK
6
CONTINUOUS
10
0.503815
20
0.643472
11
0.481318
21
0.643472
0
LINE
8
BLACK
6
CONTINUOUS
10
0.481318
20
0.643472
11
0.480308
21
0.64365
0
LINE
8
BLACK
6
CONTINUOUS
10
0.480308
20
0.64365
11
0.478761
21
0.644948
0
LINE
8
BLACK
6
CONTINUOUS
10
0.478761
20
0.644948
11
0.47841
21
0.646937
0
LINE
8
BLACK
6
CONTINUOUS
10
0.47841
20
0.646937
11
0.47942
21
0.648686
0
LINE
8
BLACK
6
CONTINUOUS
10
0.47942
20
0.648686
11
0.481318
21
0.649377
0
LINE
8
BLACK
6
CONTINUOUS
10
0.481318
20
0.649377
11
0.489614
21
0.649377
0
LINE
8
BLACK
6
CONTINUOUS
10
0.489614
20
0.649377
11
0.489614
21
0.685795
0
LINE
8
BLACK
6
CONTINUOUS
10
0.489614
20
0.685795
11
0.489792
21
0.686804
0
LINE
8
BLACK
6
CONTINUOUS
10
0.489792
20
0.686804
11
0.489901
21
0.686935
0
LINE
8
BLACK
6
CONTINUOUS
10
0.489901
20
0.686935
11
0.48992
21
0.687103
0
LINE
8
BLACK
6
CONTINUOUS
10
0.48992
20
0.687103
11
0.490539
21
0.687695
0
LINE
8
BLACK
6
CONTINUOUS
10
0.490539
20
0.687695
11
0.49109
21
0.688352
0
LINE
8
BLACK
6
CONTINUOUS
10
0.49109
20
0.688352
11
0.491257
21
0.688381
0
LINE
8
BLACK
6
CONTINUOUS
10
0.491257
20
0.688381
11
0.49138
21
0.688498
0
LINE
8
BLACK
6
CONTINUOUS
10
0.49138
20
0.688498
11
0.492235
21
0.688554
0
LINE
8
BLACK
6
CONTINUOUS
10
0.492235
20
0.688554
11
0.493079
21
0.688702
0
LINE
8
BLACK
6
CONTINUOUS
10
0.493079
20
0.688702
11
0.493226
21
0.688618
0
LINE
8
BLACK
6
CONTINUOUS
10
0.545447
20
0.687693
11
0.546138
21
0.685795
0
LINE
8
BLACK
6
CONTINUOUS
10
0.546138
20
0.685795
11
0.546138
21
0.653924
0
LINE
8
BLACK
6
CONTINUOUS
10
0.546138
20
0.653924
11
0.54596
21
0.652914
0
LINE
8
BLACK
6
CONTINUOUS
10
0.54596
20
0.652914
11
0.545846
21
0.652778
0
LINE
8
BLACK
6
CONTINUOUS
10
0.545846
20
0.652778
11
0.545826
21
0.652603
0
LINE
8
BLACK
6
CONTINUOUS
10
0.545826
20
0.652603
11
0.543951
21
0.648854
0
LINE
8
BLACK
6
CONTINUOUS
10
0.543951
20
0.648854
11
0.543426
21
0.648144
0
LINE
8
BLACK
6
CONTINUOUS
10
0.543426
20
0.648144
11
0.543398
21
0.648086
0
LINE
8
BLACK
6
CONTINUOUS
10
0.543398
20
0.648086
11
0.541524
21
0.646211
0
LINE
8
BLACK
6
CONTINUOUS
10
0.541524
20
0.646211
11
0.5408
21
0.645705
0
LINE
8
BLACK
6
CONTINUOUS
10
0.5408
20
0.645705
11
0.540756
21
0.645658
0
LINE
8
BLACK
6
CONTINUOUS
10
0.540756
20
0.645658
11
0.537007
21
0.643783
0
LINE
8
BLACK
6
CONTINUOUS
10
0.537007
20
0.643783
11
0.536024
21
0.643491
0
LINE
8
BLACK
6
CONTINUOUS
10
0.536024
20
0.643491
11
0.535852
21
0.643532
0
LINE
8
BLACK
6
CONTINUOUS
10
0.535852
20
0.643532
11
0.535686
21
0.643472
0
LINE
8
BLACK
6
CONTINUOUS
10
0.535686
20
0.643472
11
0.528187
21
0.643472
0
LINE
8
BLACK
6
CONTINUOUS
10
0.528187
20
0.643472
11
0.527177
21
0.64365
0
LINE
8
BLACK
6
CONTINUOUS
10
0.527177
20
0.64365
11
0.527042
21
0.643763
0
LINE
8
BLACK
6
CONTINUOUS
10
0.527042
20
0.643763
11
0.526867
21
0.643783
0
LINE
8
BLACK
6
CONTINUOUS
10
0.526867
20
0.643783
11
0.523117
21
0.645658
0
LINE
8
BLACK
6
CONTINUOUS
10
0.523117
20
0.645658
11
0.522408
21
0.646184
0
LINE
8
BLACK
6
CONTINUOUS
10
0.522408
20
0.646184
11
0.52235
21
0.646211
0
LINE
8
BLACK
6
CONTINUOUS
10
0.52235
20
0.646211
11
0.520475
21
0.648086
0
LINE
8
BLACK
6
CONTINUOUS
10
0.520475
20
0.648086
11
0.519969
21
0.648809
0
LINE
8
BLACK
6
CONTINUOUS
10
0.519969
20
0.648809
11
0.519922
21
0.648854
0
LINE
8
BLACK
6
CONTINUOUS
10
0.519922
20
0.648854
11
0.518047
21
0.652603
0
LINE
8
BLACK
6
CONTINUOUS
10
0.518047
20
0.652603
11
0.517755
21
0.653586
0
LINE
8
BLACK
6
CONTINUOUS
10
0.517755
20
0.653586
11
0.517796
21
0.653758
0
LINE
8
BLACK
6
CONTINUOUS
10
0.517796
20
0.653758
11
0.517735
21
0.653924
0
LINE
8
BLACK
6
CONTINUOUS
10
0.517735
20
0.653924
11
0.517735
21
0.685795
0
LINE
8
BLACK
6
CONTINUOUS
10
0.517735
20
0.685795
11
0.517913
21
0.686804
0
LINE
8
BLACK
6
CONTINUOUS
10
0.517913
20
0.686804
11
0.519212
21
0.688352
0
LINE
8
BLACK
6
CONTINUOUS
10
0.519212
20
0.688352
11
0.521201
21
0.688702
0
LINE
8
BLACK
6
CONTINUOUS
10
0.521201
20
0.688702
11
0.52295
21
0.687693
0
LINE
8
BLACK
6
CONTINUOUS
10
0.52295
20
0.687693
11
0.523641
21
0.685795
0
LINE
8
BLACK
6
CONTINUOUS
10
0.523641
20
0.685795
11
0.523641
21
0.654621
0
LINE
8
BLACK
6
CONTINUOUS
10
0.523641
20
0.654621
11
0.52499
21
0.651923
0
LINE
8
BLACK
6
CONTINUOUS
10
0.52499
20
0.651923
11
0.526187
21
0.650726
0
LINE
8
BLACK
6
CONTINUOUS
10
0.526187
20
0.650726
11
0.528884
21
0.649377
0
LINE
8
BLACK
6
CONTINUOUS
10
0.528884
20
0.649377
11
0.534989
21
0.649377
0
LINE
8
BLACK
6
CONTINUOUS
10
0.534989
20
0.649377
11
0.537687
21
0.650726
0
LINE
8
BLACK
6
CONTINUOUS
10
0.537687
20
0.650726
11
0.538884
21
0.651923
0
LINE
8
BLACK
6
CONTINUOUS
10
0.538884
20
0.651923
11
0.540232
21
0.654621
0
LINE
8
BLACK
6
CONTINUOUS
10
0.540232
20
0.654621
11
0.540232
21
0.685795
0
LINE
8
BLACK
6
CONTINUOUS
10
0.540232
20
0.685795
11
0.540411
21
0.686804
0
LINE
8
BLACK
6
CONTINUOUS
10
0.540411
20
0.686804
11
0.541709
21
0.688352
0
LINE
8
BLACK
6
CONTINUOUS
10
0.541709
20
0.688352
11
0.543698
21
0.688702
0
LINE
8
BLACK
6
CONTINUOUS
10
0.543698
20
0.688702
11
0.545447
21
0.687693
0
LINE
8
BLACK
6
CONTINUOUS
10
0.75917
20
0.67667
11
0.759862
21
0.675
0
LINE
8
BLACK
6
CONTINUOUS
10
0.759862
20
0.675
11
0.75917
21
0.67333
0
LINE
8
BLACK
6
CONTINUOUS
10
0.75917
20
0.67333
11
0.7575
21
0.672638
0
LINE
8
BLACK
6
CONTINUOUS
10
0.7575
20
0.672638
11
0.7275
21
0.672638
0
LINE
8
BLACK
6
CONTINUOUS
10
0.7275
20
0.672638
11
0.72583
21
0.67333
0
LINE
8
BLACK
6
CONTINUOUS
10
0.72583
20
0.67333
11
0.725138
21
0.675
0
LINE
8
BLACK
6
CONTINUOUS
10
0.725138
20
0.675
11
0.72583
21
0.67667
0
LINE
8
BLACK
6
CONTINUOUS
10
0.72583
20
0.67667
11
0.7275
21
0.677362
0
LINE
8
BLACK
6
CONTINUOUS
10
0.7275
20
0.677362
11
0.7575
21
0.677362
0
LINE
8
BLACK
6
CONTINUOUS
10
0.7575
20
0.677362
11
0.75917
21
0.67667
0
LINE
8
BLACK
6
CONTINUOUS
10
0.89917
20
0.67667
11
0.899862
21
0.675
0
LINE
8
BLACK
6
CONTINUOUS
10
0.899862
20
0.675
11
0.89917
21
0.67333
0
LINE
8
BLACK
6
CONTINUOUS
10
0.89917
20
0.67333
11
0.8975
21
0.672638
0
LINE
8
BLACK
6
CONTINUOUS
10
0.8975
20
0.672638
11
0.8675
21
0.672638
0
LINE
8
BLACK
6
CONTINUOUS
10
0.8675
20
0.672638
11
0.86583
21
0.67333
0
LINE
8
BLACK
6
CONTINUOUS
10
0.86583
20
0.67333
11
0.865138
21
0.675
0
LINE
8
BLACK
6
CONTINUOUS
10
0.865138
20
0.675
11
0.86583
21
0.67667
0
LINE
8
BLACK
6
CONTINUOUS
10
0.86583
20
0.67667
11
0.8675
21
0.677362
0
LINE
8
BLACK
6
CONTINUOUS
10
0.8675
20
0.677362
11
0.8975
21
0.677362
0
LINE
8
BLACK
6
CONTINUOUS
10
0.8975
20
0.677362
11
0.89917
21
0.67667
0
LINE
8
BLACK
6
CONTINUOUS
10
1.03917
20
0.67667
11
1.03986
21
0.675
0
LINE
8
BLACK
6
CONTINUOUS
10
1.03986
20
0.675
11
1.03917
21
0.67333
0
LINE
8
BLACK
6
CONTINUOUS
10
1.03917
20
0.67333
11
1.0375
21
0.672638
0
LINE
8
BLACK
6
CONTINUOUS
10
1.0375
20
0.672638
11
1.0075
21
0.672638
0
LINE
8
BLACK
6
CONTINUOUS
10
1.0075
20
0.672638
11
1.00583
21
0.67333
0
LINE
8
BLACK
6
CONTINUOUS
10
1.00583
20
0.67333
11
1.00514
21
0.675
0
LINE
8
BLACK
6
CONTINUOUS
10
1.00514
20
0.675
11
1.00583
21
0.67667
0
LINE
8
BLACK
6
CONTINUOUS
10
1.00583
20
0.67667
11
1.0075
21
0.677362
0
LINE
8
BLACK
6
CONTINUOUS
10
1.0075
20
0.677362
11
1.0375
21
0.677362
0
LINE
8
BLACK
6
CONTINUOUS
10
1.0375
20
0.677362
11
1.03917
21
0.67667
0
LINE
8
BLACK
6
CONTINUOUS
10
0.655419
20
0.688621
11
0.656967
21
0.687323
0
LINE
8
BLACK
6
CONTINUOUS
10
0.656967
20
0.687323
11
0.657317
21
0.685334
0
LINE
8
BLACK
6
CONTINUOUS
10
0.657317
20
0.685334
11
0.656307
21
0.683585
0
LINE
8
BLACK
6
CONTINUOUS
10
0.656307
20
0.683585
11
0.654409
21
0.682894
0
LINE
8
BLACK
6
CONTINUOUS
10
0.654409
20
0.682894
11
0.594409
21
0.682894
0
LINE
8
BLACK
6
CONTINUOUS
10
0.594409
20
0.682894
11
0.5934
21
0.683072
0
LINE
8
BLACK
6
CONTINUOUS
10
0.5934
20
0.683072
11
0.591852
21
0.68437
0
LINE
8
BLACK
6
CONTINUOUS
10
0.591852
20
0.68437
11
0.591502
21
0.686359
0
LINE
8
BLACK
6
CONTINUOUS
10
0.591502
20
0.686359
11
0.592511
21
0.688108
0
LINE
8
BLACK
6
CONTINUOUS
10
0.592511
20
0.688108
11
0.594409
21
0.688799
0
LINE
8
BLACK
6
CONTINUOUS
10
0.594409
20
0.688799
11
0.654409
21
0.688799
0
LINE
8
BLACK
6
CONTINUOUS
10
0.654409
20
0.688799
11
0.655419
21
0.688621
0
LINE
8
BLACK
6
CONTINUOUS
10
0.179762
20
0.956898
11
0.180453
21
0.955
0
LINE
8
BLACK
6
CONTINUOUS
10
0.180453
20
0.955
11
0.180453
21
0.895
0
LINE
8
BLACK
6
CONTINUOUS
10
0.180453
20
0.895
11
0.180275
21
0.89399
0
LINE
8
BLACK
6
CONTINUOUS
10
0.180275
20
0.89399
11
0.178976
21
0.892443
0
LINE
8
BLACK
6
CONTINUOUS
10
0.178976
20
0.892443
11
0.176987
21
0.892092
0
LINE
8
BLACK
6
CONTINUOUS
10
0.176987
20
0.892092
11
0.175238
21
0.893102
0
LINE
8
BLACK
6
CONTINUOUS
10
0.175238
20
0.893102
11
0.174547
21
0.895
0
LINE
8
BLACK
6
CONTINUOUS
10
0.174547
20
0.895
11
0.174547
21
0.955
0
LINE
8
BLACK
6
CONTINUOUS
10
0.174547
20
0.955
11
0.174725
21
0.95601
0
LINE
8
BLACK
6
CONTINUOUS
10
0.174725
20
0.95601
11
0.176024
21
0.957557
0
LINE
8
BLACK
6
CONTINUOUS
10
0.176024
20
0.957557
11
0.178013
21
0.957908
0
LINE
8
BLACK
6
CONTINUOUS
10
0.178013
20
0.957908
11
0.179762
21
0.956898
0
LINE
8
BLACK
6
CONTINUOUS
10
0.299762
20
0.956898
11
0.300453
21
0.955
0
LINE
8
BLACK
6
CONTINUOUS
10
0.300453
20
0.955
11
0.300453
21
0.895
0
LINE
8
BLACK
6
CONTINUOUS
10
0.300453
20
0.895
11
0.300275
21
0.89399
0
LINE
8
BLACK
6
CONTINUOUS
10
0.300275
20
0.89399
11
0.298976
21
0.892443
0
LINE
8
BLACK
6
CONTINUOUS
10
0.298976
20
0.892443
11
0.296987
21
0.892092
0
LINE
8
BLACK
6
CONTINUOUS
10
0.296987
20
0.892092
11
0.295238
21
0.893102
0
LINE
8
BLACK
6
CONTINUOUS
10
0.295238
20
0.893102
11
0.294547
21
0.895
0
LINE
8
BLACK
6
CONTINUOUS
10
0.294547
20
0.895
11
0.294547
21
0.955
0
LINE
8
BLACK
6
CONTINUOUS
10
0.294547
20
0.955
11
0.294725
21
0.95601
0
LINE
8
BLACK
6
CONTINUOUS
10
0.294725
20
0.95601
11
0.296024
21
0.957557
0
LINE
8
BLACK
6
CONTINUOUS
10
0.296024
20
0.957557
11
0.298013
21
0.957908
0
LINE
8
BLACK
6
CONTINUOUS
10
0.298013
20
0.957908
11
0.299762
21
0.956898
0
LINE
8
BLACK
6
CONTINUOUS
10
0.25417
20
0.89667
11
0.254862
21
0.895
0
LINE
8
BLACK
6
CONTINUOUS
10
0.254862
20
0.895
11
0.25417
21
0.89333
0
LINE
8
BLACK
6
CONTINUOUS
10
0.25417
20
0.89333
11
0.2525
21
0.892638
0
LINE
8
BLACK
6
CONTINUOUS
10
0.2525
20
0.892638
11
0.2225
21
0.892638
0
LINE
8
BLACK
6
CONTINUOUS
10
0.2225
20
0.892638
11
0.22083
21
0.89333
0
LINE
8
BLACK
6
CONTINUOUS
10
0.22083
20
0.89333
11
0.220138
21
0.895
0
LINE
8
BLACK
6
CONTINUOUS
10
0.220138
20
0.895
11
0.22083
21
0.89667
0
LINE
8
BLACK
6
CONTINUOUS
10
0.22083
20
0.89667
11
0.2225
21
0.897362
0
LINE
8
BLACK
6
CONTINUOUS
10
0.2225
20
0.897362
11
0.2525
21
0.897362
0
LINE
8
BLACK
6
CONTINUOUS
10
0.2525
20
0.897362
11
0.25417
21
0.89667
0
LINE
8
BLACK
6
CONTINUOUS
10
0.25417
20
0.95667
11
0.254862
21
0.955
0
LINE
8
BLACK
6
CONTINUOUS
10
0.254862
20
0.955
11
0.25417
21
0.95333
0
LINE
8
BLACK
6
CONTINUOUS
10
0.25417
20
0.95333
11
0.2525
21
0.952638
0
LINE
8
BLACK
6
CONTINUOUS
10
0.2525
20
0.952638
11
0.2225
21
0.952638
0
LINE
8
BLACK
6
CONTINUOUS
10
0.2225
20
0.952638
11
0.22083
21
0.95333
0
LINE
8
BLACK
6
CONTINUOUS
10
0.22083
20
0.95333
11
0.220138
21
0.955
0
LINE
8
BLACK
6
CONTINUOUS
10
0.220138
20
0.955
11
0.22083
21
0.95667
0
LINE
8
BLACK
6
CONTINUOUS
10
0.22083
20
0.95667
11
0.2225
21
0.957362
0
LINE
8
BLACK
6
CONTINUOUS
10
0.2225
20
0.957362
11
0.2525
21
0.957362
0
LINE
8
BLACK
6
CONTINUOUS
10
0.2525
20
0.957362
11
0.25417
21
0.95667
0
CIRCLE
8
BLACK
10
0
20
0
40
0.00688976
0
CIRCLE
8
BLACK
10
0.41
20
0.345
40
0.00688976
0
CIRCLE
8
BLACK
10
0.41
20
0.443425
40
0.00688976
0
CIRCLE
8
BLACK
10
0.33126
20
0.443425
40
0.00688976
0
CIRCLE
8
BLACK
10
0.33126
20
0.345
40
0.00688976
0
CIRCLE
8
BLACK
10
0.224567
20
0.157205
40
0.00688976
0
CIRCLE
8
BLACK
10
0.224567
20
0.63122
40
0.00688976
0
CIRCLE
8
BLACK
10
1.2
20
0
40
0.00688976
0
CIRCLE
8
BLACK
10
0.8
20
-0.05
40
0.00688976
0
CIRCLE
8
BLACK
10
0.8
20
0.05
40
0.00688976
0
CIRCLE
8
BLACK
10
0.9
20
-0.05
40
0.00688976
0
CIRCLE
8
BLACK
10
0.9
20
0.05
40
0.00688976
0
CIRCLE
8
BLACK
10
1
20
-0.05
40
0.00688976
0
CIRCLE
8
BLACK
10
1
20
0.05
40
0.00688976
0
CIRCLE
8
BLACK
10
1.2
20
0.8
40
0.00688976
0
CIRCLE
8
BLACK
10
0
20
0.8
40
0.00688976
0
CIRCLE
8
BLACK
10
0.402165
20
0.750945
40
0.00688976
0
CIRCLE
8
BLACK
10
0.402165
20
0.850945
40
0.00688976
0
CIRCLE
8
BLACK
10
0.502165
20
0.750945
40
0.00688976
0
CIRCLE
8
BLACK
10
0.502165
20
0.850945
40
0.00688976
0
CIRCLE
8
BLACK
10
0.602165
20
0.750945
40
0.00688976
0
CIRCLE
8
BLACK
10
0.602165
20
0.850945
40
0.00688976
0
CIRCLE
8
BLACK
10
0.702165
20
0.750945
40
0.00688976
0
CIRCLE
8
BLACK
10
0.702165
20
0.850945
40
0.00688976
0
CIRCLE
8
BLACK
10
0.802165
20
0.750945
40
0.00688976
0
CIRCLE
8
BLACK
10
0.802165
20
0.850945
40
0.00688976
0
CIRCLE
8
BLACK
10
0.902165
20
0.750945
40
0.00688976
0
CIRCLE
8
BLACK
10
0.902165
20
0.850945
40
0.00688976
0
CIRCLE
8
BLACK
10
1.00217
20
0.750945
40
0.00688976
0
CIRCLE
8
BLACK
10
1.00217
20
0.850945
40
0.00688976
0
CIRCLE
8
BLACK
10
1.14941
20
0.600551
40
0.00688976
0
CIRCLE
8
BLACK
10
1.24941
20
0.600551
40
0.00688976
0
CIRCLE
8
BLACK
10
1.14941
20
0.500551
40
0.00688976
0
CIRCLE
8
BLACK
10
1.24941
20
0.500551
40
0.00688976
0
CIRCLE
8
BLACK
10
1.14941
20
0.400551
40
0.00688976
0
CIRCLE
8
BLACK
10
1.24941
20
0.400551
40
0.00688976
0
CIRCLE
8
BLACK
10
1.14941
20
0.300551
40
0.00688976
0
CIRCLE
8
BLACK
10
1.24941
20
0.300551
40
0.00688976
0
CIRCLE
8
BLACK
10
1.14941
20
0.200551
40
0.00688976
0
CIRCLE
8
BLACK
10
1.24941
20
0.200551
40
0.00688976
0
CIRCLE
8
BLACK
10
0.45
20
-0.05
40
0.00688976
0
CIRCLE
8
BLACK
10
0.45
20
0.05
40
0.00688976
0
CIRCLE
8
BLACK
10
0.55
20
-0.05
40
0.00688976
0
CIRCLE
8
BLACK
10
0.55
20
0.05
40
0.00688976
0
CIRCLE
8
BLACK
10
0.65
20
-0.05
40
0.00688976
0
CIRCLE
8
BLACK
10
0.65
20
0.05
40
0.00688976
  0
ENDSEC
  0
EOF
