  0
SECTION
  2
HEADER
  9
$ANGBASE
  50
0.0
  9
$ANGDIR
  70
1
  9
$MEASUREMENT
  70
0
  0
ENDSEC
  0
SECTION
  2
TABLES
  0
TABLE
  2
LTYPE
  70
4
  0
LTYPE
  5
40F
  2
CONTINUOUS
  70
0
  3
Solid line
  72
65
  73
0
  40
0.0
  0
LTYPE
  5
410
  2
DASHDOT
 70
0
  3
Dash Dot ____ _ ____ _
 72
65
 73
4
 40
2.0
 49
1.25
 49
-0.25
 49
0.25
 49
-0.25
  0
LTYPE
  5
411
  2
DASHED
 70
0
  3
Dashed __ __ __ __ __
 72
65
 73
2
 40
0.75
 49
0.5
 49
-0.25
  0
LTYPE
  5
43B
  2
DOTTED
 70
0
  3
Dotted .  .  .  .
 72
65
 73
2
 40
0.2
 49
0.0
 49
-0.2
  0
ENDTAB
  0
TABLE
  2
STYLE
  70
4
  0
STYLE
  2
KICAD
  70
0
  40
0
  41
1
  42
1
  50
0
  71
0
  3
isocp.shx
  0
STYLE
  2
KICADB
  70
0
  40
0
  41
1
  42
1
  50
0
  71
0
  3
isocp.shx
  0
STYLE
  2
KICADI
  70
0
  40
0
  41
1
  42
1
  50
15
  71
0
  3
isocp.shx
  0
STYLE
  2
KICADBI
  70
0
  40
0
  41
1
  42
1
  50
15
  71
0
  3
isocp.shx
  0
ENDTAB
  0
TABLE
  2
LAYER
  70
1
  0
LAYER
  2
BLACK
  70
0
  62
7
  6
CONTINUOUS
  0
ENDTAB
  0
ENDSEC
  0
SECTION
  2
ENTITIES
0
LINE
8
BLACK
6
CONTINUOUS
10
1.21492
20
0.125098
11
1.22877
21
0.122656
0
LINE
8
BLACK
6
CONTINUOUS
10
1.22877
20
0.122656
11
1.24226
21
0.118684
0
LINE
8
BLACK
6
CONTINUOUS
10
1.24226
20
0.118684
11
1.25523
21
0.113234
0
LINE
8
BLACK
6
CONTINUOUS
10
1.25523
20
0.113234
11
1.26751
21
0.106372
0
LINE
8
BLACK
6
CONTINUOUS
10
1.26751
20
0.106372
11
1.27894
21
0.0981843
0
LINE
8
BLACK
6
CONTINUOUS
10
1.27894
20
0.0981843
11
1.28939
21
0.0887728
0
LINE
8
BLACK
6
CONTINUOUS
10
1.28939
20
0.0887728
11
1.29873
21
0.0782548
0
LINE
8
BLACK
6
CONTINUOUS
10
1.29873
20
0.0782548
11
1.30684
21
0.0667615
0
LINE
8
BLACK
6
CONTINUOUS
10
1.30684
20
0.0667615
11
1.31362
21
0.054436
0
LINE
8
BLACK
6
CONTINUOUS
10
1.31362
20
0.054436
11
1.31898
21
0.041432
0
LINE
8
BLACK
6
CONTINUOUS
10
1.31898
20
0.041432
11
1.32285
21
0.0279116
0
LINE
8
BLACK
6
CONTINUOUS
10
1.32285
20
0.0279116
11
1.3252
21
0.0140433
0
LINE
8
BLACK
6
CONTINUOUS
10
1.3252
20
0.0140433
11
1.32598
21
0
0
LINE
8
BLACK
6
CONTINUOUS
10
1.32598
20
0
11
1.32594
21
-0.00351768
0
LINE
8
BLACK
6
CONTINUOUS
10
1.32594
20
-0.00351768
11
1.32476
21
-0.0175336
0
LINE
8
BLACK
6
CONTINUOUS
10
1.32476
20
-0.0175336
11
1.32203
21
-0.031331
0
LINE
8
BLACK
6
CONTINUOUS
10
1.32203
20
-0.031331
11
1.31777
21
-0.0447379
0
LINE
8
BLACK
6
CONTINUOUS
10
1.31777
20
-0.0447379
11
1.31205
21
-0.0575871
0
LINE
8
BLACK
6
CONTINUOUS
10
1.31205
20
-0.0575871
11
1.30493
21
-0.0697186
0
LINE
8
BLACK
6
CONTINUOUS
10
1.30493
20
-0.0697186
11
1.29651
21
-0.0809811
0
LINE
8
BLACK
6
CONTINUOUS
10
1.29651
20
-0.0809811
11
1.28688
21
-0.0912343
0
LINE
8
BLACK
6
CONTINUOUS
10
1.28688
20
-0.0912343
11
1.27617
21
-0.10035
0
LINE
8
BLACK
6
CONTINUOUS
10
1.27617
20
-0.10035
11
1.26451
21
-0.108215
0
LINE
8
BLACK
6
CONTINUOUS
10
1.26451
20
-0.108215
11
1.25204
21
-0.114732
0
LINE
8
BLACK
6
CONTINUOUS
10
1.25204
20
-0.114732
11
1.23893
21
-0.119818
0
LINE
8
BLACK
6
CONTINUOUS
10
1.23893
20
-0.119818
11
1.22533
21
-0.123411
0
LINE
8
BLACK
6
CONTINUOUS
10
1.22533
20
-0.123411
11
1.21142
21
-0.125466
0
LINE
8
BLACK
6
CONTINUOUS
10
1.21142
20
-0.125466
11
1.19736
21
-0.125957
0
LINE
8
BLACK
6
CONTINUOUS
10
1.19736
20
-0.125957
11
1.18334
21
-0.124878
0
LINE
8
BLACK
6
CONTINUOUS
10
1.18334
20
-0.124878
11
1.16952
21
-0.122242
0
LINE
8
BLACK
6
CONTINUOUS
10
1.16952
20
-0.122242
11
1.15609
21
-0.118083
0
LINE
8
BLACK
6
CONTINUOUS
10
1.15609
20
-0.118083
11
1.1432
21
-0.112452
0
LINE
8
BLACK
6
CONTINUOUS
10
1.1432
20
-0.112452
11
1.13102
21
-0.105419
0
LINE
8
BLACK
6
CONTINUOUS
10
1.13102
20
-0.105419
11
1.11969
21
-0.0970725
0
LINE
8
BLACK
6
CONTINUOUS
10
1.11969
20
-0.0970725
11
1.10937
21
-0.087516
0
LINE
8
BLACK
6
CONTINUOUS
10
1.10937
20
-0.087516
11
1.10018
21
-0.0768687
0
LINE
8
BLACK
6
CONTINUOUS
10
1.10018
20
-0.0768687
11
1.09224
21
-0.0652632
0
LINE
8
BLACK
6
CONTINUOUS
10
1.09224
20
-0.0652632
11
1.08563
21
-0.0528444
0
LINE
8
BLACK
6
CONTINUOUS
10
1.08563
20
-0.0528444
11
1.08046
21
-0.0397668
0
LINE
8
BLACK
6
CONTINUOUS
10
1.08046
20
-0.0397668
11
1.07677
21
-0.0261936
0
LINE
8
BLACK
6
CONTINUOUS
10
1.07677
20
-0.0261936
11
1.07462
21
-0.0122939
0
LINE
8
BLACK
6
CONTINUOUS
10
1.07462
20
-0.0122939
11
1.07403
21
0.00175902
0
LINE
8
BLACK
6
CONTINUOUS
10
1.07403
20
0.00175902
11
1.07501
21
0.01579
0
LINE
8
BLACK
6
CONTINUOUS
10
1.07501
20
0.01579
11
1.07755
21
0.0296242
0
LINE
8
BLACK
6
CONTINUOUS
10
1.07755
20
0.0296242
11
1.08161
21
0.0430891
0
LINE
8
BLACK
6
CONTINUOUS
10
1.08161
20
0.0430891
11
1.08715
21
0.056017
0
LINE
8
BLACK
6
CONTINUOUS
10
1.08715
20
0.056017
11
1.0941
21
0.0682467
0
LINE
8
BLACK
6
CONTINUOUS
10
1.0941
20
0.0682467
11
1.10237
21
0.0796257
0
LINE
8
BLACK
6
CONTINUOUS
10
1.10237
20
0.0796257
11
1.11185
21
0.0900123
0
LINE
8
BLACK
6
CONTINUOUS
10
1.11185
20
0.0900123
11
1.12244
21
0.0992769
0
LINE
8
BLACK
6
CONTINUOUS
10
1.12244
20
0.0992769
11
1.13399
21
0.107304
0
LINE
8
BLACK
6
CONTINUOUS
10
1.13399
20
0.107304
11
1.14636
21
0.113994
0
LINE
8
BLACK
6
CONTINUOUS
10
1.14636
20
0.113994
11
1.1594
21
0.119263
0
LINE
8
BLACK
6
CONTINUOUS
10
1.1594
20
0.119263
11
1.17295
21
0.123045
0
LINE
8
BLACK
6
CONTINUOUS
10
1.17295
20
0.123045
11
1.18683
21
0.125294
0
LINE
8
BLACK
6
CONTINUOUS
10
1.18683
20
0.125294
11
1.20088
21
0.125981
0
LINE
8
BLACK
6
CONTINUOUS
10
1.20088
20
0.125981
11
1.21492
21
0.125098
0
LINE
8
BLACK
6
CONTINUOUS
10
0.014917
20
0.125098
11
0.0287686
21
0.122656
0
LINE
8
BLACK
6
CONTINUOUS
10
0.0287686
20
0.122656
11
0.0422616
21
0.118684
0
LINE
8
BLACK
6
CONTINUOUS
10
0.0422616
20
0.118684
11
0.0552279
21
0.113234
0
LINE
8
BLACK
6
CONTINUOUS
10
0.0552279
20
0.113234
11
0.0675057
21
0.106372
0
LINE
8
BLACK
6
CONTINUOUS
10
0.0675057
20
0.106372
11
0.0789422
21
0.0981843
0
LINE
8
BLACK
6
CONTINUOUS
10
0.0789422
20
0.0981843
11
0.0893947
21
0.0887728
0
LINE
8
BLACK
6
CONTINUOUS
10
0.0893947
20
0.0887728
11
0.098733
21
0.0782548
0
LINE
8
BLACK
6
CONTINUOUS
10
0.098733
20
0.0782548
11
0.106841
21
0.0667615
0
LINE
8
BLACK
6
CONTINUOUS
10
0.106841
20
0.0667615
11
0.113617
21
0.054436
0
LINE
8
BLACK
6
CONTINUOUS
10
0.113617
20
0.054436
11
0.118977
21
0.041432
0
LINE
8
BLACK
6
CONTINUOUS
10
0.118977
20
0.041432
11
0.122853
21
0.0279116
0
LINE
8
BLACK
6
CONTINUOUS
10
0.122853
20
0.0279116
11
0.125199
21
0.0140433
0
LINE
8
BLACK
6
CONTINUOUS
10
0.125199
20
0.0140433
11
0.125984
21
0
0
LINE
8
BLACK
6
CONTINUOUS
10
0.125984
20
0
11
0.125935
21
-0.00351768
0
LINE
8
BLACK
6
CONTINUOUS
10
0.125935
20
-0.00351768
11
0.124758
21
-0.0175336
0
LINE
8
BLACK
6
CONTINUOUS
10
0.124758
20
-0.0175336
11
0.122026
21
-0.031331
0
LINE
8
BLACK
6
CONTINUOUS
10
0.122026
20
-0.031331
11
0.117773
21
-0.0447379
0
LINE
8
BLACK
6
CONTINUOUS
10
0.117773
20
-0.0447379
11
0.112052
21
-0.0575871
0
LINE
8
BLACK
6
CONTINUOUS
10
0.112052
20
-0.0575871
11
0.104935
21
-0.0697186
0
LINE
8
BLACK
6
CONTINUOUS
10
0.104935
20
-0.0697186
11
0.0965095
21
-0.0809811
0
LINE
8
BLACK
6
CONTINUOUS
10
0.0965095
20
-0.0809811
11
0.0868812
21
-0.0912343
0
LINE
8
BLACK
6
CONTINUOUS
10
0.0868812
20
-0.0912343
11
0.07617
21
-0.10035
0
LINE
8
BLACK
6
CONTINUOUS
10
0.07617
20
-0.10035
11
0.0645093
21
-0.108215
0
LINE
8
BLACK
6
CONTINUOUS
10
0.0645093
20
-0.108215
11
0.0520446
21
-0.114732
0
LINE
8
BLACK
6
CONTINUOUS
10
0.0520446
20
-0.114732
11
0.0389313
21
-0.119818
0
LINE
8
BLACK
6
CONTINUOUS
10
0.0389313
20
-0.119818
11
0.0253326
21
-0.123411
0
LINE
8
BLACK
6
CONTINUOUS
10
0.0253326
20
-0.123411
11
0.0114183
21
-0.125466
0
LINE
8
BLACK
6
CONTINUOUS
10
0.0114183
20
-0.125466
11
-0.00263843
21
-0.125957
0
LINE
8
BLACK
6
CONTINUOUS
10
-0.00263843
20
-0.125957
11
-0.0166622
21
-0.124878
0
LINE
8
BLACK
6
CONTINUOUS
10
-0.0166622
20
-0.124878
11
-0.0304783
21
-0.122242
0
LINE
8
BLACK
6
CONTINUOUS
10
-0.0304783
20
-0.122242
11
-0.0439146
21
-0.118083
0
LINE
8
BLACK
6
CONTINUOUS
10
-0.0439146
20
-0.118083
11
-0.0568035
21
-0.112452
0
LINE
8
BLACK
6
CONTINUOUS
10
-0.0568035
20
-0.112452
11
-0.0689843
21
-0.105419
0
LINE
8
BLACK
6
CONTINUOUS
10
-0.0689843
20
-0.105419
11
-0.0803054
21
-0.0970725
0
LINE
8
BLACK
6
CONTINUOUS
10
-0.0803054
20
-0.0970725
11
-0.0906255
21
-0.087516
0
LINE
8
BLACK
6
CONTINUOUS
10
-0.0906255
20
-0.087516
11
-0.099816
21
-0.0768687
0
LINE
8
BLACK
6
CONTINUOUS
10
-0.099816
20
-0.0768687
11
-0.107762
21
-0.0652632
0
LINE
8
BLACK
6
CONTINUOUS
10
-0.107762
20
-0.0652632
11
-0.114366
21
-0.0528444
0
LINE
8
BLACK
6
CONTINUOUS
10
-0.114366
20
-0.0528444
11
-0.119543
21
-0.0397668
0
LINE
8
BLACK
6
CONTINUOUS
10
-0.119543
20
-0.0397668
11
-0.123231
21
-0.0261936
0
LINE
8
BLACK
6
CONTINUOUS
10
-0.123231
20
-0.0261936
11
-0.125383
21
-0.0122939
0
LINE
8
BLACK
6
CONTINUOUS
10
-0.125383
20
-0.0122939
11
-0.125972
21
0.00175902
0
LINE
8
BLACK
6
CONTINUOUS
10
-0.125972
20
0.00175902
11
-0.124991
21
0.01579
0
LINE
8
BLACK
6
CONTINUOUS
10
-0.124991
20
0.01579
11
-0.122452
21
0.0296242
0
LINE
8
BLACK
6
CONTINUOUS
10
-0.122452
20
0.0296242
11
-0.118386
21
0.0430891
0
LINE
8
BLACK
6
CONTINUOUS
10
-0.118386
20
0.0430891
11
-0.112846
21
0.056017
0
LINE
8
BLACK
6
CONTINUOUS
10
-0.112846
20
0.056017
11
-0.105898
21
0.0682467
0
LINE
8
BLACK
6
CONTINUOUS
10
-0.105898
20
0.0682467
11
-0.0976308
21
0.0796257
0
LINE
8
BLACK
6
CONTINUOUS
10
-0.0976308
20
0.0796257
11
-0.0881466
21
0.0900123
0
LINE
8
BLACK
6
CONTINUOUS
10
-0.0881466
20
0.0900123
11
-0.0775637
21
0.0992769
0
LINE
8
BLACK
6
CONTINUOUS
10
-0.0775637
20
0.0992769
11
-0.066014
21
0.107304
0
LINE
8
BLACK
6
CONTINUOUS
10
-0.066014
20
0.107304
11
-0.0536415
21
0.113994
0
LINE
8
BLACK
6
CONTINUOUS
10
-0.0536415
20
0.113994
11
-0.0406004
21
0.119263
0
LINE
8
BLACK
6
CONTINUOUS
10
-0.0406004
20
0.119263
11
-0.0270533
21
0.123045
0
LINE
8
BLACK
6
CONTINUOUS
10
-0.0270533
20
0.123045
11
-0.0131689
21
0.125294
0
LINE
8
BLACK
6
CONTINUOUS
10
-0.0131689
20
0.125294
11
0.000879528
21
0.125981
0
LINE
8
BLACK
6
CONTINUOUS
10
0.000879528
20
0.125981
11
0.014917
21
0.125098
0
LINE
8
BLACK
6
CONTINUOUS
10
1.03301
20
-0.0127254
11
1.03557
21
-0.0144322
0
LINE
8
BLACK
6
CONTINUOUS
10
1.03557
20
-0.0144322
11
1.03727
21
-0.0169867
0
LINE
8
BLACK
6
CONTINUOUS
10
1.03727
20
-0.0169867
11
1.03787
21
-0.02
0
LINE
8
BLACK
6
CONTINUOUS
10
1.03787
20
-0.02
11
1.03787
21
-0.08
0
LINE
8
BLACK
6
CONTINUOUS
10
1.03787
20
-0.08
11
1.03727
21
-0.0830133
0
LINE
8
BLACK
6
CONTINUOUS
10
1.03727
20
-0.0830133
11
1.03557
21
-0.0855678
0
LINE
8
BLACK
6
CONTINUOUS
10
1.03557
20
-0.0855678
11
1.03301
21
-0.0872746
0
LINE
8
BLACK
6
CONTINUOUS
10
1.03301
20
-0.0872746
11
1.03
21
-0.087874
0
LINE
8
BLACK
6
CONTINUOUS
10
1.03
20
-0.087874
11
0.97
21
-0.087874
0
LINE
8
BLACK
6
CONTINUOUS
10
0.97
20
-0.087874
11
0.966987
21
-0.0872746
0
LINE
8
BLACK
6
CONTINUOUS
10
0.966987
20
-0.0872746
11
0.964432
21
-0.0855678
0
LINE
8
BLACK
6
CONTINUOUS
10
0.964432
20
-0.0855678
11
0.962725
21
-0.0830133
0
LINE
8
BLACK
6
CONTINUOUS
10
0.962725
20
-0.0830133
11
0.962126
21
-0.08
0
LINE
8
BLACK
6
CONTINUOUS
10
0.962126
20
-0.08
11
0.962126
21
-0.02
0
LINE
8
BLACK
6
CONTINUOUS
10
0.962126
20
-0.02
11
0.962725
21
-0.0169867
0
LINE
8
BLACK
6
CONTINUOUS
10
0.962725
20
-0.0169867
11
0.964432
21
-0.0144322
0
LINE
8
BLACK
6
CONTINUOUS
10
0.964432
20
-0.0144322
11
0.966987
21
-0.0127254
0
LINE
8
BLACK
6
CONTINUOUS
10
0.966987
20
-0.0127254
11
0.97
21
-0.012126
0
LINE
8
BLACK
6
CONTINUOUS
10
0.97
20
-0.012126
11
1.03
21
-0.012126
0
LINE
8
BLACK
6
CONTINUOUS
10
1.03
20
-0.012126
11
1.03301
21
-0.0127254
0
LINE
8
BLACK
6
CONTINUOUS
10
0.483013
20
-0.0127254
11
0.485568
21
-0.0144322
0
LINE
8
BLACK
6
CONTINUOUS
10
0.485568
20
-0.0144322
11
0.487275
21
-0.0169867
0
LINE
8
BLACK
6
CONTINUOUS
10
0.487275
20
-0.0169867
11
0.487874
21
-0.02
0
LINE
8
BLACK
6
CONTINUOUS
10
0.487874
20
-0.02
11
0.487874
21
-0.08
0
LINE
8
BLACK
6
CONTINUOUS
10
0.487874
20
-0.08
11
0.487275
21
-0.0830133
0
LINE
8
BLACK
6
CONTINUOUS
10
0.487275
20
-0.0830133
11
0.485568
21
-0.0855678
0
LINE
8
BLACK
6
CONTINUOUS
10
0.485568
20
-0.0855678
11
0.483013
21
-0.0872746
0
LINE
8
BLACK
6
CONTINUOUS
10
0.483013
20
-0.0872746
11
0.48
21
-0.087874
0
LINE
8
BLACK
6
CONTINUOUS
10
0.48
20
-0.087874
11
0.42
21
-0.087874
0
LINE
8
BLACK
6
CONTINUOUS
10
0.42
20
-0.087874
11
0.416987
21
-0.0872746
0
LINE
8
BLACK
6
CONTINUOUS
10
0.416987
20
-0.0872746
11
0.414432
21
-0.0855678
0
LINE
8
BLACK
6
CONTINUOUS
10
0.414432
20
-0.0855678
11
0.412725
21
-0.0830133
0
LINE
8
BLACK
6
CONTINUOUS
10
0.412725
20
-0.0830133
11
0.412126
21
-0.08
0
LINE
8
BLACK
6
CONTINUOUS
10
0.412126
20
-0.08
11
0.412126
21
-0.02
0
LINE
8
BLACK
6
CONTINUOUS
10
0.412126
20
-0.02
11
0.412725
21
-0.0169867
0
LINE
8
BLACK
6
CONTINUOUS
10
0.412725
20
-0.0169867
11
0.414432
21
-0.0144322
0
LINE
8
BLACK
6
CONTINUOUS
10
0.414432
20
-0.0144322
11
0.416987
21
-0.0127254
0
LINE
8
BLACK
6
CONTINUOUS
10
0.416987
20
-0.0127254
11
0.42
21
-0.012126
0
LINE
8
BLACK
6
CONTINUOUS
10
0.42
20
-0.012126
11
0.48
21
-0.012126
0
LINE
8
BLACK
6
CONTINUOUS
10
0.48
20
-0.012126
11
0.483013
21
-0.0127254
0
LINE
8
BLACK
6
CONTINUOUS
10
0.933013
20
-0.0127254
11
0.935568
21
-0.0144322
0
LINE
8
BLACK
6
CONTINUOUS
10
0.935568
20
-0.0144322
11
0.937275
21
-0.0169867
0
LINE
8
BLACK
6
CONTINUOUS
10
0.937275
20
-0.0169867
11
0.937874
21
-0.02
0
LINE
8
BLACK
6
CONTINUOUS
10
0.937874
20
-0.02
11
0.937874
21
-0.08
0
LINE
8
BLACK
6
CONTINUOUS
10
0.937874
20
-0.08
11
0.937275
21
-0.0830133
0
LINE
8
BLACK
6
CONTINUOUS
10
0.937275
20
-0.0830133
11
0.935568
21
-0.0855678
0
LINE
8
BLACK
6
CONTINUOUS
10
0.935568
20
-0.0855678
11
0.933013
21
-0.0872746
0
LINE
8
BLACK
6
CONTINUOUS
10
0.933013
20
-0.0872746
11
0.93
21
-0.087874
0
LINE
8
BLACK
6
CONTINUOUS
10
0.93
20
-0.087874
11
0.87
21
-0.087874
0
LINE
8
BLACK
6
CONTINUOUS
10
0.87
20
-0.087874
11
0.866987
21
-0.0872746
0
LINE
8
BLACK
6
CONTINUOUS
10
0.866987
20
-0.0872746
11
0.864432
21
-0.0855678
0
LINE
8
BLACK
6
CONTINUOUS
10
0.864432
20
-0.0855678
11
0.862725
21
-0.0830133
0
LINE
8
BLACK
6
CONTINUOUS
10
0.862725
20
-0.0830133
11
0.862126
21
-0.08
0
LINE
8
BLACK
6
CONTINUOUS
10
0.862126
20
-0.08
11
0.862126
21
-0.02
0
LINE
8
BLACK
6
CONTINUOUS
10
0.862126
20
-0.02
11
0.862725
21
-0.0169867
0
LINE
8
BLACK
6
CONTINUOUS
10
0.862725
20
-0.0169867
11
0.864432
21
-0.0144322
0
LINE
8
BLACK
6
CONTINUOUS
10
0.864432
20
-0.0144322
11
0.866987
21
-0.0127254
0
LINE
8
BLACK
6
CONTINUOUS
10
0.866987
20
-0.0127254
11
0.87
21
-0.012126
0
LINE
8
BLACK
6
CONTINUOUS
10
0.87
20
-0.012126
11
0.93
21
-0.012126
0
LINE
8
BLACK
6
CONTINUOUS
10
0.93
20
-0.012126
11
0.933013
21
-0.0127254
0
LINE
8
BLACK
6
CONTINUOUS
10
0.833013
20
-0.0127254
11
0.835568
21
-0.0144322
0
LINE
8
BLACK
6
CONTINUOUS
10
0.835568
20
-0.0144322
11
0.837275
21
-0.0169867
0
LINE
8
BLACK
6
CONTINUOUS
10
0.837275
20
-0.0169867
11
0.837874
21
-0.02
0
LINE
8
BLACK
6
CONTINUOUS
10
0.837874
20
-0.02
11
0.837874
21
-0.08
0
LINE
8
BLACK
6
CONTINUOUS
10
0.837874
20
-0.08
11
0.837275
21
-0.0830133
0
LINE
8
BLACK
6
CONTINUOUS
10
0.837275
20
-0.0830133
11
0.835568
21
-0.0855678
0
LINE
8
BLACK
6
CONTINUOUS
10
0.835568
20
-0.0855678
11
0.833013
21
-0.0872746
0
LINE
8
BLACK
6
CONTINUOUS
10
0.833013
20
-0.0872746
11
0.83
21
-0.087874
0
LINE
8
BLACK
6
CONTINUOUS
10
0.83
20
-0.087874
11
0.77
21
-0.087874
0
LINE
8
BLACK
6
CONTINUOUS
10
0.77
20
-0.087874
11
0.766987
21
-0.0872746
0
LINE
8
BLACK
6
CONTINUOUS
10
0.766987
20
-0.0872746
11
0.764432
21
-0.0855678
0
LINE
8
BLACK
6
CONTINUOUS
10
0.764432
20
-0.0855678
11
0.762725
21
-0.0830133
0
LINE
8
BLACK
6
CONTINUOUS
10
0.762725
20
-0.0830133
11
0.762126
21
-0.08
0
LINE
8
BLACK
6
CONTINUOUS
10
0.762126
20
-0.08
11
0.762126
21
-0.02
0
LINE
8
BLACK
6
CONTINUOUS
10
0.762126
20
-0.02
11
0.762725
21
-0.0169867
0
LINE
8
BLACK
6
CONTINUOUS
10
0.762725
20
-0.0169867
11
0.764432
21
-0.0144322
0
LINE
8
BLACK
6
CONTINUOUS
10
0.764432
20
-0.0144322
11
0.766987
21
-0.0127254
0
LINE
8
BLACK
6
CONTINUOUS
10
0.766987
20
-0.0127254
11
0.77
21
-0.012126
0
LINE
8
BLACK
6
CONTINUOUS
10
0.77
20
-0.012126
11
0.83
21
-0.012126
0
LINE
8
BLACK
6
CONTINUOUS
10
0.83
20
-0.012126
11
0.833013
21
-0.0127254
0
LINE
8
BLACK
6
CONTINUOUS
10
0.683013
20
-0.0127254
11
0.685568
21
-0.0144322
0
LINE
8
BLACK
6
CONTINUOUS
10
0.685568
20
-0.0144322
11
0.687275
21
-0.0169867
0
LINE
8
BLACK
6
CONTINUOUS
10
0.687275
20
-0.0169867
11
0.687874
21
-0.02
0
LINE
8
BLACK
6
CONTINUOUS
10
0.687874
20
-0.02
11
0.687874
21
-0.08
0
LINE
8
BLACK
6
CONTINUOUS
10
0.687874
20
-0.08
11
0.687275
21
-0.0830133
0
LINE
8
BLACK
6
CONTINUOUS
10
0.687275
20
-0.0830133
11
0.685568
21
-0.0855678
0
LINE
8
BLACK
6
CONTINUOUS
10
0.685568
20
-0.0855678
11
0.683013
21
-0.0872746
0
LINE
8
BLACK
6
CONTINUOUS
10
0.683013
20
-0.0872746
11
0.68
21
-0.087874
0
LINE
8
BLACK
6
CONTINUOUS
10
0.68
20
-0.087874
11
0.62
21
-0.087874
0
LINE
8
BLACK
6
CONTINUOUS
10
0.62
20
-0.087874
11
0.616987
21
-0.0872746
0
LINE
8
BLACK
6
CONTINUOUS
10
0.616987
20
-0.0872746
11
0.614432
21
-0.0855678
0
LINE
8
BLACK
6
CONTINUOUS
10
0.614432
20
-0.0855678
11
0.612725
21
-0.0830133
0
LINE
8
BLACK
6
CONTINUOUS
10
0.612725
20
-0.0830133
11
0.612126
21
-0.08
0
LINE
8
BLACK
6
CONTINUOUS
10
0.612126
20
-0.08
11
0.612126
21
-0.02
0
LINE
8
BLACK
6
CONTINUOUS
10
0.612126
20
-0.02
11
0.612725
21
-0.0169867
0
LINE
8
BLACK
6
CONTINUOUS
10
0.612725
20
-0.0169867
11
0.614432
21
-0.0144322
0
LINE
8
BLACK
6
CONTINUOUS
10
0.614432
20
-0.0144322
11
0.616987
21
-0.0127254
0
LINE
8
BLACK
6
CONTINUOUS
10
0.616987
20
-0.0127254
11
0.62
21
-0.012126
0
LINE
8
BLACK
6
CONTINUOUS
10
0.62
20
-0.012126
11
0.68
21
-0.012126
0
LINE
8
BLACK
6
CONTINUOUS
10
0.68
20
-0.012126
11
0.683013
21
-0.0127254
0
LINE
8
BLACK
6
CONTINUOUS
10
0.583013
20
-0.0127254
11
0.585568
21
-0.0144322
0
LINE
8
BLACK
6
CONTINUOUS
10
0.585568
20
-0.0144322
11
0.587275
21
-0.0169867
0
LINE
8
BLACK
6
CONTINUOUS
10
0.587275
20
-0.0169867
11
0.587874
21
-0.02
0
LINE
8
BLACK
6
CONTINUOUS
10
0.587874
20
-0.02
11
0.587874
21
-0.08
0
LINE
8
BLACK
6
CONTINUOUS
10
0.587874
20
-0.08
11
0.587275
21
-0.0830133
0
LINE
8
BLACK
6
CONTINUOUS
10
0.587275
20
-0.0830133
11
0.585568
21
-0.0855678
0
LINE
8
BLACK
6
CONTINUOUS
10
0.585568
20
-0.0855678
11
0.583013
21
-0.0872746
0
LINE
8
BLACK
6
CONTINUOUS
10
0.583013
20
-0.0872746
11
0.58
21
-0.087874
0
LINE
8
BLACK
6
CONTINUOUS
10
0.58
20
-0.087874
11
0.52
21
-0.087874
0
LINE
8
BLACK
6
CONTINUOUS
10
0.52
20
-0.087874
11
0.516987
21
-0.0872746
0
LINE
8
BLACK
6
CONTINUOUS
10
0.516987
20
-0.0872746
11
0.514432
21
-0.0855678
0
LINE
8
BLACK
6
CONTINUOUS
10
0.514432
20
-0.0855678
11
0.512725
21
-0.0830133
0
LINE
8
BLACK
6
CONTINUOUS
10
0.512725
20
-0.0830133
11
0.512126
21
-0.08
0
LINE
8
BLACK
6
CONTINUOUS
10
0.512126
20
-0.08
11
0.512126
21
-0.02
0
LINE
8
BLACK
6
CONTINUOUS
10
0.512126
20
-0.02
11
0.512725
21
-0.0169867
0
LINE
8
BLACK
6
CONTINUOUS
10
0.512725
20
-0.0169867
11
0.514432
21
-0.0144322
0
LINE
8
BLACK
6
CONTINUOUS
10
0.514432
20
-0.0144322
11
0.516987
21
-0.0127254
0
LINE
8
BLACK
6
CONTINUOUS
10
0.516987
20
-0.0127254
11
0.52
21
-0.012126
0
LINE
8
BLACK
6
CONTINUOUS
10
0.52
20
-0.012126
11
0.58
21
-0.012126
0
LINE
8
BLACK
6
CONTINUOUS
10
0.58
20
-0.012126
11
0.583013
21
-0.0127254
0
LINE
8
BLACK
6
CONTINUOUS
10
0.259229
20
0.0523421
11
0.268178
21
0.0499443
0
LINE
8
BLACK
6
CONTINUOUS
10
0.268178
20
0.0499443
11
0.276575
21
0.0460289
0
LINE
8
BLACK
6
CONTINUOUS
10
0.276575
20
0.0460289
11
0.284164
21
0.040715
0
LINE
8
BLACK
6
CONTINUOUS
10
0.284164
20
0.040715
11
0.290715
21
0.0341639
0
LINE
8
BLACK
6
CONTINUOUS
10
0.290715
20
0.0341639
11
0.296029
21
0.0265748
0
LINE
8
BLACK
6
CONTINUOUS
10
0.296029
20
0.0265748
11
0.299944
21
0.0181782
0
LINE
8
BLACK
6
CONTINUOUS
10
0.299944
20
0.0181782
11
0.302342
21
0.00922933
0
LINE
8
BLACK
6
CONTINUOUS
10
0.302342
20
0.00922933
11
0.30315
21
0
0
LINE
8
BLACK
6
CONTINUOUS
10
0.30315
20
0
11
0.302342
21
-0.00922933
0
LINE
8
BLACK
6
CONTINUOUS
10
0.302342
20
-0.00922933
11
0.299944
21
-0.0181782
0
LINE
8
BLACK
6
CONTINUOUS
10
0.299944
20
-0.0181782
11
0.296029
21
-0.0265748
0
LINE
8
BLACK
6
CONTINUOUS
10
0.296029
20
-0.0265748
11
0.290715
21
-0.0341639
0
LINE
8
BLACK
6
CONTINUOUS
10
0.290715
20
-0.0341639
11
0.284164
21
-0.040715
0
LINE
8
BLACK
6
CONTINUOUS
10
0.284164
20
-0.040715
11
0.276575
21
-0.0460289
0
LINE
8
BLACK
6
CONTINUOUS
10
0.276575
20
-0.0460289
11
0.268178
21
-0.0499443
0
LINE
8
BLACK
6
CONTINUOUS
10
0.268178
20
-0.0499443
11
0.259229
21
-0.0523421
0
LINE
8
BLACK
6
CONTINUOUS
10
0.259229
20
-0.0523421
11
0.25
21
-0.0531496
0
LINE
8
BLACK
6
CONTINUOUS
10
0.25
20
-0.0531496
11
0.240771
21
-0.0523421
0
LINE
8
BLACK
6
CONTINUOUS
10
0.240771
20
-0.0523421
11
0.231822
21
-0.0499443
0
LINE
8
BLACK
6
CONTINUOUS
10
0.231822
20
-0.0499443
11
0.223425
21
-0.0460289
0
LINE
8
BLACK
6
CONTINUOUS
10
0.223425
20
-0.0460289
11
0.215836
21
-0.040715
0
LINE
8
BLACK
6
CONTINUOUS
10
0.215836
20
-0.040715
11
0.209285
21
-0.0341639
0
LINE
8
BLACK
6
CONTINUOUS
10
0.209285
20
-0.0341639
11
0.203971
21
-0.0265748
0
LINE
8
BLACK
6
CONTINUOUS
10
0.203971
20
-0.0265748
11
0.200056
21
-0.0181782
0
LINE
8
BLACK
6
CONTINUOUS
10
0.200056
20
-0.0181782
11
0.197658
21
-0.00922933
0
LINE
8
BLACK
6
CONTINUOUS
10
0.197658
20
-0.00922933
11
0.19685
21
0
0
LINE
8
BLACK
6
CONTINUOUS
10
0.19685
20
0
11
0.197658
21
0.00922933
0
LINE
8
BLACK
6
CONTINUOUS
10
0.197658
20
0.00922933
11
0.200056
21
0.0181782
0
LINE
8
BLACK
6
CONTINUOUS
10
0.200056
20
0.0181782
11
0.203971
21
0.0265748
0
LINE
8
BLACK
6
CONTINUOUS
10
0.203971
20
0.0265748
11
0.209285
21
0.0341639
0
LINE
8
BLACK
6
CONTINUOUS
10
0.209285
20
0.0341639
11
0.215836
21
0.040715
0
LINE
8
BLACK
6
CONTINUOUS
10
0.215836
20
0.040715
11
0.223425
21
0.0460289
0
LINE
8
BLACK
6
CONTINUOUS
10
0.223425
20
0.0460289
11
0.231822
21
0.0499443
0
LINE
8
BLACK
6
CONTINUOUS
10
0.231822
20
0.0499443
11
0.240771
21
0.0523421
0
LINE
8
BLACK
6
CONTINUOUS
10
0.240771
20
0.0523421
11
0.25
21
0.0531496
0
LINE
8
BLACK
6
CONTINUOUS
10
0.25
20
0.0531496
11
0.259229
21
0.0523421
0
LINE
8
BLACK
6
CONTINUOUS
10
1.03301
20
0.0872746
11
1.03557
21
0.0855678
0
LINE
8
BLACK
6
CONTINUOUS
10
1.03557
20
0.0855678
11
1.03727
21
0.0830133
0
LINE
8
BLACK
6
CONTINUOUS
10
1.03727
20
0.0830133
11
1.03787
21
0.08
0
LINE
8
BLACK
6
CONTINUOUS
10
1.03787
20
0.08
11
1.03787
21
0.02
0
LINE
8
BLACK
6
CONTINUOUS
10
1.03787
20
0.02
11
1.03727
21
0.0169867
0
LINE
8
BLACK
6
CONTINUOUS
10
1.03727
20
0.0169867
11
1.03557
21
0.0144322
0
LINE
8
BLACK
6
CONTINUOUS
10
1.03557
20
0.0144322
11
1.03301
21
0.0127254
0
LINE
8
BLACK
6
CONTINUOUS
10
1.03301
20
0.0127254
11
1.03
21
0.012126
0
LINE
8
BLACK
6
CONTINUOUS
10
1.03
20
0.012126
11
0.97
21
0.012126
0
LINE
8
BLACK
6
CONTINUOUS
10
0.97
20
0.012126
11
0.966987
21
0.0127254
0
LINE
8
BLACK
6
CONTINUOUS
10
0.966987
20
0.0127254
11
0.964432
21
0.0144322
0
LINE
8
BLACK
6
CONTINUOUS
10
0.964432
20
0.0144322
11
0.962725
21
0.0169867
0
LINE
8
BLACK
6
CONTINUOUS
10
0.962725
20
0.0169867
11
0.962126
21
0.02
0
LINE
8
BLACK
6
CONTINUOUS
10
0.962126
20
0.02
11
0.962126
21
0.08
0
LINE
8
BLACK
6
CONTINUOUS
10
0.962126
20
0.08
11
0.962725
21
0.0830133
0
LINE
8
BLACK
6
CONTINUOUS
10
0.962725
20
0.0830133
11
0.964432
21
0.0855678
0
LINE
8
BLACK
6
CONTINUOUS
10
0.964432
20
0.0855678
11
0.966987
21
0.0872746
0
LINE
8
BLACK
6
CONTINUOUS
10
0.966987
20
0.0872746
11
0.97
21
0.087874
0
LINE
8
BLACK
6
CONTINUOUS
10
0.97
20
0.087874
11
1.03
21
0.087874
0
LINE
8
BLACK
6
CONTINUOUS
10
1.03
20
0.087874
11
1.03301
21
0.0872746
0
LINE
8
BLACK
6
CONTINUOUS
10
0.933013
20
0.0872746
11
0.935568
21
0.0855678
0
LINE
8
BLACK
6
CONTINUOUS
10
0.935568
20
0.0855678
11
0.937275
21
0.0830133
0
LINE
8
BLACK
6
CONTINUOUS
10
0.937275
20
0.0830133
11
0.937874
21
0.08
0
LINE
8
BLACK
6
CONTINUOUS
10
0.937874
20
0.08
11
0.937874
21
0.02
0
LINE
8
BLACK
6
CONTINUOUS
10
0.937874
20
0.02
11
0.937275
21
0.0169867
0
LINE
8
BLACK
6
CONTINUOUS
10
0.937275
20
0.0169867
11
0.935568
21
0.0144322
0
LINE
8
BLACK
6
CONTINUOUS
10
0.935568
20
0.0144322
11
0.933013
21
0.0127254
0
LINE
8
BLACK
6
CONTINUOUS
10
0.933013
20
0.0127254
11
0.93
21
0.012126
0
LINE
8
BLACK
6
CONTINUOUS
10
0.93
20
0.012126
11
0.87
21
0.012126
0
LINE
8
BLACK
6
CONTINUOUS
10
0.87
20
0.012126
11
0.866987
21
0.0127254
0
LINE
8
BLACK
6
CONTINUOUS
10
0.866987
20
0.0127254
11
0.864432
21
0.0144322
0
LINE
8
BLACK
6
CONTINUOUS
10
0.864432
20
0.0144322
11
0.862725
21
0.0169867
0
LINE
8
BLACK
6
CONTINUOUS
10
0.862725
20
0.0169867
11
0.862126
21
0.02
0
LINE
8
BLACK
6
CONTINUOUS
10
0.862126
20
0.02
11
0.862126
21
0.08
0
LINE
8
BLACK
6
CONTINUOUS
10
0.862126
20
0.08
11
0.862725
21
0.0830133
0
LINE
8
BLACK
6
CONTINUOUS
10
0.862725
20
0.0830133
11
0.864432
21
0.0855678
0
LINE
8
BLACK
6
CONTINUOUS
10
0.864432
20
0.0855678
11
0.866987
21
0.0872746
0
LINE
8
BLACK
6
CONTINUOUS
10
0.866987
20
0.0872746
11
0.87
21
0.087874
0
LINE
8
BLACK
6
CONTINUOUS
10
0.87
20
0.087874
11
0.93
21
0.087874
0
LINE
8
BLACK
6
CONTINUOUS
10
0.93
20
0.087874
11
0.933013
21
0.0872746
0
LINE
8
BLACK
6
CONTINUOUS
10
0.833013
20
0.0872746
11
0.835568
21
0.0855678
0
LINE
8
BLACK
6
CONTINUOUS
10
0.835568
20
0.0855678
11
0.837275
21
0.0830133
0
LINE
8
BLACK
6
CONTINUOUS
10
0.837275
20
0.0830133
11
0.837874
21
0.08
0
LINE
8
BLACK
6
CONTINUOUS
10
0.837874
20
0.08
11
0.837874
21
0.02
0
LINE
8
BLACK
6
CONTINUOUS
10
0.837874
20
0.02
11
0.837275
21
0.0169867
0
LINE
8
BLACK
6
CONTINUOUS
10
0.837275
20
0.0169867
11
0.835568
21
0.0144322
0
LINE
8
BLACK
6
CONTINUOUS
10
0.835568
20
0.0144322
11
0.833013
21
0.0127254
0
LINE
8
BLACK
6
CONTINUOUS
10
0.833013
20
0.0127254
11
0.83
21
0.012126
0
LINE
8
BLACK
6
CONTINUOUS
10
0.83
20
0.012126
11
0.77
21
0.012126
0
LINE
8
BLACK
6
CONTINUOUS
10
0.77
20
0.012126
11
0.766987
21
0.0127254
0
LINE
8
BLACK
6
CONTINUOUS
10
0.766987
20
0.0127254
11
0.764432
21
0.0144322
0
LINE
8
BLACK
6
CONTINUOUS
10
0.764432
20
0.0144322
11
0.762725
21
0.0169867
0
LINE
8
BLACK
6
CONTINUOUS
10
0.762725
20
0.0169867
11
0.762126
21
0.02
0
LINE
8
BLACK
6
CONTINUOUS
10
0.762126
20
0.02
11
0.762126
21
0.08
0
LINE
8
BLACK
6
CONTINUOUS
10
0.762126
20
0.08
11
0.762725
21
0.0830133
0
LINE
8
BLACK
6
CONTINUOUS
10
0.762725
20
0.0830133
11
0.764432
21
0.0855678
0
LINE
8
BLACK
6
CONTINUOUS
10
0.764432
20
0.0855678
11
0.766987
21
0.0872746
0
LINE
8
BLACK
6
CONTINUOUS
10
0.766987
20
0.0872746
11
0.77
21
0.087874
0
LINE
8
BLACK
6
CONTINUOUS
10
0.77
20
0.087874
11
0.83
21
0.087874
0
LINE
8
BLACK
6
CONTINUOUS
10
0.83
20
0.087874
11
0.833013
21
0.0872746
0
LINE
8
BLACK
6
CONTINUOUS
10
0.483013
20
0.0872746
11
0.485568
21
0.0855678
0
LINE
8
BLACK
6
CONTINUOUS
10
0.485568
20
0.0855678
11
0.487275
21
0.0830133
0
LINE
8
BLACK
6
CONTINUOUS
10
0.487275
20
0.0830133
11
0.487874
21
0.08
0
LINE
8
BLACK
6
CONTINUOUS
10
0.487874
20
0.08
11
0.487874
21
0.02
0
LINE
8
BLACK
6
CONTINUOUS
10
0.487874
20
0.02
11
0.487275
21
0.0169867
0
LINE
8
BLACK
6
CONTINUOUS
10
0.487275
20
0.0169867
11
0.485568
21
0.0144322
0
LINE
8
BLACK
6
CONTINUOUS
10
0.485568
20
0.0144322
11
0.483013
21
0.0127254
0
LINE
8
BLACK
6
CONTINUOUS
10
0.483013
20
0.0127254
11
0.48
21
0.012126
0
LINE
8
BLACK
6
CONTINUOUS
10
0.48
20
0.012126
11
0.42
21
0.012126
0
LINE
8
BLACK
6
CONTINUOUS
10
0.42
20
0.012126
11
0.416987
21
0.0127254
0
LINE
8
BLACK
6
CONTINUOUS
10
0.416987
20
0.0127254
11
0.414432
21
0.0144322
0
LINE
8
BLACK
6
CONTINUOUS
10
0.414432
20
0.0144322
11
0.412725
21
0.0169867
0
LINE
8
BLACK
6
CONTINUOUS
10
0.412725
20
0.0169867
11
0.412126
21
0.02
0
LINE
8
BLACK
6
CONTINUOUS
10
0.412126
20
0.02
11
0.412126
21
0.08
0
LINE
8
BLACK
6
CONTINUOUS
10
0.412126
20
0.08
11
0.412725
21
0.0830133
0
LINE
8
BLACK
6
CONTINUOUS
10
0.412725
20
0.0830133
11
0.414432
21
0.0855678
0
LINE
8
BLACK
6
CONTINUOUS
10
0.414432
20
0.0855678
11
0.416987
21
0.0872746
0
LINE
8
BLACK
6
CONTINUOUS
10
0.416987
20
0.0872746
11
0.42
21
0.087874
0
LINE
8
BLACK
6
CONTINUOUS
10
0.42
20
0.087874
11
0.48
21
0.087874
0
LINE
8
BLACK
6
CONTINUOUS
10
0.48
20
0.087874
11
0.483013
21
0.0872746
0
LINE
8
BLACK
6
CONTINUOUS
10
0.583013
20
0.0872746
11
0.585568
21
0.0855678
0
LINE
8
BLACK
6
CONTINUOUS
10
0.585568
20
0.0855678
11
0.587275
21
0.0830133
0
LINE
8
BLACK
6
CONTINUOUS
10
0.587275
20
0.0830133
11
0.587874
21
0.08
0
LINE
8
BLACK
6
CONTINUOUS
10
0.587874
20
0.08
11
0.587874
21
0.02
0
LINE
8
BLACK
6
CONTINUOUS
10
0.587874
20
0.02
11
0.587275
21
0.0169867
0
LINE
8
BLACK
6
CONTINUOUS
10
0.587275
20
0.0169867
11
0.585568
21
0.0144322
0
LINE
8
BLACK
6
CONTINUOUS
10
0.585568
20
0.0144322
11
0.583013
21
0.0127254
0
LINE
8
BLACK
6
CONTINUOUS
10
0.583013
20
0.0127254
11
0.58
21
0.012126
0
LINE
8
BLACK
6
CONTINUOUS
10
0.58
20
0.012126
11
0.52
21
0.012126
0
LINE
8
BLACK
6
CONTINUOUS
10
0.52
20
0.012126
11
0.516987
21
0.0127254
0
LINE
8
BLACK
6
CONTINUOUS
10
0.516987
20
0.0127254
11
0.514432
21
0.0144322
0
LINE
8
BLACK
6
CONTINUOUS
10
0.514432
20
0.0144322
11
0.512725
21
0.0169867
0
LINE
8
BLACK
6
CONTINUOUS
10
0.512725
20
0.0169867
11
0.512126
21
0.02
0
LINE
8
BLACK
6
CONTINUOUS
10
0.512126
20
0.02
11
0.512126
21
0.08
0
LINE
8
BLACK
6
CONTINUOUS
10
0.512126
20
0.08
11
0.512725
21
0.0830133
0
LINE
8
BLACK
6
CONTINUOUS
10
0.512725
20
0.0830133
11
0.514432
21
0.0855678
0
LINE
8
BLACK
6
CONTINUOUS
10
0.514432
20
0.0855678
11
0.516987
21
0.0872746
0
LINE
8
BLACK
6
CONTINUOUS
10
0.516987
20
0.0872746
11
0.52
21
0.087874
0
LINE
8
BLACK
6
CONTINUOUS
10
0.52
20
0.087874
11
0.58
21
0.087874
0
LINE
8
BLACK
6
CONTINUOUS
10
0.58
20
0.087874
11
0.583013
21
0.0872746
0
LINE
8
BLACK
6
CONTINUOUS
10
0.683013
20
0.0872746
11
0.685568
21
0.0855678
0
LINE
8
BLACK
6
CONTINUOUS
10
0.685568
20
0.0855678
11
0.687275
21
0.0830133
0
LINE
8
BLACK
6
CONTINUOUS
10
0.687275
20
0.0830133
11
0.687874
21
0.08
0
LINE
8
BLACK
6
CONTINUOUS
10
0.687874
20
0.08
11
0.687874
21
0.02
0
LINE
8
BLACK
6
CONTINUOUS
10
0.687874
20
0.02
11
0.687275
21
0.0169867
0
LINE
8
BLACK
6
CONTINUOUS
10
0.687275
20
0.0169867
11
0.685568
21
0.0144322
0
LINE
8
BLACK
6
CONTINUOUS
10
0.685568
20
0.0144322
11
0.683013
21
0.0127254
0
LINE
8
BLACK
6
CONTINUOUS
10
0.683013
20
0.0127254
11
0.68
21
0.012126
0
LINE
8
BLACK
6
CONTINUOUS
10
0.68
20
0.012126
11
0.62
21
0.012126
0
LINE
8
BLACK
6
CONTINUOUS
10
0.62
20
0.012126
11
0.616987
21
0.0127254
0
LINE
8
BLACK
6
CONTINUOUS
10
0.616987
20
0.0127254
11
0.614432
21
0.0144322
0
LINE
8
BLACK
6
CONTINUOUS
10
0.614432
20
0.0144322
11
0.612725
21
0.0169867
0
LINE
8
BLACK
6
CONTINUOUS
10
0.612725
20
0.0169867
11
0.612126
21
0.02
0
LINE
8
BLACK
6
CONTINUOUS
10
0.612126
20
0.02
11
0.612126
21
0.08
0
LINE
8
BLACK
6
CONTINUOUS
10
0.612126
20
0.08
11
0.612725
21
0.0830133
0
LINE
8
BLACK
6
CONTINUOUS
10
0.612725
20
0.0830133
11
0.614432
21
0.0855678
0
LINE
8
BLACK
6
CONTINUOUS
10
0.614432
20
0.0855678
11
0.616987
21
0.0872746
0
LINE
8
BLACK
6
CONTINUOUS
10
0.616987
20
0.0872746
11
0.62
21
0.087874
0
LINE
8
BLACK
6
CONTINUOUS
10
0.62
20
0.087874
11
0.68
21
0.087874
0
LINE
8
BLACK
6
CONTINUOUS
10
0.68
20
0.087874
11
0.683013
21
0.0872746
0
LINE
8
BLACK
6
CONTINUOUS
10
0.236577
20
0.233031
11
0.247141
21
0.230583
0
LINE
8
BLACK
6
CONTINUOUS
10
0.247141
20
0.230583
11
0.257255
21
0.22667
0
LINE
8
BLACK
6
CONTINUOUS
10
0.257255
20
0.22667
11
0.266716
21
0.221371
0
LINE
8
BLACK
6
CONTINUOUS
10
0.266716
20
0.221371
11
0.275337
21
0.214792
0
LINE
8
BLACK
6
CONTINUOUS
10
0.275337
20
0.214792
11
0.282945
21
0.207064
0
LINE
8
BLACK
6
CONTINUOUS
10
0.282945
20
0.207064
11
0.289387
21
0.198341
0
LINE
8
BLACK
6
CONTINUOUS
10
0.289387
20
0.198341
11
0.294537
21
0.188797
0
LINE
8
BLACK
6
CONTINUOUS
10
0.294537
20
0.188797
11
0.29829
21
0.178623
0
LINE
8
BLACK
6
CONTINUOUS
10
0.29829
20
0.178623
11
0.300573
21
0.168022
0
LINE
8
BLACK
6
CONTINUOUS
10
0.300573
20
0.168022
11
0.301339
21
0.157205
0
LINE
8
BLACK
6
CONTINUOUS
10
0.301339
20
0.157205
11
0.301187
21
0.152384
0
LINE
8
BLACK
6
CONTINUOUS
10
0.301187
20
0.152384
11
0.299743
21
0.141636
0
LINE
8
BLACK
6
CONTINUOUS
10
0.299743
20
0.141636
11
0.2968
21
0.131199
0
LINE
8
BLACK
6
CONTINUOUS
10
0.2968
20
0.131199
11
0.292415
21
0.121281
0
LINE
8
BLACK
6
CONTINUOUS
10
0.292415
20
0.121281
11
0.286676
21
0.112079
0
LINE
8
BLACK
6
CONTINUOUS
10
0.286676
20
0.112079
11
0.279699
21
0.103778
0
LINE
8
BLACK
6
CONTINUOUS
10
0.279699
20
0.103778
11
0.271621
21
0.0965432
0
LINE
8
BLACK
6
CONTINUOUS
10
0.271621
20
0.0965432
11
0.262604
21
0.0905185
0
LINE
8
BLACK
6
CONTINUOUS
10
0.262604
20
0.0905185
11
0.252828
21
0.0858243
0
LINE
8
BLACK
6
CONTINUOUS
10
0.252828
20
0.0858243
11
0.242489
21
0.0825543
0
LINE
8
BLACK
6
CONTINUOUS
10
0.242489
20
0.0825543
11
0.231792
21
0.0807738
0
LINE
8
BLACK
6
CONTINUOUS
10
0.231792
20
0.0807738
11
0.22095
21
0.0805183
0
LINE
8
BLACK
6
CONTINUOUS
10
0.22095
20
0.0805183
11
0.210181
21
0.0817929
0
LINE
8
BLACK
6
CONTINUOUS
10
0.210181
20
0.0817929
11
0.199699
21
0.0845722
0
LINE
8
BLACK
6
CONTINUOUS
10
0.199699
20
0.0845722
11
0.189713
21
0.0888007
0
LINE
8
BLACK
6
CONTINUOUS
10
0.189713
20
0.0888007
11
0.180423
21
0.094394
0
LINE
8
BLACK
6
CONTINUOUS
10
0.180423
20
0.094394
11
0.172013
21
0.101241
0
LINE
8
BLACK
6
CONTINUOUS
10
0.172013
20
0.101241
11
0.164652
21
0.109204
0
LINE
8
BLACK
6
CONTINUOUS
10
0.164652
20
0.109204
11
0.158486
21
0.118125
0
LINE
8
BLACK
6
CONTINUOUS
10
0.158486
20
0.118125
11
0.153639
21
0.127825
0
LINE
8
BLACK
6
CONTINUOUS
10
0.153639
20
0.127825
11
0.150207
21
0.138112
0
LINE
8
BLACK
6
CONTINUOUS
10
0.150207
20
0.138112
11
0.148259
21
0.14878
0
LINE
8
BLACK
6
CONTINUOUS
10
0.148259
20
0.14878
11
0.147833
21
0.159616
0
LINE
8
BLACK
6
CONTINUOUS
10
0.147833
20
0.159616
11
0.148938
21
0.170404
0
LINE
8
BLACK
6
CONTINUOUS
10
0.148938
20
0.170404
11
0.151553
21
0.180928
0
LINE
8
BLACK
6
CONTINUOUS
10
0.151553
20
0.180928
11
0.155624
21
0.19098
0
LINE
8
BLACK
6
CONTINUOUS
10
0.155624
20
0.19098
11
0.161071
21
0.200357
0
LINE
8
BLACK
6
CONTINUOUS
10
0.161071
20
0.200357
11
0.167784
21
0.208873
0
LINE
8
BLACK
6
CONTINUOUS
10
0.167784
20
0.208873
11
0.175631
21
0.216358
0
LINE
8
BLACK
6
CONTINUOUS
10
0.175631
20
0.216358
11
0.184454
21
0.222663
0
LINE
8
BLACK
6
CONTINUOUS
10
0.184454
20
0.222663
11
0.194077
21
0.227662
0
LINE
8
BLACK
6
CONTINUOUS
10
0.194077
20
0.227662
11
0.204309
21
0.231255
0
LINE
8
BLACK
6
CONTINUOUS
10
0.204309
20
0.231255
11
0.214945
21
0.233371
0
LINE
8
BLACK
6
CONTINUOUS
10
0.214945
20
0.233371
11
0.225773
21
0.233967
0
LINE
8
BLACK
6
CONTINUOUS
10
0.225773
20
0.233967
11
0.236577
21
0.233031
0
LINE
8
BLACK
6
CONTINUOUS
10
1.28301
20
0.237275
11
1.28557
21
0.235568
0
LINE
8
BLACK
6
CONTINUOUS
10
1.28557
20
0.235568
11
1.28727
21
0.233013
0
LINE
8
BLACK
6
CONTINUOUS
10
1.28727
20
0.233013
11
1.28787
21
0.23
0
LINE
8
BLACK
6
CONTINUOUS
10
1.28787
20
0.23
11
1.28787
21
0.17
0
LINE
8
BLACK
6
CONTINUOUS
10
1.28787
20
0.17
11
1.28727
21
0.166987
0
LINE
8
BLACK
6
CONTINUOUS
10
1.28727
20
0.166987
11
1.28557
21
0.164432
0
LINE
8
BLACK
6
CONTINUOUS
10
1.28557
20
0.164432
11
1.28301
21
0.162725
0
LINE
8
BLACK
6
CONTINUOUS
10
1.28301
20
0.162725
11
1.28
21
0.162126
0
LINE
8
BLACK
6
CONTINUOUS
10
1.28
20
0.162126
11
1.22
21
0.162126
0
LINE
8
BLACK
6
CONTINUOUS
10
1.22
20
0.162126
11
1.21699
21
0.162725
0
LINE
8
BLACK
6
CONTINUOUS
10
1.21699
20
0.162725
11
1.21443
21
0.164432
0
LINE
8
BLACK
6
CONTINUOUS
10
1.21443
20
0.164432
11
1.21273
21
0.166987
0
LINE
8
BLACK
6
CONTINUOUS
10
1.21273
20
0.166987
11
1.21213
21
0.17
0
LINE
8
BLACK
6
CONTINUOUS
10
1.21213
20
0.17
11
1.21213
21
0.23
0
LINE
8
BLACK
6
CONTINUOUS
10
1.21213
20
0.23
11
1.21273
21
0.233013
0
LINE
8
BLACK
6
CONTINUOUS
10
1.21273
20
0.233013
11
1.21443
21
0.235568
0
LINE
8
BLACK
6
CONTINUOUS
10
1.21443
20
0.235568
11
1.21699
21
0.237275
0
LINE
8
BLACK
6
CONTINUOUS
10
1.21699
20
0.237275
11
1.22
21
0.237874
0
LINE
8
BLACK
6
CONTINUOUS
10
1.22
20
0.237874
11
1.28
21
0.237874
0
LINE
8
BLACK
6
CONTINUOUS
10
1.28
20
0.237874
11
1.28301
21
0.237275
0
LINE
8
BLACK
6
CONTINUOUS
10
1.18301
20
0.237275
11
1.18557
21
0.235568
0
LINE
8
BLACK
6
CONTINUOUS
10
1.18557
20
0.235568
11
1.18727
21
0.233013
0
LINE
8
BLACK
6
CONTINUOUS
10
1.18727
20
0.233013
11
1.18787
21
0.23
0
LINE
8
BLACK
6
CONTINUOUS
10
1.18787
20
0.23
11
1.18787
21
0.17
0
LINE
8
BLACK
6
CONTINUOUS
10
1.18787
20
0.17
11
1.18727
21
0.166987
0
LINE
8
BLACK
6
CONTINUOUS
10
1.18727
20
0.166987
11
1.18557
21
0.164432
0
LINE
8
BLACK
6
CONTINUOUS
10
1.18557
20
0.164432
11
1.18301
21
0.162725
0
LINE
8
BLACK
6
CONTINUOUS
10
1.18301
20
0.162725
11
1.18
21
0.162126
0
LINE
8
BLACK
6
CONTINUOUS
10
1.18
20
0.162126
11
1.12
21
0.162126
0
LINE
8
BLACK
6
CONTINUOUS
10
1.12
20
0.162126
11
1.11699
21
0.162725
0
LINE
8
BLACK
6
CONTINUOUS
10
1.11699
20
0.162725
11
1.11443
21
0.164432
0
LINE
8
BLACK
6
CONTINUOUS
10
1.11443
20
0.164432
11
1.11273
21
0.166987
0
LINE
8
BLACK
6
CONTINUOUS
10
1.11273
20
0.166987
11
1.11213
21
0.17
0
LINE
8
BLACK
6
CONTINUOUS
10
1.11213
20
0.17
11
1.11213
21
0.23
0
LINE
8
BLACK
6
CONTINUOUS
10
1.11213
20
0.23
11
1.11273
21
0.233013
0
LINE
8
BLACK
6
CONTINUOUS
10
1.11273
20
0.233013
11
1.11443
21
0.235568
0
LINE
8
BLACK
6
CONTINUOUS
10
1.11443
20
0.235568
11
1.11699
21
0.237275
0
LINE
8
BLACK
6
CONTINUOUS
10
1.11699
20
0.237275
11
1.12
21
0.237874
0
LINE
8
BLACK
6
CONTINUOUS
10
1.12
20
0.237874
11
1.18
21
0.237874
0
LINE
8
BLACK
6
CONTINUOUS
10
1.18
20
0.237874
11
1.18301
21
0.237275
0
LINE
8
BLACK
6
CONTINUOUS
10
1.28301
20
0.337275
11
1.28557
21
0.335568
0
LINE
8
BLACK
6
CONTINUOUS
10
1.28557
20
0.335568
11
1.28727
21
0.333013
0
LINE
8
BLACK
6
CONTINUOUS
10
1.28727
20
0.333013
11
1.28787
21
0.33
0
LINE
8
BLACK
6
CONTINUOUS
10
1.28787
20
0.33
11
1.28787
21
0.27
0
LINE
8
BLACK
6
CONTINUOUS
10
1.28787
20
0.27
11
1.28727
21
0.266987
0
LINE
8
BLACK
6
CONTINUOUS
10
1.28727
20
0.266987
11
1.28557
21
0.264432
0
LINE
8
BLACK
6
CONTINUOUS
10
1.28557
20
0.264432
11
1.28301
21
0.262725
0
LINE
8
BLACK
6
CONTINUOUS
10
1.28301
20
0.262725
11
1.28
21
0.262126
0
LINE
8
BLACK
6
CONTINUOUS
10
1.28
20
0.262126
11
1.22
21
0.262126
0
LINE
8
BLACK
6
CONTINUOUS
10
1.22
20
0.262126
11
1.21699
21
0.262725
0
LINE
8
BLACK
6
CONTINUOUS
10
1.21699
20
0.262725
11
1.21443
21
0.264432
0
LINE
8
BLACK
6
CONTINUOUS
10
1.21443
20
0.264432
11
1.21273
21
0.266987
0
LINE
8
BLACK
6
CONTINUOUS
10
1.21273
20
0.266987
11
1.21213
21
0.27
0
LINE
8
BLACK
6
CONTINUOUS
10
1.21213
20
0.27
11
1.21213
21
0.33
0
LINE
8
BLACK
6
CONTINUOUS
10
1.21213
20
0.33
11
1.21273
21
0.333013
0
LINE
8
BLACK
6
CONTINUOUS
10
1.21273
20
0.333013
11
1.21443
21
0.335568
0
LINE
8
BLACK
6
CONTINUOUS
10
1.21443
20
0.335568
11
1.21699
21
0.337275
0
LINE
8
BLACK
6
CONTINUOUS
10
1.21699
20
0.337275
11
1.22
21
0.337874
0
LINE
8
BLACK
6
CONTINUOUS
10
1.22
20
0.337874
11
1.28
21
0.337874
0
LINE
8
BLACK
6
CONTINUOUS
10
1.28
20
0.337874
11
1.28301
21
0.337275
0
LINE
8
BLACK
6
CONTINUOUS
10
1.18301
20
0.337275
11
1.18557
21
0.335568
0
LINE
8
BLACK
6
CONTINUOUS
10
1.18557
20
0.335568
11
1.18727
21
0.333013
0
LINE
8
BLACK
6
CONTINUOUS
10
1.18727
20
0.333013
11
1.18787
21
0.33
0
LINE
8
BLACK
6
CONTINUOUS
10
1.18787
20
0.33
11
1.18787
21
0.27
0
LINE
8
BLACK
6
CONTINUOUS
10
1.18787
20
0.27
11
1.18727
21
0.266987
0
LINE
8
BLACK
6
CONTINUOUS
10
1.18727
20
0.266987
11
1.18557
21
0.264432
0
LINE
8
BLACK
6
CONTINUOUS
10
1.18557
20
0.264432
11
1.18301
21
0.262725
0
LINE
8
BLACK
6
CONTINUOUS
10
1.18301
20
0.262725
11
1.18
21
0.262126
0
LINE
8
BLACK
6
CONTINUOUS
10
1.18
20
0.262126
11
1.12
21
0.262126
0
LINE
8
BLACK
6
CONTINUOUS
10
1.12
20
0.262126
11
1.11699
21
0.262725
0
LINE
8
BLACK
6
CONTINUOUS
10
1.11699
20
0.262725
11
1.11443
21
0.264432
0
LINE
8
BLACK
6
CONTINUOUS
10
1.11443
20
0.264432
11
1.11273
21
0.266987
0
LINE
8
BLACK
6
CONTINUOUS
10
1.11273
20
0.266987
11
1.11213
21
0.27
0
LINE
8
BLACK
6
CONTINUOUS
10
1.11213
20
0.27
11
1.11213
21
0.33
0
LINE
8
BLACK
6
CONTINUOUS
10
1.11213
20
0.33
11
1.11273
21
0.333013
0
LINE
8
BLACK
6
CONTINUOUS
10
1.11273
20
0.333013
11
1.11443
21
0.335568
0
LINE
8
BLACK
6
CONTINUOUS
10
1.11443
20
0.335568
11
1.11699
21
0.337275
0
LINE
8
BLACK
6
CONTINUOUS
10
1.11699
20
0.337275
11
1.12
21
0.337874
0
LINE
8
BLACK
6
CONTINUOUS
10
1.12
20
0.337874
11
1.18
21
0.337874
0
LINE
8
BLACK
6
CONTINUOUS
10
1.18
20
0.337874
11
1.18301
21
0.337275
0
LINE
8
BLACK
6
CONTINUOUS
10
0.446478
20
0.385739
11
0.449032
21
0.384032
0
LINE
8
BLACK
6
CONTINUOUS
10
0.449032
20
0.384032
11
0.450739
21
0.381478
0
LINE
8
BLACK
6
CONTINUOUS
10
0.450739
20
0.381478
11
0.451339
21
0.378465
0
LINE
8
BLACK
6
CONTINUOUS
10
0.451339
20
0.378465
11
0.451339
21
0.311535
0
LINE
8
BLACK
6
CONTINUOUS
10
0.451339
20
0.311535
11
0.450739
21
0.308522
0
LINE
8
BLACK
6
CONTINUOUS
10
0.450739
20
0.308522
11
0.449032
21
0.305968
0
LINE
8
BLACK
6
CONTINUOUS
10
0.449032
20
0.305968
11
0.446478
21
0.304261
0
LINE
8
BLACK
6
CONTINUOUS
10
0.446478
20
0.304261
11
0.443465
21
0.303661
0
LINE
8
BLACK
6
CONTINUOUS
10
0.443465
20
0.303661
11
0.376535
21
0.303661
0
LINE
8
BLACK
6
CONTINUOUS
10
0.376535
20
0.303661
11
0.373522
21
0.304261
0
LINE
8
BLACK
6
CONTINUOUS
10
0.373522
20
0.304261
11
0.370968
21
0.305968
0
LINE
8
BLACK
6
CONTINUOUS
10
0.370968
20
0.305968
11
0.369261
21
0.308522
0
LINE
8
BLACK
6
CONTINUOUS
10
0.369261
20
0.308522
11
0.368661
21
0.311535
0
LINE
8
BLACK
6
CONTINUOUS
10
0.368661
20
0.311535
11
0.368661
21
0.327547
0
LINE
8
BLACK
6
CONTINUOUS
10
0.368661
20
0.327547
11
0.365039
21
0.321171
0
LINE
8
BLACK
6
CONTINUOUS
10
0.365039
20
0.321171
11
0.359768
21
0.315064
0
LINE
8
BLACK
6
CONTINUOUS
10
0.359768
20
0.315064
11
0.35341
21
0.310097
0
LINE
8
BLACK
6
CONTINUOUS
10
0.35341
20
0.310097
11
0.346209
21
0.306459
0
LINE
8
BLACK
6
CONTINUOUS
10
0.346209
20
0.306459
11
0.338438
21
0.304289
0
LINE
8
BLACK
6
CONTINUOUS
10
0.338438
20
0.304289
11
0.330394
21
0.30367
0
LINE
8
BLACK
6
CONTINUOUS
10
0.330394
20
0.30367
11
0.322383
21
0.304626
0
LINE
8
BLACK
6
CONTINUOUS
10
0.322383
20
0.304626
11
0.31471
21
0.307119
0
LINE
8
BLACK
6
CONTINUOUS
10
0.31471
20
0.307119
11
0.307667
21
0.311055
0
LINE
8
BLACK
6
CONTINUOUS
10
0.307667
20
0.311055
11
0.301523
21
0.316284
0
LINE
8
BLACK
6
CONTINUOUS
10
0.301523
20
0.316284
11
0.296512
21
0.322607
0
LINE
8
BLACK
6
CONTINUOUS
10
0.296512
20
0.322607
11
0.292824
21
0.329782
0
LINE
8
BLACK
6
CONTINUOUS
10
0.292824
20
0.329782
11
0.2906
21
0.337538
0
LINE
8
BLACK
6
CONTINUOUS
10
0.2906
20
0.337538
11
0.289925
21
0.345577
0
LINE
8
BLACK
6
CONTINUOUS
10
0.289925
20
0.345577
11
0.290825
21
0.353595
0
LINE
8
BLACK
6
CONTINUOUS
10
0.290825
20
0.353595
11
0.293264
21
0.361285
0
LINE
8
BLACK
6
CONTINUOUS
10
0.293264
20
0.361285
11
0.297151
21
0.368355
0
LINE
8
BLACK
6
CONTINUOUS
10
0.297151
20
0.368355
11
0.302337
21
0.374535
0
LINE
8
BLACK
6
CONTINUOUS
10
0.302337
20
0.374535
11
0.308624
21
0.379591
0
LINE
8
BLACK
6
CONTINUOUS
10
0.308624
20
0.379591
11
0.315774
21
0.383328
0
LINE
8
BLACK
6
CONTINUOUS
10
0.315774
20
0.383328
11
0.323514
21
0.385606
0
LINE
8
BLACK
6
CONTINUOUS
10
0.323514
20
0.385606
11
0.331548
21
0.386338
0
LINE
8
BLACK
6
CONTINUOUS
10
0.331548
20
0.386338
11
0.339572
21
0.385494
0
LINE
8
BLACK
6
CONTINUOUS
10
0.339572
20
0.385494
11
0.347279
21
0.383109
0
LINE
8
BLACK
6
CONTINUOUS
10
0.347279
20
0.383109
11
0.354376
21
0.379271
0
LINE
8
BLACK
6
CONTINUOUS
10
0.354376
20
0.379271
11
0.360592
21
0.374129
0
LINE
8
BLACK
6
CONTINUOUS
10
0.360592
20
0.374129
11
0.365692
21
0.367876
0
LINE
8
BLACK
6
CONTINUOUS
10
0.365692
20
0.367876
11
0.368661
21
0.362291
0
LINE
8
BLACK
6
CONTINUOUS
10
0.368661
20
0.362291
11
0.368661
21
0.378465
0
LINE
8
BLACK
6
CONTINUOUS
10
0.368661
20
0.378465
11
0.369261
21
0.381478
0
LINE
8
BLACK
6
CONTINUOUS
10
0.369261
20
0.381478
11
0.370968
21
0.384032
0
LINE
8
BLACK
6
CONTINUOUS
10
0.370968
20
0.384032
11
0.373522
21
0.385739
0
LINE
8
BLACK
6
CONTINUOUS
10
0.373522
20
0.385739
11
0.376535
21
0.386339
0
LINE
8
BLACK
6
CONTINUOUS
10
0.376535
20
0.386339
11
0.443465
21
0.386339
0
LINE
8
BLACK
6
CONTINUOUS
10
0.443465
20
0.386339
11
0.446478
21
0.385739
0
LINE
8
BLACK
6
CONTINUOUS
10
1.18301
20
0.437275
11
1.18557
21
0.435568
0
LINE
8
BLACK
6
CONTINUOUS
10
1.18557
20
0.435568
11
1.18727
21
0.433013
0
LINE
8
BLACK
6
CONTINUOUS
10
1.18727
20
0.433013
11
1.18787
21
0.43
0
LINE
8
BLACK
6
CONTINUOUS
10
1.18787
20
0.43
11
1.18787
21
0.37
0
LINE
8
BLACK
6
CONTINUOUS
10
1.18787
20
0.37
11
1.18727
21
0.366987
0
LINE
8
BLACK
6
CONTINUOUS
10
1.18727
20
0.366987
11
1.18557
21
0.364432
0
LINE
8
BLACK
6
CONTINUOUS
10
1.18557
20
0.364432
11
1.18301
21
0.362725
0
LINE
8
BLACK
6
CONTINUOUS
10
1.18301
20
0.362725
11
1.18
21
0.362126
0
LINE
8
BLACK
6
CONTINUOUS
10
1.18
20
0.362126
11
1.12
21
0.362126
0
LINE
8
BLACK
6
CONTINUOUS
10
1.12
20
0.362126
11
1.11699
21
0.362725
0
LINE
8
BLACK
6
CONTINUOUS
10
1.11699
20
0.362725
11
1.11443
21
0.364432
0
LINE
8
BLACK
6
CONTINUOUS
10
1.11443
20
0.364432
11
1.11273
21
0.366987
0
LINE
8
BLACK
6
CONTINUOUS
10
1.11273
20
0.366987
11
1.11213
21
0.37
0
LINE
8
BLACK
6
CONTINUOUS
10
1.11213
20
0.37
11
1.11213
21
0.43
0
LINE
8
BLACK
6
CONTINUOUS
10
1.11213
20
0.43
11
1.11273
21
0.433013
0
LINE
8
BLACK
6
CONTINUOUS
10
1.11273
20
0.433013
11
1.11443
21
0.435568
0
LINE
8
BLACK
6
CONTINUOUS
10
1.11443
20
0.435568
11
1.11699
21
0.437275
0
LINE
8
BLACK
6
CONTINUOUS
10
1.11699
20
0.437275
11
1.12
21
0.437874
0
LINE
8
BLACK
6
CONTINUOUS
10
1.12
20
0.437874
11
1.18
21
0.437874
0
LINE
8
BLACK
6
CONTINUOUS
10
1.18
20
0.437874
11
1.18301
21
0.437275
0
LINE
8
BLACK
6
CONTINUOUS
10
1.28301
20
0.437275
11
1.28557
21
0.435568
0
LINE
8
BLACK
6
CONTINUOUS
10
1.28557
20
0.435568
11
1.28727
21
0.433013
0
LINE
8
BLACK
6
CONTINUOUS
10
1.28727
20
0.433013
11
1.28787
21
0.43
0
LINE
8
BLACK
6
CONTINUOUS
10
1.28787
20
0.43
11
1.28787
21
0.37
0
LINE
8
BLACK
6
CONTINUOUS
10
1.28787
20
0.37
11
1.28727
21
0.366987
0
LINE
8
BLACK
6
CONTINUOUS
10
1.28727
20
0.366987
11
1.28557
21
0.364432
0
LINE
8
BLACK
6
CONTINUOUS
10
1.28557
20
0.364432
11
1.28301
21
0.362725
0
LINE
8
BLACK
6
CONTINUOUS
10
1.28301
20
0.362725
11
1.28
21
0.362126
0
LINE
8
BLACK
6
CONTINUOUS
10
1.28
20
0.362126
11
1.22
21
0.362126
0
LINE
8
BLACK
6
CONTINUOUS
10
1.22
20
0.362126
11
1.21699
21
0.362725
0
LINE
8
BLACK
6
CONTINUOUS
10
1.21699
20
0.362725
11
1.21443
21
0.364432
0
LINE
8
BLACK
6
CONTINUOUS
10
1.21443
20
0.364432
11
1.21273
21
0.366987
0
LINE
8
BLACK
6
CONTINUOUS
10
1.21273
20
0.366987
11
1.21213
21
0.37
0
LINE
8
BLACK
6
CONTINUOUS
10
1.21213
20
0.37
11
1.21213
21
0.43
0
LINE
8
BLACK
6
CONTINUOUS
10
1.21213
20
0.43
11
1.21273
21
0.433013
0
LINE
8
BLACK
6
CONTINUOUS
10
1.21273
20
0.433013
11
1.21443
21
0.435568
0
LINE
8
BLACK
6
CONTINUOUS
10
1.21443
20
0.435568
11
1.21699
21
0.437275
0
LINE
8
BLACK
6
CONTINUOUS
10
1.21699
20
0.437275
11
1.22
21
0.437874
0
LINE
8
BLACK
6
CONTINUOUS
10
1.22
20
0.437874
11
1.28
21
0.437874
0
LINE
8
BLACK
6
CONTINUOUS
10
1.28
20
0.437874
11
1.28301
21
0.437275
0
LINE
8
BLACK
6
CONTINUOUS
10
0.418312
20
0.483919
11
0.426019
21
0.481534
0
LINE
8
BLACK
6
CONTINUOUS
10
0.426019
20
0.481534
11
0.433116
21
0.477696
0
LINE
8
BLACK
6
CONTINUOUS
10
0.433116
20
0.477696
11
0.439333
21
0.472554
0
LINE
8
BLACK
6
CONTINUOUS
10
0.439333
20
0.472554
11
0.444432
21
0.466302
0
LINE
8
BLACK
6
CONTINUOUS
10
0.444432
20
0.466302
11
0.448219
21
0.459178
0
LINE
8
BLACK
6
CONTINUOUS
10
0.448219
20
0.459178
11
0.450551
21
0.451455
0
LINE
8
BLACK
6
CONTINUOUS
10
0.450551
20
0.451455
11
0.451339
21
0.443425
0
LINE
8
BLACK
6
CONTINUOUS
10
0.451339
20
0.443425
11
0.451322
21
0.442271
0
LINE
8
BLACK
6
CONTINUOUS
10
0.451322
20
0.442271
11
0.450311
21
0.434267
0
LINE
8
BLACK
6
CONTINUOUS
10
0.450311
20
0.434267
11
0.447765
21
0.426611
0
LINE
8
BLACK
6
CONTINUOUS
10
0.447765
20
0.426611
11
0.44378
21
0.419596
0
LINE
8
BLACK
6
CONTINUOUS
10
0.44378
20
0.419596
11
0.438508
21
0.413489
0
LINE
8
BLACK
6
CONTINUOUS
10
0.438508
20
0.413489
11
0.43215
21
0.408522
0
LINE
8
BLACK
6
CONTINUOUS
10
0.43215
20
0.408522
11
0.424949
21
0.404884
0
LINE
8
BLACK
6
CONTINUOUS
10
0.424949
20
0.404884
11
0.417178
21
0.402715
0
LINE
8
BLACK
6
CONTINUOUS
10
0.417178
20
0.402715
11
0.409134
21
0.402096
0
LINE
8
BLACK
6
CONTINUOUS
10
0.409134
20
0.402096
11
0.401123
21
0.403051
0
LINE
8
BLACK
6
CONTINUOUS
10
0.401123
20
0.403051
11
0.39345
21
0.405544
0
LINE
8
BLACK
6
CONTINUOUS
10
0.39345
20
0.405544
11
0.386408
21
0.40948
0
LINE
8
BLACK
6
CONTINUOUS
10
0.386408
20
0.40948
11
0.380264
21
0.414709
0
LINE
8
BLACK
6
CONTINUOUS
10
0.380264
20
0.414709
11
0.375252
21
0.421032
0
LINE
8
BLACK
6
CONTINUOUS
10
0.375252
20
0.421032
11
0.371564
21
0.428207
0
LINE
8
BLACK
6
CONTINUOUS
10
0.371564
20
0.428207
11
0.370634
21
0.431451
0
LINE
8
BLACK
6
CONTINUOUS
10
0.370634
20
0.431451
11
0.369025
21
0.426611
0
LINE
8
BLACK
6
CONTINUOUS
10
0.369025
20
0.426611
11
0.365039
21
0.419596
0
LINE
8
BLACK
6
CONTINUOUS
10
0.365039
20
0.419596
11
0.359768
21
0.413489
0
LINE
8
BLACK
6
CONTINUOUS
10
0.359768
20
0.413489
11
0.35341
21
0.408522
0
LINE
8
BLACK
6
CONTINUOUS
10
0.35341
20
0.408522
11
0.346209
21
0.404884
0
LINE
8
BLACK
6
CONTINUOUS
10
0.346209
20
0.404884
11
0.338438
21
0.402715
0
LINE
8
BLACK
6
CONTINUOUS
10
0.338438
20
0.402715
11
0.330394
21
0.402096
0
LINE
8
BLACK
6
CONTINUOUS
10
0.330394
20
0.402096
11
0.322383
21
0.403051
0
LINE
8
BLACK
6
CONTINUOUS
10
0.322383
20
0.403051
11
0.31471
21
0.405544
0
LINE
8
BLACK
6
CONTINUOUS
10
0.31471
20
0.405544
11
0.307667
21
0.40948
0
LINE
8
BLACK
6
CONTINUOUS
10
0.307667
20
0.40948
11
0.301523
21
0.414709
0
LINE
8
BLACK
6
CONTINUOUS
10
0.301523
20
0.414709
11
0.296512
21
0.421032
0
LINE
8
BLACK
6
CONTINUOUS
10
0.296512
20
0.421032
11
0.292824
21
0.428207
0
LINE
8
BLACK
6
CONTINUOUS
10
0.292824
20
0.428207
11
0.2906
21
0.435963
0
LINE
8
BLACK
6
CONTINUOUS
10
0.2906
20
0.435963
11
0.289925
21
0.444002
0
LINE
8
BLACK
6
CONTINUOUS
10
0.289925
20
0.444002
11
0.290825
21
0.45202
0
LINE
8
BLACK
6
CONTINUOUS
10
0.290825
20
0.45202
11
0.293264
21
0.45971
0
LINE
8
BLACK
6
CONTINUOUS
10
0.293264
20
0.45971
11
0.297151
21
0.46678
0
LINE
8
BLACK
6
CONTINUOUS
10
0.297151
20
0.46678
11
0.302337
21
0.47296
0
LINE
8
BLACK
6
CONTINUOUS
10
0.302337
20
0.47296
11
0.308624
21
0.478016
0
LINE
8
BLACK
6
CONTINUOUS
10
0.308624
20
0.478016
11
0.315774
21
0.481754
0
LINE
8
BLACK
6
CONTINUOUS
10
0.315774
20
0.481754
11
0.323514
21
0.484032
0
LINE
8
BLACK
6
CONTINUOUS
10
0.323514
20
0.484032
11
0.331548
21
0.484763
0
LINE
8
BLACK
6
CONTINUOUS
10
0.331548
20
0.484763
11
0.339572
21
0.483919
0
LINE
8
BLACK
6
CONTINUOUS
10
0.339572
20
0.483919
11
0.347279
21
0.481534
0
LINE
8
BLACK
6
CONTINUOUS
10
0.347279
20
0.481534
11
0.354376
21
0.477696
0
LINE
8
BLACK
6
CONTINUOUS
10
0.354376
20
0.477696
11
0.360592
21
0.472554
0
LINE
8
BLACK
6
CONTINUOUS
10
0.360592
20
0.472554
11
0.365692
21
0.466302
0
LINE
8
BLACK
6
CONTINUOUS
10
0.365692
20
0.466302
11
0.369479
21
0.459178
0
LINE
8
BLACK
6
CONTINUOUS
10
0.369479
20
0.459178
11
0.370628
21
0.455372
0
LINE
8
BLACK
6
CONTINUOUS
10
0.370628
20
0.455372
11
0.372004
21
0.45971
0
LINE
8
BLACK
6
CONTINUOUS
10
0.372004
20
0.45971
11
0.375891
21
0.46678
0
LINE
8
BLACK
6
CONTINUOUS
10
0.375891
20
0.46678
11
0.381077
21
0.47296
0
LINE
8
BLACK
6
CONTINUOUS
10
0.381077
20
0.47296
11
0.387365
21
0.478016
0
LINE
8
BLACK
6
CONTINUOUS
10
0.387365
20
0.478016
11
0.394514
21
0.481754
0
LINE
8
BLACK
6
CONTINUOUS
10
0.394514
20
0.481754
11
0.402254
21
0.484032
0
LINE
8
BLACK
6
CONTINUOUS
10
0.402254
20
0.484032
11
0.410289
21
0.484763
0
LINE
8
BLACK
6
CONTINUOUS
10
0.410289
20
0.484763
11
0.418312
21
0.483919
0
LINE
8
BLACK
6
CONTINUOUS
10
1.28301
20
0.537275
11
1.28557
21
0.535568
0
LINE
8
BLACK
6
CONTINUOUS
10
1.28557
20
0.535568
11
1.28727
21
0.533013
0
LINE
8
BLACK
6
CONTINUOUS
10
1.28727
20
0.533013
11
1.28787
21
0.53
0
LINE
8
BLACK
6
CONTINUOUS
10
1.28787
20
0.53
11
1.28787
21
0.47
0
LINE
8
BLACK
6
CONTINUOUS
10
1.28787
20
0.47
11
1.28727
21
0.466987
0
LINE
8
BLACK
6
CONTINUOUS
10
1.28727
20
0.466987
11
1.28557
21
0.464432
0
LINE
8
BLACK
6
CONTINUOUS
10
1.28557
20
0.464432
11
1.28301
21
0.462725
0
LINE
8
BLACK
6
CONTINUOUS
10
1.28301
20
0.462725
11
1.28
21
0.462126
0
LINE
8
BLACK
6
CONTINUOUS
10
1.28
20
0.462126
11
1.22
21
0.462126
0
LINE
8
BLACK
6
CONTINUOUS
10
1.22
20
0.462126
11
1.21699
21
0.462725
0
LINE
8
BLACK
6
CONTINUOUS
10
1.21699
20
0.462725
11
1.21443
21
0.464432
0
LINE
8
BLACK
6
CONTINUOUS
10
1.21443
20
0.464432
11
1.21273
21
0.466987
0
LINE
8
BLACK
6
CONTINUOUS
10
1.21273
20
0.466987
11
1.21213
21
0.47
0
LINE
8
BLACK
6
CONTINUOUS
10
1.21213
20
0.47
11
1.21213
21
0.53
0
LINE
8
BLACK
6
CONTINUOUS
10
1.21213
20
0.53
11
1.21273
21
0.533013
0
LINE
8
BLACK
6
CONTINUOUS
10
1.21273
20
0.533013
11
1.21443
21
0.535568
0
LINE
8
BLACK
6
CONTINUOUS
10
1.21443
20
0.535568
11
1.21699
21
0.537275
0
LINE
8
BLACK
6
CONTINUOUS
10
1.21699
20
0.537275
11
1.22
21
0.537874
0
LINE
8
BLACK
6
CONTINUOUS
10
1.22
20
0.537874
11
1.28
21
0.537874
0
LINE
8
BLACK
6
CONTINUOUS
10
1.28
20
0.537874
11
1.28301
21
0.537275
0
LINE
8
BLACK
6
CONTINUOUS
10
1.18301
20
0.537275
11
1.18557
21
0.535568
0
LINE
8
BLACK
6
CONTINUOUS
10
1.18557
20
0.535568
11
1.18727
21
0.533013
0
LINE
8
BLACK
6
CONTINUOUS
10
1.18727
20
0.533013
11
1.18787
21
0.53
0
LINE
8
BLACK
6
CONTINUOUS
10
1.18787
20
0.53
11
1.18787
21
0.47
0
LINE
8
BLACK
6
CONTINUOUS
10
1.18787
20
0.47
11
1.18727
21
0.466987
0
LINE
8
BLACK
6
CONTINUOUS
10
1.18727
20
0.466987
11
1.18557
21
0.464432
0
LINE
8
BLACK
6
CONTINUOUS
10
1.18557
20
0.464432
11
1.18301
21
0.462725
0
LINE
8
BLACK
6
CONTINUOUS
10
1.18301
20
0.462725
11
1.18
21
0.462126
0
LINE
8
BLACK
6
CONTINUOUS
10
1.18
20
0.462126
11
1.12
21
0.462126
0
LINE
8
BLACK
6
CONTINUOUS
10
1.12
20
0.462126
11
1.11699
21
0.462725
0
LINE
8
BLACK
6
CONTINUOUS
10
1.11699
20
0.462725
11
1.11443
21
0.464432
0
LINE
8
BLACK
6
CONTINUOUS
10
1.11443
20
0.464432
11
1.11273
21
0.466987
0
LINE
8
BLACK
6
CONTINUOUS
10
1.11273
20
0.466987
11
1.11213
21
0.47
0
LINE
8
BLACK
6
CONTINUOUS
10
1.11213
20
0.47
11
1.11213
21
0.53
0
LINE
8
BLACK
6
CONTINUOUS
10
1.11213
20
0.53
11
1.11273
21
0.533013
0
LINE
8
BLACK
6
CONTINUOUS
10
1.11273
20
0.533013
11
1.11443
21
0.535568
0
LINE
8
BLACK
6
CONTINUOUS
10
1.11443
20
0.535568
11
1.11699
21
0.537275
0
LINE
8
BLACK
6
CONTINUOUS
10
1.11699
20
0.537275
11
1.12
21
0.537874
0
LINE
8
BLACK
6
CONTINUOUS
10
1.12
20
0.537874
11
1.18
21
0.537874
0
LINE
8
BLACK
6
CONTINUOUS
10
1.18
20
0.537874
11
1.18301
21
0.537275
0
LINE
8
BLACK
6
CONTINUOUS
10
0.236577
20
0.707047
11
0.247141
21
0.704598
0
LINE
8
BLACK
6
CONTINUOUS
10
0.247141
20
0.704598
11
0.257255
21
0.700686
0
LINE
8
BLACK
6
CONTINUOUS
10
0.257255
20
0.700686
11
0.266716
21
0.695387
0
LINE
8
BLACK
6
CONTINUOUS
10
0.266716
20
0.695387
11
0.275337
21
0.688808
0
LINE
8
BLACK
6
CONTINUOUS
10
0.275337
20
0.688808
11
0.282945
21
0.68108
0
LINE
8
BLACK
6
CONTINUOUS
10
0.282945
20
0.68108
11
0.289387
21
0.672357
0
LINE
8
BLACK
6
CONTINUOUS
10
0.289387
20
0.672357
11
0.294537
21
0.662813
0
LINE
8
BLACK
6
CONTINUOUS
10
0.294537
20
0.662813
11
0.29829
21
0.652639
0
LINE
8
BLACK
6
CONTINUOUS
10
0.29829
20
0.652639
11
0.300573
21
0.642038
0
LINE
8
BLACK
6
CONTINUOUS
10
0.300573
20
0.642038
11
0.301339
21
0.63122
0
LINE
8
BLACK
6
CONTINUOUS
10
0.301339
20
0.63122
11
0.301187
21
0.6264
0
LINE
8
BLACK
6
CONTINUOUS
10
0.301187
20
0.6264
11
0.299743
21
0.615652
0
LINE
8
BLACK
6
CONTINUOUS
10
0.299743
20
0.615652
11
0.2968
21
0.605215
0
LINE
8
BLACK
6
CONTINUOUS
10
0.2968
20
0.605215
11
0.292415
21
0.595297
0
LINE
8
BLACK
6
CONTINUOUS
10
0.292415
20
0.595297
11
0.286676
21
0.586095
0
LINE
8
BLACK
6
CONTINUOUS
10
0.286676
20
0.586095
11
0.279699
21
0.577794
0
LINE
8
BLACK
6
CONTINUOUS
10
0.279699
20
0.577794
11
0.271621
21
0.570559
0
LINE
8
BLACK
6
CONTINUOUS
10
0.271621
20
0.570559
11
0.262604
21
0.564534
0
LINE
8
BLACK
6
CONTINUOUS
10
0.262604
20
0.564534
11
0.252828
21
0.55984
0
LINE
8
BLACK
6
CONTINUOUS
10
0.252828
20
0.55984
11
0.242489
21
0.55657
0
LINE
8
BLACK
6
CONTINUOUS
10
0.242489
20
0.55657
11
0.231792
21
0.55479
0
LINE
8
BLACK
6
CONTINUOUS
10
0.231792
20
0.55479
11
0.22095
21
0.554534
0
LINE
8
BLACK
6
CONTINUOUS
10
0.22095
20
0.554534
11
0.210181
21
0.555809
0
LINE
8
BLACK
6
CONTINUOUS
10
0.210181
20
0.555809
11
0.199699
21
0.558588
0
LINE
8
BLACK
6
CONTINUOUS
10
0.199699
20
0.558588
11
0.189713
21
0.562816
0
LINE
8
BLACK
6
CONTINUOUS
10
0.189713
20
0.562816
11
0.180423
21
0.56841
0
LINE
8
BLACK
6
CONTINUOUS
10
0.180423
20
0.56841
11
0.172013
21
0.575256
0
LINE
8
BLACK
6
CONTINUOUS
10
0.172013
20
0.575256
11
0.164652
21
0.58322
0
LINE
8
BLACK
6
CONTINUOUS
10
0.164652
20
0.58322
11
0.158486
21
0.592141
0
LINE
8
BLACK
6
CONTINUOUS
10
0.158486
20
0.592141
11
0.153639
21
0.601841
0
LINE
8
BLACK
6
CONTINUOUS
10
0.153639
20
0.601841
11
0.150207
21
0.612128
0
LINE
8
BLACK
6
CONTINUOUS
10
0.150207
20
0.612128
11
0.148259
21
0.622796
0
LINE
8
BLACK
6
CONTINUOUS
10
0.148259
20
0.622796
11
0.147833
21
0.633632
0
LINE
8
BLACK
6
CONTINUOUS
10
0.147833
20
0.633632
11
0.148938
21
0.64442
0
LINE
8
BLACK
6
CONTINUOUS
10
0.148938
20
0.64442
11
0.151553
21
0.654944
0
LINE
8
BLACK
6
CONTINUOUS
10
0.151553
20
0.654944
11
0.155624
21
0.664995
0
LINE
8
BLACK
6
CONTINUOUS
10
0.155624
20
0.664995
11
0.161071
21
0.674373
0
LINE
8
BLACK
6
CONTINUOUS
10
0.161071
20
0.674373
11
0.167784
21
0.682889
0
LINE
8
BLACK
6
CONTINUOUS
10
0.167784
20
0.682889
11
0.175631
21
0.690374
0
LINE
8
BLACK
6
CONTINUOUS
10
0.175631
20
0.690374
11
0.184454
21
0.696679
0
LINE
8
BLACK
6
CONTINUOUS
10
0.184454
20
0.696679
11
0.194077
21
0.701678
0
LINE
8
BLACK
6
CONTINUOUS
10
0.194077
20
0.701678
11
0.204309
21
0.705271
0
LINE
8
BLACK
6
CONTINUOUS
10
0.204309
20
0.705271
11
0.214945
21
0.707387
0
LINE
8
BLACK
6
CONTINUOUS
10
0.214945
20
0.707387
11
0.225773
21
0.707983
0
LINE
8
BLACK
6
CONTINUOUS
10
0.225773
20
0.707983
11
0.236577
21
0.707047
0
LINE
8
BLACK
6
CONTINUOUS
10
1.28301
20
0.637275
11
1.28557
21
0.635568
0
LINE
8
BLACK
6
CONTINUOUS
10
1.28557
20
0.635568
11
1.28727
21
0.633013
0
LINE
8
BLACK
6
CONTINUOUS
10
1.28727
20
0.633013
11
1.28787
21
0.63
0
LINE
8
BLACK
6
CONTINUOUS
10
1.28787
20
0.63
11
1.28787
21
0.57
0
LINE
8
BLACK
6
CONTINUOUS
10
1.28787
20
0.57
11
1.28727
21
0.566987
0
LINE
8
BLACK
6
CONTINUOUS
10
1.28727
20
0.566987
11
1.28557
21
0.564432
0
LINE
8
BLACK
6
CONTINUOUS
10
1.28557
20
0.564432
11
1.28301
21
0.562725
0
LINE
8
BLACK
6
CONTINUOUS
10
1.28301
20
0.562725
11
1.28
21
0.562126
0
LINE
8
BLACK
6
CONTINUOUS
10
1.28
20
0.562126
11
1.22
21
0.562126
0
LINE
8
BLACK
6
CONTINUOUS
10
1.22
20
0.562126
11
1.21699
21
0.562725
0
LINE
8
BLACK
6
CONTINUOUS
10
1.21699
20
0.562725
11
1.21443
21
0.564432
0
LINE
8
BLACK
6
CONTINUOUS
10
1.21443
20
0.564432
11
1.21273
21
0.566987
0
LINE
8
BLACK
6
CONTINUOUS
10
1.21273
20
0.566987
11
1.21213
21
0.57
0
LINE
8
BLACK
6
CONTINUOUS
10
1.21213
20
0.57
11
1.21213
21
0.63
0
LINE
8
BLACK
6
CONTINUOUS
10
1.21213
20
0.63
11
1.21273
21
0.633013
0
LINE
8
BLACK
6
CONTINUOUS
10
1.21273
20
0.633013
11
1.21443
21
0.635568
0
LINE
8
BLACK
6
CONTINUOUS
10
1.21443
20
0.635568
11
1.21699
21
0.637275
0
LINE
8
BLACK
6
CONTINUOUS
10
1.21699
20
0.637275
11
1.22
21
0.637874
0
LINE
8
BLACK
6
CONTINUOUS
10
1.22
20
0.637874
11
1.28
21
0.637874
0
LINE
8
BLACK
6
CONTINUOUS
10
1.28
20
0.637874
11
1.28301
21
0.637275
0
LINE
8
BLACK
6
CONTINUOUS
10
1.18301
20
0.637275
11
1.18557
21
0.635568
0
LINE
8
BLACK
6
CONTINUOUS
10
1.18557
20
0.635568
11
1.18727
21
0.633013
0
LINE
8
BLACK
6
CONTINUOUS
10
1.18727
20
0.633013
11
1.18787
21
0.63
0
LINE
8
BLACK
6
CONTINUOUS
10
1.18787
20
0.63
11
1.18787
21
0.57
0
LINE
8
BLACK
6
CONTINUOUS
10
1.18787
20
0.57
11
1.18727
21
0.566987
0
LINE
8
BLACK
6
CONTINUOUS
10
1.18727
20
0.566987
11
1.18557
21
0.564432
0
LINE
8
BLACK
6
CONTINUOUS
10
1.18557
20
0.564432
11
1.18301
21
0.562725
0
LINE
8
BLACK
6
CONTINUOUS
10
1.18301
20
0.562725
11
1.18
21
0.562126
0
LINE
8
BLACK
6
CONTINUOUS
10
1.18
20
0.562126
11
1.12
21
0.562126
0
LINE
8
BLACK
6
CONTINUOUS
10
1.12
20
0.562126
11
1.11699
21
0.562725
0
LINE
8
BLACK
6
CONTINUOUS
10
1.11699
20
0.562725
11
1.11443
21
0.564432
0
LINE
8
BLACK
6
CONTINUOUS
10
1.11443
20
0.564432
11
1.11273
21
0.566987
0
LINE
8
BLACK
6
CONTINUOUS
10
1.11273
20
0.566987
11
1.11213
21
0.57
0
LINE
8
BLACK
6
CONTINUOUS
10
1.11213
20
0.57
11
1.11213
21
0.63
0
LINE
8
BLACK
6
CONTINUOUS
10
1.11213
20
0.63
11
1.11273
21
0.633013
0
LINE
8
BLACK
6
CONTINUOUS
10
1.11273
20
0.633013
11
1.11443
21
0.635568
0
LINE
8
BLACK
6
CONTINUOUS
10
1.11443
20
0.635568
11
1.11699
21
0.637275
0
LINE
8
BLACK
6
CONTINUOUS
10
1.11699
20
0.637275
11
1.12
21
0.637874
0
LINE
8
BLACK
6
CONTINUOUS
10
1.12
20
0.637874
11
1.18
21
0.637874
0
LINE
8
BLACK
6
CONTINUOUS
10
1.18
20
0.637874
11
1.18301
21
0.637275
0
LINE
8
BLACK
6
CONTINUOUS
10
0.014917
20
0.925098
11
0.0287686
21
0.922656
0
LINE
8
BLACK
6
CONTINUOUS
10
0.0287686
20
0.922656
11
0.0422616
21
0.918684
0
LINE
8
BLACK
6
CONTINUOUS
10
0.0422616
20
0.918684
11
0.0552279
21
0.913234
0
LINE
8
BLACK
6
CONTINUOUS
10
0.0552279
20
0.913234
11
0.0675057
21
0.906372
0
LINE
8
BLACK
6
CONTINUOUS
10
0.0675057
20
0.906372
11
0.0789422
21
0.898184
0
LINE
8
BLACK
6
CONTINUOUS
10
0.0789422
20
0.898184
11
0.0893947
21
0.888773
0
LINE
8
BLACK
6
CONTINUOUS
10
0.0893947
20
0.888773
11
0.098733
21
0.878255
0
LINE
8
BLACK
6
CONTINUOUS
10
0.098733
20
0.878255
11
0.106841
21
0.866761
0
LINE
8
BLACK
6
CONTINUOUS
10
0.106841
20
0.866761
11
0.113617
21
0.854436
0
LINE
8
BLACK
6
CONTINUOUS
10
0.113617
20
0.854436
11
0.118977
21
0.841432
0
LINE
8
BLACK
6
CONTINUOUS
10
0.118977
20
0.841432
11
0.122853
21
0.827912
0
LINE
8
BLACK
6
CONTINUOUS
10
0.122853
20
0.827912
11
0.125199
21
0.814043
0
LINE
8
BLACK
6
CONTINUOUS
10
0.125199
20
0.814043
11
0.125984
21
0.8
0
LINE
8
BLACK
6
CONTINUOUS
10
0.125984
20
0.8
11
0.125935
21
0.796482
0
LINE
8
BLACK
6
CONTINUOUS
10
0.125935
20
0.796482
11
0.124758
21
0.782466
0
LINE
8
BLACK
6
CONTINUOUS
10
0.124758
20
0.782466
11
0.122026
21
0.768669
0
LINE
8
BLACK
6
CONTINUOUS
10
0.122026
20
0.768669
11
0.117773
21
0.755262
0
LINE
8
BLACK
6
CONTINUOUS
10
0.117773
20
0.755262
11
0.112052
21
0.742413
0
LINE
8
BLACK
6
CONTINUOUS
10
0.112052
20
0.742413
11
0.104935
21
0.730281
0
LINE
8
BLACK
6
CONTINUOUS
10
0.104935
20
0.730281
11
0.0965095
21
0.719019
0
LINE
8
BLACK
6
CONTINUOUS
10
0.0965095
20
0.719019
11
0.0868812
21
0.708766
0
LINE
8
BLACK
6
CONTINUOUS
10
0.0868812
20
0.708766
11
0.07617
21
0.69965
0
LINE
8
BLACK
6
CONTINUOUS
10
0.07617
20
0.69965
11
0.0645093
21
0.691785
0
LINE
8
BLACK
6
CONTINUOUS
10
0.0645093
20
0.691785
11
0.0520446
21
0.685268
0
LINE
8
BLACK
6
CONTINUOUS
10
0.0520446
20
0.685268
11
0.0389313
21
0.680182
0
LINE
8
BLACK
6
CONTINUOUS
10
0.0389313
20
0.680182
11
0.0253326
21
0.676589
0
LINE
8
BLACK
6
CONTINUOUS
10
0.0253326
20
0.676589
11
0.0114183
21
0.674534
0
LINE
8
BLACK
6
CONTINUOUS
10
0.0114183
20
0.674534
11
-0.00263843
21
0.674043
0
LINE
8
BLACK
6
CONTINUOUS
10
-0.00263843
20
0.674043
11
-0.0166622
21
0.675122
0
LINE
8
BLACK
6
CONTINUOUS
10
-0.0166622
20
0.675122
11
-0.0304783
21
0.677758
0
LINE
8
BLACK
6
CONTINUOUS
10
-0.0304783
20
0.677758
11
-0.0439146
21
0.681917
0
LINE
8
BLACK
6
CONTINUOUS
10
-0.0439146
20
0.681917
11
-0.0568035
21
0.687548
0
LINE
8
BLACK
6
CONTINUOUS
10
-0.0568035
20
0.687548
11
-0.0689843
21
0.694581
0
LINE
8
BLACK
6
CONTINUOUS
10
-0.0689843
20
0.694581
11
-0.0803054
21
0.702927
0
LINE
8
BLACK
6
CONTINUOUS
10
-0.0803054
20
0.702927
11
-0.0906255
21
0.712484
0
LINE
8
BLACK
6
CONTINUOUS
10
-0.0906255
20
0.712484
11
-0.099816
21
0.723131
0
LINE
8
BLACK
6
CONTINUOUS
10
-0.099816
20
0.723131
11
-0.107762
21
0.734737
0
LINE
8
BLACK
6
CONTINUOUS
10
-0.107762
20
0.734737
11
-0.114366
21
0.747156
0
LINE
8
BLACK
6
CONTINUOUS
10
-0.114366
20
0.747156
11
-0.119543
21
0.760233
0
LINE
8
BLACK
6
CONTINUOUS
10
-0.119543
20
0.760233
11
-0.123231
21
0.773806
0
LINE
8
BLACK
6
CONTINUOUS
10
-0.123231
20
0.773806
11
-0.125383
21
0.787706
0
LINE
8
BLACK
6
CONTINUOUS
10
-0.125383
20
0.787706
11
-0.125972
21
0.801759
0
LINE
8
BLACK
6
CONTINUOUS
10
-0.125972
20
0.801759
11
-0.124991
21
0.81579
0
LINE
8
BLACK
6
CONTINUOUS
10
-0.124991
20
0.81579
11
-0.122452
21
0.829624
0
LINE
8
BLACK
6
CONTINUOUS
10
-0.122452
20
0.829624
11
-0.118386
21
0.843089
0
LINE
8
BLACK
6
CONTINUOUS
10
-0.118386
20
0.843089
11
-0.112846
21
0.856017
0
LINE
8
BLACK
6
CONTINUOUS
10
-0.112846
20
0.856017
11
-0.105898
21
0.868247
0
LINE
8
BLACK
6
CONTINUOUS
10
-0.105898
20
0.868247
11
-0.0976308
21
0.879626
0
LINE
8
BLACK
6
CONTINUOUS
10
-0.0976308
20
0.879626
11
-0.0881466
21
0.890012
0
LINE
8
BLACK
6
CONTINUOUS
10
-0.0881466
20
0.890012
11
-0.0775637
21
0.899277
0
LINE
8
BLACK
6
CONTINUOUS
10
-0.0775637
20
0.899277
11
-0.066014
21
0.907304
0
LINE
8
BLACK
6
CONTINUOUS
10
-0.066014
20
0.907304
11
-0.0536415
21
0.913994
0
LINE
8
BLACK
6
CONTINUOUS
10
-0.0536415
20
0.913994
11
-0.0406004
21
0.919263
0
LINE
8
BLACK
6
CONTINUOUS
10
-0.0406004
20
0.919263
11
-0.0270533
21
0.923045
0
LINE
8
BLACK
6
CONTINUOUS
10
-0.0270533
20
0.923045
11
-0.0131689
21
0.925294
0
LINE
8
BLACK
6
CONTINUOUS
10
-0.0131689
20
0.925294
11
0.000879528
21
0.925981
0
LINE
8
BLACK
6
CONTINUOUS
10
0.000879528
20
0.925981
11
0.014917
21
0.925098
0
LINE
8
BLACK
6
CONTINUOUS
10
1.21492
20
0.925098
11
1.22877
21
0.922656
0
LINE
8
BLACK
6
CONTINUOUS
10
1.22877
20
0.922656
11
1.24226
21
0.918684
0
LINE
8
BLACK
6
CONTINUOUS
10
1.24226
20
0.918684
11
1.25523
21
0.913234
0
LINE
8
BLACK
6
CONTINUOUS
10
1.25523
20
0.913234
11
1.26751
21
0.906372
0
LINE
8
BLACK
6
CONTINUOUS
10
1.26751
20
0.906372
11
1.27894
21
0.898184
0
LINE
8
BLACK
6
CONTINUOUS
10
1.27894
20
0.898184
11
1.28939
21
0.888773
0
LINE
8
BLACK
6
CONTINUOUS
10
1.28939
20
0.888773
11
1.29873
21
0.878255
0
LINE
8
BLACK
6
CONTINUOUS
10
1.29873
20
0.878255
11
1.30684
21
0.866761
0
LINE
8
BLACK
6
CONTINUOUS
10
1.30684
20
0.866761
11
1.31362
21
0.854436
0
LINE
8
BLACK
6
CONTINUOUS
10
1.31362
20
0.854436
11
1.31898
21
0.841432
0
LINE
8
BLACK
6
CONTINUOUS
10
1.31898
20
0.841432
11
1.32285
21
0.827912
0
LINE
8
BLACK
6
CONTINUOUS
10
1.32285
20
0.827912
11
1.3252
21
0.814043
0
LINE
8
BLACK
6
CONTINUOUS
10
1.3252
20
0.814043
11
1.32598
21
0.8
0
LINE
8
BLACK
6
CONTINUOUS
10
1.32598
20
0.8
11
1.32594
21
0.796482
0
LINE
8
BLACK
6
CONTINUOUS
10
1.32594
20
0.796482
11
1.32476
21
0.782466
0
LINE
8
BLACK
6
CONTINUOUS
10
1.32476
20
0.782466
11
1.32203
21
0.768669
0
LINE
8
BLACK
6
CONTINUOUS
10
1.32203
20
0.768669
11
1.31777
21
0.755262
0
LINE
8
BLACK
6
CONTINUOUS
10
1.31777
20
0.755262
11
1.31205
21
0.742413
0
LINE
8
BLACK
6
CONTINUOUS
10
1.31205
20
0.742413
11
1.30493
21
0.730281
0
LINE
8
BLACK
6
CONTINUOUS
10
1.30493
20
0.730281
11
1.29651
21
0.719019
0
LINE
8
BLACK
6
CONTINUOUS
10
1.29651
20
0.719019
11
1.28688
21
0.708766
0
LINE
8
BLACK
6
CONTINUOUS
10
1.28688
20
0.708766
11
1.27617
21
0.69965
0
LINE
8
BLACK
6
CONTINUOUS
10
1.27617
20
0.69965
11
1.26451
21
0.691785
0
LINE
8
BLACK
6
CONTINUOUS
10
1.26451
20
0.691785
11
1.25204
21
0.685268
0
LINE
8
BLACK
6
CONTINUOUS
10
1.25204
20
0.685268
11
1.23893
21
0.680182
0
LINE
8
BLACK
6
CONTINUOUS
10
1.23893
20
0.680182
11
1.22533
21
0.676589
0
LINE
8
BLACK
6
CONTINUOUS
10
1.22533
20
0.676589
11
1.21142
21
0.674534
0
LINE
8
BLACK
6
CONTINUOUS
10
1.21142
20
0.674534
11
1.19736
21
0.674043
0
LINE
8
BLACK
6
CONTINUOUS
10
1.19736
20
0.674043
11
1.18334
21
0.675122
0
LINE
8
BLACK
6
CONTINUOUS
10
1.18334
20
0.675122
11
1.16952
21
0.677758
0
LINE
8
BLACK
6
CONTINUOUS
10
1.16952
20
0.677758
11
1.15609
21
0.681917
0
LINE
8
BLACK
6
CONTINUOUS
10
1.15609
20
0.681917
11
1.1432
21
0.687548
0
LINE
8
BLACK
6
CONTINUOUS
10
1.1432
20
0.687548
11
1.13102
21
0.694581
0
LINE
8
BLACK
6
CONTINUOUS
10
1.13102
20
0.694581
11
1.11969
21
0.702927
0
LINE
8
BLACK
6
CONTINUOUS
10
1.11969
20
0.702927
11
1.10937
21
0.712484
0
LINE
8
BLACK
6
CONTINUOUS
10
1.10937
20
0.712484
11
1.10018
21
0.723131
0
LINE
8
BLACK
6
CONTINUOUS
10
1.10018
20
0.723131
11
1.09224
21
0.734737
0
LINE
8
BLACK
6
CONTINUOUS
10
1.09224
20
0.734737
11
1.08563
21
0.747156
0
LINE
8
BLACK
6
CONTINUOUS
10
1.08563
20
0.747156
11
1.08046
21
0.760233
0
LINE
8
BLACK
6
CONTINUOUS
10
1.08046
20
0.760233
11
1.07677
21
0.773806
0
LINE
8
BLACK
6
CONTINUOUS
10
1.07677
20
0.773806
11
1.07462
21
0.787706
0
LINE
8
BLACK
6
CONTINUOUS
10
1.07462
20
0.787706
11
1.07403
21
0.801759
0
LINE
8
BLACK
6
CONTINUOUS
10
1.07403
20
0.801759
11
1.07501
21
0.81579
0
LINE
8
BLACK
6
CONTINUOUS
10
1.07501
20
0.81579
11
1.07755
21
0.829624
0
LINE
8
BLACK
6
CONTINUOUS
10
1.07755
20
0.829624
11
1.08161
21
0.843089
0
LINE
8
BLACK
6
CONTINUOUS
10
1.08161
20
0.843089
11
1.08715
21
0.856017
0
LINE
8
BLACK
6
CONTINUOUS
10
1.08715
20
0.856017
11
1.0941
21
0.868247
0
LINE
8
BLACK
6
CONTINUOUS
10
1.0941
20
0.868247
11
1.10237
21
0.879626
0
LINE
8
BLACK
6
CONTINUOUS
10
1.10237
20
0.879626
11
1.11185
21
0.890012
0
LINE
8
BLACK
6
CONTINUOUS
10
1.11185
20
0.890012
11
1.12244
21
0.899277
0
LINE
8
BLACK
6
CONTINUOUS
10
1.12244
20
0.899277
11
1.13399
21
0.907304
0
LINE
8
BLACK
6
CONTINUOUS
10
1.13399
20
0.907304
11
1.14636
21
0.913994
0
LINE
8
BLACK
6
CONTINUOUS
10
1.14636
20
0.913994
11
1.1594
21
0.919263
0
LINE
8
BLACK
6
CONTINUOUS
10
1.1594
20
0.919263
11
1.17295
21
0.923045
0
LINE
8
BLACK
6
CONTINUOUS
10
1.17295
20
0.923045
11
1.18683
21
0.925294
0
LINE
8
BLACK
6
CONTINUOUS
10
1.18683
20
0.925294
11
1.20088
21
0.925981
0
LINE
8
BLACK
6
CONTINUOUS
10
1.20088
20
0.925981
11
1.21492
21
0.925098
0
LINE
8
BLACK
6
CONTINUOUS
10
0.533013
20
0.787275
11
0.535568
21
0.785568
0
LINE
8
BLACK
6
CONTINUOUS
10
0.535568
20
0.785568
11
0.537275
21
0.783013
0
LINE
8
BLACK
6
CONTINUOUS
10
0.537275
20
0.783013
11
0.537874
21
0.78
0
LINE
8
BLACK
6
CONTINUOUS
10
0.537874
20
0.78
11
0.537874
21
0.72
0
LINE
8
BLACK
6
CONTINUOUS
10
0.537874
20
0.72
11
0.537275
21
0.716987
0
LINE
8
BLACK
6
CONTINUOUS
10
0.537275
20
0.716987
11
0.535568
21
0.714432
0
LINE
8
BLACK
6
CONTINUOUS
10
0.535568
20
0.714432
11
0.533013
21
0.712725
0
LINE
8
BLACK
6
CONTINUOUS
10
0.533013
20
0.712725
11
0.53
21
0.712126
0
LINE
8
BLACK
6
CONTINUOUS
10
0.53
20
0.712126
11
0.47
21
0.712126
0
LINE
8
BLACK
6
CONTINUOUS
10
0.47
20
0.712126
11
0.466987
21
0.712725
0
LINE
8
BLACK
6
CONTINUOUS
10
0.466987
20
0.712725
11
0.464432
21
0.714432
0
LINE
8
BLACK
6
CONTINUOUS
10
0.464432
20
0.714432
11
0.462725
21
0.716987
0
LINE
8
BLACK
6
CONTINUOUS
10
0.462725
20
0.716987
11
0.462126
21
0.72
0
LINE
8
BLACK
6
CONTINUOUS
10
0.462126
20
0.72
11
0.462126
21
0.78
0
LINE
8
BLACK
6
CONTINUOUS
10
0.462126
20
0.78
11
0.462725
21
0.783013
0
LINE
8
BLACK
6
CONTINUOUS
10
0.462725
20
0.783013
11
0.464432
21
0.785568
0
LINE
8
BLACK
6
CONTINUOUS
10
0.464432
20
0.785568
11
0.466987
21
0.787275
0
LINE
8
BLACK
6
CONTINUOUS
10
0.466987
20
0.787275
11
0.47
21
0.787874
0
LINE
8
BLACK
6
CONTINUOUS
10
0.47
20
0.787874
11
0.53
21
0.787874
0
LINE
8
BLACK
6
CONTINUOUS
10
0.53
20
0.787874
11
0.533013
21
0.787275
0
LINE
8
BLACK
6
CONTINUOUS
10
1.03301
20
0.787275
11
1.03557
21
0.785568
0
LINE
8
BLACK
6
CONTINUOUS
10
1.03557
20
0.785568
11
1.03727
21
0.783013
0
LINE
8
BLACK
6
CONTINUOUS
10
1.03727
20
0.783013
11
1.03787
21
0.78
0
LINE
8
BLACK
6
CONTINUOUS
10
1.03787
20
0.78
11
1.03787
21
0.72
0
LINE
8
BLACK
6
CONTINUOUS
10
1.03787
20
0.72
11
1.03727
21
0.716987
0
LINE
8
BLACK
6
CONTINUOUS
10
1.03727
20
0.716987
11
1.03557
21
0.714432
0
LINE
8
BLACK
6
CONTINUOUS
10
1.03557
20
0.714432
11
1.03301
21
0.712725
0
LINE
8
BLACK
6
CONTINUOUS
10
1.03301
20
0.712725
11
1.03
21
0.712126
0
LINE
8
BLACK
6
CONTINUOUS
10
1.03
20
0.712126
11
0.97
21
0.712126
0
LINE
8
BLACK
6
CONTINUOUS
10
0.97
20
0.712126
11
0.966987
21
0.712725
0
LINE
8
BLACK
6
CONTINUOUS
10
0.966987
20
0.712725
11
0.964432
21
0.714432
0
LINE
8
BLACK
6
CONTINUOUS
10
0.964432
20
0.714432
11
0.962725
21
0.716987
0
LINE
8
BLACK
6
CONTINUOUS
10
0.962725
20
0.716987
11
0.962126
21
0.72
0
LINE
8
BLACK
6
CONTINUOUS
10
0.962126
20
0.72
11
0.962126
21
0.78
0
LINE
8
BLACK
6
CONTINUOUS
10
0.962126
20
0.78
11
0.962725
21
0.783013
0
LINE
8
BLACK
6
CONTINUOUS
10
0.962725
20
0.783013
11
0.964432
21
0.785568
0
LINE
8
BLACK
6
CONTINUOUS
10
0.964432
20
0.785568
11
0.966987
21
0.787275
0
LINE
8
BLACK
6
CONTINUOUS
10
0.966987
20
0.787275
11
0.97
21
0.787874
0
LINE
8
BLACK
6
CONTINUOUS
10
0.97
20
0.787874
11
1.03
21
0.787874
0
LINE
8
BLACK
6
CONTINUOUS
10
1.03
20
0.787874
11
1.03301
21
0.787275
0
LINE
8
BLACK
6
CONTINUOUS
10
0.833013
20
0.787275
11
0.835568
21
0.785568
0
LINE
8
BLACK
6
CONTINUOUS
10
0.835568
20
0.785568
11
0.837275
21
0.783013
0
LINE
8
BLACK
6
CONTINUOUS
10
0.837275
20
0.783013
11
0.837874
21
0.78
0
LINE
8
BLACK
6
CONTINUOUS
10
0.837874
20
0.78
11
0.837874
21
0.72
0
LINE
8
BLACK
6
CONTINUOUS
10
0.837874
20
0.72
11
0.837275
21
0.716987
0
LINE
8
BLACK
6
CONTINUOUS
10
0.837275
20
0.716987
11
0.835568
21
0.714432
0
LINE
8
BLACK
6
CONTINUOUS
10
0.835568
20
0.714432
11
0.833013
21
0.712725
0
LINE
8
BLACK
6
CONTINUOUS
10
0.833013
20
0.712725
11
0.83
21
0.712126
0
LINE
8
BLACK
6
CONTINUOUS
10
0.83
20
0.712126
11
0.77
21
0.712126
0
LINE
8
BLACK
6
CONTINUOUS
10
0.77
20
0.712126
11
0.766987
21
0.712725
0
LINE
8
BLACK
6
CONTINUOUS
10
0.766987
20
0.712725
11
0.764432
21
0.714432
0
LINE
8
BLACK
6
CONTINUOUS
10
0.764432
20
0.714432
11
0.762725
21
0.716987
0
LINE
8
BLACK
6
CONTINUOUS
10
0.762725
20
0.716987
11
0.762126
21
0.72
0
LINE
8
BLACK
6
CONTINUOUS
10
0.762126
20
0.72
11
0.762126
21
0.78
0
LINE
8
BLACK
6
CONTINUOUS
10
0.762126
20
0.78
11
0.762725
21
0.783013
0
LINE
8
BLACK
6
CONTINUOUS
10
0.762725
20
0.783013
11
0.764432
21
0.785568
0
LINE
8
BLACK
6
CONTINUOUS
10
0.764432
20
0.785568
11
0.766987
21
0.787275
0
LINE
8
BLACK
6
CONTINUOUS
10
0.766987
20
0.787275
11
0.77
21
0.787874
0
LINE
8
BLACK
6
CONTINUOUS
10
0.77
20
0.787874
11
0.83
21
0.787874
0
LINE
8
BLACK
6
CONTINUOUS
10
0.83
20
0.787874
11
0.833013
21
0.787275
0
LINE
8
BLACK
6
CONTINUOUS
10
0.933013
20
0.787275
11
0.935568
21
0.785568
0
LINE
8
BLACK
6
CONTINUOUS
10
0.935568
20
0.785568
11
0.937275
21
0.783013
0
LINE
8
BLACK
6
CONTINUOUS
10
0.937275
20
0.783013
11
0.937874
21
0.78
0
LINE
8
BLACK
6
CONTINUOUS
10
0.937874
20
0.78
11
0.937874
21
0.72
0
LINE
8
BLACK
6
CONTINUOUS
10
0.937874
20
0.72
11
0.937275
21
0.716987
0
LINE
8
BLACK
6
CONTINUOUS
10
0.937275
20
0.716987
11
0.935568
21
0.714432
0
LINE
8
BLACK
6
CONTINUOUS
10
0.935568
20
0.714432
11
0.933013
21
0.712725
0
LINE
8
BLACK
6
CONTINUOUS
10
0.933013
20
0.712725
11
0.93
21
0.712126
0
LINE
8
BLACK
6
CONTINUOUS
10
0.93
20
0.712126
11
0.87
21
0.712126
0
LINE
8
BLACK
6
CONTINUOUS
10
0.87
20
0.712126
11
0.866987
21
0.712725
0
LINE
8
BLACK
6
CONTINUOUS
10
0.866987
20
0.712725
11
0.864432
21
0.714432
0
LINE
8
BLACK
6
CONTINUOUS
10
0.864432
20
0.714432
11
0.862725
21
0.716987
0
LINE
8
BLACK
6
CONTINUOUS
10
0.862725
20
0.716987
11
0.862126
21
0.72
0
LINE
8
BLACK
6
CONTINUOUS
10
0.862126
20
0.72
11
0.862126
21
0.78
0
LINE
8
BLACK
6
CONTINUOUS
10
0.862126
20
0.78
11
0.862725
21
0.783013
0
LINE
8
BLACK
6
CONTINUOUS
10
0.862725
20
0.783013
11
0.864432
21
0.785568
0
LINE
8
BLACK
6
CONTINUOUS
10
0.864432
20
0.785568
11
0.866987
21
0.787275
0
LINE
8
BLACK
6
CONTINUOUS
10
0.866987
20
0.787275
11
0.87
21
0.787874
0
LINE
8
BLACK
6
CONTINUOUS
10
0.87
20
0.787874
11
0.93
21
0.787874
0
LINE
8
BLACK
6
CONTINUOUS
10
0.93
20
0.787874
11
0.933013
21
0.787275
0
LINE
8
BLACK
6
CONTINUOUS
10
0.733013
20
0.787275
11
0.735568
21
0.785568
0
LINE
8
BLACK
6
CONTINUOUS
10
0.735568
20
0.785568
11
0.737275
21
0.783013
0
LINE
8
BLACK
6
CONTINUOUS
10
0.737275
20
0.783013
11
0.737874
21
0.78
0
LINE
8
BLACK
6
CONTINUOUS
10
0.737874
20
0.78
11
0.737874
21
0.72
0
LINE
8
BLACK
6
CONTINUOUS
10
0.737874
20
0.72
11
0.737275
21
0.716987
0
LINE
8
BLACK
6
CONTINUOUS
10
0.737275
20
0.716987
11
0.735568
21
0.714432
0
LINE
8
BLACK
6
CONTINUOUS
10
0.735568
20
0.714432
11
0.733013
21
0.712725
0
LINE
8
BLACK
6
CONTINUOUS
10
0.733013
20
0.712725
11
0.73
21
0.712126
0
LINE
8
BLACK
6
CONTINUOUS
10
0.73
20
0.712126
11
0.67
21
0.712126
0
LINE
8
BLACK
6
CONTINUOUS
10
0.67
20
0.712126
11
0.666987
21
0.712725
0
LINE
8
BLACK
6
CONTINUOUS
10
0.666987
20
0.712725
11
0.664432
21
0.714432
0
LINE
8
BLACK
6
CONTINUOUS
10
0.664432
20
0.714432
11
0.662725
21
0.716987
0
LINE
8
BLACK
6
CONTINUOUS
10
0.662725
20
0.716987
11
0.662126
21
0.72
0
LINE
8
BLACK
6
CONTINUOUS
10
0.662126
20
0.72
11
0.662126
21
0.78
0
LINE
8
BLACK
6
CONTINUOUS
10
0.662126
20
0.78
11
0.662725
21
0.783013
0
LINE
8
BLACK
6
CONTINUOUS
10
0.662725
20
0.783013
11
0.664432
21
0.785568
0
LINE
8
BLACK
6
CONTINUOUS
10
0.664432
20
0.785568
11
0.666987
21
0.787275
0
LINE
8
BLACK
6
CONTINUOUS
10
0.666987
20
0.787275
11
0.67
21
0.787874
0
LINE
8
BLACK
6
CONTINUOUS
10
0.67
20
0.787874
11
0.73
21
0.787874
0
LINE
8
BLACK
6
CONTINUOUS
10
0.73
20
0.787874
11
0.733013
21
0.787275
0
LINE
8
BLACK
6
CONTINUOUS
10
0.433013
20
0.787275
11
0.435568
21
0.785568
0
LINE
8
BLACK
6
CONTINUOUS
10
0.435568
20
0.785568
11
0.437275
21
0.783013
0
LINE
8
BLACK
6
CONTINUOUS
10
0.437275
20
0.783013
11
0.437874
21
0.78
0
LINE
8
BLACK
6
CONTINUOUS
10
0.437874
20
0.78
11
0.437874
21
0.72
0
LINE
8
BLACK
6
CONTINUOUS
10
0.437874
20
0.72
11
0.437275
21
0.716987
0
LINE
8
BLACK
6
CONTINUOUS
10
0.437275
20
0.716987
11
0.435568
21
0.714432
0
LINE
8
BLACK
6
CONTINUOUS
10
0.435568
20
0.714432
11
0.433013
21
0.712725
0
LINE
8
BLACK
6
CONTINUOUS
10
0.433013
20
0.712725
11
0.43
21
0.712126
0
LINE
8
BLACK
6
CONTINUOUS
10
0.43
20
0.712126
11
0.37
21
0.712126
0
LINE
8
BLACK
6
CONTINUOUS
10
0.37
20
0.712126
11
0.366987
21
0.712725
0
LINE
8
BLACK
6
CONTINUOUS
10
0.366987
20
0.712725
11
0.364432
21
0.714432
0
LINE
8
BLACK
6
CONTINUOUS
10
0.364432
20
0.714432
11
0.362725
21
0.716987
0
LINE
8
BLACK
6
CONTINUOUS
10
0.362725
20
0.716987
11
0.362126
21
0.72
0
LINE
8
BLACK
6
CONTINUOUS
10
0.362126
20
0.72
11
0.362126
21
0.78
0
LINE
8
BLACK
6
CONTINUOUS
10
0.362126
20
0.78
11
0.362725
21
0.783013
0
LINE
8
BLACK
6
CONTINUOUS
10
0.362725
20
0.783013
11
0.364432
21
0.785568
0
LINE
8
BLACK
6
CONTINUOUS
10
0.364432
20
0.785568
11
0.366987
21
0.787275
0
LINE
8
BLACK
6
CONTINUOUS
10
0.366987
20
0.787275
11
0.37
21
0.787874
0
LINE
8
BLACK
6
CONTINUOUS
10
0.37
20
0.787874
11
0.43
21
0.787874
0
LINE
8
BLACK
6
CONTINUOUS
10
0.43
20
0.787874
11
0.433013
21
0.787275
0
LINE
8
BLACK
6
CONTINUOUS
10
0.633013
20
0.787275
11
0.635568
21
0.785568
0
LINE
8
BLACK
6
CONTINUOUS
10
0.635568
20
0.785568
11
0.637275
21
0.783013
0
LINE
8
BLACK
6
CONTINUOUS
10
0.637275
20
0.783013
11
0.637874
21
0.78
0
LINE
8
BLACK
6
CONTINUOUS
10
0.637874
20
0.78
11
0.637874
21
0.72
0
LINE
8
BLACK
6
CONTINUOUS
10
0.637874
20
0.72
11
0.637275
21
0.716987
0
LINE
8
BLACK
6
CONTINUOUS
10
0.637275
20
0.716987
11
0.635568
21
0.714432
0
LINE
8
BLACK
6
CONTINUOUS
10
0.635568
20
0.714432
11
0.633013
21
0.712725
0
LINE
8
BLACK
6
CONTINUOUS
10
0.633013
20
0.712725
11
0.63
21
0.712126
0
LINE
8
BLACK
6
CONTINUOUS
10
0.63
20
0.712126
11
0.57
21
0.712126
0
LINE
8
BLACK
6
CONTINUOUS
10
0.57
20
0.712126
11
0.566987
21
0.712725
0
LINE
8
BLACK
6
CONTINUOUS
10
0.566987
20
0.712725
11
0.564432
21
0.714432
0
LINE
8
BLACK
6
CONTINUOUS
10
0.564432
20
0.714432
11
0.562725
21
0.716987
0
LINE
8
BLACK
6
CONTINUOUS
10
0.562725
20
0.716987
11
0.562126
21
0.72
0
LINE
8
BLACK
6
CONTINUOUS
10
0.562126
20
0.72
11
0.562126
21
0.78
0
LINE
8
BLACK
6
CONTINUOUS
10
0.562126
20
0.78
11
0.562725
21
0.783013
0
LINE
8
BLACK
6
CONTINUOUS
10
0.562725
20
0.783013
11
0.564432
21
0.785568
0
LINE
8
BLACK
6
CONTINUOUS
10
0.564432
20
0.785568
11
0.566987
21
0.787275
0
LINE
8
BLACK
6
CONTINUOUS
10
0.566987
20
0.787275
11
0.57
21
0.787874
0
LINE
8
BLACK
6
CONTINUOUS
10
0.57
20
0.787874
11
0.63
21
0.787874
0
LINE
8
BLACK
6
CONTINUOUS
10
0.63
20
0.787874
11
0.633013
21
0.787275
0
LINE
8
BLACK
6
CONTINUOUS
10
0.259229
20
0.852342
11
0.268178
21
0.849944
0
LINE
8
BLACK
6
CONTINUOUS
10
0.268178
20
0.849944
11
0.276575
21
0.846029
0
LINE
8
BLACK
6
CONTINUOUS
10
0.276575
20
0.846029
11
0.284164
21
0.840715
0
LINE
8
BLACK
6
CONTINUOUS
10
0.284164
20
0.840715
11
0.290715
21
0.834164
0
LINE
8
BLACK
6
CONTINUOUS
10
0.290715
20
0.834164
11
0.296029
21
0.826575
0
LINE
8
BLACK
6
CONTINUOUS
10
0.296029
20
0.826575
11
0.299944
21
0.818178
0
LINE
8
BLACK
6
CONTINUOUS
10
0.299944
20
0.818178
11
0.302342
21
0.809229
0
LINE
8
BLACK
6
CONTINUOUS
10
0.302342
20
0.809229
11
0.30315
21
0.8
0
LINE
8
BLACK
6
CONTINUOUS
10
0.30315
20
0.8
11
0.302342
21
0.790771
0
LINE
8
BLACK
6
CONTINUOUS
10
0.302342
20
0.790771
11
0.299944
21
0.781822
0
LINE
8
BLACK
6
CONTINUOUS
10
0.299944
20
0.781822
11
0.296029
21
0.773425
0
LINE
8
BLACK
6
CONTINUOUS
10
0.296029
20
0.773425
11
0.290715
21
0.765836
0
LINE
8
BLACK
6
CONTINUOUS
10
0.290715
20
0.765836
11
0.284164
21
0.759285
0
LINE
8
BLACK
6
CONTINUOUS
10
0.284164
20
0.759285
11
0.276575
21
0.753971
0
LINE
8
BLACK
6
CONTINUOUS
10
0.276575
20
0.753971
11
0.268178
21
0.750056
0
LINE
8
BLACK
6
CONTINUOUS
10
0.268178
20
0.750056
11
0.259229
21
0.747658
0
LINE
8
BLACK
6
CONTINUOUS
10
0.259229
20
0.747658
11
0.25
21
0.74685
0
LINE
8
BLACK
6
CONTINUOUS
10
0.25
20
0.74685
11
0.240771
21
0.747658
0
LINE
8
BLACK
6
CONTINUOUS
10
0.240771
20
0.747658
11
0.231822
21
0.750056
0
LINE
8
BLACK
6
CONTINUOUS
10
0.231822
20
0.750056
11
0.223425
21
0.753971
0
LINE
8
BLACK
6
CONTINUOUS
10
0.223425
20
0.753971
11
0.215836
21
0.759285
0
LINE
8
BLACK
6
CONTINUOUS
10
0.215836
20
0.759285
11
0.209285
21
0.765836
0
LINE
8
BLACK
6
CONTINUOUS
10
0.209285
20
0.765836
11
0.203971
21
0.773425
0
LINE
8
BLACK
6
CONTINUOUS
10
0.203971
20
0.773425
11
0.200056
21
0.781822
0
LINE
8
BLACK
6
CONTINUOUS
10
0.200056
20
0.781822
11
0.197658
21
0.790771
0
LINE
8
BLACK
6
CONTINUOUS
10
0.197658
20
0.790771
11
0.19685
21
0.8
0
LINE
8
BLACK
6
CONTINUOUS
10
0.19685
20
0.8
11
0.197658
21
0.809229
0
LINE
8
BLACK
6
CONTINUOUS
10
0.197658
20
0.809229
11
0.200056
21
0.818178
0
LINE
8
BLACK
6
CONTINUOUS
10
0.200056
20
0.818178
11
0.203971
21
0.826575
0
LINE
8
BLACK
6
CONTINUOUS
10
0.203971
20
0.826575
11
0.209285
21
0.834164
0
LINE
8
BLACK
6
CONTINUOUS
10
0.209285
20
0.834164
11
0.215836
21
0.840715
0
LINE
8
BLACK
6
CONTINUOUS
10
0.215836
20
0.840715
11
0.223425
21
0.846029
0
LINE
8
BLACK
6
CONTINUOUS
10
0.223425
20
0.846029
11
0.231822
21
0.849944
0
LINE
8
BLACK
6
CONTINUOUS
10
0.231822
20
0.849944
11
0.240771
21
0.852342
0
LINE
8
BLACK
6
CONTINUOUS
10
0.240771
20
0.852342
11
0.25
21
0.85315
0
LINE
8
BLACK
6
CONTINUOUS
10
0.25
20
0.85315
11
0.259229
21
0.852342
0
LINE
8
BLACK
6
CONTINUOUS
10
0.433013
20
0.887275
11
0.435568
21
0.885568
0
LINE
8
BLACK
6
CONTINUOUS
10
0.435568
20
0.885568
11
0.437275
21
0.883013
0
LINE
8
BLACK
6
CONTINUOUS
10
0.437275
20
0.883013
11
0.437874
21
0.88
0
LINE
8
BLACK
6
CONTINUOUS
10
0.437874
20
0.88
11
0.437874
21
0.82
0
LINE
8
BLACK
6
CONTINUOUS
10
0.437874
20
0.82
11
0.437275
21
0.816987
0
LINE
8
BLACK
6
CONTINUOUS
10
0.437275
20
0.816987
11
0.435568
21
0.814432
0
LINE
8
BLACK
6
CONTINUOUS
10
0.435568
20
0.814432
11
0.433013
21
0.812725
0
LINE
8
BLACK
6
CONTINUOUS
10
0.433013
20
0.812725
11
0.43
21
0.812126
0
LINE
8
BLACK
6
CONTINUOUS
10
0.43
20
0.812126
11
0.37
21
0.812126
0
LINE
8
BLACK
6
CONTINUOUS
10
0.37
20
0.812126
11
0.366987
21
0.812725
0
LINE
8
BLACK
6
CONTINUOUS
10
0.366987
20
0.812725
11
0.364432
21
0.814432
0
LINE
8
BLACK
6
CONTINUOUS
10
0.364432
20
0.814432
11
0.362725
21
0.816987
0
LINE
8
BLACK
6
CONTINUOUS
10
0.362725
20
0.816987
11
0.362126
21
0.82
0
LINE
8
BLACK
6
CONTINUOUS
10
0.362126
20
0.82
11
0.362126
21
0.88
0
LINE
8
BLACK
6
CONTINUOUS
10
0.362126
20
0.88
11
0.362725
21
0.883013
0
LINE
8
BLACK
6
CONTINUOUS
10
0.362725
20
0.883013
11
0.364432
21
0.885568
0
LINE
8
BLACK
6
CONTINUOUS
10
0.364432
20
0.885568
11
0.366987
21
0.887275
0
LINE
8
BLACK
6
CONTINUOUS
10
0.366987
20
0.887275
11
0.37
21
0.887874
0
LINE
8
BLACK
6
CONTINUOUS
10
0.37
20
0.887874
11
0.43
21
0.887874
0
LINE
8
BLACK
6
CONTINUOUS
10
0.43
20
0.887874
11
0.433013
21
0.887275
0
LINE
8
BLACK
6
CONTINUOUS
10
0.633013
20
0.887275
11
0.635568
21
0.885568
0
LINE
8
BLACK
6
CONTINUOUS
10
0.635568
20
0.885568
11
0.637275
21
0.883013
0
LINE
8
BLACK
6
CONTINUOUS
10
0.637275
20
0.883013
11
0.637874
21
0.88
0
LINE
8
BLACK
6
CONTINUOUS
10
0.637874
20
0.88
11
0.637874
21
0.82
0
LINE
8
BLACK
6
CONTINUOUS
10
0.637874
20
0.82
11
0.637275
21
0.816987
0
LINE
8
BLACK
6
CONTINUOUS
10
0.637275
20
0.816987
11
0.635568
21
0.814432
0
LINE
8
BLACK
6
CONTINUOUS
10
0.635568
20
0.814432
11
0.633013
21
0.812725
0
LINE
8
BLACK
6
CONTINUOUS
10
0.633013
20
0.812725
11
0.63
21
0.812126
0
LINE
8
BLACK
6
CONTINUOUS
10
0.63
20
0.812126
11
0.57
21
0.812126
0
LINE
8
BLACK
6
CONTINUOUS
10
0.57
20
0.812126
11
0.566987
21
0.812725
0
LINE
8
BLACK
6
CONTINUOUS
10
0.566987
20
0.812725
11
0.564432
21
0.814432
0
LINE
8
BLACK
6
CONTINUOUS
10
0.564432
20
0.814432
11
0.562725
21
0.816987
0
LINE
8
BLACK
6
CONTINUOUS
10
0.562725
20
0.816987
11
0.562126
21
0.82
0
LINE
8
BLACK
6
CONTINUOUS
10
0.562126
20
0.82
11
0.562126
21
0.88
0
LINE
8
BLACK
6
CONTINUOUS
10
0.562126
20
0.88
11
0.562725
21
0.883013
0
LINE
8
BLACK
6
CONTINUOUS
10
0.562725
20
0.883013
11
0.564432
21
0.885568
0
LINE
8
BLACK
6
CONTINUOUS
10
0.564432
20
0.885568
11
0.566987
21
0.887275
0
LINE
8
BLACK
6
CONTINUOUS
10
0.566987
20
0.887275
11
0.57
21
0.887874
0
LINE
8
BLACK
6
CONTINUOUS
10
0.57
20
0.887874
11
0.63
21
0.887874
0
LINE
8
BLACK
6
CONTINUOUS
10
0.63
20
0.887874
11
0.633013
21
0.887275
0
LINE
8
BLACK
6
CONTINUOUS
10
0.933013
20
0.887275
11
0.935568
21
0.885568
0
LINE
8
BLACK
6
CONTINUOUS
10
0.935568
20
0.885568
11
0.937275
21
0.883013
0
LINE
8
BLACK
6
CONTINUOUS
10
0.937275
20
0.883013
11
0.937874
21
0.88
0
LINE
8
BLACK
6
CONTINUOUS
10
0.937874
20
0.88
11
0.937874
21
0.82
0
LINE
8
BLACK
6
CONTINUOUS
10
0.937874
20
0.82
11
0.937275
21
0.816987
0
LINE
8
BLACK
6
CONTINUOUS
10
0.937275
20
0.816987
11
0.935568
21
0.814432
0
LINE
8
BLACK
6
CONTINUOUS
10
0.935568
20
0.814432
11
0.933013
21
0.812725
0
LINE
8
BLACK
6
CONTINUOUS
10
0.933013
20
0.812725
11
0.93
21
0.812126
0
LINE
8
BLACK
6
CONTINUOUS
10
0.93
20
0.812126
11
0.87
21
0.812126
0
LINE
8
BLACK
6
CONTINUOUS
10
0.87
20
0.812126
11
0.866987
21
0.812725
0
LINE
8
BLACK
6
CONTINUOUS
10
0.866987
20
0.812725
11
0.864432
21
0.814432
0
LINE
8
BLACK
6
CONTINUOUS
10
0.864432
20
0.814432
11
0.862725
21
0.816987
0
LINE
8
BLACK
6
CONTINUOUS
10
0.862725
20
0.816987
11
0.862126
21
0.82
0
LINE
8
BLACK
6
CONTINUOUS
10
0.862126
20
0.82
11
0.862126
21
0.88
0
LINE
8
BLACK
6
CONTINUOUS
10
0.862126
20
0.88
11
0.862725
21
0.883013
0
LINE
8
BLACK
6
CONTINUOUS
10
0.862725
20
0.883013
11
0.864432
21
0.885568
0
LINE
8
BLACK
6
CONTINUOUS
10
0.864432
20
0.885568
11
0.866987
21
0.887275
0
LINE
8
BLACK
6
CONTINUOUS
10
0.866987
20
0.887275
11
0.87
21
0.887874
0
LINE
8
BLACK
6
CONTINUOUS
10
0.87
20
0.887874
11
0.93
21
0.887874
0
LINE
8
BLACK
6
CONTINUOUS
10
0.93
20
0.887874
11
0.933013
21
0.887275
0
LINE
8
BLACK
6
CONTINUOUS
10
0.833013
20
0.887275
11
0.835568
21
0.885568
0
LINE
8
BLACK
6
CONTINUOUS
10
0.835568
20
0.885568
11
0.837275
21
0.883013
0
LINE
8
BLACK
6
CONTINUOUS
10
0.837275
20
0.883013
11
0.837874
21
0.88
0
LINE
8
BLACK
6
CONTINUOUS
10
0.837874
20
0.88
11
0.837874
21
0.82
0
LINE
8
BLACK
6
CONTINUOUS
10
0.837874
20
0.82
11
0.837275
21
0.816987
0
LINE
8
BLACK
6
CONTINUOUS
10
0.837275
20
0.816987
11
0.835568
21
0.814432
0
LINE
8
BLACK
6
CONTINUOUS
10
0.835568
20
0.814432
11
0.833013
21
0.812725
0
LINE
8
BLACK
6
CONTINUOUS
10
0.833013
20
0.812725
11
0.83
21
0.812126
0
LINE
8
BLACK
6
CONTINUOUS
10
0.83
20
0.812126
11
0.77
21
0.812126
0
LINE
8
BLACK
6
CONTINUOUS
10
0.77
20
0.812126
11
0.766987
21
0.812725
0
LINE
8
BLACK
6
CONTINUOUS
10
0.766987
20
0.812725
11
0.764432
21
0.814432
0
LINE
8
BLACK
6
CONTINUOUS
10
0.764432
20
0.814432
11
0.762725
21
0.816987
0
LINE
8
BLACK
6
CONTINUOUS
10
0.762725
20
0.816987
11
0.762126
21
0.82
0
LINE
8
BLACK
6
CONTINUOUS
10
0.762126
20
0.82
11
0.762126
21
0.88
0
LINE
8
BLACK
6
CONTINUOUS
10
0.762126
20
0.88
11
0.762725
21
0.883013
0
LINE
8
BLACK
6
CONTINUOUS
10
0.762725
20
0.883013
11
0.764432
21
0.885568
0
LINE
8
BLACK
6
CONTINUOUS
10
0.764432
20
0.885568
11
0.766987
21
0.887275
0
LINE
8
BLACK
6
CONTINUOUS
10
0.766987
20
0.887275
11
0.77
21
0.887874
0
LINE
8
BLACK
6
CONTINUOUS
10
0.77
20
0.887874
11
0.83
21
0.887874
0
LINE
8
BLACK
6
CONTINUOUS
10
0.83
20
0.887874
11
0.833013
21
0.887275
0
LINE
8
BLACK
6
CONTINUOUS
10
1.03301
20
0.887275
11
1.03557
21
0.885568
0
LINE
8
BLACK
6
CONTINUOUS
10
1.03557
20
0.885568
11
1.03727
21
0.883013
0
LINE
8
BLACK
6
CONTINUOUS
10
1.03727
20
0.883013
11
1.03787
21
0.88
0
LINE
8
BLACK
6
CONTINUOUS
10
1.03787
20
0.88
11
1.03787
21
0.82
0
LINE
8
BLACK
6
CONTINUOUS
10
1.03787
20
0.82
11
1.03727
21
0.816987
0
LINE
8
BLACK
6
CONTINUOUS
10
1.03727
20
0.816987
11
1.03557
21
0.814432
0
LINE
8
BLACK
6
CONTINUOUS
10
1.03557
20
0.814432
11
1.03301
21
0.812725
0
LINE
8
BLACK
6
CONTINUOUS
10
1.03301
20
0.812725
11
1.03
21
0.812126
0
LINE
8
BLACK
6
CONTINUOUS
10
1.03
20
0.812126
11
0.97
21
0.812126
0
LINE
8
BLACK
6
CONTINUOUS
10
0.97
20
0.812126
11
0.966987
21
0.812725
0
LINE
8
BLACK
6
CONTINUOUS
10
0.966987
20
0.812725
11
0.964432
21
0.814432
0
LINE
8
BLACK
6
CONTINUOUS
10
0.964432
20
0.814432
11
0.962725
21
0.816987
0
LINE
8
BLACK
6
CONTINUOUS
10
0.962725
20
0.816987
11
0.962126
21
0.82
0
LINE
8
BLACK
6
CONTINUOUS
10
0.962126
20
0.82
11
0.962126
21
0.88
0
LINE
8
BLACK
6
CONTINUOUS
10
0.962126
20
0.88
11
0.962725
21
0.883013
0
LINE
8
BLACK
6
CONTINUOUS
10
0.962725
20
0.883013
11
0.964432
21
0.885568
0
LINE
8
BLACK
6
CONTINUOUS
10
0.964432
20
0.885568
11
0.966987
21
0.887275
0
LINE
8
BLACK
6
CONTINUOUS
10
0.966987
20
0.887275
11
0.97
21
0.887874
0
LINE
8
BLACK
6
CONTINUOUS
10
0.97
20
0.887874
11
1.03
21
0.887874
0
LINE
8
BLACK
6
CONTINUOUS
10
1.03
20
0.887874
11
1.03301
21
0.887275
0
LINE
8
BLACK
6
CONTINUOUS
10
0.533013
20
0.887275
11
0.535568
21
0.885568
0
LINE
8
BLACK
6
CONTINUOUS
10
0.535568
20
0.885568
11
0.537275
21
0.883013
0
LINE
8
BLACK
6
CONTINUOUS
10
0.537275
20
0.883013
11
0.537874
21
0.88
0
LINE
8
BLACK
6
CONTINUOUS
10
0.537874
20
0.88
11
0.537874
21
0.82
0
LINE
8
BLACK
6
CONTINUOUS
10
0.537874
20
0.82
11
0.537275
21
0.816987
0
LINE
8
BLACK
6
CONTINUOUS
10
0.537275
20
0.816987
11
0.535568
21
0.814432
0
LINE
8
BLACK
6
CONTINUOUS
10
0.535568
20
0.814432
11
0.533013
21
0.812725
0
LINE
8
BLACK
6
CONTINUOUS
10
0.533013
20
0.812725
11
0.53
21
0.812126
0
LINE
8
BLACK
6
CONTINUOUS
10
0.53
20
0.812126
11
0.47
21
0.812126
0
LINE
8
BLACK
6
CONTINUOUS
10
0.47
20
0.812126
11
0.466987
21
0.812725
0
LINE
8
BLACK
6
CONTINUOUS
10
0.466987
20
0.812725
11
0.464432
21
0.814432
0
LINE
8
BLACK
6
CONTINUOUS
10
0.464432
20
0.814432
11
0.462725
21
0.816987
0
LINE
8
BLACK
6
CONTINUOUS
10
0.462725
20
0.816987
11
0.462126
21
0.82
0
LINE
8
BLACK
6
CONTINUOUS
10
0.462126
20
0.82
11
0.462126
21
0.88
0
LINE
8
BLACK
6
CONTINUOUS
10
0.462126
20
0.88
11
0.462725
21
0.883013
0
LINE
8
BLACK
6
CONTINUOUS
10
0.462725
20
0.883013
11
0.464432
21
0.885568
0
LINE
8
BLACK
6
CONTINUOUS
10
0.464432
20
0.885568
11
0.466987
21
0.887275
0
LINE
8
BLACK
6
CONTINUOUS
10
0.466987
20
0.887275
11
0.47
21
0.887874
0
LINE
8
BLACK
6
CONTINUOUS
10
0.47
20
0.887874
11
0.53
21
0.887874
0
LINE
8
BLACK
6
CONTINUOUS
10
0.53
20
0.887874
11
0.533013
21
0.887275
0
LINE
8
BLACK
6
CONTINUOUS
10
0.733013
20
0.887275
11
0.735568
21
0.885568
0
LINE
8
BLACK
6
CONTINUOUS
10
0.735568
20
0.885568
11
0.737275
21
0.883013
0
LINE
8
BLACK
6
CONTINUOUS
10
0.737275
20
0.883013
11
0.737874
21
0.88
0
LINE
8
BLACK
6
CONTINUOUS
10
0.737874
20
0.88
11
0.737874
21
0.82
0
LINE
8
BLACK
6
CONTINUOUS
10
0.737874
20
0.82
11
0.737275
21
0.816987
0
LINE
8
BLACK
6
CONTINUOUS
10
0.737275
20
0.816987
11
0.735568
21
0.814432
0
LINE
8
BLACK
6
CONTINUOUS
10
0.735568
20
0.814432
11
0.733013
21
0.812725
0
LINE
8
BLACK
6
CONTINUOUS
10
0.733013
20
0.812725
11
0.73
21
0.812126
0
LINE
8
BLACK
6
CONTINUOUS
10
0.73
20
0.812126
11
0.67
21
0.812126
0
LINE
8
BLACK
6
CONTINUOUS
10
0.67
20
0.812126
11
0.666987
21
0.812725
0
LINE
8
BLACK
6
CONTINUOUS
10
0.666987
20
0.812725
11
0.664432
21
0.814432
0
LINE
8
BLACK
6
CONTINUOUS
10
0.664432
20
0.814432
11
0.662725
21
0.816987
0
LINE
8
BLACK
6
CONTINUOUS
10
0.662725
20
0.816987
11
0.662126
21
0.82
0
LINE
8
BLACK
6
CONTINUOUS
10
0.662126
20
0.82
11
0.662126
21
0.88
0
LINE
8
BLACK
6
CONTINUOUS
10
0.662126
20
0.88
11
0.662725
21
0.883013
0
LINE
8
BLACK
6
CONTINUOUS
10
0.662725
20
0.883013
11
0.664432
21
0.885568
0
LINE
8
BLACK
6
CONTINUOUS
10
0.664432
20
0.885568
11
0.666987
21
0.887275
0
LINE
8
BLACK
6
CONTINUOUS
10
0.666987
20
0.887275
11
0.67
21
0.887874
0
LINE
8
BLACK
6
CONTINUOUS
10
0.67
20
0.887874
11
0.73
21
0.887874
0
LINE
8
BLACK
6
CONTINUOUS
10
0.73
20
0.887874
11
0.733013
21
0.887275
  0
ENDSEC
  0
EOF
