  0
SECTION
  2
HEADER
  9
$ANGBASE
  50
0.0
  9
$ANGDIR
  70
1
  9
$MEASUREMENT
  70
0
  0
ENDSEC
  0
SECTION
  2
TABLES
  0
TABLE
  2
LTYPE
  70
4
  0
LTYPE
  5
40F
  2
CONTINUOUS
  70
0
  3
Solid line
  72
65
  73
0
  40
0.0
  0
LTYPE
  5
410
  2
DASHDOT
 70
0
  3
Dash Dot ____ _ ____ _
 72
65
 73
4
 40
2.0
 49
1.25
 49
-0.25
 49
0.25
 49
-0.25
  0
LTYPE
  5
411
  2
DASHED
 70
0
  3
Dashed __ __ __ __ __
 72
65
 73
2
 40
0.75
 49
0.5
 49
-0.25
  0
LTYPE
  5
43B
  2
DOTTED
 70
0
  3
Dotted .  .  .  .
 72
65
 73
2
 40
0.2
 49
0.0
 49
-0.2
  0
ENDTAB
  0
TABLE
  2
STYLE
  70
4
  0
STYLE
  2
KICAD
  70
0
  40
0
  41
1
  42
1
  50
0
  71
0
  3
isocp.shx
  0
STYLE
  2
KICADB
  70
0
  40
0
  41
1
  42
1
  50
0
  71
0
  3
isocp.shx
  0
STYLE
  2
KICADI
  70
0
  40
0
  41
1
  42
1
  50
15
  71
0
  3
isocp.shx
  0
STYLE
  2
KICADBI
  70
0
  40
0
  41
1
  42
1
  50
15
  71
0
  3
isocp.shx
  0
ENDTAB
  0
TABLE
  2
LAYER
  70
1
  0
LAYER
  2
BLACK
  70
0
  62
7
  6
CONTINUOUS
  0
ENDTAB
  0
ENDSEC
  0
SECTION
  2
ENTITIES
0
LINE
8
BLACK
6
CONTINUOUS
10
0.273622
20
0.0482283
11
0.278221
21
0.0477101
0
LINE
8
BLACK
6
CONTINUOUS
10
0.278221
20
0.0477101
11
0.28259
21
0.0461815
0
LINE
8
BLACK
6
CONTINUOUS
10
0.28259
20
0.0461815
11
0.286509
21
0.043719
0
LINE
8
BLACK
6
CONTINUOUS
10
0.286509
20
0.043719
11
0.289782
21
0.0404461
0
LINE
8
BLACK
6
CONTINUOUS
10
0.289782
20
0.0404461
11
0.292244
21
0.0365271
0
LINE
8
BLACK
6
CONTINUOUS
10
0.292244
20
0.0365271
11
0.293773
21
0.0321584
0
LINE
8
BLACK
6
CONTINUOUS
10
0.293773
20
0.0321584
11
0.294291
21
0.0275591
0
LINE
8
BLACK
6
CONTINUOUS
10
0.294291
20
0.0275591
11
0.294291
21
-0.0275591
0
LINE
8
BLACK
6
CONTINUOUS
10
0.294291
20
-0.0275591
11
0.293773
21
-0.0321584
0
LINE
8
BLACK
6
CONTINUOUS
10
0.293773
20
-0.0321584
11
0.292244
21
-0.0365271
0
LINE
8
BLACK
6
CONTINUOUS
10
0.292244
20
-0.0365271
11
0.289782
21
-0.0404461
0
LINE
8
BLACK
6
CONTINUOUS
10
0.289782
20
-0.0404461
11
0.286509
21
-0.043719
0
LINE
8
BLACK
6
CONTINUOUS
10
0.286509
20
-0.043719
11
0.28259
21
-0.0461815
0
LINE
8
BLACK
6
CONTINUOUS
10
0.28259
20
-0.0461815
11
0.278221
21
-0.0477101
0
LINE
8
BLACK
6
CONTINUOUS
10
0.278221
20
-0.0477101
11
0.273622
21
-0.0482283
0
LINE
8
BLACK
6
CONTINUOUS
10
0.273622
20
-0.0482283
11
0.226378
21
-0.0482283
0
LINE
8
BLACK
6
CONTINUOUS
10
0.226378
20
-0.0482283
11
0.221779
21
-0.0477101
0
LINE
8
BLACK
6
CONTINUOUS
10
0.221779
20
-0.0477101
11
0.21741
21
-0.0461815
0
LINE
8
BLACK
6
CONTINUOUS
10
0.21741
20
-0.0461815
11
0.213491
21
-0.043719
0
LINE
8
BLACK
6
CONTINUOUS
10
0.213491
20
-0.043719
11
0.210218
21
-0.0404461
0
LINE
8
BLACK
6
CONTINUOUS
10
0.210218
20
-0.0404461
11
0.207756
21
-0.0365271
0
LINE
8
BLACK
6
CONTINUOUS
10
0.207756
20
-0.0365271
11
0.206227
21
-0.0321584
0
LINE
8
BLACK
6
CONTINUOUS
10
0.206227
20
-0.0321584
11
0.205709
21
-0.0275591
0
LINE
8
BLACK
6
CONTINUOUS
10
0.205709
20
-0.0275591
11
0.205709
21
0.0275591
0
LINE
8
BLACK
6
CONTINUOUS
10
0.205709
20
0.0275591
11
0.206227
21
0.0321584
0
LINE
8
BLACK
6
CONTINUOUS
10
0.206227
20
0.0321584
11
0.207756
21
0.0365271
0
LINE
8
BLACK
6
CONTINUOUS
10
0.207756
20
0.0365271
11
0.210218
21
0.0404461
0
LINE
8
BLACK
6
CONTINUOUS
10
0.210218
20
0.0404461
11
0.213491
21
0.043719
0
LINE
8
BLACK
6
CONTINUOUS
10
0.213491
20
0.043719
11
0.21741
21
0.0461815
0
LINE
8
BLACK
6
CONTINUOUS
10
0.21741
20
0.0461815
11
0.221779
21
0.0477101
0
LINE
8
BLACK
6
CONTINUOUS
10
0.221779
20
0.0477101
11
0.226378
21
0.0482283
0
LINE
8
BLACK
6
CONTINUOUS
10
0.226378
20
0.0482283
11
0.273622
21
0.0482283
0
LINE
8
BLACK
6
CONTINUOUS
10
0.226378
20
0.0462598
11
0.223916
21
0.0462598
0
LINE
8
BLACK
6
CONTINUOUS
10
0.223916
20
0.0462598
11
0.21916
21
0.0449854
0
LINE
8
BLACK
6
CONTINUOUS
10
0.21916
20
0.0449854
11
0.214895
21
0.0425234
0
LINE
8
BLACK
6
CONTINUOUS
10
0.214895
20
0.0425234
11
0.211414
21
0.0390416
0
LINE
8
BLACK
6
CONTINUOUS
10
0.211414
20
0.0390416
11
0.208952
21
0.0347773
0
LINE
8
BLACK
6
CONTINUOUS
10
0.208952
20
0.0347773
11
0.207677
21
0.0300211
0
LINE
8
BLACK
6
CONTINUOUS
10
0.207677
20
0.0300211
11
0.207677
21
0.0275591
0
LINE
8
BLACK
6
CONTINUOUS
10
0.207677
20
0.0275591
11
0.207677
21
-0.0275591
0
LINE
8
BLACK
6
CONTINUOUS
10
0.207677
20
-0.0275591
11
0.207677
21
-0.0300211
0
LINE
8
BLACK
6
CONTINUOUS
10
0.207677
20
-0.0300211
11
0.208952
21
-0.0347773
0
LINE
8
BLACK
6
CONTINUOUS
10
0.208952
20
-0.0347773
11
0.211414
21
-0.0390416
0
LINE
8
BLACK
6
CONTINUOUS
10
0.211414
20
-0.0390416
11
0.214895
21
-0.0425234
0
LINE
8
BLACK
6
CONTINUOUS
10
0.214895
20
-0.0425234
11
0.21916
21
-0.0449854
0
LINE
8
BLACK
6
CONTINUOUS
10
0.21916
20
-0.0449854
11
0.223916
21
-0.0462598
0
LINE
8
BLACK
6
CONTINUOUS
10
0.223916
20
-0.0462598
11
0.226378
21
-0.0462598
0
LINE
8
BLACK
6
CONTINUOUS
10
0.226378
20
-0.0462598
11
0.273622
21
-0.0462598
0
LINE
8
BLACK
6
CONTINUOUS
10
0.273622
20
-0.0462598
11
0.276084
21
-0.0462598
0
LINE
8
BLACK
6
CONTINUOUS
10
0.276084
20
-0.0462598
11
0.28084
21
-0.0449854
0
LINE
8
BLACK
6
CONTINUOUS
10
0.28084
20
-0.0449854
11
0.285105
21
-0.0425234
0
LINE
8
BLACK
6
CONTINUOUS
10
0.285105
20
-0.0425234
11
0.288586
21
-0.0390416
0
LINE
8
BLACK
6
CONTINUOUS
10
0.288586
20
-0.0390416
11
0.291048
21
-0.0347773
0
LINE
8
BLACK
6
CONTINUOUS
10
0.291048
20
-0.0347773
11
0.292323
21
-0.0300211
0
LINE
8
BLACK
6
CONTINUOUS
10
0.292323
20
-0.0300211
11
0.292323
21
-0.0275591
0
LINE
8
BLACK
6
CONTINUOUS
10
0.292323
20
-0.0275591
11
0.292323
21
0.0275591
0
LINE
8
BLACK
6
CONTINUOUS
10
0.292323
20
0.0275591
11
0.292323
21
0.0300211
0
LINE
8
BLACK
6
CONTINUOUS
10
0.292323
20
0.0300211
11
0.291048
21
0.0347773
0
LINE
8
BLACK
6
CONTINUOUS
10
0.291048
20
0.0347773
11
0.288586
21
0.0390416
0
LINE
8
BLACK
6
CONTINUOUS
10
0.288586
20
0.0390416
11
0.285105
21
0.0425234
0
LINE
8
BLACK
6
CONTINUOUS
10
0.285105
20
0.0425234
11
0.28084
21
0.0449854
0
LINE
8
BLACK
6
CONTINUOUS
10
0.28084
20
0.0449854
11
0.276084
21
0.0462598
0
LINE
8
BLACK
6
CONTINUOUS
10
0.276084
20
0.0462598
11
0.273622
21
0.0462598
0
LINE
8
BLACK
6
CONTINUOUS
10
0.273622
20
0.0462598
11
0.226378
21
0.0462598
0
LINE
8
BLACK
6
CONTINUOUS
10
0.273622
20
0.848228
11
0.278221
21
0.84771
0
LINE
8
BLACK
6
CONTINUOUS
10
0.278221
20
0.84771
11
0.28259
21
0.846181
0
LINE
8
BLACK
6
CONTINUOUS
10
0.28259
20
0.846181
11
0.286509
21
0.843719
0
LINE
8
BLACK
6
CONTINUOUS
10
0.286509
20
0.843719
11
0.289782
21
0.840446
0
LINE
8
BLACK
6
CONTINUOUS
10
0.289782
20
0.840446
11
0.292244
21
0.836527
0
LINE
8
BLACK
6
CONTINUOUS
10
0.292244
20
0.836527
11
0.293773
21
0.832158
0
LINE
8
BLACK
6
CONTINUOUS
10
0.293773
20
0.832158
11
0.294291
21
0.827559
0
LINE
8
BLACK
6
CONTINUOUS
10
0.294291
20
0.827559
11
0.294291
21
0.772441
0
LINE
8
BLACK
6
CONTINUOUS
10
0.294291
20
0.772441
11
0.293773
21
0.767842
0
LINE
8
BLACK
6
CONTINUOUS
10
0.293773
20
0.767842
11
0.292244
21
0.763473
0
LINE
8
BLACK
6
CONTINUOUS
10
0.292244
20
0.763473
11
0.289782
21
0.759554
0
LINE
8
BLACK
6
CONTINUOUS
10
0.289782
20
0.759554
11
0.286509
21
0.756281
0
LINE
8
BLACK
6
CONTINUOUS
10
0.286509
20
0.756281
11
0.28259
21
0.753819
0
LINE
8
BLACK
6
CONTINUOUS
10
0.28259
20
0.753819
11
0.278221
21
0.75229
0
LINE
8
BLACK
6
CONTINUOUS
10
0.278221
20
0.75229
11
0.273622
21
0.751772
0
LINE
8
BLACK
6
CONTINUOUS
10
0.273622
20
0.751772
11
0.226378
21
0.751772
0
LINE
8
BLACK
6
CONTINUOUS
10
0.226378
20
0.751772
11
0.221779
21
0.75229
0
LINE
8
BLACK
6
CONTINUOUS
10
0.221779
20
0.75229
11
0.21741
21
0.753819
0
LINE
8
BLACK
6
CONTINUOUS
10
0.21741
20
0.753819
11
0.213491
21
0.756281
0
LINE
8
BLACK
6
CONTINUOUS
10
0.213491
20
0.756281
11
0.210218
21
0.759554
0
LINE
8
BLACK
6
CONTINUOUS
10
0.210218
20
0.759554
11
0.207756
21
0.763473
0
LINE
8
BLACK
6
CONTINUOUS
10
0.207756
20
0.763473
11
0.206227
21
0.767842
0
LINE
8
BLACK
6
CONTINUOUS
10
0.206227
20
0.767842
11
0.205709
21
0.772441
0
LINE
8
BLACK
6
CONTINUOUS
10
0.205709
20
0.772441
11
0.205709
21
0.827559
0
LINE
8
BLACK
6
CONTINUOUS
10
0.205709
20
0.827559
11
0.206227
21
0.832158
0
LINE
8
BLACK
6
CONTINUOUS
10
0.206227
20
0.832158
11
0.207756
21
0.836527
0
LINE
8
BLACK
6
CONTINUOUS
10
0.207756
20
0.836527
11
0.210218
21
0.840446
0
LINE
8
BLACK
6
CONTINUOUS
10
0.210218
20
0.840446
11
0.213491
21
0.843719
0
LINE
8
BLACK
6
CONTINUOUS
10
0.213491
20
0.843719
11
0.21741
21
0.846181
0
LINE
8
BLACK
6
CONTINUOUS
10
0.21741
20
0.846181
11
0.221779
21
0.84771
0
LINE
8
BLACK
6
CONTINUOUS
10
0.221779
20
0.84771
11
0.226378
21
0.848228
0
LINE
8
BLACK
6
CONTINUOUS
10
0.226378
20
0.848228
11
0.273622
21
0.848228
0
LINE
8
BLACK
6
CONTINUOUS
10
0.226378
20
0.84626
11
0.223916
21
0.84626
0
LINE
8
BLACK
6
CONTINUOUS
10
0.223916
20
0.84626
11
0.21916
21
0.844985
0
LINE
8
BLACK
6
CONTINUOUS
10
0.21916
20
0.844985
11
0.214895
21
0.842523
0
LINE
8
BLACK
6
CONTINUOUS
10
0.214895
20
0.842523
11
0.211414
21
0.839042
0
LINE
8
BLACK
6
CONTINUOUS
10
0.211414
20
0.839042
11
0.208952
21
0.834777
0
LINE
8
BLACK
6
CONTINUOUS
10
0.208952
20
0.834777
11
0.207677
21
0.830021
0
LINE
8
BLACK
6
CONTINUOUS
10
0.207677
20
0.830021
11
0.207677
21
0.827559
0
LINE
8
BLACK
6
CONTINUOUS
10
0.207677
20
0.827559
11
0.207677
21
0.772441
0
LINE
8
BLACK
6
CONTINUOUS
10
0.207677
20
0.772441
11
0.207677
21
0.769979
0
LINE
8
BLACK
6
CONTINUOUS
10
0.207677
20
0.769979
11
0.208952
21
0.765223
0
LINE
8
BLACK
6
CONTINUOUS
10
0.208952
20
0.765223
11
0.211414
21
0.760958
0
LINE
8
BLACK
6
CONTINUOUS
10
0.211414
20
0.760958
11
0.214895
21
0.757477
0
LINE
8
BLACK
6
CONTINUOUS
10
0.214895
20
0.757477
11
0.21916
21
0.755015
0
LINE
8
BLACK
6
CONTINUOUS
10
0.21916
20
0.755015
11
0.223916
21
0.75374
0
LINE
8
BLACK
6
CONTINUOUS
10
0.223916
20
0.75374
11
0.226378
21
0.75374
0
LINE
8
BLACK
6
CONTINUOUS
10
0.226378
20
0.75374
11
0.273622
21
0.75374
0
LINE
8
BLACK
6
CONTINUOUS
10
0.273622
20
0.75374
11
0.276084
21
0.75374
0
LINE
8
BLACK
6
CONTINUOUS
10
0.276084
20
0.75374
11
0.28084
21
0.755015
0
LINE
8
BLACK
6
CONTINUOUS
10
0.28084
20
0.755015
11
0.285105
21
0.757477
0
LINE
8
BLACK
6
CONTINUOUS
10
0.285105
20
0.757477
11
0.288586
21
0.760958
0
LINE
8
BLACK
6
CONTINUOUS
10
0.288586
20
0.760958
11
0.291048
21
0.765223
0
LINE
8
BLACK
6
CONTINUOUS
10
0.291048
20
0.765223
11
0.292323
21
0.769979
0
LINE
8
BLACK
6
CONTINUOUS
10
0.292323
20
0.769979
11
0.292323
21
0.772441
0
LINE
8
BLACK
6
CONTINUOUS
10
0.292323
20
0.772441
11
0.292323
21
0.827559
0
LINE
8
BLACK
6
CONTINUOUS
10
0.292323
20
0.827559
11
0.292323
21
0.830021
0
LINE
8
BLACK
6
CONTINUOUS
10
0.292323
20
0.830021
11
0.291048
21
0.834777
0
LINE
8
BLACK
6
CONTINUOUS
10
0.291048
20
0.834777
11
0.288586
21
0.839042
0
LINE
8
BLACK
6
CONTINUOUS
10
0.288586
20
0.839042
11
0.285105
21
0.842523
0
LINE
8
BLACK
6
CONTINUOUS
10
0.285105
20
0.842523
11
0.28084
21
0.844985
0
LINE
8
BLACK
6
CONTINUOUS
10
0.28084
20
0.844985
11
0.276084
21
0.84626
0
LINE
8
BLACK
6
CONTINUOUS
10
0.276084
20
0.84626
11
0.273622
21
0.84626
0
LINE
8
BLACK
6
CONTINUOUS
10
0.273622
20
0.84626
11
0.226378
21
0.84626
0
LINE
8
BLACK
6
CONTINUOUS
10
1.39
20
0.991969
11
1.39139
21
0.991392
0
LINE
8
BLACK
6
CONTINUOUS
10
1.39139
20
0.991392
11
1.39197
21
0.99
0
LINE
8
BLACK
6
CONTINUOUS
10
1.39197
20
0.99
11
1.39197
21
-0.19
0
LINE
8
BLACK
6
CONTINUOUS
10
1.39197
20
-0.19
11
1.39139
21
-0.191392
0
LINE
8
BLACK
6
CONTINUOUS
10
1.39139
20
-0.191392
11
1.39
21
-0.191969
0
LINE
8
BLACK
6
CONTINUOUS
10
1.39
20
-0.191969
11
-0.19
21
-0.191969
0
LINE
8
BLACK
6
CONTINUOUS
10
-0.19
20
-0.191969
11
-0.191392
21
-0.191392
0
LINE
8
BLACK
6
CONTINUOUS
10
-0.191392
20
-0.191392
11
-0.191969
21
-0.19
0
LINE
8
BLACK
6
CONTINUOUS
10
-0.191969
20
-0.19
11
-0.191969
21
0.99
0
LINE
8
BLACK
6
CONTINUOUS
10
-0.191969
20
0.99
11
-0.191392
21
0.991392
0
LINE
8
BLACK
6
CONTINUOUS
10
-0.191392
20
0.991392
11
-0.19
21
0.991969
0
LINE
8
BLACK
6
CONTINUOUS
10
-0.19
20
0.991969
11
1.39
21
0.991969
0
LINE
8
BLACK
6
CONTINUOUS
10
-0.188031
20
0.988031
11
-0.188031
21
-0.188031
0
LINE
8
BLACK
6
CONTINUOUS
10
-0.188031
20
-0.188031
11
1.38803
21
-0.188031
0
LINE
8
BLACK
6
CONTINUOUS
10
1.38803
20
-0.188031
11
1.38803
21
0.988031
0
LINE
8
BLACK
6
CONTINUOUS
10
1.38803
20
0.988031
11
-0.188031
21
0.988031
  0
ENDSEC
  0
EOF
