  0
SECTION
  2
HEADER
  9
$ANGBASE
  50
0.0
  9
$ANGDIR
  70
1
  9
$MEASUREMENT
  70
0
  0
ENDSEC
  0
SECTION
  2
TABLES
  0
TABLE
  2
LTYPE
  70
4
  0
LTYPE
  5
40F
  2
CONTINUOUS
  70
0
  3
Solid line
  72
65
  73
0
  40
0.0
  0
LTYPE
  5
410
  2
DASHDOT
 70
0
  3
Dash Dot ____ _ ____ _
 72
65
 73
4
 40
2.0
 49
1.25
 49
-0.25
 49
0.25
 49
-0.25
  0
LTYPE
  5
411
  2
DASHED
 70
0
  3
Dashed __ __ __ __ __
 72
65
 73
2
 40
0.75
 49
0.5
 49
-0.25
  0
LTYPE
  5
43B
  2
DOTTED
 70
0
  3
Dotted .  .  .  .
 72
65
 73
2
 40
0.2
 49
0.0
 49
-0.2
  0
ENDTAB
  0
TABLE
  2
STYLE
  70
4
  0
STYLE
  2
KICAD
  70
0
  40
0
  41
1
  42
1
  50
0
  71
0
  3
isocp.shx
  0
STYLE
  2
KICADB
  70
0
  40
0
  41
1
  42
1
  50
0
  71
0
  3
isocp.shx
  0
STYLE
  2
KICADI
  70
0
  40
0
  41
1
  42
1
  50
15
  71
0
  3
isocp.shx
  0
STYLE
  2
KICADBI
  70
0
  40
0
  41
1
  42
1
  50
15
  71
0
  3
isocp.shx
  0
ENDTAB
  0
TABLE
  2
LAYER
  70
1
  0
LAYER
  2
BLACK
  70
0
  62
7
  6
CONTINUOUS
  0
ENDTAB
  0
ENDSEC
  0
SECTION
  2
ENTITIES
0
LINE
8
BLACK
6
CONTINUOUS
10
0.013665
20
0.12128
11
0.0271581
21
0.118987
0
LINE
8
BLACK
6
CONTINUOUS
10
0.0271581
20
0.118987
11
0.0403096
21
0.115198
0
LINE
8
BLACK
6
CONTINUOUS
10
0.0403096
20
0.115198
11
0.0529543
21
0.109961
0
LINE
8
BLACK
6
CONTINUOUS
10
0.0529543
20
0.109961
11
0.064933
21
0.10334
0
LINE
8
BLACK
6
CONTINUOUS
10
0.064933
20
0.10334
11
0.0760952
21
0.0954204
0
LINE
8
BLACK
6
CONTINUOUS
10
0.0760952
20
0.0954204
11
0.0863004
21
0.0863004
0
LINE
8
BLACK
6
CONTINUOUS
10
0.0863004
20
0.0863004
11
0.0954204
21
0.0760952
0
LINE
8
BLACK
6
CONTINUOUS
10
0.0954204
20
0.0760952
11
0.10334
21
0.064933
0
LINE
8
BLACK
6
CONTINUOUS
10
0.10334
20
0.064933
11
0.109961
21
0.0529543
0
LINE
8
BLACK
6
CONTINUOUS
10
0.109961
20
0.0529543
11
0.115198
21
0.0403096
0
LINE
8
BLACK
6
CONTINUOUS
10
0.115198
20
0.0403096
11
0.118987
21
0.0271581
0
LINE
8
BLACK
6
CONTINUOUS
10
0.118987
20
0.0271581
11
0.12128
21
0.013665
0
LINE
8
BLACK
6
CONTINUOUS
10
0.12128
20
0.013665
11
0.122047
21
0
0
LINE
8
BLACK
6
CONTINUOUS
10
0.122047
20
0
11
0.12128
21
-0.013665
0
LINE
8
BLACK
6
CONTINUOUS
10
0.12128
20
-0.013665
11
0.118987
21
-0.0271581
0
LINE
8
BLACK
6
CONTINUOUS
10
0.118987
20
-0.0271581
11
0.115198
21
-0.0403096
0
LINE
8
BLACK
6
CONTINUOUS
10
0.115198
20
-0.0403096
11
0.109961
21
-0.0529543
0
LINE
8
BLACK
6
CONTINUOUS
10
0.109961
20
-0.0529543
11
0.10334
21
-0.064933
0
LINE
8
BLACK
6
CONTINUOUS
10
0.10334
20
-0.064933
11
0.0954204
21
-0.0760952
0
LINE
8
BLACK
6
CONTINUOUS
10
0.0954204
20
-0.0760952
11
0.0863004
21
-0.0863004
0
LINE
8
BLACK
6
CONTINUOUS
10
0.0863004
20
-0.0863004
11
0.0760952
21
-0.0954204
0
LINE
8
BLACK
6
CONTINUOUS
10
0.0760952
20
-0.0954204
11
0.064933
21
-0.10334
0
LINE
8
BLACK
6
CONTINUOUS
10
0.064933
20
-0.10334
11
0.0529543
21
-0.109961
0
LINE
8
BLACK
6
CONTINUOUS
10
0.0529543
20
-0.109961
11
0.0403096
21
-0.115198
0
LINE
8
BLACK
6
CONTINUOUS
10
0.0403096
20
-0.115198
11
0.0271581
21
-0.118987
0
LINE
8
BLACK
6
CONTINUOUS
10
0.0271581
20
-0.118987
11
0.013665
21
-0.12128
0
LINE
8
BLACK
6
CONTINUOUS
10
0.013665
20
-0.12128
11
0
21
-0.122047
0
LINE
8
BLACK
6
CONTINUOUS
10
0
20
-0.122047
11
-0.013665
21
-0.12128
0
LINE
8
BLACK
6
CONTINUOUS
10
-0.013665
20
-0.12128
11
-0.0271581
21
-0.118987
0
LINE
8
BLACK
6
CONTINUOUS
10
-0.0271581
20
-0.118987
11
-0.0403096
21
-0.115198
0
LINE
8
BLACK
6
CONTINUOUS
10
-0.0403096
20
-0.115198
11
-0.0529543
21
-0.109961
0
LINE
8
BLACK
6
CONTINUOUS
10
-0.0529543
20
-0.109961
11
-0.064933
21
-0.10334
0
LINE
8
BLACK
6
CONTINUOUS
10
-0.064933
20
-0.10334
11
-0.0760952
21
-0.0954204
0
LINE
8
BLACK
6
CONTINUOUS
10
-0.0760952
20
-0.0954204
11
-0.0863004
21
-0.0863004
0
LINE
8
BLACK
6
CONTINUOUS
10
-0.0863004
20
-0.0863004
11
-0.0954204
21
-0.0760952
0
LINE
8
BLACK
6
CONTINUOUS
10
-0.0954204
20
-0.0760952
11
-0.10334
21
-0.064933
0
LINE
8
BLACK
6
CONTINUOUS
10
-0.10334
20
-0.064933
11
-0.109961
21
-0.0529543
0
LINE
8
BLACK
6
CONTINUOUS
10
-0.109961
20
-0.0529543
11
-0.115198
21
-0.0403096
0
LINE
8
BLACK
6
CONTINUOUS
10
-0.115198
20
-0.0403096
11
-0.118987
21
-0.0271581
0
LINE
8
BLACK
6
CONTINUOUS
10
-0.118987
20
-0.0271581
11
-0.12128
21
-0.013665
0
LINE
8
BLACK
6
CONTINUOUS
10
-0.12128
20
-0.013665
11
-0.122047
21
0
0
LINE
8
BLACK
6
CONTINUOUS
10
-0.122047
20
0
11
-0.12128
21
0.013665
0
LINE
8
BLACK
6
CONTINUOUS
10
-0.12128
20
0.013665
11
-0.118987
21
0.0271581
0
LINE
8
BLACK
6
CONTINUOUS
10
-0.118987
20
0.0271581
11
-0.115198
21
0.0403096
0
LINE
8
BLACK
6
CONTINUOUS
10
-0.115198
20
0.0403096
11
-0.109961
21
0.0529543
0
LINE
8
BLACK
6
CONTINUOUS
10
-0.109961
20
0.0529543
11
-0.10334
21
0.064933
0
LINE
8
BLACK
6
CONTINUOUS
10
-0.10334
20
0.064933
11
-0.0954204
21
0.0760952
0
LINE
8
BLACK
6
CONTINUOUS
10
-0.0954204
20
0.0760952
11
-0.0863004
21
0.0863004
0
LINE
8
BLACK
6
CONTINUOUS
10
-0.0863004
20
0.0863004
11
-0.0760952
21
0.0954204
0
LINE
8
BLACK
6
CONTINUOUS
10
-0.0760952
20
0.0954204
11
-0.064933
21
0.10334
0
LINE
8
BLACK
6
CONTINUOUS
10
-0.064933
20
0.10334
11
-0.0529543
21
0.109961
0
LINE
8
BLACK
6
CONTINUOUS
10
-0.0529543
20
0.109961
11
-0.0403096
21
0.115198
0
LINE
8
BLACK
6
CONTINUOUS
10
-0.0403096
20
0.115198
11
-0.0271581
21
0.118987
0
LINE
8
BLACK
6
CONTINUOUS
10
-0.0271581
20
0.118987
11
-0.013665
21
0.12128
0
LINE
8
BLACK
6
CONTINUOUS
10
-0.013665
20
0.12128
11
0
21
0.122047
0
LINE
8
BLACK
6
CONTINUOUS
10
0
20
0.122047
11
0.013665
21
0.12128
0
LINE
8
BLACK
6
CONTINUOUS
10
1.21366
20
0.12128
11
1.22716
21
0.118987
0
LINE
8
BLACK
6
CONTINUOUS
10
1.22716
20
0.118987
11
1.24031
21
0.115198
0
LINE
8
BLACK
6
CONTINUOUS
10
1.24031
20
0.115198
11
1.25295
21
0.109961
0
LINE
8
BLACK
6
CONTINUOUS
10
1.25295
20
0.109961
11
1.26493
21
0.10334
0
LINE
8
BLACK
6
CONTINUOUS
10
1.26493
20
0.10334
11
1.2761
21
0.0954204
0
LINE
8
BLACK
6
CONTINUOUS
10
1.2761
20
0.0954204
11
1.2863
21
0.0863004
0
LINE
8
BLACK
6
CONTINUOUS
10
1.2863
20
0.0863004
11
1.29542
21
0.0760952
0
LINE
8
BLACK
6
CONTINUOUS
10
1.29542
20
0.0760952
11
1.30334
21
0.064933
0
LINE
8
BLACK
6
CONTINUOUS
10
1.30334
20
0.064933
11
1.30996
21
0.0529543
0
LINE
8
BLACK
6
CONTINUOUS
10
1.30996
20
0.0529543
11
1.3152
21
0.0403096
0
LINE
8
BLACK
6
CONTINUOUS
10
1.3152
20
0.0403096
11
1.31899
21
0.0271581
0
LINE
8
BLACK
6
CONTINUOUS
10
1.31899
20
0.0271581
11
1.32128
21
0.013665
0
LINE
8
BLACK
6
CONTINUOUS
10
1.32128
20
0.013665
11
1.32205
21
0
0
LINE
8
BLACK
6
CONTINUOUS
10
1.32205
20
0
11
1.32128
21
-0.013665
0
LINE
8
BLACK
6
CONTINUOUS
10
1.32128
20
-0.013665
11
1.31899
21
-0.0271581
0
LINE
8
BLACK
6
CONTINUOUS
10
1.31899
20
-0.0271581
11
1.3152
21
-0.0403096
0
LINE
8
BLACK
6
CONTINUOUS
10
1.3152
20
-0.0403096
11
1.30996
21
-0.0529543
0
LINE
8
BLACK
6
CONTINUOUS
10
1.30996
20
-0.0529543
11
1.30334
21
-0.064933
0
LINE
8
BLACK
6
CONTINUOUS
10
1.30334
20
-0.064933
11
1.29542
21
-0.0760952
0
LINE
8
BLACK
6
CONTINUOUS
10
1.29542
20
-0.0760952
11
1.2863
21
-0.0863004
0
LINE
8
BLACK
6
CONTINUOUS
10
1.2863
20
-0.0863004
11
1.2761
21
-0.0954204
0
LINE
8
BLACK
6
CONTINUOUS
10
1.2761
20
-0.0954204
11
1.26493
21
-0.10334
0
LINE
8
BLACK
6
CONTINUOUS
10
1.26493
20
-0.10334
11
1.25295
21
-0.109961
0
LINE
8
BLACK
6
CONTINUOUS
10
1.25295
20
-0.109961
11
1.24031
21
-0.115198
0
LINE
8
BLACK
6
CONTINUOUS
10
1.24031
20
-0.115198
11
1.22716
21
-0.118987
0
LINE
8
BLACK
6
CONTINUOUS
10
1.22716
20
-0.118987
11
1.21366
21
-0.12128
0
LINE
8
BLACK
6
CONTINUOUS
10
1.21366
20
-0.12128
11
1.2
21
-0.122047
0
LINE
8
BLACK
6
CONTINUOUS
10
1.2
20
-0.122047
11
1.18634
21
-0.12128
0
LINE
8
BLACK
6
CONTINUOUS
10
1.18634
20
-0.12128
11
1.17284
21
-0.118987
0
LINE
8
BLACK
6
CONTINUOUS
10
1.17284
20
-0.118987
11
1.15969
21
-0.115198
0
LINE
8
BLACK
6
CONTINUOUS
10
1.15969
20
-0.115198
11
1.14705
21
-0.109961
0
LINE
8
BLACK
6
CONTINUOUS
10
1.14705
20
-0.109961
11
1.13507
21
-0.10334
0
LINE
8
BLACK
6
CONTINUOUS
10
1.13507
20
-0.10334
11
1.1239
21
-0.0954204
0
LINE
8
BLACK
6
CONTINUOUS
10
1.1239
20
-0.0954204
11
1.1137
21
-0.0863004
0
LINE
8
BLACK
6
CONTINUOUS
10
1.1137
20
-0.0863004
11
1.10458
21
-0.0760952
0
LINE
8
BLACK
6
CONTINUOUS
10
1.10458
20
-0.0760952
11
1.09666
21
-0.064933
0
LINE
8
BLACK
6
CONTINUOUS
10
1.09666
20
-0.064933
11
1.09004
21
-0.0529543
0
LINE
8
BLACK
6
CONTINUOUS
10
1.09004
20
-0.0529543
11
1.0848
21
-0.0403096
0
LINE
8
BLACK
6
CONTINUOUS
10
1.0848
20
-0.0403096
11
1.08101
21
-0.0271581
0
LINE
8
BLACK
6
CONTINUOUS
10
1.08101
20
-0.0271581
11
1.07872
21
-0.013665
0
LINE
8
BLACK
6
CONTINUOUS
10
1.07872
20
-0.013665
11
1.07795
21
0
0
LINE
8
BLACK
6
CONTINUOUS
10
1.07795
20
0
11
1.07872
21
0.013665
0
LINE
8
BLACK
6
CONTINUOUS
10
1.07872
20
0.013665
11
1.08101
21
0.0271581
0
LINE
8
BLACK
6
CONTINUOUS
10
1.08101
20
0.0271581
11
1.0848
21
0.0403096
0
LINE
8
BLACK
6
CONTINUOUS
10
1.0848
20
0.0403096
11
1.09004
21
0.0529543
0
LINE
8
BLACK
6
CONTINUOUS
10
1.09004
20
0.0529543
11
1.09666
21
0.064933
0
LINE
8
BLACK
6
CONTINUOUS
10
1.09666
20
0.064933
11
1.10458
21
0.0760952
0
LINE
8
BLACK
6
CONTINUOUS
10
1.10458
20
0.0760952
11
1.1137
21
0.0863004
0
LINE
8
BLACK
6
CONTINUOUS
10
1.1137
20
0.0863004
11
1.1239
21
0.0954204
0
LINE
8
BLACK
6
CONTINUOUS
10
1.1239
20
0.0954204
11
1.13507
21
0.10334
0
LINE
8
BLACK
6
CONTINUOUS
10
1.13507
20
0.10334
11
1.14705
21
0.109961
0
LINE
8
BLACK
6
CONTINUOUS
10
1.14705
20
0.109961
11
1.15969
21
0.115198
0
LINE
8
BLACK
6
CONTINUOUS
10
1.15969
20
0.115198
11
1.17284
21
0.118987
0
LINE
8
BLACK
6
CONTINUOUS
10
1.17284
20
0.118987
11
1.18634
21
0.12128
0
LINE
8
BLACK
6
CONTINUOUS
10
1.18634
20
0.12128
11
1.2
21
0.122047
0
LINE
8
BLACK
6
CONTINUOUS
10
1.2
20
0.122047
11
1.21366
21
0.12128
0
LINE
8
BLACK
6
CONTINUOUS
10
0.481507
20
-0.0163627
11
0.482784
21
-0.0172161
0
LINE
8
BLACK
6
CONTINUOUS
10
0.482784
20
-0.0172161
11
0.483637
21
-0.0184934
0
LINE
8
BLACK
6
CONTINUOUS
10
0.483637
20
-0.0184934
11
0.483937
21
-0.02
0
LINE
8
BLACK
6
CONTINUOUS
10
0.483937
20
-0.02
11
0.483937
21
-0.08
0
LINE
8
BLACK
6
CONTINUOUS
10
0.483937
20
-0.08
11
0.483637
21
-0.0815066
0
LINE
8
BLACK
6
CONTINUOUS
10
0.483637
20
-0.0815066
11
0.482784
21
-0.0827839
0
LINE
8
BLACK
6
CONTINUOUS
10
0.482784
20
-0.0827839
11
0.481507
21
-0.0836373
0
LINE
8
BLACK
6
CONTINUOUS
10
0.481507
20
-0.0836373
11
0.48
21
-0.083937
0
LINE
8
BLACK
6
CONTINUOUS
10
0.48
20
-0.083937
11
0.42
21
-0.083937
0
LINE
8
BLACK
6
CONTINUOUS
10
0.42
20
-0.083937
11
0.418493
21
-0.0836373
0
LINE
8
BLACK
6
CONTINUOUS
10
0.418493
20
-0.0836373
11
0.417216
21
-0.0827839
0
LINE
8
BLACK
6
CONTINUOUS
10
0.417216
20
-0.0827839
11
0.416363
21
-0.0815066
0
LINE
8
BLACK
6
CONTINUOUS
10
0.416363
20
-0.0815066
11
0.416063
21
-0.08
0
LINE
8
BLACK
6
CONTINUOUS
10
0.416063
20
-0.08
11
0.416063
21
-0.02
0
LINE
8
BLACK
6
CONTINUOUS
10
0.416063
20
-0.02
11
0.416363
21
-0.0184934
0
LINE
8
BLACK
6
CONTINUOUS
10
0.416363
20
-0.0184934
11
0.417216
21
-0.0172161
0
LINE
8
BLACK
6
CONTINUOUS
10
0.417216
20
-0.0172161
11
0.418493
21
-0.0163627
0
LINE
8
BLACK
6
CONTINUOUS
10
0.418493
20
-0.0163627
11
0.42
21
-0.016063
0
LINE
8
BLACK
6
CONTINUOUS
10
0.42
20
-0.016063
11
0.48
21
-0.016063
0
LINE
8
BLACK
6
CONTINUOUS
10
0.48
20
-0.016063
11
0.481507
21
-0.0163627
0
LINE
8
BLACK
6
CONTINUOUS
10
0.581507
20
-0.0163627
11
0.582784
21
-0.0172161
0
LINE
8
BLACK
6
CONTINUOUS
10
0.582784
20
-0.0172161
11
0.583637
21
-0.0184934
0
LINE
8
BLACK
6
CONTINUOUS
10
0.583637
20
-0.0184934
11
0.583937
21
-0.02
0
LINE
8
BLACK
6
CONTINUOUS
10
0.583937
20
-0.02
11
0.583937
21
-0.08
0
LINE
8
BLACK
6
CONTINUOUS
10
0.583937
20
-0.08
11
0.583637
21
-0.0815066
0
LINE
8
BLACK
6
CONTINUOUS
10
0.583637
20
-0.0815066
11
0.582784
21
-0.0827839
0
LINE
8
BLACK
6
CONTINUOUS
10
0.582784
20
-0.0827839
11
0.581507
21
-0.0836373
0
LINE
8
BLACK
6
CONTINUOUS
10
0.581507
20
-0.0836373
11
0.58
21
-0.083937
0
LINE
8
BLACK
6
CONTINUOUS
10
0.58
20
-0.083937
11
0.52
21
-0.083937
0
LINE
8
BLACK
6
CONTINUOUS
10
0.52
20
-0.083937
11
0.518493
21
-0.0836373
0
LINE
8
BLACK
6
CONTINUOUS
10
0.518493
20
-0.0836373
11
0.517216
21
-0.0827839
0
LINE
8
BLACK
6
CONTINUOUS
10
0.517216
20
-0.0827839
11
0.516363
21
-0.0815066
0
LINE
8
BLACK
6
CONTINUOUS
10
0.516363
20
-0.0815066
11
0.516063
21
-0.08
0
LINE
8
BLACK
6
CONTINUOUS
10
0.516063
20
-0.08
11
0.516063
21
-0.02
0
LINE
8
BLACK
6
CONTINUOUS
10
0.516063
20
-0.02
11
0.516363
21
-0.0184934
0
LINE
8
BLACK
6
CONTINUOUS
10
0.516363
20
-0.0184934
11
0.517216
21
-0.0172161
0
LINE
8
BLACK
6
CONTINUOUS
10
0.517216
20
-0.0172161
11
0.518493
21
-0.0163627
0
LINE
8
BLACK
6
CONTINUOUS
10
0.518493
20
-0.0163627
11
0.52
21
-0.016063
0
LINE
8
BLACK
6
CONTINUOUS
10
0.52
20
-0.016063
11
0.58
21
-0.016063
0
LINE
8
BLACK
6
CONTINUOUS
10
0.58
20
-0.016063
11
0.581507
21
-0.0163627
0
LINE
8
BLACK
6
CONTINUOUS
10
0.681507
20
-0.0163627
11
0.682784
21
-0.0172161
0
LINE
8
BLACK
6
CONTINUOUS
10
0.682784
20
-0.0172161
11
0.683637
21
-0.0184934
0
LINE
8
BLACK
6
CONTINUOUS
10
0.683637
20
-0.0184934
11
0.683937
21
-0.02
0
LINE
8
BLACK
6
CONTINUOUS
10
0.683937
20
-0.02
11
0.683937
21
-0.08
0
LINE
8
BLACK
6
CONTINUOUS
10
0.683937
20
-0.08
11
0.683637
21
-0.0815066
0
LINE
8
BLACK
6
CONTINUOUS
10
0.683637
20
-0.0815066
11
0.682784
21
-0.0827839
0
LINE
8
BLACK
6
CONTINUOUS
10
0.682784
20
-0.0827839
11
0.681507
21
-0.0836373
0
LINE
8
BLACK
6
CONTINUOUS
10
0.681507
20
-0.0836373
11
0.68
21
-0.083937
0
LINE
8
BLACK
6
CONTINUOUS
10
0.68
20
-0.083937
11
0.62
21
-0.083937
0
LINE
8
BLACK
6
CONTINUOUS
10
0.62
20
-0.083937
11
0.618493
21
-0.0836373
0
LINE
8
BLACK
6
CONTINUOUS
10
0.618493
20
-0.0836373
11
0.617216
21
-0.0827839
0
LINE
8
BLACK
6
CONTINUOUS
10
0.617216
20
-0.0827839
11
0.616363
21
-0.0815066
0
LINE
8
BLACK
6
CONTINUOUS
10
0.616363
20
-0.0815066
11
0.616063
21
-0.08
0
LINE
8
BLACK
6
CONTINUOUS
10
0.616063
20
-0.08
11
0.616063
21
-0.02
0
LINE
8
BLACK
6
CONTINUOUS
10
0.616063
20
-0.02
11
0.616363
21
-0.0184934
0
LINE
8
BLACK
6
CONTINUOUS
10
0.616363
20
-0.0184934
11
0.617216
21
-0.0172161
0
LINE
8
BLACK
6
CONTINUOUS
10
0.617216
20
-0.0172161
11
0.618493
21
-0.0163627
0
LINE
8
BLACK
6
CONTINUOUS
10
0.618493
20
-0.0163627
11
0.62
21
-0.016063
0
LINE
8
BLACK
6
CONTINUOUS
10
0.62
20
-0.016063
11
0.68
21
-0.016063
0
LINE
8
BLACK
6
CONTINUOUS
10
0.68
20
-0.016063
11
0.681507
21
-0.0163627
0
LINE
8
BLACK
6
CONTINUOUS
10
0.831507
20
-0.0163627
11
0.832784
21
-0.0172161
0
LINE
8
BLACK
6
CONTINUOUS
10
0.832784
20
-0.0172161
11
0.833637
21
-0.0184934
0
LINE
8
BLACK
6
CONTINUOUS
10
0.833637
20
-0.0184934
11
0.833937
21
-0.02
0
LINE
8
BLACK
6
CONTINUOUS
10
0.833937
20
-0.02
11
0.833937
21
-0.08
0
LINE
8
BLACK
6
CONTINUOUS
10
0.833937
20
-0.08
11
0.833637
21
-0.0815066
0
LINE
8
BLACK
6
CONTINUOUS
10
0.833637
20
-0.0815066
11
0.832784
21
-0.0827839
0
LINE
8
BLACK
6
CONTINUOUS
10
0.832784
20
-0.0827839
11
0.831507
21
-0.0836373
0
LINE
8
BLACK
6
CONTINUOUS
10
0.831507
20
-0.0836373
11
0.83
21
-0.083937
0
LINE
8
BLACK
6
CONTINUOUS
10
0.83
20
-0.083937
11
0.77
21
-0.083937
0
LINE
8
BLACK
6
CONTINUOUS
10
0.77
20
-0.083937
11
0.768493
21
-0.0836373
0
LINE
8
BLACK
6
CONTINUOUS
10
0.768493
20
-0.0836373
11
0.767216
21
-0.0827839
0
LINE
8
BLACK
6
CONTINUOUS
10
0.767216
20
-0.0827839
11
0.766363
21
-0.0815066
0
LINE
8
BLACK
6
CONTINUOUS
10
0.766363
20
-0.0815066
11
0.766063
21
-0.08
0
LINE
8
BLACK
6
CONTINUOUS
10
0.766063
20
-0.08
11
0.766063
21
-0.02
0
LINE
8
BLACK
6
CONTINUOUS
10
0.766063
20
-0.02
11
0.766363
21
-0.0184934
0
LINE
8
BLACK
6
CONTINUOUS
10
0.766363
20
-0.0184934
11
0.767216
21
-0.0172161
0
LINE
8
BLACK
6
CONTINUOUS
10
0.767216
20
-0.0172161
11
0.768493
21
-0.0163627
0
LINE
8
BLACK
6
CONTINUOUS
10
0.768493
20
-0.0163627
11
0.77
21
-0.016063
0
LINE
8
BLACK
6
CONTINUOUS
10
0.77
20
-0.016063
11
0.83
21
-0.016063
0
LINE
8
BLACK
6
CONTINUOUS
10
0.83
20
-0.016063
11
0.831507
21
-0.0163627
0
LINE
8
BLACK
6
CONTINUOUS
10
0.931507
20
-0.0163627
11
0.932784
21
-0.0172161
0
LINE
8
BLACK
6
CONTINUOUS
10
0.932784
20
-0.0172161
11
0.933637
21
-0.0184934
0
LINE
8
BLACK
6
CONTINUOUS
10
0.933637
20
-0.0184934
11
0.933937
21
-0.02
0
LINE
8
BLACK
6
CONTINUOUS
10
0.933937
20
-0.02
11
0.933937
21
-0.08
0
LINE
8
BLACK
6
CONTINUOUS
10
0.933937
20
-0.08
11
0.933637
21
-0.0815066
0
LINE
8
BLACK
6
CONTINUOUS
10
0.933637
20
-0.0815066
11
0.932784
21
-0.0827839
0
LINE
8
BLACK
6
CONTINUOUS
10
0.932784
20
-0.0827839
11
0.931507
21
-0.0836373
0
LINE
8
BLACK
6
CONTINUOUS
10
0.931507
20
-0.0836373
11
0.93
21
-0.083937
0
LINE
8
BLACK
6
CONTINUOUS
10
0.93
20
-0.083937
11
0.87
21
-0.083937
0
LINE
8
BLACK
6
CONTINUOUS
10
0.87
20
-0.083937
11
0.868493
21
-0.0836373
0
LINE
8
BLACK
6
CONTINUOUS
10
0.868493
20
-0.0836373
11
0.867216
21
-0.0827839
0
LINE
8
BLACK
6
CONTINUOUS
10
0.867216
20
-0.0827839
11
0.866363
21
-0.0815066
0
LINE
8
BLACK
6
CONTINUOUS
10
0.866363
20
-0.0815066
11
0.866063
21
-0.08
0
LINE
8
BLACK
6
CONTINUOUS
10
0.866063
20
-0.08
11
0.866063
21
-0.02
0
LINE
8
BLACK
6
CONTINUOUS
10
0.866063
20
-0.02
11
0.866363
21
-0.0184934
0
LINE
8
BLACK
6
CONTINUOUS
10
0.866363
20
-0.0184934
11
0.867216
21
-0.0172161
0
LINE
8
BLACK
6
CONTINUOUS
10
0.867216
20
-0.0172161
11
0.868493
21
-0.0163627
0
LINE
8
BLACK
6
CONTINUOUS
10
0.868493
20
-0.0163627
11
0.87
21
-0.016063
0
LINE
8
BLACK
6
CONTINUOUS
10
0.87
20
-0.016063
11
0.93
21
-0.016063
0
LINE
8
BLACK
6
CONTINUOUS
10
0.93
20
-0.016063
11
0.931507
21
-0.0163627
0
LINE
8
BLACK
6
CONTINUOUS
10
1.03151
20
-0.0163627
11
1.03278
21
-0.0172161
0
LINE
8
BLACK
6
CONTINUOUS
10
1.03278
20
-0.0172161
11
1.03364
21
-0.0184934
0
LINE
8
BLACK
6
CONTINUOUS
10
1.03364
20
-0.0184934
11
1.03394
21
-0.02
0
LINE
8
BLACK
6
CONTINUOUS
10
1.03394
20
-0.02
11
1.03394
21
-0.08
0
LINE
8
BLACK
6
CONTINUOUS
10
1.03394
20
-0.08
11
1.03364
21
-0.0815066
0
LINE
8
BLACK
6
CONTINUOUS
10
1.03364
20
-0.0815066
11
1.03278
21
-0.0827839
0
LINE
8
BLACK
6
CONTINUOUS
10
1.03278
20
-0.0827839
11
1.03151
21
-0.0836373
0
LINE
8
BLACK
6
CONTINUOUS
10
1.03151
20
-0.0836373
11
1.03
21
-0.083937
0
LINE
8
BLACK
6
CONTINUOUS
10
1.03
20
-0.083937
11
0.97
21
-0.083937
0
LINE
8
BLACK
6
CONTINUOUS
10
0.97
20
-0.083937
11
0.968493
21
-0.0836373
0
LINE
8
BLACK
6
CONTINUOUS
10
0.968493
20
-0.0836373
11
0.967216
21
-0.0827839
0
LINE
8
BLACK
6
CONTINUOUS
10
0.967216
20
-0.0827839
11
0.966363
21
-0.0815066
0
LINE
8
BLACK
6
CONTINUOUS
10
0.966363
20
-0.0815066
11
0.966063
21
-0.08
0
LINE
8
BLACK
6
CONTINUOUS
10
0.966063
20
-0.08
11
0.966063
21
-0.02
0
LINE
8
BLACK
6
CONTINUOUS
10
0.966063
20
-0.02
11
0.966363
21
-0.0184934
0
LINE
8
BLACK
6
CONTINUOUS
10
0.966363
20
-0.0184934
11
0.967216
21
-0.0172161
0
LINE
8
BLACK
6
CONTINUOUS
10
0.967216
20
-0.0172161
11
0.968493
21
-0.0163627
0
LINE
8
BLACK
6
CONTINUOUS
10
0.968493
20
-0.0163627
11
0.97
21
-0.016063
0
LINE
8
BLACK
6
CONTINUOUS
10
0.97
20
-0.016063
11
1.03
21
-0.016063
0
LINE
8
BLACK
6
CONTINUOUS
10
1.03
20
-0.016063
11
1.03151
21
-0.0163627
0
LINE
8
BLACK
6
CONTINUOUS
10
0.481507
20
0.0836373
11
0.482784
21
0.0827839
0
LINE
8
BLACK
6
CONTINUOUS
10
0.482784
20
0.0827839
11
0.483637
21
0.0815066
0
LINE
8
BLACK
6
CONTINUOUS
10
0.483637
20
0.0815066
11
0.483937
21
0.08
0
LINE
8
BLACK
6
CONTINUOUS
10
0.483937
20
0.08
11
0.483937
21
0.02
0
LINE
8
BLACK
6
CONTINUOUS
10
0.483937
20
0.02
11
0.483637
21
0.0184934
0
LINE
8
BLACK
6
CONTINUOUS
10
0.483637
20
0.0184934
11
0.482784
21
0.0172161
0
LINE
8
BLACK
6
CONTINUOUS
10
0.482784
20
0.0172161
11
0.481507
21
0.0163627
0
LINE
8
BLACK
6
CONTINUOUS
10
0.481507
20
0.0163627
11
0.48
21
0.016063
0
LINE
8
BLACK
6
CONTINUOUS
10
0.48
20
0.016063
11
0.42
21
0.016063
0
LINE
8
BLACK
6
CONTINUOUS
10
0.42
20
0.016063
11
0.418493
21
0.0163627
0
LINE
8
BLACK
6
CONTINUOUS
10
0.418493
20
0.0163627
11
0.417216
21
0.0172161
0
LINE
8
BLACK
6
CONTINUOUS
10
0.417216
20
0.0172161
11
0.416363
21
0.0184934
0
LINE
8
BLACK
6
CONTINUOUS
10
0.416363
20
0.0184934
11
0.416063
21
0.02
0
LINE
8
BLACK
6
CONTINUOUS
10
0.416063
20
0.02
11
0.416063
21
0.08
0
LINE
8
BLACK
6
CONTINUOUS
10
0.416063
20
0.08
11
0.416363
21
0.0815066
0
LINE
8
BLACK
6
CONTINUOUS
10
0.416363
20
0.0815066
11
0.417216
21
0.0827839
0
LINE
8
BLACK
6
CONTINUOUS
10
0.417216
20
0.0827839
11
0.418493
21
0.0836373
0
LINE
8
BLACK
6
CONTINUOUS
10
0.418493
20
0.0836373
11
0.42
21
0.083937
0
LINE
8
BLACK
6
CONTINUOUS
10
0.42
20
0.083937
11
0.48
21
0.083937
0
LINE
8
BLACK
6
CONTINUOUS
10
0.48
20
0.083937
11
0.481507
21
0.0836373
0
LINE
8
BLACK
6
CONTINUOUS
10
0.581507
20
0.0836373
11
0.582784
21
0.0827839
0
LINE
8
BLACK
6
CONTINUOUS
10
0.582784
20
0.0827839
11
0.583637
21
0.0815066
0
LINE
8
BLACK
6
CONTINUOUS
10
0.583637
20
0.0815066
11
0.583937
21
0.08
0
LINE
8
BLACK
6
CONTINUOUS
10
0.583937
20
0.08
11
0.583937
21
0.02
0
LINE
8
BLACK
6
CONTINUOUS
10
0.583937
20
0.02
11
0.583637
21
0.0184934
0
LINE
8
BLACK
6
CONTINUOUS
10
0.583637
20
0.0184934
11
0.582784
21
0.0172161
0
LINE
8
BLACK
6
CONTINUOUS
10
0.582784
20
0.0172161
11
0.581507
21
0.0163627
0
LINE
8
BLACK
6
CONTINUOUS
10
0.581507
20
0.0163627
11
0.58
21
0.016063
0
LINE
8
BLACK
6
CONTINUOUS
10
0.58
20
0.016063
11
0.52
21
0.016063
0
LINE
8
BLACK
6
CONTINUOUS
10
0.52
20
0.016063
11
0.518493
21
0.0163627
0
LINE
8
BLACK
6
CONTINUOUS
10
0.518493
20
0.0163627
11
0.517216
21
0.0172161
0
LINE
8
BLACK
6
CONTINUOUS
10
0.517216
20
0.0172161
11
0.516363
21
0.0184934
0
LINE
8
BLACK
6
CONTINUOUS
10
0.516363
20
0.0184934
11
0.516063
21
0.02
0
LINE
8
BLACK
6
CONTINUOUS
10
0.516063
20
0.02
11
0.516063
21
0.08
0
LINE
8
BLACK
6
CONTINUOUS
10
0.516063
20
0.08
11
0.516363
21
0.0815066
0
LINE
8
BLACK
6
CONTINUOUS
10
0.516363
20
0.0815066
11
0.517216
21
0.0827839
0
LINE
8
BLACK
6
CONTINUOUS
10
0.517216
20
0.0827839
11
0.518493
21
0.0836373
0
LINE
8
BLACK
6
CONTINUOUS
10
0.518493
20
0.0836373
11
0.52
21
0.083937
0
LINE
8
BLACK
6
CONTINUOUS
10
0.52
20
0.083937
11
0.58
21
0.083937
0
LINE
8
BLACK
6
CONTINUOUS
10
0.58
20
0.083937
11
0.581507
21
0.0836373
0
LINE
8
BLACK
6
CONTINUOUS
10
0.681507
20
0.0836373
11
0.682784
21
0.0827839
0
LINE
8
BLACK
6
CONTINUOUS
10
0.682784
20
0.0827839
11
0.683637
21
0.0815066
0
LINE
8
BLACK
6
CONTINUOUS
10
0.683637
20
0.0815066
11
0.683937
21
0.08
0
LINE
8
BLACK
6
CONTINUOUS
10
0.683937
20
0.08
11
0.683937
21
0.02
0
LINE
8
BLACK
6
CONTINUOUS
10
0.683937
20
0.02
11
0.683637
21
0.0184934
0
LINE
8
BLACK
6
CONTINUOUS
10
0.683637
20
0.0184934
11
0.682784
21
0.0172161
0
LINE
8
BLACK
6
CONTINUOUS
10
0.682784
20
0.0172161
11
0.681507
21
0.0163627
0
LINE
8
BLACK
6
CONTINUOUS
10
0.681507
20
0.0163627
11
0.68
21
0.016063
0
LINE
8
BLACK
6
CONTINUOUS
10
0.68
20
0.016063
11
0.62
21
0.016063
0
LINE
8
BLACK
6
CONTINUOUS
10
0.62
20
0.016063
11
0.618493
21
0.0163627
0
LINE
8
BLACK
6
CONTINUOUS
10
0.618493
20
0.0163627
11
0.617216
21
0.0172161
0
LINE
8
BLACK
6
CONTINUOUS
10
0.617216
20
0.0172161
11
0.616363
21
0.0184934
0
LINE
8
BLACK
6
CONTINUOUS
10
0.616363
20
0.0184934
11
0.616063
21
0.02
0
LINE
8
BLACK
6
CONTINUOUS
10
0.616063
20
0.02
11
0.616063
21
0.08
0
LINE
8
BLACK
6
CONTINUOUS
10
0.616063
20
0.08
11
0.616363
21
0.0815066
0
LINE
8
BLACK
6
CONTINUOUS
10
0.616363
20
0.0815066
11
0.617216
21
0.0827839
0
LINE
8
BLACK
6
CONTINUOUS
10
0.617216
20
0.0827839
11
0.618493
21
0.0836373
0
LINE
8
BLACK
6
CONTINUOUS
10
0.618493
20
0.0836373
11
0.62
21
0.083937
0
LINE
8
BLACK
6
CONTINUOUS
10
0.62
20
0.083937
11
0.68
21
0.083937
0
LINE
8
BLACK
6
CONTINUOUS
10
0.68
20
0.083937
11
0.681507
21
0.0836373
0
LINE
8
BLACK
6
CONTINUOUS
10
0.831507
20
0.0836373
11
0.832784
21
0.0827839
0
LINE
8
BLACK
6
CONTINUOUS
10
0.832784
20
0.0827839
11
0.833637
21
0.0815066
0
LINE
8
BLACK
6
CONTINUOUS
10
0.833637
20
0.0815066
11
0.833937
21
0.08
0
LINE
8
BLACK
6
CONTINUOUS
10
0.833937
20
0.08
11
0.833937
21
0.02
0
LINE
8
BLACK
6
CONTINUOUS
10
0.833937
20
0.02
11
0.833637
21
0.0184934
0
LINE
8
BLACK
6
CONTINUOUS
10
0.833637
20
0.0184934
11
0.832784
21
0.0172161
0
LINE
8
BLACK
6
CONTINUOUS
10
0.832784
20
0.0172161
11
0.831507
21
0.0163627
0
LINE
8
BLACK
6
CONTINUOUS
10
0.831507
20
0.0163627
11
0.83
21
0.016063
0
LINE
8
BLACK
6
CONTINUOUS
10
0.83
20
0.016063
11
0.77
21
0.016063
0
LINE
8
BLACK
6
CONTINUOUS
10
0.77
20
0.016063
11
0.768493
21
0.0163627
0
LINE
8
BLACK
6
CONTINUOUS
10
0.768493
20
0.0163627
11
0.767216
21
0.0172161
0
LINE
8
BLACK
6
CONTINUOUS
10
0.767216
20
0.0172161
11
0.766363
21
0.0184934
0
LINE
8
BLACK
6
CONTINUOUS
10
0.766363
20
0.0184934
11
0.766063
21
0.02
0
LINE
8
BLACK
6
CONTINUOUS
10
0.766063
20
0.02
11
0.766063
21
0.08
0
LINE
8
BLACK
6
CONTINUOUS
10
0.766063
20
0.08
11
0.766363
21
0.0815066
0
LINE
8
BLACK
6
CONTINUOUS
10
0.766363
20
0.0815066
11
0.767216
21
0.0827839
0
LINE
8
BLACK
6
CONTINUOUS
10
0.767216
20
0.0827839
11
0.768493
21
0.0836373
0
LINE
8
BLACK
6
CONTINUOUS
10
0.768493
20
0.0836373
11
0.77
21
0.083937
0
LINE
8
BLACK
6
CONTINUOUS
10
0.77
20
0.083937
11
0.83
21
0.083937
0
LINE
8
BLACK
6
CONTINUOUS
10
0.83
20
0.083937
11
0.831507
21
0.0836373
0
LINE
8
BLACK
6
CONTINUOUS
10
0.931507
20
0.0836373
11
0.932784
21
0.0827839
0
LINE
8
BLACK
6
CONTINUOUS
10
0.932784
20
0.0827839
11
0.933637
21
0.0815066
0
LINE
8
BLACK
6
CONTINUOUS
10
0.933637
20
0.0815066
11
0.933937
21
0.08
0
LINE
8
BLACK
6
CONTINUOUS
10
0.933937
20
0.08
11
0.933937
21
0.02
0
LINE
8
BLACK
6
CONTINUOUS
10
0.933937
20
0.02
11
0.933637
21
0.0184934
0
LINE
8
BLACK
6
CONTINUOUS
10
0.933637
20
0.0184934
11
0.932784
21
0.0172161
0
LINE
8
BLACK
6
CONTINUOUS
10
0.932784
20
0.0172161
11
0.931507
21
0.0163627
0
LINE
8
BLACK
6
CONTINUOUS
10
0.931507
20
0.0163627
11
0.93
21
0.016063
0
LINE
8
BLACK
6
CONTINUOUS
10
0.93
20
0.016063
11
0.87
21
0.016063
0
LINE
8
BLACK
6
CONTINUOUS
10
0.87
20
0.016063
11
0.868493
21
0.0163627
0
LINE
8
BLACK
6
CONTINUOUS
10
0.868493
20
0.0163627
11
0.867216
21
0.0172161
0
LINE
8
BLACK
6
CONTINUOUS
10
0.867216
20
0.0172161
11
0.866363
21
0.0184934
0
LINE
8
BLACK
6
CONTINUOUS
10
0.866363
20
0.0184934
11
0.866063
21
0.02
0
LINE
8
BLACK
6
CONTINUOUS
10
0.866063
20
0.02
11
0.866063
21
0.08
0
LINE
8
BLACK
6
CONTINUOUS
10
0.866063
20
0.08
11
0.866363
21
0.0815066
0
LINE
8
BLACK
6
CONTINUOUS
10
0.866363
20
0.0815066
11
0.867216
21
0.0827839
0
LINE
8
BLACK
6
CONTINUOUS
10
0.867216
20
0.0827839
11
0.868493
21
0.0836373
0
LINE
8
BLACK
6
CONTINUOUS
10
0.868493
20
0.0836373
11
0.87
21
0.083937
0
LINE
8
BLACK
6
CONTINUOUS
10
0.87
20
0.083937
11
0.93
21
0.083937
0
LINE
8
BLACK
6
CONTINUOUS
10
0.93
20
0.083937
11
0.931507
21
0.0836373
0
LINE
8
BLACK
6
CONTINUOUS
10
1.03151
20
0.0836373
11
1.03278
21
0.0827839
0
LINE
8
BLACK
6
CONTINUOUS
10
1.03278
20
0.0827839
11
1.03364
21
0.0815066
0
LINE
8
BLACK
6
CONTINUOUS
10
1.03364
20
0.0815066
11
1.03394
21
0.08
0
LINE
8
BLACK
6
CONTINUOUS
10
1.03394
20
0.08
11
1.03394
21
0.02
0
LINE
8
BLACK
6
CONTINUOUS
10
1.03394
20
0.02
11
1.03364
21
0.0184934
0
LINE
8
BLACK
6
CONTINUOUS
10
1.03364
20
0.0184934
11
1.03278
21
0.0172161
0
LINE
8
BLACK
6
CONTINUOUS
10
1.03278
20
0.0172161
11
1.03151
21
0.0163627
0
LINE
8
BLACK
6
CONTINUOUS
10
1.03151
20
0.0163627
11
1.03
21
0.016063
0
LINE
8
BLACK
6
CONTINUOUS
10
1.03
20
0.016063
11
0.97
21
0.016063
0
LINE
8
BLACK
6
CONTINUOUS
10
0.97
20
0.016063
11
0.968493
21
0.0163627
0
LINE
8
BLACK
6
CONTINUOUS
10
0.968493
20
0.0163627
11
0.967216
21
0.0172161
0
LINE
8
BLACK
6
CONTINUOUS
10
0.967216
20
0.0172161
11
0.966363
21
0.0184934
0
LINE
8
BLACK
6
CONTINUOUS
10
0.966363
20
0.0184934
11
0.966063
21
0.02
0
LINE
8
BLACK
6
CONTINUOUS
10
0.966063
20
0.02
11
0.966063
21
0.08
0
LINE
8
BLACK
6
CONTINUOUS
10
0.966063
20
0.08
11
0.966363
21
0.0815066
0
LINE
8
BLACK
6
CONTINUOUS
10
0.966363
20
0.0815066
11
0.967216
21
0.0827839
0
LINE
8
BLACK
6
CONTINUOUS
10
0.967216
20
0.0827839
11
0.968493
21
0.0836373
0
LINE
8
BLACK
6
CONTINUOUS
10
0.968493
20
0.0836373
11
0.97
21
0.083937
0
LINE
8
BLACK
6
CONTINUOUS
10
0.97
20
0.083937
11
1.03
21
0.083937
0
LINE
8
BLACK
6
CONTINUOUS
10
1.03
20
0.083937
11
1.03151
21
0.0836373
0
LINE
8
BLACK
6
CONTINUOUS
10
0.234932
20
0.229298
11
0.245087
21
0.227089
0
LINE
8
BLACK
6
CONTINUOUS
10
0.245087
20
0.227089
11
0.254824
21
0.223457
0
LINE
8
BLACK
6
CONTINUOUS
10
0.254824
20
0.223457
11
0.263944
21
0.218477
0
LINE
8
BLACK
6
CONTINUOUS
10
0.263944
20
0.218477
11
0.272263
21
0.212249
0
LINE
8
BLACK
6
CONTINUOUS
10
0.272263
20
0.212249
11
0.279612
21
0.204901
0
LINE
8
BLACK
6
CONTINUOUS
10
0.279612
20
0.204901
11
0.285839
21
0.196582
0
LINE
8
BLACK
6
CONTINUOUS
10
0.285839
20
0.196582
11
0.29082
21
0.187461
0
LINE
8
BLACK
6
CONTINUOUS
10
0.29082
20
0.187461
11
0.294451
21
0.177725
0
LINE
8
BLACK
6
CONTINUOUS
10
0.294451
20
0.177725
11
0.29666
21
0.16757
0
LINE
8
BLACK
6
CONTINUOUS
10
0.29666
20
0.16757
11
0.297402
21
0.157205
0
LINE
8
BLACK
6
CONTINUOUS
10
0.297402
20
0.157205
11
0.29666
21
0.146839
0
LINE
8
BLACK
6
CONTINUOUS
10
0.29666
20
0.146839
11
0.294451
21
0.136685
0
LINE
8
BLACK
6
CONTINUOUS
10
0.294451
20
0.136685
11
0.29082
21
0.126948
0
LINE
8
BLACK
6
CONTINUOUS
10
0.29082
20
0.126948
11
0.285839
21
0.117827
0
LINE
8
BLACK
6
CONTINUOUS
10
0.285839
20
0.117827
11
0.279612
21
0.109508
0
LINE
8
BLACK
6
CONTINUOUS
10
0.279612
20
0.109508
11
0.272263
21
0.10216
0
LINE
8
BLACK
6
CONTINUOUS
10
0.272263
20
0.10216
11
0.263944
21
0.0959323
0
LINE
8
BLACK
6
CONTINUOUS
10
0.263944
20
0.0959323
11
0.254824
21
0.090952
0
LINE
8
BLACK
6
CONTINUOUS
10
0.254824
20
0.090952
11
0.245087
21
0.0873204
0
LINE
8
BLACK
6
CONTINUOUS
10
0.245087
20
0.0873204
11
0.234932
21
0.0851114
0
LINE
8
BLACK
6
CONTINUOUS
10
0.234932
20
0.0851114
11
0.224567
21
0.0843701
0
LINE
8
BLACK
6
CONTINUOUS
10
0.224567
20
0.0843701
11
0.214201
21
0.0851114
0
LINE
8
BLACK
6
CONTINUOUS
10
0.214201
20
0.0851114
11
0.204047
21
0.0873204
0
LINE
8
BLACK
6
CONTINUOUS
10
0.204047
20
0.0873204
11
0.19431
21
0.090952
0
LINE
8
BLACK
6
CONTINUOUS
10
0.19431
20
0.090952
11
0.18519
21
0.0959323
0
LINE
8
BLACK
6
CONTINUOUS
10
0.18519
20
0.0959323
11
0.17687
21
0.10216
0
LINE
8
BLACK
6
CONTINUOUS
10
0.17687
20
0.10216
11
0.169522
21
0.109508
0
LINE
8
BLACK
6
CONTINUOUS
10
0.169522
20
0.109508
11
0.163295
21
0.117827
0
LINE
8
BLACK
6
CONTINUOUS
10
0.163295
20
0.117827
11
0.158314
21
0.126948
0
LINE
8
BLACK
6
CONTINUOUS
10
0.158314
20
0.126948
11
0.154683
21
0.136685
0
LINE
8
BLACK
6
CONTINUOUS
10
0.154683
20
0.136685
11
0.152474
21
0.146839
0
LINE
8
BLACK
6
CONTINUOUS
10
0.152474
20
0.146839
11
0.151732
21
0.157205
0
LINE
8
BLACK
6
CONTINUOUS
10
0.151732
20
0.157205
11
0.152474
21
0.16757
0
LINE
8
BLACK
6
CONTINUOUS
10
0.152474
20
0.16757
11
0.154683
21
0.177725
0
LINE
8
BLACK
6
CONTINUOUS
10
0.154683
20
0.177725
11
0.158314
21
0.187461
0
LINE
8
BLACK
6
CONTINUOUS
10
0.158314
20
0.187461
11
0.163295
21
0.196582
0
LINE
8
BLACK
6
CONTINUOUS
10
0.163295
20
0.196582
11
0.169522
21
0.204901
0
LINE
8
BLACK
6
CONTINUOUS
10
0.169522
20
0.204901
11
0.17687
21
0.212249
0
LINE
8
BLACK
6
CONTINUOUS
10
0.17687
20
0.212249
11
0.18519
21
0.218477
0
LINE
8
BLACK
6
CONTINUOUS
10
0.18519
20
0.218477
11
0.19431
21
0.223457
0
LINE
8
BLACK
6
CONTINUOUS
10
0.19431
20
0.223457
11
0.204047
21
0.227089
0
LINE
8
BLACK
6
CONTINUOUS
10
0.204047
20
0.227089
11
0.214201
21
0.229298
0
LINE
8
BLACK
6
CONTINUOUS
10
0.214201
20
0.229298
11
0.224567
21
0.230039
0
LINE
8
BLACK
6
CONTINUOUS
10
0.224567
20
0.230039
11
0.234932
21
0.229298
0
LINE
8
BLACK
6
CONTINUOUS
10
1.18092
20
0.234189
11
1.18219
21
0.233335
0
LINE
8
BLACK
6
CONTINUOUS
10
1.18219
20
0.233335
11
1.18305
21
0.232058
0
LINE
8
BLACK
6
CONTINUOUS
10
1.18305
20
0.232058
11
1.18335
21
0.230551
0
LINE
8
BLACK
6
CONTINUOUS
10
1.18335
20
0.230551
11
1.18335
21
0.170551
0
LINE
8
BLACK
6
CONTINUOUS
10
1.18335
20
0.170551
11
1.18305
21
0.169045
0
LINE
8
BLACK
6
CONTINUOUS
10
1.18305
20
0.169045
11
1.18219
21
0.167767
0
LINE
8
BLACK
6
CONTINUOUS
10
1.18219
20
0.167767
11
1.18092
21
0.166914
0
LINE
8
BLACK
6
CONTINUOUS
10
1.18092
20
0.166914
11
1.17941
21
0.166614
0
LINE
8
BLACK
6
CONTINUOUS
10
1.17941
20
0.166614
11
1.11941
21
0.166614
0
LINE
8
BLACK
6
CONTINUOUS
10
1.11941
20
0.166614
11
1.1179
21
0.166914
0
LINE
8
BLACK
6
CONTINUOUS
10
1.1179
20
0.166914
11
1.11663
21
0.167767
0
LINE
8
BLACK
6
CONTINUOUS
10
1.11663
20
0.167767
11
1.11577
21
0.169045
0
LINE
8
BLACK
6
CONTINUOUS
10
1.11577
20
0.169045
11
1.11547
21
0.170551
0
LINE
8
BLACK
6
CONTINUOUS
10
1.11547
20
0.170551
11
1.11547
21
0.230551
0
LINE
8
BLACK
6
CONTINUOUS
10
1.11547
20
0.230551
11
1.11577
21
0.232058
0
LINE
8
BLACK
6
CONTINUOUS
10
1.11577
20
0.232058
11
1.11663
21
0.233335
0
LINE
8
BLACK
6
CONTINUOUS
10
1.11663
20
0.233335
11
1.1179
21
0.234189
0
LINE
8
BLACK
6
CONTINUOUS
10
1.1179
20
0.234189
11
1.11941
21
0.234488
0
LINE
8
BLACK
6
CONTINUOUS
10
1.11941
20
0.234488
11
1.17941
21
0.234488
0
LINE
8
BLACK
6
CONTINUOUS
10
1.17941
20
0.234488
11
1.18092
21
0.234189
0
LINE
8
BLACK
6
CONTINUOUS
10
1.28092
20
0.234189
11
1.28219
21
0.233335
0
LINE
8
BLACK
6
CONTINUOUS
10
1.28219
20
0.233335
11
1.28305
21
0.232058
0
LINE
8
BLACK
6
CONTINUOUS
10
1.28305
20
0.232058
11
1.28335
21
0.230551
0
LINE
8
BLACK
6
CONTINUOUS
10
1.28335
20
0.230551
11
1.28335
21
0.170551
0
LINE
8
BLACK
6
CONTINUOUS
10
1.28335
20
0.170551
11
1.28305
21
0.169045
0
LINE
8
BLACK
6
CONTINUOUS
10
1.28305
20
0.169045
11
1.28219
21
0.167767
0
LINE
8
BLACK
6
CONTINUOUS
10
1.28219
20
0.167767
11
1.28092
21
0.166914
0
LINE
8
BLACK
6
CONTINUOUS
10
1.28092
20
0.166914
11
1.27941
21
0.166614
0
LINE
8
BLACK
6
CONTINUOUS
10
1.27941
20
0.166614
11
1.21941
21
0.166614
0
LINE
8
BLACK
6
CONTINUOUS
10
1.21941
20
0.166614
11
1.2179
21
0.166914
0
LINE
8
BLACK
6
CONTINUOUS
10
1.2179
20
0.166914
11
1.21663
21
0.167767
0
LINE
8
BLACK
6
CONTINUOUS
10
1.21663
20
0.167767
11
1.21577
21
0.169045
0
LINE
8
BLACK
6
CONTINUOUS
10
1.21577
20
0.169045
11
1.21547
21
0.170551
0
LINE
8
BLACK
6
CONTINUOUS
10
1.21547
20
0.170551
11
1.21547
21
0.230551
0
LINE
8
BLACK
6
CONTINUOUS
10
1.21547
20
0.230551
11
1.21577
21
0.232058
0
LINE
8
BLACK
6
CONTINUOUS
10
1.21577
20
0.232058
11
1.21663
21
0.233335
0
LINE
8
BLACK
6
CONTINUOUS
10
1.21663
20
0.233335
11
1.2179
21
0.234189
0
LINE
8
BLACK
6
CONTINUOUS
10
1.2179
20
0.234189
11
1.21941
21
0.234488
0
LINE
8
BLACK
6
CONTINUOUS
10
1.21941
20
0.234488
11
1.27941
21
0.234488
0
LINE
8
BLACK
6
CONTINUOUS
10
1.27941
20
0.234488
11
1.28092
21
0.234189
0
LINE
8
BLACK
6
CONTINUOUS
10
1.18092
20
0.334189
11
1.18219
21
0.333335
0
LINE
8
BLACK
6
CONTINUOUS
10
1.18219
20
0.333335
11
1.18305
21
0.332058
0
LINE
8
BLACK
6
CONTINUOUS
10
1.18305
20
0.332058
11
1.18335
21
0.330551
0
LINE
8
BLACK
6
CONTINUOUS
10
1.18335
20
0.330551
11
1.18335
21
0.270551
0
LINE
8
BLACK
6
CONTINUOUS
10
1.18335
20
0.270551
11
1.18305
21
0.269045
0
LINE
8
BLACK
6
CONTINUOUS
10
1.18305
20
0.269045
11
1.18219
21
0.267767
0
LINE
8
BLACK
6
CONTINUOUS
10
1.18219
20
0.267767
11
1.18092
21
0.266914
0
LINE
8
BLACK
6
CONTINUOUS
10
1.18092
20
0.266914
11
1.17941
21
0.266614
0
LINE
8
BLACK
6
CONTINUOUS
10
1.17941
20
0.266614
11
1.11941
21
0.266614
0
LINE
8
BLACK
6
CONTINUOUS
10
1.11941
20
0.266614
11
1.1179
21
0.266914
0
LINE
8
BLACK
6
CONTINUOUS
10
1.1179
20
0.266914
11
1.11663
21
0.267767
0
LINE
8
BLACK
6
CONTINUOUS
10
1.11663
20
0.267767
11
1.11577
21
0.269045
0
LINE
8
BLACK
6
CONTINUOUS
10
1.11577
20
0.269045
11
1.11547
21
0.270551
0
LINE
8
BLACK
6
CONTINUOUS
10
1.11547
20
0.270551
11
1.11547
21
0.330551
0
LINE
8
BLACK
6
CONTINUOUS
10
1.11547
20
0.330551
11
1.11577
21
0.332058
0
LINE
8
BLACK
6
CONTINUOUS
10
1.11577
20
0.332058
11
1.11663
21
0.333335
0
LINE
8
BLACK
6
CONTINUOUS
10
1.11663
20
0.333335
11
1.1179
21
0.334189
0
LINE
8
BLACK
6
CONTINUOUS
10
1.1179
20
0.334189
11
1.11941
21
0.334488
0
LINE
8
BLACK
6
CONTINUOUS
10
1.11941
20
0.334488
11
1.17941
21
0.334488
0
LINE
8
BLACK
6
CONTINUOUS
10
1.17941
20
0.334488
11
1.18092
21
0.334189
0
LINE
8
BLACK
6
CONTINUOUS
10
1.28092
20
0.334189
11
1.28219
21
0.333335
0
LINE
8
BLACK
6
CONTINUOUS
10
1.28219
20
0.333335
11
1.28305
21
0.332058
0
LINE
8
BLACK
6
CONTINUOUS
10
1.28305
20
0.332058
11
1.28335
21
0.330551
0
LINE
8
BLACK
6
CONTINUOUS
10
1.28335
20
0.330551
11
1.28335
21
0.270551
0
LINE
8
BLACK
6
CONTINUOUS
10
1.28335
20
0.270551
11
1.28305
21
0.269045
0
LINE
8
BLACK
6
CONTINUOUS
10
1.28305
20
0.269045
11
1.28219
21
0.267767
0
LINE
8
BLACK
6
CONTINUOUS
10
1.28219
20
0.267767
11
1.28092
21
0.266914
0
LINE
8
BLACK
6
CONTINUOUS
10
1.28092
20
0.266914
11
1.27941
21
0.266614
0
LINE
8
BLACK
6
CONTINUOUS
10
1.27941
20
0.266614
11
1.21941
21
0.266614
0
LINE
8
BLACK
6
CONTINUOUS
10
1.21941
20
0.266614
11
1.2179
21
0.266914
0
LINE
8
BLACK
6
CONTINUOUS
10
1.2179
20
0.266914
11
1.21663
21
0.267767
0
LINE
8
BLACK
6
CONTINUOUS
10
1.21663
20
0.267767
11
1.21577
21
0.269045
0
LINE
8
BLACK
6
CONTINUOUS
10
1.21577
20
0.269045
11
1.21547
21
0.270551
0
LINE
8
BLACK
6
CONTINUOUS
10
1.21547
20
0.270551
11
1.21547
21
0.330551
0
LINE
8
BLACK
6
CONTINUOUS
10
1.21547
20
0.330551
11
1.21577
21
0.332058
0
LINE
8
BLACK
6
CONTINUOUS
10
1.21577
20
0.332058
11
1.21663
21
0.333335
0
LINE
8
BLACK
6
CONTINUOUS
10
1.21663
20
0.333335
11
1.2179
21
0.334189
0
LINE
8
BLACK
6
CONTINUOUS
10
1.2179
20
0.334189
11
1.21941
21
0.334488
0
LINE
8
BLACK
6
CONTINUOUS
10
1.21941
20
0.334488
11
1.27941
21
0.334488
0
LINE
8
BLACK
6
CONTINUOUS
10
1.27941
20
0.334488
11
1.28092
21
0.334189
0
LINE
8
BLACK
6
CONTINUOUS
10
0.338557
20
0.381683
11
0.345573
21
0.379555
0
LINE
8
BLACK
6
CONTINUOUS
10
0.345573
20
0.379555
11
0.352039
21
0.376098
0
LINE
8
BLACK
6
CONTINUOUS
10
0.352039
20
0.376098
11
0.357707
21
0.371447
0
LINE
8
BLACK
6
CONTINUOUS
10
0.357707
20
0.371447
11
0.362358
21
0.365779
0
LINE
8
BLACK
6
CONTINUOUS
10
0.362358
20
0.365779
11
0.365814
21
0.359313
0
LINE
8
BLACK
6
CONTINUOUS
10
0.365814
20
0.359313
11
0.367943
21
0.352297
0
LINE
8
BLACK
6
CONTINUOUS
10
0.367943
20
0.352297
11
0.368661
21
0.345
0
LINE
8
BLACK
6
CONTINUOUS
10
0.368661
20
0.345
11
0.367943
21
0.337703
0
LINE
8
BLACK
6
CONTINUOUS
10
0.367943
20
0.337703
11
0.365814
21
0.330687
0
LINE
8
BLACK
6
CONTINUOUS
10
0.365814
20
0.330687
11
0.362358
21
0.324221
0
LINE
8
BLACK
6
CONTINUOUS
10
0.362358
20
0.324221
11
0.357707
21
0.318553
0
LINE
8
BLACK
6
CONTINUOUS
10
0.357707
20
0.318553
11
0.352039
21
0.313902
0
LINE
8
BLACK
6
CONTINUOUS
10
0.352039
20
0.313902
11
0.345573
21
0.310445
0
LINE
8
BLACK
6
CONTINUOUS
10
0.345573
20
0.310445
11
0.338557
21
0.308317
0
LINE
8
BLACK
6
CONTINUOUS
10
0.338557
20
0.308317
11
0.33126
21
0.307598
0
LINE
8
BLACK
6
CONTINUOUS
10
0.33126
20
0.307598
11
0.323963
21
0.308317
0
LINE
8
BLACK
6
CONTINUOUS
10
0.323963
20
0.308317
11
0.316947
21
0.310445
0
LINE
8
BLACK
6
CONTINUOUS
10
0.316947
20
0.310445
11
0.310481
21
0.313902
0
LINE
8
BLACK
6
CONTINUOUS
10
0.310481
20
0.313902
11
0.304813
21
0.318553
0
LINE
8
BLACK
6
CONTINUOUS
10
0.304813
20
0.318553
11
0.300162
21
0.324221
0
LINE
8
BLACK
6
CONTINUOUS
10
0.300162
20
0.324221
11
0.296705
21
0.330687
0
LINE
8
BLACK
6
CONTINUOUS
10
0.296705
20
0.330687
11
0.294577
21
0.337703
0
LINE
8
BLACK
6
CONTINUOUS
10
0.294577
20
0.337703
11
0.293858
21
0.345
0
LINE
8
BLACK
6
CONTINUOUS
10
0.293858
20
0.345
11
0.294577
21
0.352297
0
LINE
8
BLACK
6
CONTINUOUS
10
0.294577
20
0.352297
11
0.296705
21
0.359313
0
LINE
8
BLACK
6
CONTINUOUS
10
0.296705
20
0.359313
11
0.300162
21
0.365779
0
LINE
8
BLACK
6
CONTINUOUS
10
0.300162
20
0.365779
11
0.304813
21
0.371447
0
LINE
8
BLACK
6
CONTINUOUS
10
0.304813
20
0.371447
11
0.310481
21
0.376098
0
LINE
8
BLACK
6
CONTINUOUS
10
0.310481
20
0.376098
11
0.316947
21
0.379555
0
LINE
8
BLACK
6
CONTINUOUS
10
0.316947
20
0.379555
11
0.323963
21
0.381683
0
LINE
8
BLACK
6
CONTINUOUS
10
0.323963
20
0.381683
11
0.33126
21
0.382402
0
LINE
8
BLACK
6
CONTINUOUS
10
0.33126
20
0.382402
11
0.338557
21
0.381683
0
LINE
8
BLACK
6
CONTINUOUS
10
0.444971
20
0.382102
11
0.446248
21
0.381248
0
LINE
8
BLACK
6
CONTINUOUS
10
0.446248
20
0.381248
11
0.447102
21
0.379971
0
LINE
8
BLACK
6
CONTINUOUS
10
0.447102
20
0.379971
11
0.447402
21
0.378465
0
LINE
8
BLACK
6
CONTINUOUS
10
0.447402
20
0.378465
11
0.447402
21
0.311535
0
LINE
8
BLACK
6
CONTINUOUS
10
0.447402
20
0.311535
11
0.447102
21
0.310029
0
LINE
8
BLACK
6
CONTINUOUS
10
0.447102
20
0.310029
11
0.446248
21
0.308752
0
LINE
8
BLACK
6
CONTINUOUS
10
0.446248
20
0.308752
11
0.444971
21
0.307898
0
LINE
8
BLACK
6
CONTINUOUS
10
0.444971
20
0.307898
11
0.443465
21
0.307598
0
LINE
8
BLACK
6
CONTINUOUS
10
0.443465
20
0.307598
11
0.376535
21
0.307598
0
LINE
8
BLACK
6
CONTINUOUS
10
0.376535
20
0.307598
11
0.375029
21
0.307898
0
LINE
8
BLACK
6
CONTINUOUS
10
0.375029
20
0.307898
11
0.373752
21
0.308752
0
LINE
8
BLACK
6
CONTINUOUS
10
0.373752
20
0.308752
11
0.372898
21
0.310029
0
LINE
8
BLACK
6
CONTINUOUS
10
0.372898
20
0.310029
11
0.372598
21
0.311535
0
LINE
8
BLACK
6
CONTINUOUS
10
0.372598
20
0.311535
11
0.372598
21
0.378465
0
LINE
8
BLACK
6
CONTINUOUS
10
0.372598
20
0.378465
11
0.372898
21
0.379971
0
LINE
8
BLACK
6
CONTINUOUS
10
0.372898
20
0.379971
11
0.373752
21
0.381248
0
LINE
8
BLACK
6
CONTINUOUS
10
0.373752
20
0.381248
11
0.375029
21
0.382102
0
LINE
8
BLACK
6
CONTINUOUS
10
0.375029
20
0.382102
11
0.376535
21
0.382402
0
LINE
8
BLACK
6
CONTINUOUS
10
0.376535
20
0.382402
11
0.443465
21
0.382402
0
LINE
8
BLACK
6
CONTINUOUS
10
0.443465
20
0.382402
11
0.444971
21
0.382102
0
LINE
8
BLACK
6
CONTINUOUS
10
1.18092
20
0.434189
11
1.18219
21
0.433335
0
LINE
8
BLACK
6
CONTINUOUS
10
1.18219
20
0.433335
11
1.18305
21
0.432058
0
LINE
8
BLACK
6
CONTINUOUS
10
1.18305
20
0.432058
11
1.18335
21
0.430551
0
LINE
8
BLACK
6
CONTINUOUS
10
1.18335
20
0.430551
11
1.18335
21
0.370551
0
LINE
8
BLACK
6
CONTINUOUS
10
1.18335
20
0.370551
11
1.18305
21
0.369045
0
LINE
8
BLACK
6
CONTINUOUS
10
1.18305
20
0.369045
11
1.18219
21
0.367767
0
LINE
8
BLACK
6
CONTINUOUS
10
1.18219
20
0.367767
11
1.18092
21
0.366914
0
LINE
8
BLACK
6
CONTINUOUS
10
1.18092
20
0.366914
11
1.17941
21
0.366614
0
LINE
8
BLACK
6
CONTINUOUS
10
1.17941
20
0.366614
11
1.11941
21
0.366614
0
LINE
8
BLACK
6
CONTINUOUS
10
1.11941
20
0.366614
11
1.1179
21
0.366914
0
LINE
8
BLACK
6
CONTINUOUS
10
1.1179
20
0.366914
11
1.11663
21
0.367767
0
LINE
8
BLACK
6
CONTINUOUS
10
1.11663
20
0.367767
11
1.11577
21
0.369045
0
LINE
8
BLACK
6
CONTINUOUS
10
1.11577
20
0.369045
11
1.11547
21
0.370551
0
LINE
8
BLACK
6
CONTINUOUS
10
1.11547
20
0.370551
11
1.11547
21
0.430551
0
LINE
8
BLACK
6
CONTINUOUS
10
1.11547
20
0.430551
11
1.11577
21
0.432058
0
LINE
8
BLACK
6
CONTINUOUS
10
1.11577
20
0.432058
11
1.11663
21
0.433335
0
LINE
8
BLACK
6
CONTINUOUS
10
1.11663
20
0.433335
11
1.1179
21
0.434189
0
LINE
8
BLACK
6
CONTINUOUS
10
1.1179
20
0.434189
11
1.11941
21
0.434488
0
LINE
8
BLACK
6
CONTINUOUS
10
1.11941
20
0.434488
11
1.17941
21
0.434488
0
LINE
8
BLACK
6
CONTINUOUS
10
1.17941
20
0.434488
11
1.18092
21
0.434189
0
LINE
8
BLACK
6
CONTINUOUS
10
1.28092
20
0.434189
11
1.28219
21
0.433335
0
LINE
8
BLACK
6
CONTINUOUS
10
1.28219
20
0.433335
11
1.28305
21
0.432058
0
LINE
8
BLACK
6
CONTINUOUS
10
1.28305
20
0.432058
11
1.28335
21
0.430551
0
LINE
8
BLACK
6
CONTINUOUS
10
1.28335
20
0.430551
11
1.28335
21
0.370551
0
LINE
8
BLACK
6
CONTINUOUS
10
1.28335
20
0.370551
11
1.28305
21
0.369045
0
LINE
8
BLACK
6
CONTINUOUS
10
1.28305
20
0.369045
11
1.28219
21
0.367767
0
LINE
8
BLACK
6
CONTINUOUS
10
1.28219
20
0.367767
11
1.28092
21
0.366914
0
LINE
8
BLACK
6
CONTINUOUS
10
1.28092
20
0.366914
11
1.27941
21
0.366614
0
LINE
8
BLACK
6
CONTINUOUS
10
1.27941
20
0.366614
11
1.21941
21
0.366614
0
LINE
8
BLACK
6
CONTINUOUS
10
1.21941
20
0.366614
11
1.2179
21
0.366914
0
LINE
8
BLACK
6
CONTINUOUS
10
1.2179
20
0.366914
11
1.21663
21
0.367767
0
LINE
8
BLACK
6
CONTINUOUS
10
1.21663
20
0.367767
11
1.21577
21
0.369045
0
LINE
8
BLACK
6
CONTINUOUS
10
1.21577
20
0.369045
11
1.21547
21
0.370551
0
LINE
8
BLACK
6
CONTINUOUS
10
1.21547
20
0.370551
11
1.21547
21
0.430551
0
LINE
8
BLACK
6
CONTINUOUS
10
1.21547
20
0.430551
11
1.21577
21
0.432058
0
LINE
8
BLACK
6
CONTINUOUS
10
1.21577
20
0.432058
11
1.21663
21
0.433335
0
LINE
8
BLACK
6
CONTINUOUS
10
1.21663
20
0.433335
11
1.2179
21
0.434189
0
LINE
8
BLACK
6
CONTINUOUS
10
1.2179
20
0.434189
11
1.21941
21
0.434488
0
LINE
8
BLACK
6
CONTINUOUS
10
1.21941
20
0.434488
11
1.27941
21
0.434488
0
LINE
8
BLACK
6
CONTINUOUS
10
1.27941
20
0.434488
11
1.28092
21
0.434189
0
LINE
8
BLACK
6
CONTINUOUS
10
0.338557
20
0.480108
11
0.345573
21
0.47798
0
LINE
8
BLACK
6
CONTINUOUS
10
0.345573
20
0.47798
11
0.352039
21
0.474523
0
LINE
8
BLACK
6
CONTINUOUS
10
0.352039
20
0.474523
11
0.357707
21
0.469872
0
LINE
8
BLACK
6
CONTINUOUS
10
0.357707
20
0.469872
11
0.362358
21
0.464204
0
LINE
8
BLACK
6
CONTINUOUS
10
0.362358
20
0.464204
11
0.365814
21
0.457738
0
LINE
8
BLACK
6
CONTINUOUS
10
0.365814
20
0.457738
11
0.367943
21
0.450722
0
LINE
8
BLACK
6
CONTINUOUS
10
0.367943
20
0.450722
11
0.368661
21
0.443425
0
LINE
8
BLACK
6
CONTINUOUS
10
0.368661
20
0.443425
11
0.367943
21
0.436129
0
LINE
8
BLACK
6
CONTINUOUS
10
0.367943
20
0.436129
11
0.365814
21
0.429112
0
LINE
8
BLACK
6
CONTINUOUS
10
0.365814
20
0.429112
11
0.362358
21
0.422646
0
LINE
8
BLACK
6
CONTINUOUS
10
0.362358
20
0.422646
11
0.357707
21
0.416978
0
LINE
8
BLACK
6
CONTINUOUS
10
0.357707
20
0.416978
11
0.352039
21
0.412327
0
LINE
8
BLACK
6
CONTINUOUS
10
0.352039
20
0.412327
11
0.345573
21
0.408871
0
LINE
8
BLACK
6
CONTINUOUS
10
0.345573
20
0.408871
11
0.338557
21
0.406742
0
LINE
8
BLACK
6
CONTINUOUS
10
0.338557
20
0.406742
11
0.33126
21
0.406024
0
LINE
8
BLACK
6
CONTINUOUS
10
0.33126
20
0.406024
11
0.323963
21
0.406742
0
LINE
8
BLACK
6
CONTINUOUS
10
0.323963
20
0.406742
11
0.316947
21
0.408871
0
LINE
8
BLACK
6
CONTINUOUS
10
0.316947
20
0.408871
11
0.310481
21
0.412327
0
LINE
8
BLACK
6
CONTINUOUS
10
0.310481
20
0.412327
11
0.304813
21
0.416978
0
LINE
8
BLACK
6
CONTINUOUS
10
0.304813
20
0.416978
11
0.300162
21
0.422646
0
LINE
8
BLACK
6
CONTINUOUS
10
0.300162
20
0.422646
11
0.296705
21
0.429112
0
LINE
8
BLACK
6
CONTINUOUS
10
0.296705
20
0.429112
11
0.294577
21
0.436129
0
LINE
8
BLACK
6
CONTINUOUS
10
0.294577
20
0.436129
11
0.293858
21
0.443425
0
LINE
8
BLACK
6
CONTINUOUS
10
0.293858
20
0.443425
11
0.294577
21
0.450722
0
LINE
8
BLACK
6
CONTINUOUS
10
0.294577
20
0.450722
11
0.296705
21
0.457738
0
LINE
8
BLACK
6
CONTINUOUS
10
0.296705
20
0.457738
11
0.300162
21
0.464204
0
LINE
8
BLACK
6
CONTINUOUS
10
0.300162
20
0.464204
11
0.304813
21
0.469872
0
LINE
8
BLACK
6
CONTINUOUS
10
0.304813
20
0.469872
11
0.310481
21
0.474523
0
LINE
8
BLACK
6
CONTINUOUS
10
0.310481
20
0.474523
11
0.316947
21
0.47798
0
LINE
8
BLACK
6
CONTINUOUS
10
0.316947
20
0.47798
11
0.323963
21
0.480108
0
LINE
8
BLACK
6
CONTINUOUS
10
0.323963
20
0.480108
11
0.33126
21
0.480827
0
LINE
8
BLACK
6
CONTINUOUS
10
0.33126
20
0.480827
11
0.338557
21
0.480108
0
LINE
8
BLACK
6
CONTINUOUS
10
0.417297
20
0.480108
11
0.424313
21
0.47798
0
LINE
8
BLACK
6
CONTINUOUS
10
0.424313
20
0.47798
11
0.430779
21
0.474523
0
LINE
8
BLACK
6
CONTINUOUS
10
0.430779
20
0.474523
11
0.436447
21
0.469872
0
LINE
8
BLACK
6
CONTINUOUS
10
0.436447
20
0.469872
11
0.441098
21
0.464204
0
LINE
8
BLACK
6
CONTINUOUS
10
0.441098
20
0.464204
11
0.444555
21
0.457738
0
LINE
8
BLACK
6
CONTINUOUS
10
0.444555
20
0.457738
11
0.446683
21
0.450722
0
LINE
8
BLACK
6
CONTINUOUS
10
0.446683
20
0.450722
11
0.447402
21
0.443425
0
LINE
8
BLACK
6
CONTINUOUS
10
0.447402
20
0.443425
11
0.446683
21
0.436129
0
LINE
8
BLACK
6
CONTINUOUS
10
0.446683
20
0.436129
11
0.444555
21
0.429112
0
LINE
8
BLACK
6
CONTINUOUS
10
0.444555
20
0.429112
11
0.441098
21
0.422646
0
LINE
8
BLACK
6
CONTINUOUS
10
0.441098
20
0.422646
11
0.436447
21
0.416978
0
LINE
8
BLACK
6
CONTINUOUS
10
0.436447
20
0.416978
11
0.430779
21
0.412327
0
LINE
8
BLACK
6
CONTINUOUS
10
0.430779
20
0.412327
11
0.424313
21
0.408871
0
LINE
8
BLACK
6
CONTINUOUS
10
0.424313
20
0.408871
11
0.417297
21
0.406742
0
LINE
8
BLACK
6
CONTINUOUS
10
0.417297
20
0.406742
11
0.41
21
0.406024
0
LINE
8
BLACK
6
CONTINUOUS
10
0.41
20
0.406024
11
0.402703
21
0.406742
0
LINE
8
BLACK
6
CONTINUOUS
10
0.402703
20
0.406742
11
0.395687
21
0.408871
0
LINE
8
BLACK
6
CONTINUOUS
10
0.395687
20
0.408871
11
0.389221
21
0.412327
0
LINE
8
BLACK
6
CONTINUOUS
10
0.389221
20
0.412327
11
0.383553
21
0.416978
0
LINE
8
BLACK
6
CONTINUOUS
10
0.383553
20
0.416978
11
0.378902
21
0.422646
0
LINE
8
BLACK
6
CONTINUOUS
10
0.378902
20
0.422646
11
0.375445
21
0.429112
0
LINE
8
BLACK
6
CONTINUOUS
10
0.375445
20
0.429112
11
0.373317
21
0.436129
0
LINE
8
BLACK
6
CONTINUOUS
10
0.373317
20
0.436129
11
0.372598
21
0.443425
0
LINE
8
BLACK
6
CONTINUOUS
10
0.372598
20
0.443425
11
0.373317
21
0.450722
0
LINE
8
BLACK
6
CONTINUOUS
10
0.373317
20
0.450722
11
0.375445
21
0.457738
0
LINE
8
BLACK
6
CONTINUOUS
10
0.375445
20
0.457738
11
0.378902
21
0.464204
0
LINE
8
BLACK
6
CONTINUOUS
10
0.378902
20
0.464204
11
0.383553
21
0.469872
0
LINE
8
BLACK
6
CONTINUOUS
10
0.383553
20
0.469872
11
0.389221
21
0.474523
0
LINE
8
BLACK
6
CONTINUOUS
10
0.389221
20
0.474523
11
0.395687
21
0.47798
0
LINE
8
BLACK
6
CONTINUOUS
10
0.395687
20
0.47798
11
0.402703
21
0.480108
0
LINE
8
BLACK
6
CONTINUOUS
10
0.402703
20
0.480108
11
0.41
21
0.480827
0
LINE
8
BLACK
6
CONTINUOUS
10
0.41
20
0.480827
11
0.417297
21
0.480108
0
LINE
8
BLACK
6
CONTINUOUS
10
1.18092
20
0.534189
11
1.18219
21
0.533335
0
LINE
8
BLACK
6
CONTINUOUS
10
1.18219
20
0.533335
11
1.18305
21
0.532058
0
LINE
8
BLACK
6
CONTINUOUS
10
1.18305
20
0.532058
11
1.18335
21
0.530551
0
LINE
8
BLACK
6
CONTINUOUS
10
1.18335
20
0.530551
11
1.18335
21
0.470551
0
LINE
8
BLACK
6
CONTINUOUS
10
1.18335
20
0.470551
11
1.18305
21
0.469045
0
LINE
8
BLACK
6
CONTINUOUS
10
1.18305
20
0.469045
11
1.18219
21
0.467767
0
LINE
8
BLACK
6
CONTINUOUS
10
1.18219
20
0.467767
11
1.18092
21
0.466914
0
LINE
8
BLACK
6
CONTINUOUS
10
1.18092
20
0.466914
11
1.17941
21
0.466614
0
LINE
8
BLACK
6
CONTINUOUS
10
1.17941
20
0.466614
11
1.11941
21
0.466614
0
LINE
8
BLACK
6
CONTINUOUS
10
1.11941
20
0.466614
11
1.1179
21
0.466914
0
LINE
8
BLACK
6
CONTINUOUS
10
1.1179
20
0.466914
11
1.11663
21
0.467767
0
LINE
8
BLACK
6
CONTINUOUS
10
1.11663
20
0.467767
11
1.11577
21
0.469045
0
LINE
8
BLACK
6
CONTINUOUS
10
1.11577
20
0.469045
11
1.11547
21
0.470551
0
LINE
8
BLACK
6
CONTINUOUS
10
1.11547
20
0.470551
11
1.11547
21
0.530551
0
LINE
8
BLACK
6
CONTINUOUS
10
1.11547
20
0.530551
11
1.11577
21
0.532058
0
LINE
8
BLACK
6
CONTINUOUS
10
1.11577
20
0.532058
11
1.11663
21
0.533335
0
LINE
8
BLACK
6
CONTINUOUS
10
1.11663
20
0.533335
11
1.1179
21
0.534189
0
LINE
8
BLACK
6
CONTINUOUS
10
1.1179
20
0.534189
11
1.11941
21
0.534488
0
LINE
8
BLACK
6
CONTINUOUS
10
1.11941
20
0.534488
11
1.17941
21
0.534488
0
LINE
8
BLACK
6
CONTINUOUS
10
1.17941
20
0.534488
11
1.18092
21
0.534189
0
LINE
8
BLACK
6
CONTINUOUS
10
1.28092
20
0.534189
11
1.28219
21
0.533335
0
LINE
8
BLACK
6
CONTINUOUS
10
1.28219
20
0.533335
11
1.28305
21
0.532058
0
LINE
8
BLACK
6
CONTINUOUS
10
1.28305
20
0.532058
11
1.28335
21
0.530551
0
LINE
8
BLACK
6
CONTINUOUS
10
1.28335
20
0.530551
11
1.28335
21
0.470551
0
LINE
8
BLACK
6
CONTINUOUS
10
1.28335
20
0.470551
11
1.28305
21
0.469045
0
LINE
8
BLACK
6
CONTINUOUS
10
1.28305
20
0.469045
11
1.28219
21
0.467767
0
LINE
8
BLACK
6
CONTINUOUS
10
1.28219
20
0.467767
11
1.28092
21
0.466914
0
LINE
8
BLACK
6
CONTINUOUS
10
1.28092
20
0.466914
11
1.27941
21
0.466614
0
LINE
8
BLACK
6
CONTINUOUS
10
1.27941
20
0.466614
11
1.21941
21
0.466614
0
LINE
8
BLACK
6
CONTINUOUS
10
1.21941
20
0.466614
11
1.2179
21
0.466914
0
LINE
8
BLACK
6
CONTINUOUS
10
1.2179
20
0.466914
11
1.21663
21
0.467767
0
LINE
8
BLACK
6
CONTINUOUS
10
1.21663
20
0.467767
11
1.21577
21
0.469045
0
LINE
8
BLACK
6
CONTINUOUS
10
1.21577
20
0.469045
11
1.21547
21
0.470551
0
LINE
8
BLACK
6
CONTINUOUS
10
1.21547
20
0.470551
11
1.21547
21
0.530551
0
LINE
8
BLACK
6
CONTINUOUS
10
1.21547
20
0.530551
11
1.21577
21
0.532058
0
LINE
8
BLACK
6
CONTINUOUS
10
1.21577
20
0.532058
11
1.21663
21
0.533335
0
LINE
8
BLACK
6
CONTINUOUS
10
1.21663
20
0.533335
11
1.2179
21
0.534189
0
LINE
8
BLACK
6
CONTINUOUS
10
1.2179
20
0.534189
11
1.21941
21
0.534488
0
LINE
8
BLACK
6
CONTINUOUS
10
1.21941
20
0.534488
11
1.27941
21
0.534488
0
LINE
8
BLACK
6
CONTINUOUS
10
1.27941
20
0.534488
11
1.28092
21
0.534189
0
LINE
8
BLACK
6
CONTINUOUS
10
0.234932
20
0.703314
11
0.245087
21
0.701105
0
LINE
8
BLACK
6
CONTINUOUS
10
0.245087
20
0.701105
11
0.254824
21
0.697473
0
LINE
8
BLACK
6
CONTINUOUS
10
0.254824
20
0.697473
11
0.263944
21
0.692493
0
LINE
8
BLACK
6
CONTINUOUS
10
0.263944
20
0.692493
11
0.272263
21
0.686265
0
LINE
8
BLACK
6
CONTINUOUS
10
0.272263
20
0.686265
11
0.279612
21
0.678917
0
LINE
8
BLACK
6
CONTINUOUS
10
0.279612
20
0.678917
11
0.285839
21
0.670598
0
LINE
8
BLACK
6
CONTINUOUS
10
0.285839
20
0.670598
11
0.29082
21
0.661477
0
LINE
8
BLACK
6
CONTINUOUS
10
0.29082
20
0.661477
11
0.294451
21
0.65174
0
LINE
8
BLACK
6
CONTINUOUS
10
0.294451
20
0.65174
11
0.29666
21
0.641586
0
LINE
8
BLACK
6
CONTINUOUS
10
0.29666
20
0.641586
11
0.297402
21
0.63122
0
LINE
8
BLACK
6
CONTINUOUS
10
0.297402
20
0.63122
11
0.29666
21
0.620855
0
LINE
8
BLACK
6
CONTINUOUS
10
0.29666
20
0.620855
11
0.294451
21
0.610701
0
LINE
8
BLACK
6
CONTINUOUS
10
0.294451
20
0.610701
11
0.29082
21
0.600964
0
LINE
8
BLACK
6
CONTINUOUS
10
0.29082
20
0.600964
11
0.285839
21
0.591843
0
LINE
8
BLACK
6
CONTINUOUS
10
0.285839
20
0.591843
11
0.279612
21
0.583524
0
LINE
8
BLACK
6
CONTINUOUS
10
0.279612
20
0.583524
11
0.272263
21
0.576176
0
LINE
8
BLACK
6
CONTINUOUS
10
0.272263
20
0.576176
11
0.263944
21
0.569948
0
LINE
8
BLACK
6
CONTINUOUS
10
0.263944
20
0.569948
11
0.254824
21
0.564968
0
LINE
8
BLACK
6
CONTINUOUS
10
0.254824
20
0.564968
11
0.245087
21
0.561336
0
LINE
8
BLACK
6
CONTINUOUS
10
0.245087
20
0.561336
11
0.234932
21
0.559127
0
LINE
8
BLACK
6
CONTINUOUS
10
0.234932
20
0.559127
11
0.224567
21
0.558386
0
LINE
8
BLACK
6
CONTINUOUS
10
0.224567
20
0.558386
11
0.214201
21
0.559127
0
LINE
8
BLACK
6
CONTINUOUS
10
0.214201
20
0.559127
11
0.204047
21
0.561336
0
LINE
8
BLACK
6
CONTINUOUS
10
0.204047
20
0.561336
11
0.19431
21
0.564968
0
LINE
8
BLACK
6
CONTINUOUS
10
0.19431
20
0.564968
11
0.18519
21
0.569948
0
LINE
8
BLACK
6
CONTINUOUS
10
0.18519
20
0.569948
11
0.17687
21
0.576176
0
LINE
8
BLACK
6
CONTINUOUS
10
0.17687
20
0.576176
11
0.169522
21
0.583524
0
LINE
8
BLACK
6
CONTINUOUS
10
0.169522
20
0.583524
11
0.163295
21
0.591843
0
LINE
8
BLACK
6
CONTINUOUS
10
0.163295
20
0.591843
11
0.158314
21
0.600964
0
LINE
8
BLACK
6
CONTINUOUS
10
0.158314
20
0.600964
11
0.154683
21
0.610701
0
LINE
8
BLACK
6
CONTINUOUS
10
0.154683
20
0.610701
11
0.152474
21
0.620855
0
LINE
8
BLACK
6
CONTINUOUS
10
0.152474
20
0.620855
11
0.151732
21
0.63122
0
LINE
8
BLACK
6
CONTINUOUS
10
0.151732
20
0.63122
11
0.152474
21
0.641586
0
LINE
8
BLACK
6
CONTINUOUS
10
0.152474
20
0.641586
11
0.154683
21
0.65174
0
LINE
8
BLACK
6
CONTINUOUS
10
0.154683
20
0.65174
11
0.158314
21
0.661477
0
LINE
8
BLACK
6
CONTINUOUS
10
0.158314
20
0.661477
11
0.163295
21
0.670598
0
LINE
8
BLACK
6
CONTINUOUS
10
0.163295
20
0.670598
11
0.169522
21
0.678917
0
LINE
8
BLACK
6
CONTINUOUS
10
0.169522
20
0.678917
11
0.17687
21
0.686265
0
LINE
8
BLACK
6
CONTINUOUS
10
0.17687
20
0.686265
11
0.18519
21
0.692493
0
LINE
8
BLACK
6
CONTINUOUS
10
0.18519
20
0.692493
11
0.19431
21
0.697473
0
LINE
8
BLACK
6
CONTINUOUS
10
0.19431
20
0.697473
11
0.204047
21
0.701105
0
LINE
8
BLACK
6
CONTINUOUS
10
0.204047
20
0.701105
11
0.214201
21
0.703314
0
LINE
8
BLACK
6
CONTINUOUS
10
0.214201
20
0.703314
11
0.224567
21
0.704055
0
LINE
8
BLACK
6
CONTINUOUS
10
0.224567
20
0.704055
11
0.234932
21
0.703314
0
LINE
8
BLACK
6
CONTINUOUS
10
1.18092
20
0.634189
11
1.18219
21
0.633335
0
LINE
8
BLACK
6
CONTINUOUS
10
1.18219
20
0.633335
11
1.18305
21
0.632058
0
LINE
8
BLACK
6
CONTINUOUS
10
1.18305
20
0.632058
11
1.18335
21
0.630551
0
LINE
8
BLACK
6
CONTINUOUS
10
1.18335
20
0.630551
11
1.18335
21
0.570551
0
LINE
8
BLACK
6
CONTINUOUS
10
1.18335
20
0.570551
11
1.18305
21
0.569045
0
LINE
8
BLACK
6
CONTINUOUS
10
1.18305
20
0.569045
11
1.18219
21
0.567767
0
LINE
8
BLACK
6
CONTINUOUS
10
1.18219
20
0.567767
11
1.18092
21
0.566914
0
LINE
8
BLACK
6
CONTINUOUS
10
1.18092
20
0.566914
11
1.17941
21
0.566614
0
LINE
8
BLACK
6
CONTINUOUS
10
1.17941
20
0.566614
11
1.11941
21
0.566614
0
LINE
8
BLACK
6
CONTINUOUS
10
1.11941
20
0.566614
11
1.1179
21
0.566914
0
LINE
8
BLACK
6
CONTINUOUS
10
1.1179
20
0.566914
11
1.11663
21
0.567767
0
LINE
8
BLACK
6
CONTINUOUS
10
1.11663
20
0.567767
11
1.11577
21
0.569045
0
LINE
8
BLACK
6
CONTINUOUS
10
1.11577
20
0.569045
11
1.11547
21
0.570551
0
LINE
8
BLACK
6
CONTINUOUS
10
1.11547
20
0.570551
11
1.11547
21
0.630551
0
LINE
8
BLACK
6
CONTINUOUS
10
1.11547
20
0.630551
11
1.11577
21
0.632058
0
LINE
8
BLACK
6
CONTINUOUS
10
1.11577
20
0.632058
11
1.11663
21
0.633335
0
LINE
8
BLACK
6
CONTINUOUS
10
1.11663
20
0.633335
11
1.1179
21
0.634189
0
LINE
8
BLACK
6
CONTINUOUS
10
1.1179
20
0.634189
11
1.11941
21
0.634488
0
LINE
8
BLACK
6
CONTINUOUS
10
1.11941
20
0.634488
11
1.17941
21
0.634488
0
LINE
8
BLACK
6
CONTINUOUS
10
1.17941
20
0.634488
11
1.18092
21
0.634189
0
LINE
8
BLACK
6
CONTINUOUS
10
1.28092
20
0.634189
11
1.28219
21
0.633335
0
LINE
8
BLACK
6
CONTINUOUS
10
1.28219
20
0.633335
11
1.28305
21
0.632058
0
LINE
8
BLACK
6
CONTINUOUS
10
1.28305
20
0.632058
11
1.28335
21
0.630551
0
LINE
8
BLACK
6
CONTINUOUS
10
1.28335
20
0.630551
11
1.28335
21
0.570551
0
LINE
8
BLACK
6
CONTINUOUS
10
1.28335
20
0.570551
11
1.28305
21
0.569045
0
LINE
8
BLACK
6
CONTINUOUS
10
1.28305
20
0.569045
11
1.28219
21
0.567767
0
LINE
8
BLACK
6
CONTINUOUS
10
1.28219
20
0.567767
11
1.28092
21
0.566914
0
LINE
8
BLACK
6
CONTINUOUS
10
1.28092
20
0.566914
11
1.27941
21
0.566614
0
LINE
8
BLACK
6
CONTINUOUS
10
1.27941
20
0.566614
11
1.21941
21
0.566614
0
LINE
8
BLACK
6
CONTINUOUS
10
1.21941
20
0.566614
11
1.2179
21
0.566914
0
LINE
8
BLACK
6
CONTINUOUS
10
1.2179
20
0.566914
11
1.21663
21
0.567767
0
LINE
8
BLACK
6
CONTINUOUS
10
1.21663
20
0.567767
11
1.21577
21
0.569045
0
LINE
8
BLACK
6
CONTINUOUS
10
1.21577
20
0.569045
11
1.21547
21
0.570551
0
LINE
8
BLACK
6
CONTINUOUS
10
1.21547
20
0.570551
11
1.21547
21
0.630551
0
LINE
8
BLACK
6
CONTINUOUS
10
1.21547
20
0.630551
11
1.21577
21
0.632058
0
LINE
8
BLACK
6
CONTINUOUS
10
1.21577
20
0.632058
11
1.21663
21
0.633335
0
LINE
8
BLACK
6
CONTINUOUS
10
1.21663
20
0.633335
11
1.2179
21
0.634189
0
LINE
8
BLACK
6
CONTINUOUS
10
1.2179
20
0.634189
11
1.21941
21
0.634488
0
LINE
8
BLACK
6
CONTINUOUS
10
1.21941
20
0.634488
11
1.27941
21
0.634488
0
LINE
8
BLACK
6
CONTINUOUS
10
1.27941
20
0.634488
11
1.28092
21
0.634189
0
LINE
8
BLACK
6
CONTINUOUS
10
0.013665
20
0.92128
11
0.0271581
21
0.918987
0
LINE
8
BLACK
6
CONTINUOUS
10
0.0271581
20
0.918987
11
0.0403096
21
0.915198
0
LINE
8
BLACK
6
CONTINUOUS
10
0.0403096
20
0.915198
11
0.0529543
21
0.909961
0
LINE
8
BLACK
6
CONTINUOUS
10
0.0529543
20
0.909961
11
0.064933
21
0.90334
0
LINE
8
BLACK
6
CONTINUOUS
10
0.064933
20
0.90334
11
0.0760952
21
0.89542
0
LINE
8
BLACK
6
CONTINUOUS
10
0.0760952
20
0.89542
11
0.0863004
21
0.8863
0
LINE
8
BLACK
6
CONTINUOUS
10
0.0863004
20
0.8863
11
0.0954204
21
0.876095
0
LINE
8
BLACK
6
CONTINUOUS
10
0.0954204
20
0.876095
11
0.10334
21
0.864933
0
LINE
8
BLACK
6
CONTINUOUS
10
0.10334
20
0.864933
11
0.109961
21
0.852954
0
LINE
8
BLACK
6
CONTINUOUS
10
0.109961
20
0.852954
11
0.115198
21
0.84031
0
LINE
8
BLACK
6
CONTINUOUS
10
0.115198
20
0.84031
11
0.118987
21
0.827158
0
LINE
8
BLACK
6
CONTINUOUS
10
0.118987
20
0.827158
11
0.12128
21
0.813665
0
LINE
8
BLACK
6
CONTINUOUS
10
0.12128
20
0.813665
11
0.122047
21
0.8
0
LINE
8
BLACK
6
CONTINUOUS
10
0.122047
20
0.8
11
0.12128
21
0.786335
0
LINE
8
BLACK
6
CONTINUOUS
10
0.12128
20
0.786335
11
0.118987
21
0.772842
0
LINE
8
BLACK
6
CONTINUOUS
10
0.118987
20
0.772842
11
0.115198
21
0.75969
0
LINE
8
BLACK
6
CONTINUOUS
10
0.115198
20
0.75969
11
0.109961
21
0.747046
0
LINE
8
BLACK
6
CONTINUOUS
10
0.109961
20
0.747046
11
0.10334
21
0.735067
0
LINE
8
BLACK
6
CONTINUOUS
10
0.10334
20
0.735067
11
0.0954204
21
0.723905
0
LINE
8
BLACK
6
CONTINUOUS
10
0.0954204
20
0.723905
11
0.0863004
21
0.7137
0
LINE
8
BLACK
6
CONTINUOUS
10
0.0863004
20
0.7137
11
0.0760952
21
0.70458
0
LINE
8
BLACK
6
CONTINUOUS
10
0.0760952
20
0.70458
11
0.064933
21
0.69666
0
LINE
8
BLACK
6
CONTINUOUS
10
0.064933
20
0.69666
11
0.0529543
21
0.690039
0
LINE
8
BLACK
6
CONTINUOUS
10
0.0529543
20
0.690039
11
0.0403096
21
0.684802
0
LINE
8
BLACK
6
CONTINUOUS
10
0.0403096
20
0.684802
11
0.0271581
21
0.681013
0
LINE
8
BLACK
6
CONTINUOUS
10
0.0271581
20
0.681013
11
0.013665
21
0.67872
0
LINE
8
BLACK
6
CONTINUOUS
10
0.013665
20
0.67872
11
0
21
0.677953
0
LINE
8
BLACK
6
CONTINUOUS
10
0
20
0.677953
11
-0.013665
21
0.67872
0
LINE
8
BLACK
6
CONTINUOUS
10
-0.013665
20
0.67872
11
-0.0271581
21
0.681013
0
LINE
8
BLACK
6
CONTINUOUS
10
-0.0271581
20
0.681013
11
-0.0403096
21
0.684802
0
LINE
8
BLACK
6
CONTINUOUS
10
-0.0403096
20
0.684802
11
-0.0529543
21
0.690039
0
LINE
8
BLACK
6
CONTINUOUS
10
-0.0529543
20
0.690039
11
-0.064933
21
0.69666
0
LINE
8
BLACK
6
CONTINUOUS
10
-0.064933
20
0.69666
11
-0.0760952
21
0.70458
0
LINE
8
BLACK
6
CONTINUOUS
10
-0.0760952
20
0.70458
11
-0.0863004
21
0.7137
0
LINE
8
BLACK
6
CONTINUOUS
10
-0.0863004
20
0.7137
11
-0.0954204
21
0.723905
0
LINE
8
BLACK
6
CONTINUOUS
10
-0.0954204
20
0.723905
11
-0.10334
21
0.735067
0
LINE
8
BLACK
6
CONTINUOUS
10
-0.10334
20
0.735067
11
-0.109961
21
0.747046
0
LINE
8
BLACK
6
CONTINUOUS
10
-0.109961
20
0.747046
11
-0.115198
21
0.75969
0
LINE
8
BLACK
6
CONTINUOUS
10
-0.115198
20
0.75969
11
-0.118987
21
0.772842
0
LINE
8
BLACK
6
CONTINUOUS
10
-0.118987
20
0.772842
11
-0.12128
21
0.786335
0
LINE
8
BLACK
6
CONTINUOUS
10
-0.12128
20
0.786335
11
-0.122047
21
0.8
0
LINE
8
BLACK
6
CONTINUOUS
10
-0.122047
20
0.8
11
-0.12128
21
0.813665
0
LINE
8
BLACK
6
CONTINUOUS
10
-0.12128
20
0.813665
11
-0.118987
21
0.827158
0
LINE
8
BLACK
6
CONTINUOUS
10
-0.118987
20
0.827158
11
-0.115198
21
0.84031
0
LINE
8
BLACK
6
CONTINUOUS
10
-0.115198
20
0.84031
11
-0.109961
21
0.852954
0
LINE
8
BLACK
6
CONTINUOUS
10
-0.109961
20
0.852954
11
-0.10334
21
0.864933
0
LINE
8
BLACK
6
CONTINUOUS
10
-0.10334
20
0.864933
11
-0.0954204
21
0.876095
0
LINE
8
BLACK
6
CONTINUOUS
10
-0.0954204
20
0.876095
11
-0.0863004
21
0.8863
0
LINE
8
BLACK
6
CONTINUOUS
10
-0.0863004
20
0.8863
11
-0.0760952
21
0.89542
0
LINE
8
BLACK
6
CONTINUOUS
10
-0.0760952
20
0.89542
11
-0.064933
21
0.90334
0
LINE
8
BLACK
6
CONTINUOUS
10
-0.064933
20
0.90334
11
-0.0529543
21
0.909961
0
LINE
8
BLACK
6
CONTINUOUS
10
-0.0529543
20
0.909961
11
-0.0403096
21
0.915198
0
LINE
8
BLACK
6
CONTINUOUS
10
-0.0403096
20
0.915198
11
-0.0271581
21
0.918987
0
LINE
8
BLACK
6
CONTINUOUS
10
-0.0271581
20
0.918987
11
-0.013665
21
0.92128
0
LINE
8
BLACK
6
CONTINUOUS
10
-0.013665
20
0.92128
11
0
21
0.922047
0
LINE
8
BLACK
6
CONTINUOUS
10
0
20
0.922047
11
0.013665
21
0.92128
0
LINE
8
BLACK
6
CONTINUOUS
10
1.21366
20
0.92128
11
1.22716
21
0.918987
0
LINE
8
BLACK
6
CONTINUOUS
10
1.22716
20
0.918987
11
1.24031
21
0.915198
0
LINE
8
BLACK
6
CONTINUOUS
10
1.24031
20
0.915198
11
1.25295
21
0.909961
0
LINE
8
BLACK
6
CONTINUOUS
10
1.25295
20
0.909961
11
1.26493
21
0.90334
0
LINE
8
BLACK
6
CONTINUOUS
10
1.26493
20
0.90334
11
1.2761
21
0.89542
0
LINE
8
BLACK
6
CONTINUOUS
10
1.2761
20
0.89542
11
1.2863
21
0.8863
0
LINE
8
BLACK
6
CONTINUOUS
10
1.2863
20
0.8863
11
1.29542
21
0.876095
0
LINE
8
BLACK
6
CONTINUOUS
10
1.29542
20
0.876095
11
1.30334
21
0.864933
0
LINE
8
BLACK
6
CONTINUOUS
10
1.30334
20
0.864933
11
1.30996
21
0.852954
0
LINE
8
BLACK
6
CONTINUOUS
10
1.30996
20
0.852954
11
1.3152
21
0.84031
0
LINE
8
BLACK
6
CONTINUOUS
10
1.3152
20
0.84031
11
1.31899
21
0.827158
0
LINE
8
BLACK
6
CONTINUOUS
10
1.31899
20
0.827158
11
1.32128
21
0.813665
0
LINE
8
BLACK
6
CONTINUOUS
10
1.32128
20
0.813665
11
1.32205
21
0.8
0
LINE
8
BLACK
6
CONTINUOUS
10
1.32205
20
0.8
11
1.32128
21
0.786335
0
LINE
8
BLACK
6
CONTINUOUS
10
1.32128
20
0.786335
11
1.31899
21
0.772842
0
LINE
8
BLACK
6
CONTINUOUS
10
1.31899
20
0.772842
11
1.3152
21
0.75969
0
LINE
8
BLACK
6
CONTINUOUS
10
1.3152
20
0.75969
11
1.30996
21
0.747046
0
LINE
8
BLACK
6
CONTINUOUS
10
1.30996
20
0.747046
11
1.30334
21
0.735067
0
LINE
8
BLACK
6
CONTINUOUS
10
1.30334
20
0.735067
11
1.29542
21
0.723905
0
LINE
8
BLACK
6
CONTINUOUS
10
1.29542
20
0.723905
11
1.2863
21
0.7137
0
LINE
8
BLACK
6
CONTINUOUS
10
1.2863
20
0.7137
11
1.2761
21
0.70458
0
LINE
8
BLACK
6
CONTINUOUS
10
1.2761
20
0.70458
11
1.26493
21
0.69666
0
LINE
8
BLACK
6
CONTINUOUS
10
1.26493
20
0.69666
11
1.25295
21
0.690039
0
LINE
8
BLACK
6
CONTINUOUS
10
1.25295
20
0.690039
11
1.24031
21
0.684802
0
LINE
8
BLACK
6
CONTINUOUS
10
1.24031
20
0.684802
11
1.22716
21
0.681013
0
LINE
8
BLACK
6
CONTINUOUS
10
1.22716
20
0.681013
11
1.21366
21
0.67872
0
LINE
8
BLACK
6
CONTINUOUS
10
1.21366
20
0.67872
11
1.2
21
0.677953
0
LINE
8
BLACK
6
CONTINUOUS
10
1.2
20
0.677953
11
1.18634
21
0.67872
0
LINE
8
BLACK
6
CONTINUOUS
10
1.18634
20
0.67872
11
1.17284
21
0.681013
0
LINE
8
BLACK
6
CONTINUOUS
10
1.17284
20
0.681013
11
1.15969
21
0.684802
0
LINE
8
BLACK
6
CONTINUOUS
10
1.15969
20
0.684802
11
1.14705
21
0.690039
0
LINE
8
BLACK
6
CONTINUOUS
10
1.14705
20
0.690039
11
1.13507
21
0.69666
0
LINE
8
BLACK
6
CONTINUOUS
10
1.13507
20
0.69666
11
1.1239
21
0.70458
0
LINE
8
BLACK
6
CONTINUOUS
10
1.1239
20
0.70458
11
1.1137
21
0.7137
0
LINE
8
BLACK
6
CONTINUOUS
10
1.1137
20
0.7137
11
1.10458
21
0.723905
0
LINE
8
BLACK
6
CONTINUOUS
10
1.10458
20
0.723905
11
1.09666
21
0.735067
0
LINE
8
BLACK
6
CONTINUOUS
10
1.09666
20
0.735067
11
1.09004
21
0.747046
0
LINE
8
BLACK
6
CONTINUOUS
10
1.09004
20
0.747046
11
1.0848
21
0.75969
0
LINE
8
BLACK
6
CONTINUOUS
10
1.0848
20
0.75969
11
1.08101
21
0.772842
0
LINE
8
BLACK
6
CONTINUOUS
10
1.08101
20
0.772842
11
1.07872
21
0.786335
0
LINE
8
BLACK
6
CONTINUOUS
10
1.07872
20
0.786335
11
1.07795
21
0.8
0
LINE
8
BLACK
6
CONTINUOUS
10
1.07795
20
0.8
11
1.07872
21
0.813665
0
LINE
8
BLACK
6
CONTINUOUS
10
1.07872
20
0.813665
11
1.08101
21
0.827158
0
LINE
8
BLACK
6
CONTINUOUS
10
1.08101
20
0.827158
11
1.0848
21
0.84031
0
LINE
8
BLACK
6
CONTINUOUS
10
1.0848
20
0.84031
11
1.09004
21
0.852954
0
LINE
8
BLACK
6
CONTINUOUS
10
1.09004
20
0.852954
11
1.09666
21
0.864933
0
LINE
8
BLACK
6
CONTINUOUS
10
1.09666
20
0.864933
11
1.10458
21
0.876095
0
LINE
8
BLACK
6
CONTINUOUS
10
1.10458
20
0.876095
11
1.1137
21
0.8863
0
LINE
8
BLACK
6
CONTINUOUS
10
1.1137
20
0.8863
11
1.1239
21
0.89542
0
LINE
8
BLACK
6
CONTINUOUS
10
1.1239
20
0.89542
11
1.13507
21
0.90334
0
LINE
8
BLACK
6
CONTINUOUS
10
1.13507
20
0.90334
11
1.14705
21
0.909961
0
LINE
8
BLACK
6
CONTINUOUS
10
1.14705
20
0.909961
11
1.15969
21
0.915198
0
LINE
8
BLACK
6
CONTINUOUS
10
1.15969
20
0.915198
11
1.17284
21
0.918987
0
LINE
8
BLACK
6
CONTINUOUS
10
1.17284
20
0.918987
11
1.18634
21
0.92128
0
LINE
8
BLACK
6
CONTINUOUS
10
1.18634
20
0.92128
11
1.2
21
0.922047
0
LINE
8
BLACK
6
CONTINUOUS
10
1.2
20
0.922047
11
1.21366
21
0.92128
0
LINE
8
BLACK
6
CONTINUOUS
10
0.433672
20
0.784582
11
0.434949
21
0.783729
0
LINE
8
BLACK
6
CONTINUOUS
10
0.434949
20
0.783729
11
0.435803
21
0.782451
0
LINE
8
BLACK
6
CONTINUOUS
10
0.435803
20
0.782451
11
0.436102
21
0.780945
0
LINE
8
BLACK
6
CONTINUOUS
10
0.436102
20
0.780945
11
0.436102
21
0.720945
0
LINE
8
BLACK
6
CONTINUOUS
10
0.436102
20
0.720945
11
0.435803
21
0.719438
0
LINE
8
BLACK
6
CONTINUOUS
10
0.435803
20
0.719438
11
0.434949
21
0.718161
0
LINE
8
BLACK
6
CONTINUOUS
10
0.434949
20
0.718161
11
0.433672
21
0.717308
0
LINE
8
BLACK
6
CONTINUOUS
10
0.433672
20
0.717308
11
0.432165
21
0.717008
0
LINE
8
BLACK
6
CONTINUOUS
10
0.432165
20
0.717008
11
0.372165
21
0.717008
0
LINE
8
BLACK
6
CONTINUOUS
10
0.372165
20
0.717008
11
0.370659
21
0.717308
0
LINE
8
BLACK
6
CONTINUOUS
10
0.370659
20
0.717308
11
0.369381
21
0.718161
0
LINE
8
BLACK
6
CONTINUOUS
10
0.369381
20
0.718161
11
0.368528
21
0.719438
0
LINE
8
BLACK
6
CONTINUOUS
10
0.368528
20
0.719438
11
0.368228
21
0.720945
0
LINE
8
BLACK
6
CONTINUOUS
10
0.368228
20
0.720945
11
0.368228
21
0.780945
0
LINE
8
BLACK
6
CONTINUOUS
10
0.368228
20
0.780945
11
0.368528
21
0.782451
0
LINE
8
BLACK
6
CONTINUOUS
10
0.368528
20
0.782451
11
0.369381
21
0.783729
0
LINE
8
BLACK
6
CONTINUOUS
10
0.369381
20
0.783729
11
0.370659
21
0.784582
0
LINE
8
BLACK
6
CONTINUOUS
10
0.370659
20
0.784582
11
0.372165
21
0.784882
0
LINE
8
BLACK
6
CONTINUOUS
10
0.372165
20
0.784882
11
0.432165
21
0.784882
0
LINE
8
BLACK
6
CONTINUOUS
10
0.432165
20
0.784882
11
0.433672
21
0.784582
0
LINE
8
BLACK
6
CONTINUOUS
10
0.533672
20
0.784582
11
0.534949
21
0.783729
0
LINE
8
BLACK
6
CONTINUOUS
10
0.534949
20
0.783729
11
0.535803
21
0.782451
0
LINE
8
BLACK
6
CONTINUOUS
10
0.535803
20
0.782451
11
0.536102
21
0.780945
0
LINE
8
BLACK
6
CONTINUOUS
10
0.536102
20
0.780945
11
0.536102
21
0.720945
0
LINE
8
BLACK
6
CONTINUOUS
10
0.536102
20
0.720945
11
0.535803
21
0.719438
0
LINE
8
BLACK
6
CONTINUOUS
10
0.535803
20
0.719438
11
0.534949
21
0.718161
0
LINE
8
BLACK
6
CONTINUOUS
10
0.534949
20
0.718161
11
0.533672
21
0.717308
0
LINE
8
BLACK
6
CONTINUOUS
10
0.533672
20
0.717308
11
0.532165
21
0.717008
0
LINE
8
BLACK
6
CONTINUOUS
10
0.532165
20
0.717008
11
0.472165
21
0.717008
0
LINE
8
BLACK
6
CONTINUOUS
10
0.472165
20
0.717008
11
0.470659
21
0.717308
0
LINE
8
BLACK
6
CONTINUOUS
10
0.470659
20
0.717308
11
0.469381
21
0.718161
0
LINE
8
BLACK
6
CONTINUOUS
10
0.469381
20
0.718161
11
0.468528
21
0.719438
0
LINE
8
BLACK
6
CONTINUOUS
10
0.468528
20
0.719438
11
0.468228
21
0.720945
0
LINE
8
BLACK
6
CONTINUOUS
10
0.468228
20
0.720945
11
0.468228
21
0.780945
0
LINE
8
BLACK
6
CONTINUOUS
10
0.468228
20
0.780945
11
0.468528
21
0.782451
0
LINE
8
BLACK
6
CONTINUOUS
10
0.468528
20
0.782451
11
0.469381
21
0.783729
0
LINE
8
BLACK
6
CONTINUOUS
10
0.469381
20
0.783729
11
0.470659
21
0.784582
0
LINE
8
BLACK
6
CONTINUOUS
10
0.470659
20
0.784582
11
0.472165
21
0.784882
0
LINE
8
BLACK
6
CONTINUOUS
10
0.472165
20
0.784882
11
0.532165
21
0.784882
0
LINE
8
BLACK
6
CONTINUOUS
10
0.532165
20
0.784882
11
0.533672
21
0.784582
0
LINE
8
BLACK
6
CONTINUOUS
10
0.633672
20
0.784582
11
0.634949
21
0.783729
0
LINE
8
BLACK
6
CONTINUOUS
10
0.634949
20
0.783729
11
0.635803
21
0.782451
0
LINE
8
BLACK
6
CONTINUOUS
10
0.635803
20
0.782451
11
0.636102
21
0.780945
0
LINE
8
BLACK
6
CONTINUOUS
10
0.636102
20
0.780945
11
0.636102
21
0.720945
0
LINE
8
BLACK
6
CONTINUOUS
10
0.636102
20
0.720945
11
0.635803
21
0.719438
0
LINE
8
BLACK
6
CONTINUOUS
10
0.635803
20
0.719438
11
0.634949
21
0.718161
0
LINE
8
BLACK
6
CONTINUOUS
10
0.634949
20
0.718161
11
0.633672
21
0.717308
0
LINE
8
BLACK
6
CONTINUOUS
10
0.633672
20
0.717308
11
0.632165
21
0.717008
0
LINE
8
BLACK
6
CONTINUOUS
10
0.632165
20
0.717008
11
0.572165
21
0.717008
0
LINE
8
BLACK
6
CONTINUOUS
10
0.572165
20
0.717008
11
0.570659
21
0.717308
0
LINE
8
BLACK
6
CONTINUOUS
10
0.570659
20
0.717308
11
0.569381
21
0.718161
0
LINE
8
BLACK
6
CONTINUOUS
10
0.569381
20
0.718161
11
0.568528
21
0.719438
0
LINE
8
BLACK
6
CONTINUOUS
10
0.568528
20
0.719438
11
0.568228
21
0.720945
0
LINE
8
BLACK
6
CONTINUOUS
10
0.568228
20
0.720945
11
0.568228
21
0.780945
0
LINE
8
BLACK
6
CONTINUOUS
10
0.568228
20
0.780945
11
0.568528
21
0.782451
0
LINE
8
BLACK
6
CONTINUOUS
10
0.568528
20
0.782451
11
0.569381
21
0.783729
0
LINE
8
BLACK
6
CONTINUOUS
10
0.569381
20
0.783729
11
0.570659
21
0.784582
0
LINE
8
BLACK
6
CONTINUOUS
10
0.570659
20
0.784582
11
0.572165
21
0.784882
0
LINE
8
BLACK
6
CONTINUOUS
10
0.572165
20
0.784882
11
0.632165
21
0.784882
0
LINE
8
BLACK
6
CONTINUOUS
10
0.632165
20
0.784882
11
0.633672
21
0.784582
0
LINE
8
BLACK
6
CONTINUOUS
10
0.733672
20
0.784582
11
0.734949
21
0.783729
0
LINE
8
BLACK
6
CONTINUOUS
10
0.734949
20
0.783729
11
0.735803
21
0.782451
0
LINE
8
BLACK
6
CONTINUOUS
10
0.735803
20
0.782451
11
0.736102
21
0.780945
0
LINE
8
BLACK
6
CONTINUOUS
10
0.736102
20
0.780945
11
0.736102
21
0.720945
0
LINE
8
BLACK
6
CONTINUOUS
10
0.736102
20
0.720945
11
0.735803
21
0.719438
0
LINE
8
BLACK
6
CONTINUOUS
10
0.735803
20
0.719438
11
0.734949
21
0.718161
0
LINE
8
BLACK
6
CONTINUOUS
10
0.734949
20
0.718161
11
0.733672
21
0.717308
0
LINE
8
BLACK
6
CONTINUOUS
10
0.733672
20
0.717308
11
0.732165
21
0.717008
0
LINE
8
BLACK
6
CONTINUOUS
10
0.732165
20
0.717008
11
0.672165
21
0.717008
0
LINE
8
BLACK
6
CONTINUOUS
10
0.672165
20
0.717008
11
0.670659
21
0.717308
0
LINE
8
BLACK
6
CONTINUOUS
10
0.670659
20
0.717308
11
0.669381
21
0.718161
0
LINE
8
BLACK
6
CONTINUOUS
10
0.669381
20
0.718161
11
0.668528
21
0.719438
0
LINE
8
BLACK
6
CONTINUOUS
10
0.668528
20
0.719438
11
0.668228
21
0.720945
0
LINE
8
BLACK
6
CONTINUOUS
10
0.668228
20
0.720945
11
0.668228
21
0.780945
0
LINE
8
BLACK
6
CONTINUOUS
10
0.668228
20
0.780945
11
0.668528
21
0.782451
0
LINE
8
BLACK
6
CONTINUOUS
10
0.668528
20
0.782451
11
0.669381
21
0.783729
0
LINE
8
BLACK
6
CONTINUOUS
10
0.669381
20
0.783729
11
0.670659
21
0.784582
0
LINE
8
BLACK
6
CONTINUOUS
10
0.670659
20
0.784582
11
0.672165
21
0.784882
0
LINE
8
BLACK
6
CONTINUOUS
10
0.672165
20
0.784882
11
0.732165
21
0.784882
0
LINE
8
BLACK
6
CONTINUOUS
10
0.732165
20
0.784882
11
0.733672
21
0.784582
0
LINE
8
BLACK
6
CONTINUOUS
10
0.833672
20
0.784582
11
0.834949
21
0.783729
0
LINE
8
BLACK
6
CONTINUOUS
10
0.834949
20
0.783729
11
0.835803
21
0.782451
0
LINE
8
BLACK
6
CONTINUOUS
10
0.835803
20
0.782451
11
0.836102
21
0.780945
0
LINE
8
BLACK
6
CONTINUOUS
10
0.836102
20
0.780945
11
0.836102
21
0.720945
0
LINE
8
BLACK
6
CONTINUOUS
10
0.836102
20
0.720945
11
0.835803
21
0.719438
0
LINE
8
BLACK
6
CONTINUOUS
10
0.835803
20
0.719438
11
0.834949
21
0.718161
0
LINE
8
BLACK
6
CONTINUOUS
10
0.834949
20
0.718161
11
0.833672
21
0.717308
0
LINE
8
BLACK
6
CONTINUOUS
10
0.833672
20
0.717308
11
0.832165
21
0.717008
0
LINE
8
BLACK
6
CONTINUOUS
10
0.832165
20
0.717008
11
0.772165
21
0.717008
0
LINE
8
BLACK
6
CONTINUOUS
10
0.772165
20
0.717008
11
0.770659
21
0.717308
0
LINE
8
BLACK
6
CONTINUOUS
10
0.770659
20
0.717308
11
0.769381
21
0.718161
0
LINE
8
BLACK
6
CONTINUOUS
10
0.769381
20
0.718161
11
0.768528
21
0.719438
0
LINE
8
BLACK
6
CONTINUOUS
10
0.768528
20
0.719438
11
0.768228
21
0.720945
0
LINE
8
BLACK
6
CONTINUOUS
10
0.768228
20
0.720945
11
0.768228
21
0.780945
0
LINE
8
BLACK
6
CONTINUOUS
10
0.768228
20
0.780945
11
0.768528
21
0.782451
0
LINE
8
BLACK
6
CONTINUOUS
10
0.768528
20
0.782451
11
0.769381
21
0.783729
0
LINE
8
BLACK
6
CONTINUOUS
10
0.769381
20
0.783729
11
0.770659
21
0.784582
0
LINE
8
BLACK
6
CONTINUOUS
10
0.770659
20
0.784582
11
0.772165
21
0.784882
0
LINE
8
BLACK
6
CONTINUOUS
10
0.772165
20
0.784882
11
0.832165
21
0.784882
0
LINE
8
BLACK
6
CONTINUOUS
10
0.832165
20
0.784882
11
0.833672
21
0.784582
0
LINE
8
BLACK
6
CONTINUOUS
10
0.933672
20
0.784582
11
0.934949
21
0.783729
0
LINE
8
BLACK
6
CONTINUOUS
10
0.934949
20
0.783729
11
0.935803
21
0.782451
0
LINE
8
BLACK
6
CONTINUOUS
10
0.935803
20
0.782451
11
0.936102
21
0.780945
0
LINE
8
BLACK
6
CONTINUOUS
10
0.936102
20
0.780945
11
0.936102
21
0.720945
0
LINE
8
BLACK
6
CONTINUOUS
10
0.936102
20
0.720945
11
0.935803
21
0.719438
0
LINE
8
BLACK
6
CONTINUOUS
10
0.935803
20
0.719438
11
0.934949
21
0.718161
0
LINE
8
BLACK
6
CONTINUOUS
10
0.934949
20
0.718161
11
0.933672
21
0.717308
0
LINE
8
BLACK
6
CONTINUOUS
10
0.933672
20
0.717308
11
0.932165
21
0.717008
0
LINE
8
BLACK
6
CONTINUOUS
10
0.932165
20
0.717008
11
0.872165
21
0.717008
0
LINE
8
BLACK
6
CONTINUOUS
10
0.872165
20
0.717008
11
0.870659
21
0.717308
0
LINE
8
BLACK
6
CONTINUOUS
10
0.870659
20
0.717308
11
0.869381
21
0.718161
0
LINE
8
BLACK
6
CONTINUOUS
10
0.869381
20
0.718161
11
0.868528
21
0.719438
0
LINE
8
BLACK
6
CONTINUOUS
10
0.868528
20
0.719438
11
0.868228
21
0.720945
0
LINE
8
BLACK
6
CONTINUOUS
10
0.868228
20
0.720945
11
0.868228
21
0.780945
0
LINE
8
BLACK
6
CONTINUOUS
10
0.868228
20
0.780945
11
0.868528
21
0.782451
0
LINE
8
BLACK
6
CONTINUOUS
10
0.868528
20
0.782451
11
0.869381
21
0.783729
0
LINE
8
BLACK
6
CONTINUOUS
10
0.869381
20
0.783729
11
0.870659
21
0.784582
0
LINE
8
BLACK
6
CONTINUOUS
10
0.870659
20
0.784582
11
0.872165
21
0.784882
0
LINE
8
BLACK
6
CONTINUOUS
10
0.872165
20
0.784882
11
0.932165
21
0.784882
0
LINE
8
BLACK
6
CONTINUOUS
10
0.932165
20
0.784882
11
0.933672
21
0.784582
0
LINE
8
BLACK
6
CONTINUOUS
10
1.03367
20
0.784582
11
1.03495
21
0.783729
0
LINE
8
BLACK
6
CONTINUOUS
10
1.03495
20
0.783729
11
1.0358
21
0.782451
0
LINE
8
BLACK
6
CONTINUOUS
10
1.0358
20
0.782451
11
1.0361
21
0.780945
0
LINE
8
BLACK
6
CONTINUOUS
10
1.0361
20
0.780945
11
1.0361
21
0.720945
0
LINE
8
BLACK
6
CONTINUOUS
10
1.0361
20
0.720945
11
1.0358
21
0.719438
0
LINE
8
BLACK
6
CONTINUOUS
10
1.0358
20
0.719438
11
1.03495
21
0.718161
0
LINE
8
BLACK
6
CONTINUOUS
10
1.03495
20
0.718161
11
1.03367
21
0.717308
0
LINE
8
BLACK
6
CONTINUOUS
10
1.03367
20
0.717308
11
1.03217
21
0.717008
0
LINE
8
BLACK
6
CONTINUOUS
10
1.03217
20
0.717008
11
0.972165
21
0.717008
0
LINE
8
BLACK
6
CONTINUOUS
10
0.972165
20
0.717008
11
0.970659
21
0.717308
0
LINE
8
BLACK
6
CONTINUOUS
10
0.970659
20
0.717308
11
0.969381
21
0.718161
0
LINE
8
BLACK
6
CONTINUOUS
10
0.969381
20
0.718161
11
0.968528
21
0.719438
0
LINE
8
BLACK
6
CONTINUOUS
10
0.968528
20
0.719438
11
0.968228
21
0.720945
0
LINE
8
BLACK
6
CONTINUOUS
10
0.968228
20
0.720945
11
0.968228
21
0.780945
0
LINE
8
BLACK
6
CONTINUOUS
10
0.968228
20
0.780945
11
0.968528
21
0.782451
0
LINE
8
BLACK
6
CONTINUOUS
10
0.968528
20
0.782451
11
0.969381
21
0.783729
0
LINE
8
BLACK
6
CONTINUOUS
10
0.969381
20
0.783729
11
0.970659
21
0.784582
0
LINE
8
BLACK
6
CONTINUOUS
10
0.970659
20
0.784582
11
0.972165
21
0.784882
0
LINE
8
BLACK
6
CONTINUOUS
10
0.972165
20
0.784882
11
1.03217
21
0.784882
0
LINE
8
BLACK
6
CONTINUOUS
10
1.03217
20
0.784882
11
1.03367
21
0.784582
0
LINE
8
BLACK
6
CONTINUOUS
10
0.433672
20
0.884582
11
0.434949
21
0.883729
0
LINE
8
BLACK
6
CONTINUOUS
10
0.434949
20
0.883729
11
0.435803
21
0.882451
0
LINE
8
BLACK
6
CONTINUOUS
10
0.435803
20
0.882451
11
0.436102
21
0.880945
0
LINE
8
BLACK
6
CONTINUOUS
10
0.436102
20
0.880945
11
0.436102
21
0.820945
0
LINE
8
BLACK
6
CONTINUOUS
10
0.436102
20
0.820945
11
0.435803
21
0.819438
0
LINE
8
BLACK
6
CONTINUOUS
10
0.435803
20
0.819438
11
0.434949
21
0.818161
0
LINE
8
BLACK
6
CONTINUOUS
10
0.434949
20
0.818161
11
0.433672
21
0.817308
0
LINE
8
BLACK
6
CONTINUOUS
10
0.433672
20
0.817308
11
0.432165
21
0.817008
0
LINE
8
BLACK
6
CONTINUOUS
10
0.432165
20
0.817008
11
0.372165
21
0.817008
0
LINE
8
BLACK
6
CONTINUOUS
10
0.372165
20
0.817008
11
0.370659
21
0.817308
0
LINE
8
BLACK
6
CONTINUOUS
10
0.370659
20
0.817308
11
0.369381
21
0.818161
0
LINE
8
BLACK
6
CONTINUOUS
10
0.369381
20
0.818161
11
0.368528
21
0.819438
0
LINE
8
BLACK
6
CONTINUOUS
10
0.368528
20
0.819438
11
0.368228
21
0.820945
0
LINE
8
BLACK
6
CONTINUOUS
10
0.368228
20
0.820945
11
0.368228
21
0.880945
0
LINE
8
BLACK
6
CONTINUOUS
10
0.368228
20
0.880945
11
0.368528
21
0.882451
0
LINE
8
BLACK
6
CONTINUOUS
10
0.368528
20
0.882451
11
0.369381
21
0.883729
0
LINE
8
BLACK
6
CONTINUOUS
10
0.369381
20
0.883729
11
0.370659
21
0.884582
0
LINE
8
BLACK
6
CONTINUOUS
10
0.370659
20
0.884582
11
0.372165
21
0.884882
0
LINE
8
BLACK
6
CONTINUOUS
10
0.372165
20
0.884882
11
0.432165
21
0.884882
0
LINE
8
BLACK
6
CONTINUOUS
10
0.432165
20
0.884882
11
0.433672
21
0.884582
0
LINE
8
BLACK
6
CONTINUOUS
10
0.533672
20
0.884582
11
0.534949
21
0.883729
0
LINE
8
BLACK
6
CONTINUOUS
10
0.534949
20
0.883729
11
0.535803
21
0.882451
0
LINE
8
BLACK
6
CONTINUOUS
10
0.535803
20
0.882451
11
0.536102
21
0.880945
0
LINE
8
BLACK
6
CONTINUOUS
10
0.536102
20
0.880945
11
0.536102
21
0.820945
0
LINE
8
BLACK
6
CONTINUOUS
10
0.536102
20
0.820945
11
0.535803
21
0.819438
0
LINE
8
BLACK
6
CONTINUOUS
10
0.535803
20
0.819438
11
0.534949
21
0.818161
0
LINE
8
BLACK
6
CONTINUOUS
10
0.534949
20
0.818161
11
0.533672
21
0.817308
0
LINE
8
BLACK
6
CONTINUOUS
10
0.533672
20
0.817308
11
0.532165
21
0.817008
0
LINE
8
BLACK
6
CONTINUOUS
10
0.532165
20
0.817008
11
0.472165
21
0.817008
0
LINE
8
BLACK
6
CONTINUOUS
10
0.472165
20
0.817008
11
0.470659
21
0.817308
0
LINE
8
BLACK
6
CONTINUOUS
10
0.470659
20
0.817308
11
0.469381
21
0.818161
0
LINE
8
BLACK
6
CONTINUOUS
10
0.469381
20
0.818161
11
0.468528
21
0.819438
0
LINE
8
BLACK
6
CONTINUOUS
10
0.468528
20
0.819438
11
0.468228
21
0.820945
0
LINE
8
BLACK
6
CONTINUOUS
10
0.468228
20
0.820945
11
0.468228
21
0.880945
0
LINE
8
BLACK
6
CONTINUOUS
10
0.468228
20
0.880945
11
0.468528
21
0.882451
0
LINE
8
BLACK
6
CONTINUOUS
10
0.468528
20
0.882451
11
0.469381
21
0.883729
0
LINE
8
BLACK
6
CONTINUOUS
10
0.469381
20
0.883729
11
0.470659
21
0.884582
0
LINE
8
BLACK
6
CONTINUOUS
10
0.470659
20
0.884582
11
0.472165
21
0.884882
0
LINE
8
BLACK
6
CONTINUOUS
10
0.472165
20
0.884882
11
0.532165
21
0.884882
0
LINE
8
BLACK
6
CONTINUOUS
10
0.532165
20
0.884882
11
0.533672
21
0.884582
0
LINE
8
BLACK
6
CONTINUOUS
10
0.633672
20
0.884582
11
0.634949
21
0.883729
0
LINE
8
BLACK
6
CONTINUOUS
10
0.634949
20
0.883729
11
0.635803
21
0.882451
0
LINE
8
BLACK
6
CONTINUOUS
10
0.635803
20
0.882451
11
0.636102
21
0.880945
0
LINE
8
BLACK
6
CONTINUOUS
10
0.636102
20
0.880945
11
0.636102
21
0.820945
0
LINE
8
BLACK
6
CONTINUOUS
10
0.636102
20
0.820945
11
0.635803
21
0.819438
0
LINE
8
BLACK
6
CONTINUOUS
10
0.635803
20
0.819438
11
0.634949
21
0.818161
0
LINE
8
BLACK
6
CONTINUOUS
10
0.634949
20
0.818161
11
0.633672
21
0.817308
0
LINE
8
BLACK
6
CONTINUOUS
10
0.633672
20
0.817308
11
0.632165
21
0.817008
0
LINE
8
BLACK
6
CONTINUOUS
10
0.632165
20
0.817008
11
0.572165
21
0.817008
0
LINE
8
BLACK
6
CONTINUOUS
10
0.572165
20
0.817008
11
0.570659
21
0.817308
0
LINE
8
BLACK
6
CONTINUOUS
10
0.570659
20
0.817308
11
0.569381
21
0.818161
0
LINE
8
BLACK
6
CONTINUOUS
10
0.569381
20
0.818161
11
0.568528
21
0.819438
0
LINE
8
BLACK
6
CONTINUOUS
10
0.568528
20
0.819438
11
0.568228
21
0.820945
0
LINE
8
BLACK
6
CONTINUOUS
10
0.568228
20
0.820945
11
0.568228
21
0.880945
0
LINE
8
BLACK
6
CONTINUOUS
10
0.568228
20
0.880945
11
0.568528
21
0.882451
0
LINE
8
BLACK
6
CONTINUOUS
10
0.568528
20
0.882451
11
0.569381
21
0.883729
0
LINE
8
BLACK
6
CONTINUOUS
10
0.569381
20
0.883729
11
0.570659
21
0.884582
0
LINE
8
BLACK
6
CONTINUOUS
10
0.570659
20
0.884582
11
0.572165
21
0.884882
0
LINE
8
BLACK
6
CONTINUOUS
10
0.572165
20
0.884882
11
0.632165
21
0.884882
0
LINE
8
BLACK
6
CONTINUOUS
10
0.632165
20
0.884882
11
0.633672
21
0.884582
0
LINE
8
BLACK
6
CONTINUOUS
10
0.733672
20
0.884582
11
0.734949
21
0.883729
0
LINE
8
BLACK
6
CONTINUOUS
10
0.734949
20
0.883729
11
0.735803
21
0.882451
0
LINE
8
BLACK
6
CONTINUOUS
10
0.735803
20
0.882451
11
0.736102
21
0.880945
0
LINE
8
BLACK
6
CONTINUOUS
10
0.736102
20
0.880945
11
0.736102
21
0.820945
0
LINE
8
BLACK
6
CONTINUOUS
10
0.736102
20
0.820945
11
0.735803
21
0.819438
0
LINE
8
BLACK
6
CONTINUOUS
10
0.735803
20
0.819438
11
0.734949
21
0.818161
0
LINE
8
BLACK
6
CONTINUOUS
10
0.734949
20
0.818161
11
0.733672
21
0.817308
0
LINE
8
BLACK
6
CONTINUOUS
10
0.733672
20
0.817308
11
0.732165
21
0.817008
0
LINE
8
BLACK
6
CONTINUOUS
10
0.732165
20
0.817008
11
0.672165
21
0.817008
0
LINE
8
BLACK
6
CONTINUOUS
10
0.672165
20
0.817008
11
0.670659
21
0.817308
0
LINE
8
BLACK
6
CONTINUOUS
10
0.670659
20
0.817308
11
0.669381
21
0.818161
0
LINE
8
BLACK
6
CONTINUOUS
10
0.669381
20
0.818161
11
0.668528
21
0.819438
0
LINE
8
BLACK
6
CONTINUOUS
10
0.668528
20
0.819438
11
0.668228
21
0.820945
0
LINE
8
BLACK
6
CONTINUOUS
10
0.668228
20
0.820945
11
0.668228
21
0.880945
0
LINE
8
BLACK
6
CONTINUOUS
10
0.668228
20
0.880945
11
0.668528
21
0.882451
0
LINE
8
BLACK
6
CONTINUOUS
10
0.668528
20
0.882451
11
0.669381
21
0.883729
0
LINE
8
BLACK
6
CONTINUOUS
10
0.669381
20
0.883729
11
0.670659
21
0.884582
0
LINE
8
BLACK
6
CONTINUOUS
10
0.670659
20
0.884582
11
0.672165
21
0.884882
0
LINE
8
BLACK
6
CONTINUOUS
10
0.672165
20
0.884882
11
0.732165
21
0.884882
0
LINE
8
BLACK
6
CONTINUOUS
10
0.732165
20
0.884882
11
0.733672
21
0.884582
0
LINE
8
BLACK
6
CONTINUOUS
10
0.833672
20
0.884582
11
0.834949
21
0.883729
0
LINE
8
BLACK
6
CONTINUOUS
10
0.834949
20
0.883729
11
0.835803
21
0.882451
0
LINE
8
BLACK
6
CONTINUOUS
10
0.835803
20
0.882451
11
0.836102
21
0.880945
0
LINE
8
BLACK
6
CONTINUOUS
10
0.836102
20
0.880945
11
0.836102
21
0.820945
0
LINE
8
BLACK
6
CONTINUOUS
10
0.836102
20
0.820945
11
0.835803
21
0.819438
0
LINE
8
BLACK
6
CONTINUOUS
10
0.835803
20
0.819438
11
0.834949
21
0.818161
0
LINE
8
BLACK
6
CONTINUOUS
10
0.834949
20
0.818161
11
0.833672
21
0.817308
0
LINE
8
BLACK
6
CONTINUOUS
10
0.833672
20
0.817308
11
0.832165
21
0.817008
0
LINE
8
BLACK
6
CONTINUOUS
10
0.832165
20
0.817008
11
0.772165
21
0.817008
0
LINE
8
BLACK
6
CONTINUOUS
10
0.772165
20
0.817008
11
0.770659
21
0.817308
0
LINE
8
BLACK
6
CONTINUOUS
10
0.770659
20
0.817308
11
0.769381
21
0.818161
0
LINE
8
BLACK
6
CONTINUOUS
10
0.769381
20
0.818161
11
0.768528
21
0.819438
0
LINE
8
BLACK
6
CONTINUOUS
10
0.768528
20
0.819438
11
0.768228
21
0.820945
0
LINE
8
BLACK
6
CONTINUOUS
10
0.768228
20
0.820945
11
0.768228
21
0.880945
0
LINE
8
BLACK
6
CONTINUOUS
10
0.768228
20
0.880945
11
0.768528
21
0.882451
0
LINE
8
BLACK
6
CONTINUOUS
10
0.768528
20
0.882451
11
0.769381
21
0.883729
0
LINE
8
BLACK
6
CONTINUOUS
10
0.769381
20
0.883729
11
0.770659
21
0.884582
0
LINE
8
BLACK
6
CONTINUOUS
10
0.770659
20
0.884582
11
0.772165
21
0.884882
0
LINE
8
BLACK
6
CONTINUOUS
10
0.772165
20
0.884882
11
0.832165
21
0.884882
0
LINE
8
BLACK
6
CONTINUOUS
10
0.832165
20
0.884882
11
0.833672
21
0.884582
0
LINE
8
BLACK
6
CONTINUOUS
10
0.933672
20
0.884582
11
0.934949
21
0.883729
0
LINE
8
BLACK
6
CONTINUOUS
10
0.934949
20
0.883729
11
0.935803
21
0.882451
0
LINE
8
BLACK
6
CONTINUOUS
10
0.935803
20
0.882451
11
0.936102
21
0.880945
0
LINE
8
BLACK
6
CONTINUOUS
10
0.936102
20
0.880945
11
0.936102
21
0.820945
0
LINE
8
BLACK
6
CONTINUOUS
10
0.936102
20
0.820945
11
0.935803
21
0.819438
0
LINE
8
BLACK
6
CONTINUOUS
10
0.935803
20
0.819438
11
0.934949
21
0.818161
0
LINE
8
BLACK
6
CONTINUOUS
10
0.934949
20
0.818161
11
0.933672
21
0.817308
0
LINE
8
BLACK
6
CONTINUOUS
10
0.933672
20
0.817308
11
0.932165
21
0.817008
0
LINE
8
BLACK
6
CONTINUOUS
10
0.932165
20
0.817008
11
0.872165
21
0.817008
0
LINE
8
BLACK
6
CONTINUOUS
10
0.872165
20
0.817008
11
0.870659
21
0.817308
0
LINE
8
BLACK
6
CONTINUOUS
10
0.870659
20
0.817308
11
0.869381
21
0.818161
0
LINE
8
BLACK
6
CONTINUOUS
10
0.869381
20
0.818161
11
0.868528
21
0.819438
0
LINE
8
BLACK
6
CONTINUOUS
10
0.868528
20
0.819438
11
0.868228
21
0.820945
0
LINE
8
BLACK
6
CONTINUOUS
10
0.868228
20
0.820945
11
0.868228
21
0.880945
0
LINE
8
BLACK
6
CONTINUOUS
10
0.868228
20
0.880945
11
0.868528
21
0.882451
0
LINE
8
BLACK
6
CONTINUOUS
10
0.868528
20
0.882451
11
0.869381
21
0.883729
0
LINE
8
BLACK
6
CONTINUOUS
10
0.869381
20
0.883729
11
0.870659
21
0.884582
0
LINE
8
BLACK
6
CONTINUOUS
10
0.870659
20
0.884582
11
0.872165
21
0.884882
0
LINE
8
BLACK
6
CONTINUOUS
10
0.872165
20
0.884882
11
0.932165
21
0.884882
0
LINE
8
BLACK
6
CONTINUOUS
10
0.932165
20
0.884882
11
0.933672
21
0.884582
0
LINE
8
BLACK
6
CONTINUOUS
10
1.03367
20
0.884582
11
1.03495
21
0.883729
0
LINE
8
BLACK
6
CONTINUOUS
10
1.03495
20
0.883729
11
1.0358
21
0.882451
0
LINE
8
BLACK
6
CONTINUOUS
10
1.0358
20
0.882451
11
1.0361
21
0.880945
0
LINE
8
BLACK
6
CONTINUOUS
10
1.0361
20
0.880945
11
1.0361
21
0.820945
0
LINE
8
BLACK
6
CONTINUOUS
10
1.0361
20
0.820945
11
1.0358
21
0.819438
0
LINE
8
BLACK
6
CONTINUOUS
10
1.0358
20
0.819438
11
1.03495
21
0.818161
0
LINE
8
BLACK
6
CONTINUOUS
10
1.03495
20
0.818161
11
1.03367
21
0.817308
0
LINE
8
BLACK
6
CONTINUOUS
10
1.03367
20
0.817308
11
1.03217
21
0.817008
0
LINE
8
BLACK
6
CONTINUOUS
10
1.03217
20
0.817008
11
0.972165
21
0.817008
0
LINE
8
BLACK
6
CONTINUOUS
10
0.972165
20
0.817008
11
0.970659
21
0.817308
0
LINE
8
BLACK
6
CONTINUOUS
10
0.970659
20
0.817308
11
0.969381
21
0.818161
0
LINE
8
BLACK
6
CONTINUOUS
10
0.969381
20
0.818161
11
0.968528
21
0.819438
0
LINE
8
BLACK
6
CONTINUOUS
10
0.968528
20
0.819438
11
0.968228
21
0.820945
0
LINE
8
BLACK
6
CONTINUOUS
10
0.968228
20
0.820945
11
0.968228
21
0.880945
0
LINE
8
BLACK
6
CONTINUOUS
10
0.968228
20
0.880945
11
0.968528
21
0.882451
0
LINE
8
BLACK
6
CONTINUOUS
10
0.968528
20
0.882451
11
0.969381
21
0.883729
0
LINE
8
BLACK
6
CONTINUOUS
10
0.969381
20
0.883729
11
0.970659
21
0.884582
0
LINE
8
BLACK
6
CONTINUOUS
10
0.970659
20
0.884582
11
0.972165
21
0.884882
0
LINE
8
BLACK
6
CONTINUOUS
10
0.972165
20
0.884882
11
1.03217
21
0.884882
0
LINE
8
BLACK
6
CONTINUOUS
10
1.03217
20
0.884882
11
1.03367
21
0.884582
  0
ENDSEC
  0
EOF
