  0
SECTION
  2
HEADER
  9
$ANGBASE
  50
0.0
  9
$ANGDIR
  70
1
  9
$MEASUREMENT
  70
0
  0
ENDSEC
  0
SECTION
  2
TABLES
  0
TABLE
  2
LTYPE
  70
4
  0
LTYPE
  5
40F
  2
CONTINUOUS
  70
0
  3
Solid line
  72
65
  73
0
  40
0.0
  0
LTYPE
  5
410
  2
DASHDOT
 70
0
  3
Dash Dot ____ _ ____ _
 72
65
 73
4
 40
2.0
 49
1.25
 49
-0.25
 49
0.25
 49
-0.25
  0
LTYPE
  5
411
  2
DASHED
 70
0
  3
Dashed __ __ __ __ __
 72
65
 73
2
 40
0.75
 49
0.5
 49
-0.25
  0
LTYPE
  5
43B
  2
DOTTED
 70
0
  3
Dotted .  .  .  .
 72
65
 73
2
 40
0.2
 49
0.0
 49
-0.2
  0
ENDTAB
  0
TABLE
  2
STYLE
  70
4
  0
STYLE
  2
KICAD
  70
0
  40
0
  41
1
  42
1
  50
0
  71
0
  3
isocp.shx
  0
STYLE
  2
KICADB
  70
0
  40
0
  41
1
  42
1
  50
0
  71
0
  3
isocp.shx
  0
STYLE
  2
KICADI
  70
0
  40
0
  41
1
  42
1
  50
15
  71
0
  3
isocp.shx
  0
STYLE
  2
KICADBI
  70
0
  40
0
  41
1
  42
1
  50
15
  71
0
  3
isocp.shx
  0
ENDTAB
  0
TABLE
  2
LAYER
  70
1
  0
LAYER
  2
BLACK
  70
0
  62
7
  6
CONTINUOUS
  0
ENDTAB
  0
ENDSEC
  0
SECTION
  2
ENTITIES
0
LINE
8
BLACK
6
CONTINUOUS
10
5.27732
20
-4.23215
11
5.29117
21
-4.23459
0
LINE
8
BLACK
6
CONTINUOUS
10
5.29117
20
-4.23459
11
5.30466
21
-4.23856
0
LINE
8
BLACK
6
CONTINUOUS
10
5.30466
20
-4.23856
11
5.31763
21
-4.24401
0
LINE
8
BLACK
6
CONTINUOUS
10
5.31763
20
-4.24401
11
5.32991
21
-4.25087
0
LINE
8
BLACK
6
CONTINUOUS
10
5.32991
20
-4.25087
11
5.34134
21
-4.25906
0
LINE
8
BLACK
6
CONTINUOUS
10
5.34134
20
-4.25906
11
5.3518
21
-4.26847
0
LINE
8
BLACK
6
CONTINUOUS
10
5.3518
20
-4.26847
11
5.36113
21
-4.27899
0
LINE
8
BLACK
6
CONTINUOUS
10
5.36113
20
-4.27899
11
5.36924
21
-4.29048
0
LINE
8
BLACK
6
CONTINUOUS
10
5.36924
20
-4.29048
11
5.37602
21
-4.30281
0
LINE
8
BLACK
6
CONTINUOUS
10
5.37602
20
-4.30281
11
5.38138
21
-4.31581
0
LINE
8
BLACK
6
CONTINUOUS
10
5.38138
20
-4.31581
11
5.38526
21
-4.32933
0
LINE
8
BLACK
6
CONTINUOUS
10
5.38526
20
-4.32933
11
5.3876
21
-4.3432
0
LINE
8
BLACK
6
CONTINUOUS
10
5.3876
20
-4.3432
11
5.38839
21
-4.35724
0
LINE
8
BLACK
6
CONTINUOUS
10
5.38839
20
-4.35724
11
5.38834
21
-4.36076
0
LINE
8
BLACK
6
CONTINUOUS
10
5.38834
20
-4.36076
11
5.38716
21
-4.37478
0
LINE
8
BLACK
6
CONTINUOUS
10
5.38716
20
-4.37478
11
5.38443
21
-4.38858
0
LINE
8
BLACK
6
CONTINUOUS
10
5.38443
20
-4.38858
11
5.38017
21
-4.40198
0
LINE
8
BLACK
6
CONTINUOUS
10
5.38017
20
-4.40198
11
5.37445
21
-4.41483
0
LINE
8
BLACK
6
CONTINUOUS
10
5.37445
20
-4.41483
11
5.36734
21
-4.42696
0
LINE
8
BLACK
6
CONTINUOUS
10
5.36734
20
-4.42696
11
5.35891
21
-4.43823
0
LINE
8
BLACK
6
CONTINUOUS
10
5.35891
20
-4.43823
11
5.34928
21
-4.44848
0
LINE
8
BLACK
6
CONTINUOUS
10
5.34928
20
-4.44848
11
5.33857
21
-4.45759
0
LINE
8
BLACK
6
CONTINUOUS
10
5.33857
20
-4.45759
11
5.32691
21
-4.46546
0
LINE
8
BLACK
6
CONTINUOUS
10
5.32691
20
-4.46546
11
5.31445
21
-4.47198
0
LINE
8
BLACK
6
CONTINUOUS
10
5.31445
20
-4.47198
11
5.30133
21
-4.47706
0
LINE
8
BLACK
6
CONTINUOUS
10
5.30133
20
-4.47706
11
5.28773
21
-4.48066
0
LINE
8
BLACK
6
CONTINUOUS
10
5.28773
20
-4.48066
11
5.27382
21
-4.48271
0
LINE
8
BLACK
6
CONTINUOUS
10
5.27382
20
-4.48271
11
5.25976
21
-4.4832
0
LINE
8
BLACK
6
CONTINUOUS
10
5.25976
20
-4.4832
11
5.24574
21
-4.48212
0
LINE
8
BLACK
6
CONTINUOUS
10
5.24574
20
-4.48212
11
5.23192
21
-4.47949
0
LINE
8
BLACK
6
CONTINUOUS
10
5.23192
20
-4.47949
11
5.21849
21
-4.47533
0
LINE
8
BLACK
6
CONTINUOUS
10
5.21849
20
-4.47533
11
5.2056
21
-4.4697
0
LINE
8
BLACK
6
CONTINUOUS
10
5.2056
20
-4.4697
11
5.19342
21
-4.46266
0
LINE
8
BLACK
6
CONTINUOUS
10
5.19342
20
-4.46266
11
5.1821
21
-4.45432
0
LINE
8
BLACK
6
CONTINUOUS
10
5.1821
20
-4.45432
11
5.17178
21
-4.44476
0
LINE
8
BLACK
6
CONTINUOUS
10
5.17178
20
-4.44476
11
5.16259
21
-4.43411
0
LINE
8
BLACK
6
CONTINUOUS
10
5.16259
20
-4.43411
11
5.15464
21
-4.42251
0
LINE
8
BLACK
6
CONTINUOUS
10
5.15464
20
-4.42251
11
5.14804
21
-4.41009
0
LINE
8
BLACK
6
CONTINUOUS
10
5.14804
20
-4.41009
11
5.14286
21
-4.39701
0
LINE
8
BLACK
6
CONTINUOUS
10
5.14286
20
-4.39701
11
5.13917
21
-4.38344
0
LINE
8
BLACK
6
CONTINUOUS
10
5.13917
20
-4.38344
11
5.13702
21
-4.36954
0
LINE
8
BLACK
6
CONTINUOUS
10
5.13702
20
-4.36954
11
5.13643
21
-4.35549
0
LINE
8
BLACK
6
CONTINUOUS
10
5.13643
20
-4.35549
11
5.13741
21
-4.34145
0
LINE
8
BLACK
6
CONTINUOUS
10
5.13741
20
-4.34145
11
5.13995
21
-4.32762
0
LINE
8
BLACK
6
CONTINUOUS
10
5.13995
20
-4.32762
11
5.14402
21
-4.31415
0
LINE
8
BLACK
6
CONTINUOUS
10
5.14402
20
-4.31415
11
5.14956
21
-4.30123
0
LINE
8
BLACK
6
CONTINUOUS
10
5.14956
20
-4.30123
11
5.1565
21
-4.289
0
LINE
8
BLACK
6
CONTINUOUS
10
5.1565
20
-4.289
11
5.16477
21
-4.27762
0
LINE
8
BLACK
6
CONTINUOUS
10
5.16477
20
-4.27762
11
5.17425
21
-4.26723
0
LINE
8
BLACK
6
CONTINUOUS
10
5.17425
20
-4.26723
11
5.18484
21
-4.25797
0
LINE
8
BLACK
6
CONTINUOUS
10
5.18484
20
-4.25797
11
5.19639
21
-4.24994
0
LINE
8
BLACK
6
CONTINUOUS
10
5.19639
20
-4.24994
11
5.20876
21
-4.24325
0
LINE
8
BLACK
6
CONTINUOUS
10
5.20876
20
-4.24325
11
5.2218
21
-4.23798
0
LINE
8
BLACK
6
CONTINUOUS
10
5.2218
20
-4.23798
11
5.23535
21
-4.2342
0
LINE
8
BLACK
6
CONTINUOUS
10
5.23535
20
-4.2342
11
5.24923
21
-4.23195
0
LINE
8
BLACK
6
CONTINUOUS
10
5.24923
20
-4.23195
11
5.26328
21
-4.23126
0
LINE
8
BLACK
6
CONTINUOUS
10
5.26328
20
-4.23126
11
5.27732
21
-4.23215
0
LINE
8
BLACK
6
CONTINUOUS
10
6.47732
20
-4.23215
11
6.49117
21
-4.23459
0
LINE
8
BLACK
6
CONTINUOUS
10
6.49117
20
-4.23459
11
6.50466
21
-4.23856
0
LINE
8
BLACK
6
CONTINUOUS
10
6.50466
20
-4.23856
11
6.51763
21
-4.24401
0
LINE
8
BLACK
6
CONTINUOUS
10
6.51763
20
-4.24401
11
6.52991
21
-4.25087
0
LINE
8
BLACK
6
CONTINUOUS
10
6.52991
20
-4.25087
11
6.54134
21
-4.25906
0
LINE
8
BLACK
6
CONTINUOUS
10
6.54134
20
-4.25906
11
6.5518
21
-4.26847
0
LINE
8
BLACK
6
CONTINUOUS
10
6.5518
20
-4.26847
11
6.56113
21
-4.27899
0
LINE
8
BLACK
6
CONTINUOUS
10
6.56113
20
-4.27899
11
6.56924
21
-4.29048
0
LINE
8
BLACK
6
CONTINUOUS
10
6.56924
20
-4.29048
11
6.57602
21
-4.30281
0
LINE
8
BLACK
6
CONTINUOUS
10
6.57602
20
-4.30281
11
6.58138
21
-4.31581
0
LINE
8
BLACK
6
CONTINUOUS
10
6.58138
20
-4.31581
11
6.58526
21
-4.32933
0
LINE
8
BLACK
6
CONTINUOUS
10
6.58526
20
-4.32933
11
6.5876
21
-4.3432
0
LINE
8
BLACK
6
CONTINUOUS
10
6.5876
20
-4.3432
11
6.58839
21
-4.35724
0
LINE
8
BLACK
6
CONTINUOUS
10
6.58839
20
-4.35724
11
6.58834
21
-4.36076
0
LINE
8
BLACK
6
CONTINUOUS
10
6.58834
20
-4.36076
11
6.58716
21
-4.37478
0
LINE
8
BLACK
6
CONTINUOUS
10
6.58716
20
-4.37478
11
6.58443
21
-4.38858
0
LINE
8
BLACK
6
CONTINUOUS
10
6.58443
20
-4.38858
11
6.58017
21
-4.40198
0
LINE
8
BLACK
6
CONTINUOUS
10
6.58017
20
-4.40198
11
6.57445
21
-4.41483
0
LINE
8
BLACK
6
CONTINUOUS
10
6.57445
20
-4.41483
11
6.56734
21
-4.42696
0
LINE
8
BLACK
6
CONTINUOUS
10
6.56734
20
-4.42696
11
6.55891
21
-4.43823
0
LINE
8
BLACK
6
CONTINUOUS
10
6.55891
20
-4.43823
11
6.54928
21
-4.44848
0
LINE
8
BLACK
6
CONTINUOUS
10
6.54928
20
-4.44848
11
6.53857
21
-4.45759
0
LINE
8
BLACK
6
CONTINUOUS
10
6.53857
20
-4.45759
11
6.52691
21
-4.46546
0
LINE
8
BLACK
6
CONTINUOUS
10
6.52691
20
-4.46546
11
6.51445
21
-4.47198
0
LINE
8
BLACK
6
CONTINUOUS
10
6.51445
20
-4.47198
11
6.50133
21
-4.47706
0
LINE
8
BLACK
6
CONTINUOUS
10
6.50133
20
-4.47706
11
6.48773
21
-4.48066
0
LINE
8
BLACK
6
CONTINUOUS
10
6.48773
20
-4.48066
11
6.47382
21
-4.48271
0
LINE
8
BLACK
6
CONTINUOUS
10
6.47382
20
-4.48271
11
6.45976
21
-4.4832
0
LINE
8
BLACK
6
CONTINUOUS
10
6.45976
20
-4.4832
11
6.44574
21
-4.48212
0
LINE
8
BLACK
6
CONTINUOUS
10
6.44574
20
-4.48212
11
6.43192
21
-4.47949
0
LINE
8
BLACK
6
CONTINUOUS
10
6.43192
20
-4.47949
11
6.41849
21
-4.47533
0
LINE
8
BLACK
6
CONTINUOUS
10
6.41849
20
-4.47533
11
6.4056
21
-4.4697
0
LINE
8
BLACK
6
CONTINUOUS
10
6.4056
20
-4.4697
11
6.39342
21
-4.46266
0
LINE
8
BLACK
6
CONTINUOUS
10
6.39342
20
-4.46266
11
6.3821
21
-4.45432
0
LINE
8
BLACK
6
CONTINUOUS
10
6.3821
20
-4.45432
11
6.37178
21
-4.44476
0
LINE
8
BLACK
6
CONTINUOUS
10
6.37178
20
-4.44476
11
6.36259
21
-4.43411
0
LINE
8
BLACK
6
CONTINUOUS
10
6.36259
20
-4.43411
11
6.35464
21
-4.42251
0
LINE
8
BLACK
6
CONTINUOUS
10
6.35464
20
-4.42251
11
6.34804
21
-4.41009
0
LINE
8
BLACK
6
CONTINUOUS
10
6.34804
20
-4.41009
11
6.34286
21
-4.39701
0
LINE
8
BLACK
6
CONTINUOUS
10
6.34286
20
-4.39701
11
6.33917
21
-4.38344
0
LINE
8
BLACK
6
CONTINUOUS
10
6.33917
20
-4.38344
11
6.33702
21
-4.36954
0
LINE
8
BLACK
6
CONTINUOUS
10
6.33702
20
-4.36954
11
6.33643
21
-4.35549
0
LINE
8
BLACK
6
CONTINUOUS
10
6.33643
20
-4.35549
11
6.33741
21
-4.34145
0
LINE
8
BLACK
6
CONTINUOUS
10
6.33741
20
-4.34145
11
6.33995
21
-4.32762
0
LINE
8
BLACK
6
CONTINUOUS
10
6.33995
20
-4.32762
11
6.34402
21
-4.31415
0
LINE
8
BLACK
6
CONTINUOUS
10
6.34402
20
-4.31415
11
6.34956
21
-4.30123
0
LINE
8
BLACK
6
CONTINUOUS
10
6.34956
20
-4.30123
11
6.3565
21
-4.289
0
LINE
8
BLACK
6
CONTINUOUS
10
6.3565
20
-4.289
11
6.36477
21
-4.27762
0
LINE
8
BLACK
6
CONTINUOUS
10
6.36477
20
-4.27762
11
6.37425
21
-4.26723
0
LINE
8
BLACK
6
CONTINUOUS
10
6.37425
20
-4.26723
11
6.38484
21
-4.25797
0
LINE
8
BLACK
6
CONTINUOUS
10
6.38484
20
-4.25797
11
6.39639
21
-4.24994
0
LINE
8
BLACK
6
CONTINUOUS
10
6.39639
20
-4.24994
11
6.40876
21
-4.24325
0
LINE
8
BLACK
6
CONTINUOUS
10
6.40876
20
-4.24325
11
6.4218
21
-4.23798
0
LINE
8
BLACK
6
CONTINUOUS
10
6.4218
20
-4.23798
11
6.43535
21
-4.2342
0
LINE
8
BLACK
6
CONTINUOUS
10
6.43535
20
-4.2342
11
6.44923
21
-4.23195
0
LINE
8
BLACK
6
CONTINUOUS
10
6.44923
20
-4.23195
11
6.46328
21
-4.23126
0
LINE
8
BLACK
6
CONTINUOUS
10
6.46328
20
-4.23126
11
6.47732
21
-4.23215
0
LINE
8
BLACK
6
CONTINUOUS
10
6.29541
20
-4.36997
11
6.29797
21
-4.37168
0
LINE
8
BLACK
6
CONTINUOUS
10
6.29797
20
-4.37168
11
6.29968
21
-4.37423
0
LINE
8
BLACK
6
CONTINUOUS
10
6.29968
20
-4.37423
11
6.30028
21
-4.37724
0
LINE
8
BLACK
6
CONTINUOUS
10
6.30028
20
-4.37724
11
6.30028
21
-4.43724
0
LINE
8
BLACK
6
CONTINUOUS
10
6.30028
20
-4.43724
11
6.29968
21
-4.44026
0
LINE
8
BLACK
6
CONTINUOUS
10
6.29968
20
-4.44026
11
6.29797
21
-4.44281
0
LINE
8
BLACK
6
CONTINUOUS
10
6.29797
20
-4.44281
11
6.29541
21
-4.44452
0
LINE
8
BLACK
6
CONTINUOUS
10
6.29541
20
-4.44452
11
6.2924
21
-4.44512
0
LINE
8
BLACK
6
CONTINUOUS
10
6.2924
20
-4.44512
11
6.2324
21
-4.44512
0
LINE
8
BLACK
6
CONTINUOUS
10
6.2324
20
-4.44512
11
6.22939
21
-4.44452
0
LINE
8
BLACK
6
CONTINUOUS
10
6.22939
20
-4.44452
11
6.22683
21
-4.44281
0
LINE
8
BLACK
6
CONTINUOUS
10
6.22683
20
-4.44281
11
6.22513
21
-4.44026
0
LINE
8
BLACK
6
CONTINUOUS
10
6.22513
20
-4.44026
11
6.22453
21
-4.43724
0
LINE
8
BLACK
6
CONTINUOUS
10
6.22453
20
-4.43724
11
6.22453
21
-4.37724
0
LINE
8
BLACK
6
CONTINUOUS
10
6.22453
20
-4.37724
11
6.22513
21
-4.37423
0
LINE
8
BLACK
6
CONTINUOUS
10
6.22513
20
-4.37423
11
6.22683
21
-4.37168
0
LINE
8
BLACK
6
CONTINUOUS
10
6.22683
20
-4.37168
11
6.22939
21
-4.36997
0
LINE
8
BLACK
6
CONTINUOUS
10
6.22939
20
-4.36997
11
6.2324
21
-4.36937
0
LINE
8
BLACK
6
CONTINUOUS
10
6.2324
20
-4.36937
11
6.2924
21
-4.36937
0
LINE
8
BLACK
6
CONTINUOUS
10
6.2924
20
-4.36937
11
6.29541
21
-4.36997
0
LINE
8
BLACK
6
CONTINUOUS
10
6.19541
20
-4.36997
11
6.19797
21
-4.37168
0
LINE
8
BLACK
6
CONTINUOUS
10
6.19797
20
-4.37168
11
6.19968
21
-4.37423
0
LINE
8
BLACK
6
CONTINUOUS
10
6.19968
20
-4.37423
11
6.20028
21
-4.37724
0
LINE
8
BLACK
6
CONTINUOUS
10
6.20028
20
-4.37724
11
6.20028
21
-4.43724
0
LINE
8
BLACK
6
CONTINUOUS
10
6.20028
20
-4.43724
11
6.19968
21
-4.44026
0
LINE
8
BLACK
6
CONTINUOUS
10
6.19968
20
-4.44026
11
6.19797
21
-4.44281
0
LINE
8
BLACK
6
CONTINUOUS
10
6.19797
20
-4.44281
11
6.19541
21
-4.44452
0
LINE
8
BLACK
6
CONTINUOUS
10
6.19541
20
-4.44452
11
6.1924
21
-4.44512
0
LINE
8
BLACK
6
CONTINUOUS
10
6.1924
20
-4.44512
11
6.1324
21
-4.44512
0
LINE
8
BLACK
6
CONTINUOUS
10
6.1324
20
-4.44512
11
6.12939
21
-4.44452
0
LINE
8
BLACK
6
CONTINUOUS
10
6.12939
20
-4.44452
11
6.12683
21
-4.44281
0
LINE
8
BLACK
6
CONTINUOUS
10
6.12683
20
-4.44281
11
6.12513
21
-4.44026
0
LINE
8
BLACK
6
CONTINUOUS
10
6.12513
20
-4.44026
11
6.12453
21
-4.43724
0
LINE
8
BLACK
6
CONTINUOUS
10
6.12453
20
-4.43724
11
6.12453
21
-4.37724
0
LINE
8
BLACK
6
CONTINUOUS
10
6.12453
20
-4.37724
11
6.12513
21
-4.37423
0
LINE
8
BLACK
6
CONTINUOUS
10
6.12513
20
-4.37423
11
6.12683
21
-4.37168
0
LINE
8
BLACK
6
CONTINUOUS
10
6.12683
20
-4.37168
11
6.12939
21
-4.36997
0
LINE
8
BLACK
6
CONTINUOUS
10
6.12939
20
-4.36997
11
6.1324
21
-4.36937
0
LINE
8
BLACK
6
CONTINUOUS
10
6.1324
20
-4.36937
11
6.1924
21
-4.36937
0
LINE
8
BLACK
6
CONTINUOUS
10
6.1924
20
-4.36937
11
6.19541
21
-4.36997
0
LINE
8
BLACK
6
CONTINUOUS
10
6.09541
20
-4.36997
11
6.09797
21
-4.37168
0
LINE
8
BLACK
6
CONTINUOUS
10
6.09797
20
-4.37168
11
6.09968
21
-4.37423
0
LINE
8
BLACK
6
CONTINUOUS
10
6.09968
20
-4.37423
11
6.10028
21
-4.37724
0
LINE
8
BLACK
6
CONTINUOUS
10
6.10028
20
-4.37724
11
6.10028
21
-4.43724
0
LINE
8
BLACK
6
CONTINUOUS
10
6.10028
20
-4.43724
11
6.09968
21
-4.44026
0
LINE
8
BLACK
6
CONTINUOUS
10
6.09968
20
-4.44026
11
6.09797
21
-4.44281
0
LINE
8
BLACK
6
CONTINUOUS
10
6.09797
20
-4.44281
11
6.09541
21
-4.44452
0
LINE
8
BLACK
6
CONTINUOUS
10
6.09541
20
-4.44452
11
6.0924
21
-4.44512
0
LINE
8
BLACK
6
CONTINUOUS
10
6.0924
20
-4.44512
11
6.0324
21
-4.44512
0
LINE
8
BLACK
6
CONTINUOUS
10
6.0324
20
-4.44512
11
6.02939
21
-4.44452
0
LINE
8
BLACK
6
CONTINUOUS
10
6.02939
20
-4.44452
11
6.02683
21
-4.44281
0
LINE
8
BLACK
6
CONTINUOUS
10
6.02683
20
-4.44281
11
6.02513
21
-4.44026
0
LINE
8
BLACK
6
CONTINUOUS
10
6.02513
20
-4.44026
11
6.02453
21
-4.43724
0
LINE
8
BLACK
6
CONTINUOUS
10
6.02453
20
-4.43724
11
6.02453
21
-4.37724
0
LINE
8
BLACK
6
CONTINUOUS
10
6.02453
20
-4.37724
11
6.02513
21
-4.37423
0
LINE
8
BLACK
6
CONTINUOUS
10
6.02513
20
-4.37423
11
6.02683
21
-4.37168
0
LINE
8
BLACK
6
CONTINUOUS
10
6.02683
20
-4.37168
11
6.02939
21
-4.36997
0
LINE
8
BLACK
6
CONTINUOUS
10
6.02939
20
-4.36997
11
6.0324
21
-4.36937
0
LINE
8
BLACK
6
CONTINUOUS
10
6.0324
20
-4.36937
11
6.0924
21
-4.36937
0
LINE
8
BLACK
6
CONTINUOUS
10
6.0924
20
-4.36937
11
6.09541
21
-4.36997
0
LINE
8
BLACK
6
CONTINUOUS
10
5.74541
20
-4.36997
11
5.74797
21
-4.37168
0
LINE
8
BLACK
6
CONTINUOUS
10
5.74797
20
-4.37168
11
5.74968
21
-4.37423
0
LINE
8
BLACK
6
CONTINUOUS
10
5.74968
20
-4.37423
11
5.75028
21
-4.37724
0
LINE
8
BLACK
6
CONTINUOUS
10
5.75028
20
-4.37724
11
5.75028
21
-4.43724
0
LINE
8
BLACK
6
CONTINUOUS
10
5.75028
20
-4.43724
11
5.74968
21
-4.44026
0
LINE
8
BLACK
6
CONTINUOUS
10
5.74968
20
-4.44026
11
5.74797
21
-4.44281
0
LINE
8
BLACK
6
CONTINUOUS
10
5.74797
20
-4.44281
11
5.74541
21
-4.44452
0
LINE
8
BLACK
6
CONTINUOUS
10
5.74541
20
-4.44452
11
5.7424
21
-4.44512
0
LINE
8
BLACK
6
CONTINUOUS
10
5.7424
20
-4.44512
11
5.6824
21
-4.44512
0
LINE
8
BLACK
6
CONTINUOUS
10
5.6824
20
-4.44512
11
5.67939
21
-4.44452
0
LINE
8
BLACK
6
CONTINUOUS
10
5.67939
20
-4.44452
11
5.67683
21
-4.44281
0
LINE
8
BLACK
6
CONTINUOUS
10
5.67683
20
-4.44281
11
5.67513
21
-4.44026
0
LINE
8
BLACK
6
CONTINUOUS
10
5.67513
20
-4.44026
11
5.67453
21
-4.43724
0
LINE
8
BLACK
6
CONTINUOUS
10
5.67453
20
-4.43724
11
5.67453
21
-4.37724
0
LINE
8
BLACK
6
CONTINUOUS
10
5.67453
20
-4.37724
11
5.67513
21
-4.37423
0
LINE
8
BLACK
6
CONTINUOUS
10
5.67513
20
-4.37423
11
5.67683
21
-4.37168
0
LINE
8
BLACK
6
CONTINUOUS
10
5.67683
20
-4.37168
11
5.67939
21
-4.36997
0
LINE
8
BLACK
6
CONTINUOUS
10
5.67939
20
-4.36997
11
5.6824
21
-4.36937
0
LINE
8
BLACK
6
CONTINUOUS
10
5.6824
20
-4.36937
11
5.7424
21
-4.36937
0
LINE
8
BLACK
6
CONTINUOUS
10
5.7424
20
-4.36937
11
5.74541
21
-4.36997
0
LINE
8
BLACK
6
CONTINUOUS
10
5.84541
20
-4.36997
11
5.84797
21
-4.37168
0
LINE
8
BLACK
6
CONTINUOUS
10
5.84797
20
-4.37168
11
5.84968
21
-4.37423
0
LINE
8
BLACK
6
CONTINUOUS
10
5.84968
20
-4.37423
11
5.85028
21
-4.37724
0
LINE
8
BLACK
6
CONTINUOUS
10
5.85028
20
-4.37724
11
5.85028
21
-4.43724
0
LINE
8
BLACK
6
CONTINUOUS
10
5.85028
20
-4.43724
11
5.84968
21
-4.44026
0
LINE
8
BLACK
6
CONTINUOUS
10
5.84968
20
-4.44026
11
5.84797
21
-4.44281
0
LINE
8
BLACK
6
CONTINUOUS
10
5.84797
20
-4.44281
11
5.84541
21
-4.44452
0
LINE
8
BLACK
6
CONTINUOUS
10
5.84541
20
-4.44452
11
5.8424
21
-4.44512
0
LINE
8
BLACK
6
CONTINUOUS
10
5.8424
20
-4.44512
11
5.7824
21
-4.44512
0
LINE
8
BLACK
6
CONTINUOUS
10
5.7824
20
-4.44512
11
5.77939
21
-4.44452
0
LINE
8
BLACK
6
CONTINUOUS
10
5.77939
20
-4.44452
11
5.77683
21
-4.44281
0
LINE
8
BLACK
6
CONTINUOUS
10
5.77683
20
-4.44281
11
5.77513
21
-4.44026
0
LINE
8
BLACK
6
CONTINUOUS
10
5.77513
20
-4.44026
11
5.77453
21
-4.43724
0
LINE
8
BLACK
6
CONTINUOUS
10
5.77453
20
-4.43724
11
5.77453
21
-4.37724
0
LINE
8
BLACK
6
CONTINUOUS
10
5.77453
20
-4.37724
11
5.77513
21
-4.37423
0
LINE
8
BLACK
6
CONTINUOUS
10
5.77513
20
-4.37423
11
5.77683
21
-4.37168
0
LINE
8
BLACK
6
CONTINUOUS
10
5.77683
20
-4.37168
11
5.77939
21
-4.36997
0
LINE
8
BLACK
6
CONTINUOUS
10
5.77939
20
-4.36997
11
5.7824
21
-4.36937
0
LINE
8
BLACK
6
CONTINUOUS
10
5.7824
20
-4.36937
11
5.8424
21
-4.36937
0
LINE
8
BLACK
6
CONTINUOUS
10
5.8424
20
-4.36937
11
5.84541
21
-4.36997
0
LINE
8
BLACK
6
CONTINUOUS
10
5.94541
20
-4.36997
11
5.94797
21
-4.37168
0
LINE
8
BLACK
6
CONTINUOUS
10
5.94797
20
-4.37168
11
5.94968
21
-4.37423
0
LINE
8
BLACK
6
CONTINUOUS
10
5.94968
20
-4.37423
11
5.95028
21
-4.37724
0
LINE
8
BLACK
6
CONTINUOUS
10
5.95028
20
-4.37724
11
5.95028
21
-4.43724
0
LINE
8
BLACK
6
CONTINUOUS
10
5.95028
20
-4.43724
11
5.94968
21
-4.44026
0
LINE
8
BLACK
6
CONTINUOUS
10
5.94968
20
-4.44026
11
5.94797
21
-4.44281
0
LINE
8
BLACK
6
CONTINUOUS
10
5.94797
20
-4.44281
11
5.94541
21
-4.44452
0
LINE
8
BLACK
6
CONTINUOUS
10
5.94541
20
-4.44452
11
5.9424
21
-4.44512
0
LINE
8
BLACK
6
CONTINUOUS
10
5.9424
20
-4.44512
11
5.8824
21
-4.44512
0
LINE
8
BLACK
6
CONTINUOUS
10
5.8824
20
-4.44512
11
5.87939
21
-4.44452
0
LINE
8
BLACK
6
CONTINUOUS
10
5.87939
20
-4.44452
11
5.87683
21
-4.44281
0
LINE
8
BLACK
6
CONTINUOUS
10
5.87683
20
-4.44281
11
5.87513
21
-4.44026
0
LINE
8
BLACK
6
CONTINUOUS
10
5.87513
20
-4.44026
11
5.87453
21
-4.43724
0
LINE
8
BLACK
6
CONTINUOUS
10
5.87453
20
-4.43724
11
5.87453
21
-4.37724
0
LINE
8
BLACK
6
CONTINUOUS
10
5.87453
20
-4.37724
11
5.87513
21
-4.37423
0
LINE
8
BLACK
6
CONTINUOUS
10
5.87513
20
-4.37423
11
5.87683
21
-4.37168
0
LINE
8
BLACK
6
CONTINUOUS
10
5.87683
20
-4.37168
11
5.87939
21
-4.36997
0
LINE
8
BLACK
6
CONTINUOUS
10
5.87939
20
-4.36997
11
5.8824
21
-4.36937
0
LINE
8
BLACK
6
CONTINUOUS
10
5.8824
20
-4.36937
11
5.9424
21
-4.36937
0
LINE
8
BLACK
6
CONTINUOUS
10
5.9424
20
-4.36937
11
5.94541
21
-4.36997
0
LINE
8
BLACK
6
CONTINUOUS
10
5.52163
20
-4.3049
11
5.53058
21
-4.3073
0
LINE
8
BLACK
6
CONTINUOUS
10
5.53058
20
-4.3073
11
5.53898
21
-4.31122
0
LINE
8
BLACK
6
CONTINUOUS
10
5.53898
20
-4.31122
11
5.54657
21
-4.31653
0
LINE
8
BLACK
6
CONTINUOUS
10
5.54657
20
-4.31653
11
5.55312
21
-4.32308
0
LINE
8
BLACK
6
CONTINUOUS
10
5.55312
20
-4.32308
11
5.55843
21
-4.33067
0
LINE
8
BLACK
6
CONTINUOUS
10
5.55843
20
-4.33067
11
5.56235
21
-4.33907
0
LINE
8
BLACK
6
CONTINUOUS
10
5.56235
20
-4.33907
11
5.56474
21
-4.34801
0
LINE
8
BLACK
6
CONTINUOUS
10
5.56474
20
-4.34801
11
5.56555
21
-4.35724
0
LINE
8
BLACK
6
CONTINUOUS
10
5.56555
20
-4.35724
11
5.56474
21
-4.36647
0
LINE
8
BLACK
6
CONTINUOUS
10
5.56474
20
-4.36647
11
5.56235
21
-4.37542
0
LINE
8
BLACK
6
CONTINUOUS
10
5.56235
20
-4.37542
11
5.55843
21
-4.38382
0
LINE
8
BLACK
6
CONTINUOUS
10
5.55843
20
-4.38382
11
5.55312
21
-4.39141
0
LINE
8
BLACK
6
CONTINUOUS
10
5.55312
20
-4.39141
11
5.54657
21
-4.39796
0
LINE
8
BLACK
6
CONTINUOUS
10
5.54657
20
-4.39796
11
5.53898
21
-4.40327
0
LINE
8
BLACK
6
CONTINUOUS
10
5.53898
20
-4.40327
11
5.53058
21
-4.40719
0
LINE
8
BLACK
6
CONTINUOUS
10
5.53058
20
-4.40719
11
5.52163
21
-4.40959
0
LINE
8
BLACK
6
CONTINUOUS
10
5.52163
20
-4.40959
11
5.5124
21
-4.41039
0
LINE
8
BLACK
6
CONTINUOUS
10
5.5124
20
-4.41039
11
5.50317
21
-4.40959
0
LINE
8
BLACK
6
CONTINUOUS
10
5.50317
20
-4.40959
11
5.49422
21
-4.40719
0
LINE
8
BLACK
6
CONTINUOUS
10
5.49422
20
-4.40719
11
5.48583
21
-4.40327
0
LINE
8
BLACK
6
CONTINUOUS
10
5.48583
20
-4.40327
11
5.47824
21
-4.39796
0
LINE
8
BLACK
6
CONTINUOUS
10
5.47824
20
-4.39796
11
5.47169
21
-4.39141
0
LINE
8
BLACK
6
CONTINUOUS
10
5.47169
20
-4.39141
11
5.46637
21
-4.38382
0
LINE
8
BLACK
6
CONTINUOUS
10
5.46637
20
-4.38382
11
5.46246
21
-4.37542
0
LINE
8
BLACK
6
CONTINUOUS
10
5.46246
20
-4.37542
11
5.46006
21
-4.36647
0
LINE
8
BLACK
6
CONTINUOUS
10
5.46006
20
-4.36647
11
5.45925
21
-4.35724
0
LINE
8
BLACK
6
CONTINUOUS
10
5.45925
20
-4.35724
11
5.46006
21
-4.34801
0
LINE
8
BLACK
6
CONTINUOUS
10
5.46006
20
-4.34801
11
5.46246
21
-4.33907
0
LINE
8
BLACK
6
CONTINUOUS
10
5.46246
20
-4.33907
11
5.46637
21
-4.33067
0
LINE
8
BLACK
6
CONTINUOUS
10
5.46637
20
-4.33067
11
5.47169
21
-4.32308
0
LINE
8
BLACK
6
CONTINUOUS
10
5.47169
20
-4.32308
11
5.47824
21
-4.31653
0
LINE
8
BLACK
6
CONTINUOUS
10
5.47824
20
-4.31653
11
5.48583
21
-4.31122
0
LINE
8
BLACK
6
CONTINUOUS
10
5.48583
20
-4.31122
11
5.49422
21
-4.3073
0
LINE
8
BLACK
6
CONTINUOUS
10
5.49422
20
-4.3073
11
5.50317
21
-4.3049
0
LINE
8
BLACK
6
CONTINUOUS
10
5.50317
20
-4.3049
11
5.5124
21
-4.30409
0
LINE
8
BLACK
6
CONTINUOUS
10
5.5124
20
-4.30409
11
5.52163
21
-4.3049
0
LINE
8
BLACK
6
CONTINUOUS
10
5.84541
20
-4.26997
11
5.84797
21
-4.27168
0
LINE
8
BLACK
6
CONTINUOUS
10
5.84797
20
-4.27168
11
5.84968
21
-4.27423
0
LINE
8
BLACK
6
CONTINUOUS
10
5.84968
20
-4.27423
11
5.85028
21
-4.27724
0
LINE
8
BLACK
6
CONTINUOUS
10
5.85028
20
-4.27724
11
5.85028
21
-4.33724
0
LINE
8
BLACK
6
CONTINUOUS
10
5.85028
20
-4.33724
11
5.84968
21
-4.34026
0
LINE
8
BLACK
6
CONTINUOUS
10
5.84968
20
-4.34026
11
5.84797
21
-4.34281
0
LINE
8
BLACK
6
CONTINUOUS
10
5.84797
20
-4.34281
11
5.84541
21
-4.34452
0
LINE
8
BLACK
6
CONTINUOUS
10
5.84541
20
-4.34452
11
5.8424
21
-4.34512
0
LINE
8
BLACK
6
CONTINUOUS
10
5.8424
20
-4.34512
11
5.7824
21
-4.34512
0
LINE
8
BLACK
6
CONTINUOUS
10
5.7824
20
-4.34512
11
5.77939
21
-4.34452
0
LINE
8
BLACK
6
CONTINUOUS
10
5.77939
20
-4.34452
11
5.77683
21
-4.34281
0
LINE
8
BLACK
6
CONTINUOUS
10
5.77683
20
-4.34281
11
5.77513
21
-4.34026
0
LINE
8
BLACK
6
CONTINUOUS
10
5.77513
20
-4.34026
11
5.77453
21
-4.33724
0
LINE
8
BLACK
6
CONTINUOUS
10
5.77453
20
-4.33724
11
5.77453
21
-4.27724
0
LINE
8
BLACK
6
CONTINUOUS
10
5.77453
20
-4.27724
11
5.77513
21
-4.27423
0
LINE
8
BLACK
6
CONTINUOUS
10
5.77513
20
-4.27423
11
5.77683
21
-4.27168
0
LINE
8
BLACK
6
CONTINUOUS
10
5.77683
20
-4.27168
11
5.77939
21
-4.26997
0
LINE
8
BLACK
6
CONTINUOUS
10
5.77939
20
-4.26997
11
5.7824
21
-4.26937
0
LINE
8
BLACK
6
CONTINUOUS
10
5.7824
20
-4.26937
11
5.8424
21
-4.26937
0
LINE
8
BLACK
6
CONTINUOUS
10
5.8424
20
-4.26937
11
5.84541
21
-4.26997
0
LINE
8
BLACK
6
CONTINUOUS
10
5.74541
20
-4.26997
11
5.74797
21
-4.27168
0
LINE
8
BLACK
6
CONTINUOUS
10
5.74797
20
-4.27168
11
5.74968
21
-4.27423
0
LINE
8
BLACK
6
CONTINUOUS
10
5.74968
20
-4.27423
11
5.75028
21
-4.27724
0
LINE
8
BLACK
6
CONTINUOUS
10
5.75028
20
-4.27724
11
5.75028
21
-4.33724
0
LINE
8
BLACK
6
CONTINUOUS
10
5.75028
20
-4.33724
11
5.74968
21
-4.34026
0
LINE
8
BLACK
6
CONTINUOUS
10
5.74968
20
-4.34026
11
5.74797
21
-4.34281
0
LINE
8
BLACK
6
CONTINUOUS
10
5.74797
20
-4.34281
11
5.74541
21
-4.34452
0
LINE
8
BLACK
6
CONTINUOUS
10
5.74541
20
-4.34452
11
5.7424
21
-4.34512
0
LINE
8
BLACK
6
CONTINUOUS
10
5.7424
20
-4.34512
11
5.6824
21
-4.34512
0
LINE
8
BLACK
6
CONTINUOUS
10
5.6824
20
-4.34512
11
5.67939
21
-4.34452
0
LINE
8
BLACK
6
CONTINUOUS
10
5.67939
20
-4.34452
11
5.67683
21
-4.34281
0
LINE
8
BLACK
6
CONTINUOUS
10
5.67683
20
-4.34281
11
5.67513
21
-4.34026
0
LINE
8
BLACK
6
CONTINUOUS
10
5.67513
20
-4.34026
11
5.67453
21
-4.33724
0
LINE
8
BLACK
6
CONTINUOUS
10
5.67453
20
-4.33724
11
5.67453
21
-4.27724
0
LINE
8
BLACK
6
CONTINUOUS
10
5.67453
20
-4.27724
11
5.67513
21
-4.27423
0
LINE
8
BLACK
6
CONTINUOUS
10
5.67513
20
-4.27423
11
5.67683
21
-4.27168
0
LINE
8
BLACK
6
CONTINUOUS
10
5.67683
20
-4.27168
11
5.67939
21
-4.26997
0
LINE
8
BLACK
6
CONTINUOUS
10
5.67939
20
-4.26997
11
5.6824
21
-4.26937
0
LINE
8
BLACK
6
CONTINUOUS
10
5.6824
20
-4.26937
11
5.7424
21
-4.26937
0
LINE
8
BLACK
6
CONTINUOUS
10
5.7424
20
-4.26937
11
5.74541
21
-4.26997
0
LINE
8
BLACK
6
CONTINUOUS
10
6.29541
20
-4.26997
11
6.29797
21
-4.27168
0
LINE
8
BLACK
6
CONTINUOUS
10
6.29797
20
-4.27168
11
6.29968
21
-4.27423
0
LINE
8
BLACK
6
CONTINUOUS
10
6.29968
20
-4.27423
11
6.30028
21
-4.27724
0
LINE
8
BLACK
6
CONTINUOUS
10
6.30028
20
-4.27724
11
6.30028
21
-4.33724
0
LINE
8
BLACK
6
CONTINUOUS
10
6.30028
20
-4.33724
11
6.29968
21
-4.34026
0
LINE
8
BLACK
6
CONTINUOUS
10
6.29968
20
-4.34026
11
6.29797
21
-4.34281
0
LINE
8
BLACK
6
CONTINUOUS
10
6.29797
20
-4.34281
11
6.29541
21
-4.34452
0
LINE
8
BLACK
6
CONTINUOUS
10
6.29541
20
-4.34452
11
6.2924
21
-4.34512
0
LINE
8
BLACK
6
CONTINUOUS
10
6.2924
20
-4.34512
11
6.2324
21
-4.34512
0
LINE
8
BLACK
6
CONTINUOUS
10
6.2324
20
-4.34512
11
6.22939
21
-4.34452
0
LINE
8
BLACK
6
CONTINUOUS
10
6.22939
20
-4.34452
11
6.22683
21
-4.34281
0
LINE
8
BLACK
6
CONTINUOUS
10
6.22683
20
-4.34281
11
6.22513
21
-4.34026
0
LINE
8
BLACK
6
CONTINUOUS
10
6.22513
20
-4.34026
11
6.22453
21
-4.33724
0
LINE
8
BLACK
6
CONTINUOUS
10
6.22453
20
-4.33724
11
6.22453
21
-4.27724
0
LINE
8
BLACK
6
CONTINUOUS
10
6.22453
20
-4.27724
11
6.22513
21
-4.27423
0
LINE
8
BLACK
6
CONTINUOUS
10
6.22513
20
-4.27423
11
6.22683
21
-4.27168
0
LINE
8
BLACK
6
CONTINUOUS
10
6.22683
20
-4.27168
11
6.22939
21
-4.26997
0
LINE
8
BLACK
6
CONTINUOUS
10
6.22939
20
-4.26997
11
6.2324
21
-4.26937
0
LINE
8
BLACK
6
CONTINUOUS
10
6.2324
20
-4.26937
11
6.2924
21
-4.26937
0
LINE
8
BLACK
6
CONTINUOUS
10
6.2924
20
-4.26937
11
6.29541
21
-4.26997
0
LINE
8
BLACK
6
CONTINUOUS
10
5.94541
20
-4.26997
11
5.94797
21
-4.27168
0
LINE
8
BLACK
6
CONTINUOUS
10
5.94797
20
-4.27168
11
5.94968
21
-4.27423
0
LINE
8
BLACK
6
CONTINUOUS
10
5.94968
20
-4.27423
11
5.95028
21
-4.27724
0
LINE
8
BLACK
6
CONTINUOUS
10
5.95028
20
-4.27724
11
5.95028
21
-4.33724
0
LINE
8
BLACK
6
CONTINUOUS
10
5.95028
20
-4.33724
11
5.94968
21
-4.34026
0
LINE
8
BLACK
6
CONTINUOUS
10
5.94968
20
-4.34026
11
5.94797
21
-4.34281
0
LINE
8
BLACK
6
CONTINUOUS
10
5.94797
20
-4.34281
11
5.94541
21
-4.34452
0
LINE
8
BLACK
6
CONTINUOUS
10
5.94541
20
-4.34452
11
5.9424
21
-4.34512
0
LINE
8
BLACK
6
CONTINUOUS
10
5.9424
20
-4.34512
11
5.8824
21
-4.34512
0
LINE
8
BLACK
6
CONTINUOUS
10
5.8824
20
-4.34512
11
5.87939
21
-4.34452
0
LINE
8
BLACK
6
CONTINUOUS
10
5.87939
20
-4.34452
11
5.87683
21
-4.34281
0
LINE
8
BLACK
6
CONTINUOUS
10
5.87683
20
-4.34281
11
5.87513
21
-4.34026
0
LINE
8
BLACK
6
CONTINUOUS
10
5.87513
20
-4.34026
11
5.87453
21
-4.33724
0
LINE
8
BLACK
6
CONTINUOUS
10
5.87453
20
-4.33724
11
5.87453
21
-4.27724
0
LINE
8
BLACK
6
CONTINUOUS
10
5.87453
20
-4.27724
11
5.87513
21
-4.27423
0
LINE
8
BLACK
6
CONTINUOUS
10
5.87513
20
-4.27423
11
5.87683
21
-4.27168
0
LINE
8
BLACK
6
CONTINUOUS
10
5.87683
20
-4.27168
11
5.87939
21
-4.26997
0
LINE
8
BLACK
6
CONTINUOUS
10
5.87939
20
-4.26997
11
5.8824
21
-4.26937
0
LINE
8
BLACK
6
CONTINUOUS
10
5.8824
20
-4.26937
11
5.9424
21
-4.26937
0
LINE
8
BLACK
6
CONTINUOUS
10
5.9424
20
-4.26937
11
5.94541
21
-4.26997
0
LINE
8
BLACK
6
CONTINUOUS
10
6.09541
20
-4.26997
11
6.09797
21
-4.27168
0
LINE
8
BLACK
6
CONTINUOUS
10
6.09797
20
-4.27168
11
6.09968
21
-4.27423
0
LINE
8
BLACK
6
CONTINUOUS
10
6.09968
20
-4.27423
11
6.10028
21
-4.27724
0
LINE
8
BLACK
6
CONTINUOUS
10
6.10028
20
-4.27724
11
6.10028
21
-4.33724
0
LINE
8
BLACK
6
CONTINUOUS
10
6.10028
20
-4.33724
11
6.09968
21
-4.34026
0
LINE
8
BLACK
6
CONTINUOUS
10
6.09968
20
-4.34026
11
6.09797
21
-4.34281
0
LINE
8
BLACK
6
CONTINUOUS
10
6.09797
20
-4.34281
11
6.09541
21
-4.34452
0
LINE
8
BLACK
6
CONTINUOUS
10
6.09541
20
-4.34452
11
6.0924
21
-4.34512
0
LINE
8
BLACK
6
CONTINUOUS
10
6.0924
20
-4.34512
11
6.0324
21
-4.34512
0
LINE
8
BLACK
6
CONTINUOUS
10
6.0324
20
-4.34512
11
6.02939
21
-4.34452
0
LINE
8
BLACK
6
CONTINUOUS
10
6.02939
20
-4.34452
11
6.02683
21
-4.34281
0
LINE
8
BLACK
6
CONTINUOUS
10
6.02683
20
-4.34281
11
6.02513
21
-4.34026
0
LINE
8
BLACK
6
CONTINUOUS
10
6.02513
20
-4.34026
11
6.02453
21
-4.33724
0
LINE
8
BLACK
6
CONTINUOUS
10
6.02453
20
-4.33724
11
6.02453
21
-4.27724
0
LINE
8
BLACK
6
CONTINUOUS
10
6.02453
20
-4.27724
11
6.02513
21
-4.27423
0
LINE
8
BLACK
6
CONTINUOUS
10
6.02513
20
-4.27423
11
6.02683
21
-4.27168
0
LINE
8
BLACK
6
CONTINUOUS
10
6.02683
20
-4.27168
11
6.02939
21
-4.26997
0
LINE
8
BLACK
6
CONTINUOUS
10
6.02939
20
-4.26997
11
6.0324
21
-4.26937
0
LINE
8
BLACK
6
CONTINUOUS
10
6.0324
20
-4.26937
11
6.0924
21
-4.26937
0
LINE
8
BLACK
6
CONTINUOUS
10
6.0924
20
-4.26937
11
6.09541
21
-4.26997
0
LINE
8
BLACK
6
CONTINUOUS
10
6.19541
20
-4.26997
11
6.19797
21
-4.27168
0
LINE
8
BLACK
6
CONTINUOUS
10
6.19797
20
-4.27168
11
6.19968
21
-4.27423
0
LINE
8
BLACK
6
CONTINUOUS
10
6.19968
20
-4.27423
11
6.20028
21
-4.27724
0
LINE
8
BLACK
6
CONTINUOUS
10
6.20028
20
-4.27724
11
6.20028
21
-4.33724
0
LINE
8
BLACK
6
CONTINUOUS
10
6.20028
20
-4.33724
11
6.19968
21
-4.34026
0
LINE
8
BLACK
6
CONTINUOUS
10
6.19968
20
-4.34026
11
6.19797
21
-4.34281
0
LINE
8
BLACK
6
CONTINUOUS
10
6.19797
20
-4.34281
11
6.19541
21
-4.34452
0
LINE
8
BLACK
6
CONTINUOUS
10
6.19541
20
-4.34452
11
6.1924
21
-4.34512
0
LINE
8
BLACK
6
CONTINUOUS
10
6.1924
20
-4.34512
11
6.1324
21
-4.34512
0
LINE
8
BLACK
6
CONTINUOUS
10
6.1324
20
-4.34512
11
6.12939
21
-4.34452
0
LINE
8
BLACK
6
CONTINUOUS
10
6.12939
20
-4.34452
11
6.12683
21
-4.34281
0
LINE
8
BLACK
6
CONTINUOUS
10
6.12683
20
-4.34281
11
6.12513
21
-4.34026
0
LINE
8
BLACK
6
CONTINUOUS
10
6.12513
20
-4.34026
11
6.12453
21
-4.33724
0
LINE
8
BLACK
6
CONTINUOUS
10
6.12453
20
-4.33724
11
6.12453
21
-4.27724
0
LINE
8
BLACK
6
CONTINUOUS
10
6.12453
20
-4.27724
11
6.12513
21
-4.27423
0
LINE
8
BLACK
6
CONTINUOUS
10
6.12513
20
-4.27423
11
6.12683
21
-4.27168
0
LINE
8
BLACK
6
CONTINUOUS
10
6.12683
20
-4.27168
11
6.12939
21
-4.26997
0
LINE
8
BLACK
6
CONTINUOUS
10
6.12939
20
-4.26997
11
6.1324
21
-4.26937
0
LINE
8
BLACK
6
CONTINUOUS
10
6.1324
20
-4.26937
11
6.1924
21
-4.26937
0
LINE
8
BLACK
6
CONTINUOUS
10
6.1924
20
-4.26937
11
6.19541
21
-4.26997
0
LINE
8
BLACK
6
CONTINUOUS
10
5.49898
20
-4.12421
11
5.50954
21
-4.12666
0
LINE
8
BLACK
6
CONTINUOUS
10
5.50954
20
-4.12666
11
5.51966
21
-4.13057
0
LINE
8
BLACK
6
CONTINUOUS
10
5.51966
20
-4.13057
11
5.52912
21
-4.13587
0
LINE
8
BLACK
6
CONTINUOUS
10
5.52912
20
-4.13587
11
5.53774
21
-4.14245
0
LINE
8
BLACK
6
CONTINUOUS
10
5.53774
20
-4.14245
11
5.54535
21
-4.15018
0
LINE
8
BLACK
6
CONTINUOUS
10
5.54535
20
-4.15018
11
5.55179
21
-4.1589
0
LINE
8
BLACK
6
CONTINUOUS
10
5.55179
20
-4.1589
11
5.55694
21
-4.16845
0
LINE
8
BLACK
6
CONTINUOUS
10
5.55694
20
-4.16845
11
5.56069
21
-4.17862
0
LINE
8
BLACK
6
CONTINUOUS
10
5.56069
20
-4.17862
11
5.56297
21
-4.18922
0
LINE
8
BLACK
6
CONTINUOUS
10
5.56297
20
-4.18922
11
5.56374
21
-4.20004
0
LINE
8
BLACK
6
CONTINUOUS
10
5.56374
20
-4.20004
11
5.56359
21
-4.20486
0
LINE
8
BLACK
6
CONTINUOUS
10
5.56359
20
-4.20486
11
5.56215
21
-4.21561
0
LINE
8
BLACK
6
CONTINUOUS
10
5.56215
20
-4.21561
11
5.5592
21
-4.22604
0
LINE
8
BLACK
6
CONTINUOUS
10
5.5592
20
-4.22604
11
5.55482
21
-4.23596
0
LINE
8
BLACK
6
CONTINUOUS
10
5.55482
20
-4.23596
11
5.54908
21
-4.24516
0
LINE
8
BLACK
6
CONTINUOUS
10
5.54908
20
-4.24516
11
5.5421
21
-4.25347
0
LINE
8
BLACK
6
CONTINUOUS
10
5.5421
20
-4.25347
11
5.53402
21
-4.2607
0
LINE
8
BLACK
6
CONTINUOUS
10
5.53402
20
-4.2607
11
5.52501
21
-4.26673
0
LINE
8
BLACK
6
CONTINUOUS
10
5.52501
20
-4.26673
11
5.51523
21
-4.27142
0
LINE
8
BLACK
6
CONTINUOUS
10
5.51523
20
-4.27142
11
5.50489
21
-4.27469
0
LINE
8
BLACK
6
CONTINUOUS
10
5.50489
20
-4.27469
11
5.49419
21
-4.27647
0
LINE
8
BLACK
6
CONTINUOUS
10
5.49419
20
-4.27647
11
5.48335
21
-4.27673
0
LINE
8
BLACK
6
CONTINUOUS
10
5.48335
20
-4.27673
11
5.47258
21
-4.27545
0
LINE
8
BLACK
6
CONTINUOUS
10
5.47258
20
-4.27545
11
5.4621
21
-4.27267
0
LINE
8
BLACK
6
CONTINUOUS
10
5.4621
20
-4.27267
11
5.45211
21
-4.26844
0
LINE
8
BLACK
6
CONTINUOUS
10
5.45211
20
-4.26844
11
5.44282
21
-4.26285
0
LINE
8
BLACK
6
CONTINUOUS
10
5.44282
20
-4.26285
11
5.43441
21
-4.256
0
LINE
8
BLACK
6
CONTINUOUS
10
5.43441
20
-4.256
11
5.42705
21
-4.24804
0
LINE
8
BLACK
6
CONTINUOUS
10
5.42705
20
-4.24804
11
5.42089
21
-4.23912
0
LINE
8
BLACK
6
CONTINUOUS
10
5.42089
20
-4.23912
11
5.41604
21
-4.22942
0
LINE
8
BLACK
6
CONTINUOUS
10
5.41604
20
-4.22942
11
5.41261
21
-4.21913
0
LINE
8
BLACK
6
CONTINUOUS
10
5.41261
20
-4.21913
11
5.41066
21
-4.20846
0
LINE
8
BLACK
6
CONTINUOUS
10
5.41066
20
-4.20846
11
5.41023
21
-4.19763
0
LINE
8
BLACK
6
CONTINUOUS
10
5.41023
20
-4.19763
11
5.41134
21
-4.18684
0
LINE
8
BLACK
6
CONTINUOUS
10
5.41134
20
-4.18684
11
5.41395
21
-4.17632
0
LINE
8
BLACK
6
CONTINUOUS
10
5.41395
20
-4.17632
11
5.41803
21
-4.16626
0
LINE
8
BLACK
6
CONTINUOUS
10
5.41803
20
-4.16626
11
5.42347
21
-4.15689
0
LINE
8
BLACK
6
CONTINUOUS
10
5.42347
20
-4.15689
11
5.43019
21
-4.14837
0
LINE
8
BLACK
6
CONTINUOUS
10
5.43019
20
-4.14837
11
5.43803
21
-4.14089
0
LINE
8
BLACK
6
CONTINUOUS
10
5.43803
20
-4.14089
11
5.44686
21
-4.13458
0
LINE
8
BLACK
6
CONTINUOUS
10
5.44686
20
-4.13458
11
5.45648
21
-4.12958
0
LINE
8
BLACK
6
CONTINUOUS
10
5.45648
20
-4.12958
11
5.46671
21
-4.12599
0
LINE
8
BLACK
6
CONTINUOUS
10
5.46671
20
-4.12599
11
5.47735
21
-4.12387
0
LINE
8
BLACK
6
CONTINUOUS
10
5.47735
20
-4.12387
11
5.48817
21
-4.12328
0
LINE
8
BLACK
6
CONTINUOUS
10
5.48817
20
-4.12328
11
5.49898
21
-4.12421
0
LINE
8
BLACK
6
CONTINUOUS
10
6.44541
20
-4.11997
11
6.44797
21
-4.12168
0
LINE
8
BLACK
6
CONTINUOUS
10
6.44797
20
-4.12168
11
6.44968
21
-4.12423
0
LINE
8
BLACK
6
CONTINUOUS
10
6.44968
20
-4.12423
11
6.45028
21
-4.12724
0
LINE
8
BLACK
6
CONTINUOUS
10
6.45028
20
-4.12724
11
6.45028
21
-4.18724
0
LINE
8
BLACK
6
CONTINUOUS
10
6.45028
20
-4.18724
11
6.44968
21
-4.19026
0
LINE
8
BLACK
6
CONTINUOUS
10
6.44968
20
-4.19026
11
6.44797
21
-4.19281
0
LINE
8
BLACK
6
CONTINUOUS
10
6.44797
20
-4.19281
11
6.44541
21
-4.19452
0
LINE
8
BLACK
6
CONTINUOUS
10
6.44541
20
-4.19452
11
6.4424
21
-4.19512
0
LINE
8
BLACK
6
CONTINUOUS
10
6.4424
20
-4.19512
11
6.3824
21
-4.19512
0
LINE
8
BLACK
6
CONTINUOUS
10
6.3824
20
-4.19512
11
6.37939
21
-4.19452
0
LINE
8
BLACK
6
CONTINUOUS
10
6.37939
20
-4.19452
11
6.37683
21
-4.19281
0
LINE
8
BLACK
6
CONTINUOUS
10
6.37683
20
-4.19281
11
6.37513
21
-4.19026
0
LINE
8
BLACK
6
CONTINUOUS
10
6.37513
20
-4.19026
11
6.37453
21
-4.18724
0
LINE
8
BLACK
6
CONTINUOUS
10
6.37453
20
-4.18724
11
6.37453
21
-4.12724
0
LINE
8
BLACK
6
CONTINUOUS
10
6.37453
20
-4.12724
11
6.37513
21
-4.12423
0
LINE
8
BLACK
6
CONTINUOUS
10
6.37513
20
-4.12423
11
6.37683
21
-4.12168
0
LINE
8
BLACK
6
CONTINUOUS
10
6.37683
20
-4.12168
11
6.37939
21
-4.11997
0
LINE
8
BLACK
6
CONTINUOUS
10
6.37939
20
-4.11997
11
6.3824
21
-4.11937
0
LINE
8
BLACK
6
CONTINUOUS
10
6.3824
20
-4.11937
11
6.4424
21
-4.11937
0
LINE
8
BLACK
6
CONTINUOUS
10
6.4424
20
-4.11937
11
6.44541
21
-4.11997
0
LINE
8
BLACK
6
CONTINUOUS
10
6.54541
20
-4.11997
11
6.54797
21
-4.12168
0
LINE
8
BLACK
6
CONTINUOUS
10
6.54797
20
-4.12168
11
6.54968
21
-4.12423
0
LINE
8
BLACK
6
CONTINUOUS
10
6.54968
20
-4.12423
11
6.55028
21
-4.12724
0
LINE
8
BLACK
6
CONTINUOUS
10
6.55028
20
-4.12724
11
6.55028
21
-4.18724
0
LINE
8
BLACK
6
CONTINUOUS
10
6.55028
20
-4.18724
11
6.54968
21
-4.19026
0
LINE
8
BLACK
6
CONTINUOUS
10
6.54968
20
-4.19026
11
6.54797
21
-4.19281
0
LINE
8
BLACK
6
CONTINUOUS
10
6.54797
20
-4.19281
11
6.54541
21
-4.19452
0
LINE
8
BLACK
6
CONTINUOUS
10
6.54541
20
-4.19452
11
6.5424
21
-4.19512
0
LINE
8
BLACK
6
CONTINUOUS
10
6.5424
20
-4.19512
11
6.4824
21
-4.19512
0
LINE
8
BLACK
6
CONTINUOUS
10
6.4824
20
-4.19512
11
6.47939
21
-4.19452
0
LINE
8
BLACK
6
CONTINUOUS
10
6.47939
20
-4.19452
11
6.47683
21
-4.19281
0
LINE
8
BLACK
6
CONTINUOUS
10
6.47683
20
-4.19281
11
6.47513
21
-4.19026
0
LINE
8
BLACK
6
CONTINUOUS
10
6.47513
20
-4.19026
11
6.47453
21
-4.18724
0
LINE
8
BLACK
6
CONTINUOUS
10
6.47453
20
-4.18724
11
6.47453
21
-4.12724
0
LINE
8
BLACK
6
CONTINUOUS
10
6.47453
20
-4.12724
11
6.47513
21
-4.12423
0
LINE
8
BLACK
6
CONTINUOUS
10
6.47513
20
-4.12423
11
6.47683
21
-4.12168
0
LINE
8
BLACK
6
CONTINUOUS
10
6.47683
20
-4.12168
11
6.47939
21
-4.11997
0
LINE
8
BLACK
6
CONTINUOUS
10
6.47939
20
-4.11997
11
6.4824
21
-4.11937
0
LINE
8
BLACK
6
CONTINUOUS
10
6.4824
20
-4.11937
11
6.5424
21
-4.11937
0
LINE
8
BLACK
6
CONTINUOUS
10
6.5424
20
-4.11937
11
6.54541
21
-4.11997
0
LINE
8
BLACK
6
CONTINUOUS
10
6.54541
20
-4.01997
11
6.54797
21
-4.02168
0
LINE
8
BLACK
6
CONTINUOUS
10
6.54797
20
-4.02168
11
6.54968
21
-4.02423
0
LINE
8
BLACK
6
CONTINUOUS
10
6.54968
20
-4.02423
11
6.55028
21
-4.02724
0
LINE
8
BLACK
6
CONTINUOUS
10
6.55028
20
-4.02724
11
6.55028
21
-4.08724
0
LINE
8
BLACK
6
CONTINUOUS
10
6.55028
20
-4.08724
11
6.54968
21
-4.09026
0
LINE
8
BLACK
6
CONTINUOUS
10
6.54968
20
-4.09026
11
6.54797
21
-4.09281
0
LINE
8
BLACK
6
CONTINUOUS
10
6.54797
20
-4.09281
11
6.54541
21
-4.09452
0
LINE
8
BLACK
6
CONTINUOUS
10
6.54541
20
-4.09452
11
6.5424
21
-4.09512
0
LINE
8
BLACK
6
CONTINUOUS
10
6.5424
20
-4.09512
11
6.4824
21
-4.09512
0
LINE
8
BLACK
6
CONTINUOUS
10
6.4824
20
-4.09512
11
6.47939
21
-4.09452
0
LINE
8
BLACK
6
CONTINUOUS
10
6.47939
20
-4.09452
11
6.47683
21
-4.09281
0
LINE
8
BLACK
6
CONTINUOUS
10
6.47683
20
-4.09281
11
6.47513
21
-4.09026
0
LINE
8
BLACK
6
CONTINUOUS
10
6.47513
20
-4.09026
11
6.47453
21
-4.08724
0
LINE
8
BLACK
6
CONTINUOUS
10
6.47453
20
-4.08724
11
6.47453
21
-4.02724
0
LINE
8
BLACK
6
CONTINUOUS
10
6.47453
20
-4.02724
11
6.47513
21
-4.02423
0
LINE
8
BLACK
6
CONTINUOUS
10
6.47513
20
-4.02423
11
6.47683
21
-4.02168
0
LINE
8
BLACK
6
CONTINUOUS
10
6.47683
20
-4.02168
11
6.47939
21
-4.01997
0
LINE
8
BLACK
6
CONTINUOUS
10
6.47939
20
-4.01997
11
6.4824
21
-4.01937
0
LINE
8
BLACK
6
CONTINUOUS
10
6.4824
20
-4.01937
11
6.5424
21
-4.01937
0
LINE
8
BLACK
6
CONTINUOUS
10
6.5424
20
-4.01937
11
6.54541
21
-4.01997
0
LINE
8
BLACK
6
CONTINUOUS
10
6.44541
20
-4.01997
11
6.44797
21
-4.02168
0
LINE
8
BLACK
6
CONTINUOUS
10
6.44797
20
-4.02168
11
6.44968
21
-4.02423
0
LINE
8
BLACK
6
CONTINUOUS
10
6.44968
20
-4.02423
11
6.45028
21
-4.02724
0
LINE
8
BLACK
6
CONTINUOUS
10
6.45028
20
-4.02724
11
6.45028
21
-4.08724
0
LINE
8
BLACK
6
CONTINUOUS
10
6.45028
20
-4.08724
11
6.44968
21
-4.09026
0
LINE
8
BLACK
6
CONTINUOUS
10
6.44968
20
-4.09026
11
6.44797
21
-4.09281
0
LINE
8
BLACK
6
CONTINUOUS
10
6.44797
20
-4.09281
11
6.44541
21
-4.09452
0
LINE
8
BLACK
6
CONTINUOUS
10
6.44541
20
-4.09452
11
6.4424
21
-4.09512
0
LINE
8
BLACK
6
CONTINUOUS
10
6.4424
20
-4.09512
11
6.3824
21
-4.09512
0
LINE
8
BLACK
6
CONTINUOUS
10
6.3824
20
-4.09512
11
6.37939
21
-4.09452
0
LINE
8
BLACK
6
CONTINUOUS
10
6.37939
20
-4.09452
11
6.37683
21
-4.09281
0
LINE
8
BLACK
6
CONTINUOUS
10
6.37683
20
-4.09281
11
6.37513
21
-4.09026
0
LINE
8
BLACK
6
CONTINUOUS
10
6.37513
20
-4.09026
11
6.37453
21
-4.08724
0
LINE
8
BLACK
6
CONTINUOUS
10
6.37453
20
-4.08724
11
6.37453
21
-4.02724
0
LINE
8
BLACK
6
CONTINUOUS
10
6.37453
20
-4.02724
11
6.37513
21
-4.02423
0
LINE
8
BLACK
6
CONTINUOUS
10
6.37513
20
-4.02423
11
6.37683
21
-4.02168
0
LINE
8
BLACK
6
CONTINUOUS
10
6.37683
20
-4.02168
11
6.37939
21
-4.01997
0
LINE
8
BLACK
6
CONTINUOUS
10
6.37939
20
-4.01997
11
6.3824
21
-4.01937
0
LINE
8
BLACK
6
CONTINUOUS
10
6.3824
20
-4.01937
11
6.4424
21
-4.01937
0
LINE
8
BLACK
6
CONTINUOUS
10
6.4424
20
-4.01937
11
6.44541
21
-4.01997
0
LINE
8
BLACK
6
CONTINUOUS
10
5.70888
20
-3.9715
11
5.71143
21
-3.97321
0
LINE
8
BLACK
6
CONTINUOUS
10
5.71143
20
-3.97321
11
5.71314
21
-3.97577
0
LINE
8
BLACK
6
CONTINUOUS
10
5.71314
20
-3.97577
11
5.71374
21
-3.97878
0
LINE
8
BLACK
6
CONTINUOUS
10
5.71374
20
-3.97878
11
5.71374
21
-4.04571
0
LINE
8
BLACK
6
CONTINUOUS
10
5.71374
20
-4.04571
11
5.71314
21
-4.04872
0
LINE
8
BLACK
6
CONTINUOUS
10
5.71314
20
-4.04872
11
5.71143
21
-4.05128
0
LINE
8
BLACK
6
CONTINUOUS
10
5.71143
20
-4.05128
11
5.70888
21
-4.05298
0
LINE
8
BLACK
6
CONTINUOUS
10
5.70888
20
-4.05298
11
5.70587
21
-4.05358
0
LINE
8
BLACK
6
CONTINUOUS
10
5.70587
20
-4.05358
11
5.63894
21
-4.05358
0
LINE
8
BLACK
6
CONTINUOUS
10
5.63894
20
-4.05358
11
5.63592
21
-4.05298
0
LINE
8
BLACK
6
CONTINUOUS
10
5.63592
20
-4.05298
11
5.63337
21
-4.05128
0
LINE
8
BLACK
6
CONTINUOUS
10
5.63337
20
-4.05128
11
5.63166
21
-4.04872
0
LINE
8
BLACK
6
CONTINUOUS
10
5.63166
20
-4.04872
11
5.63106
21
-4.04571
0
LINE
8
BLACK
6
CONTINUOUS
10
5.63106
20
-4.04571
11
5.63106
21
-4.0297
0
LINE
8
BLACK
6
CONTINUOUS
10
5.63106
20
-4.0297
11
5.62744
21
-4.03607
0
LINE
8
BLACK
6
CONTINUOUS
10
5.62744
20
-4.03607
11
5.62217
21
-4.04218
0
LINE
8
BLACK
6
CONTINUOUS
10
5.62217
20
-4.04218
11
5.61581
21
-4.04715
0
LINE
8
BLACK
6
CONTINUOUS
10
5.61581
20
-4.04715
11
5.60861
21
-4.05079
0
LINE
8
BLACK
6
CONTINUOUS
10
5.60861
20
-4.05079
11
5.60084
21
-4.05295
0
LINE
8
BLACK
6
CONTINUOUS
10
5.60084
20
-4.05295
11
5.5928
21
-4.05357
0
LINE
8
BLACK
6
CONTINUOUS
10
5.5928
20
-4.05357
11
5.58478
21
-4.05262
0
LINE
8
BLACK
6
CONTINUOUS
10
5.58478
20
-4.05262
11
5.57711
21
-4.05013
0
LINE
8
BLACK
6
CONTINUOUS
10
5.57711
20
-4.05013
11
5.57007
21
-4.04619
0
LINE
8
BLACK
6
CONTINUOUS
10
5.57007
20
-4.04619
11
5.56392
21
-4.04096
0
LINE
8
BLACK
6
CONTINUOUS
10
5.56392
20
-4.04096
11
5.55891
21
-4.03464
0
LINE
8
BLACK
6
CONTINUOUS
10
5.55891
20
-4.03464
11
5.55523
21
-4.02746
0
LINE
8
BLACK
6
CONTINUOUS
10
5.55523
20
-4.02746
11
5.553
21
-4.01971
0
LINE
8
BLACK
6
CONTINUOUS
10
5.553
20
-4.01971
11
5.55233
21
-4.01167
0
LINE
8
BLACK
6
CONTINUOUS
10
5.55233
20
-4.01167
11
5.55323
21
-4.00365
0
LINE
8
BLACK
6
CONTINUOUS
10
5.55323
20
-4.00365
11
5.55567
21
-3.99596
0
LINE
8
BLACK
6
CONTINUOUS
10
5.55567
20
-3.99596
11
5.55955
21
-3.98889
0
LINE
8
BLACK
6
CONTINUOUS
10
5.55955
20
-3.98889
11
5.56474
21
-3.98271
0
LINE
8
BLACK
6
CONTINUOUS
10
5.56474
20
-3.98271
11
5.57103
21
-3.97765
0
LINE
8
BLACK
6
CONTINUOUS
10
5.57103
20
-3.97765
11
5.57818
21
-3.97392
0
LINE
8
BLACK
6
CONTINUOUS
10
5.57818
20
-3.97392
11
5.58592
21
-3.97164
0
LINE
8
BLACK
6
CONTINUOUS
10
5.58592
20
-3.97164
11
5.59395
21
-3.97091
0
LINE
8
BLACK
6
CONTINUOUS
10
5.59395
20
-3.97091
11
5.60197
21
-3.97175
0
LINE
8
BLACK
6
CONTINUOUS
10
5.60197
20
-3.97175
11
5.60968
21
-3.97414
0
LINE
8
BLACK
6
CONTINUOUS
10
5.60968
20
-3.97414
11
5.61678
21
-3.97797
0
LINE
8
BLACK
6
CONTINUOUS
10
5.61678
20
-3.97797
11
5.62299
21
-3.98312
0
LINE
8
BLACK
6
CONTINUOUS
10
5.62299
20
-3.98312
11
5.62809
21
-3.98937
0
LINE
8
BLACK
6
CONTINUOUS
10
5.62809
20
-3.98937
11
5.63106
21
-3.99495
0
LINE
8
BLACK
6
CONTINUOUS
10
5.63106
20
-3.99495
11
5.63106
21
-3.97878
0
LINE
8
BLACK
6
CONTINUOUS
10
5.63106
20
-3.97878
11
5.63166
21
-3.97577
0
LINE
8
BLACK
6
CONTINUOUS
10
5.63166
20
-3.97577
11
5.63337
21
-3.97321
0
LINE
8
BLACK
6
CONTINUOUS
10
5.63337
20
-3.97321
11
5.63592
21
-3.9715
0
LINE
8
BLACK
6
CONTINUOUS
10
5.63592
20
-3.9715
11
5.63894
21
-3.97091
0
LINE
8
BLACK
6
CONTINUOUS
10
5.63894
20
-3.97091
11
5.70587
21
-3.97091
0
LINE
8
BLACK
6
CONTINUOUS
10
5.70587
20
-3.97091
11
5.70888
21
-3.9715
0
LINE
8
BLACK
6
CONTINUOUS
10
6.44541
20
-3.91997
11
6.44797
21
-3.92168
0
LINE
8
BLACK
6
CONTINUOUS
10
6.44797
20
-3.92168
11
6.44968
21
-3.92423
0
LINE
8
BLACK
6
CONTINUOUS
10
6.44968
20
-3.92423
11
6.45028
21
-3.92724
0
LINE
8
BLACK
6
CONTINUOUS
10
6.45028
20
-3.92724
11
6.45028
21
-3.98724
0
LINE
8
BLACK
6
CONTINUOUS
10
6.45028
20
-3.98724
11
6.44968
21
-3.99026
0
LINE
8
BLACK
6
CONTINUOUS
10
6.44968
20
-3.99026
11
6.44797
21
-3.99281
0
LINE
8
BLACK
6
CONTINUOUS
10
6.44797
20
-3.99281
11
6.44541
21
-3.99452
0
LINE
8
BLACK
6
CONTINUOUS
10
6.44541
20
-3.99452
11
6.4424
21
-3.99512
0
LINE
8
BLACK
6
CONTINUOUS
10
6.4424
20
-3.99512
11
6.3824
21
-3.99512
0
LINE
8
BLACK
6
CONTINUOUS
10
6.3824
20
-3.99512
11
6.37939
21
-3.99452
0
LINE
8
BLACK
6
CONTINUOUS
10
6.37939
20
-3.99452
11
6.37683
21
-3.99281
0
LINE
8
BLACK
6
CONTINUOUS
10
6.37683
20
-3.99281
11
6.37513
21
-3.99026
0
LINE
8
BLACK
6
CONTINUOUS
10
6.37513
20
-3.99026
11
6.37453
21
-3.98724
0
LINE
8
BLACK
6
CONTINUOUS
10
6.37453
20
-3.98724
11
6.37453
21
-3.92724
0
LINE
8
BLACK
6
CONTINUOUS
10
6.37453
20
-3.92724
11
6.37513
21
-3.92423
0
LINE
8
BLACK
6
CONTINUOUS
10
6.37513
20
-3.92423
11
6.37683
21
-3.92168
0
LINE
8
BLACK
6
CONTINUOUS
10
6.37683
20
-3.92168
11
6.37939
21
-3.91997
0
LINE
8
BLACK
6
CONTINUOUS
10
6.37939
20
-3.91997
11
6.3824
21
-3.91937
0
LINE
8
BLACK
6
CONTINUOUS
10
6.3824
20
-3.91937
11
6.4424
21
-3.91937
0
LINE
8
BLACK
6
CONTINUOUS
10
6.4424
20
-3.91937
11
6.44541
21
-3.91997
0
LINE
8
BLACK
6
CONTINUOUS
10
6.54541
20
-3.91997
11
6.54797
21
-3.92168
0
LINE
8
BLACK
6
CONTINUOUS
10
6.54797
20
-3.92168
11
6.54968
21
-3.92423
0
LINE
8
BLACK
6
CONTINUOUS
10
6.54968
20
-3.92423
11
6.55028
21
-3.92724
0
LINE
8
BLACK
6
CONTINUOUS
10
6.55028
20
-3.92724
11
6.55028
21
-3.98724
0
LINE
8
BLACK
6
CONTINUOUS
10
6.55028
20
-3.98724
11
6.54968
21
-3.99026
0
LINE
8
BLACK
6
CONTINUOUS
10
6.54968
20
-3.99026
11
6.54797
21
-3.99281
0
LINE
8
BLACK
6
CONTINUOUS
10
6.54797
20
-3.99281
11
6.54541
21
-3.99452
0
LINE
8
BLACK
6
CONTINUOUS
10
6.54541
20
-3.99452
11
6.5424
21
-3.99512
0
LINE
8
BLACK
6
CONTINUOUS
10
6.5424
20
-3.99512
11
6.4824
21
-3.99512
0
LINE
8
BLACK
6
CONTINUOUS
10
6.4824
20
-3.99512
11
6.47939
21
-3.99452
0
LINE
8
BLACK
6
CONTINUOUS
10
6.47939
20
-3.99452
11
6.47683
21
-3.99281
0
LINE
8
BLACK
6
CONTINUOUS
10
6.47683
20
-3.99281
11
6.47513
21
-3.99026
0
LINE
8
BLACK
6
CONTINUOUS
10
6.47513
20
-3.99026
11
6.47453
21
-3.98724
0
LINE
8
BLACK
6
CONTINUOUS
10
6.47453
20
-3.98724
11
6.47453
21
-3.92724
0
LINE
8
BLACK
6
CONTINUOUS
10
6.47453
20
-3.92724
11
6.47513
21
-3.92423
0
LINE
8
BLACK
6
CONTINUOUS
10
6.47513
20
-3.92423
11
6.47683
21
-3.92168
0
LINE
8
BLACK
6
CONTINUOUS
10
6.47683
20
-3.92168
11
6.47939
21
-3.91997
0
LINE
8
BLACK
6
CONTINUOUS
10
6.47939
20
-3.91997
11
6.4824
21
-3.91937
0
LINE
8
BLACK
6
CONTINUOUS
10
6.4824
20
-3.91937
11
6.5424
21
-3.91937
0
LINE
8
BLACK
6
CONTINUOUS
10
6.5424
20
-3.91937
11
6.54541
21
-3.91997
0
LINE
8
BLACK
6
CONTINUOUS
10
5.68071
20
-3.87332
11
5.68842
21
-3.87571
0
LINE
8
BLACK
6
CONTINUOUS
10
5.68842
20
-3.87571
11
5.69552
21
-3.87955
0
LINE
8
BLACK
6
CONTINUOUS
10
5.69552
20
-3.87955
11
5.70173
21
-3.88469
0
LINE
8
BLACK
6
CONTINUOUS
10
5.70173
20
-3.88469
11
5.70683
21
-3.89094
0
LINE
8
BLACK
6
CONTINUOUS
10
5.70683
20
-3.89094
11
5.71062
21
-3.89807
0
LINE
8
BLACK
6
CONTINUOUS
10
5.71062
20
-3.89807
11
5.71295
21
-3.90579
0
LINE
8
BLACK
6
CONTINUOUS
10
5.71295
20
-3.90579
11
5.71374
21
-3.91382
0
LINE
8
BLACK
6
CONTINUOUS
10
5.71374
20
-3.91382
11
5.71372
21
-3.91497
0
LINE
8
BLACK
6
CONTINUOUS
10
5.71372
20
-3.91497
11
5.71271
21
-3.92298
0
LINE
8
BLACK
6
CONTINUOUS
10
5.71271
20
-3.92298
11
5.71017
21
-3.93063
0
LINE
8
BLACK
6
CONTINUOUS
10
5.71017
20
-3.93063
11
5.70618
21
-3.93765
0
LINE
8
BLACK
6
CONTINUOUS
10
5.70618
20
-3.93765
11
5.70091
21
-3.94376
0
LINE
8
BLACK
6
CONTINUOUS
10
5.70091
20
-3.94376
11
5.69455
21
-3.94872
0
LINE
8
BLACK
6
CONTINUOUS
10
5.69455
20
-3.94872
11
5.68735
21
-3.95236
0
LINE
8
BLACK
6
CONTINUOUS
10
5.68735
20
-3.95236
11
5.67958
21
-3.95453
0
LINE
8
BLACK
6
CONTINUOUS
10
5.67958
20
-3.95453
11
5.67154
21
-3.95515
0
LINE
8
BLACK
6
CONTINUOUS
10
5.67154
20
-3.95515
11
5.66352
21
-3.95419
0
LINE
8
BLACK
6
CONTINUOUS
10
5.66352
20
-3.95419
11
5.65585
21
-3.9517
0
LINE
8
BLACK
6
CONTINUOUS
10
5.65585
20
-3.9517
11
5.64881
21
-3.94776
0
LINE
8
BLACK
6
CONTINUOUS
10
5.64881
20
-3.94776
11
5.64267
21
-3.94254
0
LINE
8
BLACK
6
CONTINUOUS
10
5.64267
20
-3.94254
11
5.63765
21
-3.93621
0
LINE
8
BLACK
6
CONTINUOUS
10
5.63765
20
-3.93621
11
5.63397
21
-3.92904
0
LINE
8
BLACK
6
CONTINUOUS
10
5.63397
20
-3.92904
11
5.63304
21
-3.92579
0
LINE
8
BLACK
6
CONTINUOUS
10
5.63304
20
-3.92579
11
5.63143
21
-3.93063
0
LINE
8
BLACK
6
CONTINUOUS
10
5.63143
20
-3.93063
11
5.62744
21
-3.93765
0
LINE
8
BLACK
6
CONTINUOUS
10
5.62744
20
-3.93765
11
5.62217
21
-3.94376
0
LINE
8
BLACK
6
CONTINUOUS
10
5.62217
20
-3.94376
11
5.61581
21
-3.94872
0
LINE
8
BLACK
6
CONTINUOUS
10
5.61581
20
-3.94872
11
5.60861
21
-3.95236
0
LINE
8
BLACK
6
CONTINUOUS
10
5.60861
20
-3.95236
11
5.60084
21
-3.95453
0
LINE
8
BLACK
6
CONTINUOUS
10
5.60084
20
-3.95453
11
5.5928
21
-3.95515
0
LINE
8
BLACK
6
CONTINUOUS
10
5.5928
20
-3.95515
11
5.58478
21
-3.95419
0
LINE
8
BLACK
6
CONTINUOUS
10
5.58478
20
-3.95419
11
5.57711
21
-3.9517
0
LINE
8
BLACK
6
CONTINUOUS
10
5.57711
20
-3.9517
11
5.57007
21
-3.94776
0
LINE
8
BLACK
6
CONTINUOUS
10
5.57007
20
-3.94776
11
5.56392
21
-3.94254
0
LINE
8
BLACK
6
CONTINUOUS
10
5.56392
20
-3.94254
11
5.55891
21
-3.93621
0
LINE
8
BLACK
6
CONTINUOUS
10
5.55891
20
-3.93621
11
5.55523
21
-3.92904
0
LINE
8
BLACK
6
CONTINUOUS
10
5.55523
20
-3.92904
11
5.553
21
-3.92128
0
LINE
8
BLACK
6
CONTINUOUS
10
5.553
20
-3.92128
11
5.55233
21
-3.91324
0
LINE
8
BLACK
6
CONTINUOUS
10
5.55233
20
-3.91324
11
5.55323
21
-3.90522
0
LINE
8
BLACK
6
CONTINUOUS
10
5.55323
20
-3.90522
11
5.55567
21
-3.89753
0
LINE
8
BLACK
6
CONTINUOUS
10
5.55567
20
-3.89753
11
5.55955
21
-3.89046
0
LINE
8
BLACK
6
CONTINUOUS
10
5.55955
20
-3.89046
11
5.56474
21
-3.88428
0
LINE
8
BLACK
6
CONTINUOUS
10
5.56474
20
-3.88428
11
5.57103
21
-3.87923
0
LINE
8
BLACK
6
CONTINUOUS
10
5.57103
20
-3.87923
11
5.57818
21
-3.87549
0
LINE
8
BLACK
6
CONTINUOUS
10
5.57818
20
-3.87549
11
5.58592
21
-3.87321
0
LINE
8
BLACK
6
CONTINUOUS
10
5.58592
20
-3.87321
11
5.59395
21
-3.87248
0
LINE
8
BLACK
6
CONTINUOUS
10
5.59395
20
-3.87248
11
5.60197
21
-3.87332
0
LINE
8
BLACK
6
CONTINUOUS
10
5.60197
20
-3.87332
11
5.60968
21
-3.87571
0
LINE
8
BLACK
6
CONTINUOUS
10
5.60968
20
-3.87571
11
5.61678
21
-3.87955
0
LINE
8
BLACK
6
CONTINUOUS
10
5.61678
20
-3.87955
11
5.62299
21
-3.88469
0
LINE
8
BLACK
6
CONTINUOUS
10
5.62299
20
-3.88469
11
5.62809
21
-3.89094
0
LINE
8
BLACK
6
CONTINUOUS
10
5.62809
20
-3.89094
11
5.63188
21
-3.89807
0
LINE
8
BLACK
6
CONTINUOUS
10
5.63188
20
-3.89807
11
5.63303
21
-3.90187
0
LINE
8
BLACK
6
CONTINUOUS
10
5.63303
20
-3.90187
11
5.63441
21
-3.89753
0
LINE
8
BLACK
6
CONTINUOUS
10
5.63441
20
-3.89753
11
5.63829
21
-3.89046
0
LINE
8
BLACK
6
CONTINUOUS
10
5.63829
20
-3.89046
11
5.64348
21
-3.88428
0
LINE
8
BLACK
6
CONTINUOUS
10
5.64348
20
-3.88428
11
5.64977
21
-3.87923
0
LINE
8
BLACK
6
CONTINUOUS
10
5.64977
20
-3.87923
11
5.65692
21
-3.87549
0
LINE
8
BLACK
6
CONTINUOUS
10
5.65692
20
-3.87549
11
5.66466
21
-3.87321
0
LINE
8
BLACK
6
CONTINUOUS
10
5.66466
20
-3.87321
11
5.67269
21
-3.87248
0
LINE
8
BLACK
6
CONTINUOUS
10
5.67269
20
-3.87248
11
5.68071
21
-3.87332
0
LINE
8
BLACK
6
CONTINUOUS
10
6.44541
20
-3.81997
11
6.44797
21
-3.82168
0
LINE
8
BLACK
6
CONTINUOUS
10
6.44797
20
-3.82168
11
6.44968
21
-3.82423
0
LINE
8
BLACK
6
CONTINUOUS
10
6.44968
20
-3.82423
11
6.45028
21
-3.82724
0
LINE
8
BLACK
6
CONTINUOUS
10
6.45028
20
-3.82724
11
6.45028
21
-3.88724
0
LINE
8
BLACK
6
CONTINUOUS
10
6.45028
20
-3.88724
11
6.44968
21
-3.89026
0
LINE
8
BLACK
6
CONTINUOUS
10
6.44968
20
-3.89026
11
6.44797
21
-3.89281
0
LINE
8
BLACK
6
CONTINUOUS
10
6.44797
20
-3.89281
11
6.44541
21
-3.89452
0
LINE
8
BLACK
6
CONTINUOUS
10
6.44541
20
-3.89452
11
6.4424
21
-3.89512
0
LINE
8
BLACK
6
CONTINUOUS
10
6.4424
20
-3.89512
11
6.3824
21
-3.89512
0
LINE
8
BLACK
6
CONTINUOUS
10
6.3824
20
-3.89512
11
6.37939
21
-3.89452
0
LINE
8
BLACK
6
CONTINUOUS
10
6.37939
20
-3.89452
11
6.37683
21
-3.89281
0
LINE
8
BLACK
6
CONTINUOUS
10
6.37683
20
-3.89281
11
6.37513
21
-3.89026
0
LINE
8
BLACK
6
CONTINUOUS
10
6.37513
20
-3.89026
11
6.37453
21
-3.88724
0
LINE
8
BLACK
6
CONTINUOUS
10
6.37453
20
-3.88724
11
6.37453
21
-3.82724
0
LINE
8
BLACK
6
CONTINUOUS
10
6.37453
20
-3.82724
11
6.37513
21
-3.82423
0
LINE
8
BLACK
6
CONTINUOUS
10
6.37513
20
-3.82423
11
6.37683
21
-3.82168
0
LINE
8
BLACK
6
CONTINUOUS
10
6.37683
20
-3.82168
11
6.37939
21
-3.81997
0
LINE
8
BLACK
6
CONTINUOUS
10
6.37939
20
-3.81997
11
6.3824
21
-3.81937
0
LINE
8
BLACK
6
CONTINUOUS
10
6.3824
20
-3.81937
11
6.4424
21
-3.81937
0
LINE
8
BLACK
6
CONTINUOUS
10
6.4424
20
-3.81937
11
6.44541
21
-3.81997
0
LINE
8
BLACK
6
CONTINUOUS
10
6.54541
20
-3.81997
11
6.54797
21
-3.82168
0
LINE
8
BLACK
6
CONTINUOUS
10
6.54797
20
-3.82168
11
6.54968
21
-3.82423
0
LINE
8
BLACK
6
CONTINUOUS
10
6.54968
20
-3.82423
11
6.55028
21
-3.82724
0
LINE
8
BLACK
6
CONTINUOUS
10
6.55028
20
-3.82724
11
6.55028
21
-3.88724
0
LINE
8
BLACK
6
CONTINUOUS
10
6.55028
20
-3.88724
11
6.54968
21
-3.89026
0
LINE
8
BLACK
6
CONTINUOUS
10
6.54968
20
-3.89026
11
6.54797
21
-3.89281
0
LINE
8
BLACK
6
CONTINUOUS
10
6.54797
20
-3.89281
11
6.54541
21
-3.89452
0
LINE
8
BLACK
6
CONTINUOUS
10
6.54541
20
-3.89452
11
6.5424
21
-3.89512
0
LINE
8
BLACK
6
CONTINUOUS
10
6.5424
20
-3.89512
11
6.4824
21
-3.89512
0
LINE
8
BLACK
6
CONTINUOUS
10
6.4824
20
-3.89512
11
6.47939
21
-3.89452
0
LINE
8
BLACK
6
CONTINUOUS
10
6.47939
20
-3.89452
11
6.47683
21
-3.89281
0
LINE
8
BLACK
6
CONTINUOUS
10
6.47683
20
-3.89281
11
6.47513
21
-3.89026
0
LINE
8
BLACK
6
CONTINUOUS
10
6.47513
20
-3.89026
11
6.47453
21
-3.88724
0
LINE
8
BLACK
6
CONTINUOUS
10
6.47453
20
-3.88724
11
6.47453
21
-3.82724
0
LINE
8
BLACK
6
CONTINUOUS
10
6.47453
20
-3.82724
11
6.47513
21
-3.82423
0
LINE
8
BLACK
6
CONTINUOUS
10
6.47513
20
-3.82423
11
6.47683
21
-3.82168
0
LINE
8
BLACK
6
CONTINUOUS
10
6.47683
20
-3.82168
11
6.47939
21
-3.81997
0
LINE
8
BLACK
6
CONTINUOUS
10
6.47939
20
-3.81997
11
6.4824
21
-3.81937
0
LINE
8
BLACK
6
CONTINUOUS
10
6.4824
20
-3.81937
11
6.5424
21
-3.81937
0
LINE
8
BLACK
6
CONTINUOUS
10
6.5424
20
-3.81937
11
6.54541
21
-3.81997
0
LINE
8
BLACK
6
CONTINUOUS
10
5.49898
20
-3.6502
11
5.50954
21
-3.65265
0
LINE
8
BLACK
6
CONTINUOUS
10
5.50954
20
-3.65265
11
5.51966
21
-3.65656
0
LINE
8
BLACK
6
CONTINUOUS
10
5.51966
20
-3.65656
11
5.52912
21
-3.66186
0
LINE
8
BLACK
6
CONTINUOUS
10
5.52912
20
-3.66186
11
5.53774
21
-3.66844
0
LINE
8
BLACK
6
CONTINUOUS
10
5.53774
20
-3.66844
11
5.54535
21
-3.67616
0
LINE
8
BLACK
6
CONTINUOUS
10
5.54535
20
-3.67616
11
5.55179
21
-3.68489
0
LINE
8
BLACK
6
CONTINUOUS
10
5.55179
20
-3.68489
11
5.55694
21
-3.69443
0
LINE
8
BLACK
6
CONTINUOUS
10
5.55694
20
-3.69443
11
5.56069
21
-3.7046
0
LINE
8
BLACK
6
CONTINUOUS
10
5.56069
20
-3.7046
11
5.56297
21
-3.71521
0
LINE
8
BLACK
6
CONTINUOUS
10
5.56297
20
-3.71521
11
5.56374
21
-3.72602
0
LINE
8
BLACK
6
CONTINUOUS
10
5.56374
20
-3.72602
11
5.56359
21
-3.73084
0
LINE
8
BLACK
6
CONTINUOUS
10
5.56359
20
-3.73084
11
5.56215
21
-3.74159
0
LINE
8
BLACK
6
CONTINUOUS
10
5.56215
20
-3.74159
11
5.5592
21
-3.75203
0
LINE
8
BLACK
6
CONTINUOUS
10
5.5592
20
-3.75203
11
5.55482
21
-3.76195
0
LINE
8
BLACK
6
CONTINUOUS
10
5.55482
20
-3.76195
11
5.54908
21
-3.77115
0
LINE
8
BLACK
6
CONTINUOUS
10
5.54908
20
-3.77115
11
5.5421
21
-3.77945
0
LINE
8
BLACK
6
CONTINUOUS
10
5.5421
20
-3.77945
11
5.53402
21
-3.78669
0
LINE
8
BLACK
6
CONTINUOUS
10
5.53402
20
-3.78669
11
5.52501
21
-3.79271
0
LINE
8
BLACK
6
CONTINUOUS
10
5.52501
20
-3.79271
11
5.51523
21
-3.7974
0
LINE
8
BLACK
6
CONTINUOUS
10
5.51523
20
-3.7974
11
5.50489
21
-3.80067
0
LINE
8
BLACK
6
CONTINUOUS
10
5.50489
20
-3.80067
11
5.49419
21
-3.80245
0
LINE
8
BLACK
6
CONTINUOUS
10
5.49419
20
-3.80245
11
5.48335
21
-3.80271
0
LINE
8
BLACK
6
CONTINUOUS
10
5.48335
20
-3.80271
11
5.47258
21
-3.80144
0
LINE
8
BLACK
6
CONTINUOUS
10
5.47258
20
-3.80144
11
5.4621
21
-3.79866
0
LINE
8
BLACK
6
CONTINUOUS
10
5.4621
20
-3.79866
11
5.45211
21
-3.79443
0
LINE
8
BLACK
6
CONTINUOUS
10
5.45211
20
-3.79443
11
5.44282
21
-3.78883
0
LINE
8
BLACK
6
CONTINUOUS
10
5.44282
20
-3.78883
11
5.43441
21
-3.78199
0
LINE
8
BLACK
6
CONTINUOUS
10
5.43441
20
-3.78199
11
5.42705
21
-3.77402
0
LINE
8
BLACK
6
CONTINUOUS
10
5.42705
20
-3.77402
11
5.42089
21
-3.7651
0
LINE
8
BLACK
6
CONTINUOUS
10
5.42089
20
-3.7651
11
5.41604
21
-3.7554
0
LINE
8
BLACK
6
CONTINUOUS
10
5.41604
20
-3.7554
11
5.41261
21
-3.74512
0
LINE
8
BLACK
6
CONTINUOUS
10
5.41261
20
-3.74512
11
5.41066
21
-3.73445
0
LINE
8
BLACK
6
CONTINUOUS
10
5.41066
20
-3.73445
11
5.41023
21
-3.72361
0
LINE
8
BLACK
6
CONTINUOUS
10
5.41023
20
-3.72361
11
5.41134
21
-3.71282
0
LINE
8
BLACK
6
CONTINUOUS
10
5.41134
20
-3.71282
11
5.41395
21
-3.7023
0
LINE
8
BLACK
6
CONTINUOUS
10
5.41395
20
-3.7023
11
5.41803
21
-3.69225
0
LINE
8
BLACK
6
CONTINUOUS
10
5.41803
20
-3.69225
11
5.42347
21
-3.68287
0
LINE
8
BLACK
6
CONTINUOUS
10
5.42347
20
-3.68287
11
5.43019
21
-3.67436
0
LINE
8
BLACK
6
CONTINUOUS
10
5.43019
20
-3.67436
11
5.43803
21
-3.66687
0
LINE
8
BLACK
6
CONTINUOUS
10
5.43803
20
-3.66687
11
5.44686
21
-3.66057
0
LINE
8
BLACK
6
CONTINUOUS
10
5.44686
20
-3.66057
11
5.45648
21
-3.65557
0
LINE
8
BLACK
6
CONTINUOUS
10
5.45648
20
-3.65557
11
5.46671
21
-3.65197
0
LINE
8
BLACK
6
CONTINUOUS
10
5.46671
20
-3.65197
11
5.47735
21
-3.64986
0
LINE
8
BLACK
6
CONTINUOUS
10
5.47735
20
-3.64986
11
5.48817
21
-3.64926
0
LINE
8
BLACK
6
CONTINUOUS
10
5.48817
20
-3.64926
11
5.49898
21
-3.6502
0
LINE
8
BLACK
6
CONTINUOUS
10
6.54541
20
-3.71997
11
6.54797
21
-3.72168
0
LINE
8
BLACK
6
CONTINUOUS
10
6.54797
20
-3.72168
11
6.54968
21
-3.72423
0
LINE
8
BLACK
6
CONTINUOUS
10
6.54968
20
-3.72423
11
6.55028
21
-3.72724
0
LINE
8
BLACK
6
CONTINUOUS
10
6.55028
20
-3.72724
11
6.55028
21
-3.78724
0
LINE
8
BLACK
6
CONTINUOUS
10
6.55028
20
-3.78724
11
6.54968
21
-3.79026
0
LINE
8
BLACK
6
CONTINUOUS
10
6.54968
20
-3.79026
11
6.54797
21
-3.79281
0
LINE
8
BLACK
6
CONTINUOUS
10
6.54797
20
-3.79281
11
6.54541
21
-3.79452
0
LINE
8
BLACK
6
CONTINUOUS
10
6.54541
20
-3.79452
11
6.5424
21
-3.79512
0
LINE
8
BLACK
6
CONTINUOUS
10
6.5424
20
-3.79512
11
6.4824
21
-3.79512
0
LINE
8
BLACK
6
CONTINUOUS
10
6.4824
20
-3.79512
11
6.47939
21
-3.79452
0
LINE
8
BLACK
6
CONTINUOUS
10
6.47939
20
-3.79452
11
6.47683
21
-3.79281
0
LINE
8
BLACK
6
CONTINUOUS
10
6.47683
20
-3.79281
11
6.47513
21
-3.79026
0
LINE
8
BLACK
6
CONTINUOUS
10
6.47513
20
-3.79026
11
6.47453
21
-3.78724
0
LINE
8
BLACK
6
CONTINUOUS
10
6.47453
20
-3.78724
11
6.47453
21
-3.72724
0
LINE
8
BLACK
6
CONTINUOUS
10
6.47453
20
-3.72724
11
6.47513
21
-3.72423
0
LINE
8
BLACK
6
CONTINUOUS
10
6.47513
20
-3.72423
11
6.47683
21
-3.72168
0
LINE
8
BLACK
6
CONTINUOUS
10
6.47683
20
-3.72168
11
6.47939
21
-3.71997
0
LINE
8
BLACK
6
CONTINUOUS
10
6.47939
20
-3.71997
11
6.4824
21
-3.71937
0
LINE
8
BLACK
6
CONTINUOUS
10
6.4824
20
-3.71937
11
6.5424
21
-3.71937
0
LINE
8
BLACK
6
CONTINUOUS
10
6.5424
20
-3.71937
11
6.54541
21
-3.71997
0
LINE
8
BLACK
6
CONTINUOUS
10
6.44541
20
-3.71997
11
6.44797
21
-3.72168
0
LINE
8
BLACK
6
CONTINUOUS
10
6.44797
20
-3.72168
11
6.44968
21
-3.72423
0
LINE
8
BLACK
6
CONTINUOUS
10
6.44968
20
-3.72423
11
6.45028
21
-3.72724
0
LINE
8
BLACK
6
CONTINUOUS
10
6.45028
20
-3.72724
11
6.45028
21
-3.78724
0
LINE
8
BLACK
6
CONTINUOUS
10
6.45028
20
-3.78724
11
6.44968
21
-3.79026
0
LINE
8
BLACK
6
CONTINUOUS
10
6.44968
20
-3.79026
11
6.44797
21
-3.79281
0
LINE
8
BLACK
6
CONTINUOUS
10
6.44797
20
-3.79281
11
6.44541
21
-3.79452
0
LINE
8
BLACK
6
CONTINUOUS
10
6.44541
20
-3.79452
11
6.4424
21
-3.79512
0
LINE
8
BLACK
6
CONTINUOUS
10
6.4424
20
-3.79512
11
6.3824
21
-3.79512
0
LINE
8
BLACK
6
CONTINUOUS
10
6.3824
20
-3.79512
11
6.37939
21
-3.79452
0
LINE
8
BLACK
6
CONTINUOUS
10
6.37939
20
-3.79452
11
6.37683
21
-3.79281
0
LINE
8
BLACK
6
CONTINUOUS
10
6.37683
20
-3.79281
11
6.37513
21
-3.79026
0
LINE
8
BLACK
6
CONTINUOUS
10
6.37513
20
-3.79026
11
6.37453
21
-3.78724
0
LINE
8
BLACK
6
CONTINUOUS
10
6.37453
20
-3.78724
11
6.37453
21
-3.72724
0
LINE
8
BLACK
6
CONTINUOUS
10
6.37453
20
-3.72724
11
6.37513
21
-3.72423
0
LINE
8
BLACK
6
CONTINUOUS
10
6.37513
20
-3.72423
11
6.37683
21
-3.72168
0
LINE
8
BLACK
6
CONTINUOUS
10
6.37683
20
-3.72168
11
6.37939
21
-3.71997
0
LINE
8
BLACK
6
CONTINUOUS
10
6.37939
20
-3.71997
11
6.3824
21
-3.71937
0
LINE
8
BLACK
6
CONTINUOUS
10
6.3824
20
-3.71937
11
6.4424
21
-3.71937
0
LINE
8
BLACK
6
CONTINUOUS
10
6.4424
20
-3.71937
11
6.44541
21
-3.71997
0
LINE
8
BLACK
6
CONTINUOUS
10
6.47732
20
-3.43215
11
6.49117
21
-3.43459
0
LINE
8
BLACK
6
CONTINUOUS
10
6.49117
20
-3.43459
11
6.50466
21
-3.43856
0
LINE
8
BLACK
6
CONTINUOUS
10
6.50466
20
-3.43856
11
6.51763
21
-3.44401
0
LINE
8
BLACK
6
CONTINUOUS
10
6.51763
20
-3.44401
11
6.52991
21
-3.45087
0
LINE
8
BLACK
6
CONTINUOUS
10
6.52991
20
-3.45087
11
6.54134
21
-3.45906
0
LINE
8
BLACK
6
CONTINUOUS
10
6.54134
20
-3.45906
11
6.5518
21
-3.46847
0
LINE
8
BLACK
6
CONTINUOUS
10
6.5518
20
-3.46847
11
6.56113
21
-3.47899
0
LINE
8
BLACK
6
CONTINUOUS
10
6.56113
20
-3.47899
11
6.56924
21
-3.49048
0
LINE
8
BLACK
6
CONTINUOUS
10
6.56924
20
-3.49048
11
6.57602
21
-3.50281
0
LINE
8
BLACK
6
CONTINUOUS
10
6.57602
20
-3.50281
11
6.58138
21
-3.51581
0
LINE
8
BLACK
6
CONTINUOUS
10
6.58138
20
-3.51581
11
6.58526
21
-3.52933
0
LINE
8
BLACK
6
CONTINUOUS
10
6.58526
20
-3.52933
11
6.5876
21
-3.5432
0
LINE
8
BLACK
6
CONTINUOUS
10
6.5876
20
-3.5432
11
6.58839
21
-3.55724
0
LINE
8
BLACK
6
CONTINUOUS
10
6.58839
20
-3.55724
11
6.58834
21
-3.56076
0
LINE
8
BLACK
6
CONTINUOUS
10
6.58834
20
-3.56076
11
6.58716
21
-3.57478
0
LINE
8
BLACK
6
CONTINUOUS
10
6.58716
20
-3.57478
11
6.58443
21
-3.58858
0
LINE
8
BLACK
6
CONTINUOUS
10
6.58443
20
-3.58858
11
6.58017
21
-3.60198
0
LINE
8
BLACK
6
CONTINUOUS
10
6.58017
20
-3.60198
11
6.57445
21
-3.61483
0
LINE
8
BLACK
6
CONTINUOUS
10
6.57445
20
-3.61483
11
6.56734
21
-3.62696
0
LINE
8
BLACK
6
CONTINUOUS
10
6.56734
20
-3.62696
11
6.55891
21
-3.63823
0
LINE
8
BLACK
6
CONTINUOUS
10
6.55891
20
-3.63823
11
6.54928
21
-3.64848
0
LINE
8
BLACK
6
CONTINUOUS
10
6.54928
20
-3.64848
11
6.53857
21
-3.65759
0
LINE
8
BLACK
6
CONTINUOUS
10
6.53857
20
-3.65759
11
6.52691
21
-3.66546
0
LINE
8
BLACK
6
CONTINUOUS
10
6.52691
20
-3.66546
11
6.51445
21
-3.67198
0
LINE
8
BLACK
6
CONTINUOUS
10
6.51445
20
-3.67198
11
6.50133
21
-3.67706
0
LINE
8
BLACK
6
CONTINUOUS
10
6.50133
20
-3.67706
11
6.48773
21
-3.68066
0
LINE
8
BLACK
6
CONTINUOUS
10
6.48773
20
-3.68066
11
6.47382
21
-3.68271
0
LINE
8
BLACK
6
CONTINUOUS
10
6.47382
20
-3.68271
11
6.45976
21
-3.6832
0
LINE
8
BLACK
6
CONTINUOUS
10
6.45976
20
-3.6832
11
6.44574
21
-3.68212
0
LINE
8
BLACK
6
CONTINUOUS
10
6.44574
20
-3.68212
11
6.43192
21
-3.67949
0
LINE
8
BLACK
6
CONTINUOUS
10
6.43192
20
-3.67949
11
6.41849
21
-3.67533
0
LINE
8
BLACK
6
CONTINUOUS
10
6.41849
20
-3.67533
11
6.4056
21
-3.6697
0
LINE
8
BLACK
6
CONTINUOUS
10
6.4056
20
-3.6697
11
6.39342
21
-3.66266
0
LINE
8
BLACK
6
CONTINUOUS
10
6.39342
20
-3.66266
11
6.3821
21
-3.65432
0
LINE
8
BLACK
6
CONTINUOUS
10
6.3821
20
-3.65432
11
6.37178
21
-3.64476
0
LINE
8
BLACK
6
CONTINUOUS
10
6.37178
20
-3.64476
11
6.36259
21
-3.63411
0
LINE
8
BLACK
6
CONTINUOUS
10
6.36259
20
-3.63411
11
6.35464
21
-3.62251
0
LINE
8
BLACK
6
CONTINUOUS
10
6.35464
20
-3.62251
11
6.34804
21
-3.61009
0
LINE
8
BLACK
6
CONTINUOUS
10
6.34804
20
-3.61009
11
6.34286
21
-3.59701
0
LINE
8
BLACK
6
CONTINUOUS
10
6.34286
20
-3.59701
11
6.33917
21
-3.58344
0
LINE
8
BLACK
6
CONTINUOUS
10
6.33917
20
-3.58344
11
6.33702
21
-3.56954
0
LINE
8
BLACK
6
CONTINUOUS
10
6.33702
20
-3.56954
11
6.33643
21
-3.55549
0
LINE
8
BLACK
6
CONTINUOUS
10
6.33643
20
-3.55549
11
6.33741
21
-3.54145
0
LINE
8
BLACK
6
CONTINUOUS
10
6.33741
20
-3.54145
11
6.33995
21
-3.52762
0
LINE
8
BLACK
6
CONTINUOUS
10
6.33995
20
-3.52762
11
6.34402
21
-3.51415
0
LINE
8
BLACK
6
CONTINUOUS
10
6.34402
20
-3.51415
11
6.34956
21
-3.50123
0
LINE
8
BLACK
6
CONTINUOUS
10
6.34956
20
-3.50123
11
6.3565
21
-3.489
0
LINE
8
BLACK
6
CONTINUOUS
10
6.3565
20
-3.489
11
6.36477
21
-3.47762
0
LINE
8
BLACK
6
CONTINUOUS
10
6.36477
20
-3.47762
11
6.37425
21
-3.46723
0
LINE
8
BLACK
6
CONTINUOUS
10
6.37425
20
-3.46723
11
6.38484
21
-3.45797
0
LINE
8
BLACK
6
CONTINUOUS
10
6.38484
20
-3.45797
11
6.39639
21
-3.44994
0
LINE
8
BLACK
6
CONTINUOUS
10
6.39639
20
-3.44994
11
6.40876
21
-3.44325
0
LINE
8
BLACK
6
CONTINUOUS
10
6.40876
20
-3.44325
11
6.4218
21
-3.43798
0
LINE
8
BLACK
6
CONTINUOUS
10
6.4218
20
-3.43798
11
6.43535
21
-3.4342
0
LINE
8
BLACK
6
CONTINUOUS
10
6.43535
20
-3.4342
11
6.44923
21
-3.43195
0
LINE
8
BLACK
6
CONTINUOUS
10
6.44923
20
-3.43195
11
6.46328
21
-3.43126
0
LINE
8
BLACK
6
CONTINUOUS
10
6.46328
20
-3.43126
11
6.47732
21
-3.43215
0
LINE
8
BLACK
6
CONTINUOUS
10
5.27732
20
-3.43215
11
5.29117
21
-3.43459
0
LINE
8
BLACK
6
CONTINUOUS
10
5.29117
20
-3.43459
11
5.30466
21
-3.43856
0
LINE
8
BLACK
6
CONTINUOUS
10
5.30466
20
-3.43856
11
5.31763
21
-3.44401
0
LINE
8
BLACK
6
CONTINUOUS
10
5.31763
20
-3.44401
11
5.32991
21
-3.45087
0
LINE
8
BLACK
6
CONTINUOUS
10
5.32991
20
-3.45087
11
5.34134
21
-3.45906
0
LINE
8
BLACK
6
CONTINUOUS
10
5.34134
20
-3.45906
11
5.3518
21
-3.46847
0
LINE
8
BLACK
6
CONTINUOUS
10
5.3518
20
-3.46847
11
5.36113
21
-3.47899
0
LINE
8
BLACK
6
CONTINUOUS
10
5.36113
20
-3.47899
11
5.36924
21
-3.49048
0
LINE
8
BLACK
6
CONTINUOUS
10
5.36924
20
-3.49048
11
5.37602
21
-3.50281
0
LINE
8
BLACK
6
CONTINUOUS
10
5.37602
20
-3.50281
11
5.38138
21
-3.51581
0
LINE
8
BLACK
6
CONTINUOUS
10
5.38138
20
-3.51581
11
5.38526
21
-3.52933
0
LINE
8
BLACK
6
CONTINUOUS
10
5.38526
20
-3.52933
11
5.3876
21
-3.5432
0
LINE
8
BLACK
6
CONTINUOUS
10
5.3876
20
-3.5432
11
5.38839
21
-3.55724
0
LINE
8
BLACK
6
CONTINUOUS
10
5.38839
20
-3.55724
11
5.38834
21
-3.56076
0
LINE
8
BLACK
6
CONTINUOUS
10
5.38834
20
-3.56076
11
5.38716
21
-3.57478
0
LINE
8
BLACK
6
CONTINUOUS
10
5.38716
20
-3.57478
11
5.38443
21
-3.58858
0
LINE
8
BLACK
6
CONTINUOUS
10
5.38443
20
-3.58858
11
5.38017
21
-3.60198
0
LINE
8
BLACK
6
CONTINUOUS
10
5.38017
20
-3.60198
11
5.37445
21
-3.61483
0
LINE
8
BLACK
6
CONTINUOUS
10
5.37445
20
-3.61483
11
5.36734
21
-3.62696
0
LINE
8
BLACK
6
CONTINUOUS
10
5.36734
20
-3.62696
11
5.35891
21
-3.63823
0
LINE
8
BLACK
6
CONTINUOUS
10
5.35891
20
-3.63823
11
5.34928
21
-3.64848
0
LINE
8
BLACK
6
CONTINUOUS
10
5.34928
20
-3.64848
11
5.33857
21
-3.65759
0
LINE
8
BLACK
6
CONTINUOUS
10
5.33857
20
-3.65759
11
5.32691
21
-3.66546
0
LINE
8
BLACK
6
CONTINUOUS
10
5.32691
20
-3.66546
11
5.31445
21
-3.67198
0
LINE
8
BLACK
6
CONTINUOUS
10
5.31445
20
-3.67198
11
5.30133
21
-3.67706
0
LINE
8
BLACK
6
CONTINUOUS
10
5.30133
20
-3.67706
11
5.28773
21
-3.68066
0
LINE
8
BLACK
6
CONTINUOUS
10
5.28773
20
-3.68066
11
5.27382
21
-3.68271
0
LINE
8
BLACK
6
CONTINUOUS
10
5.27382
20
-3.68271
11
5.25976
21
-3.6832
0
LINE
8
BLACK
6
CONTINUOUS
10
5.25976
20
-3.6832
11
5.24574
21
-3.68212
0
LINE
8
BLACK
6
CONTINUOUS
10
5.24574
20
-3.68212
11
5.23192
21
-3.67949
0
LINE
8
BLACK
6
CONTINUOUS
10
5.23192
20
-3.67949
11
5.21849
21
-3.67533
0
LINE
8
BLACK
6
CONTINUOUS
10
5.21849
20
-3.67533
11
5.2056
21
-3.6697
0
LINE
8
BLACK
6
CONTINUOUS
10
5.2056
20
-3.6697
11
5.19342
21
-3.66266
0
LINE
8
BLACK
6
CONTINUOUS
10
5.19342
20
-3.66266
11
5.1821
21
-3.65432
0
LINE
8
BLACK
6
CONTINUOUS
10
5.1821
20
-3.65432
11
5.17178
21
-3.64476
0
LINE
8
BLACK
6
CONTINUOUS
10
5.17178
20
-3.64476
11
5.16259
21
-3.63411
0
LINE
8
BLACK
6
CONTINUOUS
10
5.16259
20
-3.63411
11
5.15464
21
-3.62251
0
LINE
8
BLACK
6
CONTINUOUS
10
5.15464
20
-3.62251
11
5.14804
21
-3.61009
0
LINE
8
BLACK
6
CONTINUOUS
10
5.14804
20
-3.61009
11
5.14286
21
-3.59701
0
LINE
8
BLACK
6
CONTINUOUS
10
5.14286
20
-3.59701
11
5.13917
21
-3.58344
0
LINE
8
BLACK
6
CONTINUOUS
10
5.13917
20
-3.58344
11
5.13702
21
-3.56954
0
LINE
8
BLACK
6
CONTINUOUS
10
5.13702
20
-3.56954
11
5.13643
21
-3.55549
0
LINE
8
BLACK
6
CONTINUOUS
10
5.13643
20
-3.55549
11
5.13741
21
-3.54145
0
LINE
8
BLACK
6
CONTINUOUS
10
5.13741
20
-3.54145
11
5.13995
21
-3.52762
0
LINE
8
BLACK
6
CONTINUOUS
10
5.13995
20
-3.52762
11
5.14402
21
-3.51415
0
LINE
8
BLACK
6
CONTINUOUS
10
5.14402
20
-3.51415
11
5.14956
21
-3.50123
0
LINE
8
BLACK
6
CONTINUOUS
10
5.14956
20
-3.50123
11
5.1565
21
-3.489
0
LINE
8
BLACK
6
CONTINUOUS
10
5.1565
20
-3.489
11
5.16477
21
-3.47762
0
LINE
8
BLACK
6
CONTINUOUS
10
5.16477
20
-3.47762
11
5.17425
21
-3.46723
0
LINE
8
BLACK
6
CONTINUOUS
10
5.17425
20
-3.46723
11
5.18484
21
-3.45797
0
LINE
8
BLACK
6
CONTINUOUS
10
5.18484
20
-3.45797
11
5.19639
21
-3.44994
0
LINE
8
BLACK
6
CONTINUOUS
10
5.19639
20
-3.44994
11
5.20876
21
-3.44325
0
LINE
8
BLACK
6
CONTINUOUS
10
5.20876
20
-3.44325
11
5.2218
21
-3.43798
0
LINE
8
BLACK
6
CONTINUOUS
10
5.2218
20
-3.43798
11
5.23535
21
-3.4342
0
LINE
8
BLACK
6
CONTINUOUS
10
5.23535
20
-3.4342
11
5.24923
21
-3.43195
0
LINE
8
BLACK
6
CONTINUOUS
10
5.24923
20
-3.43195
11
5.26328
21
-3.43126
0
LINE
8
BLACK
6
CONTINUOUS
10
5.26328
20
-3.43126
11
5.27732
21
-3.43215
0
LINE
8
BLACK
6
CONTINUOUS
10
6.29541
20
-3.56997
11
6.29797
21
-3.57168
0
LINE
8
BLACK
6
CONTINUOUS
10
6.29797
20
-3.57168
11
6.29968
21
-3.57423
0
LINE
8
BLACK
6
CONTINUOUS
10
6.29968
20
-3.57423
11
6.30028
21
-3.57724
0
LINE
8
BLACK
6
CONTINUOUS
10
6.30028
20
-3.57724
11
6.30028
21
-3.63724
0
LINE
8
BLACK
6
CONTINUOUS
10
6.30028
20
-3.63724
11
6.29968
21
-3.64026
0
LINE
8
BLACK
6
CONTINUOUS
10
6.29968
20
-3.64026
11
6.29797
21
-3.64281
0
LINE
8
BLACK
6
CONTINUOUS
10
6.29797
20
-3.64281
11
6.29541
21
-3.64452
0
LINE
8
BLACK
6
CONTINUOUS
10
6.29541
20
-3.64452
11
6.2924
21
-3.64512
0
LINE
8
BLACK
6
CONTINUOUS
10
6.2924
20
-3.64512
11
6.2324
21
-3.64512
0
LINE
8
BLACK
6
CONTINUOUS
10
6.2324
20
-3.64512
11
6.22939
21
-3.64452
0
LINE
8
BLACK
6
CONTINUOUS
10
6.22939
20
-3.64452
11
6.22683
21
-3.64281
0
LINE
8
BLACK
6
CONTINUOUS
10
6.22683
20
-3.64281
11
6.22513
21
-3.64026
0
LINE
8
BLACK
6
CONTINUOUS
10
6.22513
20
-3.64026
11
6.22453
21
-3.63724
0
LINE
8
BLACK
6
CONTINUOUS
10
6.22453
20
-3.63724
11
6.22453
21
-3.57724
0
LINE
8
BLACK
6
CONTINUOUS
10
6.22453
20
-3.57724
11
6.22513
21
-3.57423
0
LINE
8
BLACK
6
CONTINUOUS
10
6.22513
20
-3.57423
11
6.22683
21
-3.57168
0
LINE
8
BLACK
6
CONTINUOUS
10
6.22683
20
-3.57168
11
6.22939
21
-3.56997
0
LINE
8
BLACK
6
CONTINUOUS
10
6.22939
20
-3.56997
11
6.2324
21
-3.56937
0
LINE
8
BLACK
6
CONTINUOUS
10
6.2324
20
-3.56937
11
6.2924
21
-3.56937
0
LINE
8
BLACK
6
CONTINUOUS
10
6.2924
20
-3.56937
11
6.29541
21
-3.56997
0
LINE
8
BLACK
6
CONTINUOUS
10
6.19541
20
-3.56997
11
6.19797
21
-3.57168
0
LINE
8
BLACK
6
CONTINUOUS
10
6.19797
20
-3.57168
11
6.19968
21
-3.57423
0
LINE
8
BLACK
6
CONTINUOUS
10
6.19968
20
-3.57423
11
6.20028
21
-3.57724
0
LINE
8
BLACK
6
CONTINUOUS
10
6.20028
20
-3.57724
11
6.20028
21
-3.63724
0
LINE
8
BLACK
6
CONTINUOUS
10
6.20028
20
-3.63724
11
6.19968
21
-3.64026
0
LINE
8
BLACK
6
CONTINUOUS
10
6.19968
20
-3.64026
11
6.19797
21
-3.64281
0
LINE
8
BLACK
6
CONTINUOUS
10
6.19797
20
-3.64281
11
6.19541
21
-3.64452
0
LINE
8
BLACK
6
CONTINUOUS
10
6.19541
20
-3.64452
11
6.1924
21
-3.64512
0
LINE
8
BLACK
6
CONTINUOUS
10
6.1924
20
-3.64512
11
6.1324
21
-3.64512
0
LINE
8
BLACK
6
CONTINUOUS
10
6.1324
20
-3.64512
11
6.12939
21
-3.64452
0
LINE
8
BLACK
6
CONTINUOUS
10
6.12939
20
-3.64452
11
6.12683
21
-3.64281
0
LINE
8
BLACK
6
CONTINUOUS
10
6.12683
20
-3.64281
11
6.12513
21
-3.64026
0
LINE
8
BLACK
6
CONTINUOUS
10
6.12513
20
-3.64026
11
6.12453
21
-3.63724
0
LINE
8
BLACK
6
CONTINUOUS
10
6.12453
20
-3.63724
11
6.12453
21
-3.57724
0
LINE
8
BLACK
6
CONTINUOUS
10
6.12453
20
-3.57724
11
6.12513
21
-3.57423
0
LINE
8
BLACK
6
CONTINUOUS
10
6.12513
20
-3.57423
11
6.12683
21
-3.57168
0
LINE
8
BLACK
6
CONTINUOUS
10
6.12683
20
-3.57168
11
6.12939
21
-3.56997
0
LINE
8
BLACK
6
CONTINUOUS
10
6.12939
20
-3.56997
11
6.1324
21
-3.56937
0
LINE
8
BLACK
6
CONTINUOUS
10
6.1324
20
-3.56937
11
6.1924
21
-3.56937
0
LINE
8
BLACK
6
CONTINUOUS
10
6.1924
20
-3.56937
11
6.19541
21
-3.56997
0
LINE
8
BLACK
6
CONTINUOUS
10
6.09541
20
-3.56997
11
6.09797
21
-3.57168
0
LINE
8
BLACK
6
CONTINUOUS
10
6.09797
20
-3.57168
11
6.09968
21
-3.57423
0
LINE
8
BLACK
6
CONTINUOUS
10
6.09968
20
-3.57423
11
6.10028
21
-3.57724
0
LINE
8
BLACK
6
CONTINUOUS
10
6.10028
20
-3.57724
11
6.10028
21
-3.63724
0
LINE
8
BLACK
6
CONTINUOUS
10
6.10028
20
-3.63724
11
6.09968
21
-3.64026
0
LINE
8
BLACK
6
CONTINUOUS
10
6.09968
20
-3.64026
11
6.09797
21
-3.64281
0
LINE
8
BLACK
6
CONTINUOUS
10
6.09797
20
-3.64281
11
6.09541
21
-3.64452
0
LINE
8
BLACK
6
CONTINUOUS
10
6.09541
20
-3.64452
11
6.0924
21
-3.64512
0
LINE
8
BLACK
6
CONTINUOUS
10
6.0924
20
-3.64512
11
6.0324
21
-3.64512
0
LINE
8
BLACK
6
CONTINUOUS
10
6.0324
20
-3.64512
11
6.02939
21
-3.64452
0
LINE
8
BLACK
6
CONTINUOUS
10
6.02939
20
-3.64452
11
6.02683
21
-3.64281
0
LINE
8
BLACK
6
CONTINUOUS
10
6.02683
20
-3.64281
11
6.02513
21
-3.64026
0
LINE
8
BLACK
6
CONTINUOUS
10
6.02513
20
-3.64026
11
6.02453
21
-3.63724
0
LINE
8
BLACK
6
CONTINUOUS
10
6.02453
20
-3.63724
11
6.02453
21
-3.57724
0
LINE
8
BLACK
6
CONTINUOUS
10
6.02453
20
-3.57724
11
6.02513
21
-3.57423
0
LINE
8
BLACK
6
CONTINUOUS
10
6.02513
20
-3.57423
11
6.02683
21
-3.57168
0
LINE
8
BLACK
6
CONTINUOUS
10
6.02683
20
-3.57168
11
6.02939
21
-3.56997
0
LINE
8
BLACK
6
CONTINUOUS
10
6.02939
20
-3.56997
11
6.0324
21
-3.56937
0
LINE
8
BLACK
6
CONTINUOUS
10
6.0324
20
-3.56937
11
6.0924
21
-3.56937
0
LINE
8
BLACK
6
CONTINUOUS
10
6.0924
20
-3.56937
11
6.09541
21
-3.56997
0
LINE
8
BLACK
6
CONTINUOUS
10
5.79541
20
-3.56997
11
5.79797
21
-3.57168
0
LINE
8
BLACK
6
CONTINUOUS
10
5.79797
20
-3.57168
11
5.79968
21
-3.57423
0
LINE
8
BLACK
6
CONTINUOUS
10
5.79968
20
-3.57423
11
5.80028
21
-3.57724
0
LINE
8
BLACK
6
CONTINUOUS
10
5.80028
20
-3.57724
11
5.80028
21
-3.63724
0
LINE
8
BLACK
6
CONTINUOUS
10
5.80028
20
-3.63724
11
5.79968
21
-3.64026
0
LINE
8
BLACK
6
CONTINUOUS
10
5.79968
20
-3.64026
11
5.79797
21
-3.64281
0
LINE
8
BLACK
6
CONTINUOUS
10
5.79797
20
-3.64281
11
5.79541
21
-3.64452
0
LINE
8
BLACK
6
CONTINUOUS
10
5.79541
20
-3.64452
11
5.7924
21
-3.64512
0
LINE
8
BLACK
6
CONTINUOUS
10
5.7924
20
-3.64512
11
5.7324
21
-3.64512
0
LINE
8
BLACK
6
CONTINUOUS
10
5.7324
20
-3.64512
11
5.72939
21
-3.64452
0
LINE
8
BLACK
6
CONTINUOUS
10
5.72939
20
-3.64452
11
5.72683
21
-3.64281
0
LINE
8
BLACK
6
CONTINUOUS
10
5.72683
20
-3.64281
11
5.72513
21
-3.64026
0
LINE
8
BLACK
6
CONTINUOUS
10
5.72513
20
-3.64026
11
5.72453
21
-3.63724
0
LINE
8
BLACK
6
CONTINUOUS
10
5.72453
20
-3.63724
11
5.72453
21
-3.57724
0
LINE
8
BLACK
6
CONTINUOUS
10
5.72453
20
-3.57724
11
5.72513
21
-3.57423
0
LINE
8
BLACK
6
CONTINUOUS
10
5.72513
20
-3.57423
11
5.72683
21
-3.57168
0
LINE
8
BLACK
6
CONTINUOUS
10
5.72683
20
-3.57168
11
5.72939
21
-3.56997
0
LINE
8
BLACK
6
CONTINUOUS
10
5.72939
20
-3.56997
11
5.7324
21
-3.56937
0
LINE
8
BLACK
6
CONTINUOUS
10
5.7324
20
-3.56937
11
5.7924
21
-3.56937
0
LINE
8
BLACK
6
CONTINUOUS
10
5.7924
20
-3.56937
11
5.79541
21
-3.56997
0
LINE
8
BLACK
6
CONTINUOUS
10
5.89541
20
-3.56997
11
5.89797
21
-3.57168
0
LINE
8
BLACK
6
CONTINUOUS
10
5.89797
20
-3.57168
11
5.89968
21
-3.57423
0
LINE
8
BLACK
6
CONTINUOUS
10
5.89968
20
-3.57423
11
5.90028
21
-3.57724
0
LINE
8
BLACK
6
CONTINUOUS
10
5.90028
20
-3.57724
11
5.90028
21
-3.63724
0
LINE
8
BLACK
6
CONTINUOUS
10
5.90028
20
-3.63724
11
5.89968
21
-3.64026
0
LINE
8
BLACK
6
CONTINUOUS
10
5.89968
20
-3.64026
11
5.89797
21
-3.64281
0
LINE
8
BLACK
6
CONTINUOUS
10
5.89797
20
-3.64281
11
5.89541
21
-3.64452
0
LINE
8
BLACK
6
CONTINUOUS
10
5.89541
20
-3.64452
11
5.8924
21
-3.64512
0
LINE
8
BLACK
6
CONTINUOUS
10
5.8924
20
-3.64512
11
5.8324
21
-3.64512
0
LINE
8
BLACK
6
CONTINUOUS
10
5.8324
20
-3.64512
11
5.82939
21
-3.64452
0
LINE
8
BLACK
6
CONTINUOUS
10
5.82939
20
-3.64452
11
5.82683
21
-3.64281
0
LINE
8
BLACK
6
CONTINUOUS
10
5.82683
20
-3.64281
11
5.82513
21
-3.64026
0
LINE
8
BLACK
6
CONTINUOUS
10
5.82513
20
-3.64026
11
5.82453
21
-3.63724
0
LINE
8
BLACK
6
CONTINUOUS
10
5.82453
20
-3.63724
11
5.82453
21
-3.57724
0
LINE
8
BLACK
6
CONTINUOUS
10
5.82453
20
-3.57724
11
5.82513
21
-3.57423
0
LINE
8
BLACK
6
CONTINUOUS
10
5.82513
20
-3.57423
11
5.82683
21
-3.57168
0
LINE
8
BLACK
6
CONTINUOUS
10
5.82683
20
-3.57168
11
5.82939
21
-3.56997
0
LINE
8
BLACK
6
CONTINUOUS
10
5.82939
20
-3.56997
11
5.8324
21
-3.56937
0
LINE
8
BLACK
6
CONTINUOUS
10
5.8324
20
-3.56937
11
5.8924
21
-3.56937
0
LINE
8
BLACK
6
CONTINUOUS
10
5.8924
20
-3.56937
11
5.89541
21
-3.56997
0
LINE
8
BLACK
6
CONTINUOUS
10
5.99541
20
-3.56997
11
5.99797
21
-3.57168
0
LINE
8
BLACK
6
CONTINUOUS
10
5.99797
20
-3.57168
11
5.99968
21
-3.57423
0
LINE
8
BLACK
6
CONTINUOUS
10
5.99968
20
-3.57423
11
6.00028
21
-3.57724
0
LINE
8
BLACK
6
CONTINUOUS
10
6.00028
20
-3.57724
11
6.00028
21
-3.63724
0
LINE
8
BLACK
6
CONTINUOUS
10
6.00028
20
-3.63724
11
5.99968
21
-3.64026
0
LINE
8
BLACK
6
CONTINUOUS
10
5.99968
20
-3.64026
11
5.99797
21
-3.64281
0
LINE
8
BLACK
6
CONTINUOUS
10
5.99797
20
-3.64281
11
5.99541
21
-3.64452
0
LINE
8
BLACK
6
CONTINUOUS
10
5.99541
20
-3.64452
11
5.9924
21
-3.64512
0
LINE
8
BLACK
6
CONTINUOUS
10
5.9924
20
-3.64512
11
5.9324
21
-3.64512
0
LINE
8
BLACK
6
CONTINUOUS
10
5.9324
20
-3.64512
11
5.92939
21
-3.64452
0
LINE
8
BLACK
6
CONTINUOUS
10
5.92939
20
-3.64452
11
5.92683
21
-3.64281
0
LINE
8
BLACK
6
CONTINUOUS
10
5.92683
20
-3.64281
11
5.92513
21
-3.64026
0
LINE
8
BLACK
6
CONTINUOUS
10
5.92513
20
-3.64026
11
5.92453
21
-3.63724
0
LINE
8
BLACK
6
CONTINUOUS
10
5.92453
20
-3.63724
11
5.92453
21
-3.57724
0
LINE
8
BLACK
6
CONTINUOUS
10
5.92453
20
-3.57724
11
5.92513
21
-3.57423
0
LINE
8
BLACK
6
CONTINUOUS
10
5.92513
20
-3.57423
11
5.92683
21
-3.57168
0
LINE
8
BLACK
6
CONTINUOUS
10
5.92683
20
-3.57168
11
5.92939
21
-3.56997
0
LINE
8
BLACK
6
CONTINUOUS
10
5.92939
20
-3.56997
11
5.9324
21
-3.56937
0
LINE
8
BLACK
6
CONTINUOUS
10
5.9324
20
-3.56937
11
5.9924
21
-3.56937
0
LINE
8
BLACK
6
CONTINUOUS
10
5.9924
20
-3.56937
11
5.99541
21
-3.56997
0
LINE
8
BLACK
6
CONTINUOUS
10
5.69541
20
-3.56997
11
5.69797
21
-3.57168
0
LINE
8
BLACK
6
CONTINUOUS
10
5.69797
20
-3.57168
11
5.69968
21
-3.57423
0
LINE
8
BLACK
6
CONTINUOUS
10
5.69968
20
-3.57423
11
5.70028
21
-3.57724
0
LINE
8
BLACK
6
CONTINUOUS
10
5.70028
20
-3.57724
11
5.70028
21
-3.63724
0
LINE
8
BLACK
6
CONTINUOUS
10
5.70028
20
-3.63724
11
5.69968
21
-3.64026
0
LINE
8
BLACK
6
CONTINUOUS
10
5.69968
20
-3.64026
11
5.69797
21
-3.64281
0
LINE
8
BLACK
6
CONTINUOUS
10
5.69797
20
-3.64281
11
5.69541
21
-3.64452
0
LINE
8
BLACK
6
CONTINUOUS
10
5.69541
20
-3.64452
11
5.6924
21
-3.64512
0
LINE
8
BLACK
6
CONTINUOUS
10
5.6924
20
-3.64512
11
5.6324
21
-3.64512
0
LINE
8
BLACK
6
CONTINUOUS
10
5.6324
20
-3.64512
11
5.62939
21
-3.64452
0
LINE
8
BLACK
6
CONTINUOUS
10
5.62939
20
-3.64452
11
5.62683
21
-3.64281
0
LINE
8
BLACK
6
CONTINUOUS
10
5.62683
20
-3.64281
11
5.62513
21
-3.64026
0
LINE
8
BLACK
6
CONTINUOUS
10
5.62513
20
-3.64026
11
5.62453
21
-3.63724
0
LINE
8
BLACK
6
CONTINUOUS
10
5.62453
20
-3.63724
11
5.62453
21
-3.57724
0
LINE
8
BLACK
6
CONTINUOUS
10
5.62453
20
-3.57724
11
5.62513
21
-3.57423
0
LINE
8
BLACK
6
CONTINUOUS
10
5.62513
20
-3.57423
11
5.62683
21
-3.57168
0
LINE
8
BLACK
6
CONTINUOUS
10
5.62683
20
-3.57168
11
5.62939
21
-3.56997
0
LINE
8
BLACK
6
CONTINUOUS
10
5.62939
20
-3.56997
11
5.6324
21
-3.56937
0
LINE
8
BLACK
6
CONTINUOUS
10
5.6324
20
-3.56937
11
5.6924
21
-3.56937
0
LINE
8
BLACK
6
CONTINUOUS
10
5.6924
20
-3.56937
11
5.69541
21
-3.56997
0
LINE
8
BLACK
6
CONTINUOUS
10
5.52163
20
-3.5049
11
5.53058
21
-3.5073
0
LINE
8
BLACK
6
CONTINUOUS
10
5.53058
20
-3.5073
11
5.53898
21
-3.51122
0
LINE
8
BLACK
6
CONTINUOUS
10
5.53898
20
-3.51122
11
5.54657
21
-3.51653
0
LINE
8
BLACK
6
CONTINUOUS
10
5.54657
20
-3.51653
11
5.55312
21
-3.52308
0
LINE
8
BLACK
6
CONTINUOUS
10
5.55312
20
-3.52308
11
5.55843
21
-3.53067
0
LINE
8
BLACK
6
CONTINUOUS
10
5.55843
20
-3.53067
11
5.56235
21
-3.53907
0
LINE
8
BLACK
6
CONTINUOUS
10
5.56235
20
-3.53907
11
5.56474
21
-3.54801
0
LINE
8
BLACK
6
CONTINUOUS
10
5.56474
20
-3.54801
11
5.56555
21
-3.55724
0
LINE
8
BLACK
6
CONTINUOUS
10
5.56555
20
-3.55724
11
5.56474
21
-3.56647
0
LINE
8
BLACK
6
CONTINUOUS
10
5.56474
20
-3.56647
11
5.56235
21
-3.57542
0
LINE
8
BLACK
6
CONTINUOUS
10
5.56235
20
-3.57542
11
5.55843
21
-3.58382
0
LINE
8
BLACK
6
CONTINUOUS
10
5.55843
20
-3.58382
11
5.55312
21
-3.59141
0
LINE
8
BLACK
6
CONTINUOUS
10
5.55312
20
-3.59141
11
5.54657
21
-3.59796
0
LINE
8
BLACK
6
CONTINUOUS
10
5.54657
20
-3.59796
11
5.53898
21
-3.60327
0
LINE
8
BLACK
6
CONTINUOUS
10
5.53898
20
-3.60327
11
5.53058
21
-3.60719
0
LINE
8
BLACK
6
CONTINUOUS
10
5.53058
20
-3.60719
11
5.52163
21
-3.60959
0
LINE
8
BLACK
6
CONTINUOUS
10
5.52163
20
-3.60959
11
5.5124
21
-3.61039
0
LINE
8
BLACK
6
CONTINUOUS
10
5.5124
20
-3.61039
11
5.50317
21
-3.60959
0
LINE
8
BLACK
6
CONTINUOUS
10
5.50317
20
-3.60959
11
5.49422
21
-3.60719
0
LINE
8
BLACK
6
CONTINUOUS
10
5.49422
20
-3.60719
11
5.48583
21
-3.60327
0
LINE
8
BLACK
6
CONTINUOUS
10
5.48583
20
-3.60327
11
5.47824
21
-3.59796
0
LINE
8
BLACK
6
CONTINUOUS
10
5.47824
20
-3.59796
11
5.47169
21
-3.59141
0
LINE
8
BLACK
6
CONTINUOUS
10
5.47169
20
-3.59141
11
5.46637
21
-3.58382
0
LINE
8
BLACK
6
CONTINUOUS
10
5.46637
20
-3.58382
11
5.46246
21
-3.57542
0
LINE
8
BLACK
6
CONTINUOUS
10
5.46246
20
-3.57542
11
5.46006
21
-3.56647
0
LINE
8
BLACK
6
CONTINUOUS
10
5.46006
20
-3.56647
11
5.45925
21
-3.55724
0
LINE
8
BLACK
6
CONTINUOUS
10
5.45925
20
-3.55724
11
5.46006
21
-3.54801
0
LINE
8
BLACK
6
CONTINUOUS
10
5.46006
20
-3.54801
11
5.46246
21
-3.53907
0
LINE
8
BLACK
6
CONTINUOUS
10
5.46246
20
-3.53907
11
5.46637
21
-3.53067
0
LINE
8
BLACK
6
CONTINUOUS
10
5.46637
20
-3.53067
11
5.47169
21
-3.52308
0
LINE
8
BLACK
6
CONTINUOUS
10
5.47169
20
-3.52308
11
5.47824
21
-3.51653
0
LINE
8
BLACK
6
CONTINUOUS
10
5.47824
20
-3.51653
11
5.48583
21
-3.51122
0
LINE
8
BLACK
6
CONTINUOUS
10
5.48583
20
-3.51122
11
5.49422
21
-3.5073
0
LINE
8
BLACK
6
CONTINUOUS
10
5.49422
20
-3.5073
11
5.50317
21
-3.5049
0
LINE
8
BLACK
6
CONTINUOUS
10
5.50317
20
-3.5049
11
5.5124
21
-3.50409
0
LINE
8
BLACK
6
CONTINUOUS
10
5.5124
20
-3.50409
11
5.52163
21
-3.5049
0
LINE
8
BLACK
6
CONTINUOUS
10
6.29541
20
-3.46997
11
6.29797
21
-3.47168
0
LINE
8
BLACK
6
CONTINUOUS
10
6.29797
20
-3.47168
11
6.29968
21
-3.47423
0
LINE
8
BLACK
6
CONTINUOUS
10
6.29968
20
-3.47423
11
6.30028
21
-3.47724
0
LINE
8
BLACK
6
CONTINUOUS
10
6.30028
20
-3.47724
11
6.30028
21
-3.53724
0
LINE
8
BLACK
6
CONTINUOUS
10
6.30028
20
-3.53724
11
6.29968
21
-3.54026
0
LINE
8
BLACK
6
CONTINUOUS
10
6.29968
20
-3.54026
11
6.29797
21
-3.54281
0
LINE
8
BLACK
6
CONTINUOUS
10
6.29797
20
-3.54281
11
6.29541
21
-3.54452
0
LINE
8
BLACK
6
CONTINUOUS
10
6.29541
20
-3.54452
11
6.2924
21
-3.54512
0
LINE
8
BLACK
6
CONTINUOUS
10
6.2924
20
-3.54512
11
6.2324
21
-3.54512
0
LINE
8
BLACK
6
CONTINUOUS
10
6.2324
20
-3.54512
11
6.22939
21
-3.54452
0
LINE
8
BLACK
6
CONTINUOUS
10
6.22939
20
-3.54452
11
6.22683
21
-3.54281
0
LINE
8
BLACK
6
CONTINUOUS
10
6.22683
20
-3.54281
11
6.22513
21
-3.54026
0
LINE
8
BLACK
6
CONTINUOUS
10
6.22513
20
-3.54026
11
6.22453
21
-3.53724
0
LINE
8
BLACK
6
CONTINUOUS
10
6.22453
20
-3.53724
11
6.22453
21
-3.47724
0
LINE
8
BLACK
6
CONTINUOUS
10
6.22453
20
-3.47724
11
6.22513
21
-3.47423
0
LINE
8
BLACK
6
CONTINUOUS
10
6.22513
20
-3.47423
11
6.22683
21
-3.47168
0
LINE
8
BLACK
6
CONTINUOUS
10
6.22683
20
-3.47168
11
6.22939
21
-3.46997
0
LINE
8
BLACK
6
CONTINUOUS
10
6.22939
20
-3.46997
11
6.2324
21
-3.46937
0
LINE
8
BLACK
6
CONTINUOUS
10
6.2324
20
-3.46937
11
6.2924
21
-3.46937
0
LINE
8
BLACK
6
CONTINUOUS
10
6.2924
20
-3.46937
11
6.29541
21
-3.46997
0
LINE
8
BLACK
6
CONTINUOUS
10
6.09541
20
-3.46997
11
6.09797
21
-3.47168
0
LINE
8
BLACK
6
CONTINUOUS
10
6.09797
20
-3.47168
11
6.09968
21
-3.47423
0
LINE
8
BLACK
6
CONTINUOUS
10
6.09968
20
-3.47423
11
6.10028
21
-3.47724
0
LINE
8
BLACK
6
CONTINUOUS
10
6.10028
20
-3.47724
11
6.10028
21
-3.53724
0
LINE
8
BLACK
6
CONTINUOUS
10
6.10028
20
-3.53724
11
6.09968
21
-3.54026
0
LINE
8
BLACK
6
CONTINUOUS
10
6.09968
20
-3.54026
11
6.09797
21
-3.54281
0
LINE
8
BLACK
6
CONTINUOUS
10
6.09797
20
-3.54281
11
6.09541
21
-3.54452
0
LINE
8
BLACK
6
CONTINUOUS
10
6.09541
20
-3.54452
11
6.0924
21
-3.54512
0
LINE
8
BLACK
6
CONTINUOUS
10
6.0924
20
-3.54512
11
6.0324
21
-3.54512
0
LINE
8
BLACK
6
CONTINUOUS
10
6.0324
20
-3.54512
11
6.02939
21
-3.54452
0
LINE
8
BLACK
6
CONTINUOUS
10
6.02939
20
-3.54452
11
6.02683
21
-3.54281
0
LINE
8
BLACK
6
CONTINUOUS
10
6.02683
20
-3.54281
11
6.02513
21
-3.54026
0
LINE
8
BLACK
6
CONTINUOUS
10
6.02513
20
-3.54026
11
6.02453
21
-3.53724
0
LINE
8
BLACK
6
CONTINUOUS
10
6.02453
20
-3.53724
11
6.02453
21
-3.47724
0
LINE
8
BLACK
6
CONTINUOUS
10
6.02453
20
-3.47724
11
6.02513
21
-3.47423
0
LINE
8
BLACK
6
CONTINUOUS
10
6.02513
20
-3.47423
11
6.02683
21
-3.47168
0
LINE
8
BLACK
6
CONTINUOUS
10
6.02683
20
-3.47168
11
6.02939
21
-3.46997
0
LINE
8
BLACK
6
CONTINUOUS
10
6.02939
20
-3.46997
11
6.0324
21
-3.46937
0
LINE
8
BLACK
6
CONTINUOUS
10
6.0324
20
-3.46937
11
6.0924
21
-3.46937
0
LINE
8
BLACK
6
CONTINUOUS
10
6.0924
20
-3.46937
11
6.09541
21
-3.46997
0
LINE
8
BLACK
6
CONTINUOUS
10
5.89541
20
-3.46997
11
5.89797
21
-3.47168
0
LINE
8
BLACK
6
CONTINUOUS
10
5.89797
20
-3.47168
11
5.89968
21
-3.47423
0
LINE
8
BLACK
6
CONTINUOUS
10
5.89968
20
-3.47423
11
5.90028
21
-3.47724
0
LINE
8
BLACK
6
CONTINUOUS
10
5.90028
20
-3.47724
11
5.90028
21
-3.53724
0
LINE
8
BLACK
6
CONTINUOUS
10
5.90028
20
-3.53724
11
5.89968
21
-3.54026
0
LINE
8
BLACK
6
CONTINUOUS
10
5.89968
20
-3.54026
11
5.89797
21
-3.54281
0
LINE
8
BLACK
6
CONTINUOUS
10
5.89797
20
-3.54281
11
5.89541
21
-3.54452
0
LINE
8
BLACK
6
CONTINUOUS
10
5.89541
20
-3.54452
11
5.8924
21
-3.54512
0
LINE
8
BLACK
6
CONTINUOUS
10
5.8924
20
-3.54512
11
5.8324
21
-3.54512
0
LINE
8
BLACK
6
CONTINUOUS
10
5.8324
20
-3.54512
11
5.82939
21
-3.54452
0
LINE
8
BLACK
6
CONTINUOUS
10
5.82939
20
-3.54452
11
5.82683
21
-3.54281
0
LINE
8
BLACK
6
CONTINUOUS
10
5.82683
20
-3.54281
11
5.82513
21
-3.54026
0
LINE
8
BLACK
6
CONTINUOUS
10
5.82513
20
-3.54026
11
5.82453
21
-3.53724
0
LINE
8
BLACK
6
CONTINUOUS
10
5.82453
20
-3.53724
11
5.82453
21
-3.47724
0
LINE
8
BLACK
6
CONTINUOUS
10
5.82453
20
-3.47724
11
5.82513
21
-3.47423
0
LINE
8
BLACK
6
CONTINUOUS
10
5.82513
20
-3.47423
11
5.82683
21
-3.47168
0
LINE
8
BLACK
6
CONTINUOUS
10
5.82683
20
-3.47168
11
5.82939
21
-3.46997
0
LINE
8
BLACK
6
CONTINUOUS
10
5.82939
20
-3.46997
11
5.8324
21
-3.46937
0
LINE
8
BLACK
6
CONTINUOUS
10
5.8324
20
-3.46937
11
5.8924
21
-3.46937
0
LINE
8
BLACK
6
CONTINUOUS
10
5.8924
20
-3.46937
11
5.89541
21
-3.46997
0
LINE
8
BLACK
6
CONTINUOUS
10
6.19541
20
-3.46997
11
6.19797
21
-3.47168
0
LINE
8
BLACK
6
CONTINUOUS
10
6.19797
20
-3.47168
11
6.19968
21
-3.47423
0
LINE
8
BLACK
6
CONTINUOUS
10
6.19968
20
-3.47423
11
6.20028
21
-3.47724
0
LINE
8
BLACK
6
CONTINUOUS
10
6.20028
20
-3.47724
11
6.20028
21
-3.53724
0
LINE
8
BLACK
6
CONTINUOUS
10
6.20028
20
-3.53724
11
6.19968
21
-3.54026
0
LINE
8
BLACK
6
CONTINUOUS
10
6.19968
20
-3.54026
11
6.19797
21
-3.54281
0
LINE
8
BLACK
6
CONTINUOUS
10
6.19797
20
-3.54281
11
6.19541
21
-3.54452
0
LINE
8
BLACK
6
CONTINUOUS
10
6.19541
20
-3.54452
11
6.1924
21
-3.54512
0
LINE
8
BLACK
6
CONTINUOUS
10
6.1924
20
-3.54512
11
6.1324
21
-3.54512
0
LINE
8
BLACK
6
CONTINUOUS
10
6.1324
20
-3.54512
11
6.12939
21
-3.54452
0
LINE
8
BLACK
6
CONTINUOUS
10
6.12939
20
-3.54452
11
6.12683
21
-3.54281
0
LINE
8
BLACK
6
CONTINUOUS
10
6.12683
20
-3.54281
11
6.12513
21
-3.54026
0
LINE
8
BLACK
6
CONTINUOUS
10
6.12513
20
-3.54026
11
6.12453
21
-3.53724
0
LINE
8
BLACK
6
CONTINUOUS
10
6.12453
20
-3.53724
11
6.12453
21
-3.47724
0
LINE
8
BLACK
6
CONTINUOUS
10
6.12453
20
-3.47724
11
6.12513
21
-3.47423
0
LINE
8
BLACK
6
CONTINUOUS
10
6.12513
20
-3.47423
11
6.12683
21
-3.47168
0
LINE
8
BLACK
6
CONTINUOUS
10
6.12683
20
-3.47168
11
6.12939
21
-3.46997
0
LINE
8
BLACK
6
CONTINUOUS
10
6.12939
20
-3.46997
11
6.1324
21
-3.46937
0
LINE
8
BLACK
6
CONTINUOUS
10
6.1324
20
-3.46937
11
6.1924
21
-3.46937
0
LINE
8
BLACK
6
CONTINUOUS
10
6.1924
20
-3.46937
11
6.19541
21
-3.46997
0
LINE
8
BLACK
6
CONTINUOUS
10
5.99541
20
-3.46997
11
5.99797
21
-3.47168
0
LINE
8
BLACK
6
CONTINUOUS
10
5.99797
20
-3.47168
11
5.99968
21
-3.47423
0
LINE
8
BLACK
6
CONTINUOUS
10
5.99968
20
-3.47423
11
6.00028
21
-3.47724
0
LINE
8
BLACK
6
CONTINUOUS
10
6.00028
20
-3.47724
11
6.00028
21
-3.53724
0
LINE
8
BLACK
6
CONTINUOUS
10
6.00028
20
-3.53724
11
5.99968
21
-3.54026
0
LINE
8
BLACK
6
CONTINUOUS
10
5.99968
20
-3.54026
11
5.99797
21
-3.54281
0
LINE
8
BLACK
6
CONTINUOUS
10
5.99797
20
-3.54281
11
5.99541
21
-3.54452
0
LINE
8
BLACK
6
CONTINUOUS
10
5.99541
20
-3.54452
11
5.9924
21
-3.54512
0
LINE
8
BLACK
6
CONTINUOUS
10
5.9924
20
-3.54512
11
5.9324
21
-3.54512
0
LINE
8
BLACK
6
CONTINUOUS
10
5.9324
20
-3.54512
11
5.92939
21
-3.54452
0
LINE
8
BLACK
6
CONTINUOUS
10
5.92939
20
-3.54452
11
5.92683
21
-3.54281
0
LINE
8
BLACK
6
CONTINUOUS
10
5.92683
20
-3.54281
11
5.92513
21
-3.54026
0
LINE
8
BLACK
6
CONTINUOUS
10
5.92513
20
-3.54026
11
5.92453
21
-3.53724
0
LINE
8
BLACK
6
CONTINUOUS
10
5.92453
20
-3.53724
11
5.92453
21
-3.47724
0
LINE
8
BLACK
6
CONTINUOUS
10
5.92453
20
-3.47724
11
5.92513
21
-3.47423
0
LINE
8
BLACK
6
CONTINUOUS
10
5.92513
20
-3.47423
11
5.92683
21
-3.47168
0
LINE
8
BLACK
6
CONTINUOUS
10
5.92683
20
-3.47168
11
5.92939
21
-3.46997
0
LINE
8
BLACK
6
CONTINUOUS
10
5.92939
20
-3.46997
11
5.9324
21
-3.46937
0
LINE
8
BLACK
6
CONTINUOUS
10
5.9324
20
-3.46937
11
5.9924
21
-3.46937
0
LINE
8
BLACK
6
CONTINUOUS
10
5.9924
20
-3.46937
11
5.99541
21
-3.46997
0
LINE
8
BLACK
6
CONTINUOUS
10
5.79541
20
-3.46997
11
5.79797
21
-3.47168
0
LINE
8
BLACK
6
CONTINUOUS
10
5.79797
20
-3.47168
11
5.79968
21
-3.47423
0
LINE
8
BLACK
6
CONTINUOUS
10
5.79968
20
-3.47423
11
5.80028
21
-3.47724
0
LINE
8
BLACK
6
CONTINUOUS
10
5.80028
20
-3.47724
11
5.80028
21
-3.53724
0
LINE
8
BLACK
6
CONTINUOUS
10
5.80028
20
-3.53724
11
5.79968
21
-3.54026
0
LINE
8
BLACK
6
CONTINUOUS
10
5.79968
20
-3.54026
11
5.79797
21
-3.54281
0
LINE
8
BLACK
6
CONTINUOUS
10
5.79797
20
-3.54281
11
5.79541
21
-3.54452
0
LINE
8
BLACK
6
CONTINUOUS
10
5.79541
20
-3.54452
11
5.7924
21
-3.54512
0
LINE
8
BLACK
6
CONTINUOUS
10
5.7924
20
-3.54512
11
5.7324
21
-3.54512
0
LINE
8
BLACK
6
CONTINUOUS
10
5.7324
20
-3.54512
11
5.72939
21
-3.54452
0
LINE
8
BLACK
6
CONTINUOUS
10
5.72939
20
-3.54452
11
5.72683
21
-3.54281
0
LINE
8
BLACK
6
CONTINUOUS
10
5.72683
20
-3.54281
11
5.72513
21
-3.54026
0
LINE
8
BLACK
6
CONTINUOUS
10
5.72513
20
-3.54026
11
5.72453
21
-3.53724
0
LINE
8
BLACK
6
CONTINUOUS
10
5.72453
20
-3.53724
11
5.72453
21
-3.47724
0
LINE
8
BLACK
6
CONTINUOUS
10
5.72453
20
-3.47724
11
5.72513
21
-3.47423
0
LINE
8
BLACK
6
CONTINUOUS
10
5.72513
20
-3.47423
11
5.72683
21
-3.47168
0
LINE
8
BLACK
6
CONTINUOUS
10
5.72683
20
-3.47168
11
5.72939
21
-3.46997
0
LINE
8
BLACK
6
CONTINUOUS
10
5.72939
20
-3.46997
11
5.7324
21
-3.46937
0
LINE
8
BLACK
6
CONTINUOUS
10
5.7324
20
-3.46937
11
5.7924
21
-3.46937
0
LINE
8
BLACK
6
CONTINUOUS
10
5.7924
20
-3.46937
11
5.79541
21
-3.46997
0
LINE
8
BLACK
6
CONTINUOUS
10
5.69541
20
-3.46997
11
5.69797
21
-3.47168
0
LINE
8
BLACK
6
CONTINUOUS
10
5.69797
20
-3.47168
11
5.69968
21
-3.47423
0
LINE
8
BLACK
6
CONTINUOUS
10
5.69968
20
-3.47423
11
5.70028
21
-3.47724
0
LINE
8
BLACK
6
CONTINUOUS
10
5.70028
20
-3.47724
11
5.70028
21
-3.53724
0
LINE
8
BLACK
6
CONTINUOUS
10
5.70028
20
-3.53724
11
5.69968
21
-3.54026
0
LINE
8
BLACK
6
CONTINUOUS
10
5.69968
20
-3.54026
11
5.69797
21
-3.54281
0
LINE
8
BLACK
6
CONTINUOUS
10
5.69797
20
-3.54281
11
5.69541
21
-3.54452
0
LINE
8
BLACK
6
CONTINUOUS
10
5.69541
20
-3.54452
11
5.6924
21
-3.54512
0
LINE
8
BLACK
6
CONTINUOUS
10
5.6924
20
-3.54512
11
5.6324
21
-3.54512
0
LINE
8
BLACK
6
CONTINUOUS
10
5.6324
20
-3.54512
11
5.62939
21
-3.54452
0
LINE
8
BLACK
6
CONTINUOUS
10
5.62939
20
-3.54452
11
5.62683
21
-3.54281
0
LINE
8
BLACK
6
CONTINUOUS
10
5.62683
20
-3.54281
11
5.62513
21
-3.54026
0
LINE
8
BLACK
6
CONTINUOUS
10
5.62513
20
-3.54026
11
5.62453
21
-3.53724
0
LINE
8
BLACK
6
CONTINUOUS
10
5.62453
20
-3.53724
11
5.62453
21
-3.47724
0
LINE
8
BLACK
6
CONTINUOUS
10
5.62453
20
-3.47724
11
5.62513
21
-3.47423
0
LINE
8
BLACK
6
CONTINUOUS
10
5.62513
20
-3.47423
11
5.62683
21
-3.47168
0
LINE
8
BLACK
6
CONTINUOUS
10
5.62683
20
-3.47168
11
5.62939
21
-3.46997
0
LINE
8
BLACK
6
CONTINUOUS
10
5.62939
20
-3.46997
11
5.6324
21
-3.46937
0
LINE
8
BLACK
6
CONTINUOUS
10
5.6324
20
-3.46937
11
5.6924
21
-3.46937
0
LINE
8
BLACK
6
CONTINUOUS
10
5.6924
20
-3.46937
11
5.69541
21
-3.46997
  0
ENDSEC
  0
EOF
