  0
SECTION
  2
HEADER
  9
$ANGBASE
  50
0.0
  9
$ANGDIR
  70
1
  9
$MEASUREMENT
  70
0
  0
ENDSEC
  0
SECTION
  2
TABLES
  0
TABLE
  2
LTYPE
  70
4
  0
LTYPE
  5
40F
  2
CONTINUOUS
  70
0
  3
Solid line
  72
65
  73
0
  40
0.0
  0
LTYPE
  5
410
  2
DASHDOT
 70
0
  3
Dash Dot ____ _ ____ _
 72
65
 73
4
 40
2.0
 49
1.25
 49
-0.25
 49
0.25
 49
-0.25
  0
LTYPE
  5
411
  2
DASHED
 70
0
  3
Dashed __ __ __ __ __
 72
65
 73
2
 40
0.75
 49
0.5
 49
-0.25
  0
LTYPE
  5
43B
  2
DOTTED
 70
0
  3
Dotted .  .  .  .
 72
65
 73
2
 40
0.2
 49
0.0
 49
-0.2
  0
ENDTAB
  0
TABLE
  2
STYLE
  70
4
  0
STYLE
  2
KICAD
  70
0
  40
0
  41
1
  42
1
  50
0
  71
0
  3
isocp.shx
  0
STYLE
  2
KICADB
  70
0
  40
0
  41
1
  42
1
  50
0
  71
0
  3
isocp.shx
  0
STYLE
  2
KICADI
  70
0
  40
0
  41
1
  42
1
  50
15
  71
0
  3
isocp.shx
  0
STYLE
  2
KICADBI
  70
0
  40
0
  41
1
  42
1
  50
15
  71
0
  3
isocp.shx
  0
ENDTAB
  0
TABLE
  2
LAYER
  70
1
  0
LAYER
  2
BLACK
  70
0
  62
7
  6
CONTINUOUS
  0
ENDTAB
  0
ENDSEC
  0
SECTION
  2
ENTITIES
0
LINE
8
BLACK
6
CONTINUOUS
10
5.27105
20
-4.23945
11
5.28453
21
-4.24123
0
LINE
8
BLACK
6
CONTINUOUS
10
5.28453
20
-4.24123
11
5.29772
21
-4.24454
0
LINE
8
BLACK
6
CONTINUOUS
10
5.29772
20
-4.24454
11
5.31044
21
-4.24935
0
LINE
8
BLACK
6
CONTINUOUS
10
5.31044
20
-4.24935
11
5.32252
21
-4.25558
0
LINE
8
BLACK
6
CONTINUOUS
10
5.32252
20
-4.25558
11
5.33381
21
-4.26317
0
LINE
8
BLACK
6
CONTINUOUS
10
5.33381
20
-4.26317
11
5.34415
21
-4.272
0
LINE
8
BLACK
6
CONTINUOUS
10
5.34415
20
-4.272
11
5.35341
21
-4.28196
0
LINE
8
BLACK
6
CONTINUOUS
10
5.35341
20
-4.28196
11
5.36146
21
-4.29292
0
LINE
8
BLACK
6
CONTINUOUS
10
5.36146
20
-4.29292
11
5.36819
21
-4.30473
0
LINE
8
BLACK
6
CONTINUOUS
10
5.36819
20
-4.30473
11
5.37353
21
-4.31724
0
LINE
8
BLACK
6
CONTINUOUS
10
5.37353
20
-4.31724
11
5.37739
21
-4.33027
0
LINE
8
BLACK
6
CONTINUOUS
10
5.37739
20
-4.33027
11
5.37973
21
-4.34367
0
LINE
8
BLACK
6
CONTINUOUS
10
5.37973
20
-4.34367
11
5.38051
21
-4.35724
0
LINE
8
BLACK
6
CONTINUOUS
10
5.38051
20
-4.35724
11
5.38028
21
-4.36466
0
LINE
8
BLACK
6
CONTINUOUS
10
5.38028
20
-4.36466
11
5.37865
21
-4.37816
0
LINE
8
BLACK
6
CONTINUOUS
10
5.37865
20
-4.37816
11
5.37547
21
-4.39138
0
LINE
8
BLACK
6
CONTINUOUS
10
5.37547
20
-4.39138
11
5.3708
21
-4.40415
0
LINE
8
BLACK
6
CONTINUOUS
10
5.3708
20
-4.40415
11
5.36469
21
-4.4163
0
LINE
8
BLACK
6
CONTINUOUS
10
5.36469
20
-4.4163
11
5.35722
21
-4.42766
0
LINE
8
BLACK
6
CONTINUOUS
10
5.35722
20
-4.42766
11
5.3485
21
-4.4381
0
LINE
8
BLACK
6
CONTINUOUS
10
5.3485
20
-4.4381
11
5.33864
21
-4.44746
0
LINE
8
BLACK
6
CONTINUOUS
10
5.33864
20
-4.44746
11
5.32776
21
-4.45562
0
LINE
8
BLACK
6
CONTINUOUS
10
5.32776
20
-4.45562
11
5.31602
21
-4.46248
0
LINE
8
BLACK
6
CONTINUOUS
10
5.31602
20
-4.46248
11
5.30357
21
-4.46795
0
LINE
8
BLACK
6
CONTINUOUS
10
5.30357
20
-4.46795
11
5.29057
21
-4.47194
0
LINE
8
BLACK
6
CONTINUOUS
10
5.29057
20
-4.47194
11
5.2772
21
-4.47442
0
LINE
8
BLACK
6
CONTINUOUS
10
5.2772
20
-4.47442
11
5.26364
21
-4.47535
0
LINE
8
BLACK
6
CONTINUOUS
10
5.26364
20
-4.47535
11
5.25006
21
-4.47471
0
LINE
8
BLACK
6
CONTINUOUS
10
5.25006
20
-4.47471
11
5.23664
21
-4.47251
0
LINE
8
BLACK
6
CONTINUOUS
10
5.23664
20
-4.47251
11
5.22356
21
-4.46878
0
LINE
8
BLACK
6
CONTINUOUS
10
5.22356
20
-4.46878
11
5.211
21
-4.46358
0
LINE
8
BLACK
6
CONTINUOUS
10
5.211
20
-4.46358
11
5.19911
21
-4.45697
0
LINE
8
BLACK
6
CONTINUOUS
10
5.19911
20
-4.45697
11
5.18807
21
-4.44903
0
LINE
8
BLACK
6
CONTINUOUS
10
5.18807
20
-4.44903
11
5.17802
21
-4.43988
0
LINE
8
BLACK
6
CONTINUOUS
10
5.17802
20
-4.43988
11
5.16908
21
-4.42963
0
LINE
8
BLACK
6
CONTINUOUS
10
5.16908
20
-4.42963
11
5.16137
21
-4.41843
0
LINE
8
BLACK
6
CONTINUOUS
10
5.16137
20
-4.41843
11
5.15501
21
-4.40641
0
LINE
8
BLACK
6
CONTINUOUS
10
5.15501
20
-4.40641
11
5.15007
21
-4.39374
0
LINE
8
BLACK
6
CONTINUOUS
10
5.15007
20
-4.39374
11
5.14662
21
-4.38059
0
LINE
8
BLACK
6
CONTINUOUS
10
5.14662
20
-4.38059
11
5.14471
21
-4.36713
0
LINE
8
BLACK
6
CONTINUOUS
10
5.14471
20
-4.36713
11
5.14435
21
-4.35353
0
LINE
8
BLACK
6
CONTINUOUS
10
5.14435
20
-4.35353
11
5.14556
21
-4.33999
0
LINE
8
BLACK
6
CONTINUOUS
10
5.14556
20
-4.33999
11
5.14832
21
-4.32667
0
LINE
8
BLACK
6
CONTINUOUS
10
5.14832
20
-4.32667
11
5.15259
21
-4.31376
0
LINE
8
BLACK
6
CONTINUOUS
10
5.15259
20
-4.31376
11
5.15831
21
-4.30143
0
LINE
8
BLACK
6
CONTINUOUS
10
5.15831
20
-4.30143
11
5.16542
21
-4.28984
0
LINE
8
BLACK
6
CONTINUOUS
10
5.16542
20
-4.28984
11
5.17381
21
-4.27914
0
LINE
8
BLACK
6
CONTINUOUS
10
5.17381
20
-4.27914
11
5.18337
21
-4.26947
0
LINE
8
BLACK
6
CONTINUOUS
10
5.18337
20
-4.26947
11
5.19398
21
-4.26097
0
LINE
8
BLACK
6
CONTINUOUS
10
5.19398
20
-4.26097
11
5.2055
21
-4.25374
0
LINE
8
BLACK
6
CONTINUOUS
10
5.2055
20
-4.25374
11
5.21777
21
-4.24789
0
LINE
8
BLACK
6
CONTINUOUS
10
5.21777
20
-4.24789
11
5.23064
21
-4.24348
0
LINE
8
BLACK
6
CONTINUOUS
10
5.23064
20
-4.24348
11
5.24393
21
-4.24059
0
LINE
8
BLACK
6
CONTINUOUS
10
5.24393
20
-4.24059
11
5.25746
21
-4.23924
0
LINE
8
BLACK
6
CONTINUOUS
10
5.25746
20
-4.23924
11
5.27105
21
-4.23945
0
LINE
8
BLACK
6
CONTINUOUS
10
6.47105
20
-4.23945
11
6.48453
21
-4.24123
0
LINE
8
BLACK
6
CONTINUOUS
10
6.48453
20
-4.24123
11
6.49772
21
-4.24454
0
LINE
8
BLACK
6
CONTINUOUS
10
6.49772
20
-4.24454
11
6.51044
21
-4.24935
0
LINE
8
BLACK
6
CONTINUOUS
10
6.51044
20
-4.24935
11
6.52252
21
-4.25558
0
LINE
8
BLACK
6
CONTINUOUS
10
6.52252
20
-4.25558
11
6.53381
21
-4.26317
0
LINE
8
BLACK
6
CONTINUOUS
10
6.53381
20
-4.26317
11
6.54415
21
-4.272
0
LINE
8
BLACK
6
CONTINUOUS
10
6.54415
20
-4.272
11
6.55341
21
-4.28196
0
LINE
8
BLACK
6
CONTINUOUS
10
6.55341
20
-4.28196
11
6.56146
21
-4.29292
0
LINE
8
BLACK
6
CONTINUOUS
10
6.56146
20
-4.29292
11
6.56819
21
-4.30473
0
LINE
8
BLACK
6
CONTINUOUS
10
6.56819
20
-4.30473
11
6.57353
21
-4.31724
0
LINE
8
BLACK
6
CONTINUOUS
10
6.57353
20
-4.31724
11
6.57739
21
-4.33027
0
LINE
8
BLACK
6
CONTINUOUS
10
6.57739
20
-4.33027
11
6.57973
21
-4.34367
0
LINE
8
BLACK
6
CONTINUOUS
10
6.57973
20
-4.34367
11
6.58051
21
-4.35724
0
LINE
8
BLACK
6
CONTINUOUS
10
6.58051
20
-4.35724
11
6.58028
21
-4.36466
0
LINE
8
BLACK
6
CONTINUOUS
10
6.58028
20
-4.36466
11
6.57865
21
-4.37816
0
LINE
8
BLACK
6
CONTINUOUS
10
6.57865
20
-4.37816
11
6.57547
21
-4.39138
0
LINE
8
BLACK
6
CONTINUOUS
10
6.57547
20
-4.39138
11
6.5708
21
-4.40415
0
LINE
8
BLACK
6
CONTINUOUS
10
6.5708
20
-4.40415
11
6.56469
21
-4.4163
0
LINE
8
BLACK
6
CONTINUOUS
10
6.56469
20
-4.4163
11
6.55722
21
-4.42766
0
LINE
8
BLACK
6
CONTINUOUS
10
6.55722
20
-4.42766
11
6.5485
21
-4.4381
0
LINE
8
BLACK
6
CONTINUOUS
10
6.5485
20
-4.4381
11
6.53864
21
-4.44746
0
LINE
8
BLACK
6
CONTINUOUS
10
6.53864
20
-4.44746
11
6.52776
21
-4.45562
0
LINE
8
BLACK
6
CONTINUOUS
10
6.52776
20
-4.45562
11
6.51602
21
-4.46248
0
LINE
8
BLACK
6
CONTINUOUS
10
6.51602
20
-4.46248
11
6.50357
21
-4.46795
0
LINE
8
BLACK
6
CONTINUOUS
10
6.50357
20
-4.46795
11
6.49057
21
-4.47194
0
LINE
8
BLACK
6
CONTINUOUS
10
6.49057
20
-4.47194
11
6.4772
21
-4.47442
0
LINE
8
BLACK
6
CONTINUOUS
10
6.4772
20
-4.47442
11
6.46364
21
-4.47535
0
LINE
8
BLACK
6
CONTINUOUS
10
6.46364
20
-4.47535
11
6.45006
21
-4.47471
0
LINE
8
BLACK
6
CONTINUOUS
10
6.45006
20
-4.47471
11
6.43664
21
-4.47251
0
LINE
8
BLACK
6
CONTINUOUS
10
6.43664
20
-4.47251
11
6.42356
21
-4.46878
0
LINE
8
BLACK
6
CONTINUOUS
10
6.42356
20
-4.46878
11
6.411
21
-4.46358
0
LINE
8
BLACK
6
CONTINUOUS
10
6.411
20
-4.46358
11
6.39911
21
-4.45697
0
LINE
8
BLACK
6
CONTINUOUS
10
6.39911
20
-4.45697
11
6.38807
21
-4.44903
0
LINE
8
BLACK
6
CONTINUOUS
10
6.38807
20
-4.44903
11
6.37802
21
-4.43988
0
LINE
8
BLACK
6
CONTINUOUS
10
6.37802
20
-4.43988
11
6.36908
21
-4.42963
0
LINE
8
BLACK
6
CONTINUOUS
10
6.36908
20
-4.42963
11
6.36137
21
-4.41843
0
LINE
8
BLACK
6
CONTINUOUS
10
6.36137
20
-4.41843
11
6.35501
21
-4.40641
0
LINE
8
BLACK
6
CONTINUOUS
10
6.35501
20
-4.40641
11
6.35007
21
-4.39374
0
LINE
8
BLACK
6
CONTINUOUS
10
6.35007
20
-4.39374
11
6.34662
21
-4.38059
0
LINE
8
BLACK
6
CONTINUOUS
10
6.34662
20
-4.38059
11
6.34471
21
-4.36713
0
LINE
8
BLACK
6
CONTINUOUS
10
6.34471
20
-4.36713
11
6.34435
21
-4.35353
0
LINE
8
BLACK
6
CONTINUOUS
10
6.34435
20
-4.35353
11
6.34556
21
-4.33999
0
LINE
8
BLACK
6
CONTINUOUS
10
6.34556
20
-4.33999
11
6.34832
21
-4.32667
0
LINE
8
BLACK
6
CONTINUOUS
10
6.34832
20
-4.32667
11
6.35259
21
-4.31376
0
LINE
8
BLACK
6
CONTINUOUS
10
6.35259
20
-4.31376
11
6.35831
21
-4.30143
0
LINE
8
BLACK
6
CONTINUOUS
10
6.35831
20
-4.30143
11
6.36542
21
-4.28984
0
LINE
8
BLACK
6
CONTINUOUS
10
6.36542
20
-4.28984
11
6.37381
21
-4.27914
0
LINE
8
BLACK
6
CONTINUOUS
10
6.37381
20
-4.27914
11
6.38337
21
-4.26947
0
LINE
8
BLACK
6
CONTINUOUS
10
6.38337
20
-4.26947
11
6.39398
21
-4.26097
0
LINE
8
BLACK
6
CONTINUOUS
10
6.39398
20
-4.26097
11
6.4055
21
-4.25374
0
LINE
8
BLACK
6
CONTINUOUS
10
6.4055
20
-4.25374
11
6.41777
21
-4.24789
0
LINE
8
BLACK
6
CONTINUOUS
10
6.41777
20
-4.24789
11
6.43064
21
-4.24348
0
LINE
8
BLACK
6
CONTINUOUS
10
6.43064
20
-4.24348
11
6.44393
21
-4.24059
0
LINE
8
BLACK
6
CONTINUOUS
10
6.44393
20
-4.24059
11
6.45746
21
-4.23924
0
LINE
8
BLACK
6
CONTINUOUS
10
6.45746
20
-4.23924
11
6.47105
21
-4.23945
0
LINE
8
BLACK
6
CONTINUOUS
10
6.47105
20
-3.43945
11
6.48453
21
-3.44123
0
LINE
8
BLACK
6
CONTINUOUS
10
6.48453
20
-3.44123
11
6.49772
21
-3.44454
0
LINE
8
BLACK
6
CONTINUOUS
10
6.49772
20
-3.44454
11
6.51044
21
-3.44935
0
LINE
8
BLACK
6
CONTINUOUS
10
6.51044
20
-3.44935
11
6.52252
21
-3.45558
0
LINE
8
BLACK
6
CONTINUOUS
10
6.52252
20
-3.45558
11
6.53381
21
-3.46317
0
LINE
8
BLACK
6
CONTINUOUS
10
6.53381
20
-3.46317
11
6.54415
21
-3.472
0
LINE
8
BLACK
6
CONTINUOUS
10
6.54415
20
-3.472
11
6.55341
21
-3.48196
0
LINE
8
BLACK
6
CONTINUOUS
10
6.55341
20
-3.48196
11
6.56146
21
-3.49292
0
LINE
8
BLACK
6
CONTINUOUS
10
6.56146
20
-3.49292
11
6.56819
21
-3.50473
0
LINE
8
BLACK
6
CONTINUOUS
10
6.56819
20
-3.50473
11
6.57353
21
-3.51724
0
LINE
8
BLACK
6
CONTINUOUS
10
6.57353
20
-3.51724
11
6.57739
21
-3.53027
0
LINE
8
BLACK
6
CONTINUOUS
10
6.57739
20
-3.53027
11
6.57973
21
-3.54367
0
LINE
8
BLACK
6
CONTINUOUS
10
6.57973
20
-3.54367
11
6.58051
21
-3.55724
0
LINE
8
BLACK
6
CONTINUOUS
10
6.58051
20
-3.55724
11
6.58028
21
-3.56466
0
LINE
8
BLACK
6
CONTINUOUS
10
6.58028
20
-3.56466
11
6.57865
21
-3.57816
0
LINE
8
BLACK
6
CONTINUOUS
10
6.57865
20
-3.57816
11
6.57547
21
-3.59138
0
LINE
8
BLACK
6
CONTINUOUS
10
6.57547
20
-3.59138
11
6.5708
21
-3.60415
0
LINE
8
BLACK
6
CONTINUOUS
10
6.5708
20
-3.60415
11
6.56469
21
-3.6163
0
LINE
8
BLACK
6
CONTINUOUS
10
6.56469
20
-3.6163
11
6.55722
21
-3.62766
0
LINE
8
BLACK
6
CONTINUOUS
10
6.55722
20
-3.62766
11
6.5485
21
-3.6381
0
LINE
8
BLACK
6
CONTINUOUS
10
6.5485
20
-3.6381
11
6.53864
21
-3.64746
0
LINE
8
BLACK
6
CONTINUOUS
10
6.53864
20
-3.64746
11
6.52776
21
-3.65562
0
LINE
8
BLACK
6
CONTINUOUS
10
6.52776
20
-3.65562
11
6.51602
21
-3.66248
0
LINE
8
BLACK
6
CONTINUOUS
10
6.51602
20
-3.66248
11
6.50357
21
-3.66795
0
LINE
8
BLACK
6
CONTINUOUS
10
6.50357
20
-3.66795
11
6.49057
21
-3.67195
0
LINE
8
BLACK
6
CONTINUOUS
10
6.49057
20
-3.67195
11
6.4772
21
-3.67442
0
LINE
8
BLACK
6
CONTINUOUS
10
6.4772
20
-3.67442
11
6.46364
21
-3.67535
0
LINE
8
BLACK
6
CONTINUOUS
10
6.46364
20
-3.67535
11
6.45006
21
-3.67471
0
LINE
8
BLACK
6
CONTINUOUS
10
6.45006
20
-3.67471
11
6.43664
21
-3.67251
0
LINE
8
BLACK
6
CONTINUOUS
10
6.43664
20
-3.67251
11
6.42356
21
-3.66878
0
LINE
8
BLACK
6
CONTINUOUS
10
6.42356
20
-3.66878
11
6.411
21
-3.66358
0
LINE
8
BLACK
6
CONTINUOUS
10
6.411
20
-3.66358
11
6.39911
21
-3.65697
0
LINE
8
BLACK
6
CONTINUOUS
10
6.39911
20
-3.65697
11
6.38807
21
-3.64903
0
LINE
8
BLACK
6
CONTINUOUS
10
6.38807
20
-3.64903
11
6.37802
21
-3.63988
0
LINE
8
BLACK
6
CONTINUOUS
10
6.37802
20
-3.63988
11
6.36908
21
-3.62963
0
LINE
8
BLACK
6
CONTINUOUS
10
6.36908
20
-3.62963
11
6.36137
21
-3.61843
0
LINE
8
BLACK
6
CONTINUOUS
10
6.36137
20
-3.61843
11
6.35501
21
-3.60641
0
LINE
8
BLACK
6
CONTINUOUS
10
6.35501
20
-3.60641
11
6.35007
21
-3.59374
0
LINE
8
BLACK
6
CONTINUOUS
10
6.35007
20
-3.59374
11
6.34662
21
-3.58059
0
LINE
8
BLACK
6
CONTINUOUS
10
6.34662
20
-3.58059
11
6.34471
21
-3.56713
0
LINE
8
BLACK
6
CONTINUOUS
10
6.34471
20
-3.56713
11
6.34435
21
-3.55353
0
LINE
8
BLACK
6
CONTINUOUS
10
6.34435
20
-3.55353
11
6.34556
21
-3.53999
0
LINE
8
BLACK
6
CONTINUOUS
10
6.34556
20
-3.53999
11
6.34832
21
-3.52667
0
LINE
8
BLACK
6
CONTINUOUS
10
6.34832
20
-3.52667
11
6.35259
21
-3.51376
0
LINE
8
BLACK
6
CONTINUOUS
10
6.35259
20
-3.51376
11
6.35831
21
-3.50143
0
LINE
8
BLACK
6
CONTINUOUS
10
6.35831
20
-3.50143
11
6.36542
21
-3.48984
0
LINE
8
BLACK
6
CONTINUOUS
10
6.36542
20
-3.48984
11
6.37381
21
-3.47914
0
LINE
8
BLACK
6
CONTINUOUS
10
6.37381
20
-3.47914
11
6.38337
21
-3.46947
0
LINE
8
BLACK
6
CONTINUOUS
10
6.38337
20
-3.46947
11
6.39398
21
-3.46097
0
LINE
8
BLACK
6
CONTINUOUS
10
6.39398
20
-3.46097
11
6.4055
21
-3.45374
0
LINE
8
BLACK
6
CONTINUOUS
10
6.4055
20
-3.45374
11
6.41777
21
-3.44789
0
LINE
8
BLACK
6
CONTINUOUS
10
6.41777
20
-3.44789
11
6.43064
21
-3.44348
0
LINE
8
BLACK
6
CONTINUOUS
10
6.43064
20
-3.44348
11
6.44393
21
-3.44059
0
LINE
8
BLACK
6
CONTINUOUS
10
6.44393
20
-3.44059
11
6.45746
21
-3.43924
0
LINE
8
BLACK
6
CONTINUOUS
10
6.45746
20
-3.43924
11
6.47105
21
-3.43945
0
LINE
8
BLACK
6
CONTINUOUS
10
5.27105
20
-3.43945
11
5.28453
21
-3.44123
0
LINE
8
BLACK
6
CONTINUOUS
10
5.28453
20
-3.44123
11
5.29772
21
-3.44454
0
LINE
8
BLACK
6
CONTINUOUS
10
5.29772
20
-3.44454
11
5.31044
21
-3.44935
0
LINE
8
BLACK
6
CONTINUOUS
10
5.31044
20
-3.44935
11
5.32252
21
-3.45558
0
LINE
8
BLACK
6
CONTINUOUS
10
5.32252
20
-3.45558
11
5.33381
21
-3.46317
0
LINE
8
BLACK
6
CONTINUOUS
10
5.33381
20
-3.46317
11
5.34415
21
-3.472
0
LINE
8
BLACK
6
CONTINUOUS
10
5.34415
20
-3.472
11
5.35341
21
-3.48196
0
LINE
8
BLACK
6
CONTINUOUS
10
5.35341
20
-3.48196
11
5.36146
21
-3.49292
0
LINE
8
BLACK
6
CONTINUOUS
10
5.36146
20
-3.49292
11
5.36819
21
-3.50473
0
LINE
8
BLACK
6
CONTINUOUS
10
5.36819
20
-3.50473
11
5.37353
21
-3.51724
0
LINE
8
BLACK
6
CONTINUOUS
10
5.37353
20
-3.51724
11
5.37739
21
-3.53027
0
LINE
8
BLACK
6
CONTINUOUS
10
5.37739
20
-3.53027
11
5.37973
21
-3.54367
0
LINE
8
BLACK
6
CONTINUOUS
10
5.37973
20
-3.54367
11
5.38051
21
-3.55724
0
LINE
8
BLACK
6
CONTINUOUS
10
5.38051
20
-3.55724
11
5.38028
21
-3.56466
0
LINE
8
BLACK
6
CONTINUOUS
10
5.38028
20
-3.56466
11
5.37865
21
-3.57816
0
LINE
8
BLACK
6
CONTINUOUS
10
5.37865
20
-3.57816
11
5.37547
21
-3.59138
0
LINE
8
BLACK
6
CONTINUOUS
10
5.37547
20
-3.59138
11
5.3708
21
-3.60415
0
LINE
8
BLACK
6
CONTINUOUS
10
5.3708
20
-3.60415
11
5.36469
21
-3.6163
0
LINE
8
BLACK
6
CONTINUOUS
10
5.36469
20
-3.6163
11
5.35722
21
-3.62766
0
LINE
8
BLACK
6
CONTINUOUS
10
5.35722
20
-3.62766
11
5.3485
21
-3.6381
0
LINE
8
BLACK
6
CONTINUOUS
10
5.3485
20
-3.6381
11
5.33864
21
-3.64746
0
LINE
8
BLACK
6
CONTINUOUS
10
5.33864
20
-3.64746
11
5.32776
21
-3.65562
0
LINE
8
BLACK
6
CONTINUOUS
10
5.32776
20
-3.65562
11
5.31602
21
-3.66248
0
LINE
8
BLACK
6
CONTINUOUS
10
5.31602
20
-3.66248
11
5.30357
21
-3.66795
0
LINE
8
BLACK
6
CONTINUOUS
10
5.30357
20
-3.66795
11
5.29057
21
-3.67195
0
LINE
8
BLACK
6
CONTINUOUS
10
5.29057
20
-3.67195
11
5.2772
21
-3.67442
0
LINE
8
BLACK
6
CONTINUOUS
10
5.2772
20
-3.67442
11
5.26364
21
-3.67535
0
LINE
8
BLACK
6
CONTINUOUS
10
5.26364
20
-3.67535
11
5.25006
21
-3.67471
0
LINE
8
BLACK
6
CONTINUOUS
10
5.25006
20
-3.67471
11
5.23664
21
-3.67251
0
LINE
8
BLACK
6
CONTINUOUS
10
5.23664
20
-3.67251
11
5.22356
21
-3.66878
0
LINE
8
BLACK
6
CONTINUOUS
10
5.22356
20
-3.66878
11
5.211
21
-3.66358
0
LINE
8
BLACK
6
CONTINUOUS
10
5.211
20
-3.66358
11
5.19911
21
-3.65697
0
LINE
8
BLACK
6
CONTINUOUS
10
5.19911
20
-3.65697
11
5.18807
21
-3.64903
0
LINE
8
BLACK
6
CONTINUOUS
10
5.18807
20
-3.64903
11
5.17802
21
-3.63988
0
LINE
8
BLACK
6
CONTINUOUS
10
5.17802
20
-3.63988
11
5.16908
21
-3.62963
0
LINE
8
BLACK
6
CONTINUOUS
10
5.16908
20
-3.62963
11
5.16137
21
-3.61843
0
LINE
8
BLACK
6
CONTINUOUS
10
5.16137
20
-3.61843
11
5.15501
21
-3.60641
0
LINE
8
BLACK
6
CONTINUOUS
10
5.15501
20
-3.60641
11
5.15007
21
-3.59374
0
LINE
8
BLACK
6
CONTINUOUS
10
5.15007
20
-3.59374
11
5.14662
21
-3.58059
0
LINE
8
BLACK
6
CONTINUOUS
10
5.14662
20
-3.58059
11
5.14471
21
-3.56713
0
LINE
8
BLACK
6
CONTINUOUS
10
5.14471
20
-3.56713
11
5.14435
21
-3.55353
0
LINE
8
BLACK
6
CONTINUOUS
10
5.14435
20
-3.55353
11
5.14556
21
-3.53999
0
LINE
8
BLACK
6
CONTINUOUS
10
5.14556
20
-3.53999
11
5.14832
21
-3.52667
0
LINE
8
BLACK
6
CONTINUOUS
10
5.14832
20
-3.52667
11
5.15259
21
-3.51376
0
LINE
8
BLACK
6
CONTINUOUS
10
5.15259
20
-3.51376
11
5.15831
21
-3.50143
0
LINE
8
BLACK
6
CONTINUOUS
10
5.15831
20
-3.50143
11
5.16542
21
-3.48984
0
LINE
8
BLACK
6
CONTINUOUS
10
5.16542
20
-3.48984
11
5.17381
21
-3.47914
0
LINE
8
BLACK
6
CONTINUOUS
10
5.17381
20
-3.47914
11
5.18337
21
-3.46947
0
LINE
8
BLACK
6
CONTINUOUS
10
5.18337
20
-3.46947
11
5.19398
21
-3.46097
0
LINE
8
BLACK
6
CONTINUOUS
10
5.19398
20
-3.46097
11
5.2055
21
-3.45374
0
LINE
8
BLACK
6
CONTINUOUS
10
5.2055
20
-3.45374
11
5.21777
21
-3.44789
0
LINE
8
BLACK
6
CONTINUOUS
10
5.21777
20
-3.44789
11
5.23064
21
-3.44348
0
LINE
8
BLACK
6
CONTINUOUS
10
5.23064
20
-3.44348
11
5.24393
21
-3.44059
0
LINE
8
BLACK
6
CONTINUOUS
10
5.24393
20
-3.44059
11
5.25746
21
-3.43924
0
LINE
8
BLACK
6
CONTINUOUS
10
5.25746
20
-3.43924
11
5.27105
21
-3.43945
  0
ENDSEC
  0
EOF
