  0
SECTION
  2
HEADER
  9
$ANGBASE
  50
0.0
  9
$ANGDIR
  70
1
  9
$MEASUREMENT
  70
0
  0
ENDSEC
  0
SECTION
  2
TABLES
  0
TABLE
  2
LTYPE
  70
4
  0
LTYPE
  5
40F
  2
CONTINUOUS
  70
0
  3
Solid line
  72
65
  73
0
  40
0.0
  0
LTYPE
  5
410
  2
DASHDOT
 70
0
  3
Dash Dot ____ _ ____ _
 72
65
 73
4
 40
2.0
 49
1.25
 49
-0.25
 49
0.25
 49
-0.25
  0
LTYPE
  5
411
  2
DASHED
 70
0
  3
Dashed __ __ __ __ __
 72
65
 73
2
 40
0.75
 49
0.5
 49
-0.25
  0
LTYPE
  5
43B
  2
DOTTED
 70
0
  3
Dotted .  .  .  .
 72
65
 73
2
 40
0.2
 49
0.0
 49
-0.2
  0
ENDTAB
  0
TABLE
  2
STYLE
  70
4
  0
STYLE
  2
KICAD
  70
0
  40
0
  41
1
  42
1
  50
0
  71
0
  3
isocp.shx
  0
STYLE
  2
KICADB
  70
0
  40
0
  41
1
  42
1
  50
0
  71
0
  3
isocp.shx
  0
STYLE
  2
KICADI
  70
0
  40
0
  41
1
  42
1
  50
15
  71
0
  3
isocp.shx
  0
STYLE
  2
KICADBI
  70
0
  40
0
  41
1
  42
1
  50
15
  71
0
  3
isocp.shx
  0
ENDTAB
  0
TABLE
  2
LAYER
  70
1
  0
LAYER
  2
BLACK
  70
0
  62
7
  6
CONTINUOUS
  0
ENDTAB
  0
ENDSEC
  0
SECTION
  2
ENTITIES
0
LINE
8
BLACK
6
CONTINUOUS
10
0.994213
20
0.305354
11
0.994909
21
0.305066
0
LINE
8
BLACK
6
CONTINUOUS
10
0.994909
20
0.305066
11
0.995197
21
0.30437
0
LINE
8
BLACK
6
CONTINUOUS
10
0.995197
20
0.30437
11
0.995197
21
0.174449
0
LINE
8
BLACK
6
CONTINUOUS
10
0.995197
20
0.174449
11
0.994909
21
0.173753
0
LINE
8
BLACK
6
CONTINUOUS
10
0.994909
20
0.173753
11
0.994213
21
0.173465
0
LINE
8
BLACK
6
CONTINUOUS
10
0.994213
20
0.173465
11
0.895787
21
0.173465
0
LINE
8
BLACK
6
CONTINUOUS
10
0.895787
20
0.173465
11
0.895091
21
0.173753
0
LINE
8
BLACK
6
CONTINUOUS
10
0.895091
20
0.173753
11
0.894803
21
0.174449
0
LINE
8
BLACK
6
CONTINUOUS
10
0.894803
20
0.174449
11
0.894803
21
0.30437
0
LINE
8
BLACK
6
CONTINUOUS
10
0.894803
20
0.30437
11
0.895091
21
0.305066
0
LINE
8
BLACK
6
CONTINUOUS
10
0.895091
20
0.305066
11
0.895787
21
0.305354
0
LINE
8
BLACK
6
CONTINUOUS
10
0.895787
20
0.305354
11
0.994213
21
0.305354
0
LINE
8
BLACK
6
CONTINUOUS
10
0.896772
20
0.303386
11
0.896772
21
0.175433
0
LINE
8
BLACK
6
CONTINUOUS
10
0.896772
20
0.175433
11
0.993228
21
0.175433
0
LINE
8
BLACK
6
CONTINUOUS
10
0.993228
20
0.175433
11
0.993228
21
0.303386
0
LINE
8
BLACK
6
CONTINUOUS
10
0.993228
20
0.303386
11
0.896772
21
0.303386
0
LINE
8
BLACK
6
CONTINUOUS
10
0.109055
20
0.344882
11
0.109751
21
0.344594
0
LINE
8
BLACK
6
CONTINUOUS
10
0.109751
20
0.344594
11
0.110039
21
0.343898
0
LINE
8
BLACK
6
CONTINUOUS
10
0.110039
20
0.343898
11
0.110039
21
0.206102
0
LINE
8
BLACK
6
CONTINUOUS
10
0.110039
20
0.206102
11
0.109751
21
0.205406
0
LINE
8
BLACK
6
CONTINUOUS
10
0.109751
20
0.205406
11
0.109055
21
0.205118
0
LINE
8
BLACK
6
CONTINUOUS
10
0.109055
20
0.205118
11
-0.166535
21
0.205118
0
LINE
8
BLACK
6
CONTINUOUS
10
-0.166535
20
0.205118
11
-0.167231
21
0.205406
0
LINE
8
BLACK
6
CONTINUOUS
10
-0.167231
20
0.205406
11
-0.16752
21
0.206102
0
LINE
8
BLACK
6
CONTINUOUS
10
-0.16752
20
0.206102
11
-0.16752
21
0.343898
0
LINE
8
BLACK
6
CONTINUOUS
10
-0.16752
20
0.343898
11
-0.167231
21
0.344594
0
LINE
8
BLACK
6
CONTINUOUS
10
-0.167231
20
0.344594
11
-0.166535
21
0.344882
0
LINE
8
BLACK
6
CONTINUOUS
10
-0.166535
20
0.344882
11
0.109055
21
0.344882
0
LINE
8
BLACK
6
CONTINUOUS
10
-0.165551
20
0.342913
11
-0.165551
21
0.207087
0
LINE
8
BLACK
6
CONTINUOUS
10
-0.165551
20
0.207087
11
0.108071
21
0.207087
0
LINE
8
BLACK
6
CONTINUOUS
10
0.108071
20
0.207087
11
0.108071
21
0.342913
0
LINE
8
BLACK
6
CONTINUOUS
10
0.108071
20
0.342913
11
-0.165551
21
0.342913
0
LINE
8
BLACK
6
CONTINUOUS
10
0.877362
20
0.553346
11
0.878058
21
0.553058
0
LINE
8
BLACK
6
CONTINUOUS
10
0.878058
20
0.553058
11
0.878346
21
0.552362
0
LINE
8
BLACK
6
CONTINUOUS
10
0.878346
20
0.552362
11
0.878346
21
0.347638
0
LINE
8
BLACK
6
CONTINUOUS
10
0.878346
20
0.347638
11
0.878058
21
0.346942
0
LINE
8
BLACK
6
CONTINUOUS
10
0.878058
20
0.346942
11
0.877362
21
0.346654
0
LINE
8
BLACK
6
CONTINUOUS
10
0.877362
20
0.346654
11
0.672638
21
0.346654
0
LINE
8
BLACK
6
CONTINUOUS
10
0.672638
20
0.346654
11
0.671942
21
0.346942
0
LINE
8
BLACK
6
CONTINUOUS
10
0.671942
20
0.346942
11
0.671654
21
0.347638
0
LINE
8
BLACK
6
CONTINUOUS
10
0.671654
20
0.347638
11
0.671654
21
0.552362
0
LINE
8
BLACK
6
CONTINUOUS
10
0.671654
20
0.552362
11
0.671942
21
0.553058
0
LINE
8
BLACK
6
CONTINUOUS
10
0.671942
20
0.553058
11
0.672638
21
0.553346
0
LINE
8
BLACK
6
CONTINUOUS
10
0.672638
20
0.553346
11
0.877362
21
0.553346
0
LINE
8
BLACK
6
CONTINUOUS
10
0.673622
20
0.551378
11
0.673622
21
0.348622
0
LINE
8
BLACK
6
CONTINUOUS
10
0.673622
20
0.348622
11
0.876378
21
0.348622
0
LINE
8
BLACK
6
CONTINUOUS
10
0.876378
20
0.348622
11
0.876378
21
0.551378
0
LINE
8
BLACK
6
CONTINUOUS
10
0.876378
20
0.551378
11
0.673622
21
0.551378
0
LINE
8
BLACK
6
CONTINUOUS
10
0.535925
20
0.642913
11
0.536621
21
0.642625
0
LINE
8
BLACK
6
CONTINUOUS
10
0.536621
20
0.642625
11
0.536909
21
0.641929
0
LINE
8
BLACK
6
CONTINUOUS
10
0.536909
20
0.641929
11
0.536909
21
0.508071
0
LINE
8
BLACK
6
CONTINUOUS
10
0.536909
20
0.508071
11
0.536621
21
0.507375
0
LINE
8
BLACK
6
CONTINUOUS
10
0.536621
20
0.507375
11
0.535925
21
0.507087
0
LINE
8
BLACK
6
CONTINUOUS
10
0.535925
20
0.507087
11
0.374508
21
0.507087
0
LINE
8
BLACK
6
CONTINUOUS
10
0.374508
20
0.507087
11
0.373812
21
0.507375
0
LINE
8
BLACK
6
CONTINUOUS
10
0.373812
20
0.507375
11
0.373524
21
0.508071
0
LINE
8
BLACK
6
CONTINUOUS
10
0.373524
20
0.508071
11
0.373524
21
0.508071
0
LINE
8
BLACK
6
CONTINUOUS
10
0.373524
20
0.508071
11
0.373524
21
0.641929
0
LINE
8
BLACK
6
CONTINUOUS
10
0.373524
20
0.641929
11
0.373812
21
0.642625
0
LINE
8
BLACK
6
CONTINUOUS
10
0.373812
20
0.642625
11
0.374508
21
0.642913
0
LINE
8
BLACK
6
CONTINUOUS
10
0.374508
20
0.642913
11
0.535925
21
0.642913
0
LINE
8
BLACK
6
CONTINUOUS
10
0.375492
20
0.640945
11
0.375492
21
0.509055
0
LINE
8
BLACK
6
CONTINUOUS
10
0.375492
20
0.509055
11
0.534941
21
0.509055
0
LINE
8
BLACK
6
CONTINUOUS
10
0.534941
20
0.509055
11
0.534941
21
0.640945
0
LINE
8
BLACK
6
CONTINUOUS
10
0.534941
20
0.640945
11
0.375492
21
0.640945
  0
ENDSEC
  0
EOF
