<?xml version='1.0' encoding='ASCII' standalone='yes'?>
<svg xmlns:svg="http://www.w3.org/2000/svg" xmlns="http://www.w3.org/2000/svg" xmlns:xlink="http://www.w3.org/1999/xlink" version="1.1" width="297.0022mm" height="210.0072mm" viewBox="0.0000 0.0000 297.0022 210.0072">
<title>SVG Image created as USB232R02-B_Fab.svg date 2023/09/11 01:12:21 </title>
  <desc>Image generated by PCBNEW </desc>
<g style="fill:#000084; fill-opacity:1.0000;stroke:#000084; stroke-opacity:1.0000; stroke-linecap:round; stroke-linejoin:round;" transform="translate(0 0) scale(1 1)">
</g>
<g style="fill:#000084; fill-opacity:0.0;  stroke:#000084; stroke-width:0.0000; stroke-opacity:1;  stroke-linecap:round; stroke-linejoin:round;">
</g>
<g style="fill:#000084; fill-opacity:0.01;  stroke:#000084; stroke-width:0.7627; stroke-opacity:1;  stroke-linecap:round; stroke-linejoin:round;">
<text x="212.7993" y="15.8464" transform="scale(-1 1) translate(-425.598562 0)" textLength="8.4114" font-size="4.6590" lengthAdjust="spacingAndGlyphs" text-anchor="middle" opacity="0.01" style="font-family:monospace">R3</text>
<g class="stroked-text"><desc>R3</desc>
<path d="M212.2169 15.6761 L211.0522 14.0122 "/>
<path d="M210.2202 15.6761 L210.2202 12.1819 "/>
<path d="M210.2202 12.1819 L211.5513 12.1819 "/>
<path d="M211.5513 12.1819 L211.8841 12.3482 "/>
<path d="M211.8841 12.3482 L212.0505 12.5146 "/>
<path d="M212.0505 12.5146 L212.2169 12.8474 "/>
<path d="M212.2169 12.8474 L212.2169 13.3466 "/>
<path d="M212.2169 13.3466 L212.0505 13.6794 "/>
<path d="M212.0505 13.6794 L211.8841 13.8458 "/>
<path d="M211.8841 13.8458 L211.5513 14.0122 "/>
<path d="M211.5513 14.0122 L210.2202 14.0122 "/>
<path d="M213.3817 12.1819 L215.5448 12.1819 "/>
<path d="M215.5448 12.1819 L214.3800 13.5130 "/>
<path d="M214.3800 13.5130 L214.8792 13.5130 "/>
<path d="M214.8792 13.5130 L215.2120 13.6794 "/>
<path d="M215.2120 13.6794 L215.3784 13.8458 "/>
<path d="M215.3784 13.8458 L215.5448 14.1786 "/>
<path d="M215.5448 14.1786 L215.5448 15.0106 "/>
<path d="M215.5448 15.0106 L215.3784 15.3433 "/>
<path d="M215.3784 15.3433 L215.2120 15.5097 "/>
<path d="M215.2120 15.5097 L214.8792 15.6761 "/>
<path d="M214.8792 15.6761 L213.8808 15.6761 "/>
<path d="M213.8808 15.6761 L213.5481 15.5097 "/>
<path d="M213.5481 15.5097 L213.3817 15.3433 "/>
</g><text x="211.9124" y="10.9686" transform="scale(-1 1) translate(-423.824819 0)" textLength="15.0672" font-size="4.6590" lengthAdjust="spacingAndGlyphs" text-anchor="middle" opacity="0.01" style="font-family:monospace">270R</text>
<g class="stroked-text"><desc>270R</desc>
<path d="M205.8390 7.6368 L206.0054 7.4705 "/>
<path d="M206.0054 7.4705 L206.3382 7.3041 "/>
<path d="M206.3382 7.3041 L207.1702 7.3041 "/>
<path d="M207.1702 7.3041 L207.5030 7.4705 "/>
<path d="M207.5030 7.4705 L207.6694 7.6368 "/>
<path d="M207.6694 7.6368 L207.8358 7.9696 "/>
<path d="M207.8358 7.9696 L207.8358 8.3024 "/>
<path d="M207.8358 8.3024 L207.6694 8.8016 "/>
<path d="M207.6694 8.8016 L205.6726 10.7983 "/>
<path d="M205.6726 10.7983 L207.8358 10.7983 "/>
<path d="M209.0005 7.3041 L211.3300 7.3041 "/>
<path d="M211.3300 7.3041 L209.8325 10.7983 "/>
<path d="M213.3268 7.3041 L213.6595 7.3041 "/>
<path d="M213.6595 7.3041 L213.9923 7.4705 "/>
<path d="M213.9923 7.4705 L214.1587 7.6368 "/>
<path d="M214.1587 7.6368 L214.3251 7.9696 "/>
<path d="M214.3251 7.9696 L214.4915 8.6352 "/>
<path d="M214.4915 8.6352 L214.4915 9.4672 "/>
<path d="M214.4915 9.4672 L214.3251 10.1328 "/>
<path d="M214.3251 10.1328 L214.1587 10.4655 "/>
<path d="M214.1587 10.4655 L213.9923 10.6319 "/>
<path d="M213.9923 10.6319 L213.6595 10.7983 "/>
<path d="M213.6595 10.7983 L213.3268 10.7983 "/>
<path d="M213.3268 10.7983 L212.9940 10.6319 "/>
<path d="M212.9940 10.6319 L212.8276 10.4655 "/>
<path d="M212.8276 10.4655 L212.6612 10.1328 "/>
<path d="M212.6612 10.1328 L212.4948 9.4672 "/>
<path d="M212.4948 9.4672 L212.4948 8.6352 "/>
<path d="M212.4948 8.6352 L212.6612 7.9696 "/>
<path d="M212.6612 7.9696 L212.8276 7.6368 "/>
<path d="M212.8276 7.6368 L212.9940 7.4705 "/>
<path d="M212.9940 7.4705 L213.3268 7.3041 "/>
<path d="M217.9858 10.7983 L216.8210 9.1344 "/>
<path d="M215.9891 10.7983 L215.9891 7.3041 "/>
<path d="M215.9891 7.3041 L217.3202 7.3041 "/>
<path d="M217.3202 7.3041 L217.6530 7.4705 "/>
<path d="M217.6530 7.4705 L217.8194 7.6368 "/>
<path d="M217.8194 7.6368 L217.9858 7.9696 "/>
<path d="M217.9858 7.9696 L217.9858 8.4688 "/>
<path d="M217.9858 8.4688 L217.8194 8.8016 "/>
<path d="M217.8194 8.8016 L217.6530 8.9680 "/>
<path d="M217.6530 8.9680 L217.3202 9.1344 "/>
<path d="M217.3202 9.1344 L215.9891 9.1344 "/>
</g></g>
<g style="fill:#000084; fill-opacity:0.01;  stroke:#000084; stroke-width:1.0475; stroke-opacity:1;  stroke-linecap:round; stroke-linejoin:round;">
<text x="69.6254" y="158.6768" transform="scale(-1 1) translate(-139.250797 0)" textLength="42.9802" font-size="9.3110" lengthAdjust="spacingAndGlyphs" text-anchor="middle" opacity="0.01" style="font-family:monospace">Fiducial</text>
<g class="stroked-text"><desc>Fiducial</desc>
<path d="M52.9986 154.7034 L50.6709 154.7034 "/>
<path d="M50.6709 158.3613 L50.6709 151.3780 "/>
<path d="M50.6709 151.3780 L53.9962 151.3780 "/>
<path d="M56.6565 158.3613 L56.6565 153.7058 "/>
<path d="M56.6565 151.3780 L56.3240 151.7106 "/>
<path d="M56.3240 151.7106 L56.6565 152.0431 "/>
<path d="M56.6565 152.0431 L56.9891 151.7106 "/>
<path d="M56.9891 151.7106 L56.6565 151.3780 "/>
<path d="M56.6565 151.3780 L56.6565 152.0431 "/>
<path d="M62.9747 158.3613 L62.9747 151.3780 "/>
<path d="M62.9747 158.0287 L62.3096 158.3613 "/>
<path d="M62.3096 158.3613 L60.9795 158.3613 "/>
<path d="M60.9795 158.3613 L60.3144 158.0287 "/>
<path d="M60.3144 158.0287 L59.9819 157.6962 "/>
<path d="M59.9819 157.6962 L59.6493 157.0311 "/>
<path d="M59.6493 157.0311 L59.6493 155.0359 "/>
<path d="M59.6493 155.0359 L59.9819 154.3709 "/>
<path d="M59.9819 154.3709 L60.3144 154.0383 "/>
<path d="M60.3144 154.0383 L60.9795 153.7058 "/>
<path d="M60.9795 153.7058 L62.3096 153.7058 "/>
<path d="M62.3096 153.7058 L62.9747 154.0383 "/>
<path d="M69.2929 153.7058 L69.2929 158.3613 "/>
<path d="M66.3000 153.7058 L66.3000 157.3637 "/>
<path d="M66.3000 157.3637 L66.6326 158.0287 "/>
<path d="M66.6326 158.0287 L67.2977 158.3613 "/>
<path d="M67.2977 158.3613 L68.2953 158.3613 "/>
<path d="M68.2953 158.3613 L68.9603 158.0287 "/>
<path d="M68.9603 158.0287 L69.2929 157.6962 "/>
<path d="M75.6110 158.0287 L74.9460 158.3613 "/>
<path d="M74.9460 158.3613 L73.6158 158.3613 "/>
<path d="M73.6158 158.3613 L72.9508 158.0287 "/>
<path d="M72.9508 158.0287 L72.6182 157.6962 "/>
<path d="M72.6182 157.6962 L72.2857 157.0311 "/>
<path d="M72.2857 157.0311 L72.2857 155.0359 "/>
<path d="M72.2857 155.0359 L72.6182 154.3709 "/>
<path d="M72.6182 154.3709 L72.9508 154.0383 "/>
<path d="M72.9508 154.0383 L73.6158 153.7058 "/>
<path d="M73.6158 153.7058 L74.9460 153.7058 "/>
<path d="M74.9460 153.7058 L75.6110 154.0383 "/>
<path d="M78.6039 158.3613 L78.6039 153.7058 "/>
<path d="M78.6039 151.3780 L78.2713 151.7106 "/>
<path d="M78.2713 151.7106 L78.6039 152.0431 "/>
<path d="M78.6039 152.0431 L78.9364 151.7106 "/>
<path d="M78.9364 151.7106 L78.6039 151.3780 "/>
<path d="M78.6039 151.3780 L78.6039 152.0431 "/>
<path d="M84.9220 158.3613 L84.9220 154.7034 "/>
<path d="M84.9220 154.7034 L84.5895 154.0383 "/>
<path d="M84.5895 154.0383 L83.9244 153.7058 "/>
<path d="M83.9244 153.7058 L82.5943 153.7058 "/>
<path d="M82.5943 153.7058 L81.9292 154.0383 "/>
<path d="M84.9220 158.0287 L84.2569 158.3613 "/>
<path d="M84.2569 158.3613 L82.5943 158.3613 "/>
<path d="M82.5943 158.3613 L81.9292 158.0287 "/>
<path d="M81.9292 158.0287 L81.5967 157.3637 "/>
<path d="M81.5967 157.3637 L81.5967 156.6986 "/>
<path d="M81.5967 156.6986 L81.9292 156.0335 "/>
<path d="M81.9292 156.0335 L82.5943 155.7010 "/>
<path d="M82.5943 155.7010 L84.2569 155.7010 "/>
<path d="M84.2569 155.7010 L84.9220 155.3685 "/>
<path d="M89.2450 158.3613 L88.5799 158.0287 "/>
<path d="M88.5799 158.0287 L88.2474 157.3637 "/>
<path d="M88.2474 157.3637 L88.2474 151.3780 "/>
</g></g>
<g style="fill:#000084; fill-opacity:0.01;  stroke:#000084; stroke-width:0.4190; stroke-opacity:1;  stroke-linecap:round; stroke-linejoin:round;">
<text x="69.6254" y="142.6153" transform="scale(-1 1) translate(-139.250797 0)" textLength="9.8763" font-size="3.7244" lengthAdjust="spacingAndGlyphs" text-anchor="middle" opacity="0.01" style="font-family:monospace">FID1</text>
<g class="stroked-text"><desc>FID1</desc>
<path d="M66.6326 141.0260 L65.7015 141.0260 "/>
<path d="M65.7015 142.4891 L65.7015 139.6958 "/>
<path d="M65.7015 139.6958 L67.0316 139.6958 "/>
<path d="M68.0957 142.4891 L68.0957 139.6958 "/>
<path d="M69.4259 142.4891 L69.4259 139.6958 "/>
<path d="M69.4259 139.6958 L70.0910 139.6958 "/>
<path d="M70.0910 139.6958 L70.4900 139.8288 "/>
<path d="M70.4900 139.8288 L70.7560 140.0949 "/>
<path d="M70.7560 140.0949 L70.8890 140.3609 "/>
<path d="M70.8890 140.3609 L71.0221 140.8930 "/>
<path d="M71.0221 140.8930 L71.0221 141.2920 "/>
<path d="M71.0221 141.2920 L70.8890 141.8241 "/>
<path d="M70.8890 141.8241 L70.7560 142.0901 "/>
<path d="M70.7560 142.0901 L70.4900 142.3561 "/>
<path d="M70.4900 142.3561 L70.0910 142.4891 "/>
<path d="M70.0910 142.4891 L69.4259 142.4891 "/>
<path d="M73.6823 142.4891 L72.0862 142.4891 "/>
<path d="M72.8843 142.4891 L72.8843 139.6958 "/>
<path d="M72.8843 139.6958 L72.6182 140.0949 "/>
<path d="M72.6182 140.0949 L72.3522 140.3609 "/>
<path d="M72.3522 140.3609 L72.0862 140.4939 "/>
</g></g>
<g style="fill:#000084; fill-opacity:0.01;  stroke:#000084; stroke-width:0.7627; stroke-opacity:1;  stroke-linecap:round; stroke-linejoin:round;">
<g transform="rotate(-90.000000 141.9543 64.9442)">
<text x="141.9543" y="66.6914" transform="scale(-1 1) translate(-283.908618 0)" textLength="8.4114" font-size="4.6590" lengthAdjust="spacingAndGlyphs" text-anchor="middle" opacity="0.01" style="font-family:monospace">C3</text>
</g>
<g class="stroked-text"><desc>C3</desc>
<path d="M140.7102 64.3619 L140.5438 64.1955 "/>
<path d="M140.5438 64.1955 L140.3775 63.6963 "/>
<path d="M140.3775 63.6963 L140.3775 63.3635 "/>
<path d="M140.3775 63.3635 L140.5438 62.8643 "/>
<path d="M140.5438 62.8643 L140.8766 62.5315 "/>
<path d="M140.8766 62.5315 L141.2094 62.3651 "/>
<path d="M141.2094 62.3651 L141.8750 62.1987 "/>
<path d="M141.8750 62.1987 L142.3742 62.1987 "/>
<path d="M142.3742 62.1987 L143.0398 62.3651 "/>
<path d="M143.0398 62.3651 L143.3725 62.5315 "/>
<path d="M143.3725 62.5315 L143.7053 62.8643 "/>
<path d="M143.7053 62.8643 L143.8717 63.3635 "/>
<path d="M143.8717 63.3635 L143.8717 63.6963 "/>
<path d="M143.8717 63.6963 L143.7053 64.1955 "/>
<path d="M143.7053 64.1955 L143.5389 64.3619 "/>
<path d="M143.8717 65.5266 L143.8717 67.6897 "/>
<path d="M143.8717 67.6897 L142.5406 66.5250 "/>
<path d="M142.5406 66.5250 L142.5406 67.0242 "/>
<path d="M142.5406 67.0242 L142.3742 67.3570 "/>
<path d="M142.3742 67.3570 L142.2078 67.5234 "/>
<path d="M142.2078 67.5234 L141.8750 67.6897 "/>
<path d="M141.8750 67.6897 L141.0430 67.6897 "/>
<path d="M141.0430 67.6897 L140.7102 67.5234 "/>
<path d="M140.7102 67.5234 L140.5438 67.3570 "/>
<path d="M140.5438 67.3570 L140.3775 67.0242 "/>
<path d="M140.3775 67.0242 L140.3775 66.0258 "/>
<path d="M140.3775 66.0258 L140.5438 65.6930 "/>
<path d="M140.5438 65.6930 L140.7102 65.5266 "/>
</g><g transform="rotate(-90.000000 146.8321 64.0574)">
<text x="146.8321" y="65.8045" transform="scale(-1 1) translate(-293.664204 0)" textLength="17.7295" font-size="4.6590" lengthAdjust="spacingAndGlyphs" text-anchor="middle" opacity="0.01" style="font-family:monospace">100nF</text>
</g>
<g class="stroked-text"><desc>100nF</desc>
<path d="M145.2553 58.6496 L145.2553 56.6528 "/>
<path d="M145.2553 57.6512 L148.7495 57.6512 "/>
<path d="M148.7495 57.6512 L148.2503 57.3184 "/>
<path d="M148.2503 57.3184 L147.9176 56.9856 "/>
<path d="M147.9176 56.9856 L147.7512 56.6528 "/>
<path d="M148.7495 60.8127 L148.7495 61.1455 "/>
<path d="M148.7495 61.1455 L148.5831 61.4783 "/>
<path d="M148.5831 61.4783 L148.4167 61.6447 "/>
<path d="M148.4167 61.6447 L148.0839 61.8111 "/>
<path d="M148.0839 61.8111 L147.4184 61.9774 "/>
<path d="M147.4184 61.9774 L146.5864 61.9774 "/>
<path d="M146.5864 61.9774 L145.9208 61.8111 "/>
<path d="M145.9208 61.8111 L145.5880 61.6447 "/>
<path d="M145.5880 61.6447 L145.4216 61.4783 "/>
<path d="M145.4216 61.4783 L145.2553 61.1455 "/>
<path d="M145.2553 61.1455 L145.2553 60.8127 "/>
<path d="M145.2553 60.8127 L145.4216 60.4799 "/>
<path d="M145.4216 60.4799 L145.5880 60.3135 "/>
<path d="M145.5880 60.3135 L145.9208 60.1471 "/>
<path d="M145.9208 60.1471 L146.5864 59.9807 "/>
<path d="M146.5864 59.9807 L147.4184 59.9807 "/>
<path d="M147.4184 59.9807 L148.0839 60.1471 "/>
<path d="M148.0839 60.1471 L148.4167 60.3135 "/>
<path d="M148.4167 60.3135 L148.5831 60.4799 "/>
<path d="M148.5831 60.4799 L148.7495 60.8127 "/>
<path d="M148.7495 64.1406 L148.7495 64.4734 "/>
<path d="M148.7495 64.4734 L148.5831 64.8061 "/>
<path d="M148.5831 64.8061 L148.4167 64.9725 "/>
<path d="M148.4167 64.9725 L148.0839 65.1389 "/>
<path d="M148.0839 65.1389 L147.4184 65.3053 "/>
<path d="M147.4184 65.3053 L146.5864 65.3053 "/>
<path d="M146.5864 65.3053 L145.9208 65.1389 "/>
<path d="M145.9208 65.1389 L145.5880 64.9725 "/>
<path d="M145.5880 64.9725 L145.4216 64.8061 "/>
<path d="M145.4216 64.8061 L145.2553 64.4734 "/>
<path d="M145.2553 64.4734 L145.2553 64.1406 "/>
<path d="M145.2553 64.1406 L145.4216 63.8078 "/>
<path d="M145.4216 63.8078 L145.5880 63.6414 "/>
<path d="M145.5880 63.6414 L145.9208 63.4750 "/>
<path d="M145.9208 63.4750 L146.5864 63.3086 "/>
<path d="M146.5864 63.3086 L147.4184 63.3086 "/>
<path d="M147.4184 63.3086 L148.0839 63.4750 "/>
<path d="M148.0839 63.4750 L148.4167 63.6414 "/>
<path d="M148.4167 63.6414 L148.5831 63.8078 "/>
<path d="M148.5831 63.8078 L148.7495 64.1406 "/>
<path d="M147.5848 66.8029 L145.2553 66.8029 "/>
<path d="M147.2520 66.8029 L147.4184 66.9693 "/>
<path d="M147.4184 66.9693 L147.5848 67.3020 "/>
<path d="M147.5848 67.3020 L147.5848 67.8012 "/>
<path d="M147.5848 67.8012 L147.4184 68.1340 "/>
<path d="M147.4184 68.1340 L147.0856 68.3004 "/>
<path d="M147.0856 68.3004 L145.2553 68.3004 "/>
<path d="M147.0856 71.1291 L147.0856 69.9644 "/>
<path d="M145.2553 69.9644 L148.7495 69.9644 "/>
<path d="M148.7495 69.9644 L148.7495 71.6283 "/>
</g><g transform="rotate(-90.000000 261.5772 98.3521)">
<text x="261.5772" y="100.0992" transform="scale(-1 1) translate(-523.154428 0)" textLength="11.4065" font-size="4.6590" lengthAdjust="spacingAndGlyphs" text-anchor="middle" opacity="0.01" style="font-family:monospace">FB1</text>
</g>
<g class="stroked-text"><desc>FB1</desc>
<path d="M261.8307 95.4402 L261.8307 94.2754 "/>
<path d="M260.0004 94.2754 L263.4946 94.2754 "/>
<path d="M263.4946 94.2754 L263.4946 95.9394 "/>
<path d="M261.8307 98.4353 L261.6643 98.9344 "/>
<path d="M261.6643 98.9344 L261.4979 99.1008 "/>
<path d="M261.4979 99.1008 L261.1651 99.2672 "/>
<path d="M261.1651 99.2672 L260.6659 99.2672 "/>
<path d="M260.6659 99.2672 L260.3331 99.1008 "/>
<path d="M260.3331 99.1008 L260.1668 98.9344 "/>
<path d="M260.1668 98.9344 L260.0004 98.6017 "/>
<path d="M260.0004 98.6017 L260.0004 97.2705 "/>
<path d="M260.0004 97.2705 L263.4946 97.2705 "/>
<path d="M263.4946 97.2705 L263.4946 98.4353 "/>
<path d="M263.4946 98.4353 L263.3282 98.7681 "/>
<path d="M263.3282 98.7681 L263.1619 98.9344 "/>
<path d="M263.1619 98.9344 L262.8291 99.1008 "/>
<path d="M262.8291 99.1008 L262.4963 99.1008 "/>
<path d="M262.4963 99.1008 L262.1635 98.9344 "/>
<path d="M262.1635 98.9344 L261.9971 98.7681 "/>
<path d="M261.9971 98.7681 L261.8307 98.4353 "/>
<path d="M261.8307 98.4353 L261.8307 97.2705 "/>
<path d="M260.0004 102.5951 L260.0004 100.5984 "/>
<path d="M260.0004 101.5968 L263.4946 101.5968 "/>
<path d="M263.4946 101.5968 L262.9955 101.2640 "/>
<path d="M262.9955 101.2640 L262.6627 100.9312 "/>
<path d="M262.6627 100.9312 L262.4963 100.5984 "/>
</g><text x="266.0116" y="73.4931" transform="scale(-1 1) translate(-532.023143 0)" textLength="8.4114" font-size="4.6590" lengthAdjust="spacingAndGlyphs" text-anchor="middle" opacity="0.01" style="font-family:monospace">C1</text>
<g class="stroked-text"><desc>C1</desc>
<path d="M265.4292 72.9900 L265.2628 73.1564 "/>
<path d="M265.2628 73.1564 L264.7636 73.3228 "/>
<path d="M264.7636 73.3228 L264.4308 73.3228 "/>
<path d="M264.4308 73.3228 L263.9316 73.1564 "/>
<path d="M263.9316 73.1564 L263.5989 72.8236 "/>
<path d="M263.5989 72.8236 L263.4325 72.4908 "/>
<path d="M263.4325 72.4908 L263.2661 71.8252 "/>
<path d="M263.2661 71.8252 L263.2661 71.3260 "/>
<path d="M263.2661 71.3260 L263.4325 70.6605 "/>
<path d="M263.4325 70.6605 L263.5989 70.3277 "/>
<path d="M263.5989 70.3277 L263.9316 69.9949 "/>
<path d="M263.9316 69.9949 L264.4308 69.8285 "/>
<path d="M264.4308 69.8285 L264.7636 69.8285 "/>
<path d="M264.7636 69.8285 L265.2628 69.9949 "/>
<path d="M265.2628 69.9949 L265.4292 70.1613 "/>
<path d="M268.7571 73.3228 L266.7603 73.3228 "/>
<path d="M267.7587 73.3228 L267.7587 69.8285 "/>
<path d="M267.7587 69.8285 L267.4259 70.3277 "/>
<path d="M267.4259 70.3277 L267.0931 70.6605 "/>
<path d="M267.0931 70.6605 L266.7603 70.8269 "/>
</g><text x="266.8984" y="78.3709" transform="scale(-1 1) translate(-533.796886 0)" textLength="14.4016" font-size="4.6590" lengthAdjust="spacingAndGlyphs" text-anchor="middle" opacity="0.01" style="font-family:monospace">10nF</text>
<g class="stroked-text"><desc>10nF</desc>
<path d="M263.1546 78.2006 L261.1579 78.2006 "/>
<path d="M262.1562 78.2006 L262.1562 74.7063 "/>
<path d="M262.1562 74.7063 L261.8234 75.2055 "/>
<path d="M261.8234 75.2055 L261.4906 75.5383 "/>
<path d="M261.4906 75.5383 L261.1579 75.7047 "/>
<path d="M265.3177 74.7063 L265.6505 74.7063 "/>
<path d="M265.6505 74.7063 L265.9833 74.8727 "/>
<path d="M265.9833 74.8727 L266.1497 75.0391 "/>
<path d="M266.1497 75.0391 L266.3161 75.3719 "/>
<path d="M266.3161 75.3719 L266.4825 76.0374 "/>
<path d="M266.4825 76.0374 L266.4825 76.8694 "/>
<path d="M266.4825 76.8694 L266.3161 77.5350 "/>
<path d="M266.3161 77.5350 L266.1497 77.8678 "/>
<path d="M266.1497 77.8678 L265.9833 78.0342 "/>
<path d="M265.9833 78.0342 L265.6505 78.2006 "/>
<path d="M265.6505 78.2006 L265.3177 78.2006 "/>
<path d="M265.3177 78.2006 L264.9849 78.0342 "/>
<path d="M264.9849 78.0342 L264.8185 77.8678 "/>
<path d="M264.8185 77.8678 L264.6521 77.5350 "/>
<path d="M264.6521 77.5350 L264.4857 76.8694 "/>
<path d="M264.4857 76.8694 L264.4857 76.0374 "/>
<path d="M264.4857 76.0374 L264.6521 75.3719 "/>
<path d="M264.6521 75.3719 L264.8185 75.0391 "/>
<path d="M264.8185 75.0391 L264.9849 74.8727 "/>
<path d="M264.9849 74.8727 L265.3177 74.7063 "/>
<path d="M267.9800 75.8710 L267.9800 78.2006 "/>
<path d="M267.9800 76.2038 L268.1464 76.0374 "/>
<path d="M268.1464 76.0374 L268.4792 75.8710 "/>
<path d="M268.4792 75.8710 L268.9784 75.8710 "/>
<path d="M268.9784 75.8710 L269.3112 76.0374 "/>
<path d="M269.3112 76.0374 L269.4775 76.3702 "/>
<path d="M269.4775 76.3702 L269.4775 78.2006 "/>
<path d="M272.3063 76.3702 L271.1415 76.3702 "/>
<path d="M271.1415 78.2006 L271.1415 74.7063 "/>
<path d="M271.1415 74.7063 L272.8054 74.7063 "/>
</g><text x="73.5605" y="65.5112" transform="scale(-1 1) translate(-147.120908 0)" textLength="8.4114" font-size="4.6590" lengthAdjust="spacingAndGlyphs" text-anchor="middle" opacity="0.01" style="font-family:monospace">R2</text>
<g class="stroked-text"><desc>R2</desc>
<path d="M72.9781 65.3409 L71.8133 63.6770 "/>
<path d="M70.9814 65.3409 L70.9814 61.8467 "/>
<path d="M70.9814 61.8467 L72.3125 61.8467 "/>
<path d="M72.3125 61.8467 L72.6453 62.0131 "/>
<path d="M72.6453 62.0131 L72.8117 62.1794 "/>
<path d="M72.8117 62.1794 L72.9781 62.5122 "/>
<path d="M72.9781 62.5122 L72.9781 63.0114 "/>
<path d="M72.9781 63.0114 L72.8117 63.3442 "/>
<path d="M72.8117 63.3442 L72.6453 63.5106 "/>
<path d="M72.6453 63.5106 L72.3125 63.6770 "/>
<path d="M72.3125 63.6770 L70.9814 63.6770 "/>
<path d="M74.3092 62.1794 L74.4756 62.0131 "/>
<path d="M74.4756 62.0131 L74.8084 61.8467 "/>
<path d="M74.8084 61.8467 L75.6404 61.8467 "/>
<path d="M75.6404 61.8467 L75.9732 62.0131 "/>
<path d="M75.9732 62.0131 L76.1396 62.1794 "/>
<path d="M76.1396 62.1794 L76.3060 62.5122 "/>
<path d="M76.3060 62.5122 L76.3060 62.8450 "/>
<path d="M76.3060 62.8450 L76.1396 63.3442 "/>
<path d="M76.1396 63.3442 L74.1428 65.3409 "/>
<path d="M74.1428 65.3409 L76.3060 65.3409 "/>
</g><text x="72.6736" y="60.6334" transform="scale(-1 1) translate(-145.347165 0)" textLength="11.0737" font-size="4.6590" lengthAdjust="spacingAndGlyphs" text-anchor="middle" opacity="0.01" style="font-family:monospace">10k</text>
<g class="stroked-text"><desc>10k</desc>
<path d="M70.5937 60.4631 L68.5969 60.4631 "/>
<path d="M69.5953 60.4631 L69.5953 56.9689 "/>
<path d="M69.5953 56.9689 L69.2625 57.4680 "/>
<path d="M69.2625 57.4680 L68.9297 57.8008 "/>
<path d="M68.9297 57.8008 L68.5969 57.9672 "/>
<path d="M72.7568 56.9689 L73.0896 56.9689 "/>
<path d="M73.0896 56.9689 L73.4224 57.1353 "/>
<path d="M73.4224 57.1353 L73.5888 57.3016 "/>
<path d="M73.5888 57.3016 L73.7551 57.6344 "/>
<path d="M73.7551 57.6344 L73.9215 58.3000 "/>
<path d="M73.9215 58.3000 L73.9215 59.1320 "/>
<path d="M73.9215 59.1320 L73.7551 59.7976 "/>
<path d="M73.7551 59.7976 L73.5888 60.1303 "/>
<path d="M73.5888 60.1303 L73.4224 60.2967 "/>
<path d="M73.4224 60.2967 L73.0896 60.4631 "/>
<path d="M73.0896 60.4631 L72.7568 60.4631 "/>
<path d="M72.7568 60.4631 L72.4240 60.2967 "/>
<path d="M72.4240 60.2967 L72.2576 60.1303 "/>
<path d="M72.2576 60.1303 L72.0912 59.7976 "/>
<path d="M72.0912 59.7976 L71.9248 59.1320 "/>
<path d="M71.9248 59.1320 L71.9248 58.3000 "/>
<path d="M71.9248 58.3000 L72.0912 57.6344 "/>
<path d="M72.0912 57.6344 L72.2576 57.3016 "/>
<path d="M72.2576 57.3016 L72.4240 57.1353 "/>
<path d="M72.4240 57.1353 L72.7568 56.9689 "/>
<path d="M75.4191 60.4631 L75.4191 56.9689 "/>
<path d="M75.7519 59.1320 L76.7502 60.4631 "/>
<path d="M76.7502 58.1336 L75.4191 59.4648 "/>
</g></g>
<g style="fill:#000084; fill-opacity:0.0;  stroke:#000084; stroke-width:1.0475; stroke-opacity:1;  stroke-linecap:round; stroke-linejoin:round;">
<g transform="rotate(-90.000000 117.4606 96.1349)">
<text x="117.4606" y="99.6265" transform="scale(-1 1) translate(-234.921188 0)" textLength="15.7123" font-size="9.3110" lengthAdjust="spacingAndGlyphs" text-anchor="middle" opacity="0.01" style="font-family:monospace">U2</text>
</g>
<g class="stroked-text"><desc>U2</desc>
<path d="M121.2677 90.8143 L115.6146 90.8143 "/>
<path d="M115.6146 90.8143 L114.9496 91.1469 "/>
<path d="M114.9496 91.1469 L114.6170 91.4794 "/>
<path d="M114.6170 91.4794 L114.2845 92.1445 "/>
<path d="M114.2845 92.1445 L114.2845 93.4746 "/>
<path d="M114.2845 93.4746 L114.6170 94.1397 "/>
<path d="M114.6170 94.1397 L114.9496 94.4722 "/>
<path d="M114.9496 94.4722 L115.6146 94.8047 "/>
<path d="M115.6146 94.8047 L121.2677 94.8047 "/>
<path d="M120.6027 97.7976 L120.9352 98.1301 "/>
<path d="M120.9352 98.1301 L121.2677 98.7952 "/>
<path d="M121.2677 98.7952 L121.2677 100.4578 "/>
<path d="M121.2677 100.4578 L120.9352 101.1229 "/>
<path d="M120.9352 101.1229 L120.6027 101.4554 "/>
<path d="M120.6027 101.4554 L119.9376 101.7880 "/>
<path d="M119.9376 101.7880 L119.2725 101.7880 "/>
<path d="M119.2725 101.7880 L118.2749 101.4554 "/>
<path d="M118.2749 101.4554 L114.2845 97.4650 "/>
<path d="M114.2845 97.4650 L114.2845 101.7880 "/>
</g></g>
<g style="fill:#000084; fill-opacity:0.01;  stroke:#000084; stroke-width:0.7627; stroke-opacity:1;  stroke-linecap:round; stroke-linejoin:round;">
<text x="98.3929" y="65.5112" transform="scale(-1 1) translate(-196.785713 0)" textLength="8.4114" font-size="4.6590" lengthAdjust="spacingAndGlyphs" text-anchor="middle" opacity="0.01" style="font-family:monospace">R1</text>
<g class="stroked-text"><desc>R1</desc>
<path d="M97.8105 65.3409 L96.6457 63.6770 "/>
<path d="M95.8138 65.3409 L95.8138 61.8467 "/>
<path d="M95.8138 61.8467 L97.1449 61.8467 "/>
<path d="M97.1449 61.8467 L97.4777 62.0131 "/>
<path d="M97.4777 62.0131 L97.6441 62.1794 "/>
<path d="M97.6441 62.1794 L97.8105 62.5122 "/>
<path d="M97.8105 62.5122 L97.8105 63.0114 "/>
<path d="M97.8105 63.0114 L97.6441 63.3442 "/>
<path d="M97.6441 63.3442 L97.4777 63.5106 "/>
<path d="M97.4777 63.5106 L97.1449 63.6770 "/>
<path d="M97.1449 63.6770 L95.8138 63.6770 "/>
<path d="M101.1384 65.3409 L99.1416 65.3409 "/>
<path d="M100.1400 65.3409 L100.1400 61.8467 "/>
<path d="M100.1400 61.8467 L99.8072 62.3458 "/>
<path d="M99.8072 62.3458 L99.4744 62.6786 "/>
<path d="M99.4744 62.6786 L99.1416 62.8450 "/>
</g><text x="97.5060" y="60.6334" transform="scale(-1 1) translate(-195.011970 0)" textLength="11.0737" font-size="4.6590" lengthAdjust="spacingAndGlyphs" text-anchor="middle" opacity="0.01" style="font-family:monospace">4k7</text>
<g class="stroked-text"><desc>4k7</desc>
<path d="M95.0933 58.1336 L95.0933 60.4631 "/>
<path d="M94.2613 56.8025 L93.4293 59.2984 "/>
<path d="M93.4293 59.2984 L95.5925 59.2984 "/>
<path d="M96.9236 60.4631 L96.9236 56.9689 "/>
<path d="M97.2564 59.1320 L98.2548 60.4631 "/>
<path d="M98.2548 58.1336 L96.9236 59.4648 "/>
<path d="M99.4195 56.9689 L101.7490 56.9689 "/>
<path d="M101.7490 56.9689 L100.2515 60.4631 "/>
</g></g>
<g style="fill:#000084; fill-opacity:0.01;  stroke:#000084; stroke-width:1.0475; stroke-opacity:1;  stroke-linecap:round; stroke-linejoin:round;">
<text x="210.5821" y="38.4882" transform="scale(-1 1) translate(-421.164204 0)" textLength="18.6838" font-size="11.8250" lengthAdjust="spacingAndGlyphs" text-anchor="middle" opacity="0.01" style="font-family:monospace">D2</text>
<g class="stroked-text"><desc>D2</desc>
<path d="M204.0361 38.1022 L204.0361 29.2335 "/>
<path d="M204.0361 29.2335 L206.1477 29.2335 "/>
<path d="M206.1477 29.2335 L207.4147 29.6559 "/>
<path d="M207.4147 29.6559 L208.2593 30.5005 "/>
<path d="M208.2593 30.5005 L208.6817 31.3451 "/>
<path d="M208.6817 31.3451 L209.1040 33.0344 "/>
<path d="M209.1040 33.0344 L209.1040 34.3014 "/>
<path d="M209.1040 34.3014 L208.6817 35.9906 "/>
<path d="M208.6817 35.9906 L208.2593 36.8353 "/>
<path d="M208.2593 36.8353 L207.4147 37.6799 "/>
<path d="M207.4147 37.6799 L206.1477 38.1022 "/>
<path d="M206.1477 38.1022 L204.0361 38.1022 "/>
<path d="M212.4825 30.0782 L212.9049 29.6559 "/>
<path d="M212.9049 29.6559 L213.7495 29.2335 "/>
<path d="M213.7495 29.2335 L215.8611 29.2335 "/>
<path d="M215.8611 29.2335 L216.7057 29.6559 "/>
<path d="M216.7057 29.6559 L217.1281 30.0782 "/>
<path d="M217.1281 30.0782 L217.5504 30.9228 "/>
<path d="M217.5504 30.9228 L217.5504 31.7675 "/>
<path d="M217.5504 31.7675 L217.1281 33.0344 "/>
<path d="M217.1281 33.0344 L212.0602 38.1022 "/>
<path d="M212.0602 38.1022 L217.5504 38.1022 "/>
</g><text x="197.6338" y="38.1335" transform="scale(-1 1) translate(-395.267556 0)" textLength="10.2374" font-size="11.8250" lengthAdjust="spacingAndGlyphs" text-anchor="middle" opacity="0.01" style="font-family:monospace">K</text>
<g class="stroked-text"><desc>K</desc>
<path d="M195.3110 37.7475 L195.3110 28.8788 "/>
<path d="M200.3789 37.7475 L196.5780 32.6797 "/>
<path d="M200.3789 28.8788 L195.3110 33.9466 "/>
</g></g>
<g style="fill:#000084; fill-opacity:0.01;  stroke:#000084; stroke-width:0.7627; stroke-opacity:1;  stroke-linecap:round; stroke-linejoin:round;">
<text x="123.2253" y="61.0769" transform="scale(-1 1) translate(-246.450517 0)" textLength="8.4114" font-size="4.6590" lengthAdjust="spacingAndGlyphs" text-anchor="middle" opacity="0.01" style="font-family:monospace">C4</text>
<g class="stroked-text"><desc>C4</desc>
<path d="M122.6429 60.5738 L122.4765 60.7402 "/>
<path d="M122.4765 60.7402 L121.9773 60.9066 "/>
<path d="M121.9773 60.9066 L121.6445 60.9066 "/>
<path d="M121.6445 60.9066 L121.1453 60.7402 "/>
<path d="M121.1453 60.7402 L120.8125 60.4074 "/>
<path d="M120.8125 60.4074 L120.6462 60.0746 "/>
<path d="M120.6462 60.0746 L120.4798 59.4090 "/>
<path d="M120.4798 59.4090 L120.4798 58.9098 "/>
<path d="M120.4798 58.9098 L120.6462 58.2443 "/>
<path d="M120.6462 58.2443 L120.8125 57.9115 "/>
<path d="M120.8125 57.9115 L121.1453 57.5787 "/>
<path d="M121.1453 57.5787 L121.6445 57.4123 "/>
<path d="M121.6445 57.4123 L121.9773 57.4123 "/>
<path d="M121.9773 57.4123 L122.4765 57.5787 "/>
<path d="M122.4765 57.5787 L122.6429 57.7451 "/>
<path d="M125.6380 58.5771 L125.6380 60.9066 "/>
<path d="M124.8060 57.2459 L123.9740 59.7418 "/>
<path d="M123.9740 59.7418 L126.1372 59.7418 "/>
</g><text x="124.1121" y="65.9547" transform="scale(-1 1) translate(-248.224260 0)" textLength="17.7295" font-size="4.6590" lengthAdjust="spacingAndGlyphs" text-anchor="middle" opacity="0.01" style="font-family:monospace">100nF</text>
<g class="stroked-text"><desc>100nF</desc>
<path d="M118.7043 65.7844 L116.7076 65.7844 "/>
<path d="M117.7060 65.7844 L117.7060 62.2901 "/>
<path d="M117.7060 62.2901 L117.3732 62.7893 "/>
<path d="M117.3732 62.7893 L117.0404 63.1221 "/>
<path d="M117.0404 63.1221 L116.7076 63.2885 "/>
<path d="M120.8675 62.2901 L121.2002 62.2901 "/>
<path d="M121.2002 62.2901 L121.5330 62.4565 "/>
<path d="M121.5330 62.4565 L121.6994 62.6229 "/>
<path d="M121.6994 62.6229 L121.8658 62.9557 "/>
<path d="M121.8658 62.9557 L122.0322 63.6212 "/>
<path d="M122.0322 63.6212 L122.0322 64.4532 "/>
<path d="M122.0322 64.4532 L121.8658 65.1188 "/>
<path d="M121.8658 65.1188 L121.6994 65.4516 "/>
<path d="M121.6994 65.4516 L121.5330 65.6180 "/>
<path d="M121.5330 65.6180 L121.2002 65.7844 "/>
<path d="M121.2002 65.7844 L120.8675 65.7844 "/>
<path d="M120.8675 65.7844 L120.5347 65.6180 "/>
<path d="M120.5347 65.6180 L120.3683 65.4516 "/>
<path d="M120.3683 65.4516 L120.2019 65.1188 "/>
<path d="M120.2019 65.1188 L120.0355 64.4532 "/>
<path d="M120.0355 64.4532 L120.0355 63.6212 "/>
<path d="M120.0355 63.6212 L120.2019 62.9557 "/>
<path d="M120.2019 62.9557 L120.3683 62.6229 "/>
<path d="M120.3683 62.6229 L120.5347 62.4565 "/>
<path d="M120.5347 62.4565 L120.8675 62.2901 "/>
<path d="M124.1953 62.2901 L124.5281 62.2901 "/>
<path d="M124.5281 62.2901 L124.8609 62.4565 "/>
<path d="M124.8609 62.4565 L125.0273 62.6229 "/>
<path d="M125.0273 62.6229 L125.1937 62.9557 "/>
<path d="M125.1937 62.9557 L125.3601 63.6212 "/>
<path d="M125.3601 63.6212 L125.3601 64.4532 "/>
<path d="M125.3601 64.4532 L125.1937 65.1188 "/>
<path d="M125.1937 65.1188 L125.0273 65.4516 "/>
<path d="M125.0273 65.4516 L124.8609 65.6180 "/>
<path d="M124.8609 65.6180 L124.5281 65.7844 "/>
<path d="M124.5281 65.7844 L124.1953 65.7844 "/>
<path d="M124.1953 65.7844 L123.8625 65.6180 "/>
<path d="M123.8625 65.6180 L123.6961 65.4516 "/>
<path d="M123.6961 65.4516 L123.5298 65.1188 "/>
<path d="M123.5298 65.1188 L123.3634 64.4532 "/>
<path d="M123.3634 64.4532 L123.3634 63.6212 "/>
<path d="M123.3634 63.6212 L123.5298 62.9557 "/>
<path d="M123.5298 62.9557 L123.6961 62.6229 "/>
<path d="M123.6961 62.6229 L123.8625 62.4565 "/>
<path d="M123.8625 62.4565 L124.1953 62.2901 "/>
<path d="M126.8576 63.4548 L126.8576 65.7844 "/>
<path d="M126.8576 63.7876 L127.0240 63.6212 "/>
<path d="M127.0240 63.6212 L127.3568 63.4548 "/>
<path d="M127.3568 63.4548 L127.8560 63.4548 "/>
<path d="M127.8560 63.4548 L128.1888 63.6212 "/>
<path d="M128.1888 63.6212 L128.3552 63.9540 "/>
<path d="M128.3552 63.9540 L128.3552 65.7844 "/>
<path d="M131.1839 63.9540 L130.0191 63.9540 "/>
<path d="M130.0191 65.7844 L130.0191 62.2901 "/>
<path d="M130.0191 62.2901 L131.6831 62.2901 "/>
</g></g>
<g style="fill:#000084; fill-opacity:0.01;  stroke:#000084; stroke-width:1.0475; stroke-opacity:1;  stroke-linecap:round; stroke-linejoin:round;">
<text x="240.0165" y="85.3528" transform="scale(-1 1) translate(-480.032920 0)" textLength="42.9802" font-size="9.3110" lengthAdjust="spacingAndGlyphs" text-anchor="middle" opacity="0.01" style="font-family:monospace">Fiducial</text>
<g class="stroked-text"><desc>Fiducial</desc>
<path d="M223.3897 81.3794 L221.0620 81.3794 "/>
<path d="M221.0620 85.0373 L221.0620 78.0540 "/>
<path d="M221.0620 78.0540 L224.3873 78.0540 "/>
<path d="M227.0476 85.0373 L227.0476 80.3818 "/>
<path d="M227.0476 78.0540 L226.7151 78.3866 "/>
<path d="M226.7151 78.3866 L227.0476 78.7191 "/>
<path d="M227.0476 78.7191 L227.3801 78.3866 "/>
<path d="M227.3801 78.3866 L227.0476 78.0540 "/>
<path d="M227.0476 78.0540 L227.0476 78.7191 "/>
<path d="M233.3658 85.0373 L233.3658 78.0540 "/>
<path d="M233.3658 84.7047 L232.7007 85.0373 "/>
<path d="M232.7007 85.0373 L231.3705 85.0373 "/>
<path d="M231.3705 85.0373 L230.7055 84.7047 "/>
<path d="M230.7055 84.7047 L230.3729 84.3722 "/>
<path d="M230.3729 84.3722 L230.0404 83.7071 "/>
<path d="M230.0404 83.7071 L230.0404 81.7119 "/>
<path d="M230.0404 81.7119 L230.3729 81.0468 "/>
<path d="M230.3729 81.0468 L230.7055 80.7143 "/>
<path d="M230.7055 80.7143 L231.3705 80.3818 "/>
<path d="M231.3705 80.3818 L232.7007 80.3818 "/>
<path d="M232.7007 80.3818 L233.3658 80.7143 "/>
<path d="M239.6839 80.3818 L239.6839 85.0373 "/>
<path d="M236.6911 80.3818 L236.6911 84.0396 "/>
<path d="M236.6911 84.0396 L237.0236 84.7047 "/>
<path d="M237.0236 84.7047 L237.6887 85.0373 "/>
<path d="M237.6887 85.0373 L238.6863 85.0373 "/>
<path d="M238.6863 85.0373 L239.3514 84.7047 "/>
<path d="M239.3514 84.7047 L239.6839 84.3722 "/>
<path d="M246.0021 84.7047 L245.3370 85.0373 "/>
<path d="M245.3370 85.0373 L244.0069 85.0373 "/>
<path d="M244.0069 85.0373 L243.3418 84.7047 "/>
<path d="M243.3418 84.7047 L243.0093 84.3722 "/>
<path d="M243.0093 84.3722 L242.6767 83.7071 "/>
<path d="M242.6767 83.7071 L242.6767 81.7119 "/>
<path d="M242.6767 81.7119 L243.0093 81.0468 "/>
<path d="M243.0093 81.0468 L243.3418 80.7143 "/>
<path d="M243.3418 80.7143 L244.0069 80.3818 "/>
<path d="M244.0069 80.3818 L245.3370 80.3818 "/>
<path d="M245.3370 80.3818 L246.0021 80.7143 "/>
<path d="M248.9949 85.0373 L248.9949 80.3818 "/>
<path d="M248.9949 78.0540 L248.6624 78.3866 "/>
<path d="M248.6624 78.3866 L248.9949 78.7191 "/>
<path d="M248.9949 78.7191 L249.3275 78.3866 "/>
<path d="M249.3275 78.3866 L248.9949 78.0540 "/>
<path d="M248.9949 78.0540 L248.9949 78.7191 "/>
<path d="M255.3131 85.0373 L255.3131 81.3794 "/>
<path d="M255.3131 81.3794 L254.9805 80.7143 "/>
<path d="M254.9805 80.7143 L254.3155 80.3818 "/>
<path d="M254.3155 80.3818 L252.9853 80.3818 "/>
<path d="M252.9853 80.3818 L252.3203 80.7143 "/>
<path d="M255.3131 84.7047 L254.6480 85.0373 "/>
<path d="M254.6480 85.0373 L252.9853 85.0373 "/>
<path d="M252.9853 85.0373 L252.3203 84.7047 "/>
<path d="M252.3203 84.7047 L251.9877 84.0396 "/>
<path d="M251.9877 84.0396 L251.9877 83.3746 "/>
<path d="M251.9877 83.3746 L252.3203 82.7095 "/>
<path d="M252.3203 82.7095 L252.9853 82.3770 "/>
<path d="M252.9853 82.3770 L254.6480 82.3770 "/>
<path d="M254.6480 82.3770 L255.3131 82.0444 "/>
<path d="M259.6360 85.0373 L258.9710 84.7047 "/>
<path d="M258.9710 84.7047 L258.6384 84.0396 "/>
<path d="M258.6384 84.0396 L258.6384 78.0540 "/>
</g></g>
<g style="fill:#000084; fill-opacity:0.01;  stroke:#000084; stroke-width:0.4190; stroke-opacity:1;  stroke-linecap:round; stroke-linejoin:round;">
<text x="240.0165" y="69.2913" transform="scale(-1 1) translate(-480.032920 0)" textLength="9.8763" font-size="3.7244" lengthAdjust="spacingAndGlyphs" text-anchor="middle" opacity="0.01" style="font-family:monospace">FID2</text>
<g class="stroked-text"><desc>FID2</desc>
<path d="M237.0237 67.7019 L236.0926 67.7019 "/>
<path d="M236.0926 69.1651 L236.0926 66.3718 "/>
<path d="M236.0926 66.3718 L237.4227 66.3718 "/>
<path d="M238.4868 69.1651 L238.4868 66.3718 "/>
<path d="M239.8169 69.1651 L239.8169 66.3718 "/>
<path d="M239.8169 66.3718 L240.4820 66.3718 "/>
<path d="M240.4820 66.3718 L240.8811 66.5048 "/>
<path d="M240.8811 66.5048 L241.1471 66.7709 "/>
<path d="M241.1471 66.7709 L241.2801 67.0369 "/>
<path d="M241.2801 67.0369 L241.4131 67.5689 "/>
<path d="M241.4131 67.5689 L241.4131 67.9680 "/>
<path d="M241.4131 67.9680 L241.2801 68.5000 "/>
<path d="M241.2801 68.5000 L241.1471 68.7661 "/>
<path d="M241.1471 68.7661 L240.8811 69.0321 "/>
<path d="M240.8811 69.0321 L240.4820 69.1651 "/>
<path d="M240.4820 69.1651 L239.8169 69.1651 "/>
<path d="M242.4772 66.6378 L242.6102 66.5048 "/>
<path d="M242.6102 66.5048 L242.8763 66.3718 "/>
<path d="M242.8763 66.3718 L243.5413 66.3718 "/>
<path d="M243.5413 66.3718 L243.8074 66.5048 "/>
<path d="M243.8074 66.5048 L243.9404 66.6378 "/>
<path d="M243.9404 66.6378 L244.0734 66.9039 "/>
<path d="M244.0734 66.9039 L244.0734 67.1699 "/>
<path d="M244.0734 67.1699 L243.9404 67.5689 "/>
<path d="M243.9404 67.5689 L242.3442 69.1651 "/>
<path d="M242.3442 69.1651 L244.0734 69.1651 "/>
</g><text x="174.1820" y="75.3597" transform="scale(-1 1) translate(-348.363925 0)" textLength="6.2849" font-size="3.7244" lengthAdjust="spacingAndGlyphs" text-anchor="middle" opacity="0.01" style="font-family:monospace">U1</text>
<g class="stroked-text"><desc>U1</desc>
<path d="M172.0537 72.4402 L172.0537 74.7015 "/>
<path d="M172.0537 74.7015 L172.1868 74.9675 "/>
<path d="M172.1868 74.9675 L172.3198 75.1005 "/>
<path d="M172.3198 75.1005 L172.5858 75.2335 "/>
<path d="M172.5858 75.2335 L173.1179 75.2335 "/>
<path d="M173.1179 75.2335 L173.3839 75.1005 "/>
<path d="M173.3839 75.1005 L173.5169 74.9675 "/>
<path d="M173.5169 74.9675 L173.6499 74.7015 "/>
<path d="M173.6499 74.7015 L173.6499 72.4402 "/>
<path d="M176.4432 75.2335 L174.8470 75.2335 "/>
<path d="M175.6451 75.2335 L175.6451 72.4402 "/>
<path d="M175.6451 72.4402 L175.3791 72.8393 "/>
<path d="M175.3791 72.8393 L175.1131 73.1053 "/>
<path d="M175.1131 73.1053 L174.8470 73.2383 "/>
</g></g>
<g style="fill:#000084; fill-opacity:0.01;  stroke:#000084; stroke-width:0.7627; stroke-opacity:1;  stroke-linecap:round; stroke-linejoin:round;">
<g transform="rotate(-90.000000 274.8803 98.3521)">
<text x="274.8803" y="100.0992" transform="scale(-1 1) translate(-549.760573 0)" textLength="8.4114" font-size="4.6590" lengthAdjust="spacingAndGlyphs" text-anchor="middle" opacity="0.01" style="font-family:monospace">C2</text>
</g>
<g class="stroked-text"><desc>C2</desc>
<path d="M273.6362 97.7697 L273.4698 97.6033 "/>
<path d="M273.4698 97.6033 L273.3034 97.1041 "/>
<path d="M273.3034 97.1041 L273.3034 96.7713 "/>
<path d="M273.3034 96.7713 L273.4698 96.2721 "/>
<path d="M273.4698 96.2721 L273.8026 95.9394 "/>
<path d="M273.8026 95.9394 L274.1354 95.7730 "/>
<path d="M274.1354 95.7730 L274.8010 95.6066 "/>
<path d="M274.8010 95.6066 L275.3002 95.6066 "/>
<path d="M275.3002 95.6066 L275.9657 95.7730 "/>
<path d="M275.9657 95.7730 L276.2985 95.9394 "/>
<path d="M276.2985 95.9394 L276.6313 96.2721 "/>
<path d="M276.6313 96.2721 L276.7977 96.7713 "/>
<path d="M276.7977 96.7713 L276.7977 97.1041 "/>
<path d="M276.7977 97.1041 L276.6313 97.6033 "/>
<path d="M276.6313 97.6033 L276.4649 97.7697 "/>
<path d="M276.4649 99.1008 L276.6313 99.2672 "/>
<path d="M276.6313 99.2672 L276.7977 99.6000 "/>
<path d="M276.7977 99.6000 L276.7977 100.4320 "/>
<path d="M276.7977 100.4320 L276.6313 100.7648 "/>
<path d="M276.6313 100.7648 L276.4649 100.9312 "/>
<path d="M276.4649 100.9312 L276.1321 101.0976 "/>
<path d="M276.1321 101.0976 L275.7993 101.0976 "/>
<path d="M275.7993 101.0976 L275.3002 100.9312 "/>
<path d="M275.3002 100.9312 L273.3034 98.9344 "/>
<path d="M273.3034 98.9344 L273.3034 101.0976 "/>
</g><g transform="rotate(-90.000000 279.7581 97.4652)">
<text x="279.7581" y="99.2123" transform="scale(-1 1) translate(-559.516160 0)" textLength="14.4016" font-size="4.6590" lengthAdjust="spacingAndGlyphs" text-anchor="middle" opacity="0.01" style="font-family:monospace">10uF</text>
</g>
<g class="stroked-text"><desc>10uF</desc>
<path d="M278.1812 93.7213 L278.1812 91.7246 "/>
<path d="M278.1812 92.7230 L281.6755 92.7230 "/>
<path d="M281.6755 92.7230 L281.1763 92.3902 "/>
<path d="M281.1763 92.3902 L280.8435 92.0574 "/>
<path d="M280.8435 92.0574 L280.6771 91.7246 "/>
<path d="M281.6755 95.8844 L281.6755 96.2172 "/>
<path d="M281.6755 96.2172 L281.5091 96.5500 "/>
<path d="M281.5091 96.5500 L281.3427 96.7164 "/>
<path d="M281.3427 96.7164 L281.0099 96.8828 "/>
<path d="M281.0099 96.8828 L280.3444 97.0492 "/>
<path d="M280.3444 97.0492 L279.5124 97.0492 "/>
<path d="M279.5124 97.0492 L278.8468 96.8828 "/>
<path d="M278.8468 96.8828 L278.5140 96.7164 "/>
<path d="M278.5140 96.7164 L278.3476 96.5500 "/>
<path d="M278.3476 96.5500 L278.1812 96.2172 "/>
<path d="M278.1812 96.2172 L278.1812 95.8844 "/>
<path d="M278.1812 95.8844 L278.3476 95.5517 "/>
<path d="M278.3476 95.5517 L278.5140 95.3853 "/>
<path d="M278.5140 95.3853 L278.8468 95.2189 "/>
<path d="M278.8468 95.2189 L279.5124 95.0525 "/>
<path d="M279.5124 95.0525 L280.3444 95.0525 "/>
<path d="M280.3444 95.0525 L281.0099 95.2189 "/>
<path d="M281.0099 95.2189 L281.3427 95.3853 "/>
<path d="M281.3427 95.3853 L281.5091 95.5517 "/>
<path d="M281.5091 95.5517 L281.6755 95.8844 "/>
<path d="M280.5107 100.0443 L278.1812 100.0443 "/>
<path d="M280.5107 98.5468 L278.6804 98.5468 "/>
<path d="M278.6804 98.5468 L278.3476 98.7131 "/>
<path d="M278.3476 98.7131 L278.1812 99.0459 "/>
<path d="M278.1812 99.0459 L278.1812 99.5451 "/>
<path d="M278.1812 99.5451 L278.3476 99.8779 "/>
<path d="M278.3476 99.8779 L278.5140 100.0443 "/>
<path d="M280.0116 102.8730 L280.0116 101.7082 "/>
<path d="M278.1812 101.7082 L281.6755 101.7082 "/>
<path d="M281.6755 101.7082 L281.6755 103.3722 "/>
</g><text x="81.0989" y="112.5154" transform="scale(-1 1) translate(-162.197724 0)" textLength="8.4114" font-size="4.6590" lengthAdjust="spacingAndGlyphs" text-anchor="middle" opacity="0.01" style="font-family:monospace">C5</text>
<g class="stroked-text"><desc>C5</desc>
<path d="M80.5165 112.0123 L80.3501 112.1787 "/>
<path d="M80.3501 112.1787 L79.8509 112.3451 "/>
<path d="M79.8509 112.3451 L79.5181 112.3451 "/>
<path d="M79.5181 112.3451 L79.0189 112.1787 "/>
<path d="M79.0189 112.1787 L78.6862 111.8459 "/>
<path d="M78.6862 111.8459 L78.5198 111.5131 "/>
<path d="M78.5198 111.5131 L78.3534 110.8476 "/>
<path d="M78.3534 110.8476 L78.3534 110.3484 "/>
<path d="M78.3534 110.3484 L78.5198 109.6828 "/>
<path d="M78.5198 109.6828 L78.6862 109.3500 "/>
<path d="M78.6862 109.3500 L79.0189 109.0172 "/>
<path d="M79.0189 109.0172 L79.5181 108.8508 "/>
<path d="M79.5181 108.8508 L79.8509 108.8508 "/>
<path d="M79.8509 108.8508 L80.3501 109.0172 "/>
<path d="M80.3501 109.0172 L80.5165 109.1836 "/>
<path d="M83.6780 108.8508 L82.0140 108.8508 "/>
<path d="M82.0140 108.8508 L81.8476 110.5148 "/>
<path d="M81.8476 110.5148 L82.0140 110.3484 "/>
<path d="M82.0140 110.3484 L82.3468 110.1820 "/>
<path d="M82.3468 110.1820 L83.1788 110.1820 "/>
<path d="M83.1788 110.1820 L83.5116 110.3484 "/>
<path d="M83.5116 110.3484 L83.6780 110.5148 "/>
<path d="M83.6780 110.5148 L83.8444 110.8476 "/>
<path d="M83.8444 110.8476 L83.8444 111.6795 "/>
<path d="M83.8444 111.6795 L83.6780 112.0123 "/>
<path d="M83.6780 112.0123 L83.5116 112.1787 "/>
<path d="M83.5116 112.1787 L83.1788 112.3451 "/>
<path d="M83.1788 112.3451 L82.3468 112.3451 "/>
<path d="M82.3468 112.3451 L82.0140 112.1787 "/>
<path d="M82.0140 112.1787 L81.8476 112.0123 "/>
</g><text x="81.9857" y="117.3932" transform="scale(-1 1) translate(-163.971467 0)" textLength="17.7295" font-size="4.6590" lengthAdjust="spacingAndGlyphs" text-anchor="middle" opacity="0.01" style="font-family:monospace">100nF</text>
<g class="stroked-text"><desc>100nF</desc>
<path d="M76.5779 117.2229 L74.5812 117.2229 "/>
<path d="M75.5796 117.2229 L75.5796 113.7286 "/>
<path d="M75.5796 113.7286 L75.2468 114.2278 "/>
<path d="M75.2468 114.2278 L74.9140 114.5606 "/>
<path d="M74.9140 114.5606 L74.5812 114.7270 "/>
<path d="M78.7411 113.7286 L79.0738 113.7286 "/>
<path d="M79.0738 113.7286 L79.4066 113.8950 "/>
<path d="M79.4066 113.8950 L79.5730 114.0614 "/>
<path d="M79.5730 114.0614 L79.7394 114.3942 "/>
<path d="M79.7394 114.3942 L79.9058 115.0598 "/>
<path d="M79.9058 115.0598 L79.9058 115.8918 "/>
<path d="M79.9058 115.8918 L79.7394 116.5573 "/>
<path d="M79.7394 116.5573 L79.5730 116.8901 "/>
<path d="M79.5730 116.8901 L79.4066 117.0565 "/>
<path d="M79.4066 117.0565 L79.0738 117.2229 "/>
<path d="M79.0738 117.2229 L78.7411 117.2229 "/>
<path d="M78.7411 117.2229 L78.4083 117.0565 "/>
<path d="M78.4083 117.0565 L78.2419 116.8901 "/>
<path d="M78.2419 116.8901 L78.0755 116.5573 "/>
<path d="M78.0755 116.5573 L77.9091 115.8918 "/>
<path d="M77.9091 115.8918 L77.9091 115.0598 "/>
<path d="M77.9091 115.0598 L78.0755 114.3942 "/>
<path d="M78.0755 114.3942 L78.2419 114.0614 "/>
<path d="M78.2419 114.0614 L78.4083 113.8950 "/>
<path d="M78.4083 113.8950 L78.7411 113.7286 "/>
<path d="M82.0689 113.7286 L82.4017 113.7286 "/>
<path d="M82.4017 113.7286 L82.7345 113.8950 "/>
<path d="M82.7345 113.8950 L82.9009 114.0614 "/>
<path d="M82.9009 114.0614 L83.0673 114.3942 "/>
<path d="M83.0673 114.3942 L83.2337 115.0598 "/>
<path d="M83.2337 115.0598 L83.2337 115.8918 "/>
<path d="M83.2337 115.8918 L83.0673 116.5573 "/>
<path d="M83.0673 116.5573 L82.9009 116.8901 "/>
<path d="M82.9009 116.8901 L82.7345 117.0565 "/>
<path d="M82.7345 117.0565 L82.4017 117.2229 "/>
<path d="M82.4017 117.2229 L82.0689 117.2229 "/>
<path d="M82.0689 117.2229 L81.7361 117.0565 "/>
<path d="M81.7361 117.0565 L81.5697 116.8901 "/>
<path d="M81.5697 116.8901 L81.4034 116.5573 "/>
<path d="M81.4034 116.5573 L81.2370 115.8918 "/>
<path d="M81.2370 115.8918 L81.2370 115.0598 "/>
<path d="M81.2370 115.0598 L81.4034 114.3942 "/>
<path d="M81.4034 114.3942 L81.5697 114.0614 "/>
<path d="M81.5697 114.0614 L81.7361 113.8950 "/>
<path d="M81.7361 113.8950 L82.0689 113.7286 "/>
<path d="M84.7312 114.8934 L84.7312 117.2229 "/>
<path d="M84.7312 115.2262 L84.8976 115.0598 "/>
<path d="M84.8976 115.0598 L85.2304 114.8934 "/>
<path d="M85.2304 114.8934 L85.7296 114.8934 "/>
<path d="M85.7296 114.8934 L86.0624 115.0598 "/>
<path d="M86.0624 115.0598 L86.2288 115.3926 "/>
<path d="M86.2288 115.3926 L86.2288 117.2229 "/>
<path d="M89.0575 115.3926 L87.8927 115.3926 "/>
<path d="M87.8927 117.2229 L87.8927 113.7286 "/>
<path d="M87.8927 113.7286 L89.5567 113.7286 "/>
</g></g>
<g style="fill:#000084; fill-opacity:0.01;  stroke:#000084; stroke-width:1.0475; stroke-opacity:1;  stroke-linecap:round; stroke-linejoin:round;">
<text x="259.5058" y="147.5176" transform="scale(-1 1) translate(-519.011551 0)" textLength="15.3798" font-size="9.3110" lengthAdjust="spacingAndGlyphs" text-anchor="middle" opacity="0.01" style="font-family:monospace">D1</text>
<g class="stroked-text"><desc>D1</desc>
<path d="M254.3515 147.2021 L254.3515 140.2188 "/>
<path d="M254.3515 140.2188 L256.0142 140.2188 "/>
<path d="M256.0142 140.2188 L257.0118 140.5514 "/>
<path d="M257.0118 140.5514 L257.6768 141.2164 "/>
<path d="M257.6768 141.2164 L258.0094 141.8815 "/>
<path d="M258.0094 141.8815 L258.3419 143.2116 "/>
<path d="M258.3419 143.2116 L258.3419 144.2092 "/>
<path d="M258.3419 144.2092 L258.0094 145.5394 "/>
<path d="M258.0094 145.5394 L257.6768 146.2044 "/>
<path d="M257.6768 146.2044 L257.0118 146.8695 "/>
<path d="M257.0118 146.8695 L256.0142 147.2021 "/>
<path d="M256.0142 147.2021 L254.3515 147.2021 "/>
<path d="M264.9926 147.2021 L261.0022 147.2021 "/>
<path d="M262.9974 147.2021 L262.9974 140.2188 "/>
<path d="M262.9974 140.2188 L262.3323 141.2164 "/>
<path d="M262.3323 141.2164 L261.6673 141.8815 "/>
<path d="M261.6673 141.8815 L261.0022 142.2140 "/>
</g></g>
<g style="fill:#000084; fill-opacity:0.01;  stroke:#000084; stroke-width:2.1285; stroke-opacity:1;  stroke-linecap:round; stroke-linejoin:round;">
<text x="228.6338" y="101.4561" transform="scale(-1 1) translate(-457.267556 0)" textLength="23.5148" font-size="14.1899" lengthAdjust="spacingAndGlyphs" text-anchor="middle" opacity="0.01" style="font-family:monospace">F1</text>
<g class="stroked-text"><desc>F1</desc>
<path d="M225.0863 95.3730 L221.5388 95.3730 "/>
<path d="M221.5388 100.9476 L221.5388 90.3051 "/>
<path d="M221.5388 90.3051 L226.6066 90.3051 "/>
<path d="M236.2355 100.9476 L230.1541 100.9476 "/>
<path d="M233.1948 100.9476 L233.1948 90.3051 "/>
<path d="M233.1948 90.3051 L232.1813 91.8255 "/>
<path d="M232.1813 91.8255 L231.1677 92.8391 "/>
<path d="M231.1677 92.8391 L230.1541 93.3459 "/>
</g></g>
<g style="fill:#000084; fill-opacity:0.01;  stroke:#000084; stroke-width:1.0475; stroke-opacity:1;  stroke-linecap:round; stroke-linejoin:round;">
<text x="197.6338" y="180.0329" transform="scale(-1 1) translate(-395.267556 0)" textLength="10.2374" font-size="11.8250" lengthAdjust="spacingAndGlyphs" text-anchor="middle" opacity="0.01" style="font-family:monospace">K</text>
<g class="stroked-text"><desc>K</desc>
<path d="M195.3110 179.6469 L195.3110 170.7782 "/>
<path d="M200.3789 179.6469 L196.5780 174.5791 "/>
<path d="M200.3789 170.7782 L195.3110 175.8461 "/>
</g><text x="210.5821" y="197.1475" transform="scale(-1 1) translate(-421.164204 0)" textLength="18.6838" font-size="11.8250" lengthAdjust="spacingAndGlyphs" text-anchor="middle" opacity="0.01" style="font-family:monospace">D3</text>
<g class="stroked-text"><desc>D3</desc>
<path d="M204.0361 196.7615 L204.0361 187.8928 "/>
<path d="M204.0361 187.8928 L206.1477 187.8928 "/>
<path d="M206.1477 187.8928 L207.4147 188.3151 "/>
<path d="M207.4147 188.3151 L208.2593 189.1597 "/>
<path d="M208.2593 189.1597 L208.6817 190.0044 "/>
<path d="M208.6817 190.0044 L209.1040 191.6936 "/>
<path d="M209.1040 191.6936 L209.1040 192.9606 "/>
<path d="M209.1040 192.9606 L208.6817 194.6499 "/>
<path d="M208.6817 194.6499 L208.2593 195.4945 "/>
<path d="M208.2593 195.4945 L207.4147 196.3391 "/>
<path d="M207.4147 196.3391 L206.1477 196.7615 "/>
<path d="M206.1477 196.7615 L204.0361 196.7615 "/>
<path d="M212.0602 187.8928 L217.5504 187.8928 "/>
<path d="M217.5504 187.8928 L214.5941 191.2713 "/>
<path d="M214.5941 191.2713 L215.8611 191.2713 "/>
<path d="M215.8611 191.2713 L216.7057 191.6936 "/>
<path d="M216.7057 191.6936 L217.1281 192.1159 "/>
<path d="M217.1281 192.1159 L217.5504 192.9606 "/>
<path d="M217.5504 192.9606 L217.5504 195.0722 "/>
<path d="M217.5504 195.0722 L217.1281 195.9168 "/>
<path d="M217.1281 195.9168 L216.7057 196.3391 "/>
<path d="M216.7057 196.3391 L215.8611 196.7615 "/>
<path d="M215.8611 196.7615 L213.3272 196.7615 "/>
<path d="M213.3272 196.7615 L212.4825 196.3391 "/>
<path d="M212.4825 196.3391 L212.0602 195.9168 "/>
</g></g>
<g style="fill:#000084; fill-opacity:0.01;  stroke:#000084; stroke-width:0.7627; stroke-opacity:1;  stroke-linecap:round; stroke-linejoin:round;">
<text x="207.1952" y="195.9162" transform="scale(-1 1) translate(-414.390461 0)" textLength="8.4114" font-size="4.6590" lengthAdjust="spacingAndGlyphs" text-anchor="middle" opacity="0.01" style="font-family:monospace">R4</text>
<g class="stroked-text"><desc>R4</desc>
<path d="M206.6129 195.7460 L205.4481 194.0820 "/>
<path d="M204.6161 195.7460 L204.6161 192.2517 "/>
<path d="M204.6161 192.2517 L205.9473 192.2517 "/>
<path d="M205.9473 192.2517 L206.2801 192.4181 "/>
<path d="M206.2801 192.4181 L206.4465 192.5845 "/>
<path d="M206.4465 192.5845 L206.6129 192.9173 "/>
<path d="M206.6129 192.9173 L206.6129 193.4164 "/>
<path d="M206.6129 193.4164 L206.4465 193.7492 "/>
<path d="M206.4465 193.7492 L206.2801 193.9156 "/>
<path d="M206.2801 193.9156 L205.9473 194.0820 "/>
<path d="M205.9473 194.0820 L204.6161 194.0820 "/>
<path d="M209.6079 193.4164 L209.6079 195.7460 "/>
<path d="M208.7760 192.0853 L207.9440 194.5812 "/>
<path d="M207.9440 194.5812 L210.1071 194.5812 "/>
</g><text x="208.0821" y="200.7940" transform="scale(-1 1) translate(-416.164204 0)" textLength="15.0672" font-size="4.6590" lengthAdjust="spacingAndGlyphs" text-anchor="middle" opacity="0.01" style="font-family:monospace">270R</text>
<g class="stroked-text"><desc>270R</desc>
<path d="M202.0087 197.4623 L202.1751 197.2959 "/>
<path d="M202.1751 197.2959 L202.5079 197.1295 "/>
<path d="M202.5079 197.1295 L203.3399 197.1295 "/>
<path d="M203.3399 197.1295 L203.6727 197.2959 "/>
<path d="M203.6727 197.2959 L203.8391 197.4623 "/>
<path d="M203.8391 197.4623 L204.0055 197.7951 "/>
<path d="M204.0055 197.7951 L204.0055 198.1278 "/>
<path d="M204.0055 198.1278 L203.8391 198.6270 "/>
<path d="M203.8391 198.6270 L201.8423 200.6238 "/>
<path d="M201.8423 200.6238 L204.0055 200.6238 "/>
<path d="M205.1702 197.1295 L207.4997 197.1295 "/>
<path d="M207.4997 197.1295 L206.0022 200.6238 "/>
<path d="M209.4965 197.1295 L209.8292 197.1295 "/>
<path d="M209.8292 197.1295 L210.1620 197.2959 "/>
<path d="M210.1620 197.2959 L210.3284 197.4623 "/>
<path d="M210.3284 197.4623 L210.4948 197.7951 "/>
<path d="M210.4948 197.7951 L210.6612 198.4606 "/>
<path d="M210.6612 198.4606 L210.6612 199.2926 "/>
<path d="M210.6612 199.2926 L210.4948 199.9582 "/>
<path d="M210.4948 199.9582 L210.3284 200.2910 "/>
<path d="M210.3284 200.2910 L210.1620 200.4574 "/>
<path d="M210.1620 200.4574 L209.8292 200.6238 "/>
<path d="M209.8292 200.6238 L209.4965 200.6238 "/>
<path d="M209.4965 200.6238 L209.1637 200.4574 "/>
<path d="M209.1637 200.4574 L208.9973 200.2910 "/>
<path d="M208.9973 200.2910 L208.8309 199.9582 "/>
<path d="M208.8309 199.9582 L208.6645 199.2926 "/>
<path d="M208.6645 199.2926 L208.6645 198.4606 "/>
<path d="M208.6645 198.4606 L208.8309 197.7951 "/>
<path d="M208.8309 197.7951 L208.9973 197.4623 "/>
<path d="M208.9973 197.4623 L209.1637 197.2959 "/>
<path d="M209.1637 197.2959 L209.4965 197.1295 "/>
<path d="M214.1555 200.6238 L212.9907 198.9598 "/>
<path d="M212.1588 200.6238 L212.1588 197.1295 "/>
<path d="M212.1588 197.1295 L213.4899 197.1295 "/>
<path d="M213.4899 197.1295 L213.8227 197.2959 "/>
<path d="M213.8227 197.2959 L213.9891 197.4623 "/>
<path d="M213.9891 197.4623 L214.1555 197.7951 "/>
<path d="M214.1555 197.7951 L214.1555 198.2942 "/>
<path d="M214.1555 198.2942 L213.9891 198.6270 "/>
<path d="M213.9891 198.6270 L213.8227 198.7934 "/>
<path d="M213.8227 198.7934 L213.4899 198.9598 "/>
<path d="M213.4899 198.9598 L212.1588 198.9598 "/>
</g></g>
<g style="fill:#000084; fill-opacity:0.0;  stroke:#000084; stroke-width:1.0475; stroke-opacity:1;  stroke-linecap:round; stroke-linejoin:round;">
<path d="M223.4417 6.5609 L223.4417 17.2033 "/>
<path d="M223.4417 17.2033 L216.3468 17.2033 "/>
<path d="M216.3468 6.5609 L223.4417 6.5609 "/>
<path d="M209.2518 17.2033 L202.1568 17.2033 "/>
<path d="M202.1568 6.5609 L209.2518 6.5609 "/>
<path d="M202.1568 17.2033 L202.1568 6.5609 "/>
</g>
<g style="fill:#000084; fill-opacity:0.0;  stroke:#000084; stroke-width:0.6983; stroke-opacity:1;  stroke-linecap:round; stroke-linejoin:round;">
<circle cx="69.6254" cy="141.2187" r="6.9832"/> 
</g>
<g style="fill:#000084; fill-opacity:0.0;  stroke:#000084; stroke-width:1.0475; stroke-opacity:1;  stroke-linecap:round; stroke-linejoin:round;">
<path d="M149.4927 75.5867 L138.8503 75.5867 "/>
<path d="M138.8503 75.5867 L138.8503 68.4917 "/>
<path d="M149.4927 68.4917 L149.4927 75.5867 "/>
<path d="M138.8503 61.3968 L138.8503 54.3018 "/>
<path d="M149.4927 54.3018 L149.4927 61.3968 "/>
<path d="M138.8503 54.3018 L149.4927 54.3018 "/>
<path d="M254.0388 87.7096 L264.6813 87.7096 "/>
<path d="M264.6813 87.7096 L264.6813 94.8046 "/>
<path d="M254.0388 94.8046 L254.0388 87.7096 "/>
<path d="M264.6813 101.8996 L264.6813 108.9945 "/>
<path d="M254.0388 108.9945 L254.0388 101.8996 "/>
<path d="M264.6813 108.9945 L254.0388 108.9945 "/>
<path d="M255.3691 79.2843 L255.3691 68.6419 "/>
<path d="M255.3691 68.6419 L262.4641 68.6419 "/>
<path d="M262.4641 79.2843 L255.3691 79.2843 "/>
<path d="M269.5591 68.6419 L276.6540 68.6419 "/>
<path d="M276.6540 79.2843 L269.5591 79.2843 "/>
<path d="M276.6540 68.6419 L276.6540 79.2843 "/>
<path d="M84.2029 56.2257 L84.2029 66.8681 "/>
<path d="M84.2029 66.8681 L77.1079 66.8681 "/>
<path d="M77.1079 56.2257 L84.2029 56.2257 "/>
<path d="M70.0130 66.8681 L62.9180 66.8681 "/>
<path d="M62.9180 56.2257 L70.0130 56.2257 "/>
<path d="M62.9180 66.8681 L62.9180 56.2257 "/>
</g>
<g style="fill:#000084; fill-opacity:0.0;  stroke:#000084; stroke-width:0.6983; stroke-opacity:1;  stroke-linecap:round; stroke-linejoin:round;">
<path d="M131.4271 110.1014 L110.4774 110.1014 "/>
<path d="M110.4774 110.1014 L103.4941 103.1181 "/>
<path d="M103.4941 103.1181 L103.4941 82.1684 "/>
<path d="M131.4271 82.1684 L131.4271 110.1014 "/>
<path d="M103.4941 82.1684 L131.4271 82.1684 "/>
</g>
<g style="fill:#000084; fill-opacity:0.0;  stroke:#000084; stroke-width:1.0475; stroke-opacity:1;  stroke-linecap:round; stroke-linejoin:round;">
<path d="M109.0353 56.2257 L109.0353 66.8681 "/>
<path d="M109.0353 66.8681 L101.9403 66.8681 "/>
<path d="M101.9403 56.2257 L109.0353 56.2257 "/>
<path d="M94.8454 66.8681 L87.7504 66.8681 "/>
<path d="M87.7504 56.2257 L94.8454 56.2257 "/>
<path d="M87.7504 66.8681 L87.7504 56.2257 "/>
<path d="M230.1352 24.1209 L230.1352 43.9868 "/>
<path d="M230.1352 43.9868 L191.0290 43.9868 "/>
<path d="M191.0290 24.1209 L230.1352 24.1209 "/>
<path d="M191.0290 43.9868 L191.0290 24.1209 "/>
<path d="M112.5828 66.8681 L112.5828 56.2257 "/>
<path d="M112.5828 56.2257 L119.6778 56.2257 "/>
<path d="M119.6778 66.8681 L112.5828 66.8681 "/>
<path d="M126.7727 56.2257 L133.8677 56.2257 "/>
<path d="M133.8677 66.8681 L126.7727 66.8681 "/>
<path d="M133.8677 56.2257 L133.8677 66.8681 "/>
</g>
<g style="fill:#000084; fill-opacity:0.0;  stroke:#000084; stroke-width:0.6983; stroke-opacity:1;  stroke-linecap:round; stroke-linejoin:round;">
<circle cx="240.0165" cy="67.8947" r="6.9832"/> 
<path d="M168.5954 84.0888 L168.5954 66.6307 "/>
<path d="M168.5954 66.6307 L171.3887 63.8374 "/>
<path d="M171.3887 63.8374 L179.7686 63.8374 "/>
<path d="M179.7686 84.0888 L168.5954 84.0888 "/>
<path d="M179.7686 63.8374 L179.7686 84.0888 "/>
</g>
<g style="fill:#000084; fill-opacity:0.0;  stroke:#000084; stroke-width:1.0475; stroke-opacity:1;  stroke-linecap:round; stroke-linejoin:round;">
<path d="M282.4187 108.9945 L271.7762 108.9945 "/>
<path d="M271.7762 108.9945 L271.7762 101.8996 "/>
<path d="M282.4187 101.8996 L282.4187 108.9945 "/>
<path d="M271.7762 94.8046 L271.7762 87.7096 "/>
<path d="M282.4187 87.7096 L282.4187 94.8046 "/>
<path d="M271.7762 87.7096 L282.4187 87.7096 "/>
<path d="M70.4564 118.3067 L70.4564 107.6642 "/>
<path d="M70.4564 107.6642 L77.5514 107.6642 "/>
<path d="M77.5514 118.3067 L70.4564 118.3067 "/>
<path d="M84.6463 107.6642 L91.7413 107.6642 "/>
<path d="M91.7413 118.3067 L84.6463 118.3067 "/>
<path d="M91.7413 107.6642 L91.7413 118.3067 "/>
</g>
<g style="fill:#000084; fill-opacity:0.0;  stroke:#000084; stroke-width:0.6983; stroke-opacity:1;  stroke-linecap:round; stroke-linejoin:round;">
<path d="M243.9620 137.6503 L243.9620 116.7005 "/>
<path d="M255.4882 127.1825 L249.1915 127.1825 "/>
<path d="M255.4882 127.1825 L263.5233 132.4151 "/>
<path d="M255.4882 127.1825 L263.5233 121.5952 "/>
<path d="M255.4882 121.5952 L255.4882 132.7698 "/>
<path d="M263.5233 132.4151 L263.5233 121.5952 "/>
<path d="M263.5233 127.1825 L270.4941 127.1825 "/>
<path d="M276.0849 137.6503 L243.9620 137.6503 "/>
<path d="M276.0849 116.7005 L243.9620 116.7005 "/>
<path d="M276.0849 116.7005 L276.0849 137.6503 "/>
</g>
<g style="fill:#000084; fill-opacity:0.0;  stroke:#000084; stroke-width:1.0475; stroke-opacity:1;  stroke-linecap:round; stroke-linejoin:round;">
<path d="M208.2357 108.5511 L249.0318 108.5511 "/>
<path d="M208.2357 83.7187 L208.2357 108.5511 "/>
<path d="M208.2357 83.7187 L249.0318 83.7187 "/>
<path d="M249.0318 83.7187 L249.0318 108.5511 "/>
<path d="M230.1352 166.0204 L230.1352 185.8863 "/>
<path d="M230.1352 185.8863 L191.0290 185.8863 "/>
<path d="M191.0290 166.0204 L230.1352 166.0204 "/>
<path d="M191.0290 185.8863 L191.0290 166.0204 "/>
<path d="M196.5528 201.7075 L196.5528 191.0651 "/>
<path d="M196.5528 191.0651 L203.6477 191.0651 "/>
<path d="M203.6477 201.7075 L196.5528 201.7075 "/>
<path d="M210.7427 191.0651 L217.8377 191.0651 "/>
<path d="M217.8377 201.7075 L210.7427 201.7075 "/>
<path d="M217.8377 191.0651 L217.8377 201.7075 "/>
<g>
</g>
<g>
</g>
<g>
</g>
<g>
</g>
<g>
</g>
<g>
</g>
<g>
</g>
<g>
</g>
<g>
</g>
<g>
</g>
<g>
</g>
<g>
</g>
<g>
</g>
<g>
</g>
<g>
</g>
<g>
</g>
<g>
</g>
<g>
</g>
<g>
</g>
<g>
</g>
<g>
</g>
<g>
</g>
<g>
</g>
<g>
</g>
<g>
</g>
<g>
</g>
<g>
</g>
<g>
</g>
<g>
</g>
<g>
</g>
<g>
</g>
</g> 
<svg:g><svg:g><svg:title>SVG Image created as USB232R02-Edge_Cuts.svg date 2023/09/11 01:12:21 </svg:title>
  <svg:desc>Image generated by PCBNEW </svg:desc>
<svg:g style="fill:#C2C200; fill-opacity:1.0000;stroke:#C2C200; stroke-opacity:1.0000; stroke-linecap:round; stroke-linejoin:round;" transform="translate(0 0) scale(1 1)">
</svg:g>
<svg:g style="fill:#C2C200; fill-opacity:0.0;  stroke:#C2C200; stroke-width:0.0000; stroke-opacity:1;  stroke-linecap:round; stroke-linejoin:round;">
</svg:g>
<svg:g style="fill:#C2C200; fill-opacity:0.0;  stroke:#C2C200; stroke-width:0.6983; stroke-opacity:1;  stroke-linecap:round; stroke-linejoin:round;">
<svg:path style="fill:#C2C200; fill-opacity:0.0;  stroke:#C2C200; stroke-width:0.6983; stroke-opacity:1;  stroke-linecap:round; stroke-linejoin:round;fill:none" d="M 288.6268,0.3528 8.3754,0.3528 8.3754,209.6544 288.6268,209.6544 Z"/> 
</svg:g>
<svg:g style="fill:#C2C200; fill-opacity:0.0;  stroke:#C2C200; stroke-width:0.3492; stroke-opacity:1;  stroke-linecap:round; stroke-linejoin:round;">
<svg:path d="M218.2637 29.1656 L218.2637 38.9422 "/>
<svg:path d="M214.7720 25.6740 L206.3922 25.6740 "/>
<svg:path d="M214.7720 42.4338 L206.3922 42.4338 "/>
<svg:path d="M202.9005 29.1656 L202.9005 38.9422 "/>
<svg:path d="M218.2637 29.1656 A3.4916 3.4916 0.0 0 0 214.7720 25.6740"/>
<svg:path d="M214.7720 42.4338 A3.4916 3.4916 0.0 0 0 218.2637 38.9422"/>
<svg:path d="M206.3922 25.6740 A3.4916 3.4916 0.0 0 0 202.9005 29.1656"/>
<svg:path d="M202.9005 38.9422 A3.4916 3.4916 0.0 0 0 206.3922 42.4338"/>
<svg:path d="M218.2637 171.0651 L218.2637 180.8416 "/>
<svg:path d="M214.7720 167.5734 L206.3922 167.5734 "/>
<svg:path d="M214.7720 184.3332 L206.3922 184.3332 "/>
<svg:path d="M202.9005 171.0651 L202.9005 180.8416 "/>
<svg:path d="M218.2637 171.0651 A3.4916 3.4916 0.0 0 0 214.7720 167.5734"/>
<svg:path d="M214.7720 184.3332 A3.4916 3.4916 0.0 0 0 218.2637 180.8416"/>
<svg:path d="M206.3922 167.5734 A3.4916 3.4916 0.0 0 0 202.9005 171.0651"/>
<svg:path d="M202.9005 180.8416 A3.4916 3.4916 0.0 0 0 206.3922 184.3332"/>
<svg:g>
</svg:g>
<svg:g>
</svg:g>
<svg:g>
</svg:g>
<svg:g>
</svg:g>
<svg:g>
</svg:g>
<svg:g>
</svg:g>
<svg:g>
</svg:g>
<svg:g>
</svg:g>
<svg:g>
</svg:g>
<svg:g>
</svg:g>
<svg:g>
</svg:g>
<svg:g>
</svg:g>
<svg:g>
</svg:g>
<svg:g>
</svg:g>
<svg:g>
</svg:g>
<svg:g>
</svg:g>
<svg:g>
</svg:g>
<svg:g>
</svg:g>
<svg:g>
</svg:g>
<svg:g>
</svg:g>
<svg:g>
</svg:g>
<svg:g>
</svg:g>
<svg:g>
</svg:g>
<svg:g>
</svg:g>
<svg:g>
</svg:g>
<svg:g>
</svg:g>
<svg:g>
</svg:g>
<svg:g>
</svg:g>
<svg:g>
</svg:g>
<svg:g>
</svg:g>
<svg:g>
</svg:g>
</svg:g> 
</svg:g></svg:g></svg>
