<?xml version='1.0' encoding='ASCII' standalone='yes'?>
<svg xmlns:svg="http://www.w3.org/2000/svg" xmlns="http://www.w3.org/2000/svg" xmlns:xlink="http://www.w3.org/1999/xlink" version="1.1" width="297.0022mm" height="210.0072mm" viewBox="0.0000 0.0000 297.0022 210.0072">
<title>SVG Image created as USB232R02-F_Fab.svg date 2023/07/07 18:49:36 </title>
  <desc>Image generated by PCBNEW </desc>
<g style="fill:#848484; fill-opacity:1.0000;stroke:#848484; stroke-opacity:1.0000; stroke-linecap:round; stroke-linejoin:round;" transform="translate(0 0) scale(1 1)">
</g>
<g style="fill:#848484; fill-opacity:0.0;  stroke:#848484; stroke-width:0.0000; stroke-opacity:1;  stroke-linecap:round; stroke-linejoin:round;">
</g>
<g style="fill:#848484; fill-opacity:0.01;  stroke:#848484; stroke-width:1.0475; stroke-opacity:1;  stroke-linecap:round; stroke-linejoin:round;">
<text x="67.5933" y="46.5329" textLength="34.4756" font-size="9.3110" lengthAdjust="spacingAndGlyphs" text-anchor="middle" opacity="0.01" style="font-family:monospace">USB_B</text>
<g class="stroked-text"><desc>USB_B</desc>
<path d="M52.6292 39.2342 L52.6292 44.8873 "/>
<path d="M52.6292 44.8873 L52.9617 45.5523 "/>
<path d="M52.9617 45.5523 L53.2943 45.8849 "/>
<path d="M53.2943 45.8849 L53.9593 46.2174 "/>
<path d="M53.9593 46.2174 L55.2895 46.2174 "/>
<path d="M55.2895 46.2174 L55.9545 45.8849 "/>
<path d="M55.9545 45.8849 L56.2871 45.5523 "/>
<path d="M56.2871 45.5523 L56.6196 44.8873 "/>
<path d="M56.6196 44.8873 L56.6196 39.2342 "/>
<path d="M59.6124 45.8849 L60.6100 46.2174 "/>
<path d="M60.6100 46.2174 L62.2727 46.2174 "/>
<path d="M62.2727 46.2174 L62.9378 45.8849 "/>
<path d="M62.9378 45.8849 L63.2703 45.5523 "/>
<path d="M63.2703 45.5523 L63.6029 44.8873 "/>
<path d="M63.6029 44.8873 L63.6029 44.2222 "/>
<path d="M63.6029 44.2222 L63.2703 43.5571 "/>
<path d="M63.2703 43.5571 L62.9378 43.2246 "/>
<path d="M62.9378 43.2246 L62.2727 42.8921 "/>
<path d="M62.2727 42.8921 L60.9426 42.5595 "/>
<path d="M60.9426 42.5595 L60.2775 42.2270 "/>
<path d="M60.2775 42.2270 L59.9450 41.8945 "/>
<path d="M59.9450 41.8945 L59.6124 41.2294 "/>
<path d="M59.6124 41.2294 L59.6124 40.5643 "/>
<path d="M59.6124 40.5643 L59.9450 39.8993 "/>
<path d="M59.9450 39.8993 L60.2775 39.5667 "/>
<path d="M60.2775 39.5667 L60.9426 39.2342 "/>
<path d="M60.9426 39.2342 L62.6053 39.2342 "/>
<path d="M62.6053 39.2342 L63.6029 39.5667 "/>
<path d="M68.9234 42.5595 L69.9210 42.8921 "/>
<path d="M69.9210 42.8921 L70.2536 43.2246 "/>
<path d="M70.2536 43.2246 L70.5861 43.8897 "/>
<path d="M70.5861 43.8897 L70.5861 44.8873 "/>
<path d="M70.5861 44.8873 L70.2536 45.5523 "/>
<path d="M70.2536 45.5523 L69.9210 45.8849 "/>
<path d="M69.9210 45.8849 L69.2560 46.2174 "/>
<path d="M69.2560 46.2174 L66.5957 46.2174 "/>
<path d="M66.5957 46.2174 L66.5957 39.2342 "/>
<path d="M66.5957 39.2342 L68.9234 39.2342 "/>
<path d="M68.9234 39.2342 L69.5885 39.5667 "/>
<path d="M69.5885 39.5667 L69.9210 39.8993 "/>
<path d="M69.9210 39.8993 L70.2536 40.5643 "/>
<path d="M70.2536 40.5643 L70.2536 41.2294 "/>
<path d="M70.2536 41.2294 L69.9210 41.8945 "/>
<path d="M69.9210 41.8945 L69.5885 42.2270 "/>
<path d="M69.5885 42.2270 L68.9234 42.5595 "/>
<path d="M68.9234 42.5595 L66.5957 42.5595 "/>
<path d="M71.9162 46.8825 L77.2368 46.8825 "/>
<path d="M81.2272 42.5595 L82.2248 42.8921 "/>
<path d="M82.2248 42.8921 L82.5574 43.2246 "/>
<path d="M82.5574 43.2246 L82.8899 43.8897 "/>
<path d="M82.8899 43.8897 L82.8899 44.8873 "/>
<path d="M82.8899 44.8873 L82.5574 45.5523 "/>
<path d="M82.5574 45.5523 L82.2248 45.8849 "/>
<path d="M82.2248 45.8849 L81.5598 46.2174 "/>
<path d="M81.5598 46.2174 L78.8995 46.2174 "/>
<path d="M78.8995 46.2174 L78.8995 39.2342 "/>
<path d="M78.8995 39.2342 L81.2272 39.2342 "/>
<path d="M81.2272 39.2342 L81.8923 39.5667 "/>
<path d="M81.8923 39.5667 L82.2248 39.8993 "/>
<path d="M82.2248 39.8993 L82.5574 40.5643 "/>
<path d="M82.5574 40.5643 L82.5574 41.2294 "/>
<path d="M82.5574 41.2294 L82.2248 41.8945 "/>
<path d="M82.2248 41.8945 L81.8923 42.2270 "/>
<path d="M81.8923 42.2270 L81.2272 42.5595 "/>
<path d="M81.2272 42.5595 L78.8995 42.5595 "/>
</g><text x="67.5933" y="109.5218" textLength="13.1933" font-size="9.3110" lengthAdjust="spacingAndGlyphs" text-anchor="middle" opacity="0.01" style="font-family:monospace">J1</text>
<g class="stroked-text"><desc>J1</desc>
<path d="M65.2655 102.2230 L65.2655 107.2110 "/>
<path d="M65.2655 107.2110 L64.9330 108.2086 "/>
<path d="M64.9330 108.2086 L64.2679 108.8737 "/>
<path d="M64.2679 108.8737 L63.2703 109.2062 "/>
<path d="M63.2703 109.2062 L62.6053 109.2062 "/>
<path d="M72.2488 109.2062 L68.2584 109.2062 "/>
<path d="M70.2536 109.2062 L70.2536 102.2230 "/>
<path d="M70.2536 102.2230 L69.5885 103.2206 "/>
<path d="M69.5885 103.2206 L68.9234 103.8857 "/>
<path d="M68.9234 103.8857 L68.2584 104.2182 "/>
</g><g transform="rotate(-180.000000 100.6100 33.6991)">
<text x="100.6100" y="37.1908" transform="scale(-1 1) translate(-201.220084 0)" textLength="8.2053" font-size="9.3110" lengthAdjust="spacingAndGlyphs" text-anchor="middle" opacity="0.01" style="font-family:monospace">K</text>
</g>
<g class="stroked-text"><desc>K</desc>
<path d="M98.7811 30.5230 L98.7811 37.5063 "/>
<path d="M102.7715 30.5230 L99.7787 34.5134 "/>
<path d="M102.7715 37.5063 L98.7811 33.5158 "/>
</g><g transform="rotate(-180.000000 100.6100 175.5986)">
<text x="100.6100" y="179.0902" transform="scale(-1 1) translate(-201.220084 0)" textLength="8.2053" font-size="9.3110" lengthAdjust="spacingAndGlyphs" text-anchor="middle" opacity="0.01" style="font-family:monospace">K</text>
</g>
<g class="stroked-text"><desc>K</desc>
<path d="M98.7811 172.4225 L98.7811 179.4057 "/>
<path d="M102.7715 172.4225 L99.7787 176.4129 "/>
<path d="M102.7715 179.4057 L98.7811 175.4153 "/>
</g></g>
<g style="fill:#848484; fill-opacity:0.0;  stroke:#848484; stroke-width:2.6606; stroke-opacity:1;  stroke-linecap:round; stroke-linejoin:round;">
<circle cx="42.0765" cy="175.9533" r="20.9479"/> 
</g>
<g style="fill:#848484; fill-opacity:0.0;  stroke:#848484; stroke-width:0.6983; stroke-opacity:1;  stroke-linecap:round; stroke-linejoin:round;">
<path d="M125.2050 141.2955 L118.2218 148.2787 "/>
<path d="M125.2050 63.7815 L125.2050 141.2955 "/>
<path d="M118.2218 148.2787 L9.9816 148.2787 "/>
<path d="M9.9816 148.2787 L9.9816 63.7815 "/>
<path d="M9.9816 63.7815 L125.2050 63.7815 "/>
</g>
<g style="fill:#848484; fill-opacity:0.0;  stroke:#848484; stroke-width:2.6606; stroke-opacity:1;  stroke-linecap:round; stroke-linejoin:round;">
<circle cx="254.9257" cy="175.9533" r="20.9479"/> 
</g>
<g style="fill:#848484; fill-opacity:0.0;  stroke:#848484; stroke-width:1.0475; stroke-opacity:1;  stroke-linecap:round; stroke-linejoin:round;">
<path d="M175.1072 193.6908 L175.1072 158.2159 "/>
<path d="M228.3195 193.6908 L175.1072 193.6908 "/>
<path d="M175.1072 158.2159 L228.3195 158.2159 "/>
<path d="M228.3195 158.2159 L228.3195 193.6908 "/>
</g>
<g style="fill:#848484; fill-opacity:0.0;  stroke:#848484; stroke-width:2.6606; stroke-opacity:1;  stroke-linecap:round; stroke-linejoin:round;">
<circle cx="254.9257" cy="34.0539" r="20.9479"/> 
<circle cx="42.0765" cy="34.0539" r="20.9479"/> 
</g>
<g style="fill:#848484; fill-opacity:0.0;  stroke:#848484; stroke-width:1.0475; stroke-opacity:1;  stroke-linecap:round; stroke-linejoin:round;">
<path d="M113.0262 193.6908 L113.0262 158.2159 "/>
<path d="M166.2385 193.6908 L113.0262 193.6908 "/>
<path d="M113.0262 158.2159 L166.2385 158.2159 "/>
<path d="M166.2385 158.2159 L166.2385 193.6908 "/>
<g>
</g>
<g>
</g>
<g>
</g>
<g>
</g>
<g>
</g>
<g>
</g>
<g>
</g>
<g>
</g>
<g>
</g>
<g>
</g>
<g>
</g>
<g>
</g>
<g>
</g>
<g>
</g>
<g>
</g>
<g>
</g>
<g>
</g>
<g>
</g>
<g>
</g>
<g>
</g>
<g>
</g>
<g>
</g>
<g>
</g>
<g>
</g>
<g>
</g>
<g>
</g>
<g>
</g>
<g>
</g>
<g>
</g>
<g>
</g>
<g>
</g>
</g> 
<svg:g><svg:g><svg:title>SVG Image created as USB232R02-Edge_Cuts.svg date 2023/07/07 18:49:36 </svg:title>
  <svg:desc>Image generated by PCBNEW </svg:desc>
<svg:g style="fill:#C2C200; fill-opacity:1.0000;stroke:#C2C200; stroke-opacity:1.0000; stroke-linecap:round; stroke-linejoin:round;" transform="translate(0 0) scale(1 1)">
</svg:g>
<svg:g style="fill:#C2C200; fill-opacity:0.0;  stroke:#C2C200; stroke-width:0.0000; stroke-opacity:1;  stroke-linecap:round; stroke-linejoin:round;">
</svg:g>
<svg:g style="fill:#C2C200; fill-opacity:0.0;  stroke:#C2C200; stroke-width:0.6983; stroke-opacity:1;  stroke-linecap:round; stroke-linejoin:round;">
<svg:path style="fill:#C2C200; fill-opacity:0.0;  stroke:#C2C200; stroke-width:0.6983; stroke-opacity:1;  stroke-linecap:round; stroke-linejoin:round;fill:none" d="M 8.3754,0.3528 288.6268,0.3528 288.6268,209.6544 8.3754,209.6544 Z"/> 
</svg:g>
<svg:g style="fill:#C2C200; fill-opacity:0.0;  stroke:#C2C200; stroke-width:0.3492; stroke-opacity:1;  stroke-linecap:round; stroke-linejoin:round;">
<svg:path d="M78.7385 29.1656 L78.7385 38.9422 "/>
<svg:path d="M82.2302 25.6740 L90.6100 25.6740 "/>
<svg:path d="M82.2302 42.4338 L90.6100 42.4338 "/>
<svg:path d="M94.1017 29.1656 L94.1017 38.9422 "/>
<svg:path d="M82.2302 25.6740 A3.4916 3.4916 0.0 0 0 78.7385 29.1656"/>
<svg:path d="M78.7385 38.9422 A3.4916 3.4916 0.0 0 0 82.2302 42.4338"/>
<svg:path d="M94.1017 29.1656 A3.4916 3.4916 0.0 0 0 90.6100 25.6740"/>
<svg:path d="M90.6100 42.4338 A3.4916 3.4916 0.0 0 0 94.1017 38.9422"/>
<svg:path d="M78.7385 171.0651 L78.7385 180.8416 "/>
<svg:path d="M82.2302 167.5734 L90.6100 167.5734 "/>
<svg:path d="M82.2302 184.3332 L90.6100 184.3332 "/>
<svg:path d="M94.1017 171.0651 L94.1017 180.8416 "/>
<svg:path d="M82.2302 167.5734 A3.4916 3.4916 0.0 0 0 78.7385 171.0651"/>
<svg:path d="M78.7385 180.8416 A3.4916 3.4916 0.0 0 0 82.2302 184.3332"/>
<svg:path d="M94.1017 171.0651 A3.4916 3.4916 0.0 0 0 90.6100 167.5734"/>
<svg:path d="M90.6100 184.3332 A3.4916 3.4916 0.0 0 0 94.1017 180.8416"/>
<svg:g>
</svg:g>
<svg:g>
</svg:g>
<svg:g>
</svg:g>
<svg:g>
</svg:g>
<svg:g>
</svg:g>
<svg:g>
</svg:g>
<svg:g>
</svg:g>
<svg:g>
</svg:g>
<svg:g>
</svg:g>
<svg:g>
</svg:g>
<svg:g>
</svg:g>
<svg:g>
</svg:g>
<svg:g>
</svg:g>
<svg:g>
</svg:g>
<svg:g>
</svg:g>
<svg:g>
</svg:g>
<svg:g>
</svg:g>
<svg:g>
</svg:g>
<svg:g>
</svg:g>
<svg:g>
</svg:g>
<svg:g>
</svg:g>
<svg:g>
</svg:g>
<svg:g>
</svg:g>
<svg:g>
</svg:g>
<svg:g>
</svg:g>
<svg:g>
</svg:g>
<svg:g>
</svg:g>
<svg:g>
</svg:g>
<svg:g>
</svg:g>
<svg:g>
</svg:g>
<svg:g>
</svg:g>
</svg:g> 
</svg:g></svg:g></svg>
