<?xml version='1.0' encoding='ASCII' standalone='yes'?>
<svg xmlns:svg="http://www.w3.org/2000/svg" xmlns="http://www.w3.org/2000/svg" xmlns:xlink="http://www.w3.org/1999/xlink" version="1.1" width="297.0022mm" height="210.0072mm" viewBox="0.0000 0.0000 297.0022 210.0072">
<title>SVG Image created as USB232R02-B_Fab.svg date 2023/07/05 13:03:57 </title>
  <desc>Image generated by PCBNEW </desc>
<g style="fill:#000084; fill-opacity:1.0000;stroke:#000084; stroke-opacity:1.0000; stroke-linecap:round; stroke-linejoin:round;" transform="translate(0 0) scale(1 1)">
</g>
<g style="fill:#000084; fill-opacity:0.0;  stroke:#000084; stroke-width:0.0000; stroke-opacity:1;  stroke-linecap:round; stroke-linejoin:round;">
</g>
<g style="fill:#000084; fill-opacity:0.01;  stroke:#000084; stroke-width:0.7627; stroke-opacity:1;  stroke-linecap:round; stroke-linejoin:round;">
<text x="84.2029" y="15.8464" transform="scale(-1 1) translate(-168.405838 0)" textLength="8.0301" font-size="4.6590" lengthAdjust="spacingAndGlyphs" text-anchor="middle" opacity="0.01" style="font-family:monospace">R3</text>
<g class="stroked-text"><desc>R3</desc>
<path d="M84.7853 15.6761 L85.9500 14.0122 "/>
<path d="M86.7820 15.6761 L86.7820 12.1819 "/>
<path d="M86.7820 12.1819 L85.4509 12.1819 "/>
<path d="M85.4509 12.1819 L85.1181 12.3482 "/>
<path d="M85.1181 12.3482 L84.9517 12.5146 "/>
<path d="M84.9517 12.5146 L84.7853 12.8474 "/>
<path d="M84.7853 12.8474 L84.7853 13.3466 "/>
<path d="M84.7853 13.3466 L84.9517 13.6794 "/>
<path d="M84.9517 13.6794 L85.1181 13.8458 "/>
<path d="M85.1181 13.8458 L85.4509 14.0122 "/>
<path d="M85.4509 14.0122 L86.7820 14.0122 "/>
<path d="M83.6205 12.1819 L81.4574 12.1819 "/>
<path d="M81.4574 12.1819 L82.6222 13.5130 "/>
<path d="M82.6222 13.5130 L82.1230 13.5130 "/>
<path d="M82.1230 13.5130 L81.7902 13.6794 "/>
<path d="M81.7902 13.6794 L81.6238 13.8458 "/>
<path d="M81.6238 13.8458 L81.4574 14.1786 "/>
<path d="M81.4574 14.1786 L81.4574 15.0106 "/>
<path d="M81.4574 15.0106 L81.6238 15.3433 "/>
<path d="M81.6238 15.3433 L81.7902 15.5097 "/>
<path d="M81.7902 15.5097 L82.1230 15.6761 "/>
<path d="M82.1230 15.6761 L83.1214 15.6761 "/>
<path d="M83.1214 15.6761 L83.4541 15.5097 "/>
<path d="M83.4541 15.5097 L83.6205 15.3433 "/>
</g><text x="85.0898" y="10.9686" transform="scale(-1 1) translate(-170.179581 0)" textLength="14.6858" font-size="4.6590" lengthAdjust="spacingAndGlyphs" text-anchor="middle" opacity="0.01" style="font-family:monospace">270R</text>
<g class="stroked-text"><desc>270R</desc>
<path d="M91.1632 7.6368 L90.9968 7.4705 "/>
<path d="M90.9968 7.4705 L90.6640 7.3041 "/>
<path d="M90.6640 7.3041 L89.8320 7.3041 "/>
<path d="M89.8320 7.3041 L89.4992 7.4705 "/>
<path d="M89.4992 7.4705 L89.3328 7.6368 "/>
<path d="M89.3328 7.6368 L89.1664 7.9696 "/>
<path d="M89.1664 7.9696 L89.1664 8.3024 "/>
<path d="M89.1664 8.3024 L89.3328 8.8016 "/>
<path d="M89.3328 8.8016 L91.3296 10.7983 "/>
<path d="M91.3296 10.7983 L89.1664 10.7983 "/>
<path d="M88.0017 7.3041 L85.6722 7.3041 "/>
<path d="M85.6722 7.3041 L87.1697 10.7983 "/>
<path d="M83.6754 7.3041 L83.3427 7.3041 "/>
<path d="M83.3427 7.3041 L83.0099 7.4705 "/>
<path d="M83.0099 7.4705 L82.8435 7.6368 "/>
<path d="M82.8435 7.6368 L82.6771 7.9696 "/>
<path d="M82.6771 7.9696 L82.5107 8.6352 "/>
<path d="M82.5107 8.6352 L82.5107 9.4672 "/>
<path d="M82.5107 9.4672 L82.6771 10.1328 "/>
<path d="M82.6771 10.1328 L82.8435 10.4655 "/>
<path d="M82.8435 10.4655 L83.0099 10.6319 "/>
<path d="M83.0099 10.6319 L83.3427 10.7983 "/>
<path d="M83.3427 10.7983 L83.6754 10.7983 "/>
<path d="M83.6754 10.7983 L84.0082 10.6319 "/>
<path d="M84.0082 10.6319 L84.1746 10.4655 "/>
<path d="M84.1746 10.4655 L84.3410 10.1328 "/>
<path d="M84.3410 10.1328 L84.5074 9.4672 "/>
<path d="M84.5074 9.4672 L84.5074 8.6352 "/>
<path d="M84.5074 8.6352 L84.3410 7.9696 "/>
<path d="M84.3410 7.9696 L84.1746 7.6368 "/>
<path d="M84.1746 7.6368 L84.0082 7.4705 "/>
<path d="M84.0082 7.4705 L83.6754 7.3041 "/>
<path d="M79.0164 10.7983 L80.1812 9.1344 "/>
<path d="M81.0131 10.7983 L81.0131 7.3041 "/>
<path d="M81.0131 7.3041 L79.6820 7.3041 "/>
<path d="M79.6820 7.3041 L79.3492 7.4705 "/>
<path d="M79.3492 7.4705 L79.1828 7.6368 "/>
<path d="M79.1828 7.6368 L79.0164 7.9696 "/>
<path d="M79.0164 7.9696 L79.0164 8.4688 "/>
<path d="M79.0164 8.4688 L79.1828 8.8016 "/>
<path d="M79.1828 8.8016 L79.3492 8.9680 "/>
<path d="M79.3492 8.9680 L79.6820 9.1344 "/>
<path d="M79.6820 9.1344 L81.0131 9.1344 "/>
</g><g transform="rotate(-90.000000 156.0395 67.3116)">
<text x="156.0395" y="69.0587" transform="scale(-1 1) translate(-312.079022 0)" textLength="8.0301" font-size="4.6590" lengthAdjust="spacingAndGlyphs" text-anchor="middle" opacity="0.01" style="font-family:monospace">C3</text>
</g>
<g class="stroked-text"><desc>C3</desc>
<path d="M157.2836 66.7292 L157.4500 66.5628 "/>
<path d="M157.4500 66.5628 L157.6164 66.0636 "/>
<path d="M157.6164 66.0636 L157.6164 65.7308 "/>
<path d="M157.6164 65.7308 L157.4500 65.2316 "/>
<path d="M157.4500 65.2316 L157.1172 64.8988 "/>
<path d="M157.1172 64.8988 L156.7844 64.7325 "/>
<path d="M156.7844 64.7325 L156.1188 64.5661 "/>
<path d="M156.1188 64.5661 L155.6196 64.5661 "/>
<path d="M155.6196 64.5661 L154.9541 64.7325 "/>
<path d="M154.9541 64.7325 L154.6213 64.8988 "/>
<path d="M154.6213 64.8988 L154.2885 65.2316 "/>
<path d="M154.2885 65.2316 L154.1221 65.7308 "/>
<path d="M154.1221 65.7308 L154.1221 66.0636 "/>
<path d="M154.1221 66.0636 L154.2885 66.5628 "/>
<path d="M154.2885 66.5628 L154.4549 66.7292 "/>
<path d="M154.1221 67.8939 L154.1221 70.0571 "/>
<path d="M154.1221 70.0571 L155.4532 68.8923 "/>
<path d="M155.4532 68.8923 L155.4532 69.3915 "/>
<path d="M155.4532 69.3915 L155.6196 69.7243 "/>
<path d="M155.6196 69.7243 L155.7860 69.8907 "/>
<path d="M155.7860 69.8907 L156.1188 70.0571 "/>
<path d="M156.1188 70.0571 L156.9508 70.0571 "/>
<path d="M156.9508 70.0571 L157.2836 69.8907 "/>
<path d="M157.2836 69.8907 L157.4500 69.7243 "/>
<path d="M157.4500 69.7243 L157.6164 69.3915 "/>
<path d="M157.6164 69.3915 L157.6164 68.3931 "/>
<path d="M157.6164 68.3931 L157.4500 68.0603 "/>
<path d="M157.4500 68.0603 L157.2836 67.8939 "/>
</g><g transform="rotate(-90.000000 151.1617 66.4247)">
<text x="151.1617" y="68.1718" transform="scale(-1 1) translate(-302.323436 0)" textLength="17.3481" font-size="4.6590" lengthAdjust="spacingAndGlyphs" text-anchor="middle" opacity="0.01" style="font-family:monospace">100nF</text>
</g>
<g class="stroked-text"><desc>100nF</desc>
<path d="M152.7386 61.0169 L152.7386 59.0202 "/>
<path d="M152.7386 60.0185 L149.2443 60.0185 "/>
<path d="M149.2443 60.0185 L149.7435 59.6857 "/>
<path d="M149.7435 59.6857 L150.0763 59.3529 "/>
<path d="M150.0763 59.3529 L150.2427 59.0202 "/>
<path d="M149.2443 63.1800 L149.2443 63.5128 "/>
<path d="M149.2443 63.5128 L149.4107 63.8456 "/>
<path d="M149.4107 63.8456 L149.5771 64.0120 "/>
<path d="M149.5771 64.0120 L149.9099 64.1784 "/>
<path d="M149.9099 64.1784 L150.5754 64.3448 "/>
<path d="M150.5754 64.3448 L151.4074 64.3448 "/>
<path d="M151.4074 64.3448 L152.0730 64.1784 "/>
<path d="M152.0730 64.1784 L152.4058 64.0120 "/>
<path d="M152.4058 64.0120 L152.5722 63.8456 "/>
<path d="M152.5722 63.8456 L152.7386 63.5128 "/>
<path d="M152.7386 63.5128 L152.7386 63.1800 "/>
<path d="M152.7386 63.1800 L152.5722 62.8472 "/>
<path d="M152.5722 62.8472 L152.4058 62.6808 "/>
<path d="M152.4058 62.6808 L152.0730 62.5144 "/>
<path d="M152.0730 62.5144 L151.4074 62.3480 "/>
<path d="M151.4074 62.3480 L150.5754 62.3480 "/>
<path d="M150.5754 62.3480 L149.9099 62.5144 "/>
<path d="M149.9099 62.5144 L149.5771 62.6808 "/>
<path d="M149.5771 62.6808 L149.4107 62.8472 "/>
<path d="M149.4107 62.8472 L149.2443 63.1800 "/>
<path d="M149.2443 66.5079 L149.2443 66.8407 "/>
<path d="M149.2443 66.8407 L149.4107 67.1735 "/>
<path d="M149.4107 67.1735 L149.5771 67.3399 "/>
<path d="M149.5771 67.3399 L149.9099 67.5062 "/>
<path d="M149.9099 67.5062 L150.5754 67.6726 "/>
<path d="M150.5754 67.6726 L151.4074 67.6726 "/>
<path d="M151.4074 67.6726 L152.0730 67.5062 "/>
<path d="M152.0730 67.5062 L152.4058 67.3399 "/>
<path d="M152.4058 67.3399 L152.5722 67.1735 "/>
<path d="M152.5722 67.1735 L152.7386 66.8407 "/>
<path d="M152.7386 66.8407 L152.7386 66.5079 "/>
<path d="M152.7386 66.5079 L152.5722 66.1751 "/>
<path d="M152.5722 66.1751 L152.4058 66.0087 "/>
<path d="M152.4058 66.0087 L152.0730 65.8423 "/>
<path d="M152.0730 65.8423 L151.4074 65.6759 "/>
<path d="M151.4074 65.6759 L150.5754 65.6759 "/>
<path d="M150.5754 65.6759 L149.9099 65.8423 "/>
<path d="M149.9099 65.8423 L149.5771 66.0087 "/>
<path d="M149.5771 66.0087 L149.4107 66.1751 "/>
<path d="M149.4107 66.1751 L149.2443 66.5079 "/>
<path d="M150.4091 69.1702 L152.7386 69.1702 "/>
<path d="M150.7418 69.1702 L150.5754 69.3366 "/>
<path d="M150.5754 69.3366 L150.4091 69.6694 "/>
<path d="M150.4091 69.6694 L150.4091 70.1685 "/>
<path d="M150.4091 70.1685 L150.5754 70.5013 "/>
<path d="M150.5754 70.5013 L150.9082 70.6677 "/>
<path d="M150.9082 70.6677 L152.7386 70.6677 "/>
<path d="M150.9082 73.4964 L150.9082 72.3317 "/>
<path d="M152.7386 72.3317 L149.2443 72.3317 "/>
<path d="M149.2443 72.3317 L149.2443 73.9956 "/>
</g><g transform="rotate(-90.000000 35.4250 98.3521)">
<text x="35.4250" y="100.0992" transform="scale(-1 1) translate(-70.849972 0)" textLength="11.0252" font-size="4.6590" lengthAdjust="spacingAndGlyphs" text-anchor="middle" opacity="0.01" style="font-family:monospace">FB1</text>
</g>
<g class="stroked-text"><desc>FB1</desc>
<path d="M35.1715 95.4402 L35.1715 94.2754 "/>
<path d="M37.0018 94.2754 L33.5076 94.2754 "/>
<path d="M33.5076 94.2754 L33.5076 95.9394 "/>
<path d="M35.1715 98.4353 L35.3379 98.9344 "/>
<path d="M35.3379 98.9344 L35.5043 99.1008 "/>
<path d="M35.5043 99.1008 L35.8371 99.2672 "/>
<path d="M35.8371 99.2672 L36.3363 99.2672 "/>
<path d="M36.3363 99.2672 L36.6691 99.1008 "/>
<path d="M36.6691 99.1008 L36.8354 98.9344 "/>
<path d="M36.8354 98.9344 L37.0018 98.6017 "/>
<path d="M37.0018 98.6017 L37.0018 97.2705 "/>
<path d="M37.0018 97.2705 L33.5076 97.2705 "/>
<path d="M33.5076 97.2705 L33.5076 98.4353 "/>
<path d="M33.5076 98.4353 L33.6740 98.7681 "/>
<path d="M33.6740 98.7681 L33.8403 98.9344 "/>
<path d="M33.8403 98.9344 L34.1731 99.1008 "/>
<path d="M34.1731 99.1008 L34.5059 99.1008 "/>
<path d="M34.5059 99.1008 L34.8387 98.9344 "/>
<path d="M34.8387 98.9344 L35.0051 98.7681 "/>
<path d="M35.0051 98.7681 L35.1715 98.4353 "/>
<path d="M35.1715 98.4353 L35.1715 97.2705 "/>
<path d="M37.0018 102.5951 L37.0018 100.5984 "/>
<path d="M37.0018 101.5968 L33.5076 101.5968 "/>
<path d="M33.5076 101.5968 L34.0067 101.2640 "/>
<path d="M34.0067 101.2640 L34.3395 100.9312 "/>
<path d="M34.3395 100.9312 L34.5059 100.5984 "/>
</g><text x="30.9906" y="73.4931" transform="scale(-1 1) translate(-61.981257 0)" textLength="8.0301" font-size="4.6590" lengthAdjust="spacingAndGlyphs" text-anchor="middle" opacity="0.01" style="font-family:monospace">C1</text>
<g class="stroked-text"><desc>C1</desc>
<path d="M31.5730 72.9900 L31.7394 73.1564 "/>
<path d="M31.7394 73.1564 L32.2386 73.3228 "/>
<path d="M32.2386 73.3228 L32.5714 73.3228 "/>
<path d="M32.5714 73.3228 L33.0706 73.1564 "/>
<path d="M33.0706 73.1564 L33.4033 72.8236 "/>
<path d="M33.4033 72.8236 L33.5697 72.4908 "/>
<path d="M33.5697 72.4908 L33.7361 71.8252 "/>
<path d="M33.7361 71.8252 L33.7361 71.3260 "/>
<path d="M33.7361 71.3260 L33.5697 70.6605 "/>
<path d="M33.5697 70.6605 L33.4033 70.3277 "/>
<path d="M33.4033 70.3277 L33.0706 69.9949 "/>
<path d="M33.0706 69.9949 L32.5714 69.8285 "/>
<path d="M32.5714 69.8285 L32.2386 69.8285 "/>
<path d="M32.2386 69.8285 L31.7394 69.9949 "/>
<path d="M31.7394 69.9949 L31.5730 70.1613 "/>
<path d="M28.2451 73.3228 L30.2419 73.3228 "/>
<path d="M29.2435 73.3228 L29.2435 69.8285 "/>
<path d="M29.2435 69.8285 L29.5763 70.3277 "/>
<path d="M29.5763 70.3277 L29.9091 70.6605 "/>
<path d="M29.9091 70.6605 L30.2419 70.8269 "/>
</g><text x="30.1038" y="78.3709" transform="scale(-1 1) translate(-60.207514 0)" textLength="14.0203" font-size="4.6590" lengthAdjust="spacingAndGlyphs" text-anchor="middle" opacity="0.01" style="font-family:monospace">10nF</text>
<g class="stroked-text"><desc>10nF</desc>
<path d="M33.8476 78.2006 L35.8443 78.2006 "/>
<path d="M34.8460 78.2006 L34.8460 74.7063 "/>
<path d="M34.8460 74.7063 L35.1788 75.2055 "/>
<path d="M35.1788 75.2055 L35.5116 75.5383 "/>
<path d="M35.5116 75.5383 L35.8443 75.7047 "/>
<path d="M31.6845 74.7063 L31.3517 74.7063 "/>
<path d="M31.3517 74.7063 L31.0189 74.8727 "/>
<path d="M31.0189 74.8727 L30.8525 75.0391 "/>
<path d="M30.8525 75.0391 L30.6861 75.3719 "/>
<path d="M30.6861 75.3719 L30.5197 76.0374 "/>
<path d="M30.5197 76.0374 L30.5197 76.8694 "/>
<path d="M30.5197 76.8694 L30.6861 77.5350 "/>
<path d="M30.6861 77.5350 L30.8525 77.8678 "/>
<path d="M30.8525 77.8678 L31.0189 78.0342 "/>
<path d="M31.0189 78.0342 L31.3517 78.2006 "/>
<path d="M31.3517 78.2006 L31.6845 78.2006 "/>
<path d="M31.6845 78.2006 L32.0173 78.0342 "/>
<path d="M32.0173 78.0342 L32.1837 77.8678 "/>
<path d="M32.1837 77.8678 L32.3501 77.5350 "/>
<path d="M32.3501 77.5350 L32.5165 76.8694 "/>
<path d="M32.5165 76.8694 L32.5165 76.0374 "/>
<path d="M32.5165 76.0374 L32.3501 75.3719 "/>
<path d="M32.3501 75.3719 L32.1837 75.0391 "/>
<path d="M32.1837 75.0391 L32.0173 74.8727 "/>
<path d="M32.0173 74.8727 L31.6845 74.7063 "/>
<path d="M29.0222 75.8710 L29.0222 78.2006 "/>
<path d="M29.0222 76.2038 L28.8558 76.0374 "/>
<path d="M28.8558 76.0374 L28.5230 75.8710 "/>
<path d="M28.5230 75.8710 L28.0238 75.8710 "/>
<path d="M28.0238 75.8710 L27.6910 76.0374 "/>
<path d="M27.6910 76.0374 L27.5247 76.3702 "/>
<path d="M27.5247 76.3702 L27.5247 78.2006 "/>
<path d="M24.6959 76.3702 L25.8607 76.3702 "/>
<path d="M25.8607 78.2006 L25.8607 74.7063 "/>
<path d="M25.8607 74.7063 L24.1968 74.7063 "/>
</g><text x="223.4417" y="65.5112" transform="scale(-1 1) translate(-446.883492 0)" textLength="8.0301" font-size="4.6590" lengthAdjust="spacingAndGlyphs" text-anchor="middle" opacity="0.01" style="font-family:monospace">R2</text>
<g class="stroked-text"><desc>R2</desc>
<path d="M224.0241 65.3409 L225.1889 63.6770 "/>
<path d="M226.0208 65.3409 L226.0208 61.8467 "/>
<path d="M226.0208 61.8467 L224.6897 61.8467 "/>
<path d="M224.6897 61.8467 L224.3569 62.0131 "/>
<path d="M224.3569 62.0131 L224.1905 62.1794 "/>
<path d="M224.1905 62.1794 L224.0241 62.5122 "/>
<path d="M224.0241 62.5122 L224.0241 63.0114 "/>
<path d="M224.0241 63.0114 L224.1905 63.3442 "/>
<path d="M224.1905 63.3442 L224.3569 63.5106 "/>
<path d="M224.3569 63.5106 L224.6897 63.6770 "/>
<path d="M224.6897 63.6770 L226.0208 63.6770 "/>
<path d="M222.6930 62.1794 L222.5266 62.0131 "/>
<path d="M222.5266 62.0131 L222.1938 61.8467 "/>
<path d="M222.1938 61.8467 L221.3618 61.8467 "/>
<path d="M221.3618 61.8467 L221.0290 62.0131 "/>
<path d="M221.0290 62.0131 L220.8626 62.1794 "/>
<path d="M220.8626 62.1794 L220.6962 62.5122 "/>
<path d="M220.6962 62.5122 L220.6962 62.8450 "/>
<path d="M220.6962 62.8450 L220.8626 63.3442 "/>
<path d="M220.8626 63.3442 L222.8594 65.3409 "/>
<path d="M222.8594 65.3409 L220.6962 65.3409 "/>
</g><text x="224.3286" y="60.6334" transform="scale(-1 1) translate(-448.657235 0)" textLength="10.6924" font-size="4.6590" lengthAdjust="spacingAndGlyphs" text-anchor="middle" opacity="0.01" style="font-family:monospace">10k</text>
<g class="stroked-text"><desc>10k</desc>
<path d="M226.4085 60.4631 L228.4053 60.4631 "/>
<path d="M227.4069 60.4631 L227.4069 56.9689 "/>
<path d="M227.4069 56.9689 L227.7397 57.4680 "/>
<path d="M227.7397 57.4680 L228.0725 57.8008 "/>
<path d="M228.0725 57.8008 L228.4053 57.9672 "/>
<path d="M224.2454 56.9689 L223.9126 56.9689 "/>
<path d="M223.9126 56.9689 L223.5798 57.1353 "/>
<path d="M223.5798 57.1353 L223.4134 57.3016 "/>
<path d="M223.4134 57.3016 L223.2471 57.6344 "/>
<path d="M223.2471 57.6344 L223.0807 58.3000 "/>
<path d="M223.0807 58.3000 L223.0807 59.1320 "/>
<path d="M223.0807 59.1320 L223.2471 59.7976 "/>
<path d="M223.2471 59.7976 L223.4134 60.1303 "/>
<path d="M223.4134 60.1303 L223.5798 60.2967 "/>
<path d="M223.5798 60.2967 L223.9126 60.4631 "/>
<path d="M223.9126 60.4631 L224.2454 60.4631 "/>
<path d="M224.2454 60.4631 L224.5782 60.2967 "/>
<path d="M224.5782 60.2967 L224.7446 60.1303 "/>
<path d="M224.7446 60.1303 L224.9110 59.7976 "/>
<path d="M224.9110 59.7976 L225.0774 59.1320 "/>
<path d="M225.0774 59.1320 L225.0774 58.3000 "/>
<path d="M225.0774 58.3000 L224.9110 57.6344 "/>
<path d="M224.9110 57.6344 L224.7446 57.3016 "/>
<path d="M224.7446 57.3016 L224.5782 57.1353 "/>
<path d="M224.5782 57.1353 L224.2454 56.9689 "/>
<path d="M221.5831 60.4631 L221.5831 56.9689 "/>
<path d="M221.2503 59.1320 L220.2520 60.4631 "/>
<path d="M220.2520 58.1336 L221.5831 59.4648 "/>
</g></g>
<g style="fill:#000084; fill-opacity:0.0;  stroke:#000084; stroke-width:1.0475; stroke-opacity:1;  stroke-linecap:round; stroke-linejoin:round;">
<g transform="rotate(-90.000000 179.5416 96.1349)">
<text x="179.5416" y="99.6265" transform="scale(-1 1) translate(-359.083212 0)" textLength="15.1885" font-size="9.3110" lengthAdjust="spacingAndGlyphs" text-anchor="middle" opacity="0.01" style="font-family:monospace">U2</text>
</g>
<g class="stroked-text"><desc>U2</desc>
<path d="M175.7345 90.8143 L181.3876 90.8143 "/>
<path d="M181.3876 90.8143 L182.0526 91.1469 "/>
<path d="M182.0526 91.1469 L182.3852 91.4794 "/>
<path d="M182.3852 91.4794 L182.7177 92.1445 "/>
<path d="M182.7177 92.1445 L182.7177 93.4746 "/>
<path d="M182.7177 93.4746 L182.3852 94.1397 "/>
<path d="M182.3852 94.1397 L182.0526 94.4722 "/>
<path d="M182.0526 94.4722 L181.3876 94.8047 "/>
<path d="M181.3876 94.8047 L175.7345 94.8047 "/>
<path d="M176.3995 97.7976 L176.0670 98.1301 "/>
<path d="M176.0670 98.1301 L175.7345 98.7952 "/>
<path d="M175.7345 98.7952 L175.7345 100.4578 "/>
<path d="M175.7345 100.4578 L176.0670 101.1229 "/>
<path d="M176.0670 101.1229 L176.3995 101.4554 "/>
<path d="M176.3995 101.4554 L177.0646 101.7880 "/>
<path d="M177.0646 101.7880 L177.7297 101.7880 "/>
<path d="M177.7297 101.7880 L178.7273 101.4554 "/>
<path d="M178.7273 101.4554 L182.7177 97.4650 "/>
<path d="M182.7177 97.4650 L182.7177 101.7880 "/>
</g></g>
<g style="fill:#000084; fill-opacity:0.01;  stroke:#000084; stroke-width:0.7627; stroke-opacity:1;  stroke-linecap:round; stroke-linejoin:round;">
<text x="198.6093" y="65.5112" transform="scale(-1 1) translate(-397.218687 0)" textLength="8.0301" font-size="4.6590" lengthAdjust="spacingAndGlyphs" text-anchor="middle" opacity="0.01" style="font-family:monospace">R1</text>
<g class="stroked-text"><desc>R1</desc>
<path d="M199.1917 65.3409 L200.3565 63.6770 "/>
<path d="M201.1884 65.3409 L201.1884 61.8467 "/>
<path d="M201.1884 61.8467 L199.8573 61.8467 "/>
<path d="M199.8573 61.8467 L199.5245 62.0131 "/>
<path d="M199.5245 62.0131 L199.3581 62.1794 "/>
<path d="M199.3581 62.1794 L199.1917 62.5122 "/>
<path d="M199.1917 62.5122 L199.1917 63.0114 "/>
<path d="M199.1917 63.0114 L199.3581 63.3442 "/>
<path d="M199.3581 63.3442 L199.5245 63.5106 "/>
<path d="M199.5245 63.5106 L199.8573 63.6770 "/>
<path d="M199.8573 63.6770 L201.1884 63.6770 "/>
<path d="M195.8638 65.3409 L197.8606 65.3409 "/>
<path d="M196.8622 65.3409 L196.8622 61.8467 "/>
<path d="M196.8622 61.8467 L197.1950 62.3458 "/>
<path d="M197.1950 62.3458 L197.5278 62.6786 "/>
<path d="M197.5278 62.6786 L197.8606 62.8450 "/>
</g><text x="199.4962" y="60.6334" transform="scale(-1 1) translate(-398.992430 0)" textLength="10.6924" font-size="4.6590" lengthAdjust="spacingAndGlyphs" text-anchor="middle" opacity="0.01" style="font-family:monospace">4k7</text>
<g class="stroked-text"><desc>4k7</desc>
<path d="M201.9089 58.1336 L201.9089 60.4631 "/>
<path d="M202.7409 56.8025 L203.5729 59.2984 "/>
<path d="M203.5729 59.2984 L201.4097 59.2984 "/>
<path d="M200.0786 60.4631 L200.0786 56.9689 "/>
<path d="M199.7458 59.1320 L198.7474 60.4631 "/>
<path d="M198.7474 58.1336 L200.0786 59.4648 "/>
<path d="M197.5827 56.9689 L195.2532 56.9689 "/>
<path d="M195.2532 56.9689 L196.7507 60.4631 "/>
</g></g>
<g style="fill:#000084; fill-opacity:0.01;  stroke:#000084; stroke-width:1.0475; stroke-opacity:1;  stroke-linecap:round; stroke-linejoin:round;">
<text x="99.3684" y="38.1335" transform="scale(-1 1) translate(-198.736844 0)" textLength="9.7137" font-size="11.8250" lengthAdjust="spacingAndGlyphs" text-anchor="middle" opacity="0.01" style="font-family:monospace">K</text>
<g class="stroked-text"><desc>K</desc>
<path d="M101.6912 37.7475 L101.6912 28.8788 "/>
<path d="M96.6233 37.7475 L100.4242 32.6797 "/>
<path d="M96.6233 28.8788 L101.6912 33.9466 "/>
</g><text x="86.4201" y="38.4882" transform="scale(-1 1) translate(-172.840196 0)" textLength="18.1601" font-size="11.8250" lengthAdjust="spacingAndGlyphs" text-anchor="middle" opacity="0.01" style="font-family:monospace">D2</text>
<g class="stroked-text"><desc>D2</desc>
<path d="M92.9661 38.1022 L92.9661 29.2335 "/>
<path d="M92.9661 29.2335 L90.8545 29.2335 "/>
<path d="M90.8545 29.2335 L89.5875 29.6559 "/>
<path d="M89.5875 29.6559 L88.7429 30.5005 "/>
<path d="M88.7429 30.5005 L88.3205 31.3451 "/>
<path d="M88.3205 31.3451 L87.8982 33.0344 "/>
<path d="M87.8982 33.0344 L87.8982 34.3014 "/>
<path d="M87.8982 34.3014 L88.3205 35.9906 "/>
<path d="M88.3205 35.9906 L88.7429 36.8353 "/>
<path d="M88.7429 36.8353 L89.5875 37.6799 "/>
<path d="M89.5875 37.6799 L90.8545 38.1022 "/>
<path d="M90.8545 38.1022 L92.9661 38.1022 "/>
<path d="M84.5197 30.0782 L84.0973 29.6559 "/>
<path d="M84.0973 29.6559 L83.2527 29.2335 "/>
<path d="M83.2527 29.2335 L81.1411 29.2335 "/>
<path d="M81.1411 29.2335 L80.2965 29.6559 "/>
<path d="M80.2965 29.6559 L79.8741 30.0782 "/>
<path d="M79.8741 30.0782 L79.4518 30.9228 "/>
<path d="M79.4518 30.9228 L79.4518 31.7675 "/>
<path d="M79.4518 31.7675 L79.8741 33.0344 "/>
<path d="M79.8741 33.0344 L84.9420 38.1022 "/>
<path d="M84.9420 38.1022 L79.4518 38.1022 "/>
</g></g>
<g style="fill:#000084; fill-opacity:0.01;  stroke:#000084; stroke-width:0.7627; stroke-opacity:1;  stroke-linecap:round; stroke-linejoin:round;">
<text x="173.7769" y="61.0769" transform="scale(-1 1) translate(-347.553883 0)" textLength="8.0301" font-size="4.6590" lengthAdjust="spacingAndGlyphs" text-anchor="middle" opacity="0.01" style="font-family:monospace">C4</text>
<g class="stroked-text"><desc>C4</desc>
<path d="M174.3593 60.5738 L174.5257 60.7402 "/>
<path d="M174.5257 60.7402 L175.0249 60.9066 "/>
<path d="M175.0249 60.9066 L175.3577 60.9066 "/>
<path d="M175.3577 60.9066 L175.8569 60.7402 "/>
<path d="M175.8569 60.7402 L176.1897 60.4074 "/>
<path d="M176.1897 60.4074 L176.3560 60.0746 "/>
<path d="M176.3560 60.0746 L176.5224 59.4090 "/>
<path d="M176.5224 59.4090 L176.5224 58.9098 "/>
<path d="M176.5224 58.9098 L176.3560 58.2443 "/>
<path d="M176.3560 58.2443 L176.1897 57.9115 "/>
<path d="M176.1897 57.9115 L175.8569 57.5787 "/>
<path d="M175.8569 57.5787 L175.3577 57.4123 "/>
<path d="M175.3577 57.4123 L175.0249 57.4123 "/>
<path d="M175.0249 57.4123 L174.5257 57.5787 "/>
<path d="M174.5257 57.5787 L174.3593 57.7451 "/>
<path d="M171.3642 58.5771 L171.3642 60.9066 "/>
<path d="M172.1962 57.2459 L173.0282 59.7418 "/>
<path d="M173.0282 59.7418 L170.8650 59.7418 "/>
</g><text x="172.8901" y="65.9547" transform="scale(-1 1) translate(-345.780140 0)" textLength="17.3481" font-size="4.6590" lengthAdjust="spacingAndGlyphs" text-anchor="middle" opacity="0.01" style="font-family:monospace">100nF</text>
<g class="stroked-text"><desc>100nF</desc>
<path d="M178.2979 65.7844 L180.2946 65.7844 "/>
<path d="M179.2962 65.7844 L179.2962 62.2901 "/>
<path d="M179.2962 62.2901 L179.6290 62.7893 "/>
<path d="M179.6290 62.7893 L179.9618 63.1221 "/>
<path d="M179.9618 63.1221 L180.2946 63.2885 "/>
<path d="M176.1347 62.2901 L175.8020 62.2901 "/>
<path d="M175.8020 62.2901 L175.4692 62.4565 "/>
<path d="M175.4692 62.4565 L175.3028 62.6229 "/>
<path d="M175.3028 62.6229 L175.1364 62.9557 "/>
<path d="M175.1364 62.9557 L174.9700 63.6212 "/>
<path d="M174.9700 63.6212 L174.9700 64.4532 "/>
<path d="M174.9700 64.4532 L175.1364 65.1188 "/>
<path d="M175.1364 65.1188 L175.3028 65.4516 "/>
<path d="M175.3028 65.4516 L175.4692 65.6180 "/>
<path d="M175.4692 65.6180 L175.8020 65.7844 "/>
<path d="M175.8020 65.7844 L176.1347 65.7844 "/>
<path d="M176.1347 65.7844 L176.4675 65.6180 "/>
<path d="M176.4675 65.6180 L176.6339 65.4516 "/>
<path d="M176.6339 65.4516 L176.8003 65.1188 "/>
<path d="M176.8003 65.1188 L176.9667 64.4532 "/>
<path d="M176.9667 64.4532 L176.9667 63.6212 "/>
<path d="M176.9667 63.6212 L176.8003 62.9557 "/>
<path d="M176.8003 62.9557 L176.6339 62.6229 "/>
<path d="M176.6339 62.6229 L176.4675 62.4565 "/>
<path d="M176.4675 62.4565 L176.1347 62.2901 "/>
<path d="M172.8069 62.2901 L172.4741 62.2901 "/>
<path d="M172.4741 62.2901 L172.1413 62.4565 "/>
<path d="M172.1413 62.4565 L171.9749 62.6229 "/>
<path d="M171.9749 62.6229 L171.8085 62.9557 "/>
<path d="M171.8085 62.9557 L171.6421 63.6212 "/>
<path d="M171.6421 63.6212 L171.6421 64.4532 "/>
<path d="M171.6421 64.4532 L171.8085 65.1188 "/>
<path d="M171.8085 65.1188 L171.9749 65.4516 "/>
<path d="M171.9749 65.4516 L172.1413 65.6180 "/>
<path d="M172.1413 65.6180 L172.4741 65.7844 "/>
<path d="M172.4741 65.7844 L172.8069 65.7844 "/>
<path d="M172.8069 65.7844 L173.1397 65.6180 "/>
<path d="M173.1397 65.6180 L173.3061 65.4516 "/>
<path d="M173.3061 65.4516 L173.4724 65.1188 "/>
<path d="M173.4724 65.1188 L173.6388 64.4532 "/>
<path d="M173.6388 64.4532 L173.6388 63.6212 "/>
<path d="M173.6388 63.6212 L173.4724 62.9557 "/>
<path d="M173.4724 62.9557 L173.3061 62.6229 "/>
<path d="M173.3061 62.6229 L173.1397 62.4565 "/>
<path d="M173.1397 62.4565 L172.8069 62.2901 "/>
<path d="M170.1446 63.4548 L170.1446 65.7844 "/>
<path d="M170.1446 63.7876 L169.9782 63.6212 "/>
<path d="M169.9782 63.6212 L169.6454 63.4548 "/>
<path d="M169.6454 63.4548 L169.1462 63.4548 "/>
<path d="M169.1462 63.4548 L168.8134 63.6212 "/>
<path d="M168.8134 63.6212 L168.6470 63.9540 "/>
<path d="M168.6470 63.9540 L168.6470 65.7844 "/>
<path d="M165.8183 63.9540 L166.9831 63.9540 "/>
<path d="M166.9831 65.7844 L166.9831 62.2901 "/>
<path d="M166.9831 62.2901 L165.3191 62.2901 "/>
</g></g>
<g style="fill:#000084; fill-opacity:0.01;  stroke:#000084; stroke-width:0.4190; stroke-opacity:1;  stroke-linecap:round; stroke-linejoin:round;">
<text x="122.8202" y="75.3597" transform="scale(-1 1) translate(-245.640475 0)" textLength="6.0754" font-size="3.7244" lengthAdjust="spacingAndGlyphs" text-anchor="middle" opacity="0.01" style="font-family:monospace">U1</text>
<g class="stroked-text"><desc>U1</desc>
<path d="M124.9485 72.4402 L124.9485 74.7015 "/>
<path d="M124.9485 74.7015 L124.8154 74.9675 "/>
<path d="M124.8154 74.9675 L124.6824 75.1005 "/>
<path d="M124.6824 75.1005 L124.4164 75.2335 "/>
<path d="M124.4164 75.2335 L123.8843 75.2335 "/>
<path d="M123.8843 75.2335 L123.6183 75.1005 "/>
<path d="M123.6183 75.1005 L123.4853 74.9675 "/>
<path d="M123.4853 74.9675 L123.3523 74.7015 "/>
<path d="M123.3523 74.7015 L123.3523 72.4402 "/>
<path d="M120.5590 75.2335 L122.1552 75.2335 "/>
<path d="M121.3571 75.2335 L121.3571 72.4402 "/>
<path d="M121.3571 72.4402 L121.6231 72.8393 "/>
<path d="M121.6231 72.8393 L121.8891 73.1053 "/>
<path d="M121.8891 73.1053 L122.1552 73.2383 "/>
</g></g>
<g style="fill:#000084; fill-opacity:0.01;  stroke:#000084; stroke-width:0.7627; stroke-opacity:1;  stroke-linecap:round; stroke-linejoin:round;">
<g transform="rotate(-90.000000 22.1219 98.3521)">
<text x="22.1219" y="100.0992" transform="scale(-1 1) translate(-44.243827 0)" textLength="8.0301" font-size="4.6590" lengthAdjust="spacingAndGlyphs" text-anchor="middle" opacity="0.01" style="font-family:monospace">C2</text>
</g>
<g class="stroked-text"><desc>C2</desc>
<path d="M23.3660 97.7697 L23.5324 97.6033 "/>
<path d="M23.5324 97.6033 L23.6988 97.1041 "/>
<path d="M23.6988 97.1041 L23.6988 96.7713 "/>
<path d="M23.6988 96.7713 L23.5324 96.2721 "/>
<path d="M23.5324 96.2721 L23.1996 95.9394 "/>
<path d="M23.1996 95.9394 L22.8668 95.7730 "/>
<path d="M22.8668 95.7730 L22.2012 95.6066 "/>
<path d="M22.2012 95.6066 L21.7020 95.6066 "/>
<path d="M21.7020 95.6066 L21.0365 95.7730 "/>
<path d="M21.0365 95.7730 L20.7037 95.9394 "/>
<path d="M20.7037 95.9394 L20.3709 96.2721 "/>
<path d="M20.3709 96.2721 L20.2045 96.7713 "/>
<path d="M20.2045 96.7713 L20.2045 97.1041 "/>
<path d="M20.2045 97.1041 L20.3709 97.6033 "/>
<path d="M20.3709 97.6033 L20.5373 97.7697 "/>
<path d="M20.5373 99.1008 L20.3709 99.2672 "/>
<path d="M20.3709 99.2672 L20.2045 99.6000 "/>
<path d="M20.2045 99.6000 L20.2045 100.4320 "/>
<path d="M20.2045 100.4320 L20.3709 100.7648 "/>
<path d="M20.3709 100.7648 L20.5373 100.9312 "/>
<path d="M20.5373 100.9312 L20.8701 101.0976 "/>
<path d="M20.8701 101.0976 L21.2029 101.0976 "/>
<path d="M21.2029 101.0976 L21.7020 100.9312 "/>
<path d="M21.7020 100.9312 L23.6988 98.9344 "/>
<path d="M23.6988 98.9344 L23.6988 101.0976 "/>
</g><g transform="rotate(-90.000000 17.2441 97.4652)">
<text x="17.2441" y="99.2123" transform="scale(-1 1) translate(-34.488240 0)" textLength="14.0203" font-size="4.6590" lengthAdjust="spacingAndGlyphs" text-anchor="middle" opacity="0.01" style="font-family:monospace">10uF</text>
</g>
<g class="stroked-text"><desc>10uF</desc>
<path d="M18.8210 93.7213 L18.8210 91.7246 "/>
<path d="M18.8210 92.7230 L15.3267 92.7230 "/>
<path d="M15.3267 92.7230 L15.8259 92.3902 "/>
<path d="M15.8259 92.3902 L16.1587 92.0574 "/>
<path d="M16.1587 92.0574 L16.3251 91.7246 "/>
<path d="M15.3267 95.8844 L15.3267 96.2172 "/>
<path d="M15.3267 96.2172 L15.4931 96.5500 "/>
<path d="M15.4931 96.5500 L15.6595 96.7164 "/>
<path d="M15.6595 96.7164 L15.9923 96.8828 "/>
<path d="M15.9923 96.8828 L16.6578 97.0492 "/>
<path d="M16.6578 97.0492 L17.4898 97.0492 "/>
<path d="M17.4898 97.0492 L18.1554 96.8828 "/>
<path d="M18.1554 96.8828 L18.4882 96.7164 "/>
<path d="M18.4882 96.7164 L18.6546 96.5500 "/>
<path d="M18.6546 96.5500 L18.8210 96.2172 "/>
<path d="M18.8210 96.2172 L18.8210 95.8844 "/>
<path d="M18.8210 95.8844 L18.6546 95.5517 "/>
<path d="M18.6546 95.5517 L18.4882 95.3853 "/>
<path d="M18.4882 95.3853 L18.1554 95.2189 "/>
<path d="M18.1554 95.2189 L17.4898 95.0525 "/>
<path d="M17.4898 95.0525 L16.6578 95.0525 "/>
<path d="M16.6578 95.0525 L15.9923 95.2189 "/>
<path d="M15.9923 95.2189 L15.6595 95.3853 "/>
<path d="M15.6595 95.3853 L15.4931 95.5517 "/>
<path d="M15.4931 95.5517 L15.3267 95.8844 "/>
<path d="M16.4915 100.0443 L18.8210 100.0443 "/>
<path d="M16.4915 98.5468 L18.3218 98.5468 "/>
<path d="M18.3218 98.5468 L18.6546 98.7131 "/>
<path d="M18.6546 98.7131 L18.8210 99.0459 "/>
<path d="M18.8210 99.0459 L18.8210 99.5451 "/>
<path d="M18.8210 99.5451 L18.6546 99.8779 "/>
<path d="M18.6546 99.8779 L18.4882 100.0443 "/>
<path d="M16.9906 102.8730 L16.9906 101.7082 "/>
<path d="M18.8210 101.7082 L15.3267 101.7082 "/>
<path d="M15.3267 101.7082 L15.3267 103.3722 "/>
</g><text x="215.9033" y="112.5154" transform="scale(-1 1) translate(-431.806676 0)" textLength="8.0301" font-size="4.6590" lengthAdjust="spacingAndGlyphs" text-anchor="middle" opacity="0.01" style="font-family:monospace">C5</text>
<g class="stroked-text"><desc>C5</desc>
<path d="M216.4857 112.0123 L216.6521 112.1787 "/>
<path d="M216.6521 112.1787 L217.1513 112.3451 "/>
<path d="M217.1513 112.3451 L217.4841 112.3451 "/>
<path d="M217.4841 112.3451 L217.9833 112.1787 "/>
<path d="M217.9833 112.1787 L218.3160 111.8459 "/>
<path d="M218.3160 111.8459 L218.4824 111.5131 "/>
<path d="M218.4824 111.5131 L218.6488 110.8476 "/>
<path d="M218.6488 110.8476 L218.6488 110.3484 "/>
<path d="M218.6488 110.3484 L218.4824 109.6828 "/>
<path d="M218.4824 109.6828 L218.3160 109.3500 "/>
<path d="M218.3160 109.3500 L217.9833 109.0172 "/>
<path d="M217.9833 109.0172 L217.4841 108.8508 "/>
<path d="M217.4841 108.8508 L217.1513 108.8508 "/>
<path d="M217.1513 108.8508 L216.6521 109.0172 "/>
<path d="M216.6521 109.0172 L216.4857 109.1836 "/>
<path d="M213.3242 108.8508 L214.9882 108.8508 "/>
<path d="M214.9882 108.8508 L215.1546 110.5148 "/>
<path d="M215.1546 110.5148 L214.9882 110.3484 "/>
<path d="M214.9882 110.3484 L214.6554 110.1820 "/>
<path d="M214.6554 110.1820 L213.8234 110.1820 "/>
<path d="M213.8234 110.1820 L213.4906 110.3484 "/>
<path d="M213.4906 110.3484 L213.3242 110.5148 "/>
<path d="M213.3242 110.5148 L213.1578 110.8476 "/>
<path d="M213.1578 110.8476 L213.1578 111.6795 "/>
<path d="M213.1578 111.6795 L213.3242 112.0123 "/>
<path d="M213.3242 112.0123 L213.4906 112.1787 "/>
<path d="M213.4906 112.1787 L213.8234 112.3451 "/>
<path d="M213.8234 112.3451 L214.6554 112.3451 "/>
<path d="M214.6554 112.3451 L214.9882 112.1787 "/>
<path d="M214.9882 112.1787 L215.1546 112.0123 "/>
</g><text x="215.0165" y="117.3932" transform="scale(-1 1) translate(-430.032933 0)" textLength="17.3481" font-size="4.6590" lengthAdjust="spacingAndGlyphs" text-anchor="middle" opacity="0.01" style="font-family:monospace">100nF</text>
<g class="stroked-text"><desc>100nF</desc>
<path d="M220.4243 117.2229 L222.4210 117.2229 "/>
<path d="M221.4226 117.2229 L221.4226 113.7286 "/>
<path d="M221.4226 113.7286 L221.7554 114.2278 "/>
<path d="M221.7554 114.2278 L222.0882 114.5606 "/>
<path d="M222.0882 114.5606 L222.4210 114.7270 "/>
<path d="M218.2611 113.7286 L217.9284 113.7286 "/>
<path d="M217.9284 113.7286 L217.5956 113.8950 "/>
<path d="M217.5956 113.8950 L217.4292 114.0614 "/>
<path d="M217.4292 114.0614 L217.2628 114.3942 "/>
<path d="M217.2628 114.3942 L217.0964 115.0598 "/>
<path d="M217.0964 115.0598 L217.0964 115.8918 "/>
<path d="M217.0964 115.8918 L217.2628 116.5573 "/>
<path d="M217.2628 116.5573 L217.4292 116.8901 "/>
<path d="M217.4292 116.8901 L217.5956 117.0565 "/>
<path d="M217.5956 117.0565 L217.9284 117.2229 "/>
<path d="M217.9284 117.2229 L218.2611 117.2229 "/>
<path d="M218.2611 117.2229 L218.5939 117.0565 "/>
<path d="M218.5939 117.0565 L218.7603 116.8901 "/>
<path d="M218.7603 116.8901 L218.9267 116.5573 "/>
<path d="M218.9267 116.5573 L219.0931 115.8918 "/>
<path d="M219.0931 115.8918 L219.0931 115.0598 "/>
<path d="M219.0931 115.0598 L218.9267 114.3942 "/>
<path d="M218.9267 114.3942 L218.7603 114.0614 "/>
<path d="M218.7603 114.0614 L218.5939 113.8950 "/>
<path d="M218.5939 113.8950 L218.2611 113.7286 "/>
<path d="M214.9333 113.7286 L214.6005 113.7286 "/>
<path d="M214.6005 113.7286 L214.2677 113.8950 "/>
<path d="M214.2677 113.8950 L214.1013 114.0614 "/>
<path d="M214.1013 114.0614 L213.9349 114.3942 "/>
<path d="M213.9349 114.3942 L213.7685 115.0598 "/>
<path d="M213.7685 115.0598 L213.7685 115.8918 "/>
<path d="M213.7685 115.8918 L213.9349 116.5573 "/>
<path d="M213.9349 116.5573 L214.1013 116.8901 "/>
<path d="M214.1013 116.8901 L214.2677 117.0565 "/>
<path d="M214.2677 117.0565 L214.6005 117.2229 "/>
<path d="M214.6005 117.2229 L214.9333 117.2229 "/>
<path d="M214.9333 117.2229 L215.2661 117.0565 "/>
<path d="M215.2661 117.0565 L215.4325 116.8901 "/>
<path d="M215.4325 116.8901 L215.5988 116.5573 "/>
<path d="M215.5988 116.5573 L215.7652 115.8918 "/>
<path d="M215.7652 115.8918 L215.7652 115.0598 "/>
<path d="M215.7652 115.0598 L215.5988 114.3942 "/>
<path d="M215.5988 114.3942 L215.4325 114.0614 "/>
<path d="M215.4325 114.0614 L215.2661 113.8950 "/>
<path d="M215.2661 113.8950 L214.9333 113.7286 "/>
<path d="M212.2710 114.8934 L212.2710 117.2229 "/>
<path d="M212.2710 115.2262 L212.1046 115.0598 "/>
<path d="M212.1046 115.0598 L211.7718 114.8934 "/>
<path d="M211.7718 114.8934 L211.2726 114.8934 "/>
<path d="M211.2726 114.8934 L210.9398 115.0598 "/>
<path d="M210.9398 115.0598 L210.7734 115.3926 "/>
<path d="M210.7734 115.3926 L210.7734 117.2229 "/>
<path d="M207.9447 115.3926 L209.1095 115.3926 "/>
<path d="M209.1095 117.2229 L209.1095 113.7286 "/>
<path d="M209.1095 113.7286 L207.4455 113.7286 "/>
</g></g>
<g style="fill:#000084; fill-opacity:0.01;  stroke:#000084; stroke-width:1.0475; stroke-opacity:1;  stroke-linecap:round; stroke-linejoin:round;">
<text x="37.4964" y="147.5176" transform="scale(-1 1) translate(-74.992849 0)" textLength="14.8560" font-size="9.3110" lengthAdjust="spacingAndGlyphs" text-anchor="middle" opacity="0.01" style="font-family:monospace">D1</text>
<g class="stroked-text"><desc>D1</desc>
<path d="M42.6507 147.2021 L42.6507 140.2188 "/>
<path d="M42.6507 140.2188 L40.9880 140.2188 "/>
<path d="M40.9880 140.2188 L39.9904 140.5514 "/>
<path d="M39.9904 140.5514 L39.3254 141.2164 "/>
<path d="M39.3254 141.2164 L38.9928 141.8815 "/>
<path d="M38.9928 141.8815 L38.6603 143.2116 "/>
<path d="M38.6603 143.2116 L38.6603 144.2092 "/>
<path d="M38.6603 144.2092 L38.9928 145.5394 "/>
<path d="M38.9928 145.5394 L39.3254 146.2044 "/>
<path d="M39.3254 146.2044 L39.9904 146.8695 "/>
<path d="M39.9904 146.8695 L40.9880 147.2021 "/>
<path d="M40.9880 147.2021 L42.6507 147.2021 "/>
<path d="M32.0096 147.2021 L36.0000 147.2021 "/>
<path d="M34.0048 147.2021 L34.0048 140.2188 "/>
<path d="M34.0048 140.2188 L34.6699 141.2164 "/>
<path d="M34.6699 141.2164 L35.3349 141.8815 "/>
<path d="M35.3349 141.8815 L36.0000 142.2140 "/>
</g></g>
<g style="fill:#000084; fill-opacity:0.01;  stroke:#000084; stroke-width:2.1285; stroke-opacity:1;  stroke-linecap:round; stroke-linejoin:round;">
<text x="68.3684" y="101.4561" transform="scale(-1 1) translate(-136.736844 0)" textLength="22.4505" font-size="14.1899" lengthAdjust="spacingAndGlyphs" text-anchor="middle" opacity="0.01" style="font-family:monospace">F1</text>
<g class="stroked-text"><desc>F1</desc>
<path d="M71.9159 95.3730 L75.4634 95.3730 "/>
<path d="M75.4634 100.9476 L75.4634 90.3051 "/>
<path d="M75.4634 90.3051 L70.3956 90.3051 "/>
<path d="M60.7667 100.9476 L66.8481 100.9476 "/>
<path d="M63.8074 100.9476 L63.8074 90.3051 "/>
<path d="M63.8074 90.3051 L64.8209 91.8255 "/>
<path d="M64.8209 91.8255 L65.8345 92.8391 "/>
<path d="M65.8345 92.8391 L66.8481 93.3459 "/>
</g></g>
<g style="fill:#000084; fill-opacity:0.01;  stroke:#000084; stroke-width:1.0475; stroke-opacity:1;  stroke-linecap:round; stroke-linejoin:round;">
<text x="86.4201" y="180.3877" transform="scale(-1 1) translate(-172.840196 0)" textLength="18.1601" font-size="11.8250" lengthAdjust="spacingAndGlyphs" text-anchor="middle" opacity="0.01" style="font-family:monospace">D3</text>
<g class="stroked-text"><desc>D3</desc>
<path d="M92.9661 180.0017 L92.9661 171.1330 "/>
<path d="M92.9661 171.1330 L90.8545 171.1330 "/>
<path d="M90.8545 171.1330 L89.5875 171.5553 "/>
<path d="M89.5875 171.5553 L88.7429 172.3999 "/>
<path d="M88.7429 172.3999 L88.3205 173.2446 "/>
<path d="M88.3205 173.2446 L87.8982 174.9338 "/>
<path d="M87.8982 174.9338 L87.8982 176.2008 "/>
<path d="M87.8982 176.2008 L88.3205 177.8901 "/>
<path d="M88.3205 177.8901 L88.7429 178.7347 "/>
<path d="M88.7429 178.7347 L89.5875 179.5794 "/>
<path d="M89.5875 179.5794 L90.8545 180.0017 "/>
<path d="M90.8545 180.0017 L92.9661 180.0017 "/>
<path d="M84.9420 171.1330 L79.4518 171.1330 "/>
<path d="M79.4518 171.1330 L82.4081 174.5115 "/>
<path d="M82.4081 174.5115 L81.1411 174.5115 "/>
<path d="M81.1411 174.5115 L80.2965 174.9338 "/>
<path d="M80.2965 174.9338 L79.8741 175.3562 "/>
<path d="M79.8741 175.3562 L79.4518 176.2008 "/>
<path d="M79.4518 176.2008 L79.4518 178.3124 "/>
<path d="M79.4518 178.3124 L79.8741 179.1570 "/>
<path d="M79.8741 179.1570 L80.2965 179.5794 "/>
<path d="M80.2965 179.5794 L81.1411 180.0017 "/>
<path d="M81.1411 180.0017 L83.6750 180.0017 "/>
<path d="M83.6750 180.0017 L84.5197 179.5794 "/>
<path d="M84.5197 179.5794 L84.9420 179.1570 "/>
</g><text x="99.3684" y="180.0329" transform="scale(-1 1) translate(-198.736844 0)" textLength="9.7137" font-size="11.8250" lengthAdjust="spacingAndGlyphs" text-anchor="middle" opacity="0.01" style="font-family:monospace">K</text>
<g class="stroked-text"><desc>K</desc>
<path d="M101.6912 179.6469 L101.6912 170.7782 "/>
<path d="M96.6233 179.6469 L100.4242 174.5791 "/>
<path d="M96.6233 170.7782 L101.6912 175.8461 "/>
</g></g>
<g style="fill:#000084; fill-opacity:0.01;  stroke:#000084; stroke-width:0.7627; stroke-opacity:1;  stroke-linecap:round; stroke-linejoin:round;">
<text x="89.8070" y="195.9162" transform="scale(-1 1) translate(-179.613939 0)" textLength="8.0301" font-size="4.6590" lengthAdjust="spacingAndGlyphs" text-anchor="middle" opacity="0.01" style="font-family:monospace">R4</text>
<g class="stroked-text"><desc>R4</desc>
<path d="M90.3893 195.7460 L91.5541 194.0820 "/>
<path d="M92.3861 195.7460 L92.3861 192.2517 "/>
<path d="M92.3861 192.2517 L91.0549 192.2517 "/>
<path d="M91.0549 192.2517 L90.7221 192.4181 "/>
<path d="M90.7221 192.4181 L90.5557 192.5845 "/>
<path d="M90.5557 192.5845 L90.3893 192.9173 "/>
<path d="M90.3893 192.9173 L90.3893 193.4164 "/>
<path d="M90.3893 193.4164 L90.5557 193.7492 "/>
<path d="M90.5557 193.7492 L90.7221 193.9156 "/>
<path d="M90.7221 193.9156 L91.0549 194.0820 "/>
<path d="M91.0549 194.0820 L92.3861 194.0820 "/>
<path d="M87.3943 193.4164 L87.3943 195.7460 "/>
<path d="M88.2262 192.0853 L89.0582 194.5812 "/>
<path d="M89.0582 194.5812 L86.8951 194.5812 "/>
</g><text x="88.9201" y="200.7940" transform="scale(-1 1) translate(-177.840196 0)" textLength="14.6858" font-size="4.6590" lengthAdjust="spacingAndGlyphs" text-anchor="middle" opacity="0.01" style="font-family:monospace">270R</text>
<g class="stroked-text"><desc>270R</desc>
<path d="M94.9935 197.4623 L94.8271 197.2959 "/>
<path d="M94.8271 197.2959 L94.4943 197.1295 "/>
<path d="M94.4943 197.1295 L93.6623 197.1295 "/>
<path d="M93.6623 197.1295 L93.3295 197.2959 "/>
<path d="M93.3295 197.2959 L93.1631 197.4623 "/>
<path d="M93.1631 197.4623 L92.9967 197.7951 "/>
<path d="M92.9967 197.7951 L92.9967 198.1278 "/>
<path d="M92.9967 198.1278 L93.1631 198.6270 "/>
<path d="M93.1631 198.6270 L95.1599 200.6238 "/>
<path d="M95.1599 200.6238 L92.9967 200.6238 "/>
<path d="M91.8320 197.1295 L89.5025 197.1295 "/>
<path d="M89.5025 197.1295 L91.0000 200.6238 "/>
<path d="M87.5057 197.1295 L87.1730 197.1295 "/>
<path d="M87.1730 197.1295 L86.8402 197.2959 "/>
<path d="M86.8402 197.2959 L86.6738 197.4623 "/>
<path d="M86.6738 197.4623 L86.5074 197.7951 "/>
<path d="M86.5074 197.7951 L86.3410 198.4606 "/>
<path d="M86.3410 198.4606 L86.3410 199.2926 "/>
<path d="M86.3410 199.2926 L86.5074 199.9582 "/>
<path d="M86.5074 199.9582 L86.6738 200.2910 "/>
<path d="M86.6738 200.2910 L86.8402 200.4574 "/>
<path d="M86.8402 200.4574 L87.1730 200.6238 "/>
<path d="M87.1730 200.6238 L87.5057 200.6238 "/>
<path d="M87.5057 200.6238 L87.8385 200.4574 "/>
<path d="M87.8385 200.4574 L88.0049 200.2910 "/>
<path d="M88.0049 200.2910 L88.1713 199.9582 "/>
<path d="M88.1713 199.9582 L88.3377 199.2926 "/>
<path d="M88.3377 199.2926 L88.3377 198.4606 "/>
<path d="M88.3377 198.4606 L88.1713 197.7951 "/>
<path d="M88.1713 197.7951 L88.0049 197.4623 "/>
<path d="M88.0049 197.4623 L87.8385 197.2959 "/>
<path d="M87.8385 197.2959 L87.5057 197.1295 "/>
<path d="M82.8467 200.6238 L84.0115 198.9598 "/>
<path d="M84.8434 200.6238 L84.8434 197.1295 "/>
<path d="M84.8434 197.1295 L83.5123 197.1295 "/>
<path d="M83.5123 197.1295 L83.1795 197.2959 "/>
<path d="M83.1795 197.2959 L83.0131 197.4623 "/>
<path d="M83.0131 197.4623 L82.8467 197.7951 "/>
<path d="M82.8467 197.7951 L82.8467 198.2942 "/>
<path d="M82.8467 198.2942 L83.0131 198.6270 "/>
<path d="M83.0131 198.6270 L83.1795 198.7934 "/>
<path d="M83.1795 198.7934 L83.5123 198.9598 "/>
<path d="M83.5123 198.9598 L84.8434 198.9598 "/>
</g></g>
<g style="fill:#000084; fill-opacity:0.0;  stroke:#000084; stroke-width:1.0475; stroke-opacity:1;  stroke-linecap:round; stroke-linejoin:round;">
<path d="M87.7504 17.2033 L94.8454 17.2033 "/>
<path d="M94.8454 17.2033 L94.8454 6.5609 "/>
<path d="M73.5605 6.5609 L73.5605 17.2033 "/>
<path d="M80.6554 6.5609 L73.5605 6.5609 "/>
<path d="M94.8454 6.5609 L87.7504 6.5609 "/>
<path d="M73.5605 17.2033 L80.6554 17.2033 "/>
<path d="M148.5011 56.6691 L148.5011 63.7641 "/>
<path d="M159.1436 56.6691 L148.5011 56.6691 "/>
<path d="M148.5011 70.8591 L148.5011 77.9540 "/>
<path d="M148.5011 77.9540 L159.1436 77.9540 "/>
<path d="M159.1436 77.9540 L159.1436 70.8591 "/>
<path d="M159.1436 63.7641 L159.1436 56.6691 "/>
<path d="M42.9634 87.7096 L32.3209 87.7096 "/>
<path d="M32.3209 108.9945 L42.9634 108.9945 "/>
<path d="M42.9634 108.9945 L42.9634 101.8996 "/>
<path d="M42.9634 94.8046 L42.9634 87.7096 "/>
<path d="M32.3209 87.7096 L32.3209 94.8046 "/>
<path d="M32.3209 101.8996 L32.3209 108.9945 "/>
<path d="M41.6331 68.6419 L34.5381 68.6419 "/>
<path d="M41.6331 79.2843 L41.6331 68.6419 "/>
<path d="M20.3482 79.2843 L27.4431 79.2843 "/>
<path d="M20.3482 68.6419 L20.3482 79.2843 "/>
<path d="M34.5381 79.2843 L41.6331 79.2843 "/>
<path d="M27.4431 68.6419 L20.3482 68.6419 "/>
<path d="M212.7993 56.2257 L212.7993 66.8681 "/>
<path d="M212.7993 66.8681 L219.8943 66.8681 "/>
<path d="M226.9892 66.8681 L234.0842 66.8681 "/>
<path d="M234.0842 66.8681 L234.0842 56.2257 "/>
<path d="M234.0842 56.2257 L226.9892 56.2257 "/>
<path d="M219.8943 56.2257 L212.7993 56.2257 "/>
</g>
<g style="fill:#000084; fill-opacity:0.0;  stroke:#000084; stroke-width:0.6983; stroke-opacity:1;  stroke-linecap:round; stroke-linejoin:round;">
<path d="M165.5751 110.1014 L186.5248 110.1014 "/>
<path d="M165.5751 82.1684 L165.5751 110.1014 "/>
<path d="M193.5081 82.1684 L165.5751 82.1684 "/>
<path d="M186.5248 110.1014 L193.5081 103.1181 "/>
<path d="M193.5081 103.1181 L193.5081 82.1684 "/>
</g>
<g style="fill:#000084; fill-opacity:0.0;  stroke:#000084; stroke-width:1.0475; stroke-opacity:1;  stroke-linecap:round; stroke-linejoin:round;">
<path d="M187.9669 66.8681 L195.0619 66.8681 "/>
<path d="M195.0619 56.2257 L187.9669 56.2257 "/>
<path d="M209.2518 66.8681 L209.2518 56.2257 "/>
<path d="M209.2518 56.2257 L202.1568 56.2257 "/>
<path d="M187.9669 56.2257 L187.9669 66.8681 "/>
<path d="M202.1568 66.8681 L209.2518 66.8681 "/>
<path d="M103.9802 43.9868 L103.9802 24.1209 "/>
<path d="M68.8600 24.1209 L68.8600 43.9868 "/>
<path d="M103.4480 24.1209 L68.8600 24.1209 "/>
<path d="M69.2148 43.9868 L103.8028 43.9868 "/>
<path d="M170.2295 56.2257 L163.1345 56.2257 "/>
<path d="M163.1345 56.2257 L163.1345 66.8681 "/>
<path d="M163.1345 66.8681 L170.2295 66.8681 "/>
<path d="M184.4194 56.2257 L177.3244 56.2257 "/>
<path d="M184.4194 66.8681 L184.4194 56.2257 "/>
<path d="M177.3244 66.8681 L184.4194 66.8681 "/>
</g>
<g style="fill:#000084; fill-opacity:0.0;  stroke:#000084; stroke-width:0.6983; stroke-opacity:1;  stroke-linecap:round; stroke-linejoin:round;">
<path d="M128.4068 84.0888 L128.4068 66.6307 "/>
<path d="M117.2336 63.8374 L117.2336 84.0888 "/>
<path d="M117.2336 84.0888 L128.4068 84.0888 "/>
<path d="M128.4068 66.6307 L125.6135 63.8374 "/>
<path d="M125.6135 63.8374 L117.2336 63.8374 "/>
</g>
<g style="fill:#000084; fill-opacity:0.0;  stroke:#000084; stroke-width:1.0475; stroke-opacity:1;  stroke-linecap:round; stroke-linejoin:round;">
<path d="M25.2260 87.7096 L14.5835 87.7096 "/>
<path d="M25.2260 94.8046 L25.2260 87.7096 "/>
<path d="M25.2260 108.9945 L25.2260 101.8996 "/>
<path d="M14.5835 108.9945 L25.2260 108.9945 "/>
<path d="M14.5835 101.8996 L14.5835 108.9945 "/>
<path d="M14.5835 87.7096 L14.5835 94.8046 "/>
<path d="M205.2609 107.6642 L205.2609 118.3067 "/>
<path d="M226.5458 107.6642 L219.4508 107.6642 "/>
<path d="M212.3559 107.6642 L205.2609 107.6642 "/>
<path d="M226.5458 118.3067 L226.5458 107.6642 "/>
<path d="M205.2609 118.3067 L212.3559 118.3067 "/>
<path d="M219.4508 118.3067 L226.5458 118.3067 "/>
</g>
<g style="fill:#000084; fill-opacity:0.0;  stroke:#000084; stroke-width:0.6983; stroke-opacity:1;  stroke-linecap:round; stroke-linejoin:round;">
<path d="M41.5140 127.1825 L33.4789 132.4151 "/>
<path d="M20.9173 116.7005 L53.0402 116.7005 "/>
<path d="M33.4789 132.4151 L33.4789 121.5952 "/>
<path d="M20.9173 137.6503 L53.0402 137.6503 "/>
<path d="M41.5140 127.1825 L47.8107 127.1825 "/>
<path d="M20.9173 116.7005 L20.9173 137.6503 "/>
<path d="M41.5140 127.1825 L33.4789 121.5952 "/>
<path d="M41.5140 121.5952 L41.5140 132.7698 "/>
<path d="M53.0402 137.6503 L53.0402 116.7005 "/>
<path d="M33.4789 127.1825 L26.5081 127.1825 "/>
</g>
<g style="fill:#000084; fill-opacity:0.0;  stroke:#000084; stroke-width:1.0475; stroke-opacity:1;  stroke-linecap:round; stroke-linejoin:round;">
<path d="M88.7665 108.5511 L47.9704 108.5511 "/>
<path d="M47.9704 83.7187 L47.9704 108.5511 "/>
<path d="M88.7665 83.7187 L88.7665 108.5511 "/>
<path d="M88.7665 83.7187 L47.9704 83.7187 "/>
<path d="M68.8600 166.0204 L68.8600 185.8863 "/>
<path d="M103.9802 185.8863 L103.9802 166.0204 "/>
<path d="M69.2148 185.8863 L103.8028 185.8863 "/>
<path d="M103.4480 166.0204 L68.8600 166.0204 "/>
<path d="M100.4494 201.7075 L100.4494 191.0651 "/>
<path d="M93.3545 201.7075 L100.4494 201.7075 "/>
<path d="M79.1645 201.7075 L86.2595 201.7075 "/>
<path d="M100.4494 191.0651 L93.3545 191.0651 "/>
<path d="M86.2595 191.0651 L79.1645 191.0651 "/>
<path d="M79.1645 191.0651 L79.1645 201.7075 "/>
<g>
</g>
<g>
</g>
<g>
</g>
<g>
</g>
<g>
</g>
<g>
</g>
<g>
</g>
<g>
</g>
<g>
</g>
<g>
</g>
<g>
</g>
<g>
</g>
<g>
</g>
<g>
</g>
<g>
</g>
<g>
</g>
<g>
</g>
<g>
</g>
<g>
</g>
<g>
</g>
<g>
</g>
<g>
</g>
<g>
</g>
<g>
</g>
<g>
</g>
<g>
</g>
<g>
</g>
<g>
</g>
<g>
</g>
<g>
</g>
<g>
</g>
<g>
</g>
<g>
</g>
<g>
</g>
<g>
</g>
<g>
</g>
<g>
</g>
<g>
</g>
<g>
</g>
<g>
</g>
<g>
</g>
</g> 
<svg:g><svg:g><svg:title>SVG Image created as USB232R02-Edge_Cuts.svg date 2023/07/05 13:03:57 </svg:title>
  <svg:desc>Image generated by PCBNEW </svg:desc>
<svg:g style="fill:#C2C200; fill-opacity:1.0000;stroke:#C2C200; stroke-opacity:1.0000; stroke-linecap:round; stroke-linejoin:round;" transform="translate(0 0) scale(1 1)">
</svg:g>
<svg:g style="fill:#C2C200; fill-opacity:0.0;  stroke:#C2C200; stroke-width:0.0000; stroke-opacity:1;  stroke-linecap:round; stroke-linejoin:round;">
</svg:g>
<svg:g style="fill:#C2C200; fill-opacity:0.0;  stroke:#C2C200; stroke-width:0.6983; stroke-opacity:1;  stroke-linecap:round; stroke-linejoin:round;">
<svg:path style="fill:#C2C200; fill-opacity:0.0;  stroke:#C2C200; stroke-width:0.6983; stroke-opacity:1;  stroke-linecap:round; stroke-linejoin:round;fill:none" d="M 8.3754,0.3528 288.6268,0.3528 288.6268,209.6544 8.3754,209.6544 Z"/> 
<svg:g>
</svg:g>
<svg:g>
</svg:g>
<svg:g>
</svg:g>
<svg:g>
</svg:g>
<svg:g>
</svg:g>
<svg:g>
</svg:g>
<svg:g>
</svg:g>
<svg:g>
</svg:g>
<svg:g>
</svg:g>
<svg:g>
</svg:g>
<svg:g>
</svg:g>
<svg:g>
</svg:g>
<svg:g>
</svg:g>
<svg:g>
</svg:g>
<svg:g>
</svg:g>
<svg:g>
</svg:g>
<svg:g>
</svg:g>
<svg:g>
</svg:g>
<svg:g>
</svg:g>
<svg:g>
</svg:g>
<svg:g>
</svg:g>
<svg:g>
</svg:g>
<svg:g>
</svg:g>
<svg:g>
</svg:g>
<svg:g>
</svg:g>
<svg:g>
</svg:g>
<svg:g>
</svg:g>
<svg:g>
</svg:g>
<svg:g>
</svg:g>
<svg:g>
</svg:g>
<svg:g>
</svg:g>
<svg:g>
</svg:g>
<svg:g>
</svg:g>
<svg:g>
</svg:g>
<svg:g>
</svg:g>
<svg:g>
</svg:g>
<svg:g>
</svg:g>
<svg:g>
</svg:g>
<svg:g>
</svg:g>
<svg:g>
</svg:g>
<svg:g>
</svg:g>
</svg:g> 
</svg:g></svg:g></svg>
