<?xml version='1.0' encoding='ASCII' standalone='yes'?>
<svg xmlns:svg="http://www.w3.org/2000/svg" xmlns="http://www.w3.org/2000/svg" xmlns:xlink="http://www.w3.org/1999/xlink" version="1.1" width="29.700220cm" height="21.000720cm" viewBox="0 0 2970022 2100072">
<title>SVG Picture created as USB232R02-B_Fab.svg date 2023/02/15 22:21:42 </title>
  <desc>Picture generated by PCBNEW </desc>
<g style="fill:#000084; fill-opacity:1.000000;stroke:#000084; stroke-opacity:1.000000; stroke-linecap:round; stroke-linejoin:round;" transform="translate(0 0) scale(1 1)">
</g>
<g style="fill:#000084; fill-opacity:0.0;  stroke:#000084; stroke-width:0.000000; stroke-opacity:1;  stroke-linecap:round; stroke-linejoin:round;">
</g>
<g style="fill:#000084; fill-opacity:0.01;  stroke:#000084; stroke-width:6565.125645; stroke-opacity:1;  stroke-linecap:round; stroke-linejoin:round;">
<text x="788060.683490" y="194470.598621" transform="scale(-1 1) translate(-1576121.366979 0)" textLength="58722.530315" font-size="40103.228087" lengthAdjust="spacingAndGlyphs" text-anchor="middle" opacity="0.01" style="font-family:monospace">R3</text>
<g class="stroked-text"><desc>R3</desc>
<path d="M793073 193038 L803099 178715 "/>
<path d="M810260 193038 L810260 162960 L798802 162960 L795938 164393 L794505 165825 L793073 168689 L793073 172986 L794505 175851 L795938 177283 L798802 178715 L810260 178715 "/>
<path d="M783047 162960 L764428 162960 L774454 174418 L770157 174418 L767292 175851 L765860 177283 L764428 180147 L764428 187309 L765860 190173 L767292 191606 L770157 193038 L778750 193038 L781615 191606 L783047 190173 "/>
</g><text x="795694.550518" y="152484.329964" transform="scale(-1 1) translate(-1591389.101036 0)" textLength="107478.295860" font-size="40103.228087" lengthAdjust="spacingAndGlyphs" text-anchor="middle" opacity="0.01" style="font-family:monospace">270R</text>
<g class="stroked-text"><desc>270R</desc>
<path d="M847971 123839 L846539 122406 L843675 120974 L836513 120974 L833649 122406 L832217 123839 L830784 126703 L830784 129568 L832217 133864 L849404 151052 L830784 151052 "/>
<path d="M820759 120974 L800707 120974 L813597 151052 "/>
<path d="M783520 120974 L780655 120974 L777791 122406 L776359 123839 L774926 126703 L773494 132432 L773494 139593 L774926 145322 L776359 148187 L777791 149619 L780655 151052 L783520 151052 L786384 149619 L787817 148187 L789249 145322 L790681 139593 L790681 132432 L789249 126703 L787817 123839 L786384 122406 L783520 120974 "/>
<path d="M743417 151052 L753442 136729 "/>
<path d="M760604 151052 L760604 120974 L749146 120974 L746281 122406 L744849 123839 L743417 126703 L743417 131000 L744849 133864 L746281 135297 L749146 136729 L760604 136729 "/>
</g><g transform="rotate(-90.000000 1406403.912799 637463.902285)">
<text x="1406403.912799" y="652502.620331" transform="scale(-1 1) translate(-2812807.825598 0)" textLength="50187.927087" font-size="40103.228087" lengthAdjust="spacingAndGlyphs" text-anchor="middle" opacity="0.01" style="font-family:monospace">C3</text>
</g>
<g class="stroked-text"><desc>C3</desc>
<path d="M1417145 632450 L1418578 631018 L1420010 626721 L1420010 623857 L1418578 619560 L1415713 616696 L1412849 615263 L1407119 613831 L1402823 613831 L1397094 615263 L1394229 616696 L1391365 619560 L1389932 623857 L1389932 626721 L1391365 631018 L1392797 632450 "/>
<path d="M1389932 642476 L1389932 661096 L1401390 651070 L1401390 655367 L1402823 658231 L1404255 659663 L1407119 661096 L1414281 661096 L1417145 659663 L1418578 658231 L1420010 655367 L1420010 646773 L1418578 643909 L1417145 642476 "/>
</g><g transform="rotate(-90.000000 1364417.644142 629830.035257)">
<text x="1364417.644142" y="644868.753303" transform="scale(-1 1) translate(-2728835.288285 0)" textLength="130394.443369" font-size="40103.228087" lengthAdjust="spacingAndGlyphs" text-anchor="middle" opacity="0.01" style="font-family:monospace">100nF</text>
</g>
<g class="stroked-text"><desc>100nF</desc>
<path d="M1378024 583281 L1378024 566094 "/>
<path d="M1378024 574688 L1347946 574688 L1352243 571823 L1355107 568959 L1356540 566094 "/>
<path d="M1347946 601900 L1347946 604765 L1349378 607629 L1350811 609062 L1353675 610494 L1359404 611926 L1366566 611926 L1372295 610494 L1375159 609062 L1376591 607629 L1378024 604765 L1378024 601900 L1376591 599036 L1375159 597604 L1372295 596171 L1366566 594739 L1359404 594739 L1353675 596171 L1350811 597604 L1349378 599036 L1347946 601900 "/>
<path d="M1347946 630546 L1347946 633410 L1349378 636275 L1350811 637707 L1353675 639139 L1359404 640571 L1366566 640571 L1372295 639139 L1375159 637707 L1376591 636275 L1378024 633410 L1378024 630546 L1376591 627681 L1375159 626249 L1372295 624817 L1366566 623384 L1359404 623384 L1353675 624817 L1350811 626249 L1349378 627681 L1347946 630546 "/>
<path d="M1357972 653462 L1378024 653462 "/>
<path d="M1360836 653462 L1359404 654894 L1357972 657759 L1357972 662055 L1359404 664920 L1362269 666352 L1378024 666352 "/>
<path d="M1362269 690700 L1362269 680675 "/>
<path d="M1378024 680675 L1347946 680675 L1347946 694997 "/>
</g><g transform="rotate(-90.000000 368197.996921 904649.248283)">
<text x="368197.996921" y="919687.966329" transform="scale(-1 1) translate(-736395.993843 0)" textLength="75968.638116" font-size="40103.228087" lengthAdjust="spacingAndGlyphs" text-anchor="middle" opacity="0.01" style="font-family:monospace">FB1</text>
</g>
<g class="stroked-text"><desc>FB1</desc>
<path d="M366049 879584 L366049 869558 "/>
<path d="M381804 869558 L351726 869558 L351726 883881 "/>
<path d="M366049 905365 L367481 909662 L368914 911094 L371778 912526 L376075 912526 L378939 911094 L380372 909662 L381804 906797 L381804 895339 L351726 895339 L351726 905365 L353159 908229 L354591 909662 L357456 911094 L360320 911094 L363185 909662 L364617 908229 L366049 905365 L366049 895339 "/>
<path d="M381804 941171 L381804 923984 "/>
<path d="M381804 932578 L351726 932578 L356023 929713 L358888 926849 L360320 923984 "/>
</g><text x="330028.661779" y="690671.955474" transform="scale(-1 1) translate(-660057.323558 0)" textLength="50187.927087" font-size="40103.228087" lengthAdjust="spacingAndGlyphs" text-anchor="middle" opacity="0.01" style="font-family:monospace">C1</text>
<g class="stroked-text"><desc>C1</desc>
<path d="M335041 686375 L336473 687807 L340770 689239 L343635 689239 L347931 687807 L350796 684942 L352228 682078 L353660 676349 L353660 672052 L352228 666323 L350796 663459 L347931 660594 L343635 659162 L340770 659162 L336473 660594 L335041 662026 "/>
<path d="M306396 689239 L323583 689239 "/>
<path d="M314989 689239 L314989 659162 L317854 663459 L320718 666323 L323583 667755 "/>
</g><text x="322394.794750" y="732658.224131" transform="scale(-1 1) translate(-644789.589501 0)" textLength="101749.289037" font-size="40103.228087" lengthAdjust="spacingAndGlyphs" text-anchor="middle" opacity="0.01" style="font-family:monospace">10nF</text>
<g class="stroked-text"><desc>10nF</desc>
<path d="M354620 731225 L371807 731225 "/>
<path d="M363214 731225 L363214 701148 L366078 705445 L368943 708309 L371807 709742 "/>
<path d="M336001 701148 L333136 701148 L330272 702580 L328839 704013 L327407 706877 L325975 712606 L325975 719767 L327407 725496 L328839 728361 L330272 729793 L333136 731225 L336001 731225 L338865 729793 L340298 728361 L341730 725496 L343162 719767 L343162 712606 L341730 706877 L340298 704013 L338865 702580 L336001 701148 "/>
<path d="M313085 711174 L313085 731225 "/>
<path d="M313085 714038 L311652 712606 L308788 711174 L304491 711174 L301627 712606 L300194 715471 L300194 731225 "/>
<path d="M275846 715471 L285872 715471 "/>
<path d="M285872 731225 L285872 701148 L271549 701148 "/>
</g><text x="1986577.806966" y="621967.152217" transform="scale(-1 1) translate(-3973155.613932 0)" textLength="50187.927087" font-size="40103.228087" lengthAdjust="spacingAndGlyphs" text-anchor="middle" opacity="0.01" style="font-family:monospace">R2</text>
<g class="stroked-text"><desc>R2</desc>
<path d="M1991590 620534 L2001616 606212 "/>
<path d="M2008777 620534 L2008777 590457 L1997319 590457 L1994455 591889 L1993022 593321 L1991590 596186 L1991590 600483 L1993022 603347 L1994455 604780 L1997319 606212 L2008777 606212 "/>
<path d="M1980132 593321 L1978700 591889 L1975835 590457 L1968674 590457 L1965810 591889 L1964377 593321 L1962945 596186 L1962945 599051 L1964377 603347 L1981564 620534 L1962945 620534 "/>
</g><text x="1994211.673995" y="579980.883560" transform="scale(-1 1) translate(-3988423.347989 0)" textLength="73104.074596" font-size="40103.228087" lengthAdjust="spacingAndGlyphs" text-anchor="middle" opacity="0.01" style="font-family:monospace">10k</text>
<g class="stroked-text"><desc>10k</desc>
<path d="M2012114 578548 L2029301 578548 "/>
<path d="M2020708 578548 L2020708 548471 L2023572 552767 L2026437 555632 L2029301 557064 "/>
<path d="M1993495 548471 L1990630 548471 L1987766 549903 L1986334 551335 L1984901 554200 L1983469 559929 L1983469 567090 L1984901 572819 L1986334 575684 L1987766 577116 L1990630 578548 L1993495 578548 L1996360 577116 L1997792 575684 L1999224 572819 L2000656 567090 L2000656 559929 L1999224 554200 L1997792 551335 L1996360 549903 L1993495 548471 "/>
<path d="M1970579 578548 L1970579 548471 "/>
<path d="M1967714 567090 L1959121 578548 "/>
<path d="M1959121 558496 L1970579 569955 "/>
</g></g>
<g style="fill:#000084; fill-opacity:0.0;  stroke:#000084; stroke-width:9016.378380; stroke-opacity:1;  stroke-linecap:round; stroke-linejoin:round;">
<g transform="rotate(-90.000000 1608701.389055 885564.580712)">
<text x="1608701.389055" y="915619.175312" transform="scale(-1 1) translate(-3217402.778109 0)" textLength="111683.715064" font-size="80145.565565" lengthAdjust="spacingAndGlyphs" text-anchor="middle" opacity="0.01" style="font-family:monospace">U2</text>
</g>
<g class="stroked-text"><desc>U2</desc>
<path d="M1575784 839767 L1624444 839767 L1630168 842629 L1633031 845491 L1635893 851216 L1635893 862665 L1633031 868390 L1630168 871252 L1624444 874115 L1575784 874115 "/>
<path d="M1581509 899876 L1578646 902738 L1575784 908463 L1575784 922774 L1578646 928499 L1581509 931362 L1587233 934224 L1592958 934224 L1601545 931362 L1635893 897013 L1635893 934224 "/>
</g></g>
<g style="fill:#000084; fill-opacity:0.01;  stroke:#000084; stroke-width:6565.125645; stroke-opacity:1;  stroke-linecap:round; stroke-linejoin:round;">
<text x="1772829.530168" y="621967.152217" transform="scale(-1 1) translate(-3545659.060335 0)" textLength="47001.298530" font-size="40103.228087" lengthAdjust="spacingAndGlyphs" text-anchor="middle" opacity="0.01" style="font-family:monospace">R1</text>
<g class="stroked-text"><desc>R1</desc>
<path d="M1777842 620534 L1787868 606212 "/>
<path d="M1795029 620534 L1795029 590457 L1783571 590457 L1780706 591889 L1779274 593321 L1777842 596186 L1777842 600483 L1779274 603347 L1780706 604780 L1783571 606212 L1795029 606212 "/>
<path d="M1749197 620534 L1766384 620534 "/>
<path d="M1757790 620534 L1757790 590457 L1760655 594754 L1763519 597618 L1766384 599051 "/>
</g><text x="1780463.397196" y="579980.883560" transform="scale(-1 1) translate(-3560926.794392 0)" textLength="73104.074596" font-size="40103.228087" lengthAdjust="spacingAndGlyphs" text-anchor="middle" opacity="0.01" style="font-family:monospace">4k7</text>
<g class="stroked-text"><desc>4k7</desc>
<path d="M1801231 558496 L1801231 578548 "/>
<path d="M1808392 547038 L1815553 568522 L1796934 568522 "/>
<path d="M1785476 578548 L1785476 548471 "/>
<path d="M1782611 567090 L1774018 578548 "/>
<path d="M1774018 558496 L1785476 569955 "/>
<path d="M1763992 548471 L1743940 548471 L1756831 578548 "/>
</g></g>
<g style="fill:#000084; fill-opacity:0.01;  stroke:#000084; stroke-width:9016.378380; stroke-opacity:1;  stroke-linecap:round; stroke-linejoin:round;">
<text x="918599.809677" y="386309.677047" transform="scale(-1 1) translate(-1837199.619354 0)" textLength="67804.006947" font-size="101784.873677" lengthAdjust="spacingAndGlyphs" text-anchor="middle" opacity="0.01" style="font-family:monospace">K</text>
<g class="stroked-text"><desc>K</desc>
<path d="M938593 382674 L938593 306335 "/>
<path d="M894971 382674 L927687 339052 "/>
<path d="M894971 306335 L938593 349957 "/>
</g><text x="807145.351061" y="389363.223858" transform="scale(-1 1) translate(-1614290.702122 0)" textLength="137320.885350" font-size="101784.873677" lengthAdjust="spacingAndGlyphs" text-anchor="middle" opacity="0.01" style="font-family:monospace">D2</text>
<g class="stroked-text"><desc>D2</desc>
<path d="M863490 385728 L863490 309389 L845314 309389 L834409 313024 L827138 320294 L823503 327565 L819868 342105 L819868 353011 L823503 367552 L827138 374822 L834409 382092 L845314 385728 L863490 385728 "/>
<path d="M790787 316659 L787151 313024 L779881 309389 L761705 309389 L754435 313024 L750800 316659 L747164 323930 L747164 331200 L750800 342105 L794422 385728 L747164 385728 "/>
</g></g>
<g style="fill:#000084; fill-opacity:0.01;  stroke:#000084; stroke-width:6565.125645; stroke-opacity:1;  stroke-linecap:round; stroke-linejoin:round;">
<text x="1559081.253369" y="583797.817075" transform="scale(-1 1) translate(-3118162.506739 0)" textLength="47001.298530" font-size="40103.228087" lengthAdjust="spacingAndGlyphs" text-anchor="middle" opacity="0.01" style="font-family:monospace">C4</text>
<g class="stroked-text"><desc>C4</desc>
<path d="M1564094 579501 L1565526 580933 L1569823 582365 L1572687 582365 L1576984 580933 L1579848 578068 L1581281 575204 L1582713 569475 L1582713 565178 L1581281 559449 L1579848 556584 L1576984 553720 L1572687 552288 L1569823 552288 L1565526 553720 L1564094 555152 "/>
<path d="M1538313 562313 L1538313 582365 "/>
<path d="M1545474 550855 L1552636 572339 L1534016 572339 "/>
</g><text x="1551447.386341" y="625784.085732" transform="scale(-1 1) translate(-3102894.772682 0)" textLength="130394.443369" font-size="40103.228087" lengthAdjust="spacingAndGlyphs" text-anchor="middle" opacity="0.01" style="font-family:monospace">100nF</text>
<g class="stroked-text"><desc>100nF</desc>
<path d="M1597995 624351 L1615182 624351 "/>
<path d="M1606589 624351 L1606589 594274 L1609453 598571 L1612318 601435 L1615182 602867 "/>
<path d="M1579376 594274 L1576511 594274 L1573647 595706 L1572215 597138 L1570782 600003 L1569350 605732 L1569350 612893 L1570782 618622 L1572215 621487 L1573647 622919 L1576511 624351 L1579376 624351 L1582240 622919 L1583673 621487 L1585105 618622 L1586537 612893 L1586537 605732 L1585105 600003 L1583673 597138 L1582240 595706 L1579376 594274 "/>
<path d="M1550731 594274 L1547866 594274 L1545002 595706 L1543569 597138 L1542137 600003 L1540705 605732 L1540705 612893 L1542137 618622 L1543569 621487 L1545002 622919 L1547866 624351 L1550731 624351 L1553595 622919 L1555028 621487 L1556460 618622 L1557892 612893 L1557892 605732 L1556460 600003 L1555028 597138 L1553595 595706 L1550731 594274 "/>
<path d="M1527815 604300 L1527815 624351 "/>
<path d="M1527815 607164 L1526382 605732 L1523518 604300 L1519221 604300 L1516357 605732 L1514924 608596 L1514924 624351 "/>
<path d="M1490576 608596 L1500602 608596 "/>
<path d="M1500602 624351 L1500602 594274 L1486279 594274 "/>
</g></g>
<g style="fill:#000084; fill-opacity:0.01;  stroke:#000084; stroke-width:3606.551352; stroke-opacity:1;  stroke-linecap:round; stroke-linejoin:round;">
<text x="1120464.499770" y="706739.742839" transform="scale(-1 1) translate(-2240928.999541 0)" textLength="39552.688023" font-size="32058.214204" lengthAdjust="spacingAndGlyphs" text-anchor="middle" opacity="0.01" style="font-family:monospace">U1</text>
<g class="stroked-text"><desc>U1</desc>
<path d="M1138783 681551 L1138783 701015 L1137638 703304 L1136493 704449 L1134203 705594 L1129623 705594 L1127334 704449 L1126189 703304 L1125044 701015 L1125044 681551 "/>
<path d="M1101000 705594 L1114739 705594 "/>
<path d="M1107870 705594 L1107870 681551 L1110160 684985 L1112449 687275 L1114739 688420 "/>
</g></g>
<g style="fill:#000084; fill-opacity:0.01;  stroke:#000084; stroke-width:6565.125645; stroke-opacity:1;  stroke-linecap:round; stroke-linejoin:round;">
<g transform="rotate(-90.000000 253689.991494 904649.248283)">
<text x="253689.991494" y="919687.966329" transform="scale(-1 1) translate(-507379.982987 0)" textLength="54034.073667" font-size="40103.228087" lengthAdjust="spacingAndGlyphs" text-anchor="middle" opacity="0.01" style="font-family:monospace">C2</text>
</g>
<g class="stroked-text"><desc>C2</desc>
<path d="M264431 899636 L265864 898204 L267296 893907 L267296 891042 L265864 886745 L262999 883881 L260135 882449 L254406 881016 L250109 881016 L244380 882449 L241515 883881 L238651 886745 L237218 891042 L237218 893907 L238651 898204 L240083 899636 "/>
<path d="M240083 911094 L238651 912526 L237218 915391 L237218 922552 L238651 925416 L240083 926849 L242947 928281 L245812 928281 L250109 926849 L267296 909662 L267296 928281 "/>
</g><g transform="rotate(-90.000000 211703.722837 897015.381255)">
<text x="211703.722837" y="912054.099301" transform="scale(-1 1) translate(-423407.445674 0)" textLength="101749.289037" font-size="40103.228087" lengthAdjust="spacingAndGlyphs" text-anchor="middle" opacity="0.01" style="font-family:monospace">10uF</text>
</g>
<g class="stroked-text"><desc>10uF</desc>
<path d="M225310 864789 L225310 847602 "/>
<path d="M225310 856195 L195232 856195 L199529 853331 L202394 850466 L203826 847602 "/>
<path d="M195232 883408 L195232 886273 L196665 889137 L198097 890570 L200961 892002 L206690 893434 L213852 893434 L219581 892002 L222445 890570 L223877 889137 L225310 886273 L225310 883408 L223877 880544 L222445 879112 L219581 877679 L213852 876247 L206690 876247 L200961 877679 L198097 879112 L196665 880544 L195232 883408 "/>
<path d="M205258 919215 L225310 919215 "/>
<path d="M205258 906325 L221013 906325 L223877 907757 L225310 910621 L225310 914918 L223877 917783 L222445 919215 "/>
<path d="M209555 943563 L209555 933537 "/>
<path d="M225310 933537 L195232 933537 L195232 947860 "/>
</g><text x="1921689.937224" y="1026562.104728" transform="scale(-1 1) translate(-3843379.874447 0)" textLength="50187.927087" font-size="40103.228087" lengthAdjust="spacingAndGlyphs" text-anchor="middle" opacity="0.01" style="font-family:monospace">C5</text>
<g class="stroked-text"><desc>C5</desc>
<path d="M1926702 1022265 L1928135 1023697 L1932431 1025129 L1935296 1025129 L1939593 1023697 L1942457 1020833 L1943889 1017968 L1945322 1012239 L1945322 1007942 L1943889 1002213 L1942457 999349 L1939593 996484 L1935296 995052 L1932431 995052 L1928135 996484 L1926702 997916 "/>
<path d="M1899489 995052 L1913812 995052 L1915244 1009374 L1913812 1007942 L1910947 1006510 L1903786 1006510 L1900922 1007942 L1899489 1009374 L1898057 1012239 L1898057 1019400 L1899489 1022265 L1900922 1023697 L1903786 1025129 L1910947 1025129 L1913812 1023697 L1915244 1022265 "/>
</g><text x="1914056.070195" y="1068548.373385" transform="scale(-1 1) translate(-3828112.140390 0)" textLength="130394.443369" font-size="40103.228087" lengthAdjust="spacingAndGlyphs" text-anchor="middle" opacity="0.01" style="font-family:monospace">100nF</text>
<g class="stroked-text"><desc>100nF</desc>
<path d="M1960604 1067116 L1977791 1067116 "/>
<path d="M1969198 1067116 L1969198 1037038 L1972062 1041335 L1974927 1044199 L1977791 1045632 "/>
<path d="M1941985 1037038 L1939120 1037038 L1936256 1038470 L1934823 1039903 L1933391 1042767 L1931959 1048496 L1931959 1055658 L1933391 1061387 L1934823 1064251 L1936256 1065683 L1939120 1067116 L1941985 1067116 L1944849 1065683 L1946281 1064251 L1947714 1061387 L1949146 1055658 L1949146 1048496 L1947714 1042767 L1946281 1039903 L1944849 1038470 L1941985 1037038 "/>
<path d="M1913339 1037038 L1910475 1037038 L1907610 1038470 L1906178 1039903 L1904746 1042767 L1903314 1048496 L1903314 1055658 L1904746 1061387 L1906178 1064251 L1907610 1065683 L1910475 1067116 L1913339 1067116 L1916204 1065683 L1917636 1064251 L1919068 1061387 L1920501 1055658 L1920501 1048496 L1919068 1042767 L1917636 1039903 L1916204 1038470 L1913339 1037038 "/>
<path d="M1890423 1047064 L1890423 1067116 "/>
<path d="M1890423 1049928 L1888991 1048496 L1886126 1047064 L1881830 1047064 L1878965 1048496 L1877533 1051361 L1877533 1067116 "/>
<path d="M1853185 1051361 L1863210 1051361 "/>
<path d="M1863210 1067116 L1863210 1037038 L1848888 1037038 "/>
</g></g>
<g style="fill:#000084; fill-opacity:0.01;  stroke:#000084; stroke-width:9016.378380; stroke-opacity:1;  stroke-linecap:round; stroke-linejoin:round;">
<text x="386028.185714" y="1327847.994852" transform="scale(-1 1) translate(-772056.371428 0)" textLength="108821.375583" font-size="80145.565565" lengthAdjust="spacingAndGlyphs" text-anchor="middle" opacity="0.01" style="font-family:monospace">D1</text>
<g class="stroked-text"><desc>D1</desc>
<path d="M430394 1324985 L430394 1264876 L416082 1264876 L407495 1267738 L401771 1273463 L398908 1279188 L396046 1290637 L396046 1299224 L398908 1310673 L401771 1316398 L407495 1322123 L416082 1324985 L430394 1324985 "/>
<path d="M338799 1324985 L373147 1324985 "/>
<path d="M355973 1324985 L355973 1264876 L361698 1273463 L367422 1279188 L373147 1282050 "/>
</g></g>
<g style="fill:#000084; fill-opacity:0.01;  stroke:#000084; stroke-width:18321.280868; stroke-opacity:1;  stroke-linecap:round; stroke-linejoin:round;">
<text x="651763.096977" y="931367.782883" transform="scale(-1 1) translate(-1303526.193953 0)" textLength="154042.660694" font-size="122141.872456" lengthAdjust="spacingAndGlyphs" text-anchor="middle" opacity="0.01" style="font-family:monospace">F1</text>
<g class="stroked-text"><desc>F1</desc>
<path d="M682298 879021 L712834 879021 "/>
<path d="M712834 927005 L712834 835399 L669211 835399 "/>
<path d="M586329 927005 L638676 927005 "/>
<path d="M612503 927005 L612503 835399 L621227 848485 L629951 857210 L638676 861572 "/>
</g></g>
<g style="fill:#000084; fill-opacity:0.01;  stroke:#000084; stroke-width:9016.378380; stroke-opacity:1;  stroke-linecap:round; stroke-linejoin:round;">
<text x="807145.351061" y="1610781.948420" transform="scale(-1 1) translate(-1614290.702122 0)" textLength="125224.512115" font-size="101784.873677" lengthAdjust="spacingAndGlyphs" text-anchor="middle" opacity="0.01" style="font-family:monospace">D3</text>
<g class="stroked-text"><desc>D3</desc>
<path d="M863490 1607146 L863490 1530808 L845314 1530808 L834409 1534443 L827138 1541713 L823503 1548983 L819868 1563524 L819868 1574430 L823503 1588970 L827138 1596241 L834409 1603511 L845314 1607146 L863490 1607146 "/>
<path d="M794422 1530808 L747164 1530808 L772611 1559889 L761705 1559889 L754435 1563524 L750800 1567159 L747164 1574430 L747164 1592606 L750800 1599876 L754435 1603511 L761705 1607146 L783516 1607146 L790787 1603511 L794422 1599876 "/>
</g><text x="918599.809677" y="1607728.401609" transform="scale(-1 1) translate(-1837199.619354 0)" textLength="64617.378391" font-size="101784.873677" lengthAdjust="spacingAndGlyphs" text-anchor="middle" opacity="0.01" style="font-family:monospace">K</text>
<g class="stroked-text"><desc>K</desc>
<path d="M938593 1604093 L938593 1527754 "/>
<path d="M894971 1604093 L927687 1560471 "/>
<path d="M894971 1527754 L938593 1571376 "/>
</g></g>
<g style="fill:#000084; fill-opacity:0.01;  stroke:#000084; stroke-width:6565.125645; stroke-opacity:1;  stroke-linecap:round; stroke-linejoin:round;">
<text x="836298.307823" y="1744446.151355" transform="scale(-1 1) translate(-1672596.615647 0)" textLength="47001.298530" font-size="40103.228087" lengthAdjust="spacingAndGlyphs" text-anchor="middle" opacity="0.01" style="font-family:monospace">R4</text>
<g class="stroked-text"><desc>R4</desc>
<path d="M841311 1743013 L851337 1728691 "/>
<path d="M858498 1743013 L858498 1712936 L847040 1712936 L844175 1714368 L842743 1715800 L841311 1718665 L841311 1722962 L842743 1725826 L844175 1727259 L847040 1728691 L858498 1728691 "/>
<path d="M815530 1722962 L815530 1743013 "/>
<path d="M822691 1711504 L829853 1732988 L811233 1732988 "/>
</g><text x="828664.440795" y="1786432.420011" transform="scale(-1 1) translate(-1657328.881590 0)" textLength="107478.295860" font-size="40103.228087" lengthAdjust="spacingAndGlyphs" text-anchor="middle" opacity="0.01" style="font-family:monospace">270R</text>
<g class="stroked-text"><desc>270R</desc>
<path d="M880941 1757787 L879509 1756354 L876645 1754922 L869483 1754922 L866619 1756354 L865187 1757787 L863754 1760651 L863754 1763516 L865187 1767812 L882374 1785000 L863754 1785000 "/>
<path d="M853728 1754922 L833677 1754922 L846567 1785000 "/>
<path d="M816490 1754922 L813625 1754922 L810761 1756354 L809328 1757787 L807896 1760651 L806464 1766380 L806464 1773542 L807896 1779271 L809328 1782135 L810761 1783567 L813625 1785000 L816490 1785000 L819354 1783567 L820787 1782135 L822219 1779271 L823651 1773542 L823651 1766380 L822219 1760651 L820787 1757787 L819354 1756354 L816490 1754922 "/>
<path d="M776386 1785000 L786412 1770677 "/>
<path d="M793574 1785000 L793574 1754922 L782116 1754922 L779251 1756354 L777819 1757787 L776386 1760651 L776386 1764948 L777819 1767812 L779251 1769245 L782116 1770677 L793574 1770677 "/>
</g></g>
<g style="fill:#000084; fill-opacity:0.0;  stroke:#000084; stroke-width:22901.601086; stroke-opacity:1;  stroke-linecap:round; stroke-linejoin:round;">
<circle cx="425451.999635" cy="1572612.613278" r="180311.939213"/> 
</g>
<g style="fill:#000084; fill-opacity:0.0;  stroke:#000084; stroke-width:9016.378380; stroke-opacity:1;  stroke-linecap:round; stroke-linejoin:round;">
<path d="M818596 206150 L879667 206150 "/>
<path d="M879667 206150 L879667 114544 "/>
<path d="M696454 114544 L696454 206150 "/>
<path d="M757525 114544 L696454 114544 "/>
<path d="M879667 114544 L818596 114544 "/>
<path d="M696454 206150 L757525 206150 "/>
<path d="M1341516 545857 L1341516 606928 "/>
<path d="M1433122 545857 L1341516 545857 "/>
<path d="M1341516 667999 L1341516 729070 "/>
<path d="M1341516 729070 L1433122 729070 "/>
<path d="M1433122 729070 L1433122 667999 "/>
<path d="M1433122 606928 L1433122 545857 "/>
<path d="M433085 813042 L341479 813042 "/>
<path d="M341479 996255 L433085 996255 "/>
<path d="M433085 996255 L433085 935184 "/>
<path d="M433085 874113 L433085 813042 "/>
<path d="M341479 813042 L341479 874113 "/>
<path d="M341479 935184 L341479 996255 "/>
</g>
<g style="fill:#000084; fill-opacity:0.0;  stroke:#000084; stroke-width:22901.601086; stroke-opacity:1;  stroke-linecap:round; stroke-linejoin:round;">
<circle cx="2257580.086478" cy="1572612.613278" r="180311.939213"/> 
</g>
<g style="fill:#000084; fill-opacity:0.0;  stroke:#000084; stroke-width:9016.378380; stroke-opacity:1;  stroke-linecap:round; stroke-linejoin:round;">
<path d="M421635 648914 L360564 648914 "/>
<path d="M421635 740521 L421635 648914 "/>
<path d="M238422 740521 L299493 740521 "/>
<path d="M238422 648914 L238422 740521 "/>
<path d="M360564 740521 L421635 740521 "/>
<path d="M299493 648914 L238422 648914 "/>
<path d="M1894971 542040 L1894971 633646 "/>
<path d="M1894971 633646 L1956042 633646 "/>
<path d="M2017113 633646 L2078184 633646 "/>
<path d="M2078184 633646 L2078184 542040 "/>
<path d="M2078184 542040 L2017113 542040 "/>
<path d="M1956042 542040 L1894971 542040 "/>
</g>
<g style="fill:#000084; fill-opacity:0.0;  stroke:#000084; stroke-width:6010.918920; stroke-opacity:1;  stroke-linecap:round; stroke-linejoin:round;">
<path d="M1488483 1005782 L1668810 1005782 "/>
<path d="M1488483 765346 L1488483 1005782 "/>
<path d="M1728919 765346 L1488483 765346 "/>
<path d="M1668810 1005782 L1728919 945673 "/>
<path d="M1728919 945673 L1728919 765346 "/>
</g>
<g style="fill:#000084; fill-opacity:0.0;  stroke:#000084; stroke-width:9016.378380; stroke-opacity:1;  stroke-linecap:round; stroke-linejoin:round;">
<path d="M1681223 633646 L1742294 633646 "/>
<path d="M1742294 542040 L1681223 542040 "/>
<path d="M1864435 633646 L1864435 542040 "/>
<path d="M1864435 542040 L1803364 542040 "/>
<path d="M1681223 542040 L1681223 633646 "/>
<path d="M1803364 633646 L1864435 633646 "/>
<path d="M958295 436693 L958295 265694 "/>
<path d="M655994 265694 L655994 436693 "/>
<path d="M953715 265694 L655994 265694 "/>
<path d="M659048 436693 L956769 436693 "/>
<path d="M1528545 542040 L1467474 542040 "/>
<path d="M1467474 542040 L1467474 633646 "/>
<path d="M1467474 633646 L1528545 633646 "/>
<path d="M1650687 542040 L1589616 542040 "/>
<path d="M1650687 633646 L1650687 542040 "/>
<path d="M1589616 633646 L1650687 633646 "/>
</g>
<g style="fill:#000084; fill-opacity:0.0;  stroke:#000084; stroke-width:6010.918920; stroke-opacity:1;  stroke-linecap:round; stroke-linejoin:round;">
<path d="M1168551 781876 L1168551 631603 "/>
<path d="M1072377 607559 L1072377 781876 "/>
<path d="M1072377 781876 L1168551 781876 "/>
<path d="M1168551 631603 L1144508 607559 "/>
<path d="M1144508 607559 L1072377 607559 "/>
</g>
<g style="fill:#000084; fill-opacity:0.0;  stroke:#000084; stroke-width:22901.601086; stroke-opacity:1;  stroke-linecap:round; stroke-linejoin:round;">
<circle cx="2257580.086478" cy="351193.888716" r="180311.939213"/> 
</g>
<g style="fill:#000084; fill-opacity:0.0;  stroke:#000084; stroke-width:9016.378380; stroke-opacity:1;  stroke-linecap:round; stroke-linejoin:round;">
<path d="M280408 813042 L188802 813042 "/>
<path d="M280408 874113 L280408 813042 "/>
<path d="M280408 996255 L280408 935184 "/>
<path d="M188802 996255 L280408 996255 "/>
<path d="M188802 935184 L188802 996255 "/>
<path d="M188802 813042 L188802 874113 "/>
</g>
<g style="fill:#000084; fill-opacity:0.0;  stroke:#000084; stroke-width:22901.601086; stroke-opacity:1;  stroke-linecap:round; stroke-linejoin:round;">
<circle cx="425451.999635" cy="351193.888716" r="180311.939213"/> 
</g>
<g style="fill:#000084; fill-opacity:0.0;  stroke:#000084; stroke-width:9016.378380; stroke-opacity:1;  stroke-linecap:round; stroke-linejoin:round;">
<path d="M1830083 984804 L1830083 1076411 "/>
<path d="M2013296 984804 L1952225 984804 "/>
<path d="M1891154 984804 L1830083 984804 "/>
<path d="M2013296 1076411 L2013296 984804 "/>
<path d="M1830083 1076411 L1891154 1076411 "/>
<path d="M1952225 1076411 L2013296 1076411 "/>
</g>
<g style="fill:#000084; fill-opacity:0.0;  stroke:#000084; stroke-width:6010.918920; stroke-opacity:1;  stroke-linecap:round; stroke-linejoin:round;">
<path d="M420609 1152811 L351446 1197851 "/>
<path d="M243321 1062586 L519823 1062586 "/>
<path d="M351446 1197851 L351446 1104717 "/>
<path d="M243321 1242913 L519823 1242913 "/>
<path d="M420609 1152811 L474810 1152811 "/>
<path d="M243321 1062586 L243321 1242913 "/>
<path d="M420609 1152811 L351446 1104717 "/>
<path d="M420609 1104717 L420609 1200904 "/>
<path d="M519823 1242913 L519823 1062586 "/>
<path d="M351446 1152811 L291444 1152811 "/>
</g>
<g style="fill:#000084; fill-opacity:0.0;  stroke:#000084; stroke-width:9016.378380; stroke-opacity:1;  stroke-linecap:round; stroke-linejoin:round;">
<path d="M827342 992438 L476184 992438 "/>
<path d="M476184 778690 L476184 992438 "/>
<path d="M827342 778690 L827342 992438 "/>
<path d="M827342 778690 L476184 778690 "/>
<path d="M655994 1487113 L655994 1658111 "/>
<path d="M958295 1658111 L958295 1487113 "/>
<path d="M659048 1658111 L956769 1658111 "/>
<path d="M953715 1487113 L655994 1487113 "/>
<path d="M927904 1794295 L927904 1702688 "/>
<path d="M866833 1794295 L927904 1794295 "/>
<path d="M744691 1794295 L805762 1794295 "/>
<path d="M927904 1702688 L866833 1702688 "/>
<path d="M805762 1702688 L744691 1702688 "/>
<path d="M744691 1702688 L744691 1794295 "/>
<g>
</g>
<g>
</g>
<g>
</g>
<g>
</g>
<g>
</g>
<g>
</g>
<g>
</g>
<g>
</g>
<g>
</g>
<g>
</g>
<g>
</g>
<g>
</g>
<g>
</g>
<g>
</g>
<g>
</g>
<g>
</g>
<g>
</g>
<g>
</g>
<g>
</g>
<g>
</g>
<g>
</g>
<g>
</g>
<g>
</g>
<g>
</g>
<g>
</g>
<g>
</g>
<g>
</g>
<g>
</g>
<g>
</g>
<g>
</g>
<g>
</g>
<g>
</g>
<g>
</g>
<g>
</g>
<g>
</g>
<g>
</g>
<g>
</g>
<g>
</g>
<g>
</g>
<g>
</g>
<g>
</g>
</g> 
<svg:g><svg:g><svg:title>SVG Picture created as USB232R02-Edge_Cuts.svg date 2023/02/15 22:21:42 </svg:title>
  <svg:desc>Picture generated by PCBNEW </svg:desc>
<svg:g style="fill:#C2C200; fill-opacity:1.000000;stroke:#C2C200; stroke-opacity:1.000000; stroke-linecap:round; stroke-linejoin:round;" transform="translate(0 0) scale(1 1)">
</svg:g>
<svg:g style="fill:#C2C200; fill-opacity:0.0;  stroke:#C2C200; stroke-width:0.000000; stroke-opacity:1;  stroke-linecap:round; stroke-linejoin:round;">
</svg:g>
<svg:g style="fill:#C2C200; fill-opacity:0.0;  stroke:#C2C200; stroke-width:6010.918920; stroke-opacity:1;  stroke-linecap:round; stroke-linejoin:round;">
<svg:path d="M135365 61106 L2547667 61106 "/>
<svg:path d="M2547667 61106 L2547667 1862699 "/>
<svg:path d="M2547667 1862699 L135365 1862699 "/>
<svg:path d="M135365 1862699 L135365 61106 "/>
<svg:g>
</svg:g>
<svg:g>
</svg:g>
<svg:g>
</svg:g>
<svg:g>
</svg:g>
<svg:g>
</svg:g>
<svg:g>
</svg:g>
<svg:g>
</svg:g>
<svg:g>
</svg:g>
<svg:g>
</svg:g>
<svg:g>
</svg:g>
<svg:g>
</svg:g>
<svg:g>
</svg:g>
<svg:g>
</svg:g>
<svg:g>
</svg:g>
<svg:g>
</svg:g>
<svg:g>
</svg:g>
<svg:g>
</svg:g>
<svg:g>
</svg:g>
<svg:g>
</svg:g>
<svg:g>
</svg:g>
<svg:g>
</svg:g>
<svg:g>
</svg:g>
<svg:g>
</svg:g>
<svg:g>
</svg:g>
<svg:g>
</svg:g>
<svg:g>
</svg:g>
<svg:g>
</svg:g>
<svg:g>
</svg:g>
<svg:g>
</svg:g>
<svg:g>
</svg:g>
<svg:g>
</svg:g>
<svg:g>
</svg:g>
<svg:g>
</svg:g>
<svg:g>
</svg:g>
<svg:g>
</svg:g>
<svg:g>
</svg:g>
<svg:g>
</svg:g>
<svg:g>
</svg:g>
<svg:g>
</svg:g>
<svg:g>
</svg:g>
<svg:g>
</svg:g>
</svg:g> 
</svg:g></svg:g></svg>
