<?xml version='1.0' encoding='ASCII' standalone='yes'?>
<svg xmlns:svg="http://www.w3.org/2000/svg" xmlns="http://www.w3.org/2000/svg" xmlns:xlink="http://www.w3.org/1999/xlink" version="1.1" width="297.0022mm" height="210.0072mm" viewBox="0.0000 0.0000 297.0022 210.0072">
<title>SVG Image created as USB232R02-F_Fab.svg date 2023/07/07 14:49:43 </title>
  <desc>Image generated by PCBNEW </desc>
<g style="fill:#848484; fill-opacity:1.0000;stroke:#848484; stroke-opacity:1.0000; stroke-linecap:round; stroke-linejoin:round;" transform="translate(0 0) scale(1 1)">
</g>
<g style="fill:#848484; fill-opacity:0.0;  stroke:#848484; stroke-width:0.0000; stroke-opacity:1;  stroke-linecap:round; stroke-linejoin:round;">
</g>
<g style="fill:#848484; fill-opacity:0.01;  stroke:#848484; stroke-width:1.0475; stroke-opacity:1;  stroke-linecap:round; stroke-linejoin:round;">
<text x="229.4089" y="46.5329" textLength="34.4756" font-size="9.3110" lengthAdjust="spacingAndGlyphs" text-anchor="middle" opacity="0.01" style="font-family:monospace">USB_B</text>
<g class="stroked-text"><desc>USB_B</desc>
<path d="M244.3730 39.2342 L244.3730 44.8873 "/>
<path d="M244.3730 44.8873 L244.0405 45.5523 "/>
<path d="M244.0405 45.5523 L243.7079 45.8849 "/>
<path d="M243.7079 45.8849 L243.0429 46.2174 "/>
<path d="M243.0429 46.2174 L241.7127 46.2174 "/>
<path d="M241.7127 46.2174 L241.0477 45.8849 "/>
<path d="M241.0477 45.8849 L240.7151 45.5523 "/>
<path d="M240.7151 45.5523 L240.3826 44.8873 "/>
<path d="M240.3826 44.8873 L240.3826 39.2342 "/>
<path d="M237.3898 45.8849 L236.3922 46.2174 "/>
<path d="M236.3922 46.2174 L234.7295 46.2174 "/>
<path d="M234.7295 46.2174 L234.0644 45.8849 "/>
<path d="M234.0644 45.8849 L233.7319 45.5523 "/>
<path d="M233.7319 45.5523 L233.3993 44.8873 "/>
<path d="M233.3993 44.8873 L233.3993 44.2222 "/>
<path d="M233.3993 44.2222 L233.7319 43.5571 "/>
<path d="M233.7319 43.5571 L234.0644 43.2246 "/>
<path d="M234.0644 43.2246 L234.7295 42.8921 "/>
<path d="M234.7295 42.8921 L236.0596 42.5595 "/>
<path d="M236.0596 42.5595 L236.7247 42.2270 "/>
<path d="M236.7247 42.2270 L237.0572 41.8945 "/>
<path d="M237.0572 41.8945 L237.3898 41.2294 "/>
<path d="M237.3898 41.2294 L237.3898 40.5643 "/>
<path d="M237.3898 40.5643 L237.0572 39.8993 "/>
<path d="M237.0572 39.8993 L236.7247 39.5667 "/>
<path d="M236.7247 39.5667 L236.0596 39.2342 "/>
<path d="M236.0596 39.2342 L234.3969 39.2342 "/>
<path d="M234.3969 39.2342 L233.3993 39.5667 "/>
<path d="M228.0788 42.5595 L227.0812 42.8921 "/>
<path d="M227.0812 42.8921 L226.7486 43.2246 "/>
<path d="M226.7486 43.2246 L226.4161 43.8897 "/>
<path d="M226.4161 43.8897 L226.4161 44.8873 "/>
<path d="M226.4161 44.8873 L226.7486 45.5523 "/>
<path d="M226.7486 45.5523 L227.0812 45.8849 "/>
<path d="M227.0812 45.8849 L227.7462 46.2174 "/>
<path d="M227.7462 46.2174 L230.4065 46.2174 "/>
<path d="M230.4065 46.2174 L230.4065 39.2342 "/>
<path d="M230.4065 39.2342 L228.0788 39.2342 "/>
<path d="M228.0788 39.2342 L227.4137 39.5667 "/>
<path d="M227.4137 39.5667 L227.0812 39.8993 "/>
<path d="M227.0812 39.8993 L226.7486 40.5643 "/>
<path d="M226.7486 40.5643 L226.7486 41.2294 "/>
<path d="M226.7486 41.2294 L227.0812 41.8945 "/>
<path d="M227.0812 41.8945 L227.4137 42.2270 "/>
<path d="M227.4137 42.2270 L228.0788 42.5595 "/>
<path d="M228.0788 42.5595 L230.4065 42.5595 "/>
<path d="M225.0860 46.8825 L219.7654 46.8825 "/>
<path d="M215.7750 42.5595 L214.7774 42.8921 "/>
<path d="M214.7774 42.8921 L214.4448 43.2246 "/>
<path d="M214.4448 43.2246 L214.1123 43.8897 "/>
<path d="M214.1123 43.8897 L214.1123 44.8873 "/>
<path d="M214.1123 44.8873 L214.4448 45.5523 "/>
<path d="M214.4448 45.5523 L214.7774 45.8849 "/>
<path d="M214.7774 45.8849 L215.4424 46.2174 "/>
<path d="M215.4424 46.2174 L218.1027 46.2174 "/>
<path d="M218.1027 46.2174 L218.1027 39.2342 "/>
<path d="M218.1027 39.2342 L215.7750 39.2342 "/>
<path d="M215.7750 39.2342 L215.1099 39.5667 "/>
<path d="M215.1099 39.5667 L214.7774 39.8993 "/>
<path d="M214.7774 39.8993 L214.4448 40.5643 "/>
<path d="M214.4448 40.5643 L214.4448 41.2294 "/>
<path d="M214.4448 41.2294 L214.7774 41.8945 "/>
<path d="M214.7774 41.8945 L215.1099 42.2270 "/>
<path d="M215.1099 42.2270 L215.7750 42.5595 "/>
<path d="M215.7750 42.5595 L218.1027 42.5595 "/>
</g><text x="229.4089" y="109.5218" textLength="13.1933" font-size="9.3110" lengthAdjust="spacingAndGlyphs" text-anchor="middle" opacity="0.01" style="font-family:monospace">J1</text>
<g class="stroked-text"><desc>J1</desc>
<path d="M231.7367 102.2230 L231.7367 107.2110 "/>
<path d="M231.7367 107.2110 L232.0692 108.2086 "/>
<path d="M232.0692 108.2086 L232.7343 108.8737 "/>
<path d="M232.7343 108.8737 L233.7319 109.2062 "/>
<path d="M233.7319 109.2062 L234.3969 109.2062 "/>
<path d="M224.7534 109.2062 L228.7438 109.2062 "/>
<path d="M226.7486 109.2062 L226.7486 102.2230 "/>
<path d="M226.7486 102.2230 L227.4137 103.2206 "/>
<path d="M227.4137 103.2206 L228.0788 103.8857 "/>
<path d="M228.0788 103.8857 L228.7438 104.2182 "/>
</g><g transform="rotate(-180.000000 196.3922 33.6991)">
<text x="196.3922" y="37.1908" transform="scale(-1 1) translate(-392.784316 0)" textLength="8.2053" font-size="9.3110" lengthAdjust="spacingAndGlyphs" text-anchor="middle" opacity="0.01" style="font-family:monospace">K</text>
</g>
<g class="stroked-text"><desc>K</desc>
<path d="M198.2211 30.5230 L198.2211 37.5063 "/>
<path d="M194.2307 30.5230 L197.2235 34.5134 "/>
<path d="M194.2307 37.5063 L198.2211 33.5158 "/>
</g><g transform="rotate(-180.000000 196.3922 175.5986)">
<text x="196.3922" y="179.0902" transform="scale(-1 1) translate(-392.784316 0)" textLength="8.2053" font-size="9.3110" lengthAdjust="spacingAndGlyphs" text-anchor="middle" opacity="0.01" style="font-family:monospace">K</text>
</g>
<g class="stroked-text"><desc>K</desc>
<path d="M198.2211 172.4225 L198.2211 179.4057 "/>
<path d="M194.2307 172.4225 L197.2235 176.4129 "/>
<path d="M194.2307 179.4057 L198.2211 175.4153 "/>
</g></g>
<g style="fill:#848484; fill-opacity:0.0;  stroke:#848484; stroke-width:2.6606; stroke-opacity:1;  stroke-linecap:round; stroke-linejoin:round;">
<circle cx="254.9257" cy="175.9533" r="20.9479"/> 
</g>
<g style="fill:#848484; fill-opacity:0.0;  stroke:#848484; stroke-width:0.6983; stroke-opacity:1;  stroke-linecap:round; stroke-linejoin:round;">
<path d="M171.7972 141.2955 L178.7804 148.2787 "/>
<path d="M171.7972 63.7815 L171.7972 141.2955 "/>
<path d="M178.7804 148.2787 L287.0206 148.2787 "/>
<path d="M287.0206 148.2787 L287.0206 63.7815 "/>
<path d="M287.0206 63.7815 L171.7972 63.7815 "/>
</g>
<g style="fill:#848484; fill-opacity:0.0;  stroke:#848484; stroke-width:2.6606; stroke-opacity:1;  stroke-linecap:round; stroke-linejoin:round;">
<circle cx="42.0765" cy="175.9533" r="20.9479"/> 
</g>
<g style="fill:#848484; fill-opacity:0.0;  stroke:#848484; stroke-width:1.0475; stroke-opacity:1;  stroke-linecap:round; stroke-linejoin:round;">
<path d="M121.8950 193.6908 L121.8950 158.2159 "/>
<path d="M68.6827 193.6908 L121.8950 193.6908 "/>
<path d="M121.8950 158.2159 L68.6827 158.2159 "/>
<path d="M68.6827 158.2159 L68.6827 193.6908 "/>
</g>
<g style="fill:#848484; fill-opacity:0.0;  stroke:#848484; stroke-width:2.6606; stroke-opacity:1;  stroke-linecap:round; stroke-linejoin:round;">
<circle cx="42.0765" cy="34.0539" r="20.9479"/> 
<circle cx="254.9257" cy="34.0539" r="20.9479"/> 
</g>
<g style="fill:#848484; fill-opacity:0.0;  stroke:#848484; stroke-width:1.0475; stroke-opacity:1;  stroke-linecap:round; stroke-linejoin:round;">
<path d="M183.9760 193.6908 L183.9760 158.2159 "/>
<path d="M130.7637 193.6908 L183.9760 193.6908 "/>
<path d="M183.9760 158.2159 L130.7637 158.2159 "/>
<path d="M130.7637 158.2159 L130.7637 193.6908 "/>
<g>
</g>
<g>
</g>
<g>
</g>
<g>
</g>
<g>
</g>
<g>
</g>
<g>
</g>
<g>
</g>
<g>
</g>
<g>
</g>
<g>
</g>
<g>
</g>
<g>
</g>
<g>
</g>
<g>
</g>
<g>
</g>
<g>
</g>
<g>
</g>
<g>
</g>
<g>
</g>
<g>
</g>
<g>
</g>
<g>
</g>
<g>
</g>
<g>
</g>
<g>
</g>
<g>
</g>
<g>
</g>
<g>
</g>
<g>
</g>
<g>
</g>
</g> 
<svg:g><svg:g><svg:title>SVG Image created as USB232R02-Edge_Cuts.svg date 2023/07/07 14:49:43 </svg:title>
  <svg:desc>Image generated by PCBNEW </svg:desc>
<svg:g style="fill:#C2C200; fill-opacity:1.0000;stroke:#C2C200; stroke-opacity:1.0000; stroke-linecap:round; stroke-linejoin:round;" transform="translate(0 0) scale(1 1)">
</svg:g>
<svg:g style="fill:#C2C200; fill-opacity:0.0;  stroke:#C2C200; stroke-width:0.0000; stroke-opacity:1;  stroke-linecap:round; stroke-linejoin:round;">
</svg:g>
<svg:g style="fill:#C2C200; fill-opacity:0.0;  stroke:#C2C200; stroke-width:0.6983; stroke-opacity:1;  stroke-linecap:round; stroke-linejoin:round;">
<svg:path style="fill:#C2C200; fill-opacity:0.0;  stroke:#C2C200; stroke-width:0.6983; stroke-opacity:1;  stroke-linecap:round; stroke-linejoin:round;fill:none" d="M 288.6268,0.3528 8.3754,0.3528 8.3754,209.6544 288.6268,209.6544 Z"/> 
</svg:g>
<svg:g style="fill:#C2C200; fill-opacity:0.0;  stroke:#C2C200; stroke-width:0.3492; stroke-opacity:1;  stroke-linecap:round; stroke-linejoin:round;">
<svg:path d="M218.2637 29.1656 L218.2637 38.9422 "/>
<svg:path d="M214.7720 25.6740 L206.3922 25.6740 "/>
<svg:path d="M214.7720 42.4338 L206.3922 42.4338 "/>
<svg:path d="M202.9005 29.1656 L202.9005 38.9422 "/>
<svg:path d="M218.2637 29.1656 A3.4916 3.4916 0.0 0 0 214.7720 25.6740"/>
<svg:path d="M214.7720 42.4338 A3.4916 3.4916 0.0 0 0 218.2637 38.9422"/>
<svg:path d="M206.3922 25.6740 A3.4916 3.4916 0.0 0 0 202.9005 29.1656"/>
<svg:path d="M202.9005 38.9422 A3.4916 3.4916 0.0 0 0 206.3922 42.4338"/>
<svg:path d="M218.2637 171.0651 L218.2637 180.8416 "/>
<svg:path d="M214.7720 167.5734 L206.3922 167.5734 "/>
<svg:path d="M214.7720 184.3332 L206.3922 184.3332 "/>
<svg:path d="M202.9005 171.0651 L202.9005 180.8416 "/>
<svg:path d="M218.2637 171.0651 A3.4916 3.4916 0.0 0 0 214.7720 167.5734"/>
<svg:path d="M214.7720 184.3332 A3.4916 3.4916 0.0 0 0 218.2637 180.8416"/>
<svg:path d="M206.3922 167.5734 A3.4916 3.4916 0.0 0 0 202.9005 171.0651"/>
<svg:path d="M202.9005 180.8416 A3.4916 3.4916 0.0 0 0 206.3922 184.3332"/>
<svg:g>
</svg:g>
<svg:g>
</svg:g>
<svg:g>
</svg:g>
<svg:g>
</svg:g>
<svg:g>
</svg:g>
<svg:g>
</svg:g>
<svg:g>
</svg:g>
<svg:g>
</svg:g>
<svg:g>
</svg:g>
<svg:g>
</svg:g>
<svg:g>
</svg:g>
<svg:g>
</svg:g>
<svg:g>
</svg:g>
<svg:g>
</svg:g>
<svg:g>
</svg:g>
<svg:g>
</svg:g>
<svg:g>
</svg:g>
<svg:g>
</svg:g>
<svg:g>
</svg:g>
<svg:g>
</svg:g>
<svg:g>
</svg:g>
<svg:g>
</svg:g>
<svg:g>
</svg:g>
<svg:g>
</svg:g>
<svg:g>
</svg:g>
<svg:g>
</svg:g>
<svg:g>
</svg:g>
<svg:g>
</svg:g>
<svg:g>
</svg:g>
<svg:g>
</svg:g>
<svg:g>
</svg:g>
</svg:g> 
</svg:g></svg:g></svg>
