<?xml version='1.0' encoding='ASCII' standalone='yes'?>
<svg xmlns:svg="http://www.w3.org/2000/svg" xmlns="http://www.w3.org/2000/svg" xmlns:xlink="http://www.w3.org/1999/xlink" version="1.1" width="297.0022mm" height="210.0072mm" viewBox="0.0000 0.0000 297.0022 210.0072">
<title>SVG Image created as USB232R02-B_Fab.svg date 2023/07/07 14:49:43 </title>
  <desc>Image generated by PCBNEW </desc>
<g style="fill:#000084; fill-opacity:1.0000;stroke:#000084; stroke-opacity:1.0000; stroke-linecap:round; stroke-linejoin:round;" transform="translate(0 0) scale(1 1)">
</g>
<g style="fill:#000084; fill-opacity:0.0;  stroke:#000084; stroke-width:0.0000; stroke-opacity:1;  stroke-linecap:round; stroke-linejoin:round;">
</g>
<g style="fill:#000084; fill-opacity:0.01;  stroke:#000084; stroke-width:0.7627; stroke-opacity:1;  stroke-linecap:round; stroke-linejoin:round;">
<text x="84.2029" y="15.8464" transform="scale(-1 1) translate(-168.405838 0)" textLength="8.0301" font-size="4.6590" lengthAdjust="spacingAndGlyphs" text-anchor="middle" opacity="0.01" style="font-family:monospace">R3</text>
<g class="stroked-text"><desc>R3</desc>
<path d="M84.7853 15.6761 L85.9500 14.0122 "/>
<path d="M86.7820 15.6761 L86.7820 12.1819 "/>
<path d="M86.7820 12.1819 L85.4509 12.1819 "/>
<path d="M85.4509 12.1819 L85.1181 12.3482 "/>
<path d="M85.1181 12.3482 L84.9517 12.5146 "/>
<path d="M84.9517 12.5146 L84.7853 12.8474 "/>
<path d="M84.7853 12.8474 L84.7853 13.3466 "/>
<path d="M84.7853 13.3466 L84.9517 13.6794 "/>
<path d="M84.9517 13.6794 L85.1181 13.8458 "/>
<path d="M85.1181 13.8458 L85.4509 14.0122 "/>
<path d="M85.4509 14.0122 L86.7820 14.0122 "/>
<path d="M83.6205 12.1819 L81.4574 12.1819 "/>
<path d="M81.4574 12.1819 L82.6222 13.5130 "/>
<path d="M82.6222 13.5130 L82.1230 13.5130 "/>
<path d="M82.1230 13.5130 L81.7902 13.6794 "/>
<path d="M81.7902 13.6794 L81.6238 13.8458 "/>
<path d="M81.6238 13.8458 L81.4574 14.1786 "/>
<path d="M81.4574 14.1786 L81.4574 15.0106 "/>
<path d="M81.4574 15.0106 L81.6238 15.3433 "/>
<path d="M81.6238 15.3433 L81.7902 15.5097 "/>
<path d="M81.7902 15.5097 L82.1230 15.6761 "/>
<path d="M82.1230 15.6761 L83.1214 15.6761 "/>
<path d="M83.1214 15.6761 L83.4541 15.5097 "/>
<path d="M83.4541 15.5097 L83.6205 15.3433 "/>
</g><text x="85.0898" y="10.9686" transform="scale(-1 1) translate(-170.179581 0)" textLength="14.6858" font-size="4.6590" lengthAdjust="spacingAndGlyphs" text-anchor="middle" opacity="0.01" style="font-family:monospace">270R</text>
<g class="stroked-text"><desc>270R</desc>
<path d="M91.1632 7.6368 L90.9968 7.4705 "/>
<path d="M90.9968 7.4705 L90.6640 7.3041 "/>
<path d="M90.6640 7.3041 L89.8320 7.3041 "/>
<path d="M89.8320 7.3041 L89.4992 7.4705 "/>
<path d="M89.4992 7.4705 L89.3328 7.6368 "/>
<path d="M89.3328 7.6368 L89.1664 7.9696 "/>
<path d="M89.1664 7.9696 L89.1664 8.3024 "/>
<path d="M89.1664 8.3024 L89.3328 8.8016 "/>
<path d="M89.3328 8.8016 L91.3296 10.7983 "/>
<path d="M91.3296 10.7983 L89.1664 10.7983 "/>
<path d="M88.0017 7.3041 L85.6722 7.3041 "/>
<path d="M85.6722 7.3041 L87.1697 10.7983 "/>
<path d="M83.6754 7.3041 L83.3427 7.3041 "/>
<path d="M83.3427 7.3041 L83.0099 7.4705 "/>
<path d="M83.0099 7.4705 L82.8435 7.6368 "/>
<path d="M82.8435 7.6368 L82.6771 7.9696 "/>
<path d="M82.6771 7.9696 L82.5107 8.6352 "/>
<path d="M82.5107 8.6352 L82.5107 9.4672 "/>
<path d="M82.5107 9.4672 L82.6771 10.1328 "/>
<path d="M82.6771 10.1328 L82.8435 10.4655 "/>
<path d="M82.8435 10.4655 L83.0099 10.6319 "/>
<path d="M83.0099 10.6319 L83.3427 10.7983 "/>
<path d="M83.3427 10.7983 L83.6754 10.7983 "/>
<path d="M83.6754 10.7983 L84.0082 10.6319 "/>
<path d="M84.0082 10.6319 L84.1746 10.4655 "/>
<path d="M84.1746 10.4655 L84.3410 10.1328 "/>
<path d="M84.3410 10.1328 L84.5074 9.4672 "/>
<path d="M84.5074 9.4672 L84.5074 8.6352 "/>
<path d="M84.5074 8.6352 L84.3410 7.9696 "/>
<path d="M84.3410 7.9696 L84.1746 7.6368 "/>
<path d="M84.1746 7.6368 L84.0082 7.4705 "/>
<path d="M84.0082 7.4705 L83.6754 7.3041 "/>
<path d="M79.0164 10.7983 L80.1812 9.1344 "/>
<path d="M81.0131 10.7983 L81.0131 7.3041 "/>
<path d="M81.0131 7.3041 L79.6820 7.3041 "/>
<path d="M79.6820 7.3041 L79.3492 7.4705 "/>
<path d="M79.3492 7.4705 L79.1828 7.6368 "/>
<path d="M79.1828 7.6368 L79.0164 7.9696 "/>
<path d="M79.0164 7.9696 L79.0164 8.4688 "/>
<path d="M79.0164 8.4688 L79.1828 8.8016 "/>
<path d="M79.1828 8.8016 L79.3492 8.9680 "/>
<path d="M79.3492 8.9680 L79.6820 9.1344 "/>
<path d="M79.6820 9.1344 L81.0131 9.1344 "/>
</g></g>
<g style="fill:#000084; fill-opacity:0.01;  stroke:#000084; stroke-width:1.0475; stroke-opacity:1;  stroke-linecap:round; stroke-linejoin:round;">
<text x="227.3768" y="158.6768" transform="scale(-1 1) translate(-454.753603 0)" textLength="42.4564" font-size="9.3110" lengthAdjust="spacingAndGlyphs" text-anchor="middle" opacity="0.01" style="font-family:monospace">Fiducial</text>
<g class="stroked-text"><desc>Fiducial</desc>
<path d="M244.0036 154.7034 L246.3313 154.7034 "/>
<path d="M246.3313 158.3613 L246.3313 151.3780 "/>
<path d="M246.3313 151.3780 L243.0060 151.3780 "/>
<path d="M240.3457 158.3613 L240.3457 153.7058 "/>
<path d="M240.3457 151.3780 L240.6782 151.7106 "/>
<path d="M240.6782 151.7106 L240.3457 152.0431 "/>
<path d="M240.3457 152.0431 L240.0131 151.7106 "/>
<path d="M240.0131 151.7106 L240.3457 151.3780 "/>
<path d="M240.3457 151.3780 L240.3457 152.0431 "/>
<path d="M234.0275 158.3613 L234.0275 151.3780 "/>
<path d="M234.0275 158.0287 L234.6926 158.3613 "/>
<path d="M234.6926 158.3613 L236.0227 158.3613 "/>
<path d="M236.0227 158.3613 L236.6878 158.0287 "/>
<path d="M236.6878 158.0287 L237.0203 157.6962 "/>
<path d="M237.0203 157.6962 L237.3529 157.0311 "/>
<path d="M237.3529 157.0311 L237.3529 155.0359 "/>
<path d="M237.3529 155.0359 L237.0203 154.3709 "/>
<path d="M237.0203 154.3709 L236.6878 154.0383 "/>
<path d="M236.6878 154.0383 L236.0227 153.7058 "/>
<path d="M236.0227 153.7058 L234.6926 153.7058 "/>
<path d="M234.6926 153.7058 L234.0275 154.0383 "/>
<path d="M227.7093 153.7058 L227.7093 158.3613 "/>
<path d="M230.7022 153.7058 L230.7022 157.3637 "/>
<path d="M230.7022 157.3637 L230.3696 158.0287 "/>
<path d="M230.3696 158.0287 L229.7045 158.3613 "/>
<path d="M229.7045 158.3613 L228.7069 158.3613 "/>
<path d="M228.7069 158.3613 L228.0419 158.0287 "/>
<path d="M228.0419 158.0287 L227.7093 157.6962 "/>
<path d="M221.3912 158.0287 L222.0562 158.3613 "/>
<path d="M222.0562 158.3613 L223.3864 158.3613 "/>
<path d="M223.3864 158.3613 L224.0514 158.0287 "/>
<path d="M224.0514 158.0287 L224.3840 157.6962 "/>
<path d="M224.3840 157.6962 L224.7165 157.0311 "/>
<path d="M224.7165 157.0311 L224.7165 155.0359 "/>
<path d="M224.7165 155.0359 L224.3840 154.3709 "/>
<path d="M224.3840 154.3709 L224.0514 154.0383 "/>
<path d="M224.0514 154.0383 L223.3864 153.7058 "/>
<path d="M223.3864 153.7058 L222.0562 153.7058 "/>
<path d="M222.0562 153.7058 L221.3912 154.0383 "/>
<path d="M218.3983 158.3613 L218.3983 153.7058 "/>
<path d="M218.3983 151.3780 L218.7309 151.7106 "/>
<path d="M218.7309 151.7106 L218.3983 152.0431 "/>
<path d="M218.3983 152.0431 L218.0658 151.7106 "/>
<path d="M218.0658 151.7106 L218.3983 151.3780 "/>
<path d="M218.3983 151.3780 L218.3983 152.0431 "/>
<path d="M212.0802 158.3613 L212.0802 154.7034 "/>
<path d="M212.0802 154.7034 L212.4127 154.0383 "/>
<path d="M212.4127 154.0383 L213.0778 153.7058 "/>
<path d="M213.0778 153.7058 L214.4079 153.7058 "/>
<path d="M214.4079 153.7058 L215.0730 154.0383 "/>
<path d="M212.0802 158.0287 L212.7453 158.3613 "/>
<path d="M212.7453 158.3613 L214.4079 158.3613 "/>
<path d="M214.4079 158.3613 L215.0730 158.0287 "/>
<path d="M215.0730 158.0287 L215.4055 157.3637 "/>
<path d="M215.4055 157.3637 L215.4055 156.6986 "/>
<path d="M215.4055 156.6986 L215.0730 156.0335 "/>
<path d="M215.0730 156.0335 L214.4079 155.7010 "/>
<path d="M214.4079 155.7010 L212.7453 155.7010 "/>
<path d="M212.7453 155.7010 L212.0802 155.3685 "/>
<path d="M207.7572 158.3613 L208.4223 158.0287 "/>
<path d="M208.4223 158.0287 L208.7548 157.3637 "/>
<path d="M208.7548 157.3637 L208.7548 151.3780 "/>
</g></g>
<g style="fill:#000084; fill-opacity:0.01;  stroke:#000084; stroke-width:0.4190; stroke-opacity:1;  stroke-linecap:round; stroke-linejoin:round;">
<text x="227.3768" y="142.6153" transform="scale(-1 1) translate(-454.753603 0)" textLength="9.6668" font-size="3.7244" lengthAdjust="spacingAndGlyphs" text-anchor="middle" opacity="0.01" style="font-family:monospace">FID1</text>
<g class="stroked-text"><desc>FID1</desc>
<path d="M230.3696 141.0260 L231.3007 141.0260 "/>
<path d="M231.3007 142.4891 L231.3007 139.6958 "/>
<path d="M231.3007 139.6958 L229.9706 139.6958 "/>
<path d="M228.9065 142.4891 L228.9065 139.6958 "/>
<path d="M227.5763 142.4891 L227.5763 139.6958 "/>
<path d="M227.5763 139.6958 L226.9112 139.6958 "/>
<path d="M226.9112 139.6958 L226.5122 139.8288 "/>
<path d="M226.5122 139.8288 L226.2462 140.0949 "/>
<path d="M226.2462 140.0949 L226.1132 140.3609 "/>
<path d="M226.1132 140.3609 L225.9801 140.8930 "/>
<path d="M225.9801 140.8930 L225.9801 141.2920 "/>
<path d="M225.9801 141.2920 L226.1132 141.8241 "/>
<path d="M226.1132 141.8241 L226.2462 142.0901 "/>
<path d="M226.2462 142.0901 L226.5122 142.3561 "/>
<path d="M226.5122 142.3561 L226.9112 142.4891 "/>
<path d="M226.9112 142.4891 L227.5763 142.4891 "/>
<path d="M223.3199 142.4891 L224.9160 142.4891 "/>
<path d="M224.1179 142.4891 L224.1179 139.6958 "/>
<path d="M224.1179 139.6958 L224.3840 140.0949 "/>
<path d="M224.3840 140.0949 L224.6500 140.3609 "/>
<path d="M224.6500 140.3609 L224.9160 140.4939 "/>
</g></g>
<g style="fill:#000084; fill-opacity:0.01;  stroke:#000084; stroke-width:0.7627; stroke-opacity:1;  stroke-linecap:round; stroke-linejoin:round;">
<g transform="rotate(-90.000000 155.0479 64.9442)">
<text x="155.0479" y="66.6914" transform="scale(-1 1) translate(-310.095782 0)" textLength="8.0301" font-size="4.6590" lengthAdjust="spacingAndGlyphs" text-anchor="middle" opacity="0.01" style="font-family:monospace">C3</text>
</g>
<g class="stroked-text"><desc>C3</desc>
<path d="M156.2920 64.3619 L156.4584 64.1955 "/>
<path d="M156.4584 64.1955 L156.6247 63.6963 "/>
<path d="M156.6247 63.6963 L156.6247 63.3635 "/>
<path d="M156.6247 63.3635 L156.4584 62.8643 "/>
<path d="M156.4584 62.8643 L156.1256 62.5315 "/>
<path d="M156.1256 62.5315 L155.7928 62.3651 "/>
<path d="M155.7928 62.3651 L155.1272 62.1987 "/>
<path d="M155.1272 62.1987 L154.6280 62.1987 "/>
<path d="M154.6280 62.1987 L153.9624 62.3651 "/>
<path d="M153.9624 62.3651 L153.6297 62.5315 "/>
<path d="M153.6297 62.5315 L153.2969 62.8643 "/>
<path d="M153.2969 62.8643 L153.1305 63.3635 "/>
<path d="M153.1305 63.3635 L153.1305 63.6963 "/>
<path d="M153.1305 63.6963 L153.2969 64.1955 "/>
<path d="M153.2969 64.1955 L153.4633 64.3619 "/>
<path d="M153.1305 65.5266 L153.1305 67.6897 "/>
<path d="M153.1305 67.6897 L154.4616 66.5250 "/>
<path d="M154.4616 66.5250 L154.4616 67.0242 "/>
<path d="M154.4616 67.0242 L154.6280 67.3570 "/>
<path d="M154.6280 67.3570 L154.7944 67.5234 "/>
<path d="M154.7944 67.5234 L155.1272 67.6897 "/>
<path d="M155.1272 67.6897 L155.9592 67.6897 "/>
<path d="M155.9592 67.6897 L156.2920 67.5234 "/>
<path d="M156.2920 67.5234 L156.4584 67.3570 "/>
<path d="M156.4584 67.3570 L156.6247 67.0242 "/>
<path d="M156.6247 67.0242 L156.6247 66.0258 "/>
<path d="M156.6247 66.0258 L156.4584 65.6930 "/>
<path d="M156.4584 65.6930 L156.2920 65.5266 "/>
</g><g transform="rotate(-90.000000 150.1701 64.0574)">
<text x="150.1701" y="65.8045" transform="scale(-1 1) translate(-300.340196 0)" textLength="17.3481" font-size="4.6590" lengthAdjust="spacingAndGlyphs" text-anchor="middle" opacity="0.01" style="font-family:monospace">100nF</text>
</g>
<g class="stroked-text"><desc>100nF</desc>
<path d="M151.7469 58.6496 L151.7469 56.6528 "/>
<path d="M151.7469 57.6512 L148.2527 57.6512 "/>
<path d="M148.2527 57.6512 L148.7519 57.3184 "/>
<path d="M148.7519 57.3184 L149.0846 56.9856 "/>
<path d="M149.0846 56.9856 L149.2510 56.6528 "/>
<path d="M148.2527 60.8127 L148.2527 61.1455 "/>
<path d="M148.2527 61.1455 L148.4191 61.4783 "/>
<path d="M148.4191 61.4783 L148.5855 61.6447 "/>
<path d="M148.5855 61.6447 L148.9183 61.8111 "/>
<path d="M148.9183 61.8111 L149.5838 61.9774 "/>
<path d="M149.5838 61.9774 L150.4158 61.9774 "/>
<path d="M150.4158 61.9774 L151.0814 61.8111 "/>
<path d="M151.0814 61.8111 L151.4142 61.6447 "/>
<path d="M151.4142 61.6447 L151.5806 61.4783 "/>
<path d="M151.5806 61.4783 L151.7469 61.1455 "/>
<path d="M151.7469 61.1455 L151.7469 60.8127 "/>
<path d="M151.7469 60.8127 L151.5806 60.4799 "/>
<path d="M151.5806 60.4799 L151.4142 60.3135 "/>
<path d="M151.4142 60.3135 L151.0814 60.1471 "/>
<path d="M151.0814 60.1471 L150.4158 59.9807 "/>
<path d="M150.4158 59.9807 L149.5838 59.9807 "/>
<path d="M149.5838 59.9807 L148.9183 60.1471 "/>
<path d="M148.9183 60.1471 L148.5855 60.3135 "/>
<path d="M148.5855 60.3135 L148.4191 60.4799 "/>
<path d="M148.4191 60.4799 L148.2527 60.8127 "/>
<path d="M148.2527 64.1406 L148.2527 64.4734 "/>
<path d="M148.2527 64.4734 L148.4191 64.8061 "/>
<path d="M148.4191 64.8061 L148.5855 64.9725 "/>
<path d="M148.5855 64.9725 L148.9183 65.1389 "/>
<path d="M148.9183 65.1389 L149.5838 65.3053 "/>
<path d="M149.5838 65.3053 L150.4158 65.3053 "/>
<path d="M150.4158 65.3053 L151.0814 65.1389 "/>
<path d="M151.0814 65.1389 L151.4142 64.9725 "/>
<path d="M151.4142 64.9725 L151.5806 64.8061 "/>
<path d="M151.5806 64.8061 L151.7469 64.4734 "/>
<path d="M151.7469 64.4734 L151.7469 64.1406 "/>
<path d="M151.7469 64.1406 L151.5806 63.8078 "/>
<path d="M151.5806 63.8078 L151.4142 63.6414 "/>
<path d="M151.4142 63.6414 L151.0814 63.4750 "/>
<path d="M151.0814 63.4750 L150.4158 63.3086 "/>
<path d="M150.4158 63.3086 L149.5838 63.3086 "/>
<path d="M149.5838 63.3086 L148.9183 63.4750 "/>
<path d="M148.9183 63.4750 L148.5855 63.6414 "/>
<path d="M148.5855 63.6414 L148.4191 63.8078 "/>
<path d="M148.4191 63.8078 L148.2527 64.1406 "/>
<path d="M149.4174 66.8029 L151.7469 66.8029 "/>
<path d="M149.7502 66.8029 L149.5838 66.9693 "/>
<path d="M149.5838 66.9693 L149.4174 67.3020 "/>
<path d="M149.4174 67.3020 L149.4174 67.8012 "/>
<path d="M149.4174 67.8012 L149.5838 68.1340 "/>
<path d="M149.5838 68.1340 L149.9166 68.3004 "/>
<path d="M149.9166 68.3004 L151.7469 68.3004 "/>
<path d="M149.9166 71.1291 L149.9166 69.9644 "/>
<path d="M151.7469 69.9644 L148.2527 69.9644 "/>
<path d="M148.2527 69.9644 L148.2527 71.6283 "/>
</g><g transform="rotate(-90.000000 35.4250 98.3521)">
<text x="35.4250" y="100.0992" transform="scale(-1 1) translate(-70.849972 0)" textLength="11.0252" font-size="4.6590" lengthAdjust="spacingAndGlyphs" text-anchor="middle" opacity="0.01" style="font-family:monospace">FB1</text>
</g>
<g class="stroked-text"><desc>FB1</desc>
<path d="M35.1715 95.4402 L35.1715 94.2754 "/>
<path d="M37.0018 94.2754 L33.5076 94.2754 "/>
<path d="M33.5076 94.2754 L33.5076 95.9394 "/>
<path d="M35.1715 98.4353 L35.3379 98.9344 "/>
<path d="M35.3379 98.9344 L35.5043 99.1008 "/>
<path d="M35.5043 99.1008 L35.8371 99.2672 "/>
<path d="M35.8371 99.2672 L36.3363 99.2672 "/>
<path d="M36.3363 99.2672 L36.6691 99.1008 "/>
<path d="M36.6691 99.1008 L36.8354 98.9344 "/>
<path d="M36.8354 98.9344 L37.0018 98.6017 "/>
<path d="M37.0018 98.6017 L37.0018 97.2705 "/>
<path d="M37.0018 97.2705 L33.5076 97.2705 "/>
<path d="M33.5076 97.2705 L33.5076 98.4353 "/>
<path d="M33.5076 98.4353 L33.6740 98.7681 "/>
<path d="M33.6740 98.7681 L33.8403 98.9344 "/>
<path d="M33.8403 98.9344 L34.1731 99.1008 "/>
<path d="M34.1731 99.1008 L34.5059 99.1008 "/>
<path d="M34.5059 99.1008 L34.8387 98.9344 "/>
<path d="M34.8387 98.9344 L35.0051 98.7681 "/>
<path d="M35.0051 98.7681 L35.1715 98.4353 "/>
<path d="M35.1715 98.4353 L35.1715 97.2705 "/>
<path d="M37.0018 102.5951 L37.0018 100.5984 "/>
<path d="M37.0018 101.5968 L33.5076 101.5968 "/>
<path d="M33.5076 101.5968 L34.0067 101.2640 "/>
<path d="M34.0067 101.2640 L34.3395 100.9312 "/>
<path d="M34.3395 100.9312 L34.5059 100.5984 "/>
</g><text x="30.9906" y="73.4931" transform="scale(-1 1) translate(-61.981257 0)" textLength="8.0301" font-size="4.6590" lengthAdjust="spacingAndGlyphs" text-anchor="middle" opacity="0.01" style="font-family:monospace">C1</text>
<g class="stroked-text"><desc>C1</desc>
<path d="M31.5730 72.9900 L31.7394 73.1564 "/>
<path d="M31.7394 73.1564 L32.2386 73.3228 "/>
<path d="M32.2386 73.3228 L32.5714 73.3228 "/>
<path d="M32.5714 73.3228 L33.0706 73.1564 "/>
<path d="M33.0706 73.1564 L33.4033 72.8236 "/>
<path d="M33.4033 72.8236 L33.5697 72.4908 "/>
<path d="M33.5697 72.4908 L33.7361 71.8252 "/>
<path d="M33.7361 71.8252 L33.7361 71.3260 "/>
<path d="M33.7361 71.3260 L33.5697 70.6605 "/>
<path d="M33.5697 70.6605 L33.4033 70.3277 "/>
<path d="M33.4033 70.3277 L33.0706 69.9949 "/>
<path d="M33.0706 69.9949 L32.5714 69.8285 "/>
<path d="M32.5714 69.8285 L32.2386 69.8285 "/>
<path d="M32.2386 69.8285 L31.7394 69.9949 "/>
<path d="M31.7394 69.9949 L31.5730 70.1613 "/>
<path d="M28.2451 73.3228 L30.2419 73.3228 "/>
<path d="M29.2435 73.3228 L29.2435 69.8285 "/>
<path d="M29.2435 69.8285 L29.5763 70.3277 "/>
<path d="M29.5763 70.3277 L29.9091 70.6605 "/>
<path d="M29.9091 70.6605 L30.2419 70.8269 "/>
</g><text x="30.1038" y="78.3709" transform="scale(-1 1) translate(-60.207514 0)" textLength="14.0203" font-size="4.6590" lengthAdjust="spacingAndGlyphs" text-anchor="middle" opacity="0.01" style="font-family:monospace">10nF</text>
<g class="stroked-text"><desc>10nF</desc>
<path d="M33.8476 78.2006 L35.8443 78.2006 "/>
<path d="M34.8460 78.2006 L34.8460 74.7063 "/>
<path d="M34.8460 74.7063 L35.1788 75.2055 "/>
<path d="M35.1788 75.2055 L35.5116 75.5383 "/>
<path d="M35.5116 75.5383 L35.8443 75.7047 "/>
<path d="M31.6845 74.7063 L31.3517 74.7063 "/>
<path d="M31.3517 74.7063 L31.0189 74.8727 "/>
<path d="M31.0189 74.8727 L30.8525 75.0391 "/>
<path d="M30.8525 75.0391 L30.6861 75.3719 "/>
<path d="M30.6861 75.3719 L30.5197 76.0374 "/>
<path d="M30.5197 76.0374 L30.5197 76.8694 "/>
<path d="M30.5197 76.8694 L30.6861 77.5350 "/>
<path d="M30.6861 77.5350 L30.8525 77.8678 "/>
<path d="M30.8525 77.8678 L31.0189 78.0342 "/>
<path d="M31.0189 78.0342 L31.3517 78.2006 "/>
<path d="M31.3517 78.2006 L31.6845 78.2006 "/>
<path d="M31.6845 78.2006 L32.0173 78.0342 "/>
<path d="M32.0173 78.0342 L32.1837 77.8678 "/>
<path d="M32.1837 77.8678 L32.3501 77.5350 "/>
<path d="M32.3501 77.5350 L32.5165 76.8694 "/>
<path d="M32.5165 76.8694 L32.5165 76.0374 "/>
<path d="M32.5165 76.0374 L32.3501 75.3719 "/>
<path d="M32.3501 75.3719 L32.1837 75.0391 "/>
<path d="M32.1837 75.0391 L32.0173 74.8727 "/>
<path d="M32.0173 74.8727 L31.6845 74.7063 "/>
<path d="M29.0222 75.8710 L29.0222 78.2006 "/>
<path d="M29.0222 76.2038 L28.8558 76.0374 "/>
<path d="M28.8558 76.0374 L28.5230 75.8710 "/>
<path d="M28.5230 75.8710 L28.0238 75.8710 "/>
<path d="M28.0238 75.8710 L27.6910 76.0374 "/>
<path d="M27.6910 76.0374 L27.5247 76.3702 "/>
<path d="M27.5247 76.3702 L27.5247 78.2006 "/>
<path d="M24.6959 76.3702 L25.8607 76.3702 "/>
<path d="M25.8607 78.2006 L25.8607 74.7063 "/>
<path d="M25.8607 74.7063 L24.1968 74.7063 "/>
</g><text x="223.4417" y="65.5112" transform="scale(-1 1) translate(-446.883492 0)" textLength="8.0301" font-size="4.6590" lengthAdjust="spacingAndGlyphs" text-anchor="middle" opacity="0.01" style="font-family:monospace">R2</text>
<g class="stroked-text"><desc>R2</desc>
<path d="M224.0241 65.3409 L225.1889 63.6770 "/>
<path d="M226.0208 65.3409 L226.0208 61.8467 "/>
<path d="M226.0208 61.8467 L224.6897 61.8467 "/>
<path d="M224.6897 61.8467 L224.3569 62.0131 "/>
<path d="M224.3569 62.0131 L224.1905 62.1794 "/>
<path d="M224.1905 62.1794 L224.0241 62.5122 "/>
<path d="M224.0241 62.5122 L224.0241 63.0114 "/>
<path d="M224.0241 63.0114 L224.1905 63.3442 "/>
<path d="M224.1905 63.3442 L224.3569 63.5106 "/>
<path d="M224.3569 63.5106 L224.6897 63.6770 "/>
<path d="M224.6897 63.6770 L226.0208 63.6770 "/>
<path d="M222.6930 62.1794 L222.5266 62.0131 "/>
<path d="M222.5266 62.0131 L222.1938 61.8467 "/>
<path d="M222.1938 61.8467 L221.3618 61.8467 "/>
<path d="M221.3618 61.8467 L221.0290 62.0131 "/>
<path d="M221.0290 62.0131 L220.8626 62.1794 "/>
<path d="M220.8626 62.1794 L220.6962 62.5122 "/>
<path d="M220.6962 62.5122 L220.6962 62.8450 "/>
<path d="M220.6962 62.8450 L220.8626 63.3442 "/>
<path d="M220.8626 63.3442 L222.8594 65.3409 "/>
<path d="M222.8594 65.3409 L220.6962 65.3409 "/>
</g><text x="224.3286" y="60.6334" transform="scale(-1 1) translate(-448.657235 0)" textLength="10.6924" font-size="4.6590" lengthAdjust="spacingAndGlyphs" text-anchor="middle" opacity="0.01" style="font-family:monospace">10k</text>
<g class="stroked-text"><desc>10k</desc>
<path d="M226.4085 60.4631 L228.4053 60.4631 "/>
<path d="M227.4069 60.4631 L227.4069 56.9689 "/>
<path d="M227.4069 56.9689 L227.7397 57.4680 "/>
<path d="M227.7397 57.4680 L228.0725 57.8008 "/>
<path d="M228.0725 57.8008 L228.4053 57.9672 "/>
<path d="M224.2454 56.9689 L223.9126 56.9689 "/>
<path d="M223.9126 56.9689 L223.5798 57.1353 "/>
<path d="M223.5798 57.1353 L223.4134 57.3016 "/>
<path d="M223.4134 57.3016 L223.2471 57.6344 "/>
<path d="M223.2471 57.6344 L223.0807 58.3000 "/>
<path d="M223.0807 58.3000 L223.0807 59.1320 "/>
<path d="M223.0807 59.1320 L223.2471 59.7976 "/>
<path d="M223.2471 59.7976 L223.4134 60.1303 "/>
<path d="M223.4134 60.1303 L223.5798 60.2967 "/>
<path d="M223.5798 60.2967 L223.9126 60.4631 "/>
<path d="M223.9126 60.4631 L224.2454 60.4631 "/>
<path d="M224.2454 60.4631 L224.5782 60.2967 "/>
<path d="M224.5782 60.2967 L224.7446 60.1303 "/>
<path d="M224.7446 60.1303 L224.9110 59.7976 "/>
<path d="M224.9110 59.7976 L225.0774 59.1320 "/>
<path d="M225.0774 59.1320 L225.0774 58.3000 "/>
<path d="M225.0774 58.3000 L224.9110 57.6344 "/>
<path d="M224.9110 57.6344 L224.7446 57.3016 "/>
<path d="M224.7446 57.3016 L224.5782 57.1353 "/>
<path d="M224.5782 57.1353 L224.2454 56.9689 "/>
<path d="M221.5831 60.4631 L221.5831 56.9689 "/>
<path d="M221.2503 59.1320 L220.2520 60.4631 "/>
<path d="M220.2520 58.1336 L221.5831 59.4648 "/>
</g></g>
<g style="fill:#000084; fill-opacity:0.0;  stroke:#000084; stroke-width:1.0475; stroke-opacity:1;  stroke-linecap:round; stroke-linejoin:round;">
<g transform="rotate(-90.000000 179.5416 96.1349)">
<text x="179.5416" y="99.6265" transform="scale(-1 1) translate(-359.083212 0)" textLength="15.1885" font-size="9.3110" lengthAdjust="spacingAndGlyphs" text-anchor="middle" opacity="0.01" style="font-family:monospace">U2</text>
</g>
<g class="stroked-text"><desc>U2</desc>
<path d="M175.7345 90.8143 L181.3876 90.8143 "/>
<path d="M181.3876 90.8143 L182.0526 91.1469 "/>
<path d="M182.0526 91.1469 L182.3852 91.4794 "/>
<path d="M182.3852 91.4794 L182.7177 92.1445 "/>
<path d="M182.7177 92.1445 L182.7177 93.4746 "/>
<path d="M182.7177 93.4746 L182.3852 94.1397 "/>
<path d="M182.3852 94.1397 L182.0526 94.4722 "/>
<path d="M182.0526 94.4722 L181.3876 94.8047 "/>
<path d="M181.3876 94.8047 L175.7345 94.8047 "/>
<path d="M176.3995 97.7976 L176.0670 98.1301 "/>
<path d="M176.0670 98.1301 L175.7345 98.7952 "/>
<path d="M175.7345 98.7952 L175.7345 100.4578 "/>
<path d="M175.7345 100.4578 L176.0670 101.1229 "/>
<path d="M176.0670 101.1229 L176.3995 101.4554 "/>
<path d="M176.3995 101.4554 L177.0646 101.7880 "/>
<path d="M177.0646 101.7880 L177.7297 101.7880 "/>
<path d="M177.7297 101.7880 L178.7273 101.4554 "/>
<path d="M178.7273 101.4554 L182.7177 97.4650 "/>
<path d="M182.7177 97.4650 L182.7177 101.7880 "/>
</g></g>
<g style="fill:#000084; fill-opacity:0.01;  stroke:#000084; stroke-width:0.7627; stroke-opacity:1;  stroke-linecap:round; stroke-linejoin:round;">
<text x="198.6093" y="65.5112" transform="scale(-1 1) translate(-397.218687 0)" textLength="8.0301" font-size="4.6590" lengthAdjust="spacingAndGlyphs" text-anchor="middle" opacity="0.01" style="font-family:monospace">R1</text>
<g class="stroked-text"><desc>R1</desc>
<path d="M199.1917 65.3409 L200.3565 63.6770 "/>
<path d="M201.1884 65.3409 L201.1884 61.8467 "/>
<path d="M201.1884 61.8467 L199.8573 61.8467 "/>
<path d="M199.8573 61.8467 L199.5245 62.0131 "/>
<path d="M199.5245 62.0131 L199.3581 62.1794 "/>
<path d="M199.3581 62.1794 L199.1917 62.5122 "/>
<path d="M199.1917 62.5122 L199.1917 63.0114 "/>
<path d="M199.1917 63.0114 L199.3581 63.3442 "/>
<path d="M199.3581 63.3442 L199.5245 63.5106 "/>
<path d="M199.5245 63.5106 L199.8573 63.6770 "/>
<path d="M199.8573 63.6770 L201.1884 63.6770 "/>
<path d="M195.8638 65.3409 L197.8606 65.3409 "/>
<path d="M196.8622 65.3409 L196.8622 61.8467 "/>
<path d="M196.8622 61.8467 L197.1950 62.3458 "/>
<path d="M197.1950 62.3458 L197.5278 62.6786 "/>
<path d="M197.5278 62.6786 L197.8606 62.8450 "/>
</g><text x="199.4962" y="60.6334" transform="scale(-1 1) translate(-398.992430 0)" textLength="10.6924" font-size="4.6590" lengthAdjust="spacingAndGlyphs" text-anchor="middle" opacity="0.01" style="font-family:monospace">4k7</text>
<g class="stroked-text"><desc>4k7</desc>
<path d="M201.9089 58.1336 L201.9089 60.4631 "/>
<path d="M202.7409 56.8025 L203.5729 59.2984 "/>
<path d="M203.5729 59.2984 L201.4097 59.2984 "/>
<path d="M200.0786 60.4631 L200.0786 56.9689 "/>
<path d="M199.7458 59.1320 L198.7474 60.4631 "/>
<path d="M198.7474 58.1336 L200.0786 59.4648 "/>
<path d="M197.5827 56.9689 L195.2532 56.9689 "/>
<path d="M195.2532 56.9689 L196.7507 60.4631 "/>
</g></g>
<g style="fill:#000084; fill-opacity:0.01;  stroke:#000084; stroke-width:1.0475; stroke-opacity:1;  stroke-linecap:round; stroke-linejoin:round;">
<text x="86.4201" y="38.4882" transform="scale(-1 1) translate(-172.840196 0)" textLength="18.1601" font-size="11.8250" lengthAdjust="spacingAndGlyphs" text-anchor="middle" opacity="0.01" style="font-family:monospace">D2</text>
<g class="stroked-text"><desc>D2</desc>
<path d="M92.9661 38.1022 L92.9661 29.2335 "/>
<path d="M92.9661 29.2335 L90.8545 29.2335 "/>
<path d="M90.8545 29.2335 L89.5875 29.6559 "/>
<path d="M89.5875 29.6559 L88.7429 30.5005 "/>
<path d="M88.7429 30.5005 L88.3205 31.3451 "/>
<path d="M88.3205 31.3451 L87.8982 33.0344 "/>
<path d="M87.8982 33.0344 L87.8982 34.3014 "/>
<path d="M87.8982 34.3014 L88.3205 35.9906 "/>
<path d="M88.3205 35.9906 L88.7429 36.8353 "/>
<path d="M88.7429 36.8353 L89.5875 37.6799 "/>
<path d="M89.5875 37.6799 L90.8545 38.1022 "/>
<path d="M90.8545 38.1022 L92.9661 38.1022 "/>
<path d="M84.5197 30.0782 L84.0973 29.6559 "/>
<path d="M84.0973 29.6559 L83.2527 29.2335 "/>
<path d="M83.2527 29.2335 L81.1411 29.2335 "/>
<path d="M81.1411 29.2335 L80.2965 29.6559 "/>
<path d="M80.2965 29.6559 L79.8741 30.0782 "/>
<path d="M79.8741 30.0782 L79.4518 30.9228 "/>
<path d="M79.4518 30.9228 L79.4518 31.7675 "/>
<path d="M79.4518 31.7675 L79.8741 33.0344 "/>
<path d="M79.8741 33.0344 L84.9420 38.1022 "/>
<path d="M84.9420 38.1022 L79.4518 38.1022 "/>
</g><text x="99.3684" y="38.1335" transform="scale(-1 1) translate(-198.736844 0)" textLength="9.7137" font-size="11.8250" lengthAdjust="spacingAndGlyphs" text-anchor="middle" opacity="0.01" style="font-family:monospace">K</text>
<g class="stroked-text"><desc>K</desc>
<path d="M101.6912 37.7475 L101.6912 28.8788 "/>
<path d="M96.6233 37.7475 L100.4242 32.6797 "/>
<path d="M96.6233 28.8788 L101.6912 33.9466 "/>
</g></g>
<g style="fill:#000084; fill-opacity:0.01;  stroke:#000084; stroke-width:0.7627; stroke-opacity:1;  stroke-linecap:round; stroke-linejoin:round;">
<text x="173.7769" y="61.0769" transform="scale(-1 1) translate(-347.553883 0)" textLength="8.0301" font-size="4.6590" lengthAdjust="spacingAndGlyphs" text-anchor="middle" opacity="0.01" style="font-family:monospace">C4</text>
<g class="stroked-text"><desc>C4</desc>
<path d="M174.3593 60.5738 L174.5257 60.7402 "/>
<path d="M174.5257 60.7402 L175.0249 60.9066 "/>
<path d="M175.0249 60.9066 L175.3577 60.9066 "/>
<path d="M175.3577 60.9066 L175.8569 60.7402 "/>
<path d="M175.8569 60.7402 L176.1897 60.4074 "/>
<path d="M176.1897 60.4074 L176.3560 60.0746 "/>
<path d="M176.3560 60.0746 L176.5224 59.4090 "/>
<path d="M176.5224 59.4090 L176.5224 58.9098 "/>
<path d="M176.5224 58.9098 L176.3560 58.2443 "/>
<path d="M176.3560 58.2443 L176.1897 57.9115 "/>
<path d="M176.1897 57.9115 L175.8569 57.5787 "/>
<path d="M175.8569 57.5787 L175.3577 57.4123 "/>
<path d="M175.3577 57.4123 L175.0249 57.4123 "/>
<path d="M175.0249 57.4123 L174.5257 57.5787 "/>
<path d="M174.5257 57.5787 L174.3593 57.7451 "/>
<path d="M171.3642 58.5771 L171.3642 60.9066 "/>
<path d="M172.1962 57.2459 L173.0282 59.7418 "/>
<path d="M173.0282 59.7418 L170.8650 59.7418 "/>
</g><text x="172.8901" y="65.9547" transform="scale(-1 1) translate(-345.780140 0)" textLength="17.3481" font-size="4.6590" lengthAdjust="spacingAndGlyphs" text-anchor="middle" opacity="0.01" style="font-family:monospace">100nF</text>
<g class="stroked-text"><desc>100nF</desc>
<path d="M178.2979 65.7844 L180.2946 65.7844 "/>
<path d="M179.2962 65.7844 L179.2962 62.2901 "/>
<path d="M179.2962 62.2901 L179.6290 62.7893 "/>
<path d="M179.6290 62.7893 L179.9618 63.1221 "/>
<path d="M179.9618 63.1221 L180.2946 63.2885 "/>
<path d="M176.1347 62.2901 L175.8020 62.2901 "/>
<path d="M175.8020 62.2901 L175.4692 62.4565 "/>
<path d="M175.4692 62.4565 L175.3028 62.6229 "/>
<path d="M175.3028 62.6229 L175.1364 62.9557 "/>
<path d="M175.1364 62.9557 L174.9700 63.6212 "/>
<path d="M174.9700 63.6212 L174.9700 64.4532 "/>
<path d="M174.9700 64.4532 L175.1364 65.1188 "/>
<path d="M175.1364 65.1188 L175.3028 65.4516 "/>
<path d="M175.3028 65.4516 L175.4692 65.6180 "/>
<path d="M175.4692 65.6180 L175.8020 65.7844 "/>
<path d="M175.8020 65.7844 L176.1347 65.7844 "/>
<path d="M176.1347 65.7844 L176.4675 65.6180 "/>
<path d="M176.4675 65.6180 L176.6339 65.4516 "/>
<path d="M176.6339 65.4516 L176.8003 65.1188 "/>
<path d="M176.8003 65.1188 L176.9667 64.4532 "/>
<path d="M176.9667 64.4532 L176.9667 63.6212 "/>
<path d="M176.9667 63.6212 L176.8003 62.9557 "/>
<path d="M176.8003 62.9557 L176.6339 62.6229 "/>
<path d="M176.6339 62.6229 L176.4675 62.4565 "/>
<path d="M176.4675 62.4565 L176.1347 62.2901 "/>
<path d="M172.8069 62.2901 L172.4741 62.2901 "/>
<path d="M172.4741 62.2901 L172.1413 62.4565 "/>
<path d="M172.1413 62.4565 L171.9749 62.6229 "/>
<path d="M171.9749 62.6229 L171.8085 62.9557 "/>
<path d="M171.8085 62.9557 L171.6421 63.6212 "/>
<path d="M171.6421 63.6212 L171.6421 64.4532 "/>
<path d="M171.6421 64.4532 L171.8085 65.1188 "/>
<path d="M171.8085 65.1188 L171.9749 65.4516 "/>
<path d="M171.9749 65.4516 L172.1413 65.6180 "/>
<path d="M172.1413 65.6180 L172.4741 65.7844 "/>
<path d="M172.4741 65.7844 L172.8069 65.7844 "/>
<path d="M172.8069 65.7844 L173.1397 65.6180 "/>
<path d="M173.1397 65.6180 L173.3061 65.4516 "/>
<path d="M173.3061 65.4516 L173.4724 65.1188 "/>
<path d="M173.4724 65.1188 L173.6388 64.4532 "/>
<path d="M173.6388 64.4532 L173.6388 63.6212 "/>
<path d="M173.6388 63.6212 L173.4724 62.9557 "/>
<path d="M173.4724 62.9557 L173.3061 62.6229 "/>
<path d="M173.3061 62.6229 L173.1397 62.4565 "/>
<path d="M173.1397 62.4565 L172.8069 62.2901 "/>
<path d="M170.1446 63.4548 L170.1446 65.7844 "/>
<path d="M170.1446 63.7876 L169.9782 63.6212 "/>
<path d="M169.9782 63.6212 L169.6454 63.4548 "/>
<path d="M169.6454 63.4548 L169.1462 63.4548 "/>
<path d="M169.1462 63.4548 L168.8134 63.6212 "/>
<path d="M168.8134 63.6212 L168.6470 63.9540 "/>
<path d="M168.6470 63.9540 L168.6470 65.7844 "/>
<path d="M165.8183 63.9540 L166.9831 63.9540 "/>
<path d="M166.9831 65.7844 L166.9831 62.2901 "/>
<path d="M166.9831 62.2901 L165.3191 62.2901 "/>
</g></g>
<g style="fill:#000084; fill-opacity:0.01;  stroke:#000084; stroke-width:1.0475; stroke-opacity:1;  stroke-linecap:round; stroke-linejoin:round;">
<text x="56.9857" y="85.3528" transform="scale(-1 1) translate(-113.971480 0)" textLength="42.4564" font-size="9.3110" lengthAdjust="spacingAndGlyphs" text-anchor="middle" opacity="0.01" style="font-family:monospace">Fiducial</text>
<g class="stroked-text"><desc>Fiducial</desc>
<path d="M73.6125 81.3794 L75.9402 81.3794 "/>
<path d="M75.9402 85.0373 L75.9402 78.0540 "/>
<path d="M75.9402 78.0540 L72.6149 78.0540 "/>
<path d="M69.9546 85.0373 L69.9546 80.3818 "/>
<path d="M69.9546 78.0540 L70.2871 78.3866 "/>
<path d="M70.2871 78.3866 L69.9546 78.7191 "/>
<path d="M69.9546 78.7191 L69.6221 78.3866 "/>
<path d="M69.6221 78.3866 L69.9546 78.0540 "/>
<path d="M69.9546 78.0540 L69.9546 78.7191 "/>
<path d="M63.6364 85.0373 L63.6364 78.0540 "/>
<path d="M63.6364 84.7047 L64.3015 85.0373 "/>
<path d="M64.3015 85.0373 L65.6317 85.0373 "/>
<path d="M65.6317 85.0373 L66.2967 84.7047 "/>
<path d="M66.2967 84.7047 L66.6293 84.3722 "/>
<path d="M66.6293 84.3722 L66.9618 83.7071 "/>
<path d="M66.9618 83.7071 L66.9618 81.7119 "/>
<path d="M66.9618 81.7119 L66.6293 81.0468 "/>
<path d="M66.6293 81.0468 L66.2967 80.7143 "/>
<path d="M66.2967 80.7143 L65.6317 80.3818 "/>
<path d="M65.6317 80.3818 L64.3015 80.3818 "/>
<path d="M64.3015 80.3818 L63.6364 80.7143 "/>
<path d="M57.3183 80.3818 L57.3183 85.0373 "/>
<path d="M60.3111 80.3818 L60.3111 84.0396 "/>
<path d="M60.3111 84.0396 L59.9786 84.7047 "/>
<path d="M59.9786 84.7047 L59.3135 85.0373 "/>
<path d="M59.3135 85.0373 L58.3159 85.0373 "/>
<path d="M58.3159 85.0373 L57.6508 84.7047 "/>
<path d="M57.6508 84.7047 L57.3183 84.3722 "/>
<path d="M51.0001 84.7047 L51.6652 85.0373 "/>
<path d="M51.6652 85.0373 L52.9953 85.0373 "/>
<path d="M52.9953 85.0373 L53.6604 84.7047 "/>
<path d="M53.6604 84.7047 L53.9929 84.3722 "/>
<path d="M53.9929 84.3722 L54.3255 83.7071 "/>
<path d="M54.3255 83.7071 L54.3255 81.7119 "/>
<path d="M54.3255 81.7119 L53.9929 81.0468 "/>
<path d="M53.9929 81.0468 L53.6604 80.7143 "/>
<path d="M53.6604 80.7143 L52.9953 80.3818 "/>
<path d="M52.9953 80.3818 L51.6652 80.3818 "/>
<path d="M51.6652 80.3818 L51.0001 80.7143 "/>
<path d="M48.0073 85.0373 L48.0073 80.3818 "/>
<path d="M48.0073 78.0540 L48.3398 78.3866 "/>
<path d="M48.3398 78.3866 L48.0073 78.7191 "/>
<path d="M48.0073 78.7191 L47.6747 78.3866 "/>
<path d="M47.6747 78.3866 L48.0073 78.0540 "/>
<path d="M48.0073 78.0540 L48.0073 78.7191 "/>
<path d="M41.6891 85.0373 L41.6891 81.3794 "/>
<path d="M41.6891 81.3794 L42.0217 80.7143 "/>
<path d="M42.0217 80.7143 L42.6867 80.3818 "/>
<path d="M42.6867 80.3818 L44.0169 80.3818 "/>
<path d="M44.0169 80.3818 L44.6819 80.7143 "/>
<path d="M41.6891 84.7047 L42.3542 85.0373 "/>
<path d="M42.3542 85.0373 L44.0169 85.0373 "/>
<path d="M44.0169 85.0373 L44.6819 84.7047 "/>
<path d="M44.6819 84.7047 L45.0145 84.0396 "/>
<path d="M45.0145 84.0396 L45.0145 83.3746 "/>
<path d="M45.0145 83.3746 L44.6819 82.7095 "/>
<path d="M44.6819 82.7095 L44.0169 82.3770 "/>
<path d="M44.0169 82.3770 L42.3542 82.3770 "/>
<path d="M42.3542 82.3770 L41.6891 82.0444 "/>
<path d="M37.3662 85.0373 L38.0312 84.7047 "/>
<path d="M38.0312 84.7047 L38.3638 84.0396 "/>
<path d="M38.3638 84.0396 L38.3638 78.0540 "/>
</g></g>
<g style="fill:#000084; fill-opacity:0.01;  stroke:#000084; stroke-width:0.4190; stroke-opacity:1;  stroke-linecap:round; stroke-linejoin:round;">
<text x="56.9857" y="69.2913" transform="scale(-1 1) translate(-113.971480 0)" textLength="9.6668" font-size="3.7244" lengthAdjust="spacingAndGlyphs" text-anchor="middle" opacity="0.01" style="font-family:monospace">FID2</text>
<g class="stroked-text"><desc>FID2</desc>
<path d="M59.9785 67.7019 L60.9096 67.7019 "/>
<path d="M60.9096 69.1651 L60.9096 66.3718 "/>
<path d="M60.9096 66.3718 L59.5795 66.3718 "/>
<path d="M58.5154 69.1651 L58.5154 66.3718 "/>
<path d="M57.1853 69.1651 L57.1853 66.3718 "/>
<path d="M57.1853 66.3718 L56.5202 66.3718 "/>
<path d="M56.5202 66.3718 L56.1211 66.5048 "/>
<path d="M56.1211 66.5048 L55.8551 66.7709 "/>
<path d="M55.8551 66.7709 L55.7221 67.0369 "/>
<path d="M55.7221 67.0369 L55.5891 67.5689 "/>
<path d="M55.5891 67.5689 L55.5891 67.9680 "/>
<path d="M55.5891 67.9680 L55.7221 68.5000 "/>
<path d="M55.7221 68.5000 L55.8551 68.7661 "/>
<path d="M55.8551 68.7661 L56.1211 69.0321 "/>
<path d="M56.1211 69.0321 L56.5202 69.1651 "/>
<path d="M56.5202 69.1651 L57.1853 69.1651 "/>
<path d="M54.5250 66.6378 L54.3920 66.5048 "/>
<path d="M54.3920 66.5048 L54.1259 66.3718 "/>
<path d="M54.1259 66.3718 L53.4609 66.3718 "/>
<path d="M53.4609 66.3718 L53.1948 66.5048 "/>
<path d="M53.1948 66.5048 L53.0618 66.6378 "/>
<path d="M53.0618 66.6378 L52.9288 66.9039 "/>
<path d="M52.9288 66.9039 L52.9288 67.1699 "/>
<path d="M52.9288 67.1699 L53.0618 67.5689 "/>
<path d="M53.0618 67.5689 L54.6580 69.1651 "/>
<path d="M54.6580 69.1651 L52.9288 69.1651 "/>
</g><text x="122.8202" y="75.3597" transform="scale(-1 1) translate(-245.640475 0)" textLength="6.0754" font-size="3.7244" lengthAdjust="spacingAndGlyphs" text-anchor="middle" opacity="0.01" style="font-family:monospace">U1</text>
<g class="stroked-text"><desc>U1</desc>
<path d="M124.9485 72.4402 L124.9485 74.7015 "/>
<path d="M124.9485 74.7015 L124.8154 74.9675 "/>
<path d="M124.8154 74.9675 L124.6824 75.1005 "/>
<path d="M124.6824 75.1005 L124.4164 75.2335 "/>
<path d="M124.4164 75.2335 L123.8843 75.2335 "/>
<path d="M123.8843 75.2335 L123.6183 75.1005 "/>
<path d="M123.6183 75.1005 L123.4853 74.9675 "/>
<path d="M123.4853 74.9675 L123.3523 74.7015 "/>
<path d="M123.3523 74.7015 L123.3523 72.4402 "/>
<path d="M120.5590 75.2335 L122.1552 75.2335 "/>
<path d="M121.3571 75.2335 L121.3571 72.4402 "/>
<path d="M121.3571 72.4402 L121.6231 72.8393 "/>
<path d="M121.6231 72.8393 L121.8891 73.1053 "/>
<path d="M121.8891 73.1053 L122.1552 73.2383 "/>
</g></g>
<g style="fill:#000084; fill-opacity:0.01;  stroke:#000084; stroke-width:0.7627; stroke-opacity:1;  stroke-linecap:round; stroke-linejoin:round;">
<g transform="rotate(-90.000000 22.1219 98.3521)">
<text x="22.1219" y="100.0992" transform="scale(-1 1) translate(-44.243827 0)" textLength="8.0301" font-size="4.6590" lengthAdjust="spacingAndGlyphs" text-anchor="middle" opacity="0.01" style="font-family:monospace">C2</text>
</g>
<g class="stroked-text"><desc>C2</desc>
<path d="M23.3660 97.7697 L23.5324 97.6033 "/>
<path d="M23.5324 97.6033 L23.6988 97.1041 "/>
<path d="M23.6988 97.1041 L23.6988 96.7713 "/>
<path d="M23.6988 96.7713 L23.5324 96.2721 "/>
<path d="M23.5324 96.2721 L23.1996 95.9394 "/>
<path d="M23.1996 95.9394 L22.8668 95.7730 "/>
<path d="M22.8668 95.7730 L22.2012 95.6066 "/>
<path d="M22.2012 95.6066 L21.7020 95.6066 "/>
<path d="M21.7020 95.6066 L21.0365 95.7730 "/>
<path d="M21.0365 95.7730 L20.7037 95.9394 "/>
<path d="M20.7037 95.9394 L20.3709 96.2721 "/>
<path d="M20.3709 96.2721 L20.2045 96.7713 "/>
<path d="M20.2045 96.7713 L20.2045 97.1041 "/>
<path d="M20.2045 97.1041 L20.3709 97.6033 "/>
<path d="M20.3709 97.6033 L20.5373 97.7697 "/>
<path d="M20.5373 99.1008 L20.3709 99.2672 "/>
<path d="M20.3709 99.2672 L20.2045 99.6000 "/>
<path d="M20.2045 99.6000 L20.2045 100.4320 "/>
<path d="M20.2045 100.4320 L20.3709 100.7648 "/>
<path d="M20.3709 100.7648 L20.5373 100.9312 "/>
<path d="M20.5373 100.9312 L20.8701 101.0976 "/>
<path d="M20.8701 101.0976 L21.2029 101.0976 "/>
<path d="M21.2029 101.0976 L21.7020 100.9312 "/>
<path d="M21.7020 100.9312 L23.6988 98.9344 "/>
<path d="M23.6988 98.9344 L23.6988 101.0976 "/>
</g><g transform="rotate(-90.000000 17.2441 97.4652)">
<text x="17.2441" y="99.2123" transform="scale(-1 1) translate(-34.488240 0)" textLength="14.0203" font-size="4.6590" lengthAdjust="spacingAndGlyphs" text-anchor="middle" opacity="0.01" style="font-family:monospace">10uF</text>
</g>
<g class="stroked-text"><desc>10uF</desc>
<path d="M18.8210 93.7213 L18.8210 91.7246 "/>
<path d="M18.8210 92.7230 L15.3267 92.7230 "/>
<path d="M15.3267 92.7230 L15.8259 92.3902 "/>
<path d="M15.8259 92.3902 L16.1587 92.0574 "/>
<path d="M16.1587 92.0574 L16.3251 91.7246 "/>
<path d="M15.3267 95.8844 L15.3267 96.2172 "/>
<path d="M15.3267 96.2172 L15.4931 96.5500 "/>
<path d="M15.4931 96.5500 L15.6595 96.7164 "/>
<path d="M15.6595 96.7164 L15.9923 96.8828 "/>
<path d="M15.9923 96.8828 L16.6578 97.0492 "/>
<path d="M16.6578 97.0492 L17.4898 97.0492 "/>
<path d="M17.4898 97.0492 L18.1554 96.8828 "/>
<path d="M18.1554 96.8828 L18.4882 96.7164 "/>
<path d="M18.4882 96.7164 L18.6546 96.5500 "/>
<path d="M18.6546 96.5500 L18.8210 96.2172 "/>
<path d="M18.8210 96.2172 L18.8210 95.8844 "/>
<path d="M18.8210 95.8844 L18.6546 95.5517 "/>
<path d="M18.6546 95.5517 L18.4882 95.3853 "/>
<path d="M18.4882 95.3853 L18.1554 95.2189 "/>
<path d="M18.1554 95.2189 L17.4898 95.0525 "/>
<path d="M17.4898 95.0525 L16.6578 95.0525 "/>
<path d="M16.6578 95.0525 L15.9923 95.2189 "/>
<path d="M15.9923 95.2189 L15.6595 95.3853 "/>
<path d="M15.6595 95.3853 L15.4931 95.5517 "/>
<path d="M15.4931 95.5517 L15.3267 95.8844 "/>
<path d="M16.4915 100.0443 L18.8210 100.0443 "/>
<path d="M16.4915 98.5468 L18.3218 98.5468 "/>
<path d="M18.3218 98.5468 L18.6546 98.7131 "/>
<path d="M18.6546 98.7131 L18.8210 99.0459 "/>
<path d="M18.8210 99.0459 L18.8210 99.5451 "/>
<path d="M18.8210 99.5451 L18.6546 99.8779 "/>
<path d="M18.6546 99.8779 L18.4882 100.0443 "/>
<path d="M16.9906 102.8730 L16.9906 101.7082 "/>
<path d="M18.8210 101.7082 L15.3267 101.7082 "/>
<path d="M15.3267 101.7082 L15.3267 103.3722 "/>
</g><text x="215.9033" y="112.5154" transform="scale(-1 1) translate(-431.806676 0)" textLength="8.0301" font-size="4.6590" lengthAdjust="spacingAndGlyphs" text-anchor="middle" opacity="0.01" style="font-family:monospace">C5</text>
<g class="stroked-text"><desc>C5</desc>
<path d="M216.4857 112.0123 L216.6521 112.1787 "/>
<path d="M216.6521 112.1787 L217.1513 112.3451 "/>
<path d="M217.1513 112.3451 L217.4841 112.3451 "/>
<path d="M217.4841 112.3451 L217.9833 112.1787 "/>
<path d="M217.9833 112.1787 L218.3160 111.8459 "/>
<path d="M218.3160 111.8459 L218.4824 111.5131 "/>
<path d="M218.4824 111.5131 L218.6488 110.8476 "/>
<path d="M218.6488 110.8476 L218.6488 110.3484 "/>
<path d="M218.6488 110.3484 L218.4824 109.6828 "/>
<path d="M218.4824 109.6828 L218.3160 109.3500 "/>
<path d="M218.3160 109.3500 L217.9833 109.0172 "/>
<path d="M217.9833 109.0172 L217.4841 108.8508 "/>
<path d="M217.4841 108.8508 L217.1513 108.8508 "/>
<path d="M217.1513 108.8508 L216.6521 109.0172 "/>
<path d="M216.6521 109.0172 L216.4857 109.1836 "/>
<path d="M213.3242 108.8508 L214.9882 108.8508 "/>
<path d="M214.9882 108.8508 L215.1546 110.5148 "/>
<path d="M215.1546 110.5148 L214.9882 110.3484 "/>
<path d="M214.9882 110.3484 L214.6554 110.1820 "/>
<path d="M214.6554 110.1820 L213.8234 110.1820 "/>
<path d="M213.8234 110.1820 L213.4906 110.3484 "/>
<path d="M213.4906 110.3484 L213.3242 110.5148 "/>
<path d="M213.3242 110.5148 L213.1578 110.8476 "/>
<path d="M213.1578 110.8476 L213.1578 111.6795 "/>
<path d="M213.1578 111.6795 L213.3242 112.0123 "/>
<path d="M213.3242 112.0123 L213.4906 112.1787 "/>
<path d="M213.4906 112.1787 L213.8234 112.3451 "/>
<path d="M213.8234 112.3451 L214.6554 112.3451 "/>
<path d="M214.6554 112.3451 L214.9882 112.1787 "/>
<path d="M214.9882 112.1787 L215.1546 112.0123 "/>
</g><text x="215.0165" y="117.3932" transform="scale(-1 1) translate(-430.032933 0)" textLength="17.3481" font-size="4.6590" lengthAdjust="spacingAndGlyphs" text-anchor="middle" opacity="0.01" style="font-family:monospace">100nF</text>
<g class="stroked-text"><desc>100nF</desc>
<path d="M220.4243 117.2229 L222.4210 117.2229 "/>
<path d="M221.4226 117.2229 L221.4226 113.7286 "/>
<path d="M221.4226 113.7286 L221.7554 114.2278 "/>
<path d="M221.7554 114.2278 L222.0882 114.5606 "/>
<path d="M222.0882 114.5606 L222.4210 114.7270 "/>
<path d="M218.2611 113.7286 L217.9284 113.7286 "/>
<path d="M217.9284 113.7286 L217.5956 113.8950 "/>
<path d="M217.5956 113.8950 L217.4292 114.0614 "/>
<path d="M217.4292 114.0614 L217.2628 114.3942 "/>
<path d="M217.2628 114.3942 L217.0964 115.0598 "/>
<path d="M217.0964 115.0598 L217.0964 115.8918 "/>
<path d="M217.0964 115.8918 L217.2628 116.5573 "/>
<path d="M217.2628 116.5573 L217.4292 116.8901 "/>
<path d="M217.4292 116.8901 L217.5956 117.0565 "/>
<path d="M217.5956 117.0565 L217.9284 117.2229 "/>
<path d="M217.9284 117.2229 L218.2611 117.2229 "/>
<path d="M218.2611 117.2229 L218.5939 117.0565 "/>
<path d="M218.5939 117.0565 L218.7603 116.8901 "/>
<path d="M218.7603 116.8901 L218.9267 116.5573 "/>
<path d="M218.9267 116.5573 L219.0931 115.8918 "/>
<path d="M219.0931 115.8918 L219.0931 115.0598 "/>
<path d="M219.0931 115.0598 L218.9267 114.3942 "/>
<path d="M218.9267 114.3942 L218.7603 114.0614 "/>
<path d="M218.7603 114.0614 L218.5939 113.8950 "/>
<path d="M218.5939 113.8950 L218.2611 113.7286 "/>
<path d="M214.9333 113.7286 L214.6005 113.7286 "/>
<path d="M214.6005 113.7286 L214.2677 113.8950 "/>
<path d="M214.2677 113.8950 L214.1013 114.0614 "/>
<path d="M214.1013 114.0614 L213.9349 114.3942 "/>
<path d="M213.9349 114.3942 L213.7685 115.0598 "/>
<path d="M213.7685 115.0598 L213.7685 115.8918 "/>
<path d="M213.7685 115.8918 L213.9349 116.5573 "/>
<path d="M213.9349 116.5573 L214.1013 116.8901 "/>
<path d="M214.1013 116.8901 L214.2677 117.0565 "/>
<path d="M214.2677 117.0565 L214.6005 117.2229 "/>
<path d="M214.6005 117.2229 L214.9333 117.2229 "/>
<path d="M214.9333 117.2229 L215.2661 117.0565 "/>
<path d="M215.2661 117.0565 L215.4325 116.8901 "/>
<path d="M215.4325 116.8901 L215.5988 116.5573 "/>
<path d="M215.5988 116.5573 L215.7652 115.8918 "/>
<path d="M215.7652 115.8918 L215.7652 115.0598 "/>
<path d="M215.7652 115.0598 L215.5988 114.3942 "/>
<path d="M215.5988 114.3942 L215.4325 114.0614 "/>
<path d="M215.4325 114.0614 L215.2661 113.8950 "/>
<path d="M215.2661 113.8950 L214.9333 113.7286 "/>
<path d="M212.2710 114.8934 L212.2710 117.2229 "/>
<path d="M212.2710 115.2262 L212.1046 115.0598 "/>
<path d="M212.1046 115.0598 L211.7718 114.8934 "/>
<path d="M211.7718 114.8934 L211.2726 114.8934 "/>
<path d="M211.2726 114.8934 L210.9398 115.0598 "/>
<path d="M210.9398 115.0598 L210.7734 115.3926 "/>
<path d="M210.7734 115.3926 L210.7734 117.2229 "/>
<path d="M207.9447 115.3926 L209.1095 115.3926 "/>
<path d="M209.1095 117.2229 L209.1095 113.7286 "/>
<path d="M209.1095 113.7286 L207.4455 113.7286 "/>
</g></g>
<g style="fill:#000084; fill-opacity:0.01;  stroke:#000084; stroke-width:1.0475; stroke-opacity:1;  stroke-linecap:round; stroke-linejoin:round;">
<text x="37.4964" y="147.5176" transform="scale(-1 1) translate(-74.992849 0)" textLength="14.8560" font-size="9.3110" lengthAdjust="spacingAndGlyphs" text-anchor="middle" opacity="0.01" style="font-family:monospace">D1</text>
<g class="stroked-text"><desc>D1</desc>
<path d="M42.6507 147.2021 L42.6507 140.2188 "/>
<path d="M42.6507 140.2188 L40.9880 140.2188 "/>
<path d="M40.9880 140.2188 L39.9904 140.5514 "/>
<path d="M39.9904 140.5514 L39.3254 141.2164 "/>
<path d="M39.3254 141.2164 L38.9928 141.8815 "/>
<path d="M38.9928 141.8815 L38.6603 143.2116 "/>
<path d="M38.6603 143.2116 L38.6603 144.2092 "/>
<path d="M38.6603 144.2092 L38.9928 145.5394 "/>
<path d="M38.9928 145.5394 L39.3254 146.2044 "/>
<path d="M39.3254 146.2044 L39.9904 146.8695 "/>
<path d="M39.9904 146.8695 L40.9880 147.2021 "/>
<path d="M40.9880 147.2021 L42.6507 147.2021 "/>
<path d="M32.0096 147.2021 L36.0000 147.2021 "/>
<path d="M34.0048 147.2021 L34.0048 140.2188 "/>
<path d="M34.0048 140.2188 L34.6699 141.2164 "/>
<path d="M34.6699 141.2164 L35.3349 141.8815 "/>
<path d="M35.3349 141.8815 L36.0000 142.2140 "/>
</g></g>
<g style="fill:#000084; fill-opacity:0.01;  stroke:#000084; stroke-width:2.1285; stroke-opacity:1;  stroke-linecap:round; stroke-linejoin:round;">
<text x="68.3684" y="101.4561" transform="scale(-1 1) translate(-136.736844 0)" textLength="22.4505" font-size="14.1899" lengthAdjust="spacingAndGlyphs" text-anchor="middle" opacity="0.01" style="font-family:monospace">F1</text>
<g class="stroked-text"><desc>F1</desc>
<path d="M71.9159 95.3730 L75.4634 95.3730 "/>
<path d="M75.4634 100.9476 L75.4634 90.3051 "/>
<path d="M75.4634 90.3051 L70.3956 90.3051 "/>
<path d="M60.7667 100.9476 L66.8481 100.9476 "/>
<path d="M63.8074 100.9476 L63.8074 90.3051 "/>
<path d="M63.8074 90.3051 L64.8209 91.8255 "/>
<path d="M64.8209 91.8255 L65.8345 92.8391 "/>
<path d="M65.8345 92.8391 L66.8481 93.3459 "/>
</g></g>
<g style="fill:#000084; fill-opacity:0.01;  stroke:#000084; stroke-width:1.0475; stroke-opacity:1;  stroke-linecap:round; stroke-linejoin:round;">
<text x="99.3684" y="180.0329" transform="scale(-1 1) translate(-198.736844 0)" textLength="9.7137" font-size="11.8250" lengthAdjust="spacingAndGlyphs" text-anchor="middle" opacity="0.01" style="font-family:monospace">K</text>
<g class="stroked-text"><desc>K</desc>
<path d="M101.6912 179.6469 L101.6912 170.7782 "/>
<path d="M96.6233 179.6469 L100.4242 174.5791 "/>
<path d="M96.6233 170.7782 L101.6912 175.8461 "/>
</g><text x="86.4201" y="197.1475" transform="scale(-1 1) translate(-172.840196 0)" textLength="18.1601" font-size="11.8250" lengthAdjust="spacingAndGlyphs" text-anchor="middle" opacity="0.01" style="font-family:monospace">D3</text>
<g class="stroked-text"><desc>D3</desc>
<path d="M92.9661 196.7615 L92.9661 187.8928 "/>
<path d="M92.9661 187.8928 L90.8545 187.8928 "/>
<path d="M90.8545 187.8928 L89.5875 188.3151 "/>
<path d="M89.5875 188.3151 L88.7429 189.1597 "/>
<path d="M88.7429 189.1597 L88.3205 190.0044 "/>
<path d="M88.3205 190.0044 L87.8982 191.6936 "/>
<path d="M87.8982 191.6936 L87.8982 192.9606 "/>
<path d="M87.8982 192.9606 L88.3205 194.6499 "/>
<path d="M88.3205 194.6499 L88.7429 195.4945 "/>
<path d="M88.7429 195.4945 L89.5875 196.3391 "/>
<path d="M89.5875 196.3391 L90.8545 196.7615 "/>
<path d="M90.8545 196.7615 L92.9661 196.7615 "/>
<path d="M84.9420 187.8928 L79.4518 187.8928 "/>
<path d="M79.4518 187.8928 L82.4081 191.2713 "/>
<path d="M82.4081 191.2713 L81.1411 191.2713 "/>
<path d="M81.1411 191.2713 L80.2965 191.6936 "/>
<path d="M80.2965 191.6936 L79.8741 192.1159 "/>
<path d="M79.8741 192.1159 L79.4518 192.9606 "/>
<path d="M79.4518 192.9606 L79.4518 195.0722 "/>
<path d="M79.4518 195.0722 L79.8741 195.9168 "/>
<path d="M79.8741 195.9168 L80.2965 196.3391 "/>
<path d="M80.2965 196.3391 L81.1411 196.7615 "/>
<path d="M81.1411 196.7615 L83.6750 196.7615 "/>
<path d="M83.6750 196.7615 L84.5197 196.3391 "/>
<path d="M84.5197 196.3391 L84.9420 195.9168 "/>
</g></g>
<g style="fill:#000084; fill-opacity:0.01;  stroke:#000084; stroke-width:0.7627; stroke-opacity:1;  stroke-linecap:round; stroke-linejoin:round;">
<text x="89.8070" y="195.9162" transform="scale(-1 1) translate(-179.613939 0)" textLength="8.0301" font-size="4.6590" lengthAdjust="spacingAndGlyphs" text-anchor="middle" opacity="0.01" style="font-family:monospace">R4</text>
<g class="stroked-text"><desc>R4</desc>
<path d="M90.3893 195.7460 L91.5541 194.0820 "/>
<path d="M92.3861 195.7460 L92.3861 192.2517 "/>
<path d="M92.3861 192.2517 L91.0549 192.2517 "/>
<path d="M91.0549 192.2517 L90.7221 192.4181 "/>
<path d="M90.7221 192.4181 L90.5557 192.5845 "/>
<path d="M90.5557 192.5845 L90.3893 192.9173 "/>
<path d="M90.3893 192.9173 L90.3893 193.4164 "/>
<path d="M90.3893 193.4164 L90.5557 193.7492 "/>
<path d="M90.5557 193.7492 L90.7221 193.9156 "/>
<path d="M90.7221 193.9156 L91.0549 194.0820 "/>
<path d="M91.0549 194.0820 L92.3861 194.0820 "/>
<path d="M87.3943 193.4164 L87.3943 195.7460 "/>
<path d="M88.2262 192.0853 L89.0582 194.5812 "/>
<path d="M89.0582 194.5812 L86.8951 194.5812 "/>
</g><text x="88.9201" y="200.7940" transform="scale(-1 1) translate(-177.840196 0)" textLength="14.6858" font-size="4.6590" lengthAdjust="spacingAndGlyphs" text-anchor="middle" opacity="0.01" style="font-family:monospace">270R</text>
<g class="stroked-text"><desc>270R</desc>
<path d="M94.9935 197.4623 L94.8271 197.2959 "/>
<path d="M94.8271 197.2959 L94.4943 197.1295 "/>
<path d="M94.4943 197.1295 L93.6623 197.1295 "/>
<path d="M93.6623 197.1295 L93.3295 197.2959 "/>
<path d="M93.3295 197.2959 L93.1631 197.4623 "/>
<path d="M93.1631 197.4623 L92.9967 197.7951 "/>
<path d="M92.9967 197.7951 L92.9967 198.1278 "/>
<path d="M92.9967 198.1278 L93.1631 198.6270 "/>
<path d="M93.1631 198.6270 L95.1599 200.6238 "/>
<path d="M95.1599 200.6238 L92.9967 200.6238 "/>
<path d="M91.8320 197.1295 L89.5025 197.1295 "/>
<path d="M89.5025 197.1295 L91.0000 200.6238 "/>
<path d="M87.5057 197.1295 L87.1730 197.1295 "/>
<path d="M87.1730 197.1295 L86.8402 197.2959 "/>
<path d="M86.8402 197.2959 L86.6738 197.4623 "/>
<path d="M86.6738 197.4623 L86.5074 197.7951 "/>
<path d="M86.5074 197.7951 L86.3410 198.4606 "/>
<path d="M86.3410 198.4606 L86.3410 199.2926 "/>
<path d="M86.3410 199.2926 L86.5074 199.9582 "/>
<path d="M86.5074 199.9582 L86.6738 200.2910 "/>
<path d="M86.6738 200.2910 L86.8402 200.4574 "/>
<path d="M86.8402 200.4574 L87.1730 200.6238 "/>
<path d="M87.1730 200.6238 L87.5057 200.6238 "/>
<path d="M87.5057 200.6238 L87.8385 200.4574 "/>
<path d="M87.8385 200.4574 L88.0049 200.2910 "/>
<path d="M88.0049 200.2910 L88.1713 199.9582 "/>
<path d="M88.1713 199.9582 L88.3377 199.2926 "/>
<path d="M88.3377 199.2926 L88.3377 198.4606 "/>
<path d="M88.3377 198.4606 L88.1713 197.7951 "/>
<path d="M88.1713 197.7951 L88.0049 197.4623 "/>
<path d="M88.0049 197.4623 L87.8385 197.2959 "/>
<path d="M87.8385 197.2959 L87.5057 197.1295 "/>
<path d="M82.8467 200.6238 L84.0115 198.9598 "/>
<path d="M84.8434 200.6238 L84.8434 197.1295 "/>
<path d="M84.8434 197.1295 L83.5123 197.1295 "/>
<path d="M83.5123 197.1295 L83.1795 197.2959 "/>
<path d="M83.1795 197.2959 L83.0131 197.4623 "/>
<path d="M83.0131 197.4623 L82.8467 197.7951 "/>
<path d="M82.8467 197.7951 L82.8467 198.2942 "/>
<path d="M82.8467 198.2942 L83.0131 198.6270 "/>
<path d="M83.0131 198.6270 L83.1795 198.7934 "/>
<path d="M83.1795 198.7934 L83.5123 198.9598 "/>
<path d="M83.5123 198.9598 L84.8434 198.9598 "/>
</g></g>
<g style="fill:#000084; fill-opacity:0.0;  stroke:#000084; stroke-width:1.0475; stroke-opacity:1;  stroke-linecap:round; stroke-linejoin:round;">
<path d="M73.5605 6.5609 L73.5605 17.2033 "/>
<path d="M73.5605 17.2033 L80.6554 17.2033 "/>
<path d="M80.6554 6.5609 L73.5605 6.5609 "/>
<path d="M87.7504 17.2033 L94.8454 17.2033 "/>
<path d="M94.8454 6.5609 L87.7504 6.5609 "/>
<path d="M94.8454 17.2033 L94.8454 6.5609 "/>
</g>
<g style="fill:#000084; fill-opacity:0.0;  stroke:#000084; stroke-width:0.6983; stroke-opacity:1;  stroke-linecap:round; stroke-linejoin:round;">
<circle cx="227.3768" cy="141.2187" r="6.9832"/> 
</g>
<g style="fill:#000084; fill-opacity:0.0;  stroke:#000084; stroke-width:1.0475; stroke-opacity:1;  stroke-linecap:round; stroke-linejoin:round;">
<path d="M147.5095 75.5867 L158.1519 75.5867 "/>
<path d="M158.1519 75.5867 L158.1519 68.4917 "/>
<path d="M147.5095 68.4917 L147.5095 75.5867 "/>
<path d="M158.1519 61.3968 L158.1519 54.3018 "/>
<path d="M147.5095 54.3018 L147.5095 61.3968 "/>
<path d="M158.1519 54.3018 L147.5095 54.3018 "/>
<path d="M42.9634 87.7096 L32.3209 87.7096 "/>
<path d="M32.3209 87.7096 L32.3209 94.8046 "/>
<path d="M42.9634 94.8046 L42.9634 87.7096 "/>
<path d="M32.3209 101.8996 L32.3209 108.9945 "/>
<path d="M42.9634 108.9945 L42.9634 101.8996 "/>
<path d="M32.3209 108.9945 L42.9634 108.9945 "/>
<path d="M41.6331 79.2843 L41.6331 68.6419 "/>
<path d="M41.6331 68.6419 L34.5381 68.6419 "/>
<path d="M34.5381 79.2843 L41.6331 79.2843 "/>
<path d="M27.4431 68.6419 L20.3482 68.6419 "/>
<path d="M20.3482 79.2843 L27.4431 79.2843 "/>
<path d="M20.3482 68.6419 L20.3482 79.2843 "/>
<path d="M212.7993 56.2257 L212.7993 66.8681 "/>
<path d="M212.7993 66.8681 L219.8943 66.8681 "/>
<path d="M219.8943 56.2257 L212.7993 56.2257 "/>
<path d="M226.9892 66.8681 L234.0842 66.8681 "/>
<path d="M234.0842 56.2257 L226.9892 56.2257 "/>
<path d="M234.0842 66.8681 L234.0842 56.2257 "/>
</g>
<g style="fill:#000084; fill-opacity:0.0;  stroke:#000084; stroke-width:0.6983; stroke-opacity:1;  stroke-linecap:round; stroke-linejoin:round;">
<path d="M165.5751 110.1014 L186.5248 110.1014 "/>
<path d="M186.5248 110.1014 L193.5081 103.1181 "/>
<path d="M193.5081 103.1181 L193.5081 82.1684 "/>
<path d="M165.5751 82.1684 L165.5751 110.1014 "/>
<path d="M193.5081 82.1684 L165.5751 82.1684 "/>
</g>
<g style="fill:#000084; fill-opacity:0.0;  stroke:#000084; stroke-width:1.0475; stroke-opacity:1;  stroke-linecap:round; stroke-linejoin:round;">
<path d="M187.9669 56.2257 L187.9669 66.8681 "/>
<path d="M187.9669 66.8681 L195.0619 66.8681 "/>
<path d="M195.0619 56.2257 L187.9669 56.2257 "/>
<path d="M202.1568 66.8681 L209.2518 66.8681 "/>
<path d="M209.2518 56.2257 L202.1568 56.2257 "/>
<path d="M209.2518 66.8681 L209.2518 56.2257 "/>
<path d="M66.8670 24.1209 L66.8670 43.9868 "/>
<path d="M66.8670 43.9868 L105.9732 43.9868 "/>
<path d="M105.9732 24.1209 L66.8670 24.1209 "/>
<path d="M105.9732 43.9868 L105.9732 24.1209 "/>
<path d="M184.4194 66.8681 L184.4194 56.2257 "/>
<path d="M184.4194 56.2257 L177.3244 56.2257 "/>
<path d="M177.3244 66.8681 L184.4194 66.8681 "/>
<path d="M170.2295 56.2257 L163.1345 56.2257 "/>
<path d="M163.1345 66.8681 L170.2295 66.8681 "/>
<path d="M163.1345 56.2257 L163.1345 66.8681 "/>
</g>
<g style="fill:#000084; fill-opacity:0.0;  stroke:#000084; stroke-width:0.6983; stroke-opacity:1;  stroke-linecap:round; stroke-linejoin:round;">
<circle cx="56.9857" cy="67.8947" r="6.9832"/> 
<path d="M128.4068 84.0888 L128.4068 66.6307 "/>
<path d="M128.4068 66.6307 L125.6135 63.8374 "/>
<path d="M125.6135 63.8374 L117.2336 63.8374 "/>
<path d="M117.2336 84.0888 L128.4068 84.0888 "/>
<path d="M117.2336 63.8374 L117.2336 84.0888 "/>
</g>
<g style="fill:#000084; fill-opacity:0.0;  stroke:#000084; stroke-width:1.0475; stroke-opacity:1;  stroke-linecap:round; stroke-linejoin:round;">
<path d="M14.5835 108.9945 L25.2260 108.9945 "/>
<path d="M25.2260 108.9945 L25.2260 101.8996 "/>
<path d="M14.5835 101.8996 L14.5835 108.9945 "/>
<path d="M25.2260 94.8046 L25.2260 87.7096 "/>
<path d="M14.5835 87.7096 L14.5835 94.8046 "/>
<path d="M25.2260 87.7096 L14.5835 87.7096 "/>
<path d="M226.5458 118.3067 L226.5458 107.6642 "/>
<path d="M226.5458 107.6642 L219.4508 107.6642 "/>
<path d="M219.4508 118.3067 L226.5458 118.3067 "/>
<path d="M212.3559 107.6642 L205.2609 107.6642 "/>
<path d="M205.2609 118.3067 L212.3559 118.3067 "/>
<path d="M205.2609 107.6642 L205.2609 118.3067 "/>
</g>
<g style="fill:#000084; fill-opacity:0.0;  stroke:#000084; stroke-width:0.6983; stroke-opacity:1;  stroke-linecap:round; stroke-linejoin:round;">
<path d="M53.0402 137.6503 L53.0402 116.7005 "/>
<path d="M41.5140 127.1825 L47.8107 127.1825 "/>
<path d="M41.5140 127.1825 L33.4789 132.4151 "/>
<path d="M41.5140 127.1825 L33.4789 121.5952 "/>
<path d="M41.5140 121.5952 L41.5140 132.7698 "/>
<path d="M33.4789 132.4151 L33.4789 121.5952 "/>
<path d="M33.4789 127.1825 L26.5081 127.1825 "/>
<path d="M20.9173 137.6503 L53.0402 137.6503 "/>
<path d="M20.9173 116.7005 L53.0402 116.7005 "/>
<path d="M20.9173 116.7005 L20.9173 137.6503 "/>
</g>
<g style="fill:#000084; fill-opacity:0.0;  stroke:#000084; stroke-width:1.0475; stroke-opacity:1;  stroke-linecap:round; stroke-linejoin:round;">
<path d="M88.7665 108.5511 L47.9704 108.5511 "/>
<path d="M88.7665 83.7187 L88.7665 108.5511 "/>
<path d="M88.7665 83.7187 L47.9704 83.7187 "/>
<path d="M47.9704 83.7187 L47.9704 108.5511 "/>
<path d="M66.8670 166.0204 L66.8670 185.8863 "/>
<path d="M66.8670 185.8863 L105.9732 185.8863 "/>
<path d="M105.9732 166.0204 L66.8670 166.0204 "/>
<path d="M105.9732 185.8863 L105.9732 166.0204 "/>
<path d="M100.4494 201.7075 L100.4494 191.0651 "/>
<path d="M100.4494 191.0651 L93.3545 191.0651 "/>
<path d="M93.3545 201.7075 L100.4494 201.7075 "/>
<path d="M86.2595 191.0651 L79.1645 191.0651 "/>
<path d="M79.1645 201.7075 L86.2595 201.7075 "/>
<path d="M79.1645 191.0651 L79.1645 201.7075 "/>
<g>
</g>
<g>
</g>
<g>
</g>
<g>
</g>
<g>
</g>
<g>
</g>
<g>
</g>
<g>
</g>
<g>
</g>
<g>
</g>
<g>
</g>
<g>
</g>
<g>
</g>
<g>
</g>
<g>
</g>
<g>
</g>
<g>
</g>
<g>
</g>
<g>
</g>
<g>
</g>
<g>
</g>
<g>
</g>
<g>
</g>
<g>
</g>
<g>
</g>
<g>
</g>
<g>
</g>
<g>
</g>
<g>
</g>
<g>
</g>
<g>
</g>
</g> 
<svg:g><svg:g><svg:title>SVG Image created as USB232R02-Edge_Cuts.svg date 2023/07/07 14:49:43 </svg:title>
  <svg:desc>Image generated by PCBNEW </svg:desc>
<svg:g style="fill:#C2C200; fill-opacity:1.0000;stroke:#C2C200; stroke-opacity:1.0000; stroke-linecap:round; stroke-linejoin:round;" transform="translate(0 0) scale(1 1)">
</svg:g>
<svg:g style="fill:#C2C200; fill-opacity:0.0;  stroke:#C2C200; stroke-width:0.0000; stroke-opacity:1;  stroke-linecap:round; stroke-linejoin:round;">
</svg:g>
<svg:g style="fill:#C2C200; fill-opacity:0.0;  stroke:#C2C200; stroke-width:0.6983; stroke-opacity:1;  stroke-linecap:round; stroke-linejoin:round;">
<svg:path style="fill:#C2C200; fill-opacity:0.0;  stroke:#C2C200; stroke-width:0.6983; stroke-opacity:1;  stroke-linecap:round; stroke-linejoin:round;fill:none" d="M 8.3754,0.3528 288.6268,0.3528 288.6268,209.6544 8.3754,209.6544 Z"/> 
</svg:g>
<svg:g style="fill:#C2C200; fill-opacity:0.0;  stroke:#C2C200; stroke-width:0.3492; stroke-opacity:1;  stroke-linecap:round; stroke-linejoin:round;">
<svg:path d="M78.7385 29.1656 L78.7385 38.9422 "/>
<svg:path d="M82.2302 25.6740 L90.6100 25.6740 "/>
<svg:path d="M82.2302 42.4338 L90.6100 42.4338 "/>
<svg:path d="M94.1017 29.1656 L94.1017 38.9422 "/>
<svg:path d="M82.2302 25.6740 A3.4916 3.4916 0.0 0 0 78.7385 29.1656"/>
<svg:path d="M78.7385 38.9422 A3.4916 3.4916 0.0 0 0 82.2302 42.4338"/>
<svg:path d="M94.1017 29.1656 A3.4916 3.4916 0.0 0 0 90.6100 25.6740"/>
<svg:path d="M90.6100 42.4338 A3.4916 3.4916 0.0 0 0 94.1017 38.9422"/>
<svg:path d="M78.7385 171.0651 L78.7385 180.8416 "/>
<svg:path d="M82.2302 167.5734 L90.6100 167.5734 "/>
<svg:path d="M82.2302 184.3332 L90.6100 184.3332 "/>
<svg:path d="M94.1017 171.0651 L94.1017 180.8416 "/>
<svg:path d="M82.2302 167.5734 A3.4916 3.4916 0.0 0 0 78.7385 171.0651"/>
<svg:path d="M78.7385 180.8416 A3.4916 3.4916 0.0 0 0 82.2302 184.3332"/>
<svg:path d="M94.1017 171.0651 A3.4916 3.4916 0.0 0 0 90.6100 167.5734"/>
<svg:path d="M90.6100 184.3332 A3.4916 3.4916 0.0 0 0 94.1017 180.8416"/>
<svg:g>
</svg:g>
<svg:g>
</svg:g>
<svg:g>
</svg:g>
<svg:g>
</svg:g>
<svg:g>
</svg:g>
<svg:g>
</svg:g>
<svg:g>
</svg:g>
<svg:g>
</svg:g>
<svg:g>
</svg:g>
<svg:g>
</svg:g>
<svg:g>
</svg:g>
<svg:g>
</svg:g>
<svg:g>
</svg:g>
<svg:g>
</svg:g>
<svg:g>
</svg:g>
<svg:g>
</svg:g>
<svg:g>
</svg:g>
<svg:g>
</svg:g>
<svg:g>
</svg:g>
<svg:g>
</svg:g>
<svg:g>
</svg:g>
<svg:g>
</svg:g>
<svg:g>
</svg:g>
<svg:g>
</svg:g>
<svg:g>
</svg:g>
<svg:g>
</svg:g>
<svg:g>
</svg:g>
<svg:g>
</svg:g>
<svg:g>
</svg:g>
<svg:g>
</svg:g>
<svg:g>
</svg:g>
</svg:g> 
</svg:g></svg:g></svg>
