<?xml version='1.0' encoding='ASCII' standalone='yes'?>
<svg xmlns:svg="http://www.w3.org/2000/svg" xmlns="http://www.w3.org/2000/svg" xmlns:xlink="http://www.w3.org/1999/xlink" version="1.1" width="29.700220cm" height="21.000720cm" viewBox="0 0 2970022 2100072">
<title>SVG Picture created as USB232R02-F_Fab.svg date 2023/05/27 23:36:54 </title>
  <desc>Picture generated by PCBNEW </desc>
<g style="fill:#848484; fill-opacity:1.000000;stroke:#848484; stroke-opacity:1.000000; stroke-linecap:round; stroke-linejoin:round;" transform="translate(0 0) scale(1 1)">
</g>
<g style="fill:#848484; fill-opacity:0.0;  stroke:#848484; stroke-width:0.000000; stroke-opacity:1;  stroke-linecap:round; stroke-linejoin:round;">
</g>
<g style="fill:#848484; fill-opacity:0.01;  stroke:#848484; stroke-width:10474.860335; stroke-opacity:1;  stroke-linecap:round; stroke-linejoin:round;">
<text x="2285534.709497" y="465329.329609" textLength="342450.488827" font-size="93109.846369" lengthAdjust="spacingAndGlyphs" text-anchor="middle" opacity="0.01" style="font-family:monospace">USB_B</text>
<g class="stroked-text"><desc>USB_B</desc>
<path d="M2435175 392171 L2435175 448702 L2431850 455353 L2428524 458678 L2421874 462003 L2408572 462003 L2401922 458678 L2398596 455353 L2395271 448702 L2395271 392171 "/>
<path d="M2365343 458678 L2355367 462003 L2338740 462003 L2332089 458678 L2328764 455353 L2325438 448702 L2325438 442051 L2328764 435401 L2332089 432075 L2338740 428750 L2352041 425425 L2358692 422099 L2362017 418774 L2365343 412123 L2365343 405472 L2362017 398822 L2358692 395496 L2352041 392171 L2335415 392171 L2325438 395496 "/>
<path d="M2272233 425425 L2262257 428750 L2258931 432075 L2255606 438726 L2255606 448702 L2258931 455353 L2262257 458678 L2268907 462003 L2295510 462003 L2295510 392171 L2272233 392171 L2265582 395496 L2262257 398822 L2258931 405472 L2258931 412123 L2262257 418774 L2265582 422099 L2272233 425425 L2295510 425425 "/>
<path d="M2242305 468654 L2189099 468654 "/>
<path d="M2149195 425425 L2139219 428750 L2135893 432075 L2132568 438726 L2132568 448702 L2135893 455353 L2139219 458678 L2145869 462003 L2172472 462003 L2172472 392171 L2149195 392171 L2142544 395496 L2139219 398822 L2135893 405472 L2135893 412123 L2139219 418774 L2142544 422099 L2149195 425425 L2172472 425425 "/>
</g><text x="2285534.709497" y="1095217.597765" textLength="133330.027933" font-size="93109.846369" lengthAdjust="spacingAndGlyphs" text-anchor="middle" opacity="0.01" style="font-family:monospace">J1</text>
<g class="stroked-text"><desc>J1</desc>
<path d="M2308812 1022059 L2308812 1071940 L2312137 1081916 L2318788 1088566 L2328764 1091892 L2335415 1091892 "/>
<path d="M2238979 1091892 L2278884 1091892 "/>
<path d="M2258931 1091892 L2258931 1022059 L2265582 1032035 L2272233 1038686 L2278884 1042011 "/>
</g><text x="1955367.111732" y="371907.541899" textLength="83449.720670" font-size="93109.846369" lengthAdjust="spacingAndGlyphs" text-anchor="middle" opacity="0.01" style="font-family:monospace">K</text>
<g class="stroked-text"><desc>K</desc>
<path d="M1973656 368582 L1973656 298749 "/>
<path d="M1933752 368582 L1963680 328677 "/>
<path d="M1933752 298749 L1973656 338653 "/>
</g><text x="1955367.111732" y="1790901.955307" textLength="83449.720670" font-size="93109.846369" lengthAdjust="spacingAndGlyphs" text-anchor="middle" opacity="0.01" style="font-family:monospace">K</text>
<g class="stroked-text"><desc>K</desc>
<path d="M1973656 1787576 L1973656 1717744 "/>
<path d="M1933752 1787576 L1963680 1747672 "/>
<path d="M1933752 1717744 L1973656 1757648 "/>
</g></g>
<g style="fill:#848484; fill-opacity:0.0;  stroke:#848484; stroke-width:6983.240223; stroke-opacity:1;  stroke-linecap:round; stroke-linejoin:round;">
<path d="M1709417 637815 L1709417 1412955 "/>
<path d="M2861652 637815 L1709417 637815 "/>
<path d="M1709417 1412955 L1779249 1482787 "/>
<path d="M2861652 1482787 L2861652 637815 "/>
<path d="M1779249 1482787 L2861652 1482787 "/>
</g>
<g style="fill:#848484; fill-opacity:0.0;  stroke:#848484; stroke-width:10474.860335; stroke-opacity:1;  stroke-linecap:round; stroke-linejoin:round;">
<path d="M234836 1493471 L589584 1493471 "/>
<path d="M589584 1493471 L589584 1316097 "/>
<path d="M234836 1316097 L234836 1493471 "/>
<path d="M589584 1316097 L234836 1316097 "/>
<path d="M589584 961348 L589584 783974 "/>
<path d="M234836 961348 L589584 961348 "/>
<path d="M589584 783974 L234836 783974 "/>
<path d="M234836 783974 L234836 961348 "/>
<path d="M589584 606600 L234836 606600 "/>
<path d="M234836 606600 L234836 783974 "/>
<path d="M234836 783974 L589584 783974 "/>
<path d="M589584 783974 L589584 606600 "/>
<path d="M1565143 517913 L1565143 163164 "/>
<path d="M1387769 517913 L1565143 517913 "/>
<path d="M1565143 163164 L1387769 163164 "/>
<path d="M1387769 163164 L1387769 517913 "/>
<path d="M1210395 1582158 L678272 1582158 "/>
<path d="M678272 1582158 L678272 1936907 "/>
<path d="M678272 1936907 L1210395 1936907 "/>
<path d="M1210395 1936907 L1210395 1582158 "/>
<path d="M1919892 340538 L1919892 163164 "/>
<path d="M1742517 340538 L1919892 340538 "/>
<path d="M1919892 163164 L1742517 163164 "/>
<path d="M1742517 163164 L1742517 340538 "/>
<path d="M1742517 340538 L1742517 163164 "/>
<path d="M1565143 340538 L1742517 340538 "/>
<path d="M1742517 163164 L1565143 163164 "/>
<path d="M1565143 163164 L1565143 340538 "/>
<path d="M234836 1138723 L589584 1138723 "/>
<path d="M589584 1138723 L589584 961348 "/>
<path d="M234836 961348 L234836 1138723 "/>
<path d="M589584 961348 L234836 961348 "/>
<path d="M1742517 517913 L1919892 517913 "/>
<path d="M1919892 517913 L1919892 340538 "/>
<path d="M1919892 340538 L1742517 340538 "/>
<path d="M1742517 340538 L1742517 517913 "/>
<path d="M1210395 163164 L1210395 517913 "/>
<path d="M1387769 163164 L1210395 163164 "/>
<path d="M1387769 517913 L1387769 163164 "/>
<path d="M1210395 517913 L1387769 517913 "/>
<path d="M589584 1138723 L234836 1138723 "/>
<path d="M234836 1316097 L589584 1316097 "/>
<path d="M589584 1316097 L589584 1138723 "/>
<path d="M234836 1138723 L234836 1316097 "/>
<path d="M1565143 340538 L1565143 517913 "/>
<path d="M1565143 517913 L1742517 517913 "/>
<path d="M1742517 517913 L1742517 340538 "/>
<path d="M1742517 340538 L1565143 340538 "/>
<path d="M855646 163164 L678272 163164 "/>
<path d="M855646 517913 L855646 163164 "/>
<path d="M678272 517913 L855646 517913 "/>
<path d="M678272 163164 L678272 517913 "/>
<path d="M1033020 517913 L1210395 517913 "/>
<path d="M1210395 517913 L1210395 163164 "/>
<path d="M1210395 163164 L1033020 163164 "/>
<path d="M1033020 163164 L1033020 517913 "/>
<path d="M1033020 517913 L1033020 163164 "/>
<path d="M1033020 163164 L855646 163164 "/>
<path d="M855646 517913 L1033020 517913 "/>
<path d="M855646 163164 L855646 517913 "/>
<path d="M1831205 1582158 L1299082 1582158 "/>
<path d="M1831205 1936907 L1831205 1582158 "/>
<path d="M1299082 1936907 L1831205 1936907 "/>
<path d="M1299082 1582158 L1299082 1936907 "/>
<g>
</g>
<g>
</g>
<g>
</g>
<g>
</g>
<g>
</g>
<g>
</g>
<g>
</g>
<g>
</g>
<g>
</g>
<g>
</g>
<g>
</g>
<g>
</g>
<g>
</g>
<g>
</g>
<g>
</g>
<g>
</g>
<g>
</g>
<g>
</g>
<g>
</g>
<g>
</g>
<g>
</g>
<g>
</g>
<g>
</g>
<g>
</g>
<g>
</g>
<g>
</g>
<g>
</g>
<g>
</g>
<g>
</g>
<g>
</g>
<g>
</g>
<g>
</g>
<g>
</g>
<g>
</g>
<g>
</g>
<g>
</g>
<g>
</g>
<g>
</g>
<g>
</g>
<g>
</g>
<g>
</g>
</g> 
<svg:g><svg:g><svg:title>SVG Picture created as USB232R02-Edge_Cuts.svg date 2023/05/27 23:36:54 </svg:title>
  <svg:desc>Picture generated by PCBNEW </svg:desc>
<svg:g style="fill:#C2C200; fill-opacity:1.000000;stroke:#C2C200; stroke-opacity:1.000000; stroke-linecap:round; stroke-linejoin:round;" transform="translate(0 0) scale(1 1)">
</svg:g>
<svg:g style="fill:#C2C200; fill-opacity:0.0;  stroke:#C2C200; stroke-width:0.000000; stroke-opacity:1;  stroke-linecap:round; stroke-linejoin:round;">
</svg:g>
<svg:g style="fill:#C2C200; fill-opacity:0.0;  stroke:#C2C200; stroke-width:6983.240223; stroke-opacity:1;  stroke-linecap:round; stroke-linejoin:round;">
<svg:path d="M2877713 3527 L75199 3527 "/>
<svg:path d="M75199 3527 L75199 2096544 "/>
<svg:path d="M75199 2096544 L2877713 2096544 "/>
<svg:path d="M2877713 2096544 L2877713 3527 "/>
<svg:g>
</svg:g>
<svg:g>
</svg:g>
<svg:g>
</svg:g>
<svg:g>
</svg:g>
<svg:g>
</svg:g>
<svg:g>
</svg:g>
<svg:g>
</svg:g>
<svg:g>
</svg:g>
<svg:g>
</svg:g>
<svg:g>
</svg:g>
<svg:g>
</svg:g>
<svg:g>
</svg:g>
<svg:g>
</svg:g>
<svg:g>
</svg:g>
<svg:g>
</svg:g>
<svg:g>
</svg:g>
<svg:g>
</svg:g>
<svg:g>
</svg:g>
<svg:g>
</svg:g>
<svg:g>
</svg:g>
<svg:g>
</svg:g>
<svg:g>
</svg:g>
<svg:g>
</svg:g>
<svg:g>
</svg:g>
<svg:g>
</svg:g>
<svg:g>
</svg:g>
<svg:g>
</svg:g>
<svg:g>
</svg:g>
<svg:g>
</svg:g>
<svg:g>
</svg:g>
<svg:g>
</svg:g>
<svg:g>
</svg:g>
<svg:g>
</svg:g>
<svg:g>
</svg:g>
<svg:g>
</svg:g>
<svg:g>
</svg:g>
<svg:g>
</svg:g>
<svg:g>
</svg:g>
<svg:g>
</svg:g>
<svg:g>
</svg:g>
<svg:g>
</svg:g>
</svg:g> 
</svg:g></svg:g></svg>
