<?xml version='1.0' encoding='ASCII' standalone='yes'?>
<svg xmlns:svg="http://www.w3.org/2000/svg" xmlns="http://www.w3.org/2000/svg" xmlns:xlink="http://www.w3.org/1999/xlink" version="1.1" width="29.700220cm" height="21.000720cm" viewBox="0 0 2970022 2100072">
<title>SVG Picture created as USB232R02-B_Fab.svg date 2023/05/25 01:24:21 </title>
  <desc>Picture generated by PCBNEW </desc>
<g style="fill:#000084; fill-opacity:1.000000;stroke:#000084; stroke-opacity:1.000000; stroke-linecap:round; stroke-linejoin:round;" transform="translate(0 0) scale(1 1)">
</g>
<g style="fill:#000084; fill-opacity:0.0;  stroke:#000084; stroke-width:0.000000; stroke-opacity:1;  stroke-linecap:round; stroke-linejoin:round;">
</g>
<g style="fill:#000084; fill-opacity:0.01;  stroke:#000084; stroke-width:7627.094972; stroke-opacity:1;  stroke-linecap:round; stroke-linejoin:round;">
<text x="842029.189944" y="158464.106145" transform="scale(-1 1) translate(-1684058.379888 0)" textLength="58306.284916" font-size="46590.293296" lengthAdjust="spacingAndGlyphs" text-anchor="middle" opacity="0.01" style="font-family:monospace">R3</text>
<g class="stroked-text"><desc>R3</desc>
<path d="M847852 156800 L859500 140160 "/>
<path d="M867820 156800 L867820 121857 L854508 121857 L851180 123521 L849516 125185 L847852 128513 L847852 133504 L849516 136832 L851180 138496 L854508 140160 L867820 140160 "/>
<path d="M836205 121857 L814574 121857 L826221 135168 L821229 135168 L817902 136832 L816238 138496 L814574 141824 L814574 150144 L816238 153472 L817902 155136 L821229 156800 L831213 156800 L834541 155136 L836205 153472 "/>
</g><text x="850897.905028" y="109686.173184" transform="scale(-1 1) translate(-1701795.810056 0)" textLength="124863.896648" font-size="46590.293296" lengthAdjust="spacingAndGlyphs" text-anchor="middle" opacity="0.01" style="font-family:monospace">270R</text>
<g class="stroked-text"><desc>270R</desc>
<path d="M911631 76407 L909967 74743 L906639 73079 L898320 73079 L894992 74743 L893328 76407 L891664 79735 L891664 83063 L893328 88054 L913295 108022 L891664 108022 "/>
<path d="M880016 73079 L856721 73079 L871697 108022 "/>
<path d="M836754 73079 L833426 73079 L830098 74743 L828434 76407 L826770 79735 L825106 86390 L825106 94710 L826770 101366 L828434 104694 L830098 106358 L833426 108022 L836754 108022 L840082 106358 L841746 104694 L843410 101366 L845074 94710 L845074 86390 L843410 79735 L841746 76407 L840082 74743 L836754 73079 "/>
<path d="M790164 108022 L801811 91382 "/>
<path d="M810131 108022 L810131 73079 L796819 73079 L793491 74743 L791828 76407 L790164 79735 L790164 84727 L791828 88054 L793491 89718 L796819 91382 L810131 91382 "/>
</g><g transform="rotate(-90.000000 1560395.111732 673115.642458)">
<text x="1560395.111732" y="690587.011173" transform="scale(-1 1) translate(-3120790.223464 0)" textLength="58306.284916" font-size="46590.293296" lengthAdjust="spacingAndGlyphs" text-anchor="middle" opacity="0.01" style="font-family:monospace">C3</text>
</g>
<g class="stroked-text"><desc>C3</desc>
<path d="M1572874 667291 L1574538 665627 L1576202 660636 L1576202 657308 L1574538 652316 L1571210 648988 L1567882 647324 L1561227 645660 L1556235 645660 L1549579 647324 L1546251 648988 L1542923 652316 L1541259 657308 L1541259 660636 L1542923 665627 L1544587 667291 "/>
<path d="M1541259 678939 L1541259 700570 L1554571 688923 L1554571 693914 L1556235 697242 L1557899 698906 L1561227 700570 L1569546 700570 L1572874 698906 L1574538 697242 L1576202 693914 L1576202 683931 L1574538 680603 L1572874 678939 "/>
</g><g transform="rotate(-90.000000 1511617.178771 664246.927374)">
<text x="1511617.178771" y="681718.296089" transform="scale(-1 1) translate(-3023234.357542 0)" textLength="151486.941341" font-size="46590.293296" lengthAdjust="spacingAndGlyphs" text-anchor="middle" opacity="0.01" style="font-family:monospace">100nF</text>
</g>
<g class="stroked-text"><desc>100nF</desc>
<path d="M1527424 610168 L1527424 590201 "/>
<path d="M1527424 600185 L1492481 600185 L1497473 596857 L1500801 593529 L1502465 590201 "/>
<path d="M1492481 631800 L1492481 635127 L1494145 638455 L1495809 640119 L1499137 641783 L1505793 643447 L1514113 643447 L1520768 641783 L1524096 640119 L1525760 638455 L1527424 635127 L1527424 631800 L1525760 628472 L1524096 626808 L1520768 625144 L1514113 623480 L1505793 623480 L1499137 625144 L1495809 626808 L1494145 628472 L1492481 631800 "/>
<path d="M1492481 665078 L1492481 668406 L1494145 671734 L1495809 673398 L1499137 675062 L1505793 676726 L1514113 676726 L1520768 675062 L1524096 673398 L1525760 671734 L1527424 668406 L1527424 665078 L1525760 661750 L1524096 660087 L1520768 658423 L1514113 656759 L1505793 656759 L1499137 658423 L1495809 660087 L1494145 661750 L1492481 665078 "/>
<path d="M1504129 691701 L1527424 691701 "/>
<path d="M1507457 691701 L1505793 693365 L1504129 696693 L1504129 701685 L1505793 705013 L1509121 706677 L1527424 706677 "/>
<path d="M1509121 734964 L1509121 723316 "/>
<path d="M1527424 723316 L1492481 723316 L1492481 739956 "/>
</g><g transform="rotate(-90.000000 354249.860335 983520.670391)">
<text x="354249.860335" y="1000992.039106" transform="scale(-1 1) translate(-708499.720670 0)" textLength="88257.262570" font-size="46590.293296" lengthAdjust="spacingAndGlyphs" text-anchor="middle" opacity="0.01" style="font-family:monospace">FB1</text>
</g>
<g class="stroked-text"><desc>FB1</desc>
<path d="M351753 954401 L351753 942754 "/>
<path d="M370057 942754 L335114 942754 L335114 959393 "/>
<path d="M351753 984352 L353417 989344 L355081 991008 L358409 992672 L363401 992672 L366729 991008 L368393 989344 L370057 986016 L370057 972705 L335114 972705 L335114 984352 L336778 987680 L338442 989344 L341770 991008 L345098 991008 L348426 989344 L350089 987680 L351753 984352 L351753 972705 "/>
<path d="M370057 1025951 L370057 1005983 "/>
<path d="M370057 1015967 L335114 1015967 L340106 1012639 L343434 1009311 L345098 1005983 "/>
</g><text x="309906.284916" y="734930.586592" transform="scale(-1 1) translate(-619812.569832 0)" textLength="58306.284916" font-size="46590.293296" lengthAdjust="spacingAndGlyphs" text-anchor="middle" opacity="0.01" style="font-family:monospace">C1</text>
<g class="stroked-text"><desc>C1</desc>
<path d="M315730 729938 L317393 731602 L322385 733266 L325713 733266 L330705 731602 L334033 728274 L335697 724946 L337361 718291 L337361 713299 L335697 706643 L334033 703315 L330705 699987 L325713 698323 L322385 698323 L317393 699987 L315730 701651 "/>
<path d="M282451 733266 L302418 733266 "/>
<path d="M292434 733266 L292434 698323 L295762 703315 L299090 706643 L302418 708307 "/>
</g><text x="301037.569832" y="783708.519553" transform="scale(-1 1) translate(-602075.139665 0)" textLength="118208.170391" font-size="46590.293296" lengthAdjust="spacingAndGlyphs" text-anchor="middle" opacity="0.01" style="font-family:monospace">10nF</text>
<g class="stroked-text"><desc>10nF</desc>
<path d="M338476 782044 L358443 782044 "/>
<path d="M348459 782044 L348459 747101 L351787 752093 L355115 755421 L358443 757085 "/>
<path d="M316844 747101 L313517 747101 L310189 748765 L308525 750429 L306861 753757 L305197 760413 L305197 768733 L306861 775388 L308525 778716 L310189 780380 L313517 782044 L316844 782044 L320172 780380 L321836 778716 L323500 775388 L325164 768733 L325164 760413 L323500 753757 L321836 750429 L320172 748765 L316844 747101 "/>
<path d="M290221 758749 L290221 782044 "/>
<path d="M290221 762077 L288557 760413 L285230 758749 L280238 758749 L276910 760413 L275246 763741 L275246 782044 "/>
<path d="M246959 763741 L258607 763741 "/>
<path d="M258607 782044 L258607 747101 L241967 747101 "/>
</g><text x="2234417.458101" y="655112.150838" transform="scale(-1 1) translate(-4468834.916201 0)" textLength="58306.284916" font-size="46590.293296" lengthAdjust="spacingAndGlyphs" text-anchor="middle" opacity="0.01" style="font-family:monospace">R2</text>
<g class="stroked-text"><desc>R2</desc>
<path d="M2240241 653448 L2251888 636808 "/>
<path d="M2260208 653448 L2260208 618505 L2246896 618505 L2243569 620169 L2241905 621833 L2240241 625161 L2240241 630153 L2241905 633480 L2243569 635144 L2246896 636808 L2260208 636808 "/>
<path d="M2226929 621833 L2225265 620169 L2221937 618505 L2213618 618505 L2210290 620169 L2208626 621833 L2206962 625161 L2206962 628489 L2208626 633480 L2228593 653448 L2206962 653448 "/>
</g><text x="2243286.173184" y="606334.217877" transform="scale(-1 1) translate(-4486572.346369 0)" textLength="84929.329609" font-size="46590.293296" lengthAdjust="spacingAndGlyphs" text-anchor="middle" opacity="0.01" style="font-family:monospace">10k</text>
<g class="stroked-text"><desc>10k</desc>
<path d="M2264085 604670 L2284052 604670 "/>
<path d="M2274068 604670 L2274068 569727 L2277396 574719 L2280724 578047 L2284052 579711 "/>
<path d="M2242454 569727 L2239126 569727 L2235798 571391 L2234134 573055 L2232470 576383 L2230806 583039 L2230806 591358 L2232470 598014 L2234134 601342 L2235798 603006 L2239126 604670 L2242454 604670 L2245782 603006 L2247446 601342 L2249109 598014 L2250773 591358 L2250773 583039 L2249109 576383 L2247446 573055 L2245782 571391 L2242454 569727 "/>
<path d="M2215831 604670 L2215831 569727 "/>
<path d="M2212503 591358 L2202519 604670 "/>
<path d="M2202519 581375 L2215831 594686 "/>
</g></g>
<g style="fill:#000084; fill-opacity:0.0;  stroke:#000084; stroke-width:10474.860335; stroke-opacity:1;  stroke-linecap:round; stroke-linejoin:round;">
<g transform="rotate(-90.000000 1795416.061453 961348.882682)">
<text x="1795416.061453" y="996265.083799" transform="scale(-1 1) translate(-3590832.122905 0)" textLength="129749.581006" font-size="93109.846369" lengthAdjust="spacingAndGlyphs" text-anchor="middle" opacity="0.01" style="font-family:monospace">U2</text>
</g>
<g class="stroked-text"><desc>U2</desc>
<path d="M1757174 908143 L1813705 908143 L1820356 911468 L1823681 914793 L1827006 921444 L1827006 934746 L1823681 941396 L1820356 944722 L1813705 948047 L1757174 948047 "/>
<path d="M1763825 977975 L1760499 981300 L1757174 987951 L1757174 1004578 L1760499 1011229 L1763825 1014554 L1770475 1017879 L1777126 1017879 L1787102 1014554 L1827006 974650 L1827006 1017879 "/>
</g></g>
<g style="fill:#000084; fill-opacity:0.01;  stroke:#000084; stroke-width:7627.094972; stroke-opacity:1;  stroke-linecap:round; stroke-linejoin:round;">
<text x="1986093.435754" y="655112.150838" transform="scale(-1 1) translate(-3972186.871508 0)" textLength="54604.189944" font-size="46590.293296" lengthAdjust="spacingAndGlyphs" text-anchor="middle" opacity="0.01" style="font-family:monospace">R1</text>
<g class="stroked-text"><desc>R1</desc>
<path d="M1991917 653448 L2003564 636808 "/>
<path d="M2011884 653448 L2011884 618505 L1998572 618505 L1995245 620169 L1993581 621833 L1991917 625161 L1991917 630153 L1993581 633480 L1995245 635144 L1998572 636808 L2011884 636808 "/>
<path d="M1958638 653448 L1978605 653448 "/>
<path d="M1968622 653448 L1968622 618505 L1971949 623497 L1975277 626825 L1978605 628489 "/>
</g><text x="1994962.150838" y="606334.217877" transform="scale(-1 1) translate(-3989924.301676 0)" textLength="84929.329609" font-size="46590.293296" lengthAdjust="spacingAndGlyphs" text-anchor="middle" opacity="0.01" style="font-family:monospace">4k7</text>
<g class="stroked-text"><desc>4k7</desc>
<path d="M2019089 581375 L2019089 604670 "/>
<path d="M2027408 568063 L2035728 593022 L2014097 593022 "/>
<path d="M2000785 604670 L2000785 569727 "/>
<path d="M1997458 591358 L1987474 604670 "/>
<path d="M1987474 581375 L2000785 594686 "/>
<path d="M1975826 569727 L1952531 569727 L1967507 604670 "/>
</g></g>
<g style="fill:#000084; fill-opacity:0.01;  stroke:#000084; stroke-width:10474.860335; stroke-opacity:1;  stroke-linecap:round; stroke-linejoin:round;">
<text x="993684.217877" y="381334.916201" transform="scale(-1 1) translate(-1987368.435754 0)" textLength="78771.927374" font-size="118249.511173" lengthAdjust="spacingAndGlyphs" text-anchor="middle" opacity="0.01" style="font-family:monospace">K</text>
<g class="stroked-text"><desc>K</desc>
<path d="M1016911 377111 L1016911 288424 "/>
<path d="M966233 377111 L1004242 326433 "/>
<path d="M966233 288424 L1016911 339102 "/>
</g><text x="864200.977654" y="384882.402235" transform="scale(-1 1) translate(-1728401.955307 0)" textLength="159533.798883" font-size="118249.511173" lengthAdjust="spacingAndGlyphs" text-anchor="middle" opacity="0.01" style="font-family:monospace">D2</text>
<g class="stroked-text"><desc>D2</desc>
<path d="M929660 380659 L929660 291971 L908544 291971 L895874 296195 L887428 304641 L883205 313087 L878982 329980 L878982 342650 L883205 359543 L887428 367989 L895874 376435 L908544 380659 L929660 380659 "/>
<path d="M845196 300418 L840973 296195 L832526 291971 L811410 291971 L802964 296195 L798741 300418 L794518 308864 L794518 317311 L798741 329980 L849419 380659 L794518 380659 "/>
</g></g>
<g style="fill:#000084; fill-opacity:0.01;  stroke:#000084; stroke-width:7627.094972; stroke-opacity:1;  stroke-linecap:round; stroke-linejoin:round;">
<text x="1737769.413408" y="610768.575419" transform="scale(-1 1) translate(-3475538.826816 0)" textLength="54604.189944" font-size="46590.293296" lengthAdjust="spacingAndGlyphs" text-anchor="middle" opacity="0.01" style="font-family:monospace">C4</text>
<g class="stroked-text"><desc>C4</desc>
<path d="M1743593 605776 L1745257 607440 L1750248 609104 L1753576 609104 L1758568 607440 L1761896 604112 L1763560 600784 L1765224 594129 L1765224 589137 L1763560 582481 L1761896 579153 L1758568 575825 L1753576 574161 L1750248 574161 L1745257 575825 L1743593 577489 "/>
<path d="M1713642 585809 L1713642 609104 "/>
<path d="M1721961 572497 L1730281 597457 L1708650 597457 "/>
</g><text x="1728900.698324" y="659546.508380" transform="scale(-1 1) translate(-3457801.396648 0)" textLength="151486.941341" font-size="46590.293296" lengthAdjust="spacingAndGlyphs" text-anchor="middle" opacity="0.01" style="font-family:monospace">100nF</text>
<g class="stroked-text"><desc>100nF</desc>
<path d="M1782978 657882 L1802946 657882 "/>
<path d="M1792962 657882 L1792962 622939 L1796290 627931 L1799618 631259 L1802946 632923 "/>
<path d="M1761347 622939 L1758019 622939 L1754691 624603 L1753027 626267 L1751363 629595 L1749699 636251 L1749699 644571 L1751363 651226 L1753027 654554 L1754691 656218 L1758019 657882 L1761347 657882 L1764675 656218 L1766339 654554 L1768003 651226 L1769667 644571 L1769667 636251 L1768003 629595 L1766339 626267 L1764675 624603 L1761347 622939 "/>
<path d="M1728068 622939 L1724740 622939 L1721412 624603 L1719749 626267 L1718085 629595 L1716421 636251 L1716421 644571 L1718085 651226 L1719749 654554 L1721412 656218 L1724740 657882 L1728068 657882 L1731396 656218 L1733060 654554 L1734724 651226 L1736388 644571 L1736388 636251 L1734724 629595 L1733060 626267 L1731396 624603 L1728068 622939 "/>
<path d="M1701445 634587 L1701445 657882 "/>
<path d="M1701445 637915 L1699781 636251 L1696453 634587 L1691462 634587 L1688134 636251 L1686470 639579 L1686470 657882 "/>
<path d="M1658183 639579 L1669830 639579 "/>
<path d="M1669830 657882 L1669830 622939 L1653191 622939 "/>
</g></g>
<g style="fill:#000084; fill-opacity:0.01;  stroke:#000084; stroke-width:4189.944134; stroke-opacity:1;  stroke-linecap:round; stroke-linejoin:round;">
<text x="1228202.374302" y="753597.486034" transform="scale(-1 1) translate(-2456404.748603 0)" textLength="45950.698324" font-size="37243.924581" lengthAdjust="spacingAndGlyphs" text-anchor="middle" opacity="0.01" style="font-family:monospace">U1</text>
<g class="stroked-text"><desc>U1</desc>
<path d="M1249484 724334 L1249484 746946 L1248154 749607 L1246824 750937 L1244164 752267 L1238843 752267 L1236183 750937 L1234853 749607 L1233522 746946 L1233522 724334 "/>
<path d="M1205589 752267 L1221551 752267 "/>
<path d="M1213570 752267 L1213570 724334 L1216231 728324 L1218891 730985 L1221551 732315 "/>
</g></g>
<g style="fill:#000084; fill-opacity:0.01;  stroke:#000084; stroke-width:7627.094972; stroke-opacity:1;  stroke-linecap:round; stroke-linejoin:round;">
<g transform="rotate(-90.000000 221219.134078 983520.670391)">
<text x="221219.134078" y="1000992.039106" transform="scale(-1 1) translate(-442438.268156 0)" textLength="62774.581006" font-size="46590.293296" lengthAdjust="spacingAndGlyphs" text-anchor="middle" opacity="0.01" style="font-family:monospace">C2</text>
</g>
<g class="stroked-text"><desc>C2</desc>
<path d="M233698 977696 L235362 976032 L237026 971041 L237026 967713 L235362 962721 L232034 959393 L228706 957729 L222051 956065 L217059 956065 L210403 957729 L207075 959393 L203747 962721 L202083 967713 L202083 971041 L203747 976032 L205411 977696 "/>
<path d="M205411 991008 L203747 992672 L202083 996000 L202083 1004319 L203747 1007647 L205411 1009311 L208739 1010975 L212067 1010975 L217059 1009311 L237026 989344 L237026 1010975 "/>
</g><g transform="rotate(-90.000000 172441.201117 974651.955307)">
<text x="172441.201117" y="992123.324022" transform="scale(-1 1) translate(-344882.402235 0)" textLength="118208.170391" font-size="46590.293296" lengthAdjust="spacingAndGlyphs" text-anchor="middle" opacity="0.01" style="font-family:monospace">10uF</text>
</g>
<g class="stroked-text"><desc>10uF</desc>
<path d="M188248 937213 L188248 917246 "/>
<path d="M188248 927229 L153305 927229 L158297 923901 L161625 920573 L163289 917246 "/>
<path d="M153305 958844 L153305 962172 L154969 965500 L156633 967164 L159961 968828 L166617 970492 L174937 970492 L181592 968828 L184920 967164 L186584 965500 L188248 962172 L188248 958844 L186584 955516 L184920 953852 L181592 952188 L174937 950524 L166617 950524 L159961 952188 L156633 953852 L154969 955516 L153305 958844 "/>
<path d="M164953 1000443 L188248 1000443 "/>
<path d="M164953 985467 L183256 985467 L186584 987131 L188248 990459 L188248 995451 L186584 998779 L184920 1000443 "/>
<path d="M169945 1028729 L169945 1017082 "/>
<path d="M188248 1017082 L153305 1017082 L153305 1033721 "/>
</g><text x="2159033.379888" y="1125154.050279" transform="scale(-1 1) translate(-4318066.759777 0)" textLength="58306.284916" font-size="46590.293296" lengthAdjust="spacingAndGlyphs" text-anchor="middle" opacity="0.01" style="font-family:monospace">C5</text>
<g class="stroked-text"><desc>C5</desc>
<path d="M2164857 1120162 L2166521 1121826 L2171512 1123490 L2174840 1123490 L2179832 1121826 L2183160 1118498 L2184824 1115170 L2186488 1108514 L2186488 1103522 L2184824 1096867 L2183160 1093539 L2179832 1090211 L2174840 1088547 L2171512 1088547 L2166521 1090211 L2164857 1091875 "/>
<path d="M2133242 1088547 L2149881 1088547 L2151545 1105186 L2149881 1103522 L2146553 1101858 L2138234 1101858 L2134906 1103522 L2133242 1105186 L2131578 1108514 L2131578 1116834 L2133242 1120162 L2134906 1121826 L2138234 1123490 L2146553 1123490 L2149881 1121826 L2151545 1120162 "/>
</g><text x="2150164.664804" y="1173931.983240" transform="scale(-1 1) translate(-4300329.329609 0)" textLength="151486.941341" font-size="46590.293296" lengthAdjust="spacingAndGlyphs" text-anchor="middle" opacity="0.01" style="font-family:monospace">100nF</text>
<g class="stroked-text"><desc>100nF</desc>
<path d="M2204242 1172268 L2224209 1172268 "/>
<path d="M2214226 1172268 L2214226 1137325 L2217554 1142317 L2220882 1145644 L2224209 1147308 "/>
<path d="M2182611 1137325 L2179283 1137325 L2175955 1138989 L2174291 1140653 L2172627 1143981 L2170963 1150636 L2170963 1158956 L2172627 1165612 L2174291 1168940 L2175955 1170604 L2179283 1172268 L2182611 1172268 L2185939 1170604 L2187603 1168940 L2189267 1165612 L2190931 1158956 L2190931 1150636 L2189267 1143981 L2187603 1140653 L2185939 1138989 L2182611 1137325 "/>
<path d="M2149332 1137325 L2146004 1137325 L2142676 1138989 L2141012 1140653 L2139349 1143981 L2137685 1150636 L2137685 1158956 L2139349 1165612 L2141012 1168940 L2142676 1170604 L2146004 1172268 L2149332 1172268 L2152660 1170604 L2154324 1168940 L2155988 1165612 L2157652 1158956 L2157652 1150636 L2155988 1143981 L2154324 1140653 L2152660 1138989 L2149332 1137325 "/>
<path d="M2122709 1148972 L2122709 1172268 "/>
<path d="M2122709 1152300 L2121045 1150636 L2117717 1148972 L2112725 1148972 L2109398 1150636 L2107734 1153964 L2107734 1172268 "/>
<path d="M2079447 1153964 L2091094 1153964 "/>
<path d="M2091094 1172268 L2091094 1137325 L2074455 1137325 "/>
</g></g>
<g style="fill:#000084; fill-opacity:0.01;  stroke:#000084; stroke-width:10474.860335; stroke-opacity:1;  stroke-linecap:round; stroke-linejoin:round;">
<text x="374964.245810" y="1475175.698324" transform="scale(-1 1) translate(-749928.491620 0)" textLength="126424.231844" font-size="93109.846369" lengthAdjust="spacingAndGlyphs" text-anchor="middle" opacity="0.01" style="font-family:monospace">D1</text>
<g class="stroked-text"><desc>D1</desc>
<path d="M426507 1471850 L426507 1402017 L409880 1402017 L399904 1405343 L393253 1411993 L389928 1418644 L386602 1431946 L386602 1441922 L389928 1455223 L393253 1461874 L399904 1468524 L409880 1471850 L426507 1471850 "/>
<path d="M320095 1471850 L360000 1471850 "/>
<path d="M340048 1471850 L340048 1402017 L346698 1411993 L353349 1418644 L360000 1421970 "/>
</g></g>
<g style="fill:#000084; fill-opacity:0.01;  stroke:#000084; stroke-width:21284.916201; stroke-opacity:1;  stroke-linecap:round; stroke-linejoin:round;">
<text x="683684.217877" y="1014561.173184" transform="scale(-1 1) translate(-1367368.435754 0)" textLength="178960.474860" font-size="141899.441341" lengthAdjust="spacingAndGlyphs" text-anchor="middle" opacity="0.01" style="font-family:monospace">F1</text>
<g class="stroked-text"><desc>F1</desc>
<path d="M719159 953747 L754633 953747 "/>
<path d="M754633 1009493 L754633 903068 L703955 903068 "/>
<path d="M607666 1009493 L668480 1009493 "/>
<path d="M638073 1009493 L638073 903068 L648209 918272 L658344 928407 L668480 933475 "/>
</g></g>
<g style="fill:#000084; fill-opacity:0.01;  stroke:#000084; stroke-width:10474.860335; stroke-opacity:1;  stroke-linecap:round; stroke-linejoin:round;">
<text x="864200.977654" y="1803876.815642" transform="scale(-1 1) translate(-1728401.955307 0)" textLength="145480.726257" font-size="118249.511173" lengthAdjust="spacingAndGlyphs" text-anchor="middle" opacity="0.01" style="font-family:monospace">D3</text>
<g class="stroked-text"><desc>D3</desc>
<path d="M929660 1799653 L929660 1710966 L908544 1710966 L895874 1715189 L887428 1723636 L883205 1732082 L878982 1748975 L878982 1761644 L883205 1778537 L887428 1786984 L895874 1795430 L908544 1799653 L929660 1799653 "/>
<path d="M849419 1710966 L794518 1710966 L824080 1744752 L811410 1744752 L802964 1748975 L798741 1753198 L794518 1761644 L794518 1782760 L798741 1791207 L802964 1795430 L811410 1799653 L836750 1799653 L845196 1795430 L849419 1791207 "/>
</g><text x="993684.217877" y="1800329.329609" transform="scale(-1 1) translate(-1987368.435754 0)" textLength="75069.832402" font-size="118249.511173" lengthAdjust="spacingAndGlyphs" text-anchor="middle" opacity="0.01" style="font-family:monospace">K</text>
<g class="stroked-text"><desc>K</desc>
<path d="M1016911 1796106 L1016911 1707418 "/>
<path d="M966233 1796106 L1004242 1745427 "/>
<path d="M966233 1707418 L1016911 1758097 "/>
</g></g>
<g style="fill:#000084; fill-opacity:0.01;  stroke:#000084; stroke-width:7627.094972; stroke-opacity:1;  stroke-linecap:round; stroke-linejoin:round;">
<text x="898069.692737" y="1959162.430168" transform="scale(-1 1) translate(-1796139.385475 0)" textLength="54604.189944" font-size="46590.293296" lengthAdjust="spacingAndGlyphs" text-anchor="middle" opacity="0.01" style="font-family:monospace">R4</text>
<g class="stroked-text"><desc>R4</desc>
<path d="M903893 1957498 L915541 1940859 "/>
<path d="M923860 1957498 L923860 1922555 L910549 1922555 L907221 1924219 L905557 1925883 L903893 1929211 L903893 1934203 L905557 1937531 L907221 1939195 L910549 1940859 L923860 1940859 "/>
<path d="M873942 1934203 L873942 1957498 "/>
<path d="M882262 1920891 L890581 1945850 L868950 1945850 "/>
</g><text x="889200.977654" y="2007940.363128" transform="scale(-1 1) translate(-1778401.955307 0)" textLength="124863.896648" font-size="46590.293296" lengthAdjust="spacingAndGlyphs" text-anchor="middle" opacity="0.01" style="font-family:monospace">270R</text>
<g class="stroked-text"><desc>270R</desc>
<path d="M949934 1974661 L948270 1972997 L944942 1971333 L936623 1971333 L933295 1972997 L931631 1974661 L929967 1977989 L929967 1981317 L931631 1986309 L951598 2006276 L929967 2006276 "/>
<path d="M918319 1971333 L895024 1971333 L910000 2006276 "/>
<path d="M875057 1971333 L871729 1971333 L868401 1972997 L866737 1974661 L865073 1977989 L863409 1984645 L863409 1992964 L865073 1999620 L866737 2002948 L868401 2004612 L871729 2006276 L875057 2006276 L878385 2004612 L880049 2002948 L881713 1999620 L883377 1992964 L883377 1984645 L881713 1977989 L880049 1974661 L878385 1972997 L875057 1971333 "/>
<path d="M828467 2006276 L840114 1989637 "/>
<path d="M848434 2006276 L848434 1971333 L835122 1971333 L831795 1972997 L830131 1974661 L828467 1977989 L828467 1982981 L830131 1986309 L831795 1987973 L835122 1989637 L848434 1989637 "/>
</g></g>
<g style="fill:#000084; fill-opacity:0.0;  stroke:#000084; stroke-width:26606.145251; stroke-opacity:1;  stroke-linecap:round; stroke-linejoin:round;">
<circle cx="420765.223464" cy="1759533.240223" r="209479.050279"/> 
</g>
<g style="fill:#000084; fill-opacity:0.0;  stroke:#000084; stroke-width:10474.860335; stroke-opacity:1;  stroke-linecap:round; stroke-linejoin:round;">
<path d="M877504 172033 L948453 172033 "/>
<path d="M948453 172033 L948453 65608 "/>
<path d="M735604 65608 L735604 172033 "/>
<path d="M806554 65608 L735604 65608 "/>
<path d="M948453 65608 L877504 65608 "/>
<path d="M735604 172033 L806554 172033 "/>
<path d="M1485011 566691 L1485011 637640 "/>
<path d="M1591435 566691 L1485011 566691 "/>
<path d="M1485011 708590 L1485011 779540 "/>
<path d="M1485011 779540 L1591435 779540 "/>
<path d="M1591435 779540 L1591435 708590 "/>
<path d="M1591435 637640 L1591435 566691 "/>
<path d="M429633 877096 L323209 877096 "/>
<path d="M323209 1089945 L429633 1089945 "/>
<path d="M429633 1089945 L429633 1018995 "/>
<path d="M429633 948045 L429633 877096 "/>
<path d="M323209 877096 L323209 948045 "/>
<path d="M323209 1018995 L323209 1089945 "/>
</g>
<g style="fill:#000084; fill-opacity:0.0;  stroke:#000084; stroke-width:26606.145251; stroke-opacity:1;  stroke-linecap:round; stroke-linejoin:round;">
<circle cx="2549256.843575" cy="1759533.240223" r="209479.050279"/> 
</g>
<g style="fill:#000084; fill-opacity:0.0;  stroke:#000084; stroke-width:10474.860335; stroke-opacity:1;  stroke-linecap:round; stroke-linejoin:round;">
<path d="M416330 686418 L345381 686418 "/>
<path d="M416330 792843 L416330 686418 "/>
<path d="M203481 792843 L274431 792843 "/>
<path d="M203481 686418 L203481 792843 "/>
<path d="M345381 792843 L416330 792843 "/>
<path d="M274431 686418 L203481 686418 "/>
<path d="M2127992 562256 L2127992 668681 "/>
<path d="M2127992 668681 L2198942 668681 "/>
<path d="M2269892 668681 L2340842 668681 "/>
<path d="M2340842 668681 L2340842 562256 "/>
<path d="M2340842 562256 L2269892 562256 "/>
<path d="M2198942 562256 L2127992 562256 "/>
</g>
<g style="fill:#000084; fill-opacity:0.0;  stroke:#000084; stroke-width:6983.240223; stroke-opacity:1;  stroke-linecap:round; stroke-linejoin:round;">
<path d="M1655751 1101013 L1865248 1101013 "/>
<path d="M1655751 821684 L1655751 1101013 "/>
<path d="M1935080 821684 L1655751 821684 "/>
<path d="M1865248 1101013 L1935080 1031181 "/>
<path d="M1935080 1031181 L1935080 821684 "/>
</g>
<g style="fill:#000084; fill-opacity:0.0;  stroke:#000084; stroke-width:10474.860335; stroke-opacity:1;  stroke-linecap:round; stroke-linejoin:round;">
<path d="M1879668 668681 L1950618 668681 "/>
<path d="M1950618 562256 L1879668 562256 "/>
<path d="M2092518 668681 L2092518 562256 "/>
<path d="M2092518 562256 L2021568 562256 "/>
<path d="M1879668 562256 L1879668 668681 "/>
<path d="M2021568 668681 L2092518 668681 "/>
<path d="M1039801 439868 L1039801 241209 "/>
<path d="M688600 241209 L688600 439868 "/>
<path d="M1034480 241209 L688600 241209 "/>
<path d="M692147 439868 L1038027 439868 "/>
<path d="M1702294 562256 L1631344 562256 "/>
<path d="M1631344 562256 L1631344 668681 "/>
<path d="M1631344 668681 L1702294 668681 "/>
<path d="M1844193 562256 L1773244 562256 "/>
<path d="M1844193 668681 L1844193 562256 "/>
<path d="M1773244 668681 L1844193 668681 "/>
</g>
<g style="fill:#000084; fill-opacity:0.0;  stroke:#000084; stroke-width:6983.240223; stroke-opacity:1;  stroke-linecap:round; stroke-linejoin:round;">
<path d="M1284068 840887 L1284068 666306 "/>
<path d="M1172336 638374 L1172336 840887 "/>
<path d="M1172336 840887 L1284068 840887 "/>
<path d="M1284068 666306 L1256135 638374 "/>
<path d="M1256135 638374 L1172336 638374 "/>
</g>
<g style="fill:#000084; fill-opacity:0.0;  stroke:#000084; stroke-width:26606.145251; stroke-opacity:1;  stroke-linecap:round; stroke-linejoin:round;">
<circle cx="2549256.843575" cy="340538.826816" r="209479.050279"/> 
</g>
<g style="fill:#000084; fill-opacity:0.0;  stroke:#000084; stroke-width:10474.860335; stroke-opacity:1;  stroke-linecap:round; stroke-linejoin:round;">
<path d="M252259 877096 L145835 877096 "/>
<path d="M252259 948045 L252259 877096 "/>
<path d="M252259 1089945 L252259 1018995 "/>
<path d="M145835 1089945 L252259 1089945 "/>
<path d="M145835 1018995 L145835 1089945 "/>
<path d="M145835 877096 L145835 948045 "/>
</g>
<g style="fill:#000084; fill-opacity:0.0;  stroke:#000084; stroke-width:26606.145251; stroke-opacity:1;  stroke-linecap:round; stroke-linejoin:round;">
<circle cx="420765.223464" cy="340538.826816" r="209479.050279"/> 
</g>
<g style="fill:#000084; fill-opacity:0.0;  stroke:#000084; stroke-width:10474.860335; stroke-opacity:1;  stroke-linecap:round; stroke-linejoin:round;">
<path d="M2052608 1076642 L2052608 1183066 "/>
<path d="M2265457 1076642 L2194508 1076642 "/>
<path d="M2123558 1076642 L2052608 1076642 "/>
<path d="M2265457 1183066 L2265457 1076642 "/>
<path d="M2052608 1183066 L2123558 1183066 "/>
<path d="M2194508 1183066 L2265457 1183066 "/>
</g>
<g style="fill:#000084; fill-opacity:0.0;  stroke:#000084; stroke-width:6983.240223; stroke-opacity:1;  stroke-linecap:round; stroke-linejoin:round;">
<path d="M415139 1271825 L334788 1324150 "/>
<path d="M209173 1167005 L530402 1167005 "/>
<path d="M334788 1324150 L334788 1215952 "/>
<path d="M209173 1376502 L530402 1376502 "/>
<path d="M415139 1271825 L478107 1271825 "/>
<path d="M209173 1167005 L209173 1376502 "/>
<path d="M415139 1271825 L334788 1215952 "/>
<path d="M415139 1215952 L415139 1327698 "/>
<path d="M530402 1376502 L530402 1167005 "/>
<path d="M334788 1271825 L265080 1271825 "/>
</g>
<g style="fill:#000084; fill-opacity:0.0;  stroke:#000084; stroke-width:10474.860335; stroke-opacity:1;  stroke-linecap:round; stroke-linejoin:round;">
<path d="M887664 1085510 L479703 1085510 "/>
<path d="M479703 837186 L479703 1085510 "/>
<path d="M887664 837186 L887664 1085510 "/>
<path d="M887664 837186 L479703 837186 "/>
<path d="M688600 1660203 L688600 1858862 "/>
<path d="M1039801 1858862 L1039801 1660203 "/>
<path d="M692147 1858862 L1038027 1858862 "/>
<path d="M1034480 1660203 L688600 1660203 "/>
<path d="M1004494 2017075 L1004494 1910650 "/>
<path d="M933544 2017075 L1004494 2017075 "/>
<path d="M791645 2017075 L862594 2017075 "/>
<path d="M1004494 1910650 L933544 1910650 "/>
<path d="M862594 1910650 L791645 1910650 "/>
<path d="M791645 1910650 L791645 2017075 "/>
<g>
</g>
<g>
</g>
<g>
</g>
<g>
</g>
<g>
</g>
<g>
</g>
<g>
</g>
<g>
</g>
<g>
</g>
<g>
</g>
<g>
</g>
<g>
</g>
<g>
</g>
<g>
</g>
<g>
</g>
<g>
</g>
<g>
</g>
<g>
</g>
<g>
</g>
<g>
</g>
<g>
</g>
<g>
</g>
<g>
</g>
<g>
</g>
<g>
</g>
<g>
</g>
<g>
</g>
<g>
</g>
<g>
</g>
<g>
</g>
<g>
</g>
<g>
</g>
<g>
</g>
<g>
</g>
<g>
</g>
<g>
</g>
<g>
</g>
<g>
</g>
<g>
</g>
<g>
</g>
<g>
</g>
</g> 
<svg:g><svg:g><svg:title>SVG Picture created as USB232R02-Edge_Cuts.svg date 2023/05/25 01:24:21 </svg:title>
  <svg:desc>Picture generated by PCBNEW </svg:desc>
<svg:g style="fill:#C2C200; fill-opacity:1.000000;stroke:#C2C200; stroke-opacity:1.000000; stroke-linecap:round; stroke-linejoin:round;" transform="translate(0 0) scale(1 1)">
</svg:g>
<svg:g style="fill:#C2C200; fill-opacity:0.0;  stroke:#C2C200; stroke-width:0.000000; stroke-opacity:1;  stroke-linecap:round; stroke-linejoin:round;">
</svg:g>
<svg:g style="fill:#C2C200; fill-opacity:0.0;  stroke:#C2C200; stroke-width:6983.240223; stroke-opacity:1;  stroke-linecap:round; stroke-linejoin:round;">
<svg:path d="M83754 3527 L2886268 3527 "/>
<svg:path d="M2886268 3527 L2886268 2096544 "/>
<svg:path d="M2886268 2096544 L83754 2096544 "/>
<svg:path d="M83754 2096544 L83754 3527 "/>
<svg:g>
</svg:g>
<svg:g>
</svg:g>
<svg:g>
</svg:g>
<svg:g>
</svg:g>
<svg:g>
</svg:g>
<svg:g>
</svg:g>
<svg:g>
</svg:g>
<svg:g>
</svg:g>
<svg:g>
</svg:g>
<svg:g>
</svg:g>
<svg:g>
</svg:g>
<svg:g>
</svg:g>
<svg:g>
</svg:g>
<svg:g>
</svg:g>
<svg:g>
</svg:g>
<svg:g>
</svg:g>
<svg:g>
</svg:g>
<svg:g>
</svg:g>
<svg:g>
</svg:g>
<svg:g>
</svg:g>
<svg:g>
</svg:g>
<svg:g>
</svg:g>
<svg:g>
</svg:g>
<svg:g>
</svg:g>
<svg:g>
</svg:g>
<svg:g>
</svg:g>
<svg:g>
</svg:g>
<svg:g>
</svg:g>
<svg:g>
</svg:g>
<svg:g>
</svg:g>
<svg:g>
</svg:g>
<svg:g>
</svg:g>
<svg:g>
</svg:g>
<svg:g>
</svg:g>
<svg:g>
</svg:g>
<svg:g>
</svg:g>
<svg:g>
</svg:g>
<svg:g>
</svg:g>
<svg:g>
</svg:g>
<svg:g>
</svg:g>
<svg:g>
</svg:g>
</svg:g> 
</svg:g></svg:g></svg>
