M48
; DRILL file {KiCad 6.0.11+dfsg-1~bpo11+1} date Sun May 28 09:29:04 2023
; FORMAT={3:3/ absolute / metric / suppress leading zeros}
; #@! TF.CreationDate,2023-05-28T09:29:04+00:00
; #@! TF.GenerationSoftware,Kicad,Pcbnew,6.0.11+dfsg-1~bpo11+1
; #@! TF.FileFunction,Plated,1,2,PTH
FMAT,2
METRIC,TZ
; #@! TA.AperFunction,Plated,PTH,ViaDrill
T1C0.400
; #@! TA.AperFunction,Plated,PTH,ComponentDrill
T2C0.889
; #@! TA.AperFunction,Plated,PTH,ComponentDrill
T3C0.920
; #@! TA.AperFunction,Plated,PTH,ComponentDrill
T4C2.330
; #@! TA.AperFunction,Plated,PTH,ComponentDrill
T5C3.000
%
G90
G05
T1
X3937Y6985
X4445Y-3175
X9135Y17274
X9144Y6223
X9335Y15574
X9779Y5080
X10160Y16510
X10287Y6223
X11557Y16599
X12827Y10922
X13208Y4699
X13589Y17399
X13589Y12192
X13970Y5715
X14351Y16730
X14605Y6604
X14605Y4445
X14635Y23974
X15240Y5334
X15835Y23974
X16129Y9144
X16134Y13721
X16986Y9658
X17399Y14859
X18161Y8255
X18460Y14732
X18510Y16288
X18868Y7548
X20632Y15216
X20701Y7239
X21341Y8007
X22535Y6574
X22987Y12827
X23241Y14732
X23749Y13716
X24003Y4318
X24257Y10205
X24638Y11655
X26416Y6604
X26416Y4191
X26599Y11256
X27178Y3048
T2
X10160Y21590
X10160Y19050
X11430Y1270
X11430Y-1270
X12700Y21590
X12700Y19050
X13970Y1270
X13970Y-1270
X15240Y21590
X15240Y19050
X16510Y1270
X16510Y-1270
X17780Y21590
X17780Y19050
X20320Y21590
X20320Y19050
X20320Y1270
X20320Y-1270
X22860Y21590
X22860Y19050
X22860Y1270
X22860Y-1270
X25400Y21590
X25400Y19050
X25400Y1270
X25400Y-1270
X29210Y15240
X29210Y12700
X29210Y10160
X29210Y7620
X29210Y5080
X31750Y15240
X31750Y12700
X31750Y10160
X31750Y7620
X31750Y5080
T3
X8414Y11263
X8414Y8763
X10414Y11263
X10414Y8763
T4
X5704Y16033
X5704Y3993
T5
X0Y20320
X0Y0
X30480Y20320
X30480Y0
T0
M30
