%TF.GenerationSoftware,KiCad,Pcbnew,7.0.5.1-1-g8f565ef7f0-dirty-deb11*%
%TF.CreationDate,2023-07-21T03:25:00+00:00*%
%TF.ProjectId,USB232R02,55534232-3332-4523-9032-2e6b69636164,rev?*%
%TF.SameCoordinates,PX7f790e8PY698c050*%
%TF.FileFunction,Soldermask,Bot*%
%TF.FilePolarity,Negative*%
%FSLAX46Y46*%
G04 Gerber Fmt 4.6, Leading zero omitted, Abs format (unit mm)*
G04 Created by KiCad (PCBNEW 7.0.5.1-1-g8f565ef7f0-dirty-deb11) date 2023-07-21 03:25:00*
%MOMM*%
%LPD*%
G01*
G04 APERTURE LIST*
G04 Aperture macros list*
%AMRoundRect*
0 Rectangle with rounded corners*
0 $1 Rounding radius*
0 $2 $3 $4 $5 $6 $7 $8 $9 X,Y pos of 4 corners*
0 Add a 4 corners polygon primitive as box body*
4,1,4,$2,$3,$4,$5,$6,$7,$8,$9,$2,$3,0*
0 Add four circle primitives for the rounded corners*
1,1,$1+$1,$2,$3*
1,1,$1+$1,$4,$5*
1,1,$1+$1,$6,$7*
1,1,$1+$1,$8,$9*
0 Add four rect primitives between the rounded corners*
20,1,$1+$1,$2,$3,$4,$5,0*
20,1,$1+$1,$4,$5,$6,$7,0*
20,1,$1+$1,$6,$7,$8,$9,0*
20,1,$1+$1,$8,$9,$2,$3,0*%
%AMFreePoly0*
4,1,38,0.558779,0.830902,0.595106,0.780902,0.600000,0.750000,0.600000,-0.750000,0.580902,-0.808779,0.530902,-0.845106,0.500000,-0.850000,0.000000,-0.850000,-0.015663,-0.844911,-0.071157,-0.844911,-0.099330,-0.840860,-0.235881,-0.800765,-0.261772,-0.788941,-0.381494,-0.712000,-0.403005,-0.693361,-0.496202,-0.585806,-0.511590,-0.561861,-0.570709,-0.432407,-0.578728,-0.405098,-0.598982,-0.264232,
-0.600000,-0.250000,-0.600000,0.250000,-0.598982,0.264232,-0.578728,0.405098,-0.570709,0.432407,-0.511590,0.561861,-0.496202,0.585806,-0.403005,0.693361,-0.381494,0.712000,-0.261772,0.788941,-0.235881,0.800765,-0.099330,0.840860,-0.071157,0.844911,-0.031170,0.844911,-0.030902,0.845106,0.000000,0.850000,0.500000,0.850000,0.558779,0.830902,0.558779,0.830902,$1*%
%AMFreePoly1*
4,1,38,0.015663,0.844911,0.071157,0.844911,0.099330,0.840860,0.235881,0.800765,0.261772,0.788941,0.381494,0.712000,0.403005,0.693361,0.496202,0.585806,0.511590,0.561861,0.570709,0.432407,0.578728,0.405098,0.598982,0.264232,0.600000,0.250000,0.600000,-0.250000,0.598982,-0.264232,0.578728,-0.405098,0.570709,-0.432407,0.511590,-0.561861,0.496202,-0.585806,0.403005,-0.693361,
0.381494,-0.712000,0.261772,-0.788941,0.235881,-0.800765,0.099330,-0.840860,0.071157,-0.844911,0.031170,-0.844911,0.030902,-0.845106,0.000000,-0.850000,-0.500000,-0.850000,-0.558779,-0.830902,-0.595106,-0.780902,-0.600000,-0.750000,-0.600000,0.750000,-0.580902,0.808779,-0.530902,0.845106,-0.500000,0.850000,0.000000,0.850000,0.015663,0.844911,0.015663,0.844911,$1*%
G04 Aperture macros list end*
%ADD10C,6.200000*%
%ADD11RoundRect,0.100000X0.850000X0.850000X-0.850000X0.850000X-0.850000X-0.850000X0.850000X-0.850000X0*%
%ADD12C,1.900000*%
%ADD13C,3.700000*%
%ADD14RoundRect,0.100000X0.762000X-0.762000X0.762000X0.762000X-0.762000X0.762000X-0.762000X-0.762000X0*%
%ADD15RoundRect,0.100000X-0.762000X-0.762000X0.762000X-0.762000X0.762000X0.762000X-0.762000X0.762000X0*%
%ADD16RoundRect,0.100000X-0.444500X-0.698500X0.444500X-0.698500X0.444500X0.698500X-0.444500X0.698500X0*%
%ADD17C,2.000000*%
%ADD18RoundRect,0.100000X0.698500X-0.444500X0.698500X0.444500X-0.698500X0.444500X-0.698500X-0.444500X0*%
%ADD19RoundRect,0.100000X-0.698500X0.444500X-0.698500X-0.444500X0.698500X-0.444500X0.698500X0.444500X0*%
%ADD20RoundRect,0.100000X0.444500X0.698500X-0.444500X0.698500X-0.444500X-0.698500X0.444500X-0.698500X0*%
%ADD21RoundRect,0.162500X0.062500X-0.350000X0.062500X0.350000X-0.062500X0.350000X-0.062500X-0.350000X0*%
%ADD22RoundRect,0.162500X0.350000X-0.062500X0.350000X0.062500X-0.350000X0.062500X-0.350000X-0.062500X0*%
%ADD23RoundRect,0.100000X1.250000X-1.250000X1.250000X1.250000X-1.250000X1.250000X-1.250000X-1.250000X0*%
%ADD24RoundRect,0.290667X0.524333X0.559333X-0.524333X0.559333X-0.524333X-0.559333X0.524333X-0.559333X0*%
%ADD25RoundRect,0.290667X-0.524333X-0.559333X0.524333X-0.559333X0.524333X0.559333X-0.524333X0.559333X0*%
%ADD26RoundRect,0.250000X0.512500X0.150000X-0.512500X0.150000X-0.512500X-0.150000X0.512500X-0.150000X0*%
%ADD27RoundRect,0.350000X1.000000X0.650000X-1.000000X0.650000X-1.000000X-0.650000X1.000000X-0.650000X0*%
%ADD28RoundRect,0.100000X0.950000X1.700000X-0.950000X1.700000X-0.950000X-1.700000X0.950000X-1.700000X0*%
%ADD29FreePoly0,270.000000*%
%ADD30FreePoly1,270.000000*%
G04 APERTURE END LIST*
D10*
%TO.C,H3*%
X0Y0D03*
%TD*%
D11*
%TO.C,J1*%
X10414000Y8763000D03*
D12*
X10414000Y11263000D03*
X8414000Y11263000D03*
X8414000Y8763000D03*
D13*
X5704000Y3993000D03*
X5704000Y16033000D03*
%TD*%
D10*
%TO.C,H4*%
X30480000Y0D03*
%TD*%
D14*
%TO.C,J3*%
X20320000Y-1270000D03*
X20320000Y1270000D03*
X22860000Y-1270000D03*
X22860000Y1270000D03*
X25400000Y-1270000D03*
X25400000Y1270000D03*
%TD*%
D10*
%TO.C,H1*%
X30480000Y20320000D03*
%TD*%
%TO.C,H2*%
X0Y20320000D03*
%TD*%
D14*
%TO.C,J18*%
X10215000Y19074000D03*
X10215000Y21614000D03*
X12755000Y19074000D03*
X12755000Y21614000D03*
X15295000Y19074000D03*
X15295000Y21614000D03*
X17835000Y19074000D03*
X17835000Y21614000D03*
X20375000Y19074000D03*
X20375000Y21614000D03*
X22915000Y19074000D03*
X22915000Y21614000D03*
X25455000Y19074000D03*
X25455000Y21614000D03*
%TD*%
D15*
%TO.C,J19*%
X29195000Y15254000D03*
X31735000Y15254000D03*
X29195000Y12714000D03*
X31735000Y12714000D03*
X29195000Y10174000D03*
X31735000Y10174000D03*
X29195000Y7634000D03*
X31735000Y7634000D03*
X29195000Y5094000D03*
X31735000Y5094000D03*
%TD*%
D14*
%TO.C,J2*%
X11430000Y-1270000D03*
X11430000Y1270000D03*
X13970000Y-1270000D03*
X13970000Y1270000D03*
X16510000Y-1270000D03*
X16510000Y1270000D03*
%TD*%
D16*
%TO.C,R3*%
X5080000Y23495000D03*
X6985000Y23495000D03*
%TD*%
D17*
%TO.C,FID1*%
X26535000Y4974000D03*
%TD*%
D18*
%TO.C,C3*%
X15860000Y14944000D03*
X15860000Y16849000D03*
%TD*%
D19*
%TO.C,FB1*%
X-635000Y12065000D03*
X-635000Y10160000D03*
%TD*%
D20*
%TO.C,C1*%
X-635000Y14605000D03*
X-2540000Y14605000D03*
%TD*%
D16*
%TO.C,R2*%
X25019000Y16383000D03*
X26924000Y16383000D03*
%TD*%
D21*
%TO.C,U2*%
X20685000Y9492500D03*
X20185000Y9492500D03*
X19685000Y9492500D03*
X19185000Y9492500D03*
X18685000Y9492500D03*
D22*
X17747500Y10430000D03*
X17747500Y10930000D03*
X17747500Y11430000D03*
X17747500Y11930000D03*
X17747500Y12430000D03*
D21*
X18685000Y13367500D03*
X19185000Y13367500D03*
X19685000Y13367500D03*
X20185000Y13367500D03*
X20685000Y13367500D03*
D22*
X21622500Y12430000D03*
X21622500Y11930000D03*
X21622500Y11430000D03*
X21622500Y10930000D03*
X21622500Y10430000D03*
D23*
X19685000Y11430000D03*
%TD*%
D16*
%TO.C,R1*%
X21463000Y16383000D03*
X23368000Y16383000D03*
%TD*%
D24*
%TO.C,D2*%
X8265000Y20320000D03*
D25*
X4435000Y20320000D03*
%TD*%
D20*
%TO.C,C4*%
X19812000Y16383000D03*
X17907000Y16383000D03*
%TD*%
D17*
%TO.C,FID2*%
X2135000Y15474000D03*
%TD*%
D26*
%TO.C,U1*%
X12700000Y15555000D03*
X12700000Y14605000D03*
X12700000Y13655000D03*
X10425000Y13655000D03*
X10425000Y14605000D03*
X10425000Y15555000D03*
%TD*%
D18*
%TO.C,C2*%
X-3175000Y10160000D03*
X-3175000Y12065000D03*
%TD*%
D20*
%TO.C,C5*%
X25844500Y9017000D03*
X23939500Y9017000D03*
%TD*%
D27*
%TO.C,D1*%
X1270000Y6985000D03*
X-2730000Y6985000D03*
%TD*%
D28*
%TO.C,F1*%
X5715000Y11430000D03*
X1815000Y11430000D03*
%TD*%
D24*
%TO.C,D3*%
X8265000Y0D03*
D25*
X4435000Y0D03*
%TD*%
D29*
%TO.C,JP1*%
X24003000Y6731000D03*
D30*
X24003000Y5431000D03*
%TD*%
D20*
%TO.C,R4*%
X7787500Y-2926000D03*
X5882500Y-2926000D03*
%TD*%
M02*
