%TF.GenerationSoftware,KiCad,Pcbnew,7.0.5.1-1-g8f565ef7f0-dirty-deb11*%
%TF.CreationDate,2023-07-05T14:47:00+00:00*%
%TF.ProjectId,USB232R02,55534232-3332-4523-9032-2e6b69636164,rev?*%
%TF.SameCoordinates,PX7f790e8PY698c050*%
%TF.FileFunction,Copper,L1,Top*%
%TF.FilePolarity,Positive*%
%FSLAX46Y46*%
G04 Gerber Fmt 4.6, Leading zero omitted, Abs format (unit mm)*
G04 Created by KiCad (PCBNEW 7.0.5.1-1-g8f565ef7f0-dirty-deb11) date 2023-07-05 14:47:00*
%MOMM*%
%LPD*%
G01*
G04 APERTURE LIST*
%TA.AperFunction,ComponentPad*%
%ADD10C,6.000000*%
%TD*%
%TA.AperFunction,ComponentPad*%
%ADD11R,1.700000X1.700000*%
%TD*%
%TA.AperFunction,ComponentPad*%
%ADD12C,1.700000*%
%TD*%
%TA.AperFunction,ComponentPad*%
%ADD13C,3.500000*%
%TD*%
%TA.AperFunction,ComponentPad*%
%ADD14R,1.524000X1.524000*%
%TD*%
%TA.AperFunction,ViaPad*%
%ADD15C,0.800000*%
%TD*%
%TA.AperFunction,Conductor*%
%ADD16C,0.400000*%
%TD*%
%TA.AperFunction,Conductor*%
%ADD17C,0.250000*%
%TD*%
G04 APERTURE END LIST*
D10*
%TO.P,H3,1,1*%
%TO.N,GND*%
X0Y0D03*
%TD*%
D11*
%TO.P,J1,1,VBUS*%
%TO.N,/VBUS*%
X10414000Y8763000D03*
D12*
%TO.P,J1,2,D-*%
%TO.N,/D-*%
X10414000Y11263000D03*
%TO.P,J1,3,D+*%
%TO.N,/D+*%
X8414000Y11263000D03*
%TO.P,J1,4,GND*%
%TO.N,GND*%
X8414000Y8763000D03*
D13*
%TO.P,J1,5,Shield*%
X5704000Y3993000D03*
X5704000Y16033000D03*
%TD*%
D14*
%TO.P,J17,1*%
%TO.N,GND*%
X29210000Y5080000D03*
%TO.P,J17,2*%
X31750000Y5080000D03*
%TD*%
%TO.P,J6,1*%
%TO.N,/RXD*%
X29210000Y12700000D03*
%TO.P,J6,2*%
X31750000Y12700000D03*
%TD*%
%TO.P,J5,1*%
%TO.N,/TXD*%
X29210000Y15240000D03*
%TO.P,J5,2*%
X31750000Y15240000D03*
%TD*%
%TO.P,J12,1*%
%TO.N,/#RI*%
X15240000Y19050000D03*
%TO.P,J12,2*%
X15240000Y21590000D03*
%TD*%
D10*
%TO.P,H4,1,1*%
%TO.N,GND*%
X30480000Y0D03*
%TD*%
D14*
%TO.P,J3,1*%
%TO.N,GND*%
X20320000Y-1270000D03*
%TO.P,J3,2*%
X20320000Y1270000D03*
%TO.P,J3,3*%
%TO.N,+3V3*%
X22860000Y-1270000D03*
%TO.P,J3,4*%
X22860000Y1270000D03*
%TO.P,J3,5*%
%TO.N,GND*%
X25400000Y-1270000D03*
%TO.P,J3,6*%
X25400000Y1270000D03*
%TD*%
%TO.P,J14,1*%
%TO.N,/RXLED{slash}CBUS1*%
X10160000Y21590000D03*
%TD*%
%TO.P,J13,1*%
%TO.N,/CBUS0*%
X12700000Y21590000D03*
%TD*%
%TO.P,J8,1*%
%TO.N,/#CTS*%
X29210000Y10160000D03*
%TO.P,J8,2*%
X31750000Y10160000D03*
%TD*%
%TO.P,J15,1*%
%TO.N,/TXLED{slash}CBUS2*%
X10160000Y19050000D03*
%TD*%
%TO.P,J10,1*%
%TO.N,/#DSR*%
X17780000Y19050000D03*
%TO.P,J10,2*%
X17780000Y21590000D03*
%TD*%
D10*
%TO.P,H1,1,1*%
%TO.N,GND*%
X30480000Y20320000D03*
%TD*%
D14*
%TO.P,J7,1*%
%TO.N,/#RTS*%
X29210000Y7620000D03*
%TO.P,J7,2*%
X31750000Y7620000D03*
%TD*%
D10*
%TO.P,H2,1,1*%
%TO.N,GND*%
X0Y20320000D03*
%TD*%
D14*
%TO.P,J16,1*%
%TO.N,/CBUS3*%
X12700000Y19050000D03*
%TD*%
%TO.P,J4,1*%
%TO.N,/VCCIO*%
X25400000Y19050000D03*
%TO.P,J4,2*%
X25400000Y21590000D03*
%TD*%
%TO.P,J11,1*%
%TO.N,/#DCD*%
X20320000Y19050000D03*
%TO.P,J11,2*%
X20320000Y21590000D03*
%TD*%
%TO.P,J9,1*%
%TO.N,/#DTR*%
X22860000Y19050000D03*
%TO.P,J9,2*%
X22860000Y21590000D03*
%TD*%
%TO.P,J2,1*%
%TO.N,GND*%
X11430000Y-1270000D03*
%TO.P,J2,2*%
X11430000Y1270000D03*
%TO.P,J2,3*%
%TO.N,+5V*%
X13970000Y-1270000D03*
%TO.P,J2,4*%
X13970000Y1270000D03*
%TO.P,J2,5*%
%TO.N,GND*%
X16510000Y-1270000D03*
%TO.P,J2,6*%
X16510000Y1270000D03*
%TD*%
D15*
%TO.N,GND*%
X23749000Y13716000D03*
X26416000Y6604000D03*
X11557000Y16599000D03*
X13589000Y12192000D03*
X14605000Y4445000D03*
X15835000Y23974000D03*
X9144000Y6223000D03*
X27178000Y3048000D03*
X14635000Y23974000D03*
X22535000Y6574000D03*
X10287000Y6223000D03*
X26416000Y4191000D03*
X13970000Y5715000D03*
X13208000Y4699000D03*
X14351000Y16730010D03*
X18510092Y16288119D03*
X15240000Y5334000D03*
X9779000Y5080000D03*
X14605000Y6604000D03*
%TO.N,+5V*%
X9135000Y17274000D03*
X3937000Y6985000D03*
X13589000Y17399000D03*
%TO.N,+3V3*%
X24003000Y4318000D03*
X16133652Y13720653D03*
X16129000Y9144000D03*
%TO.N,/VCCIO*%
X24257000Y10205000D03*
%TO.N,/D-*%
X9335000Y15574000D03*
%TO.N,/RXD*%
X21341186Y8007223D03*
%TO.N,/#CTS*%
X26598966Y11256339D03*
X16986495Y9658497D03*
%TO.N,/#DTR*%
X24638000Y11655000D03*
%TO.N,/#DSR*%
X18868108Y7547892D03*
%TO.N,/#DCD*%
X18161000Y8255000D03*
%TO.N,/#RI*%
X20701000Y7239000D03*
%TO.N,/RXLED{slash}CBUS1*%
X20631821Y15216383D03*
%TO.N,/TXLED{slash}CBUS2*%
X4445000Y-3175000D03*
X12827000Y10922000D03*
X10160000Y16510000D03*
%TO.N,/CBUS3*%
X22987000Y12827000D03*
X17399000Y14859000D03*
%TO.N,Net-(R1-Pad2)*%
X23241000Y14732000D03*
X18460000Y14732000D03*
%TD*%
D16*
%TO.N,+5V*%
X3937000Y9176000D02*
X8535000Y13774000D01*
X9135000Y17274000D02*
X9260000Y17399000D01*
X8535000Y16074000D02*
X9135000Y16674000D01*
X10924000Y17399000D02*
X13589000Y17399000D01*
X9260000Y17399000D02*
X10924000Y17399000D01*
X8535000Y13774000D02*
X8535000Y16074000D01*
X3937000Y6985000D02*
X3937000Y9176000D01*
X9135000Y16674000D02*
X9135000Y17274000D01*
%TO.N,+3V3*%
X22860000Y2399000D02*
X22860000Y1270000D01*
X24003000Y4318000D02*
X24003000Y3542000D01*
X16133652Y13720653D02*
X16133652Y9148652D01*
X16133652Y9148652D02*
X16129000Y9144000D01*
X24003000Y3542000D02*
X22860000Y2399000D01*
D17*
%TO.N,/VCCIO*%
X25400000Y11343998D02*
X24261002Y10205000D01*
X24261002Y10205000D02*
X24257000Y10205000D01*
X25400000Y19050000D02*
X25400000Y11343998D01*
D16*
%TO.N,/D-*%
X9335000Y15574000D02*
X9335000Y12342000D01*
X9335000Y12342000D02*
X10414000Y11263000D01*
D17*
%TO.N,/RXD*%
X24638000Y8128000D02*
X24765000Y8255000D01*
X21341186Y8007223D02*
X24517223Y8007223D01*
X24765000Y8255000D02*
X29210000Y12700000D01*
X24517223Y8007223D02*
X24765000Y8255000D01*
%TO.N,/#CTS*%
X25756627Y10414000D02*
X25756627Y10389627D01*
X25756627Y10389627D02*
X24765000Y9398000D01*
X17386494Y9258498D02*
X24625498Y9258498D01*
X24625498Y9258498D02*
X24765000Y9398000D01*
X25756627Y10414000D02*
X26598966Y11256339D01*
X16986495Y9658497D02*
X17386494Y9258498D01*
%TO.N,/#DTR*%
X24638000Y11655000D02*
X24638000Y17272000D01*
X24638000Y17272000D02*
X22860000Y19050000D01*
%TO.N,/#DSR*%
X14953989Y8668011D02*
X14953989Y9879599D01*
X16510000Y16891000D02*
X16319500Y16700500D01*
X15430500Y7937500D02*
X14953989Y8414011D01*
X17780000Y19050000D02*
X16510000Y17780000D01*
X14953989Y8414011D02*
X14953989Y8668011D01*
X15838001Y7529999D02*
X15430500Y7937500D01*
X18850215Y7529999D02*
X15838001Y7529999D01*
X16319500Y16700500D02*
X14953989Y15334989D01*
X14953989Y9879599D02*
X14953989Y15334989D01*
X18868108Y7547892D02*
X18850215Y7529999D01*
X16510000Y17780000D02*
X16510000Y16891000D01*
%TO.N,/#DCD*%
X15403999Y15076001D02*
X17282498Y16954500D01*
X15403999Y8799999D02*
X15403999Y10065999D01*
X17282498Y16954500D02*
X18224500Y16954500D01*
X15403999Y10065999D02*
X15403999Y15076001D01*
X18161000Y8255000D02*
X15948998Y8255000D01*
X15948998Y8255000D02*
X15530999Y8672999D01*
X18224500Y16954500D02*
X20320000Y19050000D01*
X15530999Y8672999D02*
X15403999Y8799999D01*
%TO.N,/#RI*%
X16002000Y17907000D02*
X16002000Y17145000D01*
X14503979Y9693199D02*
X14503979Y8610021D01*
X20231992Y6769992D02*
X15961599Y6769991D01*
X14503979Y15646979D02*
X14503979Y9693199D01*
X14503979Y8227611D02*
X14503979Y8610021D01*
X15240000Y19050000D02*
X15240000Y18669000D01*
X20701000Y7239000D02*
X20231992Y6769992D01*
X14986000Y16129000D02*
X14503979Y15646979D01*
X16002000Y17145000D02*
X14986000Y16129000D01*
X15961599Y6769991D02*
X14503979Y8227611D01*
X15240000Y18669000D02*
X16002000Y17907000D01*
%TO.N,/RXLED{slash}CBUS1*%
X21590000Y19763636D02*
X21033636Y20320000D01*
X11430000Y20320000D02*
X11247010Y20502990D01*
X11247010Y20502990D02*
X10160000Y21590000D01*
X21033636Y20320000D02*
X11430000Y20320000D01*
X20631821Y15216383D02*
X20631821Y16821821D01*
X20631821Y16821821D02*
X21590000Y17780000D01*
X21590000Y17780000D02*
X21590000Y19763636D01*
%TO.N,/TXLED{slash}CBUS2*%
X10160000Y16510000D02*
X10160000Y14351000D01*
X9398000Y2667000D02*
X12827000Y6096000D01*
X9398000Y-1778000D02*
X9398000Y2667000D01*
X4445000Y-3175000D02*
X8001000Y-3175000D01*
X10160000Y14351000D02*
X10160000Y13589000D01*
X10160000Y13589000D02*
X12827000Y10922000D01*
X8001000Y-3175000D02*
X9398000Y-1778000D01*
X12827000Y6096000D02*
X12827000Y10922000D01*
%TO.N,/CBUS3*%
X17399000Y14859000D02*
X17399000Y14293315D01*
X17399000Y14293315D02*
X18865315Y12827000D01*
X18865315Y12827000D02*
X22987000Y12827000D01*
%TO.N,Net-(R1-Pad2)*%
X18859999Y14332001D02*
X22841001Y14332001D01*
X22841001Y14332001D02*
X23241000Y14732000D01*
X18460000Y14732000D02*
X18859999Y14332001D01*
%TD*%
%TA.AperFunction,Conductor*%
%TO.N,GND*%
G36*
X21125990Y18014594D02*
G01*
X21161954Y17965094D01*
X21161954Y17903908D01*
X21137802Y17864497D01*
X20398559Y17125256D01*
X20382710Y17112384D01*
X20371239Y17104889D01*
X20371236Y17104887D01*
X20348704Y17075937D01*
X20344644Y17071340D01*
X20341246Y17067942D01*
X20341235Y17067930D01*
X20328108Y17049545D01*
X20326888Y17047908D01*
X20293444Y17004938D01*
X20289660Y16997945D01*
X20286168Y16990801D01*
X20270633Y16938622D01*
X20270009Y16936675D01*
X20252320Y16885150D01*
X20251016Y16877333D01*
X20250029Y16869412D01*
X20250029Y16869411D01*
X20252279Y16814994D01*
X20252321Y16812984D01*
X20252320Y15799135D01*
X20233413Y15740944D01*
X20218970Y15725033D01*
X20138322Y15653584D01*
X20048033Y15522777D01*
X20048031Y15522774D01*
X19991674Y15374173D01*
X19991671Y15374164D01*
X19972514Y15216385D01*
X19972514Y15216382D01*
X19991671Y15058603D01*
X19991674Y15058594D01*
X20048031Y14909993D01*
X20048033Y14909990D01*
X20048034Y14909988D01*
X20077887Y14866739D01*
X20095382Y14808109D01*
X20075074Y14750392D01*
X20024719Y14715635D01*
X19996411Y14711501D01*
X19209502Y14711501D01*
X19151311Y14730408D01*
X19115347Y14779908D01*
X19111224Y14798568D01*
X19103886Y14859000D01*
X19100149Y14889782D01*
X19078144Y14947804D01*
X19043789Y15038391D01*
X19043787Y15038394D01*
X19043787Y15038395D01*
X18953498Y15169201D01*
X18953497Y15169202D01*
X18953497Y15169203D01*
X18834535Y15274594D01*
X18834531Y15274597D01*
X18834529Y15274599D01*
X18834525Y15274601D01*
X18834524Y15274602D01*
X18693791Y15348464D01*
X18539473Y15386500D01*
X18539471Y15386500D01*
X18380529Y15386500D01*
X18380526Y15386500D01*
X18226208Y15348464D01*
X18085466Y15274597D01*
X18058620Y15250813D01*
X18002526Y15226378D01*
X17942782Y15239582D01*
X17911497Y15268678D01*
X17892502Y15296197D01*
X17892497Y15296203D01*
X17773535Y15401594D01*
X17773533Y15401596D01*
X17773529Y15401599D01*
X17773525Y15401601D01*
X17773524Y15401602D01*
X17632791Y15475464D01*
X17478473Y15513500D01*
X17478471Y15513500D01*
X17319529Y15513500D01*
X17319526Y15513500D01*
X17165208Y15475464D01*
X17024475Y15401602D01*
X17024464Y15401594D01*
X16905502Y15296203D01*
X16905502Y15296202D01*
X16815212Y15165394D01*
X16815210Y15165391D01*
X16758853Y15016790D01*
X16758850Y15016781D01*
X16739693Y14859002D01*
X16739693Y14858999D01*
X16758850Y14701220D01*
X16758853Y14701211D01*
X16815210Y14552610D01*
X16815212Y14552607D01*
X16905502Y14421799D01*
X16905502Y14421798D01*
X16984377Y14351921D01*
X17015396Y14299181D01*
X17016967Y14290068D01*
X17019119Y14272808D01*
X17019500Y14266678D01*
X17019500Y14261870D01*
X17023212Y14239621D01*
X17023507Y14237598D01*
X17030247Y14183536D01*
X17032519Y14175901D01*
X17035099Y14168390D01*
X17035099Y14168389D01*
X17035100Y14168388D01*
X17061020Y14120490D01*
X17061933Y14118718D01*
X17075866Y14090218D01*
X17085872Y14069750D01*
X17090485Y14063289D01*
X17095380Y14057000D01*
X17095381Y14056999D01*
X17131796Y14023476D01*
X17135414Y14020146D01*
X17136891Y14018729D01*
X18561878Y12593743D01*
X18574751Y12577892D01*
X18582247Y12566418D01*
X18611202Y12543882D01*
X18615799Y12539822D01*
X18619201Y12536420D01*
X18637590Y12523290D01*
X18639176Y12522108D01*
X18682196Y12488625D01*
X18682197Y12488625D01*
X18689182Y12484845D01*
X18696333Y12481349D01*
X18696336Y12481347D01*
X18748551Y12465803D01*
X18750429Y12465201D01*
X18801988Y12447500D01*
X18801989Y12447500D01*
X18809796Y12446197D01*
X18817717Y12445211D01*
X18817725Y12445208D01*
X18872152Y12447459D01*
X18874163Y12447500D01*
X22401715Y12447500D01*
X22459906Y12428593D01*
X22483192Y12404736D01*
X22493501Y12389800D01*
X22493502Y12389798D01*
X22576652Y12316134D01*
X22612471Y12284401D01*
X22753207Y12210537D01*
X22907529Y12172500D01*
X22907532Y12172500D01*
X23066468Y12172500D01*
X23066471Y12172500D01*
X23220793Y12210537D01*
X23361529Y12284401D01*
X23480498Y12389799D01*
X23570787Y12520605D01*
X23627149Y12669218D01*
X23646307Y12827000D01*
X23627149Y12984782D01*
X23570787Y13133395D01*
X23480498Y13264201D01*
X23480497Y13264202D01*
X23480497Y13264203D01*
X23361535Y13369594D01*
X23361533Y13369596D01*
X23361529Y13369599D01*
X23361525Y13369601D01*
X23361524Y13369602D01*
X23220791Y13443464D01*
X23066473Y13481500D01*
X23066471Y13481500D01*
X22907529Y13481500D01*
X22907526Y13481500D01*
X22753208Y13443464D01*
X22612475Y13369602D01*
X22612464Y13369594D01*
X22493502Y13264203D01*
X22493501Y13264201D01*
X22483192Y13249264D01*
X22434577Y13212113D01*
X22401715Y13206500D01*
X19063517Y13206500D01*
X19005326Y13225407D01*
X18993513Y13235496D01*
X18320513Y13908496D01*
X18292736Y13963013D01*
X18302307Y14023445D01*
X18345572Y14066710D01*
X18390517Y14077500D01*
X18535132Y14077500D01*
X18593323Y14058593D01*
X18595937Y14056626D01*
X18605886Y14048883D01*
X18610483Y14044823D01*
X18613885Y14041421D01*
X18632274Y14028291D01*
X18633860Y14027109D01*
X18670065Y13998931D01*
X18675182Y13994947D01*
X18676880Y13993626D01*
X18676881Y13993626D01*
X18683866Y13989846D01*
X18691017Y13986350D01*
X18691020Y13986348D01*
X18743235Y13970804D01*
X18745113Y13970202D01*
X18796672Y13952501D01*
X18796673Y13952501D01*
X18804483Y13951198D01*
X18812402Y13950211D01*
X18812409Y13950209D01*
X18866825Y13952460D01*
X18868837Y13952501D01*
X22791374Y13952501D01*
X22811689Y13950394D01*
X22816206Y13949448D01*
X22825101Y13947582D01*
X22861515Y13952122D01*
X22867640Y13952501D01*
X22872444Y13952501D01*
X22894708Y13956217D01*
X22896713Y13956510D01*
X22950784Y13963249D01*
X22950786Y13963251D01*
X22958381Y13965511D01*
X22965922Y13968101D01*
X22965928Y13968101D01*
X23013831Y13994026D01*
X23015574Y13994924D01*
X23064569Y14018875D01*
X23064570Y14018877D01*
X23071011Y14023476D01*
X23077311Y14028380D01*
X23077317Y14028382D01*
X23093121Y14045551D01*
X23146443Y14075557D01*
X23165959Y14077500D01*
X23320468Y14077500D01*
X23320471Y14077500D01*
X23474793Y14115537D01*
X23615529Y14189401D01*
X23734176Y14294514D01*
X23734497Y14294798D01*
X23734497Y14294799D01*
X23734498Y14294799D01*
X23824787Y14425605D01*
X23881149Y14574218D01*
X23900307Y14732000D01*
X23895375Y14772616D01*
X23881149Y14889781D01*
X23881146Y14889790D01*
X23824789Y15038391D01*
X23824787Y15038394D01*
X23824787Y15038395D01*
X23734498Y15169201D01*
X23734497Y15169202D01*
X23734497Y15169203D01*
X23615535Y15274594D01*
X23615531Y15274597D01*
X23615529Y15274599D01*
X23615525Y15274601D01*
X23615524Y15274602D01*
X23474791Y15348464D01*
X23320473Y15386500D01*
X23320471Y15386500D01*
X23161529Y15386500D01*
X23161526Y15386500D01*
X23007208Y15348464D01*
X22866475Y15274602D01*
X22866464Y15274594D01*
X22747502Y15169203D01*
X22747502Y15169202D01*
X22657212Y15038394D01*
X22657210Y15038391D01*
X22600853Y14889790D01*
X22600850Y14889781D01*
X22589776Y14798568D01*
X22563993Y14743081D01*
X22510519Y14713345D01*
X22491498Y14711501D01*
X21267231Y14711501D01*
X21209040Y14730408D01*
X21173076Y14779908D01*
X21173076Y14841094D01*
X21185755Y14866739D01*
X21215608Y14909988D01*
X21271970Y15058601D01*
X21291128Y15216383D01*
X21289914Y15226378D01*
X21271970Y15374164D01*
X21271967Y15374173D01*
X21215610Y15522774D01*
X21215608Y15522777D01*
X21215608Y15522778D01*
X21125319Y15653584D01*
X21044670Y15725034D01*
X21013653Y15777773D01*
X21011321Y15799135D01*
X21011321Y16623620D01*
X21030228Y16681811D01*
X21040317Y16693624D01*
X21422630Y17075937D01*
X21823261Y17476569D01*
X21839110Y17489438D01*
X21850582Y17496932D01*
X21873126Y17525899D01*
X21877176Y17530484D01*
X21880581Y17533887D01*
X21893733Y17552310D01*
X21894889Y17553859D01*
X21928375Y17596881D01*
X21928375Y17596884D01*
X21932164Y17603886D01*
X21935650Y17611016D01*
X21935650Y17611018D01*
X21935653Y17611021D01*
X21951197Y17663238D01*
X21951799Y17665116D01*
X21969500Y17716673D01*
X21969500Y17716678D01*
X21970805Y17724496D01*
X21971792Y17732410D01*
X21969541Y17786838D01*
X21969500Y17788848D01*
X21969500Y17934501D01*
X21988407Y17992692D01*
X22037907Y18028656D01*
X22068500Y18033501D01*
X22072928Y18033501D01*
X22072933Y18033500D01*
X23298797Y18033501D01*
X23356988Y18014594D01*
X23368801Y18004505D01*
X24229504Y17143802D01*
X24257281Y17089285D01*
X24258500Y17073798D01*
X24258500Y12237752D01*
X24239593Y12179561D01*
X24225150Y12163650D01*
X24144501Y12092200D01*
X24054212Y11961394D01*
X24054210Y11961391D01*
X23997853Y11812790D01*
X23997850Y11812781D01*
X23978693Y11655002D01*
X23978693Y11654999D01*
X23997850Y11497220D01*
X23997853Y11497211D01*
X24054210Y11348610D01*
X24054212Y11348607D01*
X24054213Y11348605D01*
X24083557Y11306093D01*
X24144502Y11217799D01*
X24144502Y11217798D01*
X24258176Y11117092D01*
X24263471Y11112401D01*
X24385829Y11048183D01*
X24428567Y11004399D01*
X24437408Y10943856D01*
X24409842Y10890537D01*
X24407820Y10888514D01*
X24353310Y10860723D01*
X24337799Y10859500D01*
X24177526Y10859500D01*
X24023208Y10821464D01*
X23882475Y10747602D01*
X23882464Y10747594D01*
X23763502Y10642203D01*
X23763502Y10642202D01*
X23673212Y10511394D01*
X23673210Y10511391D01*
X23616853Y10362790D01*
X23616850Y10362781D01*
X23597693Y10205002D01*
X23597693Y10204999D01*
X23616850Y10047220D01*
X23616853Y10047211D01*
X23673210Y9898610D01*
X23673212Y9898607D01*
X23673213Y9898605D01*
X23694684Y9867499D01*
X23745944Y9793236D01*
X23763439Y9734605D01*
X23743131Y9676889D01*
X23692776Y9642132D01*
X23664468Y9637998D01*
X17735997Y9637998D01*
X17677806Y9656905D01*
X17641842Y9706405D01*
X17637719Y9725065D01*
X17629047Y9796484D01*
X17626644Y9816279D01*
X17595420Y9898610D01*
X17570284Y9964888D01*
X17570282Y9964891D01*
X17570282Y9964892D01*
X17479993Y10095698D01*
X17479992Y10095699D01*
X17479992Y10095700D01*
X17361030Y10201091D01*
X17361028Y10201093D01*
X17361024Y10201096D01*
X17361020Y10201098D01*
X17361019Y10201099D01*
X17220286Y10274961D01*
X17065968Y10312997D01*
X17065966Y10312997D01*
X16907024Y10312997D01*
X16907021Y10312997D01*
X16752703Y10274961D01*
X16733158Y10264703D01*
X16672846Y10254403D01*
X16617998Y10281521D01*
X16589565Y10335699D01*
X16588152Y10352364D01*
X16588152Y13204347D01*
X16607059Y13262538D01*
X16621505Y13278451D01*
X16627150Y13283452D01*
X16649009Y13315120D01*
X16717439Y13414258D01*
X16773801Y13562871D01*
X16792959Y13720653D01*
X16784878Y13787203D01*
X16773801Y13878434D01*
X16773798Y13878443D01*
X16717441Y14027044D01*
X16717439Y14027047D01*
X16717439Y14027048D01*
X16627150Y14157854D01*
X16627149Y14157855D01*
X16627149Y14157856D01*
X16508187Y14263247D01*
X16508185Y14263249D01*
X16508181Y14263252D01*
X16508177Y14263254D01*
X16508176Y14263255D01*
X16367443Y14337117D01*
X16213125Y14375153D01*
X16213123Y14375153D01*
X16054181Y14375153D01*
X16054178Y14375153D01*
X15906191Y14338677D01*
X15845166Y14343109D01*
X15798402Y14382564D01*
X15783499Y14434800D01*
X15783499Y14877800D01*
X15802406Y14935991D01*
X15812495Y14947804D01*
X17410696Y16546004D01*
X17465213Y16573781D01*
X17480700Y16575000D01*
X18174873Y16575000D01*
X18195188Y16572893D01*
X18199705Y16571947D01*
X18208600Y16570081D01*
X18245014Y16574621D01*
X18251139Y16575000D01*
X18255943Y16575000D01*
X18278207Y16578716D01*
X18280212Y16579009D01*
X18334283Y16585748D01*
X18334285Y16585750D01*
X18341880Y16588010D01*
X18349421Y16590600D01*
X18349427Y16590600D01*
X18397330Y16616525D01*
X18399073Y16617423D01*
X18448068Y16641374D01*
X18448069Y16641376D01*
X18454510Y16645975D01*
X18460812Y16650879D01*
X18460816Y16650881D01*
X18497699Y16690948D01*
X18499063Y16692371D01*
X19811198Y18004505D01*
X19865715Y18032282D01*
X19881202Y18033501D01*
X21067799Y18033501D01*
X21125990Y18014594D01*
G37*
%TD.AperFunction*%
%TA.AperFunction,Conductor*%
G36*
X34764691Y24626593D02*
G01*
X34800655Y24577093D01*
X34805500Y24546500D01*
X34805500Y-4226500D01*
X34786593Y-4284691D01*
X34737093Y-4320655D01*
X34706500Y-4325500D01*
X-4226500Y-4325500D01*
X-4284691Y-4306593D01*
X-4320655Y-4257093D01*
X-4325500Y-4226500D01*
X-4325500Y3992997D01*
X3649210Y3992997D01*
X3668347Y3713210D01*
X3668349Y3713201D01*
X3725405Y3438629D01*
X3819321Y3174374D01*
X3948348Y2925364D01*
X4084403Y2732616D01*
X4720378Y3368592D01*
X4770327Y3287923D01*
X4915782Y3128366D01*
X5076902Y3006694D01*
X4444860Y2374651D01*
X4444859Y2374651D01*
X4519033Y2314306D01*
X4519051Y2314293D01*
X4758656Y2168586D01*
X4758667Y2168580D01*
X5015888Y2056855D01*
X5285937Y1981190D01*
X5285944Y1981189D01*
X5563778Y1943001D01*
X5563782Y1943000D01*
X5844218Y1943000D01*
X5844221Y1943001D01*
X6122055Y1981189D01*
X6122062Y1981190D01*
X6392111Y2056855D01*
X6649332Y2168580D01*
X6888955Y2314298D01*
X6963137Y2374652D01*
X6331096Y3006693D01*
X6492218Y3128366D01*
X6637673Y3287923D01*
X6687620Y3368591D01*
X7323595Y2732616D01*
X7459651Y2925364D01*
X7588678Y3174374D01*
X7682594Y3438629D01*
X7739650Y3713201D01*
X7739652Y3713210D01*
X7758790Y3992997D01*
X7758790Y3993004D01*
X7739652Y4272791D01*
X7739650Y4272800D01*
X7682594Y4547372D01*
X7588678Y4811627D01*
X7459651Y5060637D01*
X7323595Y5253386D01*
X6687619Y4617411D01*
X6637673Y4698077D01*
X6492218Y4857634D01*
X6331095Y4979308D01*
X6963138Y5611351D01*
X6888970Y5671692D01*
X6888953Y5671704D01*
X6649343Y5817415D01*
X6649332Y5817421D01*
X6392111Y5929146D01*
X6122062Y6004811D01*
X6122055Y6004812D01*
X5844221Y6043000D01*
X5563778Y6043000D01*
X5285944Y6004812D01*
X5285937Y6004811D01*
X5015888Y5929146D01*
X4758667Y5817421D01*
X4758656Y5817415D01*
X4519049Y5671706D01*
X4519043Y5671702D01*
X4444860Y5611350D01*
X5076903Y4979307D01*
X4915782Y4857634D01*
X4770327Y4698077D01*
X4720379Y4617410D01*
X4084403Y5253386D01*
X3948351Y5060643D01*
X3819321Y4811627D01*
X3725405Y4547372D01*
X3668349Y4272800D01*
X3668347Y4272791D01*
X3649210Y3993004D01*
X3649210Y3992997D01*
X-4325500Y3992997D01*
X-4325500Y6984999D01*
X3277693Y6984999D01*
X3296850Y6827220D01*
X3296853Y6827211D01*
X3353210Y6678610D01*
X3353212Y6678607D01*
X3353213Y6678605D01*
X3418169Y6584500D01*
X3443502Y6547799D01*
X3443502Y6547798D01*
X3539726Y6462551D01*
X3562471Y6442401D01*
X3703207Y6368537D01*
X3857529Y6330500D01*
X3857532Y6330500D01*
X4016468Y6330500D01*
X4016471Y6330500D01*
X4170793Y6368537D01*
X4311529Y6442401D01*
X4430498Y6547799D01*
X4520787Y6678605D01*
X4527539Y6696407D01*
X4533810Y6712945D01*
X4577149Y6827218D01*
X4596307Y6985000D01*
X4577149Y7142782D01*
X4541584Y7236559D01*
X4520789Y7291391D01*
X4520787Y7291394D01*
X4520787Y7291395D01*
X4452649Y7390110D01*
X4430498Y7422202D01*
X4424848Y7427207D01*
X4393832Y7479948D01*
X4391500Y7501307D01*
X4391500Y8763001D01*
X7259073Y8763001D01*
X7278738Y8550784D01*
X7337064Y8345790D01*
X7432057Y8155016D01*
X7432059Y8155012D01*
X7438401Y8146615D01*
X7959825Y8668040D01*
X7960467Y8659484D01*
X8011128Y8530402D01*
X8097586Y8421987D01*
X8212159Y8343873D01*
X8320625Y8310416D01*
X7800485Y7790276D01*
X7899202Y7729154D01*
X7899204Y7729153D01*
X8097941Y7652162D01*
X8307437Y7613000D01*
X8520563Y7613000D01*
X8730058Y7652162D01*
X8928793Y7729153D01*
X9110001Y7841351D01*
X9157135Y7884319D01*
X9212876Y7909550D01*
X9272802Y7897198D01*
X9314023Y7851982D01*
X9320930Y7830471D01*
X9324265Y7813700D01*
X9324266Y7813698D01*
X9380513Y7729520D01*
X9380516Y7729516D01*
X9464699Y7673266D01*
X9538933Y7658500D01*
X11289066Y7658501D01*
X11363301Y7673266D01*
X11447484Y7729516D01*
X11503734Y7813699D01*
X11518500Y7887933D01*
X11518499Y9638066D01*
X11503734Y9712301D01*
X11503733Y9712303D01*
X11447486Y9796481D01*
X11447485Y9796482D01*
X11447484Y9796484D01*
X11363301Y9852734D01*
X11289067Y9867500D01*
X11289066Y9867500D01*
X9538936Y9867500D01*
X9538929Y9867499D01*
X9464699Y9852735D01*
X9464697Y9852734D01*
X9380519Y9796487D01*
X9380514Y9796482D01*
X9324266Y9712302D01*
X9324265Y9712298D01*
X9320929Y9695527D01*
X9291032Y9642143D01*
X9235466Y9616529D01*
X9175456Y9628467D01*
X9157136Y9641681D01*
X9110001Y9684650D01*
X8928793Y9796848D01*
X8730058Y9873839D01*
X8520563Y9913000D01*
X8307437Y9913000D01*
X8097941Y9873839D01*
X7899206Y9796849D01*
X7899205Y9796848D01*
X7800486Y9735725D01*
X8321896Y9214314D01*
X8276881Y9207529D01*
X8151946Y9147363D01*
X8050295Y9053045D01*
X7980961Y8932955D01*
X7963098Y8854692D01*
X7438401Y9379389D01*
X7432066Y9370999D01*
X7432057Y9370984D01*
X7337064Y9180211D01*
X7278738Y8975217D01*
X7259073Y8763001D01*
X4391500Y8763001D01*
X4391500Y8946733D01*
X4410407Y9004924D01*
X4420490Y9016731D01*
X7260179Y11856420D01*
X7314694Y11884195D01*
X7375126Y11874624D01*
X7418391Y11831359D01*
X7427962Y11770927D01*
X7418802Y11742287D01*
X7379673Y11663705D01*
X7323655Y11466823D01*
X7304768Y11263000D01*
X7323655Y11059178D01*
X7355554Y10947066D01*
X7379672Y10862299D01*
X7470912Y10679065D01*
X7594268Y10515715D01*
X7745538Y10377814D01*
X7919573Y10270056D01*
X8110444Y10196112D01*
X8311653Y10158500D01*
X8516347Y10158500D01*
X8717556Y10196112D01*
X8908427Y10270056D01*
X9082462Y10377814D01*
X9233732Y10515715D01*
X9334998Y10649814D01*
X9385152Y10684855D01*
X9446327Y10683724D01*
X9493001Y10649814D01*
X9594268Y10515715D01*
X9745538Y10377814D01*
X9919573Y10270056D01*
X10110444Y10196112D01*
X10311653Y10158500D01*
X10516347Y10158500D01*
X10717556Y10196112D01*
X10908427Y10270056D01*
X11082462Y10377814D01*
X11233732Y10515715D01*
X11357088Y10679065D01*
X11448328Y10862299D01*
X11504345Y11059179D01*
X11523232Y11263000D01*
X11505016Y11459573D01*
X11518474Y11519256D01*
X11564444Y11559634D01*
X11625368Y11565280D01*
X11673598Y11538708D01*
X12146884Y11065422D01*
X12174661Y11010905D01*
X12175158Y10983486D01*
X12167693Y10922003D01*
X12167693Y10921998D01*
X12186850Y10764220D01*
X12186853Y10764211D01*
X12243210Y10615610D01*
X12243212Y10615607D01*
X12243213Y10615605D01*
X12252715Y10601839D01*
X12333500Y10484801D01*
X12333501Y10484800D01*
X12333502Y10484799D01*
X12414150Y10413351D01*
X12445168Y10360613D01*
X12447500Y10339250D01*
X12447500Y6294203D01*
X12428593Y6236012D01*
X12418504Y6224199D01*
X9164739Y2970435D01*
X9148889Y2957563D01*
X9137418Y2950068D01*
X9137415Y2950066D01*
X9114883Y2921116D01*
X9110823Y2916519D01*
X9107425Y2913121D01*
X9107414Y2913109D01*
X9094287Y2894724D01*
X9093067Y2893087D01*
X9059623Y2850117D01*
X9055839Y2843124D01*
X9052347Y2835980D01*
X9036812Y2783801D01*
X9036188Y2781854D01*
X9018499Y2730329D01*
X9017195Y2722512D01*
X9016208Y2714591D01*
X9016208Y2714590D01*
X9018458Y2660173D01*
X9018500Y2658163D01*
X9018500Y-1579798D01*
X8999593Y-1637989D01*
X8989504Y-1649802D01*
X7872802Y-2766504D01*
X7818285Y-2794281D01*
X7802798Y-2795500D01*
X5030285Y-2795500D01*
X4972094Y-2776593D01*
X4948808Y-2752736D01*
X4938498Y-2737799D01*
X4938497Y-2737797D01*
X4819535Y-2632406D01*
X4819533Y-2632404D01*
X4819529Y-2632401D01*
X4819525Y-2632399D01*
X4819524Y-2632398D01*
X4678791Y-2558536D01*
X4524473Y-2520500D01*
X4524471Y-2520500D01*
X4365529Y-2520500D01*
X4365526Y-2520500D01*
X4211208Y-2558536D01*
X4070475Y-2632398D01*
X4070464Y-2632406D01*
X3951502Y-2737797D01*
X3951502Y-2737798D01*
X3861212Y-2868606D01*
X3861210Y-2868609D01*
X3804853Y-3017210D01*
X3804850Y-3017219D01*
X3785693Y-3174998D01*
X3785693Y-3175001D01*
X3804850Y-3332780D01*
X3804853Y-3332789D01*
X3861210Y-3481390D01*
X3861212Y-3481393D01*
X3861213Y-3481395D01*
X3915069Y-3559419D01*
X3951502Y-3612201D01*
X3951502Y-3612202D01*
X4070464Y-3717593D01*
X4070471Y-3717599D01*
X4211207Y-3791463D01*
X4365529Y-3829500D01*
X4365532Y-3829500D01*
X4524468Y-3829500D01*
X4524471Y-3829500D01*
X4678793Y-3791463D01*
X4819529Y-3717599D01*
X4938498Y-3612201D01*
X4948808Y-3597263D01*
X4997423Y-3560113D01*
X5030285Y-3554500D01*
X7951373Y-3554500D01*
X7971688Y-3556607D01*
X7976205Y-3557553D01*
X7985100Y-3559419D01*
X8021514Y-3554879D01*
X8027639Y-3554500D01*
X8032443Y-3554500D01*
X8054707Y-3550784D01*
X8056712Y-3550491D01*
X8110783Y-3543752D01*
X8110785Y-3543750D01*
X8118380Y-3541490D01*
X8125921Y-3538900D01*
X8125927Y-3538900D01*
X8173830Y-3512975D01*
X8175573Y-3512077D01*
X8224568Y-3488126D01*
X8224569Y-3488124D01*
X8231010Y-3483525D01*
X8237312Y-3478621D01*
X8237316Y-3478619D01*
X8274199Y-3438552D01*
X8275563Y-3437129D01*
X9631261Y-2081431D01*
X9647110Y-2068562D01*
X9658582Y-2061068D01*
X9681119Y-2032110D01*
X9685172Y-2027520D01*
X9688580Y-2024114D01*
X9701728Y-2005696D01*
X9702893Y-2004134D01*
X9736375Y-1961119D01*
X9736375Y-1961116D01*
X9740160Y-1954123D01*
X9743649Y-1946984D01*
X9743653Y-1946980D01*
X9759197Y-1894761D01*
X9759792Y-1892904D01*
X9777500Y-1841327D01*
X9777500Y-1841323D01*
X9778801Y-1833531D01*
X9779789Y-1825597D01*
X9779791Y-1825591D01*
X9777541Y-1771187D01*
X9777500Y-1769177D01*
X9777500Y-1015999D01*
X10368000Y-1015999D01*
X10368001Y-1016000D01*
X11063382Y-1016000D01*
X11011553Y-1105772D01*
X10981736Y-1236407D01*
X10991749Y-1370028D01*
X11040703Y-1494760D01*
X11064021Y-1524000D01*
X10368002Y-1524000D01*
X10368001Y-1524001D01*
X10368001Y-2076791D01*
X10370909Y-2101874D01*
X10416213Y-2204477D01*
X10495522Y-2283786D01*
X10598127Y-2329090D01*
X10623203Y-2331999D01*
X11175998Y-2331999D01*
X11176000Y-2331998D01*
X11176000Y-1634805D01*
X11234960Y-1675004D01*
X11363002Y-1714500D01*
X11463312Y-1714500D01*
X11562499Y-1699550D01*
X11683224Y-1641412D01*
X11684000Y-1640691D01*
X11684000Y-2331998D01*
X11684001Y-2331999D01*
X12236790Y-2331999D01*
X12236791Y-2331998D01*
X12261874Y-2329090D01*
X12364477Y-2283786D01*
X12443786Y-2204477D01*
X12489090Y-2101872D01*
X12491999Y-2076797D01*
X12492000Y-2076795D01*
X12492000Y-2057063D01*
X12953500Y-2057063D01*
X12953501Y-2057070D01*
X12968265Y-2131300D01*
X12968266Y-2131302D01*
X13017161Y-2204477D01*
X13024516Y-2215484D01*
X13108699Y-2271734D01*
X13182933Y-2286500D01*
X14757066Y-2286499D01*
X14831301Y-2271734D01*
X14915484Y-2215484D01*
X14971734Y-2131301D01*
X14986500Y-2057067D01*
X14986499Y-1015999D01*
X15448000Y-1015999D01*
X15448001Y-1016000D01*
X16143382Y-1016000D01*
X16091553Y-1105772D01*
X16061736Y-1236407D01*
X16071749Y-1370028D01*
X16120703Y-1494760D01*
X16144021Y-1524000D01*
X15448002Y-1524000D01*
X15448001Y-1524001D01*
X15448001Y-2076791D01*
X15450909Y-2101874D01*
X15496213Y-2204477D01*
X15575522Y-2283786D01*
X15678127Y-2329090D01*
X15703203Y-2331999D01*
X16255998Y-2331999D01*
X16256000Y-2331998D01*
X16256000Y-1634805D01*
X16314960Y-1675004D01*
X16443002Y-1714500D01*
X16543312Y-1714500D01*
X16642499Y-1699550D01*
X16763224Y-1641412D01*
X16764000Y-1640691D01*
X16764000Y-2331998D01*
X16764001Y-2331999D01*
X17316790Y-2331999D01*
X17316791Y-2331998D01*
X17341874Y-2329090D01*
X17444477Y-2283786D01*
X17523786Y-2204477D01*
X17569090Y-2101872D01*
X17571999Y-2076797D01*
X17572000Y-2076795D01*
X17572000Y-1524001D01*
X17571999Y-1524000D01*
X16876618Y-1524000D01*
X16928447Y-1434228D01*
X16958264Y-1303593D01*
X16948251Y-1169972D01*
X16899297Y-1045240D01*
X16875979Y-1016000D01*
X17571998Y-1016000D01*
X17571999Y-1015999D01*
X19258000Y-1015999D01*
X19258001Y-1016000D01*
X19953382Y-1016000D01*
X19901553Y-1105772D01*
X19871736Y-1236407D01*
X19881749Y-1370028D01*
X19930703Y-1494760D01*
X19954021Y-1524000D01*
X19258002Y-1524000D01*
X19258001Y-1524001D01*
X19258001Y-2076791D01*
X19260909Y-2101874D01*
X19306213Y-2204477D01*
X19385522Y-2283786D01*
X19488127Y-2329090D01*
X19513203Y-2331999D01*
X20065998Y-2331999D01*
X20066000Y-2331998D01*
X20066000Y-1634805D01*
X20124960Y-1675004D01*
X20253002Y-1714500D01*
X20353312Y-1714500D01*
X20452499Y-1699550D01*
X20573224Y-1641412D01*
X20574000Y-1640691D01*
X20574000Y-2331998D01*
X20574001Y-2331999D01*
X21126790Y-2331999D01*
X21126791Y-2331998D01*
X21151874Y-2329090D01*
X21254477Y-2283786D01*
X21333786Y-2204477D01*
X21379090Y-2101872D01*
X21381999Y-2076797D01*
X21382000Y-2076794D01*
X21382000Y-2057063D01*
X21843500Y-2057063D01*
X21843501Y-2057070D01*
X21858265Y-2131300D01*
X21858266Y-2131302D01*
X21907161Y-2204477D01*
X21914516Y-2215484D01*
X21998699Y-2271734D01*
X22072933Y-2286500D01*
X23647066Y-2286499D01*
X23721301Y-2271734D01*
X23805484Y-2215484D01*
X23861734Y-2131301D01*
X23876500Y-2057067D01*
X23876499Y-1015998D01*
X24338000Y-1015998D01*
X24338001Y-1016000D01*
X25033382Y-1016000D01*
X24981553Y-1105772D01*
X24951736Y-1236407D01*
X24961749Y-1370028D01*
X25010703Y-1494760D01*
X25034021Y-1524000D01*
X24338002Y-1524000D01*
X24338001Y-1524001D01*
X24338001Y-2076791D01*
X24340909Y-2101874D01*
X24386213Y-2204477D01*
X24465522Y-2283786D01*
X24568127Y-2329090D01*
X24593203Y-2331999D01*
X25145998Y-2331999D01*
X25146000Y-2331998D01*
X25146000Y-1634805D01*
X25204960Y-1675004D01*
X25333002Y-1714500D01*
X25433312Y-1714500D01*
X25532499Y-1699550D01*
X25653224Y-1641412D01*
X25654000Y-1640691D01*
X25654000Y-2331998D01*
X25654001Y-2331999D01*
X26206790Y-2331999D01*
X26206791Y-2331998D01*
X26231874Y-2329090D01*
X26334477Y-2283786D01*
X26413786Y-2204477D01*
X26459090Y-2101872D01*
X26461999Y-2076797D01*
X26462000Y-2076794D01*
X26462000Y-1524001D01*
X26461999Y-1524000D01*
X25766618Y-1524000D01*
X25818447Y-1434228D01*
X25848264Y-1303593D01*
X25838251Y-1169972D01*
X25789297Y-1045240D01*
X25765979Y-1016000D01*
X26461998Y-1016000D01*
X26461999Y-1015998D01*
X26461999Y-463209D01*
X26461998Y-463208D01*
X26459090Y-438125D01*
X26413786Y-335522D01*
X26334477Y-256213D01*
X26231872Y-210909D01*
X26206797Y-208000D01*
X25654001Y-208000D01*
X25654000Y-208001D01*
X25654000Y-905194D01*
X25595040Y-864996D01*
X25466998Y-825500D01*
X25366688Y-825500D01*
X25267501Y-840450D01*
X25146776Y-898588D01*
X25146000Y-899308D01*
X25146000Y-208001D01*
X25145999Y-208000D01*
X24593210Y-208000D01*
X24593207Y-208001D01*
X24568125Y-210909D01*
X24465522Y-256213D01*
X24386213Y-335522D01*
X24340909Y-438127D01*
X24338000Y-463202D01*
X24338000Y-1015998D01*
X23876499Y-1015998D01*
X23876499Y-482934D01*
X23861734Y-408699D01*
X23861733Y-408697D01*
X23805486Y-324519D01*
X23805485Y-324518D01*
X23805484Y-324516D01*
X23721301Y-268266D01*
X23647067Y-253500D01*
X23647066Y-253500D01*
X22072936Y-253500D01*
X22072929Y-253501D01*
X21998699Y-268265D01*
X21998697Y-268266D01*
X21914519Y-324513D01*
X21914514Y-324518D01*
X21877016Y-380637D01*
X21858266Y-408699D01*
X21843501Y-482929D01*
X21843500Y-482933D01*
X21843500Y-2057063D01*
X21382000Y-2057063D01*
X21382000Y-1524000D01*
X20686618Y-1524000D01*
X20738447Y-1434228D01*
X20768264Y-1303593D01*
X20758251Y-1169972D01*
X20709297Y-1045240D01*
X20685979Y-1016000D01*
X21381998Y-1016000D01*
X21381999Y-1015998D01*
X21381999Y-463209D01*
X21381998Y-463208D01*
X21379090Y-438125D01*
X21333786Y-335522D01*
X21254477Y-256213D01*
X21151872Y-210909D01*
X21126797Y-208000D01*
X20574001Y-208000D01*
X20574000Y-208001D01*
X20574000Y-905194D01*
X20515040Y-864996D01*
X20386998Y-825500D01*
X20286688Y-825500D01*
X20187501Y-840450D01*
X20066776Y-898588D01*
X20066000Y-899308D01*
X20066000Y-208001D01*
X20065999Y-208000D01*
X19513210Y-208000D01*
X19513207Y-208001D01*
X19488125Y-210909D01*
X19385522Y-256213D01*
X19306213Y-335522D01*
X19260909Y-438127D01*
X19258000Y-463202D01*
X19258000Y-1015999D01*
X17571999Y-1015999D01*
X17571999Y-463209D01*
X17571998Y-463208D01*
X17569090Y-438125D01*
X17523786Y-335522D01*
X17444477Y-256213D01*
X17341872Y-210909D01*
X17316797Y-208000D01*
X16764001Y-208000D01*
X16764000Y-208001D01*
X16764000Y-905194D01*
X16705040Y-864996D01*
X16576998Y-825500D01*
X16476688Y-825500D01*
X16377501Y-840450D01*
X16256776Y-898588D01*
X16256000Y-899308D01*
X16256000Y-208001D01*
X16255999Y-208000D01*
X15703210Y-208000D01*
X15703207Y-208001D01*
X15678125Y-210909D01*
X15575522Y-256213D01*
X15496213Y-335522D01*
X15450909Y-438127D01*
X15448000Y-463202D01*
X15448000Y-1015999D01*
X14986499Y-1015999D01*
X14986499Y-482934D01*
X14971734Y-408699D01*
X14971733Y-408697D01*
X14915486Y-324519D01*
X14915485Y-324518D01*
X14915484Y-324516D01*
X14831301Y-268266D01*
X14757067Y-253500D01*
X14757066Y-253500D01*
X13182936Y-253500D01*
X13182929Y-253501D01*
X13108699Y-268265D01*
X13108697Y-268266D01*
X13024519Y-324513D01*
X13024514Y-324518D01*
X12987015Y-380638D01*
X12968266Y-408699D01*
X12953501Y-482929D01*
X12953500Y-482933D01*
X12953500Y-2057063D01*
X12492000Y-2057063D01*
X12492000Y-1524000D01*
X11796618Y-1524000D01*
X11848447Y-1434228D01*
X11878264Y-1303593D01*
X11868251Y-1169972D01*
X11819297Y-1045240D01*
X11795979Y-1016000D01*
X12491998Y-1016000D01*
X12491999Y-1015998D01*
X12491999Y-463209D01*
X12491998Y-463208D01*
X12489090Y-438125D01*
X12443786Y-335522D01*
X12364477Y-256213D01*
X12261872Y-210909D01*
X12236797Y-208000D01*
X11684001Y-208000D01*
X11684000Y-208001D01*
X11684000Y-905194D01*
X11625040Y-864996D01*
X11496998Y-825500D01*
X11396688Y-825500D01*
X11297501Y-840450D01*
X11176776Y-898588D01*
X11176000Y-899308D01*
X11176000Y-208001D01*
X11175999Y-208000D01*
X10623210Y-208000D01*
X10623207Y-208001D01*
X10598125Y-210909D01*
X10495522Y-256213D01*
X10416213Y-335522D01*
X10370909Y-438127D01*
X10368000Y-463202D01*
X10368000Y-1015999D01*
X9777500Y-1015999D01*
X9777500Y1524001D01*
X10368000Y1524001D01*
X10368001Y1524000D01*
X11063382Y1524000D01*
X11011553Y1434228D01*
X10981736Y1303593D01*
X10991749Y1169972D01*
X11040703Y1045240D01*
X11064021Y1016000D01*
X10368001Y1016000D01*
X10368001Y463209D01*
X10370909Y438126D01*
X10416213Y335523D01*
X10495522Y256214D01*
X10598127Y210910D01*
X10623203Y208001D01*
X11175998Y208001D01*
X11176000Y208002D01*
X11176000Y905195D01*
X11234960Y864996D01*
X11363002Y825500D01*
X11463312Y825500D01*
X11562499Y840450D01*
X11683224Y898588D01*
X11684000Y899309D01*
X11684000Y208002D01*
X11684001Y208001D01*
X12236790Y208001D01*
X12236791Y208002D01*
X12261874Y210910D01*
X12364477Y256214D01*
X12443786Y335523D01*
X12489090Y438128D01*
X12491999Y463203D01*
X12492000Y463205D01*
X12492000Y482937D01*
X12953500Y482937D01*
X12953501Y482930D01*
X12968265Y408700D01*
X12968266Y408698D01*
X13017161Y335523D01*
X13024516Y324516D01*
X13108699Y268266D01*
X13182933Y253500D01*
X14757066Y253501D01*
X14831301Y268266D01*
X14915484Y324516D01*
X14971734Y408699D01*
X14986500Y482933D01*
X14986499Y1524002D01*
X15448000Y1524002D01*
X15448001Y1524000D01*
X16143382Y1524000D01*
X16091553Y1434228D01*
X16061736Y1303593D01*
X16071749Y1169972D01*
X16120703Y1045240D01*
X16144021Y1016000D01*
X15448001Y1016000D01*
X15448001Y463209D01*
X15450909Y438126D01*
X15496213Y335523D01*
X15575522Y256214D01*
X15678127Y210910D01*
X15703203Y208001D01*
X16255998Y208001D01*
X16256000Y208002D01*
X16256000Y905195D01*
X16314960Y864996D01*
X16443002Y825500D01*
X16543312Y825500D01*
X16642499Y840450D01*
X16763224Y898588D01*
X16764000Y899309D01*
X16764000Y208002D01*
X16764001Y208001D01*
X17316790Y208001D01*
X17316791Y208002D01*
X17341874Y210910D01*
X17444477Y256214D01*
X17523786Y335523D01*
X17569090Y438128D01*
X17571999Y463203D01*
X17572000Y463205D01*
X17572000Y1015999D01*
X17571999Y1016000D01*
X16876618Y1016000D01*
X16928447Y1105772D01*
X16958264Y1236407D01*
X16948251Y1370028D01*
X16899297Y1494760D01*
X16875979Y1524000D01*
X17571998Y1524000D01*
X17571999Y1524001D01*
X19258000Y1524001D01*
X19258001Y1524000D01*
X19953382Y1524000D01*
X19901553Y1434228D01*
X19871736Y1303593D01*
X19881749Y1169972D01*
X19930703Y1045240D01*
X19954021Y1016000D01*
X19258002Y1016000D01*
X19258001Y1015999D01*
X19258001Y463209D01*
X19260909Y438126D01*
X19306213Y335523D01*
X19385522Y256214D01*
X19488127Y210910D01*
X19513203Y208001D01*
X20065998Y208001D01*
X20066000Y208002D01*
X20066000Y905195D01*
X20124960Y864996D01*
X20253002Y825500D01*
X20353312Y825500D01*
X20452499Y840450D01*
X20573224Y898588D01*
X20574000Y899309D01*
X20574000Y208002D01*
X20574001Y208001D01*
X21126790Y208001D01*
X21126791Y208002D01*
X21151874Y210910D01*
X21254477Y256214D01*
X21333786Y335523D01*
X21379090Y438128D01*
X21381999Y463203D01*
X21382000Y463206D01*
X21382000Y482937D01*
X21843500Y482937D01*
X21843501Y482930D01*
X21858265Y408700D01*
X21858266Y408698D01*
X21907161Y335523D01*
X21914516Y324516D01*
X21998699Y268266D01*
X22072933Y253500D01*
X23647066Y253501D01*
X23721301Y268266D01*
X23805484Y324516D01*
X23861734Y408699D01*
X23876500Y482933D01*
X23876499Y1524002D01*
X24338000Y1524002D01*
X24338001Y1524000D01*
X25033382Y1524000D01*
X24981553Y1434228D01*
X24951736Y1303593D01*
X24961749Y1169972D01*
X25010703Y1045240D01*
X25034021Y1016000D01*
X24338001Y1016000D01*
X24338001Y463209D01*
X24340909Y438126D01*
X24386213Y335523D01*
X24465522Y256214D01*
X24568127Y210910D01*
X24593203Y208001D01*
X25145998Y208001D01*
X25146000Y208002D01*
X25146000Y905195D01*
X25204960Y864996D01*
X25333002Y825500D01*
X25433312Y825500D01*
X25532499Y840450D01*
X25653224Y898588D01*
X25654000Y899309D01*
X25654000Y208002D01*
X25654001Y208001D01*
X26206790Y208001D01*
X26206791Y208002D01*
X26231874Y210910D01*
X26334477Y256214D01*
X26413786Y335523D01*
X26459090Y438128D01*
X26461999Y463203D01*
X26462000Y463206D01*
X26462000Y1015999D01*
X26461999Y1016000D01*
X25766618Y1016000D01*
X25818447Y1105772D01*
X25848264Y1236407D01*
X25838251Y1370028D01*
X25789297Y1494760D01*
X25765979Y1524000D01*
X26461998Y1524000D01*
X26461999Y1524001D01*
X26461999Y2076791D01*
X26461998Y2076792D01*
X26459090Y2101875D01*
X26413786Y2204478D01*
X26334477Y2283787D01*
X26231872Y2329091D01*
X26206797Y2332000D01*
X25654001Y2332000D01*
X25654000Y2331999D01*
X25654000Y1634806D01*
X25595040Y1675004D01*
X25466998Y1714500D01*
X25366688Y1714500D01*
X25267501Y1699550D01*
X25146776Y1641412D01*
X25146000Y1640692D01*
X25146000Y2331999D01*
X25145999Y2332000D01*
X24593210Y2332000D01*
X24593207Y2331999D01*
X24568125Y2329091D01*
X24465522Y2283787D01*
X24386213Y2204478D01*
X24340909Y2101873D01*
X24338000Y2076798D01*
X24338000Y1524002D01*
X23876499Y1524002D01*
X23876499Y2057066D01*
X23861734Y2131301D01*
X23861733Y2131303D01*
X23805486Y2215481D01*
X23805485Y2215482D01*
X23805484Y2215484D01*
X23721301Y2271734D01*
X23647067Y2286500D01*
X23629267Y2286500D01*
X23571076Y2305407D01*
X23535112Y2354907D01*
X23535112Y2416093D01*
X23559263Y2455504D01*
X24304360Y3200601D01*
X24308503Y3204303D01*
X24339933Y3229367D01*
X24339936Y3229369D01*
X24373240Y3278221D01*
X24374282Y3279689D01*
X24409369Y3327227D01*
X24409371Y3327236D01*
X24412837Y3333790D01*
X24413220Y3333588D01*
X24414284Y3335696D01*
X24413895Y3335883D01*
X24417114Y3342569D01*
X24417114Y3342570D01*
X24417116Y3342572D01*
X24434541Y3399068D01*
X24435083Y3400719D01*
X24454621Y3456549D01*
X24454621Y3456551D01*
X24456001Y3463840D01*
X24456425Y3463760D01*
X24456821Y3466094D01*
X24456394Y3466158D01*
X24457500Y3473495D01*
X24457500Y3532560D01*
X24457535Y3534410D01*
X24458373Y3556847D01*
X24459744Y3593462D01*
X24459742Y3593469D01*
X24458913Y3600835D01*
X24459340Y3600884D01*
X24457500Y3614871D01*
X24457500Y3801694D01*
X24476407Y3859885D01*
X24490853Y3875798D01*
X24496498Y3880799D01*
X24499430Y3885047D01*
X24586787Y4011605D01*
X24643149Y4160218D01*
X24662307Y4318000D01*
X24643149Y4475782D01*
X24586787Y4624395D01*
X24496498Y4755201D01*
X24496497Y4755202D01*
X24496497Y4755203D01*
X24377535Y4860594D01*
X24377533Y4860596D01*
X24377529Y4860599D01*
X24377525Y4860601D01*
X24377524Y4860602D01*
X24236791Y4934464D01*
X24082473Y4972500D01*
X24082471Y4972500D01*
X23923529Y4972500D01*
X23923526Y4972500D01*
X23769208Y4934464D01*
X23628475Y4860602D01*
X23628464Y4860594D01*
X23509502Y4755203D01*
X23509502Y4755202D01*
X23419212Y4624394D01*
X23419210Y4624391D01*
X23362853Y4475790D01*
X23362850Y4475781D01*
X23343693Y4318002D01*
X23343693Y4317999D01*
X23362850Y4160220D01*
X23362853Y4160211D01*
X23419210Y4011610D01*
X23419212Y4011607D01*
X23419213Y4011605D01*
X23432057Y3992997D01*
X23509501Y3880799D01*
X23515147Y3875798D01*
X23546167Y3823059D01*
X23548500Y3801694D01*
X23548500Y3771270D01*
X23529593Y3713079D01*
X23519504Y3701266D01*
X22558631Y2740395D01*
X22554490Y2736694D01*
X22523063Y2711631D01*
X22489780Y2662815D01*
X22488710Y2661307D01*
X22453630Y2613773D01*
X22450166Y2607218D01*
X22449790Y2607417D01*
X22448715Y2605289D01*
X22449099Y2605104D01*
X22445883Y2598429D01*
X22428461Y2541945D01*
X22427885Y2540198D01*
X22424602Y2530815D01*
X22408380Y2484457D01*
X22407001Y2477166D01*
X22406580Y2477246D01*
X22406182Y2474903D01*
X22406605Y2474839D01*
X22405500Y2467505D01*
X22405500Y2408441D01*
X22405465Y2406590D01*
X22404538Y2381798D01*
X22383468Y2324355D01*
X22332658Y2290267D01*
X22305607Y2286500D01*
X22072936Y2286500D01*
X22072929Y2286499D01*
X21998699Y2271735D01*
X21998697Y2271734D01*
X21914519Y2215487D01*
X21914514Y2215482D01*
X21883179Y2168586D01*
X21858266Y2131301D01*
X21843501Y2057071D01*
X21843500Y2057067D01*
X21843500Y482937D01*
X21382000Y482937D01*
X21382000Y1016000D01*
X20686618Y1016000D01*
X20738447Y1105772D01*
X20768264Y1236407D01*
X20758251Y1370028D01*
X20709297Y1494760D01*
X20685979Y1524000D01*
X21381998Y1524000D01*
X21381999Y1524001D01*
X21381999Y2076791D01*
X21381998Y2076792D01*
X21379090Y2101875D01*
X21333786Y2204478D01*
X21254477Y2283787D01*
X21151872Y2329091D01*
X21126797Y2332000D01*
X20574000Y2332000D01*
X20574000Y1634806D01*
X20515040Y1675004D01*
X20386998Y1714500D01*
X20286688Y1714500D01*
X20187501Y1699550D01*
X20066776Y1641412D01*
X20066000Y1640692D01*
X20066000Y2331999D01*
X20065999Y2332000D01*
X19513210Y2332000D01*
X19513207Y2331999D01*
X19488125Y2329091D01*
X19385522Y2283787D01*
X19306213Y2204478D01*
X19260909Y2101873D01*
X19258000Y2076798D01*
X19258000Y1524001D01*
X17571999Y1524001D01*
X17571999Y2076791D01*
X17571998Y2076792D01*
X17569090Y2101875D01*
X17523786Y2204478D01*
X17444477Y2283787D01*
X17341872Y2329091D01*
X17316797Y2332000D01*
X16764000Y2332000D01*
X16764000Y1634806D01*
X16705040Y1675004D01*
X16576998Y1714500D01*
X16476688Y1714500D01*
X16377501Y1699550D01*
X16256776Y1641412D01*
X16256000Y1640692D01*
X16256000Y2332000D01*
X15703210Y2332000D01*
X15703207Y2331999D01*
X15678125Y2329091D01*
X15575522Y2283787D01*
X15496213Y2204478D01*
X15450909Y2101873D01*
X15448000Y2076798D01*
X15448000Y1524002D01*
X14986499Y1524002D01*
X14986499Y2057066D01*
X14971734Y2131301D01*
X14971733Y2131303D01*
X14915486Y2215481D01*
X14915485Y2215482D01*
X14915484Y2215484D01*
X14831301Y2271734D01*
X14757067Y2286500D01*
X14757066Y2286500D01*
X13182936Y2286500D01*
X13182929Y2286499D01*
X13108699Y2271735D01*
X13108697Y2271734D01*
X13024519Y2215487D01*
X13024514Y2215482D01*
X12993179Y2168586D01*
X12968266Y2131301D01*
X12953501Y2057071D01*
X12953500Y2057067D01*
X12953500Y482937D01*
X12492000Y482937D01*
X12492000Y1016000D01*
X11796618Y1016000D01*
X11848447Y1105772D01*
X11878264Y1236407D01*
X11868251Y1370028D01*
X11819297Y1494760D01*
X11795979Y1524000D01*
X12491998Y1524000D01*
X12491999Y1524002D01*
X12491999Y2076791D01*
X12491998Y2076792D01*
X12489090Y2101875D01*
X12443786Y2204478D01*
X12364477Y2283787D01*
X12261872Y2329091D01*
X12236797Y2332000D01*
X11684001Y2332000D01*
X11684000Y2331999D01*
X11684000Y1634806D01*
X11625040Y1675004D01*
X11496998Y1714500D01*
X11396688Y1714500D01*
X11297501Y1699550D01*
X11176776Y1641412D01*
X11176000Y1640692D01*
X11176000Y2332000D01*
X10623210Y2332000D01*
X10623207Y2331999D01*
X10598125Y2329091D01*
X10495522Y2283787D01*
X10416213Y2204478D01*
X10370909Y2101873D01*
X10368000Y2076798D01*
X10368000Y1524001D01*
X9777500Y1524001D01*
X9777500Y2468799D01*
X9796407Y2526990D01*
X9806490Y2538797D01*
X12601693Y5334001D01*
X28148000Y5334001D01*
X28148001Y5334000D01*
X28843382Y5334000D01*
X28791553Y5244228D01*
X28761736Y5113593D01*
X28771749Y4979972D01*
X28820703Y4855240D01*
X28844021Y4826000D01*
X28148001Y4826000D01*
X28148001Y4273209D01*
X28150909Y4248126D01*
X28196213Y4145523D01*
X28275522Y4066214D01*
X28378127Y4020910D01*
X28403203Y4018001D01*
X28955998Y4018001D01*
X28956000Y4018002D01*
X28956000Y4715195D01*
X29014960Y4674996D01*
X29143002Y4635500D01*
X29243312Y4635500D01*
X29342499Y4650450D01*
X29463224Y4708588D01*
X29464000Y4709309D01*
X29464000Y4018002D01*
X29464001Y4018001D01*
X30016790Y4018001D01*
X30016791Y4018002D01*
X30041874Y4020910D01*
X30144477Y4066214D01*
X30223786Y4145523D01*
X30269090Y4248128D01*
X30271999Y4273203D01*
X30272000Y4273206D01*
X30272000Y4826000D01*
X29576618Y4826000D01*
X29628447Y4915772D01*
X29658264Y5046407D01*
X29648251Y5180028D01*
X29599297Y5304760D01*
X29575979Y5334000D01*
X30271998Y5334000D01*
X30271999Y5334001D01*
X30688000Y5334001D01*
X30688001Y5334000D01*
X31383382Y5334000D01*
X31331553Y5244228D01*
X31301736Y5113593D01*
X31311749Y4979972D01*
X31360703Y4855240D01*
X31384021Y4826000D01*
X30688002Y4826000D01*
X30688001Y4825999D01*
X30688001Y4273209D01*
X30690909Y4248126D01*
X30736213Y4145523D01*
X30815522Y4066214D01*
X30918127Y4020910D01*
X30943203Y4018001D01*
X31495998Y4018001D01*
X31496000Y4018002D01*
X31496000Y4715195D01*
X31554960Y4674996D01*
X31683002Y4635500D01*
X31783312Y4635500D01*
X31882499Y4650450D01*
X32003224Y4708588D01*
X32004000Y4709309D01*
X32004000Y4018002D01*
X32004001Y4018001D01*
X32556790Y4018001D01*
X32556791Y4018002D01*
X32581874Y4020910D01*
X32684477Y4066214D01*
X32763786Y4145523D01*
X32809090Y4248128D01*
X32811999Y4273203D01*
X32812000Y4273205D01*
X32812000Y4825999D01*
X32811999Y4826000D01*
X32116618Y4826000D01*
X32168447Y4915772D01*
X32198264Y5046407D01*
X32188251Y5180028D01*
X32139297Y5304760D01*
X32115979Y5334000D01*
X32811998Y5334000D01*
X32811999Y5334001D01*
X32811999Y5886791D01*
X32811998Y5886792D01*
X32809090Y5911875D01*
X32763786Y6014478D01*
X32684477Y6093787D01*
X32581872Y6139091D01*
X32556797Y6142000D01*
X32004000Y6142000D01*
X32004000Y5444806D01*
X31945040Y5485004D01*
X31816998Y5524500D01*
X31716688Y5524500D01*
X31617501Y5509550D01*
X31496776Y5451412D01*
X31496000Y5450692D01*
X31496000Y6141999D01*
X31495999Y6142000D01*
X30943210Y6142000D01*
X30943207Y6141999D01*
X30918125Y6139091D01*
X30815522Y6093787D01*
X30736213Y6014478D01*
X30690909Y5911873D01*
X30688000Y5886798D01*
X30688000Y5334001D01*
X30271999Y5334001D01*
X30271999Y5886791D01*
X30271998Y5886792D01*
X30269090Y5911875D01*
X30223786Y6014478D01*
X30144477Y6093787D01*
X30041872Y6139091D01*
X30016797Y6142000D01*
X29464001Y6142000D01*
X29464000Y6141999D01*
X29464000Y5444806D01*
X29405040Y5485004D01*
X29276998Y5524500D01*
X29176688Y5524500D01*
X29077501Y5509550D01*
X28956776Y5451412D01*
X28956000Y5450692D01*
X28956000Y6141999D01*
X28955999Y6142000D01*
X28403210Y6142000D01*
X28403207Y6141999D01*
X28378125Y6139091D01*
X28275522Y6093787D01*
X28196213Y6014478D01*
X28150909Y5911873D01*
X28148000Y5886798D01*
X28148000Y5334001D01*
X12601693Y5334001D01*
X13060261Y5792569D01*
X13076110Y5805438D01*
X13087582Y5812932D01*
X13110119Y5841890D01*
X13114172Y5846480D01*
X13117580Y5849886D01*
X13130728Y5868304D01*
X13131893Y5869866D01*
X13165375Y5912881D01*
X13165375Y5912884D01*
X13169160Y5919877D01*
X13172649Y5927016D01*
X13172653Y5927020D01*
X13188197Y5979239D01*
X13188792Y5981096D01*
X13206500Y6032673D01*
X13206500Y6032677D01*
X13207801Y6040469D01*
X13208789Y6048403D01*
X13208791Y6048409D01*
X13206541Y6102813D01*
X13206500Y6104823D01*
X13206500Y10339250D01*
X13225407Y10397441D01*
X13239844Y10413346D01*
X13320498Y10484799D01*
X13410787Y10615605D01*
X13467149Y10764218D01*
X13486307Y10922000D01*
X13483263Y10947066D01*
X13467149Y11079781D01*
X13467146Y11079790D01*
X13410789Y11228391D01*
X13410787Y11228394D01*
X13410787Y11228395D01*
X13320498Y11359201D01*
X13320497Y11359202D01*
X13320497Y11359203D01*
X13201535Y11464594D01*
X13201533Y11464596D01*
X13201529Y11464599D01*
X13201525Y11464601D01*
X13201524Y11464602D01*
X13060791Y11538464D01*
X12906473Y11576500D01*
X12906471Y11576500D01*
X12750202Y11576500D01*
X12692011Y11595407D01*
X12680198Y11605496D01*
X10568496Y13717199D01*
X10540719Y13771716D01*
X10539500Y13787203D01*
X10539500Y15927250D01*
X10558407Y15985441D01*
X10572844Y16001346D01*
X10653498Y16072799D01*
X10743787Y16203605D01*
X10800149Y16352218D01*
X10819307Y16510000D01*
X10814935Y16546004D01*
X10800149Y16667781D01*
X10800146Y16667789D01*
X10746063Y16810394D01*
X10743106Y16871507D01*
X10776636Y16922687D01*
X10833845Y16944384D01*
X10838629Y16944500D01*
X10855495Y16944500D01*
X13077483Y16944500D01*
X13135674Y16925593D01*
X13143121Y16919611D01*
X13214471Y16856401D01*
X13355207Y16782537D01*
X13509529Y16744500D01*
X13509532Y16744500D01*
X13668468Y16744500D01*
X13668471Y16744500D01*
X13822793Y16782537D01*
X13963529Y16856401D01*
X14082498Y16961799D01*
X14172787Y17092605D01*
X14175836Y17100643D01*
X14229146Y17241211D01*
X14229149Y17241218D01*
X14248307Y17399000D01*
X14229149Y17556782D01*
X14211058Y17604483D01*
X14172789Y17705391D01*
X14172787Y17705394D01*
X14172787Y17705395D01*
X14082498Y17836201D01*
X14082497Y17836202D01*
X14082497Y17836203D01*
X13963535Y17941594D01*
X13963533Y17941596D01*
X13963529Y17941599D01*
X13963525Y17941601D01*
X13963524Y17941602D01*
X13822791Y18015464D01*
X13756500Y18031803D01*
X13704525Y18064087D01*
X13681452Y18120755D01*
X13696095Y18180162D01*
X13697835Y18182865D01*
X13701734Y18188699D01*
X13716500Y18262933D01*
X13716499Y19837066D01*
X13716499Y19837067D01*
X13716499Y19841500D01*
X13735406Y19899691D01*
X13784906Y19935655D01*
X13815499Y19940500D01*
X14124500Y19940500D01*
X14182691Y19921593D01*
X14218655Y19872093D01*
X14223500Y19841500D01*
X14223500Y18262937D01*
X14223501Y18262930D01*
X14238265Y18188700D01*
X14238266Y18188698D01*
X14277108Y18130568D01*
X14294516Y18104516D01*
X14378699Y18048266D01*
X14452933Y18033500D01*
X15297797Y18033501D01*
X15355988Y18014594D01*
X15367800Y18004505D01*
X15593503Y17778803D01*
X15621281Y17724286D01*
X15622500Y17708799D01*
X15622500Y17343202D01*
X15603593Y17285011D01*
X15593504Y17273199D01*
X14762431Y16442126D01*
X14762432Y16442126D01*
X14270717Y15950414D01*
X14254868Y15937542D01*
X14243397Y15930047D01*
X14243394Y15930045D01*
X14220862Y15901095D01*
X14216802Y15896498D01*
X14213404Y15893100D01*
X14213393Y15893088D01*
X14200266Y15874703D01*
X14199046Y15873066D01*
X14165602Y15830096D01*
X14161818Y15823103D01*
X14158326Y15815959D01*
X14142791Y15763780D01*
X14142167Y15761833D01*
X14124478Y15710308D01*
X14123174Y15702491D01*
X14122187Y15694570D01*
X14122187Y15694569D01*
X14124437Y15640152D01*
X14124479Y15638142D01*
X14124479Y8277238D01*
X14122372Y8256924D01*
X14119560Y8243513D01*
X14124099Y8207102D01*
X14124479Y8200973D01*
X14124479Y8196166D01*
X14128191Y8173917D01*
X14128486Y8171894D01*
X14135226Y8117832D01*
X14137498Y8110197D01*
X14140078Y8102686D01*
X14140078Y8102685D01*
X14140079Y8102684D01*
X14165999Y8054786D01*
X14166912Y8053014D01*
X14180845Y8024514D01*
X14190851Y8004046D01*
X14195464Y7997585D01*
X14200359Y7991296D01*
X14240393Y7954442D01*
X14241870Y7953025D01*
X15658162Y6536734D01*
X15671035Y6520883D01*
X15678531Y6509409D01*
X15707486Y6486873D01*
X15712083Y6482813D01*
X15715485Y6479411D01*
X15733874Y6466281D01*
X15735460Y6465099D01*
X15764626Y6442399D01*
X15777986Y6432000D01*
X15778480Y6431616D01*
X15778481Y6431616D01*
X15785466Y6427836D01*
X15792617Y6424340D01*
X15792620Y6424338D01*
X15844835Y6408794D01*
X15846727Y6408188D01*
X15898272Y6390491D01*
X15898272Y6390492D01*
X15898273Y6390491D01*
X15906098Y6389186D01*
X15914009Y6388199D01*
X15968425Y6390451D01*
X15970439Y6390492D01*
X20182366Y6390492D01*
X20202680Y6388386D01*
X20216092Y6385573D01*
X20252504Y6390113D01*
X20258631Y6390492D01*
X20263435Y6390492D01*
X20285699Y6394208D01*
X20287704Y6394501D01*
X20341775Y6401240D01*
X20341777Y6401242D01*
X20349372Y6403502D01*
X20356913Y6406092D01*
X20356919Y6406092D01*
X20404822Y6432017D01*
X20406565Y6432915D01*
X20455560Y6456866D01*
X20455561Y6456868D01*
X20462002Y6461467D01*
X20468304Y6466371D01*
X20468308Y6466373D01*
X20505191Y6506440D01*
X20506580Y6507887D01*
X20554198Y6555504D01*
X20608715Y6583281D01*
X20624201Y6584500D01*
X20780468Y6584500D01*
X20780471Y6584500D01*
X20934793Y6622537D01*
X21075529Y6696401D01*
X21194498Y6801799D01*
X21215991Y6832937D01*
X28193500Y6832937D01*
X28193501Y6832930D01*
X28208265Y6758700D01*
X28208266Y6758698D01*
X28264513Y6674520D01*
X28264516Y6674516D01*
X28348699Y6618266D01*
X28422933Y6603500D01*
X29997066Y6603501D01*
X30071301Y6618266D01*
X30155484Y6674516D01*
X30211734Y6758699D01*
X30226500Y6832933D01*
X30226500Y6832937D01*
X30733500Y6832937D01*
X30733501Y6832930D01*
X30748265Y6758700D01*
X30748266Y6758698D01*
X30804513Y6674520D01*
X30804516Y6674516D01*
X30888699Y6618266D01*
X30962933Y6603500D01*
X32537066Y6603501D01*
X32611301Y6618266D01*
X32695484Y6674516D01*
X32751734Y6758699D01*
X32766500Y6832933D01*
X32766499Y8407066D01*
X32751734Y8481301D01*
X32751733Y8481303D01*
X32695486Y8565481D01*
X32695485Y8565482D01*
X32695484Y8565484D01*
X32611301Y8621734D01*
X32537067Y8636500D01*
X32537066Y8636500D01*
X30962936Y8636500D01*
X30962929Y8636499D01*
X30888699Y8621735D01*
X30888697Y8621734D01*
X30804519Y8565487D01*
X30804514Y8565482D01*
X30767016Y8509362D01*
X30748266Y8481301D01*
X30740931Y8444425D01*
X30733500Y8407067D01*
X30733500Y6832937D01*
X30226500Y6832937D01*
X30226499Y8407066D01*
X30211734Y8481301D01*
X30211733Y8481303D01*
X30155486Y8565481D01*
X30155485Y8565482D01*
X30155484Y8565484D01*
X30071301Y8621734D01*
X29997067Y8636500D01*
X29997066Y8636500D01*
X28422936Y8636500D01*
X28422929Y8636499D01*
X28348699Y8621735D01*
X28348697Y8621734D01*
X28264519Y8565487D01*
X28264514Y8565482D01*
X28227016Y8509362D01*
X28208266Y8481301D01*
X28200931Y8444425D01*
X28193500Y8407067D01*
X28193500Y6832937D01*
X21215991Y6832937D01*
X21284787Y6932605D01*
X21341149Y7081218D01*
X21360307Y7239000D01*
X21359225Y7247910D01*
X21370979Y7307954D01*
X21415783Y7349623D01*
X21433803Y7355964D01*
X21574979Y7390760D01*
X21715715Y7464624D01*
X21834684Y7570022D01*
X21844994Y7584960D01*
X21893609Y7622110D01*
X21926471Y7627723D01*
X24467596Y7627723D01*
X24487911Y7625616D01*
X24492428Y7624670D01*
X24501323Y7622804D01*
X24537737Y7627344D01*
X24543862Y7627723D01*
X24548666Y7627723D01*
X24570930Y7631439D01*
X24572935Y7631732D01*
X24627006Y7638471D01*
X24627008Y7638473D01*
X24634603Y7640733D01*
X24642144Y7643323D01*
X24642150Y7643323D01*
X24690053Y7669248D01*
X24691796Y7670146D01*
X24740791Y7694097D01*
X24740792Y7694099D01*
X24747233Y7698698D01*
X24753535Y7703602D01*
X24753539Y7703604D01*
X24790433Y7743683D01*
X24791799Y7745107D01*
X25055581Y8008887D01*
X25055581Y8008888D01*
X28024498Y10977806D01*
X28079013Y11005581D01*
X28139445Y10996010D01*
X28182710Y10952745D01*
X28193500Y10907800D01*
X28193500Y9372937D01*
X28193501Y9372930D01*
X28208265Y9298700D01*
X28208266Y9298698D01*
X28258847Y9223000D01*
X28264516Y9214516D01*
X28348699Y9158266D01*
X28422933Y9143500D01*
X29997066Y9143501D01*
X30071301Y9158266D01*
X30155484Y9214516D01*
X30211734Y9298699D01*
X30226500Y9372933D01*
X30226500Y9372937D01*
X30733500Y9372937D01*
X30733501Y9372930D01*
X30748265Y9298700D01*
X30748266Y9298698D01*
X30798847Y9223000D01*
X30804516Y9214516D01*
X30888699Y9158266D01*
X30962933Y9143500D01*
X32537066Y9143501D01*
X32611301Y9158266D01*
X32695484Y9214516D01*
X32751734Y9298699D01*
X32766500Y9372933D01*
X32766499Y10947066D01*
X32751734Y11021301D01*
X32751733Y11021303D01*
X32695486Y11105481D01*
X32695485Y11105482D01*
X32695484Y11105484D01*
X32611301Y11161734D01*
X32537067Y11176500D01*
X32537066Y11176500D01*
X30962936Y11176500D01*
X30962929Y11176499D01*
X30888699Y11161735D01*
X30888697Y11161734D01*
X30804519Y11105487D01*
X30804514Y11105482D01*
X30773575Y11059178D01*
X30748266Y11021301D01*
X30739614Y10977804D01*
X30733500Y10947067D01*
X30733500Y9372937D01*
X30226500Y9372937D01*
X30226499Y10947066D01*
X30211734Y11021301D01*
X30211733Y11021303D01*
X30155486Y11105481D01*
X30155485Y11105482D01*
X30155484Y11105484D01*
X30071301Y11161734D01*
X29997067Y11176500D01*
X29997066Y11176500D01*
X28462200Y11176500D01*
X28404009Y11195407D01*
X28368045Y11244907D01*
X28368045Y11306093D01*
X28392197Y11345504D01*
X28701199Y11654505D01*
X28755715Y11682282D01*
X28771202Y11683501D01*
X29997064Y11683501D01*
X29997066Y11683501D01*
X30071301Y11698266D01*
X30155484Y11754516D01*
X30211734Y11838699D01*
X30226500Y11912933D01*
X30226500Y11912937D01*
X30733500Y11912937D01*
X30733501Y11912930D01*
X30748265Y11838700D01*
X30748266Y11838698D01*
X30774837Y11798933D01*
X30804516Y11754516D01*
X30888699Y11698266D01*
X30962933Y11683500D01*
X32537066Y11683501D01*
X32611301Y11698266D01*
X32695484Y11754516D01*
X32751734Y11838699D01*
X32766500Y11912933D01*
X32766499Y13487066D01*
X32751734Y13561301D01*
X32751733Y13561303D01*
X32695486Y13645481D01*
X32695485Y13645482D01*
X32695484Y13645484D01*
X32611301Y13701734D01*
X32537067Y13716500D01*
X32537066Y13716500D01*
X30962936Y13716500D01*
X30962929Y13716499D01*
X30888699Y13701735D01*
X30888697Y13701734D01*
X30804519Y13645487D01*
X30804514Y13645482D01*
X30767016Y13589362D01*
X30748266Y13561301D01*
X30734728Y13493240D01*
X30733500Y13487067D01*
X30733500Y11912937D01*
X30226500Y11912937D01*
X30226499Y13487066D01*
X30211734Y13561301D01*
X30211733Y13561303D01*
X30155486Y13645481D01*
X30155485Y13645482D01*
X30155484Y13645484D01*
X30071301Y13701734D01*
X29997067Y13716500D01*
X29997066Y13716500D01*
X28422936Y13716500D01*
X28422929Y13716499D01*
X28348699Y13701735D01*
X28348697Y13701734D01*
X28264519Y13645487D01*
X28264514Y13645482D01*
X28227016Y13589363D01*
X28208266Y13561301D01*
X28196437Y13501834D01*
X28193500Y13487068D01*
X28193500Y12261203D01*
X28174593Y12203012D01*
X28164504Y12191199D01*
X27388168Y11414864D01*
X27333651Y11387087D01*
X27273219Y11396658D01*
X27229954Y11439923D01*
X27225604Y11449746D01*
X27182753Y11562734D01*
X27092464Y11693540D01*
X27092463Y11693541D01*
X27092463Y11693542D01*
X26973501Y11798933D01*
X26973499Y11798935D01*
X26973495Y11798938D01*
X26973491Y11798940D01*
X26973490Y11798941D01*
X26832757Y11872803D01*
X26678439Y11910839D01*
X26678437Y11910839D01*
X26519495Y11910839D01*
X26519492Y11910839D01*
X26365174Y11872803D01*
X26224441Y11798941D01*
X26224430Y11798933D01*
X26105468Y11693542D01*
X26105468Y11693541D01*
X26015178Y11562733D01*
X26015176Y11562730D01*
X25971066Y11446421D01*
X25932753Y11398716D01*
X25873716Y11382643D01*
X25816507Y11404340D01*
X25782977Y11455520D01*
X25779500Y11481527D01*
X25779500Y14452937D01*
X28193500Y14452937D01*
X28193501Y14452930D01*
X28208265Y14378700D01*
X28208266Y14378698D01*
X28264513Y14294520D01*
X28264516Y14294516D01*
X28348699Y14238266D01*
X28422933Y14223500D01*
X29997066Y14223501D01*
X30071301Y14238266D01*
X30155484Y14294516D01*
X30211734Y14378699D01*
X30226500Y14452933D01*
X30226500Y14452937D01*
X30733500Y14452937D01*
X30733501Y14452930D01*
X30748265Y14378700D01*
X30748266Y14378698D01*
X30804513Y14294520D01*
X30804516Y14294516D01*
X30888699Y14238266D01*
X30962933Y14223500D01*
X32537066Y14223501D01*
X32611301Y14238266D01*
X32695484Y14294516D01*
X32751734Y14378699D01*
X32766500Y14452933D01*
X32766499Y16027066D01*
X32751734Y16101301D01*
X32751733Y16101303D01*
X32695486Y16185481D01*
X32695485Y16185482D01*
X32695484Y16185484D01*
X32611301Y16241734D01*
X32537067Y16256500D01*
X32537066Y16256500D01*
X30962936Y16256500D01*
X30962929Y16256499D01*
X30888699Y16241735D01*
X30888697Y16241734D01*
X30804519Y16185487D01*
X30804514Y16185482D01*
X30780741Y16149903D01*
X30748266Y16101301D01*
X30742597Y16072799D01*
X30733500Y16027067D01*
X30733500Y14452937D01*
X30226500Y14452937D01*
X30226499Y16027066D01*
X30211734Y16101301D01*
X30211733Y16101303D01*
X30155486Y16185481D01*
X30155485Y16185482D01*
X30155484Y16185484D01*
X30071301Y16241734D01*
X29997067Y16256500D01*
X29997066Y16256500D01*
X28422936Y16256500D01*
X28422929Y16256499D01*
X28348699Y16241735D01*
X28348697Y16241734D01*
X28264519Y16185487D01*
X28264514Y16185482D01*
X28240741Y16149903D01*
X28208266Y16101301D01*
X28202597Y16072799D01*
X28193500Y16027067D01*
X28193500Y14452937D01*
X25779500Y14452937D01*
X25779500Y17934501D01*
X25798407Y17992692D01*
X25847907Y18028656D01*
X25878500Y18033501D01*
X26187064Y18033501D01*
X26187066Y18033501D01*
X26261301Y18048266D01*
X26345484Y18104516D01*
X26401734Y18188699D01*
X26416500Y18262933D01*
X26416499Y19837066D01*
X26401734Y19911301D01*
X26401733Y19911303D01*
X26345486Y19995481D01*
X26345485Y19995482D01*
X26345484Y19995484D01*
X26261301Y20051734D01*
X26187067Y20066500D01*
X26187066Y20066500D01*
X24612936Y20066500D01*
X24612929Y20066499D01*
X24538699Y20051735D01*
X24538697Y20051734D01*
X24454519Y19995487D01*
X24454514Y19995482D01*
X24435023Y19966311D01*
X24398266Y19911301D01*
X24395957Y19899691D01*
X24383500Y19837067D01*
X24383500Y18302202D01*
X24364593Y18244011D01*
X24315093Y18208047D01*
X24253907Y18208047D01*
X24214496Y18232198D01*
X23905495Y18541199D01*
X23877718Y18595716D01*
X23876499Y18611203D01*
X23876499Y19837064D01*
X23876498Y19837071D01*
X23861734Y19911301D01*
X23861733Y19911303D01*
X23805486Y19995481D01*
X23805485Y19995482D01*
X23805484Y19995484D01*
X23721301Y20051734D01*
X23647067Y20066500D01*
X23647066Y20066500D01*
X22072936Y20066500D01*
X22072929Y20066499D01*
X21998699Y20051735D01*
X21998698Y20051734D01*
X21970277Y20032744D01*
X21911388Y20016137D01*
X21853985Y20037316D01*
X21845273Y20045057D01*
X21337072Y20553258D01*
X21324197Y20569114D01*
X21316704Y20580582D01*
X21315018Y20582414D01*
X21313865Y20584927D01*
X21312218Y20587449D01*
X21312596Y20587697D01*
X21289517Y20638032D01*
X21301578Y20698016D01*
X21305516Y20704429D01*
X21321734Y20728699D01*
X21336500Y20802933D01*
X21336500Y20802937D01*
X21843500Y20802937D01*
X21843501Y20802930D01*
X21858265Y20728700D01*
X21858266Y20728698D01*
X21914513Y20644520D01*
X21914516Y20644516D01*
X21998699Y20588266D01*
X22072933Y20573500D01*
X23647066Y20573501D01*
X23721301Y20588266D01*
X23805484Y20644516D01*
X23861734Y20728699D01*
X23876500Y20802933D01*
X23876500Y20802937D01*
X24383500Y20802937D01*
X24383501Y20802930D01*
X24398265Y20728700D01*
X24398266Y20728698D01*
X24454513Y20644520D01*
X24454516Y20644516D01*
X24538699Y20588266D01*
X24612933Y20573500D01*
X26187066Y20573501D01*
X26261301Y20588266D01*
X26345484Y20644516D01*
X26401734Y20728699D01*
X26416500Y20802933D01*
X26416499Y22377066D01*
X26401734Y22451301D01*
X26401733Y22451303D01*
X26345486Y22535481D01*
X26345485Y22535482D01*
X26345484Y22535484D01*
X26261301Y22591734D01*
X26187067Y22606500D01*
X26187066Y22606500D01*
X24612936Y22606500D01*
X24612929Y22606499D01*
X24538699Y22591735D01*
X24538697Y22591734D01*
X24454519Y22535487D01*
X24454514Y22535482D01*
X24417015Y22479362D01*
X24398266Y22451301D01*
X24383501Y22377071D01*
X24383500Y22377067D01*
X24383500Y20802937D01*
X23876500Y20802937D01*
X23876499Y22377066D01*
X23861734Y22451301D01*
X23861733Y22451303D01*
X23805486Y22535481D01*
X23805485Y22535482D01*
X23805484Y22535484D01*
X23721301Y22591734D01*
X23647067Y22606500D01*
X23647066Y22606500D01*
X22072936Y22606500D01*
X22072929Y22606499D01*
X21998699Y22591735D01*
X21998697Y22591734D01*
X21914519Y22535487D01*
X21914514Y22535482D01*
X21877016Y22479363D01*
X21858266Y22451301D01*
X21843501Y22377071D01*
X21843500Y22377067D01*
X21843500Y20802937D01*
X21336500Y20802937D01*
X21336499Y22377066D01*
X21321734Y22451301D01*
X21321733Y22451303D01*
X21265486Y22535481D01*
X21265485Y22535482D01*
X21265484Y22535484D01*
X21181301Y22591734D01*
X21107067Y22606500D01*
X21107066Y22606500D01*
X19532936Y22606500D01*
X19532929Y22606499D01*
X19458699Y22591735D01*
X19458697Y22591734D01*
X19374519Y22535487D01*
X19374514Y22535482D01*
X19337016Y22479362D01*
X19318266Y22451301D01*
X19303501Y22377071D01*
X19303500Y22377067D01*
X19303501Y20798500D01*
X19284594Y20740309D01*
X19235094Y20704345D01*
X19204501Y20699500D01*
X18895500Y20699500D01*
X18837309Y20718407D01*
X18801345Y20767907D01*
X18796500Y20798500D01*
X18796499Y22377064D01*
X18796498Y22377071D01*
X18781734Y22451301D01*
X18781733Y22451303D01*
X18725486Y22535481D01*
X18725485Y22535482D01*
X18725484Y22535484D01*
X18641301Y22591734D01*
X18567067Y22606500D01*
X18567066Y22606500D01*
X16992936Y22606500D01*
X16992929Y22606499D01*
X16918699Y22591735D01*
X16918697Y22591734D01*
X16834519Y22535487D01*
X16834514Y22535482D01*
X16797016Y22479363D01*
X16778266Y22451301D01*
X16763501Y22377071D01*
X16763500Y22377067D01*
X16763501Y20798500D01*
X16744594Y20740309D01*
X16695094Y20704345D01*
X16664501Y20699500D01*
X16355500Y20699500D01*
X16297309Y20718407D01*
X16261345Y20767907D01*
X16256500Y20798500D01*
X16256499Y22377064D01*
X16256498Y22377071D01*
X16241734Y22451301D01*
X16241733Y22451303D01*
X16185486Y22535481D01*
X16185485Y22535482D01*
X16185484Y22535484D01*
X16101301Y22591734D01*
X16027067Y22606500D01*
X16027066Y22606500D01*
X14452936Y22606500D01*
X14452929Y22606499D01*
X14378699Y22591735D01*
X14378697Y22591734D01*
X14294519Y22535487D01*
X14294514Y22535482D01*
X14257015Y22479362D01*
X14238266Y22451301D01*
X14223501Y22377071D01*
X14223500Y22377067D01*
X14223501Y20798500D01*
X14204594Y20740309D01*
X14155094Y20704345D01*
X14124501Y20699500D01*
X13815500Y20699500D01*
X13757309Y20718407D01*
X13721345Y20767907D01*
X13716500Y20798500D01*
X13716499Y22377064D01*
X13716498Y22377071D01*
X13701734Y22451301D01*
X13701733Y22451303D01*
X13645486Y22535481D01*
X13645485Y22535482D01*
X13645484Y22535484D01*
X13561301Y22591734D01*
X13487067Y22606500D01*
X13487066Y22606500D01*
X11912936Y22606500D01*
X11912929Y22606499D01*
X11838699Y22591735D01*
X11838697Y22591734D01*
X11754519Y22535487D01*
X11754514Y22535482D01*
X11717016Y22479363D01*
X11698266Y22451301D01*
X11683501Y22377071D01*
X11683500Y22377067D01*
X11683500Y20842202D01*
X11664593Y20784011D01*
X11615093Y20748047D01*
X11553907Y20748047D01*
X11514496Y20772198D01*
X11205495Y21081199D01*
X11177718Y21135716D01*
X11176499Y21151203D01*
X11176499Y22377064D01*
X11176498Y22377071D01*
X11161734Y22451301D01*
X11161733Y22451303D01*
X11105486Y22535481D01*
X11105485Y22535482D01*
X11105484Y22535484D01*
X11021301Y22591734D01*
X10947067Y22606500D01*
X10947066Y22606500D01*
X9372936Y22606500D01*
X9372929Y22606499D01*
X9298699Y22591735D01*
X9298697Y22591734D01*
X9214519Y22535487D01*
X9214514Y22535482D01*
X9177016Y22479362D01*
X9158266Y22451301D01*
X9143501Y22377071D01*
X9143500Y22377067D01*
X9143500Y20802937D01*
X9143501Y20802930D01*
X9158265Y20728700D01*
X9158266Y20728698D01*
X9214513Y20644520D01*
X9214516Y20644516D01*
X9298699Y20588266D01*
X9372933Y20573500D01*
X10598797Y20573501D01*
X10656988Y20554594D01*
X10668801Y20544505D01*
X10977802Y20235504D01*
X11005579Y20180987D01*
X10996008Y20120555D01*
X10952743Y20077290D01*
X10907798Y20066500D01*
X9372936Y20066500D01*
X9372929Y20066499D01*
X9298699Y20051735D01*
X9298697Y20051734D01*
X9214519Y19995487D01*
X9214514Y19995482D01*
X9195023Y19966311D01*
X9158266Y19911301D01*
X9155957Y19899691D01*
X9143500Y19837067D01*
X9143500Y18262937D01*
X9143501Y18262930D01*
X9158265Y18188700D01*
X9158266Y18188698D01*
X9197108Y18130568D01*
X9214516Y18104516D01*
X9214519Y18104514D01*
X9221411Y18097622D01*
X9218487Y18094699D01*
X9244429Y18061863D01*
X9246895Y18000727D01*
X9212956Y17949818D01*
X9155574Y17928580D01*
X9151584Y17928500D01*
X9055526Y17928500D01*
X8901208Y17890464D01*
X8760475Y17816602D01*
X8760464Y17816594D01*
X8641502Y17711203D01*
X8641502Y17711202D01*
X8551212Y17580394D01*
X8551210Y17580391D01*
X8494853Y17431790D01*
X8494850Y17431781D01*
X8475693Y17274002D01*
X8475693Y17273999D01*
X8494850Y17116220D01*
X8494853Y17116211D01*
X8551210Y16967610D01*
X8551212Y16967607D01*
X8551213Y16967605D01*
X8580212Y16925593D01*
X8600160Y16896693D01*
X8617655Y16838062D01*
X8597347Y16780346D01*
X8588688Y16770451D01*
X8233631Y16415395D01*
X8229490Y16411694D01*
X8198063Y16386631D01*
X8164780Y16337815D01*
X8163710Y16336307D01*
X8128630Y16288773D01*
X8125166Y16282218D01*
X8124790Y16282417D01*
X8123715Y16280289D01*
X8124099Y16280104D01*
X8120883Y16273429D01*
X8103461Y16216945D01*
X8102882Y16215187D01*
X8083380Y16159457D01*
X8082001Y16152166D01*
X8081580Y16152246D01*
X8081182Y16149903D01*
X8081605Y16149839D01*
X8080500Y16142505D01*
X8080500Y16083441D01*
X8080465Y16081591D01*
X8078256Y16022536D01*
X8079087Y16015161D01*
X8078658Y16015113D01*
X8080500Y16001128D01*
X8080500Y14003270D01*
X8061593Y13945079D01*
X8051504Y13933266D01*
X3635631Y9517395D01*
X3631490Y9513694D01*
X3600063Y9488631D01*
X3566780Y9439815D01*
X3565710Y9438307D01*
X3530630Y9390773D01*
X3527166Y9384218D01*
X3526790Y9384417D01*
X3525715Y9382289D01*
X3526099Y9382104D01*
X3522883Y9375429D01*
X3505461Y9318945D01*
X3504882Y9317187D01*
X3485380Y9261457D01*
X3484001Y9254166D01*
X3483580Y9254246D01*
X3483182Y9251903D01*
X3483605Y9251839D01*
X3482500Y9244505D01*
X3482500Y9185441D01*
X3482465Y9183591D01*
X3480256Y9124536D01*
X3481087Y9117161D01*
X3480658Y9117113D01*
X3482500Y9103128D01*
X3482500Y7501307D01*
X3463593Y7443116D01*
X3449152Y7427207D01*
X3443501Y7422202D01*
X3353212Y7291394D01*
X3353210Y7291391D01*
X3296853Y7142790D01*
X3296850Y7142781D01*
X3277693Y6985002D01*
X3277693Y6984999D01*
X-4325500Y6984999D01*
X-4325500Y16032997D01*
X3649210Y16032997D01*
X3668347Y15753210D01*
X3668349Y15753201D01*
X3725405Y15478629D01*
X3819321Y15214374D01*
X3948348Y14965364D01*
X4084403Y14772616D01*
X4720378Y15408592D01*
X4770327Y15327923D01*
X4915782Y15168366D01*
X5076902Y15046694D01*
X4444860Y14414651D01*
X4444859Y14414651D01*
X4519033Y14354306D01*
X4519051Y14354293D01*
X4758656Y14208586D01*
X4758667Y14208580D01*
X5015888Y14096855D01*
X5285937Y14021190D01*
X5285944Y14021189D01*
X5563778Y13983001D01*
X5563782Y13983000D01*
X5844218Y13983000D01*
X5844221Y13983001D01*
X6122055Y14021189D01*
X6122062Y14021190D01*
X6392111Y14096855D01*
X6649332Y14208580D01*
X6888955Y14354298D01*
X6963137Y14414652D01*
X6331096Y15046693D01*
X6492218Y15168366D01*
X6637673Y15327923D01*
X6687620Y15408591D01*
X7323595Y14772616D01*
X7459651Y14965364D01*
X7588678Y15214374D01*
X7682594Y15478629D01*
X7739650Y15753201D01*
X7739652Y15753210D01*
X7758790Y16032997D01*
X7758790Y16033004D01*
X7739652Y16312791D01*
X7739650Y16312800D01*
X7682594Y16587372D01*
X7588678Y16851627D01*
X7459651Y17100637D01*
X7323595Y17293386D01*
X6687619Y16657411D01*
X6637673Y16738077D01*
X6492218Y16897634D01*
X6331095Y17019308D01*
X6963138Y17651351D01*
X6888970Y17711692D01*
X6888953Y17711704D01*
X6649343Y17857415D01*
X6649332Y17857421D01*
X6392111Y17969146D01*
X6122062Y18044811D01*
X6122055Y18044812D01*
X5844221Y18083000D01*
X5563778Y18083000D01*
X5285944Y18044812D01*
X5285937Y18044811D01*
X5015888Y17969146D01*
X4758667Y17857421D01*
X4758656Y17857415D01*
X4519049Y17711706D01*
X4519043Y17711702D01*
X4444860Y17651350D01*
X5076903Y17019307D01*
X4915782Y16897634D01*
X4770327Y16738077D01*
X4720379Y16657410D01*
X4084403Y17293386D01*
X3948351Y17100643D01*
X3819321Y16851627D01*
X3725405Y16587372D01*
X3668349Y16312800D01*
X3668347Y16312791D01*
X3649210Y16033004D01*
X3649210Y16032997D01*
X-4325500Y16032997D01*
X-4325500Y24546500D01*
X-4306593Y24604691D01*
X-4257093Y24640655D01*
X-4226500Y24645500D01*
X34706500Y24645500D01*
X34764691Y24626593D01*
G37*
%TD.AperFunction*%
%TD*%
M02*
