%TF.GenerationSoftware,KiCad,Pcbnew,7.0.5.1-1-g8f565ef7f0-dirty-deb11*%
%TF.CreationDate,2023-07-20T11:53:13+00:00*%
%TF.ProjectId,USB232R02,55534232-3332-4523-9032-2e6b69636164,rev?*%
%TF.SameCoordinates,PX7f790e8PY698c050*%
%TF.FileFunction,Copper,L2,Bot*%
%TF.FilePolarity,Positive*%
%FSLAX46Y46*%
G04 Gerber Fmt 4.6, Leading zero omitted, Abs format (unit mm)*
G04 Created by KiCad (PCBNEW 7.0.5.1-1-g8f565ef7f0-dirty-deb11) date 2023-07-20 11:53:13*
%MOMM*%
%LPD*%
G01*
G04 APERTURE LIST*
G04 Aperture macros list*
%AMRoundRect*
0 Rectangle with rounded corners*
0 $1 Rounding radius*
0 $2 $3 $4 $5 $6 $7 $8 $9 X,Y pos of 4 corners*
0 Add a 4 corners polygon primitive as box body*
4,1,4,$2,$3,$4,$5,$6,$7,$8,$9,$2,$3,0*
0 Add four circle primitives for the rounded corners*
1,1,$1+$1,$2,$3*
1,1,$1+$1,$4,$5*
1,1,$1+$1,$6,$7*
1,1,$1+$1,$8,$9*
0 Add four rect primitives between the rounded corners*
20,1,$1+$1,$2,$3,$4,$5,0*
20,1,$1+$1,$4,$5,$6,$7,0*
20,1,$1+$1,$6,$7,$8,$9,0*
20,1,$1+$1,$8,$9,$2,$3,0*%
%AMFreePoly0*
4,1,19,0.500000,-0.750000,0.000000,-0.750000,0.000000,-0.744911,-0.071157,-0.744911,-0.207708,-0.704816,-0.327430,-0.627875,-0.420627,-0.520320,-0.479746,-0.390866,-0.500000,-0.250000,-0.500000,0.250000,-0.479746,0.390866,-0.420627,0.520320,-0.327430,0.627875,-0.207708,0.704816,-0.071157,0.744911,0.000000,0.744911,0.000000,0.750000,0.500000,0.750000,0.500000,-0.750000,0.500000,-0.750000,
$1*%
%AMFreePoly1*
4,1,19,0.000000,0.744911,0.071157,0.744911,0.207708,0.704816,0.327430,0.627875,0.420627,0.520320,0.479746,0.390866,0.500000,0.250000,0.500000,-0.250000,0.479746,-0.390866,0.420627,-0.520320,0.327430,-0.627875,0.207708,-0.704816,0.071157,-0.744911,0.000000,-0.744911,0.000000,-0.750000,-0.500000,-0.750000,-0.500000,0.750000,0.000000,0.750000,0.000000,0.744911,0.000000,0.744911,
$1*%
G04 Aperture macros list end*
%ADD10C,0.200000*%
%TA.AperFunction,NonConductor*%
%ADD11C,0.200000*%
%TD*%
%TA.AperFunction,ComponentPad*%
%ADD12C,6.000000*%
%TD*%
%TA.AperFunction,ComponentPad*%
%ADD13R,1.700000X1.700000*%
%TD*%
%TA.AperFunction,ComponentPad*%
%ADD14C,1.700000*%
%TD*%
%TA.AperFunction,ComponentPad*%
%ADD15C,3.500000*%
%TD*%
%TA.AperFunction,ComponentPad*%
%ADD16R,1.524000X1.524000*%
%TD*%
%TA.AperFunction,SMDPad,CuDef*%
%ADD17R,0.889000X1.397000*%
%TD*%
%TA.AperFunction,SMDPad,CuDef*%
%ADD18C,1.000000*%
%TD*%
%TA.AperFunction,SMDPad,CuDef*%
%ADD19R,1.397000X0.889000*%
%TD*%
%TA.AperFunction,SMDPad,CuDef*%
%ADD20RoundRect,0.062500X0.062500X-0.350000X0.062500X0.350000X-0.062500X0.350000X-0.062500X-0.350000X0*%
%TD*%
%TA.AperFunction,SMDPad,CuDef*%
%ADD21RoundRect,0.062500X0.350000X-0.062500X0.350000X0.062500X-0.350000X0.062500X-0.350000X-0.062500X0*%
%TD*%
%TA.AperFunction,SMDPad,CuDef*%
%ADD22R,2.500000X2.500000*%
%TD*%
%TA.AperFunction,SMDPad,CuDef*%
%ADD23RoundRect,0.190667X0.524333X0.559333X-0.524333X0.559333X-0.524333X-0.559333X0.524333X-0.559333X0*%
%TD*%
%TA.AperFunction,SMDPad,CuDef*%
%ADD24RoundRect,0.190667X-0.524333X-0.559333X0.524333X-0.559333X0.524333X0.559333X-0.524333X0.559333X0*%
%TD*%
%TA.AperFunction,SMDPad,CuDef*%
%ADD25RoundRect,0.150000X0.512500X0.150000X-0.512500X0.150000X-0.512500X-0.150000X0.512500X-0.150000X0*%
%TD*%
%TA.AperFunction,SMDPad,CuDef*%
%ADD26RoundRect,0.250000X1.000000X0.650000X-1.000000X0.650000X-1.000000X-0.650000X1.000000X-0.650000X0*%
%TD*%
%TA.AperFunction,SMDPad,CuDef*%
%ADD27R,1.900000X3.400000*%
%TD*%
%TA.AperFunction,SMDPad,CuDef*%
%ADD28FreePoly0,270.000000*%
%TD*%
%TA.AperFunction,SMDPad,CuDef*%
%ADD29FreePoly1,270.000000*%
%TD*%
%TA.AperFunction,ViaPad*%
%ADD30C,0.800000*%
%TD*%
%TA.AperFunction,Conductor*%
%ADD31C,0.250000*%
%TD*%
%TA.AperFunction,Conductor*%
%ADD32C,0.200000*%
%TD*%
%TA.AperFunction,Conductor*%
%ADD33C,0.400000*%
%TD*%
%TA.AperFunction,Conductor*%
%ADD34C,0.600000*%
%TD*%
G04 APERTURE END LIST*
D10*
D11*
X34787219Y18031143D02*
X34120552Y18031143D01*
X34215790Y18031143D02*
X34168171Y17983524D01*
X34168171Y17983524D02*
X34120552Y17888286D01*
X34120552Y17888286D02*
X34120552Y17745429D01*
X34120552Y17745429D02*
X34168171Y17650191D01*
X34168171Y17650191D02*
X34263409Y17602572D01*
X34263409Y17602572D02*
X34787219Y17602572D01*
X34263409Y17602572D02*
X34168171Y17554953D01*
X34168171Y17554953D02*
X34120552Y17459715D01*
X34120552Y17459715D02*
X34120552Y17316858D01*
X34120552Y17316858D02*
X34168171Y17221619D01*
X34168171Y17221619D02*
X34263409Y17174000D01*
X34263409Y17174000D02*
X34787219Y17174000D01*
X34787219Y16554953D02*
X34739600Y16650191D01*
X34739600Y16650191D02*
X34644361Y16697810D01*
X34644361Y16697810D02*
X33787219Y16697810D01*
X34787219Y15745429D02*
X34263409Y15745429D01*
X34263409Y15745429D02*
X34168171Y15793048D01*
X34168171Y15793048D02*
X34120552Y15888286D01*
X34120552Y15888286D02*
X34120552Y16078762D01*
X34120552Y16078762D02*
X34168171Y16174000D01*
X34739600Y15745429D02*
X34787219Y15840667D01*
X34787219Y15840667D02*
X34787219Y16078762D01*
X34787219Y16078762D02*
X34739600Y16174000D01*
X34739600Y16174000D02*
X34644361Y16221619D01*
X34644361Y16221619D02*
X34549123Y16221619D01*
X34549123Y16221619D02*
X34453885Y16174000D01*
X34453885Y16174000D02*
X34406266Y16078762D01*
X34406266Y16078762D02*
X34406266Y15840667D01*
X34406266Y15840667D02*
X34358647Y15745429D01*
X34787219Y15269238D02*
X33787219Y15269238D01*
X34168171Y15269238D02*
X34120552Y15174000D01*
X34120552Y15174000D02*
X34120552Y14983524D01*
X34120552Y14983524D02*
X34168171Y14888286D01*
X34168171Y14888286D02*
X34215790Y14840667D01*
X34215790Y14840667D02*
X34311028Y14793048D01*
X34311028Y14793048D02*
X34596742Y14793048D01*
X34596742Y14793048D02*
X34691980Y14840667D01*
X34691980Y14840667D02*
X34739600Y14888286D01*
X34739600Y14888286D02*
X34787219Y14983524D01*
X34787219Y14983524D02*
X34787219Y15174000D01*
X34787219Y15174000D02*
X34739600Y15269238D01*
X34691980Y14364476D02*
X34739600Y14316857D01*
X34739600Y14316857D02*
X34787219Y14364476D01*
X34787219Y14364476D02*
X34739600Y14412095D01*
X34739600Y14412095D02*
X34691980Y14364476D01*
X34691980Y14364476D02*
X34787219Y14364476D01*
X34739600Y13459715D02*
X34787219Y13554953D01*
X34787219Y13554953D02*
X34787219Y13745429D01*
X34787219Y13745429D02*
X34739600Y13840667D01*
X34739600Y13840667D02*
X34691980Y13888286D01*
X34691980Y13888286D02*
X34596742Y13935905D01*
X34596742Y13935905D02*
X34311028Y13935905D01*
X34311028Y13935905D02*
X34215790Y13888286D01*
X34215790Y13888286D02*
X34168171Y13840667D01*
X34168171Y13840667D02*
X34120552Y13745429D01*
X34120552Y13745429D02*
X34120552Y13554953D01*
X34120552Y13554953D02*
X34168171Y13459715D01*
X34120552Y13126381D02*
X34120552Y12602572D01*
X34120552Y12602572D02*
X34787219Y13126381D01*
X34787219Y13126381D02*
X34787219Y12602572D01*
X33787219Y11459714D02*
X34596742Y11459714D01*
X34596742Y11459714D02*
X34691980Y11412095D01*
X34691980Y11412095D02*
X34739600Y11364476D01*
X34739600Y11364476D02*
X34787219Y11269238D01*
X34787219Y11269238D02*
X34787219Y11078762D01*
X34787219Y11078762D02*
X34739600Y10983524D01*
X34739600Y10983524D02*
X34691980Y10935905D01*
X34691980Y10935905D02*
X34596742Y10888286D01*
X34596742Y10888286D02*
X33787219Y10888286D01*
X34739600Y10459714D02*
X34787219Y10316857D01*
X34787219Y10316857D02*
X34787219Y10078762D01*
X34787219Y10078762D02*
X34739600Y9983524D01*
X34739600Y9983524D02*
X34691980Y9935905D01*
X34691980Y9935905D02*
X34596742Y9888286D01*
X34596742Y9888286D02*
X34501504Y9888286D01*
X34501504Y9888286D02*
X34406266Y9935905D01*
X34406266Y9935905D02*
X34358647Y9983524D01*
X34358647Y9983524D02*
X34311028Y10078762D01*
X34311028Y10078762D02*
X34263409Y10269238D01*
X34263409Y10269238D02*
X34215790Y10364476D01*
X34215790Y10364476D02*
X34168171Y10412095D01*
X34168171Y10412095D02*
X34072933Y10459714D01*
X34072933Y10459714D02*
X33977695Y10459714D01*
X33977695Y10459714D02*
X33882457Y10412095D01*
X33882457Y10412095D02*
X33834838Y10364476D01*
X33834838Y10364476D02*
X33787219Y10269238D01*
X33787219Y10269238D02*
X33787219Y10031143D01*
X33787219Y10031143D02*
X33834838Y9888286D01*
X34263409Y9126381D02*
X34311028Y8983524D01*
X34311028Y8983524D02*
X34358647Y8935905D01*
X34358647Y8935905D02*
X34453885Y8888286D01*
X34453885Y8888286D02*
X34596742Y8888286D01*
X34596742Y8888286D02*
X34691980Y8935905D01*
X34691980Y8935905D02*
X34739600Y8983524D01*
X34739600Y8983524D02*
X34787219Y9078762D01*
X34787219Y9078762D02*
X34787219Y9459714D01*
X34787219Y9459714D02*
X33787219Y9459714D01*
X33787219Y9459714D02*
X33787219Y9126381D01*
X33787219Y9126381D02*
X33834838Y9031143D01*
X33834838Y9031143D02*
X33882457Y8983524D01*
X33882457Y8983524D02*
X33977695Y8935905D01*
X33977695Y8935905D02*
X34072933Y8935905D01*
X34072933Y8935905D02*
X34168171Y8983524D01*
X34168171Y8983524D02*
X34215790Y9031143D01*
X34215790Y9031143D02*
X34263409Y9126381D01*
X34263409Y9126381D02*
X34263409Y9459714D01*
X33882457Y8507333D02*
X33834838Y8459714D01*
X33834838Y8459714D02*
X33787219Y8364476D01*
X33787219Y8364476D02*
X33787219Y8126381D01*
X33787219Y8126381D02*
X33834838Y8031143D01*
X33834838Y8031143D02*
X33882457Y7983524D01*
X33882457Y7983524D02*
X33977695Y7935905D01*
X33977695Y7935905D02*
X34072933Y7935905D01*
X34072933Y7935905D02*
X34215790Y7983524D01*
X34215790Y7983524D02*
X34787219Y8554952D01*
X34787219Y8554952D02*
X34787219Y7935905D01*
X33787219Y7602571D02*
X33787219Y6983524D01*
X33787219Y6983524D02*
X34168171Y7316857D01*
X34168171Y7316857D02*
X34168171Y7174000D01*
X34168171Y7174000D02*
X34215790Y7078762D01*
X34215790Y7078762D02*
X34263409Y7031143D01*
X34263409Y7031143D02*
X34358647Y6983524D01*
X34358647Y6983524D02*
X34596742Y6983524D01*
X34596742Y6983524D02*
X34691980Y7031143D01*
X34691980Y7031143D02*
X34739600Y7078762D01*
X34739600Y7078762D02*
X34787219Y7174000D01*
X34787219Y7174000D02*
X34787219Y7459714D01*
X34787219Y7459714D02*
X34739600Y7554952D01*
X34739600Y7554952D02*
X34691980Y7602571D01*
X33882457Y6602571D02*
X33834838Y6554952D01*
X33834838Y6554952D02*
X33787219Y6459714D01*
X33787219Y6459714D02*
X33787219Y6221619D01*
X33787219Y6221619D02*
X33834838Y6126381D01*
X33834838Y6126381D02*
X33882457Y6078762D01*
X33882457Y6078762D02*
X33977695Y6031143D01*
X33977695Y6031143D02*
X34072933Y6031143D01*
X34072933Y6031143D02*
X34215790Y6078762D01*
X34215790Y6078762D02*
X34787219Y6650190D01*
X34787219Y6650190D02*
X34787219Y6031143D01*
X34787219Y5031143D02*
X34311028Y5364476D01*
X34787219Y5602571D02*
X33787219Y5602571D01*
X33787219Y5602571D02*
X33787219Y5221619D01*
X33787219Y5221619D02*
X33834838Y5126381D01*
X33834838Y5126381D02*
X33882457Y5078762D01*
X33882457Y5078762D02*
X33977695Y5031143D01*
X33977695Y5031143D02*
X34120552Y5031143D01*
X34120552Y5031143D02*
X34215790Y5078762D01*
X34215790Y5078762D02*
X34263409Y5126381D01*
X34263409Y5126381D02*
X34311028Y5221619D01*
X34311028Y5221619D02*
X34311028Y5602571D01*
X33787219Y4412095D02*
X33787219Y4316857D01*
X33787219Y4316857D02*
X33834838Y4221619D01*
X33834838Y4221619D02*
X33882457Y4174000D01*
X33882457Y4174000D02*
X33977695Y4126381D01*
X33977695Y4126381D02*
X34168171Y4078762D01*
X34168171Y4078762D02*
X34406266Y4078762D01*
X34406266Y4078762D02*
X34596742Y4126381D01*
X34596742Y4126381D02*
X34691980Y4174000D01*
X34691980Y4174000D02*
X34739600Y4221619D01*
X34739600Y4221619D02*
X34787219Y4316857D01*
X34787219Y4316857D02*
X34787219Y4412095D01*
X34787219Y4412095D02*
X34739600Y4507333D01*
X34739600Y4507333D02*
X34691980Y4554952D01*
X34691980Y4554952D02*
X34596742Y4602571D01*
X34596742Y4602571D02*
X34406266Y4650190D01*
X34406266Y4650190D02*
X34168171Y4650190D01*
X34168171Y4650190D02*
X33977695Y4602571D01*
X33977695Y4602571D02*
X33882457Y4554952D01*
X33882457Y4554952D02*
X33834838Y4507333D01*
X33834838Y4507333D02*
X33787219Y4412095D01*
X33882457Y3697809D02*
X33834838Y3650190D01*
X33834838Y3650190D02*
X33787219Y3554952D01*
X33787219Y3554952D02*
X33787219Y3316857D01*
X33787219Y3316857D02*
X33834838Y3221619D01*
X33834838Y3221619D02*
X33882457Y3174000D01*
X33882457Y3174000D02*
X33977695Y3126381D01*
X33977695Y3126381D02*
X34072933Y3126381D01*
X34072933Y3126381D02*
X34215790Y3174000D01*
X34215790Y3174000D02*
X34787219Y3745428D01*
X34787219Y3745428D02*
X34787219Y3126381D01*
X34501504Y2745428D02*
X34501504Y2269238D01*
X34787219Y2840666D02*
X33787219Y2507333D01*
X33787219Y2507333D02*
X34787219Y2174000D01*
%TA.AperFunction,EtchedComponent*%
%TO.C,JP1*%
G36*
X24303000Y5831000D02*
G01*
X23703000Y5831000D01*
X23703000Y6331000D01*
X24303000Y6331000D01*
X24303000Y5831000D01*
G37*
%TD.AperFunction*%
%TD*%
D12*
%TO.P,H3,1,1*%
%TO.N,GND*%
X0Y0D03*
%TD*%
D13*
%TO.P,J1,1,VBUS*%
%TO.N,/VBUS*%
X10414000Y8763000D03*
D14*
%TO.P,J1,2,D-*%
%TO.N,/D-*%
X10414000Y11263000D03*
%TO.P,J1,3,D+*%
%TO.N,/D+*%
X8414000Y11263000D03*
%TO.P,J1,4,GND*%
%TO.N,GND*%
X8414000Y8763000D03*
D15*
%TO.P,J1,5,Shield*%
X5704000Y3993000D03*
X5704000Y16033000D03*
%TD*%
D12*
%TO.P,H4,1,1*%
%TO.N,GND*%
X30480000Y0D03*
%TD*%
D16*
%TO.P,J3,1*%
%TO.N,GND*%
X20320000Y-1270000D03*
%TO.P,J3,2*%
X20320000Y1270000D03*
%TO.P,J3,3*%
%TO.N,+3V3*%
X22860000Y-1270000D03*
%TO.P,J3,4*%
X22860000Y1270000D03*
%TO.P,J3,5*%
%TO.N,GND*%
X25400000Y-1270000D03*
%TO.P,J3,6*%
X25400000Y1270000D03*
%TD*%
D12*
%TO.P,H1,1,1*%
%TO.N,GND*%
X30480000Y20320000D03*
%TD*%
%TO.P,H2,1,1*%
%TO.N,GND*%
X0Y20320000D03*
%TD*%
D16*
%TO.P,J18,1*%
%TO.N,/TXLED{slash}CBUS2*%
X10215000Y19074000D03*
%TO.P,J18,2*%
%TO.N,/RXLED{slash}CBUS1*%
X10215000Y21614000D03*
%TO.P,J18,3*%
%TO.N,/CBUS3*%
X12755000Y19074000D03*
%TO.P,J18,4*%
%TO.N,/CBUS0*%
X12755000Y21614000D03*
%TO.P,J18,5*%
%TO.N,/#RI*%
X15295000Y19074000D03*
%TO.P,J18,6*%
X15295000Y21614000D03*
%TO.P,J18,7*%
%TO.N,/#DSR*%
X17835000Y19074000D03*
%TO.P,J18,8*%
X17835000Y21614000D03*
%TO.P,J18,9*%
%TO.N,/#DCD*%
X20375000Y19074000D03*
%TO.P,J18,10*%
X20375000Y21614000D03*
%TO.P,J18,11*%
%TO.N,/#DTR*%
X22915000Y19074000D03*
%TO.P,J18,12*%
X22915000Y21614000D03*
%TO.P,J18,13*%
%TO.N,/VCCIO*%
X25455000Y19074000D03*
%TO.P,J18,14*%
X25455000Y21614000D03*
%TD*%
%TO.P,J19,1*%
%TO.N,/TXD*%
X29195000Y15254000D03*
%TO.P,J19,2*%
X31735000Y15254000D03*
%TO.P,J19,3*%
%TO.N,/RXD*%
X29195000Y12714000D03*
%TO.P,J19,4*%
X31735000Y12714000D03*
%TO.P,J19,5*%
%TO.N,/#CTS*%
X29195000Y10174000D03*
%TO.P,J19,6*%
X31735000Y10174000D03*
%TO.P,J19,7*%
%TO.N,/#RTS*%
X29195000Y7634000D03*
%TO.P,J19,8*%
X31735000Y7634000D03*
%TO.P,J19,9*%
%TO.N,GND*%
X29195000Y5094000D03*
%TO.P,J19,10*%
X31735000Y5094000D03*
%TD*%
%TO.P,J2,1*%
%TO.N,GND*%
X11430000Y-1270000D03*
%TO.P,J2,2*%
X11430000Y1270000D03*
%TO.P,J2,3*%
%TO.N,+5V*%
X13970000Y-1270000D03*
%TO.P,J2,4*%
X13970000Y1270000D03*
%TO.P,J2,5*%
%TO.N,GND*%
X16510000Y-1270000D03*
%TO.P,J2,6*%
X16510000Y1270000D03*
%TD*%
D17*
%TO.P,R3,1*%
%TO.N,Net-(D2-K)*%
X5080000Y23495000D03*
%TO.P,R3,2*%
%TO.N,/RXLED{slash}CBUS1*%
X6985000Y23495000D03*
%TD*%
D18*
%TO.P,FID1,*%
%TO.N,*%
X26535000Y4974000D03*
%TD*%
D19*
%TO.P,C3,1*%
%TO.N,+3V3*%
X15860000Y14944000D03*
%TO.P,C3,2*%
%TO.N,GND*%
X15860000Y16849000D03*
%TD*%
%TO.P,FB1,1*%
%TO.N,Net-(C1-Pad1)*%
X-635000Y12065000D03*
%TO.P,FB1,2*%
%TO.N,+5V*%
X-635000Y10160000D03*
%TD*%
D17*
%TO.P,C1,1*%
%TO.N,Net-(C1-Pad1)*%
X-635000Y14605000D03*
%TO.P,C1,2*%
%TO.N,GND*%
X-2540000Y14605000D03*
%TD*%
%TO.P,R2,1*%
%TO.N,Net-(U2-~{RESET})*%
X25019000Y16383000D03*
%TO.P,R2,2*%
%TO.N,GND*%
X26924000Y16383000D03*
%TD*%
D20*
%TO.P,U2,1,RXD*%
%TO.N,/RXD*%
X20685000Y9492500D03*
%TO.P,U2,2,~{RI}*%
%TO.N,/#RI*%
X20185000Y9492500D03*
%TO.P,U2,3,GND*%
%TO.N,GND*%
X19685000Y9492500D03*
%TO.P,U2,4,~{DSR}*%
%TO.N,/#DSR*%
X19185000Y9492500D03*
%TO.P,U2,5,~{DCD}*%
%TO.N,/#DCD*%
X18685000Y9492500D03*
D21*
%TO.P,U2,6,~{CTS}*%
%TO.N,/#CTS*%
X17747500Y10430000D03*
%TO.P,U2,7,CBUS2*%
%TO.N,/TXLED{slash}CBUS2*%
X17747500Y10930000D03*
%TO.P,U2,8,USBDP*%
%TO.N,/DP*%
X17747500Y11430000D03*
%TO.P,U2,9,USBDM*%
%TO.N,/DN*%
X17747500Y11930000D03*
%TO.P,U2,10,3V3OUT*%
%TO.N,+3V3*%
X17747500Y12430000D03*
D20*
%TO.P,U2,11,~{RESET}*%
%TO.N,Net-(U2-~{RESET})*%
X18685000Y13367500D03*
%TO.P,U2,12,VCC*%
%TO.N,+5V*%
X19185000Y13367500D03*
%TO.P,U2,13,GND*%
%TO.N,GND*%
X19685000Y13367500D03*
%TO.P,U2,14,CBUS1*%
%TO.N,/RXLED{slash}CBUS1*%
X20185000Y13367500D03*
%TO.P,U2,15,CBUS0*%
%TO.N,/CBUS0*%
X20685000Y13367500D03*
D21*
%TO.P,U2,16,CBUS3*%
%TO.N,/CBUS3*%
X21622500Y12430000D03*
%TO.P,U2,17,TXD*%
%TO.N,/TXD*%
X21622500Y11930000D03*
%TO.P,U2,18,~{DTR}*%
%TO.N,/#DTR*%
X21622500Y11430000D03*
%TO.P,U2,19,~{RTS}*%
%TO.N,/#RTS*%
X21622500Y10930000D03*
%TO.P,U2,20,VCCIO*%
%TO.N,/VCCIO*%
X21622500Y10430000D03*
D22*
%TO.P,U2,21,GND*%
%TO.N,GND*%
X19685000Y11430000D03*
%TD*%
D17*
%TO.P,R1,1*%
%TO.N,+5V*%
X21463000Y16383000D03*
%TO.P,R1,2*%
%TO.N,Net-(U2-~{RESET})*%
X23368000Y16383000D03*
%TD*%
D23*
%TO.P,D2,1,K*%
%TO.N,Net-(D2-K)*%
X8265000Y20320000D03*
D24*
%TO.P,D2,2,A*%
%TO.N,+5V*%
X4435000Y20320000D03*
%TD*%
D17*
%TO.P,C4,1*%
%TO.N,+5V*%
X19812000Y16383000D03*
%TO.P,C4,2*%
%TO.N,GND*%
X17907000Y16383000D03*
%TD*%
D18*
%TO.P,FID2,*%
%TO.N,*%
X2135000Y15474000D03*
%TD*%
D25*
%TO.P,U1,1,I/O1*%
%TO.N,/DN*%
X12700000Y15555000D03*
%TO.P,U1,2,GND*%
%TO.N,GND*%
X12700000Y14605000D03*
%TO.P,U1,3,I/O2*%
%TO.N,/DP*%
X12700000Y13655000D03*
%TO.P,U1,4,I/O2*%
%TO.N,/D+*%
X10425000Y13655000D03*
%TO.P,U1,5,VBUS*%
%TO.N,/VBUS*%
X10425000Y14605000D03*
%TO.P,U1,6,I/O1*%
%TO.N,/D-*%
X10425000Y15555000D03*
%TD*%
D19*
%TO.P,C2,1*%
%TO.N,+5V*%
X-3175000Y10160000D03*
%TO.P,C2,2*%
%TO.N,GND*%
X-3175000Y12065000D03*
%TD*%
D17*
%TO.P,C5,1*%
%TO.N,GND*%
X25844500Y9017000D03*
%TO.P,C5,2*%
%TO.N,/VCCIO*%
X23939500Y9017000D03*
%TD*%
D26*
%TO.P,D1,1,K*%
%TO.N,+5V*%
X1270000Y6985000D03*
%TO.P,D1,2,A*%
%TO.N,GND*%
X-2730000Y6985000D03*
%TD*%
D27*
%TO.P,F1,1*%
%TO.N,/VBUS*%
X5715000Y11430000D03*
%TO.P,F1,2*%
%TO.N,Net-(C1-Pad1)*%
X1815000Y11430000D03*
%TD*%
D23*
%TO.P,D3,1,K*%
%TO.N,Net-(D3-K)*%
X8265000Y0D03*
D24*
%TO.P,D3,2,A*%
%TO.N,+5V*%
X4435000Y0D03*
%TD*%
D28*
%TO.P,JP1,1,A*%
%TO.N,/VCCIO*%
X24003000Y6731000D03*
D29*
%TO.P,JP1,2,B*%
%TO.N,+3V3*%
X24003000Y5431000D03*
%TD*%
D17*
%TO.P,R4,1*%
%TO.N,Net-(D3-K)*%
X7787500Y-2926000D03*
%TO.P,R4,2*%
%TO.N,/TXLED{slash}CBUS2*%
X5882500Y-2926000D03*
%TD*%
D30*
%TO.N,GND*%
X23913500Y14074000D03*
X11557000Y16599000D03*
X13589000Y12192000D03*
X9144000Y6223000D03*
X27178000Y3048000D03*
X22635000Y4074000D03*
X10287000Y6223000D03*
X19735000Y11474000D03*
X14410000Y6824000D03*
X14351000Y16730010D03*
X18510092Y16288119D03*
X9779000Y5080000D03*
%TO.N,+5V*%
X9135000Y17274000D03*
X3635000Y6449000D03*
X13410000Y17274000D03*
%TO.N,+3V3*%
X24003000Y3542000D03*
X16835000Y13799000D03*
X16129000Y9144000D03*
%TO.N,/VCCIO*%
X24257000Y10205000D03*
%TO.N,/D-*%
X9435500Y15390481D03*
%TO.N,/RXD*%
X21341186Y8007223D03*
%TO.N,/#CTS*%
X26598966Y11256339D03*
X16986495Y9658497D03*
%TO.N,/#DTR*%
X24638000Y11655000D03*
%TO.N,/#DSR*%
X18868108Y7547892D03*
%TO.N,/#DCD*%
X17906630Y7973500D03*
%TO.N,/#RI*%
X19960000Y7099000D03*
%TO.N,/RXLED{slash}CBUS1*%
X20631821Y15216383D03*
%TO.N,/TXLED{slash}CBUS2*%
X4445000Y-3175000D03*
X12827000Y10922000D03*
X10160000Y16510000D03*
%TO.N,/CBUS3*%
X22987000Y12827000D03*
X17399000Y14859000D03*
%TO.N,Net-(U2-~{RESET})*%
X22035000Y14074000D03*
X18460000Y14732000D03*
%TD*%
D31*
%TO.N,GND*%
X18415211Y16383000D02*
X18510092Y16288119D01*
X12700000Y14605000D02*
X11954000Y14605000D01*
X14571010Y16510000D02*
X14351000Y16730010D01*
D32*
X19691000Y11430000D02*
X19685000Y11430000D01*
X19913000Y11652000D02*
X21357000Y13096000D01*
D31*
X19735000Y11474000D02*
X19685000Y11430000D01*
X16002000Y16510000D02*
X14571010Y16510000D01*
X11954000Y14605000D02*
X11557000Y15002000D01*
X11557000Y15002000D02*
X11557000Y16599000D01*
X17907000Y16383000D02*
X18415211Y16383000D01*
D33*
%TO.N,/VBUS*%
X11585000Y12724000D02*
X11835000Y12474000D01*
X11835000Y12474000D02*
X11835000Y10184000D01*
D34*
X5715000Y11430000D02*
X5715000Y9244000D01*
D33*
X11204000Y14605000D02*
X11585000Y14224000D01*
D34*
X8850000Y7199000D02*
X10414000Y8763000D01*
X7760000Y7199000D02*
X8850000Y7199000D01*
D33*
X10425000Y14605000D02*
X11204000Y14605000D01*
D34*
X5715000Y9244000D02*
X7760000Y7199000D01*
D33*
X11835000Y10184000D02*
X10414000Y8763000D01*
X11585000Y14224000D02*
X11585000Y12724000D01*
%TO.N,+5V*%
X19812000Y16891000D02*
X19812000Y16383000D01*
D34*
X-3175000Y10160000D02*
X-635000Y10160000D01*
X3660000Y6474000D02*
X6480000Y6474000D01*
X12553000Y3556000D02*
X13970000Y2139000D01*
D33*
X14060366Y17780000D02*
X18923000Y17780000D01*
D34*
X9398000Y3556000D02*
X12553000Y3556000D01*
D33*
X13456670Y17176304D02*
X14060366Y17780000D01*
D31*
X5335000Y18674000D02*
X4275000Y19734000D01*
D34*
X13970000Y-1270000D02*
X13970000Y1270000D01*
X3610000Y6474000D02*
X3635000Y6449000D01*
X3635000Y6449000D02*
X3660000Y6474000D01*
D31*
X19185000Y13367500D02*
X19185000Y15375000D01*
D34*
X13970000Y2139000D02*
X13970000Y1270000D01*
D31*
X9135000Y17274000D02*
X9135000Y17874000D01*
X9135000Y17874000D02*
X8335000Y18674000D01*
D34*
X-635000Y10160000D02*
X-635000Y8519000D01*
D31*
X19185000Y15375000D02*
X19812000Y16002000D01*
X4275000Y0D02*
X4275000Y1830002D01*
X19812000Y16002000D02*
X19812000Y16383000D01*
D33*
X18923000Y17780000D02*
X19812000Y16891000D01*
X21463000Y16383000D02*
X19812000Y16383000D01*
D34*
X6480000Y6474000D02*
X9398000Y3556000D01*
D31*
X4275000Y1830002D02*
X1270000Y4835002D01*
X1270000Y4835002D02*
X1270000Y6985000D01*
X8335000Y18674000D02*
X5335000Y18674000D01*
X4275000Y19734000D02*
X4275000Y20320000D01*
D34*
X-635000Y8519000D02*
X899000Y6985000D01*
X1781000Y6474000D02*
X3610000Y6474000D01*
D31*
%TO.N,+3V3*%
X16835000Y12630410D02*
X17035410Y12430000D01*
D33*
X16808000Y13799000D02*
X16002000Y14605000D01*
X21780500Y3492500D02*
X21971000Y3302000D01*
X16129000Y9144000D02*
X16129000Y7880000D01*
X22860000Y1270000D02*
X22860000Y-1270000D01*
X16129000Y7880000D02*
X20516500Y3492500D01*
X24003000Y5431000D02*
X24003000Y3542000D01*
D31*
X16835000Y13799000D02*
X16835000Y12630410D01*
X21971000Y3399000D02*
X21971000Y3302000D01*
D33*
X22860000Y2413000D02*
X21780500Y3492500D01*
X20516500Y3492500D02*
X21780500Y3492500D01*
X22860000Y1270000D02*
X22860000Y2413000D01*
X16835000Y13799000D02*
X16808000Y13799000D01*
D31*
X17035410Y12430000D02*
X17747500Y12430000D01*
%TO.N,/VCCIO*%
X23939500Y9017000D02*
X23939500Y6794500D01*
X21622500Y10430000D02*
X24032000Y10430000D01*
X23939500Y9887500D02*
X24257000Y10205000D01*
X23939500Y9017000D02*
X23939500Y9887500D01*
X24032000Y10430000D02*
X24257000Y10205000D01*
X23939500Y6794500D02*
X24003000Y6731000D01*
X25400000Y21590000D02*
X25400000Y19050000D01*
%TO.N,Net-(D2-K)*%
X8128000Y21281000D02*
X8128000Y21082000D01*
X5080000Y23495000D02*
X6477000Y22098000D01*
X7311000Y22098000D02*
X8128000Y21281000D01*
X6477000Y22098000D02*
X7311000Y22098000D01*
%TO.N,Net-(D3-K)*%
X7787500Y-2926000D02*
X7787500Y-2626500D01*
X7787500Y-2626500D02*
X8425000Y-1989000D01*
X8425000Y-1989000D02*
X8425000Y0D01*
D33*
%TO.N,/D+*%
X8414000Y12453000D02*
X8414000Y11263000D01*
X9616000Y13655000D02*
X8414000Y12453000D01*
X10425000Y13655000D02*
X9616000Y13655000D01*
%TO.N,/D-*%
X9435500Y15390481D02*
X9600019Y15555000D01*
X9600019Y15555000D02*
X10425000Y15555000D01*
D31*
%TO.N,/TXD*%
X21622500Y11930000D02*
X23741000Y11930000D01*
X27051000Y15240000D02*
X29210000Y15240000D01*
X29210000Y15240000D02*
X31750000Y15240000D01*
X23741000Y11930000D02*
X27051000Y15240000D01*
%TO.N,/RXD*%
X29210000Y12700000D02*
X31750000Y12700000D01*
X20685000Y9492500D02*
X20685000Y8663409D01*
X20685000Y8663409D02*
X21341186Y8007223D01*
%TO.N,/#RTS*%
X25900000Y10930000D02*
X29210000Y7620000D01*
X21622500Y10930000D02*
X25900000Y10930000D01*
X29210000Y7620000D02*
X31750000Y7620000D01*
%TO.N,/#CTS*%
X17065990Y10430000D02*
X16986495Y10350505D01*
X16986495Y10350505D02*
X16986495Y9658497D01*
X29210000Y10160000D02*
X31750000Y10160000D01*
X27695305Y10160000D02*
X26598966Y11256339D01*
X29210000Y10160000D02*
X27695305Y10160000D01*
X17747500Y10430000D02*
X17065990Y10430000D01*
%TO.N,/#DTR*%
X22860000Y21590000D02*
X22860000Y19050000D01*
X24413000Y11430000D02*
X24638000Y11655000D01*
X21622500Y11430000D02*
X24413000Y11430000D01*
%TO.N,/#DSR*%
X19185000Y9492500D02*
X19185000Y9031978D01*
X19185000Y9031978D02*
X19185000Y7864784D01*
X19185000Y7864784D02*
X18868108Y7547892D01*
X17780000Y21590000D02*
X17780000Y19050000D01*
%TO.N,/#DCD*%
X18685000Y8751870D02*
X18685000Y9492500D01*
X17906630Y7973500D02*
X18685000Y8751870D01*
X20320000Y21590000D02*
X20320000Y19050000D01*
%TO.N,/#RI*%
X19960000Y7099000D02*
X20185000Y7324000D01*
X15240000Y21590000D02*
X15240000Y19050000D01*
X20185000Y7324000D02*
X20185000Y9492500D01*
%TO.N,/CBUS0*%
X14224000Y23114000D02*
X21209000Y23114000D01*
X22479000Y15670998D02*
X22479000Y17095002D01*
X21611012Y22711988D02*
X21209000Y23114000D01*
X20685000Y13367500D02*
X20685000Y13876998D01*
X12700000Y21590000D02*
X14224000Y23114000D01*
X22479000Y17095002D02*
X21611012Y17962990D01*
X21016002Y14208000D02*
X22479000Y15670998D01*
X20685000Y13876998D02*
X21016002Y14208000D01*
X21611012Y19536988D02*
X21611012Y17962990D01*
X21611012Y19536988D02*
X21611012Y22711988D01*
%TO.N,/RXLED{slash}CBUS1*%
X8636000Y21590000D02*
X8890000Y21590000D01*
X20185000Y13367500D02*
X20185000Y14769562D01*
X8890000Y21590000D02*
X10160000Y21590000D01*
X6985000Y23241000D02*
X8636000Y21590000D01*
X6985000Y23495000D02*
X6985000Y23241000D01*
X20185000Y14769562D02*
X20631821Y15216383D01*
%TO.N,/TXLED{slash}CBUS2*%
X5633500Y-3175000D02*
X4445000Y-3175000D01*
X17747500Y10930000D02*
X12835000Y10930000D01*
X5882500Y-2926000D02*
X5633500Y-3175000D01*
X10160000Y19050000D02*
X10160000Y16510000D01*
X12835000Y10930000D02*
X12827000Y10922000D01*
%TO.N,/CBUS3*%
X12585000Y18935000D02*
X12585000Y17024000D01*
X12585000Y17024000D02*
X13660000Y15949000D01*
X16648000Y15949000D02*
X17399000Y15198000D01*
X22987000Y12827000D02*
X22590000Y12430000D01*
X17399000Y15198000D02*
X17399000Y14859000D01*
X13660000Y15949000D02*
X16648000Y15949000D01*
X22590000Y12430000D02*
X21622500Y12430000D01*
%TO.N,Net-(U2-~{RESET})*%
X23368000Y16383000D02*
X25019000Y16383000D01*
X18685000Y14507000D02*
X18460000Y14732000D01*
X18685000Y13367500D02*
X18685000Y14507000D01*
X23368000Y15407000D02*
X23368000Y16383000D01*
X22035000Y14074000D02*
X23368000Y15407000D01*
%TO.N,/DN*%
X16325000Y11930000D02*
X14285000Y13970000D01*
X17747500Y11930000D02*
X16325000Y11930000D01*
X13735000Y14999000D02*
X13179000Y15555000D01*
X13735000Y14524000D02*
X13735000Y14999000D01*
X14285000Y13974000D02*
X13735000Y14524000D01*
X14285000Y13970000D02*
X14285000Y13974000D01*
%TO.N,/DP*%
X16188604Y11430000D02*
X13963604Y13655000D01*
X17747500Y11430000D02*
X16188604Y11430000D01*
X13963604Y13655000D02*
X12700000Y13655000D01*
D34*
%TO.N,Net-(C1-Pad1)*%
X-635000Y12065000D02*
X1180000Y12065000D01*
X-635000Y14605000D02*
X-635000Y12065000D01*
X1180000Y12065000D02*
X1815000Y11430000D01*
%TD*%
%TA.AperFunction,Conductor*%
%TO.N,GND*%
G36*
X20006675Y15465093D02*
G01*
X20042639Y15415593D01*
X20046636Y15372081D01*
X20031425Y15256536D01*
X20026139Y15216383D01*
X20036676Y15136343D01*
X20025526Y15076182D01*
X20008527Y15053417D01*
X19966413Y15011303D01*
X19963229Y15008386D01*
X19931807Y14982020D01*
X19931806Y14982018D01*
X19911292Y14946487D01*
X19908972Y14942846D01*
X19885446Y14909246D01*
X19885442Y14909238D01*
X19885051Y14907776D01*
X19875170Y14883922D01*
X19874414Y14882614D01*
X19874410Y14882602D01*
X19867287Y14842213D01*
X19866353Y14837998D01*
X19855736Y14798375D01*
X19855736Y14798369D01*
X19859312Y14757490D01*
X19859500Y14753189D01*
X19859500Y14060159D01*
X19840593Y14001968D01*
X19823304Y13983631D01*
X19810000Y13972713D01*
X19810000Y12920001D01*
X19810001Y12920000D01*
X19818424Y12920000D01*
X19876615Y12901093D01*
X19900739Y12876002D01*
X19918315Y12849698D01*
X19935000Y12794696D01*
X19935000Y10065304D01*
X19918315Y10010302D01*
X19900739Y9983998D01*
X19852689Y9946119D01*
X19818424Y9940000D01*
X19810001Y9940000D01*
X19810000Y9939999D01*
X19810000Y8887290D01*
X19823304Y8876371D01*
X19856292Y8824840D01*
X19859500Y8799843D01*
X19859500Y7773499D01*
X19840593Y7715308D01*
X19798386Y7682035D01*
X19657160Y7623537D01*
X19635607Y7606999D01*
X19577931Y7586576D01*
X19519265Y7603955D01*
X19482019Y7652497D01*
X19480418Y7713661D01*
X19484074Y7723312D01*
X19484942Y7726548D01*
X19494838Y7750439D01*
X19495588Y7751739D01*
X19502709Y7792128D01*
X19503640Y7796332D01*
X19514264Y7835977D01*
X19510687Y7876857D01*
X19510500Y7881159D01*
X19510500Y8799843D01*
X19529407Y8858034D01*
X19546696Y8876371D01*
X19560000Y8887290D01*
X19560000Y9939999D01*
X19559999Y9940000D01*
X19551576Y9940000D01*
X19493385Y9958907D01*
X19469261Y9983998D01*
X19451685Y10010302D01*
X19435000Y10065304D01*
X19435000Y12794696D01*
X19451685Y12849698D01*
X19469261Y12876002D01*
X19517311Y12913881D01*
X19551576Y12920000D01*
X19559999Y12920000D01*
X19560000Y12920002D01*
X19560000Y13972713D01*
X19546696Y13983631D01*
X19513708Y14035162D01*
X19510500Y14060159D01*
X19510500Y15199168D01*
X19529407Y15257359D01*
X19539497Y15269172D01*
X19725330Y15455004D01*
X19779846Y15482781D01*
X19795333Y15484000D01*
X19948484Y15484000D01*
X20006675Y15465093D01*
G37*
%TD.AperFunction*%
%TA.AperFunction,Conductor*%
G36*
X13845961Y13310593D02*
G01*
X13857774Y13300504D01*
X15733773Y11424504D01*
X15761550Y11369987D01*
X15751979Y11309555D01*
X15708714Y11266290D01*
X15663769Y11255500D01*
X13376832Y11255500D01*
X13318641Y11274407D01*
X13298290Y11294233D01*
X13255286Y11350277D01*
X13255285Y11350278D01*
X13255282Y11350282D01*
X13255277Y11350286D01*
X13255276Y11350287D01*
X13163772Y11420500D01*
X13129841Y11446536D01*
X13129840Y11446537D01*
X13129838Y11446538D01*
X12983766Y11507043D01*
X12983758Y11507045D01*
X12827001Y11527682D01*
X12826999Y11527682D01*
X12670241Y11507045D01*
X12670233Y11507043D01*
X12524161Y11446538D01*
X12524160Y11446538D01*
X12394767Y11347251D01*
X12337091Y11326827D01*
X12278425Y11344205D01*
X12241178Y11392747D01*
X12235500Y11425793D01*
X12235500Y12507370D01*
X12235499Y12507399D01*
X12235499Y12537434D01*
X12235498Y12537435D01*
X12234867Y12539376D01*
X12228895Y12557758D01*
X12228047Y12560367D01*
X12224419Y12575477D01*
X12221309Y12595117D01*
X12220646Y12599304D01*
X12209690Y12620805D01*
X12203750Y12635148D01*
X12196297Y12658087D01*
X12196296Y12658088D01*
X12196296Y12658090D01*
X12182117Y12677605D01*
X12174000Y12690851D01*
X12163050Y12712342D01*
X12163049Y12712343D01*
X12073347Y12802046D01*
X12073341Y12802051D01*
X12014496Y12860897D01*
X11986719Y12915414D01*
X11985500Y12930900D01*
X11985500Y13064616D01*
X12004407Y13122807D01*
X12053907Y13158771D01*
X12098771Y13162582D01*
X12154240Y13154500D01*
X12154244Y13154500D01*
X13245757Y13154500D01*
X13245760Y13154500D01*
X13313893Y13164427D01*
X13418983Y13215802D01*
X13501698Y13298517D01*
X13501698Y13298520D01*
X13503684Y13300504D01*
X13558201Y13328281D01*
X13573688Y13329500D01*
X13787770Y13329500D01*
X13845961Y13310593D01*
G37*
%TD.AperFunction*%
%TA.AperFunction,Conductor*%
G36*
X14920691Y17360593D02*
G01*
X14956655Y17311093D01*
X14961500Y17280500D01*
X14961500Y17099001D01*
X14961501Y17099000D01*
X16758499Y17099000D01*
X16758500Y17099001D01*
X16758500Y17280500D01*
X16777407Y17338691D01*
X16826907Y17374655D01*
X16857500Y17379500D01*
X17235863Y17379500D01*
X17294054Y17360593D01*
X17330018Y17311093D01*
X17330018Y17249907D01*
X17318178Y17225499D01*
X17274104Y17159540D01*
X17274103Y17159537D01*
X17262500Y17101201D01*
X17262500Y16633001D01*
X17262501Y16633000D01*
X18551499Y16633000D01*
X18551500Y16633002D01*
X18551500Y17101198D01*
X18551499Y17101201D01*
X18539896Y17159537D01*
X18539895Y17159540D01*
X18495822Y17225499D01*
X18479213Y17284387D01*
X18500391Y17341790D01*
X18551264Y17375783D01*
X18578137Y17379500D01*
X18716099Y17379500D01*
X18774290Y17360593D01*
X18786103Y17350504D01*
X19138004Y16998603D01*
X19165781Y16944086D01*
X19167000Y16928599D01*
X19167000Y15858334D01*
X19148093Y15800143D01*
X19138003Y15788330D01*
X18966420Y15616747D01*
X18963236Y15613830D01*
X18931807Y15587458D01*
X18931806Y15587456D01*
X18911292Y15551925D01*
X18908972Y15548284D01*
X18885446Y15514684D01*
X18885442Y15514676D01*
X18885051Y15513214D01*
X18875170Y15489360D01*
X18874414Y15488052D01*
X18874410Y15488040D01*
X18867287Y15447651D01*
X18866353Y15443436D01*
X18855736Y15403813D01*
X18855736Y15403806D01*
X18858378Y15373598D01*
X18844614Y15313981D01*
X18798436Y15273840D01*
X18737483Y15268509D01*
X18721869Y15273507D01*
X18616762Y15317044D01*
X18616759Y15317045D01*
X18616758Y15317045D01*
X18497267Y15332776D01*
X18442042Y15359117D01*
X18412847Y15412888D01*
X18420833Y15473550D01*
X18455188Y15513245D01*
X18495690Y15540308D01*
X18495693Y15540311D01*
X18539896Y15606464D01*
X18551499Y15664800D01*
X18551500Y15664803D01*
X18551500Y16132999D01*
X18551499Y16133000D01*
X18157001Y16133000D01*
X18157000Y16132999D01*
X18157000Y15484501D01*
X18157001Y15484500D01*
X18209806Y15484500D01*
X18267997Y15465593D01*
X18303961Y15416093D01*
X18303961Y15354907D01*
X18267997Y15305407D01*
X18247691Y15294036D01*
X18157161Y15256538D01*
X18157160Y15256538D01*
X18042921Y15168879D01*
X17985245Y15148455D01*
X17926579Y15165833D01*
X17904114Y15187152D01*
X17827282Y15287282D01*
X17827277Y15287286D01*
X17827276Y15287287D01*
X17696694Y15387486D01*
X17698453Y15389780D01*
X17665554Y15426328D01*
X17657000Y15466583D01*
X17657000Y16132999D01*
X17656999Y16133000D01*
X17262501Y16133000D01*
X17262500Y16132999D01*
X17262500Y16033834D01*
X17243593Y15975643D01*
X17194093Y15939679D01*
X17132907Y15939679D01*
X17093497Y15963830D01*
X16889746Y16167580D01*
X16886827Y16170765D01*
X16860456Y16202194D01*
X16835677Y16216500D01*
X16824918Y16222712D01*
X16821288Y16225025D01*
X16791196Y16246095D01*
X16754374Y16294960D01*
X16750882Y16346506D01*
X16758499Y16384803D01*
X16758500Y16384803D01*
X16758500Y16599000D01*
X14961501Y16599000D01*
X14961500Y16598999D01*
X14961500Y16384806D01*
X14961658Y16383201D01*
X14961500Y16382482D01*
X14961500Y16379939D01*
X14960942Y16379939D01*
X14948543Y16323437D01*
X14902806Y16282796D01*
X14863134Y16274500D01*
X13835834Y16274500D01*
X13777643Y16293407D01*
X13765830Y16303496D01*
X13539730Y16529596D01*
X13511953Y16584113D01*
X13521524Y16644545D01*
X13564789Y16687810D01*
X13571829Y16691056D01*
X13712841Y16749464D01*
X13838282Y16845718D01*
X13934536Y16971159D01*
X13995044Y17117238D01*
X13995364Y17119670D01*
X13996119Y17121253D01*
X13996723Y17123506D01*
X13997140Y17123395D01*
X14021699Y17174894D01*
X14023472Y17176715D01*
X14197262Y17350504D01*
X14251780Y17378281D01*
X14267266Y17379500D01*
X14862500Y17379500D01*
X14920691Y17360593D01*
G37*
%TD.AperFunction*%
%TA.AperFunction,Conductor*%
G36*
X35064691Y24926593D02*
G01*
X35100655Y24877093D01*
X35105500Y24846500D01*
X35105500Y18861596D01*
X35086593Y18803405D01*
X35037093Y18767441D01*
X35006500Y18762596D01*
X33241643Y18762596D01*
X33241642Y18762595D01*
X33241642Y1585406D01*
X33241643Y1585406D01*
X33241643Y1585405D01*
X35006500Y1585405D01*
X35064691Y1566498D01*
X35100655Y1516998D01*
X35105500Y1486405D01*
X35105500Y-4526500D01*
X35086593Y-4584691D01*
X35037093Y-4620655D01*
X35006500Y-4625500D01*
X-4526500Y-4625500D01*
X-4584691Y-4606593D01*
X-4620655Y-4557093D01*
X-4625500Y-4526500D01*
X-4625500Y-3175000D01*
X3839318Y-3175000D01*
X3859955Y-3331758D01*
X3859957Y-3331766D01*
X3920462Y-3477838D01*
X3920462Y-3477839D01*
X3990341Y-3568907D01*
X4016718Y-3603282D01*
X4142159Y-3699536D01*
X4142160Y-3699536D01*
X4142161Y-3699537D01*
X4149872Y-3702731D01*
X4288238Y-3760044D01*
X4405809Y-3775522D01*
X4444999Y-3780682D01*
X4445000Y-3780682D01*
X4445001Y-3780682D01*
X4476352Y-3776554D01*
X4601762Y-3760044D01*
X4747841Y-3699536D01*
X4873282Y-3603282D01*
X4922428Y-3539232D01*
X4972852Y-3504577D01*
X5000970Y-3500500D01*
X5138500Y-3500500D01*
X5196691Y-3519407D01*
X5232655Y-3568907D01*
X5237500Y-3599500D01*
X5237500Y-3644246D01*
X5237501Y-3644258D01*
X5249132Y-3702727D01*
X5249134Y-3702733D01*
X5287429Y-3760044D01*
X5293448Y-3769052D01*
X5359769Y-3813367D01*
X5404231Y-3822211D01*
X5418241Y-3824998D01*
X5418246Y-3824998D01*
X5418252Y-3825000D01*
X5418253Y-3825000D01*
X6346747Y-3825000D01*
X6346748Y-3825000D01*
X6405231Y-3813367D01*
X6471552Y-3769052D01*
X6515867Y-3702731D01*
X6527500Y-3644248D01*
X6527500Y-2207752D01*
X6526247Y-2201455D01*
X6521293Y-2176548D01*
X6515867Y-2149269D01*
X6471552Y-2082948D01*
X6439672Y-2061646D01*
X6405233Y-2038634D01*
X6405231Y-2038633D01*
X6405228Y-2038632D01*
X6405227Y-2038632D01*
X6346758Y-2027001D01*
X6346748Y-2027000D01*
X5418252Y-2027000D01*
X5418251Y-2027000D01*
X5418241Y-2027001D01*
X5359772Y-2038632D01*
X5359766Y-2038634D01*
X5293451Y-2082945D01*
X5293445Y-2082951D01*
X5249134Y-2149266D01*
X5249132Y-2149272D01*
X5237501Y-2207741D01*
X5237500Y-2207753D01*
X5237500Y-2750500D01*
X5218593Y-2808691D01*
X5169093Y-2844655D01*
X5138500Y-2849500D01*
X5000970Y-2849500D01*
X4942779Y-2830593D01*
X4922428Y-2810767D01*
X4873285Y-2746722D01*
X4873282Y-2746718D01*
X4873277Y-2746714D01*
X4873276Y-2746713D01*
X4747838Y-2650462D01*
X4601766Y-2589957D01*
X4601758Y-2589955D01*
X4445001Y-2569318D01*
X4444999Y-2569318D01*
X4288241Y-2589955D01*
X4288233Y-2589957D01*
X4142161Y-2650462D01*
X4142160Y-2650462D01*
X4016723Y-2746713D01*
X4016713Y-2746723D01*
X3920462Y-2872160D01*
X3920462Y-2872161D01*
X3859957Y-3018233D01*
X3859955Y-3018241D01*
X3839318Y-3174999D01*
X3839318Y-3175000D01*
X-4625500Y-3175000D01*
X-4625500Y6280797D01*
X-4179999Y6280797D01*
X-4177150Y6250400D01*
X-4177150Y6250398D01*
X-4132346Y6122353D01*
X-4051793Y6013210D01*
X-4051791Y6013208D01*
X-3942648Y5932655D01*
X-3814602Y5887851D01*
X-3784211Y5885001D01*
X-2980003Y5885001D01*
X-2980001Y5885003D01*
X-2480000Y5885003D01*
X-2479999Y5885001D01*
X-1675797Y5885001D01*
X-1645400Y5887851D01*
X-1645398Y5887851D01*
X-1517353Y5932655D01*
X-1408210Y6013208D01*
X-1408208Y6013210D01*
X-1327655Y6122353D01*
X-1282851Y6250399D01*
X-1280001Y6280789D01*
X-1280000Y6280790D01*
X-1280000Y6734999D01*
X-1280001Y6735000D01*
X-2479999Y6735000D01*
X-2480000Y6734999D01*
X-2480000Y5885003D01*
X-2980001Y5885003D01*
X-2980001Y6735000D01*
X-4179998Y6735000D01*
X-4179999Y6734999D01*
X-4179999Y6280797D01*
X-4625500Y6280797D01*
X-4625500Y7235001D01*
X-4180000Y7235001D01*
X-4179999Y7235000D01*
X-2980001Y7235000D01*
X-2980001Y7235001D01*
X-2480000Y7235001D01*
X-2479999Y7235000D01*
X-1280002Y7235000D01*
X-1280001Y7235002D01*
X-1280001Y7689204D01*
X-1282851Y7719601D01*
X-1282851Y7719603D01*
X-1327655Y7847648D01*
X-1408208Y7956791D01*
X-1408210Y7956793D01*
X-1517353Y8037346D01*
X-1645399Y8082150D01*
X-1675789Y8085000D01*
X-2479999Y8085000D01*
X-2480000Y8084999D01*
X-2480000Y7235001D01*
X-2980001Y7235001D01*
X-2980001Y8084999D01*
X-2980002Y8085000D01*
X-3784204Y8085000D01*
X-3814601Y8082150D01*
X-3814603Y8082150D01*
X-3942648Y8037346D01*
X-4051791Y7956793D01*
X-4051793Y7956791D01*
X-4132346Y7847648D01*
X-4177150Y7719602D01*
X-4180000Y7689212D01*
X-4180000Y7235001D01*
X-4625500Y7235001D01*
X-4625500Y9695754D01*
X-4074000Y9695754D01*
X-4073999Y9695742D01*
X-4062368Y9637273D01*
X-4062366Y9637267D01*
X-4018940Y9572277D01*
X-4018052Y9570948D01*
X-3951731Y9526633D01*
X-3911899Y9518710D01*
X-3893259Y9515002D01*
X-3893254Y9515002D01*
X-3893248Y9515000D01*
X-3893247Y9515000D01*
X-2456753Y9515000D01*
X-2456752Y9515000D01*
X-2398269Y9526633D01*
X-2331948Y9570948D01*
X-2302177Y9615504D01*
X-2254126Y9653381D01*
X-2219862Y9659500D01*
X-1590138Y9659500D01*
X-1531947Y9640593D01*
X-1507824Y9615504D01*
X-1478052Y9570948D01*
X-1411731Y9526633D01*
X-1371899Y9518710D01*
X-1353259Y9515002D01*
X-1353254Y9515002D01*
X-1353248Y9515000D01*
X-1234500Y9515000D01*
X-1176309Y9496093D01*
X-1140345Y9446593D01*
X-1135500Y9416000D01*
X-1135500Y8583458D01*
X-1137762Y8562415D01*
X-1139359Y8555074D01*
X-1135626Y8502882D01*
X-1135500Y8499349D01*
X-1135500Y8483201D01*
X-1133202Y8467212D01*
X-1132824Y8463699D01*
X-1129092Y8411517D01*
X-1126467Y8404480D01*
X-1121236Y8383986D01*
X-1120166Y8376546D01*
X-1120165Y8376542D01*
X-1098431Y8328951D01*
X-1097079Y8325686D01*
X-1078798Y8276673D01*
X-1078797Y8276672D01*
X-1078796Y8276669D01*
X-1075082Y8271707D01*
X-1074292Y8270652D01*
X-1063499Y8252462D01*
X-1060377Y8245627D01*
X-1026112Y8206083D01*
X-1023920Y8203364D01*
X-1014221Y8190407D01*
X-1014219Y8190405D01*
X-1002789Y8178974D01*
X-1000390Y8176397D01*
X-966403Y8137174D01*
X-966127Y8136856D01*
X-959817Y8132801D01*
X-943334Y8119520D01*
X-209496Y7385682D01*
X-181719Y7331165D01*
X-180500Y7315678D01*
X-180500Y6280726D01*
X-177647Y6250306D01*
X-177645Y6250297D01*
X-132793Y6122117D01*
X-52155Y6012856D01*
X-52153Y6012854D01*
X-52150Y6012850D01*
X-52147Y6012848D01*
X-52145Y6012846D01*
X57116Y5932208D01*
X57117Y5932208D01*
X57118Y5932207D01*
X185301Y5887354D01*
X215725Y5884501D01*
X215727Y5884500D01*
X215734Y5884500D01*
X845500Y5884500D01*
X903691Y5865593D01*
X939655Y5816093D01*
X944500Y5785500D01*
X944500Y4851377D01*
X944312Y4847075D01*
X944044Y4844000D01*
X940736Y4806196D01*
X951354Y4766566D01*
X952289Y4762350D01*
X959411Y4721957D01*
X960164Y4720654D01*
X970054Y4696778D01*
X970443Y4695323D01*
X970446Y4695318D01*
X993971Y4661721D01*
X996288Y4658084D01*
X1016806Y4622547D01*
X1048224Y4596184D01*
X1051410Y4593265D01*
X3920504Y1724172D01*
X3948281Y1669655D01*
X3949500Y1654168D01*
X3949500Y1046081D01*
X3930593Y987890D01*
X3881093Y951926D01*
X3865988Y948300D01*
X3788282Y935992D01*
X3677881Y879741D01*
X3590259Y792119D01*
X3534008Y681718D01*
X3519500Y590120D01*
X3519500Y-590119D01*
X3534008Y-681717D01*
X3543323Y-700000D01*
X3590261Y-792121D01*
X3677879Y-879739D01*
X3788283Y-935992D01*
X3852260Y-946125D01*
X3879880Y-950500D01*
X3879882Y-950500D01*
X4990118Y-950500D01*
X5011968Y-947039D01*
X5072399Y-956609D01*
X5115665Y-999873D01*
X5118919Y-1006933D01*
X5129221Y-1031804D01*
X5129228Y-1031817D01*
X5205885Y-1146541D01*
X5303458Y-1244114D01*
X5418182Y-1320771D01*
X5418193Y-1320777D01*
X5465283Y-1340282D01*
X5545672Y-1373580D01*
X5681007Y-1400500D01*
X5681008Y-1400500D01*
X7018992Y-1400500D01*
X7018993Y-1400500D01*
X7154328Y-1373580D01*
X7281811Y-1320775D01*
X7396542Y-1244114D01*
X7494114Y-1146542D01*
X7570775Y-1031811D01*
X7581078Y-1006935D01*
X7620812Y-960410D01*
X7680306Y-946125D01*
X7688030Y-947039D01*
X7709880Y-950500D01*
X7709882Y-950500D01*
X8000500Y-950500D01*
X8058691Y-969407D01*
X8094655Y-1018907D01*
X8099500Y-1049500D01*
X8099500Y-1813165D01*
X8080593Y-1871356D01*
X8070504Y-1883168D01*
X7955670Y-1998003D01*
X7901153Y-2025781D01*
X7885666Y-2027000D01*
X7323252Y-2027000D01*
X7323251Y-2027000D01*
X7323241Y-2027001D01*
X7264772Y-2038632D01*
X7264766Y-2038634D01*
X7198451Y-2082945D01*
X7198445Y-2082951D01*
X7154134Y-2149266D01*
X7154132Y-2149272D01*
X7142501Y-2207741D01*
X7142500Y-2207753D01*
X7142500Y-3644246D01*
X7142501Y-3644258D01*
X7154132Y-3702727D01*
X7154134Y-3702733D01*
X7192429Y-3760044D01*
X7198448Y-3769052D01*
X7264769Y-3813367D01*
X7309231Y-3822211D01*
X7323241Y-3824998D01*
X7323246Y-3824998D01*
X7323252Y-3825000D01*
X7323253Y-3825000D01*
X8251747Y-3825000D01*
X8251748Y-3825000D01*
X8310231Y-3813367D01*
X8376552Y-3769052D01*
X8420867Y-3702731D01*
X8432500Y-3644248D01*
X8432500Y-2482832D01*
X8451407Y-2424641D01*
X8461490Y-2412834D01*
X8643589Y-2230735D01*
X8646753Y-2227835D01*
X8678194Y-2201455D01*
X8698714Y-2165911D01*
X8701012Y-2162303D01*
X8724554Y-2128684D01*
X8724941Y-2127236D01*
X8734838Y-2103345D01*
X8735586Y-2102048D01*
X8735585Y-2102048D01*
X8735588Y-2102045D01*
X8742713Y-2061628D01*
X8743641Y-2057443D01*
X8745180Y-2051700D01*
X10468000Y-2051700D01*
X10479603Y-2110036D01*
X10523806Y-2176189D01*
X10523810Y-2176193D01*
X10589963Y-2220396D01*
X10648299Y-2231999D01*
X10648303Y-2232000D01*
X11179999Y-2232000D01*
X11180000Y-2231999D01*
X11180000Y-1637532D01*
X11234960Y-1675004D01*
X11363002Y-1714500D01*
X11463312Y-1714500D01*
X11562499Y-1699550D01*
X11680000Y-1642964D01*
X11680000Y-2231999D01*
X11680001Y-2232000D01*
X12211697Y-2232000D01*
X12211700Y-2231999D01*
X12270036Y-2220396D01*
X12336189Y-2176193D01*
X12336193Y-2176189D01*
X12380396Y-2110036D01*
X12391999Y-2051700D01*
X12392000Y-2051697D01*
X12392000Y-1520000D01*
X11798927Y-1520000D01*
X11848447Y-1434228D01*
X11878264Y-1303593D01*
X11868251Y-1169972D01*
X11819297Y-1045240D01*
X11799169Y-1020000D01*
X12391999Y-1020000D01*
X12392000Y-1019999D01*
X12392000Y-488302D01*
X12391999Y-488299D01*
X12380396Y-429963D01*
X12336193Y-363810D01*
X12336189Y-363806D01*
X12270036Y-319603D01*
X12211700Y-308000D01*
X11680001Y-308000D01*
X11680000Y-308001D01*
X11680000Y-902467D01*
X11625040Y-864996D01*
X11496998Y-825500D01*
X11396688Y-825500D01*
X11297501Y-840450D01*
X11180000Y-897035D01*
X11180000Y-308001D01*
X11179999Y-308000D01*
X10648299Y-308000D01*
X10589963Y-319603D01*
X10523810Y-363806D01*
X10523806Y-363810D01*
X10479603Y-429963D01*
X10468000Y-488299D01*
X10468000Y-1019999D01*
X10468001Y-1020000D01*
X11061073Y-1020000D01*
X11011553Y-1105772D01*
X10981736Y-1236407D01*
X10991749Y-1370028D01*
X11040703Y-1494760D01*
X11060831Y-1520000D01*
X10468001Y-1520000D01*
X10468000Y-1520001D01*
X10468000Y-2051700D01*
X8745180Y-2051700D01*
X8754263Y-2017807D01*
X8750687Y-1976934D01*
X8750500Y-1972634D01*
X8750500Y-1046080D01*
X8769407Y-987889D01*
X8818907Y-951925D01*
X8834010Y-948299D01*
X8911717Y-935992D01*
X9022121Y-879739D01*
X9109739Y-792121D01*
X9165992Y-681717D01*
X9180500Y-590118D01*
X9180500Y488300D01*
X10468000Y488300D01*
X10479603Y429964D01*
X10523806Y363811D01*
X10523810Y363807D01*
X10589963Y319604D01*
X10648299Y308001D01*
X10648303Y308000D01*
X11179999Y308000D01*
X11180000Y308002D01*
X11180000Y902468D01*
X11234960Y864996D01*
X11363002Y825500D01*
X11463312Y825500D01*
X11562499Y840450D01*
X11680000Y897036D01*
X11680000Y308001D01*
X11680001Y308000D01*
X12211697Y308000D01*
X12211700Y308001D01*
X12270036Y319604D01*
X12336189Y363807D01*
X12336193Y363811D01*
X12380396Y429964D01*
X12391999Y488300D01*
X12392000Y488303D01*
X12392000Y1020000D01*
X11798927Y1020000D01*
X11848447Y1105772D01*
X11878264Y1236407D01*
X11868251Y1370028D01*
X11819297Y1494760D01*
X11799169Y1520000D01*
X12391999Y1520000D01*
X12392000Y1520001D01*
X12392000Y2051698D01*
X12391999Y2051701D01*
X12380396Y2110037D01*
X12336193Y2176190D01*
X12336189Y2176194D01*
X12270036Y2220397D01*
X12211700Y2232000D01*
X11680000Y2232000D01*
X11680000Y1637533D01*
X11625040Y1675004D01*
X11496998Y1714500D01*
X11396688Y1714500D01*
X11297501Y1699550D01*
X11180000Y1642965D01*
X11180000Y2231999D01*
X11179999Y2232000D01*
X10648299Y2232000D01*
X10589963Y2220397D01*
X10523810Y2176194D01*
X10523806Y2176190D01*
X10479603Y2110037D01*
X10468000Y2051701D01*
X10468000Y1520001D01*
X10468001Y1520000D01*
X11061073Y1520000D01*
X11011553Y1434228D01*
X10981736Y1303593D01*
X10991749Y1169972D01*
X11040703Y1045240D01*
X11060831Y1020000D01*
X10468001Y1020000D01*
X10468000Y1019999D01*
X10468000Y488300D01*
X9180500Y488300D01*
X9180500Y590118D01*
X9165992Y681717D01*
X9109739Y792121D01*
X9022121Y879739D01*
X9022118Y879741D01*
X8911717Y935992D01*
X8820120Y950500D01*
X8820118Y950500D01*
X7709882Y950500D01*
X7688026Y947039D01*
X7627595Y956613D01*
X7584331Y999878D01*
X7581082Y1006928D01*
X7570776Y1031809D01*
X7570775Y1031812D01*
X7540068Y1077767D01*
X7494114Y1146542D01*
X7396542Y1244114D01*
X7396541Y1244115D01*
X7281817Y1320772D01*
X7281806Y1320778D01*
X7154328Y1373580D01*
X7018995Y1400500D01*
X7018993Y1400500D01*
X6972590Y1400500D01*
X5789882Y1400500D01*
X5750000Y1400500D01*
X5681007Y1400500D01*
X5681004Y1400500D01*
X5545672Y1373580D01*
X5545670Y1373580D01*
X5418193Y1320778D01*
X5418182Y1320772D01*
X5303458Y1244115D01*
X5205889Y1146546D01*
X5205886Y1146542D01*
X5129223Y1031810D01*
X5129223Y1031809D01*
X5118919Y1006933D01*
X5079181Y960408D01*
X5019686Y946126D01*
X5011970Y947040D01*
X4990122Y950500D01*
X4990118Y950500D01*
X4699500Y950500D01*
X4641309Y969407D01*
X4605345Y1018907D01*
X4600500Y1049500D01*
X4600500Y1813629D01*
X4600687Y1817930D01*
X4604264Y1858809D01*
X4593640Y1898454D01*
X4592710Y1902654D01*
X4585588Y1943047D01*
X4584840Y1944343D01*
X4574942Y1968235D01*
X4574554Y1969686D01*
X4574552Y1969689D01*
X4574551Y1969691D01*
X4551025Y2003290D01*
X4548703Y2006934D01*
X4528193Y2042459D01*
X4507069Y2060183D01*
X4496765Y2068829D01*
X4493588Y2071741D01*
X1624496Y4940832D01*
X1596719Y4995349D01*
X1595500Y5010836D01*
X1595500Y5785500D01*
X1614407Y5843691D01*
X1663907Y5879655D01*
X1694500Y5884500D01*
X2324273Y5884500D01*
X2324273Y5884501D01*
X2354699Y5887354D01*
X2482882Y5932207D01*
X2512620Y5954156D01*
X2570668Y5973497D01*
X2571409Y5973500D01*
X3234649Y5973500D01*
X3292840Y5954593D01*
X3294857Y5953087D01*
X3332159Y5924464D01*
X3332162Y5924463D01*
X3332163Y5924462D01*
X3384431Y5902812D01*
X3478238Y5863956D01*
X3595809Y5848478D01*
X3634999Y5843318D01*
X3635000Y5843318D01*
X3635001Y5843318D01*
X3666352Y5847446D01*
X3791762Y5863956D01*
X3937841Y5924464D01*
X3975085Y5953044D01*
X4032759Y5973466D01*
X4035351Y5973500D01*
X4885237Y5973500D01*
X4943428Y5954593D01*
X4979392Y5905093D01*
X4979392Y5843907D01*
X4943428Y5794407D01*
X4919834Y5781742D01*
X4891870Y5771313D01*
X4891862Y5771309D01*
X4647062Y5637640D01*
X4513156Y5537398D01*
X5073680Y4976873D01*
X4915782Y4857634D01*
X4770327Y4698077D01*
X4722542Y4620904D01*
X4159602Y5183844D01*
X4059360Y5049938D01*
X3925691Y4805138D01*
X3925687Y4805129D01*
X3828210Y4543787D01*
X3768917Y4271218D01*
X3749019Y3993000D01*
X3768917Y3714783D01*
X3828210Y3442214D01*
X3925687Y3180872D01*
X3925691Y3180863D01*
X4059361Y2936062D01*
X4059366Y2936055D01*
X4159601Y2802157D01*
X4722542Y3365099D01*
X4770327Y3287923D01*
X4915782Y3128366D01*
X5073679Y3009128D01*
X4513155Y2448603D01*
X4647054Y2348367D01*
X4647061Y2348362D01*
X4891862Y2214692D01*
X4891871Y2214688D01*
X5153213Y2117211D01*
X5425782Y2057918D01*
X5703999Y2038020D01*
X5982217Y2057918D01*
X6254786Y2117211D01*
X6516128Y2214688D01*
X6516137Y2214692D01*
X6760932Y2348359D01*
X6894843Y2448603D01*
X6334319Y3009127D01*
X6492218Y3128366D01*
X6637673Y3287923D01*
X6685456Y3365097D01*
X7248397Y2802157D01*
X7348641Y2936068D01*
X7482308Y3180863D01*
X7482312Y3180872D01*
X7579789Y3442214D01*
X7639082Y3714783D01*
X7658980Y3993001D01*
X7639082Y4271218D01*
X7617371Y4371025D01*
X7623477Y4431905D01*
X7664202Y4477569D01*
X7723989Y4490575D01*
X7780002Y4465955D01*
X7784113Y4462073D01*
X8998518Y3247668D01*
X9011796Y3231190D01*
X9015856Y3224873D01*
X9015857Y3224871D01*
X9055394Y3190613D01*
X9057982Y3188204D01*
X9069407Y3176779D01*
X9082345Y3167094D01*
X9085095Y3164878D01*
X9091447Y3159374D01*
X9124624Y3130625D01*
X9124625Y3130625D01*
X9124627Y3130623D01*
X9131454Y3127505D01*
X9149651Y3116709D01*
X9155669Y3112204D01*
X9204697Y3093919D01*
X9207941Y3092575D01*
X9255543Y3070835D01*
X9262978Y3069767D01*
X9283484Y3064532D01*
X9287581Y3063004D01*
X9290517Y3061909D01*
X9342729Y3058175D01*
X9346196Y3057802D01*
X9362201Y3055500D01*
X9378348Y3055500D01*
X9381881Y3055374D01*
X9386871Y3055018D01*
X9434073Y3051641D01*
X9440470Y3053033D01*
X9441410Y3053237D01*
X9462456Y3055500D01*
X12304678Y3055500D01*
X12362869Y3036593D01*
X12374682Y3026504D01*
X13074772Y2326414D01*
X13102549Y2271897D01*
X13092978Y2211465D01*
X13069145Y2184644D01*
X13070343Y2183446D01*
X13063445Y2176549D01*
X13019134Y2110234D01*
X13019132Y2110228D01*
X13007501Y2051759D01*
X13007500Y2051747D01*
X13007500Y488254D01*
X13007501Y488242D01*
X13019094Y429964D01*
X13019133Y429769D01*
X13063448Y363448D01*
X13129769Y319133D01*
X13174231Y310289D01*
X13188241Y307502D01*
X13188246Y307502D01*
X13188252Y307500D01*
X13370500Y307500D01*
X13428691Y288593D01*
X13464655Y239093D01*
X13469500Y208500D01*
X13469500Y-208500D01*
X13450593Y-266691D01*
X13401093Y-302655D01*
X13370500Y-307500D01*
X13188252Y-307500D01*
X13188251Y-307500D01*
X13188241Y-307501D01*
X13129772Y-319132D01*
X13129766Y-319134D01*
X13063451Y-363445D01*
X13063445Y-363451D01*
X13019134Y-429766D01*
X13019132Y-429772D01*
X13007501Y-488241D01*
X13007500Y-488253D01*
X13007500Y-2051746D01*
X13007501Y-2051758D01*
X13019132Y-2110227D01*
X13019134Y-2110233D01*
X13053910Y-2162278D01*
X13063448Y-2176552D01*
X13129769Y-2220867D01*
X13171727Y-2229213D01*
X13188241Y-2232498D01*
X13188246Y-2232498D01*
X13188252Y-2232500D01*
X13188253Y-2232500D01*
X14751747Y-2232500D01*
X14751748Y-2232500D01*
X14810231Y-2220867D01*
X14876552Y-2176552D01*
X14920867Y-2110231D01*
X14932500Y-2051748D01*
X14932500Y-2051700D01*
X15548000Y-2051700D01*
X15559603Y-2110036D01*
X15603806Y-2176189D01*
X15603810Y-2176193D01*
X15669963Y-2220396D01*
X15728299Y-2231999D01*
X15728303Y-2232000D01*
X16259999Y-2232000D01*
X16260000Y-2231999D01*
X16260000Y-1637532D01*
X16314960Y-1675004D01*
X16443002Y-1714500D01*
X16543312Y-1714500D01*
X16642499Y-1699550D01*
X16760000Y-1642964D01*
X16760000Y-2231999D01*
X16760001Y-2232000D01*
X17291697Y-2232000D01*
X17291700Y-2231999D01*
X17350036Y-2220396D01*
X17416189Y-2176193D01*
X17416193Y-2176189D01*
X17460396Y-2110036D01*
X17471999Y-2051700D01*
X19358000Y-2051700D01*
X19369603Y-2110036D01*
X19413806Y-2176189D01*
X19413810Y-2176193D01*
X19479963Y-2220396D01*
X19538299Y-2231999D01*
X19538303Y-2232000D01*
X20069999Y-2232000D01*
X20070000Y-2231999D01*
X20070000Y-1637532D01*
X20124960Y-1675004D01*
X20253002Y-1714500D01*
X20353312Y-1714500D01*
X20452499Y-1699550D01*
X20570000Y-1642964D01*
X20570000Y-2231999D01*
X20570001Y-2232000D01*
X21101697Y-2232000D01*
X21101700Y-2231999D01*
X21160036Y-2220396D01*
X21226189Y-2176193D01*
X21226193Y-2176189D01*
X21270396Y-2110036D01*
X21281999Y-2051700D01*
X21282000Y-2051697D01*
X21282000Y-1520001D01*
X21281999Y-1520000D01*
X20688927Y-1520000D01*
X20738447Y-1434228D01*
X20768264Y-1303593D01*
X20758251Y-1169972D01*
X20709297Y-1045240D01*
X20689169Y-1020000D01*
X21281999Y-1020000D01*
X21282000Y-1019999D01*
X21282000Y-488302D01*
X21281999Y-488299D01*
X21270396Y-429963D01*
X21226193Y-363810D01*
X21226189Y-363806D01*
X21160036Y-319603D01*
X21101700Y-308000D01*
X20570000Y-308000D01*
X20570000Y-902467D01*
X20515040Y-864996D01*
X20386998Y-825500D01*
X20286688Y-825500D01*
X20187501Y-840450D01*
X20070000Y-897035D01*
X20070000Y-308001D01*
X20069999Y-308000D01*
X19538299Y-308000D01*
X19479963Y-319603D01*
X19413810Y-363806D01*
X19413806Y-363810D01*
X19369603Y-429963D01*
X19358000Y-488299D01*
X19358000Y-1019999D01*
X19358001Y-1020000D01*
X19951073Y-1020000D01*
X19901553Y-1105772D01*
X19871736Y-1236407D01*
X19881749Y-1370028D01*
X19930703Y-1494760D01*
X19950831Y-1520000D01*
X19358001Y-1520000D01*
X19358000Y-1520001D01*
X19358000Y-2051700D01*
X17471999Y-2051700D01*
X17472000Y-2051697D01*
X17472000Y-1520000D01*
X16878927Y-1520000D01*
X16928447Y-1434228D01*
X16958264Y-1303593D01*
X16948251Y-1169972D01*
X16899297Y-1045240D01*
X16879169Y-1020000D01*
X17471999Y-1020000D01*
X17472000Y-1019999D01*
X17472000Y-488302D01*
X17471999Y-488299D01*
X17460396Y-429963D01*
X17416193Y-363810D01*
X17416189Y-363806D01*
X17350036Y-319603D01*
X17291700Y-308000D01*
X16760000Y-308000D01*
X16760000Y-902467D01*
X16705040Y-864996D01*
X16576998Y-825500D01*
X16476688Y-825500D01*
X16377501Y-840450D01*
X16260000Y-897035D01*
X16260000Y-308001D01*
X16259999Y-308000D01*
X15728299Y-308000D01*
X15669963Y-319603D01*
X15603810Y-363806D01*
X15603806Y-363810D01*
X15559603Y-429963D01*
X15548000Y-488299D01*
X15548000Y-1019999D01*
X15548001Y-1020000D01*
X16141073Y-1020000D01*
X16091553Y-1105772D01*
X16061736Y-1236407D01*
X16071749Y-1370028D01*
X16120703Y-1494760D01*
X16140831Y-1520000D01*
X15548001Y-1520000D01*
X15548000Y-1520001D01*
X15548000Y-2051700D01*
X14932500Y-2051700D01*
X14932500Y-488252D01*
X14920867Y-429769D01*
X14876552Y-363448D01*
X14876548Y-363445D01*
X14810233Y-319134D01*
X14810231Y-319133D01*
X14810228Y-319132D01*
X14810227Y-319132D01*
X14751758Y-307501D01*
X14751748Y-307500D01*
X14751747Y-307500D01*
X14569500Y-307500D01*
X14511309Y-288593D01*
X14475345Y-239093D01*
X14470500Y-208500D01*
X14470500Y208500D01*
X14489407Y266691D01*
X14538907Y302655D01*
X14569500Y307500D01*
X14751747Y307500D01*
X14751748Y307500D01*
X14810231Y319133D01*
X14876552Y363448D01*
X14920867Y429769D01*
X14932500Y488252D01*
X14932500Y488300D01*
X15548000Y488300D01*
X15559603Y429964D01*
X15603806Y363811D01*
X15603810Y363807D01*
X15669963Y319604D01*
X15728299Y308001D01*
X15728303Y308000D01*
X16259999Y308000D01*
X16260000Y308001D01*
X16260000Y902468D01*
X16314960Y864996D01*
X16443002Y825500D01*
X16543312Y825500D01*
X16642499Y840450D01*
X16760000Y897036D01*
X16760000Y308001D01*
X16760001Y308000D01*
X17291697Y308000D01*
X17291700Y308001D01*
X17350036Y319604D01*
X17416189Y363807D01*
X17416193Y363811D01*
X17460396Y429964D01*
X17471999Y488300D01*
X19358000Y488300D01*
X19369603Y429964D01*
X19413806Y363811D01*
X19413810Y363807D01*
X19479963Y319604D01*
X19538299Y308001D01*
X19538303Y308000D01*
X20069999Y308000D01*
X20070000Y308001D01*
X20070000Y902468D01*
X20124960Y864996D01*
X20253002Y825500D01*
X20353312Y825500D01*
X20452499Y840450D01*
X20570000Y897036D01*
X20570000Y308001D01*
X20570001Y308000D01*
X21101697Y308000D01*
X21101700Y308001D01*
X21160036Y319604D01*
X21226189Y363807D01*
X21226193Y363811D01*
X21270396Y429964D01*
X21281999Y488300D01*
X21282000Y488303D01*
X21282000Y1019999D01*
X21281999Y1020000D01*
X20688927Y1020000D01*
X20738447Y1105772D01*
X20768264Y1236407D01*
X20758251Y1370028D01*
X20709297Y1494760D01*
X20689169Y1520000D01*
X21281999Y1520000D01*
X21282000Y1520001D01*
X21282000Y2051698D01*
X21281999Y2051701D01*
X21270396Y2110037D01*
X21226193Y2176190D01*
X21226189Y2176194D01*
X21160036Y2220397D01*
X21101700Y2232000D01*
X20570001Y2232000D01*
X20570000Y2231999D01*
X20570000Y1637533D01*
X20515040Y1675004D01*
X20386998Y1714500D01*
X20286688Y1714500D01*
X20187501Y1699550D01*
X20070000Y1642965D01*
X20070000Y2231999D01*
X20069999Y2232000D01*
X19538299Y2232000D01*
X19479963Y2220397D01*
X19413810Y2176194D01*
X19413806Y2176190D01*
X19369603Y2110037D01*
X19358000Y2051701D01*
X19358000Y1520001D01*
X19358001Y1520000D01*
X19951073Y1520000D01*
X19901553Y1434228D01*
X19871736Y1303593D01*
X19881749Y1169972D01*
X19930703Y1045240D01*
X19950831Y1020000D01*
X19358001Y1020000D01*
X19358000Y1019999D01*
X19358000Y488300D01*
X17471999Y488300D01*
X17472000Y488303D01*
X17472000Y1020000D01*
X16878927Y1020000D01*
X16928447Y1105772D01*
X16958264Y1236407D01*
X16948251Y1370028D01*
X16899297Y1494760D01*
X16879169Y1520000D01*
X17471999Y1520000D01*
X17472000Y1520001D01*
X17472000Y2051698D01*
X17471999Y2051701D01*
X17460396Y2110037D01*
X17416193Y2176190D01*
X17416189Y2176194D01*
X17350036Y2220397D01*
X17291700Y2232000D01*
X16760001Y2232000D01*
X16760000Y2231999D01*
X16760000Y1637533D01*
X16705040Y1675004D01*
X16576998Y1714500D01*
X16476688Y1714500D01*
X16377501Y1699550D01*
X16260000Y1642965D01*
X16260000Y2231999D01*
X16259999Y2232000D01*
X15728299Y2232000D01*
X15669963Y2220397D01*
X15603810Y2176194D01*
X15603806Y2176190D01*
X15559603Y2110037D01*
X15548000Y2051701D01*
X15548000Y1520001D01*
X15548001Y1520000D01*
X16141073Y1520000D01*
X16091553Y1434228D01*
X16061736Y1303593D01*
X16071749Y1169972D01*
X16120703Y1045240D01*
X16140831Y1020000D01*
X15548001Y1020000D01*
X15548000Y1019999D01*
X15548000Y488300D01*
X14932500Y488300D01*
X14932500Y2051748D01*
X14920867Y2110231D01*
X14876552Y2176552D01*
X14824302Y2211465D01*
X14810233Y2220866D01*
X14810231Y2220867D01*
X14810228Y2220868D01*
X14810227Y2220868D01*
X14751758Y2232499D01*
X14751748Y2232500D01*
X14751747Y2232500D01*
X14541146Y2232500D01*
X14482955Y2251407D01*
X14451093Y2290373D01*
X14433430Y2329049D01*
X14432077Y2332315D01*
X14426093Y2348359D01*
X14413796Y2381331D01*
X14409291Y2387349D01*
X14398495Y2405546D01*
X14395377Y2412373D01*
X14395375Y2412375D01*
X14395375Y2412376D01*
X14361124Y2451903D01*
X14358906Y2454655D01*
X14349222Y2467591D01*
X14349221Y2467593D01*
X14337796Y2479018D01*
X14335387Y2481606D01*
X14301129Y2521143D01*
X14301127Y2521144D01*
X14294810Y2525204D01*
X14278332Y2538482D01*
X12952480Y3864334D01*
X12939199Y3880817D01*
X12935144Y3887127D01*
X12906546Y3911907D01*
X12895603Y3921390D01*
X12893026Y3923789D01*
X12881595Y3935219D01*
X12881593Y3935221D01*
X12868636Y3944920D01*
X12865917Y3947112D01*
X12826373Y3981377D01*
X12819538Y3984499D01*
X12801348Y3995292D01*
X12800293Y3996082D01*
X12795331Y3999796D01*
X12795328Y3999797D01*
X12795327Y3999798D01*
X12746314Y4018079D01*
X12743049Y4019431D01*
X12695458Y4041165D01*
X12695454Y4041166D01*
X12688014Y4042236D01*
X12667520Y4047467D01*
X12660482Y4050092D01*
X12660483Y4050092D01*
X12608301Y4053824D01*
X12604788Y4054202D01*
X12588800Y4056500D01*
X12588799Y4056500D01*
X12572652Y4056500D01*
X12569119Y4056626D01*
X12539240Y4058763D01*
X12516927Y4060359D01*
X12516926Y4060359D01*
X12516925Y4060359D01*
X12509590Y4058763D01*
X12488544Y4056500D01*
X9646322Y4056500D01*
X9588131Y4075407D01*
X9576318Y4085496D01*
X6879480Y6782334D01*
X6866199Y6798817D01*
X6862144Y6805127D01*
X6862143Y6805128D01*
X6822603Y6839390D01*
X6820026Y6841789D01*
X6808595Y6853219D01*
X6808593Y6853221D01*
X6795636Y6862920D01*
X6792917Y6865112D01*
X6753373Y6899377D01*
X6746538Y6902499D01*
X6728348Y6913292D01*
X6727293Y6914082D01*
X6722331Y6917796D01*
X6722328Y6917797D01*
X6722327Y6917798D01*
X6673314Y6936079D01*
X6670049Y6937431D01*
X6622458Y6959165D01*
X6622454Y6959166D01*
X6615014Y6960236D01*
X6594520Y6965467D01*
X6587482Y6968092D01*
X6587483Y6968092D01*
X6535301Y6971824D01*
X6531788Y6972202D01*
X6515800Y6974500D01*
X6515799Y6974500D01*
X6499652Y6974500D01*
X6496119Y6974626D01*
X6466240Y6976763D01*
X6443927Y6978359D01*
X6443926Y6978359D01*
X6443925Y6978359D01*
X6436590Y6976763D01*
X6415544Y6974500D01*
X3955206Y6974500D01*
X3917320Y6982036D01*
X3791762Y7034044D01*
X3791759Y7034045D01*
X3791758Y7034045D01*
X3635001Y7054682D01*
X3634999Y7054682D01*
X3478241Y7034045D01*
X3478238Y7034045D01*
X3478238Y7034044D01*
X3367284Y6988085D01*
X3352680Y6982036D01*
X3314794Y6974500D01*
X2819500Y6974500D01*
X2761309Y6993407D01*
X2725345Y7042907D01*
X2720500Y7073500D01*
X2720500Y7689273D01*
X2720499Y7689275D01*
X2718212Y7713661D01*
X2717646Y7719699D01*
X2672793Y7847882D01*
X2649828Y7878998D01*
X2592154Y7957145D01*
X2592152Y7957147D01*
X2592150Y7957150D01*
X2592146Y7957153D01*
X2592144Y7957155D01*
X2482883Y8037793D01*
X2354703Y8082645D01*
X2354694Y8082647D01*
X2324274Y8085500D01*
X2324266Y8085500D01*
X547322Y8085500D01*
X489131Y8104407D01*
X477318Y8114496D01*
X-105505Y8697318D01*
X-133282Y8751835D01*
X-134501Y8767322D01*
X-134500Y9416000D01*
X-115593Y9474191D01*
X-66093Y9510155D01*
X-35500Y9515000D01*
X83247Y9515000D01*
X83248Y9515000D01*
X141731Y9526633D01*
X208052Y9570948D01*
X252367Y9637269D01*
X264000Y9695752D01*
X264000Y10624248D01*
X252367Y10682731D01*
X208052Y10749052D01*
X208048Y10749055D01*
X141733Y10793366D01*
X141731Y10793367D01*
X141728Y10793368D01*
X141727Y10793368D01*
X83258Y10804999D01*
X83248Y10805000D01*
X-1353248Y10805000D01*
X-1353249Y10805000D01*
X-1353259Y10804999D01*
X-1411728Y10793368D01*
X-1411734Y10793366D01*
X-1478049Y10749055D01*
X-1478053Y10749051D01*
X-1507823Y10704497D01*
X-1555874Y10666619D01*
X-1590138Y10660500D01*
X-2219862Y10660500D01*
X-2278053Y10679407D01*
X-2302177Y10704497D01*
X-2327263Y10742040D01*
X-2331948Y10749052D01*
X-2331952Y10749055D01*
X-2398267Y10793366D01*
X-2398269Y10793367D01*
X-2398272Y10793368D01*
X-2398273Y10793368D01*
X-2456742Y10804999D01*
X-2456752Y10805000D01*
X-3893248Y10805000D01*
X-3893249Y10805000D01*
X-3893259Y10804999D01*
X-3951728Y10793368D01*
X-3951734Y10793366D01*
X-4018049Y10749055D01*
X-4018055Y10749049D01*
X-4062366Y10682734D01*
X-4062368Y10682728D01*
X-4073999Y10624259D01*
X-4074000Y10624247D01*
X-4074000Y9695754D01*
X-4625500Y9695754D01*
X-4625500Y11600800D01*
X-4073500Y11600800D01*
X-4061897Y11542464D01*
X-4017694Y11476311D01*
X-4017690Y11476307D01*
X-3951537Y11432104D01*
X-3893201Y11420501D01*
X-3893197Y11420500D01*
X-3425001Y11420500D01*
X-3425000Y11420501D01*
X-2925000Y11420501D01*
X-2924999Y11420500D01*
X-2456803Y11420500D01*
X-2456800Y11420501D01*
X-2398464Y11432104D01*
X-2332311Y11476307D01*
X-2332307Y11476311D01*
X-2288104Y11542464D01*
X-2276510Y11600754D01*
X-1534000Y11600754D01*
X-1533999Y11600742D01*
X-1522368Y11542273D01*
X-1522366Y11542267D01*
X-1492949Y11498242D01*
X-1478052Y11475948D01*
X-1411731Y11431633D01*
X-1375891Y11424504D01*
X-1353259Y11420002D01*
X-1353254Y11420002D01*
X-1353248Y11420000D01*
X-1353247Y11420000D01*
X83247Y11420000D01*
X83248Y11420000D01*
X141731Y11431633D01*
X208052Y11475948D01*
X237823Y11520504D01*
X285874Y11558381D01*
X320138Y11564500D01*
X565500Y11564500D01*
X623691Y11545593D01*
X659655Y11496093D01*
X664500Y11465500D01*
X664500Y9710254D01*
X664501Y9710242D01*
X676132Y9651773D01*
X676134Y9651767D01*
X720445Y9585452D01*
X720448Y9585448D01*
X786769Y9541133D01*
X831231Y9532289D01*
X845241Y9529502D01*
X845246Y9529502D01*
X845252Y9529500D01*
X845253Y9529500D01*
X2784747Y9529500D01*
X2784748Y9529500D01*
X2843231Y9541133D01*
X2909552Y9585448D01*
X2953867Y9651769D01*
X2965500Y9710252D01*
X2965500Y13149748D01*
X2953867Y13208231D01*
X2909552Y13274552D01*
X2883663Y13291851D01*
X2843233Y13318866D01*
X2843231Y13318867D01*
X2843228Y13318868D01*
X2843227Y13318868D01*
X2784758Y13330499D01*
X2784748Y13330500D01*
X845252Y13330500D01*
X845251Y13330500D01*
X845241Y13330499D01*
X786772Y13318868D01*
X786766Y13318866D01*
X720451Y13274555D01*
X720445Y13274549D01*
X676134Y13208234D01*
X676132Y13208228D01*
X664501Y13149759D01*
X664500Y13149747D01*
X664500Y12664500D01*
X645593Y12606309D01*
X596093Y12570345D01*
X565500Y12565500D01*
X320138Y12565500D01*
X261947Y12584407D01*
X237823Y12609497D01*
X219389Y12637085D01*
X208052Y12654052D01*
X208048Y12654055D01*
X141733Y12698366D01*
X141731Y12698367D01*
X141728Y12698368D01*
X141727Y12698368D01*
X83258Y12709999D01*
X83248Y12710000D01*
X83247Y12710000D01*
X-35500Y12710000D01*
X-93691Y12728907D01*
X-129655Y12778407D01*
X-134500Y12809000D01*
X-134500Y13215802D01*
X-134500Y13649867D01*
X-115594Y13708054D01*
X-90508Y13732175D01*
X-45948Y13761948D01*
X-1633Y13828269D01*
X10000Y13886752D01*
X10000Y15323248D01*
X-1633Y15381731D01*
X-45948Y15448052D01*
X-56352Y15455004D01*
X-84776Y15473997D01*
X1129659Y15473997D01*
X1148974Y15277874D01*
X1148975Y15277871D01*
X1162370Y15233715D01*
X1198138Y15115802D01*
X1206187Y15089270D01*
X1206188Y15089268D01*
X1266702Y14976055D01*
X1299090Y14915462D01*
X1299092Y14915460D01*
X1299093Y14915458D01*
X1424112Y14763122D01*
X1424121Y14763113D01*
X1522050Y14682745D01*
X1576462Y14638090D01*
X1750273Y14545186D01*
X1938868Y14487976D01*
X1938870Y14487976D01*
X1938873Y14487975D01*
X2134997Y14468659D01*
X2135000Y14468659D01*
X2135003Y14468659D01*
X2331126Y14487975D01*
X2331127Y14487976D01*
X2331132Y14487976D01*
X2519727Y14545186D01*
X2693538Y14638090D01*
X2845883Y14763117D01*
X2970910Y14915462D01*
X3063814Y15089273D01*
X3121024Y15277868D01*
X3121369Y15281363D01*
X3140341Y15473997D01*
X3140341Y15474004D01*
X3121025Y15670127D01*
X3121024Y15670130D01*
X3121024Y15670132D01*
X3063814Y15858727D01*
X2970910Y16032538D01*
X2970531Y16033000D01*
X3749019Y16033000D01*
X3768917Y15754783D01*
X3828210Y15482214D01*
X3925687Y15220872D01*
X3925691Y15220863D01*
X4059361Y14976062D01*
X4059366Y14976055D01*
X4159601Y14842157D01*
X4722542Y15405099D01*
X4770327Y15327923D01*
X4915782Y15168366D01*
X5073679Y15049128D01*
X4513155Y14488603D01*
X4647054Y14388367D01*
X4647061Y14388362D01*
X4891862Y14254692D01*
X4891871Y14254688D01*
X5153213Y14157211D01*
X5425782Y14097918D01*
X5703999Y14078020D01*
X5982217Y14097918D01*
X6254786Y14157211D01*
X6516128Y14254688D01*
X6516137Y14254692D01*
X6760932Y14388359D01*
X6894843Y14488603D01*
X6334319Y15049127D01*
X6492218Y15168366D01*
X6637673Y15327923D01*
X6685457Y15405097D01*
X7248397Y14842157D01*
X7348641Y14976068D01*
X7482308Y15220863D01*
X7482312Y15220872D01*
X7579789Y15482214D01*
X7639082Y15754783D01*
X7658980Y16033001D01*
X7639082Y16311218D01*
X7579789Y16583787D01*
X7482312Y16845129D01*
X7482308Y16845138D01*
X7348638Y17089939D01*
X7348633Y17089946D01*
X7248397Y17223845D01*
X6685456Y16660905D01*
X6637673Y16738077D01*
X6492218Y16897634D01*
X6334317Y17016874D01*
X6894843Y17577399D01*
X6760945Y17677634D01*
X6760938Y17677639D01*
X6516137Y17811309D01*
X6516128Y17811313D01*
X6254786Y17908790D01*
X5982217Y17968083D01*
X5703999Y17987981D01*
X5425782Y17968083D01*
X5153213Y17908790D01*
X4891871Y17811313D01*
X4891862Y17811309D01*
X4647062Y17677640D01*
X4513156Y17577398D01*
X5073680Y17016874D01*
X4915782Y16897634D01*
X4770327Y16738077D01*
X4722542Y16660904D01*
X4159602Y17223844D01*
X4059360Y17089938D01*
X3925691Y16845138D01*
X3925687Y16845129D01*
X3828210Y16583787D01*
X3768917Y16311218D01*
X3749019Y16033000D01*
X2970531Y16033000D01*
X2970530Y16033001D01*
X2845887Y16184879D01*
X2845878Y16184888D01*
X2693542Y16309907D01*
X2693540Y16309908D01*
X2693538Y16309910D01*
X2612470Y16353242D01*
X2519732Y16402812D01*
X2519730Y16402813D01*
X2331129Y16460025D01*
X2331126Y16460026D01*
X2135003Y16479341D01*
X2134997Y16479341D01*
X1938873Y16460026D01*
X1938870Y16460025D01*
X1750269Y16402813D01*
X1750267Y16402812D01*
X1576467Y16309913D01*
X1576457Y16309907D01*
X1424121Y16184888D01*
X1424112Y16184879D01*
X1299093Y16032543D01*
X1299087Y16032533D01*
X1206188Y15858733D01*
X1206187Y15858731D01*
X1148975Y15670130D01*
X1148974Y15670127D01*
X1129659Y15474004D01*
X1129659Y15473997D01*
X-84776Y15473997D01*
X-112267Y15492366D01*
X-112269Y15492367D01*
X-112272Y15492368D01*
X-112273Y15492368D01*
X-170742Y15503999D01*
X-170752Y15504000D01*
X-1099248Y15504000D01*
X-1099249Y15504000D01*
X-1099259Y15503999D01*
X-1157728Y15492368D01*
X-1157734Y15492366D01*
X-1224049Y15448055D01*
X-1224055Y15448049D01*
X-1268366Y15381734D01*
X-1268368Y15381728D01*
X-1279999Y15323259D01*
X-1280000Y15323247D01*
X-1280000Y13886754D01*
X-1279999Y13886742D01*
X-1268368Y13828273D01*
X-1268366Y13828267D01*
X-1230209Y13771162D01*
X-1224052Y13761948D01*
X-1179498Y13732177D01*
X-1141619Y13684129D01*
X-1135500Y13649863D01*
X-1135500Y12809000D01*
X-1154407Y12750809D01*
X-1203907Y12714845D01*
X-1234500Y12710000D01*
X-1353248Y12710000D01*
X-1353249Y12710000D01*
X-1353259Y12709999D01*
X-1411728Y12698368D01*
X-1411734Y12698366D01*
X-1478049Y12654055D01*
X-1478055Y12654049D01*
X-1522366Y12587734D01*
X-1522368Y12587728D01*
X-1533999Y12529259D01*
X-1534000Y12529247D01*
X-1534000Y11600754D01*
X-2276510Y11600754D01*
X-2276501Y11600800D01*
X-2276500Y11600803D01*
X-2276500Y11815000D01*
X-2924999Y11815000D01*
X-2925000Y11814999D01*
X-2925000Y11420501D01*
X-3425000Y11420501D01*
X-3425000Y11814999D01*
X-3425001Y11815000D01*
X-4073499Y11815000D01*
X-4073500Y11814999D01*
X-4073500Y11600800D01*
X-4625500Y11600800D01*
X-4625500Y12315001D01*
X-4073500Y12315001D01*
X-4073499Y12315000D01*
X-3425001Y12315000D01*
X-3425000Y12315001D01*
X-2925000Y12315001D01*
X-2924999Y12315000D01*
X-2276501Y12315000D01*
X-2276500Y12315001D01*
X-2276500Y12529198D01*
X-2276501Y12529201D01*
X-2288104Y12587537D01*
X-2332307Y12653690D01*
X-2332311Y12653694D01*
X-2398464Y12697897D01*
X-2456800Y12709500D01*
X-2924999Y12709500D01*
X-2925000Y12709499D01*
X-2925000Y12315001D01*
X-3425000Y12315001D01*
X-3425000Y12709499D01*
X-3425001Y12709500D01*
X-3893201Y12709500D01*
X-3951537Y12697897D01*
X-4017690Y12653694D01*
X-4017694Y12653690D01*
X-4061897Y12587537D01*
X-4073500Y12529201D01*
X-4073500Y12315001D01*
X-4625500Y12315001D01*
X-4625500Y14355000D01*
X-3184500Y14355000D01*
X-3184500Y13886800D01*
X-3172897Y13828464D01*
X-3128694Y13762311D01*
X-3128690Y13762307D01*
X-3062537Y13718104D01*
X-3004201Y13706501D01*
X-3004197Y13706500D01*
X-2790001Y13706500D01*
X-2790000Y13706501D01*
X-2790000Y14354999D01*
X-2790001Y14355000D01*
X-2290000Y14355000D01*
X-2290000Y13706501D01*
X-2289999Y13706500D01*
X-2075803Y13706500D01*
X-2075800Y13706501D01*
X-2017464Y13718104D01*
X-1951311Y13762307D01*
X-1951307Y13762311D01*
X-1907104Y13828464D01*
X-1895501Y13886800D01*
X-1895500Y13886803D01*
X-1895500Y14354999D01*
X-1895501Y14355000D01*
X-2290000Y14355000D01*
X-2790001Y14355000D01*
X-3184500Y14355000D01*
X-4625500Y14355000D01*
X-4625500Y14855001D01*
X-3184500Y14855001D01*
X-3184499Y14855000D01*
X-2790001Y14855000D01*
X-2790000Y14855001D01*
X-2290000Y14855001D01*
X-2289999Y14855000D01*
X-1895501Y14855000D01*
X-1895500Y14855002D01*
X-1895500Y15323198D01*
X-1895501Y15323201D01*
X-1907104Y15381537D01*
X-1951307Y15447690D01*
X-1951311Y15447694D01*
X-2017464Y15491897D01*
X-2075800Y15503500D01*
X-2289999Y15503500D01*
X-2290000Y15503499D01*
X-2290000Y14855001D01*
X-2790000Y14855001D01*
X-2790000Y15503499D01*
X-2790001Y15503500D01*
X-3004201Y15503500D01*
X-3062537Y15491897D01*
X-3128690Y15447694D01*
X-3128694Y15447690D01*
X-3172897Y15381537D01*
X-3184500Y15323201D01*
X-3184500Y14855001D01*
X-4625500Y14855001D01*
X-4625500Y19729881D01*
X3519500Y19729881D01*
X3534008Y19638283D01*
X3589478Y19529414D01*
X3590261Y19527879D01*
X3677879Y19440261D01*
X3788283Y19384008D01*
X3852260Y19373875D01*
X3879880Y19369500D01*
X3879882Y19369500D01*
X4138166Y19369500D01*
X4196357Y19350593D01*
X4208170Y19340504D01*
X5093268Y18455404D01*
X5096187Y18452218D01*
X5122545Y18420806D01*
X5158074Y18400293D01*
X5161709Y18397978D01*
X5195316Y18374446D01*
X5196767Y18374058D01*
X5220659Y18364160D01*
X5221954Y18363412D01*
X5230854Y18361843D01*
X5262365Y18356287D01*
X5266544Y18355362D01*
X5306193Y18344737D01*
X5347065Y18348313D01*
X5351365Y18348500D01*
X8159166Y18348500D01*
X8217357Y18329593D01*
X8229170Y18319504D01*
X8706551Y17842123D01*
X8734328Y17787606D01*
X8724757Y17727174D01*
X8710504Y17707556D01*
X8710668Y17707430D01*
X8610462Y17576840D01*
X8610462Y17576839D01*
X8549957Y17430767D01*
X8549955Y17430759D01*
X8529318Y17274001D01*
X8529318Y17274000D01*
X8549955Y17117242D01*
X8549957Y17117234D01*
X8610462Y16971162D01*
X8610462Y16971161D01*
X8704241Y16848946D01*
X8706718Y16845718D01*
X8706722Y16845715D01*
X8706723Y16845714D01*
X8734619Y16824309D01*
X8832159Y16749464D01*
X8832160Y16749464D01*
X8832161Y16749463D01*
X8973149Y16691064D01*
X8978238Y16688956D01*
X9095809Y16673478D01*
X9134999Y16668318D01*
X9135000Y16668318D01*
X9135001Y16668318D01*
X9166352Y16672446D01*
X9291762Y16688956D01*
X9435960Y16748686D01*
X9496956Y16753486D01*
X9549125Y16721517D01*
X9572540Y16664989D01*
X9571998Y16644299D01*
X9554318Y16510001D01*
X9554318Y16510000D01*
X9574955Y16353242D01*
X9574957Y16353234D01*
X9635462Y16207162D01*
X9635463Y16207160D01*
X9635464Y16207159D01*
X9671224Y16160555D01*
X9692845Y16132379D01*
X9713269Y16074704D01*
X9695892Y16016038D01*
X9647350Y15978791D01*
X9598985Y15976885D01*
X9598695Y15974678D01*
X9592262Y15975525D01*
X9535151Y15983044D01*
X9435501Y15996163D01*
X9435499Y15996163D01*
X9278741Y15975526D01*
X9278733Y15975524D01*
X9132661Y15915019D01*
X9132660Y15915019D01*
X9007223Y15818768D01*
X9007213Y15818758D01*
X8910962Y15693321D01*
X8910962Y15693320D01*
X8850457Y15547248D01*
X8850455Y15547240D01*
X8829818Y15390482D01*
X8829818Y15390481D01*
X8850455Y15233723D01*
X8850457Y15233715D01*
X8910962Y15087643D01*
X8910962Y15087642D01*
X9004074Y14966296D01*
X9007218Y14962199D01*
X9007222Y14962196D01*
X9007223Y14962195D01*
X9020358Y14952116D01*
X9132659Y14865945D01*
X9132660Y14865945D01*
X9132661Y14865944D01*
X9180586Y14846093D01*
X9278738Y14805437D01*
X9435500Y14784799D01*
X9450078Y14786719D01*
X9510235Y14775571D01*
X9552354Y14731190D01*
X9562000Y14688566D01*
X9562000Y14421740D01*
X9566863Y14388362D01*
X9571927Y14353605D01*
X9619879Y14255519D01*
X9623302Y14248517D01*
X9647317Y14224502D01*
X9675093Y14169987D01*
X9665522Y14109555D01*
X9622257Y14066290D01*
X9577312Y14055500D01*
X9552567Y14055500D01*
X9552566Y14055500D01*
X9552560Y14055499D01*
X9529624Y14048047D01*
X9514525Y14044422D01*
X9490701Y14040648D01*
X9490695Y14040646D01*
X9469196Y14029693D01*
X9454857Y14023754D01*
X9431914Y14016298D01*
X9431911Y14016296D01*
X9412392Y14002116D01*
X9399156Y13994005D01*
X9377658Y13983050D01*
X9355094Y13960487D01*
X9355092Y13960485D01*
X9355090Y13960485D01*
X9355091Y13960484D01*
X8108515Y12713908D01*
X8085950Y12691342D01*
X8085948Y12691340D01*
X8074997Y12669849D01*
X8066887Y12656615D01*
X8052706Y12637094D01*
X8052701Y12637085D01*
X8045249Y12614148D01*
X8039305Y12599798D01*
X8028355Y12578309D01*
X8028352Y12578299D01*
X8024577Y12554471D01*
X8020953Y12539376D01*
X8013501Y12516438D01*
X8013500Y12516431D01*
X8013500Y12299417D01*
X7994593Y12241226D01*
X7961169Y12212107D01*
X7827547Y12140684D01*
X7667595Y12009415D01*
X7667585Y12009405D01*
X7536316Y11849453D01*
X7438768Y11666955D01*
X7378699Y11468935D01*
X7378698Y11468930D01*
X7358417Y11263004D01*
X7358417Y11262997D01*
X7378698Y11057071D01*
X7378699Y11057066D01*
X7438768Y10859046D01*
X7536316Y10676548D01*
X7667585Y10516596D01*
X7667590Y10516590D01*
X7667595Y10516586D01*
X7827547Y10385317D01*
X7827548Y10385317D01*
X7827550Y10385315D01*
X8010046Y10287768D01*
X8147996Y10245922D01*
X8208065Y10227700D01*
X8208070Y10227699D01*
X8413997Y10207417D01*
X8414000Y10207417D01*
X8414003Y10207417D01*
X8619929Y10227699D01*
X8619934Y10227700D01*
X8619934Y10227701D01*
X8817954Y10287768D01*
X9000450Y10385315D01*
X9160410Y10516590D01*
X9291685Y10676550D01*
X9326690Y10742041D01*
X9370796Y10784446D01*
X9431404Y10792829D01*
X9485365Y10763986D01*
X9501310Y10742040D01*
X9536316Y10676548D01*
X9667585Y10516596D01*
X9667590Y10516590D01*
X9667595Y10516586D01*
X9827547Y10385317D01*
X9827548Y10385317D01*
X9827550Y10385315D01*
X10010046Y10287768D01*
X10147996Y10245922D01*
X10208065Y10227700D01*
X10208070Y10227699D01*
X10413997Y10207417D01*
X10414000Y10207417D01*
X10414003Y10207417D01*
X10619929Y10227699D01*
X10619934Y10227700D01*
X10619934Y10227701D01*
X10817954Y10287768D01*
X11000450Y10385315D01*
X11160410Y10516590D01*
X11258972Y10636690D01*
X11310503Y10669676D01*
X11371582Y10666074D01*
X11418879Y10627259D01*
X11434500Y10573884D01*
X11434500Y10390901D01*
X11415593Y10332710D01*
X11405504Y10320898D01*
X10927104Y9842497D01*
X10872587Y9814719D01*
X10857100Y9813500D01*
X9544252Y9813500D01*
X9544251Y9813500D01*
X9544241Y9813499D01*
X9485772Y9801868D01*
X9485766Y9801866D01*
X9419451Y9757555D01*
X9419445Y9757549D01*
X9375134Y9691234D01*
X9375132Y9691228D01*
X9363501Y9632759D01*
X9363500Y9632747D01*
X9363500Y9399955D01*
X9344593Y9341764D01*
X9334504Y9329951D01*
X8867779Y8863227D01*
X8867533Y8866516D01*
X8816872Y8995598D01*
X8730414Y9104013D01*
X8615841Y9182127D01*
X8511696Y9214252D01*
X8959469Y9662025D01*
X8817767Y9737766D01*
X8817762Y9737768D01*
X8619836Y9797809D01*
X8619830Y9797810D01*
X8414004Y9818081D01*
X8413996Y9818081D01*
X8208169Y9797810D01*
X8208163Y9797809D01*
X8010237Y9737768D01*
X8010232Y9737766D01*
X7868528Y9662025D01*
X8316980Y9213573D01*
X8276881Y9207529D01*
X8151946Y9147363D01*
X8050295Y9053045D01*
X7980961Y8932955D01*
X7964149Y8859298D01*
X7514975Y9308472D01*
X7439234Y9166768D01*
X7439232Y9166763D01*
X7379191Y8968837D01*
X7379190Y8968831D01*
X7358919Y8763005D01*
X7358919Y8762996D01*
X7379190Y8557170D01*
X7379192Y8557160D01*
X7381830Y8548464D01*
X7380626Y8487290D01*
X7343695Y8438508D01*
X7285144Y8420749D01*
X7227336Y8440798D01*
X7217088Y8449726D01*
X6306318Y9360496D01*
X6278541Y9415013D01*
X6288112Y9475445D01*
X6331377Y9518710D01*
X6376322Y9529500D01*
X6684747Y9529500D01*
X6684748Y9529500D01*
X6743231Y9541133D01*
X6809552Y9585448D01*
X6853867Y9651769D01*
X6865500Y9710252D01*
X6865500Y13149748D01*
X6853867Y13208231D01*
X6809552Y13274552D01*
X6783663Y13291851D01*
X6743233Y13318866D01*
X6743231Y13318867D01*
X6743228Y13318868D01*
X6743227Y13318868D01*
X6684758Y13330499D01*
X6684748Y13330500D01*
X4745252Y13330500D01*
X4745251Y13330500D01*
X4745241Y13330499D01*
X4686772Y13318868D01*
X4686766Y13318866D01*
X4620451Y13274555D01*
X4620445Y13274549D01*
X4576134Y13208234D01*
X4576132Y13208228D01*
X4564501Y13149759D01*
X4564500Y13149747D01*
X4564500Y9710254D01*
X4564501Y9710242D01*
X4576132Y9651773D01*
X4576134Y9651767D01*
X4620445Y9585452D01*
X4620448Y9585448D01*
X4686769Y9541133D01*
X4731231Y9532289D01*
X4745241Y9529502D01*
X4745246Y9529502D01*
X4745252Y9529500D01*
X5115500Y9529500D01*
X5173691Y9510593D01*
X5209655Y9461093D01*
X5214500Y9430500D01*
X5214500Y9308458D01*
X5212238Y9287415D01*
X5210641Y9280074D01*
X5214374Y9227882D01*
X5214500Y9224349D01*
X5214500Y9208201D01*
X5216798Y9192212D01*
X5217176Y9188699D01*
X5220908Y9136517D01*
X5223533Y9129480D01*
X5228764Y9108986D01*
X5229834Y9101546D01*
X5229835Y9101542D01*
X5251569Y9053951D01*
X5252921Y9050686D01*
X5271202Y9001673D01*
X5271203Y9001672D01*
X5271204Y9001669D01*
X5274918Y8996707D01*
X5275708Y8995652D01*
X5286501Y8977462D01*
X5289623Y8970627D01*
X5323888Y8931083D01*
X5326080Y8928364D01*
X5335779Y8915407D01*
X5335781Y8915405D01*
X5347211Y8903974D01*
X5349610Y8901397D01*
X5379835Y8866516D01*
X5383873Y8861856D01*
X5390183Y8857801D01*
X5406666Y8844520D01*
X7360518Y6890668D01*
X7373796Y6874190D01*
X7377856Y6867873D01*
X7377857Y6867871D01*
X7417394Y6833613D01*
X7419982Y6831204D01*
X7431407Y6819779D01*
X7444341Y6810097D01*
X7444345Y6810094D01*
X7447097Y6807876D01*
X7486624Y6773625D01*
X7486625Y6773625D01*
X7486627Y6773623D01*
X7493454Y6770505D01*
X7511651Y6759709D01*
X7517669Y6755204D01*
X7566697Y6736919D01*
X7569941Y6735575D01*
X7617543Y6713835D01*
X7624978Y6712767D01*
X7645484Y6707532D01*
X7652517Y6704909D01*
X7704729Y6701175D01*
X7708196Y6700802D01*
X7724201Y6698500D01*
X7740348Y6698500D01*
X7743881Y6698374D01*
X7748871Y6698018D01*
X7796073Y6694641D01*
X7802470Y6696033D01*
X7803410Y6696237D01*
X7824456Y6698500D01*
X8785544Y6698500D01*
X8806590Y6696237D01*
X8807830Y6695968D01*
X8813927Y6694641D01*
X8861412Y6698038D01*
X8866119Y6698374D01*
X8869652Y6698500D01*
X8885799Y6698500D01*
X8901799Y6700801D01*
X8905272Y6701176D01*
X8957483Y6704909D01*
X8964515Y6707533D01*
X8985022Y6712767D01*
X8992457Y6713835D01*
X9040049Y6735571D01*
X9043295Y6736916D01*
X9092331Y6755204D01*
X9098345Y6759706D01*
X9116549Y6770508D01*
X9123373Y6773623D01*
X9162917Y6807890D01*
X9165642Y6810086D01*
X9178593Y6819779D01*
X9190042Y6831230D01*
X9192579Y6833592D01*
X9232143Y6867872D01*
X9236203Y6874190D01*
X9249483Y6890670D01*
X10042319Y7683504D01*
X10096835Y7711281D01*
X10112322Y7712500D01*
X11283747Y7712500D01*
X11283748Y7712500D01*
X11342231Y7724133D01*
X11408552Y7768448D01*
X11452867Y7834769D01*
X11464500Y7893252D01*
X11464500Y9206100D01*
X11483407Y9264291D01*
X11493496Y9276104D01*
X11802844Y9585452D01*
X12140483Y9923091D01*
X12163050Y9945658D01*
X12174002Y9967157D01*
X12182115Y9980395D01*
X12196296Y9999910D01*
X12203751Y10022856D01*
X12209695Y10037205D01*
X12220646Y10058696D01*
X12224419Y10082527D01*
X12228048Y10097636D01*
X12233017Y10112930D01*
X12235499Y10120567D01*
X12235499Y10150437D01*
X12235500Y10150462D01*
X12235500Y10418208D01*
X12254407Y10476399D01*
X12303907Y10512363D01*
X12365093Y10512363D01*
X12394767Y10496750D01*
X12398717Y10493719D01*
X12398718Y10493718D01*
X12524159Y10397464D01*
X12524160Y10397464D01*
X12524161Y10397463D01*
X12670233Y10336958D01*
X12670238Y10336956D01*
X12787809Y10321478D01*
X12826999Y10316318D01*
X12827000Y10316318D01*
X12827001Y10316318D01*
X12861789Y10320898D01*
X12983762Y10336956D01*
X13129841Y10397464D01*
X13255282Y10493718D01*
X13310567Y10565768D01*
X13360991Y10600423D01*
X13389109Y10604500D01*
X16585822Y10604500D01*
X16644013Y10585593D01*
X16679977Y10536093D01*
X16679977Y10474907D01*
X16678851Y10471639D01*
X16675905Y10463548D01*
X16668782Y10423156D01*
X16667848Y10418941D01*
X16657231Y10379318D01*
X16657231Y10379312D01*
X16660807Y10338433D01*
X16660995Y10334132D01*
X16660995Y10214469D01*
X16642088Y10156278D01*
X16622263Y10135927D01*
X16558213Y10086780D01*
X16461957Y9961337D01*
X16461957Y9961336D01*
X16401452Y9815264D01*
X16401450Y9815257D01*
X16401245Y9813693D01*
X16400758Y9812674D01*
X16399772Y9808991D01*
X16399089Y9809174D01*
X16374903Y9758468D01*
X16321131Y9729274D01*
X16290170Y9728464D01*
X16129001Y9749682D01*
X16128999Y9749682D01*
X15972241Y9729045D01*
X15972233Y9729043D01*
X15826161Y9668538D01*
X15826160Y9668538D01*
X15700723Y9572287D01*
X15700713Y9572277D01*
X15604462Y9446840D01*
X15604462Y9446839D01*
X15543957Y9300767D01*
X15543955Y9300759D01*
X15523318Y9144001D01*
X15523318Y9144000D01*
X15543955Y8987242D01*
X15543957Y8987234D01*
X15604462Y8841162D01*
X15604462Y8841161D01*
X15704668Y8710569D01*
X15703283Y8709507D01*
X15727279Y8662431D01*
X15728500Y8646929D01*
X15728500Y7816563D01*
X15735953Y7793626D01*
X15739579Y7778526D01*
X15743354Y7754694D01*
X15754301Y7733212D01*
X15760247Y7718858D01*
X15767703Y7695912D01*
X15767702Y7695912D01*
X15781884Y7676392D01*
X15789997Y7663153D01*
X15800950Y7641658D01*
X15800951Y7641657D01*
X15821030Y7621577D01*
X15821031Y7621577D01*
X15823513Y7619095D01*
X15823516Y7619091D01*
X20255591Y3187016D01*
X20255594Y3187014D01*
X20255593Y3187014D01*
X20275514Y3167094D01*
X20278158Y3164450D01*
X20299647Y3153501D01*
X20312892Y3145385D01*
X20332410Y3131204D01*
X20355351Y3123751D01*
X20369701Y3117806D01*
X20391191Y3106856D01*
X20391193Y3106856D01*
X20391196Y3106854D01*
X20415017Y3103082D01*
X20430113Y3099458D01*
X20453067Y3092000D01*
X20484981Y3092000D01*
X21573599Y3092000D01*
X21631790Y3073093D01*
X21643603Y3063004D01*
X22032701Y2673906D01*
X22305104Y2401504D01*
X22332881Y2346987D01*
X22323310Y2286555D01*
X22280045Y2243290D01*
X22235100Y2232500D01*
X22078252Y2232500D01*
X22078251Y2232500D01*
X22078241Y2232499D01*
X22019772Y2220868D01*
X22019766Y2220866D01*
X21953451Y2176555D01*
X21953445Y2176549D01*
X21909134Y2110234D01*
X21909132Y2110228D01*
X21897501Y2051759D01*
X21897500Y2051747D01*
X21897500Y488254D01*
X21897501Y488242D01*
X21909094Y429964D01*
X21909133Y429769D01*
X21953448Y363448D01*
X22019769Y319133D01*
X22064231Y310289D01*
X22078241Y307502D01*
X22078246Y307502D01*
X22078252Y307500D01*
X22360500Y307500D01*
X22418691Y288593D01*
X22454655Y239093D01*
X22459500Y208500D01*
X22459500Y-208500D01*
X22440593Y-266691D01*
X22391093Y-302655D01*
X22360500Y-307500D01*
X22078252Y-307500D01*
X22078251Y-307500D01*
X22078241Y-307501D01*
X22019772Y-319132D01*
X22019766Y-319134D01*
X21953451Y-363445D01*
X21953445Y-363451D01*
X21909134Y-429766D01*
X21909132Y-429772D01*
X21897501Y-488241D01*
X21897500Y-488253D01*
X21897500Y-2051746D01*
X21897501Y-2051758D01*
X21909132Y-2110227D01*
X21909134Y-2110233D01*
X21943910Y-2162278D01*
X21953448Y-2176552D01*
X22019769Y-2220867D01*
X22061727Y-2229213D01*
X22078241Y-2232498D01*
X22078246Y-2232498D01*
X22078252Y-2232500D01*
X22078253Y-2232500D01*
X23641747Y-2232500D01*
X23641748Y-2232500D01*
X23700231Y-2220867D01*
X23766552Y-2176552D01*
X23810867Y-2110231D01*
X23822500Y-2051748D01*
X23822500Y-2051700D01*
X24438000Y-2051700D01*
X24449603Y-2110036D01*
X24493806Y-2176189D01*
X24493810Y-2176193D01*
X24559963Y-2220396D01*
X24618299Y-2231999D01*
X24618303Y-2232000D01*
X25149999Y-2232000D01*
X25150000Y-2231999D01*
X25150000Y-1637532D01*
X25204960Y-1675004D01*
X25333002Y-1714500D01*
X25433312Y-1714500D01*
X25532499Y-1699550D01*
X25650000Y-1642964D01*
X25650000Y-2231999D01*
X25650001Y-2232000D01*
X26181697Y-2232000D01*
X26181700Y-2231999D01*
X26240036Y-2220396D01*
X26306189Y-2176193D01*
X26306193Y-2176189D01*
X26350396Y-2110036D01*
X26361999Y-2051700D01*
X26362000Y-2051697D01*
X26362000Y-1520001D01*
X26361999Y-1520000D01*
X25768927Y-1520000D01*
X25818447Y-1434228D01*
X25848264Y-1303593D01*
X25838251Y-1169972D01*
X25789297Y-1045240D01*
X25769169Y-1020000D01*
X26361999Y-1020000D01*
X26362000Y-1019999D01*
X26362000Y-488302D01*
X26361999Y-488299D01*
X26350396Y-429963D01*
X26306193Y-363810D01*
X26306189Y-363806D01*
X26240036Y-319603D01*
X26181700Y-308000D01*
X25650001Y-308000D01*
X25650000Y-308001D01*
X25650000Y-902467D01*
X25595040Y-864996D01*
X25466998Y-825500D01*
X25366688Y-825500D01*
X25267501Y-840450D01*
X25150000Y-897035D01*
X25150000Y-308001D01*
X25149999Y-308000D01*
X24618299Y-308000D01*
X24559963Y-319603D01*
X24493810Y-363806D01*
X24493806Y-363810D01*
X24449603Y-429963D01*
X24438000Y-488299D01*
X24438000Y-1019999D01*
X24438001Y-1020000D01*
X25031073Y-1020000D01*
X24981553Y-1105772D01*
X24951736Y-1236407D01*
X24961749Y-1370028D01*
X25010703Y-1494760D01*
X25030831Y-1520000D01*
X24438001Y-1520000D01*
X24438000Y-1520001D01*
X24438000Y-2051700D01*
X23822500Y-2051700D01*
X23822500Y-488252D01*
X23810867Y-429769D01*
X23766552Y-363448D01*
X23766548Y-363445D01*
X23700233Y-319134D01*
X23700231Y-319133D01*
X23700228Y-319132D01*
X23700227Y-319132D01*
X23641758Y-307501D01*
X23641748Y-307500D01*
X23641747Y-307500D01*
X23359500Y-307500D01*
X23301309Y-288593D01*
X23265345Y-239093D01*
X23260500Y-208500D01*
X23260500Y208500D01*
X23279407Y266691D01*
X23328907Y302655D01*
X23359500Y307500D01*
X23641747Y307500D01*
X23641748Y307500D01*
X23700231Y319133D01*
X23766552Y363448D01*
X23810867Y429769D01*
X23822500Y488252D01*
X23822500Y488300D01*
X24438000Y488300D01*
X24449603Y429964D01*
X24493806Y363811D01*
X24493810Y363807D01*
X24559963Y319604D01*
X24618299Y308001D01*
X24618303Y308000D01*
X25149999Y308000D01*
X25150000Y308002D01*
X25150000Y902468D01*
X25204960Y864996D01*
X25333002Y825500D01*
X25433312Y825500D01*
X25532499Y840450D01*
X25650000Y897036D01*
X25650000Y308001D01*
X25650001Y308000D01*
X26181697Y308000D01*
X26181700Y308001D01*
X26240036Y319604D01*
X26306189Y363807D01*
X26306193Y363811D01*
X26350396Y429964D01*
X26361999Y488300D01*
X26362000Y488303D01*
X26362000Y1019999D01*
X26361999Y1020000D01*
X25768927Y1020000D01*
X25818447Y1105772D01*
X25848264Y1236407D01*
X25838251Y1370028D01*
X25789297Y1494760D01*
X25769169Y1520000D01*
X26361999Y1520000D01*
X26362000Y1520001D01*
X26362000Y2051698D01*
X26361999Y2051701D01*
X26350396Y2110037D01*
X26306193Y2176190D01*
X26306189Y2176194D01*
X26240036Y2220397D01*
X26181700Y2232000D01*
X25650000Y2232000D01*
X25650000Y1637533D01*
X25595040Y1675004D01*
X25466998Y1714500D01*
X25366688Y1714500D01*
X25267501Y1699550D01*
X25150000Y1642965D01*
X25150000Y2231999D01*
X25149999Y2232000D01*
X24618299Y2232000D01*
X24559963Y2220397D01*
X24493810Y2176194D01*
X24493806Y2176190D01*
X24449603Y2110037D01*
X24438000Y2051701D01*
X24438000Y1520001D01*
X24438001Y1520000D01*
X25031073Y1520000D01*
X24981553Y1434228D01*
X24951736Y1303593D01*
X24961749Y1169972D01*
X25010703Y1045240D01*
X25030831Y1020000D01*
X24438001Y1020000D01*
X24438000Y1019999D01*
X24438000Y488300D01*
X23822500Y488300D01*
X23822500Y2051748D01*
X23810867Y2110231D01*
X23766552Y2176552D01*
X23714302Y2211465D01*
X23700233Y2220866D01*
X23700231Y2220867D01*
X23700228Y2220868D01*
X23700227Y2220868D01*
X23641758Y2232499D01*
X23641748Y2232500D01*
X23641747Y2232500D01*
X23359500Y2232500D01*
X23301309Y2251407D01*
X23265345Y2300907D01*
X23260500Y2331500D01*
X23260500Y2476430D01*
X23260500Y2476433D01*
X23253040Y2499392D01*
X23249421Y2514466D01*
X23245646Y2538304D01*
X23234694Y2559797D01*
X23228752Y2574143D01*
X23221297Y2597089D01*
X23207111Y2616614D01*
X23198998Y2629854D01*
X23188049Y2651343D01*
X23165486Y2673907D01*
X23165486Y2673906D01*
X23165484Y2673909D01*
X22041409Y3797984D01*
X22041405Y3797987D01*
X22038923Y3800469D01*
X22038923Y3800470D01*
X22018843Y3820549D01*
X22018842Y3820550D01*
X21997347Y3831503D01*
X21984108Y3839616D01*
X21976916Y3844841D01*
X21964590Y3853796D01*
X21964588Y3853797D01*
X21941642Y3861253D01*
X21927288Y3867199D01*
X21905806Y3878146D01*
X21881974Y3881921D01*
X21866874Y3885547D01*
X21843937Y3893000D01*
X21843933Y3893000D01*
X21812019Y3893000D01*
X20723401Y3893000D01*
X20665210Y3911907D01*
X20653397Y3921996D01*
X16558496Y8016897D01*
X16530719Y8071414D01*
X16529500Y8086901D01*
X16529500Y8646929D01*
X16548407Y8705120D01*
X16555715Y8713676D01*
X16557282Y8715718D01*
X16653536Y8841159D01*
X16714044Y8987238D01*
X16714249Y8988797D01*
X16714732Y8989812D01*
X16715723Y8993506D01*
X16716407Y8993323D01*
X16740582Y9044020D01*
X16794349Y9073221D01*
X16825324Y9074034D01*
X16829731Y9073454D01*
X16829733Y9073453D01*
X16986495Y9052815D01*
X16986496Y9052815D01*
X17017847Y9056943D01*
X17143257Y9073453D01*
X17289336Y9133961D01*
X17414777Y9230215D01*
X17511031Y9355656D01*
X17571539Y9501735D01*
X17592177Y9658497D01*
X17571539Y9815259D01*
X17560257Y9842497D01*
X17508548Y9967334D01*
X17511438Y9968532D01*
X17501399Y10015910D01*
X17526320Y10071790D01*
X17579328Y10102350D01*
X17599850Y10104500D01*
X17783950Y10104500D01*
X17783962Y10104501D01*
X18123398Y10104501D01*
X18123400Y10104501D01*
X18165777Y10112930D01*
X18226538Y10105738D01*
X18267406Y10070833D01*
X18290807Y10035810D01*
X18290811Y10035806D01*
X18325832Y10012405D01*
X18363711Y9964354D01*
X18367928Y9910777D01*
X18359500Y9868407D01*
X18359500Y8927706D01*
X18340593Y8869515D01*
X18330504Y8857702D01*
X18069596Y8596794D01*
X18015079Y8569017D01*
X17986670Y8568645D01*
X17906631Y8579182D01*
X17906629Y8579182D01*
X17749871Y8558545D01*
X17749863Y8558543D01*
X17603791Y8498038D01*
X17603790Y8498038D01*
X17478353Y8401787D01*
X17478343Y8401777D01*
X17382092Y8276340D01*
X17382092Y8276339D01*
X17321587Y8130267D01*
X17321585Y8130259D01*
X17300948Y7973501D01*
X17300948Y7973500D01*
X17321585Y7816742D01*
X17321587Y7816734D01*
X17382092Y7670662D01*
X17382092Y7670661D01*
X17476296Y7547892D01*
X17478348Y7545218D01*
X17603789Y7448964D01*
X17603790Y7448964D01*
X17603791Y7448963D01*
X17743412Y7391130D01*
X17749868Y7388456D01*
X17867439Y7372978D01*
X17906629Y7367818D01*
X17906630Y7367818D01*
X17906631Y7367818D01*
X17937982Y7371946D01*
X18063392Y7388456D01*
X18160376Y7428629D01*
X18221371Y7433429D01*
X18273540Y7401460D01*
X18289724Y7375050D01*
X18339993Y7253691D01*
X18343572Y7245051D01*
X18439826Y7119610D01*
X18565267Y7023356D01*
X18565268Y7023356D01*
X18565269Y7023355D01*
X18688763Y6972202D01*
X18711346Y6962848D01*
X18828917Y6947370D01*
X18868107Y6942210D01*
X18868108Y6942210D01*
X18868109Y6942210D01*
X18899460Y6946338D01*
X19024870Y6962848D01*
X19170949Y7023356D01*
X19210502Y7053707D01*
X19268175Y7074129D01*
X19326841Y7056752D01*
X19364088Y7008210D01*
X19368920Y6988085D01*
X19374955Y6942242D01*
X19374957Y6942234D01*
X19435462Y6796162D01*
X19435462Y6796161D01*
X19531116Y6671502D01*
X19531718Y6670718D01*
X19657159Y6574464D01*
X19803238Y6513956D01*
X19920809Y6498478D01*
X19959999Y6493318D01*
X19960000Y6493318D01*
X19960001Y6493318D01*
X19991352Y6497446D01*
X20116762Y6513956D01*
X20262841Y6574464D01*
X20388282Y6670718D01*
X20484536Y6796159D01*
X20545044Y6942238D01*
X20565682Y7099000D01*
X20545044Y7255762D01*
X20536830Y7275593D01*
X20518036Y7320967D01*
X20510500Y7358852D01*
X20510500Y8138576D01*
X20529407Y8196767D01*
X20578907Y8232731D01*
X20640093Y8232731D01*
X20679504Y8208579D01*
X20717892Y8170190D01*
X20745669Y8115673D01*
X20746041Y8087266D01*
X20735504Y8007225D01*
X20735504Y8007223D01*
X20756141Y7850465D01*
X20756143Y7850457D01*
X20816648Y7704385D01*
X20816648Y7704384D01*
X20891374Y7606999D01*
X20912904Y7578941D01*
X21038345Y7482687D01*
X21038346Y7482687D01*
X21038347Y7482686D01*
X21184419Y7422181D01*
X21184424Y7422179D01*
X21295930Y7407499D01*
X21341185Y7401541D01*
X21341186Y7401541D01*
X21341187Y7401541D01*
X21380099Y7406664D01*
X21497948Y7422179D01*
X21644027Y7482687D01*
X21769468Y7578941D01*
X21865722Y7704382D01*
X21926230Y7850461D01*
X21946868Y8007223D01*
X21926230Y8163985D01*
X21922102Y8173952D01*
X21865723Y8310062D01*
X21865723Y8310063D01*
X21769472Y8435500D01*
X21769471Y8435501D01*
X21769468Y8435505D01*
X21769463Y8435509D01*
X21769462Y8435510D01*
X21644024Y8531761D01*
X21497952Y8592266D01*
X21497944Y8592268D01*
X21341187Y8612905D01*
X21341184Y8612905D01*
X21261143Y8602368D01*
X21200983Y8613518D01*
X21178218Y8630518D01*
X21039496Y8769241D01*
X21011719Y8823757D01*
X21010500Y8839244D01*
X21010500Y9524298D01*
X21010499Y9524316D01*
X21010499Y9868398D01*
X21010499Y9868400D01*
X21002070Y9910778D01*
X21009262Y9971538D01*
X21044167Y10012406D01*
X21079190Y10035808D01*
X21079192Y10035810D01*
X21102594Y10070833D01*
X21150644Y10108713D01*
X21204224Y10112929D01*
X21246599Y10104500D01*
X21586037Y10104501D01*
X21586051Y10104500D01*
X21594025Y10104500D01*
X23417742Y10104500D01*
X23475933Y10085593D01*
X23511897Y10036093D01*
X23511897Y9974907D01*
X23475933Y9925407D01*
X23437057Y9908403D01*
X23416772Y9904368D01*
X23416766Y9904366D01*
X23350451Y9860055D01*
X23350445Y9860049D01*
X23306134Y9793734D01*
X23306132Y9793728D01*
X23294501Y9735259D01*
X23294500Y9735247D01*
X23294500Y8298754D01*
X23294501Y8298742D01*
X23306132Y8240273D01*
X23306134Y8240267D01*
X23350205Y8174311D01*
X23350448Y8173948D01*
X23416769Y8129633D01*
X23461231Y8120789D01*
X23475241Y8118002D01*
X23475246Y8118002D01*
X23475252Y8118000D01*
X23515000Y8118000D01*
X23573191Y8099093D01*
X23609155Y8049593D01*
X23614000Y8019000D01*
X23614000Y7501654D01*
X23595093Y7443463D01*
X23545593Y7407499D01*
X23542892Y7406664D01*
X23525766Y7401636D01*
X23394980Y7341908D01*
X23394967Y7341901D01*
X23346036Y7310455D01*
X23346023Y7310446D01*
X23237377Y7216304D01*
X23237360Y7216287D01*
X23199261Y7172319D01*
X23199255Y7172311D01*
X23121536Y7051376D01*
X23121532Y7051369D01*
X23097359Y6998436D01*
X23056853Y6860485D01*
X23056852Y6860480D01*
X23051001Y6819786D01*
X23048572Y6802889D01*
X23048572Y6231000D01*
X23064133Y6152769D01*
X23064134Y6152768D01*
X23064134Y6152767D01*
X23075336Y6136003D01*
X23091945Y6077115D01*
X23075338Y6026002D01*
X23064135Y6009236D01*
X23064134Y6009233D01*
X23064133Y6009231D01*
X23062335Y6000190D01*
X23048572Y5931001D01*
X23048572Y5359112D01*
X23056852Y5301521D01*
X23056853Y5301516D01*
X23097359Y5163565D01*
X23121532Y5110632D01*
X23121536Y5110625D01*
X23199255Y4989690D01*
X23199261Y4989682D01*
X23216465Y4969828D01*
X23237368Y4945705D01*
X23237375Y4945699D01*
X23237377Y4945697D01*
X23346023Y4851555D01*
X23346036Y4851546D01*
X23394967Y4820100D01*
X23394971Y4820098D01*
X23394977Y4820094D01*
X23525762Y4760366D01*
X23529747Y4759196D01*
X23531391Y4758713D01*
X23581898Y4724178D01*
X23602460Y4666551D01*
X23602500Y4663723D01*
X23602500Y4039071D01*
X23583593Y3980880D01*
X23576276Y3972313D01*
X23478462Y3844840D01*
X23478462Y3844839D01*
X23417957Y3698767D01*
X23417955Y3698759D01*
X23397318Y3542001D01*
X23397318Y3542000D01*
X23417955Y3385242D01*
X23417957Y3385234D01*
X23478462Y3239162D01*
X23478462Y3239161D01*
X23567531Y3123084D01*
X23574718Y3113718D01*
X23700159Y3017464D01*
X23846238Y2956956D01*
X23963809Y2941478D01*
X24002999Y2936318D01*
X24003000Y2936318D01*
X24003001Y2936318D01*
X24034352Y2940446D01*
X24159762Y2956956D01*
X24305841Y3017464D01*
X24431282Y3113718D01*
X24527536Y3239159D01*
X24588044Y3385238D01*
X24608682Y3542000D01*
X24588044Y3698762D01*
X24527537Y3844839D01*
X24527537Y3844840D01*
X24427332Y3975430D01*
X24428713Y3976491D01*
X24404719Y4023584D01*
X24403500Y4039071D01*
X24403500Y4663723D01*
X24422407Y4721914D01*
X24471907Y4757878D01*
X24474609Y4758713D01*
X24475747Y4759048D01*
X24480238Y4760366D01*
X24611023Y4820094D01*
X24659971Y4851551D01*
X24666992Y4857634D01*
X24750244Y4929772D01*
X24768632Y4945705D01*
X24793147Y4973997D01*
X25529659Y4973997D01*
X25548974Y4777874D01*
X25548975Y4777871D01*
X25606187Y4589270D01*
X25606188Y4589268D01*
X25658941Y4490575D01*
X25699090Y4415462D01*
X25699092Y4415460D01*
X25699093Y4415458D01*
X25824112Y4263122D01*
X25824121Y4263113D01*
X25915877Y4187811D01*
X25976462Y4138090D01*
X26093734Y4075407D01*
X26146005Y4047467D01*
X26150273Y4045186D01*
X26338868Y3987976D01*
X26338870Y3987976D01*
X26338873Y3987975D01*
X26534997Y3968659D01*
X26535000Y3968659D01*
X26535003Y3968659D01*
X26731126Y3987975D01*
X26731127Y3987976D01*
X26731132Y3987976D01*
X26919727Y4045186D01*
X27093538Y4138090D01*
X27245883Y4263117D01*
X27370910Y4415462D01*
X27463814Y4589273D01*
X27521024Y4777868D01*
X27525184Y4820100D01*
X27527538Y4843999D01*
X28232999Y4843999D01*
X28233000Y4312303D01*
X28233000Y4312300D01*
X28244603Y4253964D01*
X28288806Y4187811D01*
X28288810Y4187807D01*
X28354963Y4143604D01*
X28413299Y4132001D01*
X28413303Y4132000D01*
X28944999Y4132000D01*
X28945000Y4132001D01*
X28945000Y4726468D01*
X28999960Y4688996D01*
X29128002Y4649500D01*
X29228312Y4649500D01*
X29327499Y4664450D01*
X29445000Y4721036D01*
X29445000Y4132001D01*
X29445001Y4132000D01*
X29976697Y4132000D01*
X29976700Y4132001D01*
X30035036Y4143604D01*
X30101189Y4187807D01*
X30101193Y4187811D01*
X30145396Y4253964D01*
X30156999Y4312300D01*
X30773000Y4312300D01*
X30784603Y4253964D01*
X30828806Y4187811D01*
X30828810Y4187807D01*
X30894963Y4143604D01*
X30953299Y4132001D01*
X30953303Y4132000D01*
X31484999Y4132000D01*
X31485000Y4132001D01*
X31485000Y4726468D01*
X31539960Y4688996D01*
X31668002Y4649500D01*
X31768312Y4649500D01*
X31867499Y4664450D01*
X31985000Y4721036D01*
X31985000Y4132001D01*
X31985001Y4132000D01*
X32516697Y4132000D01*
X32516700Y4132001D01*
X32575036Y4143604D01*
X32641189Y4187807D01*
X32641193Y4187811D01*
X32685396Y4253964D01*
X32696999Y4312300D01*
X32697000Y4312303D01*
X32696999Y4844000D01*
X32103927Y4844000D01*
X32153447Y4929772D01*
X32183264Y5060407D01*
X32173251Y5194028D01*
X32124297Y5318760D01*
X32104169Y5344000D01*
X32696999Y5344000D01*
X32696999Y5344001D01*
X32697000Y5875698D01*
X32696999Y5875701D01*
X32685396Y5934037D01*
X32641193Y6000190D01*
X32641189Y6000194D01*
X32575036Y6044397D01*
X32516700Y6056000D01*
X31985001Y6056000D01*
X31985000Y6055999D01*
X31985000Y5461533D01*
X31930040Y5499004D01*
X31801998Y5538500D01*
X31701688Y5538500D01*
X31602501Y5523550D01*
X31485000Y5466965D01*
X31485000Y6055999D01*
X31484999Y6056000D01*
X30953299Y6056000D01*
X30894963Y6044397D01*
X30828810Y6000194D01*
X30828806Y6000190D01*
X30784603Y5934037D01*
X30773000Y5875701D01*
X30773000Y5344001D01*
X30773001Y5344000D01*
X31366073Y5344000D01*
X31316553Y5258228D01*
X31286736Y5127593D01*
X31296749Y4993972D01*
X31345703Y4869240D01*
X31365831Y4844000D01*
X30773000Y4844000D01*
X30773000Y4312300D01*
X30156999Y4312300D01*
X30157000Y4312303D01*
X30157000Y4843999D01*
X30156999Y4844000D01*
X29563927Y4844000D01*
X29613447Y4929772D01*
X29643264Y5060407D01*
X29633251Y5194028D01*
X29584297Y5318760D01*
X29564169Y5344000D01*
X30156999Y5344000D01*
X30157000Y5344001D01*
X30157000Y5875698D01*
X30156999Y5875701D01*
X30145396Y5934037D01*
X30101193Y6000190D01*
X30101189Y6000194D01*
X30035036Y6044397D01*
X29976700Y6056000D01*
X29445001Y6056000D01*
X29445000Y6055999D01*
X29445000Y5461533D01*
X29390040Y5499004D01*
X29261998Y5538500D01*
X29161688Y5538500D01*
X29062501Y5523550D01*
X28945000Y5466965D01*
X28945000Y6055999D01*
X28944999Y6056000D01*
X28413299Y6056000D01*
X28354963Y6044397D01*
X28288810Y6000194D01*
X28288806Y6000190D01*
X28244603Y5934037D01*
X28233000Y5875701D01*
X28233000Y5875698D01*
X28232999Y5344001D01*
X28233001Y5344000D01*
X28826073Y5344000D01*
X28776553Y5258228D01*
X28746736Y5127593D01*
X28756749Y4993972D01*
X28805703Y4869240D01*
X28825831Y4844000D01*
X28233001Y4844000D01*
X28232999Y4843999D01*
X27527538Y4843999D01*
X27540341Y4973997D01*
X27540341Y4974004D01*
X27521025Y5170127D01*
X27521024Y5170130D01*
X27521024Y5170132D01*
X27463814Y5358727D01*
X27370910Y5532538D01*
X27370906Y5532543D01*
X27245887Y5684879D01*
X27245878Y5684888D01*
X27093542Y5809907D01*
X27093540Y5809908D01*
X27093538Y5809910D01*
X27029934Y5843907D01*
X26919732Y5902812D01*
X26919730Y5902813D01*
X26848363Y5924462D01*
X26816799Y5934037D01*
X26731129Y5960025D01*
X26731126Y5960026D01*
X26535003Y5979341D01*
X26534997Y5979341D01*
X26338873Y5960026D01*
X26338870Y5960025D01*
X26150269Y5902813D01*
X26150267Y5902812D01*
X25976467Y5809913D01*
X25976457Y5809907D01*
X25824121Y5684888D01*
X25824112Y5684879D01*
X25699093Y5532543D01*
X25699087Y5532533D01*
X25606188Y5358733D01*
X25606187Y5358731D01*
X25548975Y5170130D01*
X25548974Y5170127D01*
X25529659Y4974004D01*
X25529659Y4973997D01*
X24793147Y4973997D01*
X24806737Y4989680D01*
X24806739Y4989685D01*
X24806744Y4989690D01*
X24884463Y5110625D01*
X24884469Y5110634D01*
X24908640Y5163562D01*
X24949147Y5301517D01*
X24957428Y5359111D01*
X24957428Y5931000D01*
X24941867Y6009231D01*
X24930663Y6025998D01*
X24914054Y6084885D01*
X24930664Y6136003D01*
X24941867Y6152769D01*
X24957428Y6231000D01*
X24957428Y6802889D01*
X24949147Y6860483D01*
X24908640Y6998438D01*
X24884469Y7051366D01*
X24881008Y7056752D01*
X24806744Y7172311D01*
X24806738Y7172319D01*
X24768639Y7216287D01*
X24768638Y7216288D01*
X24768632Y7216295D01*
X24768622Y7216304D01*
X24659976Y7310446D01*
X24659963Y7310455D01*
X24611032Y7341901D01*
X24611019Y7341908D01*
X24586211Y7353237D01*
X24480238Y7401634D01*
X24480233Y7401636D01*
X24480232Y7401636D01*
X24424409Y7418027D01*
X24424405Y7418028D01*
X24349910Y7428739D01*
X24295003Y7455736D01*
X24266450Y7509850D01*
X24265000Y7526731D01*
X24265000Y8019000D01*
X24283907Y8077191D01*
X24333407Y8113155D01*
X24364000Y8118000D01*
X24403747Y8118000D01*
X24403748Y8118000D01*
X24462231Y8129633D01*
X24528552Y8173948D01*
X24572867Y8240269D01*
X24584500Y8298752D01*
X24584500Y8298800D01*
X25200000Y8298800D01*
X25211603Y8240464D01*
X25255806Y8174311D01*
X25255810Y8174307D01*
X25321963Y8130104D01*
X25380299Y8118501D01*
X25380303Y8118500D01*
X25594499Y8118500D01*
X25594500Y8118501D01*
X25594500Y8766999D01*
X25594499Y8767000D01*
X26094500Y8767000D01*
X26094500Y8118501D01*
X26094501Y8118500D01*
X26308697Y8118500D01*
X26308700Y8118501D01*
X26367036Y8130104D01*
X26433189Y8174307D01*
X26433193Y8174311D01*
X26477396Y8240464D01*
X26488999Y8298800D01*
X26489000Y8298803D01*
X26489000Y8767000D01*
X26094500Y8767000D01*
X25594499Y8767000D01*
X25200001Y8767000D01*
X25200000Y8766999D01*
X25200000Y8298800D01*
X24584500Y8298800D01*
X24584500Y9267002D01*
X25200000Y9267002D01*
X25200001Y9267000D01*
X25594499Y9267000D01*
X25594500Y9267001D01*
X25594500Y9915499D01*
X25594499Y9915500D01*
X25380299Y9915500D01*
X25321963Y9903897D01*
X25255810Y9859694D01*
X25255806Y9859690D01*
X25211603Y9793537D01*
X25200000Y9735201D01*
X25200000Y9267002D01*
X24584500Y9267002D01*
X24584500Y9650566D01*
X24603407Y9708756D01*
X24623227Y9729103D01*
X24685282Y9776718D01*
X24781536Y9902159D01*
X24842044Y10048238D01*
X24862682Y10205000D01*
X24842044Y10361762D01*
X24834775Y10379312D01*
X24798199Y10467615D01*
X24793398Y10528611D01*
X24825368Y10580780D01*
X24881896Y10604195D01*
X24889663Y10604500D01*
X25724166Y10604500D01*
X25782357Y10585593D01*
X25794170Y10575504D01*
X26285170Y10084504D01*
X26312947Y10029987D01*
X26303376Y9969555D01*
X26260111Y9926290D01*
X26215166Y9915500D01*
X26094501Y9915500D01*
X26094500Y9915499D01*
X26094500Y9267001D01*
X26094501Y9267000D01*
X26488999Y9267000D01*
X26489000Y9267001D01*
X26489000Y9641667D01*
X26507907Y9699858D01*
X26557407Y9735822D01*
X26618593Y9735822D01*
X26658001Y9711673D01*
X28203505Y8166169D01*
X28231281Y8111654D01*
X28232500Y8096167D01*
X28232500Y6852254D01*
X28232501Y6852242D01*
X28244132Y6793773D01*
X28244134Y6793767D01*
X28288445Y6727452D01*
X28288448Y6727448D01*
X28354769Y6683133D01*
X28399231Y6674289D01*
X28413241Y6671502D01*
X28413246Y6671502D01*
X28413252Y6671500D01*
X28413253Y6671500D01*
X29976747Y6671500D01*
X29976748Y6671500D01*
X30035231Y6683133D01*
X30101552Y6727448D01*
X30145867Y6793769D01*
X30157500Y6852252D01*
X30157500Y7195501D01*
X30176407Y7253691D01*
X30225907Y7289655D01*
X30256500Y7294500D01*
X30673500Y7294500D01*
X30731691Y7275593D01*
X30767655Y7226093D01*
X30772500Y7195500D01*
X30772500Y6852254D01*
X30772501Y6852242D01*
X30784132Y6793773D01*
X30784134Y6793767D01*
X30828445Y6727452D01*
X30828448Y6727448D01*
X30894769Y6683133D01*
X30939231Y6674289D01*
X30953241Y6671502D01*
X30953246Y6671502D01*
X30953252Y6671500D01*
X30953253Y6671500D01*
X32516747Y6671500D01*
X32516748Y6671500D01*
X32575231Y6683133D01*
X32641552Y6727448D01*
X32685867Y6793769D01*
X32697500Y6852252D01*
X32697500Y8415748D01*
X32685867Y8474231D01*
X32641552Y8540552D01*
X32641548Y8540555D01*
X32575233Y8584866D01*
X32575231Y8584867D01*
X32575228Y8584868D01*
X32575227Y8584868D01*
X32516758Y8596499D01*
X32516748Y8596500D01*
X30953252Y8596500D01*
X30953251Y8596500D01*
X30953241Y8596499D01*
X30894772Y8584868D01*
X30894766Y8584866D01*
X30828451Y8540555D01*
X30828445Y8540549D01*
X30784134Y8474234D01*
X30784132Y8474228D01*
X30772501Y8415759D01*
X30772500Y8415747D01*
X30772500Y8044500D01*
X30753593Y7986309D01*
X30704093Y7950345D01*
X30673500Y7945500D01*
X30256500Y7945500D01*
X30198309Y7964407D01*
X30162345Y8013907D01*
X30157500Y8044500D01*
X30157500Y8415747D01*
X30157498Y8415759D01*
X30148450Y8461245D01*
X30145867Y8474231D01*
X30101552Y8540552D01*
X30101548Y8540555D01*
X30035233Y8584866D01*
X30035231Y8584867D01*
X30035228Y8584868D01*
X30035227Y8584868D01*
X29976758Y8596499D01*
X29976748Y8596500D01*
X29976747Y8596500D01*
X28734834Y8596500D01*
X28676643Y8615407D01*
X28664830Y8625496D01*
X28198868Y9091458D01*
X28171091Y9145975D01*
X28172368Y9154043D01*
X28148196Y9154992D01*
X28112457Y9177869D01*
X27626358Y9663968D01*
X27598581Y9718485D01*
X27608152Y9778917D01*
X27651417Y9822182D01*
X27687734Y9832595D01*
X27707369Y9834313D01*
X27711670Y9834500D01*
X28133500Y9834500D01*
X28191691Y9815593D01*
X28227655Y9766093D01*
X28232500Y9735500D01*
X28232500Y9392254D01*
X28232501Y9392242D01*
X28244132Y9333773D01*
X28244134Y9333767D01*
X28264776Y9302875D01*
X28277393Y9258140D01*
X28284359Y9259243D01*
X28323872Y9243778D01*
X28354769Y9223133D01*
X28399231Y9214289D01*
X28413241Y9211502D01*
X28413246Y9211502D01*
X28413252Y9211500D01*
X28413253Y9211500D01*
X29976747Y9211500D01*
X29976748Y9211500D01*
X30035231Y9223133D01*
X30101552Y9267448D01*
X30145867Y9333769D01*
X30157500Y9392252D01*
X30157500Y9735500D01*
X30176407Y9793691D01*
X30225907Y9829655D01*
X30256500Y9834500D01*
X30673500Y9834500D01*
X30731691Y9815593D01*
X30767655Y9766093D01*
X30772500Y9735500D01*
X30772500Y9392254D01*
X30772501Y9392242D01*
X30784132Y9333773D01*
X30784134Y9333767D01*
X30806188Y9300762D01*
X30828448Y9267448D01*
X30894769Y9223133D01*
X30939231Y9214289D01*
X30953241Y9211502D01*
X30953246Y9211502D01*
X30953252Y9211500D01*
X30953253Y9211500D01*
X32516747Y9211500D01*
X32516748Y9211500D01*
X32575231Y9223133D01*
X32641552Y9267448D01*
X32685867Y9333769D01*
X32697500Y9392252D01*
X32697500Y10955748D01*
X32685867Y11014231D01*
X32641552Y11080552D01*
X32641548Y11080555D01*
X32575233Y11124866D01*
X32575231Y11124867D01*
X32575228Y11124868D01*
X32575227Y11124868D01*
X32516758Y11136499D01*
X32516748Y11136500D01*
X30953252Y11136500D01*
X30953251Y11136500D01*
X30953241Y11136499D01*
X30894772Y11124868D01*
X30894766Y11124866D01*
X30828451Y11080555D01*
X30828445Y11080549D01*
X30784134Y11014234D01*
X30784132Y11014228D01*
X30772501Y10955759D01*
X30772500Y10955747D01*
X30772500Y10584500D01*
X30753593Y10526309D01*
X30704093Y10490345D01*
X30673500Y10485500D01*
X30256500Y10485500D01*
X30198309Y10504407D01*
X30162345Y10553907D01*
X30157500Y10584500D01*
X30157500Y10955747D01*
X30157498Y10955759D01*
X30147051Y11008277D01*
X30145867Y11014231D01*
X30101552Y11080552D01*
X30101548Y11080555D01*
X30035233Y11124866D01*
X30035231Y11124867D01*
X30035228Y11124868D01*
X30035227Y11124868D01*
X29976758Y11136499D01*
X29976748Y11136500D01*
X28413252Y11136500D01*
X28413251Y11136500D01*
X28413241Y11136499D01*
X28354772Y11124868D01*
X28354766Y11124866D01*
X28288451Y11080555D01*
X28288445Y11080549D01*
X28244134Y11014234D01*
X28244132Y11014228D01*
X28232501Y10955759D01*
X28232500Y10955747D01*
X28232500Y10584500D01*
X28213593Y10526309D01*
X28164093Y10490345D01*
X28133500Y10485500D01*
X27871140Y10485500D01*
X27812949Y10504407D01*
X27801136Y10514496D01*
X27522264Y10793368D01*
X27222257Y11093374D01*
X27194481Y11147890D01*
X27194109Y11176293D01*
X27204648Y11256339D01*
X27184010Y11413101D01*
X27148745Y11498238D01*
X27123503Y11559178D01*
X27123503Y11559179D01*
X27027252Y11684616D01*
X27027251Y11684617D01*
X27027248Y11684621D01*
X27027243Y11684625D01*
X27027242Y11684626D01*
X26901804Y11780877D01*
X26755732Y11841382D01*
X26755724Y11841384D01*
X26598967Y11862021D01*
X26598965Y11862021D01*
X26442207Y11841384D01*
X26442199Y11841382D01*
X26296127Y11780877D01*
X26296126Y11780877D01*
X26170689Y11684626D01*
X26170679Y11684616D01*
X26074428Y11559179D01*
X26074428Y11559178D01*
X26013923Y11413106D01*
X26013921Y11413099D01*
X26004795Y11343780D01*
X25978453Y11288555D01*
X25924682Y11259361D01*
X25915272Y11258080D01*
X25887944Y11255689D01*
X25883627Y11255500D01*
X25270663Y11255500D01*
X25212472Y11274407D01*
X25176508Y11323907D01*
X25176508Y11385093D01*
X25179199Y11392385D01*
X25223042Y11498233D01*
X25223042Y11498234D01*
X25223044Y11498238D01*
X25243682Y11655000D01*
X25223044Y11811762D01*
X25189011Y11893926D01*
X25173135Y11932254D01*
X28232500Y11932254D01*
X28232501Y11932242D01*
X28244132Y11873773D01*
X28244134Y11873767D01*
X28285562Y11811767D01*
X28288448Y11807448D01*
X28354769Y11763133D01*
X28393143Y11755500D01*
X28413241Y11751502D01*
X28413246Y11751502D01*
X28413252Y11751500D01*
X28413253Y11751500D01*
X29976747Y11751500D01*
X29976748Y11751500D01*
X30035231Y11763133D01*
X30101552Y11807448D01*
X30145867Y11873769D01*
X30157500Y11932252D01*
X30157500Y12275500D01*
X30176407Y12333691D01*
X30225907Y12369655D01*
X30256500Y12374500D01*
X30673500Y12374500D01*
X30731691Y12355593D01*
X30767655Y12306093D01*
X30772500Y12275500D01*
X30772500Y11932254D01*
X30772501Y11932242D01*
X30784132Y11873773D01*
X30784134Y11873767D01*
X30825562Y11811767D01*
X30828448Y11807448D01*
X30894769Y11763133D01*
X30933143Y11755500D01*
X30953241Y11751502D01*
X30953246Y11751502D01*
X30953252Y11751500D01*
X30953253Y11751500D01*
X32516747Y11751500D01*
X32516748Y11751500D01*
X32575231Y11763133D01*
X32641552Y11807448D01*
X32685867Y11873769D01*
X32697500Y11932252D01*
X32697500Y13495748D01*
X32685867Y13554231D01*
X32641552Y13620552D01*
X32641548Y13620555D01*
X32575233Y13664866D01*
X32575231Y13664867D01*
X32575228Y13664868D01*
X32575227Y13664868D01*
X32516758Y13676499D01*
X32516748Y13676500D01*
X30953252Y13676500D01*
X30953251Y13676500D01*
X30953241Y13676499D01*
X30894772Y13664868D01*
X30894766Y13664866D01*
X30828451Y13620555D01*
X30828445Y13620549D01*
X30784134Y13554234D01*
X30784132Y13554228D01*
X30772501Y13495759D01*
X30772500Y13495747D01*
X30772500Y13124500D01*
X30753593Y13066309D01*
X30704093Y13030345D01*
X30673500Y13025500D01*
X30256500Y13025500D01*
X30198309Y13044407D01*
X30162345Y13093907D01*
X30157500Y13124500D01*
X30157500Y13495747D01*
X30157498Y13495759D01*
X30146815Y13549464D01*
X30145867Y13554231D01*
X30101552Y13620552D01*
X30101548Y13620555D01*
X30035233Y13664866D01*
X30035231Y13664867D01*
X30035228Y13664868D01*
X30035227Y13664868D01*
X29976758Y13676499D01*
X29976748Y13676500D01*
X28413252Y13676500D01*
X28413251Y13676500D01*
X28413241Y13676499D01*
X28354772Y13664868D01*
X28354766Y13664866D01*
X28288451Y13620555D01*
X28288445Y13620549D01*
X28244134Y13554234D01*
X28244132Y13554228D01*
X28232501Y13495759D01*
X28232500Y13495747D01*
X28232500Y11932254D01*
X25173135Y11932254D01*
X25162537Y11957839D01*
X25162537Y11957840D01*
X25066286Y12083277D01*
X25066285Y12083278D01*
X25066282Y12083282D01*
X25066277Y12083286D01*
X25066276Y12083287D01*
X24940838Y12179538D01*
X24794766Y12240043D01*
X24794759Y12240045D01*
X24743372Y12246810D01*
X24688147Y12273152D01*
X24658953Y12326923D01*
X24666939Y12387584D01*
X24686288Y12414964D01*
X27156829Y14885504D01*
X27211347Y14913281D01*
X27226834Y14914500D01*
X28133500Y14914500D01*
X28191691Y14895593D01*
X28227655Y14846093D01*
X28232500Y14815500D01*
X28232500Y14472254D01*
X28232501Y14472242D01*
X28244132Y14413773D01*
X28244134Y14413767D01*
X28284334Y14353605D01*
X28288448Y14347448D01*
X28354769Y14303133D01*
X28399231Y14294289D01*
X28413241Y14291502D01*
X28413246Y14291502D01*
X28413252Y14291500D01*
X28413253Y14291500D01*
X29976747Y14291500D01*
X29976748Y14291500D01*
X30035231Y14303133D01*
X30101552Y14347448D01*
X30145867Y14413769D01*
X30157500Y14472252D01*
X30157500Y14815500D01*
X30176407Y14873691D01*
X30225907Y14909655D01*
X30256500Y14914500D01*
X30673500Y14914500D01*
X30731691Y14895593D01*
X30767655Y14846093D01*
X30772500Y14815500D01*
X30772500Y14472254D01*
X30772501Y14472242D01*
X30784132Y14413773D01*
X30784134Y14413767D01*
X30824334Y14353605D01*
X30828448Y14347448D01*
X30894769Y14303133D01*
X30939231Y14294289D01*
X30953241Y14291502D01*
X30953246Y14291502D01*
X30953252Y14291500D01*
X30953253Y14291500D01*
X32516747Y14291500D01*
X32516748Y14291500D01*
X32575231Y14303133D01*
X32641552Y14347448D01*
X32685867Y14413769D01*
X32697500Y14472252D01*
X32697500Y16035748D01*
X32685867Y16094231D01*
X32641552Y16160552D01*
X32641548Y16160555D01*
X32575233Y16204866D01*
X32575231Y16204867D01*
X32575228Y16204868D01*
X32575227Y16204868D01*
X32516758Y16216499D01*
X32516748Y16216500D01*
X30953252Y16216500D01*
X30953251Y16216500D01*
X30953241Y16216499D01*
X30894772Y16204868D01*
X30894766Y16204866D01*
X30828451Y16160555D01*
X30828445Y16160549D01*
X30784134Y16094234D01*
X30784132Y16094228D01*
X30772501Y16035759D01*
X30772500Y16035747D01*
X30772500Y15664500D01*
X30753593Y15606309D01*
X30704093Y15570345D01*
X30673500Y15565500D01*
X30256500Y15565500D01*
X30198309Y15584407D01*
X30162345Y15633907D01*
X30157500Y15664500D01*
X30157500Y16035747D01*
X30157498Y16035759D01*
X30148356Y16081718D01*
X30145867Y16094231D01*
X30101552Y16160552D01*
X30101548Y16160555D01*
X30035233Y16204866D01*
X30035231Y16204867D01*
X30035228Y16204868D01*
X30035227Y16204868D01*
X29976758Y16216499D01*
X29976748Y16216500D01*
X28413252Y16216500D01*
X28413251Y16216500D01*
X28413241Y16216499D01*
X28354772Y16204868D01*
X28354766Y16204866D01*
X28288451Y16160555D01*
X28288445Y16160549D01*
X28244134Y16094234D01*
X28244132Y16094228D01*
X28232501Y16035759D01*
X28232500Y16035747D01*
X28232500Y15664500D01*
X28213593Y15606309D01*
X28164093Y15570345D01*
X28133500Y15565500D01*
X27667500Y15565500D01*
X27609309Y15584407D01*
X27573345Y15633907D01*
X27568500Y15664500D01*
X27568500Y16133000D01*
X26279501Y16133000D01*
X26279500Y16132999D01*
X26279500Y15664800D01*
X26291103Y15606464D01*
X26335306Y15540311D01*
X26335310Y15540307D01*
X26401463Y15496104D01*
X26459799Y15484501D01*
X26459803Y15484500D01*
X26596165Y15484500D01*
X26654356Y15465593D01*
X26690320Y15416093D01*
X26690320Y15354907D01*
X26666169Y15315496D01*
X23635170Y12284496D01*
X23580653Y12256719D01*
X23565166Y12255500D01*
X23506139Y12255500D01*
X23447948Y12274407D01*
X23411984Y12323907D01*
X23411984Y12385093D01*
X23427597Y12414767D01*
X23466584Y12465576D01*
X23511536Y12524159D01*
X23572044Y12670238D01*
X23592682Y12827000D01*
X23589970Y12847596D01*
X23583645Y12895644D01*
X23572044Y12983762D01*
X23533417Y13077015D01*
X23511537Y13129839D01*
X23511537Y13129840D01*
X23415286Y13255277D01*
X23415285Y13255278D01*
X23415282Y13255282D01*
X23415277Y13255286D01*
X23415276Y13255287D01*
X23328891Y13321572D01*
X23289841Y13351536D01*
X23289840Y13351537D01*
X23289838Y13351538D01*
X23143766Y13412043D01*
X23143758Y13412045D01*
X22987001Y13432682D01*
X22986999Y13432682D01*
X22830241Y13412045D01*
X22830233Y13412043D01*
X22684161Y13351538D01*
X22684160Y13351538D01*
X22558723Y13255287D01*
X22558713Y13255277D01*
X22462462Y13129840D01*
X22462462Y13129839D01*
X22401957Y12983767D01*
X22401955Y12983759D01*
X22383237Y12841578D01*
X22356896Y12786353D01*
X22303125Y12757158D01*
X22285084Y12755500D01*
X21246602Y12755500D01*
X21246592Y12755499D01*
X21204222Y12747071D01*
X21143461Y12754264D01*
X21102595Y12789167D01*
X21079193Y12824190D01*
X21079190Y12824193D01*
X21044167Y12847594D01*
X21006287Y12895644D01*
X21002071Y12949226D01*
X21010499Y12991592D01*
X21010500Y12991601D01*
X21010500Y13701165D01*
X21029407Y13759356D01*
X21039490Y13771163D01*
X21266300Y13997972D01*
X21266300Y13997973D01*
X21277240Y14008914D01*
X21331757Y14036694D01*
X21392189Y14027126D01*
X21435456Y13983863D01*
X21445401Y13951836D01*
X21449955Y13917242D01*
X21449957Y13917234D01*
X21510462Y13771162D01*
X21510462Y13771161D01*
X21592024Y13664867D01*
X21606718Y13645718D01*
X21732159Y13549464D01*
X21732160Y13549464D01*
X21732161Y13549463D01*
X21861843Y13495747D01*
X21878238Y13488956D01*
X21995809Y13473478D01*
X22034999Y13468318D01*
X22035000Y13468318D01*
X22035001Y13468318D01*
X22066352Y13472446D01*
X22191762Y13488956D01*
X22337841Y13549464D01*
X22463282Y13645718D01*
X22559536Y13771159D01*
X22620044Y13917238D01*
X22640682Y14074000D01*
X22630143Y14154044D01*
X22641292Y14214201D01*
X22658289Y14236965D01*
X23586583Y15165258D01*
X23589760Y15168171D01*
X23621194Y15194545D01*
X23641714Y15230089D01*
X23644012Y15233697D01*
X23667554Y15267316D01*
X23667941Y15268764D01*
X23677838Y15292655D01*
X23678588Y15293955D01*
X23683744Y15323198D01*
X23685710Y15334350D01*
X23686640Y15338548D01*
X23697264Y15378193D01*
X23697263Y15378194D01*
X23698019Y15386822D01*
X23699800Y15386667D01*
X23711184Y15435984D01*
X23757359Y15476128D01*
X23796046Y15484000D01*
X23832247Y15484000D01*
X23832248Y15484000D01*
X23890731Y15495633D01*
X23957052Y15539948D01*
X24001367Y15606269D01*
X24013000Y15664752D01*
X24013000Y15958501D01*
X24031907Y16016691D01*
X24081407Y16052655D01*
X24112000Y16057500D01*
X24275000Y16057500D01*
X24333191Y16038593D01*
X24369155Y15989093D01*
X24374000Y15958500D01*
X24374000Y15664754D01*
X24374001Y15664742D01*
X24385632Y15606273D01*
X24385634Y15606267D01*
X24427696Y15543318D01*
X24429948Y15539948D01*
X24496269Y15495633D01*
X24534442Y15488040D01*
X24554741Y15484002D01*
X24554746Y15484002D01*
X24554752Y15484000D01*
X24554753Y15484000D01*
X25483247Y15484000D01*
X25483248Y15484000D01*
X25541731Y15495633D01*
X25608052Y15539948D01*
X25652367Y15606269D01*
X25664000Y15664752D01*
X25664000Y16633001D01*
X26279500Y16633001D01*
X26279501Y16633000D01*
X26673999Y16633000D01*
X26674000Y16633001D01*
X27174000Y16633001D01*
X27174001Y16633000D01*
X27568499Y16633000D01*
X27568500Y16633001D01*
X27568500Y17101198D01*
X27568499Y17101201D01*
X27556896Y17159537D01*
X27512693Y17225690D01*
X27512689Y17225694D01*
X27446536Y17269897D01*
X27388200Y17281500D01*
X27174001Y17281500D01*
X27174000Y17281499D01*
X27174000Y16633001D01*
X26674000Y16633001D01*
X26674000Y17281499D01*
X26673999Y17281500D01*
X26459799Y17281500D01*
X26401463Y17269897D01*
X26335310Y17225694D01*
X26335306Y17225690D01*
X26291103Y17159537D01*
X26279500Y17101201D01*
X26279500Y16633001D01*
X25664000Y16633001D01*
X25664000Y17101248D01*
X25652367Y17159731D01*
X25608052Y17226052D01*
X25595131Y17234686D01*
X25541733Y17270366D01*
X25541731Y17270367D01*
X25541728Y17270368D01*
X25541727Y17270368D01*
X25483258Y17281999D01*
X25483248Y17282000D01*
X24554752Y17282000D01*
X24554751Y17282000D01*
X24554741Y17281999D01*
X24496272Y17270368D01*
X24496266Y17270366D01*
X24429951Y17226055D01*
X24429945Y17226049D01*
X24385634Y17159734D01*
X24385632Y17159728D01*
X24374001Y17101259D01*
X24374000Y17101247D01*
X24374000Y16807500D01*
X24355093Y16749309D01*
X24305593Y16713345D01*
X24275000Y16708500D01*
X24112000Y16708500D01*
X24053809Y16727407D01*
X24017845Y16776907D01*
X24013000Y16807500D01*
X24013000Y17101247D01*
X24012998Y17101259D01*
X24008595Y17123395D01*
X24001367Y17159731D01*
X23957052Y17226052D01*
X23944131Y17234686D01*
X23890733Y17270366D01*
X23890731Y17270367D01*
X23890728Y17270368D01*
X23890727Y17270368D01*
X23832258Y17281999D01*
X23832248Y17282000D01*
X22903752Y17282000D01*
X22903751Y17282000D01*
X22903741Y17281999D01*
X22835707Y17268465D01*
X22835072Y17271655D01*
X22790483Y17268158D01*
X22738324Y17300143D01*
X22737816Y17300871D01*
X22737760Y17300823D01*
X22732192Y17307459D01*
X22720781Y17317033D01*
X22700771Y17333824D01*
X22697594Y17336736D01*
X22091833Y17942496D01*
X22064056Y17997013D01*
X22073627Y18057445D01*
X22116892Y18100710D01*
X22161837Y18111500D01*
X23696747Y18111500D01*
X23696748Y18111500D01*
X23755231Y18123133D01*
X23821552Y18167448D01*
X23865867Y18233769D01*
X23877500Y18292252D01*
X23877500Y18292254D01*
X24492500Y18292254D01*
X24492501Y18292242D01*
X24504132Y18233773D01*
X24504134Y18233767D01*
X24548445Y18167452D01*
X24548448Y18167448D01*
X24614769Y18123133D01*
X24659231Y18114289D01*
X24673241Y18111502D01*
X24673246Y18111502D01*
X24673252Y18111500D01*
X24673253Y18111500D01*
X26236747Y18111500D01*
X26236748Y18111500D01*
X26295231Y18123133D01*
X26361552Y18167448D01*
X26405867Y18233769D01*
X26417500Y18292252D01*
X26417500Y19855748D01*
X26405867Y19914231D01*
X26361552Y19980552D01*
X26361548Y19980555D01*
X26295233Y20024866D01*
X26295231Y20024867D01*
X26295228Y20024868D01*
X26295227Y20024868D01*
X26236758Y20036499D01*
X26236748Y20036500D01*
X26236747Y20036500D01*
X25824500Y20036500D01*
X25766309Y20055407D01*
X25730345Y20104907D01*
X25725500Y20135500D01*
X25725500Y20552500D01*
X25744407Y20610691D01*
X25793907Y20646655D01*
X25824500Y20651500D01*
X26236747Y20651500D01*
X26236748Y20651500D01*
X26295231Y20663133D01*
X26361552Y20707448D01*
X26405867Y20773769D01*
X26417500Y20832252D01*
X26417500Y22395748D01*
X26405867Y22454231D01*
X26361552Y22520552D01*
X26303265Y22559499D01*
X26295233Y22564866D01*
X26295231Y22564867D01*
X26295228Y22564868D01*
X26295227Y22564868D01*
X26236758Y22576499D01*
X26236748Y22576500D01*
X24673252Y22576500D01*
X24673251Y22576500D01*
X24673241Y22576499D01*
X24614772Y22564868D01*
X24614766Y22564866D01*
X24548451Y22520555D01*
X24548445Y22520549D01*
X24504134Y22454234D01*
X24504132Y22454228D01*
X24492501Y22395759D01*
X24492500Y22395747D01*
X24492500Y20832254D01*
X24492501Y20832242D01*
X24504132Y20773773D01*
X24504134Y20773767D01*
X24548445Y20707452D01*
X24548448Y20707448D01*
X24614769Y20663133D01*
X24659231Y20654289D01*
X24673241Y20651502D01*
X24673246Y20651502D01*
X24673252Y20651500D01*
X24975500Y20651500D01*
X25033691Y20632593D01*
X25069655Y20583093D01*
X25074500Y20552500D01*
X25074500Y20135500D01*
X25055593Y20077309D01*
X25006093Y20041345D01*
X24975500Y20036500D01*
X24673252Y20036500D01*
X24673251Y20036500D01*
X24673241Y20036499D01*
X24614772Y20024868D01*
X24614766Y20024866D01*
X24548451Y19980555D01*
X24548445Y19980549D01*
X24504134Y19914234D01*
X24504132Y19914228D01*
X24492501Y19855759D01*
X24492500Y19855747D01*
X24492500Y18292254D01*
X23877500Y18292254D01*
X23877500Y19855748D01*
X23865867Y19914231D01*
X23821552Y19980552D01*
X23821548Y19980555D01*
X23755233Y20024866D01*
X23755231Y20024867D01*
X23755228Y20024868D01*
X23755227Y20024868D01*
X23696758Y20036499D01*
X23696748Y20036500D01*
X23696747Y20036500D01*
X23284500Y20036500D01*
X23226309Y20055407D01*
X23190345Y20104907D01*
X23185500Y20135500D01*
X23185500Y20552500D01*
X23204407Y20610691D01*
X23253907Y20646655D01*
X23284500Y20651500D01*
X23696747Y20651500D01*
X23696748Y20651500D01*
X23755231Y20663133D01*
X23821552Y20707448D01*
X23865867Y20773769D01*
X23877500Y20832252D01*
X23877500Y22395748D01*
X23865867Y22454231D01*
X23821552Y22520552D01*
X23763265Y22559499D01*
X23755233Y22564866D01*
X23755231Y22564867D01*
X23755228Y22564868D01*
X23755227Y22564868D01*
X23696758Y22576499D01*
X23696748Y22576500D01*
X22133252Y22576500D01*
X22133251Y22576500D01*
X22133241Y22576499D01*
X22074772Y22564868D01*
X22074770Y22564868D01*
X22074769Y22564867D01*
X22074768Y22564867D01*
X22073394Y22564297D01*
X22070927Y22564104D01*
X22065207Y22562965D01*
X22065072Y22563643D01*
X22012397Y22559499D01*
X21960229Y22591471D01*
X21936817Y22648000D01*
X21936512Y22655763D01*
X21936512Y22695615D01*
X21936699Y22699916D01*
X21940276Y22740795D01*
X21929652Y22780440D01*
X21928722Y22784640D01*
X21928256Y22787281D01*
X21921600Y22825033D01*
X21920852Y22826329D01*
X21910954Y22850221D01*
X21910566Y22851672D01*
X21910564Y22851675D01*
X21910563Y22851677D01*
X21887037Y22885276D01*
X21884715Y22888920D01*
X21864205Y22924445D01*
X21843081Y22942169D01*
X21832777Y22950815D01*
X21829600Y22953727D01*
X21450741Y23332586D01*
X21447822Y23335771D01*
X21421456Y23367194D01*
X21398818Y23380264D01*
X21385918Y23387712D01*
X21382288Y23390025D01*
X21348684Y23413554D01*
X21348679Y23413557D01*
X21347224Y23413946D01*
X21323348Y23423836D01*
X21322045Y23424589D01*
X21281652Y23431711D01*
X21277436Y23432646D01*
X21251153Y23439688D01*
X21237807Y23443264D01*
X21237806Y23443264D01*
X21233381Y23442877D01*
X21196926Y23439688D01*
X21192626Y23439500D01*
X14240362Y23439500D01*
X14236061Y23439688D01*
X14195193Y23443263D01*
X14195186Y23443263D01*
X14155575Y23432649D01*
X14151360Y23431715D01*
X14110958Y23424590D01*
X14110951Y23424587D01*
X14109632Y23423825D01*
X14085790Y23413950D01*
X14084326Y23413558D01*
X14084312Y23413552D01*
X14050720Y23390031D01*
X14047079Y23387711D01*
X14011546Y23367196D01*
X13985180Y23335775D01*
X13982262Y23332591D01*
X13255171Y22605497D01*
X13200654Y22577719D01*
X13185167Y22576500D01*
X11973252Y22576500D01*
X11973251Y22576500D01*
X11973241Y22576499D01*
X11914772Y22564868D01*
X11914766Y22564866D01*
X11848451Y22520555D01*
X11848445Y22520549D01*
X11804134Y22454234D01*
X11804132Y22454228D01*
X11792501Y22395759D01*
X11792500Y22395747D01*
X11792500Y20832254D01*
X11792501Y20832242D01*
X11804132Y20773773D01*
X11804134Y20773767D01*
X11848445Y20707452D01*
X11848448Y20707448D01*
X11914769Y20663133D01*
X11959231Y20654289D01*
X11973241Y20651502D01*
X11973246Y20651502D01*
X11973252Y20651500D01*
X11973253Y20651500D01*
X13536747Y20651500D01*
X13536748Y20651500D01*
X13595231Y20663133D01*
X13661552Y20707448D01*
X13705867Y20773769D01*
X13717500Y20832252D01*
X13717500Y22106167D01*
X13736407Y22164357D01*
X13746496Y22176170D01*
X14329831Y22759504D01*
X14384348Y22787281D01*
X14399835Y22788500D01*
X21033167Y22788500D01*
X21091358Y22769593D01*
X21103165Y22759510D01*
X21117171Y22745503D01*
X21144948Y22690987D01*
X21135377Y22630555D01*
X21092112Y22587290D01*
X21047167Y22576500D01*
X19593252Y22576500D01*
X19593251Y22576500D01*
X19593241Y22576499D01*
X19534772Y22564868D01*
X19534766Y22564866D01*
X19468451Y22520555D01*
X19468445Y22520549D01*
X19424134Y22454234D01*
X19424132Y22454228D01*
X19412501Y22395759D01*
X19412500Y22395747D01*
X19412500Y20832254D01*
X19412501Y20832242D01*
X19424132Y20773773D01*
X19424134Y20773767D01*
X19468445Y20707452D01*
X19468448Y20707448D01*
X19534769Y20663133D01*
X19579231Y20654289D01*
X19593241Y20651502D01*
X19593246Y20651502D01*
X19593252Y20651500D01*
X19895500Y20651500D01*
X19953691Y20632593D01*
X19989655Y20583093D01*
X19994500Y20552500D01*
X19994500Y20135500D01*
X19975593Y20077309D01*
X19926093Y20041345D01*
X19895500Y20036500D01*
X19593252Y20036500D01*
X19593251Y20036500D01*
X19593241Y20036499D01*
X19534772Y20024868D01*
X19534766Y20024866D01*
X19468451Y19980555D01*
X19468445Y19980549D01*
X19424134Y19914234D01*
X19424132Y19914228D01*
X19412501Y19855759D01*
X19412500Y19855747D01*
X19412500Y18292254D01*
X19412501Y18292242D01*
X19424132Y18233773D01*
X19424134Y18233767D01*
X19468445Y18167452D01*
X19468448Y18167448D01*
X19534769Y18123133D01*
X19579231Y18114289D01*
X19593241Y18111502D01*
X19593246Y18111502D01*
X19593252Y18111500D01*
X19593253Y18111500D01*
X21156747Y18111500D01*
X21156748Y18111500D01*
X21167195Y18113578D01*
X21227956Y18106389D01*
X21272887Y18064858D01*
X21285512Y18016481D01*
X21285512Y17979365D01*
X21285324Y17975063D01*
X21284714Y17968083D01*
X21281748Y17934184D01*
X21292366Y17894554D01*
X21293301Y17890338D01*
X21300423Y17849945D01*
X21301176Y17848642D01*
X21311066Y17824766D01*
X21311455Y17823311D01*
X21311458Y17823306D01*
X21319855Y17811313D01*
X21334983Y17789709D01*
X21337300Y17786072D01*
X21357301Y17751430D01*
X21357818Y17750535D01*
X21389242Y17724167D01*
X21392428Y17721248D01*
X21662672Y17451003D01*
X21690449Y17396487D01*
X21680878Y17336055D01*
X21637613Y17292790D01*
X21592668Y17282000D01*
X20998752Y17282000D01*
X20998751Y17282000D01*
X20998741Y17281999D01*
X20940272Y17270368D01*
X20940266Y17270366D01*
X20873951Y17226055D01*
X20873945Y17226049D01*
X20829634Y17159734D01*
X20829632Y17159728D01*
X20818001Y17101259D01*
X20818000Y17101247D01*
X20818000Y16882500D01*
X20799093Y16824309D01*
X20749593Y16788345D01*
X20719000Y16783500D01*
X20556000Y16783500D01*
X20497809Y16802407D01*
X20461845Y16851907D01*
X20457000Y16882500D01*
X20457000Y17101247D01*
X20456998Y17101259D01*
X20452595Y17123395D01*
X20445367Y17159731D01*
X20401052Y17226052D01*
X20388131Y17234686D01*
X20334733Y17270366D01*
X20334731Y17270367D01*
X20334728Y17270368D01*
X20334727Y17270368D01*
X20276258Y17281999D01*
X20276248Y17282000D01*
X20276247Y17282000D01*
X20028401Y17282000D01*
X19970210Y17300907D01*
X19958397Y17310996D01*
X19591753Y17677640D01*
X19183909Y18085484D01*
X19183905Y18085487D01*
X19181423Y18087969D01*
X19181423Y18087970D01*
X19161343Y18108049D01*
X19161342Y18108050D01*
X19139847Y18119003D01*
X19126608Y18127116D01*
X19120581Y18131495D01*
X19107090Y18141296D01*
X19107088Y18141297D01*
X19084142Y18148753D01*
X19069788Y18154699D01*
X19048306Y18165646D01*
X19024474Y18169421D01*
X19009374Y18173047D01*
X18986437Y18180500D01*
X18986433Y18180500D01*
X18954519Y18180500D01*
X18895723Y18180500D01*
X18837532Y18199407D01*
X18801568Y18248907D01*
X18797200Y18289205D01*
X18797500Y18292251D01*
X18797500Y19855747D01*
X18797498Y19855759D01*
X18794711Y19869769D01*
X18785867Y19914231D01*
X18741552Y19980552D01*
X18741548Y19980555D01*
X18675233Y20024866D01*
X18675231Y20024867D01*
X18675228Y20024868D01*
X18675227Y20024868D01*
X18616758Y20036499D01*
X18616748Y20036500D01*
X18616747Y20036500D01*
X18204500Y20036500D01*
X18146309Y20055407D01*
X18110345Y20104907D01*
X18105500Y20135500D01*
X18105500Y20552500D01*
X18124407Y20610691D01*
X18173907Y20646655D01*
X18204500Y20651500D01*
X18616747Y20651500D01*
X18616748Y20651500D01*
X18675231Y20663133D01*
X18741552Y20707448D01*
X18785867Y20773769D01*
X18797500Y20832252D01*
X18797500Y22395748D01*
X18785867Y22454231D01*
X18741552Y22520552D01*
X18683265Y22559499D01*
X18675233Y22564866D01*
X18675231Y22564867D01*
X18675228Y22564868D01*
X18675227Y22564868D01*
X18616758Y22576499D01*
X18616748Y22576500D01*
X17053252Y22576500D01*
X17053251Y22576500D01*
X17053241Y22576499D01*
X16994772Y22564868D01*
X16994766Y22564866D01*
X16928451Y22520555D01*
X16928445Y22520549D01*
X16884134Y22454234D01*
X16884132Y22454228D01*
X16872501Y22395759D01*
X16872500Y22395747D01*
X16872500Y20832254D01*
X16872501Y20832242D01*
X16884132Y20773773D01*
X16884134Y20773767D01*
X16928445Y20707452D01*
X16928448Y20707448D01*
X16994769Y20663133D01*
X17039231Y20654289D01*
X17053241Y20651502D01*
X17053246Y20651502D01*
X17053252Y20651500D01*
X17355500Y20651500D01*
X17413691Y20632593D01*
X17449655Y20583093D01*
X17454500Y20552500D01*
X17454500Y20135500D01*
X17435593Y20077309D01*
X17386093Y20041345D01*
X17355500Y20036500D01*
X17053252Y20036500D01*
X17053251Y20036500D01*
X17053241Y20036499D01*
X16994772Y20024868D01*
X16994766Y20024866D01*
X16928451Y19980555D01*
X16928445Y19980549D01*
X16884134Y19914234D01*
X16884132Y19914228D01*
X16872501Y19855759D01*
X16872500Y19855747D01*
X16872500Y18292251D01*
X16872800Y18289205D01*
X16872500Y18287838D01*
X16872500Y18287388D01*
X16872401Y18287388D01*
X16859688Y18229441D01*
X16813952Y18188798D01*
X16774277Y18180500D01*
X16355723Y18180500D01*
X16297532Y18199407D01*
X16261568Y18248907D01*
X16257200Y18289205D01*
X16257500Y18292251D01*
X16257500Y19855747D01*
X16257498Y19855759D01*
X16254711Y19869769D01*
X16245867Y19914231D01*
X16201552Y19980552D01*
X16201548Y19980555D01*
X16135233Y20024866D01*
X16135231Y20024867D01*
X16135228Y20024868D01*
X16135227Y20024868D01*
X16076758Y20036499D01*
X16076748Y20036500D01*
X16076747Y20036500D01*
X15664500Y20036500D01*
X15606309Y20055407D01*
X15570345Y20104907D01*
X15565500Y20135500D01*
X15565500Y20552500D01*
X15584407Y20610691D01*
X15633907Y20646655D01*
X15664500Y20651500D01*
X16076747Y20651500D01*
X16076748Y20651500D01*
X16135231Y20663133D01*
X16201552Y20707448D01*
X16245867Y20773769D01*
X16257500Y20832252D01*
X16257500Y22395748D01*
X16245867Y22454231D01*
X16201552Y22520552D01*
X16143265Y22559499D01*
X16135233Y22564866D01*
X16135231Y22564867D01*
X16135228Y22564868D01*
X16135227Y22564868D01*
X16076758Y22576499D01*
X16076748Y22576500D01*
X14513252Y22576500D01*
X14513251Y22576500D01*
X14513241Y22576499D01*
X14454772Y22564868D01*
X14454766Y22564866D01*
X14388451Y22520555D01*
X14388445Y22520549D01*
X14344134Y22454234D01*
X14344132Y22454228D01*
X14332501Y22395759D01*
X14332500Y22395747D01*
X14332500Y20832254D01*
X14332501Y20832242D01*
X14344132Y20773773D01*
X14344134Y20773767D01*
X14388445Y20707452D01*
X14388448Y20707448D01*
X14454769Y20663133D01*
X14499231Y20654289D01*
X14513241Y20651502D01*
X14513246Y20651502D01*
X14513252Y20651500D01*
X14815500Y20651500D01*
X14873691Y20632593D01*
X14909655Y20583093D01*
X14914500Y20552500D01*
X14914500Y20135500D01*
X14895593Y20077309D01*
X14846093Y20041345D01*
X14815500Y20036500D01*
X14513252Y20036500D01*
X14513251Y20036500D01*
X14513241Y20036499D01*
X14454772Y20024868D01*
X14454766Y20024866D01*
X14388451Y19980555D01*
X14388445Y19980549D01*
X14344134Y19914234D01*
X14344132Y19914228D01*
X14332501Y19855759D01*
X14332500Y19855747D01*
X14332500Y18292251D01*
X14332800Y18289205D01*
X14332500Y18287838D01*
X14332500Y18287388D01*
X14332401Y18287388D01*
X14319688Y18229441D01*
X14273952Y18188798D01*
X14234277Y18180500D01*
X14123799Y18180500D01*
X13996933Y18180500D01*
X13996931Y18180500D01*
X13996928Y18180499D01*
X13973990Y18173047D01*
X13958895Y18169423D01*
X13935067Y18165648D01*
X13935057Y18165645D01*
X13913568Y18154695D01*
X13899218Y18148751D01*
X13876281Y18141299D01*
X13876276Y18141296D01*
X13860206Y18129622D01*
X13802013Y18110720D01*
X13743824Y18129632D01*
X13707865Y18179136D01*
X13704925Y18229036D01*
X13705868Y18233773D01*
X13712247Y18265846D01*
X13717499Y18292245D01*
X13717500Y18292254D01*
X13717500Y19855747D01*
X13717498Y19855759D01*
X13714711Y19869769D01*
X13705867Y19914231D01*
X13661552Y19980552D01*
X13661548Y19980555D01*
X13595233Y20024866D01*
X13595231Y20024867D01*
X13595228Y20024868D01*
X13595227Y20024868D01*
X13536758Y20036499D01*
X13536748Y20036500D01*
X11973252Y20036500D01*
X11973251Y20036500D01*
X11973241Y20036499D01*
X11914772Y20024868D01*
X11914766Y20024866D01*
X11848451Y19980555D01*
X11848445Y19980549D01*
X11804134Y19914234D01*
X11804132Y19914228D01*
X11792501Y19855759D01*
X11792500Y19855747D01*
X11792500Y18292254D01*
X11792501Y18292242D01*
X11804132Y18233773D01*
X11804134Y18233767D01*
X11848445Y18167452D01*
X11848448Y18167448D01*
X11914769Y18123133D01*
X11959231Y18114289D01*
X11973241Y18111502D01*
X11973246Y18111502D01*
X11973252Y18111500D01*
X12160500Y18111500D01*
X12218691Y18092593D01*
X12254655Y18043093D01*
X12259500Y18012500D01*
X12259500Y17040375D01*
X12259312Y17036073D01*
X12257657Y17017150D01*
X12255736Y16995194D01*
X12266354Y16955564D01*
X12267289Y16951348D01*
X12274411Y16910955D01*
X12275164Y16909652D01*
X12285054Y16885776D01*
X12285443Y16884321D01*
X12285446Y16884316D01*
X12308971Y16850719D01*
X12311288Y16847082D01*
X12312076Y16845718D01*
X12331806Y16811545D01*
X12363224Y16785182D01*
X12366410Y16782263D01*
X12924170Y16224504D01*
X12951947Y16169987D01*
X12942376Y16109555D01*
X12899111Y16066290D01*
X12854166Y16055500D01*
X12154240Y16055500D01*
X12120173Y16050537D01*
X12086104Y16045573D01*
X11981018Y15994199D01*
X11898301Y15911482D01*
X11846927Y15806396D01*
X11844428Y15789243D01*
X11837000Y15738260D01*
X11837000Y15371740D01*
X11841834Y15338564D01*
X11846927Y15303605D01*
X11882874Y15230075D01*
X11898302Y15198517D01*
X11947170Y15149649D01*
X11974946Y15095134D01*
X11965375Y15034702D01*
X11947169Y15009643D01*
X11898713Y14961188D01*
X11847412Y14856249D01*
X11837500Y14788216D01*
X11837500Y14776900D01*
X11818593Y14718709D01*
X11769093Y14682745D01*
X11707907Y14682745D01*
X11668496Y14706896D01*
X11644202Y14731190D01*
X11464909Y14910484D01*
X11464905Y14910487D01*
X11462423Y14912969D01*
X11462423Y14912970D01*
X11442343Y14933049D01*
X11442342Y14933050D01*
X11420847Y14944003D01*
X11407608Y14952116D01*
X11401581Y14956495D01*
X11388090Y14966296D01*
X11388088Y14966297D01*
X11365142Y14973753D01*
X11350788Y14979699D01*
X11329306Y14990646D01*
X11305474Y14994421D01*
X11290374Y14998047D01*
X11267437Y15005500D01*
X11259740Y15006718D01*
X11260190Y15009561D01*
X11214497Y15024407D01*
X11178533Y15073907D01*
X11178533Y15135093D01*
X11202682Y15174502D01*
X11226698Y15198517D01*
X11278073Y15303607D01*
X11288000Y15371740D01*
X11288000Y15738260D01*
X11278073Y15806393D01*
X11272728Y15817326D01*
X11226698Y15911482D01*
X11226698Y15911483D01*
X11143983Y15994198D01*
X11143981Y15994199D01*
X11038895Y16045573D01*
X11011639Y16049544D01*
X10970760Y16055500D01*
X10970757Y16055500D01*
X10768448Y16055500D01*
X10710257Y16074407D01*
X10674293Y16123907D01*
X10674293Y16185093D01*
X10682716Y16204007D01*
X10684533Y16207156D01*
X10684536Y16207159D01*
X10745044Y16353238D01*
X10765682Y16510000D01*
X10745044Y16666762D01*
X10745042Y16666767D01*
X10684537Y16812839D01*
X10684537Y16812840D01*
X10618913Y16898363D01*
X10588282Y16938282D01*
X10580718Y16944086D01*
X10524232Y16987430D01*
X10489577Y17037855D01*
X10485500Y17065972D01*
X10485500Y18012500D01*
X10504407Y18070691D01*
X10553907Y18106655D01*
X10584500Y18111500D01*
X10996747Y18111500D01*
X10996748Y18111500D01*
X11055231Y18123133D01*
X11121552Y18167448D01*
X11165867Y18233769D01*
X11177500Y18292252D01*
X11177500Y19855748D01*
X11165867Y19914231D01*
X11121552Y19980552D01*
X11121548Y19980555D01*
X11055233Y20024866D01*
X11055231Y20024867D01*
X11055228Y20024868D01*
X11055227Y20024868D01*
X10996758Y20036499D01*
X10996748Y20036500D01*
X9433252Y20036500D01*
X9433251Y20036500D01*
X9433241Y20036499D01*
X9374772Y20024868D01*
X9374767Y20024866D01*
X9334501Y19997961D01*
X9275613Y19981353D01*
X9218209Y20002531D01*
X9184217Y20053405D01*
X9180500Y20080277D01*
X9180500Y20607724D01*
X9199407Y20665915D01*
X9248907Y20701879D01*
X9310093Y20701879D01*
X9334501Y20690040D01*
X9374769Y20663133D01*
X9419231Y20654289D01*
X9433241Y20651502D01*
X9433246Y20651502D01*
X9433252Y20651500D01*
X9433253Y20651500D01*
X10996747Y20651500D01*
X10996748Y20651500D01*
X11055231Y20663133D01*
X11121552Y20707448D01*
X11165867Y20773769D01*
X11177500Y20832252D01*
X11177500Y22395748D01*
X11165867Y22454231D01*
X11121552Y22520552D01*
X11063265Y22559499D01*
X11055233Y22564866D01*
X11055231Y22564867D01*
X11055228Y22564868D01*
X11055227Y22564868D01*
X10996758Y22576499D01*
X10996748Y22576500D01*
X9433252Y22576500D01*
X9433251Y22576500D01*
X9433241Y22576499D01*
X9374772Y22564868D01*
X9374766Y22564866D01*
X9308451Y22520555D01*
X9308445Y22520549D01*
X9264134Y22454234D01*
X9264132Y22454228D01*
X9252501Y22395759D01*
X9252500Y22395747D01*
X9252500Y22014500D01*
X9233593Y21956309D01*
X9184093Y21920345D01*
X9153500Y21915500D01*
X8811834Y21915500D01*
X8753643Y21934407D01*
X8741830Y21944496D01*
X7658996Y23027331D01*
X7631219Y23081848D01*
X7630000Y23097335D01*
X7630000Y24213247D01*
X7629998Y24213259D01*
X7627211Y24227269D01*
X7618367Y24271731D01*
X7574052Y24338052D01*
X7574048Y24338055D01*
X7507733Y24382366D01*
X7507731Y24382367D01*
X7507728Y24382368D01*
X7507727Y24382368D01*
X7449258Y24393999D01*
X7449248Y24394000D01*
X6520752Y24394000D01*
X6520751Y24394000D01*
X6520741Y24393999D01*
X6462272Y24382368D01*
X6462266Y24382366D01*
X6395951Y24338055D01*
X6395945Y24338049D01*
X6351634Y24271734D01*
X6351632Y24271728D01*
X6340001Y24213259D01*
X6340000Y24213247D01*
X6340000Y22934335D01*
X6321093Y22876144D01*
X6271593Y22840180D01*
X6210407Y22840180D01*
X6170996Y22864332D01*
X5753996Y23281333D01*
X5726219Y23335849D01*
X5725000Y23351336D01*
X5725000Y24213247D01*
X5724998Y24213259D01*
X5722211Y24227269D01*
X5713367Y24271731D01*
X5669052Y24338052D01*
X5669048Y24338055D01*
X5602733Y24382366D01*
X5602731Y24382367D01*
X5602728Y24382368D01*
X5602727Y24382368D01*
X5544258Y24393999D01*
X5544248Y24394000D01*
X4615752Y24394000D01*
X4615751Y24394000D01*
X4615741Y24393999D01*
X4557272Y24382368D01*
X4557266Y24382366D01*
X4490951Y24338055D01*
X4490945Y24338049D01*
X4446634Y24271734D01*
X4446632Y24271728D01*
X4435001Y24213259D01*
X4435000Y24213247D01*
X4435000Y22776754D01*
X4435001Y22776742D01*
X4446632Y22718273D01*
X4446634Y22718267D01*
X4488399Y22655763D01*
X4490948Y22651948D01*
X4557269Y22607633D01*
X4601731Y22598789D01*
X4615741Y22596002D01*
X4615746Y22596002D01*
X4615752Y22596000D01*
X5477666Y22596000D01*
X5535857Y22577093D01*
X5547670Y22567004D01*
X6225169Y21889504D01*
X6252946Y21834987D01*
X6243375Y21774555D01*
X6200110Y21731290D01*
X6155165Y21720500D01*
X5681004Y21720500D01*
X5545672Y21693580D01*
X5545670Y21693580D01*
X5418193Y21640778D01*
X5418182Y21640772D01*
X5303458Y21564115D01*
X5205889Y21466546D01*
X5205886Y21466542D01*
X5129223Y21351810D01*
X5129223Y21351809D01*
X5118919Y21326933D01*
X5079181Y21280408D01*
X5019686Y21266126D01*
X5011970Y21267040D01*
X4990122Y21270500D01*
X4990118Y21270500D01*
X3879882Y21270500D01*
X3879880Y21270500D01*
X3788282Y21255992D01*
X3677881Y21199741D01*
X3590259Y21112119D01*
X3534008Y21001718D01*
X3519500Y20910120D01*
X3519500Y19729881D01*
X-4625500Y19729881D01*
X-4625500Y24846500D01*
X-4606593Y24904691D01*
X-4557093Y24940655D01*
X-4526500Y24945500D01*
X35006500Y24945500D01*
X35064691Y24926593D01*
G37*
%TD.AperFunction*%
%TD*%
M02*
