%TF.GenerationSoftware,KiCad,Pcbnew,7.0.5.1-1-g8f565ef7f0-dirty-deb11*%
%TF.CreationDate,2023-07-20T11:53:13+00:00*%
%TF.ProjectId,USB232R02,55534232-3332-4523-9032-2e6b69636164,rev?*%
%TF.SameCoordinates,PX7f790e8PY698c050*%
%TF.FileFunction,Legend,Bot*%
%TF.FilePolarity,Positive*%
%FSLAX46Y46*%
G04 Gerber Fmt 4.6, Leading zero omitted, Abs format (unit mm)*
G04 Created by KiCad (PCBNEW 7.0.5.1-1-g8f565ef7f0-dirty-deb11) date 2023-07-20 11:53:13*
%MOMM*%
%LPD*%
G01*
G04 APERTURE LIST*
%ADD10C,0.150000*%
%ADD11C,0.304800*%
%ADD12C,0.120000*%
G04 APERTURE END LIST*
D10*
%TO.C,U2*%
X21989819Y10035905D02*
X22799342Y10035905D01*
X22799342Y10035905D02*
X22894580Y9988286D01*
X22894580Y9988286D02*
X22942200Y9940667D01*
X22942200Y9940667D02*
X22989819Y9845429D01*
X22989819Y9845429D02*
X22989819Y9654953D01*
X22989819Y9654953D02*
X22942200Y9559715D01*
X22942200Y9559715D02*
X22894580Y9512096D01*
X22894580Y9512096D02*
X22799342Y9464477D01*
X22799342Y9464477D02*
X21989819Y9464477D01*
X22085057Y9035905D02*
X22037438Y8988286D01*
X22037438Y8988286D02*
X21989819Y8893048D01*
X21989819Y8893048D02*
X21989819Y8654953D01*
X21989819Y8654953D02*
X22037438Y8559715D01*
X22037438Y8559715D02*
X22085057Y8512096D01*
X22085057Y8512096D02*
X22180295Y8464477D01*
X22180295Y8464477D02*
X22275533Y8464477D01*
X22275533Y8464477D02*
X22418390Y8512096D01*
X22418390Y8512096D02*
X22989819Y9083524D01*
X22989819Y9083524D02*
X22989819Y8464477D01*
%TO.C,U1*%
X13796904Y17419181D02*
X13796904Y16609658D01*
X13796904Y16609658D02*
X13749285Y16514420D01*
X13749285Y16514420D02*
X13701666Y16466800D01*
X13701666Y16466800D02*
X13606428Y16419181D01*
X13606428Y16419181D02*
X13415952Y16419181D01*
X13415952Y16419181D02*
X13320714Y16466800D01*
X13320714Y16466800D02*
X13273095Y16514420D01*
X13273095Y16514420D02*
X13225476Y16609658D01*
X13225476Y16609658D02*
X13225476Y17419181D01*
X12225476Y16419181D02*
X12796904Y16419181D01*
X12511190Y16419181D02*
X12511190Y17419181D01*
X12511190Y17419181D02*
X12606428Y17276324D01*
X12606428Y17276324D02*
X12701666Y17181086D01*
X12701666Y17181086D02*
X12796904Y17133467D01*
%TO.C,C5*%
X24725333Y9376581D02*
X24677714Y9424200D01*
X24677714Y9424200D02*
X24534857Y9471820D01*
X24534857Y9471820D02*
X24439619Y9471820D01*
X24439619Y9471820D02*
X24296762Y9424200D01*
X24296762Y9424200D02*
X24201524Y9328962D01*
X24201524Y9328962D02*
X24153905Y9233724D01*
X24153905Y9233724D02*
X24106286Y9043248D01*
X24106286Y9043248D02*
X24106286Y8900391D01*
X24106286Y8900391D02*
X24153905Y8709915D01*
X24153905Y8709915D02*
X24201524Y8614677D01*
X24201524Y8614677D02*
X24296762Y8519439D01*
X24296762Y8519439D02*
X24439619Y8471820D01*
X24439619Y8471820D02*
X24534857Y8471820D01*
X24534857Y8471820D02*
X24677714Y8519439D01*
X24677714Y8519439D02*
X24725333Y8567058D01*
X25630095Y8471820D02*
X25153905Y8471820D01*
X25153905Y8471820D02*
X25106286Y8948010D01*
X25106286Y8948010D02*
X25153905Y8900391D01*
X25153905Y8900391D02*
X25249143Y8852772D01*
X25249143Y8852772D02*
X25487238Y8852772D01*
X25487238Y8852772D02*
X25582476Y8900391D01*
X25582476Y8900391D02*
X25630095Y8948010D01*
X25630095Y8948010D02*
X25677714Y9043248D01*
X25677714Y9043248D02*
X25677714Y9281343D01*
X25677714Y9281343D02*
X25630095Y9376581D01*
X25630095Y9376581D02*
X25582476Y9424200D01*
X25582476Y9424200D02*
X25487238Y9471820D01*
X25487238Y9471820D02*
X25249143Y9471820D01*
X25249143Y9471820D02*
X25153905Y9424200D01*
X25153905Y9424200D02*
X25106286Y9376581D01*
%TO.C,D1*%
X-180181Y7850095D02*
X-1180181Y7850095D01*
X-1180181Y7850095D02*
X-1180181Y7612000D01*
X-1180181Y7612000D02*
X-1132562Y7469143D01*
X-1132562Y7469143D02*
X-1037324Y7373905D01*
X-1037324Y7373905D02*
X-942086Y7326286D01*
X-942086Y7326286D02*
X-751610Y7278667D01*
X-751610Y7278667D02*
X-608753Y7278667D01*
X-608753Y7278667D02*
X-418277Y7326286D01*
X-418277Y7326286D02*
X-323039Y7373905D01*
X-323039Y7373905D02*
X-227800Y7469143D01*
X-227800Y7469143D02*
X-180181Y7612000D01*
X-180181Y7612000D02*
X-180181Y7850095D01*
X-180181Y6326286D02*
X-180181Y6897714D01*
X-180181Y6612000D02*
X-1180181Y6612000D01*
X-1180181Y6612000D02*
X-1037324Y6707238D01*
X-1037324Y6707238D02*
X-942086Y6802476D01*
X-942086Y6802476D02*
X-894467Y6897714D01*
D11*
%TO.C,F1*%
X3725895Y11782000D02*
X3725895Y12290000D01*
X4524181Y12290000D02*
X3000181Y12290000D01*
X3000181Y12290000D02*
X3000181Y11564286D01*
X4524181Y10185429D02*
X4524181Y11056286D01*
X4524181Y10620857D02*
X3000181Y10620857D01*
X3000181Y10620857D02*
X3217895Y10766000D01*
X3217895Y10766000D02*
X3363038Y10911143D01*
X3363038Y10911143D02*
X3435610Y11056286D01*
D10*
%TO.C,JP1*%
X21657819Y6914334D02*
X22372104Y6914334D01*
X22372104Y6914334D02*
X22514961Y6961953D01*
X22514961Y6961953D02*
X22610200Y7057191D01*
X22610200Y7057191D02*
X22657819Y7200048D01*
X22657819Y7200048D02*
X22657819Y7295286D01*
X22657819Y6438143D02*
X21657819Y6438143D01*
X21657819Y6438143D02*
X21657819Y6057191D01*
X21657819Y6057191D02*
X21705438Y5961953D01*
X21705438Y5961953D02*
X21753057Y5914334D01*
X21753057Y5914334D02*
X21848295Y5866715D01*
X21848295Y5866715D02*
X21991152Y5866715D01*
X21991152Y5866715D02*
X22086390Y5914334D01*
X22086390Y5914334D02*
X22134009Y5961953D01*
X22134009Y5961953D02*
X22181628Y6057191D01*
X22181628Y6057191D02*
X22181628Y6438143D01*
X22657819Y4914334D02*
X22657819Y5485762D01*
X22657819Y5200048D02*
X21657819Y5200048D01*
X21657819Y5200048D02*
X21800676Y5295286D01*
X21800676Y5295286D02*
X21895914Y5390524D01*
X21895914Y5390524D02*
X21943533Y5485762D01*
%TO.C,R3*%
X4508500Y24257000D02*
X4508500Y22733000D01*
D12*
X5651500Y24257000D02*
X6413500Y24257000D01*
X5651500Y22733000D02*
X6413500Y22733000D01*
D10*
X7556500Y22733000D02*
X7556500Y24257000D01*
%TO.C,C3*%
X15098000Y14372500D02*
X16622000Y14372500D01*
D12*
X15098000Y15515500D02*
X15098000Y16277500D01*
X16622000Y15515500D02*
X16622000Y16277500D01*
D10*
X16622000Y17420500D02*
X15098000Y17420500D01*
%TO.C,FB1*%
X127000Y12636500D02*
X-1397000Y12636500D01*
D12*
X127000Y11493500D02*
X127000Y10731500D01*
X-1397000Y11493500D02*
X-1397000Y10731500D01*
D10*
X-1397000Y9588500D02*
X127000Y9588500D01*
%TO.C,C1*%
X-63500Y13843000D02*
X-63500Y15367000D01*
D12*
X-1206500Y13843000D02*
X-1968500Y13843000D01*
X-1206500Y15367000D02*
X-1968500Y15367000D01*
D10*
X-3111500Y15367000D02*
X-3111500Y13843000D01*
%TO.C,R2*%
X24447500Y17145000D02*
X24447500Y15621000D01*
D12*
X25590500Y17145000D02*
X26352500Y17145000D01*
X25590500Y15621000D02*
X26352500Y15621000D01*
D10*
X27495500Y15621000D02*
X27495500Y17145000D01*
D12*
%TO.C,U2*%
X17575000Y9320000D02*
X18300000Y9320000D01*
X17575000Y10045000D02*
X17575000Y9320000D01*
X21795000Y10045000D02*
X21795000Y9320000D01*
X17575000Y12815000D02*
X17575000Y13540000D01*
X21795000Y12815000D02*
X21795000Y13540000D01*
X17575000Y13540000D02*
X18300000Y13540000D01*
X21795000Y13540000D02*
X21070000Y13540000D01*
D10*
%TO.C,R1*%
X20891500Y17145000D02*
X20891500Y15621000D01*
D12*
X22034500Y17145000D02*
X22796500Y17145000D01*
X22034500Y15621000D02*
X22796500Y15621000D01*
D10*
X23939500Y15621000D02*
X23939500Y17145000D01*
%TO.C,C4*%
X20383500Y15621000D02*
X20383500Y17145000D01*
D12*
X19240500Y15621000D02*
X18478500Y15621000D01*
X19240500Y17145000D02*
X18478500Y17145000D01*
D10*
X17335500Y17145000D02*
X17335500Y15621000D01*
D12*
%TO.C,U1*%
X11562500Y13045000D02*
X12362500Y13045000D01*
X11562500Y13045000D02*
X10762500Y13045000D01*
X11562500Y16165000D02*
X13362500Y16165000D01*
X11562500Y16165000D02*
X10762500Y16165000D01*
D10*
%TO.C,C2*%
X-3937000Y9588500D02*
X-2413000Y9588500D01*
D12*
X-3937000Y10731500D02*
X-3937000Y11493500D01*
X-2413000Y10731500D02*
X-2413000Y11493500D01*
D10*
X-2413000Y12636500D02*
X-3937000Y12636500D01*
%TO.C,C5*%
X26416000Y8255000D02*
X26416000Y9779000D01*
D12*
X25273000Y8255000D02*
X24511000Y8255000D01*
X25273000Y9779000D02*
X24511000Y9779000D01*
D10*
X23368000Y9779000D02*
X23368000Y8255000D01*
D12*
%TO.C,D1*%
X2780000Y5335000D02*
X-2730000Y5335000D01*
X2780000Y8635000D02*
X2780000Y5335000D01*
X2780000Y8635000D02*
X-2730000Y8635000D01*
D10*
%TO.C,F1*%
X4908000Y9652000D02*
X2622000Y9652000D01*
X4908000Y13208000D02*
X2622000Y13208000D01*
D12*
%TO.C,JP1*%
X24303000Y7481000D02*
X23703000Y7481000D01*
X23003000Y6781000D02*
X23003000Y5381000D01*
X25003000Y5381000D02*
X25003000Y6781000D01*
X23703000Y4681000D02*
X24303000Y4681000D01*
X25003000Y6781000D02*
G75*
G03*
X24303000Y7481000I-699999J1D01*
G01*
X23703000Y7481000D02*
G75*
G03*
X23003000Y6781000I-1J-699999D01*
G01*
X24303000Y4681000D02*
G75*
G03*
X25003000Y5381000I0J700000D01*
G01*
X23003000Y5381000D02*
G75*
G03*
X23703000Y4681000I700000J0D01*
G01*
D10*
%TO.C,R4*%
X8359000Y-3688000D02*
X8359000Y-2164000D01*
D12*
X7216000Y-3688000D02*
X6454000Y-3688000D01*
X7216000Y-2164000D02*
X6454000Y-2164000D01*
D10*
X5311000Y-2164000D02*
X5311000Y-3688000D01*
%TD*%
M02*
