%TF.GenerationSoftware,KiCad,Pcbnew,7.0.5.1-1-g8f565ef7f0-dirty-deb11*%
%TF.CreationDate,2023-07-07T17:30:52+00:00*%
%TF.ProjectId,USB232R02,55534232-3332-4523-9032-2e6b69636164,rev?*%
%TF.SameCoordinates,PX7f790e8PY698c050*%
%TF.FileFunction,Legend,Top*%
%TF.FilePolarity,Positive*%
%FSLAX46Y46*%
G04 Gerber Fmt 4.6, Leading zero omitted, Abs format (unit mm)*
G04 Created by KiCad (PCBNEW 7.0.5.1-1-g8f565ef7f0-dirty-deb11) date 2023-07-07 17:30:52*
%MOMM*%
%LPD*%
G01*
G04 APERTURE LIST*
%ADD10C,0.200000*%
%ADD11C,0.150000*%
%ADD12C,0.120000*%
%ADD13C,0.300000*%
%ADD14R,1.524000X1.524000*%
G04 APERTURE END LIST*
D10*
X5535000Y22874000D02*
X4235000Y22874000D01*
X34685000Y12674000D02*
X33385000Y12674000D01*
X33385000Y15274000D02*
X34685000Y15274000D01*
X4635000Y23274000D02*
X4235000Y22874000D01*
X8185000Y-2526000D02*
X7785000Y-2926000D01*
X33385000Y12674000D02*
X33785000Y12274000D01*
X8185000Y-2526000D02*
X7785000Y-2126000D01*
D11*
X17907000Y3429000D02*
X21844000Y3429000D01*
D10*
X4235000Y22874000D02*
X4635000Y22474000D01*
D12*
X33785000Y13074000D02*
X33385000Y12674000D01*
D10*
X33385000Y12674000D02*
X33785000Y13074000D01*
D11*
X17907000Y7493000D02*
X17907000Y3429000D01*
D12*
X4235000Y22874000D02*
X4635000Y23274000D01*
D11*
X21844000Y5461000D02*
X17907000Y5461000D01*
D10*
X6885000Y-2526000D02*
X8185000Y-2526000D01*
D11*
X21844000Y3429000D02*
X21844000Y7493000D01*
D10*
X34685000Y15274000D02*
X34285000Y14874000D01*
D12*
X34285000Y14874000D02*
X34685000Y15274000D01*
D11*
X21844000Y7493000D02*
X17907000Y7493000D01*
X19875500Y7493000D02*
X19875500Y3429000D01*
D12*
X7785000Y-2926000D02*
X8185000Y-2526000D01*
D10*
X34685000Y15274000D02*
X34285000Y15674000D01*
X23135661Y17400803D02*
X23135661Y16472232D01*
X23692804Y17029375D02*
X22021376Y17400803D01*
X22578519Y16596042D02*
X22578519Y17524613D01*
X22021376Y16967470D02*
X23692804Y16596042D01*
X22268995Y16038899D02*
X23568995Y16038899D01*
X23568995Y16038899D02*
X23568995Y15729375D01*
X23568995Y15729375D02*
X23507090Y15543661D01*
X23507090Y15543661D02*
X23383280Y15419851D01*
X23383280Y15419851D02*
X23259471Y15357946D01*
X23259471Y15357946D02*
X23011852Y15296042D01*
X23011852Y15296042D02*
X22826138Y15296042D01*
X22826138Y15296042D02*
X22578519Y15357946D01*
X22578519Y15357946D02*
X22454709Y15419851D01*
X22454709Y15419851D02*
X22330900Y15543661D01*
X22330900Y15543661D02*
X22268995Y15729375D01*
X22268995Y15729375D02*
X22268995Y16038899D01*
X23568995Y14924613D02*
X23568995Y14181756D01*
X22268995Y14553184D02*
X23568995Y14553184D01*
X22268995Y13005566D02*
X22888042Y13438899D01*
X22268995Y13748423D02*
X23568995Y13748423D01*
X23568995Y13748423D02*
X23568995Y13253185D01*
X23568995Y13253185D02*
X23507090Y13129375D01*
X23507090Y13129375D02*
X23445185Y13067470D01*
X23445185Y13067470D02*
X23321376Y13005566D01*
X23321376Y13005566D02*
X23135661Y13005566D01*
X23135661Y13005566D02*
X23011852Y13067470D01*
X23011852Y13067470D02*
X22949947Y13129375D01*
X22949947Y13129375D02*
X22888042Y13253185D01*
X22888042Y13253185D02*
X22888042Y13748423D01*
X23122470Y7895662D02*
X24051041Y7895662D01*
X23493898Y8452805D02*
X23122470Y6781377D01*
X23927231Y7338520D02*
X22998660Y7338520D01*
X23555803Y6781377D02*
X23927231Y8452805D01*
X25227231Y7028996D02*
X24793898Y7648043D01*
X24484374Y7028996D02*
X24484374Y8328996D01*
X24484374Y8328996D02*
X24979612Y8328996D01*
X24979612Y8328996D02*
X25103422Y8267091D01*
X25103422Y8267091D02*
X25165327Y8205186D01*
X25165327Y8205186D02*
X25227231Y8081377D01*
X25227231Y8081377D02*
X25227231Y7895662D01*
X25227231Y7895662D02*
X25165327Y7771853D01*
X25165327Y7771853D02*
X25103422Y7709948D01*
X25103422Y7709948D02*
X24979612Y7648043D01*
X24979612Y7648043D02*
X24484374Y7648043D01*
X25598660Y8328996D02*
X26341517Y8328996D01*
X25970089Y7028996D02*
X25970089Y8328996D01*
X26712946Y7090900D02*
X26898660Y7028996D01*
X26898660Y7028996D02*
X27208184Y7028996D01*
X27208184Y7028996D02*
X27331993Y7090900D01*
X27331993Y7090900D02*
X27393898Y7152805D01*
X27393898Y7152805D02*
X27455803Y7276615D01*
X27455803Y7276615D02*
X27455803Y7400424D01*
X27455803Y7400424D02*
X27393898Y7524234D01*
X27393898Y7524234D02*
X27331993Y7586139D01*
X27331993Y7586139D02*
X27208184Y7648043D01*
X27208184Y7648043D02*
X26960565Y7709948D01*
X26960565Y7709948D02*
X26836755Y7771853D01*
X26836755Y7771853D02*
X26774850Y7833758D01*
X26774850Y7833758D02*
X26712946Y7957567D01*
X26712946Y7957567D02*
X26712946Y8081377D01*
X26712946Y8081377D02*
X26774850Y8205186D01*
X26774850Y8205186D02*
X26836755Y8267091D01*
X26836755Y8267091D02*
X26960565Y8328996D01*
X26960565Y8328996D02*
X27270088Y8328996D01*
X27270088Y8328996D02*
X27455803Y8267091D01*
X27418995Y16230476D02*
X27418995Y15487619D01*
X26118995Y15859047D02*
X27418995Y15859047D01*
X27418995Y15178095D02*
X26118995Y14311429D01*
X27418995Y14311429D02*
X26118995Y15178095D01*
X18264380Y8102805D02*
X18202476Y8040900D01*
X18202476Y8040900D02*
X18016761Y7978996D01*
X18016761Y7978996D02*
X17892952Y7978996D01*
X17892952Y7978996D02*
X17707238Y8040900D01*
X17707238Y8040900D02*
X17583428Y8164710D01*
X17583428Y8164710D02*
X17521523Y8288520D01*
X17521523Y8288520D02*
X17459619Y8536139D01*
X17459619Y8536139D02*
X17459619Y8721853D01*
X17459619Y8721853D02*
X17521523Y8969472D01*
X17521523Y8969472D02*
X17583428Y9093281D01*
X17583428Y9093281D02*
X17707238Y9217091D01*
X17707238Y9217091D02*
X17892952Y9278996D01*
X17892952Y9278996D02*
X18016761Y9278996D01*
X18016761Y9278996D02*
X18202476Y9217091D01*
X18202476Y9217091D02*
X18264380Y9155186D01*
X19254857Y8659948D02*
X19440571Y8598043D01*
X19440571Y8598043D02*
X19502476Y8536139D01*
X19502476Y8536139D02*
X19564380Y8412329D01*
X19564380Y8412329D02*
X19564380Y8226615D01*
X19564380Y8226615D02*
X19502476Y8102805D01*
X19502476Y8102805D02*
X19440571Y8040900D01*
X19440571Y8040900D02*
X19316761Y7978996D01*
X19316761Y7978996D02*
X18821523Y7978996D01*
X18821523Y7978996D02*
X18821523Y9278996D01*
X18821523Y9278996D02*
X19254857Y9278996D01*
X19254857Y9278996D02*
X19378666Y9217091D01*
X19378666Y9217091D02*
X19440571Y9155186D01*
X19440571Y9155186D02*
X19502476Y9031377D01*
X19502476Y9031377D02*
X19502476Y8907567D01*
X19502476Y8907567D02*
X19440571Y8783758D01*
X19440571Y8783758D02*
X19378666Y8721853D01*
X19378666Y8721853D02*
X19254857Y8659948D01*
X19254857Y8659948D02*
X18821523Y8659948D01*
X20121523Y9278996D02*
X20121523Y8226615D01*
X20121523Y8226615D02*
X20183428Y8102805D01*
X20183428Y8102805D02*
X20245333Y8040900D01*
X20245333Y8040900D02*
X20369142Y7978996D01*
X20369142Y7978996D02*
X20616761Y7978996D01*
X20616761Y7978996D02*
X20740571Y8040900D01*
X20740571Y8040900D02*
X20802476Y8102805D01*
X20802476Y8102805D02*
X20864380Y8226615D01*
X20864380Y8226615D02*
X20864380Y9278996D01*
X21421524Y8040900D02*
X21607238Y7978996D01*
X21607238Y7978996D02*
X21916762Y7978996D01*
X21916762Y7978996D02*
X22040571Y8040900D01*
X22040571Y8040900D02*
X22102476Y8102805D01*
X22102476Y8102805D02*
X22164381Y8226615D01*
X22164381Y8226615D02*
X22164381Y8350424D01*
X22164381Y8350424D02*
X22102476Y8474234D01*
X22102476Y8474234D02*
X22040571Y8536139D01*
X22040571Y8536139D02*
X21916762Y8598043D01*
X21916762Y8598043D02*
X21669143Y8659948D01*
X21669143Y8659948D02*
X21545333Y8721853D01*
X21545333Y8721853D02*
X21483428Y8783758D01*
X21483428Y8783758D02*
X21421524Y8907567D01*
X21421524Y8907567D02*
X21421524Y9031377D01*
X21421524Y9031377D02*
X21483428Y9155186D01*
X21483428Y9155186D02*
X21545333Y9217091D01*
X21545333Y9217091D02*
X21669143Y9278996D01*
X21669143Y9278996D02*
X21978666Y9278996D01*
X21978666Y9278996D02*
X22164381Y9217091D01*
X19069143Y5885996D02*
X18326286Y5885996D01*
X18697714Y5885996D02*
X18697714Y7185996D01*
X18697714Y7185996D02*
X18573905Y7000281D01*
X18573905Y7000281D02*
X18450095Y6876472D01*
X18450095Y6876472D02*
X18326286Y6814567D01*
X20864380Y7185996D02*
X20988190Y7185996D01*
X20988190Y7185996D02*
X21111999Y7124091D01*
X21111999Y7124091D02*
X21173904Y7062186D01*
X21173904Y7062186D02*
X21235809Y6938377D01*
X21235809Y6938377D02*
X21297714Y6690758D01*
X21297714Y6690758D02*
X21297714Y6381234D01*
X21297714Y6381234D02*
X21235809Y6133615D01*
X21235809Y6133615D02*
X21173904Y6009805D01*
X21173904Y6009805D02*
X21111999Y5947900D01*
X21111999Y5947900D02*
X20988190Y5885996D01*
X20988190Y5885996D02*
X20864380Y5885996D01*
X20864380Y5885996D02*
X20740571Y5947900D01*
X20740571Y5947900D02*
X20678666Y6009805D01*
X20678666Y6009805D02*
X20616761Y6133615D01*
X20616761Y6133615D02*
X20554857Y6381234D01*
X20554857Y6381234D02*
X20554857Y6690758D01*
X20554857Y6690758D02*
X20616761Y6938377D01*
X20616761Y6938377D02*
X20678666Y7062186D01*
X20678666Y7062186D02*
X20740571Y7124091D01*
X20740571Y7124091D02*
X20864380Y7185996D01*
X18326286Y4969186D02*
X18388190Y5031091D01*
X18388190Y5031091D02*
X18512000Y5092996D01*
X18512000Y5092996D02*
X18821524Y5092996D01*
X18821524Y5092996D02*
X18945333Y5031091D01*
X18945333Y5031091D02*
X19007238Y4969186D01*
X19007238Y4969186D02*
X19069143Y4845377D01*
X19069143Y4845377D02*
X19069143Y4721567D01*
X19069143Y4721567D02*
X19007238Y4535853D01*
X19007238Y4535853D02*
X18264381Y3792996D01*
X18264381Y3792996D02*
X19069143Y3792996D01*
X20492952Y5092996D02*
X21297714Y5092996D01*
X21297714Y5092996D02*
X20864380Y4597758D01*
X20864380Y4597758D02*
X21050095Y4597758D01*
X21050095Y4597758D02*
X21173904Y4535853D01*
X21173904Y4535853D02*
X21235809Y4473948D01*
X21235809Y4473948D02*
X21297714Y4350139D01*
X21297714Y4350139D02*
X21297714Y4040615D01*
X21297714Y4040615D02*
X21235809Y3916805D01*
X21235809Y3916805D02*
X21173904Y3854900D01*
X21173904Y3854900D02*
X21050095Y3792996D01*
X21050095Y3792996D02*
X20678666Y3792996D01*
X20678666Y3792996D02*
X20554857Y3854900D01*
X20554857Y3854900D02*
X20492952Y3916805D01*
X25643995Y17524613D02*
X24343995Y17091280D01*
X24343995Y17091280D02*
X25643995Y16657946D01*
X24343995Y16224613D02*
X25643995Y16224613D01*
X25643995Y15357946D02*
X25643995Y15110327D01*
X25643995Y15110327D02*
X25582090Y14986517D01*
X25582090Y14986517D02*
X25458280Y14862708D01*
X25458280Y14862708D02*
X25210661Y14800803D01*
X25210661Y14800803D02*
X24777328Y14800803D01*
X24777328Y14800803D02*
X24529709Y14862708D01*
X24529709Y14862708D02*
X24405900Y14986517D01*
X24405900Y14986517D02*
X24343995Y15110327D01*
X24343995Y15110327D02*
X24343995Y15357946D01*
X24343995Y15357946D02*
X24405900Y15481755D01*
X24405900Y15481755D02*
X24529709Y15605565D01*
X24529709Y15605565D02*
X24777328Y15667469D01*
X24777328Y15667469D02*
X25210661Y15667469D01*
X25210661Y15667469D02*
X25458280Y15605565D01*
X25458280Y15605565D02*
X25582090Y15481755D01*
X25582090Y15481755D02*
X25643995Y15357946D01*
X13722381Y-3101004D02*
X13103333Y-3101004D01*
X13103333Y-3101004D02*
X13041429Y-3720052D01*
X13041429Y-3720052D02*
X13103333Y-3658147D01*
X13103333Y-3658147D02*
X13227143Y-3596242D01*
X13227143Y-3596242D02*
X13536667Y-3596242D01*
X13536667Y-3596242D02*
X13660476Y-3658147D01*
X13660476Y-3658147D02*
X13722381Y-3720052D01*
X13722381Y-3720052D02*
X13784286Y-3843861D01*
X13784286Y-3843861D02*
X13784286Y-4153385D01*
X13784286Y-4153385D02*
X13722381Y-4277195D01*
X13722381Y-4277195D02*
X13660476Y-4339100D01*
X13660476Y-4339100D02*
X13536667Y-4401004D01*
X13536667Y-4401004D02*
X13227143Y-4401004D01*
X13227143Y-4401004D02*
X13103333Y-4339100D01*
X13103333Y-4339100D02*
X13041429Y-4277195D01*
X14155714Y-3101004D02*
X14589047Y-4401004D01*
X14589047Y-4401004D02*
X15022381Y-3101004D01*
X26118995Y12940667D02*
X26738042Y13374000D01*
X26118995Y13683524D02*
X27418995Y13683524D01*
X27418995Y13683524D02*
X27418995Y13188286D01*
X27418995Y13188286D02*
X27357090Y13064476D01*
X27357090Y13064476D02*
X27295185Y13002571D01*
X27295185Y13002571D02*
X27171376Y12940667D01*
X27171376Y12940667D02*
X26985661Y12940667D01*
X26985661Y12940667D02*
X26861852Y13002571D01*
X26861852Y13002571D02*
X26799947Y13064476D01*
X26799947Y13064476D02*
X26738042Y13188286D01*
X26738042Y13188286D02*
X26738042Y13683524D01*
X27418995Y12507333D02*
X26118995Y11640667D01*
X27418995Y11640667D02*
X26118995Y12507333D01*
X18055661Y17400803D02*
X18055661Y16472232D01*
X18612804Y17029375D02*
X16941376Y17400803D01*
X17498519Y16596042D02*
X17498519Y17524613D01*
X16941376Y16967470D02*
X18612804Y16596042D01*
X17188995Y16038899D02*
X18488995Y16038899D01*
X18488995Y16038899D02*
X18488995Y15729375D01*
X18488995Y15729375D02*
X18427090Y15543661D01*
X18427090Y15543661D02*
X18303280Y15419851D01*
X18303280Y15419851D02*
X18179471Y15357946D01*
X18179471Y15357946D02*
X17931852Y15296042D01*
X17931852Y15296042D02*
X17746138Y15296042D01*
X17746138Y15296042D02*
X17498519Y15357946D01*
X17498519Y15357946D02*
X17374709Y15419851D01*
X17374709Y15419851D02*
X17250900Y15543661D01*
X17250900Y15543661D02*
X17188995Y15729375D01*
X17188995Y15729375D02*
X17188995Y16038899D01*
X17250900Y14800803D02*
X17188995Y14615089D01*
X17188995Y14615089D02*
X17188995Y14305565D01*
X17188995Y14305565D02*
X17250900Y14181756D01*
X17250900Y14181756D02*
X17312804Y14119851D01*
X17312804Y14119851D02*
X17436614Y14057946D01*
X17436614Y14057946D02*
X17560423Y14057946D01*
X17560423Y14057946D02*
X17684233Y14119851D01*
X17684233Y14119851D02*
X17746138Y14181756D01*
X17746138Y14181756D02*
X17808042Y14305565D01*
X17808042Y14305565D02*
X17869947Y14553184D01*
X17869947Y14553184D02*
X17931852Y14676994D01*
X17931852Y14676994D02*
X17993757Y14738899D01*
X17993757Y14738899D02*
X18117566Y14800803D01*
X18117566Y14800803D02*
X18241376Y14800803D01*
X18241376Y14800803D02*
X18365185Y14738899D01*
X18365185Y14738899D02*
X18427090Y14676994D01*
X18427090Y14676994D02*
X18488995Y14553184D01*
X18488995Y14553184D02*
X18488995Y14243661D01*
X18488995Y14243661D02*
X18427090Y14057946D01*
X17188995Y12757947D02*
X17808042Y13191280D01*
X17188995Y13500804D02*
X18488995Y13500804D01*
X18488995Y13500804D02*
X18488995Y13005566D01*
X18488995Y13005566D02*
X18427090Y12881756D01*
X18427090Y12881756D02*
X18365185Y12819851D01*
X18365185Y12819851D02*
X18241376Y12757947D01*
X18241376Y12757947D02*
X18055661Y12757947D01*
X18055661Y12757947D02*
X17931852Y12819851D01*
X17931852Y12819851D02*
X17869947Y12881756D01*
X17869947Y12881756D02*
X17808042Y13005566D01*
X17808042Y13005566D02*
X17808042Y13500804D01*
X24731993Y5721091D02*
X24608183Y5782996D01*
X24608183Y5782996D02*
X24422469Y5782996D01*
X24422469Y5782996D02*
X24236755Y5721091D01*
X24236755Y5721091D02*
X24112945Y5597281D01*
X24112945Y5597281D02*
X24051040Y5473472D01*
X24051040Y5473472D02*
X23989136Y5225853D01*
X23989136Y5225853D02*
X23989136Y5040139D01*
X23989136Y5040139D02*
X24051040Y4792520D01*
X24051040Y4792520D02*
X24112945Y4668710D01*
X24112945Y4668710D02*
X24236755Y4544900D01*
X24236755Y4544900D02*
X24422469Y4482996D01*
X24422469Y4482996D02*
X24546278Y4482996D01*
X24546278Y4482996D02*
X24731993Y4544900D01*
X24731993Y4544900D02*
X24793897Y4606805D01*
X24793897Y4606805D02*
X24793897Y5040139D01*
X24793897Y5040139D02*
X24546278Y5040139D01*
X25351040Y4482996D02*
X25351040Y5782996D01*
X25351040Y5782996D02*
X26093897Y4482996D01*
X26093897Y4482996D02*
X26093897Y5782996D01*
X26712945Y4482996D02*
X26712945Y5782996D01*
X26712945Y5782996D02*
X27022469Y5782996D01*
X27022469Y5782996D02*
X27208183Y5721091D01*
X27208183Y5721091D02*
X27331993Y5597281D01*
X27331993Y5597281D02*
X27393898Y5473472D01*
X27393898Y5473472D02*
X27455802Y5225853D01*
X27455802Y5225853D02*
X27455802Y5040139D01*
X27455802Y5040139D02*
X27393898Y4792520D01*
X27393898Y4792520D02*
X27331993Y4668710D01*
X27331993Y4668710D02*
X27208183Y4544900D01*
X27208183Y4544900D02*
X27022469Y4482996D01*
X27022469Y4482996D02*
X26712945Y4482996D01*
X9692958Y23535805D02*
X9631054Y23473900D01*
X9631054Y23473900D02*
X9445339Y23411996D01*
X9445339Y23411996D02*
X9321530Y23411996D01*
X9321530Y23411996D02*
X9135816Y23473900D01*
X9135816Y23473900D02*
X9012006Y23597710D01*
X9012006Y23597710D02*
X8950101Y23721520D01*
X8950101Y23721520D02*
X8888197Y23969139D01*
X8888197Y23969139D02*
X8888197Y24154853D01*
X8888197Y24154853D02*
X8950101Y24402472D01*
X8950101Y24402472D02*
X9012006Y24526281D01*
X9012006Y24526281D02*
X9135816Y24650091D01*
X9135816Y24650091D02*
X9321530Y24711996D01*
X9321530Y24711996D02*
X9445339Y24711996D01*
X9445339Y24711996D02*
X9631054Y24650091D01*
X9631054Y24650091D02*
X9692958Y24588186D01*
X10683435Y24092948D02*
X10869149Y24031043D01*
X10869149Y24031043D02*
X10931054Y23969139D01*
X10931054Y23969139D02*
X10992958Y23845329D01*
X10992958Y23845329D02*
X10992958Y23659615D01*
X10992958Y23659615D02*
X10931054Y23535805D01*
X10931054Y23535805D02*
X10869149Y23473900D01*
X10869149Y23473900D02*
X10745339Y23411996D01*
X10745339Y23411996D02*
X10250101Y23411996D01*
X10250101Y23411996D02*
X10250101Y24711996D01*
X10250101Y24711996D02*
X10683435Y24711996D01*
X10683435Y24711996D02*
X10807244Y24650091D01*
X10807244Y24650091D02*
X10869149Y24588186D01*
X10869149Y24588186D02*
X10931054Y24464377D01*
X10931054Y24464377D02*
X10931054Y24340567D01*
X10931054Y24340567D02*
X10869149Y24216758D01*
X10869149Y24216758D02*
X10807244Y24154853D01*
X10807244Y24154853D02*
X10683435Y24092948D01*
X10683435Y24092948D02*
X10250101Y24092948D01*
X11550101Y24711996D02*
X11550101Y23659615D01*
X11550101Y23659615D02*
X11612006Y23535805D01*
X11612006Y23535805D02*
X11673911Y23473900D01*
X11673911Y23473900D02*
X11797720Y23411996D01*
X11797720Y23411996D02*
X12045339Y23411996D01*
X12045339Y23411996D02*
X12169149Y23473900D01*
X12169149Y23473900D02*
X12231054Y23535805D01*
X12231054Y23535805D02*
X12292958Y23659615D01*
X12292958Y23659615D02*
X12292958Y24711996D01*
X12850102Y23473900D02*
X13035816Y23411996D01*
X13035816Y23411996D02*
X13345340Y23411996D01*
X13345340Y23411996D02*
X13469149Y23473900D01*
X13469149Y23473900D02*
X13531054Y23535805D01*
X13531054Y23535805D02*
X13592959Y23659615D01*
X13592959Y23659615D02*
X13592959Y23783424D01*
X13592959Y23783424D02*
X13531054Y23907234D01*
X13531054Y23907234D02*
X13469149Y23969139D01*
X13469149Y23969139D02*
X13345340Y24031043D01*
X13345340Y24031043D02*
X13097721Y24092948D01*
X13097721Y24092948D02*
X12973911Y24154853D01*
X12973911Y24154853D02*
X12912006Y24216758D01*
X12912006Y24216758D02*
X12850102Y24340567D01*
X12850102Y24340567D02*
X12850102Y24464377D01*
X12850102Y24464377D02*
X12912006Y24588186D01*
X12912006Y24588186D02*
X12973911Y24650091D01*
X12973911Y24650091D02*
X13097721Y24711996D01*
X13097721Y24711996D02*
X13407244Y24711996D01*
X13407244Y24711996D02*
X13592959Y24650091D01*
X15515661Y17400803D02*
X15515661Y16472232D01*
X16072804Y17029375D02*
X14401376Y17400803D01*
X14958519Y16596042D02*
X14958519Y17524613D01*
X14401376Y16967470D02*
X16072804Y16596042D01*
X14648995Y15296042D02*
X15268042Y15729375D01*
X14648995Y16038899D02*
X15948995Y16038899D01*
X15948995Y16038899D02*
X15948995Y15543661D01*
X15948995Y15543661D02*
X15887090Y15419851D01*
X15887090Y15419851D02*
X15825185Y15357946D01*
X15825185Y15357946D02*
X15701376Y15296042D01*
X15701376Y15296042D02*
X15515661Y15296042D01*
X15515661Y15296042D02*
X15391852Y15357946D01*
X15391852Y15357946D02*
X15329947Y15419851D01*
X15329947Y15419851D02*
X15268042Y15543661D01*
X15268042Y15543661D02*
X15268042Y16038899D01*
X14648995Y14738899D02*
X15948995Y14738899D01*
D13*
X15134195Y13090239D02*
X16434195Y13090239D01*
X16434195Y13090239D02*
X15505623Y12656905D01*
X15505623Y12656905D02*
X16434195Y12223572D01*
X16434195Y12223572D02*
X15134195Y12223572D01*
X15134195Y10985477D02*
X15134195Y11604525D01*
X15134195Y11604525D02*
X16434195Y11604525D01*
X15505623Y10614048D02*
X15505623Y9995001D01*
X15134195Y10737858D02*
X16434195Y10304525D01*
X16434195Y10304525D02*
X15134195Y9871191D01*
X15815147Y9004524D02*
X15753242Y8818810D01*
X15753242Y8818810D02*
X15691338Y8756905D01*
X15691338Y8756905D02*
X15567528Y8695001D01*
X15567528Y8695001D02*
X15381814Y8695001D01*
X15381814Y8695001D02*
X15258004Y8756905D01*
X15258004Y8756905D02*
X15196100Y8818810D01*
X15196100Y8818810D02*
X15134195Y8942620D01*
X15134195Y8942620D02*
X15134195Y9437858D01*
X15134195Y9437858D02*
X16434195Y9437858D01*
X16434195Y9437858D02*
X16434195Y9004524D01*
X16434195Y9004524D02*
X16372290Y8880715D01*
X16372290Y8880715D02*
X16310385Y8818810D01*
X16310385Y8818810D02*
X16186576Y8756905D01*
X16186576Y8756905D02*
X16062766Y8756905D01*
X16062766Y8756905D02*
X15938957Y8818810D01*
X15938957Y8818810D02*
X15877052Y8880715D01*
X15877052Y8880715D02*
X15815147Y9004524D01*
X15815147Y9004524D02*
X15815147Y9437858D01*
X15258004Y8137858D02*
X15196100Y8075953D01*
X15196100Y8075953D02*
X15134195Y8137858D01*
X15134195Y8137858D02*
X15196100Y8199762D01*
X15196100Y8199762D02*
X15258004Y8137858D01*
X15258004Y8137858D02*
X15134195Y8137858D01*
X15258004Y6775953D02*
X15196100Y6837857D01*
X15196100Y6837857D02*
X15134195Y7023572D01*
X15134195Y7023572D02*
X15134195Y7147381D01*
X15134195Y7147381D02*
X15196100Y7333095D01*
X15196100Y7333095D02*
X15319909Y7456905D01*
X15319909Y7456905D02*
X15443719Y7518810D01*
X15443719Y7518810D02*
X15691338Y7580714D01*
X15691338Y7580714D02*
X15877052Y7580714D01*
X15877052Y7580714D02*
X16124671Y7518810D01*
X16124671Y7518810D02*
X16248480Y7456905D01*
X16248480Y7456905D02*
X16372290Y7333095D01*
X16372290Y7333095D02*
X16434195Y7147381D01*
X16434195Y7147381D02*
X16434195Y7023572D01*
X16434195Y7023572D02*
X16372290Y6837857D01*
X16372290Y6837857D02*
X16310385Y6775953D01*
X16434195Y6342619D02*
X16434195Y5475953D01*
X16434195Y5475953D02*
X15134195Y6342619D01*
X15134195Y6342619D02*
X15134195Y5475953D01*
D10*
X21250476Y-3101004D02*
X22055238Y-3101004D01*
X22055238Y-3101004D02*
X21621904Y-3596242D01*
X21621904Y-3596242D02*
X21807619Y-3596242D01*
X21807619Y-3596242D02*
X21931428Y-3658147D01*
X21931428Y-3658147D02*
X21993333Y-3720052D01*
X21993333Y-3720052D02*
X22055238Y-3843861D01*
X22055238Y-3843861D02*
X22055238Y-4153385D01*
X22055238Y-4153385D02*
X21993333Y-4277195D01*
X21993333Y-4277195D02*
X21931428Y-4339100D01*
X21931428Y-4339100D02*
X21807619Y-4401004D01*
X21807619Y-4401004D02*
X21436190Y-4401004D01*
X21436190Y-4401004D02*
X21312381Y-4339100D01*
X21312381Y-4339100D02*
X21250476Y-4277195D01*
X22426666Y-3101004D02*
X22859999Y-4401004D01*
X22859999Y-4401004D02*
X23293333Y-3101004D01*
X23602857Y-3101004D02*
X24407619Y-3101004D01*
X24407619Y-3101004D02*
X23974285Y-3596242D01*
X23974285Y-3596242D02*
X24160000Y-3596242D01*
X24160000Y-3596242D02*
X24283809Y-3658147D01*
X24283809Y-3658147D02*
X24345714Y-3720052D01*
X24345714Y-3720052D02*
X24407619Y-3843861D01*
X24407619Y-3843861D02*
X24407619Y-4153385D01*
X24407619Y-4153385D02*
X24345714Y-4277195D01*
X24345714Y-4277195D02*
X24283809Y-4339100D01*
X24283809Y-4339100D02*
X24160000Y-4401004D01*
X24160000Y-4401004D02*
X23788571Y-4401004D01*
X23788571Y-4401004D02*
X23664762Y-4339100D01*
X23664762Y-4339100D02*
X23602857Y-4277195D01*
X6833333Y22195996D02*
X6400000Y22815043D01*
X6090476Y22195996D02*
X6090476Y23495996D01*
X6090476Y23495996D02*
X6585714Y23495996D01*
X6585714Y23495996D02*
X6709524Y23434091D01*
X6709524Y23434091D02*
X6771429Y23372186D01*
X6771429Y23372186D02*
X6833333Y23248377D01*
X6833333Y23248377D02*
X6833333Y23062662D01*
X6833333Y23062662D02*
X6771429Y22938853D01*
X6771429Y22938853D02*
X6709524Y22876948D01*
X6709524Y22876948D02*
X6585714Y22815043D01*
X6585714Y22815043D02*
X6090476Y22815043D01*
X7266667Y23495996D02*
X8133333Y22195996D01*
X8133333Y23495996D02*
X7266667Y22195996D01*
X4594524Y-1817004D02*
X5337381Y-1817004D01*
X4965953Y-3117004D02*
X4965953Y-1817004D01*
X5646905Y-1817004D02*
X6513571Y-3117004D01*
X6513571Y-1817004D02*
X5646905Y-3117004D01*
X20595661Y17400803D02*
X20595661Y16472232D01*
X21152804Y17029375D02*
X19481376Y17400803D01*
X20038519Y16596042D02*
X20038519Y17524613D01*
X19481376Y16967470D02*
X21152804Y16596042D01*
X19728995Y16038899D02*
X21028995Y16038899D01*
X21028995Y16038899D02*
X21028995Y15729375D01*
X21028995Y15729375D02*
X20967090Y15543661D01*
X20967090Y15543661D02*
X20843280Y15419851D01*
X20843280Y15419851D02*
X20719471Y15357946D01*
X20719471Y15357946D02*
X20471852Y15296042D01*
X20471852Y15296042D02*
X20286138Y15296042D01*
X20286138Y15296042D02*
X20038519Y15357946D01*
X20038519Y15357946D02*
X19914709Y15419851D01*
X19914709Y15419851D02*
X19790900Y15543661D01*
X19790900Y15543661D02*
X19728995Y15729375D01*
X19728995Y15729375D02*
X19728995Y16038899D01*
X19852804Y13996042D02*
X19790900Y14057946D01*
X19790900Y14057946D02*
X19728995Y14243661D01*
X19728995Y14243661D02*
X19728995Y14367470D01*
X19728995Y14367470D02*
X19790900Y14553184D01*
X19790900Y14553184D02*
X19914709Y14676994D01*
X19914709Y14676994D02*
X20038519Y14738899D01*
X20038519Y14738899D02*
X20286138Y14800803D01*
X20286138Y14800803D02*
X20471852Y14800803D01*
X20471852Y14800803D02*
X20719471Y14738899D01*
X20719471Y14738899D02*
X20843280Y14676994D01*
X20843280Y14676994D02*
X20967090Y14553184D01*
X20967090Y14553184D02*
X21028995Y14367470D01*
X21028995Y14367470D02*
X21028995Y14243661D01*
X21028995Y14243661D02*
X20967090Y14057946D01*
X20967090Y14057946D02*
X20905185Y13996042D01*
X19728995Y13438899D02*
X21028995Y13438899D01*
X21028995Y13438899D02*
X21028995Y13129375D01*
X21028995Y13129375D02*
X20967090Y12943661D01*
X20967090Y12943661D02*
X20843280Y12819851D01*
X20843280Y12819851D02*
X20719471Y12757946D01*
X20719471Y12757946D02*
X20471852Y12696042D01*
X20471852Y12696042D02*
X20286138Y12696042D01*
X20286138Y12696042D02*
X20038519Y12757946D01*
X20038519Y12757946D02*
X19914709Y12819851D01*
X19914709Y12819851D02*
X19790900Y12943661D01*
X19790900Y12943661D02*
X19728995Y13129375D01*
X19728995Y13129375D02*
X19728995Y13438899D01*
D13*
X537666Y11920696D02*
X537666Y10992124D01*
X537666Y10992124D02*
X475761Y10806410D01*
X475761Y10806410D02*
X351952Y10682600D01*
X351952Y10682600D02*
X166237Y10620696D01*
X166237Y10620696D02*
X42428Y10620696D01*
X1094809Y10992124D02*
X1713856Y10992124D01*
X970999Y10620696D02*
X1404332Y11920696D01*
X1404332Y11920696D02*
X1837666Y10620696D01*
X3013856Y10744505D02*
X2951952Y10682600D01*
X2951952Y10682600D02*
X2766237Y10620696D01*
X2766237Y10620696D02*
X2642428Y10620696D01*
X2642428Y10620696D02*
X2456714Y10682600D01*
X2456714Y10682600D02*
X2332904Y10806410D01*
X2332904Y10806410D02*
X2270999Y10930220D01*
X2270999Y10930220D02*
X2209095Y11177839D01*
X2209095Y11177839D02*
X2209095Y11363553D01*
X2209095Y11363553D02*
X2270999Y11611172D01*
X2270999Y11611172D02*
X2332904Y11734981D01*
X2332904Y11734981D02*
X2456714Y11858791D01*
X2456714Y11858791D02*
X2642428Y11920696D01*
X2642428Y11920696D02*
X2766237Y11920696D01*
X2766237Y11920696D02*
X2951952Y11858791D01*
X2951952Y11858791D02*
X3013856Y11796886D01*
X3570999Y10620696D02*
X3570999Y11920696D01*
X3570999Y11301648D02*
X4313856Y11301648D01*
X4313856Y10620696D02*
X4313856Y11920696D01*
X5180523Y11920696D02*
X5428142Y11920696D01*
X5428142Y11920696D02*
X5551952Y11858791D01*
X5551952Y11858791D02*
X5675761Y11734981D01*
X5675761Y11734981D02*
X5737666Y11487362D01*
X5737666Y11487362D02*
X5737666Y11054029D01*
X5737666Y11054029D02*
X5675761Y10806410D01*
X5675761Y10806410D02*
X5551952Y10682600D01*
X5551952Y10682600D02*
X5428142Y10620696D01*
X5428142Y10620696D02*
X5180523Y10620696D01*
X5180523Y10620696D02*
X5056714Y10682600D01*
X5056714Y10682600D02*
X4932904Y10806410D01*
X4932904Y10806410D02*
X4871000Y11054029D01*
X4871000Y11054029D02*
X4871000Y11487362D01*
X4871000Y11487362D02*
X4932904Y11734981D01*
X4932904Y11734981D02*
X5056714Y11858791D01*
X5056714Y11858791D02*
X5180523Y11920696D01*
X692429Y9703886D02*
X754333Y9765791D01*
X754333Y9765791D02*
X878143Y9827696D01*
X878143Y9827696D02*
X1187667Y9827696D01*
X1187667Y9827696D02*
X1311476Y9765791D01*
X1311476Y9765791D02*
X1373381Y9703886D01*
X1373381Y9703886D02*
X1435286Y9580077D01*
X1435286Y9580077D02*
X1435286Y9456267D01*
X1435286Y9456267D02*
X1373381Y9270553D01*
X1373381Y9270553D02*
X630524Y8527696D01*
X630524Y8527696D02*
X1435286Y8527696D01*
X2240047Y9827696D02*
X2363857Y9827696D01*
X2363857Y9827696D02*
X2487666Y9765791D01*
X2487666Y9765791D02*
X2549571Y9703886D01*
X2549571Y9703886D02*
X2611476Y9580077D01*
X2611476Y9580077D02*
X2673381Y9332458D01*
X2673381Y9332458D02*
X2673381Y9022934D01*
X2673381Y9022934D02*
X2611476Y8775315D01*
X2611476Y8775315D02*
X2549571Y8651505D01*
X2549571Y8651505D02*
X2487666Y8589600D01*
X2487666Y8589600D02*
X2363857Y8527696D01*
X2363857Y8527696D02*
X2240047Y8527696D01*
X2240047Y8527696D02*
X2116238Y8589600D01*
X2116238Y8589600D02*
X2054333Y8651505D01*
X2054333Y8651505D02*
X1992428Y8775315D01*
X1992428Y8775315D02*
X1930524Y9022934D01*
X1930524Y9022934D02*
X1930524Y9332458D01*
X1930524Y9332458D02*
X1992428Y9580077D01*
X1992428Y9580077D02*
X2054333Y9703886D01*
X2054333Y9703886D02*
X2116238Y9765791D01*
X2116238Y9765791D02*
X2240047Y9827696D01*
X3168619Y9703886D02*
X3230523Y9765791D01*
X3230523Y9765791D02*
X3354333Y9827696D01*
X3354333Y9827696D02*
X3663857Y9827696D01*
X3663857Y9827696D02*
X3787666Y9765791D01*
X3787666Y9765791D02*
X3849571Y9703886D01*
X3849571Y9703886D02*
X3911476Y9580077D01*
X3911476Y9580077D02*
X3911476Y9456267D01*
X3911476Y9456267D02*
X3849571Y9270553D01*
X3849571Y9270553D02*
X3106714Y8527696D01*
X3106714Y8527696D02*
X3911476Y8527696D01*
X4344809Y9827696D02*
X5149571Y9827696D01*
X5149571Y9827696D02*
X4716237Y9332458D01*
X4716237Y9332458D02*
X4901952Y9332458D01*
X4901952Y9332458D02*
X5025761Y9270553D01*
X5025761Y9270553D02*
X5087666Y9208648D01*
X5087666Y9208648D02*
X5149571Y9084839D01*
X5149571Y9084839D02*
X5149571Y8775315D01*
X5149571Y8775315D02*
X5087666Y8651505D01*
X5087666Y8651505D02*
X5025761Y8589600D01*
X5025761Y8589600D02*
X4901952Y8527696D01*
X4901952Y8527696D02*
X4530523Y8527696D01*
X4530523Y8527696D02*
X4406714Y8589600D01*
X4406714Y8589600D02*
X4344809Y8651505D01*
X13884195Y15812857D02*
X12831814Y15812857D01*
X12831814Y15812857D02*
X12708004Y15750952D01*
X12708004Y15750952D02*
X12646100Y15689047D01*
X12646100Y15689047D02*
X12584195Y15565238D01*
X12584195Y15565238D02*
X12584195Y15317619D01*
X12584195Y15317619D02*
X12646100Y15193809D01*
X12646100Y15193809D02*
X12708004Y15131904D01*
X12708004Y15131904D02*
X12831814Y15070000D01*
X12831814Y15070000D02*
X13884195Y15070000D01*
X12646100Y14512856D02*
X12584195Y14327142D01*
X12584195Y14327142D02*
X12584195Y14017618D01*
X12584195Y14017618D02*
X12646100Y13893809D01*
X12646100Y13893809D02*
X12708004Y13831904D01*
X12708004Y13831904D02*
X12831814Y13769999D01*
X12831814Y13769999D02*
X12955623Y13769999D01*
X12955623Y13769999D02*
X13079433Y13831904D01*
X13079433Y13831904D02*
X13141338Y13893809D01*
X13141338Y13893809D02*
X13203242Y14017618D01*
X13203242Y14017618D02*
X13265147Y14265237D01*
X13265147Y14265237D02*
X13327052Y14389047D01*
X13327052Y14389047D02*
X13388957Y14450952D01*
X13388957Y14450952D02*
X13512766Y14512856D01*
X13512766Y14512856D02*
X13636576Y14512856D01*
X13636576Y14512856D02*
X13760385Y14450952D01*
X13760385Y14450952D02*
X13822290Y14389047D01*
X13822290Y14389047D02*
X13884195Y14265237D01*
X13884195Y14265237D02*
X13884195Y13955714D01*
X13884195Y13955714D02*
X13822290Y13769999D01*
X13265147Y12779523D02*
X13203242Y12593809D01*
X13203242Y12593809D02*
X13141338Y12531904D01*
X13141338Y12531904D02*
X13017528Y12470000D01*
X13017528Y12470000D02*
X12831814Y12470000D01*
X12831814Y12470000D02*
X12708004Y12531904D01*
X12708004Y12531904D02*
X12646100Y12593809D01*
X12646100Y12593809D02*
X12584195Y12717619D01*
X12584195Y12717619D02*
X12584195Y13212857D01*
X12584195Y13212857D02*
X13884195Y13212857D01*
X13884195Y13212857D02*
X13884195Y12779523D01*
X13884195Y12779523D02*
X13822290Y12655714D01*
X13822290Y12655714D02*
X13760385Y12593809D01*
X13760385Y12593809D02*
X13636576Y12531904D01*
X13636576Y12531904D02*
X13512766Y12531904D01*
X13512766Y12531904D02*
X13388957Y12593809D01*
X13388957Y12593809D02*
X13327052Y12655714D01*
X13327052Y12655714D02*
X13265147Y12779523D01*
X13265147Y12779523D02*
X13265147Y13212857D01*
X13760385Y11974761D02*
X13822290Y11912857D01*
X13822290Y11912857D02*
X13884195Y11789047D01*
X13884195Y11789047D02*
X13884195Y11479523D01*
X13884195Y11479523D02*
X13822290Y11355714D01*
X13822290Y11355714D02*
X13760385Y11293809D01*
X13760385Y11293809D02*
X13636576Y11231904D01*
X13636576Y11231904D02*
X13512766Y11231904D01*
X13512766Y11231904D02*
X13327052Y11293809D01*
X13327052Y11293809D02*
X12584195Y12036666D01*
X12584195Y12036666D02*
X12584195Y11231904D01*
X13884195Y10798571D02*
X13884195Y9993809D01*
X13884195Y9993809D02*
X13388957Y10427143D01*
X13388957Y10427143D02*
X13388957Y10241428D01*
X13388957Y10241428D02*
X13327052Y10117619D01*
X13327052Y10117619D02*
X13265147Y10055714D01*
X13265147Y10055714D02*
X13141338Y9993809D01*
X13141338Y9993809D02*
X12831814Y9993809D01*
X12831814Y9993809D02*
X12708004Y10055714D01*
X12708004Y10055714D02*
X12646100Y10117619D01*
X12646100Y10117619D02*
X12584195Y10241428D01*
X12584195Y10241428D02*
X12584195Y10612857D01*
X12584195Y10612857D02*
X12646100Y10736666D01*
X12646100Y10736666D02*
X12708004Y10798571D01*
X13760385Y9498571D02*
X13822290Y9436667D01*
X13822290Y9436667D02*
X13884195Y9312857D01*
X13884195Y9312857D02*
X13884195Y9003333D01*
X13884195Y9003333D02*
X13822290Y8879524D01*
X13822290Y8879524D02*
X13760385Y8817619D01*
X13760385Y8817619D02*
X13636576Y8755714D01*
X13636576Y8755714D02*
X13512766Y8755714D01*
X13512766Y8755714D02*
X13327052Y8817619D01*
X13327052Y8817619D02*
X12584195Y9560476D01*
X12584195Y9560476D02*
X12584195Y8755714D01*
X12584195Y7455715D02*
X13203242Y7889048D01*
X12584195Y8198572D02*
X13884195Y8198572D01*
X13884195Y8198572D02*
X13884195Y7703334D01*
X13884195Y7703334D02*
X13822290Y7579524D01*
X13822290Y7579524D02*
X13760385Y7517619D01*
X13760385Y7517619D02*
X13636576Y7455715D01*
X13636576Y7455715D02*
X13450861Y7455715D01*
X13450861Y7455715D02*
X13327052Y7517619D01*
X13327052Y7517619D02*
X13265147Y7579524D01*
X13265147Y7579524D02*
X13203242Y7703334D01*
X13203242Y7703334D02*
X13203242Y8198572D01*
X13884195Y6650953D02*
X13884195Y6527143D01*
X13884195Y6527143D02*
X13822290Y6403334D01*
X13822290Y6403334D02*
X13760385Y6341429D01*
X13760385Y6341429D02*
X13636576Y6279524D01*
X13636576Y6279524D02*
X13388957Y6217619D01*
X13388957Y6217619D02*
X13079433Y6217619D01*
X13079433Y6217619D02*
X12831814Y6279524D01*
X12831814Y6279524D02*
X12708004Y6341429D01*
X12708004Y6341429D02*
X12646100Y6403334D01*
X12646100Y6403334D02*
X12584195Y6527143D01*
X12584195Y6527143D02*
X12584195Y6650953D01*
X12584195Y6650953D02*
X12646100Y6774762D01*
X12646100Y6774762D02*
X12708004Y6836667D01*
X12708004Y6836667D02*
X12831814Y6898572D01*
X12831814Y6898572D02*
X13079433Y6960476D01*
X13079433Y6960476D02*
X13388957Y6960476D01*
X13388957Y6960476D02*
X13636576Y6898572D01*
X13636576Y6898572D02*
X13760385Y6836667D01*
X13760385Y6836667D02*
X13822290Y6774762D01*
X13822290Y6774762D02*
X13884195Y6650953D01*
X13760385Y5722381D02*
X13822290Y5660477D01*
X13822290Y5660477D02*
X13884195Y5536667D01*
X13884195Y5536667D02*
X13884195Y5227143D01*
X13884195Y5227143D02*
X13822290Y5103334D01*
X13822290Y5103334D02*
X13760385Y5041429D01*
X13760385Y5041429D02*
X13636576Y4979524D01*
X13636576Y4979524D02*
X13512766Y4979524D01*
X13512766Y4979524D02*
X13327052Y5041429D01*
X13327052Y5041429D02*
X12584195Y5784286D01*
X12584195Y5784286D02*
X12584195Y4979524D01*
X12955623Y4484286D02*
X12955623Y3865239D01*
X12584195Y4608096D02*
X13884195Y4174763D01*
X13884195Y4174763D02*
X12584195Y3741429D01*
D10*
X23122470Y10424662D02*
X24051041Y10424662D01*
X23493898Y10981805D02*
X23122470Y9310377D01*
X23927231Y9867520D02*
X22998660Y9867520D01*
X23555803Y9310377D02*
X23927231Y10981805D01*
X25227231Y9681805D02*
X25165327Y9619900D01*
X25165327Y9619900D02*
X24979612Y9557996D01*
X24979612Y9557996D02*
X24855803Y9557996D01*
X24855803Y9557996D02*
X24670089Y9619900D01*
X24670089Y9619900D02*
X24546279Y9743710D01*
X24546279Y9743710D02*
X24484374Y9867520D01*
X24484374Y9867520D02*
X24422470Y10115139D01*
X24422470Y10115139D02*
X24422470Y10300853D01*
X24422470Y10300853D02*
X24484374Y10548472D01*
X24484374Y10548472D02*
X24546279Y10672281D01*
X24546279Y10672281D02*
X24670089Y10796091D01*
X24670089Y10796091D02*
X24855803Y10857996D01*
X24855803Y10857996D02*
X24979612Y10857996D01*
X24979612Y10857996D02*
X25165327Y10796091D01*
X25165327Y10796091D02*
X25227231Y10734186D01*
X25598660Y10857996D02*
X26341517Y10857996D01*
X25970089Y9557996D02*
X25970089Y10857996D01*
X26712946Y9619900D02*
X26898660Y9557996D01*
X26898660Y9557996D02*
X27208184Y9557996D01*
X27208184Y9557996D02*
X27331993Y9619900D01*
X27331993Y9619900D02*
X27393898Y9681805D01*
X27393898Y9681805D02*
X27455803Y9805615D01*
X27455803Y9805615D02*
X27455803Y9929424D01*
X27455803Y9929424D02*
X27393898Y10053234D01*
X27393898Y10053234D02*
X27331993Y10115139D01*
X27331993Y10115139D02*
X27208184Y10177043D01*
X27208184Y10177043D02*
X26960565Y10238948D01*
X26960565Y10238948D02*
X26836755Y10300853D01*
X26836755Y10300853D02*
X26774850Y10362758D01*
X26774850Y10362758D02*
X26712946Y10486567D01*
X26712946Y10486567D02*
X26712946Y10610377D01*
X26712946Y10610377D02*
X26774850Y10734186D01*
X26774850Y10734186D02*
X26836755Y10796091D01*
X26836755Y10796091D02*
X26960565Y10857996D01*
X26960565Y10857996D02*
X27270088Y10857996D01*
X27270088Y10857996D02*
X27455803Y10796091D01*
D11*
%TO.C,J1*%
X-3974181Y10334667D02*
X-3259896Y10334667D01*
X-3259896Y10334667D02*
X-3117039Y10287048D01*
X-3117039Y10287048D02*
X-3021800Y10191810D01*
X-3021800Y10191810D02*
X-2974181Y10048953D01*
X-2974181Y10048953D02*
X-2974181Y9953715D01*
X-2974181Y11334667D02*
X-2974181Y10763239D01*
X-2974181Y11048953D02*
X-3974181Y11048953D01*
X-3974181Y11048953D02*
X-3831324Y10953715D01*
X-3831324Y10953715D02*
X-3736086Y10858477D01*
X-3736086Y10858477D02*
X-3688467Y10763239D01*
D12*
X12734000Y8263000D02*
X12734000Y9263000D01*
X12734000Y9263000D02*
X12234000Y8763000D01*
X12234000Y8763000D02*
X12734000Y8263000D01*
X12014000Y3853000D02*
X12014000Y16173000D01*
X12014000Y16173000D02*
X7754000Y16173000D01*
X7754000Y3853000D02*
X12014000Y3853000D01*
X3654000Y3853000D02*
X-4706000Y3853000D01*
X-4706000Y3853000D02*
X-4706000Y16173000D01*
X-4706000Y16173000D02*
X3654000Y16173000D01*
D11*
%TO.C,J3*%
X19050000Y-2540000D02*
X19050000Y2540000D01*
X26670000Y-2540000D02*
X19050000Y-2540000D01*
X19050000Y2540000D02*
X26670000Y2540000D01*
X26670000Y2540000D02*
X26670000Y-2540000D01*
%TO.C,J18*%
X8945000Y17804000D02*
X8945000Y22884000D01*
X26725000Y17804000D02*
X8945000Y17804000D01*
X8945000Y22884000D02*
X26725000Y22884000D01*
X26725000Y22884000D02*
X26725000Y17804000D01*
%TO.C,J19*%
X27925000Y16524000D02*
X33005000Y16524000D01*
X27925000Y3824000D02*
X27925000Y16524000D01*
X33005000Y16524000D02*
X33005000Y3824000D01*
X33005000Y3824000D02*
X27925000Y3824000D01*
%TO.C,J2*%
X10160000Y-2540000D02*
X10160000Y2540000D01*
X17780000Y-2540000D02*
X10160000Y-2540000D01*
X10160000Y2540000D02*
X17780000Y2540000D01*
X17780000Y2540000D02*
X17780000Y-2540000D01*
%TD*%
D14*
%TO.C,J18*%
X10215000Y19074000D03*
X10215000Y21614000D03*
X12755000Y19074000D03*
X12755000Y21614000D03*
X15295000Y19074000D03*
X15295000Y21614000D03*
X17835000Y19074000D03*
X17835000Y21614000D03*
X20375000Y19074000D03*
X20375000Y21614000D03*
X22915000Y19074000D03*
X22915000Y21614000D03*
X25455000Y19074000D03*
X25455000Y21614000D03*
%TD*%
%TO.C,J19*%
X29195000Y15254000D03*
X31735000Y15254000D03*
X29195000Y12714000D03*
X31735000Y12714000D03*
X29195000Y10174000D03*
X31735000Y10174000D03*
X29195000Y7634000D03*
X31735000Y7634000D03*
X29195000Y5094000D03*
X31735000Y5094000D03*
%TD*%
M02*
