M48
; DRILL file {KiCad 7.0.7-7.0.7~ubuntu23.04.1} date Mon Sep 11 01:12:05 2023
; FORMAT={3:3/ absolute / metric / suppress leading zeros}
; #@! TF.CreationDate,2023-09-11T01:12:05+00:00
; #@! TF.GenerationSoftware,Kicad,Pcbnew,7.0.7-7.0.7~ubuntu23.04.1
; #@! TF.FileFunction,Plated,1,2,PTH
FMAT,2
METRIC,TZ
; #@! TA.AperFunction,Plated,PTH,ViaDrill
T1C0.400
; #@! TA.AperFunction,Plated,PTH,ComponentDrill
T2C0.889
; #@! TA.AperFunction,Plated,PTH,ComponentDrill
T3C0.920
; #@! TA.AperFunction,Plated,PTH,ComponentDrill
T4C2.330
; #@! TA.AperFunction,Plated,PTH,ComponentDrill
T5C3.000
%
G90
G05
T1
X3635Y6449
X4445Y-3175
X9135Y17274
X9144Y6223
X9436Y15390
X9779Y5080
X10160Y16510
X10287Y6223
X11557Y16599
X12827Y10922
X13410Y17274
X13589Y12192
X14351Y16730
X14410Y6824
X16129Y9144
X16835Y13799
X16986Y9658
X17399Y14859
X17907Y7974
X18460Y14732
X18510Y16288
X18868Y7548
X19735Y11474
X19960Y7099
X20632Y15216
X21341Y8007
X22035Y14074
X22635Y4074
X22987Y12827
X23914Y14074
X24003Y3542
X24257Y10205
X24638Y11655
X26599Y11256
X27178Y3048
T2
X10215Y21614
X10215Y19074
X11430Y1270
X11430Y-1270
X12755Y21614
X12755Y19074
X13970Y1270
X13970Y-1270
X15295Y21614
X15295Y19074
X16510Y1270
X16510Y-1270
X17835Y21614
X17835Y19074
X20320Y1270
X20320Y-1270
X20375Y21614
X20375Y19074
X22860Y1270
X22860Y-1270
X22915Y21614
X22915Y19074
X25400Y1270
X25400Y-1270
X25455Y21614
X25455Y19074
X29195Y15254
X29195Y12714
X29195Y10174
X29195Y7634
X29195Y5094
X31735Y15254
X31735Y12714
X31735Y10174
X31735Y7634
X31735Y5094
T3
X8414Y11263
X8414Y8763
X10414Y11263
X10414Y8763
T4
X5704Y16033
X5704Y3993
T5
X0Y20320
X0Y0
X30480Y20320
X30480Y0
T0
M30
