%TF.GenerationSoftware,KiCad,Pcbnew,7.0.5.1-1-g8f565ef7f0-dirty-deb11*%
%TF.CreationDate,2023-07-05T14:47:00+00:00*%
%TF.ProjectId,USB232R02,55534232-3332-4523-9032-2e6b69636164,rev?*%
%TF.SameCoordinates,PX7f790e8PY698c050*%
%TF.FileFunction,Copper,L2,Bot*%
%TF.FilePolarity,Positive*%
%FSLAX46Y46*%
G04 Gerber Fmt 4.6, Leading zero omitted, Abs format (unit mm)*
G04 Created by KiCad (PCBNEW 7.0.5.1-1-g8f565ef7f0-dirty-deb11) date 2023-07-05 14:47:00*
%MOMM*%
%LPD*%
G01*
G04 APERTURE LIST*
G04 Aperture macros list*
%AMRoundRect*
0 Rectangle with rounded corners*
0 $1 Rounding radius*
0 $2 $3 $4 $5 $6 $7 $8 $9 X,Y pos of 4 corners*
0 Add a 4 corners polygon primitive as box body*
4,1,4,$2,$3,$4,$5,$6,$7,$8,$9,$2,$3,0*
0 Add four circle primitives for the rounded corners*
1,1,$1+$1,$2,$3*
1,1,$1+$1,$4,$5*
1,1,$1+$1,$6,$7*
1,1,$1+$1,$8,$9*
0 Add four rect primitives between the rounded corners*
20,1,$1+$1,$2,$3,$4,$5,0*
20,1,$1+$1,$4,$5,$6,$7,0*
20,1,$1+$1,$6,$7,$8,$9,0*
20,1,$1+$1,$8,$9,$2,$3,0*%
%AMFreePoly0*
4,1,19,0.500000,-0.750000,0.000000,-0.750000,0.000000,-0.744911,-0.071157,-0.744911,-0.207708,-0.704816,-0.327430,-0.627875,-0.420627,-0.520320,-0.479746,-0.390866,-0.500000,-0.250000,-0.500000,0.250000,-0.479746,0.390866,-0.420627,0.520320,-0.327430,0.627875,-0.207708,0.704816,-0.071157,0.744911,0.000000,0.744911,0.000000,0.750000,0.500000,0.750000,0.500000,-0.750000,0.500000,-0.750000,
$1*%
%AMFreePoly1*
4,1,19,0.000000,0.744911,0.071157,0.744911,0.207708,0.704816,0.327430,0.627875,0.420627,0.520320,0.479746,0.390866,0.500000,0.250000,0.500000,-0.250000,0.479746,-0.390866,0.420627,-0.520320,0.327430,-0.627875,0.207708,-0.704816,0.071157,-0.744911,0.000000,-0.744911,0.000000,-0.750000,-0.500000,-0.750000,-0.500000,0.750000,0.000000,0.750000,0.000000,0.744911,0.000000,0.744911,
$1*%
G04 Aperture macros list end*
%TA.AperFunction,ComponentPad*%
%ADD10C,6.000000*%
%TD*%
%TA.AperFunction,ComponentPad*%
%ADD11R,1.700000X1.700000*%
%TD*%
%TA.AperFunction,ComponentPad*%
%ADD12C,1.700000*%
%TD*%
%TA.AperFunction,ComponentPad*%
%ADD13C,3.500000*%
%TD*%
%TA.AperFunction,ComponentPad*%
%ADD14R,1.524000X1.524000*%
%TD*%
%TA.AperFunction,SMDPad,CuDef*%
%ADD15R,0.889000X1.397000*%
%TD*%
%TA.AperFunction,SMDPad,CuDef*%
%ADD16R,1.397000X0.889000*%
%TD*%
%TA.AperFunction,SMDPad,CuDef*%
%ADD17RoundRect,0.062500X0.062500X-0.350000X0.062500X0.350000X-0.062500X0.350000X-0.062500X-0.350000X0*%
%TD*%
%TA.AperFunction,SMDPad,CuDef*%
%ADD18RoundRect,0.062500X0.350000X-0.062500X0.350000X0.062500X-0.350000X0.062500X-0.350000X-0.062500X0*%
%TD*%
%TA.AperFunction,SMDPad,CuDef*%
%ADD19R,2.500000X2.500000*%
%TD*%
%TA.AperFunction,SMDPad,CuDef*%
%ADD20R,0.950000X1.500000*%
%TD*%
%TA.AperFunction,SMDPad,CuDef*%
%ADD21RoundRect,0.150000X0.512500X0.150000X-0.512500X0.150000X-0.512500X-0.150000X0.512500X-0.150000X0*%
%TD*%
%TA.AperFunction,SMDPad,CuDef*%
%ADD22R,2.500000X1.800000*%
%TD*%
%TA.AperFunction,SMDPad,CuDef*%
%ADD23R,1.900000X3.400000*%
%TD*%
%TA.AperFunction,SMDPad,CuDef*%
%ADD24FreePoly0,270.000000*%
%TD*%
%TA.AperFunction,SMDPad,CuDef*%
%ADD25FreePoly1,270.000000*%
%TD*%
%TA.AperFunction,ViaPad*%
%ADD26C,0.800000*%
%TD*%
%TA.AperFunction,Conductor*%
%ADD27C,0.250000*%
%TD*%
%TA.AperFunction,Conductor*%
%ADD28C,0.400000*%
%TD*%
%TA.AperFunction,Conductor*%
%ADD29C,0.600000*%
%TD*%
G04 APERTURE END LIST*
%TA.AperFunction,EtchedComponent*%
%TO.C,JP1*%
G36*
X24303000Y5831000D02*
G01*
X23703000Y5831000D01*
X23703000Y6331000D01*
X24303000Y6331000D01*
X24303000Y5831000D01*
G37*
%TD.AperFunction*%
%TD*%
D10*
%TO.P,H3,1,1*%
%TO.N,GND*%
X0Y0D03*
%TD*%
D11*
%TO.P,J1,1,VBUS*%
%TO.N,/VBUS*%
X10414000Y8763000D03*
D12*
%TO.P,J1,2,D-*%
%TO.N,/D-*%
X10414000Y11263000D03*
%TO.P,J1,3,D+*%
%TO.N,/D+*%
X8414000Y11263000D03*
%TO.P,J1,4,GND*%
%TO.N,GND*%
X8414000Y8763000D03*
D13*
%TO.P,J1,5,Shield*%
X5704000Y3993000D03*
X5704000Y16033000D03*
%TD*%
D14*
%TO.P,J17,1*%
%TO.N,GND*%
X29210000Y5080000D03*
%TO.P,J17,2*%
X31750000Y5080000D03*
%TD*%
%TO.P,J6,1*%
%TO.N,/RXD*%
X29210000Y12700000D03*
%TO.P,J6,2*%
X31750000Y12700000D03*
%TD*%
%TO.P,J5,1*%
%TO.N,/TXD*%
X29210000Y15240000D03*
%TO.P,J5,2*%
X31750000Y15240000D03*
%TD*%
%TO.P,J12,1*%
%TO.N,/#RI*%
X15240000Y19050000D03*
%TO.P,J12,2*%
X15240000Y21590000D03*
%TD*%
D10*
%TO.P,H4,1,1*%
%TO.N,GND*%
X30480000Y0D03*
%TD*%
D14*
%TO.P,J3,1*%
%TO.N,GND*%
X20320000Y-1270000D03*
%TO.P,J3,2*%
X20320000Y1270000D03*
%TO.P,J3,3*%
%TO.N,+3V3*%
X22860000Y-1270000D03*
%TO.P,J3,4*%
X22860000Y1270000D03*
%TO.P,J3,5*%
%TO.N,GND*%
X25400000Y-1270000D03*
%TO.P,J3,6*%
X25400000Y1270000D03*
%TD*%
%TO.P,J14,1*%
%TO.N,/RXLED{slash}CBUS1*%
X10160000Y21590000D03*
%TD*%
%TO.P,J13,1*%
%TO.N,/CBUS0*%
X12700000Y21590000D03*
%TD*%
%TO.P,J8,1*%
%TO.N,/#CTS*%
X29210000Y10160000D03*
%TO.P,J8,2*%
X31750000Y10160000D03*
%TD*%
%TO.P,J15,1*%
%TO.N,/TXLED{slash}CBUS2*%
X10160000Y19050000D03*
%TD*%
%TO.P,J10,1*%
%TO.N,/#DSR*%
X17780000Y19050000D03*
%TO.P,J10,2*%
X17780000Y21590000D03*
%TD*%
D10*
%TO.P,H1,1,1*%
%TO.N,GND*%
X30480000Y20320000D03*
%TD*%
D14*
%TO.P,J7,1*%
%TO.N,/#RTS*%
X29210000Y7620000D03*
%TO.P,J7,2*%
X31750000Y7620000D03*
%TD*%
D10*
%TO.P,H2,1,1*%
%TO.N,GND*%
X0Y20320000D03*
%TD*%
D14*
%TO.P,J16,1*%
%TO.N,/CBUS3*%
X12700000Y19050000D03*
%TD*%
%TO.P,J4,1*%
%TO.N,/VCCIO*%
X25400000Y19050000D03*
%TO.P,J4,2*%
X25400000Y21590000D03*
%TD*%
%TO.P,J11,1*%
%TO.N,/#DCD*%
X20320000Y19050000D03*
%TO.P,J11,2*%
X20320000Y21590000D03*
%TD*%
%TO.P,J9,1*%
%TO.N,/#DTR*%
X22860000Y19050000D03*
%TO.P,J9,2*%
X22860000Y21590000D03*
%TD*%
%TO.P,J2,1*%
%TO.N,GND*%
X11430000Y-1270000D03*
%TO.P,J2,2*%
X11430000Y1270000D03*
%TO.P,J2,3*%
%TO.N,+5V*%
X13970000Y-1270000D03*
%TO.P,J2,4*%
X13970000Y1270000D03*
%TO.P,J2,5*%
%TO.N,GND*%
X16510000Y-1270000D03*
%TO.P,J2,6*%
X16510000Y1270000D03*
%TD*%
D15*
%TO.P,R3,1*%
%TO.N,Net-(D2-Pad1)*%
X5080000Y23495000D03*
%TO.P,R3,2*%
%TO.N,/RXLED{slash}CBUS1*%
X6985000Y23495000D03*
%TD*%
D16*
%TO.P,C3,1*%
%TO.N,+3V3*%
X16002000Y14605000D03*
%TO.P,C3,2*%
%TO.N,GND*%
X16002000Y16510000D03*
%TD*%
%TO.P,FB1,1*%
%TO.N,Net-(C1-Pad1)*%
X-635000Y12065000D03*
%TO.P,FB1,2*%
%TO.N,+5V*%
X-635000Y10160000D03*
%TD*%
D15*
%TO.P,C1,1*%
%TO.N,Net-(C1-Pad1)*%
X-635000Y14605000D03*
%TO.P,C1,2*%
%TO.N,GND*%
X-2540000Y14605000D03*
%TD*%
%TO.P,R2,1*%
%TO.N,Net-(R1-Pad2)*%
X25019000Y16383000D03*
%TO.P,R2,2*%
%TO.N,GND*%
X26924000Y16383000D03*
%TD*%
D17*
%TO.P,U2,1,RXD*%
%TO.N,/RXD*%
X20685000Y9492500D03*
%TO.P,U2,2,~{RI}*%
%TO.N,/#RI*%
X20185000Y9492500D03*
%TO.P,U2,3,GND*%
%TO.N,GND*%
X19685000Y9492500D03*
%TO.P,U2,4,~{DSR}*%
%TO.N,/#DSR*%
X19185000Y9492500D03*
%TO.P,U2,5,~{DCD}*%
%TO.N,/#DCD*%
X18685000Y9492500D03*
D18*
%TO.P,U2,6,~{CTS}*%
%TO.N,/#CTS*%
X17747500Y10430000D03*
%TO.P,U2,7,CBUS2*%
%TO.N,/TXLED{slash}CBUS2*%
X17747500Y10930000D03*
%TO.P,U2,8,USBDP*%
%TO.N,/DP*%
X17747500Y11430000D03*
%TO.P,U2,9,USBDM*%
%TO.N,/DM*%
X17747500Y11930000D03*
%TO.P,U2,10,3V3OUT*%
%TO.N,+3V3*%
X17747500Y12430000D03*
D17*
%TO.P,U2,11,~{RESET}*%
%TO.N,Net-(R1-Pad2)*%
X18685000Y13367500D03*
%TO.P,U2,12,VCC*%
%TO.N,+5V*%
X19185000Y13367500D03*
%TO.P,U2,13,GND*%
%TO.N,GND*%
X19685000Y13367500D03*
%TO.P,U2,14,CBUS1*%
%TO.N,/RXLED{slash}CBUS1*%
X20185000Y13367500D03*
%TO.P,U2,15,CBUS0*%
%TO.N,/CBUS0*%
X20685000Y13367500D03*
D18*
%TO.P,U2,16,CBUS3*%
%TO.N,/CBUS3*%
X21622500Y12430000D03*
%TO.P,U2,17,TXD*%
%TO.N,/TXD*%
X21622500Y11930000D03*
%TO.P,U2,18,~{DTR}*%
%TO.N,/#DTR*%
X21622500Y11430000D03*
%TO.P,U2,19,~{RTS}*%
%TO.N,/#RTS*%
X21622500Y10930000D03*
%TO.P,U2,20,VCCIO*%
%TO.N,/VCCIO*%
X21622500Y10430000D03*
D19*
%TO.P,U2,21,GND*%
%TO.N,GND*%
X19685000Y11430000D03*
%TD*%
D15*
%TO.P,R1,1*%
%TO.N,+5V*%
X21463000Y16383000D03*
%TO.P,R1,2*%
%TO.N,Net-(R1-Pad2)*%
X23368000Y16383000D03*
%TD*%
D20*
%TO.P,D2,1,K*%
%TO.N,Net-(D2-Pad1)*%
X8425000Y20320000D03*
%TO.P,D2,2,A*%
%TO.N,+5V*%
X4275000Y20320000D03*
%TD*%
D15*
%TO.P,C4,1*%
%TO.N,+5V*%
X19812000Y16383000D03*
%TO.P,C4,2*%
%TO.N,GND*%
X17907000Y16383000D03*
%TD*%
D21*
%TO.P,U1,1,I/O1*%
%TO.N,/DM*%
X12700000Y15555000D03*
%TO.P,U1,2,GND*%
%TO.N,GND*%
X12700000Y14605000D03*
%TO.P,U1,3,I/O2*%
%TO.N,/DP*%
X12700000Y13655000D03*
%TO.P,U1,4,I/O2*%
%TO.N,/D+*%
X10425000Y13655000D03*
%TO.P,U1,5,VBUS*%
%TO.N,/VBUS*%
X10425000Y14605000D03*
%TO.P,U1,6,I/O1*%
%TO.N,/D-*%
X10425000Y15555000D03*
%TD*%
D16*
%TO.P,C2,1*%
%TO.N,+5V*%
X-3175000Y10160000D03*
%TO.P,C2,2*%
%TO.N,GND*%
X-3175000Y12065000D03*
%TD*%
D15*
%TO.P,C5,1*%
%TO.N,GND*%
X25844500Y9017000D03*
%TO.P,C5,2*%
%TO.N,/VCCIO*%
X23939500Y9017000D03*
%TD*%
D22*
%TO.P,D1,1,K*%
%TO.N,+5V*%
X1270000Y6985000D03*
%TO.P,D1,2,A*%
%TO.N,GND*%
X-2730000Y6985000D03*
%TD*%
D23*
%TO.P,F1,1*%
%TO.N,/VBUS*%
X5715000Y11430000D03*
%TO.P,F1,2*%
%TO.N,Net-(C1-Pad1)*%
X1815000Y11430000D03*
%TD*%
D20*
%TO.P,D3,1,K*%
%TO.N,Net-(D3-Pad1)*%
X8425000Y0D03*
%TO.P,D3,2,A*%
%TO.N,+5V*%
X4275000Y0D03*
%TD*%
D24*
%TO.P,JP1,1,A*%
%TO.N,/VCCIO*%
X24003000Y6731000D03*
D25*
%TO.P,JP1,2,B*%
%TO.N,+3V3*%
X24003000Y5431000D03*
%TD*%
D15*
%TO.P,R4,1*%
%TO.N,Net-(D3-Pad1)*%
X7787500Y-2926000D03*
%TO.P,R4,2*%
%TO.N,/TXLED{slash}CBUS2*%
X5882500Y-2926000D03*
%TD*%
D26*
%TO.N,GND*%
X23749000Y13716000D03*
X26416000Y6604000D03*
X11557000Y16599000D03*
X13589000Y12192000D03*
X14605000Y4445000D03*
X15835000Y23974000D03*
X9144000Y6223000D03*
X27178000Y3048000D03*
X14635000Y23974000D03*
X22535000Y6574000D03*
X10287000Y6223000D03*
X26416000Y4191000D03*
X13970000Y5715000D03*
X13208000Y4699000D03*
X14351000Y16730010D03*
X18510092Y16288119D03*
X15240000Y5334000D03*
X9779000Y5080000D03*
X14605000Y6604000D03*
%TO.N,+5V*%
X9135000Y17274000D03*
X3937000Y6985000D03*
X13589000Y17399000D03*
%TO.N,+3V3*%
X24003000Y4318000D03*
X16133652Y13720653D03*
X16129000Y9144000D03*
%TO.N,/VCCIO*%
X24257000Y10205000D03*
%TO.N,/D-*%
X9335000Y15574000D03*
%TO.N,/RXD*%
X21341186Y8007223D03*
%TO.N,/#CTS*%
X26598966Y11256339D03*
X16986495Y9658497D03*
%TO.N,/#DTR*%
X24638000Y11655000D03*
%TO.N,/#DSR*%
X18868108Y7547892D03*
%TO.N,/#DCD*%
X18161000Y8255000D03*
%TO.N,/#RI*%
X20701000Y7239000D03*
%TO.N,/RXLED{slash}CBUS1*%
X20631821Y15216383D03*
%TO.N,/TXLED{slash}CBUS2*%
X4445000Y-3175000D03*
X12827000Y10922000D03*
X10160000Y16510000D03*
%TO.N,/CBUS3*%
X22987000Y12827000D03*
X17399000Y14859000D03*
%TO.N,Net-(R1-Pad2)*%
X23241000Y14732000D03*
X18460000Y14732000D03*
%TD*%
D27*
%TO.N,GND*%
X18415211Y16383000D02*
X18510092Y16288119D01*
X12065000Y14605000D02*
X11557000Y15113000D01*
X11557000Y15113000D02*
X11557000Y16599000D01*
X19685000Y13367500D02*
X19685000Y11430000D01*
X14571010Y16510000D02*
X14351000Y16730010D01*
X12700000Y14605000D02*
X12065000Y14605000D01*
X16002000Y16510000D02*
X14571010Y16510000D01*
X17907000Y16383000D02*
X18415211Y16383000D01*
D28*
%TO.N,/VBUS*%
X10425000Y14605000D02*
X11087500Y14605000D01*
D29*
X5715000Y9209998D02*
X7558998Y7366000D01*
D28*
X11087500Y14605000D02*
X11487510Y14204990D01*
X11487510Y13404490D02*
X11487510Y12261490D01*
X10414000Y8763000D02*
X11487510Y9836510D01*
D29*
X9017000Y7366000D02*
X10414000Y8763000D01*
D28*
X11487510Y9836510D02*
X11664001Y10013001D01*
X11664001Y10013001D02*
X11664001Y12084999D01*
D29*
X7558998Y7366000D02*
X9017000Y7366000D01*
D28*
X11487510Y12261490D02*
X11664001Y12084999D01*
D29*
X5715000Y9779000D02*
X5715000Y9209998D01*
X5715000Y9779000D02*
X5715000Y11430000D01*
D28*
X11487510Y13404490D02*
X11487510Y14204990D01*
D29*
%TO.N,+5V*%
X-3175000Y10160000D02*
X-635000Y10160000D01*
D28*
X19812000Y16891000D02*
X18923000Y17780000D01*
D29*
X9398000Y3556000D02*
X12553000Y3556000D01*
X5969000Y6985000D02*
X9398000Y3556000D01*
D28*
X18923000Y17780000D02*
X13970000Y17780000D01*
D27*
X5335000Y18674000D02*
X4275000Y19734000D01*
D29*
X13970000Y-1270000D02*
X13970000Y1270000D01*
D28*
X19812000Y16383000D02*
X19812000Y16891000D01*
X1270000Y6985000D02*
X3937000Y6985000D01*
D27*
X19185000Y13367500D02*
X19185000Y15375000D01*
D29*
X-635000Y10160000D02*
X-635000Y8890000D01*
D27*
X9135000Y17274000D02*
X9135000Y17874000D01*
X9135000Y17874000D02*
X8335000Y18674000D01*
D29*
X-635000Y8890000D02*
X1270000Y6985000D01*
D28*
X13970000Y17780000D02*
X13589000Y17399000D01*
D27*
X19185000Y15375000D02*
X19812000Y16002000D01*
X4275000Y0D02*
X4275000Y1830002D01*
X19812000Y16002000D02*
X19812000Y16383000D01*
D29*
X3937000Y6985000D02*
X5969000Y6985000D01*
D28*
X21463000Y16383000D02*
X19812000Y16383000D01*
D27*
X4275000Y1830002D02*
X1270000Y4835002D01*
X1270000Y4835002D02*
X1270000Y6985000D01*
X8335000Y18674000D02*
X5335000Y18674000D01*
X4275000Y19734000D02*
X4275000Y20320000D01*
D29*
X12553000Y3556000D02*
X13970000Y2139000D01*
X13970000Y2139000D02*
X13970000Y1270000D01*
D27*
%TO.N,+3V3*%
X17747500Y12430000D02*
X17035410Y12430000D01*
D28*
X16002000Y13852305D02*
X16133652Y13720653D01*
X21780500Y3492500D02*
X21971000Y3302000D01*
X16129000Y9144000D02*
X16129000Y7880000D01*
X16002000Y14605000D02*
X16002000Y13852305D01*
X22860000Y1270000D02*
X22860000Y-1270000D01*
X16129000Y7880000D02*
X20516500Y3492500D01*
D27*
X17035410Y12430000D02*
X16133652Y13331758D01*
X21971000Y3399000D02*
X21971000Y3302000D01*
D28*
X22860000Y2413000D02*
X21780500Y3492500D01*
D27*
X16133652Y13331758D02*
X16133652Y13720653D01*
D28*
X24003000Y5431000D02*
X24003000Y4318000D01*
X20516500Y3492500D02*
X21780500Y3492500D01*
X22860000Y1270000D02*
X22860000Y2413000D01*
D27*
%TO.N,/VCCIO*%
X23939500Y9017000D02*
X23939500Y6794500D01*
X21622500Y10430000D02*
X24032000Y10430000D01*
X23939500Y9887500D02*
X24257000Y10205000D01*
X23939500Y9017000D02*
X23939500Y9887500D01*
X24032000Y10430000D02*
X24257000Y10205000D01*
X23939500Y6794500D02*
X24003000Y6731000D01*
X25400000Y21590000D02*
X25400000Y19050000D01*
%TO.N,Net-(D2-Pad1)*%
X6477000Y22098000D02*
X7112000Y22098000D01*
X7112000Y22098000D02*
X8128000Y21082000D01*
X5080000Y23495000D02*
X6477000Y22098000D01*
%TO.N,Net-(D3-Pad1)*%
X7787500Y-2926000D02*
X7787500Y-2626500D01*
X7787500Y-2626500D02*
X8425000Y-1989000D01*
X8425000Y-1989000D02*
X8425000Y0D01*
D28*
%TO.N,/D+*%
X10425000Y13655000D02*
X9210000Y13655000D01*
X8414000Y12859000D02*
X8414000Y11263000D01*
X9210000Y13655000D02*
X8414000Y12859000D01*
%TO.N,/D-*%
X9335000Y15574000D02*
X9354000Y15555000D01*
X9354000Y15555000D02*
X10425000Y15555000D01*
D27*
%TO.N,/TXD*%
X21622500Y11930000D02*
X23741000Y11930000D01*
X27051000Y15240000D02*
X29210000Y15240000D01*
X29210000Y15240000D02*
X31750000Y15240000D01*
X23741000Y11930000D02*
X27051000Y15240000D01*
%TO.N,/RXD*%
X29210000Y12700000D02*
X31750000Y12700000D01*
X20685000Y9492500D02*
X20685000Y8663409D01*
X20685000Y8663409D02*
X21341186Y8007223D01*
%TO.N,/#RTS*%
X25900000Y10930000D02*
X29210000Y7620000D01*
X21622500Y10930000D02*
X25900000Y10930000D01*
X29210000Y7620000D02*
X31750000Y7620000D01*
%TO.N,/#CTS*%
X17065990Y10430000D02*
X16986495Y10350505D01*
X16986495Y10350505D02*
X16986495Y9658497D01*
X29210000Y10160000D02*
X31750000Y10160000D01*
X27695305Y10160000D02*
X26598966Y11256339D01*
X29210000Y10160000D02*
X27695305Y10160000D01*
X17747500Y10430000D02*
X17065990Y10430000D01*
%TO.N,/#DTR*%
X22860000Y21590000D02*
X22860000Y19050000D01*
X24413000Y11430000D02*
X24638000Y11655000D01*
X21622500Y11430000D02*
X24413000Y11430000D01*
%TO.N,/#DSR*%
X19185000Y9492500D02*
X19185000Y9031978D01*
X19185000Y9031978D02*
X19185000Y7864784D01*
X19185000Y7864784D02*
X18868108Y7547892D01*
X17780000Y21590000D02*
X17780000Y19050000D01*
%TO.N,/#DCD*%
X18685000Y9492500D02*
X18685000Y8779000D01*
X18685000Y8779000D02*
X18161000Y8255000D01*
X20320000Y21590000D02*
X20320000Y19050000D01*
%TO.N,/#RI*%
X20701000Y7491590D02*
X20701000Y7239000D01*
X15240000Y21590000D02*
X15240000Y19050000D01*
X20185000Y8007590D02*
X20701000Y7491590D01*
X20185000Y9492500D02*
X20185000Y8007590D01*
%TO.N,/CBUS0*%
X14224000Y23114000D02*
X21209000Y23114000D01*
X22479000Y15670998D02*
X22479000Y17095002D01*
X21611012Y22711988D02*
X21209000Y23114000D01*
X20685000Y13367500D02*
X20685000Y13876998D01*
X12700000Y21590000D02*
X14224000Y23114000D01*
X22479000Y17095002D02*
X21611012Y17962990D01*
X21016002Y14208000D02*
X22479000Y15670998D01*
X20685000Y13876998D02*
X21016002Y14208000D01*
X21611012Y19536988D02*
X21611012Y17962990D01*
X21611012Y19536988D02*
X21611012Y22711988D01*
%TO.N,/RXLED{slash}CBUS1*%
X8636000Y21590000D02*
X8890000Y21590000D01*
X20185000Y13367500D02*
X20185000Y14769562D01*
X8890000Y21590000D02*
X10160000Y21590000D01*
X6985000Y23241000D02*
X8636000Y21590000D01*
X6985000Y23495000D02*
X6985000Y23241000D01*
X20185000Y14769562D02*
X20631821Y15216383D01*
%TO.N,/TXLED{slash}CBUS2*%
X5633500Y-3175000D02*
X4445000Y-3175000D01*
X5882500Y-2926000D02*
X5633500Y-3175000D01*
X10160000Y19050000D02*
X10160000Y16510000D01*
X13597000Y10930000D02*
X13589000Y10922000D01*
X16686002Y10930000D02*
X13597000Y10930000D01*
X17747500Y10930000D02*
X16686002Y10930000D01*
X13589000Y10922000D02*
X12827000Y10922000D01*
%TO.N,/CBUS3*%
X22019500Y12827000D02*
X21622500Y12430000D01*
X15010183Y15899183D02*
X15073683Y15835683D01*
X22987000Y12827000D02*
X22019500Y12827000D01*
X14904356Y16005010D02*
X15010183Y15899183D01*
X12700000Y17145000D02*
X13017500Y16827500D01*
X12700000Y19050000D02*
X12700000Y17145000D01*
X13017500Y16827500D02*
X13839990Y16005010D01*
X15073683Y15835683D02*
X15534856Y15374510D01*
X13839990Y16005010D02*
X14904356Y16005010D01*
X15534856Y15374510D02*
X16883490Y15374510D01*
X16883490Y15374510D02*
X17399000Y14859000D01*
%TO.N,Net-(R1-Pad2)*%
X23241000Y16256000D02*
X23368000Y16383000D01*
X23368000Y16383000D02*
X25019000Y16383000D01*
X18685000Y14507000D02*
X18460000Y14732000D01*
X18685000Y13367500D02*
X18685000Y14507000D01*
X23241000Y14732000D02*
X23241000Y16256000D01*
%TO.N,/DM*%
X15049500Y13779500D02*
X14732000Y14097000D01*
X16899000Y11930000D02*
X15049500Y13779500D01*
X12700000Y15555000D02*
X13909000Y15555000D01*
X14732000Y14732000D02*
X14732000Y14097000D01*
X17747500Y11930000D02*
X16899000Y11930000D01*
X13909000Y15555000D02*
X14732000Y14732000D01*
%TO.N,/DP*%
X14412000Y13655000D02*
X15240000Y12827000D01*
X12700000Y13655000D02*
X14412000Y13655000D01*
X16637000Y11430000D02*
X17747500Y11430000D01*
X15240000Y12827000D02*
X16637000Y11430000D01*
D29*
%TO.N,Net-(C1-Pad1)*%
X-635000Y12065000D02*
X1180000Y12065000D01*
X-635000Y14605000D02*
X-635000Y12065000D01*
X1180000Y12065000D02*
X1815000Y11430000D01*
%TD*%
%TA.AperFunction,Conductor*%
%TO.N,GND*%
G36*
X4658693Y24626593D02*
G01*
X4694657Y24577093D01*
X4694657Y24515907D01*
X4658693Y24466407D01*
X4615032Y24449812D01*
X4615204Y24448948D01*
X4536199Y24433235D01*
X4536197Y24433234D01*
X4452019Y24376987D01*
X4452014Y24376982D01*
X4414515Y24320863D01*
X4395766Y24292801D01*
X4381001Y24218571D01*
X4381000Y24218567D01*
X4381000Y22771437D01*
X4381001Y22771430D01*
X4395765Y22697200D01*
X4395766Y22697198D01*
X4419036Y22662373D01*
X4452016Y22613016D01*
X4536199Y22556766D01*
X4610433Y22542000D01*
X5455297Y22542001D01*
X5513488Y22523094D01*
X5525301Y22513005D01*
X6173563Y21864743D01*
X6186436Y21848892D01*
X6193932Y21837418D01*
X6222887Y21814882D01*
X6227484Y21810822D01*
X6230888Y21807418D01*
X6249244Y21794313D01*
X6250886Y21793089D01*
X6293876Y21759628D01*
X6293879Y21759626D01*
X6293881Y21759625D01*
X6293882Y21759625D01*
X6300894Y21755831D01*
X6308021Y21752346D01*
X6339748Y21742902D01*
X6360222Y21736807D01*
X6362122Y21736199D01*
X6413673Y21718500D01*
X6413674Y21718500D01*
X6421458Y21717201D01*
X6429401Y21716212D01*
X6429409Y21716209D01*
X6483812Y21718459D01*
X6485823Y21718500D01*
X6913798Y21718500D01*
X6971989Y21699593D01*
X6983802Y21689504D01*
X7666504Y21006802D01*
X7694281Y20952285D01*
X7695500Y20936798D01*
X7695500Y19544937D01*
X7695501Y19544930D01*
X7710265Y19470700D01*
X7710266Y19470698D01*
X7766513Y19386520D01*
X7766516Y19386516D01*
X7850699Y19330266D01*
X7924933Y19315500D01*
X8925066Y19315501D01*
X8999301Y19330266D01*
X8999303Y19330268D01*
X9006615Y19333295D01*
X9067612Y19338095D01*
X9119781Y19306126D01*
X9143195Y19249597D01*
X9143500Y19241831D01*
X9143500Y18641202D01*
X9124593Y18583011D01*
X9075093Y18547047D01*
X9013907Y18547047D01*
X8974496Y18571198D01*
X8638436Y18907258D01*
X8625561Y18923114D01*
X8618069Y18934581D01*
X8589116Y18957116D01*
X8584514Y18961180D01*
X8581113Y18964581D01*
X8562739Y18977701D01*
X8561103Y18978920D01*
X8518118Y19012376D01*
X8511131Y19016157D01*
X8503979Y19019654D01*
X8459789Y19032809D01*
X8451806Y19035186D01*
X8449866Y19035807D01*
X8398326Y19053501D01*
X8390515Y19054804D01*
X8382591Y19055792D01*
X8382590Y19055792D01*
X8382588Y19055792D01*
X8377022Y19055562D01*
X8328173Y19053542D01*
X8326162Y19053500D01*
X5533202Y19053500D01*
X5475011Y19072407D01*
X5463198Y19082496D01*
X5033495Y19512199D01*
X5005718Y19566716D01*
X5004499Y19582191D01*
X5004499Y21095066D01*
X4989734Y21169301D01*
X4989733Y21169303D01*
X4933486Y21253481D01*
X4933485Y21253482D01*
X4933484Y21253484D01*
X4849301Y21309734D01*
X4775067Y21324500D01*
X4775066Y21324500D01*
X3774936Y21324500D01*
X3774929Y21324499D01*
X3700699Y21309735D01*
X3700697Y21309734D01*
X3616519Y21253487D01*
X3616514Y21253482D01*
X3579015Y21197363D01*
X3560266Y21169301D01*
X3545501Y21095071D01*
X3545500Y21095067D01*
X3545500Y19544937D01*
X3545501Y19544930D01*
X3560265Y19470700D01*
X3560266Y19470698D01*
X3616513Y19386520D01*
X3616516Y19386516D01*
X3700699Y19330266D01*
X3774933Y19315500D01*
X4115797Y19315501D01*
X4173988Y19296594D01*
X4185801Y19286505D01*
X5031563Y18440743D01*
X5044436Y18424892D01*
X5051932Y18413418D01*
X5080887Y18390882D01*
X5085484Y18386822D01*
X5088888Y18383418D01*
X5107244Y18370313D01*
X5108886Y18369089D01*
X5151876Y18335628D01*
X5151879Y18335626D01*
X5151881Y18335625D01*
X5151882Y18335625D01*
X5158894Y18331831D01*
X5166021Y18328346D01*
X5197748Y18318902D01*
X5218222Y18312807D01*
X5220122Y18312199D01*
X5271673Y18294500D01*
X5271674Y18294500D01*
X5279458Y18293201D01*
X5287401Y18292212D01*
X5287409Y18292209D01*
X5341812Y18294459D01*
X5343823Y18294500D01*
X8136798Y18294500D01*
X8194989Y18275593D01*
X8206802Y18265504D01*
X8632003Y17840303D01*
X8659780Y17785786D01*
X8650209Y17725354D01*
X8643475Y17714061D01*
X8551212Y17580394D01*
X8551210Y17580391D01*
X8494853Y17431790D01*
X8494850Y17431781D01*
X8475693Y17274002D01*
X8475693Y17273999D01*
X8494850Y17116220D01*
X8494853Y17116211D01*
X8551210Y16967610D01*
X8551212Y16967607D01*
X8551213Y16967605D01*
X8593576Y16906232D01*
X8641502Y16836799D01*
X8641502Y16836798D01*
X8745016Y16745093D01*
X8760471Y16731401D01*
X8901207Y16657537D01*
X9055529Y16619500D01*
X9055532Y16619500D01*
X9214468Y16619500D01*
X9214471Y16619500D01*
X9368793Y16657537D01*
X9368802Y16657543D01*
X9372705Y16659022D01*
X9433819Y16661984D01*
X9485002Y16628460D01*
X9506705Y16571253D01*
X9506099Y16554526D01*
X9500693Y16510002D01*
X9500693Y16509999D01*
X9519851Y16352215D01*
X9520213Y16350748D01*
X9520144Y16349804D01*
X9520573Y16346273D01*
X9519881Y16346190D01*
X9515779Y16289723D01*
X9476321Y16242960D01*
X9420459Y16229194D01*
X9420459Y16228500D01*
X9417643Y16228500D01*
X9416913Y16228320D01*
X9415055Y16228500D01*
X9414471Y16228500D01*
X9255529Y16228500D01*
X9255526Y16228500D01*
X9101208Y16190464D01*
X8960475Y16116602D01*
X8960464Y16116594D01*
X8841502Y16011203D01*
X8841502Y16011202D01*
X8751212Y15880394D01*
X8751210Y15880391D01*
X8694853Y15731790D01*
X8694850Y15731781D01*
X8675693Y15574002D01*
X8675693Y15573999D01*
X8694850Y15416220D01*
X8694853Y15416211D01*
X8751210Y15267610D01*
X8751212Y15267607D01*
X8751213Y15267605D01*
X8827839Y15156593D01*
X8841502Y15136799D01*
X8841502Y15136798D01*
X8954372Y15036804D01*
X8960471Y15031401D01*
X9101207Y14957537D01*
X9255529Y14919500D01*
X9255532Y14919500D01*
X9413098Y14919500D01*
X9471289Y14900593D01*
X9507253Y14851093D01*
X9510879Y14805012D01*
X9508000Y14786836D01*
X9508000Y14423164D01*
X9523002Y14328446D01*
X9523004Y14328439D01*
X9561216Y14253445D01*
X9570788Y14193013D01*
X9543011Y14138497D01*
X9488494Y14110719D01*
X9473007Y14109500D01*
X9238317Y14109500D01*
X9232771Y14109811D01*
X9192814Y14114313D01*
X9134759Y14103330D01*
X9132936Y14103020D01*
X9074522Y14094215D01*
X9067437Y14092029D01*
X9067311Y14092436D01*
X9065054Y14091694D01*
X9065195Y14091292D01*
X9058192Y14088842D01*
X9005948Y14061231D01*
X9004297Y14060397D01*
X8951082Y14034770D01*
X8944953Y14030590D01*
X8944711Y14030944D01*
X8942775Y14029571D01*
X8943030Y14029226D01*
X8937057Y14024818D01*
X8895280Y13983042D01*
X8893948Y13981759D01*
X8850643Y13941578D01*
X8846019Y13935779D01*
X8845683Y13936047D01*
X8837096Y13924858D01*
X8112631Y13200395D01*
X8108490Y13196694D01*
X8077063Y13171631D01*
X8043780Y13122815D01*
X8042710Y13121307D01*
X8007630Y13073773D01*
X8004166Y13067218D01*
X8003790Y13067417D01*
X8002715Y13065289D01*
X8003099Y13065104D01*
X7999883Y13058429D01*
X7982461Y13001945D01*
X7981882Y13000187D01*
X7962380Y12944457D01*
X7961001Y12937166D01*
X7960580Y12937246D01*
X7960182Y12934903D01*
X7960605Y12934839D01*
X7959500Y12927505D01*
X7959500Y12868441D01*
X7959465Y12866591D01*
X7957256Y12807536D01*
X7958087Y12800161D01*
X7957658Y12800113D01*
X7959500Y12786128D01*
X7959500Y12335809D01*
X7940593Y12277618D01*
X7912617Y12251638D01*
X7745542Y12148189D01*
X7745540Y12148188D01*
X7745538Y12148186D01*
X7666147Y12075811D01*
X7594269Y12010286D01*
X7470913Y11846937D01*
X7470908Y11846928D01*
X7379672Y11663702D01*
X7323655Y11466823D01*
X7304768Y11263000D01*
X7323655Y11059178D01*
X7355554Y10947066D01*
X7379672Y10862299D01*
X7470912Y10679065D01*
X7594268Y10515715D01*
X7745538Y10377814D01*
X7919573Y10270056D01*
X8110444Y10196112D01*
X8311653Y10158500D01*
X8516347Y10158500D01*
X8717556Y10196112D01*
X8908427Y10270056D01*
X9082462Y10377814D01*
X9233732Y10515715D01*
X9334998Y10649814D01*
X9385152Y10684855D01*
X9446327Y10683724D01*
X9493001Y10649814D01*
X9594268Y10515715D01*
X9745538Y10377814D01*
X9919573Y10270056D01*
X10110444Y10196112D01*
X10311653Y10158500D01*
X10516347Y10158500D01*
X10717556Y10196112D01*
X10908427Y10270056D01*
X11058385Y10362907D01*
X11117812Y10377465D01*
X11174448Y10354312D01*
X11206658Y10302291D01*
X11209501Y10278735D01*
X11209501Y10242271D01*
X11190594Y10184080D01*
X11180505Y10172268D01*
X11142044Y10133806D01*
X11142040Y10133802D01*
X10904733Y9896496D01*
X10850217Y9868719D01*
X10834730Y9867500D01*
X9538936Y9867500D01*
X9538929Y9867499D01*
X9464699Y9852735D01*
X9464697Y9852734D01*
X9380519Y9796487D01*
X9380514Y9796482D01*
X9324266Y9712302D01*
X9324265Y9712298D01*
X9320929Y9695527D01*
X9291032Y9642143D01*
X9235466Y9616529D01*
X9175456Y9628467D01*
X9157136Y9641681D01*
X9110001Y9684650D01*
X8928793Y9796848D01*
X8730058Y9873839D01*
X8520563Y9913000D01*
X8307437Y9913000D01*
X8097941Y9873839D01*
X7899206Y9796849D01*
X7899205Y9796848D01*
X7800486Y9735725D01*
X8321897Y9214314D01*
X8276881Y9207529D01*
X8151946Y9147363D01*
X8050295Y9053045D01*
X7980961Y8932955D01*
X7963098Y8854692D01*
X7438401Y9379389D01*
X7432066Y9370999D01*
X7432057Y9370984D01*
X7337064Y9180211D01*
X7278738Y8975217D01*
X7259073Y8763000D01*
X7265729Y8691170D01*
X7252271Y8631483D01*
X7206300Y8591106D01*
X7145376Y8585460D01*
X7097147Y8612032D01*
X6402682Y9306497D01*
X6374905Y9361014D01*
X6384476Y9421446D01*
X6427741Y9464711D01*
X6472686Y9475501D01*
X6690064Y9475501D01*
X6690066Y9475501D01*
X6764301Y9490266D01*
X6848484Y9546516D01*
X6904734Y9630699D01*
X6919500Y9704933D01*
X6919499Y13155066D01*
X6904734Y13229301D01*
X6904733Y13229303D01*
X6848486Y13313481D01*
X6848485Y13313482D01*
X6848484Y13313484D01*
X6764301Y13369734D01*
X6690067Y13384500D01*
X6690066Y13384500D01*
X4739936Y13384500D01*
X4739929Y13384499D01*
X4665699Y13369735D01*
X4665697Y13369734D01*
X4581519Y13313487D01*
X4581514Y13313482D01*
X4548587Y13264203D01*
X4525266Y13229301D01*
X4517891Y13192223D01*
X4510500Y13155068D01*
X4510500Y9704937D01*
X4510501Y9704930D01*
X4525265Y9630700D01*
X4525266Y9630698D01*
X4581513Y9546520D01*
X4581516Y9546516D01*
X4665699Y9490266D01*
X4739933Y9475500D01*
X5061500Y9475501D01*
X5119690Y9456594D01*
X5155655Y9407094D01*
X5160500Y9376501D01*
X5160500Y9220300D01*
X5160471Y9218610D01*
X5158221Y9152760D01*
X5158221Y9152754D01*
X5168933Y9108799D01*
X5169880Y9103817D01*
X5176042Y9058989D01*
X5184126Y9040377D01*
X5189503Y9024387D01*
X5194308Y9004674D01*
X5194310Y9004669D01*
X5194311Y9004665D01*
X5199409Y8995598D01*
X5216487Y8965223D01*
X5218743Y8960681D01*
X5236768Y8919182D01*
X5236770Y8919179D01*
X5249575Y8903440D01*
X5259072Y8889487D01*
X5269018Y8871799D01*
X5294693Y8846124D01*
X5301016Y8839801D01*
X5304413Y8836036D01*
X5332964Y8800941D01*
X5337465Y8797764D01*
X5349538Y8789242D01*
X5362450Y8778367D01*
X7159616Y6981200D01*
X7160791Y6979984D01*
X7205768Y6931826D01*
X7205770Y6931824D01*
X7222913Y6921399D01*
X7244431Y6908313D01*
X7248624Y6905460D01*
X7284677Y6878120D01*
X7303556Y6870675D01*
X7318675Y6863165D01*
X7336006Y6852626D01*
X7336008Y6852625D01*
X7379584Y6840416D01*
X7384373Y6838805D01*
X7426478Y6822201D01*
X7426479Y6822201D01*
X7426482Y6822200D01*
X7446654Y6820127D01*
X7463245Y6816974D01*
X7482780Y6811501D01*
X7482782Y6811500D01*
X7482784Y6811500D01*
X7528031Y6811500D01*
X7533096Y6811240D01*
X7543140Y6810208D01*
X7578107Y6806613D01*
X7596115Y6809719D01*
X7598099Y6810060D01*
X7614921Y6811500D01*
X9006699Y6811500D01*
X9008382Y6811472D01*
X9031408Y6810685D01*
X9074233Y6809221D01*
X9074233Y6809222D01*
X9074239Y6809221D01*
X9118212Y6819938D01*
X9123168Y6820881D01*
X9168009Y6827043D01*
X9186621Y6835128D01*
X9202612Y6840506D01*
X9222333Y6845311D01*
X9261784Y6867494D01*
X9266299Y6869737D01*
X9307818Y6887770D01*
X9323563Y6900581D01*
X9337511Y6910074D01*
X9355199Y6920018D01*
X9387196Y6952017D01*
X9390948Y6955404D01*
X9426058Y6983966D01*
X9437756Y7000540D01*
X9448626Y7013447D01*
X10064685Y7629506D01*
X10119202Y7657282D01*
X10134689Y7658501D01*
X11289064Y7658501D01*
X11289066Y7658501D01*
X11363301Y7673266D01*
X11447484Y7729516D01*
X11503734Y7813699D01*
X11518500Y7887933D01*
X11518499Y9183734D01*
X11537406Y9241924D01*
X11547496Y9253737D01*
X11832976Y9539215D01*
X11965370Y9671610D01*
X11969501Y9675303D01*
X12000937Y9700370D01*
X12034232Y9749207D01*
X12035254Y9750649D01*
X12070370Y9798228D01*
X12070372Y9798234D01*
X12073835Y9804786D01*
X12074220Y9804583D01*
X12075287Y9806696D01*
X12074896Y9806884D01*
X12078115Y9813570D01*
X12078115Y9813571D01*
X12078117Y9813573D01*
X12095542Y9870069D01*
X12096084Y9871720D01*
X12115622Y9927550D01*
X12115622Y9927552D01*
X12117002Y9934841D01*
X12117426Y9934761D01*
X12117822Y9937095D01*
X12117395Y9937159D01*
X12118501Y9944496D01*
X12118501Y10003562D01*
X12118536Y10005412D01*
X12120099Y10047211D01*
X12120745Y10064464D01*
X12120743Y10064471D01*
X12119914Y10071837D01*
X12120341Y10071886D01*
X12118501Y10085873D01*
X12118501Y10478580D01*
X12137408Y10536771D01*
X12186908Y10572735D01*
X12248094Y10572735D01*
X12297594Y10536771D01*
X12298950Y10534856D01*
X12315144Y10511395D01*
X12333502Y10484799D01*
X12333502Y10484798D01*
X12431370Y10398095D01*
X12452471Y10379401D01*
X12593207Y10305537D01*
X12747529Y10267500D01*
X12747532Y10267500D01*
X12906468Y10267500D01*
X12906471Y10267500D01*
X13060793Y10305537D01*
X13201529Y10379401D01*
X13320498Y10484799D01*
X13330808Y10499737D01*
X13379423Y10536887D01*
X13412285Y10542500D01*
X13539373Y10542500D01*
X13559688Y10540393D01*
X13563948Y10539500D01*
X13573100Y10537581D01*
X13609514Y10542121D01*
X13615639Y10542500D01*
X13620443Y10542500D01*
X13642700Y10546215D01*
X13644718Y10546509D01*
X13647194Y10546818D01*
X13673690Y10550121D01*
X13679815Y10550500D01*
X16515255Y10550500D01*
X16573446Y10531593D01*
X16609410Y10482093D01*
X16609410Y10420907D01*
X16608890Y10419353D01*
X16606994Y10413833D01*
X16605690Y10406017D01*
X16604703Y10398096D01*
X16604703Y10398095D01*
X16606953Y10343678D01*
X16606995Y10341668D01*
X16606995Y10241249D01*
X16588088Y10183058D01*
X16573645Y10167147D01*
X16492996Y10095697D01*
X16402707Y9964891D01*
X16402706Y9964890D01*
X16359493Y9850948D01*
X16321179Y9803244D01*
X16262143Y9787171D01*
X16243237Y9789931D01*
X16208471Y9798500D01*
X16049529Y9798500D01*
X16049526Y9798500D01*
X15895208Y9760464D01*
X15754475Y9686602D01*
X15754464Y9686594D01*
X15635502Y9581203D01*
X15635502Y9581202D01*
X15545212Y9450394D01*
X15545210Y9450391D01*
X15488853Y9301790D01*
X15488850Y9301781D01*
X15469693Y9144002D01*
X15469693Y9143999D01*
X15488850Y8986220D01*
X15488853Y8986211D01*
X15545210Y8837610D01*
X15545212Y8837607D01*
X15635501Y8706799D01*
X15641147Y8701798D01*
X15672167Y8649059D01*
X15674500Y8627694D01*
X15674500Y7908318D01*
X15674189Y7902772D01*
X15669687Y7862816D01*
X15669687Y7862810D01*
X15680670Y7804761D01*
X15680980Y7802938D01*
X15689786Y7744522D01*
X15691974Y7737428D01*
X15691561Y7737301D01*
X15692302Y7735050D01*
X15692710Y7735192D01*
X15695159Y7728193D01*
X15722763Y7675962D01*
X15723597Y7674311D01*
X15749231Y7621082D01*
X15753413Y7614949D01*
X15753056Y7614706D01*
X15754427Y7612773D01*
X15754775Y7613029D01*
X15759180Y7607060D01*
X15800968Y7565271D01*
X15802252Y7563938D01*
X15842423Y7520644D01*
X15842425Y7520643D01*
X15842427Y7520641D01*
X15848223Y7516018D01*
X15847954Y7515681D01*
X15859145Y7507095D01*
X20175105Y3191134D01*
X20178807Y3186991D01*
X20203867Y3155566D01*
X20203866Y3155566D01*
X20203869Y3155564D01*
X20252707Y3122268D01*
X20254189Y3121216D01*
X20301727Y3086131D01*
X20301732Y3086130D01*
X20308288Y3082664D01*
X20308085Y3082281D01*
X20310200Y3081214D01*
X20310388Y3081603D01*
X20317067Y3078388D01*
X20317072Y3078384D01*
X20373549Y3060965D01*
X20375263Y3060401D01*
X20431049Y3040879D01*
X20431051Y3040879D01*
X20438340Y3039499D01*
X20438259Y3039076D01*
X20440596Y3038679D01*
X20440661Y3039106D01*
X20447992Y3038001D01*
X20447995Y3038000D01*
X20507059Y3038000D01*
X20508909Y3037965D01*
X20532728Y3037075D01*
X20567963Y3035756D01*
X20567970Y3035758D01*
X20575336Y3036587D01*
X20575384Y3036159D01*
X20589371Y3038000D01*
X21551232Y3038000D01*
X21609423Y3019093D01*
X21621236Y3009004D01*
X22174736Y2455504D01*
X22202513Y2400987D01*
X22192942Y2340555D01*
X22149677Y2297290D01*
X22104735Y2286500D01*
X22072937Y2286500D01*
X22072929Y2286499D01*
X21998699Y2271735D01*
X21998697Y2271734D01*
X21914519Y2215487D01*
X21914514Y2215482D01*
X21896948Y2189192D01*
X21858266Y2131301D01*
X21845340Y2066318D01*
X21843500Y2057067D01*
X21843500Y482937D01*
X21843501Y482930D01*
X21858265Y408700D01*
X21858266Y408698D01*
X21907161Y335523D01*
X21914516Y324516D01*
X21998699Y268266D01*
X22072933Y253500D01*
X22306500Y253501D01*
X22364690Y234594D01*
X22400654Y185094D01*
X22405500Y154501D01*
X22405500Y-154500D01*
X22386593Y-212691D01*
X22337093Y-248655D01*
X22306500Y-253500D01*
X22072936Y-253500D01*
X22072929Y-253501D01*
X21998699Y-268265D01*
X21998697Y-268266D01*
X21914519Y-324513D01*
X21914514Y-324518D01*
X21877016Y-380637D01*
X21858266Y-408699D01*
X21843501Y-482929D01*
X21843500Y-482933D01*
X21843500Y-2057063D01*
X21843501Y-2057070D01*
X21858265Y-2131300D01*
X21858266Y-2131302D01*
X21905795Y-2202433D01*
X21914516Y-2215484D01*
X21998699Y-2271734D01*
X22072933Y-2286500D01*
X23647066Y-2286499D01*
X23721301Y-2271734D01*
X23805484Y-2215484D01*
X23861734Y-2131301D01*
X23876500Y-2057067D01*
X23876499Y-1015998D01*
X24338000Y-1015998D01*
X24338001Y-1016000D01*
X25033382Y-1016000D01*
X24981553Y-1105772D01*
X24951736Y-1236407D01*
X24961749Y-1370028D01*
X25010703Y-1494760D01*
X25034021Y-1524000D01*
X24338002Y-1524000D01*
X24338001Y-1524001D01*
X24338001Y-2076791D01*
X24340909Y-2101874D01*
X24386213Y-2204477D01*
X24465522Y-2283786D01*
X24568127Y-2329090D01*
X24593203Y-2331999D01*
X25145998Y-2331999D01*
X25146000Y-2331998D01*
X25146000Y-1634805D01*
X25204960Y-1675004D01*
X25333002Y-1714500D01*
X25433312Y-1714500D01*
X25532499Y-1699550D01*
X25653224Y-1641412D01*
X25654000Y-1640691D01*
X25654000Y-2331998D01*
X25654001Y-2331999D01*
X26206790Y-2331999D01*
X26206791Y-2331998D01*
X26231874Y-2329090D01*
X26334477Y-2283786D01*
X26413786Y-2204477D01*
X26459090Y-2101872D01*
X26461999Y-2076797D01*
X26462000Y-2076794D01*
X26462000Y-1524001D01*
X26461999Y-1524000D01*
X25766618Y-1524000D01*
X25818447Y-1434228D01*
X25848264Y-1303593D01*
X25838251Y-1169972D01*
X25789297Y-1045240D01*
X25765979Y-1016000D01*
X26461998Y-1016000D01*
X26461999Y-1015998D01*
X26461999Y-463209D01*
X26461998Y-463208D01*
X26459090Y-438125D01*
X26413786Y-335522D01*
X26334477Y-256213D01*
X26231872Y-210909D01*
X26206797Y-208000D01*
X25654001Y-208000D01*
X25654000Y-208001D01*
X25654000Y-905194D01*
X25595040Y-864996D01*
X25466998Y-825500D01*
X25366688Y-825500D01*
X25267501Y-840450D01*
X25146776Y-898588D01*
X25146000Y-899308D01*
X25146000Y-208001D01*
X25145999Y-208000D01*
X24593210Y-208000D01*
X24593207Y-208001D01*
X24568125Y-210909D01*
X24465522Y-256213D01*
X24386213Y-335522D01*
X24340909Y-438127D01*
X24338000Y-463202D01*
X24338000Y-1015998D01*
X23876499Y-1015998D01*
X23876499Y-482934D01*
X23861734Y-408699D01*
X23861733Y-408697D01*
X23805486Y-324519D01*
X23805485Y-324518D01*
X23805484Y-324516D01*
X23721301Y-268266D01*
X23647067Y-253500D01*
X23413500Y-253500D01*
X23355309Y-234593D01*
X23319345Y-185093D01*
X23314500Y-154500D01*
X23314500Y154501D01*
X23333407Y212692D01*
X23382907Y248656D01*
X23413500Y253501D01*
X23647064Y253501D01*
X23647066Y253501D01*
X23721301Y268266D01*
X23805484Y324516D01*
X23861734Y408699D01*
X23876500Y482933D01*
X23876499Y1524002D01*
X24338000Y1524002D01*
X24338001Y1524000D01*
X25033382Y1524000D01*
X24981553Y1434228D01*
X24951736Y1303593D01*
X24961749Y1169972D01*
X25010703Y1045240D01*
X25034021Y1016000D01*
X24338001Y1016000D01*
X24338001Y463209D01*
X24340909Y438126D01*
X24386213Y335523D01*
X24465522Y256214D01*
X24568127Y210910D01*
X24593203Y208001D01*
X25145998Y208001D01*
X25146000Y208002D01*
X25146000Y905195D01*
X25204960Y864996D01*
X25333002Y825500D01*
X25433312Y825500D01*
X25532499Y840450D01*
X25653224Y898588D01*
X25654000Y899309D01*
X25654000Y208002D01*
X25654001Y208001D01*
X26206790Y208001D01*
X26206791Y208002D01*
X26231874Y210910D01*
X26334477Y256214D01*
X26413786Y335523D01*
X26459090Y438128D01*
X26461999Y463203D01*
X26462000Y463206D01*
X26462000Y1015999D01*
X26461999Y1016000D01*
X25766618Y1016000D01*
X25818447Y1105772D01*
X25848264Y1236407D01*
X25838251Y1370028D01*
X25789297Y1494760D01*
X25765979Y1524000D01*
X26461998Y1524000D01*
X26461999Y1524001D01*
X26461999Y2076791D01*
X26461998Y2076792D01*
X26459090Y2101875D01*
X26413786Y2204478D01*
X26334477Y2283787D01*
X26231872Y2329091D01*
X26206797Y2332000D01*
X25654001Y2332000D01*
X25654000Y2331999D01*
X25654000Y1634806D01*
X25595040Y1675004D01*
X25466998Y1714500D01*
X25366688Y1714500D01*
X25267501Y1699550D01*
X25146776Y1641412D01*
X25146000Y1640692D01*
X25146000Y2331999D01*
X25145999Y2332000D01*
X24593210Y2332000D01*
X24593207Y2331999D01*
X24568125Y2329091D01*
X24465522Y2283787D01*
X24386213Y2204478D01*
X24340909Y2101873D01*
X24338000Y2076798D01*
X24338000Y1524002D01*
X23876499Y1524002D01*
X23876499Y2057066D01*
X23861734Y2131301D01*
X23861733Y2131303D01*
X23805486Y2215481D01*
X23805485Y2215482D01*
X23805484Y2215484D01*
X23721301Y2271734D01*
X23647067Y2286500D01*
X23413905Y2286500D01*
X23355714Y2305407D01*
X23319750Y2354907D01*
X23315528Y2396585D01*
X23316292Y2403368D01*
X23319314Y2430186D01*
X23308321Y2488280D01*
X23308014Y2490090D01*
X23305134Y2509200D01*
X23299214Y2548479D01*
X23299212Y2548483D01*
X23297026Y2555573D01*
X23297440Y2555701D01*
X23296701Y2557948D01*
X23296291Y2557804D01*
X23293840Y2564810D01*
X23280958Y2589182D01*
X23266224Y2617061D01*
X23265404Y2618687D01*
X23239769Y2671919D01*
X23235590Y2678047D01*
X23235947Y2678291D01*
X23234571Y2680230D01*
X23234224Y2679973D01*
X23229823Y2685937D01*
X23188029Y2727732D01*
X23186745Y2729065D01*
X23146577Y2772356D01*
X23140774Y2776984D01*
X23141042Y2777321D01*
X23129854Y2785906D01*
X22121894Y3793868D01*
X22118192Y3798010D01*
X22093130Y3829437D01*
X22044320Y3862715D01*
X22042811Y3863786D01*
X21995273Y3898870D01*
X21988716Y3902335D01*
X21988916Y3902715D01*
X21986800Y3903784D01*
X21986614Y3903396D01*
X21979928Y3906616D01*
X21923459Y3924034D01*
X21921701Y3924613D01*
X21865956Y3944120D01*
X21858666Y3945499D01*
X21858745Y3945921D01*
X21856405Y3946319D01*
X21856342Y3945895D01*
X21849008Y3947000D01*
X21849005Y3947000D01*
X21789941Y3947000D01*
X21788091Y3947035D01*
X21729037Y3949244D01*
X21721664Y3948413D01*
X21721615Y3948842D01*
X21707629Y3947000D01*
X20745768Y3947000D01*
X20687577Y3965907D01*
X20675764Y3975996D01*
X16612496Y8039265D01*
X16584719Y8093782D01*
X16583500Y8109269D01*
X16583500Y8627694D01*
X16602407Y8685885D01*
X16616853Y8701798D01*
X16622498Y8706799D01*
X16637295Y8728236D01*
X16712787Y8837605D01*
X16756001Y8951551D01*
X16794314Y8999254D01*
X16853350Y9015327D01*
X16872257Y9012567D01*
X16907024Y9003997D01*
X16907028Y9003997D01*
X17065963Y9003997D01*
X17065966Y9003997D01*
X17220288Y9042034D01*
X17361024Y9115898D01*
X17479993Y9221296D01*
X17570282Y9352102D01*
X17626644Y9500715D01*
X17645802Y9658497D01*
X17644889Y9666013D01*
X17629048Y9796482D01*
X17626644Y9816279D01*
X17588674Y9916395D01*
X17585719Y9977508D01*
X17619250Y10028688D01*
X17676459Y10050384D01*
X17681242Y10050500D01*
X18101589Y10050500D01*
X18159780Y10031593D01*
X18182412Y10008324D01*
X18269009Y9921727D01*
X18268145Y9920864D01*
X18299770Y9879781D01*
X18305500Y9846589D01*
X18305500Y9008500D01*
X18286593Y8950309D01*
X18237093Y8914345D01*
X18206500Y8909500D01*
X18081526Y8909500D01*
X17927208Y8871464D01*
X17786475Y8797602D01*
X17786464Y8797594D01*
X17667502Y8692203D01*
X17667502Y8692202D01*
X17577212Y8561394D01*
X17577210Y8561391D01*
X17520853Y8412790D01*
X17520850Y8412781D01*
X17501693Y8255002D01*
X17501693Y8254999D01*
X17520850Y8097220D01*
X17520853Y8097211D01*
X17577210Y7948610D01*
X17577212Y7948607D01*
X17577213Y7948605D01*
X17629669Y7872610D01*
X17667502Y7817799D01*
X17667502Y7817798D01*
X17786464Y7712407D01*
X17786471Y7712401D01*
X17927207Y7638537D01*
X18081529Y7600500D01*
X18114707Y7600500D01*
X18172898Y7581593D01*
X18208862Y7532093D01*
X18212985Y7513433D01*
X18227958Y7390112D01*
X18227961Y7390103D01*
X18284318Y7241502D01*
X18284320Y7241499D01*
X18284321Y7241497D01*
X18313178Y7199691D01*
X18374610Y7110691D01*
X18374610Y7110690D01*
X18493572Y7005299D01*
X18493579Y7005293D01*
X18634315Y6931429D01*
X18788637Y6893392D01*
X18788640Y6893392D01*
X18947576Y6893392D01*
X18947579Y6893392D01*
X19101901Y6931429D01*
X19242637Y7005293D01*
X19361606Y7110691D01*
X19451895Y7241497D01*
X19508257Y7390110D01*
X19526629Y7541421D01*
X19527415Y7547891D01*
X19527415Y7547893D01*
X19520230Y7607060D01*
X19517170Y7632262D01*
X19528068Y7687931D01*
X19527048Y7688430D01*
X19528913Y7692246D01*
X19528925Y7692305D01*
X19529001Y7692426D01*
X19530650Y7695800D01*
X19530650Y7695802D01*
X19530653Y7695805D01*
X19546197Y7748022D01*
X19546799Y7749900D01*
X19564500Y7801457D01*
X19564500Y7801462D01*
X19565805Y7809280D01*
X19566790Y7817189D01*
X19566792Y7817194D01*
X19564541Y7871612D01*
X19564500Y7873623D01*
X19564500Y9879643D01*
X19564482Y9879781D01*
X19558422Y9925811D01*
X19553130Y9937159D01*
X19511178Y10027127D01*
X19511177Y10027128D01*
X19511177Y10027129D01*
X19459994Y10078312D01*
X19432219Y10132826D01*
X19431000Y10148313D01*
X19431000Y12711687D01*
X19449907Y12769878D01*
X19459990Y12781685D01*
X19511177Y12832871D01*
X19558422Y12934189D01*
X19564500Y12980356D01*
X19564500Y13754644D01*
X19564500Y13754645D01*
X19564500Y15176800D01*
X19583407Y15234991D01*
X19593485Y15246792D01*
X19747699Y15401007D01*
X19802214Y15428782D01*
X19817701Y15430001D01*
X19886704Y15430001D01*
X19944895Y15411094D01*
X19980859Y15361594D01*
X19984982Y15319068D01*
X19972514Y15216385D01*
X19972514Y15216381D01*
X19979977Y15154910D01*
X19968221Y15094864D01*
X19935854Y15060103D01*
X19924420Y15052632D01*
X19924415Y15052628D01*
X19901883Y15023678D01*
X19897823Y15019081D01*
X19894425Y15015683D01*
X19894414Y15015671D01*
X19881287Y14997286D01*
X19880067Y14995649D01*
X19846623Y14952679D01*
X19842839Y14945686D01*
X19839347Y14938542D01*
X19823812Y14886363D01*
X19823188Y14884416D01*
X19805499Y14832891D01*
X19804195Y14825074D01*
X19803208Y14817153D01*
X19803208Y14817152D01*
X19805458Y14762735D01*
X19805500Y14760726D01*
X19805500Y13754644D01*
X19805500Y12980356D01*
X19811578Y12934189D01*
X19811579Y12934186D01*
X19811581Y12934181D01*
X19858821Y12832874D01*
X19858822Y12832873D01*
X19858823Y12832871D01*
X19910005Y12781689D01*
X19937781Y12727174D01*
X19939000Y12711687D01*
X19939000Y10148314D01*
X19920093Y10090123D01*
X19910004Y10078311D01*
X19858823Y10027130D01*
X19858821Y10027127D01*
X19811581Y9925820D01*
X19811578Y9925813D01*
X19811578Y9925811D01*
X19809892Y9913000D01*
X19805500Y9879643D01*
X19805500Y8057217D01*
X19803393Y8036903D01*
X19800603Y8023593D01*
X19800581Y8023490D01*
X19800840Y8021410D01*
X19805120Y7987081D01*
X19805500Y7980952D01*
X19805500Y7976145D01*
X19809212Y7953896D01*
X19809507Y7951873D01*
X19816247Y7897811D01*
X19818519Y7890176D01*
X19821099Y7882665D01*
X19821099Y7882664D01*
X19821100Y7882663D01*
X19847020Y7834765D01*
X19847933Y7832993D01*
X19857366Y7813699D01*
X19871872Y7784025D01*
X19876485Y7777564D01*
X19881380Y7771275D01*
X19881381Y7771274D01*
X19920730Y7735050D01*
X19921414Y7734421D01*
X19922891Y7733004D01*
X20070106Y7585790D01*
X20097883Y7531273D01*
X20092669Y7480681D01*
X20060852Y7396785D01*
X20060850Y7396781D01*
X20041693Y7239002D01*
X20041693Y7239000D01*
X20060850Y7081220D01*
X20060853Y7081211D01*
X20117210Y6932610D01*
X20117212Y6932607D01*
X20117213Y6932605D01*
X20193420Y6822200D01*
X20207502Y6801799D01*
X20207502Y6801798D01*
X20287417Y6731000D01*
X20326471Y6696401D01*
X20467207Y6622537D01*
X20621529Y6584500D01*
X20621532Y6584500D01*
X20780468Y6584500D01*
X20780471Y6584500D01*
X20934793Y6622537D01*
X21075529Y6696401D01*
X21194498Y6801799D01*
X21284787Y6932605D01*
X21341149Y7081218D01*
X21360307Y7239000D01*
X21359225Y7247910D01*
X21370979Y7307954D01*
X21415783Y7349623D01*
X21433803Y7355964D01*
X21574979Y7390760D01*
X21715715Y7464624D01*
X21834684Y7570022D01*
X21924973Y7700828D01*
X21981335Y7849441D01*
X21995415Y7965402D01*
X22000493Y8007222D01*
X22000493Y8007225D01*
X21985249Y8132766D01*
X21981335Y8165005D01*
X21973752Y8185000D01*
X21924975Y8313614D01*
X21924973Y8313617D01*
X21924973Y8313618D01*
X21834684Y8444424D01*
X21834683Y8444425D01*
X21834683Y8444426D01*
X21715721Y8549817D01*
X21715719Y8549819D01*
X21715715Y8549822D01*
X21715711Y8549824D01*
X21715710Y8549825D01*
X21574977Y8623687D01*
X21420659Y8661723D01*
X21420657Y8661723D01*
X21264388Y8661723D01*
X21206197Y8680630D01*
X21194384Y8690719D01*
X21093496Y8791607D01*
X21065719Y8846124D01*
X21064500Y8861611D01*
X21064500Y9846589D01*
X21083407Y9904780D01*
X21106676Y9927413D01*
X21193273Y10014009D01*
X21194136Y10013146D01*
X21235219Y10044770D01*
X21268411Y10050500D01*
X21559173Y10050500D01*
X23227540Y10050500D01*
X23285731Y10031593D01*
X23321695Y9982093D01*
X23321695Y9920907D01*
X23309855Y9896499D01*
X23255266Y9814801D01*
X23244458Y9760464D01*
X23240500Y9740567D01*
X23240500Y8293437D01*
X23240501Y8293430D01*
X23255265Y8219200D01*
X23255266Y8219198D01*
X23310333Y8136786D01*
X23311516Y8135016D01*
X23395699Y8078766D01*
X23469933Y8064000D01*
X23469934Y8064001D01*
X23469935Y8064000D01*
X23470693Y8063925D01*
X23471012Y8063786D01*
X23474704Y8063051D01*
X23474542Y8062242D01*
X23526753Y8039412D01*
X23557697Y7986628D01*
X23560000Y7965401D01*
X23560000Y7541421D01*
X23541093Y7483230D01*
X23502126Y7451368D01*
X23372120Y7391996D01*
X23372100Y7391985D01*
X23309978Y7352063D01*
X23309976Y7352062D01*
X23309974Y7352060D01*
X23307162Y7349623D01*
X23201314Y7257907D01*
X23201304Y7257897D01*
X23152948Y7202091D01*
X23152939Y7202079D01*
X23075218Y7081142D01*
X23075214Y7081135D01*
X23044531Y7013947D01*
X23004025Y6875996D01*
X23004024Y6875992D01*
X22993514Y6802894D01*
X22993514Y6802889D01*
X22993514Y6231000D01*
X23013266Y6131699D01*
X23013267Y6131698D01*
X23016999Y6122688D01*
X23014445Y6121631D01*
X23026998Y6077100D01*
X23014989Y6040138D01*
X23016996Y6039306D01*
X23013265Y6030302D01*
X22993514Y5931004D01*
X22993514Y5359107D01*
X23004024Y5286009D01*
X23004025Y5286005D01*
X23044531Y5148054D01*
X23075214Y5080866D01*
X23075218Y5080859D01*
X23152939Y4959922D01*
X23152945Y4959914D01*
X23201313Y4904094D01*
X23309974Y4809940D01*
X23372105Y4770012D01*
X23376887Y4767829D01*
X23421964Y4726460D01*
X23434118Y4666494D01*
X23420587Y4630437D01*
X23421996Y4629697D01*
X23419210Y4624391D01*
X23362853Y4475790D01*
X23362850Y4475781D01*
X23343693Y4318002D01*
X23343693Y4317999D01*
X23362850Y4160220D01*
X23362853Y4160211D01*
X23419210Y4011610D01*
X23419212Y4011607D01*
X23419213Y4011605D01*
X23497029Y3898869D01*
X23509502Y3880799D01*
X23509502Y3880798D01*
X23605409Y3795832D01*
X23628471Y3775401D01*
X23769207Y3701537D01*
X23923529Y3663500D01*
X23923532Y3663500D01*
X24082468Y3663500D01*
X24082471Y3663500D01*
X24236793Y3701537D01*
X24377529Y3775401D01*
X24496498Y3880799D01*
X24586787Y4011605D01*
X24643149Y4160218D01*
X24662307Y4318000D01*
X24643149Y4475782D01*
X24615998Y4547372D01*
X24586789Y4624391D01*
X24584004Y4629697D01*
X24586009Y4630750D01*
X24571265Y4680170D01*
X24591575Y4737886D01*
X24629115Y4767830D01*
X24633895Y4770012D01*
X24696026Y4809940D01*
X24804687Y4904094D01*
X24853055Y4959914D01*
X24930787Y5080868D01*
X24961468Y5148051D01*
X25001975Y5286006D01*
X25008876Y5334001D01*
X28148000Y5334001D01*
X28148001Y5334000D01*
X28843382Y5334000D01*
X28791553Y5244228D01*
X28761736Y5113593D01*
X28771749Y4979972D01*
X28820703Y4855240D01*
X28844021Y4826000D01*
X28148001Y4826000D01*
X28148001Y4273209D01*
X28150909Y4248126D01*
X28196213Y4145523D01*
X28275522Y4066214D01*
X28378127Y4020910D01*
X28403203Y4018001D01*
X28955998Y4018001D01*
X28956000Y4018002D01*
X28956000Y4715195D01*
X29014960Y4674996D01*
X29143002Y4635500D01*
X29243312Y4635500D01*
X29342499Y4650450D01*
X29463224Y4708588D01*
X29464000Y4709309D01*
X29464000Y4018002D01*
X29464001Y4018001D01*
X30016790Y4018001D01*
X30016791Y4018002D01*
X30041874Y4020910D01*
X30144477Y4066214D01*
X30223786Y4145523D01*
X30269090Y4248128D01*
X30271999Y4273203D01*
X30272000Y4273206D01*
X30272000Y4826000D01*
X29576618Y4826000D01*
X29628447Y4915772D01*
X29658264Y5046407D01*
X29648251Y5180028D01*
X29599297Y5304760D01*
X29575979Y5334000D01*
X30271998Y5334000D01*
X30271999Y5334001D01*
X30688000Y5334001D01*
X30688001Y5334000D01*
X31383382Y5334000D01*
X31331553Y5244228D01*
X31301736Y5113593D01*
X31311749Y4979972D01*
X31360703Y4855240D01*
X31384021Y4826000D01*
X30688002Y4826000D01*
X30688001Y4825999D01*
X30688001Y4273209D01*
X30690909Y4248126D01*
X30736213Y4145523D01*
X30815522Y4066214D01*
X30918127Y4020910D01*
X30943203Y4018001D01*
X31495998Y4018001D01*
X31496000Y4018002D01*
X31496000Y4715195D01*
X31554960Y4674996D01*
X31683002Y4635500D01*
X31783312Y4635500D01*
X31882499Y4650450D01*
X32003224Y4708588D01*
X32004000Y4709309D01*
X32004000Y4018002D01*
X32004001Y4018001D01*
X32556790Y4018001D01*
X32556791Y4018002D01*
X32581874Y4020910D01*
X32684477Y4066214D01*
X32763786Y4145523D01*
X32809090Y4248128D01*
X32811999Y4273203D01*
X32812000Y4273205D01*
X32812000Y4825999D01*
X32811999Y4826000D01*
X32116618Y4826000D01*
X32168447Y4915772D01*
X32198264Y5046407D01*
X32188251Y5180028D01*
X32139297Y5304760D01*
X32115979Y5334000D01*
X32811998Y5334000D01*
X32811999Y5334001D01*
X32811999Y5886791D01*
X32811998Y5886792D01*
X32809090Y5911875D01*
X32763786Y6014478D01*
X32684477Y6093787D01*
X32581872Y6139091D01*
X32556797Y6142000D01*
X32004000Y6142000D01*
X32004000Y5444806D01*
X31945040Y5485004D01*
X31816998Y5524500D01*
X31716688Y5524500D01*
X31617501Y5509550D01*
X31496776Y5451412D01*
X31496000Y5450692D01*
X31496000Y6141999D01*
X31495999Y6142000D01*
X30943210Y6142000D01*
X30943207Y6141999D01*
X30918125Y6139091D01*
X30815522Y6093787D01*
X30736213Y6014478D01*
X30690909Y5911873D01*
X30688000Y5886798D01*
X30688000Y5334001D01*
X30271999Y5334001D01*
X30271999Y5886791D01*
X30271998Y5886792D01*
X30269090Y5911875D01*
X30223786Y6014478D01*
X30144477Y6093787D01*
X30041872Y6139091D01*
X30016797Y6142000D01*
X29464001Y6142000D01*
X29464000Y6141999D01*
X29464000Y5444806D01*
X29405040Y5485004D01*
X29276998Y5524500D01*
X29176688Y5524500D01*
X29077501Y5509550D01*
X28956776Y5451412D01*
X28956000Y5450692D01*
X28956000Y6141999D01*
X28955999Y6142000D01*
X28403210Y6142000D01*
X28403207Y6141999D01*
X28378125Y6139091D01*
X28275522Y6093787D01*
X28196213Y6014478D01*
X28150909Y5911873D01*
X28148000Y5886798D01*
X28148000Y5334001D01*
X25008876Y5334001D01*
X25012486Y5359107D01*
X25012486Y5930999D01*
X25012486Y5931000D01*
X24992734Y6030301D01*
X24992730Y6030306D01*
X24989001Y6039312D01*
X24991555Y6040371D01*
X24979000Y6084882D01*
X24991013Y6121855D01*
X24989001Y6122688D01*
X24992729Y6131693D01*
X24992734Y6131699D01*
X25012486Y6231000D01*
X25012486Y6802889D01*
X25012486Y6802894D01*
X25004978Y6855107D01*
X25001975Y6875994D01*
X24961468Y7013949D01*
X24930787Y7081132D01*
X24930781Y7081142D01*
X24853060Y7202079D01*
X24853051Y7202091D01*
X24804695Y7257897D01*
X24804693Y7257899D01*
X24804687Y7257906D01*
X24696026Y7352060D01*
X24633895Y7391988D01*
X24503110Y7451716D01*
X24503108Y7451717D01*
X24503105Y7451718D01*
X24432250Y7472524D01*
X24432245Y7472525D01*
X24403908Y7476600D01*
X24349001Y7503598D01*
X24320449Y7557713D01*
X24319000Y7574592D01*
X24319000Y7965402D01*
X24337907Y8023593D01*
X24387407Y8059557D01*
X24408304Y8063926D01*
X24409058Y8064001D01*
X24409066Y8064001D01*
X24483301Y8078766D01*
X24567484Y8135016D01*
X24623734Y8219199D01*
X24638500Y8293433D01*
X24638500Y8763000D01*
X25100001Y8763000D01*
X25100001Y8273709D01*
X25102909Y8248626D01*
X25148213Y8146023D01*
X25227522Y8066714D01*
X25330127Y8021410D01*
X25355203Y8018501D01*
X25590498Y8018501D01*
X25590500Y8018503D01*
X25590500Y8763000D01*
X26098500Y8763000D01*
X26098500Y8018502D01*
X26098501Y8018501D01*
X26333790Y8018501D01*
X26333791Y8018502D01*
X26358874Y8021410D01*
X26461477Y8066714D01*
X26540786Y8146023D01*
X26586090Y8248628D01*
X26588999Y8273703D01*
X26589000Y8273706D01*
X26588999Y8762999D01*
X26588999Y8763000D01*
X26098500Y8763000D01*
X25590500Y8763000D01*
X25100001Y8763000D01*
X24638500Y8763000D01*
X24638499Y9271001D01*
X25100000Y9271001D01*
X25100001Y9271000D01*
X25590499Y9271000D01*
X25590500Y9271001D01*
X25590500Y10015499D01*
X25590499Y10015500D01*
X25355210Y10015500D01*
X25355207Y10015499D01*
X25330125Y10012591D01*
X25227522Y9967287D01*
X25148213Y9887978D01*
X25102909Y9785373D01*
X25100000Y9760298D01*
X25100000Y9271001D01*
X24638499Y9271001D01*
X24638499Y9624022D01*
X24657406Y9682212D01*
X24671843Y9698117D01*
X24750498Y9767799D01*
X24840787Y9898605D01*
X24851765Y9927550D01*
X24865926Y9964891D01*
X24897149Y10047218D01*
X24916307Y10205000D01*
X24897149Y10362782D01*
X24897102Y10362906D01*
X24876817Y10416394D01*
X24873860Y10477508D01*
X24907390Y10528688D01*
X24964600Y10550384D01*
X24969383Y10550500D01*
X25701798Y10550500D01*
X25759989Y10531593D01*
X25771802Y10521504D01*
X26118149Y10175157D01*
X26145926Y10120640D01*
X26136355Y10060208D01*
X26118149Y10035150D01*
X26098500Y10015501D01*
X26098500Y9271002D01*
X26098501Y9271000D01*
X26588998Y9271000D01*
X26588999Y9271001D01*
X26588999Y9465299D01*
X26607906Y9523490D01*
X26657406Y9559454D01*
X26718592Y9559454D01*
X26758003Y9535303D01*
X28164504Y8128802D01*
X28192281Y8074285D01*
X28193500Y8058798D01*
X28193500Y6832937D01*
X28193501Y6832930D01*
X28208265Y6758700D01*
X28208266Y6758698D01*
X28249894Y6696399D01*
X28264516Y6674516D01*
X28348699Y6618266D01*
X28422933Y6603500D01*
X29997066Y6603501D01*
X30071301Y6618266D01*
X30155484Y6674516D01*
X30211734Y6758699D01*
X30226500Y6832933D01*
X30226500Y7141500D01*
X30245407Y7199691D01*
X30294907Y7235655D01*
X30325500Y7240500D01*
X30634501Y7240500D01*
X30692692Y7221593D01*
X30728656Y7172093D01*
X30733501Y7141500D01*
X30733501Y6832930D01*
X30748265Y6758700D01*
X30748266Y6758698D01*
X30789894Y6696399D01*
X30804516Y6674516D01*
X30888699Y6618266D01*
X30962933Y6603500D01*
X32537066Y6603501D01*
X32611301Y6618266D01*
X32695484Y6674516D01*
X32751734Y6758699D01*
X32766500Y6832933D01*
X32766499Y8407066D01*
X32751734Y8481301D01*
X32751733Y8481303D01*
X32695486Y8565481D01*
X32695485Y8565482D01*
X32695484Y8565484D01*
X32611301Y8621734D01*
X32537067Y8636500D01*
X32537066Y8636500D01*
X30962936Y8636500D01*
X30962929Y8636499D01*
X30888699Y8621735D01*
X30888697Y8621734D01*
X30804519Y8565487D01*
X30804514Y8565482D01*
X30772796Y8518012D01*
X30748266Y8481301D01*
X30736468Y8421987D01*
X30733500Y8407068D01*
X30733500Y8098500D01*
X30714593Y8040309D01*
X30665093Y8004345D01*
X30634500Y7999500D01*
X30325499Y7999500D01*
X30267308Y8018407D01*
X30231344Y8067907D01*
X30226499Y8098500D01*
X30226499Y8407064D01*
X30226498Y8407068D01*
X30211734Y8481301D01*
X30211733Y8481303D01*
X30155486Y8565481D01*
X30155485Y8565482D01*
X30155484Y8565484D01*
X30071301Y8621734D01*
X29997067Y8636500D01*
X28771202Y8636500D01*
X28713011Y8655407D01*
X28701198Y8665496D01*
X28392197Y8974497D01*
X28364420Y9029014D01*
X28373991Y9089446D01*
X28417256Y9132711D01*
X28462196Y9143501D01*
X29997066Y9143501D01*
X30071301Y9158266D01*
X30155484Y9214516D01*
X30211734Y9298699D01*
X30226500Y9372933D01*
X30226500Y9681500D01*
X30245407Y9739691D01*
X30294907Y9775655D01*
X30325500Y9780500D01*
X30634501Y9780500D01*
X30692692Y9761593D01*
X30728656Y9712093D01*
X30733501Y9681500D01*
X30733501Y9372930D01*
X30748265Y9298700D01*
X30748266Y9298698D01*
X30799986Y9221295D01*
X30804516Y9214516D01*
X30888699Y9158266D01*
X30962933Y9143500D01*
X32537066Y9143501D01*
X32611301Y9158266D01*
X32695484Y9214516D01*
X32751734Y9298699D01*
X32766500Y9372933D01*
X32766499Y10947066D01*
X32751734Y11021301D01*
X32751733Y11021303D01*
X32695486Y11105481D01*
X32695485Y11105482D01*
X32695484Y11105484D01*
X32611301Y11161734D01*
X32537067Y11176500D01*
X32537066Y11176500D01*
X30962936Y11176500D01*
X30962929Y11176499D01*
X30888699Y11161735D01*
X30888697Y11161734D01*
X30804519Y11105487D01*
X30804514Y11105482D01*
X30773575Y11059178D01*
X30748266Y11021301D01*
X30736437Y10961835D01*
X30733500Y10947068D01*
X30733500Y10638500D01*
X30714593Y10580309D01*
X30665093Y10544345D01*
X30634500Y10539500D01*
X30325499Y10539500D01*
X30267308Y10558407D01*
X30231344Y10607907D01*
X30226499Y10638500D01*
X30226499Y10947064D01*
X30226498Y10947068D01*
X30211734Y11021301D01*
X30211733Y11021303D01*
X30155486Y11105481D01*
X30155485Y11105482D01*
X30155484Y11105484D01*
X30071301Y11161734D01*
X29997067Y11176500D01*
X29997066Y11176500D01*
X28422936Y11176500D01*
X28422929Y11176499D01*
X28348699Y11161735D01*
X28348697Y11161734D01*
X28264519Y11105487D01*
X28264514Y11105482D01*
X28233575Y11059178D01*
X28208266Y11021301D01*
X28196437Y10961835D01*
X28193500Y10947068D01*
X28193500Y10638500D01*
X28174593Y10580309D01*
X28125093Y10544345D01*
X28094500Y10539500D01*
X27893507Y10539500D01*
X27835316Y10558407D01*
X27823503Y10568496D01*
X27279081Y11112918D01*
X27251304Y11167435D01*
X27250807Y11194852D01*
X27258273Y11256339D01*
X27256367Y11272033D01*
X27239115Y11414120D01*
X27239112Y11414129D01*
X27182755Y11562730D01*
X27182753Y11562733D01*
X27182753Y11562734D01*
X27092464Y11693540D01*
X27092463Y11693541D01*
X27092463Y11693542D01*
X26973501Y11798933D01*
X26973499Y11798935D01*
X26973495Y11798938D01*
X26973491Y11798940D01*
X26973490Y11798941D01*
X26832757Y11872803D01*
X26678439Y11910839D01*
X26678437Y11910839D01*
X26519495Y11910839D01*
X26519492Y11910839D01*
X26365174Y11872803D01*
X26224441Y11798941D01*
X26224430Y11798933D01*
X26105468Y11693542D01*
X26105468Y11693541D01*
X26015178Y11562733D01*
X26015176Y11562730D01*
X25958819Y11414129D01*
X25958816Y11414119D01*
X25956686Y11396568D01*
X25930903Y11341080D01*
X25877430Y11311345D01*
X25858408Y11309500D01*
X25350383Y11309500D01*
X25292192Y11328407D01*
X25256228Y11377907D01*
X25256228Y11439093D01*
X25257817Y11443606D01*
X25275541Y11490342D01*
X25278149Y11497218D01*
X25297307Y11655000D01*
X25296250Y11663702D01*
X25281621Y11784189D01*
X25278149Y11812782D01*
X25240168Y11912930D01*
X25240165Y11912937D01*
X28193500Y11912937D01*
X28193501Y11912930D01*
X28208265Y11838700D01*
X28208266Y11838698D01*
X28264513Y11754520D01*
X28264516Y11754516D01*
X28348699Y11698266D01*
X28422933Y11683500D01*
X29997066Y11683501D01*
X30071301Y11698266D01*
X30155484Y11754516D01*
X30211734Y11838699D01*
X30226500Y11912933D01*
X30226500Y12221501D01*
X30245407Y12279691D01*
X30294907Y12315655D01*
X30325500Y12320500D01*
X30634501Y12320500D01*
X30692692Y12301593D01*
X30728656Y12252093D01*
X30733501Y12221500D01*
X30733501Y11912930D01*
X30748265Y11838700D01*
X30748266Y11838698D01*
X30804513Y11754520D01*
X30804516Y11754516D01*
X30888699Y11698266D01*
X30962933Y11683500D01*
X32537066Y11683501D01*
X32611301Y11698266D01*
X32695484Y11754516D01*
X32751734Y11838699D01*
X32766500Y11912933D01*
X32766499Y13487066D01*
X32751734Y13561301D01*
X32751733Y13561303D01*
X32695486Y13645481D01*
X32695485Y13645482D01*
X32695484Y13645484D01*
X32611301Y13701734D01*
X32537067Y13716500D01*
X32537066Y13716500D01*
X30962936Y13716500D01*
X30962929Y13716499D01*
X30888699Y13701735D01*
X30888697Y13701734D01*
X30804519Y13645487D01*
X30804514Y13645482D01*
X30788155Y13620999D01*
X30748266Y13561301D01*
X30736437Y13501834D01*
X30733500Y13487068D01*
X30733500Y13178500D01*
X30714593Y13120309D01*
X30665093Y13084345D01*
X30634500Y13079500D01*
X30325499Y13079500D01*
X30267308Y13098407D01*
X30231344Y13147907D01*
X30226499Y13178500D01*
X30226499Y13487064D01*
X30226498Y13487068D01*
X30211734Y13561301D01*
X30211733Y13561303D01*
X30155486Y13645481D01*
X30155485Y13645482D01*
X30155484Y13645484D01*
X30071301Y13701734D01*
X29997067Y13716500D01*
X29997066Y13716500D01*
X28422936Y13716500D01*
X28422929Y13716499D01*
X28348699Y13701735D01*
X28348697Y13701734D01*
X28264519Y13645487D01*
X28264514Y13645482D01*
X28248155Y13620999D01*
X28208266Y13561301D01*
X28193501Y13487071D01*
X28193500Y13487067D01*
X28193500Y11912937D01*
X25240165Y11912937D01*
X25221789Y11961391D01*
X25221787Y11961394D01*
X25221787Y11961395D01*
X25131498Y12092201D01*
X25131497Y12092202D01*
X25131497Y12092203D01*
X25012535Y12197594D01*
X25012533Y12197596D01*
X25012529Y12197599D01*
X25012525Y12197601D01*
X25012524Y12197602D01*
X24871791Y12271464D01*
X24839544Y12279412D01*
X24787569Y12311696D01*
X24764496Y12368364D01*
X24779139Y12427772D01*
X24793228Y12445535D01*
X27179197Y14831504D01*
X27233715Y14859281D01*
X27249202Y14860500D01*
X28094501Y14860500D01*
X28152692Y14841593D01*
X28188656Y14792093D01*
X28193501Y14761500D01*
X28193501Y14452930D01*
X28208265Y14378700D01*
X28208266Y14378698D01*
X28264328Y14294797D01*
X28264516Y14294516D01*
X28348699Y14238266D01*
X28422933Y14223500D01*
X29997066Y14223501D01*
X30071301Y14238266D01*
X30155484Y14294516D01*
X30211734Y14378699D01*
X30226500Y14452933D01*
X30226500Y14761501D01*
X30245407Y14819691D01*
X30294907Y14855655D01*
X30325500Y14860500D01*
X30634501Y14860500D01*
X30692692Y14841593D01*
X30728656Y14792093D01*
X30733501Y14761500D01*
X30733501Y14452930D01*
X30748265Y14378700D01*
X30748266Y14378698D01*
X30804328Y14294797D01*
X30804516Y14294516D01*
X30888699Y14238266D01*
X30962933Y14223500D01*
X32537066Y14223501D01*
X32611301Y14238266D01*
X32695484Y14294516D01*
X32751734Y14378699D01*
X32766500Y14452933D01*
X32766499Y16027066D01*
X32751734Y16101301D01*
X32751733Y16101303D01*
X32695486Y16185481D01*
X32695485Y16185482D01*
X32695484Y16185484D01*
X32611301Y16241734D01*
X32537067Y16256500D01*
X32537066Y16256500D01*
X30962936Y16256500D01*
X30962929Y16256499D01*
X30888699Y16241735D01*
X30888697Y16241734D01*
X30804519Y16185487D01*
X30804514Y16185482D01*
X30774761Y16140953D01*
X30748266Y16101301D01*
X30736437Y16041835D01*
X30733500Y16027068D01*
X30733500Y15718500D01*
X30714593Y15660309D01*
X30665093Y15624345D01*
X30634500Y15619500D01*
X30325499Y15619500D01*
X30267308Y15638407D01*
X30231344Y15687907D01*
X30226499Y15718500D01*
X30226499Y16027064D01*
X30226498Y16027068D01*
X30211734Y16101301D01*
X30211733Y16101303D01*
X30155486Y16185481D01*
X30155485Y16185482D01*
X30155484Y16185484D01*
X30071301Y16241734D01*
X29997067Y16256500D01*
X29997066Y16256500D01*
X28422936Y16256500D01*
X28422929Y16256499D01*
X28348699Y16241735D01*
X28348697Y16241734D01*
X28264519Y16185487D01*
X28264514Y16185482D01*
X28234761Y16140953D01*
X28208266Y16101301D01*
X28196437Y16041835D01*
X28193500Y16027068D01*
X28193500Y15718500D01*
X28174593Y15660309D01*
X28125093Y15624345D01*
X28094500Y15619500D01*
X27767500Y15619500D01*
X27709309Y15638407D01*
X27673345Y15687907D01*
X27668500Y15718500D01*
X27668500Y16128999D01*
X27668499Y16129000D01*
X26179502Y16129000D01*
X26179501Y16128999D01*
X26179501Y15639709D01*
X26182409Y15614626D01*
X26227713Y15512023D01*
X26307022Y15432714D01*
X26409624Y15387411D01*
X26432158Y15384797D01*
X26487783Y15359310D01*
X26517803Y15305996D01*
X26510753Y15245218D01*
X26490755Y15216452D01*
X23759968Y12485664D01*
X23705451Y12457887D01*
X23645019Y12467458D01*
X23601754Y12510723D01*
X23592183Y12571155D01*
X23597394Y12590762D01*
X23627149Y12669218D01*
X23646307Y12827000D01*
X23645650Y12832407D01*
X23627149Y12984781D01*
X23627146Y12984790D01*
X23570789Y13133391D01*
X23570787Y13133394D01*
X23570787Y13133395D01*
X23480498Y13264201D01*
X23480497Y13264202D01*
X23480497Y13264203D01*
X23361535Y13369594D01*
X23361533Y13369596D01*
X23361529Y13369599D01*
X23361525Y13369601D01*
X23361524Y13369602D01*
X23220791Y13443464D01*
X23066473Y13481500D01*
X23066471Y13481500D01*
X22907529Y13481500D01*
X22907526Y13481500D01*
X22753208Y13443464D01*
X22612475Y13369602D01*
X22612464Y13369594D01*
X22493502Y13264203D01*
X22493501Y13264201D01*
X22483192Y13249264D01*
X22434577Y13212113D01*
X22401715Y13206500D01*
X22069127Y13206500D01*
X22048812Y13208607D01*
X22035401Y13211419D01*
X22035400Y13211419D01*
X21998985Y13206880D01*
X21992861Y13206500D01*
X21988057Y13206500D01*
X21980646Y13205264D01*
X21965787Y13202785D01*
X21963766Y13202491D01*
X21909719Y13195753D01*
X21902108Y13193487D01*
X21894570Y13190900D01*
X21846686Y13164986D01*
X21844867Y13164050D01*
X21795934Y13140128D01*
X21789466Y13135510D01*
X21783182Y13130619D01*
X21746317Y13090572D01*
X21744901Y13089097D01*
X21494303Y12838497D01*
X21439786Y12810719D01*
X21424299Y12809500D01*
X21268411Y12809500D01*
X21210220Y12828407D01*
X21187587Y12851677D01*
X21100991Y12938273D01*
X21101854Y12939137D01*
X21070227Y12980228D01*
X21064500Y13013412D01*
X21064500Y13678798D01*
X21083407Y13736989D01*
X21093497Y13748802D01*
X21181323Y13836628D01*
X21306583Y13961887D01*
X21306582Y13961888D01*
X21335567Y13990872D01*
X21335579Y13990885D01*
X21950815Y14606121D01*
X22500044Y15155350D01*
X22554560Y15183126D01*
X22614992Y15173555D01*
X22658257Y15130290D01*
X22667828Y15069858D01*
X22659262Y15044023D01*
X22659336Y15043994D01*
X22658673Y15042249D01*
X22657711Y15039344D01*
X22657211Y15038392D01*
X22600853Y14889790D01*
X22600850Y14889781D01*
X22581693Y14732002D01*
X22581693Y14731999D01*
X22600850Y14574220D01*
X22600853Y14574211D01*
X22657210Y14425610D01*
X22657212Y14425607D01*
X22657213Y14425605D01*
X22695659Y14369907D01*
X22747502Y14294799D01*
X22747502Y14294798D01*
X22862394Y14193013D01*
X22866471Y14189401D01*
X23007207Y14115537D01*
X23161529Y14077500D01*
X23161532Y14077500D01*
X23320468Y14077500D01*
X23320471Y14077500D01*
X23474793Y14115537D01*
X23615529Y14189401D01*
X23734176Y14294514D01*
X23734497Y14294798D01*
X23734497Y14294799D01*
X23734498Y14294799D01*
X23824787Y14425605D01*
X23881149Y14574218D01*
X23900307Y14732000D01*
X23895375Y14772616D01*
X23881981Y14882930D01*
X23881149Y14889782D01*
X23862657Y14938542D01*
X23824789Y15038391D01*
X23824787Y15038394D01*
X23824787Y15038395D01*
X23734498Y15169201D01*
X23653849Y15240651D01*
X23622832Y15293390D01*
X23620500Y15314752D01*
X23620500Y15331001D01*
X23639407Y15389192D01*
X23688907Y15425156D01*
X23719500Y15430001D01*
X23837564Y15430001D01*
X23837566Y15430001D01*
X23911801Y15444766D01*
X23995984Y15501016D01*
X24052234Y15585199D01*
X24067000Y15659433D01*
X24067000Y15904500D01*
X24085907Y15962691D01*
X24135407Y15998655D01*
X24166000Y16003500D01*
X24221001Y16003500D01*
X24279192Y15984593D01*
X24315156Y15935093D01*
X24320001Y15904500D01*
X24320001Y15659430D01*
X24334765Y15585200D01*
X24334766Y15585198D01*
X24391013Y15501020D01*
X24391016Y15501016D01*
X24475199Y15444766D01*
X24549433Y15430000D01*
X25488566Y15430001D01*
X25562801Y15444766D01*
X25646984Y15501016D01*
X25703234Y15585199D01*
X25718000Y15659433D01*
X25717999Y16637001D01*
X26179500Y16637001D01*
X26179501Y16637000D01*
X26669999Y16637000D01*
X26670000Y16637001D01*
X27178000Y16637001D01*
X27178001Y16637000D01*
X27668498Y16637000D01*
X27668499Y16637002D01*
X27668499Y17126291D01*
X27668498Y17126292D01*
X27665590Y17151375D01*
X27620286Y17253978D01*
X27540977Y17333287D01*
X27438372Y17378591D01*
X27413297Y17381500D01*
X27178001Y17381500D01*
X27178000Y17381499D01*
X27178000Y16637001D01*
X26670000Y16637001D01*
X26670000Y17381499D01*
X26669999Y17381500D01*
X26434710Y17381500D01*
X26434707Y17381499D01*
X26409625Y17378591D01*
X26307022Y17333287D01*
X26227713Y17253978D01*
X26182409Y17151373D01*
X26179500Y17126298D01*
X26179500Y16637001D01*
X25717999Y16637001D01*
X25717999Y17106566D01*
X25703234Y17180801D01*
X25703233Y17180803D01*
X25646986Y17264981D01*
X25646985Y17264982D01*
X25646984Y17264984D01*
X25562801Y17321234D01*
X25488567Y17336000D01*
X25488566Y17336000D01*
X24549436Y17336000D01*
X24549429Y17335999D01*
X24475199Y17321235D01*
X24475197Y17321234D01*
X24391019Y17264987D01*
X24391014Y17264982D01*
X24375131Y17241211D01*
X24334766Y17180801D01*
X24324060Y17126978D01*
X24320000Y17106568D01*
X24320000Y16861500D01*
X24301093Y16803309D01*
X24251593Y16767345D01*
X24221000Y16762500D01*
X24165999Y16762500D01*
X24107808Y16781407D01*
X24071844Y16830907D01*
X24066999Y16861500D01*
X24066999Y17106564D01*
X24066998Y17106568D01*
X24052234Y17180801D01*
X24052233Y17180803D01*
X23995986Y17264981D01*
X23995985Y17264982D01*
X23995984Y17264984D01*
X23911801Y17321234D01*
X23837567Y17336000D01*
X23837566Y17336000D01*
X22898436Y17336000D01*
X22898427Y17335999D01*
X22848360Y17326040D01*
X22787599Y17333233D01*
X22762000Y17350300D01*
X22742578Y17368178D01*
X22741107Y17369590D01*
X22246199Y17864497D01*
X22218422Y17919014D01*
X22227993Y17979446D01*
X22271258Y18022711D01*
X22316203Y18033501D01*
X23647064Y18033501D01*
X23647066Y18033501D01*
X23721301Y18048266D01*
X23805484Y18104516D01*
X23861734Y18188699D01*
X23876500Y18262933D01*
X23876500Y18262937D01*
X24383500Y18262937D01*
X24383501Y18262930D01*
X24398265Y18188700D01*
X24398266Y18188698D01*
X24454513Y18104520D01*
X24454516Y18104516D01*
X24538699Y18048266D01*
X24612933Y18033500D01*
X26187066Y18033501D01*
X26261301Y18048266D01*
X26345484Y18104516D01*
X26401734Y18188699D01*
X26416500Y18262933D01*
X26416499Y19837066D01*
X26401734Y19911301D01*
X26401733Y19911303D01*
X26345486Y19995481D01*
X26345485Y19995482D01*
X26345484Y19995484D01*
X26261301Y20051734D01*
X26187067Y20066500D01*
X25878500Y20066500D01*
X25820309Y20085407D01*
X25784345Y20134907D01*
X25779500Y20165500D01*
X25779500Y20474501D01*
X25798407Y20532692D01*
X25847907Y20568656D01*
X25878500Y20573501D01*
X26187064Y20573501D01*
X26187066Y20573501D01*
X26261301Y20588266D01*
X26345484Y20644516D01*
X26401734Y20728699D01*
X26416500Y20802933D01*
X26416499Y22377066D01*
X26401734Y22451301D01*
X26401733Y22451303D01*
X26345486Y22535481D01*
X26345485Y22535482D01*
X26345484Y22535484D01*
X26261301Y22591734D01*
X26187067Y22606500D01*
X26187066Y22606500D01*
X24612936Y22606500D01*
X24612929Y22606499D01*
X24538699Y22591735D01*
X24538697Y22591734D01*
X24454519Y22535487D01*
X24454514Y22535482D01*
X24417303Y22479792D01*
X24398266Y22451301D01*
X24389614Y22407803D01*
X24383500Y22377067D01*
X24383500Y20802937D01*
X24383501Y20802930D01*
X24398265Y20728700D01*
X24398266Y20728698D01*
X24454513Y20644520D01*
X24454516Y20644516D01*
X24538699Y20588266D01*
X24612933Y20573500D01*
X24921500Y20573501D01*
X24979690Y20554594D01*
X25015654Y20505094D01*
X25020500Y20474501D01*
X25020500Y20165500D01*
X25001593Y20107309D01*
X24952093Y20071345D01*
X24921500Y20066500D01*
X24612936Y20066500D01*
X24612929Y20066499D01*
X24538699Y20051735D01*
X24538697Y20051734D01*
X24454519Y19995487D01*
X24454514Y19995482D01*
X24417015Y19939362D01*
X24398266Y19911301D01*
X24394500Y19892367D01*
X24383500Y19837067D01*
X24383500Y18262937D01*
X23876500Y18262937D01*
X23876499Y19837066D01*
X23861734Y19911301D01*
X23861733Y19911303D01*
X23805486Y19995481D01*
X23805485Y19995482D01*
X23805484Y19995484D01*
X23721301Y20051734D01*
X23647067Y20066500D01*
X23338500Y20066500D01*
X23280309Y20085407D01*
X23244345Y20134907D01*
X23239500Y20165500D01*
X23239500Y20474501D01*
X23258407Y20532692D01*
X23307907Y20568656D01*
X23338500Y20573501D01*
X23647064Y20573501D01*
X23647066Y20573501D01*
X23721301Y20588266D01*
X23805484Y20644516D01*
X23861734Y20728699D01*
X23876500Y20802933D01*
X23876499Y22377066D01*
X23861734Y22451301D01*
X23861733Y22451303D01*
X23805486Y22535481D01*
X23805485Y22535482D01*
X23805484Y22535484D01*
X23721301Y22591734D01*
X23647067Y22606500D01*
X23647066Y22606500D01*
X22094023Y22606500D01*
X22035832Y22625407D01*
X21999868Y22674907D01*
X21995783Y22693257D01*
X21995430Y22696086D01*
X21995431Y22696088D01*
X21990892Y22732501D01*
X21990512Y22738628D01*
X21990512Y22743432D01*
X21986797Y22765696D01*
X21986502Y22767721D01*
X21979764Y22821770D01*
X21977492Y22829399D01*
X21974912Y22836915D01*
X21948996Y22884802D01*
X21948074Y22886592D01*
X21924138Y22935556D01*
X21924136Y22935558D01*
X21919536Y22942001D01*
X21914630Y22948305D01*
X21912058Y22950673D01*
X21874565Y22985188D01*
X21873119Y22986576D01*
X21512436Y23347258D01*
X21499561Y23363114D01*
X21492069Y23374581D01*
X21488209Y23377585D01*
X21463113Y23397118D01*
X21458514Y23401180D01*
X21455113Y23404581D01*
X21436739Y23417701D01*
X21435103Y23418920D01*
X21392118Y23452376D01*
X21385131Y23456157D01*
X21377979Y23459654D01*
X21333789Y23472809D01*
X21325806Y23475186D01*
X21323866Y23475807D01*
X21272326Y23493501D01*
X21264515Y23494804D01*
X21256591Y23495792D01*
X21256590Y23495792D01*
X21256588Y23495792D01*
X21252117Y23495607D01*
X21202173Y23493542D01*
X21200162Y23493500D01*
X14273622Y23493500D01*
X14253307Y23495607D01*
X14239901Y23498418D01*
X14239900Y23498418D01*
X14203491Y23493880D01*
X14197368Y23493500D01*
X14192554Y23493500D01*
X14170286Y23489785D01*
X14168264Y23489490D01*
X14114217Y23482753D01*
X14106632Y23480495D01*
X14099069Y23477899D01*
X14051180Y23451984D01*
X14049364Y23451049D01*
X14000433Y23427127D01*
X13993964Y23422508D01*
X13987682Y23417619D01*
X13950829Y23377585D01*
X13949413Y23376110D01*
X13208800Y22635496D01*
X13154283Y22607719D01*
X13138796Y22606500D01*
X11912936Y22606500D01*
X11912929Y22606499D01*
X11838699Y22591735D01*
X11838697Y22591734D01*
X11754519Y22535487D01*
X11754514Y22535482D01*
X11717303Y22479792D01*
X11698266Y22451301D01*
X11689614Y22407803D01*
X11683500Y22377067D01*
X11683500Y20802937D01*
X11683501Y20802930D01*
X11698265Y20728700D01*
X11698266Y20728698D01*
X11754513Y20644520D01*
X11754516Y20644516D01*
X11838699Y20588266D01*
X11912933Y20573500D01*
X13487066Y20573501D01*
X13561301Y20588266D01*
X13645484Y20644516D01*
X13701734Y20728699D01*
X13716500Y20802933D01*
X13716499Y22028799D01*
X13735406Y22086989D01*
X13745495Y22098802D01*
X14029437Y22382744D01*
X14054497Y22407804D01*
X14109013Y22435580D01*
X14169445Y22426009D01*
X14212710Y22382744D01*
X14223500Y22337799D01*
X14223500Y20802937D01*
X14223501Y20802930D01*
X14238265Y20728700D01*
X14238266Y20728698D01*
X14294513Y20644520D01*
X14294516Y20644516D01*
X14378699Y20588266D01*
X14452933Y20573500D01*
X14761500Y20573501D01*
X14819690Y20554594D01*
X14855654Y20505094D01*
X14860500Y20474501D01*
X14860500Y20165500D01*
X14841593Y20107309D01*
X14792093Y20071345D01*
X14761500Y20066500D01*
X14452936Y20066500D01*
X14452929Y20066499D01*
X14378699Y20051735D01*
X14378697Y20051734D01*
X14294519Y19995487D01*
X14294514Y19995482D01*
X14257015Y19939362D01*
X14238266Y19911301D01*
X14223500Y19837067D01*
X14223500Y19053500D01*
X14223501Y18333500D01*
X14204594Y18275309D01*
X14155094Y18239345D01*
X14124501Y18234500D01*
X13998306Y18234500D01*
X13992759Y18234812D01*
X13952819Y18239313D01*
X13952810Y18239313D01*
X13894762Y18228330D01*
X13892938Y18228020D01*
X13830256Y18218571D01*
X13769897Y18228593D01*
X13726956Y18272180D01*
X13716499Y18316461D01*
X13716499Y19837066D01*
X13701734Y19911301D01*
X13701733Y19911303D01*
X13645486Y19995481D01*
X13645485Y19995482D01*
X13645484Y19995484D01*
X13561301Y20051734D01*
X13487067Y20066500D01*
X13487066Y20066500D01*
X11912936Y20066500D01*
X11912929Y20066499D01*
X11838699Y20051735D01*
X11838697Y20051734D01*
X11754519Y19995487D01*
X11754514Y19995482D01*
X11717016Y19939363D01*
X11698266Y19911301D01*
X11694500Y19892367D01*
X11683500Y19837067D01*
X11683500Y18262937D01*
X11683501Y18262930D01*
X11698265Y18188700D01*
X11698266Y18188698D01*
X11754513Y18104520D01*
X11754516Y18104516D01*
X11838699Y18048266D01*
X11912933Y18033500D01*
X12221500Y18033501D01*
X12279690Y18014594D01*
X12315654Y17965094D01*
X12320500Y17934501D01*
X12320500Y17194627D01*
X12318393Y17174313D01*
X12315581Y17160900D01*
X12319895Y17126290D01*
X12320120Y17124491D01*
X12320500Y17118362D01*
X12320500Y17113555D01*
X12324212Y17091306D01*
X12324507Y17089283D01*
X12331247Y17035221D01*
X12333519Y17027586D01*
X12336099Y17020075D01*
X12336099Y17020074D01*
X12336100Y17020073D01*
X12362020Y16972175D01*
X12362933Y16970403D01*
X12367140Y16961798D01*
X12386872Y16921435D01*
X12391485Y16914974D01*
X12396380Y16908685D01*
X12396381Y16908684D01*
X12408384Y16897634D01*
X12436414Y16871831D01*
X12437891Y16870414D01*
X13029802Y16278504D01*
X13057579Y16223987D01*
X13048008Y16163555D01*
X13004743Y16120290D01*
X12959798Y16109500D01*
X12155663Y16109500D01*
X12060945Y16094498D01*
X12060938Y16094496D01*
X11946781Y16036329D01*
X11946779Y16036328D01*
X11856172Y15945721D01*
X11856171Y15945719D01*
X11798004Y15831562D01*
X11798002Y15831555D01*
X11783000Y15736837D01*
X11783000Y15373164D01*
X11798002Y15278446D01*
X11798003Y15278442D01*
X11858663Y15159392D01*
X11868235Y15098960D01*
X11850109Y15055658D01*
X11785155Y14967650D01*
X11740350Y14839602D01*
X11739033Y14825557D01*
X11714775Y14769386D01*
X11662132Y14738202D01*
X11601214Y14743916D01*
X11570463Y14764798D01*
X11428899Y14906361D01*
X11425197Y14910504D01*
X11402838Y14938541D01*
X11400131Y14941936D01*
X11380173Y14955543D01*
X11351320Y14975215D01*
X11349811Y14976286D01*
X11302273Y15011370D01*
X11298772Y15013220D01*
X11256162Y15057130D01*
X11247499Y15117699D01*
X11264948Y15158941D01*
X11268818Y15164270D01*
X11268826Y15164277D01*
X11326998Y15278445D01*
X11338778Y15352825D01*
X11342000Y15373164D01*
X11342000Y15736837D01*
X11330301Y15810699D01*
X11326998Y15831555D01*
X11326995Y15831560D01*
X11326995Y15831562D01*
X11268828Y15945719D01*
X11268827Y15945721D01*
X11268826Y15945723D01*
X11178223Y16036326D01*
X11178220Y16036328D01*
X11178218Y16036329D01*
X11064061Y16094496D01*
X11064056Y16094498D01*
X11064055Y16094498D01*
X11021102Y16101301D01*
X10969337Y16109500D01*
X10969334Y16109500D01*
X10851524Y16109500D01*
X10793333Y16128407D01*
X10757369Y16177907D01*
X10757369Y16239093D01*
X10758958Y16243606D01*
X10799559Y16350663D01*
X10800149Y16352218D01*
X10819307Y16510000D01*
X10809912Y16587372D01*
X10806011Y16619501D01*
X10800149Y16667782D01*
X10776019Y16731407D01*
X10743789Y16816391D01*
X10743787Y16816394D01*
X10743787Y16816395D01*
X10653498Y16947201D01*
X10572849Y17018651D01*
X10541832Y17071390D01*
X10539500Y17092752D01*
X10539500Y17934501D01*
X10558407Y17992692D01*
X10607907Y18028656D01*
X10638500Y18033501D01*
X10947064Y18033501D01*
X10947066Y18033501D01*
X11021301Y18048266D01*
X11105484Y18104516D01*
X11161734Y18188699D01*
X11176500Y18262933D01*
X11176499Y19837066D01*
X11161734Y19911301D01*
X11161733Y19911303D01*
X11105486Y19995481D01*
X11105485Y19995482D01*
X11105484Y19995484D01*
X11021301Y20051734D01*
X10947067Y20066500D01*
X10947066Y20066500D01*
X9372936Y20066500D01*
X9372929Y20066499D01*
X9298696Y20051734D01*
X9291382Y20048704D01*
X9230385Y20043905D01*
X9178217Y20075876D01*
X9154804Y20132405D01*
X9154499Y20140169D01*
X9154499Y20499833D01*
X9173406Y20558024D01*
X9222906Y20593988D01*
X9284092Y20593988D01*
X9291388Y20591296D01*
X9298693Y20588270D01*
X9298699Y20588266D01*
X9372933Y20573500D01*
X10947066Y20573501D01*
X11021301Y20588266D01*
X11105484Y20644516D01*
X11161734Y20728699D01*
X11176500Y20802933D01*
X11176499Y22377066D01*
X11161734Y22451301D01*
X11161733Y22451303D01*
X11105486Y22535481D01*
X11105485Y22535482D01*
X11105484Y22535484D01*
X11021301Y22591734D01*
X10947067Y22606500D01*
X10947066Y22606500D01*
X9372936Y22606500D01*
X9372929Y22606499D01*
X9298699Y22591735D01*
X9298697Y22591734D01*
X9214519Y22535487D01*
X9214514Y22535482D01*
X9177303Y22479792D01*
X9158266Y22451301D01*
X9149614Y22407803D01*
X9143500Y22377068D01*
X9143500Y22068500D01*
X9124593Y22010309D01*
X9075093Y21974345D01*
X9044500Y21969500D01*
X8834202Y21969500D01*
X8776011Y21988407D01*
X8764198Y21998496D01*
X7712995Y23049699D01*
X7685218Y23104216D01*
X7683999Y23119703D01*
X7683999Y24218564D01*
X7683998Y24218568D01*
X7669234Y24292801D01*
X7669233Y24292803D01*
X7612986Y24376981D01*
X7612985Y24376982D01*
X7612984Y24376984D01*
X7528801Y24433234D01*
X7454567Y24448000D01*
X7449796Y24448949D01*
X7450019Y24450072D01*
X7398752Y24472493D01*
X7367810Y24525278D01*
X7373804Y24586169D01*
X7414444Y24631908D01*
X7464509Y24645500D01*
X34706500Y24645500D01*
X34764691Y24626593D01*
X34800655Y24577093D01*
X34805500Y24546500D01*
X34805500Y-4226500D01*
X34786593Y-4284691D01*
X34737093Y-4320655D01*
X34706500Y-4325500D01*
X-4226500Y-4325500D01*
X-4284691Y-4306593D01*
X-4320655Y-4257093D01*
X-4325500Y-4226500D01*
X-4325500Y-3175001D01*
X3785693Y-3175001D01*
X3804850Y-3332780D01*
X3804853Y-3332789D01*
X3861210Y-3481390D01*
X3861212Y-3481393D01*
X3861213Y-3481395D01*
X3941192Y-3597264D01*
X3951502Y-3612201D01*
X3951502Y-3612202D01*
X4070464Y-3717593D01*
X4070471Y-3717599D01*
X4211207Y-3791463D01*
X4365529Y-3829500D01*
X4365532Y-3829500D01*
X4524468Y-3829500D01*
X4524471Y-3829500D01*
X4678793Y-3791463D01*
X4819529Y-3717599D01*
X4938498Y-3612201D01*
X4948808Y-3597263D01*
X4997423Y-3560113D01*
X5030285Y-3554500D01*
X5084501Y-3554500D01*
X5142692Y-3573407D01*
X5178656Y-3622907D01*
X5182125Y-3644817D01*
X5183025Y-3644729D01*
X5183501Y-3649570D01*
X5198265Y-3723800D01*
X5198266Y-3723802D01*
X5254513Y-3807980D01*
X5254516Y-3807984D01*
X5338699Y-3864234D01*
X5412933Y-3879000D01*
X6352066Y-3878999D01*
X6426301Y-3864234D01*
X6510484Y-3807984D01*
X6566734Y-3723801D01*
X6581500Y-3649567D01*
X6581500Y-3649563D01*
X7088500Y-3649563D01*
X7088501Y-3649570D01*
X7103265Y-3723800D01*
X7103266Y-3723802D01*
X7159513Y-3807980D01*
X7159516Y-3807984D01*
X7243699Y-3864234D01*
X7317933Y-3879000D01*
X8257066Y-3878999D01*
X8331301Y-3864234D01*
X8415484Y-3807984D01*
X8471734Y-3723801D01*
X8486500Y-3649567D01*
X8486499Y-2505200D01*
X8505406Y-2447010D01*
X8515489Y-2435203D01*
X8658261Y-2292431D01*
X8674110Y-2279562D01*
X8685582Y-2272068D01*
X8708119Y-2243110D01*
X8712172Y-2238520D01*
X8715580Y-2235114D01*
X8728728Y-2216696D01*
X8729893Y-2215134D01*
X8763375Y-2172119D01*
X8763375Y-2172116D01*
X8767165Y-2165114D01*
X8770652Y-2157983D01*
X8779519Y-2128198D01*
X8786197Y-2105766D01*
X8786816Y-2103836D01*
X8787490Y-2101874D01*
X8804500Y-2052327D01*
X8804500Y-2052322D01*
X8805806Y-2044497D01*
X8806790Y-2036596D01*
X8806792Y-2036591D01*
X8804541Y-1982173D01*
X8804500Y-1980162D01*
X8804500Y-1103499D01*
X8823407Y-1045308D01*
X8863747Y-1015999D01*
X10368000Y-1015999D01*
X10368001Y-1016000D01*
X11063382Y-1016000D01*
X11011553Y-1105772D01*
X10981736Y-1236407D01*
X10991749Y-1370028D01*
X11040703Y-1494760D01*
X11064021Y-1524000D01*
X10368002Y-1524000D01*
X10368001Y-1524001D01*
X10368001Y-2076791D01*
X10370909Y-2101874D01*
X10416213Y-2204477D01*
X10495522Y-2283786D01*
X10598127Y-2329090D01*
X10623203Y-2331999D01*
X11175998Y-2331999D01*
X11176000Y-2331998D01*
X11176000Y-1634805D01*
X11234960Y-1675004D01*
X11363002Y-1714500D01*
X11463312Y-1714500D01*
X11562499Y-1699550D01*
X11683224Y-1641412D01*
X11684000Y-1640691D01*
X11684000Y-2331998D01*
X11684001Y-2331999D01*
X12236790Y-2331999D01*
X12236791Y-2331998D01*
X12261874Y-2329090D01*
X12364477Y-2283786D01*
X12443786Y-2204477D01*
X12489090Y-2101872D01*
X12491999Y-2076797D01*
X12492000Y-2076795D01*
X12492000Y-1524000D01*
X11796618Y-1524000D01*
X11848447Y-1434228D01*
X11878264Y-1303593D01*
X11868251Y-1169972D01*
X11819297Y-1045240D01*
X11795979Y-1016000D01*
X12491998Y-1016000D01*
X12491999Y-1015998D01*
X12491999Y-463209D01*
X12491998Y-463208D01*
X12489090Y-438125D01*
X12443786Y-335522D01*
X12364477Y-256213D01*
X12261872Y-210909D01*
X12236797Y-208000D01*
X11684001Y-208000D01*
X11684000Y-208001D01*
X11684000Y-905194D01*
X11625040Y-864996D01*
X11496998Y-825500D01*
X11396688Y-825500D01*
X11297501Y-840450D01*
X11176776Y-898588D01*
X11176000Y-899308D01*
X11176000Y-208001D01*
X11175999Y-208000D01*
X10623210Y-208000D01*
X10623207Y-208001D01*
X10598125Y-210909D01*
X10495522Y-256213D01*
X10416213Y-335522D01*
X10370909Y-438127D01*
X10368000Y-463202D01*
X10368000Y-1015999D01*
X8863747Y-1015999D01*
X8872907Y-1009344D01*
X8903500Y-1004499D01*
X8925064Y-1004499D01*
X8925066Y-1004499D01*
X8999301Y-989734D01*
X9083484Y-933484D01*
X9139734Y-849301D01*
X9154500Y-775067D01*
X9154499Y775066D01*
X9139734Y849301D01*
X9139733Y849303D01*
X9083486Y933481D01*
X9083485Y933482D01*
X9083484Y933484D01*
X8999301Y989734D01*
X8925067Y1004500D01*
X8925066Y1004500D01*
X7924936Y1004500D01*
X7924929Y1004499D01*
X7850699Y989735D01*
X7850697Y989734D01*
X7766519Y933487D01*
X7766514Y933482D01*
X7743199Y898588D01*
X7710266Y849301D01*
X7705532Y825500D01*
X7695500Y775067D01*
X7695500Y-775063D01*
X7695501Y-775070D01*
X7710265Y-849300D01*
X7710266Y-849302D01*
X7766513Y-933480D01*
X7766516Y-933484D01*
X7850699Y-989734D01*
X7924933Y-1004500D01*
X7946498Y-1004499D01*
X8004688Y-1023404D01*
X8040653Y-1072903D01*
X8045500Y-1103499D01*
X8045500Y-1790798D01*
X8026593Y-1848989D01*
X8016505Y-1860800D01*
X7933300Y-1944004D01*
X7878785Y-1971781D01*
X7863298Y-1973000D01*
X7317936Y-1973000D01*
X7317929Y-1973001D01*
X7243699Y-1987765D01*
X7243697Y-1987766D01*
X7159519Y-2044013D01*
X7159514Y-2044018D01*
X7150798Y-2057063D01*
X7103266Y-2128199D01*
X7094530Y-2172118D01*
X7088500Y-2202433D01*
X7088500Y-3649563D01*
X6581500Y-3649563D01*
X6581499Y-2202434D01*
X6566734Y-2128199D01*
X6566733Y-2128197D01*
X6510486Y-2044019D01*
X6510485Y-2044018D01*
X6510484Y-2044016D01*
X6426301Y-1987766D01*
X6352067Y-1973000D01*
X6352066Y-1973000D01*
X5412936Y-1973000D01*
X5412929Y-1973001D01*
X5338699Y-1987765D01*
X5338697Y-1987766D01*
X5254519Y-2044013D01*
X5254514Y-2044018D01*
X5245798Y-2057063D01*
X5198266Y-2128199D01*
X5192342Y-2157983D01*
X5183500Y-2202432D01*
X5183500Y-2696500D01*
X5164593Y-2754691D01*
X5115093Y-2790655D01*
X5084500Y-2795500D01*
X5030285Y-2795500D01*
X4972094Y-2776593D01*
X4948808Y-2752736D01*
X4938498Y-2737799D01*
X4938497Y-2737797D01*
X4819535Y-2632406D01*
X4819533Y-2632404D01*
X4819529Y-2632401D01*
X4819525Y-2632399D01*
X4819524Y-2632398D01*
X4678791Y-2558536D01*
X4524473Y-2520500D01*
X4524471Y-2520500D01*
X4365529Y-2520500D01*
X4365526Y-2520500D01*
X4211208Y-2558536D01*
X4070475Y-2632398D01*
X4070464Y-2632406D01*
X3951502Y-2737797D01*
X3951502Y-2737798D01*
X3861212Y-2868606D01*
X3861210Y-2868609D01*
X3804853Y-3017210D01*
X3804850Y-3017219D01*
X3785693Y-3174998D01*
X3785693Y-3175001D01*
X-4325500Y-3175001D01*
X-4325500Y5767228D01*
X-4306593Y5825419D01*
X-4257093Y5861383D01*
X-4195907Y5861383D01*
X-4156496Y5837232D01*
X-4152478Y5833214D01*
X-4049873Y5787910D01*
X-4024797Y5785001D01*
X-2984002Y5785001D01*
X-2984001Y5785002D01*
X-2476000Y5785002D01*
X-2475999Y5785001D01*
X-1435210Y5785001D01*
X-1435209Y5785002D01*
X-1410126Y5787910D01*
X-1307523Y5833214D01*
X-1228214Y5912523D01*
X-1182910Y6015128D01*
X-1180001Y6040203D01*
X-1180000Y6040205D01*
X-1180001Y6731000D01*
X-2475999Y6731000D01*
X-2476000Y6730999D01*
X-2476000Y5785002D01*
X-2984001Y5785002D01*
X-2984000Y5785003D01*
X-2984000Y7239001D01*
X-2476000Y7239001D01*
X-2475999Y7239000D01*
X-1180002Y7239000D01*
X-1180001Y7239002D01*
X-1180001Y7929791D01*
X-1180002Y7929792D01*
X-1182910Y7954875D01*
X-1228214Y8057478D01*
X-1307523Y8136787D01*
X-1410128Y8182091D01*
X-1435203Y8185000D01*
X-2475999Y8185000D01*
X-2476000Y8184999D01*
X-2476000Y7239001D01*
X-2984000Y7239001D01*
X-2984000Y8184999D01*
X-2984001Y8185000D01*
X-4024790Y8185000D01*
X-4024792Y8184999D01*
X-4049875Y8182091D01*
X-4152480Y8136786D01*
X-4152481Y8136786D01*
X-4156500Y8132766D01*
X-4211018Y8104991D01*
X-4271449Y8114565D01*
X-4314712Y8157832D01*
X-4325500Y8202773D01*
X-4325500Y9680503D01*
X-4306593Y9738694D01*
X-4257093Y9774658D01*
X-4195907Y9774658D01*
X-4146407Y9738694D01*
X-4129812Y9695033D01*
X-4128948Y9695204D01*
X-4113235Y9616200D01*
X-4113234Y9616198D01*
X-4056987Y9532020D01*
X-4056984Y9532016D01*
X-3972801Y9475766D01*
X-3898567Y9461000D01*
X-2451434Y9461001D01*
X-2377199Y9475766D01*
X-2293016Y9532016D01*
X-2273314Y9561503D01*
X-2225264Y9599381D01*
X-2190999Y9605500D01*
X-1619001Y9605500D01*
X-1560810Y9586593D01*
X-1536687Y9561503D01*
X-1516984Y9532016D01*
X-1432801Y9475766D01*
X-1358567Y9461000D01*
X-1288500Y9461001D01*
X-1230310Y9442094D01*
X-1194346Y9392595D01*
X-1189500Y9362001D01*
X-1189500Y8900302D01*
X-1189529Y8898612D01*
X-1191779Y8832762D01*
X-1191779Y8832756D01*
X-1181067Y8788801D01*
X-1180120Y8783819D01*
X-1173958Y8738991D01*
X-1165874Y8720379D01*
X-1160497Y8704389D01*
X-1155692Y8684676D01*
X-1155690Y8684671D01*
X-1155689Y8684667D01*
X-1155688Y8684666D01*
X-1133513Y8645225D01*
X-1131257Y8640683D01*
X-1113232Y8599184D01*
X-1113230Y8599181D01*
X-1100425Y8583442D01*
X-1090928Y8569489D01*
X-1088677Y8565486D01*
X-1080982Y8551801D01*
X-1059583Y8530402D01*
X-1048984Y8519803D01*
X-1045587Y8516038D01*
X-1017036Y8480943D01*
X-1008500Y8474918D01*
X-1000462Y8469244D01*
X-987550Y8458369D01*
X-263496Y7734315D01*
X-235719Y7679798D01*
X-234500Y7664311D01*
X-234500Y6059937D01*
X-234499Y6059930D01*
X-219735Y5985700D01*
X-219734Y5985698D01*
X-163487Y5901520D01*
X-163484Y5901516D01*
X-79301Y5845266D01*
X-5067Y5830500D01*
X791500Y5830501D01*
X849691Y5811594D01*
X885655Y5762094D01*
X890500Y5731501D01*
X890500Y4884629D01*
X888393Y4864315D01*
X886491Y4855240D01*
X885581Y4850902D01*
X888685Y4825999D01*
X890120Y4814493D01*
X890500Y4808364D01*
X890500Y4803557D01*
X894212Y4781308D01*
X894507Y4779285D01*
X901247Y4725223D01*
X903519Y4717588D01*
X906099Y4710077D01*
X906099Y4710076D01*
X906100Y4710075D01*
X932020Y4662177D01*
X932933Y4660405D01*
X937800Y4650450D01*
X956872Y4611437D01*
X961485Y4604976D01*
X966380Y4598687D01*
X1006414Y4561833D01*
X1007891Y4560416D01*
X3866504Y1701804D01*
X3894281Y1647287D01*
X3895500Y1631800D01*
X3895500Y1103500D01*
X3876593Y1045309D01*
X3827093Y1009345D01*
X3796504Y1004500D01*
X3774938Y1004500D01*
X3774928Y1004499D01*
X3700699Y989735D01*
X3700697Y989734D01*
X3616519Y933487D01*
X3616514Y933482D01*
X3593199Y898588D01*
X3560266Y849301D01*
X3555532Y825500D01*
X3545500Y775067D01*
X3545500Y-775063D01*
X3545501Y-775070D01*
X3560265Y-849300D01*
X3560266Y-849302D01*
X3616513Y-933480D01*
X3616516Y-933484D01*
X3700699Y-989734D01*
X3774933Y-1004500D01*
X4775066Y-1004499D01*
X4849301Y-989734D01*
X4933484Y-933484D01*
X4989734Y-849301D01*
X5004500Y-775067D01*
X5004499Y775066D01*
X4989734Y849301D01*
X4989733Y849303D01*
X4933486Y933481D01*
X4933485Y933482D01*
X4933484Y933484D01*
X4849301Y989734D01*
X4775067Y1004500D01*
X4753500Y1004500D01*
X4695309Y1023407D01*
X4659345Y1072907D01*
X4654500Y1103500D01*
X4654500Y1524001D01*
X10368000Y1524001D01*
X10368001Y1524000D01*
X11063382Y1524000D01*
X11011553Y1434228D01*
X10981736Y1303593D01*
X10991749Y1169972D01*
X11040703Y1045240D01*
X11064021Y1016000D01*
X10368001Y1016000D01*
X10368001Y463209D01*
X10370909Y438126D01*
X10416213Y335523D01*
X10495522Y256214D01*
X10598127Y210910D01*
X10623203Y208001D01*
X11175998Y208001D01*
X11176000Y208002D01*
X11176000Y905195D01*
X11234960Y864996D01*
X11363002Y825500D01*
X11463312Y825500D01*
X11562499Y840450D01*
X11683224Y898588D01*
X11684000Y899309D01*
X11684000Y208002D01*
X11684001Y208001D01*
X12236790Y208001D01*
X12236791Y208002D01*
X12261874Y210910D01*
X12364477Y256214D01*
X12443786Y335523D01*
X12489090Y438128D01*
X12491999Y463203D01*
X12492000Y463205D01*
X12492000Y1016000D01*
X11796618Y1016000D01*
X11848447Y1105772D01*
X11878264Y1236407D01*
X11868251Y1370028D01*
X11819297Y1494760D01*
X11795979Y1524000D01*
X12491998Y1524000D01*
X12491999Y1524002D01*
X12491999Y2076791D01*
X12491998Y2076792D01*
X12489090Y2101875D01*
X12443786Y2204478D01*
X12364477Y2283787D01*
X12261872Y2329091D01*
X12236797Y2332000D01*
X11684001Y2332000D01*
X11684000Y2331999D01*
X11684000Y1634806D01*
X11625040Y1675004D01*
X11496998Y1714500D01*
X11396688Y1714500D01*
X11297501Y1699550D01*
X11176776Y1641412D01*
X11176000Y1640692D01*
X11176000Y2332000D01*
X10623210Y2332000D01*
X10623207Y2331999D01*
X10598125Y2329091D01*
X10495522Y2283787D01*
X10416213Y2204478D01*
X10370909Y2101873D01*
X10368000Y2076798D01*
X10368000Y1524001D01*
X4654500Y1524001D01*
X4654500Y1780376D01*
X4656607Y1800692D01*
X4659419Y1814102D01*
X4654879Y1850516D01*
X4654500Y1856642D01*
X4654500Y1861446D01*
X4650785Y1883710D01*
X4650490Y1885735D01*
X4643752Y1939784D01*
X4641480Y1947413D01*
X4638900Y1954929D01*
X4638900Y1954930D01*
X4612975Y2002833D01*
X4612062Y2004606D01*
X4588126Y2053570D01*
X4584523Y2060941D01*
X4587862Y2062574D01*
X4574336Y2105454D01*
X4593742Y2163481D01*
X4643548Y2199019D01*
X4704731Y2198494D01*
X4724771Y2189192D01*
X4758657Y2168586D01*
X4758667Y2168580D01*
X5015888Y2056855D01*
X5285937Y1981190D01*
X5285944Y1981189D01*
X5563778Y1943001D01*
X5563782Y1943000D01*
X5844218Y1943000D01*
X5844221Y1943001D01*
X6122055Y1981189D01*
X6122062Y1981190D01*
X6392111Y2056855D01*
X6649332Y2168580D01*
X6888955Y2314298D01*
X6963137Y2374652D01*
X6331096Y3006694D01*
X6492218Y3128366D01*
X6637673Y3287923D01*
X6687620Y3368591D01*
X7323595Y2732616D01*
X7459651Y2925364D01*
X7588678Y3174374D01*
X7682594Y3438629D01*
X7739650Y3713201D01*
X7739652Y3713210D01*
X7758790Y3992997D01*
X7758790Y3993003D01*
X7746124Y4178162D01*
X7761016Y4237507D01*
X7807946Y4276765D01*
X7868989Y4280941D01*
X7914897Y4254922D01*
X8998618Y3171200D01*
X8999792Y3169985D01*
X9038662Y3128366D01*
X9044772Y3121824D01*
X9083441Y3098309D01*
X9087622Y3095464D01*
X9123679Y3068121D01*
X9142549Y3060680D01*
X9157673Y3053168D01*
X9175007Y3042626D01*
X9175009Y3042626D01*
X9175010Y3042625D01*
X9181242Y3040879D01*
X9218581Y3030416D01*
X9223381Y3028803D01*
X9265479Y3012201D01*
X9273583Y3011368D01*
X9285656Y3010127D01*
X9302247Y3006974D01*
X9321782Y3001501D01*
X9321784Y3001500D01*
X9321786Y3001500D01*
X9367040Y3001500D01*
X9372104Y3001240D01*
X9382641Y3000158D01*
X9417109Y2996614D01*
X9437095Y3000061D01*
X9453917Y3001500D01*
X12282311Y3001500D01*
X12340502Y2982593D01*
X12352315Y2972504D01*
X13001039Y2323780D01*
X13028816Y2269263D01*
X13019245Y2208831D01*
X13013351Y2198775D01*
X12968266Y2131302D01*
X12953500Y2057067D01*
X12953500Y482937D01*
X12953501Y482930D01*
X12968265Y408700D01*
X12968266Y408698D01*
X13017161Y335523D01*
X13024516Y324516D01*
X13108699Y268266D01*
X13182933Y253500D01*
X13316500Y253501D01*
X13374690Y234594D01*
X13410654Y185094D01*
X13415500Y154501D01*
X13415500Y-154500D01*
X13396593Y-212691D01*
X13347093Y-248655D01*
X13316501Y-253500D01*
X13182936Y-253500D01*
X13182929Y-253501D01*
X13108699Y-268265D01*
X13108697Y-268266D01*
X13024519Y-324513D01*
X13024514Y-324518D01*
X12987015Y-380638D01*
X12968266Y-408699D01*
X12953501Y-482929D01*
X12953500Y-482933D01*
X12953500Y-2057063D01*
X12953501Y-2057070D01*
X12968265Y-2131300D01*
X12968266Y-2131302D01*
X13015795Y-2202433D01*
X13024516Y-2215484D01*
X13108699Y-2271734D01*
X13182933Y-2286500D01*
X14757066Y-2286499D01*
X14831301Y-2271734D01*
X14915484Y-2215484D01*
X14971734Y-2131301D01*
X14986500Y-2057067D01*
X14986499Y-1015999D01*
X15448000Y-1015999D01*
X15448001Y-1016000D01*
X16143382Y-1016000D01*
X16091553Y-1105772D01*
X16061736Y-1236407D01*
X16071749Y-1370028D01*
X16120703Y-1494760D01*
X16144021Y-1524000D01*
X15448002Y-1524000D01*
X15448001Y-1524001D01*
X15448001Y-2076791D01*
X15450909Y-2101874D01*
X15496213Y-2204477D01*
X15575522Y-2283786D01*
X15678127Y-2329090D01*
X15703203Y-2331999D01*
X16255998Y-2331999D01*
X16256000Y-2331998D01*
X16256000Y-1634805D01*
X16314960Y-1675004D01*
X16443002Y-1714500D01*
X16543312Y-1714500D01*
X16642499Y-1699550D01*
X16763224Y-1641412D01*
X16764000Y-1640691D01*
X16764000Y-2331998D01*
X16764001Y-2331999D01*
X17316790Y-2331999D01*
X17316791Y-2331998D01*
X17341874Y-2329090D01*
X17444477Y-2283786D01*
X17523786Y-2204477D01*
X17569090Y-2101872D01*
X17571999Y-2076797D01*
X17572000Y-2076795D01*
X17572000Y-1524001D01*
X17571999Y-1524000D01*
X16876618Y-1524000D01*
X16928447Y-1434228D01*
X16958264Y-1303593D01*
X16948251Y-1169972D01*
X16899297Y-1045240D01*
X16875979Y-1016000D01*
X17571998Y-1016000D01*
X17571999Y-1015999D01*
X19258000Y-1015999D01*
X19258001Y-1016000D01*
X19953382Y-1016000D01*
X19901553Y-1105772D01*
X19871736Y-1236407D01*
X19881749Y-1370028D01*
X19930703Y-1494760D01*
X19954021Y-1524000D01*
X19258002Y-1524000D01*
X19258001Y-1524001D01*
X19258001Y-2076791D01*
X19260909Y-2101874D01*
X19306213Y-2204477D01*
X19385522Y-2283786D01*
X19488127Y-2329090D01*
X19513203Y-2331999D01*
X20065998Y-2331999D01*
X20066000Y-2331998D01*
X20066000Y-1634805D01*
X20124960Y-1675004D01*
X20253002Y-1714500D01*
X20353312Y-1714500D01*
X20452499Y-1699550D01*
X20573224Y-1641412D01*
X20574000Y-1640691D01*
X20574000Y-2331998D01*
X20574001Y-2331999D01*
X21126790Y-2331999D01*
X21126791Y-2331998D01*
X21151874Y-2329090D01*
X21254477Y-2283786D01*
X21333786Y-2204477D01*
X21379090Y-2101872D01*
X21381999Y-2076797D01*
X21382000Y-2076794D01*
X21382000Y-1524000D01*
X20686618Y-1524000D01*
X20738447Y-1434228D01*
X20768264Y-1303593D01*
X20758251Y-1169972D01*
X20709297Y-1045240D01*
X20685979Y-1016000D01*
X21381998Y-1016000D01*
X21381999Y-1015998D01*
X21381999Y-463209D01*
X21381998Y-463208D01*
X21379090Y-438125D01*
X21333786Y-335522D01*
X21254477Y-256213D01*
X21151872Y-210909D01*
X21126797Y-208000D01*
X20574001Y-208000D01*
X20574000Y-208001D01*
X20574000Y-905194D01*
X20515040Y-864996D01*
X20386998Y-825500D01*
X20286688Y-825500D01*
X20187501Y-840450D01*
X20066776Y-898588D01*
X20066000Y-899308D01*
X20066000Y-208001D01*
X20065999Y-208000D01*
X19513210Y-208000D01*
X19513207Y-208001D01*
X19488125Y-210909D01*
X19385522Y-256213D01*
X19306213Y-335522D01*
X19260909Y-438127D01*
X19258000Y-463202D01*
X19258000Y-1015999D01*
X17571999Y-1015999D01*
X17571999Y-463209D01*
X17571998Y-463208D01*
X17569090Y-438125D01*
X17523786Y-335522D01*
X17444477Y-256213D01*
X17341872Y-210909D01*
X17316797Y-208000D01*
X16764001Y-208000D01*
X16764000Y-208001D01*
X16764000Y-905194D01*
X16705040Y-864996D01*
X16576998Y-825500D01*
X16476688Y-825500D01*
X16377501Y-840450D01*
X16256776Y-898588D01*
X16256000Y-899308D01*
X16256000Y-208001D01*
X16255999Y-208000D01*
X15703210Y-208000D01*
X15703207Y-208001D01*
X15678125Y-210909D01*
X15575522Y-256213D01*
X15496213Y-335522D01*
X15450909Y-438127D01*
X15448000Y-463202D01*
X15448000Y-1015999D01*
X14986499Y-1015999D01*
X14986499Y-482934D01*
X14971734Y-408699D01*
X14971733Y-408697D01*
X14915486Y-324519D01*
X14915485Y-324518D01*
X14915484Y-324516D01*
X14831301Y-268266D01*
X14757067Y-253500D01*
X14623500Y-253500D01*
X14565309Y-234593D01*
X14529345Y-185093D01*
X14524500Y-154500D01*
X14524500Y154501D01*
X14543407Y212692D01*
X14592907Y248656D01*
X14623500Y253501D01*
X14757064Y253501D01*
X14757066Y253501D01*
X14831301Y268266D01*
X14915484Y324516D01*
X14971734Y408699D01*
X14986500Y482933D01*
X14986499Y1524002D01*
X15448000Y1524002D01*
X15448001Y1524000D01*
X16143382Y1524000D01*
X16091553Y1434228D01*
X16061736Y1303593D01*
X16071749Y1169972D01*
X16120703Y1045240D01*
X16144021Y1016000D01*
X15448001Y1016000D01*
X15448001Y463209D01*
X15450909Y438126D01*
X15496213Y335523D01*
X15575522Y256214D01*
X15678127Y210910D01*
X15703203Y208001D01*
X16255998Y208001D01*
X16256000Y208002D01*
X16256000Y905195D01*
X16314960Y864996D01*
X16443002Y825500D01*
X16543312Y825500D01*
X16642499Y840450D01*
X16763224Y898588D01*
X16764000Y899309D01*
X16764000Y208002D01*
X16764001Y208001D01*
X17316790Y208001D01*
X17316791Y208002D01*
X17341874Y210910D01*
X17444477Y256214D01*
X17523786Y335523D01*
X17569090Y438128D01*
X17571999Y463203D01*
X17572000Y463205D01*
X17572000Y1015999D01*
X17571999Y1016000D01*
X16876618Y1016000D01*
X16928447Y1105772D01*
X16958264Y1236407D01*
X16948251Y1370028D01*
X16899297Y1494760D01*
X16875979Y1524000D01*
X17571998Y1524000D01*
X17571999Y1524001D01*
X19258000Y1524001D01*
X19258001Y1524000D01*
X19953382Y1524000D01*
X19901553Y1434228D01*
X19871736Y1303593D01*
X19881749Y1169972D01*
X19930703Y1045240D01*
X19954021Y1016000D01*
X19258002Y1016000D01*
X19258001Y1015999D01*
X19258001Y463209D01*
X19260909Y438126D01*
X19306213Y335523D01*
X19385522Y256214D01*
X19488127Y210910D01*
X19513203Y208001D01*
X20065998Y208001D01*
X20066000Y208002D01*
X20066000Y905195D01*
X20124960Y864996D01*
X20253002Y825500D01*
X20353312Y825500D01*
X20452499Y840450D01*
X20573224Y898588D01*
X20574000Y899309D01*
X20574000Y208002D01*
X20574001Y208001D01*
X21126790Y208001D01*
X21126791Y208002D01*
X21151874Y210910D01*
X21254477Y256214D01*
X21333786Y335523D01*
X21379090Y438128D01*
X21381999Y463203D01*
X21382000Y463206D01*
X21382000Y1016000D01*
X20686618Y1016000D01*
X20738447Y1105772D01*
X20768264Y1236407D01*
X20758251Y1370028D01*
X20709297Y1494760D01*
X20685979Y1524000D01*
X21381998Y1524000D01*
X21381999Y1524001D01*
X21381999Y2076791D01*
X21381998Y2076792D01*
X21379090Y2101875D01*
X21333786Y2204478D01*
X21254477Y2283787D01*
X21151872Y2329091D01*
X21126797Y2332000D01*
X20574000Y2332000D01*
X20574000Y1634806D01*
X20515040Y1675004D01*
X20386998Y1714500D01*
X20286688Y1714500D01*
X20187501Y1699550D01*
X20066776Y1641412D01*
X20066000Y1640692D01*
X20066000Y2331999D01*
X20065999Y2332000D01*
X19513210Y2332000D01*
X19513207Y2331999D01*
X19488125Y2329091D01*
X19385522Y2283787D01*
X19306213Y2204478D01*
X19260909Y2101873D01*
X19258000Y2076798D01*
X19258000Y1524001D01*
X17571999Y1524001D01*
X17571999Y2076791D01*
X17571998Y2076792D01*
X17569090Y2101875D01*
X17523786Y2204478D01*
X17444477Y2283787D01*
X17341872Y2329091D01*
X17316797Y2332000D01*
X16764000Y2332000D01*
X16764000Y1634806D01*
X16705040Y1675004D01*
X16576998Y1714500D01*
X16476688Y1714500D01*
X16377501Y1699550D01*
X16256776Y1641412D01*
X16256000Y1640692D01*
X16256000Y2332000D01*
X15703210Y2332000D01*
X15703207Y2331999D01*
X15678125Y2329091D01*
X15575522Y2283787D01*
X15496213Y2204478D01*
X15450909Y2101873D01*
X15448000Y2076798D01*
X15448000Y1524002D01*
X14986499Y1524002D01*
X14986499Y2057066D01*
X14971734Y2131301D01*
X14971733Y2131303D01*
X14915486Y2215481D01*
X14915485Y2215482D01*
X14915484Y2215484D01*
X14831301Y2271734D01*
X14757067Y2286500D01*
X14580874Y2286500D01*
X14522683Y2305407D01*
X14496166Y2339645D01*
X14494007Y2338431D01*
X14490689Y2344332D01*
X14490689Y2344333D01*
X14468506Y2383785D01*
X14466257Y2388315D01*
X14448230Y2429818D01*
X14448229Y2429820D01*
X14435424Y2445559D01*
X14425925Y2459514D01*
X14415982Y2477199D01*
X14403091Y2490090D01*
X14383982Y2509200D01*
X14380584Y2512965D01*
X14352038Y2548054D01*
X14352035Y2548057D01*
X14352034Y2548058D01*
X14341207Y2555701D01*
X14335457Y2559760D01*
X14322547Y2570634D01*
X12952380Y3940802D01*
X12951205Y3942018D01*
X12906227Y3990177D01*
X12879323Y4006538D01*
X12867566Y4013687D01*
X12863375Y4016539D01*
X12861447Y4018001D01*
X12827321Y4043880D01*
X12827320Y4043881D01*
X12827318Y4043882D01*
X12808439Y4051327D01*
X12793327Y4058833D01*
X12781188Y4066214D01*
X12775989Y4069376D01*
X12732421Y4081584D01*
X12727617Y4083200D01*
X12692906Y4096887D01*
X12685520Y4099799D01*
X12665327Y4101876D01*
X12648749Y4105027D01*
X12629214Y4110500D01*
X12583967Y4110500D01*
X12578902Y4110760D01*
X12551606Y4113566D01*
X12533891Y4115387D01*
X12533890Y4115387D01*
X12533889Y4115387D01*
X12513899Y4111940D01*
X12497077Y4110500D01*
X9668689Y4110500D01*
X9610498Y4129407D01*
X9598685Y4139496D01*
X6368380Y7369802D01*
X6367205Y7371018D01*
X6322227Y7419177D01*
X6283569Y7442685D01*
X6279375Y7445539D01*
X6271688Y7451368D01*
X6243321Y7472880D01*
X6243320Y7472881D01*
X6243318Y7472882D01*
X6224439Y7480327D01*
X6209327Y7487833D01*
X6197728Y7494886D01*
X6191989Y7498376D01*
X6148421Y7510584D01*
X6143617Y7512200D01*
X6108906Y7525887D01*
X6101520Y7528799D01*
X6081327Y7530876D01*
X6064749Y7534027D01*
X6045214Y7539500D01*
X5999967Y7539500D01*
X5994902Y7539760D01*
X5967606Y7542566D01*
X5949891Y7544387D01*
X5949890Y7544387D01*
X5949889Y7544387D01*
X5929899Y7540940D01*
X5913077Y7539500D01*
X4313254Y7539500D01*
X4267248Y7550840D01*
X4170793Y7601463D01*
X4170792Y7601464D01*
X4170791Y7601464D01*
X4016473Y7639500D01*
X4016471Y7639500D01*
X3857529Y7639500D01*
X3857526Y7639500D01*
X3703208Y7601464D01*
X3562469Y7527598D01*
X3529748Y7498609D01*
X3491130Y7464398D01*
X3435039Y7439962D01*
X3425483Y7439500D01*
X2873499Y7439500D01*
X2815308Y7458407D01*
X2779344Y7507907D01*
X2774499Y7538500D01*
X2774499Y7910064D01*
X2774498Y7910071D01*
X2759734Y7984301D01*
X2759733Y7984303D01*
X2703486Y8068481D01*
X2703484Y8068484D01*
X2619301Y8124734D01*
X2545067Y8139500D01*
X940689Y8139500D01*
X882498Y8158407D01*
X870685Y8168496D01*
X-51504Y9090685D01*
X-79281Y9145202D01*
X-80500Y9160689D01*
X-80500Y9362001D01*
X-61593Y9420192D01*
X-12093Y9456156D01*
X18500Y9461001D01*
X88564Y9461001D01*
X88566Y9461001D01*
X162801Y9475766D01*
X246984Y9532016D01*
X303234Y9616199D01*
X318000Y9690433D01*
X317999Y10629566D01*
X303234Y10703801D01*
X303233Y10703803D01*
X246986Y10787981D01*
X246985Y10787982D01*
X246984Y10787984D01*
X162801Y10844234D01*
X88567Y10859000D01*
X88566Y10859000D01*
X-1358564Y10859000D01*
X-1358571Y10858999D01*
X-1432801Y10844235D01*
X-1432803Y10844234D01*
X-1516981Y10787987D01*
X-1516986Y10787982D01*
X-1536686Y10758498D01*
X-1584736Y10720619D01*
X-1619001Y10714500D01*
X-2190999Y10714500D01*
X-2249190Y10733407D01*
X-2273314Y10758498D01*
X-2277136Y10764218D01*
X-2293016Y10787984D01*
X-2377199Y10844234D01*
X-2451433Y10859000D01*
X-2451434Y10859000D01*
X-3898564Y10859000D01*
X-3898571Y10858999D01*
X-3972801Y10844235D01*
X-3972803Y10844234D01*
X-4056981Y10787987D01*
X-4056986Y10787982D01*
X-4076686Y10758498D01*
X-4113234Y10703801D01*
X-4118154Y10679065D01*
X-4128949Y10624796D01*
X-4130072Y10625020D01*
X-4152494Y10573752D01*
X-4205280Y10542811D01*
X-4266171Y10548806D01*
X-4311909Y10589447D01*
X-4325500Y10639510D01*
X-4325500Y11432151D01*
X-4306593Y11490342D01*
X-4257093Y11526306D01*
X-4195907Y11526306D01*
X-4146407Y11490342D01*
X-4135935Y11472139D01*
X-4125287Y11448023D01*
X-4045978Y11368714D01*
X-3943373Y11323410D01*
X-3918297Y11320501D01*
X-3429002Y11320501D01*
X-3429000Y11320503D01*
X-2921000Y11320503D01*
X-2920999Y11320501D01*
X-2431710Y11320501D01*
X-2431709Y11320502D01*
X-2406626Y11323410D01*
X-2304023Y11368714D01*
X-2224714Y11448023D01*
X-2179410Y11550628D01*
X-2176501Y11575703D01*
X-2176500Y11575705D01*
X-2176500Y11595437D01*
X-1588000Y11595437D01*
X-1587999Y11595430D01*
X-1573235Y11521200D01*
X-1573234Y11521198D01*
X-1518372Y11439093D01*
X-1516984Y11437016D01*
X-1432801Y11380766D01*
X-1358567Y11366000D01*
X88566Y11366001D01*
X162801Y11380766D01*
X246984Y11437016D01*
X266686Y11466503D01*
X314736Y11504381D01*
X349001Y11510500D01*
X511500Y11510500D01*
X569691Y11491593D01*
X605655Y11442093D01*
X610500Y11411500D01*
X610500Y9704937D01*
X610501Y9704930D01*
X625265Y9630700D01*
X625266Y9630698D01*
X681513Y9546520D01*
X681516Y9546516D01*
X765699Y9490266D01*
X839933Y9475500D01*
X2790066Y9475501D01*
X2864301Y9490266D01*
X2948484Y9546516D01*
X3004734Y9630699D01*
X3019500Y9704933D01*
X3019499Y13155066D01*
X3004734Y13229301D01*
X3004733Y13229303D01*
X2948486Y13313481D01*
X2948485Y13313482D01*
X2948484Y13313484D01*
X2864301Y13369734D01*
X2790067Y13384500D01*
X2790066Y13384500D01*
X839936Y13384500D01*
X839929Y13384499D01*
X765699Y13369735D01*
X765697Y13369734D01*
X681519Y13313487D01*
X681514Y13313482D01*
X648587Y13264203D01*
X625266Y13229301D01*
X617891Y13192223D01*
X610500Y13155068D01*
X610500Y12718500D01*
X591593Y12660309D01*
X542093Y12624345D01*
X511500Y12619500D01*
X349001Y12619500D01*
X290810Y12638407D01*
X266686Y12663498D01*
X254338Y12681978D01*
X246984Y12692984D01*
X162801Y12749234D01*
X88567Y12764000D01*
X18500Y12764000D01*
X-39691Y12782907D01*
X-75655Y12832407D01*
X-80500Y12863000D01*
X-80500Y13229303D01*
X-80500Y13621003D01*
X-61594Y13679190D01*
X-36506Y13703312D01*
X-7016Y13723016D01*
X49234Y13807199D01*
X64000Y13881433D01*
X63999Y15328566D01*
X49234Y15402801D01*
X49233Y15402803D01*
X-7014Y15486981D01*
X-7015Y15486982D01*
X-7016Y15486984D01*
X-91199Y15543234D01*
X-165433Y15558000D01*
X-165434Y15558000D01*
X-1104564Y15558000D01*
X-1104571Y15557999D01*
X-1178801Y15543235D01*
X-1178803Y15543234D01*
X-1262981Y15486987D01*
X-1262986Y15486982D01*
X-1291192Y15444768D01*
X-1319234Y15402801D01*
X-1327885Y15359310D01*
X-1334000Y15328567D01*
X-1334000Y13881437D01*
X-1333999Y13881430D01*
X-1319235Y13807200D01*
X-1319234Y13807198D01*
X-1280214Y13748802D01*
X-1262984Y13723016D01*
X-1233498Y13703314D01*
X-1195619Y13655264D01*
X-1189500Y13620999D01*
X-1189500Y12863000D01*
X-1208407Y12804809D01*
X-1257907Y12768845D01*
X-1288499Y12764000D01*
X-1358563Y12764000D01*
X-1358572Y12763999D01*
X-1432801Y12749235D01*
X-1432803Y12749234D01*
X-1516981Y12692987D01*
X-1516986Y12692982D01*
X-1536686Y12663498D01*
X-1573234Y12608801D01*
X-1576819Y12590776D01*
X-1588000Y12534567D01*
X-1588000Y11595437D01*
X-2176500Y11595437D01*
X-2176500Y11810999D01*
X-2176501Y11811000D01*
X-2920999Y11811000D01*
X-2921000Y11810999D01*
X-2921000Y11320503D01*
X-3429000Y11320503D01*
X-3429000Y12319001D01*
X-2921000Y12319001D01*
X-2920999Y12319000D01*
X-2176502Y12319000D01*
X-2176501Y12319001D01*
X-2176501Y12554290D01*
X-2176502Y12554292D01*
X-2179410Y12579375D01*
X-2224714Y12681978D01*
X-2304023Y12761287D01*
X-2406628Y12806591D01*
X-2431703Y12809500D01*
X-2920999Y12809500D01*
X-2921000Y12809499D01*
X-2921000Y12319001D01*
X-3429000Y12319001D01*
X-3429000Y12809499D01*
X-3429001Y12809500D01*
X-3918290Y12809500D01*
X-3918293Y12809499D01*
X-3943375Y12806591D01*
X-4045978Y12761287D01*
X-4125287Y12681978D01*
X-4135935Y12657861D01*
X-4176736Y12612266D01*
X-4236545Y12599360D01*
X-4292517Y12624074D01*
X-4323273Y12676967D01*
X-4325500Y12697849D01*
X-4325500Y13861710D01*
X-3284500Y13861710D01*
X-3284499Y13861709D01*
X-3281591Y13836626D01*
X-3236287Y13734023D01*
X-3156978Y13654714D01*
X-3054373Y13609410D01*
X-3029297Y13606501D01*
X-2794003Y13606501D01*
X-2794001Y13606503D01*
X-2286000Y13606503D01*
X-2285999Y13606501D01*
X-2050710Y13606501D01*
X-2050709Y13606502D01*
X-2025626Y13609410D01*
X-1923023Y13654714D01*
X-1843714Y13734023D01*
X-1798410Y13836628D01*
X-1795501Y13861703D01*
X-1795500Y13861705D01*
X-1795500Y14350999D01*
X-1795501Y14351000D01*
X-2285999Y14351000D01*
X-2286000Y14350999D01*
X-2286000Y13606503D01*
X-2794001Y13606503D01*
X-2794001Y14351000D01*
X-3284498Y14351000D01*
X-3284499Y14350999D01*
X-3284500Y13861710D01*
X-4325500Y13861710D01*
X-4325500Y14859001D01*
X-3284500Y14859001D01*
X-3284499Y14859000D01*
X-2794001Y14859000D01*
X-2794001Y14859002D01*
X-2286001Y14859002D01*
X-2285999Y14859000D01*
X-1795502Y14859000D01*
X-1795501Y14859001D01*
X-1795501Y15348290D01*
X-1795502Y15348292D01*
X-1798410Y15373375D01*
X-1843714Y15475978D01*
X-1923023Y15555287D01*
X-2025628Y15600591D01*
X-2050703Y15603500D01*
X-2285999Y15603500D01*
X-2286001Y15603499D01*
X-2286001Y14859002D01*
X-2794001Y14859002D01*
X-2794001Y15603499D01*
X-2794002Y15603500D01*
X-3029290Y15603500D01*
X-3029293Y15603499D01*
X-3054375Y15600591D01*
X-3156978Y15555287D01*
X-3236287Y15475978D01*
X-3281591Y15373373D01*
X-3284500Y15348298D01*
X-3284500Y14859001D01*
X-4325500Y14859001D01*
X-4325500Y16032997D01*
X3649210Y16032997D01*
X3668347Y15753210D01*
X3668349Y15753201D01*
X3725405Y15478629D01*
X3819321Y15214374D01*
X3948348Y14965364D01*
X4084403Y14772616D01*
X4720378Y15408592D01*
X4770327Y15327923D01*
X4915782Y15168366D01*
X5076902Y15046694D01*
X4444860Y14414651D01*
X4444859Y14414651D01*
X4519033Y14354306D01*
X4519051Y14354293D01*
X4758656Y14208586D01*
X4758667Y14208580D01*
X5015888Y14096855D01*
X5285937Y14021190D01*
X5285944Y14021189D01*
X5563778Y13983001D01*
X5563782Y13983000D01*
X5844218Y13983000D01*
X5844221Y13983001D01*
X6122055Y14021189D01*
X6122062Y14021190D01*
X6392111Y14096855D01*
X6649332Y14208580D01*
X6888955Y14354298D01*
X6963137Y14414652D01*
X6331096Y15046693D01*
X6492218Y15168366D01*
X6637673Y15327923D01*
X6687620Y15408591D01*
X7323595Y14772616D01*
X7459651Y14965364D01*
X7588678Y15214374D01*
X7682594Y15478629D01*
X7739650Y15753201D01*
X7739652Y15753210D01*
X7758790Y16032997D01*
X7758790Y16033004D01*
X7739652Y16312791D01*
X7739650Y16312800D01*
X7682594Y16587372D01*
X7588678Y16851627D01*
X7459651Y17100637D01*
X7323595Y17293386D01*
X6687619Y16657411D01*
X6637673Y16738077D01*
X6492218Y16897634D01*
X6331095Y17019308D01*
X6963138Y17651351D01*
X6888970Y17711692D01*
X6888953Y17711704D01*
X6649343Y17857415D01*
X6649332Y17857421D01*
X6392111Y17969146D01*
X6122062Y18044811D01*
X6122055Y18044812D01*
X5844221Y18083000D01*
X5563778Y18083000D01*
X5285944Y18044812D01*
X5285937Y18044811D01*
X5015888Y17969146D01*
X4758667Y17857421D01*
X4758656Y17857415D01*
X4519049Y17711706D01*
X4519043Y17711702D01*
X4444860Y17651350D01*
X5076903Y17019307D01*
X4915782Y16897634D01*
X4770327Y16738077D01*
X4720379Y16657410D01*
X4084403Y17293386D01*
X3948351Y17100643D01*
X3819321Y16851627D01*
X3725405Y16587372D01*
X3668349Y16312800D01*
X3668347Y16312791D01*
X3649210Y16033004D01*
X3649210Y16032997D01*
X-4325500Y16032997D01*
X-4325500Y24546500D01*
X-4306593Y24604691D01*
X-4257093Y24640655D01*
X-4226500Y24645500D01*
X4600502Y24645500D01*
X4658693Y24626593D01*
G37*
%TD.AperFunction*%
%TA.AperFunction,Conductor*%
G36*
X3483674Y6511593D02*
G01*
X3491121Y6505611D01*
X3562471Y6442401D01*
X3703207Y6368537D01*
X3857529Y6330500D01*
X3857532Y6330500D01*
X4016468Y6330500D01*
X4016471Y6330500D01*
X4170793Y6368537D01*
X4267248Y6419161D01*
X4313254Y6430500D01*
X5698311Y6430500D01*
X5756502Y6411593D01*
X5768315Y6401504D01*
X5963682Y6206137D01*
X5991459Y6151620D01*
X5981888Y6091188D01*
X5938623Y6047923D01*
X5880197Y6038055D01*
X5844221Y6043000D01*
X5563778Y6043000D01*
X5285944Y6004812D01*
X5285937Y6004811D01*
X5015888Y5929146D01*
X4758667Y5817421D01*
X4758656Y5817415D01*
X4519049Y5671706D01*
X4519043Y5671702D01*
X4444860Y5611350D01*
X5076903Y4979307D01*
X4915782Y4857634D01*
X4770327Y4698077D01*
X4720379Y4617410D01*
X4084403Y5253386D01*
X3948351Y5060643D01*
X3819321Y4811627D01*
X3725405Y4547372D01*
X3668349Y4272800D01*
X3668347Y4272791D01*
X3649210Y3993004D01*
X3649210Y3992997D01*
X3668347Y3713210D01*
X3668349Y3713201D01*
X3725405Y3438629D01*
X3819323Y3174370D01*
X3819325Y3174366D01*
X3903784Y3011368D01*
X3913769Y2951002D01*
X3886364Y2896297D01*
X3832039Y2868148D01*
X3771543Y2877306D01*
X3745880Y2895817D01*
X1678496Y4963201D01*
X1650719Y5017718D01*
X1649500Y5033205D01*
X1649500Y5731501D01*
X1668407Y5789692D01*
X1717907Y5825656D01*
X1748500Y5830501D01*
X2545064Y5830501D01*
X2545066Y5830501D01*
X2619301Y5845266D01*
X2703484Y5901516D01*
X2759734Y5985699D01*
X2774500Y6059933D01*
X2774500Y6431500D01*
X2793407Y6489691D01*
X2842907Y6525655D01*
X2873500Y6530500D01*
X3425483Y6530500D01*
X3483674Y6511593D01*
G37*
%TD.AperFunction*%
%TA.AperFunction,Conductor*%
G36*
X14271989Y13256593D02*
G01*
X14283802Y13246504D01*
X16051802Y11478504D01*
X16079579Y11423987D01*
X16070008Y11363555D01*
X16026743Y11320290D01*
X15981798Y11309500D01*
X13646627Y11309500D01*
X13626312Y11311607D01*
X13612901Y11314419D01*
X13612900Y11314419D01*
X13576485Y11309880D01*
X13570361Y11309500D01*
X13565557Y11309500D01*
X13543282Y11305784D01*
X13541271Y11305491D01*
X13533787Y11304558D01*
X13512317Y11301881D01*
X13506189Y11301500D01*
X13412285Y11301500D01*
X13354094Y11320407D01*
X13330808Y11344264D01*
X13320498Y11359201D01*
X13320497Y11359203D01*
X13201535Y11464594D01*
X13201533Y11464596D01*
X13201529Y11464599D01*
X13201525Y11464601D01*
X13201524Y11464602D01*
X13060791Y11538464D01*
X12906473Y11576500D01*
X12906471Y11576500D01*
X12747529Y11576500D01*
X12747526Y11576500D01*
X12593208Y11538464D01*
X12452475Y11464602D01*
X12452464Y11464594D01*
X12333502Y11359203D01*
X12333502Y11359202D01*
X12298977Y11309183D01*
X12250360Y11272033D01*
X12189193Y11270555D01*
X12138838Y11305312D01*
X12118530Y11363029D01*
X12118501Y11365421D01*
X12118501Y12056683D01*
X12118812Y12062229D01*
X12120342Y12075811D01*
X12123314Y12102185D01*
X12112327Y12160251D01*
X12112024Y12162027D01*
X12103215Y12220478D01*
X12103214Y12220479D01*
X12103214Y12220483D01*
X12101029Y12227566D01*
X12101443Y12227694D01*
X12100702Y12229947D01*
X12100292Y12229803D01*
X12097843Y12236801D01*
X12097842Y12236806D01*
X12070237Y12289036D01*
X12069407Y12290681D01*
X12059286Y12311696D01*
X12043768Y12343920D01*
X12043764Y12343925D01*
X12039586Y12350054D01*
X12039941Y12350297D01*
X12038572Y12352226D01*
X12038226Y12351970D01*
X12033821Y12357939D01*
X12023396Y12368364D01*
X11992027Y12399734D01*
X11990770Y12401040D01*
X11968438Y12425108D01*
X11942718Y12480625D01*
X11942010Y12492445D01*
X11942010Y13018426D01*
X11960917Y13076617D01*
X12010417Y13112581D01*
X12056498Y13116207D01*
X12060943Y13115503D01*
X12060945Y13115502D01*
X12124150Y13105492D01*
X12155664Y13100500D01*
X12155666Y13100500D01*
X13244337Y13100500D01*
X13271887Y13104864D01*
X13339055Y13115502D01*
X13453223Y13173674D01*
X13526054Y13246506D01*
X13580569Y13274281D01*
X13596056Y13275500D01*
X14213798Y13275500D01*
X14271989Y13256593D01*
G37*
%TD.AperFunction*%
%TA.AperFunction,Conductor*%
G36*
X13768989Y15156593D02*
G01*
X13780802Y15146504D01*
X14323504Y14603803D01*
X14351281Y14549286D01*
X14352500Y14533799D01*
X14352500Y14146627D01*
X14350394Y14126318D01*
X14347640Y14113185D01*
X14317197Y14060114D01*
X14261371Y14035072D01*
X14250748Y14034500D01*
X13657551Y14034500D01*
X13599360Y14053407D01*
X13563396Y14102907D01*
X13563396Y14164093D01*
X13577896Y14192288D01*
X13614844Y14242351D01*
X13652862Y14351000D01*
X12545000Y14351000D01*
X12486809Y14369907D01*
X12450845Y14419407D01*
X12446000Y14450000D01*
X12446000Y14760000D01*
X12464907Y14818191D01*
X12514407Y14854155D01*
X12545000Y14859000D01*
X13652861Y14859000D01*
X13614844Y14967650D01*
X13577896Y15017712D01*
X13558554Y15075759D01*
X13577025Y15134090D01*
X13626255Y15170423D01*
X13657551Y15175500D01*
X13710798Y15175500D01*
X13768989Y15156593D01*
G37*
%TD.AperFunction*%
%TA.AperFunction,Conductor*%
G36*
X18806591Y17252824D02*
G01*
X18814589Y17245651D01*
X19084004Y16976236D01*
X19111781Y16921719D01*
X19113000Y16906232D01*
X19113000Y15880703D01*
X19094093Y15822512D01*
X19084003Y15810699D01*
X18951738Y15678435D01*
X18935889Y15665563D01*
X18924418Y15658068D01*
X18924415Y15658066D01*
X18901883Y15629116D01*
X18897823Y15624519D01*
X18894425Y15621121D01*
X18894414Y15621109D01*
X18881287Y15602724D01*
X18880067Y15601087D01*
X18846623Y15558117D01*
X18842839Y15551124D01*
X18839347Y15543980D01*
X18823812Y15491801D01*
X18823188Y15489854D01*
X18805500Y15438331D01*
X18804272Y15430969D01*
X18776044Y15376684D01*
X18721300Y15349358D01*
X18682932Y15351140D01*
X18659234Y15356981D01*
X18607260Y15389264D01*
X18584187Y15445932D01*
X18598829Y15505339D01*
X18601253Y15509054D01*
X18603286Y15512023D01*
X18648590Y15614628D01*
X18651499Y15639703D01*
X18651500Y15639706D01*
X18651500Y16128999D01*
X18651499Y16129000D01*
X17752000Y16129000D01*
X17693809Y16147907D01*
X17657845Y16197407D01*
X17653000Y16228000D01*
X17653000Y16538000D01*
X17671907Y16596191D01*
X17721407Y16632155D01*
X17752000Y16637000D01*
X18651498Y16637000D01*
X18651499Y16637002D01*
X18651499Y17126290D01*
X18651498Y17126292D01*
X18647732Y17158774D01*
X18649510Y17158981D01*
X18652025Y17210769D01*
X18690347Y17258467D01*
X18749386Y17274531D01*
X18806591Y17252824D01*
G37*
%TD.AperFunction*%
%TA.AperFunction,Conductor*%
G36*
X15069419Y17306593D02*
G01*
X15105383Y17257093D01*
X15105383Y17195907D01*
X15081232Y17156496D01*
X15051713Y17126978D01*
X15006409Y17024373D01*
X15003500Y16999298D01*
X15003500Y16764001D01*
X15003501Y16764000D01*
X16157000Y16764000D01*
X16215191Y16745093D01*
X16251155Y16695593D01*
X16256000Y16665000D01*
X16256000Y16355000D01*
X16237093Y16296809D01*
X16187593Y16260845D01*
X16157000Y16256000D01*
X15233735Y16256000D01*
X15175544Y16274907D01*
X15172931Y16276873D01*
X15165683Y16282514D01*
X15158467Y16288130D01*
X15153870Y16292190D01*
X15150469Y16295591D01*
X15132095Y16308711D01*
X15130459Y16309930D01*
X15087474Y16343386D01*
X15080487Y16347167D01*
X15073335Y16350664D01*
X15029145Y16363819D01*
X15021162Y16366196D01*
X15019222Y16366817D01*
X14967682Y16384511D01*
X14959871Y16385814D01*
X14951947Y16386802D01*
X14951946Y16386802D01*
X14951944Y16386802D01*
X14946378Y16386572D01*
X14897529Y16384552D01*
X14895518Y16384510D01*
X14038192Y16384510D01*
X13980001Y16403417D01*
X13968188Y16413506D01*
X13767498Y16614196D01*
X13739721Y16668713D01*
X13749292Y16729145D01*
X13792557Y16772410D01*
X13813807Y16780323D01*
X13822793Y16782537D01*
X13963529Y16856401D01*
X14082498Y16961799D01*
X14172787Y17092605D01*
X14175836Y17100643D01*
X14203775Y17174313D01*
X14229149Y17241218D01*
X14229150Y17241229D01*
X14230581Y17247030D01*
X14232574Y17246539D01*
X14254601Y17293927D01*
X14308078Y17323657D01*
X14327089Y17325500D01*
X15011228Y17325500D01*
X15069419Y17306593D01*
G37*
%TD.AperFunction*%
%TD*%
M02*
