%TF.GenerationSoftware,KiCad,Pcbnew,7.0.5.1-1-g8f565ef7f0-dirty-deb11*%
%TF.CreationDate,2023-07-05T01:50:14+00:00*%
%TF.ProjectId,USB232R02,55534232-3332-4523-9032-2e6b69636164,rev?*%
%TF.SameCoordinates,PX7f790e8PY698c050*%
%TF.FileFunction,Legend,Bot*%
%TF.FilePolarity,Positive*%
%FSLAX46Y46*%
G04 Gerber Fmt 4.6, Leading zero omitted, Abs format (unit mm)*
G04 Created by KiCad (PCBNEW 7.0.5.1-1-g8f565ef7f0-dirty-deb11) date 2023-07-05 01:50:14*
%MOMM*%
%LPD*%
G01*
G04 APERTURE LIST*
%ADD10C,0.150000*%
%ADD11C,0.304800*%
%ADD12C,0.120000*%
G04 APERTURE END LIST*
D10*
%TO.C,U2*%
X22439819Y12191905D02*
X23249342Y12191905D01*
X23249342Y12191905D02*
X23344580Y12144286D01*
X23344580Y12144286D02*
X23392200Y12096667D01*
X23392200Y12096667D02*
X23439819Y12001429D01*
X23439819Y12001429D02*
X23439819Y11810953D01*
X23439819Y11810953D02*
X23392200Y11715715D01*
X23392200Y11715715D02*
X23344580Y11668096D01*
X23344580Y11668096D02*
X23249342Y11620477D01*
X23249342Y11620477D02*
X22439819Y11620477D01*
X22535057Y11191905D02*
X22487438Y11144286D01*
X22487438Y11144286D02*
X22439819Y11049048D01*
X22439819Y11049048D02*
X22439819Y10810953D01*
X22439819Y10810953D02*
X22487438Y10715715D01*
X22487438Y10715715D02*
X22535057Y10668096D01*
X22535057Y10668096D02*
X22630295Y10620477D01*
X22630295Y10620477D02*
X22725533Y10620477D01*
X22725533Y10620477D02*
X22868390Y10668096D01*
X22868390Y10668096D02*
X23439819Y11239524D01*
X23439819Y11239524D02*
X23439819Y10620477D01*
%TO.C,U1*%
X12324404Y17550181D02*
X12324404Y16740658D01*
X12324404Y16740658D02*
X12276785Y16645420D01*
X12276785Y16645420D02*
X12229166Y16597800D01*
X12229166Y16597800D02*
X12133928Y16550181D01*
X12133928Y16550181D02*
X11943452Y16550181D01*
X11943452Y16550181D02*
X11848214Y16597800D01*
X11848214Y16597800D02*
X11800595Y16645420D01*
X11800595Y16645420D02*
X11752976Y16740658D01*
X11752976Y16740658D02*
X11752976Y17550181D01*
X10752976Y16550181D02*
X11324404Y16550181D01*
X11038690Y16550181D02*
X11038690Y17550181D01*
X11038690Y17550181D02*
X11133928Y17407324D01*
X11133928Y17407324D02*
X11229166Y17312086D01*
X11229166Y17312086D02*
X11324404Y17264467D01*
%TO.C,D1*%
X-180181Y7850095D02*
X-1180181Y7850095D01*
X-1180181Y7850095D02*
X-1180181Y7612000D01*
X-1180181Y7612000D02*
X-1132562Y7469143D01*
X-1132562Y7469143D02*
X-1037324Y7373905D01*
X-1037324Y7373905D02*
X-942086Y7326286D01*
X-942086Y7326286D02*
X-751610Y7278667D01*
X-751610Y7278667D02*
X-608753Y7278667D01*
X-608753Y7278667D02*
X-418277Y7326286D01*
X-418277Y7326286D02*
X-323039Y7373905D01*
X-323039Y7373905D02*
X-227800Y7469143D01*
X-227800Y7469143D02*
X-180181Y7612000D01*
X-180181Y7612000D02*
X-180181Y7850095D01*
X-180181Y6326286D02*
X-180181Y6897714D01*
X-180181Y6612000D02*
X-1180181Y6612000D01*
X-1180181Y6612000D02*
X-1037324Y6707238D01*
X-1037324Y6707238D02*
X-942086Y6802476D01*
X-942086Y6802476D02*
X-894467Y6897714D01*
D11*
%TO.C,F1*%
X2412999Y14714105D02*
X2920999Y14714105D01*
X2920999Y13915819D02*
X2920999Y15439819D01*
X2920999Y15439819D02*
X2195285Y15439819D01*
X816428Y13915819D02*
X1687285Y13915819D01*
X1251856Y13915819D02*
X1251856Y15439819D01*
X1251856Y15439819D02*
X1396999Y15222105D01*
X1396999Y15222105D02*
X1542142Y15076962D01*
X1542142Y15076962D02*
X1687285Y15004390D01*
D10*
%TO.C,JP1*%
X21657819Y6914334D02*
X22372104Y6914334D01*
X22372104Y6914334D02*
X22514961Y6961953D01*
X22514961Y6961953D02*
X22610200Y7057191D01*
X22610200Y7057191D02*
X22657819Y7200048D01*
X22657819Y7200048D02*
X22657819Y7295286D01*
X22657819Y6438143D02*
X21657819Y6438143D01*
X21657819Y6438143D02*
X21657819Y6057191D01*
X21657819Y6057191D02*
X21705438Y5961953D01*
X21705438Y5961953D02*
X21753057Y5914334D01*
X21753057Y5914334D02*
X21848295Y5866715D01*
X21848295Y5866715D02*
X21991152Y5866715D01*
X21991152Y5866715D02*
X22086390Y5914334D01*
X22086390Y5914334D02*
X22134009Y5961953D01*
X22134009Y5961953D02*
X22181628Y6057191D01*
X22181628Y6057191D02*
X22181628Y6438143D01*
X22657819Y4914334D02*
X22657819Y5485762D01*
X22657819Y5200048D02*
X21657819Y5200048D01*
X21657819Y5200048D02*
X21800676Y5295286D01*
X21800676Y5295286D02*
X21895914Y5390524D01*
X21895914Y5390524D02*
X21943533Y5485762D01*
%TO.C,R3*%
X7556500Y22733000D02*
X7556500Y24257000D01*
D12*
X5651500Y22733000D02*
X6413500Y22733000D01*
D10*
X4508500Y24257000D02*
X4508500Y22733000D01*
D12*
X5651500Y24257000D02*
X6413500Y24257000D01*
D10*
%TO.C,C3*%
X16764000Y17081500D02*
X15240000Y17081500D01*
D12*
X16764000Y15176500D02*
X16764000Y15938500D01*
X15240000Y15176500D02*
X15240000Y15938500D01*
D10*
X15240000Y14033500D02*
X16764000Y14033500D01*
%TO.C,FB1*%
X-1397000Y9588500D02*
X127000Y9588500D01*
D12*
X-1397000Y11493500D02*
X-1397000Y10731500D01*
D10*
X127000Y12636500D02*
X-1397000Y12636500D01*
D12*
X127000Y11493500D02*
X127000Y10731500D01*
D10*
%TO.C,C1*%
X-3111500Y15367000D02*
X-3111500Y13843000D01*
D12*
X-1206500Y13843000D02*
X-1968500Y13843000D01*
X-1206500Y15367000D02*
X-1968500Y15367000D01*
D10*
X-63500Y13843000D02*
X-63500Y15367000D01*
D12*
%TO.C,R2*%
X25590500Y17145000D02*
X26352500Y17145000D01*
X25590500Y15621000D02*
X26352500Y15621000D01*
D10*
X27495500Y15621000D02*
X27495500Y17145000D01*
X24447500Y17145000D02*
X24447500Y15621000D01*
D12*
%TO.C,U2*%
X17575000Y10045000D02*
X17575000Y9320000D01*
X21795000Y12815000D02*
X21795000Y13540000D01*
X21795000Y13540000D02*
X21070000Y13540000D01*
X17575000Y9320000D02*
X18300000Y9320000D01*
X17575000Y12815000D02*
X17575000Y13540000D01*
X17575000Y13540000D02*
X18300000Y13540000D01*
X21795000Y10045000D02*
X21795000Y9320000D01*
%TO.C,R1*%
X22034500Y17145000D02*
X22796500Y17145000D01*
X22034500Y15621000D02*
X22796500Y15621000D01*
D10*
X23939500Y15621000D02*
X23939500Y17145000D01*
X20891500Y17145000D02*
X20891500Y15621000D01*
%TO.C,C4*%
X17335500Y17145000D02*
X17335500Y15621000D01*
X20383500Y15621000D02*
X20383500Y17145000D01*
D12*
X19240500Y15621000D02*
X18478500Y15621000D01*
X19240500Y17145000D02*
X18478500Y17145000D01*
%TO.C,U1*%
X11562500Y16165000D02*
X13362500Y16165000D01*
X11562500Y13045000D02*
X12362500Y13045000D01*
X11562500Y13045000D02*
X10762500Y13045000D01*
X11562500Y16165000D02*
X10762500Y16165000D01*
D10*
%TO.C,C2*%
X-2413000Y12636500D02*
X-3937000Y12636500D01*
D12*
X-2413000Y10731500D02*
X-2413000Y11493500D01*
X-3937000Y10731500D02*
X-3937000Y11493500D01*
D10*
X-3937000Y9588500D02*
X-2413000Y9588500D01*
D12*
%TO.C,C5*%
X25273000Y9779000D02*
X24511000Y9779000D01*
X25273000Y8255000D02*
X24511000Y8255000D01*
D10*
X26416000Y8255000D02*
X26416000Y9779000D01*
X23368000Y9779000D02*
X23368000Y8255000D01*
D12*
%TO.C,D1*%
X2670000Y5335000D02*
X-2730000Y5335000D01*
X2670000Y8635000D02*
X-2730000Y8635000D01*
X2670000Y8635000D02*
X2670000Y5335000D01*
D10*
%TO.C,F1*%
X4908000Y13208000D02*
X2622000Y13208000D01*
X4908000Y9652000D02*
X2622000Y9652000D01*
D12*
%TO.C,JP1*%
X23003000Y6781000D02*
X23003000Y5381000D01*
X24303000Y7481000D02*
X23703000Y7481000D01*
X23703000Y4681000D02*
X24303000Y4681000D01*
X25003000Y5381000D02*
X25003000Y6781000D01*
X24303000Y4681000D02*
G75*
G03*
X25003000Y5381000I0J700000D01*
G01*
X23003000Y5381000D02*
G75*
G03*
X23703000Y4681000I700000J0D01*
G01*
X25003000Y6781000D02*
G75*
G03*
X24303000Y7481000I-699999J1D01*
G01*
X23703000Y7481000D02*
G75*
G03*
X23003000Y6781000I-1J-699999D01*
G01*
%TO.C,R4*%
X7216000Y-2164000D02*
X6454000Y-2164000D01*
D10*
X8359000Y-3688000D02*
X8359000Y-2164000D01*
X5311000Y-2164000D02*
X5311000Y-3688000D01*
D12*
X7216000Y-3688000D02*
X6454000Y-3688000D01*
%TD*%
M02*
