%TF.GenerationSoftware,KiCad,Pcbnew,7.0.5.1-1-g8f565ef7f0-dirty-deb11*%
%TF.CreationDate,2023-07-05T01:50:14+00:00*%
%TF.ProjectId,USB232R02,55534232-3332-4523-9032-2e6b69636164,rev?*%
%TF.SameCoordinates,PX7f790e8PY698c050*%
%TF.FileFunction,Soldermask,Bot*%
%TF.FilePolarity,Negative*%
%FSLAX46Y46*%
G04 Gerber Fmt 4.6, Leading zero omitted, Abs format (unit mm)*
G04 Created by KiCad (PCBNEW 7.0.5.1-1-g8f565ef7f0-dirty-deb11) date 2023-07-05 01:50:14*
%MOMM*%
%LPD*%
G01*
G04 APERTURE LIST*
G04 Aperture macros list*
%AMRoundRect*
0 Rectangle with rounded corners*
0 $1 Rounding radius*
0 $2 $3 $4 $5 $6 $7 $8 $9 X,Y pos of 4 corners*
0 Add a 4 corners polygon primitive as box body*
4,1,4,$2,$3,$4,$5,$6,$7,$8,$9,$2,$3,0*
0 Add four circle primitives for the rounded corners*
1,1,$1+$1,$2,$3*
1,1,$1+$1,$4,$5*
1,1,$1+$1,$6,$7*
1,1,$1+$1,$8,$9*
0 Add four rect primitives between the rounded corners*
20,1,$1+$1,$2,$3,$4,$5,0*
20,1,$1+$1,$4,$5,$6,$7,0*
20,1,$1+$1,$6,$7,$8,$9,0*
20,1,$1+$1,$8,$9,$2,$3,0*%
%AMFreePoly0*
4,1,40,0.586777,0.930194,0.656366,0.874698,0.694986,0.794504,0.700000,0.750000,0.700000,-0.750000,0.680194,-0.836777,0.624698,-0.906366,0.544504,-0.944986,0.500000,-0.950000,0.000000,-0.950000,-0.022297,-0.944911,-0.071157,-0.944911,-0.127504,-0.936810,-0.264055,-0.896715,-0.315837,-0.873066,-0.435559,-0.796125,-0.478580,-0.758847,-0.571777,-0.651292,-0.602554,-0.603402,-0.661673,-0.473948,
-0.677710,-0.419330,-0.697964,-0.278464,-0.700000,-0.250000,-0.700000,0.250000,-0.697964,0.278464,-0.677710,0.419330,-0.661673,0.473948,-0.602554,0.603402,-0.571777,0.651292,-0.478580,0.758847,-0.435559,0.796125,-0.315837,0.873066,-0.264055,0.896715,-0.127504,0.936810,-0.071157,0.944911,-0.044660,0.944911,-0.044504,0.944986,0.000000,0.950000,0.500000,0.950000,0.586777,0.930194,
0.586777,0.930194,$1*%
%AMFreePoly1*
4,1,40,0.022297,0.944911,0.071157,0.944911,0.127504,0.936810,0.264055,0.896715,0.315837,0.873066,0.435559,0.796125,0.478580,0.758847,0.571777,0.651292,0.602554,0.603402,0.661673,0.473948,0.677710,0.419330,0.697964,0.278464,0.700000,0.250000,0.700000,-0.250000,0.697964,-0.278464,0.677710,-0.419330,0.661673,-0.473948,0.602554,-0.603402,0.571777,-0.651292,0.478580,-0.758847,
0.435559,-0.796125,0.315837,-0.873066,0.264055,-0.896715,0.127504,-0.936810,0.071157,-0.944911,0.044660,-0.944911,0.044504,-0.944986,0.000000,-0.950000,-0.500000,-0.950000,-0.586777,-0.930194,-0.656366,-0.874698,-0.694986,-0.794504,-0.700000,-0.750000,-0.700000,0.750000,-0.680194,0.836777,-0.624698,0.906366,-0.544504,0.944986,-0.500000,0.950000,0.000000,0.950000,0.022297,0.944911,
0.022297,0.944911,$1*%
G04 Aperture macros list end*
%ADD10C,6.400000*%
%ADD11RoundRect,0.200000X0.850000X0.850000X-0.850000X0.850000X-0.850000X-0.850000X0.850000X-0.850000X0*%
%ADD12C,2.100000*%
%ADD13C,3.900000*%
%ADD14RoundRect,0.200000X-0.762000X-0.762000X0.762000X-0.762000X0.762000X0.762000X-0.762000X0.762000X0*%
%ADD15RoundRect,0.200000X0.762000X-0.762000X0.762000X0.762000X-0.762000X0.762000X-0.762000X-0.762000X0*%
%ADD16RoundRect,0.200000X-0.762000X0.762000X-0.762000X-0.762000X0.762000X-0.762000X0.762000X0.762000X0*%
%ADD17RoundRect,0.200000X0.762000X0.762000X-0.762000X0.762000X-0.762000X-0.762000X0.762000X-0.762000X0*%
%ADD18RoundRect,0.200000X-0.444500X-0.698500X0.444500X-0.698500X0.444500X0.698500X-0.444500X0.698500X0*%
%ADD19RoundRect,0.200000X0.698500X-0.444500X0.698500X0.444500X-0.698500X0.444500X-0.698500X-0.444500X0*%
%ADD20RoundRect,0.200000X-0.698500X0.444500X-0.698500X-0.444500X0.698500X-0.444500X0.698500X0.444500X0*%
%ADD21RoundRect,0.200000X0.444500X0.698500X-0.444500X0.698500X-0.444500X-0.698500X0.444500X-0.698500X0*%
%ADD22RoundRect,0.262500X0.062500X-0.350000X0.062500X0.350000X-0.062500X0.350000X-0.062500X-0.350000X0*%
%ADD23RoundRect,0.262500X0.350000X-0.062500X0.350000X0.062500X-0.350000X0.062500X-0.350000X-0.062500X0*%
%ADD24RoundRect,0.200000X1.250000X-1.250000X1.250000X1.250000X-1.250000X1.250000X-1.250000X-1.250000X0*%
%ADD25C,2.700000*%
%ADD26RoundRect,0.200000X-0.475000X-0.750000X0.475000X-0.750000X0.475000X0.750000X-0.475000X0.750000X0*%
%ADD27RoundRect,0.350000X0.512500X0.150000X-0.512500X0.150000X-0.512500X-0.150000X0.512500X-0.150000X0*%
%ADD28RoundRect,0.200000X1.250000X0.900000X-1.250000X0.900000X-1.250000X-0.900000X1.250000X-0.900000X0*%
%ADD29RoundRect,0.200000X0.950000X1.700000X-0.950000X1.700000X-0.950000X-1.700000X0.950000X-1.700000X0*%
%ADD30FreePoly0,270.000000*%
%ADD31FreePoly1,270.000000*%
G04 APERTURE END LIST*
D10*
%TO.C,H3*%
X0Y0D03*
%TD*%
D11*
%TO.C,J1*%
X10414000Y8763000D03*
D12*
X10414000Y11263000D03*
X8414000Y11263000D03*
X8414000Y8763000D03*
D13*
X5704000Y3993000D03*
X5704000Y16033000D03*
%TD*%
D14*
%TO.C,J17*%
X29210000Y5080000D03*
X31750000Y5080000D03*
%TD*%
%TO.C,J6*%
X29210000Y12700000D03*
X31750000Y12700000D03*
%TD*%
%TO.C,J5*%
X29210000Y15240000D03*
X31750000Y15240000D03*
%TD*%
D15*
%TO.C,J12*%
X15240000Y19050000D03*
X15240000Y21590000D03*
%TD*%
D10*
%TO.C,H4*%
X30480000Y0D03*
%TD*%
D15*
%TO.C,J3*%
X20320000Y-1270000D03*
X20320000Y1270000D03*
X22860000Y-1270000D03*
X22860000Y1270000D03*
X25400000Y-1270000D03*
X25400000Y1270000D03*
%TD*%
D14*
%TO.C,J14*%
X10160000Y21590000D03*
%TD*%
D16*
%TO.C,J13*%
X12700000Y21590000D03*
%TD*%
D14*
%TO.C,J8*%
X29210000Y10160000D03*
X31750000Y10160000D03*
%TD*%
D15*
%TO.C,J15*%
X10160000Y19050000D03*
%TD*%
%TO.C,J10*%
X17780000Y19050000D03*
X17780000Y21590000D03*
%TD*%
D10*
%TO.C,H1*%
X30480000Y20320000D03*
%TD*%
D14*
%TO.C,J7*%
X29210000Y7620000D03*
X31750000Y7620000D03*
%TD*%
D10*
%TO.C,H2*%
X0Y20320000D03*
%TD*%
D17*
%TO.C,J16*%
X12700000Y19050000D03*
%TD*%
D15*
%TO.C,J4*%
X25400000Y19050000D03*
X25400000Y21590000D03*
%TD*%
%TO.C,J11*%
X20320000Y19050000D03*
X20320000Y21590000D03*
%TD*%
%TO.C,J9*%
X22860000Y19050000D03*
X22860000Y21590000D03*
%TD*%
%TO.C,J2*%
X11430000Y-1270000D03*
X11430000Y1270000D03*
X13970000Y-1270000D03*
X13970000Y1270000D03*
X16510000Y-1270000D03*
X16510000Y1270000D03*
%TD*%
D18*
%TO.C,R3*%
X5080000Y23495000D03*
X6985000Y23495000D03*
%TD*%
D19*
%TO.C,C3*%
X16002000Y14605000D03*
X16002000Y16510000D03*
%TD*%
D20*
%TO.C,FB1*%
X-635000Y12065000D03*
X-635000Y10160000D03*
%TD*%
D21*
%TO.C,C1*%
X-635000Y14605000D03*
X-2540000Y14605000D03*
%TD*%
D18*
%TO.C,R2*%
X25019000Y16383000D03*
X26924000Y16383000D03*
%TD*%
D22*
%TO.C,U2*%
X20685000Y9492500D03*
X20185000Y9492500D03*
X19685000Y9492500D03*
X19185000Y9492500D03*
X18685000Y9492500D03*
D23*
X17747500Y10430000D03*
X17747500Y10930000D03*
X17747500Y11430000D03*
X17747500Y11930000D03*
X17747500Y12430000D03*
D22*
X18685000Y13367500D03*
X19185000Y13367500D03*
X19685000Y13367500D03*
X20185000Y13367500D03*
X20685000Y13367500D03*
D23*
X21622500Y12430000D03*
X21622500Y11930000D03*
X21622500Y11430000D03*
X21622500Y10930000D03*
X21622500Y10430000D03*
D24*
X19685000Y11430000D03*
%TD*%
D18*
%TO.C,R1*%
X21463000Y16383000D03*
X23368000Y16383000D03*
%TD*%
D25*
%TO.C,D2*%
X6350000Y20320000D03*
D26*
X8425000Y20320000D03*
X4275000Y20320000D03*
%TD*%
D21*
%TO.C,C4*%
X19812000Y16383000D03*
X17907000Y16383000D03*
%TD*%
D27*
%TO.C,U1*%
X12700000Y15555000D03*
X12700000Y14605000D03*
X12700000Y13655000D03*
X10425000Y13655000D03*
X10425000Y14605000D03*
X10425000Y15555000D03*
%TD*%
D19*
%TO.C,C2*%
X-3175000Y10160000D03*
X-3175000Y12065000D03*
%TD*%
D21*
%TO.C,C5*%
X25844500Y9017000D03*
X23939500Y9017000D03*
%TD*%
D28*
%TO.C,D1*%
X1270000Y6985000D03*
X-2730000Y6985000D03*
%TD*%
D29*
%TO.C,F1*%
X5715000Y11430000D03*
X1815000Y11430000D03*
%TD*%
D25*
%TO.C,D3*%
X6350000Y0D03*
D26*
X8425000Y0D03*
X4275000Y0D03*
%TD*%
D30*
%TO.C,JP1*%
X24003000Y6731000D03*
D31*
X24003000Y5431000D03*
%TD*%
D21*
%TO.C,R4*%
X7787500Y-2926000D03*
X5882500Y-2926000D03*
%TD*%
M02*
