%TF.GenerationSoftware,KiCad,Pcbnew,7.0.5.1-1-g8f565ef7f0-dirty-deb11*%
%TF.CreationDate,2023-07-10T01:51:59+00:00*%
%TF.ProjectId,USB232R02,55534232-3332-4523-9032-2e6b69636164,rev?*%
%TF.SameCoordinates,PX7f790e8PY698c050*%
%TF.FileFunction,Copper,L1,Top*%
%TF.FilePolarity,Positive*%
%FSLAX46Y46*%
G04 Gerber Fmt 4.6, Leading zero omitted, Abs format (unit mm)*
G04 Created by KiCad (PCBNEW 7.0.5.1-1-g8f565ef7f0-dirty-deb11) date 2023-07-10 01:51:59*
%MOMM*%
%LPD*%
G01*
G04 APERTURE LIST*
%ADD10C,0.200000*%
%TA.AperFunction,NonConductor*%
%ADD11C,0.200000*%
%TD*%
%TA.AperFunction,ComponentPad*%
%ADD12C,6.000000*%
%TD*%
%TA.AperFunction,ComponentPad*%
%ADD13R,1.700000X1.700000*%
%TD*%
%TA.AperFunction,ComponentPad*%
%ADD14C,1.700000*%
%TD*%
%TA.AperFunction,ComponentPad*%
%ADD15C,3.500000*%
%TD*%
%TA.AperFunction,ComponentPad*%
%ADD16R,1.524000X1.524000*%
%TD*%
%TA.AperFunction,ViaPad*%
%ADD17C,0.800000*%
%TD*%
%TA.AperFunction,Conductor*%
%ADD18C,0.400000*%
%TD*%
%TA.AperFunction,Conductor*%
%ADD19C,0.250000*%
%TD*%
%TA.AperFunction,Conductor*%
%ADD20C,0.300000*%
%TD*%
G04 APERTURE END LIST*
D10*
D11*
X14877857Y23821781D02*
X14877857Y24488448D01*
X14877857Y24393210D02*
X14925476Y24440829D01*
X14925476Y24440829D02*
X15020714Y24488448D01*
X15020714Y24488448D02*
X15163571Y24488448D01*
X15163571Y24488448D02*
X15258809Y24440829D01*
X15258809Y24440829D02*
X15306428Y24345591D01*
X15306428Y24345591D02*
X15306428Y23821781D01*
X15306428Y24345591D02*
X15354047Y24440829D01*
X15354047Y24440829D02*
X15449285Y24488448D01*
X15449285Y24488448D02*
X15592142Y24488448D01*
X15592142Y24488448D02*
X15687381Y24440829D01*
X15687381Y24440829D02*
X15735000Y24345591D01*
X15735000Y24345591D02*
X15735000Y23821781D01*
X16354047Y23821781D02*
X16258809Y23869400D01*
X16258809Y23869400D02*
X16211190Y23964639D01*
X16211190Y23964639D02*
X16211190Y24821781D01*
X17163571Y23821781D02*
X17163571Y24345591D01*
X17163571Y24345591D02*
X17115952Y24440829D01*
X17115952Y24440829D02*
X17020714Y24488448D01*
X17020714Y24488448D02*
X16830238Y24488448D01*
X16830238Y24488448D02*
X16735000Y24440829D01*
X17163571Y23869400D02*
X17068333Y23821781D01*
X17068333Y23821781D02*
X16830238Y23821781D01*
X16830238Y23821781D02*
X16735000Y23869400D01*
X16735000Y23869400D02*
X16687381Y23964639D01*
X16687381Y23964639D02*
X16687381Y24059877D01*
X16687381Y24059877D02*
X16735000Y24155115D01*
X16735000Y24155115D02*
X16830238Y24202734D01*
X16830238Y24202734D02*
X17068333Y24202734D01*
X17068333Y24202734D02*
X17163571Y24250353D01*
X17639762Y23821781D02*
X17639762Y24821781D01*
X17639762Y24440829D02*
X17735000Y24488448D01*
X17735000Y24488448D02*
X17925476Y24488448D01*
X17925476Y24488448D02*
X18020714Y24440829D01*
X18020714Y24440829D02*
X18068333Y24393210D01*
X18068333Y24393210D02*
X18115952Y24297972D01*
X18115952Y24297972D02*
X18115952Y24012258D01*
X18115952Y24012258D02*
X18068333Y23917020D01*
X18068333Y23917020D02*
X18020714Y23869400D01*
X18020714Y23869400D02*
X17925476Y23821781D01*
X17925476Y23821781D02*
X17735000Y23821781D01*
X17735000Y23821781D02*
X17639762Y23869400D01*
X18544524Y23917020D02*
X18592143Y23869400D01*
X18592143Y23869400D02*
X18544524Y23821781D01*
X18544524Y23821781D02*
X18496905Y23869400D01*
X18496905Y23869400D02*
X18544524Y23917020D01*
X18544524Y23917020D02*
X18544524Y23821781D01*
X19449285Y23869400D02*
X19354047Y23821781D01*
X19354047Y23821781D02*
X19163571Y23821781D01*
X19163571Y23821781D02*
X19068333Y23869400D01*
X19068333Y23869400D02*
X19020714Y23917020D01*
X19020714Y23917020D02*
X18973095Y24012258D01*
X18973095Y24012258D02*
X18973095Y24297972D01*
X18973095Y24297972D02*
X19020714Y24393210D01*
X19020714Y24393210D02*
X19068333Y24440829D01*
X19068333Y24440829D02*
X19163571Y24488448D01*
X19163571Y24488448D02*
X19354047Y24488448D01*
X19354047Y24488448D02*
X19449285Y24440829D01*
X19782619Y24488448D02*
X20306428Y24488448D01*
X20306428Y24488448D02*
X19782619Y23821781D01*
X19782619Y23821781D02*
X20306428Y23821781D01*
X21449286Y24821781D02*
X21449286Y24012258D01*
X21449286Y24012258D02*
X21496905Y23917020D01*
X21496905Y23917020D02*
X21544524Y23869400D01*
X21544524Y23869400D02*
X21639762Y23821781D01*
X21639762Y23821781D02*
X21830238Y23821781D01*
X21830238Y23821781D02*
X21925476Y23869400D01*
X21925476Y23869400D02*
X21973095Y23917020D01*
X21973095Y23917020D02*
X22020714Y24012258D01*
X22020714Y24012258D02*
X22020714Y24821781D01*
X22449286Y23869400D02*
X22592143Y23821781D01*
X22592143Y23821781D02*
X22830238Y23821781D01*
X22830238Y23821781D02*
X22925476Y23869400D01*
X22925476Y23869400D02*
X22973095Y23917020D01*
X22973095Y23917020D02*
X23020714Y24012258D01*
X23020714Y24012258D02*
X23020714Y24107496D01*
X23020714Y24107496D02*
X22973095Y24202734D01*
X22973095Y24202734D02*
X22925476Y24250353D01*
X22925476Y24250353D02*
X22830238Y24297972D01*
X22830238Y24297972D02*
X22639762Y24345591D01*
X22639762Y24345591D02*
X22544524Y24393210D01*
X22544524Y24393210D02*
X22496905Y24440829D01*
X22496905Y24440829D02*
X22449286Y24536067D01*
X22449286Y24536067D02*
X22449286Y24631305D01*
X22449286Y24631305D02*
X22496905Y24726543D01*
X22496905Y24726543D02*
X22544524Y24774162D01*
X22544524Y24774162D02*
X22639762Y24821781D01*
X22639762Y24821781D02*
X22877857Y24821781D01*
X22877857Y24821781D02*
X23020714Y24774162D01*
X23782619Y24345591D02*
X23925476Y24297972D01*
X23925476Y24297972D02*
X23973095Y24250353D01*
X23973095Y24250353D02*
X24020714Y24155115D01*
X24020714Y24155115D02*
X24020714Y24012258D01*
X24020714Y24012258D02*
X23973095Y23917020D01*
X23973095Y23917020D02*
X23925476Y23869400D01*
X23925476Y23869400D02*
X23830238Y23821781D01*
X23830238Y23821781D02*
X23449286Y23821781D01*
X23449286Y23821781D02*
X23449286Y24821781D01*
X23449286Y24821781D02*
X23782619Y24821781D01*
X23782619Y24821781D02*
X23877857Y24774162D01*
X23877857Y24774162D02*
X23925476Y24726543D01*
X23925476Y24726543D02*
X23973095Y24631305D01*
X23973095Y24631305D02*
X23973095Y24536067D01*
X23973095Y24536067D02*
X23925476Y24440829D01*
X23925476Y24440829D02*
X23877857Y24393210D01*
X23877857Y24393210D02*
X23782619Y24345591D01*
X23782619Y24345591D02*
X23449286Y24345591D01*
X24401667Y24726543D02*
X24449286Y24774162D01*
X24449286Y24774162D02*
X24544524Y24821781D01*
X24544524Y24821781D02*
X24782619Y24821781D01*
X24782619Y24821781D02*
X24877857Y24774162D01*
X24877857Y24774162D02*
X24925476Y24726543D01*
X24925476Y24726543D02*
X24973095Y24631305D01*
X24973095Y24631305D02*
X24973095Y24536067D01*
X24973095Y24536067D02*
X24925476Y24393210D01*
X24925476Y24393210D02*
X24354048Y23821781D01*
X24354048Y23821781D02*
X24973095Y23821781D01*
X25306429Y24821781D02*
X25925476Y24821781D01*
X25925476Y24821781D02*
X25592143Y24440829D01*
X25592143Y24440829D02*
X25735000Y24440829D01*
X25735000Y24440829D02*
X25830238Y24393210D01*
X25830238Y24393210D02*
X25877857Y24345591D01*
X25877857Y24345591D02*
X25925476Y24250353D01*
X25925476Y24250353D02*
X25925476Y24012258D01*
X25925476Y24012258D02*
X25877857Y23917020D01*
X25877857Y23917020D02*
X25830238Y23869400D01*
X25830238Y23869400D02*
X25735000Y23821781D01*
X25735000Y23821781D02*
X25449286Y23821781D01*
X25449286Y23821781D02*
X25354048Y23869400D01*
X25354048Y23869400D02*
X25306429Y23917020D01*
X26306429Y24726543D02*
X26354048Y24774162D01*
X26354048Y24774162D02*
X26449286Y24821781D01*
X26449286Y24821781D02*
X26687381Y24821781D01*
X26687381Y24821781D02*
X26782619Y24774162D01*
X26782619Y24774162D02*
X26830238Y24726543D01*
X26830238Y24726543D02*
X26877857Y24631305D01*
X26877857Y24631305D02*
X26877857Y24536067D01*
X26877857Y24536067D02*
X26830238Y24393210D01*
X26830238Y24393210D02*
X26258810Y23821781D01*
X26258810Y23821781D02*
X26877857Y23821781D01*
X27877857Y23821781D02*
X27544524Y24297972D01*
X27306429Y23821781D02*
X27306429Y24821781D01*
X27306429Y24821781D02*
X27687381Y24821781D01*
X27687381Y24821781D02*
X27782619Y24774162D01*
X27782619Y24774162D02*
X27830238Y24726543D01*
X27830238Y24726543D02*
X27877857Y24631305D01*
X27877857Y24631305D02*
X27877857Y24488448D01*
X27877857Y24488448D02*
X27830238Y24393210D01*
X27830238Y24393210D02*
X27782619Y24345591D01*
X27782619Y24345591D02*
X27687381Y24297972D01*
X27687381Y24297972D02*
X27306429Y24297972D01*
X28496905Y24821781D02*
X28592143Y24821781D01*
X28592143Y24821781D02*
X28687381Y24774162D01*
X28687381Y24774162D02*
X28735000Y24726543D01*
X28735000Y24726543D02*
X28782619Y24631305D01*
X28782619Y24631305D02*
X28830238Y24440829D01*
X28830238Y24440829D02*
X28830238Y24202734D01*
X28830238Y24202734D02*
X28782619Y24012258D01*
X28782619Y24012258D02*
X28735000Y23917020D01*
X28735000Y23917020D02*
X28687381Y23869400D01*
X28687381Y23869400D02*
X28592143Y23821781D01*
X28592143Y23821781D02*
X28496905Y23821781D01*
X28496905Y23821781D02*
X28401667Y23869400D01*
X28401667Y23869400D02*
X28354048Y23917020D01*
X28354048Y23917020D02*
X28306429Y24012258D01*
X28306429Y24012258D02*
X28258810Y24202734D01*
X28258810Y24202734D02*
X28258810Y24440829D01*
X28258810Y24440829D02*
X28306429Y24631305D01*
X28306429Y24631305D02*
X28354048Y24726543D01*
X28354048Y24726543D02*
X28401667Y24774162D01*
X28401667Y24774162D02*
X28496905Y24821781D01*
X29211191Y24726543D02*
X29258810Y24774162D01*
X29258810Y24774162D02*
X29354048Y24821781D01*
X29354048Y24821781D02*
X29592143Y24821781D01*
X29592143Y24821781D02*
X29687381Y24774162D01*
X29687381Y24774162D02*
X29735000Y24726543D01*
X29735000Y24726543D02*
X29782619Y24631305D01*
X29782619Y24631305D02*
X29782619Y24536067D01*
X29782619Y24536067D02*
X29735000Y24393210D01*
X29735000Y24393210D02*
X29163572Y23821781D01*
X29163572Y23821781D02*
X29782619Y23821781D01*
X30163572Y24107496D02*
X30639762Y24107496D01*
X30068334Y23821781D02*
X30401667Y24821781D01*
X30401667Y24821781D02*
X30735000Y23821781D01*
D12*
%TO.P,H3,1,1*%
%TO.N,GND*%
X0Y0D03*
%TD*%
D13*
%TO.P,J1,1,VBUS*%
%TO.N,/VBUS*%
X10414000Y8763000D03*
D14*
%TO.P,J1,2,D-*%
%TO.N,/D-*%
X10414000Y11263000D03*
%TO.P,J1,3,D+*%
%TO.N,/D+*%
X8414000Y11263000D03*
%TO.P,J1,4,GND*%
%TO.N,GND*%
X8414000Y8763000D03*
D15*
%TO.P,J1,5,Shield*%
X5704000Y3993000D03*
X5704000Y16033000D03*
%TD*%
D12*
%TO.P,H4,1,1*%
%TO.N,GND*%
X30480000Y0D03*
%TD*%
D16*
%TO.P,J3,1*%
%TO.N,GND*%
X20320000Y-1270000D03*
%TO.P,J3,2*%
X20320000Y1270000D03*
%TO.P,J3,3*%
%TO.N,+3V3*%
X22860000Y-1270000D03*
%TO.P,J3,4*%
X22860000Y1270000D03*
%TO.P,J3,5*%
%TO.N,GND*%
X25400000Y-1270000D03*
%TO.P,J3,6*%
X25400000Y1270000D03*
%TD*%
D12*
%TO.P,H1,1,1*%
%TO.N,GND*%
X30480000Y20320000D03*
%TD*%
%TO.P,H2,1,1*%
%TO.N,GND*%
X0Y20320000D03*
%TD*%
D16*
%TO.P,J18,1*%
%TO.N,/TXLED{slash}CBUS2*%
X10215000Y19074000D03*
%TO.P,J18,2*%
%TO.N,/RXLED{slash}CBUS1*%
X10215000Y21614000D03*
%TO.P,J18,3*%
%TO.N,/CBUS3*%
X12755000Y19074000D03*
%TO.P,J18,4*%
%TO.N,/CBUS0*%
X12755000Y21614000D03*
%TO.P,J18,5*%
%TO.N,/#RI*%
X15295000Y19074000D03*
%TO.P,J18,6*%
X15295000Y21614000D03*
%TO.P,J18,7*%
%TO.N,/#DSR*%
X17835000Y19074000D03*
%TO.P,J18,8*%
X17835000Y21614000D03*
%TO.P,J18,9*%
%TO.N,/#DCD*%
X20375000Y19074000D03*
%TO.P,J18,10*%
X20375000Y21614000D03*
%TO.P,J18,11*%
%TO.N,/#DTR*%
X22915000Y19074000D03*
%TO.P,J18,12*%
X22915000Y21614000D03*
%TO.P,J18,13*%
%TO.N,/VCCIO*%
X25455000Y19074000D03*
%TO.P,J18,14*%
X25455000Y21614000D03*
%TD*%
%TO.P,J19,1*%
%TO.N,/TXD*%
X29195000Y15254000D03*
%TO.P,J19,2*%
X31735000Y15254000D03*
%TO.P,J19,3*%
%TO.N,/RXD*%
X29195000Y12714000D03*
%TO.P,J19,4*%
X31735000Y12714000D03*
%TO.P,J19,5*%
%TO.N,/#CTS*%
X29195000Y10174000D03*
%TO.P,J19,6*%
X31735000Y10174000D03*
%TO.P,J19,7*%
%TO.N,/#RTS*%
X29195000Y7634000D03*
%TO.P,J19,8*%
X31735000Y7634000D03*
%TO.P,J19,9*%
%TO.N,GND*%
X29195000Y5094000D03*
%TO.P,J19,10*%
X31735000Y5094000D03*
%TD*%
%TO.P,J2,1*%
%TO.N,GND*%
X11430000Y-1270000D03*
%TO.P,J2,2*%
X11430000Y1270000D03*
%TO.P,J2,3*%
%TO.N,+5V*%
X13970000Y-1270000D03*
%TO.P,J2,4*%
X13970000Y1270000D03*
%TO.P,J2,5*%
%TO.N,GND*%
X16510000Y-1270000D03*
%TO.P,J2,6*%
X16510000Y1270000D03*
%TD*%
D17*
%TO.N,GND*%
X23913500Y14074000D03*
X11557000Y16599000D03*
X13589000Y12192000D03*
X9144000Y6223000D03*
X27178000Y3048000D03*
X22635000Y4074000D03*
X10287000Y6223000D03*
X19735000Y11474000D03*
X14410000Y6824000D03*
X14351000Y16730010D03*
X18510092Y16288119D03*
X9779000Y5080000D03*
%TO.N,+5V*%
X9135000Y17274000D03*
X3635000Y6449000D03*
X13410000Y17274000D03*
%TO.N,+3V3*%
X24003000Y3542000D03*
X16835000Y13799000D03*
X16129000Y9144000D03*
%TO.N,/VCCIO*%
X24257000Y10205000D03*
%TO.N,/D-*%
X9435500Y15390481D03*
%TO.N,/RXD*%
X21341186Y8007223D03*
%TO.N,/#CTS*%
X26598966Y11256339D03*
X16986495Y9658497D03*
%TO.N,/#DTR*%
X24638000Y11655000D03*
%TO.N,/#DSR*%
X18868108Y7547892D03*
%TO.N,/#DCD*%
X17906630Y7973500D03*
%TO.N,/#RI*%
X19960000Y7099000D03*
%TO.N,/RXLED{slash}CBUS1*%
X20631821Y15216383D03*
%TO.N,/TXLED{slash}CBUS2*%
X4445000Y-3175000D03*
X12827000Y10922000D03*
X10160000Y16510000D03*
%TO.N,/CBUS3*%
X22987000Y12827000D03*
X17399000Y14859000D03*
%TO.N,Net-(U2-~{RESET})*%
X22035000Y14074000D03*
X18460000Y14732000D03*
%TD*%
D18*
%TO.N,+5V*%
X8535000Y14374000D02*
X8535000Y16674000D01*
X9260000Y17399000D02*
X9135000Y17274000D01*
X13456670Y17176304D02*
X13233974Y17399000D01*
X13233974Y17399000D02*
X9260000Y17399000D01*
X8535000Y16674000D02*
X9135000Y17274000D01*
X3635000Y6449000D02*
X3635000Y9474000D01*
X3635000Y9474000D02*
X8535000Y14374000D01*
%TO.N,+3V3*%
X16133652Y13097652D02*
X16133652Y9148652D01*
X24003000Y3542000D02*
X22860000Y2399000D01*
X22860000Y2399000D02*
X22860000Y1270000D01*
X16133652Y9148652D02*
X16129000Y9144000D01*
X16835000Y13799000D02*
X16133652Y13097652D01*
D19*
%TO.N,/VCCIO*%
X25400000Y11343998D02*
X24261002Y10205000D01*
X24261002Y10205000D02*
X24257000Y10205000D01*
X25400000Y19050000D02*
X25400000Y11343998D01*
D18*
%TO.N,/D-*%
X9435500Y15390481D02*
X9335000Y15289981D01*
X9335000Y12342000D02*
X10414000Y11263000D01*
X9335000Y15289981D02*
X9335000Y12342000D01*
D19*
%TO.N,/RXD*%
X21341186Y8007223D02*
X24517223Y8007223D01*
X24517223Y8007223D02*
X29210000Y12700000D01*
%TO.N,/#CTS*%
X26598966Y11231966D02*
X26598966Y11256339D01*
X16986495Y9658497D02*
X17386494Y9258498D01*
X17386494Y9258498D02*
X24625498Y9258498D01*
X24625498Y9258498D02*
X26598966Y11231966D01*
%TO.N,/#DTR*%
X24638000Y11655000D02*
X24638000Y17272000D01*
X24638000Y17272000D02*
X22860000Y19050000D01*
%TO.N,/#DSR*%
X14953989Y15334989D02*
X14953989Y8414011D01*
X14953989Y8414011D02*
X16119000Y7249000D01*
X17780000Y19050000D02*
X17735000Y19005000D01*
X17735000Y18116000D02*
X14953989Y15334989D01*
X18569216Y7249000D02*
X18868108Y7547892D01*
X16119000Y7249000D02*
X18569216Y7249000D01*
X17735000Y19005000D02*
X17735000Y18116000D01*
%TO.N,/#DCD*%
X15403999Y8799999D02*
X15403999Y15076001D01*
X16230498Y7973500D02*
X15403999Y8799999D01*
X18101998Y17774000D02*
X19044000Y17774000D01*
X17906630Y7973500D02*
X16230498Y7973500D01*
X15403999Y15076001D02*
X18101998Y17774000D01*
X19044000Y17774000D02*
X20320000Y19050000D01*
%TO.N,/#RI*%
X19630991Y6769991D02*
X15961599Y6769991D01*
X19960000Y7099000D02*
X19630991Y6769991D01*
X15240000Y16383000D02*
X15240000Y19050000D01*
X14503979Y15646979D02*
X15240000Y16383000D01*
X15961599Y6769991D02*
X14503979Y8227611D01*
X14503979Y8227611D02*
X14503979Y15646979D01*
%TO.N,/RXLED{slash}CBUS1*%
X21735000Y16274000D02*
X21735000Y19974000D01*
X11430000Y20320000D02*
X10160000Y21590000D01*
X21389000Y20320000D02*
X11430000Y20320000D01*
X20631821Y15216383D02*
X20677383Y15216383D01*
X20677383Y15216383D02*
X21735000Y16274000D01*
X21735000Y19974000D02*
X21389000Y20320000D01*
D20*
%TO.N,/TXLED{slash}CBUS2*%
X7143500Y-3175000D02*
X9398000Y-920500D01*
D19*
X10160000Y14349000D02*
X12827000Y11682000D01*
D20*
X9398000Y-920500D02*
X9398000Y2667000D01*
D19*
X10160000Y16510000D02*
X10160000Y14349000D01*
D20*
X4445000Y-3175000D02*
X7143500Y-3175000D01*
X12827000Y6096000D02*
X12827000Y10922000D01*
D19*
X12827000Y11682000D02*
X12827000Y10922000D01*
D20*
X9398000Y2667000D02*
X12827000Y6096000D01*
D19*
%TO.N,/CBUS3*%
X17399000Y14859000D02*
X17399000Y14293315D01*
X17399000Y14293315D02*
X18865315Y12827000D01*
X18865315Y12827000D02*
X22987000Y12827000D01*
%TO.N,Net-(U2-~{RESET})*%
X19118000Y14074000D02*
X18460000Y14732000D01*
X22035000Y14074000D02*
X19118000Y14074000D01*
%TD*%
%TA.AperFunction,Conductor*%
%TO.N,GND*%
G36*
X21371790Y18145471D02*
G01*
X21405783Y18094597D01*
X21409500Y18067724D01*
X21409500Y16449835D01*
X21390593Y16391644D01*
X21380504Y16379831D01*
X20835048Y15834376D01*
X20780531Y15806599D01*
X20752123Y15806228D01*
X20686803Y15814827D01*
X20631822Y15822065D01*
X20631820Y15822065D01*
X20475062Y15801428D01*
X20475054Y15801426D01*
X20328982Y15740921D01*
X20328981Y15740921D01*
X20203544Y15644670D01*
X20203534Y15644660D01*
X20107283Y15519223D01*
X20107283Y15519222D01*
X20046778Y15373150D01*
X20046776Y15373142D01*
X20026139Y15216384D01*
X20026139Y15216383D01*
X20046776Y15059625D01*
X20046778Y15059617D01*
X20107283Y14913545D01*
X20107283Y14913544D01*
X20149136Y14859000D01*
X20203539Y14788101D01*
X20328980Y14691847D01*
X20328981Y14691847D01*
X20328982Y14691846D01*
X20475054Y14631341D01*
X20475059Y14631339D01*
X20592630Y14615861D01*
X20631820Y14610701D01*
X20631821Y14610701D01*
X20631822Y14610701D01*
X20663173Y14614829D01*
X20788583Y14631339D01*
X20934662Y14691847D01*
X21060103Y14788101D01*
X21156357Y14913542D01*
X21216865Y15059621D01*
X21237503Y15216383D01*
X21232265Y15256165D01*
X21243414Y15316323D01*
X21260410Y15339086D01*
X21953588Y16032263D01*
X21956766Y16035176D01*
X21988194Y16061545D01*
X22008712Y16097086D01*
X22011017Y16100704D01*
X22034554Y16134316D01*
X22034941Y16135764D01*
X22044838Y16159655D01*
X22045586Y16160952D01*
X22045585Y16160952D01*
X22045588Y16160955D01*
X22052713Y16201372D01*
X22053641Y16205557D01*
X22064263Y16245193D01*
X22060687Y16286066D01*
X22060500Y16290366D01*
X22060500Y18012500D01*
X22079407Y18070691D01*
X22128907Y18106655D01*
X22159500Y18111500D01*
X23297166Y18111500D01*
X23355357Y18092593D01*
X23367170Y18082504D01*
X24283504Y17166170D01*
X24311281Y17111653D01*
X24312500Y17096166D01*
X24312500Y12210972D01*
X24293593Y12152781D01*
X24273768Y12132430D01*
X24209718Y12083283D01*
X24113462Y11957840D01*
X24113462Y11957839D01*
X24052957Y11811767D01*
X24052955Y11811759D01*
X24032318Y11655001D01*
X24032318Y11655000D01*
X24052955Y11498242D01*
X24052957Y11498234D01*
X24113462Y11352162D01*
X24113462Y11352161D01*
X24206468Y11230953D01*
X24209718Y11226718D01*
X24335159Y11130464D01*
X24335160Y11130464D01*
X24335161Y11130463D01*
X24350564Y11124083D01*
X24459978Y11078762D01*
X24474737Y11072649D01*
X24521263Y11032913D01*
X24535547Y10973418D01*
X24512132Y10916890D01*
X24506856Y10911181D01*
X24423504Y10827829D01*
X24368987Y10800052D01*
X24340579Y10799680D01*
X24257001Y10810682D01*
X24256999Y10810682D01*
X24100241Y10790045D01*
X24100233Y10790043D01*
X23954161Y10729538D01*
X23954160Y10729538D01*
X23828723Y10633287D01*
X23828713Y10633277D01*
X23732462Y10507840D01*
X23732462Y10507839D01*
X23671957Y10361767D01*
X23671955Y10361759D01*
X23651318Y10205001D01*
X23651318Y10205000D01*
X23671955Y10048242D01*
X23671957Y10048234D01*
X23732462Y9902162D01*
X23732462Y9902161D01*
X23812534Y9797809D01*
X23828718Y9776718D01*
X23848499Y9761540D01*
X23883154Y9711115D01*
X23881552Y9649951D01*
X23844305Y9601409D01*
X23788231Y9583998D01*
X17688806Y9583998D01*
X17630615Y9602905D01*
X17594651Y9652405D01*
X17590653Y9670076D01*
X17578611Y9761540D01*
X17571539Y9815259D01*
X17511032Y9961336D01*
X17511032Y9961337D01*
X17414781Y10086774D01*
X17414780Y10086775D01*
X17414777Y10086779D01*
X17414772Y10086783D01*
X17414771Y10086784D01*
X17291559Y10181327D01*
X17289336Y10183033D01*
X17289335Y10183034D01*
X17289333Y10183035D01*
X17143261Y10243540D01*
X17143253Y10243542D01*
X16986496Y10264179D01*
X16986494Y10264179D01*
X16829736Y10243542D01*
X16829728Y10243540D01*
X16683656Y10183035D01*
X16682656Y10182457D01*
X16681846Y10182285D01*
X16677658Y10180550D01*
X16677336Y10181327D01*
X16622808Y10169733D01*
X16566911Y10194617D01*
X16536316Y10247604D01*
X16534152Y10268191D01*
X16534152Y12890753D01*
X16553059Y12948944D01*
X16563149Y12960757D01*
X16766715Y13164322D01*
X16821231Y13192099D01*
X16832447Y13192982D01*
X16834999Y13193319D01*
X16835000Y13193318D01*
X16991762Y13213956D01*
X17137841Y13274464D01*
X17263282Y13370718D01*
X17359536Y13496159D01*
X17413050Y13625356D01*
X17452785Y13671879D01*
X17512279Y13686163D01*
X17568808Y13662749D01*
X17574517Y13657472D01*
X18623572Y12608416D01*
X18626490Y12605231D01*
X18652859Y12573807D01*
X18652860Y12573806D01*
X18688388Y12553294D01*
X18692027Y12550975D01*
X18725626Y12527449D01*
X18725628Y12527448D01*
X18725631Y12527446D01*
X18727082Y12527058D01*
X18750974Y12517160D01*
X18751501Y12516857D01*
X18752270Y12516412D01*
X18792666Y12509290D01*
X18796863Y12508360D01*
X18836508Y12497736D01*
X18877392Y12501313D01*
X18881692Y12501500D01*
X22431030Y12501500D01*
X22489221Y12482593D01*
X22509570Y12462769D01*
X22558718Y12398718D01*
X22684159Y12302464D01*
X22684160Y12302464D01*
X22684161Y12302463D01*
X22797487Y12255522D01*
X22830238Y12241956D01*
X22947809Y12226478D01*
X22986999Y12221318D01*
X22987000Y12221318D01*
X22987001Y12221318D01*
X23018352Y12225446D01*
X23143762Y12241956D01*
X23289841Y12302464D01*
X23415282Y12398718D01*
X23511536Y12524159D01*
X23572044Y12670238D01*
X23592682Y12827000D01*
X23572044Y12983762D01*
X23511537Y13129839D01*
X23511537Y13129840D01*
X23415286Y13255277D01*
X23415285Y13255278D01*
X23415282Y13255282D01*
X23415277Y13255286D01*
X23415276Y13255287D01*
X23289838Y13351538D01*
X23143766Y13412043D01*
X23143758Y13412045D01*
X22987001Y13432682D01*
X22986999Y13432682D01*
X22830241Y13412045D01*
X22830233Y13412043D01*
X22684161Y13351538D01*
X22684160Y13351538D01*
X22558723Y13255287D01*
X22558714Y13255278D01*
X22520794Y13205859D01*
X22509729Y13191437D01*
X22509572Y13191233D01*
X22459148Y13156577D01*
X22431030Y13152500D01*
X19041149Y13152500D01*
X18982958Y13171407D01*
X18971145Y13181496D01*
X18147215Y14005426D01*
X18119438Y14059943D01*
X18129009Y14120375D01*
X18172274Y14163640D01*
X18232706Y14173211D01*
X18255100Y14166896D01*
X18303238Y14146956D01*
X18460000Y14126318D01*
X18540041Y14136857D01*
X18600199Y14125708D01*
X18622966Y14108708D01*
X18876257Y13855416D01*
X18879175Y13852231D01*
X18905544Y13820807D01*
X18905545Y13820806D01*
X18941073Y13800294D01*
X18944712Y13797975D01*
X18978311Y13774449D01*
X18978313Y13774448D01*
X18978316Y13774446D01*
X18978318Y13774446D01*
X18978319Y13774445D01*
X18979771Y13774056D01*
X19003651Y13764165D01*
X19004955Y13763412D01*
X19045351Y13756290D01*
X19049552Y13755359D01*
X19089194Y13744736D01*
X19130078Y13748313D01*
X19134378Y13748500D01*
X21479030Y13748500D01*
X21537221Y13729593D01*
X21557572Y13709767D01*
X21592024Y13664867D01*
X21606718Y13645718D01*
X21732159Y13549464D01*
X21732160Y13549464D01*
X21732161Y13549463D01*
X21861843Y13495747D01*
X21878238Y13488956D01*
X21995809Y13473478D01*
X22034999Y13468318D01*
X22035000Y13468318D01*
X22035001Y13468318D01*
X22066352Y13472446D01*
X22191762Y13488956D01*
X22337841Y13549464D01*
X22463282Y13645718D01*
X22559536Y13771159D01*
X22620044Y13917238D01*
X22640682Y14074000D01*
X22636102Y14108785D01*
X22628452Y14166894D01*
X22620044Y14230762D01*
X22617893Y14235955D01*
X22559537Y14376839D01*
X22559537Y14376840D01*
X22463286Y14502277D01*
X22463285Y14502278D01*
X22463282Y14502282D01*
X22463277Y14502286D01*
X22463276Y14502287D01*
X22337838Y14598538D01*
X22191766Y14659043D01*
X22191758Y14659045D01*
X22035001Y14679682D01*
X22034999Y14679682D01*
X21878241Y14659045D01*
X21878233Y14659043D01*
X21732161Y14598538D01*
X21732160Y14598538D01*
X21606723Y14502287D01*
X21606714Y14502278D01*
X21557572Y14438233D01*
X21507148Y14403577D01*
X21479030Y14399500D01*
X19293834Y14399500D01*
X19235643Y14418407D01*
X19223830Y14428496D01*
X19083292Y14569034D01*
X19055515Y14623551D01*
X19055143Y14651954D01*
X19065682Y14732000D01*
X19045044Y14888762D01*
X19023334Y14941175D01*
X18984537Y15034839D01*
X18984537Y15034840D01*
X18888286Y15160277D01*
X18888285Y15160278D01*
X18888282Y15160282D01*
X18888277Y15160286D01*
X18888276Y15160287D01*
X18762838Y15256538D01*
X18616766Y15317043D01*
X18616758Y15317045D01*
X18460001Y15337682D01*
X18459999Y15337682D01*
X18303241Y15317045D01*
X18303233Y15317043D01*
X18157161Y15256538D01*
X18157160Y15256538D01*
X18042921Y15168879D01*
X17985245Y15148455D01*
X17926579Y15165833D01*
X17904114Y15187152D01*
X17827282Y15287282D01*
X17827277Y15287286D01*
X17827276Y15287287D01*
X17756104Y15341899D01*
X17701841Y15383536D01*
X17701840Y15383537D01*
X17701838Y15383538D01*
X17555766Y15444043D01*
X17555758Y15444045D01*
X17399001Y15464682D01*
X17398999Y15464682D01*
X17242241Y15444045D01*
X17242233Y15444043D01*
X17096161Y15383538D01*
X17096160Y15383538D01*
X16970723Y15287287D01*
X16970713Y15287277D01*
X16874462Y15161840D01*
X16874462Y15161839D01*
X16813957Y15015767D01*
X16813955Y15015759D01*
X16793318Y14859001D01*
X16793318Y14859000D01*
X16813955Y14702242D01*
X16813957Y14702234D01*
X16874462Y14556162D01*
X16877706Y14550544D01*
X16875574Y14549313D01*
X16892449Y14501667D01*
X16875074Y14443000D01*
X16826534Y14405751D01*
X16806406Y14400918D01*
X16678240Y14384045D01*
X16678233Y14384043D01*
X16532161Y14323538D01*
X16532160Y14323538D01*
X16406723Y14227287D01*
X16406713Y14227277D01*
X16310462Y14101840D01*
X16310462Y14101839D01*
X16249957Y13955767D01*
X16249955Y13955759D01*
X16228471Y13792567D01*
X16226743Y13792795D01*
X16210411Y13742528D01*
X16200327Y13730722D01*
X16023841Y13554234D01*
X15898502Y13428895D01*
X15843985Y13401118D01*
X15783553Y13410689D01*
X15740288Y13453954D01*
X15729498Y13498899D01*
X15729498Y14900167D01*
X15748405Y14958358D01*
X15758494Y14970171D01*
X18207828Y17419504D01*
X18262345Y17447281D01*
X18277832Y17448500D01*
X19027626Y17448500D01*
X19031926Y17448313D01*
X19072807Y17444736D01*
X19112452Y17455360D01*
X19116650Y17456290D01*
X19157045Y17463412D01*
X19158345Y17464162D01*
X19182236Y17474058D01*
X19182464Y17474120D01*
X19183684Y17474446D01*
X19217303Y17497988D01*
X19220911Y17500286D01*
X19256455Y17520806D01*
X19282827Y17552237D01*
X19285726Y17555402D01*
X19718307Y17987981D01*
X19812831Y18082504D01*
X19867347Y18110281D01*
X19882834Y18111500D01*
X21156747Y18111500D01*
X21156748Y18111500D01*
X21215231Y18123133D01*
X21255498Y18150040D01*
X21314386Y18166648D01*
X21371790Y18145471D01*
G37*
%TD.AperFunction*%
%TA.AperFunction,Conductor*%
G36*
X14105596Y24926593D02*
G01*
X14141560Y24877093D01*
X14146405Y24846501D01*
X14146405Y23180643D01*
X14146406Y23180643D01*
X31323595Y23180643D01*
X31323596Y23180643D01*
X31323596Y24846501D01*
X31342503Y24904691D01*
X31392003Y24940655D01*
X31422596Y24945500D01*
X35006500Y24945500D01*
X35064691Y24926593D01*
X35100655Y24877093D01*
X35105500Y24846500D01*
X35105500Y-4526500D01*
X35086593Y-4584691D01*
X35037093Y-4620655D01*
X35006500Y-4625500D01*
X-4526500Y-4625500D01*
X-4584691Y-4606593D01*
X-4620655Y-4557093D01*
X-4625500Y-4526500D01*
X-4625500Y-768995D01*
X5049500Y-768995D01*
X5076420Y-904327D01*
X5076420Y-904329D01*
X5129222Y-1031806D01*
X5129228Y-1031817D01*
X5205885Y-1146541D01*
X5303458Y-1244114D01*
X5418182Y-1320771D01*
X5418193Y-1320777D01*
X5465283Y-1340282D01*
X5545672Y-1373580D01*
X5681007Y-1400500D01*
X5681008Y-1400500D01*
X7018992Y-1400500D01*
X7018993Y-1400500D01*
X7154328Y-1373580D01*
X7281811Y-1320775D01*
X7396542Y-1244114D01*
X7494114Y-1146542D01*
X7570775Y-1031811D01*
X7623580Y-904328D01*
X7650500Y-768993D01*
X7650500Y-700000D01*
X7650500Y-660118D01*
X7650500Y722590D01*
X7650500Y768993D01*
X7623580Y904328D01*
X7575668Y1019999D01*
X7570777Y1031807D01*
X7570771Y1031818D01*
X7494114Y1146542D01*
X7396541Y1244115D01*
X7281817Y1320772D01*
X7281806Y1320778D01*
X7154328Y1373580D01*
X7018995Y1400500D01*
X7018993Y1400500D01*
X6972590Y1400500D01*
X5789882Y1400500D01*
X5750000Y1400500D01*
X5681007Y1400500D01*
X5681004Y1400500D01*
X5545672Y1373580D01*
X5545670Y1373580D01*
X5418193Y1320778D01*
X5418182Y1320772D01*
X5303458Y1244115D01*
X5205885Y1146542D01*
X5129228Y1031818D01*
X5129222Y1031807D01*
X5076420Y904330D01*
X5076420Y904328D01*
X5049500Y768996D01*
X5049500Y-768995D01*
X-4625500Y-768995D01*
X-4625500Y3993000D01*
X3749019Y3993000D01*
X3768917Y3714783D01*
X3828210Y3442214D01*
X3925687Y3180872D01*
X3925691Y3180863D01*
X4059361Y2936062D01*
X4059366Y2936055D01*
X4159601Y2802157D01*
X4722542Y3365099D01*
X4770327Y3287923D01*
X4915782Y3128366D01*
X5073679Y3009128D01*
X4513155Y2448603D01*
X4647054Y2348367D01*
X4647061Y2348362D01*
X4891862Y2214692D01*
X4891871Y2214688D01*
X5153213Y2117211D01*
X5425782Y2057918D01*
X5703999Y2038020D01*
X5982217Y2057918D01*
X6254786Y2117211D01*
X6516128Y2214688D01*
X6516137Y2214692D01*
X6760932Y2348359D01*
X6894843Y2448603D01*
X6334319Y3009127D01*
X6492218Y3128366D01*
X6637673Y3287923D01*
X6685457Y3365097D01*
X7248397Y2802157D01*
X7348641Y2936068D01*
X7482308Y3180863D01*
X7482312Y3180872D01*
X7579789Y3442214D01*
X7639082Y3714783D01*
X7658980Y3993001D01*
X7639082Y4271218D01*
X7579789Y4543787D01*
X7482312Y4805129D01*
X7482308Y4805138D01*
X7348638Y5049939D01*
X7348633Y5049946D01*
X7248397Y5183845D01*
X6685456Y4620905D01*
X6637673Y4698077D01*
X6492218Y4857634D01*
X6334317Y4976874D01*
X6894843Y5537399D01*
X6760945Y5637634D01*
X6760938Y5637639D01*
X6516137Y5771309D01*
X6516128Y5771313D01*
X6254786Y5868790D01*
X5982217Y5928083D01*
X5704000Y5947981D01*
X5425782Y5928083D01*
X5153213Y5868790D01*
X4891871Y5771313D01*
X4891862Y5771309D01*
X4647062Y5637640D01*
X4513156Y5537398D01*
X5073680Y4976874D01*
X4915782Y4857634D01*
X4770327Y4698077D01*
X4722542Y4620904D01*
X4159602Y5183844D01*
X4059360Y5049938D01*
X3925691Y4805138D01*
X3925687Y4805129D01*
X3828210Y4543787D01*
X3768917Y4271218D01*
X3749019Y3993000D01*
X-4625500Y3993000D01*
X-4625500Y6449000D01*
X3029318Y6449000D01*
X3049955Y6292242D01*
X3049957Y6292234D01*
X3110462Y6146162D01*
X3110462Y6146161D01*
X3206713Y6020724D01*
X3206718Y6020718D01*
X3332159Y5924464D01*
X3332160Y5924464D01*
X3332161Y5924463D01*
X3449883Y5875701D01*
X3478238Y5863956D01*
X3595809Y5848478D01*
X3634999Y5843318D01*
X3635000Y5843318D01*
X3635001Y5843318D01*
X3666352Y5847446D01*
X3791762Y5863956D01*
X3937841Y5924464D01*
X4063282Y6020718D01*
X4159536Y6146159D01*
X4220044Y6292238D01*
X4240682Y6449000D01*
X4240299Y6451906D01*
X4234456Y6496288D01*
X4220044Y6605762D01*
X4193136Y6670724D01*
X4159537Y6751839D01*
X4159537Y6751840D01*
X4059332Y6882430D01*
X4060713Y6883491D01*
X4036719Y6930584D01*
X4035500Y6946071D01*
X4035500Y8762996D01*
X7358919Y8762996D01*
X7379190Y8557170D01*
X7379191Y8557164D01*
X7439232Y8359238D01*
X7439234Y8359233D01*
X7514975Y8217531D01*
X7960220Y8662776D01*
X7960467Y8659484D01*
X8011128Y8530402D01*
X8097586Y8421987D01*
X8212159Y8343873D01*
X8316301Y8311750D01*
X7868529Y7863977D01*
X8010232Y7788235D01*
X8010237Y7788233D01*
X8208163Y7728192D01*
X8208169Y7728191D01*
X8413996Y7707919D01*
X8414004Y7707919D01*
X8619830Y7728191D01*
X8619836Y7728192D01*
X8817762Y7788233D01*
X8959469Y7863977D01*
X8511019Y8312427D01*
X8551119Y8318471D01*
X8676054Y8378637D01*
X8777705Y8472955D01*
X8847039Y8593045D01*
X8863850Y8666704D01*
X9334504Y8196050D01*
X9362281Y8141533D01*
X9363500Y8126046D01*
X9363500Y7893254D01*
X9363501Y7893242D01*
X9375132Y7834773D01*
X9375134Y7834767D01*
X9406228Y7788233D01*
X9419448Y7768448D01*
X9485769Y7724133D01*
X9530231Y7715289D01*
X9544241Y7712502D01*
X9544246Y7712502D01*
X9544252Y7712500D01*
X9544253Y7712500D01*
X11283747Y7712500D01*
X11283748Y7712500D01*
X11342231Y7724133D01*
X11408552Y7768448D01*
X11452867Y7834769D01*
X11464500Y7893252D01*
X11464500Y9632748D01*
X11452867Y9691231D01*
X11408552Y9757552D01*
X11379860Y9776724D01*
X11342233Y9801866D01*
X11342231Y9801867D01*
X11342228Y9801868D01*
X11342227Y9801868D01*
X11283758Y9813499D01*
X11283748Y9813500D01*
X9544252Y9813500D01*
X9544251Y9813500D01*
X9544241Y9813499D01*
X9485772Y9801868D01*
X9485766Y9801866D01*
X9419451Y9757555D01*
X9419445Y9757549D01*
X9375134Y9691234D01*
X9375132Y9691228D01*
X9363501Y9632759D01*
X9363500Y9632747D01*
X9363500Y9399955D01*
X9344593Y9341764D01*
X9334504Y9329951D01*
X8867779Y8863228D01*
X8867533Y8866516D01*
X8816872Y8995598D01*
X8730414Y9104013D01*
X8615841Y9182127D01*
X8511696Y9214252D01*
X8959469Y9662025D01*
X8817767Y9737766D01*
X8817762Y9737768D01*
X8619836Y9797809D01*
X8619830Y9797810D01*
X8414004Y9818081D01*
X8413996Y9818081D01*
X8208169Y9797810D01*
X8208163Y9797809D01*
X8010237Y9737768D01*
X8010232Y9737766D01*
X7868528Y9662025D01*
X8316980Y9213573D01*
X8276881Y9207529D01*
X8151946Y9147363D01*
X8050295Y9053045D01*
X7980961Y8932955D01*
X7964149Y8859298D01*
X7514975Y9308472D01*
X7439234Y9166768D01*
X7439232Y9166763D01*
X7379191Y8968837D01*
X7379190Y8968831D01*
X7358919Y8763005D01*
X7358919Y8762996D01*
X4035500Y8762996D01*
X4035500Y9267101D01*
X4054407Y9325292D01*
X4064490Y9337099D01*
X8765498Y14038107D01*
X8820013Y14065882D01*
X8880445Y14056311D01*
X8923710Y14013046D01*
X8934500Y13968101D01*
X8934500Y12336364D01*
X8915593Y12278173D01*
X8866093Y12242209D01*
X8806762Y12241627D01*
X8619934Y12298301D01*
X8619929Y12298302D01*
X8414003Y12318583D01*
X8413997Y12318583D01*
X8208070Y12298302D01*
X8208065Y12298301D01*
X8010045Y12238232D01*
X7827547Y12140684D01*
X7667595Y12009415D01*
X7667585Y12009405D01*
X7536316Y11849453D01*
X7438768Y11666955D01*
X7378699Y11468935D01*
X7378698Y11468930D01*
X7358417Y11263004D01*
X7358417Y11262997D01*
X7378698Y11057071D01*
X7378699Y11057066D01*
X7438768Y10859046D01*
X7536316Y10676548D01*
X7583414Y10619159D01*
X7667590Y10516590D01*
X7667595Y10516586D01*
X7827547Y10385317D01*
X7827548Y10385317D01*
X7827550Y10385315D01*
X8010046Y10287768D01*
X8142451Y10247604D01*
X8208065Y10227700D01*
X8208070Y10227699D01*
X8413997Y10207417D01*
X8414000Y10207417D01*
X8414003Y10207417D01*
X8619929Y10227699D01*
X8619934Y10227700D01*
X8619934Y10227701D01*
X8817954Y10287768D01*
X9000450Y10385315D01*
X9160410Y10516590D01*
X9291685Y10676550D01*
X9326690Y10742041D01*
X9370796Y10784446D01*
X9431404Y10792829D01*
X9485365Y10763986D01*
X9501310Y10742040D01*
X9536316Y10676548D01*
X9583414Y10619159D01*
X9667590Y10516590D01*
X9667595Y10516586D01*
X9827547Y10385317D01*
X9827548Y10385317D01*
X9827550Y10385315D01*
X10010046Y10287768D01*
X10142451Y10247604D01*
X10208065Y10227700D01*
X10208070Y10227699D01*
X10413997Y10207417D01*
X10414000Y10207417D01*
X10414003Y10207417D01*
X10619929Y10227699D01*
X10619934Y10227700D01*
X10619934Y10227701D01*
X10817954Y10287768D01*
X11000450Y10385315D01*
X11160410Y10516590D01*
X11291685Y10676550D01*
X11389232Y10859046D01*
X11449300Y11057066D01*
X11449301Y11057071D01*
X11469583Y11262997D01*
X11469583Y11263004D01*
X11449301Y11468930D01*
X11449300Y11468935D01*
X11421924Y11559180D01*
X11389232Y11666954D01*
X11291685Y11849450D01*
X11283903Y11858932D01*
X11160414Y12009405D01*
X11160410Y12009410D01*
X11160404Y12009415D01*
X11000452Y12140684D01*
X10817954Y12238232D01*
X10619934Y12298301D01*
X10619929Y12298302D01*
X10414003Y12318583D01*
X10413997Y12318583D01*
X10208070Y12298302D01*
X10208062Y12298300D01*
X10063080Y12254321D01*
X10001907Y12255522D01*
X9964339Y12279055D01*
X9764496Y12478899D01*
X9736719Y12533415D01*
X9735500Y12548902D01*
X9735500Y14068700D01*
X9754407Y14126891D01*
X9803907Y14162855D01*
X9865093Y14162855D01*
X9898604Y14140247D01*
X9900170Y14142113D01*
X9938224Y14110182D01*
X9941410Y14107263D01*
X12472504Y11576170D01*
X12500281Y11521653D01*
X12501500Y11506166D01*
X12501500Y11477972D01*
X12482593Y11419781D01*
X12462768Y11399430D01*
X12398718Y11350283D01*
X12302462Y11224840D01*
X12302462Y11224839D01*
X12241957Y11078767D01*
X12241955Y11078759D01*
X12221318Y10922001D01*
X12221318Y10922000D01*
X12241955Y10765242D01*
X12241957Y10765234D01*
X12302462Y10619162D01*
X12302462Y10619161D01*
X12398713Y10493724D01*
X12398718Y10493718D01*
X12398722Y10493715D01*
X12437767Y10463755D01*
X12472423Y10413331D01*
X12476500Y10385213D01*
X12476500Y6282191D01*
X12457593Y6224000D01*
X12447504Y6212187D01*
X9183118Y2947802D01*
X9167265Y2934929D01*
X9157335Y2928441D01*
X9157332Y2928439D01*
X9136664Y2901886D01*
X9132605Y2897288D01*
X9129619Y2894302D01*
X9117539Y2877382D01*
X9116318Y2875744D01*
X9085482Y2836126D01*
X9081981Y2829657D01*
X9078759Y2823065D01*
X9064426Y2774924D01*
X9063802Y2772977D01*
X9047500Y2725490D01*
X9046293Y2718257D01*
X9045383Y2710955D01*
X9045383Y2710954D01*
X9047458Y2660767D01*
X9047500Y2658757D01*
X9047500Y-734310D01*
X9028593Y-792501D01*
X9018504Y-804314D01*
X7027314Y-2795504D01*
X6972797Y-2823281D01*
X6957310Y-2824500D01*
X4981787Y-2824500D01*
X4923596Y-2805593D01*
X4903245Y-2785767D01*
X4873285Y-2746722D01*
X4873282Y-2746718D01*
X4873277Y-2746714D01*
X4873276Y-2746713D01*
X4747838Y-2650462D01*
X4601766Y-2589957D01*
X4601758Y-2589955D01*
X4445001Y-2569318D01*
X4444999Y-2569318D01*
X4288241Y-2589955D01*
X4288233Y-2589957D01*
X4142161Y-2650462D01*
X4142160Y-2650462D01*
X4016723Y-2746713D01*
X4016713Y-2746723D01*
X3920462Y-2872160D01*
X3920462Y-2872161D01*
X3859957Y-3018233D01*
X3859955Y-3018241D01*
X3839318Y-3174999D01*
X3839318Y-3175000D01*
X3859955Y-3331758D01*
X3859957Y-3331766D01*
X3920462Y-3477838D01*
X3920462Y-3477839D01*
X4016713Y-3603276D01*
X4016718Y-3603282D01*
X4142159Y-3699536D01*
X4288238Y-3760044D01*
X4405809Y-3775522D01*
X4444999Y-3780682D01*
X4445000Y-3780682D01*
X4445001Y-3780682D01*
X4476352Y-3776554D01*
X4601762Y-3760044D01*
X4747841Y-3699536D01*
X4873282Y-3603282D01*
X4903245Y-3564232D01*
X4953669Y-3529577D01*
X4981787Y-3525500D01*
X7096881Y-3525500D01*
X7117196Y-3527607D01*
X7119344Y-3528057D01*
X7128815Y-3530043D01*
X7162212Y-3525879D01*
X7168337Y-3525500D01*
X7172543Y-3525500D01*
X7184115Y-3523568D01*
X7193049Y-3522077D01*
X7195053Y-3521785D01*
X7244893Y-3515573D01*
X7244896Y-3515571D01*
X7251929Y-3513477D01*
X7258873Y-3511093D01*
X7258881Y-3511092D01*
X7303070Y-3487176D01*
X7304858Y-3486257D01*
X7349982Y-3464199D01*
X7349982Y-3464198D01*
X7349984Y-3464198D01*
X7349985Y-3464196D01*
X7355970Y-3459923D01*
X7361755Y-3455420D01*
X7361755Y-3455419D01*
X7361758Y-3455418D01*
X7395776Y-3418463D01*
X7397140Y-3417040D01*
X8762480Y-2051700D01*
X10468000Y-2051700D01*
X10479603Y-2110036D01*
X10523806Y-2176189D01*
X10523810Y-2176193D01*
X10589963Y-2220396D01*
X10648299Y-2231999D01*
X10648303Y-2232000D01*
X11179999Y-2232000D01*
X11180000Y-2231999D01*
X11180000Y-1637532D01*
X11234960Y-1675004D01*
X11363002Y-1714500D01*
X11463312Y-1714500D01*
X11562499Y-1699550D01*
X11680000Y-1642964D01*
X11680000Y-2231999D01*
X11680001Y-2232000D01*
X12211697Y-2232000D01*
X12211700Y-2231999D01*
X12270036Y-2220396D01*
X12336189Y-2176193D01*
X12336193Y-2176189D01*
X12380396Y-2110036D01*
X12391990Y-2051746D01*
X13007500Y-2051746D01*
X13007501Y-2051758D01*
X13019094Y-2110036D01*
X13019133Y-2110231D01*
X13063448Y-2176552D01*
X13129769Y-2220867D01*
X13174231Y-2229711D01*
X13188241Y-2232498D01*
X13188246Y-2232498D01*
X13188252Y-2232500D01*
X13188253Y-2232500D01*
X14751747Y-2232500D01*
X14751748Y-2232500D01*
X14810231Y-2220867D01*
X14876552Y-2176552D01*
X14920867Y-2110231D01*
X14932500Y-2051748D01*
X14932500Y-2051700D01*
X15548000Y-2051700D01*
X15559603Y-2110036D01*
X15603806Y-2176189D01*
X15603810Y-2176193D01*
X15669963Y-2220396D01*
X15728299Y-2231999D01*
X15728303Y-2232000D01*
X16259999Y-2232000D01*
X16260000Y-2231999D01*
X16260000Y-1637532D01*
X16314960Y-1675004D01*
X16443002Y-1714500D01*
X16543312Y-1714500D01*
X16642499Y-1699550D01*
X16760000Y-1642964D01*
X16760000Y-2231999D01*
X16760001Y-2232000D01*
X17291697Y-2232000D01*
X17291700Y-2231999D01*
X17350036Y-2220396D01*
X17416189Y-2176193D01*
X17416193Y-2176189D01*
X17460396Y-2110036D01*
X17471999Y-2051700D01*
X19358000Y-2051700D01*
X19369603Y-2110036D01*
X19413806Y-2176189D01*
X19413810Y-2176193D01*
X19479963Y-2220396D01*
X19538299Y-2231999D01*
X19538303Y-2232000D01*
X20069999Y-2232000D01*
X20070000Y-2231999D01*
X20070000Y-1637532D01*
X20124960Y-1675004D01*
X20253002Y-1714500D01*
X20353312Y-1714500D01*
X20452499Y-1699550D01*
X20570000Y-1642964D01*
X20570000Y-2231999D01*
X20570001Y-2232000D01*
X21101697Y-2232000D01*
X21101700Y-2231999D01*
X21160036Y-2220396D01*
X21226189Y-2176193D01*
X21226193Y-2176189D01*
X21270396Y-2110036D01*
X21281990Y-2051746D01*
X21897500Y-2051746D01*
X21897501Y-2051758D01*
X21909094Y-2110036D01*
X21909133Y-2110231D01*
X21953448Y-2176552D01*
X22019769Y-2220867D01*
X22064231Y-2229711D01*
X22078241Y-2232498D01*
X22078246Y-2232498D01*
X22078252Y-2232500D01*
X22078253Y-2232500D01*
X23641747Y-2232500D01*
X23641748Y-2232500D01*
X23700231Y-2220867D01*
X23766552Y-2176552D01*
X23810867Y-2110231D01*
X23822500Y-2051748D01*
X23822500Y-2051700D01*
X24438000Y-2051700D01*
X24449603Y-2110036D01*
X24493806Y-2176189D01*
X24493810Y-2176193D01*
X24559963Y-2220396D01*
X24618299Y-2231999D01*
X24618303Y-2232000D01*
X25149999Y-2232000D01*
X25150000Y-2231999D01*
X25150000Y-1637532D01*
X25204960Y-1675004D01*
X25333002Y-1714500D01*
X25433312Y-1714500D01*
X25532499Y-1699550D01*
X25650000Y-1642964D01*
X25650000Y-2231999D01*
X25650001Y-2232000D01*
X26181697Y-2232000D01*
X26181700Y-2231999D01*
X26240036Y-2220396D01*
X26306189Y-2176193D01*
X26306193Y-2176189D01*
X26350396Y-2110036D01*
X26361999Y-2051700D01*
X26362000Y-2051697D01*
X26362000Y-1520001D01*
X26361999Y-1520000D01*
X25768927Y-1520000D01*
X25818447Y-1434228D01*
X25848264Y-1303593D01*
X25838251Y-1169972D01*
X25789297Y-1045240D01*
X25769169Y-1020000D01*
X26361999Y-1020000D01*
X26362000Y-1019999D01*
X26362000Y-488302D01*
X26361999Y-488299D01*
X26350396Y-429963D01*
X26306193Y-363810D01*
X26306189Y-363806D01*
X26240036Y-319603D01*
X26181700Y-308000D01*
X25650001Y-308000D01*
X25650000Y-308001D01*
X25650000Y-902467D01*
X25595040Y-864996D01*
X25466998Y-825500D01*
X25366688Y-825500D01*
X25267501Y-840450D01*
X25150000Y-897035D01*
X25150000Y-308001D01*
X25149999Y-308000D01*
X24618299Y-308000D01*
X24559963Y-319603D01*
X24493810Y-363806D01*
X24493806Y-363810D01*
X24449603Y-429963D01*
X24438000Y-488299D01*
X24438000Y-1019999D01*
X24438001Y-1020000D01*
X25031073Y-1020000D01*
X24981553Y-1105772D01*
X24951736Y-1236407D01*
X24961749Y-1370028D01*
X25010703Y-1494760D01*
X25030831Y-1520000D01*
X24438001Y-1520000D01*
X24438000Y-1520001D01*
X24438000Y-2051700D01*
X23822500Y-2051700D01*
X23822500Y-488252D01*
X23810867Y-429769D01*
X23766552Y-363448D01*
X23766548Y-363445D01*
X23700233Y-319134D01*
X23700231Y-319133D01*
X23700228Y-319132D01*
X23700227Y-319132D01*
X23641758Y-307501D01*
X23641748Y-307500D01*
X22078252Y-307500D01*
X22078251Y-307500D01*
X22078241Y-307501D01*
X22019772Y-319132D01*
X22019766Y-319134D01*
X21953451Y-363445D01*
X21953445Y-363451D01*
X21909134Y-429766D01*
X21909132Y-429772D01*
X21897501Y-488241D01*
X21897500Y-488253D01*
X21897500Y-2051746D01*
X21281990Y-2051746D01*
X21281999Y-2051700D01*
X21282000Y-2051697D01*
X21282000Y-1520001D01*
X21281999Y-1520000D01*
X20688927Y-1520000D01*
X20738447Y-1434228D01*
X20768264Y-1303593D01*
X20758251Y-1169972D01*
X20709297Y-1045240D01*
X20689169Y-1020000D01*
X21281999Y-1020000D01*
X21282000Y-1019999D01*
X21282000Y-488302D01*
X21281999Y-488299D01*
X21270396Y-429963D01*
X21226193Y-363810D01*
X21226189Y-363806D01*
X21160036Y-319603D01*
X21101700Y-308000D01*
X20570000Y-308000D01*
X20570000Y-902467D01*
X20515040Y-864996D01*
X20386998Y-825500D01*
X20286688Y-825500D01*
X20187501Y-840450D01*
X20070000Y-897035D01*
X20070000Y-308001D01*
X20069999Y-308000D01*
X19538299Y-308000D01*
X19479963Y-319603D01*
X19413810Y-363806D01*
X19413806Y-363810D01*
X19369603Y-429963D01*
X19358000Y-488299D01*
X19358000Y-1019999D01*
X19358001Y-1020000D01*
X19951073Y-1020000D01*
X19901553Y-1105772D01*
X19871736Y-1236407D01*
X19881749Y-1370028D01*
X19930703Y-1494760D01*
X19950831Y-1520000D01*
X19358001Y-1520000D01*
X19358000Y-1520001D01*
X19358000Y-2051700D01*
X17471999Y-2051700D01*
X17472000Y-2051697D01*
X17472000Y-1520000D01*
X16878927Y-1520000D01*
X16928447Y-1434228D01*
X16958264Y-1303593D01*
X16948251Y-1169972D01*
X16899297Y-1045240D01*
X16879169Y-1020000D01*
X17471999Y-1020000D01*
X17472000Y-1019999D01*
X17472000Y-488302D01*
X17471999Y-488299D01*
X17460396Y-429963D01*
X17416193Y-363810D01*
X17416189Y-363806D01*
X17350036Y-319603D01*
X17291700Y-308000D01*
X16760000Y-308000D01*
X16760000Y-902467D01*
X16705040Y-864996D01*
X16576998Y-825500D01*
X16476688Y-825500D01*
X16377501Y-840450D01*
X16260000Y-897035D01*
X16260000Y-308001D01*
X16259999Y-308000D01*
X15728299Y-308000D01*
X15669963Y-319603D01*
X15603810Y-363806D01*
X15603806Y-363810D01*
X15559603Y-429963D01*
X15548000Y-488299D01*
X15548000Y-1019999D01*
X15548001Y-1020000D01*
X16141073Y-1020000D01*
X16091553Y-1105772D01*
X16061736Y-1236407D01*
X16071749Y-1370028D01*
X16120703Y-1494760D01*
X16140831Y-1520000D01*
X15548001Y-1520000D01*
X15548000Y-1520001D01*
X15548000Y-2051700D01*
X14932500Y-2051700D01*
X14932500Y-488252D01*
X14920867Y-429769D01*
X14876552Y-363448D01*
X14876548Y-363445D01*
X14810233Y-319134D01*
X14810231Y-319133D01*
X14810228Y-319132D01*
X14810227Y-319132D01*
X14751758Y-307501D01*
X14751748Y-307500D01*
X13188252Y-307500D01*
X13188251Y-307500D01*
X13188241Y-307501D01*
X13129772Y-319132D01*
X13129766Y-319134D01*
X13063451Y-363445D01*
X13063445Y-363451D01*
X13019134Y-429766D01*
X13019132Y-429772D01*
X13007501Y-488241D01*
X13007500Y-488253D01*
X13007500Y-2051746D01*
X12391990Y-2051746D01*
X12391999Y-2051700D01*
X12392000Y-2051697D01*
X12392000Y-1520000D01*
X11798927Y-1520000D01*
X11848447Y-1434228D01*
X11878264Y-1303593D01*
X11868251Y-1169972D01*
X11819297Y-1045240D01*
X11799169Y-1020000D01*
X12391999Y-1020000D01*
X12392000Y-1019999D01*
X12392000Y-488302D01*
X12391999Y-488299D01*
X12380396Y-429963D01*
X12336193Y-363810D01*
X12336189Y-363806D01*
X12270036Y-319603D01*
X12211700Y-308000D01*
X11680001Y-308000D01*
X11680000Y-308001D01*
X11680000Y-902467D01*
X11625040Y-864996D01*
X11496998Y-825500D01*
X11396688Y-825500D01*
X11297501Y-840450D01*
X11180000Y-897035D01*
X11180000Y-308001D01*
X11179999Y-308000D01*
X10648299Y-308000D01*
X10589963Y-319603D01*
X10523810Y-363806D01*
X10523806Y-363810D01*
X10479603Y-429963D01*
X10468000Y-488299D01*
X10468000Y-1019999D01*
X10468001Y-1020000D01*
X11061073Y-1020000D01*
X11011553Y-1105772D01*
X10981736Y-1236407D01*
X10991749Y-1370028D01*
X11040703Y-1494760D01*
X11060831Y-1520000D01*
X10468001Y-1520000D01*
X10468000Y-1520001D01*
X10468000Y-2051700D01*
X8762480Y-2051700D01*
X9612884Y-1201296D01*
X9628734Y-1188426D01*
X9638669Y-1181937D01*
X9659338Y-1155379D01*
X9663388Y-1150792D01*
X9666375Y-1147807D01*
X9678462Y-1130875D01*
X9679661Y-1129269D01*
X9710517Y-1089626D01*
X9710517Y-1089623D01*
X9714014Y-1083162D01*
X9717239Y-1076567D01*
X9726565Y-1045240D01*
X9731578Y-1028399D01*
X9732175Y-1026538D01*
X9748500Y-978988D01*
X9748500Y-978984D01*
X9749706Y-971759D01*
X9750615Y-964459D01*
X9750617Y-964454D01*
X9748541Y-914267D01*
X9748500Y-912256D01*
X9748500Y488300D01*
X10468000Y488300D01*
X10479603Y429964D01*
X10523806Y363811D01*
X10523810Y363807D01*
X10589963Y319604D01*
X10648299Y308001D01*
X10648303Y308000D01*
X11179999Y308000D01*
X11180000Y308002D01*
X11180000Y902468D01*
X11234960Y864996D01*
X11363002Y825500D01*
X11463312Y825500D01*
X11562499Y840450D01*
X11680000Y897036D01*
X11680000Y308001D01*
X11680001Y308000D01*
X12211697Y308000D01*
X12211700Y308001D01*
X12270036Y319604D01*
X12336189Y363807D01*
X12336193Y363811D01*
X12380396Y429964D01*
X12391990Y488254D01*
X13007500Y488254D01*
X13007501Y488242D01*
X13019094Y429964D01*
X13019133Y429769D01*
X13063448Y363448D01*
X13129769Y319133D01*
X13174231Y310289D01*
X13188241Y307502D01*
X13188246Y307502D01*
X13188252Y307500D01*
X13188253Y307500D01*
X14751747Y307500D01*
X14751748Y307500D01*
X14810231Y319133D01*
X14876552Y363448D01*
X14920867Y429769D01*
X14932500Y488252D01*
X14932500Y488300D01*
X15548000Y488300D01*
X15559603Y429964D01*
X15603806Y363811D01*
X15603810Y363807D01*
X15669963Y319604D01*
X15728299Y308001D01*
X15728303Y308000D01*
X16259999Y308000D01*
X16260000Y308001D01*
X16260000Y902468D01*
X16314960Y864996D01*
X16443002Y825500D01*
X16543312Y825500D01*
X16642499Y840450D01*
X16760000Y897036D01*
X16760000Y308001D01*
X16760001Y308000D01*
X17291697Y308000D01*
X17291700Y308001D01*
X17350036Y319604D01*
X17416189Y363807D01*
X17416193Y363811D01*
X17460396Y429964D01*
X17471999Y488300D01*
X19358000Y488300D01*
X19369603Y429964D01*
X19413806Y363811D01*
X19413810Y363807D01*
X19479963Y319604D01*
X19538299Y308001D01*
X19538303Y308000D01*
X20069999Y308000D01*
X20070000Y308001D01*
X20070000Y902468D01*
X20124960Y864996D01*
X20253002Y825500D01*
X20353312Y825500D01*
X20452499Y840450D01*
X20570000Y897036D01*
X20570000Y308001D01*
X20570001Y308000D01*
X21101697Y308000D01*
X21101700Y308001D01*
X21160036Y319604D01*
X21226189Y363807D01*
X21226193Y363811D01*
X21270396Y429964D01*
X21281990Y488254D01*
X21897500Y488254D01*
X21897501Y488242D01*
X21909094Y429964D01*
X21909133Y429769D01*
X21953448Y363448D01*
X22019769Y319133D01*
X22064231Y310289D01*
X22078241Y307502D01*
X22078246Y307502D01*
X22078252Y307500D01*
X22078253Y307500D01*
X23641747Y307500D01*
X23641748Y307500D01*
X23700231Y319133D01*
X23766552Y363448D01*
X23810867Y429769D01*
X23822500Y488252D01*
X23822500Y488300D01*
X24438000Y488300D01*
X24449603Y429964D01*
X24493806Y363811D01*
X24493810Y363807D01*
X24559963Y319604D01*
X24618299Y308001D01*
X24618303Y308000D01*
X25149999Y308000D01*
X25150000Y308002D01*
X25150000Y902468D01*
X25204960Y864996D01*
X25333002Y825500D01*
X25433312Y825500D01*
X25532499Y840450D01*
X25650000Y897036D01*
X25650000Y308001D01*
X25650001Y308000D01*
X26181697Y308000D01*
X26181700Y308001D01*
X26240036Y319604D01*
X26306189Y363807D01*
X26306193Y363811D01*
X26350396Y429964D01*
X26361999Y488300D01*
X26362000Y488303D01*
X26362000Y1019999D01*
X26361999Y1020000D01*
X25768927Y1020000D01*
X25818447Y1105772D01*
X25848264Y1236407D01*
X25838251Y1370028D01*
X25789297Y1494760D01*
X25769169Y1520000D01*
X26361999Y1520000D01*
X26362000Y1520001D01*
X26362000Y2051698D01*
X26361999Y2051701D01*
X26350396Y2110037D01*
X26306193Y2176190D01*
X26306189Y2176194D01*
X26240036Y2220397D01*
X26181700Y2232000D01*
X25650000Y2232000D01*
X25650000Y1637533D01*
X25595040Y1675004D01*
X25466998Y1714500D01*
X25366688Y1714500D01*
X25267501Y1699550D01*
X25150000Y1642965D01*
X25150000Y2231999D01*
X25149999Y2232000D01*
X24618299Y2232000D01*
X24559963Y2220397D01*
X24493810Y2176194D01*
X24493806Y2176190D01*
X24449603Y2110037D01*
X24438000Y2051701D01*
X24438000Y1520001D01*
X24438001Y1520000D01*
X25031073Y1520000D01*
X24981553Y1434228D01*
X24951736Y1303593D01*
X24961749Y1169972D01*
X25010703Y1045240D01*
X25030831Y1020000D01*
X24438001Y1020000D01*
X24438000Y1019999D01*
X24438000Y488300D01*
X23822500Y488300D01*
X23822500Y2051748D01*
X23810867Y2110231D01*
X23766552Y2176552D01*
X23766548Y2176555D01*
X23700233Y2220866D01*
X23700231Y2220867D01*
X23700228Y2220868D01*
X23700227Y2220868D01*
X23641758Y2232499D01*
X23641748Y2232500D01*
X23641747Y2232500D01*
X23498900Y2232500D01*
X23440709Y2251407D01*
X23404745Y2300907D01*
X23404745Y2362093D01*
X23428896Y2401504D01*
X23934714Y2907322D01*
X23989231Y2935099D01*
X24000447Y2935982D01*
X24002999Y2936319D01*
X24003000Y2936318D01*
X24159762Y2956956D01*
X24305841Y3017464D01*
X24431282Y3113718D01*
X24527536Y3239159D01*
X24588044Y3385238D01*
X24608682Y3542000D01*
X24588044Y3698762D01*
X24527537Y3844839D01*
X24527537Y3844840D01*
X24431286Y3970277D01*
X24431285Y3970278D01*
X24431282Y3970282D01*
X24431277Y3970286D01*
X24431276Y3970287D01*
X24305838Y4066538D01*
X24159766Y4127043D01*
X24159758Y4127045D01*
X24003001Y4147682D01*
X24002999Y4147682D01*
X23846241Y4127045D01*
X23846233Y4127043D01*
X23700161Y4066538D01*
X23700160Y4066538D01*
X23574723Y3970287D01*
X23574713Y3970277D01*
X23478462Y3844840D01*
X23478462Y3844839D01*
X23417957Y3698767D01*
X23417955Y3698759D01*
X23396471Y3535567D01*
X23394742Y3535795D01*
X23378411Y3485529D01*
X23368322Y3473716D01*
X22554516Y2659909D01*
X22554515Y2659908D01*
X22531950Y2637342D01*
X22531948Y2637340D01*
X22520997Y2615849D01*
X22512887Y2602615D01*
X22498706Y2583094D01*
X22498701Y2583085D01*
X22491249Y2560148D01*
X22485305Y2545798D01*
X22474355Y2524309D01*
X22474352Y2524299D01*
X22470577Y2500471D01*
X22466953Y2485376D01*
X22459501Y2462438D01*
X22459500Y2462431D01*
X22459500Y2331500D01*
X22440593Y2273309D01*
X22391093Y2237345D01*
X22360500Y2232500D01*
X22078252Y2232500D01*
X22078251Y2232500D01*
X22078241Y2232499D01*
X22019772Y2220868D01*
X22019766Y2220866D01*
X21953451Y2176555D01*
X21953445Y2176549D01*
X21909134Y2110234D01*
X21909132Y2110228D01*
X21897501Y2051759D01*
X21897500Y2051747D01*
X21897500Y488254D01*
X21281990Y488254D01*
X21281999Y488300D01*
X21282000Y488303D01*
X21282000Y1019999D01*
X21281999Y1020000D01*
X20688927Y1020000D01*
X20738447Y1105772D01*
X20768264Y1236407D01*
X20758251Y1370028D01*
X20709297Y1494760D01*
X20689169Y1520000D01*
X21281999Y1520000D01*
X21282000Y1520001D01*
X21282000Y2051698D01*
X21281999Y2051701D01*
X21270396Y2110037D01*
X21226193Y2176190D01*
X21226189Y2176194D01*
X21160036Y2220397D01*
X21101700Y2232000D01*
X20570001Y2232000D01*
X20570000Y2231999D01*
X20570000Y1637533D01*
X20515040Y1675004D01*
X20386998Y1714500D01*
X20286688Y1714500D01*
X20187501Y1699550D01*
X20070000Y1642965D01*
X20070000Y2231999D01*
X20069999Y2232000D01*
X19538299Y2232000D01*
X19479963Y2220397D01*
X19413810Y2176194D01*
X19413806Y2176190D01*
X19369603Y2110037D01*
X19358000Y2051701D01*
X19358000Y1520001D01*
X19358001Y1520000D01*
X19951073Y1520000D01*
X19901553Y1434228D01*
X19871736Y1303593D01*
X19881749Y1169972D01*
X19930703Y1045240D01*
X19950831Y1020000D01*
X19358001Y1020000D01*
X19358000Y1019999D01*
X19358000Y488300D01*
X17471999Y488300D01*
X17472000Y488303D01*
X17472000Y1020000D01*
X16878927Y1020000D01*
X16928447Y1105772D01*
X16958264Y1236407D01*
X16948251Y1370028D01*
X16899297Y1494760D01*
X16879169Y1520000D01*
X17471999Y1520000D01*
X17472000Y1520001D01*
X17472000Y2051698D01*
X17471999Y2051701D01*
X17460396Y2110037D01*
X17416193Y2176190D01*
X17416189Y2176194D01*
X17350036Y2220397D01*
X17291700Y2232000D01*
X16760001Y2232000D01*
X16760000Y2231999D01*
X16760000Y1637533D01*
X16705040Y1675004D01*
X16576998Y1714500D01*
X16476688Y1714500D01*
X16377501Y1699550D01*
X16260000Y1642965D01*
X16260000Y2231999D01*
X16259999Y2232000D01*
X15728299Y2232000D01*
X15669963Y2220397D01*
X15603810Y2176194D01*
X15603806Y2176190D01*
X15559603Y2110037D01*
X15548000Y2051701D01*
X15548000Y1520001D01*
X15548001Y1520000D01*
X16141073Y1520000D01*
X16091553Y1434228D01*
X16061736Y1303593D01*
X16071749Y1169972D01*
X16120703Y1045240D01*
X16140831Y1020000D01*
X15548001Y1020000D01*
X15548000Y1019999D01*
X15548000Y488300D01*
X14932500Y488300D01*
X14932500Y2051748D01*
X14920867Y2110231D01*
X14876552Y2176552D01*
X14876548Y2176555D01*
X14810233Y2220866D01*
X14810231Y2220867D01*
X14810228Y2220868D01*
X14810227Y2220868D01*
X14751758Y2232499D01*
X14751748Y2232500D01*
X13188252Y2232500D01*
X13188251Y2232500D01*
X13188241Y2232499D01*
X13129772Y2220868D01*
X13129766Y2220866D01*
X13063451Y2176555D01*
X13063445Y2176549D01*
X13019134Y2110234D01*
X13019132Y2110228D01*
X13007501Y2051759D01*
X13007500Y2051747D01*
X13007500Y488254D01*
X12391990Y488254D01*
X12391999Y488300D01*
X12392000Y488303D01*
X12392000Y1020000D01*
X11798927Y1020000D01*
X11848447Y1105772D01*
X11878264Y1236407D01*
X11868251Y1370028D01*
X11819297Y1494760D01*
X11799169Y1520000D01*
X12391999Y1520000D01*
X12392000Y1520001D01*
X12392000Y2051698D01*
X12391999Y2051701D01*
X12380396Y2110037D01*
X12336193Y2176190D01*
X12336189Y2176194D01*
X12270036Y2220397D01*
X12211700Y2232000D01*
X11680000Y2232000D01*
X11680000Y1637533D01*
X11625040Y1675004D01*
X11496998Y1714500D01*
X11396688Y1714500D01*
X11297501Y1699550D01*
X11180000Y1642965D01*
X11180000Y2231999D01*
X11179999Y2232000D01*
X10648299Y2232000D01*
X10589963Y2220397D01*
X10523810Y2176194D01*
X10523806Y2176190D01*
X10479603Y2110037D01*
X10468000Y2051701D01*
X10468000Y1520001D01*
X10468001Y1520000D01*
X11061073Y1520000D01*
X11011553Y1434228D01*
X10981736Y1303593D01*
X10991749Y1169972D01*
X11040703Y1045240D01*
X11060831Y1020000D01*
X10468001Y1020000D01*
X10468000Y1019999D01*
X10468000Y488300D01*
X9748500Y488300D01*
X9748500Y2480811D01*
X9767407Y2539002D01*
X9777490Y2550809D01*
X12070679Y4843999D01*
X28232999Y4843999D01*
X28233000Y4312303D01*
X28233000Y4312300D01*
X28244603Y4253964D01*
X28288806Y4187811D01*
X28288810Y4187807D01*
X28354963Y4143604D01*
X28413299Y4132001D01*
X28413303Y4132000D01*
X28944999Y4132000D01*
X28945000Y4132001D01*
X28945000Y4726468D01*
X28999960Y4688996D01*
X29128002Y4649500D01*
X29228312Y4649500D01*
X29327499Y4664450D01*
X29445000Y4721036D01*
X29445000Y4132001D01*
X29445001Y4132000D01*
X29976697Y4132000D01*
X29976700Y4132001D01*
X30035036Y4143604D01*
X30101189Y4187807D01*
X30101193Y4187811D01*
X30145396Y4253964D01*
X30156999Y4312300D01*
X30773000Y4312300D01*
X30784603Y4253964D01*
X30828806Y4187811D01*
X30828810Y4187807D01*
X30894963Y4143604D01*
X30953299Y4132001D01*
X30953303Y4132000D01*
X31484999Y4132000D01*
X31485000Y4132001D01*
X31485000Y4726468D01*
X31539960Y4688996D01*
X31668002Y4649500D01*
X31768312Y4649500D01*
X31867499Y4664450D01*
X31985000Y4721036D01*
X31985000Y4132001D01*
X31985001Y4132000D01*
X32516697Y4132000D01*
X32516700Y4132001D01*
X32575036Y4143604D01*
X32641189Y4187807D01*
X32641193Y4187811D01*
X32685396Y4253964D01*
X32696999Y4312300D01*
X32697000Y4312303D01*
X32696999Y4844000D01*
X32103927Y4844000D01*
X32153447Y4929772D01*
X32183264Y5060407D01*
X32173251Y5194028D01*
X32124297Y5318760D01*
X32104169Y5344000D01*
X32696999Y5344000D01*
X32696999Y5344001D01*
X32697000Y5875698D01*
X32696999Y5875701D01*
X32685396Y5934037D01*
X32641193Y6000190D01*
X32641189Y6000194D01*
X32575036Y6044397D01*
X32516700Y6056000D01*
X31985001Y6056000D01*
X31985000Y6055999D01*
X31985000Y5461533D01*
X31930040Y5499004D01*
X31801998Y5538500D01*
X31701688Y5538500D01*
X31602501Y5523550D01*
X31485000Y5466965D01*
X31485000Y6055999D01*
X31484999Y6056000D01*
X30953299Y6056000D01*
X30894963Y6044397D01*
X30828810Y6000194D01*
X30828806Y6000190D01*
X30784603Y5934037D01*
X30773000Y5875701D01*
X30773000Y5344001D01*
X30773001Y5344000D01*
X31366073Y5344000D01*
X31316553Y5258228D01*
X31286736Y5127593D01*
X31296749Y4993972D01*
X31345703Y4869240D01*
X31365831Y4844000D01*
X30773000Y4844000D01*
X30773000Y4312300D01*
X30156999Y4312300D01*
X30157000Y4312303D01*
X30157000Y4843999D01*
X30156999Y4844000D01*
X29563927Y4844000D01*
X29613447Y4929772D01*
X29643264Y5060407D01*
X29633251Y5194028D01*
X29584297Y5318760D01*
X29564169Y5344000D01*
X30156999Y5344000D01*
X30157000Y5344001D01*
X30157000Y5875698D01*
X30156999Y5875701D01*
X30145396Y5934037D01*
X30101193Y6000190D01*
X30101189Y6000194D01*
X30035036Y6044397D01*
X29976700Y6056000D01*
X29445001Y6056000D01*
X29445000Y6055999D01*
X29445000Y5461533D01*
X29390040Y5499004D01*
X29261998Y5538500D01*
X29161688Y5538500D01*
X29062501Y5523550D01*
X28945000Y5466965D01*
X28945000Y6055999D01*
X28944999Y6056000D01*
X28413299Y6056000D01*
X28354963Y6044397D01*
X28288810Y6000194D01*
X28288806Y6000190D01*
X28244603Y5934037D01*
X28233000Y5875701D01*
X28233000Y5875698D01*
X28232999Y5344001D01*
X28233001Y5344000D01*
X28826073Y5344000D01*
X28776553Y5258228D01*
X28746736Y5127593D01*
X28756749Y4993972D01*
X28805703Y4869240D01*
X28825831Y4844000D01*
X28233001Y4844000D01*
X28232999Y4843999D01*
X12070679Y4843999D01*
X13041884Y5815204D01*
X13057734Y5828074D01*
X13067669Y5834563D01*
X13088338Y5861121D01*
X13092388Y5865708D01*
X13095375Y5868693D01*
X13107487Y5885660D01*
X13108630Y5887193D01*
X13139517Y5926874D01*
X13139517Y5926877D01*
X13143008Y5933327D01*
X13146237Y5939931D01*
X13146237Y5939932D01*
X13146239Y5939934D01*
X13160566Y5988059D01*
X13161191Y5990009D01*
X13164688Y6000194D01*
X13177500Y6037512D01*
X13177500Y6037515D01*
X13178706Y6044741D01*
X13179615Y6052041D01*
X13179617Y6052046D01*
X13177541Y6102233D01*
X13177500Y6104244D01*
X13177500Y10385213D01*
X13196407Y10443404D01*
X13216233Y10463755D01*
X13255282Y10493718D01*
X13351536Y10619159D01*
X13412044Y10765238D01*
X13432682Y10922000D01*
X13412044Y11078762D01*
X13400614Y11106357D01*
X13351537Y11224839D01*
X13351537Y11224840D01*
X13255281Y11350283D01*
X13191232Y11399430D01*
X13156577Y11449855D01*
X13152500Y11477972D01*
X13152500Y11665627D01*
X13152687Y11669928D01*
X13156264Y11710807D01*
X13145640Y11750452D01*
X13144710Y11754652D01*
X13137588Y11795045D01*
X13136840Y11796341D01*
X13126942Y11820233D01*
X13126554Y11821684D01*
X13126552Y11821687D01*
X13126551Y11821689D01*
X13103025Y11855288D01*
X13100703Y11858932D01*
X13080193Y11894457D01*
X13059069Y11912181D01*
X13048765Y11920827D01*
X13045588Y11923739D01*
X10514496Y14454830D01*
X10486719Y14509347D01*
X10485500Y14524834D01*
X10485500Y15954030D01*
X10504407Y16012221D01*
X10524233Y16032572D01*
X10528372Y16035748D01*
X10588282Y16081718D01*
X10684536Y16207159D01*
X10745044Y16353238D01*
X10765682Y16510000D01*
X10745044Y16666762D01*
X10744539Y16667982D01*
X10684538Y16812837D01*
X10684537Y16812838D01*
X10684536Y16812841D01*
X10664283Y16839235D01*
X10643861Y16896909D01*
X10661239Y16955575D01*
X10709781Y16992822D01*
X10742827Y16998500D01*
X12815664Y16998500D01*
X12873855Y16979593D01*
X12894203Y16959770D01*
X12981718Y16845718D01*
X12981722Y16845715D01*
X12981723Y16845714D01*
X12990169Y16839233D01*
X13107159Y16749464D01*
X13107160Y16749464D01*
X13107161Y16749463D01*
X13136192Y16737438D01*
X13253238Y16688956D01*
X13370809Y16673478D01*
X13409999Y16668318D01*
X13410000Y16668318D01*
X13410001Y16668318D01*
X13444720Y16672889D01*
X13566762Y16688956D01*
X13712841Y16749464D01*
X13838282Y16845718D01*
X13934536Y16971159D01*
X13995044Y17117238D01*
X14015682Y17274000D01*
X13995044Y17430762D01*
X13977110Y17474058D01*
X13934537Y17576839D01*
X13934537Y17576840D01*
X13838286Y17702277D01*
X13838285Y17702278D01*
X13838282Y17702282D01*
X13838277Y17702286D01*
X13838276Y17702287D01*
X13712838Y17798538D01*
X13566766Y17859043D01*
X13566758Y17859045D01*
X13410001Y17879682D01*
X13409999Y17879682D01*
X13253241Y17859045D01*
X13253238Y17859045D01*
X13253238Y17859044D01*
X13137996Y17811309D01*
X13127680Y17807036D01*
X13089794Y17799500D01*
X9455206Y17799500D01*
X9417320Y17807036D01*
X9291762Y17859044D01*
X9291759Y17859045D01*
X9291758Y17859045D01*
X9135001Y17879682D01*
X9134999Y17879682D01*
X8978241Y17859045D01*
X8978233Y17859043D01*
X8832161Y17798538D01*
X8832160Y17798538D01*
X8706723Y17702287D01*
X8706713Y17702277D01*
X8610462Y17576840D01*
X8610462Y17576839D01*
X8549957Y17430767D01*
X8549955Y17430759D01*
X8528471Y17267567D01*
X8526743Y17267795D01*
X8510411Y17217528D01*
X8500327Y17205722D01*
X8322353Y17027746D01*
X8229515Y16934908D01*
X8206950Y16912342D01*
X8206948Y16912340D01*
X8195997Y16890849D01*
X8187887Y16877615D01*
X8173706Y16858094D01*
X8173701Y16858085D01*
X8166249Y16835148D01*
X8160305Y16820798D01*
X8149355Y16799309D01*
X8149352Y16799299D01*
X8145577Y16775471D01*
X8141953Y16760376D01*
X8134501Y16737438D01*
X8134500Y16737431D01*
X8134500Y14580901D01*
X8115593Y14522710D01*
X8105504Y14510897D01*
X3329515Y9734908D01*
X3306950Y9712342D01*
X3306948Y9712340D01*
X3295997Y9690849D01*
X3287887Y9677615D01*
X3273706Y9658094D01*
X3273701Y9658085D01*
X3266249Y9635148D01*
X3260305Y9620798D01*
X3249355Y9599309D01*
X3249352Y9599299D01*
X3245577Y9575471D01*
X3241953Y9560376D01*
X3234501Y9537438D01*
X3234500Y9537431D01*
X3234500Y6946071D01*
X3215593Y6887880D01*
X3208276Y6879313D01*
X3110462Y6751840D01*
X3110462Y6751839D01*
X3049957Y6605767D01*
X3049955Y6605759D01*
X3029318Y6449001D01*
X3029318Y6449000D01*
X-4625500Y6449000D01*
X-4625500Y16033000D01*
X3749019Y16033000D01*
X3768917Y15754783D01*
X3828210Y15482214D01*
X3925687Y15220872D01*
X3925691Y15220863D01*
X4059361Y14976062D01*
X4059366Y14976055D01*
X4159601Y14842157D01*
X4722542Y15405099D01*
X4770327Y15327923D01*
X4915782Y15168366D01*
X5073679Y15049128D01*
X4513155Y14488603D01*
X4647054Y14388367D01*
X4647061Y14388362D01*
X4891862Y14254692D01*
X4891871Y14254688D01*
X5153213Y14157211D01*
X5425782Y14097918D01*
X5703999Y14078020D01*
X5982217Y14097918D01*
X6254786Y14157211D01*
X6516128Y14254688D01*
X6516137Y14254692D01*
X6760932Y14388359D01*
X6894843Y14488603D01*
X6334319Y15049127D01*
X6492218Y15168366D01*
X6637673Y15327923D01*
X6685457Y15405097D01*
X7248397Y14842157D01*
X7348641Y14976068D01*
X7482308Y15220863D01*
X7482312Y15220872D01*
X7579789Y15482214D01*
X7639082Y15754783D01*
X7658980Y16033001D01*
X7639082Y16311218D01*
X7579789Y16583787D01*
X7482312Y16845129D01*
X7482308Y16845138D01*
X7348638Y17089939D01*
X7348633Y17089946D01*
X7248397Y17223845D01*
X6685456Y16660905D01*
X6637673Y16738077D01*
X6492218Y16897634D01*
X6334317Y17016874D01*
X6894843Y17577399D01*
X6760945Y17677634D01*
X6760938Y17677639D01*
X6516137Y17811309D01*
X6516128Y17811313D01*
X6254786Y17908790D01*
X5982217Y17968083D01*
X5703999Y17987981D01*
X5425782Y17968083D01*
X5153213Y17908790D01*
X4891871Y17811313D01*
X4891862Y17811309D01*
X4647062Y17677640D01*
X4513156Y17577398D01*
X5073680Y17016874D01*
X4915782Y16897634D01*
X4770327Y16738077D01*
X4722542Y16660904D01*
X4159602Y17223844D01*
X4059360Y17089938D01*
X3925691Y16845138D01*
X3925687Y16845129D01*
X3828210Y16583787D01*
X3768917Y16311218D01*
X3749019Y16033000D01*
X-4625500Y16033000D01*
X-4625500Y18292254D01*
X9252500Y18292254D01*
X9252501Y18292242D01*
X9264132Y18233773D01*
X9264133Y18233769D01*
X9308448Y18167448D01*
X9374769Y18123133D01*
X9414495Y18115231D01*
X9433241Y18111502D01*
X9433246Y18111502D01*
X9433252Y18111500D01*
X9433253Y18111500D01*
X10996747Y18111500D01*
X10996748Y18111500D01*
X11055231Y18123133D01*
X11121552Y18167448D01*
X11165867Y18233769D01*
X11177500Y18292252D01*
X11177500Y19855748D01*
X11177499Y19855754D01*
X11177499Y19855756D01*
X11167603Y19905502D01*
X11174793Y19966264D01*
X11216325Y20011194D01*
X11276334Y20023132D01*
X11290307Y20020449D01*
X11290314Y20020447D01*
X11290316Y20020446D01*
X11291761Y20020059D01*
X11315659Y20010160D01*
X11316954Y20009412D01*
X11325854Y20007843D01*
X11357365Y20002287D01*
X11361544Y20001362D01*
X11401193Y19990737D01*
X11442065Y19994313D01*
X11446365Y19994500D01*
X11699468Y19994500D01*
X11757659Y19975593D01*
X11793623Y19926093D01*
X11796565Y19876183D01*
X11792500Y19855754D01*
X11792500Y18292254D01*
X11792501Y18292242D01*
X11804132Y18233773D01*
X11804133Y18233769D01*
X11848448Y18167448D01*
X11914769Y18123133D01*
X11954495Y18115231D01*
X11973241Y18111502D01*
X11973246Y18111502D01*
X11973252Y18111500D01*
X11973253Y18111500D01*
X13536747Y18111500D01*
X13536748Y18111500D01*
X13595231Y18123133D01*
X13661552Y18167448D01*
X13705867Y18233769D01*
X13717500Y18292252D01*
X13717500Y19855748D01*
X13717498Y19855756D01*
X13713435Y19876183D01*
X13720625Y19936945D01*
X13762156Y19981876D01*
X13810532Y19994500D01*
X14239468Y19994500D01*
X14297659Y19975593D01*
X14333623Y19926093D01*
X14336565Y19876183D01*
X14332500Y19855754D01*
X14332500Y18292254D01*
X14332501Y18292242D01*
X14344132Y18233773D01*
X14344133Y18233769D01*
X14388448Y18167448D01*
X14454769Y18123133D01*
X14494495Y18115231D01*
X14513241Y18111502D01*
X14513246Y18111502D01*
X14513252Y18111500D01*
X14815500Y18111500D01*
X14873691Y18092593D01*
X14909655Y18043093D01*
X14914500Y18012500D01*
X14914500Y16558835D01*
X14895593Y16500644D01*
X14885504Y16488831D01*
X14285392Y15888720D01*
X14282207Y15885803D01*
X14250786Y15859437D01*
X14250785Y15859435D01*
X14230271Y15823904D01*
X14227951Y15820263D01*
X14204425Y15786663D01*
X14204421Y15786655D01*
X14204030Y15785193D01*
X14194149Y15761339D01*
X14193393Y15760031D01*
X14193389Y15760019D01*
X14186266Y15719630D01*
X14185332Y15715415D01*
X14174715Y15675792D01*
X14174715Y15675786D01*
X14178291Y15634907D01*
X14178479Y15630606D01*
X14178479Y8243986D01*
X14178291Y8239684D01*
X14175149Y8203767D01*
X14174715Y8198805D01*
X14185333Y8159175D01*
X14186268Y8154959D01*
X14193390Y8114566D01*
X14194143Y8113263D01*
X14204033Y8089387D01*
X14204422Y8087932D01*
X14204425Y8087927D01*
X14215277Y8072428D01*
X14227950Y8054330D01*
X14230271Y8050687D01*
X14250785Y8015156D01*
X14282203Y7988793D01*
X14285389Y7985874D01*
X15719856Y6551407D01*
X15722774Y6548222D01*
X15749143Y6516798D01*
X15749144Y6516797D01*
X15784672Y6496285D01*
X15788311Y6493966D01*
X15821910Y6470440D01*
X15821912Y6470439D01*
X15821915Y6470437D01*
X15823366Y6470049D01*
X15847258Y6460151D01*
X15847785Y6459848D01*
X15848554Y6459403D01*
X15888950Y6452281D01*
X15893147Y6451351D01*
X15932792Y6440727D01*
X15973672Y6444304D01*
X15977973Y6444491D01*
X19614617Y6444491D01*
X19618917Y6444304D01*
X19659798Y6440727D01*
X19699443Y6451351D01*
X19703641Y6452281D01*
X19744036Y6459403D01*
X19744038Y6459404D01*
X19745336Y6460153D01*
X19769227Y6470049D01*
X19769455Y6470111D01*
X19770675Y6470437D01*
X19796607Y6488596D01*
X19855116Y6506485D01*
X19866306Y6505654D01*
X19960000Y6493318D01*
X20116762Y6513956D01*
X20262841Y6574464D01*
X20388282Y6670718D01*
X20484536Y6796159D01*
X20507771Y6852254D01*
X28232500Y6852254D01*
X28232501Y6852242D01*
X28244132Y6793773D01*
X28244134Y6793767D01*
X28272150Y6751839D01*
X28288448Y6727448D01*
X28354769Y6683133D01*
X28399231Y6674289D01*
X28413241Y6671502D01*
X28413246Y6671502D01*
X28413252Y6671500D01*
X28413253Y6671500D01*
X29976747Y6671500D01*
X29976748Y6671500D01*
X30035231Y6683133D01*
X30101552Y6727448D01*
X30145867Y6793769D01*
X30157500Y6852252D01*
X30157500Y6852254D01*
X30772500Y6852254D01*
X30772501Y6852242D01*
X30784132Y6793773D01*
X30784134Y6793767D01*
X30812150Y6751839D01*
X30828448Y6727448D01*
X30894769Y6683133D01*
X30939231Y6674289D01*
X30953241Y6671502D01*
X30953246Y6671502D01*
X30953252Y6671500D01*
X30953253Y6671500D01*
X32516747Y6671500D01*
X32516748Y6671500D01*
X32575231Y6683133D01*
X32641552Y6727448D01*
X32685867Y6793769D01*
X32697500Y6852252D01*
X32697500Y8415748D01*
X32685867Y8474231D01*
X32641552Y8540552D01*
X32616682Y8557170D01*
X32575233Y8584866D01*
X32575231Y8584867D01*
X32575228Y8584868D01*
X32575227Y8584868D01*
X32516758Y8596499D01*
X32516748Y8596500D01*
X30953252Y8596500D01*
X30953251Y8596500D01*
X30953241Y8596499D01*
X30894772Y8584868D01*
X30894766Y8584866D01*
X30828451Y8540555D01*
X30828445Y8540549D01*
X30784134Y8474234D01*
X30784132Y8474228D01*
X30772501Y8415759D01*
X30772500Y8415747D01*
X30772500Y6852254D01*
X30157500Y6852254D01*
X30157500Y8415748D01*
X30145867Y8474231D01*
X30101552Y8540552D01*
X30076682Y8557170D01*
X30035233Y8584866D01*
X30035231Y8584867D01*
X30035228Y8584868D01*
X30035227Y8584868D01*
X29976758Y8596499D01*
X29976748Y8596500D01*
X28413252Y8596500D01*
X28413251Y8596500D01*
X28413241Y8596499D01*
X28354772Y8584868D01*
X28354766Y8584866D01*
X28288451Y8540555D01*
X28288445Y8540549D01*
X28244134Y8474234D01*
X28244132Y8474228D01*
X28232501Y8415759D01*
X28232500Y8415747D01*
X28232500Y6852254D01*
X20507771Y6852254D01*
X20545044Y6942238D01*
X20565682Y7099000D01*
X20545044Y7255762D01*
X20484537Y7401839D01*
X20484537Y7401840D01*
X20388286Y7527277D01*
X20388285Y7527278D01*
X20388282Y7527282D01*
X20388277Y7527286D01*
X20388276Y7527287D01*
X20262838Y7623538D01*
X20116766Y7684043D01*
X20116758Y7684045D01*
X19960001Y7704682D01*
X19959999Y7704682D01*
X19803241Y7684045D01*
X19803233Y7684043D01*
X19657161Y7623538D01*
X19617606Y7593187D01*
X19559929Y7572764D01*
X19501264Y7590143D01*
X19464018Y7638685D01*
X19459188Y7658804D01*
X19453152Y7704654D01*
X19432700Y7754030D01*
X19392645Y7850731D01*
X19392645Y7850732D01*
X19296394Y7976169D01*
X19296393Y7976170D01*
X19296390Y7976174D01*
X19296385Y7976178D01*
X19296384Y7976179D01*
X19225212Y8030791D01*
X19170949Y8072428D01*
X19170948Y8072429D01*
X19170946Y8072430D01*
X19024874Y8132935D01*
X19024866Y8132937D01*
X18868109Y8153574D01*
X18868107Y8153574D01*
X18711349Y8132937D01*
X18711340Y8132935D01*
X18614362Y8092765D01*
X18553365Y8087965D01*
X18501196Y8119934D01*
X18485013Y8146343D01*
X18463283Y8198804D01*
X18431166Y8276341D01*
X18334912Y8401782D01*
X18334907Y8401786D01*
X18334906Y8401787D01*
X18209468Y8498038D01*
X18063396Y8558543D01*
X18063388Y8558545D01*
X17906631Y8579182D01*
X17906629Y8579182D01*
X17749871Y8558545D01*
X17749863Y8558543D01*
X17603791Y8498038D01*
X17603790Y8498038D01*
X17478353Y8401787D01*
X17478344Y8401778D01*
X17429202Y8337733D01*
X17378778Y8303077D01*
X17350660Y8299000D01*
X16406332Y8299000D01*
X16348141Y8317907D01*
X16336328Y8327996D01*
X16262972Y8401352D01*
X16235195Y8455869D01*
X16244766Y8516301D01*
X16288031Y8559566D01*
X16295091Y8562820D01*
X16416006Y8612905D01*
X16431841Y8619464D01*
X16557282Y8715718D01*
X16653536Y8841159D01*
X16714044Y8987238D01*
X16714249Y8988797D01*
X16714732Y8989812D01*
X16715723Y8993506D01*
X16716407Y8993323D01*
X16740582Y9044020D01*
X16794349Y9073221D01*
X16825324Y9074034D01*
X16829731Y9073454D01*
X16829733Y9073453D01*
X16986495Y9052815D01*
X17065633Y9063235D01*
X17125791Y9052086D01*
X17154391Y9028720D01*
X17174039Y9005304D01*
X17209567Y8984792D01*
X17213206Y8982473D01*
X17246805Y8958947D01*
X17246807Y8958946D01*
X17246810Y8958944D01*
X17248261Y8958556D01*
X17272153Y8948658D01*
X17272680Y8948355D01*
X17273449Y8947910D01*
X17313845Y8940788D01*
X17318042Y8939858D01*
X17357687Y8929234D01*
X17398567Y8932811D01*
X17402868Y8932998D01*
X24609124Y8932998D01*
X24613424Y8932811D01*
X24654305Y8929234D01*
X24693934Y8939854D01*
X24698138Y8940786D01*
X24738543Y8947910D01*
X24738545Y8947912D01*
X24743818Y8948841D01*
X24804408Y8940326D01*
X24848421Y8897823D01*
X24859046Y8837567D01*
X24832224Y8782574D01*
X24831013Y8781342D01*
X24411393Y8361720D01*
X24356876Y8333942D01*
X24341389Y8332723D01*
X21897156Y8332723D01*
X21838965Y8351630D01*
X21818614Y8371456D01*
X21795347Y8401778D01*
X21769468Y8435505D01*
X21769463Y8435509D01*
X21769462Y8435510D01*
X21644024Y8531761D01*
X21497952Y8592266D01*
X21497944Y8592268D01*
X21341187Y8612905D01*
X21341185Y8612905D01*
X21184427Y8592268D01*
X21184419Y8592266D01*
X21038347Y8531761D01*
X21038346Y8531761D01*
X20912909Y8435510D01*
X20912899Y8435500D01*
X20816648Y8310063D01*
X20816648Y8310062D01*
X20756143Y8163990D01*
X20756141Y8163982D01*
X20735504Y8007224D01*
X20735504Y8007223D01*
X20756141Y7850465D01*
X20756143Y7850457D01*
X20816648Y7704385D01*
X20816648Y7704384D01*
X20904308Y7590143D01*
X20912904Y7578941D01*
X20912908Y7578938D01*
X20912909Y7578937D01*
X20920954Y7572764D01*
X21038345Y7482687D01*
X21038346Y7482687D01*
X21038347Y7482686D01*
X21184419Y7422181D01*
X21184424Y7422179D01*
X21301995Y7406701D01*
X21341185Y7401541D01*
X21341186Y7401541D01*
X21341187Y7401541D01*
X21372538Y7405669D01*
X21497948Y7422179D01*
X21644027Y7482687D01*
X21769468Y7578941D01*
X21818614Y7642991D01*
X21869038Y7677646D01*
X21897156Y7681723D01*
X24500849Y7681723D01*
X24505149Y7681536D01*
X24546030Y7677959D01*
X24585675Y7688583D01*
X24589873Y7689513D01*
X24630268Y7696635D01*
X24631568Y7697385D01*
X24655459Y7707281D01*
X24655687Y7707343D01*
X24656907Y7707669D01*
X24690526Y7731211D01*
X24694134Y7733509D01*
X24729678Y7754029D01*
X24756050Y7785460D01*
X24758949Y7788625D01*
X28077816Y11107491D01*
X28132332Y11135267D01*
X28192764Y11125696D01*
X28236029Y11082431D01*
X28245600Y11021999D01*
X28244917Y11018172D01*
X28232500Y10955751D01*
X28232500Y9392254D01*
X28232501Y9392242D01*
X28243469Y9337105D01*
X28244133Y9333769D01*
X28288448Y9267448D01*
X28354769Y9223133D01*
X28399231Y9214289D01*
X28413241Y9211502D01*
X28413246Y9211502D01*
X28413252Y9211500D01*
X28413253Y9211500D01*
X29976747Y9211500D01*
X29976748Y9211500D01*
X30035231Y9223133D01*
X30101552Y9267448D01*
X30145867Y9333769D01*
X30157500Y9392252D01*
X30157500Y9392254D01*
X30772500Y9392254D01*
X30772501Y9392242D01*
X30783469Y9337105D01*
X30784133Y9333769D01*
X30828448Y9267448D01*
X30894769Y9223133D01*
X30939231Y9214289D01*
X30953241Y9211502D01*
X30953246Y9211502D01*
X30953252Y9211500D01*
X30953253Y9211500D01*
X32516747Y9211500D01*
X32516748Y9211500D01*
X32575231Y9223133D01*
X32641552Y9267448D01*
X32685867Y9333769D01*
X32697500Y9392252D01*
X32697500Y10955748D01*
X32685867Y11014231D01*
X32641552Y11080552D01*
X32609063Y11102261D01*
X32575233Y11124866D01*
X32575231Y11124867D01*
X32575228Y11124868D01*
X32575227Y11124868D01*
X32516758Y11136499D01*
X32516748Y11136500D01*
X30953252Y11136500D01*
X30953251Y11136500D01*
X30953241Y11136499D01*
X30894772Y11124868D01*
X30894766Y11124866D01*
X30828451Y11080555D01*
X30828445Y11080549D01*
X30784134Y11014234D01*
X30784132Y11014228D01*
X30772501Y10955759D01*
X30772500Y10955747D01*
X30772500Y9392254D01*
X30157500Y9392254D01*
X30157500Y10955748D01*
X30145867Y11014231D01*
X30101552Y11080552D01*
X30069063Y11102261D01*
X30035233Y11124866D01*
X30035231Y11124867D01*
X30035228Y11124868D01*
X30035227Y11124868D01*
X29976758Y11136499D01*
X29976748Y11136500D01*
X28413252Y11136500D01*
X28413249Y11136500D01*
X28350828Y11124083D01*
X28290067Y11131275D01*
X28245137Y11172807D01*
X28233200Y11232817D01*
X28258816Y11288382D01*
X28261511Y11291185D01*
X28692831Y11722504D01*
X28747347Y11750281D01*
X28762834Y11751500D01*
X29976747Y11751500D01*
X29976748Y11751500D01*
X30035231Y11763133D01*
X30101552Y11807448D01*
X30145867Y11873769D01*
X30157500Y11932252D01*
X30157500Y11932254D01*
X30772500Y11932254D01*
X30772501Y11932242D01*
X30784132Y11873773D01*
X30784134Y11873767D01*
X30825562Y11811767D01*
X30828448Y11807448D01*
X30894769Y11763133D01*
X30937406Y11754652D01*
X30953241Y11751502D01*
X30953246Y11751502D01*
X30953252Y11751500D01*
X30953253Y11751500D01*
X32516747Y11751500D01*
X32516748Y11751500D01*
X32575231Y11763133D01*
X32641552Y11807448D01*
X32685867Y11873769D01*
X32697500Y11932252D01*
X32697500Y13495748D01*
X32685867Y13554231D01*
X32641552Y13620552D01*
X32634367Y13625353D01*
X32575233Y13664866D01*
X32575231Y13664867D01*
X32575228Y13664868D01*
X32575227Y13664868D01*
X32516758Y13676499D01*
X32516748Y13676500D01*
X30953252Y13676500D01*
X30953251Y13676500D01*
X30953241Y13676499D01*
X30894772Y13664868D01*
X30894766Y13664866D01*
X30828451Y13620555D01*
X30828445Y13620549D01*
X30784134Y13554234D01*
X30784132Y13554228D01*
X30772501Y13495759D01*
X30772500Y13495747D01*
X30772500Y11932254D01*
X30157500Y11932254D01*
X30157500Y13495748D01*
X30145867Y13554231D01*
X30101552Y13620552D01*
X30094367Y13625353D01*
X30035233Y13664866D01*
X30035231Y13664867D01*
X30035228Y13664868D01*
X30035227Y13664868D01*
X29976758Y13676499D01*
X29976748Y13676500D01*
X28413252Y13676500D01*
X28413251Y13676500D01*
X28413241Y13676499D01*
X28354772Y13664868D01*
X28354766Y13664866D01*
X28288451Y13620555D01*
X28288445Y13620549D01*
X28244134Y13554234D01*
X28244132Y13554228D01*
X28232501Y13495759D01*
X28232500Y13495747D01*
X28232500Y12223835D01*
X28213593Y12165644D01*
X28203504Y12153831D01*
X27358393Y11308721D01*
X27303876Y11280944D01*
X27243444Y11290515D01*
X27200179Y11333780D01*
X27190237Y11365800D01*
X27184010Y11413101D01*
X27148745Y11498238D01*
X27123503Y11559178D01*
X27123503Y11559179D01*
X27027252Y11684616D01*
X27027251Y11684617D01*
X27027248Y11684621D01*
X27027243Y11684625D01*
X27027242Y11684626D01*
X26938752Y11752526D01*
X26901807Y11780875D01*
X26901806Y11780876D01*
X26901804Y11780877D01*
X26755732Y11841382D01*
X26755724Y11841384D01*
X26598967Y11862021D01*
X26598965Y11862021D01*
X26442207Y11841384D01*
X26442199Y11841382D01*
X26296127Y11780877D01*
X26296126Y11780877D01*
X26170689Y11684626D01*
X26170679Y11684616D01*
X26074428Y11559179D01*
X26074428Y11559178D01*
X26013923Y11413106D01*
X26013921Y11413098D01*
X25993284Y11256340D01*
X25993284Y11256338D01*
X26006656Y11154761D01*
X25995506Y11094601D01*
X25978507Y11071836D01*
X25031156Y10124484D01*
X24976639Y10096707D01*
X24916207Y10106278D01*
X24872942Y10149543D01*
X24864530Y10198511D01*
X24862682Y10198511D01*
X24862682Y10205000D01*
X24862364Y10207417D01*
X24852609Y10281508D01*
X24863759Y10341666D01*
X24880754Y10364428D01*
X25618588Y11102261D01*
X25621766Y11105174D01*
X25653194Y11131543D01*
X25673709Y11167079D01*
X25676027Y11170715D01*
X25687935Y11187723D01*
X25699553Y11204314D01*
X25699942Y11205767D01*
X25709833Y11229646D01*
X25710588Y11230953D01*
X25717714Y11271374D01*
X25718642Y11275559D01*
X25729263Y11315191D01*
X25725687Y11356067D01*
X25725500Y11360341D01*
X25725500Y14472254D01*
X28232500Y14472254D01*
X28232501Y14472242D01*
X28244132Y14413773D01*
X28244134Y14413767D01*
X28268809Y14376839D01*
X28288448Y14347448D01*
X28354769Y14303133D01*
X28399231Y14294289D01*
X28413241Y14291502D01*
X28413246Y14291502D01*
X28413252Y14291500D01*
X28413253Y14291500D01*
X29976747Y14291500D01*
X29976748Y14291500D01*
X30035231Y14303133D01*
X30101552Y14347448D01*
X30145867Y14413769D01*
X30157500Y14472252D01*
X30157500Y14472254D01*
X30772500Y14472254D01*
X30772501Y14472242D01*
X30784132Y14413773D01*
X30784134Y14413767D01*
X30808809Y14376839D01*
X30828448Y14347448D01*
X30894769Y14303133D01*
X30939231Y14294289D01*
X30953241Y14291502D01*
X30953246Y14291502D01*
X30953252Y14291500D01*
X30953253Y14291500D01*
X32516747Y14291500D01*
X32516748Y14291500D01*
X32575231Y14303133D01*
X32641552Y14347448D01*
X32685867Y14413769D01*
X32697500Y14472252D01*
X32697500Y16035748D01*
X32685867Y16094231D01*
X32641552Y16160552D01*
X32641548Y16160555D01*
X32575233Y16204866D01*
X32575231Y16204867D01*
X32575228Y16204868D01*
X32575227Y16204868D01*
X32516758Y16216499D01*
X32516748Y16216500D01*
X30953252Y16216500D01*
X30953251Y16216500D01*
X30953241Y16216499D01*
X30894772Y16204868D01*
X30894766Y16204866D01*
X30828451Y16160555D01*
X30828445Y16160549D01*
X30784134Y16094234D01*
X30784132Y16094228D01*
X30772501Y16035759D01*
X30772500Y16035747D01*
X30772500Y14472254D01*
X30157500Y14472254D01*
X30157500Y16035748D01*
X30145867Y16094231D01*
X30101552Y16160552D01*
X30101548Y16160555D01*
X30035233Y16204866D01*
X30035231Y16204867D01*
X30035228Y16204868D01*
X30035227Y16204868D01*
X29976758Y16216499D01*
X29976748Y16216500D01*
X28413252Y16216500D01*
X28413251Y16216500D01*
X28413241Y16216499D01*
X28354772Y16204868D01*
X28354766Y16204866D01*
X28288451Y16160555D01*
X28288445Y16160549D01*
X28244134Y16094234D01*
X28244132Y16094228D01*
X28232501Y16035759D01*
X28232500Y16035747D01*
X28232500Y14472254D01*
X25725500Y14472254D01*
X25725500Y18012501D01*
X25744407Y18070691D01*
X25793907Y18106655D01*
X25824500Y18111500D01*
X26236747Y18111500D01*
X26236748Y18111500D01*
X26295231Y18123133D01*
X26361552Y18167448D01*
X26405867Y18233769D01*
X26417500Y18292252D01*
X26417500Y19855748D01*
X26405867Y19914231D01*
X26361552Y19980552D01*
X26359571Y19981876D01*
X26295233Y20024866D01*
X26295231Y20024867D01*
X26295228Y20024868D01*
X26295227Y20024868D01*
X26236758Y20036499D01*
X26236748Y20036500D01*
X24673252Y20036500D01*
X24673251Y20036500D01*
X24673241Y20036499D01*
X24614772Y20024868D01*
X24614766Y20024866D01*
X24548451Y19980555D01*
X24548445Y19980549D01*
X24504134Y19914234D01*
X24504132Y19914228D01*
X24492501Y19855759D01*
X24492500Y19855747D01*
X24492500Y18292254D01*
X24492501Y18292242D01*
X24504132Y18233773D01*
X24504133Y18233769D01*
X24548448Y18167448D01*
X24614769Y18123133D01*
X24654495Y18115231D01*
X24673241Y18111502D01*
X24673246Y18111502D01*
X24673252Y18111500D01*
X24975500Y18111500D01*
X25033691Y18092593D01*
X25069655Y18043093D01*
X25074500Y18012500D01*
X25074500Y17536433D01*
X25055593Y17478242D01*
X25006093Y17442278D01*
X24944907Y17442278D01*
X24895407Y17478242D01*
X24891980Y17483519D01*
X24891194Y17484455D01*
X24872318Y17500294D01*
X24859765Y17510827D01*
X24856588Y17513739D01*
X23906496Y18463831D01*
X23878719Y18518348D01*
X23877500Y18533835D01*
X23877500Y19855747D01*
X23877498Y19855759D01*
X23867603Y19905502D01*
X23865867Y19914231D01*
X23821552Y19980552D01*
X23819571Y19981876D01*
X23755233Y20024866D01*
X23755231Y20024867D01*
X23755228Y20024868D01*
X23755227Y20024868D01*
X23696758Y20036499D01*
X23696748Y20036500D01*
X22133252Y20036500D01*
X22131928Y20036500D01*
X22073737Y20055407D01*
X22046202Y20085982D01*
X22044844Y20088333D01*
X22034942Y20112233D01*
X22034554Y20113684D01*
X22034552Y20113687D01*
X22034551Y20113689D01*
X22011025Y20147288D01*
X22008703Y20150932D01*
X21988193Y20186457D01*
X21967069Y20204181D01*
X21956765Y20212827D01*
X21953588Y20215739D01*
X21630741Y20538586D01*
X21627822Y20541771D01*
X21601456Y20573194D01*
X21578818Y20586264D01*
X21565918Y20593712D01*
X21562288Y20596025D01*
X21528684Y20619554D01*
X21528679Y20619557D01*
X21527224Y20619946D01*
X21503348Y20629836D01*
X21502045Y20630589D01*
X21461652Y20637711D01*
X21457436Y20638646D01*
X21430739Y20645799D01*
X21417807Y20649264D01*
X21417806Y20649264D01*
X21413108Y20649675D01*
X21356787Y20673583D01*
X21325276Y20726030D01*
X21324642Y20767614D01*
X21325866Y20773768D01*
X21325867Y20773769D01*
X21337500Y20832252D01*
X21337500Y20832254D01*
X21952500Y20832254D01*
X21952501Y20832242D01*
X21964132Y20773773D01*
X21964134Y20773767D01*
X21999185Y20721311D01*
X22008448Y20707448D01*
X22074769Y20663133D01*
X22119231Y20654289D01*
X22133241Y20651502D01*
X22133246Y20651502D01*
X22133252Y20651500D01*
X22133253Y20651500D01*
X23696747Y20651500D01*
X23696748Y20651500D01*
X23755231Y20663133D01*
X23821552Y20707448D01*
X23865867Y20773769D01*
X23877500Y20832252D01*
X23877500Y20832254D01*
X24492500Y20832254D01*
X24492501Y20832242D01*
X24504132Y20773773D01*
X24504134Y20773767D01*
X24539185Y20721311D01*
X24548448Y20707448D01*
X24614769Y20663133D01*
X24659231Y20654289D01*
X24673241Y20651502D01*
X24673246Y20651502D01*
X24673252Y20651500D01*
X24673253Y20651500D01*
X26236747Y20651500D01*
X26236748Y20651500D01*
X26295231Y20663133D01*
X26361552Y20707448D01*
X26405867Y20773769D01*
X26417500Y20832252D01*
X26417500Y22395748D01*
X26405867Y22454231D01*
X26361552Y22520552D01*
X26361548Y22520555D01*
X26295233Y22564866D01*
X26295231Y22564867D01*
X26295228Y22564868D01*
X26295227Y22564868D01*
X26236758Y22576499D01*
X26236748Y22576500D01*
X24673252Y22576500D01*
X24673251Y22576500D01*
X24673241Y22576499D01*
X24614772Y22564868D01*
X24614766Y22564866D01*
X24548451Y22520555D01*
X24548445Y22520549D01*
X24504134Y22454234D01*
X24504132Y22454228D01*
X24492501Y22395759D01*
X24492500Y22395747D01*
X24492500Y20832254D01*
X23877500Y20832254D01*
X23877500Y22395748D01*
X23865867Y22454231D01*
X23821552Y22520552D01*
X23821548Y22520555D01*
X23755233Y22564866D01*
X23755231Y22564867D01*
X23755228Y22564868D01*
X23755227Y22564868D01*
X23696758Y22576499D01*
X23696748Y22576500D01*
X22133252Y22576500D01*
X22133251Y22576500D01*
X22133241Y22576499D01*
X22074772Y22564868D01*
X22074766Y22564866D01*
X22008451Y22520555D01*
X22008445Y22520549D01*
X21964134Y22454234D01*
X21964132Y22454228D01*
X21952501Y22395759D01*
X21952500Y22395747D01*
X21952500Y20832254D01*
X21337500Y20832254D01*
X21337500Y22395748D01*
X21325867Y22454231D01*
X21281552Y22520552D01*
X21281548Y22520555D01*
X21215233Y22564866D01*
X21215231Y22564867D01*
X21215228Y22564868D01*
X21215227Y22564868D01*
X21156758Y22576499D01*
X21156748Y22576500D01*
X19593252Y22576500D01*
X19593251Y22576500D01*
X19593241Y22576499D01*
X19534772Y22564868D01*
X19534766Y22564866D01*
X19468451Y22520555D01*
X19468445Y22520549D01*
X19424134Y22454234D01*
X19424132Y22454228D01*
X19412501Y22395759D01*
X19412500Y22395747D01*
X19412500Y20832254D01*
X19412501Y20832242D01*
X19426035Y20764207D01*
X19422066Y20763418D01*
X19425346Y20721311D01*
X19393334Y20669168D01*
X19336788Y20645799D01*
X19329100Y20645500D01*
X18880900Y20645500D01*
X18822709Y20664407D01*
X18786745Y20713907D01*
X18786745Y20763654D01*
X18783965Y20764207D01*
X18797498Y20832242D01*
X18797497Y20832242D01*
X18797500Y20832252D01*
X18797500Y22395748D01*
X18785867Y22454231D01*
X18741552Y22520552D01*
X18741548Y22520555D01*
X18675233Y22564866D01*
X18675231Y22564867D01*
X18675228Y22564868D01*
X18675227Y22564868D01*
X18616758Y22576499D01*
X18616748Y22576500D01*
X17053252Y22576500D01*
X17053251Y22576500D01*
X17053241Y22576499D01*
X16994772Y22564868D01*
X16994766Y22564866D01*
X16928451Y22520555D01*
X16928445Y22520549D01*
X16884134Y22454234D01*
X16884132Y22454228D01*
X16872501Y22395759D01*
X16872500Y22395747D01*
X16872500Y20832254D01*
X16872501Y20832242D01*
X16886035Y20764207D01*
X16882066Y20763418D01*
X16885346Y20721311D01*
X16853334Y20669168D01*
X16796788Y20645799D01*
X16789100Y20645500D01*
X16340900Y20645500D01*
X16282709Y20664407D01*
X16246745Y20713907D01*
X16246745Y20763654D01*
X16243965Y20764207D01*
X16257498Y20832242D01*
X16257497Y20832242D01*
X16257500Y20832252D01*
X16257500Y22395748D01*
X16245867Y22454231D01*
X16201552Y22520552D01*
X16201548Y22520555D01*
X16135233Y22564866D01*
X16135231Y22564867D01*
X16135228Y22564868D01*
X16135227Y22564868D01*
X16076758Y22576499D01*
X16076748Y22576500D01*
X14513252Y22576500D01*
X14513251Y22576500D01*
X14513241Y22576499D01*
X14454772Y22564868D01*
X14454766Y22564866D01*
X14388451Y22520555D01*
X14388445Y22520549D01*
X14344134Y22454234D01*
X14344132Y22454228D01*
X14332501Y22395759D01*
X14332500Y22395747D01*
X14332500Y20832254D01*
X14332501Y20832242D01*
X14346035Y20764207D01*
X14342066Y20763418D01*
X14345346Y20721311D01*
X14313334Y20669168D01*
X14256788Y20645799D01*
X14249100Y20645500D01*
X13800900Y20645500D01*
X13742709Y20664407D01*
X13706745Y20713907D01*
X13706745Y20763654D01*
X13703965Y20764207D01*
X13717498Y20832242D01*
X13717497Y20832242D01*
X13717500Y20832252D01*
X13717500Y22395748D01*
X13705867Y22454231D01*
X13661552Y22520552D01*
X13661548Y22520555D01*
X13595233Y22564866D01*
X13595231Y22564867D01*
X13595228Y22564868D01*
X13595227Y22564868D01*
X13536758Y22576499D01*
X13536748Y22576500D01*
X11973252Y22576500D01*
X11973251Y22576500D01*
X11973241Y22576499D01*
X11914772Y22564868D01*
X11914766Y22564866D01*
X11848451Y22520555D01*
X11848445Y22520549D01*
X11804134Y22454234D01*
X11804132Y22454228D01*
X11792501Y22395759D01*
X11792500Y22395747D01*
X11792500Y20832254D01*
X11792501Y20832242D01*
X11806035Y20764207D01*
X11802066Y20763418D01*
X11805346Y20721311D01*
X11773334Y20669168D01*
X11716788Y20645799D01*
X11709100Y20645500D01*
X11605835Y20645500D01*
X11547644Y20664407D01*
X11535831Y20674496D01*
X11206496Y21003831D01*
X11178719Y21058348D01*
X11177500Y21073835D01*
X11177500Y22395747D01*
X11177498Y22395759D01*
X11174711Y22409769D01*
X11165867Y22454231D01*
X11121552Y22520552D01*
X11121548Y22520555D01*
X11055233Y22564866D01*
X11055231Y22564867D01*
X11055228Y22564868D01*
X11055227Y22564868D01*
X10996758Y22576499D01*
X10996748Y22576500D01*
X9433252Y22576500D01*
X9433251Y22576500D01*
X9433241Y22576499D01*
X9374772Y22564868D01*
X9374766Y22564866D01*
X9308451Y22520555D01*
X9308445Y22520549D01*
X9264134Y22454234D01*
X9264132Y22454228D01*
X9252501Y22395759D01*
X9252500Y22395747D01*
X9252500Y20832254D01*
X9252501Y20832242D01*
X9264132Y20773773D01*
X9264134Y20773767D01*
X9299185Y20721311D01*
X9308448Y20707448D01*
X9374769Y20663133D01*
X9419231Y20654289D01*
X9433241Y20651502D01*
X9433246Y20651502D01*
X9433252Y20651500D01*
X10597165Y20651500D01*
X10655356Y20632593D01*
X10667169Y20622504D01*
X11086072Y20203601D01*
X11113849Y20149084D01*
X11104278Y20088652D01*
X11061013Y20045387D01*
X11000581Y20035816D01*
X10996754Y20036499D01*
X10996750Y20036500D01*
X10996748Y20036500D01*
X9433252Y20036500D01*
X9433251Y20036500D01*
X9433241Y20036499D01*
X9374772Y20024868D01*
X9374766Y20024866D01*
X9308451Y19980555D01*
X9308445Y19980549D01*
X9264134Y19914234D01*
X9264132Y19914228D01*
X9252501Y19855759D01*
X9252500Y19855747D01*
X9252500Y18292254D01*
X-4625500Y18292254D01*
X-4625500Y19551005D01*
X5049500Y19551005D01*
X5076420Y19415673D01*
X5076420Y19415671D01*
X5129222Y19288194D01*
X5129228Y19288183D01*
X5205885Y19173459D01*
X5303458Y19075886D01*
X5418182Y18999229D01*
X5418193Y18999223D01*
X5465283Y18979718D01*
X5545672Y18946420D01*
X5681007Y18919500D01*
X5681008Y18919500D01*
X7018992Y18919500D01*
X7018993Y18919500D01*
X7154328Y18946420D01*
X7281811Y18999225D01*
X7396542Y19075886D01*
X7494114Y19173458D01*
X7570775Y19288189D01*
X7623580Y19415672D01*
X7650500Y19551007D01*
X7650500Y19620000D01*
X7650500Y19659882D01*
X7650500Y21042590D01*
X7650500Y21088993D01*
X7623580Y21224328D01*
X7570775Y21351811D01*
X7570774Y21351813D01*
X7570771Y21351818D01*
X7494114Y21466542D01*
X7396541Y21564115D01*
X7281817Y21640772D01*
X7281806Y21640778D01*
X7154328Y21693580D01*
X7018995Y21720500D01*
X7018993Y21720500D01*
X6972590Y21720500D01*
X5789882Y21720500D01*
X5750000Y21720500D01*
X5681007Y21720500D01*
X5681004Y21720500D01*
X5545672Y21693580D01*
X5545670Y21693580D01*
X5418193Y21640778D01*
X5418182Y21640772D01*
X5303458Y21564115D01*
X5205885Y21466542D01*
X5129228Y21351818D01*
X5129222Y21351807D01*
X5076420Y21224330D01*
X5076420Y21224328D01*
X5049500Y21088996D01*
X5049500Y19551005D01*
X-4625500Y19551005D01*
X-4625500Y24846500D01*
X-4606593Y24904691D01*
X-4557093Y24940655D01*
X-4526500Y24945500D01*
X14047405Y24945500D01*
X14105596Y24926593D01*
G37*
%TD.AperFunction*%
%TD*%
M02*
