%TF.GenerationSoftware,KiCad,Pcbnew,7.0.5.1-1-g8f565ef7f0-dirty-deb11*%
%TF.CreationDate,2023-07-20T11:53:13+00:00*%
%TF.ProjectId,USB232R02,55534232-3332-4523-9032-2e6b69636164,rev?*%
%TF.SameCoordinates,PX7f790e8PY698c050*%
%TF.FileFunction,Soldermask,Top*%
%TF.FilePolarity,Negative*%
%FSLAX46Y46*%
G04 Gerber Fmt 4.6, Leading zero omitted, Abs format (unit mm)*
G04 Created by KiCad (PCBNEW 7.0.5.1-1-g8f565ef7f0-dirty-deb11) date 2023-07-20 11:53:13*
%MOMM*%
%LPD*%
G01*
G04 APERTURE LIST*
G04 Aperture macros list*
%AMRoundRect*
0 Rectangle with rounded corners*
0 $1 Rounding radius*
0 $2 $3 $4 $5 $6 $7 $8 $9 X,Y pos of 4 corners*
0 Add a 4 corners polygon primitive as box body*
4,1,4,$2,$3,$4,$5,$6,$7,$8,$9,$2,$3,0*
0 Add four circle primitives for the rounded corners*
1,1,$1+$1,$2,$3*
1,1,$1+$1,$4,$5*
1,1,$1+$1,$6,$7*
1,1,$1+$1,$8,$9*
0 Add four rect primitives between the rounded corners*
20,1,$1+$1,$2,$3,$4,$5,0*
20,1,$1+$1,$4,$5,$6,$7,0*
20,1,$1+$1,$6,$7,$8,$9,0*
20,1,$1+$1,$8,$9,$2,$3,0*%
G04 Aperture macros list end*
%ADD10C,6.200000*%
%ADD11RoundRect,0.100000X0.850000X0.850000X-0.850000X0.850000X-0.850000X-0.850000X0.850000X-0.850000X0*%
%ADD12C,1.900000*%
%ADD13C,3.700000*%
%ADD14RoundRect,0.100000X0.762000X-0.762000X0.762000X0.762000X-0.762000X0.762000X-0.762000X-0.762000X0*%
%ADD15RoundRect,0.100000X-0.762000X-0.762000X0.762000X-0.762000X0.762000X0.762000X-0.762000X0.762000X0*%
G04 APERTURE END LIST*
D10*
%TO.C,H3*%
X0Y0D03*
%TD*%
D11*
%TO.C,J1*%
X10414000Y8763000D03*
D12*
X10414000Y11263000D03*
X8414000Y11263000D03*
X8414000Y8763000D03*
D13*
X5704000Y3993000D03*
X5704000Y16033000D03*
%TD*%
D10*
%TO.C,H4*%
X30480000Y0D03*
%TD*%
D14*
%TO.C,J3*%
X20320000Y-1270000D03*
X20320000Y1270000D03*
X22860000Y-1270000D03*
X22860000Y1270000D03*
X25400000Y-1270000D03*
X25400000Y1270000D03*
%TD*%
D10*
%TO.C,H1*%
X30480000Y20320000D03*
%TD*%
%TO.C,H2*%
X0Y20320000D03*
%TD*%
D14*
%TO.C,J18*%
X10215000Y19074000D03*
X10215000Y21614000D03*
X12755000Y19074000D03*
X12755000Y21614000D03*
X15295000Y19074000D03*
X15295000Y21614000D03*
X17835000Y19074000D03*
X17835000Y21614000D03*
X20375000Y19074000D03*
X20375000Y21614000D03*
X22915000Y19074000D03*
X22915000Y21614000D03*
X25455000Y19074000D03*
X25455000Y21614000D03*
%TD*%
D15*
%TO.C,J19*%
X29195000Y15254000D03*
X31735000Y15254000D03*
X29195000Y12714000D03*
X31735000Y12714000D03*
X29195000Y10174000D03*
X31735000Y10174000D03*
X29195000Y7634000D03*
X31735000Y7634000D03*
X29195000Y5094000D03*
X31735000Y5094000D03*
%TD*%
D14*
%TO.C,J2*%
X11430000Y-1270000D03*
X11430000Y1270000D03*
X13970000Y-1270000D03*
X13970000Y1270000D03*
X16510000Y-1270000D03*
X16510000Y1270000D03*
%TD*%
M02*
