%TF.GenerationSoftware,KiCad,Pcbnew,7.0.5.1-1-g8f565ef7f0-dirty-deb11*%
%TF.CreationDate,2023-07-05T14:47:00+00:00*%
%TF.ProjectId,USB232R02,55534232-3332-4523-9032-2e6b69636164,rev?*%
%TF.SameCoordinates,PX7f790e8PY698c050*%
%TF.FileFunction,Legend,Top*%
%TF.FilePolarity,Positive*%
%FSLAX46Y46*%
G04 Gerber Fmt 4.6, Leading zero omitted, Abs format (unit mm)*
G04 Created by KiCad (PCBNEW 7.0.5.1-1-g8f565ef7f0-dirty-deb11) date 2023-07-05 14:47:00*
%MOMM*%
%LPD*%
G01*
G04 APERTURE LIST*
%ADD10C,0.150000*%
%ADD11C,0.300000*%
%ADD12C,0.120000*%
G04 APERTURE END LIST*
D10*
X17907000Y3429000D02*
X21844000Y3429000D01*
X17907000Y7493000D02*
X17907000Y3429000D01*
X21844000Y5461000D02*
X17907000Y5461000D01*
X21844000Y3429000D02*
X21844000Y7493000D01*
X21844000Y7493000D02*
X17907000Y7493000D01*
X19875500Y7493000D02*
X19875500Y3429000D01*
D11*
X23140861Y17335013D02*
X23140861Y16406442D01*
X23698004Y16963585D02*
X22026576Y17335013D01*
X22583719Y16530252D02*
X22583719Y17458823D01*
X22026576Y16901680D02*
X23698004Y16530252D01*
X22274195Y15973109D02*
X23574195Y15973109D01*
X23574195Y15973109D02*
X23574195Y15663585D01*
X23574195Y15663585D02*
X23512290Y15477871D01*
X23512290Y15477871D02*
X23388480Y15354061D01*
X23388480Y15354061D02*
X23264671Y15292156D01*
X23264671Y15292156D02*
X23017052Y15230252D01*
X23017052Y15230252D02*
X22831338Y15230252D01*
X22831338Y15230252D02*
X22583719Y15292156D01*
X22583719Y15292156D02*
X22459909Y15354061D01*
X22459909Y15354061D02*
X22336100Y15477871D01*
X22336100Y15477871D02*
X22274195Y15663585D01*
X22274195Y15663585D02*
X22274195Y15973109D01*
X23574195Y14858823D02*
X23574195Y14115966D01*
X22274195Y14487394D02*
X23574195Y14487394D01*
X22274195Y12939776D02*
X22893242Y13373109D01*
X22274195Y13682633D02*
X23574195Y13682633D01*
X23574195Y13682633D02*
X23574195Y13187395D01*
X23574195Y13187395D02*
X23512290Y13063585D01*
X23512290Y13063585D02*
X23450385Y13001680D01*
X23450385Y13001680D02*
X23326576Y12939776D01*
X23326576Y12939776D02*
X23140861Y12939776D01*
X23140861Y12939776D02*
X23017052Y13001680D01*
X23017052Y13001680D02*
X22955147Y13063585D01*
X22955147Y13063585D02*
X22893242Y13187395D01*
X22893242Y13187395D02*
X22893242Y13682633D01*
X23161680Y7900862D02*
X24090251Y7900862D01*
X23533108Y8458005D02*
X23161680Y6786577D01*
X23966441Y7343720D02*
X23037870Y7343720D01*
X23595013Y6786577D02*
X23966441Y8458005D01*
X25266441Y7034196D02*
X24833108Y7653243D01*
X24523584Y7034196D02*
X24523584Y8334196D01*
X24523584Y8334196D02*
X25018822Y8334196D01*
X25018822Y8334196D02*
X25142632Y8272291D01*
X25142632Y8272291D02*
X25204537Y8210386D01*
X25204537Y8210386D02*
X25266441Y8086577D01*
X25266441Y8086577D02*
X25266441Y7900862D01*
X25266441Y7900862D02*
X25204537Y7777053D01*
X25204537Y7777053D02*
X25142632Y7715148D01*
X25142632Y7715148D02*
X25018822Y7653243D01*
X25018822Y7653243D02*
X24523584Y7653243D01*
X25637870Y8334196D02*
X26380727Y8334196D01*
X26009299Y7034196D02*
X26009299Y8334196D01*
X26752156Y7096100D02*
X26937870Y7034196D01*
X26937870Y7034196D02*
X27247394Y7034196D01*
X27247394Y7034196D02*
X27371203Y7096100D01*
X27371203Y7096100D02*
X27433108Y7158005D01*
X27433108Y7158005D02*
X27495013Y7281815D01*
X27495013Y7281815D02*
X27495013Y7405624D01*
X27495013Y7405624D02*
X27433108Y7529434D01*
X27433108Y7529434D02*
X27371203Y7591339D01*
X27371203Y7591339D02*
X27247394Y7653243D01*
X27247394Y7653243D02*
X26999775Y7715148D01*
X26999775Y7715148D02*
X26875965Y7777053D01*
X26875965Y7777053D02*
X26814060Y7838958D01*
X26814060Y7838958D02*
X26752156Y7962767D01*
X26752156Y7962767D02*
X26752156Y8086577D01*
X26752156Y8086577D02*
X26814060Y8210386D01*
X26814060Y8210386D02*
X26875965Y8272291D01*
X26875965Y8272291D02*
X26999775Y8334196D01*
X26999775Y8334196D02*
X27309298Y8334196D01*
X27309298Y8334196D02*
X27495013Y8272291D01*
X27384195Y16230476D02*
X27384195Y15487619D01*
X26084195Y15859047D02*
X27384195Y15859047D01*
X27384195Y15178095D02*
X26084195Y14311429D01*
X27384195Y14311429D02*
X26084195Y15178095D01*
X18264380Y8108005D02*
X18202476Y8046100D01*
X18202476Y8046100D02*
X18016761Y7984196D01*
X18016761Y7984196D02*
X17892952Y7984196D01*
X17892952Y7984196D02*
X17707238Y8046100D01*
X17707238Y8046100D02*
X17583428Y8169910D01*
X17583428Y8169910D02*
X17521523Y8293720D01*
X17521523Y8293720D02*
X17459619Y8541339D01*
X17459619Y8541339D02*
X17459619Y8727053D01*
X17459619Y8727053D02*
X17521523Y8974672D01*
X17521523Y8974672D02*
X17583428Y9098481D01*
X17583428Y9098481D02*
X17707238Y9222291D01*
X17707238Y9222291D02*
X17892952Y9284196D01*
X17892952Y9284196D02*
X18016761Y9284196D01*
X18016761Y9284196D02*
X18202476Y9222291D01*
X18202476Y9222291D02*
X18264380Y9160386D01*
X19254857Y8665148D02*
X19440571Y8603243D01*
X19440571Y8603243D02*
X19502476Y8541339D01*
X19502476Y8541339D02*
X19564380Y8417529D01*
X19564380Y8417529D02*
X19564380Y8231815D01*
X19564380Y8231815D02*
X19502476Y8108005D01*
X19502476Y8108005D02*
X19440571Y8046100D01*
X19440571Y8046100D02*
X19316761Y7984196D01*
X19316761Y7984196D02*
X18821523Y7984196D01*
X18821523Y7984196D02*
X18821523Y9284196D01*
X18821523Y9284196D02*
X19254857Y9284196D01*
X19254857Y9284196D02*
X19378666Y9222291D01*
X19378666Y9222291D02*
X19440571Y9160386D01*
X19440571Y9160386D02*
X19502476Y9036577D01*
X19502476Y9036577D02*
X19502476Y8912767D01*
X19502476Y8912767D02*
X19440571Y8788958D01*
X19440571Y8788958D02*
X19378666Y8727053D01*
X19378666Y8727053D02*
X19254857Y8665148D01*
X19254857Y8665148D02*
X18821523Y8665148D01*
X20121523Y9284196D02*
X20121523Y8231815D01*
X20121523Y8231815D02*
X20183428Y8108005D01*
X20183428Y8108005D02*
X20245333Y8046100D01*
X20245333Y8046100D02*
X20369142Y7984196D01*
X20369142Y7984196D02*
X20616761Y7984196D01*
X20616761Y7984196D02*
X20740571Y8046100D01*
X20740571Y8046100D02*
X20802476Y8108005D01*
X20802476Y8108005D02*
X20864380Y8231815D01*
X20864380Y8231815D02*
X20864380Y9284196D01*
X21421524Y8046100D02*
X21607238Y7984196D01*
X21607238Y7984196D02*
X21916762Y7984196D01*
X21916762Y7984196D02*
X22040571Y8046100D01*
X22040571Y8046100D02*
X22102476Y8108005D01*
X22102476Y8108005D02*
X22164381Y8231815D01*
X22164381Y8231815D02*
X22164381Y8355624D01*
X22164381Y8355624D02*
X22102476Y8479434D01*
X22102476Y8479434D02*
X22040571Y8541339D01*
X22040571Y8541339D02*
X21916762Y8603243D01*
X21916762Y8603243D02*
X21669143Y8665148D01*
X21669143Y8665148D02*
X21545333Y8727053D01*
X21545333Y8727053D02*
X21483428Y8788958D01*
X21483428Y8788958D02*
X21421524Y8912767D01*
X21421524Y8912767D02*
X21421524Y9036577D01*
X21421524Y9036577D02*
X21483428Y9160386D01*
X21483428Y9160386D02*
X21545333Y9222291D01*
X21545333Y9222291D02*
X21669143Y9284196D01*
X21669143Y9284196D02*
X21978666Y9284196D01*
X21978666Y9284196D02*
X22164381Y9222291D01*
X19069143Y5891196D02*
X18326286Y5891196D01*
X18697714Y5891196D02*
X18697714Y7191196D01*
X18697714Y7191196D02*
X18573905Y7005481D01*
X18573905Y7005481D02*
X18450095Y6881672D01*
X18450095Y6881672D02*
X18326286Y6819767D01*
X20864380Y7191196D02*
X20988190Y7191196D01*
X20988190Y7191196D02*
X21111999Y7129291D01*
X21111999Y7129291D02*
X21173904Y7067386D01*
X21173904Y7067386D02*
X21235809Y6943577D01*
X21235809Y6943577D02*
X21297714Y6695958D01*
X21297714Y6695958D02*
X21297714Y6386434D01*
X21297714Y6386434D02*
X21235809Y6138815D01*
X21235809Y6138815D02*
X21173904Y6015005D01*
X21173904Y6015005D02*
X21111999Y5953100D01*
X21111999Y5953100D02*
X20988190Y5891196D01*
X20988190Y5891196D02*
X20864380Y5891196D01*
X20864380Y5891196D02*
X20740571Y5953100D01*
X20740571Y5953100D02*
X20678666Y6015005D01*
X20678666Y6015005D02*
X20616761Y6138815D01*
X20616761Y6138815D02*
X20554857Y6386434D01*
X20554857Y6386434D02*
X20554857Y6695958D01*
X20554857Y6695958D02*
X20616761Y6943577D01*
X20616761Y6943577D02*
X20678666Y7067386D01*
X20678666Y7067386D02*
X20740571Y7129291D01*
X20740571Y7129291D02*
X20864380Y7191196D01*
X18326286Y4974386D02*
X18388190Y5036291D01*
X18388190Y5036291D02*
X18512000Y5098196D01*
X18512000Y5098196D02*
X18821524Y5098196D01*
X18821524Y5098196D02*
X18945333Y5036291D01*
X18945333Y5036291D02*
X19007238Y4974386D01*
X19007238Y4974386D02*
X19069143Y4850577D01*
X19069143Y4850577D02*
X19069143Y4726767D01*
X19069143Y4726767D02*
X19007238Y4541053D01*
X19007238Y4541053D02*
X18264381Y3798196D01*
X18264381Y3798196D02*
X19069143Y3798196D01*
X20492952Y5098196D02*
X21297714Y5098196D01*
X21297714Y5098196D02*
X20864380Y4602958D01*
X20864380Y4602958D02*
X21050095Y4602958D01*
X21050095Y4602958D02*
X21173904Y4541053D01*
X21173904Y4541053D02*
X21235809Y4479148D01*
X21235809Y4479148D02*
X21297714Y4355339D01*
X21297714Y4355339D02*
X21297714Y4045815D01*
X21297714Y4045815D02*
X21235809Y3922005D01*
X21235809Y3922005D02*
X21173904Y3860100D01*
X21173904Y3860100D02*
X21050095Y3798196D01*
X21050095Y3798196D02*
X20678666Y3798196D01*
X20678666Y3798196D02*
X20554857Y3860100D01*
X20554857Y3860100D02*
X20492952Y3922005D01*
X25479195Y17458823D02*
X24179195Y17025490D01*
X24179195Y17025490D02*
X25479195Y16592156D01*
X24179195Y16158823D02*
X25479195Y16158823D01*
X25479195Y15292156D02*
X25479195Y15044537D01*
X25479195Y15044537D02*
X25417290Y14920727D01*
X25417290Y14920727D02*
X25293480Y14796918D01*
X25293480Y14796918D02*
X25045861Y14735013D01*
X25045861Y14735013D02*
X24612528Y14735013D01*
X24612528Y14735013D02*
X24364909Y14796918D01*
X24364909Y14796918D02*
X24241100Y14920727D01*
X24241100Y14920727D02*
X24179195Y15044537D01*
X24179195Y15044537D02*
X24179195Y15292156D01*
X24179195Y15292156D02*
X24241100Y15415965D01*
X24241100Y15415965D02*
X24364909Y15539775D01*
X24364909Y15539775D02*
X24612528Y15601679D01*
X24612528Y15601679D02*
X25045861Y15601679D01*
X25045861Y15601679D02*
X25293480Y15539775D01*
X25293480Y15539775D02*
X25417290Y15415965D01*
X25417290Y15415965D02*
X25479195Y15292156D01*
X13722381Y-3095804D02*
X13103333Y-3095804D01*
X13103333Y-3095804D02*
X13041429Y-3714852D01*
X13041429Y-3714852D02*
X13103333Y-3652947D01*
X13103333Y-3652947D02*
X13227143Y-3591042D01*
X13227143Y-3591042D02*
X13536667Y-3591042D01*
X13536667Y-3591042D02*
X13660476Y-3652947D01*
X13660476Y-3652947D02*
X13722381Y-3714852D01*
X13722381Y-3714852D02*
X13784286Y-3838661D01*
X13784286Y-3838661D02*
X13784286Y-4148185D01*
X13784286Y-4148185D02*
X13722381Y-4271995D01*
X13722381Y-4271995D02*
X13660476Y-4333900D01*
X13660476Y-4333900D02*
X13536667Y-4395804D01*
X13536667Y-4395804D02*
X13227143Y-4395804D01*
X13227143Y-4395804D02*
X13103333Y-4333900D01*
X13103333Y-4333900D02*
X13041429Y-4271995D01*
X14155714Y-3095804D02*
X14589047Y-4395804D01*
X14589047Y-4395804D02*
X15022381Y-3095804D01*
X26084195Y12916667D02*
X26703242Y13350000D01*
X26084195Y13659524D02*
X27384195Y13659524D01*
X27384195Y13659524D02*
X27384195Y13164286D01*
X27384195Y13164286D02*
X27322290Y13040476D01*
X27322290Y13040476D02*
X27260385Y12978571D01*
X27260385Y12978571D02*
X27136576Y12916667D01*
X27136576Y12916667D02*
X26950861Y12916667D01*
X26950861Y12916667D02*
X26827052Y12978571D01*
X26827052Y12978571D02*
X26765147Y13040476D01*
X26765147Y13040476D02*
X26703242Y13164286D01*
X26703242Y13164286D02*
X26703242Y13659524D01*
X27384195Y12483333D02*
X26084195Y11616667D01*
X27384195Y11616667D02*
X26084195Y12483333D01*
X18060861Y17335013D02*
X18060861Y16406442D01*
X18618004Y16963585D02*
X16946576Y17335013D01*
X17503719Y16530252D02*
X17503719Y17458823D01*
X16946576Y16901680D02*
X18618004Y16530252D01*
X17194195Y15973109D02*
X18494195Y15973109D01*
X18494195Y15973109D02*
X18494195Y15663585D01*
X18494195Y15663585D02*
X18432290Y15477871D01*
X18432290Y15477871D02*
X18308480Y15354061D01*
X18308480Y15354061D02*
X18184671Y15292156D01*
X18184671Y15292156D02*
X17937052Y15230252D01*
X17937052Y15230252D02*
X17751338Y15230252D01*
X17751338Y15230252D02*
X17503719Y15292156D01*
X17503719Y15292156D02*
X17379909Y15354061D01*
X17379909Y15354061D02*
X17256100Y15477871D01*
X17256100Y15477871D02*
X17194195Y15663585D01*
X17194195Y15663585D02*
X17194195Y15973109D01*
X17256100Y14735013D02*
X17194195Y14549299D01*
X17194195Y14549299D02*
X17194195Y14239775D01*
X17194195Y14239775D02*
X17256100Y14115966D01*
X17256100Y14115966D02*
X17318004Y14054061D01*
X17318004Y14054061D02*
X17441814Y13992156D01*
X17441814Y13992156D02*
X17565623Y13992156D01*
X17565623Y13992156D02*
X17689433Y14054061D01*
X17689433Y14054061D02*
X17751338Y14115966D01*
X17751338Y14115966D02*
X17813242Y14239775D01*
X17813242Y14239775D02*
X17875147Y14487394D01*
X17875147Y14487394D02*
X17937052Y14611204D01*
X17937052Y14611204D02*
X17998957Y14673109D01*
X17998957Y14673109D02*
X18122766Y14735013D01*
X18122766Y14735013D02*
X18246576Y14735013D01*
X18246576Y14735013D02*
X18370385Y14673109D01*
X18370385Y14673109D02*
X18432290Y14611204D01*
X18432290Y14611204D02*
X18494195Y14487394D01*
X18494195Y14487394D02*
X18494195Y14177871D01*
X18494195Y14177871D02*
X18432290Y13992156D01*
X17194195Y12692157D02*
X17813242Y13125490D01*
X17194195Y13435014D02*
X18494195Y13435014D01*
X18494195Y13435014D02*
X18494195Y12939776D01*
X18494195Y12939776D02*
X18432290Y12815966D01*
X18432290Y12815966D02*
X18370385Y12754061D01*
X18370385Y12754061D02*
X18246576Y12692157D01*
X18246576Y12692157D02*
X18060861Y12692157D01*
X18060861Y12692157D02*
X17937052Y12754061D01*
X17937052Y12754061D02*
X17875147Y12815966D01*
X17875147Y12815966D02*
X17813242Y12939776D01*
X17813242Y12939776D02*
X17813242Y13435014D01*
X24771203Y5605291D02*
X24647393Y5667196D01*
X24647393Y5667196D02*
X24461679Y5667196D01*
X24461679Y5667196D02*
X24275965Y5605291D01*
X24275965Y5605291D02*
X24152155Y5481481D01*
X24152155Y5481481D02*
X24090250Y5357672D01*
X24090250Y5357672D02*
X24028346Y5110053D01*
X24028346Y5110053D02*
X24028346Y4924339D01*
X24028346Y4924339D02*
X24090250Y4676720D01*
X24090250Y4676720D02*
X24152155Y4552910D01*
X24152155Y4552910D02*
X24275965Y4429100D01*
X24275965Y4429100D02*
X24461679Y4367196D01*
X24461679Y4367196D02*
X24585488Y4367196D01*
X24585488Y4367196D02*
X24771203Y4429100D01*
X24771203Y4429100D02*
X24833107Y4491005D01*
X24833107Y4491005D02*
X24833107Y4924339D01*
X24833107Y4924339D02*
X24585488Y4924339D01*
X25390250Y4367196D02*
X25390250Y5667196D01*
X25390250Y5667196D02*
X26133107Y4367196D01*
X26133107Y4367196D02*
X26133107Y5667196D01*
X26752155Y4367196D02*
X26752155Y5667196D01*
X26752155Y5667196D02*
X27061679Y5667196D01*
X27061679Y5667196D02*
X27247393Y5605291D01*
X27247393Y5605291D02*
X27371203Y5481481D01*
X27371203Y5481481D02*
X27433108Y5357672D01*
X27433108Y5357672D02*
X27495012Y5110053D01*
X27495012Y5110053D02*
X27495012Y4924339D01*
X27495012Y4924339D02*
X27433108Y4676720D01*
X27433108Y4676720D02*
X27371203Y4552910D01*
X27371203Y4552910D02*
X27247393Y4429100D01*
X27247393Y4429100D02*
X27061679Y4367196D01*
X27061679Y4367196D02*
X26752155Y4367196D01*
X9758748Y23541005D02*
X9696844Y23479100D01*
X9696844Y23479100D02*
X9511129Y23417196D01*
X9511129Y23417196D02*
X9387320Y23417196D01*
X9387320Y23417196D02*
X9201606Y23479100D01*
X9201606Y23479100D02*
X9077796Y23602910D01*
X9077796Y23602910D02*
X9015891Y23726720D01*
X9015891Y23726720D02*
X8953987Y23974339D01*
X8953987Y23974339D02*
X8953987Y24160053D01*
X8953987Y24160053D02*
X9015891Y24407672D01*
X9015891Y24407672D02*
X9077796Y24531481D01*
X9077796Y24531481D02*
X9201606Y24655291D01*
X9201606Y24655291D02*
X9387320Y24717196D01*
X9387320Y24717196D02*
X9511129Y24717196D01*
X9511129Y24717196D02*
X9696844Y24655291D01*
X9696844Y24655291D02*
X9758748Y24593386D01*
X10749225Y24098148D02*
X10934939Y24036243D01*
X10934939Y24036243D02*
X10996844Y23974339D01*
X10996844Y23974339D02*
X11058748Y23850529D01*
X11058748Y23850529D02*
X11058748Y23664815D01*
X11058748Y23664815D02*
X10996844Y23541005D01*
X10996844Y23541005D02*
X10934939Y23479100D01*
X10934939Y23479100D02*
X10811129Y23417196D01*
X10811129Y23417196D02*
X10315891Y23417196D01*
X10315891Y23417196D02*
X10315891Y24717196D01*
X10315891Y24717196D02*
X10749225Y24717196D01*
X10749225Y24717196D02*
X10873034Y24655291D01*
X10873034Y24655291D02*
X10934939Y24593386D01*
X10934939Y24593386D02*
X10996844Y24469577D01*
X10996844Y24469577D02*
X10996844Y24345767D01*
X10996844Y24345767D02*
X10934939Y24221958D01*
X10934939Y24221958D02*
X10873034Y24160053D01*
X10873034Y24160053D02*
X10749225Y24098148D01*
X10749225Y24098148D02*
X10315891Y24098148D01*
X11615891Y24717196D02*
X11615891Y23664815D01*
X11615891Y23664815D02*
X11677796Y23541005D01*
X11677796Y23541005D02*
X11739701Y23479100D01*
X11739701Y23479100D02*
X11863510Y23417196D01*
X11863510Y23417196D02*
X12111129Y23417196D01*
X12111129Y23417196D02*
X12234939Y23479100D01*
X12234939Y23479100D02*
X12296844Y23541005D01*
X12296844Y23541005D02*
X12358748Y23664815D01*
X12358748Y23664815D02*
X12358748Y24717196D01*
X12915892Y23479100D02*
X13101606Y23417196D01*
X13101606Y23417196D02*
X13411130Y23417196D01*
X13411130Y23417196D02*
X13534939Y23479100D01*
X13534939Y23479100D02*
X13596844Y23541005D01*
X13596844Y23541005D02*
X13658749Y23664815D01*
X13658749Y23664815D02*
X13658749Y23788624D01*
X13658749Y23788624D02*
X13596844Y23912434D01*
X13596844Y23912434D02*
X13534939Y23974339D01*
X13534939Y23974339D02*
X13411130Y24036243D01*
X13411130Y24036243D02*
X13163511Y24098148D01*
X13163511Y24098148D02*
X13039701Y24160053D01*
X13039701Y24160053D02*
X12977796Y24221958D01*
X12977796Y24221958D02*
X12915892Y24345767D01*
X12915892Y24345767D02*
X12915892Y24469577D01*
X12915892Y24469577D02*
X12977796Y24593386D01*
X12977796Y24593386D02*
X13039701Y24655291D01*
X13039701Y24655291D02*
X13163511Y24717196D01*
X13163511Y24717196D02*
X13473034Y24717196D01*
X13473034Y24717196D02*
X13658749Y24655291D01*
X15520861Y17335013D02*
X15520861Y16406442D01*
X16078004Y16963585D02*
X14406576Y17335013D01*
X14963719Y16530252D02*
X14963719Y17458823D01*
X14406576Y16901680D02*
X16078004Y16530252D01*
X14654195Y15230252D02*
X15273242Y15663585D01*
X14654195Y15973109D02*
X15954195Y15973109D01*
X15954195Y15973109D02*
X15954195Y15477871D01*
X15954195Y15477871D02*
X15892290Y15354061D01*
X15892290Y15354061D02*
X15830385Y15292156D01*
X15830385Y15292156D02*
X15706576Y15230252D01*
X15706576Y15230252D02*
X15520861Y15230252D01*
X15520861Y15230252D02*
X15397052Y15292156D01*
X15397052Y15292156D02*
X15335147Y15354061D01*
X15335147Y15354061D02*
X15273242Y15477871D01*
X15273242Y15477871D02*
X15273242Y15973109D01*
X14654195Y14673109D02*
X15954195Y14673109D01*
X15134195Y13090239D02*
X16434195Y13090239D01*
X16434195Y13090239D02*
X15505623Y12656905D01*
X15505623Y12656905D02*
X16434195Y12223572D01*
X16434195Y12223572D02*
X15134195Y12223572D01*
X15134195Y10985477D02*
X15134195Y11604525D01*
X15134195Y11604525D02*
X16434195Y11604525D01*
X15505623Y10614048D02*
X15505623Y9995001D01*
X15134195Y10737858D02*
X16434195Y10304525D01*
X16434195Y10304525D02*
X15134195Y9871191D01*
X15815147Y9004524D02*
X15753242Y8818810D01*
X15753242Y8818810D02*
X15691338Y8756905D01*
X15691338Y8756905D02*
X15567528Y8695001D01*
X15567528Y8695001D02*
X15381814Y8695001D01*
X15381814Y8695001D02*
X15258004Y8756905D01*
X15258004Y8756905D02*
X15196100Y8818810D01*
X15196100Y8818810D02*
X15134195Y8942620D01*
X15134195Y8942620D02*
X15134195Y9437858D01*
X15134195Y9437858D02*
X16434195Y9437858D01*
X16434195Y9437858D02*
X16434195Y9004524D01*
X16434195Y9004524D02*
X16372290Y8880715D01*
X16372290Y8880715D02*
X16310385Y8818810D01*
X16310385Y8818810D02*
X16186576Y8756905D01*
X16186576Y8756905D02*
X16062766Y8756905D01*
X16062766Y8756905D02*
X15938957Y8818810D01*
X15938957Y8818810D02*
X15877052Y8880715D01*
X15877052Y8880715D02*
X15815147Y9004524D01*
X15815147Y9004524D02*
X15815147Y9437858D01*
X15258004Y8137858D02*
X15196100Y8075953D01*
X15196100Y8075953D02*
X15134195Y8137858D01*
X15134195Y8137858D02*
X15196100Y8199762D01*
X15196100Y8199762D02*
X15258004Y8137858D01*
X15258004Y8137858D02*
X15134195Y8137858D01*
X15258004Y6775953D02*
X15196100Y6837857D01*
X15196100Y6837857D02*
X15134195Y7023572D01*
X15134195Y7023572D02*
X15134195Y7147381D01*
X15134195Y7147381D02*
X15196100Y7333095D01*
X15196100Y7333095D02*
X15319909Y7456905D01*
X15319909Y7456905D02*
X15443719Y7518810D01*
X15443719Y7518810D02*
X15691338Y7580714D01*
X15691338Y7580714D02*
X15877052Y7580714D01*
X15877052Y7580714D02*
X16124671Y7518810D01*
X16124671Y7518810D02*
X16248480Y7456905D01*
X16248480Y7456905D02*
X16372290Y7333095D01*
X16372290Y7333095D02*
X16434195Y7147381D01*
X16434195Y7147381D02*
X16434195Y7023572D01*
X16434195Y7023572D02*
X16372290Y6837857D01*
X16372290Y6837857D02*
X16310385Y6775953D01*
X16434195Y6342619D02*
X16434195Y5475953D01*
X16434195Y5475953D02*
X15134195Y6342619D01*
X15134195Y6342619D02*
X15134195Y5475953D01*
X21250476Y-3095804D02*
X22055238Y-3095804D01*
X22055238Y-3095804D02*
X21621904Y-3591042D01*
X21621904Y-3591042D02*
X21807619Y-3591042D01*
X21807619Y-3591042D02*
X21931428Y-3652947D01*
X21931428Y-3652947D02*
X21993333Y-3714852D01*
X21993333Y-3714852D02*
X22055238Y-3838661D01*
X22055238Y-3838661D02*
X22055238Y-4148185D01*
X22055238Y-4148185D02*
X21993333Y-4271995D01*
X21993333Y-4271995D02*
X21931428Y-4333900D01*
X21931428Y-4333900D02*
X21807619Y-4395804D01*
X21807619Y-4395804D02*
X21436190Y-4395804D01*
X21436190Y-4395804D02*
X21312381Y-4333900D01*
X21312381Y-4333900D02*
X21250476Y-4271995D01*
X22426666Y-3095804D02*
X22859999Y-4395804D01*
X22859999Y-4395804D02*
X23293333Y-3095804D01*
X23602857Y-3095804D02*
X24407619Y-3095804D01*
X24407619Y-3095804D02*
X23974285Y-3591042D01*
X23974285Y-3591042D02*
X24160000Y-3591042D01*
X24160000Y-3591042D02*
X24283809Y-3652947D01*
X24283809Y-3652947D02*
X24345714Y-3714852D01*
X24345714Y-3714852D02*
X24407619Y-3838661D01*
X24407619Y-3838661D02*
X24407619Y-4148185D01*
X24407619Y-4148185D02*
X24345714Y-4271995D01*
X24345714Y-4271995D02*
X24283809Y-4333900D01*
X24283809Y-4333900D02*
X24160000Y-4395804D01*
X24160000Y-4395804D02*
X23788571Y-4395804D01*
X23788571Y-4395804D02*
X23664762Y-4333900D01*
X23664762Y-4333900D02*
X23602857Y-4271995D01*
X6133333Y22401196D02*
X5700000Y23020243D01*
X5390476Y22401196D02*
X5390476Y23701196D01*
X5390476Y23701196D02*
X5885714Y23701196D01*
X5885714Y23701196D02*
X6009524Y23639291D01*
X6009524Y23639291D02*
X6071429Y23577386D01*
X6071429Y23577386D02*
X6133333Y23453577D01*
X6133333Y23453577D02*
X6133333Y23267862D01*
X6133333Y23267862D02*
X6071429Y23144053D01*
X6071429Y23144053D02*
X6009524Y23082148D01*
X6009524Y23082148D02*
X5885714Y23020243D01*
X5885714Y23020243D02*
X5390476Y23020243D01*
X6566667Y23701196D02*
X7433333Y22401196D01*
X7433333Y23701196D02*
X6566667Y22401196D01*
X5359524Y-2206804D02*
X6102381Y-2206804D01*
X5730953Y-3506804D02*
X5730953Y-2206804D01*
X6411905Y-2206804D02*
X7278571Y-3506804D01*
X7278571Y-2206804D02*
X6411905Y-3506804D01*
X20600861Y17335013D02*
X20600861Y16406442D01*
X21158004Y16963585D02*
X19486576Y17335013D01*
X20043719Y16530252D02*
X20043719Y17458823D01*
X19486576Y16901680D02*
X21158004Y16530252D01*
X19734195Y15973109D02*
X21034195Y15973109D01*
X21034195Y15973109D02*
X21034195Y15663585D01*
X21034195Y15663585D02*
X20972290Y15477871D01*
X20972290Y15477871D02*
X20848480Y15354061D01*
X20848480Y15354061D02*
X20724671Y15292156D01*
X20724671Y15292156D02*
X20477052Y15230252D01*
X20477052Y15230252D02*
X20291338Y15230252D01*
X20291338Y15230252D02*
X20043719Y15292156D01*
X20043719Y15292156D02*
X19919909Y15354061D01*
X19919909Y15354061D02*
X19796100Y15477871D01*
X19796100Y15477871D02*
X19734195Y15663585D01*
X19734195Y15663585D02*
X19734195Y15973109D01*
X19858004Y13930252D02*
X19796100Y13992156D01*
X19796100Y13992156D02*
X19734195Y14177871D01*
X19734195Y14177871D02*
X19734195Y14301680D01*
X19734195Y14301680D02*
X19796100Y14487394D01*
X19796100Y14487394D02*
X19919909Y14611204D01*
X19919909Y14611204D02*
X20043719Y14673109D01*
X20043719Y14673109D02*
X20291338Y14735013D01*
X20291338Y14735013D02*
X20477052Y14735013D01*
X20477052Y14735013D02*
X20724671Y14673109D01*
X20724671Y14673109D02*
X20848480Y14611204D01*
X20848480Y14611204D02*
X20972290Y14487394D01*
X20972290Y14487394D02*
X21034195Y14301680D01*
X21034195Y14301680D02*
X21034195Y14177871D01*
X21034195Y14177871D02*
X20972290Y13992156D01*
X20972290Y13992156D02*
X20910385Y13930252D01*
X19734195Y13373109D02*
X21034195Y13373109D01*
X21034195Y13373109D02*
X21034195Y13063585D01*
X21034195Y13063585D02*
X20972290Y12877871D01*
X20972290Y12877871D02*
X20848480Y12754061D01*
X20848480Y12754061D02*
X20724671Y12692156D01*
X20724671Y12692156D02*
X20477052Y12630252D01*
X20477052Y12630252D02*
X20291338Y12630252D01*
X20291338Y12630252D02*
X20043719Y12692156D01*
X20043719Y12692156D02*
X19919909Y12754061D01*
X19919909Y12754061D02*
X19796100Y12877871D01*
X19796100Y12877871D02*
X19734195Y13063585D01*
X19734195Y13063585D02*
X19734195Y13373109D01*
X537666Y11920696D02*
X537666Y10992124D01*
X537666Y10992124D02*
X475761Y10806410D01*
X475761Y10806410D02*
X351952Y10682600D01*
X351952Y10682600D02*
X166237Y10620696D01*
X166237Y10620696D02*
X42428Y10620696D01*
X1094809Y10992124D02*
X1713856Y10992124D01*
X970999Y10620696D02*
X1404332Y11920696D01*
X1404332Y11920696D02*
X1837666Y10620696D01*
X3013856Y10744505D02*
X2951952Y10682600D01*
X2951952Y10682600D02*
X2766237Y10620696D01*
X2766237Y10620696D02*
X2642428Y10620696D01*
X2642428Y10620696D02*
X2456714Y10682600D01*
X2456714Y10682600D02*
X2332904Y10806410D01*
X2332904Y10806410D02*
X2270999Y10930220D01*
X2270999Y10930220D02*
X2209095Y11177839D01*
X2209095Y11177839D02*
X2209095Y11363553D01*
X2209095Y11363553D02*
X2270999Y11611172D01*
X2270999Y11611172D02*
X2332904Y11734981D01*
X2332904Y11734981D02*
X2456714Y11858791D01*
X2456714Y11858791D02*
X2642428Y11920696D01*
X2642428Y11920696D02*
X2766237Y11920696D01*
X2766237Y11920696D02*
X2951952Y11858791D01*
X2951952Y11858791D02*
X3013856Y11796886D01*
X3570999Y10620696D02*
X3570999Y11920696D01*
X3570999Y11301648D02*
X4313856Y11301648D01*
X4313856Y10620696D02*
X4313856Y11920696D01*
X5180523Y11920696D02*
X5428142Y11920696D01*
X5428142Y11920696D02*
X5551952Y11858791D01*
X5551952Y11858791D02*
X5675761Y11734981D01*
X5675761Y11734981D02*
X5737666Y11487362D01*
X5737666Y11487362D02*
X5737666Y11054029D01*
X5737666Y11054029D02*
X5675761Y10806410D01*
X5675761Y10806410D02*
X5551952Y10682600D01*
X5551952Y10682600D02*
X5428142Y10620696D01*
X5428142Y10620696D02*
X5180523Y10620696D01*
X5180523Y10620696D02*
X5056714Y10682600D01*
X5056714Y10682600D02*
X4932904Y10806410D01*
X4932904Y10806410D02*
X4871000Y11054029D01*
X4871000Y11054029D02*
X4871000Y11487362D01*
X4871000Y11487362D02*
X4932904Y11734981D01*
X4932904Y11734981D02*
X5056714Y11858791D01*
X5056714Y11858791D02*
X5180523Y11920696D01*
X692429Y9703886D02*
X754333Y9765791D01*
X754333Y9765791D02*
X878143Y9827696D01*
X878143Y9827696D02*
X1187667Y9827696D01*
X1187667Y9827696D02*
X1311476Y9765791D01*
X1311476Y9765791D02*
X1373381Y9703886D01*
X1373381Y9703886D02*
X1435286Y9580077D01*
X1435286Y9580077D02*
X1435286Y9456267D01*
X1435286Y9456267D02*
X1373381Y9270553D01*
X1373381Y9270553D02*
X630524Y8527696D01*
X630524Y8527696D02*
X1435286Y8527696D01*
X2240047Y9827696D02*
X2363857Y9827696D01*
X2363857Y9827696D02*
X2487666Y9765791D01*
X2487666Y9765791D02*
X2549571Y9703886D01*
X2549571Y9703886D02*
X2611476Y9580077D01*
X2611476Y9580077D02*
X2673381Y9332458D01*
X2673381Y9332458D02*
X2673381Y9022934D01*
X2673381Y9022934D02*
X2611476Y8775315D01*
X2611476Y8775315D02*
X2549571Y8651505D01*
X2549571Y8651505D02*
X2487666Y8589600D01*
X2487666Y8589600D02*
X2363857Y8527696D01*
X2363857Y8527696D02*
X2240047Y8527696D01*
X2240047Y8527696D02*
X2116238Y8589600D01*
X2116238Y8589600D02*
X2054333Y8651505D01*
X2054333Y8651505D02*
X1992428Y8775315D01*
X1992428Y8775315D02*
X1930524Y9022934D01*
X1930524Y9022934D02*
X1930524Y9332458D01*
X1930524Y9332458D02*
X1992428Y9580077D01*
X1992428Y9580077D02*
X2054333Y9703886D01*
X2054333Y9703886D02*
X2116238Y9765791D01*
X2116238Y9765791D02*
X2240047Y9827696D01*
X3168619Y9703886D02*
X3230523Y9765791D01*
X3230523Y9765791D02*
X3354333Y9827696D01*
X3354333Y9827696D02*
X3663857Y9827696D01*
X3663857Y9827696D02*
X3787666Y9765791D01*
X3787666Y9765791D02*
X3849571Y9703886D01*
X3849571Y9703886D02*
X3911476Y9580077D01*
X3911476Y9580077D02*
X3911476Y9456267D01*
X3911476Y9456267D02*
X3849571Y9270553D01*
X3849571Y9270553D02*
X3106714Y8527696D01*
X3106714Y8527696D02*
X3911476Y8527696D01*
X4406714Y9703886D02*
X4468618Y9765791D01*
X4468618Y9765791D02*
X4592428Y9827696D01*
X4592428Y9827696D02*
X4901952Y9827696D01*
X4901952Y9827696D02*
X5025761Y9765791D01*
X5025761Y9765791D02*
X5087666Y9703886D01*
X5087666Y9703886D02*
X5149571Y9580077D01*
X5149571Y9580077D02*
X5149571Y9456267D01*
X5149571Y9456267D02*
X5087666Y9270553D01*
X5087666Y9270553D02*
X4344809Y8527696D01*
X4344809Y8527696D02*
X5149571Y8527696D01*
X13884195Y15812857D02*
X12831814Y15812857D01*
X12831814Y15812857D02*
X12708004Y15750952D01*
X12708004Y15750952D02*
X12646100Y15689047D01*
X12646100Y15689047D02*
X12584195Y15565238D01*
X12584195Y15565238D02*
X12584195Y15317619D01*
X12584195Y15317619D02*
X12646100Y15193809D01*
X12646100Y15193809D02*
X12708004Y15131904D01*
X12708004Y15131904D02*
X12831814Y15070000D01*
X12831814Y15070000D02*
X13884195Y15070000D01*
X12646100Y14512856D02*
X12584195Y14327142D01*
X12584195Y14327142D02*
X12584195Y14017618D01*
X12584195Y14017618D02*
X12646100Y13893809D01*
X12646100Y13893809D02*
X12708004Y13831904D01*
X12708004Y13831904D02*
X12831814Y13769999D01*
X12831814Y13769999D02*
X12955623Y13769999D01*
X12955623Y13769999D02*
X13079433Y13831904D01*
X13079433Y13831904D02*
X13141338Y13893809D01*
X13141338Y13893809D02*
X13203242Y14017618D01*
X13203242Y14017618D02*
X13265147Y14265237D01*
X13265147Y14265237D02*
X13327052Y14389047D01*
X13327052Y14389047D02*
X13388957Y14450952D01*
X13388957Y14450952D02*
X13512766Y14512856D01*
X13512766Y14512856D02*
X13636576Y14512856D01*
X13636576Y14512856D02*
X13760385Y14450952D01*
X13760385Y14450952D02*
X13822290Y14389047D01*
X13822290Y14389047D02*
X13884195Y14265237D01*
X13884195Y14265237D02*
X13884195Y13955714D01*
X13884195Y13955714D02*
X13822290Y13769999D01*
X13265147Y12779523D02*
X13203242Y12593809D01*
X13203242Y12593809D02*
X13141338Y12531904D01*
X13141338Y12531904D02*
X13017528Y12470000D01*
X13017528Y12470000D02*
X12831814Y12470000D01*
X12831814Y12470000D02*
X12708004Y12531904D01*
X12708004Y12531904D02*
X12646100Y12593809D01*
X12646100Y12593809D02*
X12584195Y12717619D01*
X12584195Y12717619D02*
X12584195Y13212857D01*
X12584195Y13212857D02*
X13884195Y13212857D01*
X13884195Y13212857D02*
X13884195Y12779523D01*
X13884195Y12779523D02*
X13822290Y12655714D01*
X13822290Y12655714D02*
X13760385Y12593809D01*
X13760385Y12593809D02*
X13636576Y12531904D01*
X13636576Y12531904D02*
X13512766Y12531904D01*
X13512766Y12531904D02*
X13388957Y12593809D01*
X13388957Y12593809D02*
X13327052Y12655714D01*
X13327052Y12655714D02*
X13265147Y12779523D01*
X13265147Y12779523D02*
X13265147Y13212857D01*
X13760385Y11974761D02*
X13822290Y11912857D01*
X13822290Y11912857D02*
X13884195Y11789047D01*
X13884195Y11789047D02*
X13884195Y11479523D01*
X13884195Y11479523D02*
X13822290Y11355714D01*
X13822290Y11355714D02*
X13760385Y11293809D01*
X13760385Y11293809D02*
X13636576Y11231904D01*
X13636576Y11231904D02*
X13512766Y11231904D01*
X13512766Y11231904D02*
X13327052Y11293809D01*
X13327052Y11293809D02*
X12584195Y12036666D01*
X12584195Y12036666D02*
X12584195Y11231904D01*
X13884195Y10798571D02*
X13884195Y9993809D01*
X13884195Y9993809D02*
X13388957Y10427143D01*
X13388957Y10427143D02*
X13388957Y10241428D01*
X13388957Y10241428D02*
X13327052Y10117619D01*
X13327052Y10117619D02*
X13265147Y10055714D01*
X13265147Y10055714D02*
X13141338Y9993809D01*
X13141338Y9993809D02*
X12831814Y9993809D01*
X12831814Y9993809D02*
X12708004Y10055714D01*
X12708004Y10055714D02*
X12646100Y10117619D01*
X12646100Y10117619D02*
X12584195Y10241428D01*
X12584195Y10241428D02*
X12584195Y10612857D01*
X12584195Y10612857D02*
X12646100Y10736666D01*
X12646100Y10736666D02*
X12708004Y10798571D01*
X13760385Y9498571D02*
X13822290Y9436667D01*
X13822290Y9436667D02*
X13884195Y9312857D01*
X13884195Y9312857D02*
X13884195Y9003333D01*
X13884195Y9003333D02*
X13822290Y8879524D01*
X13822290Y8879524D02*
X13760385Y8817619D01*
X13760385Y8817619D02*
X13636576Y8755714D01*
X13636576Y8755714D02*
X13512766Y8755714D01*
X13512766Y8755714D02*
X13327052Y8817619D01*
X13327052Y8817619D02*
X12584195Y9560476D01*
X12584195Y9560476D02*
X12584195Y8755714D01*
X12584195Y7455715D02*
X13203242Y7889048D01*
X12584195Y8198572D02*
X13884195Y8198572D01*
X13884195Y8198572D02*
X13884195Y7703334D01*
X13884195Y7703334D02*
X13822290Y7579524D01*
X13822290Y7579524D02*
X13760385Y7517619D01*
X13760385Y7517619D02*
X13636576Y7455715D01*
X13636576Y7455715D02*
X13450861Y7455715D01*
X13450861Y7455715D02*
X13327052Y7517619D01*
X13327052Y7517619D02*
X13265147Y7579524D01*
X13265147Y7579524D02*
X13203242Y7703334D01*
X13203242Y7703334D02*
X13203242Y8198572D01*
X13884195Y6650953D02*
X13884195Y6527143D01*
X13884195Y6527143D02*
X13822290Y6403334D01*
X13822290Y6403334D02*
X13760385Y6341429D01*
X13760385Y6341429D02*
X13636576Y6279524D01*
X13636576Y6279524D02*
X13388957Y6217619D01*
X13388957Y6217619D02*
X13079433Y6217619D01*
X13079433Y6217619D02*
X12831814Y6279524D01*
X12831814Y6279524D02*
X12708004Y6341429D01*
X12708004Y6341429D02*
X12646100Y6403334D01*
X12646100Y6403334D02*
X12584195Y6527143D01*
X12584195Y6527143D02*
X12584195Y6650953D01*
X12584195Y6650953D02*
X12646100Y6774762D01*
X12646100Y6774762D02*
X12708004Y6836667D01*
X12708004Y6836667D02*
X12831814Y6898572D01*
X12831814Y6898572D02*
X13079433Y6960476D01*
X13079433Y6960476D02*
X13388957Y6960476D01*
X13388957Y6960476D02*
X13636576Y6898572D01*
X13636576Y6898572D02*
X13760385Y6836667D01*
X13760385Y6836667D02*
X13822290Y6774762D01*
X13822290Y6774762D02*
X13884195Y6650953D01*
X13760385Y5722381D02*
X13822290Y5660477D01*
X13822290Y5660477D02*
X13884195Y5536667D01*
X13884195Y5536667D02*
X13884195Y5227143D01*
X13884195Y5227143D02*
X13822290Y5103334D01*
X13822290Y5103334D02*
X13760385Y5041429D01*
X13760385Y5041429D02*
X13636576Y4979524D01*
X13636576Y4979524D02*
X13512766Y4979524D01*
X13512766Y4979524D02*
X13327052Y5041429D01*
X13327052Y5041429D02*
X12584195Y5784286D01*
X12584195Y5784286D02*
X12584195Y4979524D01*
X12955623Y4484286D02*
X12955623Y3865239D01*
X12584195Y4608096D02*
X13884195Y4174763D01*
X13884195Y4174763D02*
X12584195Y3741429D01*
X23161680Y10440862D02*
X24090251Y10440862D01*
X23533108Y10998005D02*
X23161680Y9326577D01*
X23966441Y9883720D02*
X23037870Y9883720D01*
X23595013Y9326577D02*
X23966441Y10998005D01*
X25266441Y9698005D02*
X25204537Y9636100D01*
X25204537Y9636100D02*
X25018822Y9574196D01*
X25018822Y9574196D02*
X24895013Y9574196D01*
X24895013Y9574196D02*
X24709299Y9636100D01*
X24709299Y9636100D02*
X24585489Y9759910D01*
X24585489Y9759910D02*
X24523584Y9883720D01*
X24523584Y9883720D02*
X24461680Y10131339D01*
X24461680Y10131339D02*
X24461680Y10317053D01*
X24461680Y10317053D02*
X24523584Y10564672D01*
X24523584Y10564672D02*
X24585489Y10688481D01*
X24585489Y10688481D02*
X24709299Y10812291D01*
X24709299Y10812291D02*
X24895013Y10874196D01*
X24895013Y10874196D02*
X25018822Y10874196D01*
X25018822Y10874196D02*
X25204537Y10812291D01*
X25204537Y10812291D02*
X25266441Y10750386D01*
X25637870Y10874196D02*
X26380727Y10874196D01*
X26009299Y9574196D02*
X26009299Y10874196D01*
X26752156Y9636100D02*
X26937870Y9574196D01*
X26937870Y9574196D02*
X27247394Y9574196D01*
X27247394Y9574196D02*
X27371203Y9636100D01*
X27371203Y9636100D02*
X27433108Y9698005D01*
X27433108Y9698005D02*
X27495013Y9821815D01*
X27495013Y9821815D02*
X27495013Y9945624D01*
X27495013Y9945624D02*
X27433108Y10069434D01*
X27433108Y10069434D02*
X27371203Y10131339D01*
X27371203Y10131339D02*
X27247394Y10193243D01*
X27247394Y10193243D02*
X26999775Y10255148D01*
X26999775Y10255148D02*
X26875965Y10317053D01*
X26875965Y10317053D02*
X26814060Y10378958D01*
X26814060Y10378958D02*
X26752156Y10502767D01*
X26752156Y10502767D02*
X26752156Y10626577D01*
X26752156Y10626577D02*
X26814060Y10750386D01*
X26814060Y10750386D02*
X26875965Y10812291D01*
X26875965Y10812291D02*
X26999775Y10874196D01*
X26999775Y10874196D02*
X27309298Y10874196D01*
X27309298Y10874196D02*
X27495013Y10812291D01*
D10*
%TO.C,J1*%
X-3974181Y10334667D02*
X-3259896Y10334667D01*
X-3259896Y10334667D02*
X-3117039Y10287048D01*
X-3117039Y10287048D02*
X-3021800Y10191810D01*
X-3021800Y10191810D02*
X-2974181Y10048953D01*
X-2974181Y10048953D02*
X-2974181Y9953715D01*
X-2974181Y11334667D02*
X-2974181Y10763239D01*
X-2974181Y11048953D02*
X-3974181Y11048953D01*
X-3974181Y11048953D02*
X-3831324Y10953715D01*
X-3831324Y10953715D02*
X-3736086Y10858477D01*
X-3736086Y10858477D02*
X-3688467Y10763239D01*
D12*
X12014000Y16173000D02*
X7754000Y16173000D01*
X12014000Y3853000D02*
X12014000Y16173000D01*
X3654000Y3853000D02*
X-4706000Y3853000D01*
X7754000Y3853000D02*
X12014000Y3853000D01*
X-4706000Y16173000D02*
X3654000Y16173000D01*
X-4706000Y3853000D02*
X-4706000Y16173000D01*
D10*
%TO.C,J17*%
X27940000Y3810000D02*
X27940000Y6096000D01*
X33020000Y3810000D02*
X27940000Y3810000D01*
X33020000Y6096000D02*
X33020000Y3810000D01*
%TO.C,J6*%
X33020000Y11430000D02*
X27940000Y11430000D01*
X33020000Y13716000D02*
X33020000Y11430000D01*
X27940000Y11430000D02*
X27940000Y13716000D01*
%TO.C,J5*%
X27940000Y13970000D02*
X27940000Y16256000D01*
X33020000Y13970000D02*
X27940000Y13970000D01*
X33020000Y16256000D02*
X33020000Y13970000D01*
%TO.C,J12*%
X14224000Y22860000D02*
X16510000Y22860000D01*
X16510000Y17780000D02*
X14224000Y17780000D01*
X16510000Y22860000D02*
X16510000Y17780000D01*
%TO.C,J3*%
X26670000Y2540000D02*
X26670000Y-2540000D01*
X19050000Y-2540000D02*
X19050000Y2540000D01*
X19050000Y2540000D02*
X26670000Y2540000D01*
X26670000Y-2540000D02*
X19050000Y-2540000D01*
%TO.C,J14*%
X8890000Y20447000D02*
X8890000Y22733000D01*
X9017000Y22860000D02*
X11303000Y22860000D01*
%TO.C,J13*%
X13970000Y22733000D02*
X13970000Y20447000D01*
X11557000Y22860000D02*
X13843000Y22860000D01*
%TO.C,J8*%
X33020000Y8890000D02*
X27940000Y8890000D01*
X27940000Y8890000D02*
X27940000Y11176000D01*
X33020000Y11176000D02*
X33020000Y8890000D01*
%TO.C,J15*%
X11303000Y17780000D02*
X9017000Y17780000D01*
X8890000Y17907000D02*
X8890000Y20193000D01*
%TO.C,J10*%
X16764000Y22860000D02*
X19050000Y22860000D01*
X19050000Y17780000D02*
X16764000Y17780000D01*
X19050000Y22860000D02*
X19050000Y17780000D01*
%TO.C,J7*%
X27940000Y6350000D02*
X27940000Y8636000D01*
X33020000Y8636000D02*
X33020000Y6350000D01*
X33020000Y6350000D02*
X27940000Y6350000D01*
%TO.C,J16*%
X13970000Y20193000D02*
X13970000Y17907000D01*
X13843000Y17780000D02*
X11557000Y17780000D01*
%TO.C,J4*%
X26670000Y17780000D02*
X24384000Y17780000D01*
X24384000Y22860000D02*
X26670000Y22860000D01*
X26670000Y22860000D02*
X26670000Y17780000D01*
%TO.C,J11*%
X21590000Y17780000D02*
X19304000Y17780000D01*
X21590000Y22860000D02*
X21590000Y17780000D01*
X19304000Y22860000D02*
X21590000Y22860000D01*
%TO.C,J9*%
X21844000Y22860000D02*
X24130000Y22860000D01*
X24130000Y17780000D02*
X21844000Y17780000D01*
X24130000Y22860000D02*
X24130000Y17780000D01*
%TO.C,J2*%
X17780000Y2540000D02*
X17780000Y-2540000D01*
X17780000Y-2540000D02*
X10160000Y-2540000D01*
X10160000Y-2540000D02*
X10160000Y2540000D01*
X10160000Y2540000D02*
X17780000Y2540000D01*
%TD*%
M02*
